mtllib material.mtl
usemtl RAL9005.003
v 0.03764500 0.07732000 -0.21600400
v 0.03764500 0.07732000 -0.21600400
v 0.03764500 0.07732000 -0.21600400
v 0.07764500 0.03732000 -0.21600400
v 0.07764500 0.03732000 -0.21600400
v 0.07764500 0.03732000 -0.21600400
v 0.07764500 0.07732000 -0.21600400
v 0.07764500 0.07732000 -0.21600400
v 0.07764500 0.07732000 -0.21600400
v 0.07764500 0.03732000 -0.03050400
v 0.07764500 0.03732000 -0.03050400
v 0.07764500 0.03732000 -0.03050400
v 0.03764500 0.07732000 -0.03050400
v 0.03764500 0.07732000 -0.03050400
v 0.03764500 0.07732000 -0.03050400
v -0.03735500 0.07732000 -0.21600400
v -0.03735500 0.07732000 -0.21600400
v -0.03735500 0.07732000 -0.21600400
v -0.07735500 0.07732000 -0.22800400
v -0.07735500 0.07732000 -0.22800400
v -0.07735500 0.07732000 -0.22800400
v -0.07735500 0.07732000 -0.21600400
v -0.07735500 0.07732000 -0.21600400
v -0.07735500 0.07732000 -0.21600400
v 0.07764500 0.07732000 -0.22800400
v 0.07764500 0.07732000 -0.22800400
v 0.07764500 0.07732000 -0.22800400
v -0.03735500 0.07732000 -0.03050400
v -0.03735500 0.07732000 -0.03050400
v -0.03735500 0.07732000 -0.03050400
v -0.07735500 0.03732000 -0.21600400
v -0.07735500 0.03732000 -0.21600400
v -0.07735500 0.03732000 -0.21600400
v -0.07735500 0.03732000 -0.03050400
v -0.07735500 0.03732000 -0.03050400
v -0.07735500 0.03732000 -0.03050400
v -0.07735500 -0.07768000 -0.22800400
v -0.07735500 -0.07768000 -0.22800400
v -0.07735500 -0.07768000 -0.22800400
v 0.07764500 -0.07768000 -0.22800400
v 0.07764500 -0.07768000 -0.22800400
v 0.07764500 -0.07768000 -0.22800400
v -0.07735500 -0.03768000 -0.03050400
v -0.07735500 -0.03768000 -0.03050400
v -0.07735500 -0.03768000 -0.03050400
v 0.03764500 -0.07768000 -0.03050400
v 0.03764500 -0.07768000 -0.03050400
v 0.03764500 -0.07768000 -0.03050400
v 0.07764500 -0.03768000 -0.03050400
v 0.07764500 -0.03768000 -0.03050400
v 0.07764500 -0.03768000 -0.03050400
v -0.03735500 -0.07768000 -0.03050400
v -0.03735500 -0.07768000 -0.03050400
v -0.03735500 -0.07768000 -0.03050400
v -0.07735500 -0.03768000 -0.21600400
v -0.07735500 -0.03768000 -0.21600400
v -0.07735500 -0.03768000 -0.21600400
v -0.07735500 -0.07768000 -0.21600400
v -0.07735500 -0.07768000 -0.21600400
v -0.07735500 -0.07768000 -0.21600400
v -0.03735500 -0.07768000 -0.21600400
v -0.03735500 -0.07768000 -0.21600400
v -0.03735500 -0.07768000 -0.21600400
v 0.03764500 -0.07768000 -0.21600400
v 0.03764500 -0.07768000 -0.21600400
v 0.03764500 -0.07768000 -0.21600400
v 0.07764500 -0.07768000 -0.21600400
v 0.07764500 -0.07768000 -0.21600400
v 0.07764500 -0.07768000 -0.21600400
v 0.07764500 -0.03768000 -0.21600400
v 0.07764500 -0.03768000 -0.21600400
v 0.07764500 -0.03768000 -0.21600400
v 0.29764500 0.06399600 -0.07732000
v 0.29764500 0.06399600 -0.07732000
v 0.29764500 0.06399600 -0.07732000
v 0.33764500 0.06399600 -0.03732000
v 0.33764500 0.06399600 -0.03732000
v 0.33764500 0.06399600 -0.03732000
v 0.33764500 0.06399600 -0.07732000
v 0.33764500 0.06399600 -0.07732000
v 0.33764500 0.06399600 -0.07732000
v 0.29764500 0.24949600 -0.07732000
v 0.29764500 0.24949600 -0.07732000
v 0.29764500 0.24949600 -0.07732000
v 0.33764500 0.24949600 -0.03732000
v 0.33764500 0.24949600 -0.03732000
v 0.33764500 0.24949600 -0.03732000
v 0.33764500 0.05199600 -0.07732000
v 0.33764500 0.05199600 -0.07732000
v 0.33764500 0.05199600 -0.07732000
v 0.22264500 0.06399600 -0.07732000
v 0.22264500 0.06399600 -0.07732000
v 0.22264500 0.06399600 -0.07732000
v 0.22264500 0.24949600 -0.07732000
v 0.22264500 0.24949600 -0.07732000
v 0.22264500 0.24949600 -0.07732000
v 0.18264500 0.05199600 -0.07732000
v 0.18264500 0.05199600 -0.07732000
v 0.18264500 0.05199600 -0.07732000
v 0.18264500 0.06399600 -0.07732000
v 0.18264500 0.06399600 -0.07732000
v 0.18264500 0.06399600 -0.07732000
v 0.18264500 0.06399600 -0.03732000
v 0.18264500 0.06399600 -0.03732000
v 0.18264500 0.06399600 -0.03732000
v 0.18264500 0.24949600 -0.03732000
v 0.18264500 0.24949600 -0.03732000
v 0.18264500 0.24949600 -0.03732000
v 0.33764500 0.05199600 0.07768000
v 0.33764500 0.05199600 0.07768000
v 0.33764500 0.05199600 0.07768000
v 0.18264500 0.05199600 0.07768000
v 0.18264500 0.05199600 0.07768000
v 0.18264500 0.05199600 0.07768000
v 0.29764500 0.24949600 0.07768000
v 0.29764500 0.24949600 0.07768000
v 0.29764500 0.24949600 0.07768000
v 0.33764500 0.24949600 0.03768000
v 0.33764500 0.24949600 0.03768000
v 0.33764500 0.24949600 0.03768000
v 0.18264500 0.24949600 0.03768000
v 0.18264500 0.24949600 0.03768000
v 0.18264500 0.24949600 0.03768000
v 0.22264500 0.24949600 0.07768000
v 0.22264500 0.24949600 0.07768000
v 0.22264500 0.24949600 0.07768000
v 0.18264500 0.06399600 0.03768000
v 0.18264500 0.06399600 0.03768000
v 0.18264500 0.06399600 0.03768000
v 0.18264500 0.06399600 0.07768000
v 0.18264500 0.06399600 0.07768000
v 0.18264500 0.06399600 0.07768000
v 0.22264500 0.06399600 0.07768000
v 0.22264500 0.06399600 0.07768000
v 0.22264500 0.06399600 0.07768000
v 0.29764500 0.06399600 0.07768000
v 0.29764500 0.06399600 0.07768000
v 0.29764500 0.06399600 0.07768000
v 0.33764500 0.06399600 0.07768000
v 0.33764500 0.06399600 0.07768000
v 0.33764500 0.06399600 0.07768000
v 0.33764500 0.06399600 0.03768000
v 0.33764500 0.06399600 0.03768000
v 0.33764500 0.06399600 0.03768000
vn -0.00000000 -0.00000000 1.00000000
vn 0.70710000 0.70710000 -0.00000000
vn -0.00000000 1.00000000 -0.00000000
vn -0.00000000 -0.00000000 1.00000000
vn 0.70710000 0.70710000 -0.00000000
vn 1.00000000 -0.00000000 -0.00000000
vn -0.00000000 -0.00000000 1.00000000
vn -0.00000000 1.00000000 -0.00000000
vn 1.00000000 -0.00000000 -0.00000000
vn 1.00000000 -0.00000000 -0.00000000
vn 0.70710000 0.70710000 -0.00000000
vn -0.00000000 -0.00000000 1.00000000
vn -0.00000000 1.00000000 -0.00000000
vn -0.00000000 -0.00000000 1.00000000
vn 0.70710000 0.70710000 -0.00000000
vn -0.00000000 1.00000000 -0.00000000
vn -0.70710000 0.70710000 -0.00000000
vn -0.00000000 -0.00000000 1.00000000
vn -0.00000000 -0.00000000 -1.00000000
vn -1.00000000 -0.00000000 -0.00000000
vn -0.00000000 1.00000000 -0.00000000
vn -1.00000000 -0.00000000 -0.00000000
vn -0.00000000 1.00000000 -0.00000000
vn -0.00000000 -0.00000000 1.00000000
vn -0.00000000 -0.00000000 -1.00000000
vn -0.00000000 1.00000000 -0.00000000
vn 1.00000000 -0.00000000 -0.00000000
vn -0.00000000 -0.00000000 1.00000000
vn -0.70710000 0.70710000 -0.00000000
vn -0.00000000 1.00000000 -0.00000000
vn -0.00000000 -0.00000000 1.00000000
vn -0.70710000 0.70710000 -0.00000000
vn -1.00000000 -0.00000000 -0.00000000
vn -0.70710000 0.70710000 -0.00000000
vn -0.00000000 -0.00000000 1.00000000
vn -1.00000000 -0.00000000 -0.00000000
vn -0.00000000 -1.00000000 -0.00000000
vn -0.00000000 -0.00000000 -1.00000000
vn -1.00000000 -0.00000000 -0.00000000
vn -0.00000000 -1.00000000 -0.00000000
vn -0.00000000 -0.00000000 -1.00000000
vn 1.00000000 -0.00000000 -0.00000000
vn -0.70710000 -0.70710000 -0.00000000
vn -0.00000000 -0.00000000 1.00000000
vn -1.00000000 -0.00000000 -0.00000000
vn -0.00000000 -0.00000000 1.00000000
vn 0.70710000 -0.70710000 -0.00000000
vn -0.00000000 -1.00000000 -0.00000000
vn 1.00000000 -0.00000000 -0.00000000
vn 0.70710000 -0.70710000 -0.00000000
vn -0.00000000 -0.00000000 1.00000000
vn -0.00000000 -0.00000000 1.00000000
vn -0.00000000 -1.00000000 -0.00000000
vn -0.70710000 -0.70710000 -0.00000000
vn -0.70710000 -0.70710000 -0.00000000
vn -1.00000000 -0.00000000 -0.00000000
vn -0.00000000 -0.00000000 1.00000000
vn -0.00000000 -0.00000000 1.00000000
vn -1.00000000 -0.00000000 -0.00000000
vn -0.00000000 -1.00000000 -0.00000000
vn -0.70710000 -0.70710000 -0.00000000
vn -0.00000000 -1.00000000 -0.00000000
vn -0.00000000 -0.00000000 1.00000000
vn -0.00000000 -0.00000000 1.00000000
vn 0.70710000 -0.70710000 -0.00000000
vn -0.00000000 -1.00000000 -0.00000000
vn -0.00000000 -0.00000000 1.00000000
vn -0.00000000 -1.00000000 -0.00000000
vn 1.00000000 -0.00000000 -0.00000000
vn -0.00000000 -0.00000000 1.00000000
vn 1.00000000 -0.00000000 -0.00000000
vn 0.70710000 -0.70710000 -0.00000000
vn -0.00000000 1.00000000 -0.00000000
vn 0.70710000 -0.00000000 -0.70710000
vn -0.00000000 -0.00000000 -1.00000000
vn 0.70710000 -0.00000000 -0.70710000
vn -0.00000000 1.00000000 -0.00000000
vn 1.00000000 -0.00000000 -0.00000000
vn -0.00000000 -0.00000000 -1.00000000
vn -0.00000000 1.00000000 -0.00000000
vn 1.00000000 -0.00000000 -0.00000000
vn -0.00000000 -0.00000000 -1.00000000
vn -0.00000000 1.00000000 -0.00000000
vn 0.70710000 -0.00000000 -0.70710000
vn 0.70710000 -0.00000000 -0.70710000
vn 1.00000000 -0.00000000 -0.00000000
vn -0.00000000 1.00000000 -0.00000000
vn -0.00000000 -0.00000000 -1.00000000
vn 1.00000000 -0.00000000 -0.00000000
vn -0.00000000 -1.00000000 -0.00000000
vn -0.00000000 -0.00000000 -1.00000000
vn -0.00000000 1.00000000 -0.00000000
vn -0.70710000 -0.00000000 -0.70710000
vn -0.00000000 -0.00000000 -1.00000000
vn -0.00000000 1.00000000 -0.00000000
vn -0.70710000 -0.00000000 -0.70710000
vn -1.00000000 -0.00000000 -0.00000000
vn -0.00000000 -1.00000000 -0.00000000
vn -0.00000000 -0.00000000 -1.00000000
vn -0.00000000 1.00000000 -0.00000000
vn -1.00000000 -0.00000000 -0.00000000
vn -0.00000000 -0.00000000 -1.00000000
vn -0.70710000 -0.00000000 -0.70710000
vn -0.00000000 1.00000000 -0.00000000
vn -1.00000000 -0.00000000 -0.00000000
vn -0.70710000 -0.00000000 -0.70710000
vn -0.00000000 1.00000000 -0.00000000
vn -1.00000000 -0.00000000 -0.00000000
vn -0.00000000 -0.00000000 1.00000000
vn -0.00000000 -1.00000000 -0.00000000
vn 1.00000000 -0.00000000 -0.00000000
vn -0.00000000 -1.00000000 -0.00000000
vn -0.00000000 -0.00000000 1.00000000
vn -1.00000000 -0.00000000 -0.00000000
vn 0.70710000 -0.00000000 0.70710000
vn -0.00000000 1.00000000 -0.00000000
vn -0.00000000 -0.00000000 1.00000000
vn 1.00000000 -0.00000000 -0.00000000
vn 0.70710000 -0.00000000 0.70710000
vn -0.00000000 1.00000000 -0.00000000
vn -1.00000000 -0.00000000 -0.00000000
vn -0.70710000 -0.00000000 0.70710000
vn -0.00000000 1.00000000 -0.00000000
vn -0.70710000 -0.00000000 0.70710000
vn -0.00000000 1.00000000 -0.00000000
vn -0.00000000 -0.00000000 1.00000000
vn -0.70710000 -0.00000000 0.70710000
vn -0.00000000 1.00000000 -0.00000000
vn -1.00000000 -0.00000000 -0.00000000
vn -0.00000000 -0.00000000 1.00000000
vn -0.00000000 1.00000000 -0.00000000
vn -1.00000000 -0.00000000 -0.00000000
vn -0.00000000 1.00000000 -0.00000000
vn -0.00000000 -0.00000000 1.00000000
vn -0.70710000 -0.00000000 0.70710000
vn -0.00000000 1.00000000 -0.00000000
vn 0.70710000 -0.00000000 0.70710000
vn -0.00000000 -0.00000000 1.00000000
vn -0.00000000 -0.00000000 1.00000000
vn -0.00000000 1.00000000 -0.00000000
vn 1.00000000 -0.00000000 -0.00000000
vn -0.00000000 1.00000000 -0.00000000
vn 1.00000000 -0.00000000 -0.00000000
vn 0.70710000 -0.00000000 0.70710000
f 1//1 4//4 7//7
f 11//11 5//5 2//2
f 2//2 15//15 11//11
f 13//13 3//3 16//16
f 21//21 23//23 16//16
f 26//26 21//21 3//3
f 16//16 3//3 21//21
f 16//16 30//30 13//13
f 3//3 8//8 26//26
f 32//32 34//34 29//29
f 29//29 17//17 32//32
f 31//31 18//18 24//24
f 38//38 19//19 25//25
f 25//25 41//41 38//38
f 28//28 35//35 44//44
f 14//14 46//46 51//51
f 52//52 14//14 28//28
f 14//14 52//52 46//46
f 51//51 12//12 14//14
f 44//44 52//52 28//28
f 36//36 33//33 56//56
f 39//39 59//59 56//56
f 20//20 39//39 33//33
f 56//56 33//33 39//39
f 56//56 45//45 36//36
f 33//33 22//22 20//20
f 43//43 55//55 61//61
f 61//61 54//54 43//43
f 63//63 57//57 58//58
f 53//53 62//62 66//66
f 40//40 68//68 66//66
f 37//37 40//40 62//62
f 66//66 62//62 40//40
f 66//66 48//48 53//53
f 62//62 60//60 37//37
f 49//49 71//71 6//6
f 27//27 9//9 6//6
f 42//42 27//27 71//71
f 6//6 71//71 27//27
f 6//6 10//10 49//49
f 71//71 69//69 42//42
f 47//47 65//65 72//72
f 72//72 50//50 47//47
f 70//70 64//64 67//67
f 73//73 77//77 80//80
f 74//74 84//84 85//85
f 85//85 76//76 74//74
f 88//88 91//91 75//75
f 75//75 91//91 94//94
f 94//94 82//82 75//75
f 99//99 102//102 91//91
f 91//91 88//88 99//99
f 75//75 79//79 88//88
f 103//103 106//106 96//96
f 96//96 93//93 103//103
f 104//104 92//92 100//100
f 110//110 112//112 98//98
f 98//98 90//90 110//110
f 95//95 116//116 120//120
f 116//116 95//95 107//107
f 120//120 87//87 95//95
f 107//107 123//123 116//116
f 123//123 125//125 116//116
f 87//87 83//83 95//95
f 108//108 105//105 129//129
f 114//114 132//132 129//129
f 97//97 114//114 105//105
f 129//129 105//105 114//114
f 129//129 121//121 108//108
f 105//105 101//101 97//97
f 127//127 135//135 124//124
f 124//124 122//122 127//127
f 133//133 128//128 131//131
f 138//138 117//117 126//126
f 109//109 139//139 138//138
f 113//113 109//109 134//134
f 138//138 134//134 109//109
f 126//126 134//134 138//138
f 134//134 130//130 113//113
f 118//118 143//143 78//78
f 89//89 81//81 78//78
f 111//111 89//89 143//143
f 78//78 143//143 89//89
f 78//78 86//86 118//118
f 143//143 141//141 111//111
f 137//137 144//144 119//119
f 119//119 115//115 137//137
f 142//142 136//136 140//140

