mtllib material.mtl
usemtl Material-Metal.002
v 0.05650100 0.04695400 0.00900300
v 0.05650100 0.07108000 0.00658100
v 0.05649300 0.04997800 0.00651600
v 0.05650000 0.07265600 0.00887800
v 0.05650100 0.04333900 0.01062300
v 0.05650400 0.04891600 0.04914600
v 0.05650000 0.07258600 0.04863100
v 0.05649900 0.07725600 0.04032800
v 0.05648700 0.07724100 0.00987800
v 0.05619200 0.04335300 0.04151200
v 0.05870000 0.04432200 0.00500000
v 0.05872600 0.04259700 0.04255700
v 0.05855300 0.04233600 0.00498700
v 0.05872600 0.04444900 0.04194800
v 0.05862900 0.07831800 0.00499000
v 0.05869100 0.07624300 0.04128300
v 0.05870000 0.07632200 0.00500000
v 0.05858600 0.07829600 0.04155100
v 0.05870300 0.05131000 0.04786800
v 0.05874400 0.06949400 0.04876800
v 0.05868200 0.05126200 0.04987400
v 0.06019900 0.07399000 0.01983800
v 0.06138800 0.06558100 0.01769800
v 0.06050000 0.07048200 0.00922700
v 0.06217700 0.06428300 0.01192900
v 0.06175900 0.07585000 0.01197600
v 0.04816000 0.04487100 0.00905400
v 0.04249100 0.04808500 0.00861700
v 0.04356600 0.04230500 0.00869900
v 0.04254700 0.07332000 0.00889700
v 0.05603600 0.04540000 0.04643700
v 0.05506800 0.04234200 0.03996900
v 0.04250000 0.04232200 0.00500000
v 0.05103800 0.04232200 0.01078600
v 0.04250000 0.07832200 0.00500000
v 0.06100000 0.04432200 0.00500000
v 0.06100000 0.07632200 0.00500000
v 0.06250000 0.04262200 0.00500000
v 0.06127500 0.04252100 0.00507000
v 0.06251000 0.07815700 0.00499400
v 0.06103300 0.07812300 0.00501000
v 0.04244600 0.07831300 0.00854600
v 0.05460500 0.07816000 0.04167100
v 0.05694500 0.07180900 0.04966700
v 0.04250000 0.05082200 0.00650000
v 0.04250600 0.07094300 0.00653300
v 0.05367200 0.07731000 0.03973200
v 0.04333600 0.07731800 0.01048700
v 0.05098000 0.04329700 0.01101700
v 0.06102000 0.07685500 0.04242200
v 0.06095700 0.06954400 0.04875400
v 0.06096600 0.05069600 0.04778200
v 0.06100800 0.04440100 0.04130700
v 0.06248900 0.07087900 0.02093000
v 0.06249300 0.07584900 0.01804800
v 0.06249400 0.07080900 0.00911300
v 0.06251400 0.04582700 0.03282200
v 0.06249300 0.05287400 0.02823800
v 0.05951400 0.05408500 0.02825600
v 0.05950400 0.04566300 0.03311500
v 0.06250300 0.04564500 0.04299300
v 0.05950700 0.04573200 0.04306800
v 0.06249800 0.05433200 0.04800300
v 0.05950500 0.05438800 0.04797700
v 0.06215200 0.06365100 0.04267800
v 0.05951600 0.06288300 0.04309200
v 0.06251600 0.06298200 0.03288800
v 0.05950000 0.06285700 0.03292700
v 0.06246400 0.05572200 0.02832400
v 0.05950100 0.05628600 0.02755200
v 0.06249900 0.06405300 0.02298600
v 0.05950400 0.06389900 0.02321800
v 0.05952300 0.06396700 0.01199000
v 0.06249200 0.05431800 0.00641700
v 0.05950300 0.05408600 0.00644300
v 0.06249500 0.04470500 0.01186400
v 0.05950400 0.04471800 0.01181800
v 0.06249100 0.04473500 0.02319700
v 0.05951100 0.04468100 0.02296300
v 0.06101600 0.04245800 0.04065400
v 0.06102500 0.04848300 0.04917900
v 0.06233000 0.07826500 0.04048100
v 0.06256300 0.07259300 0.04915100
v 0.06253000 0.05041100 0.04978300
v 0.06248700 0.04249100 0.04193100
v 0.06206000 0.07660900 0.02585300
v 0.06177300 0.06493600 0.02600200
v 0.06173600 0.07650700 0.04246900
vn -0.74840000 0.32650000 0.57730000
vn -0.62320000 -0.35770000 0.69550000
vn -0.63060000 0.26750000 0.72850000
vn -0.80740000 -0.33460000 0.48590000
vn -0.61930000 0.67100000 0.40770000
vn -0.53460000 -0.41640000 0.73540000
vn -0.78650000 0.40750000 0.46400000
vn -0.63840000 -0.73780000 -0.21920000
vn -0.58890000 -0.62950000 0.50680000
vn -0.77550000 0.60450000 -0.18210000
vn 0.30420000 -0.32420000 -0.89580000
vn 0.59820000 -0.73950000 0.30870000
vn 0.55360000 -0.59390000 -0.58380000
vn 0.82950000 -0.50190000 0.24500000
vn 0.56570000 0.58550000 -0.58070000
vn 0.65130000 0.72890000 0.21100000
vn 0.30360000 0.31220000 -0.90020000
vn 0.61770000 0.74060000 0.26460000
vn 0.76860000 -0.20530000 0.60580000
vn 0.36760000 0.25900000 0.89320000
vn 0.57980000 -0.14570000 0.80160000
vn 0.65450000 -0.41060000 -0.63480000
vn 0.94530000 0.31130000 -0.09720000
vn 0.67470000 0.02260000 0.73770000
vn 0.87830000 -0.30830000 0.36540000
vn 0.91400000 -0.40090000 0.06280000
vn -0.13340000 0.28790000 0.94830000
vn -0.65170000 0.24840000 0.71670000
vn -0.48220000 -0.63170000 0.60700000
vn -0.65630000 -0.39210000 0.64460000
vn -0.64280000 -0.47520000 0.60080000
vn -0.85900000 -0.45850000 0.22770000
vn -0.61910000 -0.58910000 -0.51930000
vn -0.32290000 -0.89420000 0.31010000
vn -0.57680000 0.57670000 -0.57850000
vn -0.30070000 -0.35550000 -0.88500000
vn -0.30440000 0.30800000 -0.90140000
vn 0.58800000 -0.55280000 -0.59050000
vn -0.52020000 -0.65280000 -0.55070000
vn 0.58520000 0.58270000 -0.56390000
vn -0.58120000 0.57610000 -0.57470000
vn -0.74020000 0.65750000 0.14070000
vn -0.52020000 0.75310000 0.40280000
vn -0.13000000 0.38870000 0.91220000
vn -0.78320000 0.19410000 0.59070000
vn -0.80220000 -0.22360000 0.55360000
vn -0.80080000 -0.57300000 0.17450000
vn -0.69780000 -0.43610000 0.56830000
vn -0.43260000 0.60650000 0.66710000
vn -0.34830000 0.83250000 0.43090000
vn -0.26630000 0.23000000 0.93600000
vn -0.79970000 -0.25350000 0.54430000
vn -0.77890000 -0.59490000 0.19860000
vn 0.94430000 0.04450000 -0.32600000
vn 0.95210000 -0.28200000 -0.11850000
vn 0.83540000 -0.02760000 0.54900000
vn 0.83870000 0.46000000 0.29140000
vn 0.69480000 0.71860000 -0.03090000
vn 0.99680000 0.07700000 -0.02060000
vn 0.61150000 0.69600000 0.37640000
vn 0.84250000 0.46820000 -0.26650000
vn 0.61530000 0.67630000 -0.40500000
vn 0.83250000 0.00520000 -0.55410000
vn 0.61440000 -0.00730000 -0.78900000
vn 0.88730000 -0.40290000 -0.22460000
vn 0.65920000 -0.62450000 -0.41880000
vn 0.91870000 -0.27800000 0.28040000
vn 0.63110000 -0.67460000 0.38280000
vn 0.71610000 -0.69790000 -0.01220000
vn 0.73140000 -0.30020000 -0.61240000
vn 0.87140000 -0.44500000 -0.20630000
vn 0.61080000 -0.67140000 -0.41970000
vn 0.64740000 -0.65520000 0.38930000
vn 0.83580000 -0.01000000 0.54900000
vn 0.61400000 0.02090000 0.78900000
vn 0.83740000 0.47390000 0.27230000
vn 0.60850000 0.68410000 0.40200000
vn 0.54070000 0.79280000 -0.28130000
vn 0.62030000 0.69250000 -0.36830000
vn -0.68850000 -0.71530000 0.11920000
vn -0.47310000 -0.50200000 0.72400000
vn 0.50300000 0.84670000 0.17370000
vn 0.32640000 0.56040000 0.76120000
vn 0.55160000 -0.12730000 0.82430000
vn 0.51390000 -0.77690000 0.36370000
vn 0.99440000 -0.10100000 0.02950000
vn 0.99340000 0.04560000 0.10500000
vn 0.87660000 -0.40060000 -0.26670000
f 1//1 2//2 3//3
f 1//1 4//4 2//2
f 5//5 6//6 1//1
f 7//7 4//4 6//6
f 7//7 8//8 4//4
f 8//8 9//9 4//4
f 10//10 6//6 5//5
f 11//11 14//14 13//13
f 15//15 16//16 17//17
f 18//18 16//16 15//15
f 19//19 12//12 14//14
f 18//18 20//20 16//16
f 21//21 12//12 19//19
f 20//20 21//21 19//19
f 22//22 23//23 24//24
f 23//23 25//25 24//24
f 26//26 22//22 24//24
f 27//27 1//1 28//28
f 29//29 27//27 28//28
f 4//4 9//9 30//30
f 31//31 32//32 12//12
f 21//21 31//31 12//12
f 21//21 6//6 31//31
f 13//13 29//29 33//33
f 12//12 32//32 13//13
f 32//32 34//34 13//13
f 34//34 29//29 13//13
f 11//11 13//13 33//33
f 35//35 17//17 11//11
f 15//15 17//17 35//35
f 17//17 37//37 36//36
f 38//38 39//39 36//36
f 40//40 38//38 36//36
f 37//37 40//40 36//36
f 41//41 40//40 37//37
f 42//42 15//15 35//35
f 42//42 43//43 18//18
f 43//43 44//44 18//18
f 21//21 44//44 6//6
f 21//21 20//20 44//44
f 29//29 28//28 33//33
f 28//28 45//45 33//33
f 45//45 46//46 33//33
f 46//46 35//35 33//33
f 46//46 30//30 35//35
f 30//30 42//42 35//35
f 9//9 47//47 48//48
f 8//8 47//47 9//9
f 49//49 10//10 5//5
f 7//7 47//47 8//8
f 3//3 2//2 45//45
f 28//28 1//1 3//3
f 2//2 30//30 46//46
f 4//4 30//30 2//2
f 27//27 5//5 1//1
f 27//27 49//49 5//5
f 48//48 30//30 9//9
f 6//6 44//44 7//7
f 16//16 37//37 17//17
f 16//16 50//50 37//37
f 20//20 50//50 16//16
f 20//20 51//51 50//50
f 52//52 51//51 19//19
f 51//51 20//20 19//19
f 52//52 19//19 14//14
f 53//53 52//52 14//14
f 36//36 53//53 11//11
f 53//53 14//14 11//11
f 54//54 22//22 55//55
f 55//55 22//22 26//26
f 56//56 26//26 24//24
f 25//25 56//56 24//24
f 57//57 58//58 59//59
f 60//60 57//57 59//59
f 60//60 62//62 61//61
f 62//62 64//64 63//63
f 65//65 63//63 66//66
f 67//67 66//66 68//68
f 65//65 66//66 67//67
f 69//69 68//68 59//59
f 67//67 68//68 69//69
f 69//69 59//59 70//70
f 71//71 70//70 72//72
f 69//69 70//70 71//71
f 25//25 71//71 73//73
f 74//74 25//25 73//73
f 75//75 77//77 76//76
f 77//77 79//79 76//76
f 22//22 54//54 23//23
f 58//58 78//78 79//79
f 59//59 58//58 79//79
f 72//72 70//70 75//75
f 73//73 72//72 75//75
f 70//70 79//79 77//77
f 70//70 59//59 79//79
f 62//62 60//60 59//59
f 64//64 62//62 66//66
f 68//68 66//66 59//59
f 53//53 36//36 39//39
f 80//80 53//53 39//39
f 50//50 41//41 37//37
f 81//81 53//53 80//80
f 81//81 52//52 53//53
f 81//81 51//51 52//52
f 82//82 40//40 41//41
f 50//50 83//83 82//82
f 84//84 51//51 81//81
f 84//84 83//83 51//51
f 85//85 81//81 80//80
f 85//85 84//84 81//81
f 85//85 80//80 39//39
f 40//40 74//74 38//38
f 74//74 76//76 38//38
f 76//76 78//78 38//38
f 78//78 57//57 38//38
f 57//57 85//85 38//38
f 55//55 26//26 40//40
f 26//26 56//56 40//40
f 86//86 55//55 40//40
f 82//82 86//86 40//40
f 56//56 74//74 40//40
f 56//56 25//25 74//74
f 23//23 71//71 25//25
f 54//54 71//71 23//23
f 86//86 54//54 55//55
f 86//86 71//71 54//54
f 86//86 87//87 71//71
f 58//58 57//57 78//78
f 87//87 69//69 71//71
f 67//67 69//69 87//87
f 65//65 67//67 87//87
f 82//82 88//88 86//86
f 61//61 85//85 57//57
f 82//82 83//83 88//88
f 88//88 83//83 65//65
f 84//84 85//85 61//61
f 63//63 84//84 61//61
f 83//83 63//63 65//65
f 83//83 84//84 63//63
f 88//88 65//65 87//87
f 49//49 27//27 29//29
f 32//32 10//10 49//49
f 31//31 10//10 32//32
f 6//6 10//10 31//31
f 47//47 42//42 48//48
f 48//48 42//42 30//30
f 38//38 85//85 39//39
f 51//51 83//83 50//50
f 50//50 82//82 41//41
f 44//44 20//20 18//18
f 47//47 43//43 42//42
f 7//7 43//43 47//47
f 44//44 43//43 7//7
f 32//32 49//49 34//34
f 34//34 49//49 29//29
f 4//4 1//1 6//6
f 14//14 12//12 13//13
f 35//35 11//11 33//33
f 17//17 36//36 11//11
f 42//42 18//18 15//15
f 2//2 46//46 45//45
f 28//28 3//3 45//45
f 60//60 61//61 57//57
f 62//62 63//63 61//61
f 63//63 64//64 66//66
f 71//71 72//72 73//73
f 74//74 73//73 75//75
f 75//75 76//76 74//74
f 79//79 78//78 76//76
f 70//70 77//77 75//75
f 62//62 59//59 66//66
f 88//88 87//87 86//86

