mtllib material.mtl
usemtl Material-Metal.003
v -0.04739500 0.02265800 0.01937500
v -0.04685800 0.02959600 0.01492200
v -0.04936200 0.01749700 0.01980000
v -0.05449000 0.00976400 0.01494000
v -0.04330300 0.02980100 0.01918300
v -0.03243500 0.04218500 0.01817700
v -0.03235500 0.04469800 0.01500900
v -0.01863400 0.05169600 0.01483800
v -0.01473100 0.05071500 0.01935500
v -0.05173100 0.00013800 0.01494600
v -0.05416400 -0.01007400 0.01499300
v -0.04694200 -0.01059600 0.01523100
v -0.04691300 0.01076700 0.01540300
v -0.02539800 -0.04427300 0.01494300
v -0.02915300 -0.04659000 0.01458200
v -0.01656300 -0.05260200 0.01522000
v -0.01360500 -0.04657700 0.01540300
v -0.03268400 -0.03576400 0.01532200
v 0.02597700 -0.04442800 0.01500900
v 0.01354000 -0.04638600 0.01541600
v 0.01756500 -0.05233400 0.01512400
v 0.03492900 -0.04276400 0.01484700
v 0.03259300 -0.03543400 0.01523000
v 0.00823000 -0.05208400 0.01997600
v -0.00398000 -0.05226800 0.08080900
v -0.00234400 -0.05245300 0.01937500
v -0.00885000 -0.05166000 0.06570100
v -0.00914800 -0.05148900 0.02097100
v -0.01533100 -0.05043500 0.07294500
v 0.00840000 -0.05175800 0.08090500
v 0.00936900 -0.05135600 0.06832400
v -0.02511900 -0.04547100 0.08226400
v 0.01924000 -0.04900800 0.07317100
v 0.02865700 -0.04357900 0.07750700
v -0.03558100 -0.03881900 0.07316800
v 0.03572200 -0.03861700 0.07288000
v 0.04416000 -0.02856000 0.07743200
v 0.04009800 -0.03388600 0.06617300
v -0.04300300 -0.02984500 0.07740300
v -0.03999100 -0.03347900 0.06538900
v 0.04568200 -0.02608900 0.01855500
v 0.03988700 -0.03391000 0.01967100
v -0.04126600 -0.03287700 0.01886400
v -0.04830600 -0.02093700 0.07664300
v -0.04708300 -0.02327800 0.01929200
v 0.04928600 -0.01791700 0.02123900
v 0.04916200 -0.01802100 0.06488400
v 0.04822400 -0.01913500 0.08231300
v -0.04933800 -0.01780200 0.06575900
v -0.04918200 -0.01759200 0.02011400
v -0.05137000 -0.01169400 0.07285500
v 0.05100700 -0.01244000 0.07277600
v 0.05240300 0.00212600 0.07670200
v -0.05221900 -0.00001000 0.07741300
v -0.05179400 0.00893500 0.07313400
v -0.05099100 0.00847800 0.08275000
v 0.05105400 0.01193800 0.07288500
v 0.04805100 0.01874300 0.08220600
v -0.04931000 0.01762200 0.06821900
v -0.04665300 0.02361600 0.08131800
v 0.04921600 0.01819100 0.06563300
v 0.04392100 0.02867400 0.08072400
v 0.04376200 0.02940200 0.01958200
v 0.04926000 0.01770500 0.01992800
v -0.04182600 0.03183100 0.07681500
v 0.04003500 0.03398900 0.03521900
v 0.03998400 0.03394200 0.06527500
v -0.03981500 0.03419400 0.03281300
v -0.03526200 0.03924000 0.07286200
v -0.03997000 0.03385300 0.06589000
v 0.03585100 0.03847300 0.02833600
v 0.03067200 0.04294500 0.01941500
v 0.03612000 0.03820000 0.07253600
v 0.02755300 0.04398200 0.08248300
v -0.02478000 0.04564200 0.08160800
v -0.03159300 0.04205500 0.02774400
v 0.02099600 0.04770200 0.07758700
v 0.02079000 0.04845800 0.02749100
v 0.01763800 0.04987000 0.07321200
v -0.01736400 0.04957900 0.02810300
v -0.01694900 0.04980900 0.07302000
v 0.01693300 0.04996000 0.01697800
v -0.01173300 0.05012800 0.08258800
v 0.00704400 0.05202500 0.07700000
v 0.00963100 0.05157400 0.03277900
v -0.00967100 0.05162300 0.03352900
v 0.00786900 0.05193800 0.02068600
v -0.00948200 0.05154000 0.06745200
v 0.00938000 0.05144900 0.06702700
v -0.00183600 0.05241600 0.07741500
v -0.00241500 0.05243800 0.02033500
v 0.01499800 0.04585100 0.07313800
v 0.03206000 0.03567100 0.07312700
v -0.01468800 0.04652500 0.07296500
v -0.03388000 0.03501300 0.07273500
v -0.04711500 0.00979700 0.07312600
v -0.04688300 -0.01170900 0.07275600
v -0.03173500 -0.03603300 0.07305800
v -0.01593700 -0.04538700 0.07322900
v 0.01532000 -0.04562200 0.07316300
v 0.03305000 -0.03486100 0.07308100
v 0.00025100 0.04851600 0.02003400
v 0.01249100 0.04692600 0.01934800
v -0.01292500 0.04681600 0.01927300
v 0.00758700 0.04790500 0.06682200
v 0.00772200 0.04789100 0.03409100
v 0.03775800 0.03044600 0.03614300
v 0.03762800 0.03060900 0.06683900
v -0.00785100 0.04794700 0.03221000
v -0.00774100 0.04789300 0.06696200
v -0.03774900 0.03046900 0.06561100
v -0.03737500 0.03120300 0.03146000
v 0.01793800 0.04512900 0.01277600
v 0.01467500 0.04617000 0.02812100
v -0.01943900 0.04458600 0.02768500
v -0.01803200 0.04505300 0.01263100
v 0.00447200 0.04829300 0.07300000
v -0.00432300 0.04825000 0.07362200
v -0.04439500 0.01987300 0.00510100
v -0.05068900 0.00007600 0.00501400
v -0.04534800 0.01727600 0.06716700
v -0.04388100 0.02069100 0.07298100
v -0.04524800 0.01747300 0.02263100
v -0.04047400 0.02662400 0.07352400
v -0.03874000 0.02948600 0.00532500
v -0.02850700 0.03961300 0.00501600
v -0.02870200 0.03935900 0.02774700
v -0.03902000 -0.02904400 0.00536500
v -0.02472700 -0.04413400 0.00503500
v -0.03766800 -0.03057300 0.02059300
v -0.04053200 -0.02625500 0.07836900
v -0.03761100 -0.03068300 0.06739100
v -0.04436600 -0.01997900 0.00510700
v -0.04382500 -0.02070100 0.07318900
v -0.04526300 -0.01743700 0.02255500
v -0.04523800 -0.01746600 0.06571200
v 0.00749400 -0.04792200 0.02262200
v 0.00546500 -0.04832300 0.00530100
v -0.00294800 -0.04843100 0.00509200
v 0.00447800 -0.04829300 0.07300000
v -0.00755500 -0.04791300 0.02212700
v -0.00333800 -0.04826900 0.07350500
v 0.00767900 -0.04789700 0.06702100
v -0.00754600 -0.04791400 0.06714100
v 0.02546900 -0.04374400 0.00504200
v 0.03941500 -0.02855300 0.00514300
v 0.04025200 -0.02685600 0.07943900
v 0.03775500 -0.03045700 0.06569200
v 0.03773000 -0.03048400 0.02254600
v 0.04427900 -0.02000000 0.00525100
v 0.04321200 -0.02127900 0.07849200
v 0.04526400 -0.01744000 0.02221800
v 0.04698800 -0.01207500 0.01560400
v 0.04735000 -0.00894900 0.07317100
v 0.04533100 -0.01730700 0.06704700
v 0.05042100 -0.00030700 0.00504200
v 0.04713400 0.01153800 0.01539300
v 0.04407700 0.02042400 0.00507000
v 0.04526900 0.01741800 0.02213700
v 0.04371100 0.02101400 0.07300000
v 0.04524200 0.01748600 0.06494300
v 0.04656900 0.01224700 0.07306900
v 0.04002700 0.02723400 0.07318300
v 0.03913300 0.02884700 0.00525000
v 0.03494600 0.03372600 0.02942600
v 0.02859700 0.03944100 0.00520500
v 0.02873900 0.03935300 0.02791600
v 0.05102500 0.00028200 0.01493200
v 0.01779300 -0.04369500 0.10000000
v 0.00656200 0.04657600 0.10000100
v -0.00278300 -0.04748300 0.10000100
v -0.02377400 -0.04079900 0.10000000
v 0.03629100 -0.03088300 0.10000200
v -0.04255900 -0.02270300 0.10000400
v 0.04809100 -0.00282800 0.10000400
v -0.04664900 0.00858200 0.10000600
v 0.04185900 0.02176700 0.10000000
v -0.03413900 0.03385300 0.10001000
v 0.02817900 0.03811700 0.10005700
v -0.00944400 0.04633500 0.10000400
v 0.00457100 -0.04928900 0.09750000
v -0.00980400 -0.04884500 0.09742900
v 0.00335300 -0.04945300 0.08500000
v -0.01173200 -0.04843700 0.08493800
v 0.01603000 -0.04710900 0.08498100
v 0.01795700 -0.04637900 0.09761700
v -0.02608000 -0.04236200 0.09754800
v -0.02740200 -0.04151000 0.08497600
v 0.02850600 -0.04055500 0.08500300
v 0.02983300 -0.03950000 0.09750000
v 0.03837300 -0.03215800 0.08488100
v 0.03972100 -0.02990600 0.09749200
v -0.03657900 -0.03335100 0.09750000
v -0.03694200 -0.03306600 0.08497100
v -0.04489700 -0.02164600 0.09725800
v -0.04537400 -0.02137100 0.08470600
v 0.04701000 -0.01672300 0.08496800
v 0.04615900 -0.01787800 0.09750000
v 0.04945400 -0.00445700 0.09741900
v -0.04961700 -0.00438000 0.09742400
v -0.04941000 -0.00448700 0.08497900
v 0.04984800 0.00526600 0.08491500
v 0.04865700 0.00909900 0.09750000
v -0.04831300 0.01181600 0.08498800
v -0.04803900 0.01321000 0.09750700
v 0.04458400 0.02200000 0.09758700
v 0.04334400 0.02445500 0.08492300
v -0.04235700 0.02566700 0.08503000
v -0.04208800 0.02605500 0.09750000
v 0.03374300 0.03674300 0.09746400
v -0.03483900 0.03619100 0.08465300
v -0.03334300 0.03693600 0.09730800
v 0.03176600 0.03848000 0.08494600
v 0.01828400 0.04625000 0.09752300
v -0.02288600 0.04394800 0.08503200
v -0.02206700 0.04430900 0.09750000
v 0.01601900 0.04711000 0.08485900
v -0.01077200 0.04857800 0.08509100
v -0.00883300 0.04894700 0.09755200
v 0.00456400 0.04928900 0.09750000
v 0.00336800 0.04945300 0.08500100
v 0.02858000 -0.04313800 0.08326500
v -0.03868100 -0.03407900 0.08317900
v -0.05063500 -0.01027000 0.08302100
v 0.05203300 0.00108700 0.08294600
v 0.00681400 0.05122600 0.08371300
v -0.01313500 -0.05369400 0.00500800
v 0.00454300 -0.05503600 0.00504600
v -0.03195400 -0.04522300 0.00498000
v 0.02325800 -0.05024700 0.00503100
v 0.03933800 -0.03883600 0.00499100
v -0.04920600 -0.02637700 0.00502500
v 0.04881000 -0.02552300 0.00501900
v -0.05505800 -0.00351300 0.00507100
v 0.05514700 -0.00230000 0.00499500
v -0.05338800 0.01449200 0.00502900
v 0.05294500 0.01597400 0.00499100
v -0.04681100 0.02892700 0.00500700
v 0.04392300 0.03350500 0.00498700
v -0.03750100 0.04050300 0.00500900
v 0.02542400 0.04490600 0.00505600
v 0.03107700 0.04558200 0.00503700
v -0.02605600 0.04470300 0.00501600
v -0.01992100 0.05176400 0.00506800
v 0.01868600 0.04464100 0.00507900
v 0.01911700 0.05146200 0.00502200
v -0.01854500 0.04457100 0.00505500
v 0.01529200 -0.04524500 0.07989300
v -0.00256300 -0.04784600 0.07986000
v -0.02461900 -0.04111100 0.08069000
v 0.02755500 -0.03869000 0.08000000
v -0.04407400 -0.01327300 0.08146300
v 0.04760300 -0.00465100 0.07982900
v -0.04777200 -0.00079300 0.08009700
v 0.04595400 0.01371500 0.07964800
v -0.04355100 0.01592400 0.08167400
v -0.04009600 0.02592000 0.07993100
v 0.03753800 0.02955600 0.07987900
v -0.02772100 0.03910300 0.07982200
v -0.02586600 0.04029500 0.07416800
v 0.02755000 0.03869400 0.08000000
v 0.01562000 0.04514900 0.07988400
v -0.00639900 0.04799700 0.07953400
v -0.00139500 -0.04566400 0.09300000
v 0.01073000 -0.04421700 0.08200000
v -0.00236000 -0.04570400 0.08212300
v 0.01073000 -0.04421700 0.09300000
v -0.01487800 -0.04299900 0.09300000
v -0.01487800 -0.04299900 0.08200000
v 0.02333400 -0.03942900 0.08204500
v 0.02423600 -0.03879700 0.09300000
v -0.02586100 -0.03766100 0.09300000
v -0.02688300 -0.03700300 0.08191500
v 0.03576600 -0.02853500 0.08207500
v 0.03638800 -0.02762400 0.09300000
v -0.03759800 -0.02605800 0.09300000
v -0.03834100 -0.02509000 0.08205300
v 0.04390200 -0.01333700 0.08192600
v 0.04420800 -0.01208100 0.09300000
v -0.04365600 -0.01282200 0.09300000
v -0.04578000 0.00054500 0.08210100
v -0.04575600 -0.00056200 0.09299700
v 0.04556300 0.00407900 0.08204200
v 0.04539800 0.00511800 0.09300000
v -0.04281300 0.01632700 0.09300100
v 0.04096500 0.02065400 0.08194400
v 0.04032900 0.02177100 0.09300000
v -0.03359700 0.03095800 0.09300000
v -0.03279800 0.03187700 0.08191400
v 0.03006200 0.03449000 0.08209300
v 0.02932400 0.03503200 0.09300000
v -0.01981300 0.04132400 0.09300000
v -0.01862600 0.04192300 0.08197800
v 0.01536500 0.04324600 0.08206700
v 0.01417700 0.04358100 0.09300000
v -0.00295200 0.04559000 0.09300000
v -0.00173900 0.04570300 0.08191300
v 0.00000000 0.00000000 0.09300000
v 0.02600600 0.04464300 0.02793500
v 0.02060300 0.04450800 0.02800000
v -0.02568000 0.04490900 0.02815800
v 0.05385700 -0.01154500 0.01516800
v 0.05484700 0.00822400 0.01471000
v -0.03904700 -0.03289500 0.02164200
v 0.00915700 -0.05057700 0.02069200
v -0.00009400 -0.05492800 0.01523100
v -0.03808700 -0.03988400 0.01569400
v 0.04685700 -0.02947800 0.01478500
v -0.04938800 -0.02424200 0.01505900
v 0.05364900 -0.01332400 0.00509300
v 0.04752500 0.02848500 0.01514600
v 0.03468500 0.04260900 0.01517400
v 0.02033700 0.05119000 0.01502300
vn -0.87650000 0.40930000 0.25350000
vn -0.81250000 0.52300000 0.25770000
vn -0.83730000 -0.17510000 0.51800000
vn -0.79850000 0.03900000 0.60070000
vn -0.77010000 0.57630000 0.27350000
vn -0.58820000 0.75280000 0.29540000
vn -0.55240000 0.78690000 0.27510000
vn 0.25220000 0.96750000 0.01910000
vn 0.05400000 0.91900000 -0.39050000
vn 0.54520000 -0.00330000 0.83830000
vn -0.79840000 -0.03780000 0.60090000
vn 0.71590000 0.46230000 0.52310000
vn 0.70760000 -0.46770000 0.52970000
vn 0.27620000 0.49640000 0.82300000
vn -0.37380000 -0.65670000 0.65490000
vn -0.38310000 -0.71950000 0.57930000
vn -0.08580000 0.84380000 0.52970000
vn 0.70960000 0.38140000 0.59240000
vn -0.28060000 0.47910000 0.83170000
vn 0.06030000 0.86350000 0.50070000
vn 0.36490000 -0.71830000 0.59230000
vn 0.42160000 -0.66740000 0.61380000
vn -0.75350000 0.39560000 0.52510000
vn 0.30410000 -0.89920000 0.31450000
vn -0.08290000 -0.94880000 0.30490000
vn -0.06270000 -0.96480000 0.25550000
vn -0.76470000 -0.60950000 -0.20900000
vn -0.64240000 -0.62290000 0.44650000
vn -0.47730000 -0.76030000 -0.44060000
vn 0.16960000 -0.93940000 0.29790000
vn 0.72820000 -0.61460000 -0.30340000
vn -0.44240000 -0.82410000 0.35370000
vn 0.40830000 -0.71290000 -0.57010000
vn 0.54650000 -0.83630000 0.04360000
vn -0.42430000 -0.77710000 -0.46490000
vn 0.41070000 -0.79050000 -0.45430000
vn 0.82060000 -0.55090000 0.15210000
vn 0.18790000 -0.94440000 -0.26960000
vn -0.82680000 -0.54800000 0.12680000
vn -0.07650000 -0.98130000 -0.17670000
vn 0.84090000 -0.44860000 0.30280000
vn 0.28520000 -0.79540000 0.53480000
vn -0.72200000 -0.61010000 0.32640000
vn -0.89260000 -0.40650000 0.19520000
vn -0.85460000 -0.44150000 0.27350000
vn 0.88280000 0.24070000 0.40340000
vn 0.90950000 0.38270000 -0.16220000
vn 0.86920000 -0.34520000 0.35410000
vn -0.89230000 0.36780000 -0.26170000
vn -0.82870000 0.20330000 0.52150000
vn -0.90030000 0.04970000 -0.43240000
vn 0.90890000 0.04480000 -0.41450000
vn 0.99680000 0.02680000 -0.07490000
vn -0.99810000 -0.02380000 0.05750000
vn -0.80480000 0.04580000 -0.59180000
vn -0.89760000 0.14020000 0.41790000
vn 0.84970000 -0.02310000 -0.52680000
vn 0.86900000 0.30770000 0.38750000
vn -0.93660000 -0.17490000 -0.30370000
vn -0.84820000 0.41620000 0.32760000
vn 0.93660000 -0.27480000 -0.21730000
vn 0.79000000 0.53900000 0.29210000
vn 0.78510000 0.56970000 0.24310000
vn 0.83050000 -0.17860000 0.52750000
vn -0.77390000 0.61830000 0.13700000
vn 0.13580000 0.95810000 0.25230000
vn 0.08130000 0.97640000 -0.20010000
vn -0.23020000 0.92230000 0.31050000
vn -0.41800000 0.76080000 -0.49650000
vn -0.10400000 0.96020000 -0.25920000
vn 0.41290000 0.73530000 0.53740000
vn 0.55980000 0.79190000 0.24390000
vn 0.38120000 0.79600000 -0.47020000
vn 0.48270000 0.78520000 0.38790000
vn -0.46990000 0.82950000 0.30180000
vn -0.36510000 0.67740000 0.63860000
vn 0.41310000 0.90230000 0.12370000
vn 0.35610000 0.72020000 0.59550000
vn 0.44270000 0.73980000 -0.50670000
vn -0.45010000 0.68870000 0.56850000
vn -0.40890000 0.72700000 -0.55150000
vn -0.30500000 0.92870000 -0.21080000
vn -0.21850000 0.90960000 0.35330000
vn 0.11960000 0.81910000 0.56110000
vn 0.65260000 0.68610000 0.32150000
vn -0.72550000 0.61740000 0.30400000
vn 0.06000000 0.81080000 -0.58230000
vn -0.67570000 0.67740000 -0.29080000
vn 0.73740000 0.60240000 -0.30540000
vn -0.04680000 0.99140000 0.12230000
vn -0.00120000 0.76110000 -0.64860000
vn -0.01420000 -0.78400000 -0.62060000
vn -0.62260000 -0.46250000 -0.63120000
vn -0.08190000 -0.41150000 -0.90770000
vn 0.54580000 -0.19820000 -0.81410000
vn 0.66770000 -0.33950000 -0.66250000
vn 0.64750000 0.42980000 -0.62930000
vn 0.58570000 0.40870000 -0.70000000
vn 0.10260000 0.69790000 -0.70880000
vn -0.06210000 0.78710000 -0.61370000
vn -0.69620000 0.43370000 -0.57200000
vn 0.02080000 -0.64520000 -0.76380000
vn -0.43800000 -0.70210000 -0.56140000
vn 0.47090000 -0.66910000 -0.57490000
vn 0.29920000 -0.93110000 -0.20860000
vn 0.36420000 -0.91470000 0.17530000
vn -0.98530000 -0.11980000 0.12220000
vn -0.95130000 -0.21210000 -0.22350000
vn -0.22440000 -0.94810000 0.22530000
vn -0.33820000 -0.92130000 -0.19190000
vn 0.97630000 -0.14390000 -0.16160000
vn 0.90600000 -0.33400000 0.26010000
vn -0.77620000 -0.61330000 -0.14600000
vn -0.02970000 -0.87100000 0.49040000
vn 0.06390000 -0.79940000 0.59730000
vn 0.84550000 -0.51140000 -0.15360000
vn -0.09600000 -0.82800000 -0.55250000
vn 0.06760000 -0.99550000 -0.06610000
vn 0.62500000 -0.27420000 -0.73090000
vn 0.62940000 -0.00250000 -0.77700000
vn 0.61890000 -0.75540000 -0.21510000
vn 0.77370000 -0.32870000 -0.54160000
vn 0.61470000 -0.77840000 0.12740000
vn 0.83380000 -0.54300000 -0.09980000
vn 0.62040000 -0.48210000 0.61860000
vn 0.60460000 -0.43010000 -0.67040000
vn 0.66760000 -0.41630000 0.61720000
vn 0.62890000 0.47570000 0.61500000
vn 0.31010000 0.55790000 -0.76980000
vn 0.95020000 0.25180000 0.18370000
vn 0.79550000 0.52120000 -0.30900000
vn 0.94700000 0.21150000 -0.24180000
vn 0.62350000 0.27410000 -0.73220000
vn 0.91490000 0.38850000 -0.10910000
vn 0.60490000 0.78440000 0.13700000
vn 0.61830000 0.76520000 -0.17950000
vn 0.34740000 0.93010000 0.11900000
vn -0.09810000 0.78090000 0.61680000
vn 0.05760000 0.68690000 -0.72440000
vn -0.09930000 0.81800000 -0.56670000
vn -0.40070000 0.90140000 0.16410000
vn 0.07060000 0.99470000 -0.07510000
vn 0.34650000 0.91590000 -0.20280000
vn -0.30960000 0.91750000 -0.24950000
vn -0.32530000 0.54860000 -0.77020000
vn -0.55050000 0.40750000 -0.72860000
vn -0.75790000 0.46350000 -0.45910000
vn -0.97570000 0.12940000 -0.17670000
vn -0.98390000 0.12500000 0.12790000
vn -0.69590000 0.30770000 0.64890000
vn -0.85750000 0.38240000 -0.34400000
vn -0.58110000 0.79880000 0.15590000
vn -0.70150000 0.50470000 0.50320000
vn -0.68200000 0.24860000 -0.68780000
vn -0.63150000 0.74080000 -0.22880000
vn -0.64660000 0.00510000 -0.76280000
vn -0.71580000 -0.47380000 0.51300000
vn -0.62690000 -0.28270000 -0.72600000
vn -0.58540000 -0.79920000 0.13620000
vn -0.70330000 -0.32240000 -0.63360000
vn -0.55040000 -0.82040000 -0.15510000
vn -0.74330000 -0.43210000 -0.51070000
vn -0.82470000 -0.55960000 -0.08220000
vn -0.62230000 -0.47310000 0.62370000
vn -0.84010000 -0.32760000 0.43240000
vn -0.60200000 -0.47250000 -0.64370000
vn -0.62630000 -0.44930000 0.63700000
vn -0.58820000 0.00150000 0.80870000
vn 0.15330000 -0.37110000 0.91590000
vn 0.06550000 0.41170000 0.90900000
vn -0.02060000 -0.48650000 0.87340000
vn -0.20760000 -0.36080000 0.90930000
vn 0.35370000 -0.31720000 0.87990000
vn -0.47290000 -0.26710000 0.83960000
vn 0.53940000 -0.02030000 0.84180000
vn -0.45590000 0.06610000 0.88760000
vn 0.36350000 0.19190000 0.91160000
vn -0.39050000 0.36390000 0.84570000
vn 0.26110000 0.38590000 0.88480000
vn -0.09210000 0.40770000 0.90840000
vn 0.10720000 -0.90320000 0.41550000
vn -0.20200000 -0.89110000 0.40640000
vn 0.05440000 -0.95190000 0.30160000
vn -0.24550000 -0.94390000 0.22100000
vn 0.31730000 -0.91830000 0.23690000
vn 0.32290000 -0.85950000 0.39620000
vn -0.49290000 -0.77730000 0.39100000
vn -0.55510000 -0.78140000 0.28500000
vn 0.51690000 -0.73540000 0.43810000
vn 0.53380000 -0.72890000 0.42870000
vn 0.75370000 -0.63450000 0.17150000
vn 0.76190000 -0.53480000 0.36540000
vn -0.63750000 -0.61590000 0.46290000
vn -0.66770000 -0.62390000 0.40600000
vn -0.87840000 -0.38810000 0.27900000
vn -0.89710000 -0.41230000 0.15890000
vn 0.89850000 -0.29700000 0.32330000
vn 0.82120000 -0.32830000 0.46680000
vn 0.95860000 -0.11090000 0.26220000
vn -0.88560000 -0.08980000 0.45570000
vn -0.94250000 -0.06370000 0.32810000
vn 0.93590000 0.14280000 0.32210000
vn 0.86320000 0.20410000 0.46180000
vn -0.91440000 0.24340000 0.32340000
vn -0.87270000 0.27110000 0.40620000
vn 0.83510000 0.38930000 0.38850000
vn 0.82890000 0.46890000 0.30520000
vn -0.81780000 0.49610000 0.29180000
vn -0.77360000 0.44000000 0.45610000
vn 0.63870000 0.65650000 0.40140000
vn -0.67930000 0.71870000 0.14820000
vn -0.61530000 0.72590000 0.30740000
vn 0.64040000 0.73110000 0.23520000
vn 0.33410000 0.83160000 0.44370000
vn -0.43420000 0.84730000 0.30570000
vn -0.39770000 0.79920000 0.45080000
vn 0.32890000 0.90300000 0.27640000
vn -0.20570000 0.92890000 0.30780000
vn -0.15320000 0.91280000 0.37870000
vn 0.07360000 0.91950000 0.38620000
vn 0.03090000 0.88600000 0.46260000
vn 0.49230000 -0.75150000 0.43920000
vn -0.66160000 -0.59500000 0.45630000
vn -0.88560000 -0.19020000 0.42370000
vn 0.90340000 -0.01800000 0.42840000
vn 0.14300000 0.86860000 0.47440000
vn -0.17320000 -0.72010000 -0.67190000
vn 0.06420000 -0.74070000 -0.66880000
vn -0.42570000 -0.60530000 -0.67260000
vn 0.32000000 -0.67560000 -0.66420000
vn 0.52310000 -0.51490000 -0.67920000
vn -0.66990000 -0.36430000 -0.64690000
vn 0.65050000 -0.32660000 -0.68570000
vn -0.74360000 -0.05260000 -0.66650000
vn 0.76450000 -0.05610000 -0.64210000
vn -0.71160000 0.20590000 -0.67180000
vn 0.70520000 0.22490000 -0.67240000
vn -0.61090000 0.37210000 -0.69880000
vn 0.57800000 0.45770000 -0.67560000
vn -0.50570000 0.54300000 -0.67040000
vn -0.25660000 -0.47800000 -0.84010000
vn 0.41730000 0.61200000 -0.67180000
vn 0.27600000 -0.44290000 -0.85300000
vn 0.29560000 0.75620000 -0.58380000
vn -0.55710000 -0.57940000 -0.59490000
vn -0.38010000 0.70200000 -0.60230000
vn 0.59590000 -0.54240000 -0.59220000
vn -0.28740000 0.86640000 -0.40830000
vn 0.03800000 0.92060000 -0.38860000
vn 0.44270000 0.75140000 -0.48930000
vn -0.54870000 0.73520000 -0.39800000
vn 0.94350000 0.28560000 -0.16830000
vn -0.91170000 0.06570000 -0.40570000
vn 0.93040000 0.02760000 -0.36540000
vn -0.87750000 -0.25600000 -0.40540000
vn 0.93090000 -0.33360000 -0.14870000
vn 0.75480000 -0.46780000 -0.45970000
vn -0.70270000 -0.55680000 -0.44300000
vn 0.53200000 -0.74520000 -0.40200000
vn 0.50790000 -0.85730000 0.08420000
vn -0.49420000 -0.76970000 -0.40410000
vn -0.28980000 -0.88080000 -0.37440000
vn 0.14890000 -0.91080000 -0.38510000
vn 0.02290000 0.73610000 -0.67650000
vn -0.19060000 0.91730000 -0.34970000
vn 0.04220000 0.92340000 -0.38150000
vn -0.17770000 0.71090000 -0.68050000
vn 0.23640000 0.69310000 -0.68100000
vn 0.28990000 0.90460000 -0.31270000
vn -0.47720000 0.81230000 -0.33540000
vn -0.39670000 0.62440000 -0.67290000
vn 0.42160000 0.60580000 -0.67470000
vn 0.57010000 0.69460000 -0.43870000
vn -0.71400000 0.61770000 -0.32960000
vn -0.59150000 0.44400000 -0.67310000
vn 0.60440000 0.42640000 -0.67300000
vn 0.79080000 0.53120000 -0.30400000
vn -0.91540000 0.28660000 -0.28280000
vn -0.71790000 0.19250000 -0.66900000
vn 0.68720000 0.21460000 -0.69410000
vn 0.92320000 -0.03610000 -0.38250000
vn 0.73660000 -0.00340000 -0.67630000
vn -0.94940000 -0.08500000 -0.30240000
vn -0.73510000 -0.08550000 -0.67250000
vn 0.68330000 -0.26210000 -0.68150000
vn -0.85070000 -0.43110000 -0.30070000
vn -0.65260000 -0.35640000 -0.66870000
vn 0.54500000 -0.50020000 -0.67290000
vn 0.67960000 -0.65760000 -0.32510000
vn -0.62140000 -0.70530000 -0.34120000
vn -0.47340000 -0.56860000 -0.67280000
vn 0.32440000 -0.66880000 -0.66890000
vn 0.38200000 -0.89010000 -0.24850000
vn -0.31630000 -0.87780000 -0.35980000
vn -0.22670000 -0.70740000 -0.66950000
vn 0.05080000 -0.73850000 -0.67230000
vn -0.01420000 -0.93680000 -0.34950000
vn -0.00000000 -0.00000000 -1.00000000
vn -0.18250000 -0.25680000 0.94910000
vn -0.08270000 -0.74400000 0.66310000
vn 0.04410000 -0.10240000 0.99380000
vn 0.80970000 -0.03130000 0.58600000
vn 0.79810000 0.03720000 0.60130000
vn 0.46980000 -0.84050000 0.26970000
vn 0.84630000 -0.19020000 0.49760000
vn -0.01430000 -0.96850000 0.24850000
vn -0.44560000 -0.68890000 0.57170000
vn 0.82350000 -0.49820000 0.27130000
vn -0.85930000 -0.43070000 0.27580000
vn 0.74390000 -0.18630000 -0.64180000
vn 0.83070000 0.49690000 0.25090000
vn 0.63060000 0.72880000 0.26700000
vn 0.14030000 0.93640000 0.32160000
f 1//1 2//2 3//3
f 2//2 4//4 3//3
f 5//5 2//2 1//1
f 6//6 2//2 5//5
f 7//7 2//2 6//6
f 8//8 7//7 6//6
f 9//9 8//8 6//6
f 10//10 4//4 11//11
f 12//12 10//10 11//11
f 13//13 4//4 10//10
f 14//14 15//15 16//16
f 17//17 14//14 16//16
f 14//14 18//18 15//15
f 19//19 20//20 21//21
f 22//22 19//19 21//21
f 22//22 23//23 19//19
f 24//24 30//30 25//25
f 25//25 27//27 26//26
f 27//27 28//28 26//26
f 29//29 27//27 25//25
f 31//31 30//30 24//24
f 32//32 29//29 25//25
f 33//33 30//30 31//31
f 33//33 34//34 30//30
f 32//32 35//35 29//29
f 36//36 34//34 33//33
f 36//36 37//37 34//34
f 38//38 37//37 36//36
f 39//39 40//40 35//35
f 41//41 38//38 42//42
f 41//41 37//37 38//38
f 39//39 43//43 40//40
f 44//44 45//45 39//39
f 46//46 37//37 41//41
f 47//47 52//52 48//48
f 46//46 47//47 37//37
f 44//44 49//49 45//45
f 49//49 50//50 45//45
f 51//51 49//49 44//44
f 52//52 53//53 48//48
f 54//54 51//51 44//44
f 54//54 55//55 51//51
f 56//56 55//55 54//54
f 57//57 58//58 53//53
f 56//56 60//60 59//59
f 61//61 58//58 57//57
f 62//62 58//58 61//61
f 59//59 60//60 3//3
f 60//60 1//1 3//3
f 63//63 61//61 64//64
f 63//63 62//62 61//61
f 65//65 1//1 60//60
f 65//65 5//5 1//1
f 66//66 62//62 63//63
f 66//66 67//67 62//62
f 65//65 68//68 5//5
f 69//69 70//70 65//65
f 70//70 68//68 65//65
f 68//68 6//6 5//5
f 71//71 66//66 63//63
f 72//72 71//71 63//63
f 67//67 73//73 62//62
f 73//73 74//74 62//62
f 75//75 69//69 65//65
f 68//68 76//76 6//6
f 73//73 77//77 74//74
f 72//72 78//78 71//71
f 79//79 77//77 73//73
f 9//9 6//6 80//80
f 75//75 81//81 69//69
f 82//82 78//78 72//72
f 83//83 81//81 75//75
f 79//79 84//84 77//77
f 82//82 87//87 78//78
f 86//86 9//9 80//80
f 83//83 90//90 88//88
f 89//89 84//84 79//79
f 91//91 9//9 86//86
f 84//84 89//89 85//85
f 87//87 84//84 85//85
f 90//90 91//91 86//86
f 88//88 90//90 86//86
f 91//91 90//90 84//84
f 92//92 79//79 93//93
f 79//79 73//73 93//93
f 69//69 94//94 95//95
f 81//81 94//94 69//69
f 51//51 55//55 97//97
f 98//98 99//99 29//29
f 35//35 98//98 29//29
f 100//100 101//101 33//33
f 102//102 87//87 103//103
f 9//9 91//91 104//104
f 91//91 102//102 104//104
f 91//91 87//87 102//102
f 85//85 89//89 106//106
f 67//67 66//66 107//107
f 108//108 67//67 107//107
f 109//109 110//110 86//86
f 68//68 111//111 112//112
f 68//68 70//70 111//111
f 113//113 300//300 103//103
f 104//104 115//115 116//116
f 104//104 109//109 115//115
f 106//106 103//103 114//114
f 117//117 105//105 92//92
f 110//110 118//118 94//94
f 102//102 103//103 106//106
f 104//104 102//102 109//109
f 105//105 117//117 106//106
f 117//117 102//102 106//106
f 118//118 110//110 109//109
f 102//102 117//117 109//109
f 119//119 13//13 120//120
f 121//121 122//122 96//96
f 119//119 123//123 13//13
f 122//122 121//121 123//123
f 119//119 122//122 123//123
f 119//119 125//125 122//122
f 112//112 124//124 125//125
f 111//111 95//95 124//124
f 112//112 111//111 124//124
f 127//127 112//112 125//125
f 128//128 18//18 129//129
f 128//128 130//130 18//18
f 131//131 98//98 132//132
f 131//131 132//132 130//130
f 128//128 131//131 130//130
f 133//133 134//134 128//128
f 12//12 135//135 133//133
f 135//135 134//134 133//133
f 136//136 97//97 134//134
f 135//135 136//136 134//134
f 120//120 12//12 133//133
f 137//137 20//20 138//138
f 139//139 140//140 138//138
f 140//140 137//137 138//138
f 129//129 17//17 139//139
f 17//17 141//141 139//139
f 141//141 142//142 139//139
f 142//142 140//140 139//139
f 100//100 143//143 140//140
f 143//143 137//137 140//140
f 141//141 144//144 142//142
f 144//144 99//99 142//142
f 20//20 145//145 138//138
f 23//23 146//146 145//145
f 147//147 148//148 101//101
f 149//149 146//146 23//23
f 147//147 146//146 149//149
f 148//148 147//147 149//149
f 147//147 151//151 146//146
f 152//152 153//153 150//150
f 151//151 152//152 150//150
f 154//154 155//155 151//151
f 155//155 152//152 151//151
f 153//153 156//156 150//150
f 157//157 158//158 156//156
f 159//159 158//158 157//157
f 160//160 161//161 162//162
f 160//160 158//158 159//159
f 161//161 160//160 159//159
f 158//158 160//160 164//164
f 107//107 165//165 164//164
f 163//163 107//107 164//164
f 163//163 258//258 93//93
f 108//108 107//107 163//163
f 165//165 167//167 166//166
f 153//153 168//168 156//156
f 168//168 157//157 156//156
f 169//169 170//170 171//171
f 170//170 172//172 171//171
f 173//173 170//170 169//169
f 170//170 174//174 172//172
f 175//175 170//170 173//173
f 170//170 176//176 174//174
f 177//177 170//170 175//175
f 170//170 178//178 176//176
f 179//179 170//170 177//177
f 180//180 178//178 170//170
f 182//182 184//184 183//183
f 185//185 186//186 181//181
f 187//187 188//188 184//184
f 189//189 190//190 186//186
f 191//191 190//190 189//189
f 191//191 192//192 190//190
f 193//193 194//194 188//188
f 195//195 196//196 194//194
f 197//197 198//198 192//192
f 197//197 199//199 198//198
f 200//200 201//201 195//195
f 202//202 199//199 197//197
f 202//202 203//203 199//199
f 200//200 205//205 204//204
f 202//202 207//207 203//203
f 205//205 209//209 208//208
f 207//207 210//210 206//206
f 209//209 212//212 211//211
f 213//213 210//210 207//207
f 213//213 217//217 214//214
f 212//212 216//216 215//215
f 216//216 219//219 218//218
f 217//217 221//221 220//220
f 221//221 218//218 219//219
f 34//34 222//222 30//30
f 32//32 223//223 35//35
f 37//37 222//222 34//34
f 37//37 191//191 222//222
f 223//223 39//39 35//35
f 37//37 48//48 191//191
f 223//223 196//196 39//39
f 224//224 44//44 39//39
f 196//196 224//224 39//39
f 224//224 54//54 44//44
f 53//53 225//225 48//48
f 56//56 54//54 224//224
f 58//58 225//225 53//53
f 211//211 65//65 60//60
f 211//211 75//75 65//65
f 77//77 226//226 74//74
f 90//90 226//226 77//77
f 226//226 90//90 83//83
f 227//227 139//139 228//228
f 229//229 129//129 227//227
f 129//129 139//139 227//227
f 139//139 230//230 228//228
f 139//139 145//145 230//230
f 145//145 231//231 230//230
f 133//133 129//129 229//229
f 232//232 133//133 229//229
f 146//146 231//231 145//145
f 146//146 233//233 231//231
f 120//120 133//133 234//234
f 146//146 156//156 233//233
f 236//236 120//120 234//234
f 156//156 237//237 235//235
f 158//158 237//237 156//156
f 236//236 119//119 120//120
f 238//238 119//119 236//236
f 158//158 239//239 237//237
f 240//240 119//119 238//238
f 241//241 242//242 158//158
f 242//242 239//239 158//158
f 240//240 126//126 119//119
f 240//240 243//243 126//126
f 244//244 243//243 240//240
f 245//245 246//246 241//241
f 244//244 247//247 243//243
f 246//246 242//242 241//241
f 154//154 57//57 52//52
f 162//162 57//57 154//154
f 248//248 100//100 249//249
f 99//99 249//249 142//142
f 99//99 250//250 249//249
f 251//251 100//100 248//248
f 251//251 101//101 100//100
f 98//98 250//250 99//99
f 147//147 101//101 251//251
f 131//131 250//250 98//98
f 134//134 252//252 131//131
f 253//253 154//154 151//151
f 254//254 252//252 134//134
f 97//97 254//254 134//134
f 96//96 254//254 97//97
f 253//253 162//162 154//154
f 255//255 162//162 253//253
f 96//96 256//256 254//254
f 96//96 124//124 256//256
f 255//255 163//163 162//162
f 258//258 163//163 255//255
f 124//124 259//259 257//257
f 260//260 259//259 124//124
f 261//261 93//93 258//258
f 261//261 92//92 93//93
f 262//262 92//92 261//261
f 260//260 263//263 259//259
f 118//118 263//263 260//260
f 262//262 118//118 92//92
f 263//263 118//118 262//262
f 264//264 267//267 265//265
f 266//266 269//269 268//268
f 267//267 271//271 270//270
f 269//269 273//273 272//272
f 271//271 275//275 274//274
f 273//273 277//277 276//276
f 275//275 279//279 278//278
f 277//277 252//252 280//280
f 282//282 280//280 252//252
f 279//279 284//284 283//283
f 281//281 256//256 285//285
f 284//284 287//287 286//286
f 256//256 289//289 288//288
f 287//287 291//291 290//290
f 289//289 293//293 292//292
f 291//291 295//295 294//294
f 293//293 297//297 296//296
f 295//295 296//296 297//297
f 264//264 268//268 267//267
f 298//298 275//275 267//267
f 272//272 298//298 268//268
f 276//276 280//280 272//272
f 298//298 284//284 275//275
f 282//282 298//298 280//280
f 298//298 291//291 284//284
f 295//295 291//291 296//296
f 298//298 288//288 296//296
f 298//298 282//282 288//288
f 166//166 167//167 299//299
f 241//241 299//299 300//300
f 113//113 245//245 300//300
f 20//20 19//19 145//145
f 19//19 23//23 145//145
f 129//129 18//18 14//14
f 129//129 14//14 17//17
f 120//120 13//13 10//10
f 120//120 10//10 12//12
f 301//301 243//243 115//115
f 247//247 116//116 115//115
f 243//243 301//301 127//127
f 50//50 49//49 135//135
f 59//59 3//3 123//123
f 121//121 59//59 123//123
f 168//168 153//153 302//302
f 303//303 168//168 302//302
f 303//303 157//157 168//168
f 144//144 141//141 27//27
f 130//130 40//40 304//304
f 130//130 132//132 40//40
f 38//38 148//148 42//42
f 148//148 149//149 42//42
f 137//137 31//31 305//305
f 137//137 143//143 31//31
f 61//61 161//161 64//64
f 161//161 159//159 64//64
f 152//152 47//47 46//46
f 152//152 155//155 47//47
f 113//113 246//246 245//245
f 82//82 246//246 113//113
f 244//244 8//8 247//247
f 8//8 116//116 247//247
f 301//301 76//76 127//127
f 301//301 80//80 76//76
f 80//80 301//301 115//115
f 71//71 299//299 167//167
f 78//78 299//299 71//71
f 299//299 114//114 300//300
f 78//78 114//114 299//299
f 186//186 171//171 181//181
f 171//171 182//182 181//181
f 169//169 171//171 186//186
f 171//171 172//172 182//182
f 172//172 187//187 182//182
f 190//190 169//169 186//186
f 190//190 173//173 169//169
f 192//192 173//173 190//190
f 172//172 174//174 187//187
f 174//174 193//193 187//187
f 174//174 195//195 193//193
f 198//198 173//173 192//192
f 198//198 175//175 173//173
f 199//199 175//175 198//198
f 174//174 200//200 195//195
f 174//174 176//176 200//200
f 176//176 205//205 200//200
f 203//203 175//175 199//199
f 206//206 177//177 175//175
f 203//203 206//206 175//175
f 178//178 205//205 176//176
f 178//178 209//209 205//205
f 210//210 179//179 177//177
f 206//206 210//210 177//177
f 178//178 212//212 209//209
f 210//210 214//214 179//179
f 178//178 216//216 212//212
f 214//214 170//170 179//179
f 180//180 216//216 178//178
f 180//180 219//219 216//216
f 214//214 220//220 170//170
f 219//219 180//180 170//170
f 220//220 219//219 170//170
f 142//142 100//100 140//140
f 122//122 124//124 96//96
f 163//163 160//160 162//162
f 95//95 260//260 124//124
f 94//94 260//260 95//95
f 94//94 118//118 260//260
f 118//118 117//117 92//92
f 84//84 90//90 77//77
f 306//306 227//227 228//228
f 228//228 21//21 306//306
f 16//16 227//227 306//306
f 230//230 21//21 228//228
f 229//229 227//227 16//16
f 22//22 21//21 230//230
f 15//15 229//229 16//16
f 307//307 229//229 15//15
f 231//231 22//22 230//230
f 307//307 232//232 229//229
f 231//231 308//308 22//22
f 307//307 309//309 232//232
f 233//233 308//308 231//231
f 310//310 302//302 233//233
f 309//309 11//11 232//232
f 11//11 234//234 232//232
f 235//235 303//303 310//310
f 303//303 302//302 310//310
f 4//4 234//234 11//11
f 4//4 236//236 234//234
f 237//237 303//303 235//235
f 237//237 311//311 303//303
f 2//2 236//236 4//4
f 2//2 238//238 236//236
f 239//239 311//311 237//237
f 2//2 240//240 238//238
f 2//2 7//7 240//240
f 312//312 311//311 239//239
f 242//242 312//312 239//239
f 7//7 244//244 240//240
f 242//242 313//313 312//312
f 7//7 8//8 244//244
f 246//246 313//313 242//242
f 8//8 104//104 116//116
f 8//8 9//9 104//104
f 103//103 82//82 113//113
f 87//87 82//82 103//103
f 78//78 85//85 114//114
f 85//85 106//106 114//114
f 73//73 67//67 108//108
f 93//93 73//73 108//108
f 66//66 165//165 107//107
f 66//66 71//71 165//165
f 71//71 167//167 165//165
f 105//105 89//89 92//92
f 89//89 79//79 92//92
f 70//70 95//95 111//111
f 70//70 69//69 95//95
f 127//127 76//76 112//112
f 76//76 68//68 112//112
f 109//109 80//80 115//115
f 86//86 80//80 109//109
f 81//81 88//88 94//94
f 88//88 110//110 94//94
f 49//49 51//51 97//97
f 12//12 50//50 135//135
f 12//12 11//11 50//50
f 59//59 96//96 55//55
f 59//59 121//121 96//96
f 3//3 4//4 13//13
f 123//123 3//3 13//13
f 132//132 98//98 35//35
f 40//40 132//132 35//35
f 101//101 38//38 36//36
f 101//101 148//148 38//38
f 42//42 23//23 22//22
f 149//149 23//23 42//42
f 29//29 144//144 27//27
f 99//99 144//144 29//29
f 28//28 17//17 16//16
f 141//141 17//17 28//28
f 18//18 307//307 15//15
f 18//18 130//130 307//307
f 130//130 304//304 307//307
f 20//20 305//305 21//21
f 20//20 137//137 305//305
f 143//143 100//100 31//31
f 100//100 33//33 31//31
f 162//162 61//61 57//57
f 161//161 61//61 162//162
f 155//155 52//52 47//47
f 154//154 52//52 155//155
f 153//153 152//152 46//46
f 302//302 153//153 46//46
f 303//303 64//64 157//157
f 64//64 159//159 157//157
f 43//43 309//309 307//307
f 45//45 309//309 43//43
f 45//45 50//50 309//309
f 50//50 11//11 309//309
f 24//24 26//26 306//306
f 26//26 16//16 306//306
f 21//21 24//24 306//306
f 26//26 28//28 16//16
f 311//311 64//64 303//303
f 311//311 63//63 64//64
f 311//311 72//72 63//63
f 312//312 72//72 311//311
f 313//313 72//72 312//312
f 313//313 82//82 72//72
f 308//308 42//42 22//22
f 41//41 42//42 308//308
f 302//302 41//41 308//308
f 302//302 46//46 41//41
f 313//313 246//246 82//82
f 52//52 57//57 53//53
f 304//304 40//40 43//43
f 304//304 43//43 307//307
f 305//305 31//31 24//24
f 305//305 24//24 21//21
f 138//138 145//145 139//139
f 133//133 128//128 129//129
f 150//150 156//156 146//146
f 119//119 126//126 125//125
f 166//166 241//241 164//164
f 241//241 158//158 164//164
f 233//233 235//235 310//310
f 184//184 32//32 25//25
f 194//194 223//223 32//32
f 194//194 196//196 223//223
f 183//183 25//25 30//30
f 183//183 184//184 25//25
f 185//185 183//183 30//30
f 222//222 185//185 30//30
f 188//188 32//32 184//184
f 189//189 185//185 222//222
f 222//222 191//191 189//189
f 188//188 194//194 32//32
f 48//48 197//197 191//191
f 225//225 197//197 48//48
f 201//201 224//224 196//196
f 225//225 202//202 197//197
f 56//56 224//224 201//201
f 204//204 56//56 201//201
f 58//58 202//202 225//225
f 60//60 56//56 204//204
f 58//58 207//207 202//202
f 208//208 60//60 204//204
f 62//62 207//207 58//58
f 211//211 60//60 208//208
f 62//62 213//213 207//207
f 74//74 213//213 62//62
f 215//215 75//75 211//211
f 74//74 217//217 213//213
f 218//218 83//83 215//215
f 83//83 75//75 215//215
f 226//226 217//217 74//74
f 226//226 221//221 217//217
f 221//221 226//226 218//218
f 226//226 83//83 218//218
f 266//266 248//248 249//249
f 269//269 266//266 249//249
f 250//250 269//269 249//249
f 266//266 265//265 248//248
f 273//273 269//269 250//250
f 270//270 248//248 265//265
f 270//270 251//251 248//248
f 270//270 147//147 251//251
f 274//274 147//147 270//270
f 277//277 273//273 250//250
f 131//131 277//277 250//250
f 274//274 151//151 147//147
f 278//278 151//151 274//274
f 252//252 277//277 131//131
f 278//278 253//253 151//151
f 254//254 281//281 252//252
f 283//283 253//253 278//278
f 255//255 253//253 283//283
f 254//254 256//256 281//281
f 286//286 255//255 283//283
f 258//258 255//255 286//286
f 257//257 289//289 256//256
f 290//290 258//258 286//286
f 259//259 289//289 257//257
f 261//261 258//258 290//290
f 259//259 293//293 289//289
f 294//294 262//262 290//290
f 262//262 261//261 290//290
f 263//263 293//293 259//259
f 263//263 297//297 293//293
f 297//297 263//263 294//294
f 263//263 262//262 294//294
f 24//24 25//25 26//26
f 45//45 43//43 39//39
f 47//47 48//48 37//37
f 56//56 59//59 55//55
f 6//6 76//76 80//80
f 87//87 85//85 78//78
f 83//83 88//88 81//81
f 91//91 84//84 87//87
f 55//55 96//96 97//97
f 101//101 36//36 33//33
f 89//89 105//105 106//106
f 110//110 88//88 86//86
f 300//300 114//114 103//103
f 117//117 118//118 109//109
f 125//125 124//124 122//122
f 127//127 125//125 126//126
f 134//134 131//131 128//128
f 151//151 150//150 146//146
f 160//160 163//163 164//164
f 163//163 93//93 108//108
f 165//165 166//166 164//164
f 182//182 183//183 181//181
f 185//185 181//181 183//183
f 187//187 184//184 182//182
f 189//189 186//186 185//185
f 193//193 188//188 187//187
f 195//195 194//194 193//193
f 197//197 192//192 191//191
f 201//201 196//196 195//195
f 200//200 204//204 201//201
f 207//207 206//206 203//203
f 205//205 208//208 204//204
f 209//209 211//211 208//208
f 213//213 214//214 210//210
f 212//212 215//215 211//211
f 216//216 218//218 215//215
f 217//217 220//220 214//214
f 221//221 219//219 220//220
f 133//133 232//232 234//234
f 156//156 235//235 233//233
f 100//100 142//142 249//249
f 124//124 257//257 256//256
f 264//264 265//265 266//266
f 266//266 268//268 264//264
f 267//267 270//270 265//265
f 269//269 272//272 268//268
f 271//271 274//274 270//270
f 273//273 276//276 272//272
f 275//275 278//278 274//274
f 277//277 280//280 276//276
f 282//282 252//252 281//281
f 279//279 283//283 278//278
f 281//281 285//285 282//282
f 284//284 286//286 283//283
f 256//256 288//288 285//285
f 287//287 290//290 286//286
f 289//289 292//292 288//288
f 291//291 294//294 290//290
f 293//293 296//296 292//292
f 295//295 297//297 294//294
f 268//268 298//298 267//267
f 275//275 271//271 267//267
f 280//280 298//298 272//272
f 284//284 279//279 275//275
f 291//291 287//287 284//284
f 291//291 298//298 296//296
f 288//288 292//292 296//296
f 282//282 285//285 288//288
f 166//166 299//299 241//241
f 241//241 300//300 245//245
f 243//243 247//247 115//115
f 243//243 127//127 126//126
f 49//49 136//136 135//135
f 141//141 28//28 27//27
f 302//302 308//308 233//233
f 49//49 97//97 136//136

