mtllib material.mtl
usemtl Material-Metal
v -0.01694100 0.07905200 -0.00000100
v 0.07684200 0.02569000 -0.00000900
v 0.08024800 -0.00126400 -0.00000800
v 0.07678300 -0.02480200 -0.00000300
v 0.07990400 0.03592700 -0.00000100
v 0.07551700 -0.04360000 0.00000000
v 0.08022200 -0.03545800 0.00008700
v 0.07044500 -0.05140500 -0.00000000
v -0.07681500 0.02392500 -0.00000200
v -0.08022200 0.03461700 -0.00000600
v -0.07056000 0.05142900 -0.00000000
v -0.05902700 0.05472600 -0.00000600
v -0.03943700 0.06989700 -0.00000400
v 0.06492700 0.05956200 -0.00000800
v 0.01340000 0.08668100 -0.00002300
v 0.02107900 0.08426600 -0.00001600
v 0.06462900 0.08421500 -0.00004600
v -0.08025000 0.00133300 -0.00000600
v 0.05910700 -0.05469600 -0.00000600
v -0.07679600 -0.02402200 -0.00000700
v -0.08002800 -0.03461100 -0.00000300
v 0.03936500 -0.07000100 -0.00000900
v -0.01615400 -0.07935800 -0.00001500
v -0.04099800 -0.06905900 -0.00000700
v -0.05994500 -0.05410300 -0.00000300
v 0.01674000 -0.07909000 -0.00001400
v -0.00967800 0.08661200 0.00000400
v -0.00908400 -0.08711100 -0.00001100
v 0.00964600 -0.08695500 -0.00000900
v -0.07047700 -0.05183300 -0.00001000
v 0.07586900 0.02419300 0.00475300
v 0.07224900 0.01479900 0.00548000
v 0.07829700 0.00088000 0.00500100
v 0.07201300 -0.01255200 0.00532200
v 0.07487000 -0.02478200 0.00500000
v 0.05806400 0.04014300 0.00520800
v 0.07811500 0.03614700 0.00500900
v 0.06028000 -0.05183600 0.00499300
v 0.07900100 -0.03510000 0.00481600
v 0.06368200 -0.03776700 0.00497900
v 0.07068700 -0.05128000 0.00415900
v 0.06326900 0.05854900 0.00499700
v 0.06948500 0.00146600 0.00500000
v 0.06917900 -0.02073800 0.00553400
v 0.07179600 0.00077700 0.00500000
v 0.06687200 0.01976000 0.00500100
v 0.06893800 0.02175300 0.00586600
v 0.06744900 -0.01794900 0.00495400
v 0.05716700 -0.04459400 0.00583200
v 0.03467900 0.07492500 0.00500100
v 0.03012100 0.07493500 0.00499400
v 0.06618600 0.00301200 0.00500000
v 0.01868900 0.07640900 0.00500100
v 0.05602400 0.03810400 0.00500100
v 0.06478500 0.01976000 0.00499600
v 0.03476800 -0.05563200 0.00500000
v 0.06287100 -0.02644800 0.00500100
v 0.06693400 -0.00289100 0.00499100
v 0.06059800 -0.03403100 0.00500000
v 0.00264100 0.06952300 0.00500100
v -0.03111400 0.05936700 0.00500000
v 0.03448200 -0.05572500 0.00500000
v 0.05681700 0.04243500 0.00502700
v 0.04368200 0.07677100 0.00504400
v 0.06130300 0.08009700 0.00504200
v 0.06251500 0.08206100 0.00560900
v 0.04245200 0.07832300 0.00500000
v 0.04967000 -0.04890300 0.00501300
v 0.01682000 0.08067600 0.00553200
v 0.04826900 -0.04746400 0.00498700
v 0.04381100 -0.05908900 0.00499900
v 0.03978200 -0.06743500 0.00499900
v 0.03618300 -0.05677500 0.00499300
v 0.03782000 -0.06125600 0.00579500
v 0.03491200 -0.06009500 0.00500000
v 0.01726100 0.07821200 0.00500800
v 0.02214900 -0.07021200 0.00499600
v 0.02150600 -0.06888100 0.00584500
v 0.01694700 -0.06771400 0.00495100
v 0.03101700 -0.05924900 0.00499900
v 0.01667100 -0.07833000 0.00462300
v -0.06614200 -0.00261400 0.00499900
v -0.03543900 -0.05654200 0.00499900
v -0.03118600 -0.05824300 0.00498800
v -0.03448200 0.05572500 0.00500000
v 0.00841000 -0.06768300 0.00499400
v 0.00330700 -0.07315000 0.00508000
v -0.00042400 0.07063800 0.00500500
v -0.00115300 0.07287900 0.00570500
v 0.00904100 -0.08609100 0.00475700
v -0.00887700 0.08614300 0.00463500
v -0.00086600 0.07451500 0.00500700
v 0.01779500 0.08256200 0.00505100
v 0.00093400 -0.07211700 0.00598100
v -0.00045200 -0.06949900 0.00500000
v -0.01661100 -0.07170200 0.00499300
v -0.01677100 -0.07800000 0.00469000
v -0.00905300 -0.08484800 0.00500500
v -0.01687200 -0.06555200 0.00498600
v -0.01873300 -0.06713500 0.00501200
v -0.02138800 -0.06908300 0.00595700
v -0.01582500 0.07729900 0.00500100
v -0.01952000 0.06461600 0.00500000
v -0.02458500 0.06531300 0.00499600
v -0.02115200 0.06888800 0.00619400
v -0.02134000 0.07008500 0.00537300
v -0.03897000 -0.06235800 0.00500000
v -0.03842800 -0.06821800 0.00500000
v -0.03966000 0.06040200 0.00570100
v -0.03816000 0.06276800 0.00548300
v -0.03997300 0.06732700 0.00500000
v -0.03569100 -0.05963600 0.00500000
v -0.03706500 -0.06149400 0.00500000
v -0.04585600 0.05266400 0.00489700
v -0.03465700 0.05666600 0.00499500
v -0.06700300 0.00295600 0.00499700
v -0.06267900 0.02667800 0.00499200
v -0.04846300 0.04725200 0.00499300
v -0.05417800 -0.04135300 0.00498800
v -0.05042600 -0.04841000 0.00505300
v -0.05151800 -0.05038100 0.00498500
v -0.05713900 -0.04644200 0.00499700
v -0.05953300 -0.05361100 0.00458200
v -0.05663200 0.04721700 0.00499800
v -0.05449200 0.04704700 0.00578800
v -0.05961100 0.05339300 0.00447200
v -0.06145200 0.03305400 0.00500300
v -0.06430100 0.03267600 0.00502400
v -0.06103500 -0.03324000 0.00500000
v -0.06310100 -0.03425600 0.00500000
v -0.06515600 -0.01833300 0.00499400
v -0.06986200 -0.05100300 0.00468900
v -0.06440500 -0.03564700 0.00558200
v -0.07585900 -0.02424000 0.00474800
v -0.07812300 -0.03544900 0.00500400
v -0.07874100 0.03555200 0.00484300
v -0.06954700 0.02406400 0.00526500
v -0.07077800 0.05107600 0.00458300
v -0.06772300 -0.01622900 0.00495300
v -0.07062900 -0.01458900 0.00567200
v -0.06937000 0.00844300 0.00490600
v -0.07191800 0.00739900 0.00578600
v -0.07371200 -0.00565000 0.00520100
v -0.07624300 0.02447600 0.00454400
v -0.07977700 -0.00082600 0.00436800
v -0.00026700 0.07065800 0.00915800
v 0.00021800 0.06865800 0.00909000
v 0.01767800 0.07624500 0.00914800
v -0.02038000 0.06636100 0.00909300
v -0.03202400 0.06181400 0.01070700
v -0.03096400 0.05923900 0.01027700
v 0.03554200 0.07781300 0.01061100
v -0.05252600 -0.04323200 0.00885900
v -0.04974900 -0.04878600 0.00916400
v -0.03684400 -0.05676400 0.00920900
v -0.06433900 -0.02787200 0.00918800
v -0.06481000 -0.01973500 0.00904800
v -0.06755900 -0.00338400 0.00941700
v -0.06992200 -0.00059600 0.01068500
v 0.00864500 -0.06924700 0.00925600
v 0.03316400 -0.06178300 0.01061400
v 0.02989400 -0.06112100 0.00901600
v 0.00600900 -0.06746300 0.00914000
v -0.01470500 -0.06616700 0.00910200
v -0.01255800 -0.06838400 0.00920400
v -0.03084500 -0.06025500 0.00937800
v -0.03460500 -0.06073600 0.01078800
v 0.06781600 -0.00434400 0.00914300
v 0.06467500 -0.02616600 0.00924200
v 0.06988400 -0.00073800 0.01100500
v 0.06151900 -0.02830400 0.00916900
v 0.05379800 -0.04403600 0.00919800
v 0.04987000 -0.04592900 0.00914800
v 0.03651700 -0.05697600 0.01038900
v 0.06719200 0.01906000 0.00903600
v 0.06738700 0.00336200 0.00965000
v 0.06419400 0.02166700 0.00897600
v 0.05791600 0.04071000 0.00915000
v 0.05609100 0.03808700 0.00920200
v -0.01952000 0.06461600 0.00897900
v -0.03795400 0.05853800 0.00904700
v -0.05566800 0.04228800 0.00935600
v -0.03673000 0.05679500 0.00919000
v -0.04914500 0.04660100 0.00910100
v -0.05856800 0.03350000 0.00912600
v -0.06694800 0.01953100 0.00921000
v -0.06493500 0.01914700 0.00913300
v -0.06760300 0.00354000 0.00922300
v -0.03988000 -0.06974300 0.00307200
v -0.00919700 -0.08741300 0.00278900
v 0.04023600 -0.06961000 0.00296400
v 0.05994300 -0.05422800 0.00290900
v 0.07683600 -0.02478100 0.00305200
v 0.08039100 0.00004600 0.00298200
v 0.08046100 0.03636700 0.00220800
v 0.06510600 0.05926900 0.00296000
v 0.06484700 0.08425100 0.00299700
v 0.02077200 0.08434200 0.00299800
v 0.01322500 0.08681700 0.00299800
v -0.01719300 0.07887300 0.00298100
v -0.04028800 0.06956700 0.00298700
v -0.08029400 -0.03572700 0.00276800
v 0.01753200 0.07826000 0.00898100
v 0.02926500 0.07669300 0.01035700
v -0.03602400 0.05682800 0.01335000
v 0.06929200 -0.02376300 0.00716900
v 0.05680600 -0.04710000 0.00723800
v 0.03442200 -0.06486000 0.00728800
v 0.01648000 -0.07131700 0.00719700
v -0.01486000 -0.07201200 0.00704200
v -0.00170900 0.07409900 0.00712900
v -0.03266200 -0.06551300 0.00715900
v -0.04843000 -0.05514800 0.00725100
v -0.05745700 0.04625100 0.00698800
v -0.07247600 -0.01292200 0.00705300
v 0.01665800 0.08189700 0.00708600
v 0.05922600 0.08068500 0.00709400
v 0.07234100 -0.00302800 0.00726100
v -0.04422500 -0.05704200 0.00703000
v -0.06321000 -0.03611300 0.00724800
v -0.06712000 0.02691800 0.00713200
v -0.06542200 -0.00014600 0.01341100
v 0.06573400 -0.00234800 0.01287300
v 0.03089100 -0.05799800 0.01278000
v -0.03257900 -0.05676100 0.01338900
v 0.03478200 0.07440300 0.01289100
vn -0.37440000 0.53600000 -0.75670000
vn 0.69130000 -0.09680000 -0.71610000
vn 0.72440000 -0.03170000 -0.68860000
vn 0.63870000 0.05280000 -0.76770000
vn 0.69060000 0.06350000 -0.72040000
vn 0.83970000 -0.53600000 -0.08690000
vn 0.84300000 -0.10730000 -0.52710000
vn 0.45440000 -0.62340000 -0.63630000
vn -0.69480000 -0.04360000 -0.71790000
vn -0.84610000 0.06090000 -0.52950000
vn -0.47150000 0.62820000 -0.61890000
vn -0.33830000 0.63290000 -0.69640000
vn -0.34350000 0.63580000 -0.69120000
vn 0.59360000 0.16990000 -0.78660000
vn 0.10840000 0.72190000 -0.68350000
vn 0.09580000 0.65990000 -0.74520000
vn 0.55150000 0.57930000 -0.60020000
vn -0.77590000 0.03180000 -0.63000000
vn 0.32230000 -0.57450000 -0.75240000
vn -0.71170000 0.05750000 -0.70010000
vn -0.74690000 -0.00690000 -0.66490000
vn 0.33780000 -0.64970000 -0.68100000
vn -0.42540000 -0.54610000 -0.72170000
vn -0.40280000 -0.62180000 -0.67170000
vn -0.30390000 -0.63240000 -0.71250000
vn 0.40740000 -0.56870000 -0.71460000
vn -0.32470000 0.75290000 -0.57250000
vn -0.29870000 -0.68140000 -0.66820000
vn 0.35220000 -0.75580000 -0.55200000
vn -0.47730000 -0.68610000 -0.54900000
vn 0.59960000 -0.00210000 0.80030000
vn 0.22390000 0.06140000 0.97270000
vn 0.42940000 0.00360000 0.90310000
vn 0.52980000 -0.08040000 0.84430000
vn 0.33670000 0.02150000 0.94140000
vn 0.63860000 0.31850000 0.70050000
vn 0.49050000 0.09600000 0.86610000
vn 0.11690000 -0.29960000 0.94690000
vn 0.68460000 -0.07550000 0.72500000
vn 0.39640000 -0.21620000 0.89230000
vn 0.49900000 -0.64130000 0.58290000
vn 0.31300000 0.09950000 0.94450000
vn 0.69440000 0.03670000 0.71860000
vn -0.64050000 0.15160000 0.75280000
vn -0.69820000 -0.05640000 0.71360000
vn 0.52920000 0.14980000 0.83520000
vn 0.71940000 0.49500000 0.48730000
vn 0.49020000 -0.12470000 0.86270000
vn -0.49030000 0.32320000 0.80940000
vn 0.15820000 -0.59960000 0.78450000
vn -0.10810000 -0.62150000 0.77590000
vn -0.65350000 0.00630000 0.75690000
vn 0.12570000 -0.72990000 0.67190000
vn -0.60790000 -0.08450000 0.78950000
vn -0.71450000 -0.19190000 0.67280000
vn 0.04310000 0.47430000 0.87930000
vn -0.73320000 0.28170000 0.61900000
vn -0.72130000 -0.07650000 0.68840000
vn 0.27320000 -0.25180000 0.92840000
vn 0.23280000 -0.64220000 0.73030000
vn 0.44650000 -0.61220000 0.65260000
vn -0.23820000 0.53100000 0.81320000
vn -0.07470000 0.16710000 0.98310000
vn 0.10090000 -0.02000000 0.99470000
vn -0.01720000 -0.30620000 0.95180000
vn 0.36180000 0.32310000 0.87450000
vn 0.19480000 0.21340000 0.95740000
vn 0.30030000 -0.30310000 0.90440000
vn 0.11340000 -0.54770000 0.82890000
vn -0.51470000 0.51760000 0.68350000
vn 0.30720000 -0.39260000 0.86690000
vn 0.21450000 -0.33970000 0.91580000
vn 0.02990000 0.79580000 0.60480000
vn -0.38120000 0.52120000 0.76360000
vn 0.32240000 -0.48140000 0.81510000
vn -0.11470000 0.54920000 0.82780000
vn 0.18270000 -0.55190000 0.81370000
vn -0.22210000 0.62980000 0.74430000
vn 0.14790000 -0.41310000 0.89860000
vn -0.45690000 0.51030000 0.72860000
vn 0.34050000 -0.51470000 0.78680000
vn 0.65030000 -0.02230000 0.75930000
vn 0.29720000 0.64760000 0.70160000
vn 0.35100000 0.54110000 0.76430000
vn -0.06700000 -0.26930000 0.96070000
vn -0.12140000 0.77480000 0.62050000
vn 0.00450000 -0.37950000 0.92520000
vn -0.18720000 0.59660000 0.78040000
vn 0.15950000 -0.48940000 0.85740000
vn 0.28710000 -0.64730000 0.70610000
vn -0.24940000 0.69130000 0.67820000
vn -0.23000000 0.67740000 0.69870000
vn -0.00660000 0.79220000 0.61030000
vn 0.01840000 -0.14770000 0.98890000
vn -0.00650000 -0.49030000 0.87160000
vn -0.18410000 -0.62970000 0.75470000
vn -0.34350000 -0.50580000 0.79130000
vn -0.20050000 -0.38710000 0.90000000
vn 0.19550000 0.70470000 0.68210000
vn -0.17270000 -0.44120000 0.88060000
vn 0.21470000 0.63950000 0.73820000
vn -0.18590000 0.28440000 0.94050000
vn 0.22600000 -0.69470000 0.68290000
vn -0.14510000 0.40540000 0.90250000
vn -0.05740000 0.08200000 0.99500000
vn -0.11330000 0.31080000 0.94370000
vn -0.31530000 -0.47860000 0.81950000
vn -0.18990000 -0.34080000 0.92070000
vn 0.05310000 -0.04700000 0.99750000
vn -0.08020000 0.12390000 0.98900000
vn -0.22630000 0.37500000 0.89900000
vn -0.37160000 -0.59210000 0.71510000
vn 0.37830000 0.72440000 0.57630000
vn -0.26680000 0.31010000 0.91250000
vn -0.42200000 -0.70220000 0.57350000
vn 0.72370000 0.05980000 0.68750000
vn 0.72150000 -0.31450000 0.61690000
vn 0.52480000 -0.51050000 0.68110000
vn 0.63050000 0.44170000 0.63820000
vn -0.48360000 -0.44930000 0.75110000
vn 0.61000000 0.56190000 0.55870000
vn -0.34330000 -0.27300000 0.89870000
vn -0.27840000 -0.56300000 0.77810000
vn -0.48510000 0.46600000 0.73990000
vn 0.34400000 -0.31200000 0.88560000
vn -0.24450000 0.54850000 0.79960000
vn -0.53940000 0.24750000 0.80490000
vn 0.69930000 -0.44010000 0.56330000
vn -0.55780000 -0.36730000 0.74430000
vn 0.53770000 0.24240000 0.80750000
vn 0.70580000 0.19250000 0.68170000
vn -0.40550000 -0.58860000 0.69940000
vn -0.57660000 -0.34440000 0.74090000
vn -0.59930000 0.03990000 0.79950000
vn -0.44630000 -0.06200000 0.89270000
vn -0.67750000 0.12310000 0.72510000
vn -0.40470000 0.08580000 0.91040000
vn -0.48490000 0.60580000 0.63080000
vn -0.48680000 -0.08350000 0.86950000
vn 0.52380000 0.14590000 0.83920000
vn -0.48480000 0.07010000 0.87180000
vn -0.60700000 0.11210000 0.78680000
vn -0.44000000 0.01710000 0.89790000
vn -0.64500000 -0.06550000 0.76130000
vn -0.74660000 -0.02210000 0.66490000
vn -0.20650000 0.63540000 0.74400000
vn 0.20440000 -0.72260000 0.66040000
vn 0.12140000 -0.61670000 0.77780000
vn -0.13950000 0.70440000 0.69600000
vn -0.21390000 0.72300000 0.65690000
vn 0.56120000 -0.58210000 0.58840000
vn 0.54040000 0.55890000 0.62890000
vn 0.57190000 0.50610000 0.64560000
vn -0.50130000 -0.47620000 0.72250000
vn 0.19590000 0.77750000 0.59760000
vn -0.71330000 -0.30750000 0.62980000
vn 0.74920000 0.21510000 0.62640000
vn 0.70820000 -0.30740000 0.63560000
vn -0.83110000 -0.05990000 0.55280000
vn 0.07930000 -0.74070000 0.66720000
vn 0.14850000 -0.79130000 0.59310000
vn -0.20610000 0.82150000 0.53160000
vn -0.03180000 0.71850000 0.69480000
vn 0.13830000 0.68000000 0.72010000
vn -0.11210000 -0.72180000 0.68300000
vn 0.61130000 0.49290000 0.61910000
vn -0.38440000 -0.71350000 0.58580000
vn -0.84480000 -0.25290000 0.47150000
vn 0.69240000 -0.29270000 0.65950000
vn 0.78870000 0.00140000 0.61480000
vn -0.63510000 0.32410000 0.70120000
vn 0.58410000 -0.45330000 0.67330000
vn -0.53890000 0.54390000 0.64320000
vn -0.06460000 0.57360000 0.81660000
vn 0.72440000 0.21060000 0.65650000
vn -0.72360000 0.17160000 0.66860000
vn -0.64600000 -0.24250000 0.72380000
vn 0.21990000 0.70540000 0.67390000
vn -0.74980000 -0.02740000 0.66110000
vn 0.25270000 -0.66720000 0.70070000
vn -0.64690000 0.75000000 0.13770000
vn -0.60610000 0.47450000 0.63840000
vn -0.08900000 -0.89480000 0.43750000
vn 0.56610000 -0.54660000 0.61710000
vn 0.62600000 -0.39030000 0.67510000
vn -0.74390000 0.23860000 0.62430000
vn 0.62850000 -0.14180000 0.76480000
vn 0.77540000 0.23740000 0.58510000
vn -0.45520000 -0.81140000 0.36680000
vn -0.36410000 -0.87940000 0.30680000
vn 0.47480000 -0.80560000 0.35440000
vn 0.40450000 -0.83030000 0.38340000
vn 0.91650000 0.08820000 0.39020000
vn 0.93570000 0.00570000 0.35260000
vn 0.97020000 0.16310000 0.17940000
vn 0.87890000 0.27630000 0.38890000
vn 0.67140000 0.65750000 0.34190000
vn 0.11690000 0.91500000 0.38620000
vn 0.12270000 0.88480000 0.44960000
vn -0.50990000 0.76040000 0.40220000
vn -0.47030000 0.80790000 0.35520000
vn -0.95110000 -0.16300000 0.26240000
vn -0.17800000 0.76340000 0.62090000
vn -0.26280000 -0.41470000 0.87120000
vn -0.28000000 -0.38870000 0.87780000
vn 0.59870000 0.02680000 0.80060000
vn 0.51830000 -0.40750000 0.75190000
vn 0.28750000 -0.50970000 0.81090000
vn 0.08080000 -0.46950000 0.87920000
vn -0.07790000 -0.55400000 0.82890000
vn -0.05780000 0.27500000 0.95970000
vn -0.21630000 -0.63460000 0.74190000
vn -0.51190000 -0.59960000 0.61510000
vn -0.46240000 0.37300000 0.80440000
vn -0.57630000 -0.35980000 0.73380000
vn -0.17090000 0.33000000 0.92840000
vn 0.12380000 -0.25690000 0.95850000
vn 0.29110000 0.20410000 0.93470000
vn 0.39810000 0.52800000 0.75010000
vn -0.05620000 -0.06550000 0.99630000
vn 0.01020000 0.11240000 0.99360000
vn 0.48880000 0.01060000 0.87230000
vn -0.49490000 -0.29880000 0.81600000
vn -0.57400000 0.21490000 0.79010000
vn 0.24610000 0.42230000 0.87240000
vn 0.33500000 -0.47230000 0.81530000
f 1//1 2//2 3//3
f 4//4 1//1 3//3
f 2//2 1//1 5//5
f 6//6 4//4 7//7
f 6//6 1//1 4//4
f 8//8 9//9 6//6
f 9//9 10//10 6//6
f 11//11 12//12 6//6
f 12//12 13//13 6//6
f 10//10 11//11 6//6
f 13//13 1//1 6//6
f 1//1 14//14 5//5
f 1//1 15//15 14//14
f 15//15 16//16 14//14
f 16//16 17//17 14//14
f 18//18 9//9 8//8
f 19//19 20//20 8//8
f 20//20 18//18 8//8
f 21//21 20//20 19//19
f 22//22 23//23 19//19
f 23//23 24//24 19//19
f 24//24 25//25 19//19
f 25//25 21//21 19//19
f 26//26 23//23 22//22
f 1//1 27//27 15//15
f 28//28 23//23 26//26
f 29//29 28//28 26//26
f 30//30 21//21 25//25
f 31//31 32//32 33//33
f 34//34 35//35 33//33
f 32//32 34//34 33//33
f 36//36 31//31 37//37
f 35//35 40//40 39//39
f 34//34 40//40 35//35
f 36//36 32//32 31//31
f 38//38 41//41 39//39
f 42//42 36//36 37//37
f 43//43 44//44 45//45
f 46//46 43//43 45//45
f 47//47 46//46 45//45
f 43//43 48//48 44//44
f 48//48 49//49 44//44
f 36//36 46//46 47//47
f 50//50 51//51 52//52
f 51//51 53//53 52//52
f 54//54 50//50 52//52
f 55//55 54//54 52//52
f 56//56 57//57 58//58
f 59//59 49//49 48//48
f 53//53 60//60 52//52
f 60//60 61//61 52//52
f 62//62 56//56 52//52
f 61//61 62//62 52//52
f 56//56 58//58 52//52
f 63//63 36//36 42//42
f 64//64 63//63 42//42
f 65//65 42//42 66//66
f 65//65 64//64 42//42
f 67//67 64//64 65//65
f 68//68 49//49 59//59
f 69//69 67//67 65//65
f 56//56 70//70 57//57
f 71//71 38//38 40//40
f 64//64 50//50 63//63
f 50//50 54//54 63//63
f 71//71 72//72 38//38
f 56//56 73//73 70//70
f 68//68 74//74 49//49
f 75//75 74//74 68//68
f 69//69 76//76 67//67
f 77//77 72//72 71//71
f 75//75 78//78 74//74
f 79//79 78//78 75//75
f 61//61 85//85 62//62
f 77//77 81//81 72//72
f 82//82 83//83 80//80
f 83//83 84//84 80//80
f 85//85 82//82 80//80
f 84//84 86//86 80//80
f 77//77 87//87 81//81
f 69//69 89//89 76//76
f 87//87 90//90 81//81
f 91//91 92//92 93//93
f 79//79 94//94 78//78
f 95//95 94//94 79//79
f 97//97 98//98 96//96
f 98//98 90//90 87//87
f 84//84 99//99 86//86
f 100//100 101//101 95//95
f 101//101 94//94 95//95
f 91//91 102//102 92//92
f 103//103 61//61 60//60
f 89//89 104//104 88//88
f 105//105 104//104 89//89
f 102//102 106//106 92//92
f 107//107 108//108 96//96
f 108//108 97//97 96//96
f 109//109 104//104 105//105
f 102//102 111//111 106//106
f 112//112 113//113 100//100
f 113//113 101//101 100//100
f 109//109 114//114 104//104
f 115//115 116//116 85//85
f 117//117 116//116 115//115
f 118//118 117//117 115//115
f 82//82 119//119 83//83
f 120//120 121//121 112//112
f 121//121 113//113 112//112
f 122//122 123//123 107//107
f 123//123 108//108 107//107
f 111//111 126//126 110//110
f 125//125 114//114 109//109
f 125//125 127//127 114//114
f 128//128 127//127 125//125
f 129//129 130//130 120//120
f 130//130 121//121 120//120
f 82//82 131//131 119//119
f 132//132 123//123 122//122
f 133//133 134//134 122//122
f 134//134 135//135 122//122
f 135//135 132//132 122//122
f 136//136 137//137 124//124
f 126//126 138//138 124//124
f 138//138 136//136 124//124
f 139//139 140//140 129//129
f 140//140 130//130 129//129
f 128//128 141//141 127//127
f 142//142 141//141 128//128
f 143//143 134//134 133//133
f 136//136 144//144 137//137
f 141//141 142//142 139//139
f 142//142 140//140 139//139
f 145//145 134//134 143//143
f 144//144 145//145 137//137
f 146//146 147//147 148//148
f 149//149 180//180 146//146
f 150//150 151//151 149//149
f 152//152 50//50 64//64
f 153//153 154//154 155//155
f 156//156 154//154 153//153
f 157//157 156//156 153//153
f 158//158 159//159 156//156
f 157//157 158//158 156//156
f 160//160 161//161 162//162
f 163//163 160//160 162//162
f 164//164 165//165 163//163
f 165//165 160//160 163//163
f 166//166 167//167 165//165
f 164//164 166//166 165//165
f 119//119 153//153 83//83
f 153//153 155//155 83//83
f 131//131 157//157 119//119
f 157//157 153//153 119//119
f 82//82 158//158 131//131
f 158//158 157//157 131//131
f 168//168 169//169 170//170
f 171//171 169//169 168//168
f 171//171 172//172 169//169
f 173//173 172//172 171//171
f 174//174 161//161 172//172
f 173//173 174//174 172//172
f 86//86 162//162 80//80
f 163//163 162//162 86//86
f 99//99 164//164 86//86
f 164//164 163//163 86//86
f 84//84 166//166 99//99
f 166//166 164//164 99//99
f 175//175 176//176 170//170
f 175//175 177//177 176//176
f 178//178 179//179 175//175
f 63//63 179//179 178//178
f 57//57 168//168 58//58
f 171//171 168//168 57//57
f 70//70 173//173 57//57
f 173//173 171//171 57//57
f 73//73 174//174 70//70
f 174//174 173//173 70//70
f 147//147 103//103 60//60
f 147//147 180//180 103//103
f 180//180 151//151 61//61
f 181//181 182//182 183//183
f 182//182 184//184 183//183
f 182//182 185//185 184//184
f 186//186 187//187 182//182
f 187//187 185//185 182//182
f 186//186 188//188 187//187
f 183//183 118//118 115//115
f 183//183 184//184 118//118
f 184//184 117//117 118//118
f 184//184 185//185 117//117
f 185//185 187//187 117//117
f 187//187 116//116 117//117
f 187//187 188//188 116//116
f 189//189 24//24 23//23
f 97//97 189//189 23//23
f 123//123 25//25 24//24
f 189//189 123//123 24//24
f 190//190 23//23 28//28
f 190//190 97//97 23//23
f 190//190 28//28 29//29
f 90//90 190//190 29//29
f 81//81 29//29 26//26
f 81//81 90//90 29//29
f 191//191 22//22 19//19
f 192//192 191//191 19//19
f 81//81 26//26 22//22
f 191//191 81//81 22//22
f 41//41 192//192 8//8
f 39//39 41//41 7//7
f 41//41 8//8 7//7
f 193//193 39//39 7//7
f 4//4 193//193 7//7
f 2//2 194//194 3//3
f 193//193 4//4 3//3
f 194//194 193//193 3//3
f 31//31 194//194 2//2
f 195//195 2//2 5//5
f 195//195 31//31 2//2
f 196//196 195//195 14//14
f 197//197 14//14 17//17
f 197//197 196//196 14//14
f 16//16 198//198 17//17
f 198//198 197//197 17//17
f 16//16 15//15 198//198
f 27//27 91//91 15//15
f 91//91 199//199 15//15
f 1//1 200//200 27//27
f 200//200 91//91 27//27
f 13//13 200//200 1//1
f 201//201 200//200 13//13
f 12//12 201//201 13//13
f 126//126 201//201 12//12
f 138//138 126//126 12//12
f 11//11 138//138 12//12
f 10//10 138//138 11//11
f 136//136 138//138 10//10
f 144//144 10//10 9//9
f 144//144 136//136 10//10
f 18//18 144//144 9//9
f 145//145 18//18 20//20
f 134//134 145//145 20//20
f 145//145 144//144 18//18
f 202//202 134//134 20//20
f 21//21 202//202 20//20
f 202//202 21//21 30//30
f 132//132 202//202 30//30
f 123//123 132//132 25//25
f 90//90 98//98 190//190
f 72//72 191//191 192//192
f 38//38 72//72 192//192
f 72//72 81//81 191//191
f 98//98 97//97 190//190
f 41//41 38//38 192//192
f 108//108 189//189 97//97
f 108//108 123//123 189//189
f 135//135 202//202 132//132
f 193//193 35//35 39//39
f 31//31 33//33 194//194
f 35//35 193//193 194//194
f 33//33 35//35 194//194
f 202//202 135//135 134//134
f 37//37 31//31 195//195
f 196//196 37//37 195//195
f 42//42 37//37 196//196
f 66//66 196//196 197//197
f 66//66 42//42 196//196
f 93//93 66//66 198//198
f 201//201 102//102 200//200
f 111//111 102//102 201//201
f 126//126 111//111 201//201
f 199//199 93//93 198//198
f 200//200 102//102 91//91
f 91//91 93//93 199//199
f 7//7 8//8 6//6
f 14//14 195//195 5//5
f 76//76 203//203 67//67
f 203//203 152//152 67//67
f 152//152 64//64 67//67
f 204//204 53//53 51//51
f 204//204 148//148 53//53
f 148//148 60//60 53//53
f 148//148 147//147 60//60
f 176//176 55//55 52//52
f 176//176 177//177 55//55
f 177//177 54//54 55//55
f 177//177 179//179 54//54
f 179//179 63//63 54//54
f 63//63 178//178 36//36
f 170//170 48//48 43//43
f 175//175 170//170 43//43
f 46//46 175//175 43//43
f 170//170 169//169 48//48
f 169//169 59//59 48//48
f 36//36 175//175 46//46
f 172//172 68//68 59//59
f 169//169 172//172 59//59
f 178//178 175//175 36//36
f 172//172 161//161 68//68
f 161//161 75//75 68//68
f 161//161 79//79 75//75
f 161//161 160//160 79//79
f 160//160 95//95 79//79
f 165//165 100//100 95//95
f 160//160 165//165 95//95
f 104//104 149//149 88//88
f 165//165 167//167 100//100
f 167//167 112//112 100//100
f 114//114 150//150 104//104
f 150//150 149//149 104//104
f 167//167 154//154 112//112
f 181//181 150//150 114//114
f 182//182 181//181 114//114
f 127//127 182//182 114//114
f 156//156 129//129 120//120
f 154//154 156//156 120//120
f 156//156 139//139 129//129
f 186//186 182//182 127//127
f 141//141 186//186 127//127
f 156//156 159//159 139//139
f 159//159 186//186 141//141
f 159//159 141//141 139//139
f 205//205 150//150 181//181
f 76//76 88//88 146//146
f 206//206 40//40 34//34
f 206//206 207//207 40//40
f 207//207 71//71 40//40
f 207//207 208//208 71//71
f 208//208 77//77 71//71
f 208//208 209//209 77//77
f 209//209 87//87 77//77
f 210//210 96//96 87//87
f 106//106 211//211 92//92
f 210//210 212//212 96//96
f 212//212 107//107 96//96
f 212//212 213//213 107//107
f 213//213 122//122 107//107
f 213//213 133//133 122//122
f 214//214 110//110 124//124
f 137//137 214//214 124//124
f 215//215 143//143 133//133
f 93//93 92//92 216//216
f 93//93 216//216 66//66
f 217//217 69//69 65//65
f 44//44 218//218 45//45
f 218//218 47//47 45//45
f 121//121 219//219 113//113
f 219//219 101//101 113//113
f 130//130 220//220 121//121
f 220//220 219//219 121//121
f 125//125 221//221 128//128
f 140//140 220//220 130//130
f 221//221 142//142 128//128
f 49//49 207//207 206//206
f 137//137 221//221 214//214
f 140//140 215//215 220//220
f 142//142 215//215 140//140
f 188//188 222//222 116//116
f 222//222 158//158 82//82
f 222//222 82//82 116//116
f 159//159 222//222 188//188
f 222//222 159//159 158//158
f 205//205 183//183 115//115
f 205//205 115//115 85//85
f 151//151 85//85 61//61
f 151//151 205//205 85//85
f 205//205 151//151 150//150
f 168//168 223//223 58//58
f 223//223 176//176 52//52
f 58//58 223//223 52//52
f 176//176 223//223 170//170
f 161//161 224//224 80//80
f 162//162 161//161 80//80
f 56//56 174//174 73//73
f 62//62 174//174 56//56
f 224//224 174//174 62//62
f 80//80 224//224 62//62
f 224//224 161//161 174//174
f 155//155 225//225 83//83
f 225//225 166//166 84//84
f 83//83 225//225 84//84
f 183//183 205//205 181//181
f 170//170 223//223 168//168
f 167//167 225//225 155//155
f 225//225 167//167 166//166
f 152//152 226//226 50//50
f 226//226 51//51 50//50
f 226//226 204//204 51//51
f 204//204 226//226 152//152
f 218//218 34//34 32//32
f 218//218 206//206 34//34
f 47//47 218//218 32//32
f 36//36 47//47 32//32
f 74//74 208//208 207//207
f 220//220 133//133 213//213
f 220//220 215//215 133//133
f 142//142 143//143 215//215
f 142//142 137//137 143//143
f 216//216 217//217 66//66
f 217//217 65//65 66//66
f 146//146 148//148 203//203
f 148//148 204//204 203//203
f 204//204 152//152 203//203
f 149//149 151//151 180//180
f 188//188 186//186 159//159
f 155//155 154//154 167//167
f 175//175 179//179 177//177
f 217//217 216//216 69//69
f 216//216 89//89 69//69
f 216//216 211//211 89//89
f 206//206 218//218 44//44
f 49//49 206//206 44//44
f 74//74 207//207 49//49
f 78//78 208//208 74//74
f 209//209 208//208 78//78
f 94//94 209//209 78//78
f 87//87 209//209 94//94
f 210//210 87//87 94//94
f 101//101 210//210 94//94
f 211//211 105//105 89//89
f 211//211 106//106 105//105
f 212//212 210//210 101//101
f 106//106 110//110 105//105
f 110//110 109//109 105//105
f 219//219 212//212 101//101
f 213//213 212//212 219//219
f 110//110 214//214 109//109
f 214//214 125//125 109//109
f 220//220 213//213 219//219
f 214//214 221//221 125//125
f 137//137 142//142 221//221
f 40//40 38//38 39//39
f 85//85 80//80 62//62
f 89//89 88//88 76//76
f 98//98 87//87 96//96
f 111//111 110//110 106//106
f 116//116 82//82 85//85
f 126//126 124//124 110//110
f 145//145 143//143 137//137
f 180//180 147//147 146//146
f 180//180 61//61 103//103
f 192//192 19//19 8//8
f 15//15 199//199 198//198
f 132//132 30//30 25//25
f 66//66 197//197 198//198
f 149//149 146//146 88//88
f 154//154 120//120 112//112
f 76//76 146//146 203//203
f 92//92 211//211 216//216

