mtllib material.mtl
usemtl Metal_Alu_Brushed.001
v -0.04650500 -0.06945400 0.28789600
v -0.05037600 -0.07858200 0.18067900
v -0.04746700 -0.07869400 0.28789600
v -0.04945900 -0.08842700 0.18067900
v -0.04657200 -0.08795700 0.28789600
v -0.04661700 -0.09789100 0.18067900
v -0.04388700 -0.09688400 0.28789600
v -0.04198600 -0.10663900 0.18067900
v -0.03952400 -0.10509600 0.28791800
v -0.03574300 -0.11433600 0.18067900
v -0.03364000 -0.11232200 0.28791800
v -0.02811400 -0.12064600 0.18067900
v -0.02643600 -0.11827400 0.28791800
v -0.01936500 -0.12534400 0.18067900
v -0.01822400 -0.12268200 0.28791800
v -0.00987900 -0.12823000 0.18067900
v -0.00929700 -0.12538900 0.28791800
v 0.00001000 -0.12926000 0.18067900
v 0.00001100 -0.12632900 0.28791800
v 0.00987700 -0.12823000 0.18067900
v 0.00929600 -0.12538900 0.28791800
v 0.01936400 -0.12534400 0.18067900
v 0.01822300 -0.12268200 0.28791800
v 0.02811200 -0.12064600 0.18067900
v 0.02643400 -0.11827400 0.28791800
v 0.03574200 -0.11433600 0.18067900
v 0.03363900 -0.11232200 0.28791800
v 0.04198400 -0.10663900 0.18067900
v 0.03952300 -0.10509600 0.28791800
v 0.04661600 -0.09789100 0.18067900
v 0.04388600 -0.09688400 0.28789600
v 0.04945700 -0.08842700 0.18067900
v 0.04657100 -0.08795700 0.28789600
v 0.05037500 -0.07858200 0.18067900
v 0.04746600 -0.07869400 0.28789600
v 0.04934500 -0.06878200 0.18067900
v 0.04650400 -0.06945400 0.28789600
v 0.04377400 -0.06054900 0.28789600
v 0.04641400 -0.05936300 0.18067900
v 0.05088900 -0.06846900 0.15792500
v 0.05194100 -0.07858200 0.15792500
v 0.05100100 -0.08874000 0.15792500
v 0.04807000 -0.09849500 0.15794700
v 0.04330400 -0.10751200 0.15794700
v 0.03686100 -0.11545500 0.15794700
v 0.02898500 -0.12196600 0.15794700
v 0.01996800 -0.12679800 0.15794700
v 0.01019100 -0.12977400 0.15794700
v 0.00001000 -0.13075900 0.15794700
v -0.01019200 -0.12977400 0.15794700
v -0.01997000 -0.12679800 0.15794700
v -0.02898600 -0.12196600 0.15794700
v -0.03686200 -0.11545500 0.15794700
v -0.04330600 -0.10751200 0.15794700
v -0.04807100 -0.09849500 0.15794700
v -0.05100200 -0.08874000 0.15792500
v -0.05194200 -0.07858200 0.15792500
v -0.05089100 -0.06846900 0.15792500
v -0.04934700 -0.06878200 0.18067900
v -0.04377600 -0.06054900 0.28789600
v -0.04167200 -0.06157800 0.45451600
v -0.04167200 -0.06157800 0.45451600
v -0.04424500 -0.07005800 0.45451600
v -0.04424500 -0.07005800 0.45451600
v -0.04511800 -0.07885100 0.45451600
v -0.04511800 -0.07885100 0.45451600
v -0.04424500 -0.08766600 0.45451600
v -0.04424500 -0.08766600 0.45451600
v -0.04167200 -0.09612400 0.45451600
v -0.04167200 -0.09612400 0.45451600
v -0.03751100 -0.10391000 0.45451600
v -0.03751100 -0.10391000 0.45451600
v -0.03189500 -0.11075600 0.45451600
v -0.03189500 -0.11075600 0.45451600
v -0.02507100 -0.11637200 0.45451600
v -0.02507100 -0.11637200 0.45451600
v -0.01726200 -0.12053400 0.45451600
v -0.01726200 -0.12053400 0.45451600
v -0.00880500 -0.12310700 0.45451600
v -0.00880500 -0.12310700 0.45451600
v 0.00001100 -0.12397900 0.45451600
v 0.00001100 -0.12397900 0.45451600
v 0.00880300 -0.12310700 0.45451600
v 0.00880300 -0.12310700 0.45451600
v 0.01726100 -0.12053400 0.45451600
v 0.01726100 -0.12053400 0.45451600
v 0.02506900 -0.11637200 0.45451600
v 0.02506900 -0.11637200 0.45451600
v 0.03189400 -0.11075600 0.45451600
v 0.03189400 -0.11075600 0.45451600
v 0.03751000 -0.10391000 0.45451600
v 0.03751000 -0.10391000 0.45451600
v 0.04167100 -0.09612400 0.45451600
v 0.04167100 -0.09612400 0.45451600
v 0.04424400 -0.08766600 0.45451600
v 0.04424400 -0.08766600 0.45451600
v 0.04511700 -0.07885100 0.45451600
v 0.04511700 -0.07885100 0.45451600
v 0.04424400 -0.07005800 0.45451600
v 0.04424400 -0.07005800 0.45451600
v 0.04167100 -0.06157800 0.45451600
v 0.04167100 -0.06157800 0.45451600
v 0.03751000 -0.05379200 0.45451600
v 0.03751000 -0.05379200 0.45451600
v 0.03189400 -0.04694500 0.45451600
v 0.03189400 -0.04694500 0.45451600
v 0.03938900 -0.05238200 0.28789600
v 0.04176100 -0.05068200 0.18067900
v 0.04786900 -0.05875900 0.15792500
v 0.05265700 -0.06811100 0.14244200
v 0.05375300 -0.07858200 0.14246400
v 0.05276900 -0.08907600 0.14246400
v 0.04974800 -0.09918900 0.14246400
v 0.04480300 -0.10851900 0.14248700
v 0.03813600 -0.11673000 0.14248700
v 0.02999200 -0.12346500 0.14248700
v 0.02066200 -0.12845400 0.14248700
v 0.01052600 -0.13154200 0.14248700
v 0.00001000 -0.13263800 0.14250900
v -0.01052800 -0.13154200 0.14248700
v -0.02066300 -0.12845400 0.14248700
v -0.02999300 -0.12346500 0.14248700
v -0.03813700 -0.11673000 0.14248700
v -0.04480500 -0.10851900 0.14248700
v -0.04975000 -0.09918900 0.14246400
v -0.05277000 -0.08907600 0.14246400
v -0.05375400 -0.07858200 0.14246400
v -0.05265800 -0.06811100 0.14244200
v -0.04954800 -0.05806500 0.14244200
v -0.04787000 -0.05875900 0.15792500
v -0.04641600 -0.05936300 0.18067900
v -0.03939000 -0.05238200 0.28789600
v -0.03751100 -0.05379200 0.45451600
v -0.03751100 -0.05379200 0.45451600
v 0.00001100 -0.07885100 0.45451600
v 0.02506900 -0.04135200 0.45451600
v 0.02506900 -0.04135200 0.45451600
v 0.03348200 -0.04522200 0.28789600
v 0.03547300 -0.04311900 0.18067900
v 0.04305800 -0.04980900 0.15792500
v 0.04954700 -0.05806500 0.14244200
v 0.05194100 -0.05705800 0.12740600
v 0.05520700 -0.06759700 0.12742900
v 0.05634800 -0.07858200 0.12745100
v 0.05529700 -0.08959000 0.12745100
v 0.05212000 -0.10017300 0.12747400
v 0.04695100 -0.10995100 0.12747400
v 0.03997100 -0.11854200 0.12749600
v 0.03142400 -0.12561300 0.12749600
v 0.02164600 -0.13084800 0.12749600
v 0.01104100 -0.13409200 0.12751800
v 0.00001000 -0.13518900 0.12751800
v -0.01104200 -0.13409200 0.12751800
v -0.02164800 -0.13084800 0.12749600
v -0.03142500 -0.12561300 0.12749600
v -0.03997200 -0.11854200 0.12749600
v -0.04695300 -0.10995100 0.12747400
v -0.05212100 -0.10017300 0.12747400
v -0.05529800 -0.08959000 0.12745100
v -0.05635000 -0.07858200 0.12745100
v -0.05520900 -0.06759700 0.12742900
v -0.05194200 -0.05705800 0.12740600
v -0.04455900 -0.04880200 0.14244200
v -0.04306000 -0.04980900 0.15792500
v -0.04174000 -0.05068200 0.18067900
v -0.03348400 -0.04522200 0.28789600
v -0.03189500 -0.04694500 0.45451600
v -0.03189500 -0.04694500 0.45451600
v -0.02507100 -0.04135200 0.45451600
v -0.02507100 -0.04135200 0.45451600
v -0.01726200 -0.03716800 0.45451600
v -0.01726200 -0.03716800 0.45451600
v -0.00880500 -0.03459500 0.45451600
v -0.00880500 -0.03459500 0.45451600
v 0.00001100 -0.03374500 0.45451600
v 0.00001100 -0.03374500 0.45451600
v 0.00001100 -0.03374500 0.45451600
v 0.00880300 -0.03459500 0.45451600
v 0.00880300 -0.03459500 0.45451600
v 0.01726100 -0.03716800 0.45451600
v 0.01726100 -0.03716800 0.45451600
v 0.02630000 -0.03933800 0.28789600
v 0.02786600 -0.03689900 0.18067900
v 0.03659200 -0.04200100 0.15792500
v 0.04455700 -0.04880200 0.14244200
v 0.04672800 -0.04737000 0.12740600
v 0.04258800 -0.03634000 0.10796300
v 0.04258800 -0.03634000 0.10796300
v 0.05008400 -0.04546900 0.10796300
v 0.05008400 -0.04546900 0.10796300
v 0.05565500 -0.05587300 0.10796300
v 0.05565500 -0.05587300 0.10796300
v 0.05907800 -0.06717100 0.10796300
v 0.05907800 -0.06717100 0.10796300
v 0.06024200 -0.07894000 0.10796300
v 0.06024200 -0.07894000 0.10796300
v 0.05907800 -0.09068700 0.10796300
v 0.05907800 -0.09068700 0.10796300
v 0.05565500 -0.10198600 0.10796300
v 0.05565500 -0.10198600 0.10796300
v 0.05008400 -0.11239000 0.10796300
v 0.05008400 -0.11239000 0.10796300
v 0.04258800 -0.12151800 0.10796300
v 0.04258800 -0.12151800 0.10796300
v 0.03346000 -0.12901300 0.10796300
v 0.03346000 -0.12901300 0.10796300
v 0.02305600 -0.13458500 0.10796300
v 0.02305600 -0.13458500 0.10796300
v 0.01175700 -0.13800800 0.10796300
v 0.01175700 -0.13800800 0.10796300
v 0.00001000 -0.13917100 0.10796300
v 0.00001000 -0.13917100 0.10796300
v -0.01175800 -0.13800800 0.10796300
v -0.01175800 -0.13800800 0.10796300
v -0.02305700 -0.13458500 0.10796300
v -0.02305700 -0.13458500 0.10796300
v -0.03346100 -0.12901300 0.10796300
v -0.03346100 -0.12901300 0.10796300
v -0.04259000 -0.12151800 0.10796300
v -0.04259000 -0.12151800 0.10796300
v -0.05008500 -0.11239000 0.10796300
v -0.05008500 -0.11239000 0.10796300
v -0.05565600 -0.10198600 0.10796300
v -0.05565600 -0.10198600 0.10796300
v -0.05907900 -0.09068700 0.10796300
v -0.05907900 -0.09068700 0.10796300
v -0.06024300 -0.07894000 0.10796300
v -0.06024300 -0.07894000 0.10796300
v -0.05907900 -0.06717100 0.10796300
v -0.05907900 -0.06717100 0.10796300
v -0.05565600 -0.05587300 0.10796300
v -0.05565600 -0.05587300 0.10796300
v -0.05008500 -0.04546900 0.10796300
v -0.05008500 -0.04546900 0.10796300
v -0.04672900 -0.04737000 0.12740600
v -0.03786900 -0.04072500 0.14244200
v -0.03659400 -0.04200100 0.15792500
v -0.03547500 -0.04311900 0.18067900
v -0.02630100 -0.03933800 0.28789600
v -0.01811200 -0.03497500 0.28789600
v -0.00923000 -0.03231300 0.28789600
v 0.00001000 -0.03137300 0.28789600
v 0.00001000 -0.03137300 0.28789600
v 0.00922900 -0.03231300 0.28789600
v 0.01811100 -0.03497500 0.28789600
v 0.01918500 -0.03229000 0.18067900
v 0.02873900 -0.03557900 0.15792500
v 0.03786700 -0.04072500 0.14244200
v 0.03970200 -0.03889100 0.12738400
v 0.03346000 -0.02884500 0.10796300
v 0.03346000 -0.02884500 0.10796300
v 0.03346000 -0.02884500 0.08796100
v 0.03346000 -0.02884500 0.08796100
v 0.04258800 -0.03634000 0.08796100
v 0.04258800 -0.03634000 0.08796100
v 0.05008400 -0.04546900 0.08796100
v 0.05008400 -0.04546900 0.08796100
v 0.05565500 -0.05587300 0.08796100
v 0.05565500 -0.05587300 0.08796100
v 0.05907800 -0.06717100 0.08796100
v 0.05907800 -0.06717100 0.08796100
v 0.06024200 -0.07894000 0.08796100
v 0.06024200 -0.07894000 0.08796100
v 0.05907800 -0.09068700 0.08796100
v 0.05907800 -0.09068700 0.08796100
v 0.05565500 -0.10198600 0.08796100
v 0.05565500 -0.10198600 0.08796100
v 0.05008400 -0.11239000 0.08796100
v 0.05008400 -0.11239000 0.08796100
v 0.04258800 -0.12151800 0.08796100
v 0.04258800 -0.12151800 0.08796100
v 0.03346000 -0.12901300 0.08796100
v 0.03346000 -0.12901300 0.08796100
v 0.02305600 -0.13458500 0.08796100
v 0.02305600 -0.13458500 0.08796100
v 0.01175700 -0.13800800 0.08796100
v 0.01175700 -0.13800800 0.08796100
v 0.00001000 -0.13917100 0.08796100
v 0.00001000 -0.13917100 0.08796100
v -0.01175800 -0.13800800 0.08796100
v -0.01175800 -0.13800800 0.08796100
v -0.02305700 -0.13458500 0.08796100
v -0.02305700 -0.13458500 0.08796100
v -0.03346100 -0.12901300 0.08796100
v -0.03346100 -0.12901300 0.08796100
v -0.04259000 -0.12151800 0.08796100
v -0.04259000 -0.12151800 0.08796100
v -0.05008500 -0.11239000 0.08796100
v -0.05008500 -0.11239000 0.08796100
v -0.05565600 -0.10198600 0.08796100
v -0.05565600 -0.10198600 0.08796100
v -0.05907900 -0.09068700 0.08796100
v -0.05907900 -0.09068700 0.08796100
v -0.06024300 -0.07894000 0.08796100
v -0.06024300 -0.07894000 0.08796100
v -0.05907900 -0.06717100 0.08796100
v -0.05907900 -0.06717100 0.08796100
v -0.05565600 -0.05587300 0.08796100
v -0.05565600 -0.05587300 0.08796100
v -0.05008500 -0.04546900 0.08796100
v -0.05008500 -0.04546900 0.08796100
v -0.04259000 -0.03634000 0.08796100
v -0.04259000 -0.03634000 0.08796100
v -0.03346100 -0.02884500 0.08796100
v -0.03346100 -0.02884500 0.08796100
v -0.04259000 -0.03634000 0.10796300
v -0.04259000 -0.03634000 0.10796300
v -0.03970400 -0.03889100 0.12738400
v -0.02974700 -0.03408000 0.14244200
v -0.02874000 -0.03557900 0.15792500
v -0.02786800 -0.03689900 0.18067900
v -0.01918600 -0.03229000 0.18067900
v -0.00976700 -0.02944900 0.18067900
v 0.00001000 -0.02844200 0.18067900
v 0.00001000 -0.02844200 0.18067900
v 0.00976600 -0.02944900 0.18067900
v 0.01978900 -0.03083600 0.15792500
v 0.02974600 -0.03408000 0.14244200
v 0.03117800 -0.03191000 0.12738400
v 0.02305600 -0.02327300 0.10796300
v 0.02305600 -0.02327300 0.10796300
v 0.02305600 -0.02327300 0.08796100
v 0.02305600 -0.02327300 0.08796100
v 0.00001000 -0.07894000 0.08796100
v -0.02305700 -0.02327300 0.08796100
v -0.02305700 -0.02327300 0.08796100
v -0.03346100 -0.02884500 0.10796300
v -0.03346100 -0.02884500 0.10796300
v -0.03117900 -0.03191000 0.12738400
v -0.02048400 -0.02915800 0.14242000
v -0.01979100 -0.03083600 0.15792500
v -0.01008000 -0.02790500 0.15792500
v 0.00001000 -0.02694300 0.15792500
v 0.00001000 -0.02694300 0.15792500
v 0.01007900 -0.02790500 0.15792500
v 0.02048300 -0.02915800 0.14242000
v 0.02146700 -0.02676400 0.12738400
v 0.01175700 -0.01985000 0.10796300
v 0.01175700 -0.01985000 0.10796300
v 0.01175700 -0.01985000 0.08796100
v 0.01175700 -0.01985000 0.08796100
v 0.00001000 -0.01868700 0.08796100
v 0.00001000 -0.01868700 0.08796100
v 0.00001000 -0.01868700 0.08796100
v -0.01175800 -0.01985000 0.08796100
v -0.01175800 -0.01985000 0.08796100
v -0.02305700 -0.02327300 0.10796300
v -0.02305700 -0.02327300 0.10796300
v -0.02146900 -0.02676400 0.12738400
v -0.01043800 -0.02613700 0.14242000
v 0.00001000 -0.02506300 0.14244200
v 0.00001000 -0.02506300 0.14244200
v 0.01043700 -0.02613700 0.14242000
v 0.01095100 -0.02358700 0.12736200
v 0.00001000 -0.01868700 0.10796300
v 0.00001000 -0.01868700 0.10796300
v 0.00001000 -0.01868700 0.10796300
v 0.00001000 -0.01868700 0.10796300
v -0.01175800 -0.01985000 0.10796300
v -0.01175800 -0.01985000 0.10796300
v -0.01093000 -0.02358700 0.12736200
v 0.00001000 -0.02249000 0.12736200
v 0.00001000 -0.02249000 0.12736200
vn -0.97970000 0.19920000 0.02070000
vn -0.99880000 0.00580000 0.04800000
vn -0.99980000 0.00370000 0.02070000
vn -0.98040000 -0.19080000 0.04810000
vn -0.98100000 -0.19300000 0.02070000
vn -0.92410000 -0.37910000 0.04820000
vn -0.92460000 -0.38030000 0.02060000
vn -0.83320000 -0.55080000 0.04820000
vn -0.83310000 -0.55280000 0.02060000
vn -0.70960000 -0.70290000 0.04830000
vn -0.70950000 -0.70440000 0.02060000
vn -0.55730000 -0.82890000 0.04830000
vn -0.55750000 -0.82990000 0.02060000
vn -0.38350000 -0.92230000 0.04820000
vn -0.38340000 -0.92340000 0.02060000
vn -0.19800000 -0.97900000 0.04810000
vn -0.19620000 -0.98030000 0.02060000
vn 0.00070000 -0.99890000 0.04720000
vn 0.00010000 -0.99980000 0.02060000
vn 0.19750000 -0.97910000 0.04760000
vn 0.19630000 -0.98030000 0.02050000
vn 0.38350000 -0.92230000 0.04820000
vn 0.38340000 -0.92340000 0.02050000
vn 0.55730000 -0.82890000 0.04830000
vn 0.55750000 -0.82990000 0.02050000
vn 0.70960000 -0.70290000 0.04840000
vn 0.70950000 -0.70440000 0.02050000
vn 0.83320000 -0.55090000 0.04840000
vn 0.83310000 -0.55280000 0.02050000
vn 0.92410000 -0.37900000 0.04830000
vn 0.92460000 -0.38040000 0.02050000
vn 0.98040000 -0.19090000 0.04820000
vn 0.98100000 -0.19290000 0.02050000
vn 0.99880000 0.00590000 0.04810000
vn 0.99980000 0.00370000 0.02050000
vn 0.97830000 0.20150000 0.04810000
vn 0.97970000 0.19920000 0.02050000
vn 0.92280000 0.38480000 0.02050000
vn 0.92120000 0.38610000 0.04820000
vn 0.97530000 0.20040000 0.09260000
vn 0.99570000 0.00560000 0.09270000
vn 0.97740000 -0.18990000 0.09260000
vn 0.92130000 -0.37760000 0.09290000
vn 0.83070000 -0.54890000 0.09280000
vn 0.70730000 -0.70080000 0.09280000
vn 0.55500000 -0.82660000 0.09280000
vn 0.38210000 -0.91950000 0.09250000
vn 0.19460000 -0.97640000 0.09330000
vn -0.00020000 -0.99560000 0.09330000
vn -0.19430000 -0.97660000 0.09190000
vn -0.38190000 -0.91960000 0.09250000
vn -0.55520000 -0.82650000 0.09280000
vn -0.70730000 -0.70080000 0.09280000
vn -0.83070000 -0.54890000 0.09300000
vn -0.92130000 -0.37750000 0.09280000
vn -0.97740000 -0.19010000 0.09260000
vn -0.99570000 0.00570000 0.09270000
vn -0.97540000 0.20030000 0.09260000
vn -0.97830000 0.20150000 0.04810000
vn -0.92270000 0.38490000 0.02060000
vn -0.00000000 -0.00000000 1.00000000
vn -0.92380000 0.38270000 0.01400000
vn -0.00000000 -0.00000000 1.00000000
vn -0.98060000 0.19550000 0.01390000
vn -0.00000000 -0.00000000 1.00000000
vn -0.99990000 0.00020000 0.01400000
vn -0.00000000 -0.00000000 1.00000000
vn -0.98060000 -0.19570000 0.01400000
vn -0.00000000 -0.00000000 1.00000000
vn -0.92360000 -0.38300000 0.01390000
vn -0.00000000 -0.00000000 1.00000000
vn -0.83150000 -0.55540000 0.01390000
vn -0.00000000 -0.00000000 1.00000000
vn -0.70760000 -0.70650000 0.01400000
vn -0.00000000 -0.00000000 1.00000000
vn -0.55560000 -0.83130000 0.01400000
vn -0.00000000 -0.00000000 1.00000000
vn -0.38250000 -0.92390000 0.01400000
vn -0.00000000 -0.00000000 1.00000000
vn -0.19570000 -0.98060000 0.01400000
vn -0.00000000 -0.00000000 1.00000000
vn 0.00010000 -0.99990000 0.01400000
vn -0.00000000 -0.00000000 1.00000000
vn 0.19580000 -0.98050000 0.01410000
vn -0.00000000 -0.00000000 1.00000000
vn 0.38240000 -0.92390000 0.01410000
vn -0.00000000 -0.00000000 1.00000000
vn 0.55560000 -0.83130000 0.01410000
vn -0.00000000 -0.00000000 1.00000000
vn 0.70760000 -0.70650000 0.01410000
vn -0.00000000 -0.00000000 1.00000000
vn 0.83150000 -0.55540000 0.01410000
vn -0.00000000 -0.00000000 1.00000000
vn 0.92360000 -0.38300000 0.01410000
vn -0.00000000 -0.00000000 1.00000000
vn 0.98060000 -0.19570000 0.01410000
vn -0.00000000 -0.00000000 1.00000000
vn 0.99990000 0.00010000 0.01420000
vn -0.00000000 -0.00000000 1.00000000
vn 0.98060000 0.19550000 0.01410000
vn -0.00000000 -0.00000000 1.00000000
vn 0.92380000 0.38270000 0.01410000
vn -0.00000000 -0.00000000 1.00000000
vn 0.83150000 0.55540000 0.01410000
vn -0.00000000 -0.00000000 1.00000000
vn 0.70690000 0.70720000 0.01410000
vn 0.83000000 0.55730000 0.02050000
vn 0.82830000 0.55820000 0.04800000
vn 0.91820000 0.38520000 0.09270000
vn 0.96940000 0.19920000 0.14360000
vn 0.98960000 0.00530000 0.14370000
vn 0.97150000 -0.18870000 0.14310000
vn 0.91580000 -0.37520000 0.14290000
vn 0.82550000 -0.54600000 0.14300000
vn 0.70300000 -0.69670000 0.14300000
vn 0.55150000 -0.82180000 0.14310000
vn 0.37950000 -0.91400000 0.14310000
vn 0.19670000 -0.96990000 0.14360000
vn -0.00110000 -0.98950000 0.14430000
vn -0.19520000 -0.97010000 0.14400000
vn -0.37950000 -0.91400000 0.14320000
vn -0.55160000 -0.82170000 0.14310000
vn -0.70290000 -0.69670000 0.14300000
vn -0.82540000 -0.54610000 0.14300000
vn -0.91600000 -0.37490000 0.14290000
vn -0.97160000 -0.18890000 0.14280000
vn -0.98970000 0.00540000 0.14330000
vn -0.96950000 0.19880000 0.14360000
vn -0.91250000 0.38290000 0.14360000
vn -0.91810000 0.38540000 0.09280000
vn -0.92080000 0.38700000 0.04810000
vn -0.83000000 0.55730000 0.02060000
vn -0.83150000 0.55540000 0.01400000
vn -0.00000000 -0.00000000 1.00000000
vn -0.00000000 -0.00000000 1.00000000
vn -0.00000000 -0.00000000 1.00000000
vn 0.55570000 0.83130000 0.01420000
vn 0.70580000 0.70820000 0.02050000
vn 0.70350000 0.70910000 0.04820000
vn 0.82590000 0.55610000 0.09260000
vn 0.91270000 0.38270000 0.14360000
vn 0.90630000 0.38060000 0.18350000
vn 0.96290000 0.19770000 0.18380000
vn 0.98300000 0.00450000 0.18360000
vn 0.96470000 -0.18850000 0.18370000
vn 0.90960000 -0.37240000 0.18440000
vn 0.81980000 -0.54190000 0.18490000
vn 0.69810000 -0.69180000 0.18470000
vn 0.54790000 -0.81590000 0.18480000
vn 0.37770000 -0.90720000 0.18550000
vn 0.19380000 -0.96340000 0.18530000
vn -0.00040000 -0.98280000 0.18440000
vn -0.19330000 -0.96350000 0.18530000
vn -0.37750000 -0.90730000 0.18500000
vn -0.54820000 -0.81580000 0.18430000
vn -0.69830000 -0.69180000 0.18380000
vn -0.82000000 -0.54210000 0.18370000
vn -0.90970000 -0.37250000 0.18360000
vn -0.96480000 -0.18840000 0.18340000
vn -0.98310000 0.00460000 0.18300000
vn -0.96310000 0.19770000 0.18260000
vn -0.90660000 0.38040000 0.18260000
vn -0.82080000 0.55290000 0.14350000
vn -0.82600000 0.55600000 0.09270000
vn -0.82830000 0.55820000 0.04820000
vn -0.70580000 0.70820000 0.02060000
vn -0.70690000 0.70710000 0.01400000
vn -0.00000000 -0.00000000 1.00000000
vn -0.55570000 0.83130000 0.01410000
vn -0.00000000 -0.00000000 1.00000000
vn -0.38340000 0.92350000 0.01400000
vn -0.00000000 -0.00000000 1.00000000
vn -0.19460000 0.98080000 0.01410000
vn -0.00000000 -0.00000000 1.00000000
vn -0.09600000 0.99530000 0.01420000
vn 0.09640000 0.99520000 0.01390000
vn -0.00000000 -0.00000000 1.00000000
vn 0.19450000 0.98080000 0.01400000
vn -0.00000000 -0.00000000 1.00000000
vn -0.00000000 -0.00000000 1.00000000
vn 0.38350000 0.92340000 0.01420000
vn 0.55460000 0.83190000 0.02050000
vn 0.55300000 0.83180000 0.04830000
vn 0.70190000 0.70630000 0.09270000
vn 0.82070000 0.55310000 0.14340000
vn 0.81530000 0.54940000 0.18280000
vn 0.70710000 0.70710000 -0.00000000
vn 0.69370000 0.69380000 0.19330000
vn 0.83120000 0.55600000 -0.00000000
vn 0.81570000 0.54500000 0.19370000
vn 0.92380000 0.38290000 -0.00000000
vn 0.90610000 0.37560000 0.19470000
vn 0.98080000 0.19510000 -0.00000000
vn 0.96210000 0.19120000 0.19450000
vn 1.00000000 -0.00010000 -0.00000000
vn 0.98070000 -0.00060000 0.19530000
vn 0.98080000 -0.19520000 -0.00000000
vn 0.96150000 -0.19190000 0.19680000
vn 0.92380000 -0.38290000 -0.00000000
vn 0.90550000 -0.37540000 0.19790000
vn 0.83120000 -0.55600000 -0.00000000
vn 0.81480000 -0.54500000 0.19790000
vn 0.70710000 -0.70710000 -0.00000000
vn 0.69300000 -0.69330000 0.19780000
vn 0.55600000 -0.83120000 -0.00000000
vn 0.54440000 -0.81500000 0.19860000
vn 0.38290000 -0.92380000 -0.00000000
vn 0.37530000 -0.90520000 0.19960000
vn 0.19520000 -0.98080000 -0.00000000
vn 0.19110000 -0.96110000 0.19940000
vn 0.00010000 -1.00000000 -0.00000000
vn -0.00000000 -0.97990000 0.19960000
vn -0.19510000 -0.98080000 -0.00000000
vn -0.19140000 -0.96090000 0.20000000
vn -0.38290000 -0.92380000 -0.00000000
vn -0.37480000 -0.90520000 0.20020000
vn -0.55600000 -0.83120000 -0.00000000
vn -0.54480000 -0.81450000 0.19930000
vn -0.70710000 -0.70710000 -0.00000000
vn -0.69300000 -0.69280000 0.19950000
vn -0.83120000 -0.55600000 -0.00000000
vn -0.81440000 -0.54480000 0.19990000
vn -0.92380000 -0.38290000 -0.00000000
vn -0.90500000 -0.37570000 0.19940000
vn -0.98080000 -0.19520000 -0.00000000
vn -0.96130000 -0.19180000 0.19800000
vn -1.00000000 -0.00010000 -0.00000000
vn -0.98040000 -0.00040000 0.19690000
vn -0.98080000 0.19510000 -0.00000000
vn -0.96160000 0.19130000 0.19670000
vn -0.92380000 0.38290000 -0.00000000
vn -0.90610000 0.37480000 0.19630000
vn -0.83120000 0.55600000 -0.00000000
vn -0.81530000 0.54520000 0.19500000
vn -0.81530000 0.54960000 0.18210000
vn -0.69770000 0.70200000 0.14310000
vn -0.70190000 0.70620000 0.09270000
vn -0.70400000 0.70860000 0.04820000
vn -0.55450000 0.83190000 0.02060000
vn -0.38050000 0.92460000 0.02060000
vn -0.19510000 0.98060000 0.02060000
vn -0.10110000 0.99470000 0.02050000
vn 0.10140000 0.99460000 0.02070000
vn 0.19510000 0.98060000 0.02070000
vn 0.38050000 0.92450000 0.02050000
vn 0.38020000 0.92370000 0.04820000
vn 0.55100000 0.82930000 0.09270000
vn 0.69770000 0.70190000 0.14310000
vn 0.69300000 0.69750000 0.18230000
vn 0.54590000 0.81540000 0.19260000
vn 0.55600000 0.83120000 -0.00000000
vn -0.00000000 -0.00000000 -1.00000000
vn 0.55600000 0.83120000 -0.00000000
vn -0.00000000 -0.00000000 -1.00000000
vn 0.70710000 0.70710000 -0.00000000
vn -0.00000000 -0.00000000 -1.00000000
vn 0.83120000 0.55600000 -0.00000000
vn -0.00000000 -0.00000000 -1.00000000
vn 0.92380000 0.38290000 -0.00000000
vn -0.00000000 -0.00000000 -1.00000000
vn 0.98080000 0.19510000 -0.00000000
vn -0.00000000 -0.00000000 -1.00000000
vn 1.00000000 -0.00010000 -0.00000000
vn -0.00000000 -0.00000000 -1.00000000
vn 0.98080000 -0.19520000 -0.00000000
vn -0.00000000 -0.00000000 -1.00000000
vn 0.92380000 -0.38290000 -0.00000000
vn -0.00000000 -0.00000000 -1.00000000
vn 0.83120000 -0.55600000 -0.00000000
vn -0.00000000 -0.00000000 -1.00000000
vn 0.70710000 -0.70710000 -0.00000000
vn -0.00000000 -0.00000000 -1.00000000
vn 0.55600000 -0.83120000 -0.00000000
vn -0.00000000 -0.00000000 -1.00000000
vn 0.38290000 -0.92380000 -0.00000000
vn -0.00000000 -0.00000000 -1.00000000
vn 0.19520000 -0.98080000 -0.00000000
vn -0.00000000 -0.00000000 -1.00000000
vn 0.00010000 -1.00000000 -0.00000000
vn -0.00000000 -0.00000000 -1.00000000
vn -0.19510000 -0.98080000 -0.00000000
vn -0.00000000 -0.00000000 -1.00000000
vn -0.38290000 -0.92380000 -0.00000000
vn -0.00000000 -0.00000000 -1.00000000
vn -0.55600000 -0.83120000 -0.00000000
vn -0.00000000 -0.00000000 -1.00000000
vn -0.70710000 -0.70710000 -0.00000000
vn -0.00000000 -0.00000000 -1.00000000
vn -0.83120000 -0.55600000 -0.00000000
vn -0.00000000 -0.00000000 -1.00000000
vn -0.92380000 -0.38290000 -0.00000000
vn -0.00000000 -0.00000000 -1.00000000
vn -0.98080000 -0.19520000 -0.00000000
vn -0.00000000 -0.00000000 -1.00000000
vn -1.00000000 -0.00010000 -0.00000000
vn -0.00000000 -0.00000000 -1.00000000
vn -0.98080000 0.19510000 -0.00000000
vn -0.00000000 -0.00000000 -1.00000000
vn -0.92380000 0.38290000 -0.00000000
vn -0.00000000 -0.00000000 -1.00000000
vn -0.83120000 0.55600000 -0.00000000
vn -0.00000000 -0.00000000 -1.00000000
vn -0.70710000 0.70710000 -0.00000000
vn -0.00000000 -0.00000000 -1.00000000
vn -0.55600000 0.83120000 -0.00000000
vn -0.70710000 0.70710000 -0.00000000
vn -0.69400000 0.69320000 0.19440000
vn -0.69320000 0.69740000 0.18170000
vn -0.54810000 0.82400000 0.14320000
vn -0.55100000 0.82930000 0.09290000
vn -0.55300000 0.83180000 0.04820000
vn -0.38020000 0.92360000 0.04810000
vn -0.19580000 0.97950000 0.04760000
vn -0.10230000 0.99370000 0.04640000
vn 0.10150000 0.99370000 0.04750000
vn 0.19640000 0.97930000 0.04810000
vn 0.37880000 0.92080000 0.09280000
vn 0.54800000 0.82410000 0.14330000
vn 0.54440000 0.81880000 0.18200000
vn 0.37540000 0.90660000 0.19280000
vn 0.38290000 0.92380000 -0.00000000
vn 0.38290000 0.92380000 -0.00000000
vn -0.00000000 -0.00000000 -1.00000000
vn -0.00000000 -0.00000000 -1.00000000
vn -0.00000000 -0.00000000 -1.00000000
vn -0.38290000 0.92380000 -0.00000000
vn -0.55600000 0.83120000 -0.00000000
vn -0.54540000 0.81550000 0.19360000
vn -0.54430000 0.81900000 0.18140000
vn -0.37620000 0.91540000 0.14330000
vn -0.37870000 0.92080000 0.09280000
vn -0.19270000 0.97680000 0.09320000
vn -0.09550000 0.99100000 0.09410000
vn 0.09620000 0.99120000 0.09130000
vn 0.19250000 0.97700000 0.09200000
vn 0.37660000 0.91520000 0.14330000
vn 0.37400000 0.90940000 0.18200000
vn 0.19150000 0.96230000 0.19310000
vn 0.19520000 0.98080000 -0.00000000
vn 0.19520000 0.98080000 -0.00000000
vn -0.00000000 -0.00000000 -1.00000000
vn 0.09860000 0.99510000 -0.00000000
vn -0.09840000 0.99510000 -0.00000000
vn -0.00000000 -0.00000000 -1.00000000
vn -0.00000000 -0.00000000 -1.00000000
vn -0.19510000 0.98080000 -0.00000000
vn -0.38290000 0.92380000 -0.00000000
vn -0.37570000 0.90620000 0.19390000
vn -0.37390000 0.90960000 0.18140000
vn -0.19430000 0.97040000 0.14310000
vn -0.09960000 0.98470000 0.14300000
vn 0.10170000 0.98440000 0.14380000
vn 0.19320000 0.97060000 0.14360000
vn 0.19170000 0.96450000 0.18170000
vn 0.09710000 0.97660000 0.19190000
vn -0.09660000 0.97670000 0.19150000
vn -0.09840000 0.99510000 -0.00000000
vn 0.09860000 0.99510000 -0.00000000
vn -0.19510000 0.98080000 -0.00000000
vn -0.19190000 0.96220000 0.19330000
vn -0.19190000 0.96450000 0.18140000
vn 0.09870000 0.97870000 0.18020000
vn -0.09790000 0.97880000 0.17980000
vt 0.72069200 0.17928000
vt 0.64782100 0.17218200
vt 0.72069200 0.17218200
vt 0.64782100 0.16496600
vt 0.72069200 0.16496600
vt 0.64782100 0.15786800
vt 0.72069200 0.15786800
vt 0.64782100 0.15077000
vt 0.72069200 0.15077000
vt 0.64782100 0.14367200
vt 0.72069200 0.14367200
vt 0.64782100 0.13657500
vt 0.72069200 0.13657500
vt 0.64782100 0.12947700
vt 0.72069200 0.12947700
vt 0.64782100 0.12237900
vt 0.72069200 0.12237900
vt 0.64782100 0.11528100
vt 0.72069200 0.11528100
vt 0.64782100 0.10806500
vt 0.72069200 0.10806500
vt 0.64782100 0.10096700
vt 0.72069200 0.10096700
vt 0.64782100 0.09386900
vt 0.72069200 0.09386900
vt 0.64782100 0.08677200
vt 0.72069200 0.08677200
vt 0.64782100 0.07967400
vt 0.72069200 0.07967400
vt 0.64782100 0.07257600
vt 0.72069200 0.07257600
vt 0.64782100 0.06547800
vt 0.72069200 0.06547800
vt 0.64782100 0.05838100
vt 0.72069200 0.05838100
vt 0.64782100 0.05128300
vt 0.72069200 0.05128300
vt 0.72069200 0.04418500
vt 0.64782100 0.04418500
vt 0.63232400 0.05128300
vt 0.63232400 0.05838100
vt 0.63232400 0.06547800
vt 0.63232400 0.07257600
vt 0.63232400 0.07967400
vt 0.63232400 0.08677200
vt 0.63232400 0.09386900
vt 0.63232400 0.10096700
vt 0.63232400 0.10806500
vt 0.63232400 0.11528100
vt 0.63232400 0.12237900
vt 0.63232400 0.12947700
vt 0.63232400 0.13657500
vt 0.63232400 0.14367200
vt 0.63232400 0.15077000
vt 0.63232400 0.15786800
vt 0.63232400 0.16496600
vt 0.63232400 0.17218200
vt 0.63232400 0.17928000
vt 0.64782100 0.17928000
vt 0.72069200 0.18637700
vt 0.88252100 0.20637000
vt 0.83390100 0.18637700
vt 0.88370400 0.20021800
vt 0.83390100 0.17928000
vt 0.88607000 0.19442100
vt 0.83390100 0.17218200
vt 0.88950100 0.18921600
vt 0.83390100 0.16496600
vt 0.89399600 0.18484000
vt 0.83390100 0.15786800
vt 0.89908300 0.18140900
vt 0.83390100 0.15077000
vt 0.90487900 0.17904300
vt 0.83390100 0.14367200
vt 0.91103100 0.17786000
vt 0.83390100 0.13657500
vt 0.91718200 0.17786000
vt 0.83390100 0.12947700
vt 0.92333400 0.17904300
vt 0.83390100 0.12237900
vt 0.92913000 0.18140900
vt 0.83390100 0.11528100
vt 0.93433500 0.18484000
vt 0.83390100 0.10806500
vt 0.93871200 0.18921600
vt 0.83390100 0.10096700
vt 0.94214300 0.19442100
vt 0.83390100 0.09386900
vt 0.94450900 0.20021800
vt 0.83390100 0.08677200
vt 0.94581000 0.20637000
vt 0.83390100 0.07967400
vt 0.94581000 0.21252100
vt 0.83390100 0.07257600
vt 0.94450900 0.21867200
vt 0.83390100 0.06547800
vt 0.94214300 0.22446900
vt 0.83390100 0.05838100
vt 0.93871200 0.22955600
vt 0.83390100 0.05128300
vt 0.93433500 0.23405100
vt 0.83390100 0.04418500
vt 0.92913000 0.23748100
vt 0.83390100 0.03708700
vt 0.92333400 0.23984700
vt 0.83390100 0.02998900
vt 0.72069200 0.03708700
vt 0.64782100 0.03708700
vt 0.63232400 0.04418500
vt 0.62179600 0.05128300
vt 0.62179600 0.05838100
vt 0.62179600 0.06547800
vt 0.62179600 0.07257600
vt 0.62179600 0.07967400
vt 0.62179600 0.08677200
vt 0.62179600 0.09386900
vt 0.62179600 0.10096700
vt 0.62179600 0.10806500
vt 0.62179600 0.11528100
vt 0.62179600 0.12237900
vt 0.62179600 0.12947700
vt 0.62179600 0.13657500
vt 0.62179600 0.14367200
vt 0.62179600 0.15077000
vt 0.62179600 0.15786800
vt 0.62179600 0.16496600
vt 0.62179600 0.17218200
vt 0.62179600 0.17928000
vt 0.62179600 0.18637700
vt 0.63232400 0.18637700
vt 0.64782100 0.18637700
vt 0.72069200 0.19347500
vt 0.83390100 0.19347500
vt 0.88252100 0.21252100
vt 0.91410600 0.20944500
vt 0.91718200 0.24103000
vt 0.83390100 0.02301000
vt 0.72069200 0.02998900
vt 0.64782100 0.02998900
vt 0.63232400 0.03708700
vt 0.62179600 0.04418500
vt 0.61150400 0.04418500
vt 0.61150400 0.05128300
vt 0.61150400 0.05838100
vt 0.61150400 0.06547800
vt 0.61150400 0.07257600
vt 0.61150400 0.07967400
vt 0.61150400 0.08677200
vt 0.61150400 0.09386900
vt 0.61150400 0.10096700
vt 0.61150400 0.10806500
vt 0.61150400 0.11528100
vt 0.61150400 0.12237900
vt 0.61150400 0.12947700
vt 0.61150400 0.13657500
vt 0.61150400 0.14367200
vt 0.61150400 0.15077000
vt 0.61150400 0.15786800
vt 0.61150400 0.16496600
vt 0.61150400 0.17218200
vt 0.61150400 0.17928000
vt 0.61150400 0.18637700
vt 0.62179600 0.19347500
vt 0.63232400 0.19347500
vt 0.64782100 0.19347500
vt 0.72069200 0.20045500
vt 0.83390100 0.20045500
vt 0.88370400 0.21867200
vt 0.83390100 0.20755200
vt 0.88607000 0.22446900
vt 0.83390100 0.21453200
vt 0.88950100 0.22955600
vt 0.83390100 0.22151100
vt 0.89399600 0.23405100
vt 0.83390100 0.22849100
vt 0.83390100 0.00195300
vt 0.89908300 0.23748100
vt 0.83390100 0.00893300
vt 0.90487900 0.23984700
vt 0.91103100 0.24103000
vt 0.83390100 0.01591200
vt 0.72069200 0.02301000
vt 0.64782100 0.02301000
vt 0.63232400 0.02998900
vt 0.62179600 0.03708700
vt 0.61150400 0.03708700
vt 0.59801800 0.02998900
vt 0.59801800 0.02998900
vt 0.59801800 0.03708700
vt 0.59801800 0.03708700
vt 0.59801800 0.04418500
vt 0.59801800 0.04418500
vt 0.59801800 0.05128300
vt 0.59801800 0.05128300
vt 0.59801800 0.05838100
vt 0.59801800 0.05838100
vt 0.59801800 0.06547800
vt 0.59801800 0.06547800
vt 0.59801800 0.07257600
vt 0.59801800 0.07257600
vt 0.59801800 0.07967400
vt 0.59801800 0.07967400
vt 0.59801800 0.08677200
vt 0.59801800 0.08677200
vt 0.59801800 0.09386900
vt 0.59801800 0.09386900
vt 0.59801800 0.10096700
vt 0.59801800 0.10096700
vt 0.59801800 0.10806500
vt 0.59801800 0.10806500
vt 0.59801800 0.11528100
vt 0.59801800 0.11528100
vt 0.59801800 0.12237900
vt 0.59801800 0.12237900
vt 0.59801800 0.12947700
vt 0.59801800 0.12947700
vt 0.59801800 0.13657500
vt 0.59801800 0.13657500
vt 0.59801800 0.14367200
vt 0.59801800 0.14367200
vt 0.59801800 0.15077000
vt 0.59801800 0.15077000
vt 0.59801800 0.15786800
vt 0.59801800 0.15786800
vt 0.59801800 0.16496600
vt 0.59801800 0.16496600
vt 0.59801800 0.17218200
vt 0.59801800 0.17218200
vt 0.59801800 0.17928000
vt 0.59801800 0.17928000
vt 0.59801800 0.18637700
vt 0.59801800 0.18637700
vt 0.59801800 0.19347500
vt 0.59801800 0.19347500
vt 0.61150400 0.19347500
vt 0.62179600 0.20045500
vt 0.63232400 0.20045500
vt 0.64782100 0.20045500
vt 0.72069200 0.20755200
vt 0.72069200 0.21453200
vt 0.72069200 0.22151100
vt 0.72069200 0.22849100
vt 0.72069200 0.00195300
vt 0.72069200 0.00893300
vt 0.72069200 0.01591200
vt 0.64782100 0.01591200
vt 0.63232400 0.02301000
vt 0.62179600 0.02998900
vt 0.61150400 0.02998900
vt 0.59801800 0.02301000
vt 0.59801800 0.02301000
vt 0.62167700 0.96607000
vt 0.58453200 0.02301000
vt 0.61398800 0.96926400
vt 0.58453200 0.02998900
vt 0.60582600 0.97092000
vt 0.58453200 0.03708700
vt 0.59754500 0.97092000
vt 0.58453200 0.04418500
vt 0.58938300 0.96926400
vt 0.58453200 0.05128300
vt 0.58169300 0.96607000
vt 0.58453200 0.05838100
vt 0.57471400 0.96145600
vt 0.58453200 0.06547800
vt 0.56891700 0.95566000
vt 0.58453200 0.07257600
vt 0.56430400 0.94868000
vt 0.58453200 0.07967400
vt 0.56111000 0.94099100
vt 0.58453200 0.08677200
vt 0.55945300 0.93282800
vt 0.58453200 0.09386900
vt 0.55945300 0.92454800
vt 0.58453200 0.10096700
vt 0.56111000 0.91638500
vt 0.58453200 0.10806500
vt 0.56430400 0.90869600
vt 0.58453200 0.11528100
vt 0.56891700 0.90171700
vt 0.58453200 0.12237900
vt 0.57471400 0.89592000
vt 0.58453200 0.12947700
vt 0.58169300 0.89130600
vt 0.58453200 0.13657500
vt 0.58938300 0.88811200
vt 0.58453200 0.14367200
vt 0.59754500 0.88645600
vt 0.58453200 0.15077000
vt 0.60582600 0.88645600
vt 0.58453200 0.15786800
vt 0.61398800 0.88811200
vt 0.58453200 0.16496600
vt 0.62167700 0.89130600
vt 0.58453200 0.17218200
vt 0.62865700 0.89592000
vt 0.58453200 0.17928000
vt 0.63445300 0.90171700
vt 0.58453200 0.18637700
vt 0.63906700 0.90869600
vt 0.58453200 0.19347500
vt 0.64226100 0.91638500
vt 0.58453200 0.20045500
vt 0.64391700 0.92454800
vt 0.58453200 0.20755200
vt 0.59801800 0.20045500
vt 0.59801800 0.20045500
vt 0.61150400 0.20045500
vt 0.62179600 0.20755200
vt 0.63232400 0.20755200
vt 0.64782100 0.20755200
vt 0.64782100 0.21453200
vt 0.64782100 0.22151100
vt 0.64782100 0.22849100
vt 0.64782100 0.00195300
vt 0.64782100 0.00893300
vt 0.63232400 0.01591200
vt 0.62179600 0.02301000
vt 0.61150400 0.02301000
vt 0.59801800 0.01591200
vt 0.59801800 0.01591200
vt 0.58453200 0.01591200
vt 0.62865700 0.96145600
vt 0.60168500 0.92868800
vt 0.64391700 0.93282800
vt 0.58453200 0.21453200
vt 0.59801800 0.20755200
vt 0.59801800 0.20755200
vt 0.61150400 0.20755200
vt 0.62179600 0.21453200
vt 0.63232400 0.21453200
vt 0.63232400 0.22151100
vt 0.63232400 0.22849100
vt 0.63232400 0.00195300
vt 0.63232400 0.00893300
vt 0.62179600 0.01591200
vt 0.61150400 0.01591200
vt 0.59801800 0.00893300
vt 0.59801800 0.00893300
vt 0.58453200 0.00893300
vt 0.63445300 0.95566000
vt 0.58453200 0.00195300
vt 0.58453200 0.22849100
vt 0.63906700 0.94868000
vt 0.64226100 0.94099100
vt 0.58453200 0.22151100
vt 0.59801800 0.21453200
vt 0.59801800 0.21453200
vt 0.61150400 0.21453200
vt 0.62179600 0.22151100
vt 0.62179600 0.22849100
vt 0.62179600 0.00195300
vt 0.62179600 0.00893300
vt 0.61150400 0.00893300
vt 0.59801800 0.00195300
vt 0.59801800 0.22849100
vt 0.59801800 0.22849100
vt 0.59801800 0.00195300
vt 0.59801800 0.22151100
vt 0.59801800 0.22151100
vt 0.61150400 0.22151100
vt 0.61150400 0.00195300
vt 0.61150400 0.22849100
f 1/1/1 2/2/2 3/3/3
f 2/2/2 4/4/4 3/3/3
f 3/3/3 4/4/4 5/5/5
f 4/4/4 6/6/6 5/5/5
f 5/5/5 6/6/6 7/7/7
f 6/6/6 8/8/8 7/7/7
f 7/7/7 8/8/8 9/9/9
f 8/8/8 10/10/10 9/9/9
f 9/9/9 10/10/10 11/11/11
f 10/10/10 12/12/12 11/11/11
f 11/11/11 12/12/12 13/13/13
f 12/12/12 14/14/14 13/13/13
f 13/13/13 14/14/14 15/15/15
f 14/14/14 16/16/16 15/15/15
f 15/15/15 16/16/16 17/17/17
f 16/16/16 18/18/18 17/17/17
f 17/17/17 18/18/18 19/19/19
f 18/18/18 20/20/20 19/19/19
f 19/19/19 20/20/20 21/21/21
f 20/20/20 22/22/22 21/21/21
f 21/21/21 22/22/22 23/23/23
f 22/22/22 24/24/24 23/23/23
f 23/23/23 24/24/24 25/25/25
f 24/24/24 26/26/26 25/25/25
f 25/25/25 26/26/26 27/27/27
f 26/26/26 28/28/28 27/27/27
f 27/27/27 28/28/28 29/29/29
f 28/28/28 30/30/30 29/29/29
f 29/29/29 30/30/30 31/31/31
f 30/30/30 32/32/32 31/31/31
f 31/31/31 32/32/32 33/33/33
f 32/32/32 34/34/34 33/33/33
f 33/33/33 34/34/34 35/35/35
f 34/34/34 36/36/36 35/35/35
f 35/35/35 36/36/36 37/37/37
f 38/38/38 37/37/37 39/39/39
f 37/37/37 36/36/36 39/39/39
f 39/39/39 36/36/36 40/40/40
f 40/40/40 36/36/36 41/41/41
f 36/36/36 34/34/34 41/41/41
f 41/41/41 34/34/34 42/42/42
f 34/34/34 32/32/32 42/42/42
f 42/42/42 32/32/32 43/43/43
f 32/32/32 30/30/30 43/43/43
f 43/43/43 30/30/30 44/44/44
f 30/30/30 28/28/28 44/44/44
f 44/44/44 28/28/28 45/45/45
f 28/28/28 26/26/26 45/45/45
f 45/45/45 26/26/26 46/46/46
f 26/26/26 24/24/24 46/46/46
f 46/46/46 24/24/24 47/47/47
f 24/24/24 22/22/22 47/47/47
f 47/47/47 22/22/22 48/48/48
f 22/22/22 20/20/20 48/48/48
f 48/48/48 20/20/20 49/49/49
f 20/20/20 18/18/18 49/49/49
f 49/49/49 18/18/18 50/50/50
f 18/18/18 16/16/16 50/50/50
f 50/50/50 16/16/16 51/51/51
f 16/16/16 14/14/14 51/51/51
f 51/51/51 14/14/14 52/52/52
f 14/14/14 12/12/12 52/52/52
f 52/52/52 12/12/12 53/53/53
f 12/12/12 10/10/10 53/53/53
f 53/53/53 10/10/10 54/54/54
f 10/10/10 8/8/8 54/54/54
f 54/54/54 8/8/8 55/55/55
f 8/8/8 6/6/6 55/55/55
f 55/55/55 6/6/6 56/56/56
f 6/6/6 4/4/4 56/56/56
f 56/56/56 4/4/4 57/57/57
f 4/4/4 2/2/2 57/57/57
f 57/57/57 2/2/2 58/58/58
f 58/58/58 2/2/2 59/59/59
f 2/2/2 1/1/1 59/59/59
f 59/59/59 1/1/1 60/60/60
f 62/62/62 60/60/60 64/64/64
f 60/60/60 1/1/1 64/64/64
f 64/64/64 1/1/1 66/66/66
f 1/1/1 3/3/3 66/66/66
f 66/66/66 3/3/3 68/68/68
f 3/3/3 5/5/5 68/68/68
f 68/68/68 5/5/5 70/70/70
f 5/5/5 7/7/7 70/70/70
f 70/70/70 7/7/7 72/72/72
f 7/7/7 9/9/9 72/72/72
f 72/72/72 9/9/9 74/74/74
f 9/9/9 11/11/11 74/74/74
f 74/74/74 11/11/11 76/76/76
f 11/11/11 13/13/13 76/76/76
f 76/76/76 13/13/13 78/78/78
f 13/13/13 15/15/15 78/78/78
f 78/78/78 15/15/15 80/80/80
f 15/15/15 17/17/17 80/80/80
f 80/80/80 17/17/17 82/82/82
f 17/17/17 19/19/19 82/82/82
f 82/82/82 19/19/19 84/84/84
f 19/19/19 21/21/21 84/84/84
f 84/84/84 21/21/21 86/86/86
f 21/21/21 23/23/23 86/86/86
f 86/86/86 23/23/23 88/88/88
f 23/23/23 25/25/25 88/88/88
f 88/88/88 25/25/25 90/90/90
f 25/25/25 27/27/27 90/90/90
f 90/90/90 27/27/27 92/92/92
f 27/27/27 29/29/29 92/92/92
f 92/92/92 29/29/29 94/94/94
f 29/29/29 31/31/31 94/94/94
f 94/94/94 31/31/31 96/96/96
f 31/31/31 33/33/33 96/96/96
f 96/96/96 33/33/33 98/98/98
f 33/33/33 35/35/35 98/98/98
f 98/98/98 35/35/35 100/100/100
f 35/35/35 37/37/37 100/100/100
f 100/100/100 37/37/37 102/102/102
f 37/37/37 38/38/38 102/102/102
f 102/102/102 38/38/38 104/104/104
f 106/106/106 104/104/104 107/107/107
f 104/104/104 38/38/38 107/107/107
f 107/107/107 38/38/38 108/108/108
f 38/38/38 39/39/39 108/108/108
f 108/108/108 39/39/39 109/109/109
f 39/39/39 40/40/40 109/109/109
f 109/109/109 40/40/40 110/110/110
f 110/110/110 40/40/40 111/111/111
f 40/40/40 41/41/41 111/111/111
f 111/111/111 41/41/41 112/112/112
f 41/41/41 42/42/42 112/112/112
f 112/112/112 42/42/42 113/113/113
f 42/42/42 43/43/43 113/113/113
f 113/113/113 43/43/43 114/114/114
f 43/43/43 44/44/44 114/114/114
f 114/114/114 44/44/44 115/115/115
f 44/44/44 45/45/45 115/115/115
f 115/115/115 45/45/45 116/116/116
f 45/45/45 46/46/46 116/116/116
f 116/116/116 46/46/46 117/117/117
f 46/46/46 47/47/47 117/117/117
f 117/117/117 47/47/47 118/118/118
f 47/47/47 48/48/48 118/118/118
f 118/118/118 48/48/48 119/119/119
f 48/48/48 49/49/49 119/119/119
f 119/119/119 49/49/49 120/120/120
f 49/49/49 50/50/50 120/120/120
f 120/120/120 50/50/50 121/121/121
f 50/50/50 51/51/51 121/121/121
f 121/121/121 51/51/51 122/122/122
f 51/51/51 52/52/52 122/122/122
f 122/122/122 52/52/52 123/123/123
f 52/52/52 53/53/53 123/123/123
f 123/123/123 53/53/53 124/124/124
f 53/53/53 54/54/54 124/124/124
f 124/124/124 54/54/54 125/125/125
f 54/54/54 55/55/55 125/125/125
f 125/125/125 55/55/55 126/126/126
f 55/55/55 56/56/56 126/126/126
f 126/126/126 56/56/56 127/127/127
f 56/56/56 57/57/57 127/127/127
f 127/127/127 57/57/57 128/128/128
f 57/57/57 58/58/58 128/128/128
f 128/128/128 58/58/58 129/129/129
f 129/129/129 58/58/58 130/130/130
f 58/58/58 59/59/59 130/130/130
f 130/130/130 59/59/59 131/131/131
f 59/59/59 60/60/60 131/131/131
f 131/131/131 60/60/60 132/132/132
f 60/60/60 62/62/62 132/132/132
f 132/132/132 62/62/62 133/133/133
f 134/134/134 61/61/61 135/135/135
f 61/61/61 63/63/63 135/135/135
f 63/63/63 65/65/65 135/135/135
f 65/65/65 67/67/67 135/135/135
f 67/67/67 69/69/69 135/135/135
f 69/69/69 71/71/71 135/135/135
f 71/71/71 73/73/73 135/135/135
f 73/73/73 75/75/75 135/135/135
f 75/75/75 77/77/77 135/135/135
f 77/77/77 79/79/79 135/135/135
f 79/79/79 81/81/81 135/135/135
f 81/81/81 83/83/83 135/135/135
f 83/83/83 85/85/85 135/135/135
f 85/85/85 87/87/87 135/135/135
f 87/87/87 89/89/89 135/135/135
f 89/89/89 91/91/91 135/135/135
f 91/91/91 93/93/93 135/135/135
f 93/93/93 95/95/95 135/135/135
f 95/95/95 97/97/97 135/135/135
f 97/97/97 99/99/99 135/135/135
f 99/99/99 101/101/101 135/135/135
f 101/101/101 103/103/103 135/135/135
f 103/103/103 105/105/105 135/135/135
f 135/135/135 105/105/105 136/136/136
f 137/137/137 106/106/106 138/138/138
f 106/106/106 107/107/107 138/138/138
f 138/138/138 107/107/107 139/139/139
f 107/107/107 108/108/108 139/139/139
f 139/139/139 108/108/108 140/140/140
f 108/108/108 109/109/109 140/140/140
f 140/140/140 109/109/109 141/141/141
f 109/109/109 110/110/110 141/141/141
f 141/141/141 110/110/110 142/142/142
f 142/142/142 110/110/110 143/143/143
f 110/110/110 111/111/111 143/143/143
f 143/143/143 111/111/111 144/144/144
f 111/111/111 112/112/112 144/144/144
f 144/144/144 112/112/112 145/145/145
f 112/112/112 113/113/113 145/145/145
f 145/145/145 113/113/113 146/146/146
f 113/113/113 114/114/114 146/146/146
f 146/146/146 114/114/114 147/147/147
f 114/114/114 115/115/115 147/147/147
f 147/147/147 115/115/115 148/148/148
f 115/115/115 116/116/116 148/148/148
f 148/148/148 116/116/116 149/149/149
f 116/116/116 117/117/117 149/149/149
f 149/149/149 117/117/117 150/150/150
f 117/117/117 118/118/118 150/150/150
f 150/150/150 118/118/118 151/151/151
f 118/118/118 119/119/119 151/151/151
f 151/151/151 119/119/119 152/152/152
f 119/119/119 120/120/120 152/152/152
f 152/152/152 120/120/120 153/153/153
f 120/120/120 121/121/121 153/153/153
f 153/153/153 121/121/121 154/154/154
f 121/121/121 122/122/122 154/154/154
f 154/154/154 122/122/122 155/155/155
f 122/122/122 123/123/123 155/155/155
f 155/155/155 123/123/123 156/156/156
f 123/123/123 124/124/124 156/156/156
f 156/156/156 124/124/124 157/157/157
f 124/124/124 125/125/125 157/157/157
f 157/157/157 125/125/125 158/158/158
f 125/125/125 126/126/126 158/158/158
f 158/158/158 126/126/126 159/159/159
f 126/126/126 127/127/127 159/159/159
f 159/159/159 127/127/127 160/160/160
f 127/127/127 128/128/128 160/160/160
f 160/160/160 128/128/128 161/161/161
f 128/128/128 129/129/129 161/161/161
f 161/161/161 129/129/129 162/162/162
f 162/162/162 129/129/129 163/163/163
f 129/129/129 130/130/130 163/163/163
f 163/163/163 130/130/130 164/164/164
f 130/130/130 131/131/131 164/164/164
f 164/164/164 131/131/131 165/165/165
f 131/131/131 132/132/132 165/165/165
f 165/165/165 132/132/132 166/166/166
f 132/132/132 133/133/133 166/166/166
f 166/166/166 133/133/133 167/167/167
f 134/134/134 135/135/135 168/168/168
f 168/168/168 135/135/135 170/170/170
f 170/170/170 135/135/135 172/172/172
f 172/172/172 135/135/135 174/174/174
f 174/174/174 135/135/135 177/177/177
f 177/177/177 135/135/135 179/179/179
f 179/179/179 135/135/135 180/180/180
f 135/135/135 136/136/136 180/180/180
f 181/181/181 137/137/137 182/182/182
f 137/137/137 138/138/138 182/182/182
f 182/182/182 138/138/138 183/183/183
f 138/138/138 139/139/139 183/183/183
f 183/183/183 139/139/139 184/184/184
f 139/139/139 140/140/140 184/184/184
f 184/184/184 140/140/140 185/185/185
f 140/140/140 141/141/141 185/185/185
f 185/185/185 141/141/141 186/186/186
f 141/141/141 142/142/142 186/186/186
f 188/188/188 186/186/186 190/190/190
f 186/186/186 142/142/142 190/190/190
f 190/190/190 142/142/142 192/192/192
f 142/142/142 143/143/143 192/192/192
f 192/192/192 143/143/143 194/194/194
f 143/143/143 144/144/144 194/194/194
f 194/194/194 144/144/144 196/196/196
f 144/144/144 145/145/145 196/196/196
f 196/196/196 145/145/145 198/198/198
f 145/145/145 146/146/146 198/198/198
f 198/198/198 146/146/146 200/200/200
f 146/146/146 147/147/147 200/200/200
f 200/200/200 147/147/147 202/202/202
f 147/147/147 148/148/148 202/202/202
f 202/202/202 148/148/148 204/204/204
f 148/148/148 149/149/149 204/204/204
f 204/204/204 149/149/149 206/206/206
f 149/149/149 150/150/150 206/206/206
f 206/206/206 150/150/150 208/208/208
f 150/150/150 151/151/151 208/208/208
f 208/208/208 151/151/151 210/210/210
f 151/151/151 152/152/152 210/210/210
f 210/210/210 152/152/152 212/212/212
f 152/152/152 153/153/153 212/212/212
f 212/212/212 153/153/153 214/214/214
f 153/153/153 154/154/154 214/214/214
f 214/214/214 154/154/154 216/216/216
f 154/154/154 155/155/155 216/216/216
f 216/216/216 155/155/155 218/218/218
f 155/155/155 156/156/156 218/218/218
f 218/218/218 156/156/156 220/220/220
f 156/156/156 157/157/157 220/220/220
f 220/220/220 157/157/157 222/222/222
f 157/157/157 158/158/158 222/222/222
f 222/222/222 158/158/158 224/224/224
f 158/158/158 159/159/159 224/224/224
f 224/224/224 159/159/159 226/226/226
f 159/159/159 160/160/160 226/226/226
f 226/226/226 160/160/160 228/228/228
f 160/160/160 161/161/161 228/228/228
f 228/228/228 161/161/161 230/230/230
f 161/161/161 162/162/162 230/230/230
f 230/230/230 162/162/162 232/232/232
f 234/234/234 232/232/232 235/235/235
f 232/232/232 162/162/162 235/235/235
f 162/162/162 163/163/163 235/235/235
f 235/235/235 163/163/163 236/236/236
f 163/163/163 164/164/164 236/236/236
f 236/236/236 164/164/164 237/237/237
f 164/164/164 165/165/165 237/237/237
f 237/237/237 165/165/165 238/238/238
f 165/165/165 166/166/166 238/238/238
f 238/238/238 166/166/166 239/239/239
f 166/166/166 167/167/167 239/239/239
f 167/167/167 169/169/169 239/239/239
f 239/239/239 169/169/169 240/240/240
f 169/169/169 171/171/171 240/240/240
f 240/240/240 171/171/171 241/241/241
f 171/171/171 173/173/173 241/241/241
f 241/241/241 173/173/173 242/242/242
f 173/173/173 175/175/175 242/242/242
f 243/243/243 176/176/176 244/244/244
f 176/176/176 178/178/178 244/244/244
f 244/244/244 178/178/178 245/245/245
f 178/178/178 181/181/181 245/245/245
f 181/181/181 182/182/182 245/245/245
f 245/245/245 182/182/182 246/246/246
f 182/182/182 183/183/183 246/246/246
f 246/246/246 183/183/183 247/247/247
f 183/183/183 184/184/184 247/247/247
f 247/247/247 184/184/184 248/248/248
f 184/184/184 185/185/185 248/248/248
f 248/248/248 185/185/185 249/249/249
f 185/185/185 186/186/186 249/249/249
f 186/186/186 188/188/188 249/249/249
f 249/249/249 188/188/188 250/250/250
f 253/253/253 251/251/251 255/255/255
f 251/251/251 187/187/187 255/255/255
f 255/255/255 187/187/187 257/257/257
f 187/187/187 189/189/189 257/257/257
f 257/257/257 189/189/189 259/259/259
f 189/189/189 191/191/191 259/259/259
f 259/259/259 191/191/191 261/261/261
f 191/191/191 193/193/193 261/261/261
f 261/261/261 193/193/193 263/263/263
f 193/193/193 195/195/195 263/263/263
f 263/263/263 195/195/195 265/265/265
f 195/195/195 197/197/197 265/265/265
f 265/265/265 197/197/197 267/267/267
f 197/197/197 199/199/199 267/267/267
f 267/267/267 199/199/199 269/269/269
f 199/199/199 201/201/201 269/269/269
f 269/269/269 201/201/201 271/271/271
f 201/201/201 203/203/203 271/271/271
f 271/271/271 203/203/203 273/273/273
f 203/203/203 205/205/205 273/273/273
f 273/273/273 205/205/205 275/275/275
f 205/205/205 207/207/207 275/275/275
f 275/275/275 207/207/207 277/277/277
f 207/207/207 209/209/209 277/277/277
f 277/277/277 209/209/209 279/279/279
f 209/209/209 211/211/211 279/279/279
f 279/279/279 211/211/211 281/281/281
f 211/211/211 213/213/213 281/281/281
f 281/281/281 213/213/213 283/283/283
f 213/213/213 215/215/215 283/283/283
f 283/283/283 215/215/215 285/285/285
f 215/215/215 217/217/217 285/285/285
f 285/285/285 217/217/217 287/287/287
f 217/217/217 219/219/219 287/287/287
f 287/287/287 219/219/219 289/289/289
f 219/219/219 221/221/221 289/289/289
f 289/289/289 221/221/221 291/291/291
f 221/221/221 223/223/223 291/291/291
f 291/291/291 223/223/223 293/293/293
f 223/223/223 225/225/225 293/293/293
f 293/293/293 225/225/225 295/295/295
f 225/225/225 227/227/227 295/295/295
f 295/295/295 227/227/227 297/297/297
f 227/227/227 229/229/229 297/297/297
f 297/297/297 229/229/229 299/299/299
f 229/229/229 231/231/231 299/299/299
f 299/299/299 231/231/231 301/301/301
f 231/231/231 233/233/233 301/301/301
f 301/301/301 233/233/233 303/303/303
f 305/305/305 303/303/303 306/306/306
f 303/303/303 233/233/233 306/306/306
f 307/307/307 234/234/234 308/308/308
f 234/234/234 235/235/235 308/308/308
f 235/235/235 236/236/236 308/308/308
f 308/308/308 236/236/236 309/309/309
f 236/236/236 237/237/237 309/309/309
f 309/309/309 237/237/237 310/310/310
f 237/237/237 238/238/238 310/310/310
f 310/310/310 238/238/238 311/311/311
f 238/238/238 239/239/239 311/311/311
f 239/239/239 240/240/240 311/311/311
f 311/311/311 240/240/240 312/312/312
f 240/240/240 241/241/241 312/312/312
f 312/312/312 241/241/241 313/313/313
f 241/241/241 242/242/242 313/313/313
f 313/313/313 242/242/242 314/314/314
f 243/243/243 244/244/244 315/315/315
f 315/315/315 244/244/244 316/316/316
f 244/244/244 245/245/245 316/316/316
f 245/245/245 246/246/246 316/316/316
f 316/316/316 246/246/246 317/317/317
f 246/246/246 247/247/247 317/317/317
f 317/317/317 247/247/247 318/318/318
f 247/247/247 248/248/248 318/318/318
f 318/318/318 248/248/248 319/319/319
f 248/248/248 249/249/249 319/319/319
f 249/249/249 250/250/250 319/319/319
f 319/319/319 250/250/250 320/320/320
f 251/251/251 253/253/253 321/321/321
f 321/321/321 253/253/253 322/322/322
f 323/323/323 252/252/252 324/324/324
f 252/252/252 254/254/254 324/324/324
f 254/254/254 256/256/256 324/324/324
f 256/256/256 258/258/258 324/324/324
f 258/258/258 260/260/260 324/324/324
f 260/260/260 262/262/262 324/324/324
f 262/262/262 264/264/264 324/324/324
f 264/264/264 266/266/266 324/324/324
f 266/266/266 268/268/268 324/324/324
f 268/268/268 270/270/270 324/324/324
f 270/270/270 272/272/272 324/324/324
f 272/272/272 274/274/274 324/324/324
f 274/274/274 276/276/276 324/324/324
f 276/276/276 278/278/278 324/324/324
f 278/278/278 280/280/280 324/324/324
f 280/280/280 282/282/282 324/324/324
f 282/282/282 284/284/284 324/324/324
f 284/284/284 286/286/286 324/324/324
f 286/286/286 288/288/288 324/324/324
f 288/288/288 290/290/290 324/324/324
f 290/290/290 292/292/292 324/324/324
f 292/292/292 294/294/294 324/324/324
f 294/294/294 296/296/296 324/324/324
f 296/296/296 298/298/298 324/324/324
f 298/298/298 300/300/300 324/324/324
f 300/300/300 302/302/302 324/324/324
f 302/302/302 304/304/304 324/324/324
f 324/324/324 304/304/304 325/325/325
f 326/326/326 305/305/305 327/327/327
f 305/305/305 306/306/306 327/327/327
f 328/328/328 307/307/307 329/329/329
f 307/307/307 308/308/308 329/329/329
f 308/308/308 309/309/309 329/329/329
f 329/329/329 309/309/309 330/330/330
f 309/309/309 310/310/310 330/330/330
f 330/330/330 310/310/310 331/331/331
f 310/310/310 311/311/311 331/331/331
f 311/311/311 312/312/312 331/331/331
f 331/331/331 312/312/312 332/332/332
f 312/312/312 313/313/313 332/332/332
f 332/332/332 313/313/313 333/333/333
f 313/313/313 314/314/314 333/333/333
f 334/334/334 315/315/315 335/335/335
f 315/315/315 316/316/316 335/335/335
f 316/316/316 317/317/317 335/335/335
f 335/335/335 317/317/317 336/336/336
f 317/317/317 318/318/318 336/336/336
f 336/336/336 318/318/318 337/337/337
f 318/318/318 319/319/319 337/337/337
f 319/319/319 320/320/320 337/337/337
f 337/337/337 320/320/320 338/338/338
f 321/321/321 322/322/322 339/339/339
f 339/339/339 322/322/322 340/340/340
f 323/323/323 324/324/324 341/341/341
f 341/341/341 324/324/324 344/344/344
f 344/344/344 324/324/324 345/345/345
f 324/324/324 325/325/325 345/345/345
f 346/346/346 326/326/326 347/347/347
f 326/326/326 327/327/327 347/347/347
f 348/348/348 328/328/328 349/349/349
f 328/328/328 329/329/329 349/349/349
f 329/329/329 330/330/330 349/349/349
f 349/349/349 330/330/330 350/350/350
f 330/330/330 331/331/331 350/350/350
f 331/331/331 332/332/332 350/350/350
f 350/350/350 332/332/332 351/351/351
f 332/332/332 333/333/333 351/351/351
f 352/352/352 334/334/334 353/353/353
f 334/334/334 335/335/335 353/353/353
f 335/335/335 336/336/336 353/353/353
f 353/353/353 336/336/336 354/354/354
f 336/336/336 337/337/337 354/354/354
f 337/337/337 338/338/338 354/354/354
f 354/354/354 338/338/338 355/355/355
f 339/339/339 340/340/340 358/358/358
f 340/340/340 342/342/342 358/358/358
f 357/357/357 343/343/343 359/359/359
f 343/343/343 346/346/346 359/359/359
f 346/346/346 347/347/347 359/359/359
f 360/360/360 348/348/348 361/361/361
f 348/348/348 349/349/349 361/361/361
f 349/349/349 350/350/350 361/361/361
f 350/350/350 351/351/351 361/361/361
f 361/361/361 351/351/351 363/363/363
f 352/352/352 353/353/353 362/362/362
f 353/353/353 354/354/354 362/362/362
f 354/354/354 355/355/355 362/362/362
f 356/356/356 360/360/360 363/363/363
f 361/361/361 363/363/363 360/360/360

