mtllib material.mtl
usemtl Rubber_Black.001
v -0.03742600 -0.00690600 0.54137500
v -0.03742600 -0.00690600 0.54137500
v 0.00001000 -0.00690600 0.51636800
v -0.03180900 -0.00690600 0.54818700
v -0.03180900 -0.00690600 0.54818700
v -0.02499700 -0.00690600 0.55377400
v -0.02499700 -0.00690600 0.55377400
v -0.01722900 -0.00690600 0.55795700
v -0.01722900 -0.00690600 0.55795700
v -0.00877400 -0.00690600 0.56049700
v -0.00877400 -0.00690600 0.56049700
v 0.00001000 -0.00690600 0.56136300
v 0.00001000 -0.00690600 0.56136300
v 0.00879400 -0.00690600 0.56049700
v 0.00879400 -0.00690600 0.56049700
v 0.01721900 -0.00690600 0.55795700
v 0.01721900 -0.00690600 0.55795700
v 0.02498700 -0.00690600 0.55377400
v 0.02498700 -0.00690600 0.55377400
v 0.03182900 -0.00690600 0.54818700
v 0.03182900 -0.00690600 0.54818700
v 0.03741600 -0.00690600 0.54137500
v 0.03741600 -0.00690600 0.54137500
v 0.04156800 -0.00690600 0.53357700
v 0.04156800 -0.00690600 0.53357700
v 0.04413800 -0.00690600 0.52515200
v 0.04413800 -0.00690600 0.52515200
v 0.04500400 -0.00690600 0.51636800
v 0.04500400 -0.00690600 0.51636800
v 0.04413800 -0.00690600 0.50758500
v 0.04413800 -0.00690600 0.50758500
v 0.04156800 -0.00690600 0.49915900
v 0.04156800 -0.00690600 0.49915900
v 0.03741600 -0.00690600 0.49136100
v 0.03741600 -0.00690600 0.49136100
v 0.03182900 -0.00690600 0.48454900
v 0.03182900 -0.00690600 0.48454900
v 0.02498700 -0.00690600 0.47896200
v 0.02498700 -0.00690600 0.47896200
v 0.01721900 -0.00690600 0.47480900
v 0.01721900 -0.00690600 0.47480900
v 0.00879400 -0.00690600 0.47224000
v 0.00879400 -0.00690600 0.47224000
v 0.00001000 -0.00690600 0.47137400
v 0.00001000 -0.00690600 0.47137400
v 0.00001000 -0.00690600 0.47137400
v -0.00877400 -0.00690600 0.47224000
v -0.00877400 -0.00690600 0.47224000
v -0.01722900 -0.00690600 0.47480900
v -0.01722900 -0.00690600 0.47480900
v -0.02499700 -0.00690600 0.47896200
v -0.02499700 -0.00690600 0.47896200
v -0.03180900 -0.00690600 0.48454900
v -0.03180900 -0.00690600 0.48454900
v -0.03742600 -0.00690600 0.49136100
v -0.03742600 -0.00690600 0.49136100
v -0.04157900 -0.00690600 0.49915900
v -0.04157900 -0.00690600 0.49915900
v -0.04414800 -0.00690600 0.50758500
v -0.04414800 -0.00690600 0.50758500
v -0.04498500 -0.00690600 0.51636800
v -0.04498500 -0.00690600 0.51636800
v -0.04414800 -0.00690600 0.52515200
v -0.04414800 -0.00690600 0.52515200
v -0.04157900 -0.00690600 0.53357700
v -0.04157900 -0.00690600 0.53357700
v -0.03751600 0.00716600 0.54143500
v -0.03751600 0.00716600 0.54143500
v -0.03189900 0.00716600 0.54827700
v -0.03189900 0.00716600 0.54827700
v -0.02505700 0.00716600 0.55389400
v -0.02505700 0.00716600 0.55389400
v -0.01725900 0.00716600 0.55804700
v -0.01725900 0.00716600 0.55804700
v -0.00880400 0.00716600 0.56061600
v -0.00880400 0.00716600 0.56061600
v 0.00001000 0.00716600 0.56148200
v 0.00001000 0.00716600 0.56148200
v 0.00879400 0.00716600 0.56061600
v 0.00879400 0.00716600 0.56061600
v 0.01727900 0.00716600 0.55804700
v 0.01727900 0.00716600 0.55804700
v 0.02507600 0.00716600 0.55389400
v 0.02507600 0.00716600 0.55389400
v 0.03188800 0.00716600 0.54827700
v 0.03188800 0.00716600 0.54827700
v 0.03750500 0.00716600 0.54143500
v 0.03750500 0.00716600 0.54143500
v 0.04168800 0.00716600 0.53363700
v 0.04168800 0.00716600 0.53363700
v 0.04425700 0.00716600 0.52518200
v 0.04425700 0.00716600 0.52518200
v 0.04512400 0.00716600 0.51636800
v 0.04512400 0.00716600 0.51636800
v 0.04425700 0.00716600 0.50755500
v 0.04425700 0.00716600 0.50755500
v 0.04168800 0.00716600 0.49909900
v 0.04168800 0.00716600 0.49909900
v 0.03750500 0.00716600 0.49130200
v 0.03750500 0.00716600 0.49130200
v 0.03188800 0.00716600 0.48446000
v 0.03188800 0.00716600 0.48446000
v 0.02507600 0.00716600 0.47887300
v 0.02507600 0.00716600 0.47887300
v 0.01727900 0.00716600 0.47469000
v 0.01727900 0.00716600 0.47469000
v 0.00879400 0.00716600 0.47212000
v 0.00879400 0.00716600 0.47212000
v 0.00001000 0.00716600 0.47125400
v 0.00001000 0.00716600 0.47125400
v 0.00001000 0.00716600 0.47125400
v -0.00880400 0.00716600 0.47212000
v -0.00880400 0.00716600 0.47212000
v -0.01725900 0.00716600 0.47469000
v -0.01725900 0.00716600 0.47469000
v -0.02505700 0.00716600 0.47887300
v -0.02505700 0.00716600 0.47887300
v -0.03189900 0.00716600 0.48446000
v -0.03189900 0.00716600 0.48446000
v -0.03751600 0.00716600 0.49130200
v -0.03751600 0.00716600 0.49130200
v -0.04166900 0.00716600 0.49909900
v -0.04166900 0.00716600 0.49909900
v -0.04423800 0.00716600 0.50755500
v -0.04423800 0.00716600 0.50755500
v -0.04510400 0.00716600 0.51636800
v -0.04510400 0.00716600 0.51636800
v -0.04423800 0.00716600 0.52518200
v -0.04423800 0.00716600 0.52518200
v -0.04166900 0.00716600 0.53363700
v -0.04166900 0.00716600 0.53363700
v 0.00001000 0.00716600 0.51636800
v -0.01725900 -0.03717200 0.45452300
v -0.01725900 -0.03717200 0.45452300
v -0.02505700 -0.04135400 0.45452300
v -0.02505700 -0.04135400 0.45452300
v -0.01725900 -0.03717200 0.46620500
v -0.01725900 -0.03717200 0.46620500
v -0.02505700 -0.04135400 0.46620500
v -0.02505700 -0.04135400 0.46620500
v -0.03189900 -0.04694100 0.45452300
v -0.03189900 -0.04694100 0.45452300
v -0.03189900 -0.04694100 0.46620500
v -0.03189900 -0.04694100 0.46620500
v -0.03751600 -0.05378300 0.45452300
v -0.03751600 -0.05378300 0.45452300
v -0.03751600 -0.05378300 0.46620500
v -0.03751600 -0.05378300 0.46620500
v -0.04166900 -0.06158100 0.45452300
v -0.04166900 -0.06158100 0.45452300
v -0.04166900 -0.06158100 0.46620500
v -0.04166900 -0.06158100 0.46620500
v -0.04423800 -0.07006600 0.45452300
v -0.04423800 -0.07006600 0.45452300
v -0.04423800 -0.07006600 0.46620500
v -0.04423800 -0.07006600 0.46620500
v -0.04510400 -0.07885000 0.45452300
v -0.04510400 -0.07885000 0.45452300
v -0.04510400 -0.07885000 0.46620500
v -0.04510400 -0.07885000 0.46620500
v -0.04423800 -0.08766400 0.45452300
v -0.04423800 -0.08766400 0.45452300
v -0.04423800 -0.08766400 0.46620500
v -0.04423800 -0.08766400 0.46620500
v -0.04166900 -0.09611900 0.45452300
v -0.04166900 -0.09611900 0.45452300
v -0.04166900 -0.09611900 0.46620500
v -0.04166900 -0.09611900 0.46620500
v -0.03751600 -0.10391700 0.45452300
v -0.03751600 -0.10391700 0.45452300
v -0.03751600 -0.10391700 0.46620500
v -0.03751600 -0.10391700 0.46620500
v -0.03189900 -0.11075800 0.45452300
v -0.03189900 -0.11075800 0.45452300
v -0.03189900 -0.11075800 0.46620500
v -0.03189900 -0.11075800 0.46620500
v -0.02505700 -0.11637500 0.45452300
v -0.02505700 -0.11637500 0.45452300
v -0.02505700 -0.11637500 0.46620500
v -0.02505700 -0.11637500 0.46620500
v -0.01725900 -0.12052800 0.45452300
v -0.01725900 -0.12052800 0.45452300
v -0.01725900 -0.12052800 0.46620500
v -0.01725900 -0.12052800 0.46620500
v -0.00880400 -0.12309800 0.45452300
v -0.00880400 -0.12309800 0.45452300
v -0.00880400 -0.12309800 0.46620500
v -0.00880400 -0.12309800 0.46620500
v 0.00001000 -0.12396400 0.45452300
v 0.00001000 -0.12396400 0.45452300
v 0.00001000 -0.12396400 0.46620500
v 0.00001000 -0.12396400 0.46620500
v 0.00879400 -0.12309800 0.45452300
v 0.00879400 -0.12309800 0.45452300
v 0.00879400 -0.12309800 0.46620500
v 0.00879400 -0.12309800 0.46620500
v 0.01727900 -0.12052800 0.45452300
v 0.01727900 -0.12052800 0.45452300
v 0.01727900 -0.12052800 0.46620500
v 0.01727900 -0.12052800 0.46620500
v 0.02507600 -0.11637500 0.45452300
v 0.02507600 -0.11637500 0.45452300
v 0.02507600 -0.11637500 0.46620500
v 0.02507600 -0.11637500 0.46620500
v 0.03188800 -0.11075800 0.45452300
v 0.03188800 -0.11075800 0.45452300
v 0.03188800 -0.11075800 0.46620500
v 0.03188800 -0.11075800 0.46620500
v 0.03750500 -0.10391700 0.45452300
v 0.03750500 -0.10391700 0.45452300
v 0.03750500 -0.10391700 0.46620500
v 0.03750500 -0.10391700 0.46620500
v 0.04168800 -0.09611900 0.45452300
v 0.04168800 -0.09611900 0.45452300
v 0.04168800 -0.09611900 0.46620500
v 0.04168800 -0.09611900 0.46620500
v 0.04425700 -0.08766400 0.45452300
v 0.04425700 -0.08766400 0.45452300
v 0.04425700 -0.08766400 0.46620500
v 0.04425700 -0.08766400 0.46620500
v 0.04512400 -0.07885000 0.45452300
v 0.04512400 -0.07885000 0.45452300
v 0.04512400 -0.07885000 0.46620500
v 0.04512400 -0.07885000 0.46620500
v 0.04425700 -0.07006600 0.45452300
v 0.04425700 -0.07006600 0.45452300
v 0.04425700 -0.07006600 0.46620500
v 0.04425700 -0.07006600 0.46620500
v 0.04168800 -0.06158100 0.45452300
v 0.04168800 -0.06158100 0.45452300
v 0.04168800 -0.06158100 0.46620500
v 0.04168800 -0.06158100 0.46620500
v 0.03750500 -0.05378300 0.45452300
v 0.03750500 -0.05378300 0.45452300
v 0.03750500 -0.05378300 0.46620500
v 0.03750500 -0.05378300 0.46620500
v 0.03188800 -0.04694100 0.45452300
v 0.03188800 -0.04694100 0.45452300
v 0.03188800 -0.04694100 0.46620500
v 0.03188800 -0.04694100 0.46620500
v 0.02507600 -0.04135400 0.45452300
v 0.02507600 -0.04135400 0.45452300
v 0.02507600 -0.04135400 0.46620500
v 0.02507600 -0.04135400 0.46620500
v 0.01727900 -0.03717200 0.45452300
v 0.01727900 -0.03717200 0.45452300
v 0.00001000 -0.07885000 0.45452300
v -0.00880400 -0.03460200 0.45452300
v -0.00880400 -0.03460200 0.45452300
v -0.00880400 -0.03460200 0.46620500
v -0.00880400 -0.03460200 0.46620500
v 0.00001000 -0.07885000 0.46620500
v 0.01727900 -0.03717200 0.46620500
v 0.01727900 -0.03717200 0.46620500
v 0.00879400 -0.03460200 0.45452300
v 0.00879400 -0.03460200 0.45452300
v 0.00001000 -0.03373600 0.45452300
v 0.00001000 -0.03373600 0.45452300
v 0.00001000 -0.03373600 0.45452300
v 0.00001000 -0.03373600 0.46620500
v 0.00001000 -0.03373600 0.46620500
v 0.00001000 -0.03373600 0.46620500
v 0.00879400 -0.03460200 0.46620500
v 0.00879400 -0.03460200 0.46620500
v -0.02305500 -0.02327900 0.08796300
v -0.02305500 -0.02327900 0.08796300
v -0.02305500 -0.02327900 0.07200900
v -0.02305500 -0.02327900 0.07200900
v -0.03348200 -0.02883600 0.08796300
v -0.03348200 -0.02883600 0.08796300
v -0.03348200 -0.02883600 0.07200900
v -0.03348200 -0.02883600 0.07200900
v -0.04259500 -0.03633500 0.08796300
v -0.04259500 -0.03633500 0.08796300
v -0.04259500 -0.03633500 0.07200900
v -0.04259500 -0.03633500 0.07200900
v -0.05009400 -0.04544700 0.08796300
v -0.05009400 -0.04544700 0.08796300
v -0.05009400 -0.04544700 0.07200900
v -0.05009400 -0.04544700 0.07200900
v -0.05565100 -0.05587500 0.08796300
v -0.05565100 -0.05587500 0.08796300
v -0.05565100 -0.05587500 0.07200900
v -0.05565100 -0.05587500 0.07200900
v -0.05908700 -0.06716800 0.08796300
v -0.05908700 -0.06716800 0.08796300
v -0.05908700 -0.06716800 0.07200900
v -0.05908700 -0.06716800 0.07200900
v -0.06025200 -0.07893900 0.08796300
v -0.06025200 -0.07893900 0.08796300
v -0.06025200 -0.07893900 0.07200900
v -0.06025200 -0.07893900 0.07200900
v -0.05908700 -0.09068100 0.08796300
v -0.05908700 -0.09068100 0.08796300
v -0.05908700 -0.09068100 0.07200900
v -0.05908700 -0.09068100 0.07200900
v -0.05565100 -0.10197500 0.08796300
v -0.05565100 -0.10197500 0.08796300
v -0.05565100 -0.10197500 0.07200900
v -0.05565100 -0.10197500 0.07200900
v -0.05009400 -0.11240200 0.08796300
v -0.05009400 -0.11240200 0.08796300
v -0.05009400 -0.11240200 0.07200900
v -0.05009400 -0.11240200 0.07200900
v -0.04259500 -0.12151400 0.08796300
v -0.04259500 -0.12151400 0.08796300
v -0.04259500 -0.12151400 0.07200900
v -0.04259500 -0.12151400 0.07200900
v -0.03348200 -0.12901300 0.08796300
v -0.03348200 -0.12901300 0.08796300
v -0.03348200 -0.12901300 0.07200900
v -0.03348200 -0.12901300 0.07200900
v -0.02305500 -0.13460000 0.08796300
v -0.02305500 -0.13460000 0.08796300
v -0.02305500 -0.13460000 0.07200900
v -0.02305500 -0.13460000 0.07200900
v -0.01176200 -0.13800600 0.08796300
v -0.01176200 -0.13800600 0.08796300
v -0.01176200 -0.13800600 0.07200900
v -0.01176200 -0.13800600 0.07200900
v 0.00001000 -0.13917100 0.08796300
v 0.00001000 -0.13917100 0.08796300
v 0.00001000 -0.13917100 0.07200900
v 0.00001000 -0.13917100 0.07200900
v 0.01175100 -0.13800600 0.08796300
v 0.01175100 -0.13800600 0.08796300
v 0.01175100 -0.13800600 0.07200900
v 0.01175100 -0.13800600 0.07200900
v 0.02304500 -0.13460000 0.08796300
v 0.02304500 -0.13460000 0.08796300
v 0.02304500 -0.13460000 0.07200900
v 0.02304500 -0.13460000 0.07200900
v 0.03347200 -0.12901300 0.08796300
v 0.03347200 -0.12901300 0.08796300
v 0.03347200 -0.12901300 0.07200900
v 0.03347200 -0.12901300 0.07200900
v 0.04258400 -0.12151400 0.08796300
v 0.04258400 -0.12151400 0.08796300
v 0.04258400 -0.12151400 0.07200900
v 0.04258400 -0.12151400 0.07200900
v 0.05008300 -0.11240200 0.08796300
v 0.05008300 -0.11240200 0.08796300
v 0.05008300 -0.11240200 0.07200900
v 0.05008300 -0.11240200 0.07200900
v 0.05567000 -0.10197500 0.08796300
v 0.05567000 -0.10197500 0.08796300
v 0.05567000 -0.10197500 0.07200900
v 0.05567000 -0.10197500 0.07200900
v 0.05907600 -0.09068100 0.08796300
v 0.05907600 -0.09068100 0.08796300
v 0.05907600 -0.09068100 0.07200900
v 0.05907600 -0.09068100 0.07200900
v 0.06024200 -0.07893900 0.08796300
v 0.06024200 -0.07893900 0.08796300
v 0.06024200 -0.07893900 0.07200900
v 0.06024200 -0.07893900 0.07200900
v 0.05907600 -0.06716800 0.08796300
v 0.05907600 -0.06716800 0.08796300
v 0.05907600 -0.06716800 0.07200900
v 0.05907600 -0.06716800 0.07200900
v 0.05567000 -0.05587500 0.08796300
v 0.05567000 -0.05587500 0.08796300
v 0.05567000 -0.05587500 0.07200900
v 0.05567000 -0.05587500 0.07200900
v 0.05008300 -0.04544700 0.08796300
v 0.05008300 -0.04544700 0.08796300
v 0.05008300 -0.04544700 0.07200900
v 0.05008300 -0.04544700 0.07200900
v 0.04258400 -0.03633500 0.08796300
v 0.04258400 -0.03633500 0.08796300
v 0.04258400 -0.03633500 0.07200900
v 0.04258400 -0.03633500 0.07200900
v 0.03347200 -0.02883600 0.08796300
v 0.03347200 -0.02883600 0.08796300
v 0.03347200 -0.02883600 0.07200900
v 0.03347200 -0.02883600 0.07200900
v 0.02304500 -0.02327900 0.08796300
v 0.02304500 -0.02327900 0.08796300
v 0.02304500 -0.02327900 0.07200900
v 0.02304500 -0.02327900 0.07200900
v 0.00001000 -0.07893900 0.07200900
v -0.01176200 -0.01984300 0.07200900
v -0.01176200 -0.01984300 0.07200900
v -0.01176200 -0.01984300 0.08796300
v -0.01176200 -0.01984300 0.08796300
v 0.00001000 -0.07893900 0.08796300
v 0.01175100 -0.01984300 0.08796300
v 0.01175100 -0.01984300 0.08796300
v 0.01175100 -0.01984300 0.07200900
v 0.01175100 -0.01984300 0.07200900
v 0.00001000 -0.01867800 0.07200900
v 0.00001000 -0.01867800 0.07200900
v 0.00001000 -0.01867800 0.07200900
v 0.00001000 -0.01867800 0.08796300
v 0.00001000 -0.01867800 0.08796300
v 0.00001000 -0.01867800 0.08796300
vn -0.83140000 -0.00810000 0.55560000
vn -0.00000000 -1.00000000 -0.00000000
vn -0.00000000 -1.00000000 -0.00000000
vn -0.70620000 -0.00910000 0.70790000
vn -0.00000000 -1.00000000 -0.00000000
vn -0.55610000 -0.00850000 0.83110000
vn -0.00000000 -1.00000000 -0.00000000
vn -0.38340000 -0.00740000 0.92360000
vn -0.00000000 -1.00000000 -0.00000000
vn -0.19370000 -0.00870000 0.98100000
vn -0.00000000 -1.00000000 -0.00000000
vn -0.00000000 -0.00850000 1.00000000
vn -0.00000000 -1.00000000 -0.00000000
vn 0.19460000 -0.00810000 0.98080000
vn -0.00000000 -1.00000000 -0.00000000
vn 0.38240000 -0.00840000 0.92390000
vn -0.00000000 -1.00000000 -0.00000000
vn 0.55650000 -0.00960000 0.83080000
vn -0.00000000 -1.00000000 -0.00000000
vn 0.70630000 -0.00760000 0.70780000
vn -0.00000000 -1.00000000 -0.00000000
vn 0.83170000 -0.00830000 0.55520000
vn -0.00000000 -1.00000000 -0.00000000
vn 0.92390000 -0.00930000 0.38250000
vn -0.00000000 -1.00000000 -0.00000000
vn 0.98060000 -0.00870000 0.19580000
vn -0.00000000 -1.00000000 -0.00000000
vn 1.00000000 -0.00860000 0.00010000
vn -0.00000000 -1.00000000 -0.00000000
vn 0.98060000 -0.00890000 -0.19570000
vn -0.00000000 -1.00000000 -0.00000000
vn 0.92370000 -0.00890000 -0.38310000
vn -0.00000000 -1.00000000 -0.00000000
vn 0.83190000 -0.00760000 -0.55490000
vn -0.00000000 -1.00000000 -0.00000000
vn 0.70670000 -0.00790000 -0.70750000
vn -0.00000000 -1.00000000 -0.00000000
vn 0.55470000 -0.00910000 -0.83200000
vn -0.00000000 -1.00000000 -0.00000000
vn 0.38300000 -0.00910000 -0.92370000
vn -0.00000000 -1.00000000 -0.00000000
vn 0.19600000 -0.00830000 -0.98060000
vn -0.00000000 -1.00000000 -0.00000000
vn 0.09810000 -0.00850000 -0.99510000
vn -0.09800000 -0.00860000 -0.99510000
vn -0.00000000 -1.00000000 -0.00000000
vn -0.19540000 -0.00870000 -0.98070000
vn -0.00000000 -1.00000000 -0.00000000
vn -0.38320000 -0.00840000 -0.92360000
vn -0.00000000 -1.00000000 -0.00000000
vn -0.55510000 -0.00810000 -0.83170000
vn -0.00000000 -1.00000000 -0.00000000
vn -0.70640000 -0.00860000 -0.70770000
vn -0.00000000 -1.00000000 -0.00000000
vn -0.83120000 -0.00770000 -0.55590000
vn -0.00000000 -1.00000000 -0.00000000
vn -0.92400000 -0.00730000 -0.38240000
vn -0.00000000 -1.00000000 -0.00000000
vn -0.98080000 -0.00730000 -0.19470000
vn -0.00000000 -1.00000000 -0.00000000
vn -1.00000000 -0.00790000 0.00050000
vn -0.00000000 -1.00000000 -0.00000000
vn -0.98100000 -0.00690000 0.19400000
vn -0.00000000 -1.00000000 -0.00000000
vn -0.00000000 -1.00000000 -0.00000000
vn -0.92390000 -0.00750000 0.38260000
vn -0.00000000 1.00000000 -0.00000000
vn -0.83180000 -0.00770000 0.55500000
vn -0.00000000 1.00000000 -0.00000000
vn -0.70680000 -0.00860000 0.70730000
vn -0.00000000 1.00000000 -0.00000000
vn -0.55490000 -0.00930000 0.83190000
vn -0.00000000 1.00000000 -0.00000000
vn -0.38290000 -0.00760000 0.92370000
vn -0.00000000 1.00000000 -0.00000000
vn -0.19470000 -0.00810000 0.98080000
vn -0.00000000 1.00000000 -0.00000000
vn 0.00010000 -0.00860000 1.00000000
vn -0.00000000 1.00000000 -0.00000000
vn 0.19480000 -0.00830000 0.98080000
vn -0.00000000 1.00000000 -0.00000000
vn 0.38160000 -0.00780000 0.92430000
vn -0.00000000 1.00000000 -0.00000000
vn 0.55660000 -0.00970000 0.83070000
vn -0.00000000 1.00000000 -0.00000000
vn 0.70720000 -0.00850000 0.70700000
vn -0.00000000 1.00000000 -0.00000000
vn 0.83100000 -0.00760000 0.55620000
vn -0.00000000 1.00000000 -0.00000000
vn 0.92370000 -0.00890000 0.38310000
vn -0.00000000 1.00000000 -0.00000000
vn 0.98070000 -0.00890000 0.19540000
vn -0.00000000 1.00000000 -0.00000000
vn 1.00000000 -0.00860000 0.00010000
vn -0.00000000 1.00000000 -0.00000000
vn 0.98070000 -0.00870000 -0.19530000
vn -0.00000000 1.00000000 -0.00000000
vn 0.92340000 -0.00930000 -0.38380000
vn -0.00000000 1.00000000 -0.00000000
vn 0.83130000 -0.00830000 -0.55580000
vn -0.00000000 1.00000000 -0.00000000
vn 0.70690000 -0.00760000 -0.70730000
vn -0.00000000 1.00000000 -0.00000000
vn 0.55580000 -0.00840000 -0.83130000
vn -0.00000000 1.00000000 -0.00000000
vn 0.38290000 -0.00920000 -0.92370000
vn -0.00000000 1.00000000 -0.00000000
vn 0.19520000 -0.00870000 -0.98070000
vn -0.00000000 1.00000000 -0.00000000
vn -0.09780000 -0.00850000 -0.99520000
vn 0.09820000 -0.00850000 -0.99510000
vn -0.00000000 1.00000000 -0.00000000
vn -0.19530000 -0.00870000 -0.98070000
vn -0.00000000 1.00000000 -0.00000000
vn -0.38350000 -0.00870000 -0.92350000
vn -0.00000000 1.00000000 -0.00000000
vn -0.55490000 -0.00790000 -0.83190000
vn -0.00000000 1.00000000 -0.00000000
vn -0.70640000 -0.00860000 -0.70770000
vn -0.00000000 1.00000000 -0.00000000
vn -0.83160000 -0.00810000 -0.55530000
vn -0.00000000 1.00000000 -0.00000000
vn -0.92400000 -0.00750000 -0.38230000
vn -0.00000000 1.00000000 -0.00000000
vn -0.98070000 -0.00690000 -0.19550000
vn -0.00000000 1.00000000 -0.00000000
vn -1.00000000 -0.00790000 0.00050000
vn -0.00000000 1.00000000 -0.00000000
vn -0.98080000 -0.00730000 0.19480000
vn -0.92390000 -0.00730000 0.38240000
vn -0.00000000 1.00000000 -0.00000000
vn -0.00000000 1.00000000 -0.00000000
vn -0.00000000 -0.00000000 -1.00000000
vn -0.38360000 0.92350000 -0.00000000
vn -0.00000000 -0.00000000 -1.00000000
vn -0.55520000 0.83170000 -0.00000000
vn -0.00000000 -0.00000000 1.00000000
vn -0.38360000 0.92350000 -0.00000000
vn -0.00000000 -0.00000000 1.00000000
vn -0.55520000 0.83170000 -0.00000000
vn -0.00000000 -0.00000000 -1.00000000
vn -0.70620000 0.70800000 -0.00000000
vn -0.00000000 -0.00000000 1.00000000
vn -0.70620000 0.70800000 -0.00000000
vn -0.00000000 -0.00000000 -1.00000000
vn -0.83180000 0.55500000 -0.00000000
vn -0.00000000 -0.00000000 1.00000000
vn -0.83180000 0.55500000 -0.00000000
vn -0.00000000 -0.00000000 -1.00000000
vn -0.92430000 0.38180000 -0.00000000
vn -0.00000000 -0.00000000 1.00000000
vn -0.92430000 0.38180000 -0.00000000
vn -0.00000000 -0.00000000 -1.00000000
vn -0.98080000 0.19490000 -0.00000000
vn -0.00000000 -0.00000000 1.00000000
vn -0.98080000 0.19490000 -0.00000000
vn -0.00000000 -0.00000000 -1.00000000
vn -1.00000000 0.00020000 -0.00000000
vn -0.00000000 -0.00000000 1.00000000
vn -1.00000000 0.00020000 -0.00000000
vn -0.00000000 -0.00000000 -1.00000000
vn -0.98080000 -0.19520000 -0.00000000
vn -0.00000000 -0.00000000 1.00000000
vn -0.98080000 -0.19520000 -0.00000000
vn -0.00000000 -0.00000000 -1.00000000
vn -0.92410000 -0.38220000 -0.00000000
vn -0.00000000 -0.00000000 1.00000000
vn -0.92410000 -0.38220000 -0.00000000
vn -0.00000000 -0.00000000 -1.00000000
vn -0.83180000 -0.55500000 -0.00000000
vn -0.00000000 -0.00000000 1.00000000
vn -0.83180000 -0.55500000 -0.00000000
vn -0.00000000 -0.00000000 -1.00000000
vn -0.70710000 -0.70710000 -0.00000000
vn -0.00000000 -0.00000000 1.00000000
vn -0.70710000 -0.70710000 -0.00000000
vn -0.00000000 -0.00000000 -1.00000000
vn -0.55500000 -0.83180000 -0.00000000
vn -0.00000000 -0.00000000 1.00000000
vn -0.55500000 -0.83180000 -0.00000000
vn -0.00000000 -0.00000000 -1.00000000
vn -0.38220000 -0.92410000 -0.00000000
vn -0.00000000 -0.00000000 1.00000000
vn -0.38220000 -0.92410000 -0.00000000
vn -0.00000000 -0.00000000 -1.00000000
vn -0.19520000 -0.98080000 -0.00000000
vn -0.00000000 -0.00000000 1.00000000
vn -0.19520000 -0.98080000 -0.00000000
vn -0.00000000 -0.00000000 -1.00000000
vn 0.00020000 -1.00000000 -0.00000000
vn -0.00000000 -0.00000000 1.00000000
vn 0.00020000 -1.00000000 -0.00000000
vn -0.00000000 -0.00000000 -1.00000000
vn 0.19490000 -0.98080000 -0.00000000
vn -0.00000000 -0.00000000 1.00000000
vn 0.19490000 -0.98080000 -0.00000000
vn -0.00000000 -0.00000000 -1.00000000
vn 0.38180000 -0.92430000 -0.00000000
vn -0.00000000 -0.00000000 1.00000000
vn 0.38180000 -0.92430000 -0.00000000
vn -0.00000000 -0.00000000 -1.00000000
vn 0.55590000 -0.83120000 -0.00000000
vn -0.00000000 -0.00000000 1.00000000
vn 0.55590000 -0.83120000 -0.00000000
vn -0.00000000 -0.00000000 -1.00000000
vn 0.70790000 -0.70630000 -0.00000000
vn -0.00000000 -0.00000000 1.00000000
vn 0.70790000 -0.70630000 -0.00000000
vn -0.00000000 -0.00000000 -1.00000000
vn 0.83100000 -0.55620000 -0.00000000
vn -0.00000000 -0.00000000 1.00000000
vn 0.83100000 -0.55620000 -0.00000000
vn -0.00000000 -0.00000000 -1.00000000
vn 0.92350000 -0.38360000 -0.00000000
vn -0.00000000 -0.00000000 1.00000000
vn 0.92350000 -0.38360000 -0.00000000
vn -0.00000000 -0.00000000 -1.00000000
vn 0.98080000 -0.19520000 -0.00000000
vn -0.00000000 -0.00000000 1.00000000
vn 0.98080000 -0.19520000 -0.00000000
vn -0.00000000 -0.00000000 -1.00000000
vn 1.00000000 0.00020000 -0.00000000
vn -0.00000000 -0.00000000 1.00000000
vn 1.00000000 0.00020000 -0.00000000
vn -0.00000000 -0.00000000 -1.00000000
vn 0.98080000 0.19490000 -0.00000000
vn -0.00000000 -0.00000000 1.00000000
vn 0.98080000 0.19490000 -0.00000000
vn -0.00000000 -0.00000000 -1.00000000
vn 0.92370000 0.38310000 -0.00000000
vn -0.00000000 -0.00000000 1.00000000
vn 0.92370000 0.38310000 -0.00000000
vn -0.00000000 -0.00000000 -1.00000000
vn 0.83100000 0.55620000 -0.00000000
vn -0.00000000 -0.00000000 1.00000000
vn 0.83100000 0.55620000 -0.00000000
vn -0.00000000 -0.00000000 -1.00000000
vn 0.70690000 0.70730000 -0.00000000
vn -0.00000000 -0.00000000 1.00000000
vn 0.70690000 0.70730000 -0.00000000
vn -0.00000000 -0.00000000 -1.00000000
vn 0.55610000 0.83110000 -0.00000000
vn -0.00000000 -0.00000000 1.00000000
vn 0.55610000 0.83110000 -0.00000000
vn 0.38310000 0.92370000 -0.00000000
vn -0.00000000 -0.00000000 -1.00000000
vn -0.00000000 -0.00000000 -1.00000000
vn -0.00000000 -0.00000000 -1.00000000
vn -0.19520000 0.98080000 -0.00000000
vn -0.19520000 0.98080000 -0.00000000
vn -0.00000000 -0.00000000 1.00000000
vn -0.00000000 -0.00000000 1.00000000
vn -0.00000000 -0.00000000 1.00000000
vn 0.38310000 0.92370000 -0.00000000
vn 0.19490000 0.98080000 -0.00000000
vn -0.00000000 -0.00000000 -1.00000000
vn -0.00000000 -0.00000000 -1.00000000
vn 0.09820000 0.99520000 -0.00000000
vn -0.09780000 0.99520000 -0.00000000
vn -0.09780000 0.99520000 -0.00000000
vn 0.09820000 0.99520000 -0.00000000
vn -0.00000000 -0.00000000 1.00000000
vn -0.00000000 -0.00000000 1.00000000
vn 0.19490000 0.98080000 -0.00000000
vn -0.00000000 -0.00000000 1.00000000
vn -0.38250000 0.92400000 -0.00000000
vn -0.00000000 -0.00000000 -1.00000000
vn -0.38250000 0.92400000 -0.00000000
vn -0.00000000 -0.00000000 1.00000000
vn -0.55560000 0.83140000 -0.00000000
vn -0.00000000 -0.00000000 -1.00000000
vn -0.55560000 0.83140000 -0.00000000
vn -0.00000000 -0.00000000 1.00000000
vn -0.70710000 0.70710000 -0.00000000
vn -0.00000000 -0.00000000 -1.00000000
vn -0.70710000 0.70710000 -0.00000000
vn -0.00000000 -0.00000000 1.00000000
vn -0.83140000 0.55560000 -0.00000000
vn -0.00000000 -0.00000000 -1.00000000
vn -0.83140000 0.55560000 -0.00000000
vn -0.00000000 -0.00000000 1.00000000
vn -0.92400000 0.38250000 -0.00000000
vn -0.00000000 -0.00000000 -1.00000000
vn -0.92400000 0.38250000 -0.00000000
vn -0.00000000 -0.00000000 1.00000000
vn -0.98070000 0.19570000 -0.00000000
vn -0.00000000 -0.00000000 -1.00000000
vn -0.98070000 0.19570000 -0.00000000
vn -0.00000000 -0.00000000 1.00000000
vn -1.00000000 -0.00010000 -0.00000000
vn -0.00000000 -0.00000000 -1.00000000
vn -1.00000000 -0.00010000 -0.00000000
vn -0.00000000 -0.00000000 1.00000000
vn -0.98060000 -0.19590000 -0.00000000
vn -0.00000000 -0.00000000 -1.00000000
vn -0.98060000 -0.19590000 -0.00000000
vn -0.00000000 -0.00000000 1.00000000
vn -0.92400000 -0.38250000 -0.00000000
vn -0.00000000 -0.00000000 -1.00000000
vn -0.92400000 -0.38250000 -0.00000000
vn -0.00000000 -0.00000000 1.00000000
vn -0.83140000 -0.55560000 -0.00000000
vn -0.00000000 -0.00000000 -1.00000000
vn -0.83140000 -0.55560000 -0.00000000
vn -0.00000000 -0.00000000 1.00000000
vn -0.70710000 -0.70710000 -0.00000000
vn -0.00000000 -0.00000000 -1.00000000
vn -0.70710000 -0.70710000 -0.00000000
vn -0.00000000 -0.00000000 1.00000000
vn -0.55660000 -0.83080000 -0.00000000
vn -0.00000000 -0.00000000 -1.00000000
vn -0.55660000 -0.83080000 -0.00000000
vn -0.00000000 -0.00000000 1.00000000
vn -0.38240000 -0.92400000 -0.00000000
vn -0.00000000 -0.00000000 -1.00000000
vn -0.38240000 -0.92400000 -0.00000000
vn -0.00000000 -0.00000000 1.00000000
vn -0.19450000 -0.98090000 -0.00000000
vn -0.00000000 -0.00000000 -1.00000000
vn -0.19450000 -0.98090000 -0.00000000
vn -0.00000000 -0.00000000 1.00000000
vn 0.00010000 -1.00000000 -0.00000000
vn -0.00000000 -0.00000000 -1.00000000
vn 0.00010000 -1.00000000 -0.00000000
vn -0.00000000 -0.00000000 1.00000000
vn 0.19470000 -0.98090000 -0.00000000
vn -0.00000000 -0.00000000 -1.00000000
vn 0.19470000 -0.98090000 -0.00000000
vn -0.00000000 -0.00000000 1.00000000
vn 0.38240000 -0.92400000 -0.00000000
vn -0.00000000 -0.00000000 -1.00000000
vn 0.38240000 -0.92400000 -0.00000000
vn -0.00000000 -0.00000000 1.00000000
vn 0.55660000 -0.83080000 -0.00000000
vn -0.00000000 -0.00000000 -1.00000000
vn 0.55660000 -0.83080000 -0.00000000
vn -0.00000000 -0.00000000 1.00000000
vn 0.70710000 -0.70710000 -0.00000000
vn -0.00000000 -0.00000000 -1.00000000
vn 0.70710000 -0.70710000 -0.00000000
vn -0.00000000 -0.00000000 1.00000000
vn 0.83080000 -0.55660000 -0.00000000
vn -0.00000000 -0.00000000 -1.00000000
vn 0.83080000 -0.55660000 -0.00000000
vn -0.00000000 -0.00000000 1.00000000
vn 0.92400000 -0.38240000 -0.00000000
vn -0.00000000 -0.00000000 -1.00000000
vn 0.92400000 -0.38240000 -0.00000000
vn -0.00000000 -0.00000000 1.00000000
vn 0.98090000 -0.19470000 -0.00000000
vn -0.00000000 -0.00000000 -1.00000000
vn 0.98090000 -0.19470000 -0.00000000
vn -0.00000000 -0.00000000 1.00000000
vn 1.00000000 -0.00010000 -0.00000000
vn -0.00000000 -0.00000000 -1.00000000
vn 1.00000000 -0.00010000 -0.00000000
vn -0.00000000 -0.00000000 1.00000000
vn 0.98090000 0.19450000 -0.00000000
vn -0.00000000 -0.00000000 -1.00000000
vn 0.98090000 0.19450000 -0.00000000
vn -0.00000000 -0.00000000 1.00000000
vn 0.92400000 0.38240000 -0.00000000
vn -0.00000000 -0.00000000 -1.00000000
vn 0.92400000 0.38240000 -0.00000000
vn -0.00000000 -0.00000000 1.00000000
vn 0.83080000 0.55660000 -0.00000000
vn -0.00000000 -0.00000000 -1.00000000
vn 0.83080000 0.55660000 -0.00000000
vn -0.00000000 -0.00000000 1.00000000
vn 0.70710000 0.70710000 -0.00000000
vn -0.00000000 -0.00000000 -1.00000000
vn 0.70710000 0.70710000 -0.00000000
vn -0.00000000 -0.00000000 1.00000000
vn 0.55560000 0.83140000 -0.00000000
vn -0.00000000 -0.00000000 -1.00000000
vn 0.55560000 0.83140000 -0.00000000
vn -0.00000000 -0.00000000 1.00000000
vn 0.38250000 0.92400000 -0.00000000
vn 0.38250000 0.92400000 -0.00000000
vn -0.00000000 -0.00000000 -1.00000000
vn -0.00000000 -0.00000000 -1.00000000
vn -0.00000000 -0.00000000 -1.00000000
vn -0.19570000 0.98070000 -0.00000000
vn -0.19570000 0.98070000 -0.00000000
vn -0.00000000 -0.00000000 1.00000000
vn -0.00000000 -0.00000000 1.00000000
vn -0.00000000 -0.00000000 1.00000000
vn 0.19590000 0.98060000 -0.00000000
vn 0.19590000 0.98060000 -0.00000000
vn -0.00000000 -0.00000000 -1.00000000
vn -0.00000000 -0.00000000 -1.00000000
vn 0.09880000 0.99510000 -0.00000000
vn -0.09850000 0.99510000 -0.00000000
vn -0.00000000 -0.00000000 1.00000000
vn -0.09850000 0.99510000 -0.00000000
vn 0.09880000 0.99510000 -0.00000000
vt 0.66391700 0.57421800
vt 0.99443000 0.50179800
vt 0.96645800 0.48684800
vt 0.66391700 0.56802900
vt 0.99684100 0.49609100
vt 0.66391700 0.56184000
vt 0.99804700 0.48998200
vt 0.66391700 0.55557000
vt 0.99804700 0.48379300
vt 0.66391700 0.54938100
vt 0.99684100 0.47768400
vt 0.66391700 0.54311200
vt 0.99443000 0.47197800
vt 0.66391700 0.53692300
vt 0.99097400 0.46675300
vt 0.66391700 0.53073400
vt 0.98663300 0.46241300
vt 0.66391700 0.52446400
vt 0.98140900 0.45895600
vt 0.66391700 0.51827500
vt 0.97570200 0.45654500
vt 0.66391700 0.51200600
vt 0.96959300 0.45533900
vt 0.66391700 0.50581700
vt 0.96340400 0.45533900
vt 0.66391700 0.49954700
vt 0.95729500 0.45654500
vt 0.66391700 0.49335800
vt 0.95158900 0.45895600
vt 0.66391700 0.48716900
vt 0.94636400 0.46241300
vt 0.66391700 0.48090000
vt 0.94202400 0.46675300
vt 0.66391700 0.47471000
vt 0.93856700 0.47197800
vt 0.66391700 0.46844100
vt 0.93615600 0.47768400
vt 0.66391700 0.46225200
vt 0.93495000 0.48379300
vt 0.66391700 0.45606300
vt 0.93495000 0.48998200
vt 0.66391700 0.44979300
vt 0.93615600 0.49609100
vt 0.66391700 0.44360400
vt 0.66391700 0.64270000
vt 0.93856700 0.50179800
vt 0.66391700 0.63651100
vt 0.94202400 0.50702200
vt 0.66391700 0.63024100
vt 0.94636400 0.51136300
vt 0.66391700 0.62405200
vt 0.95158900 0.51481900
vt 0.66391700 0.61778300
vt 0.95729500 0.51723000
vt 0.66391700 0.61159400
vt 0.96340400 0.51843600
vt 0.66391700 0.60532400
vt 0.96959300 0.51843600
vt 0.66391700 0.59913500
vt 0.97570200 0.51723000
vt 0.66391700 0.59294600
vt 0.98140900 0.51481900
vt 0.66391700 0.58667700
vt 0.98663300 0.51136300
vt 0.99097400 0.50702200
vt 0.66391700 0.58048800
vt 0.89870000 0.69856300
vt 0.67380300 0.57421800
vt 0.89749400 0.69245400
vt 0.67380300 0.56802900
vt 0.89749400 0.68618400
vt 0.67380300 0.56184000
vt 0.89870000 0.68007600
vt 0.67380300 0.55557000
vt 0.90111100 0.67436900
vt 0.67380300 0.54938100
vt 0.90456800 0.66914400
vt 0.67380300 0.54311200
vt 0.90890800 0.66472400
vt 0.67380300 0.53692300
vt 0.91413300 0.66126700
vt 0.67380300 0.53073400
vt 0.91992000 0.65893600
vt 0.67380300 0.52446400
vt 0.92602800 0.65765000
vt 0.67380300 0.51827500
vt 0.93221800 0.65765000
vt 0.67380300 0.51200600
vt 0.93832600 0.65893600
vt 0.67380300 0.50581700
vt 0.94411300 0.66126700
vt 0.67380300 0.49954700
vt 0.94925800 0.66472400
vt 0.67380300 0.49335800
vt 0.95367800 0.66914400
vt 0.67380300 0.48716900
vt 0.95713500 0.67436900
vt 0.67380300 0.48090000
vt 0.95954600 0.68007600
vt 0.67380300 0.47471000
vt 0.96075200 0.68618400
vt 0.67380300 0.46844100
vt 0.96075200 0.69245400
vt 0.67380300 0.46225200
vt 0.95954600 0.69856300
vt 0.67380300 0.45606300
vt 0.95713500 0.70426900
vt 0.67380300 0.44979300
vt 0.95367800 0.70949400
vt 0.67380300 0.64270000
vt 0.67380300 0.44360400
vt 0.94925800 0.71391500
vt 0.67380300 0.63651100
vt 0.94411300 0.71737100
vt 0.67380300 0.63024100
vt 0.93832600 0.71970200
vt 0.67380300 0.62405200
vt 0.93221800 0.72090800
vt 0.67380300 0.61778300
vt 0.92602800 0.72090800
vt 0.67380300 0.61159400
vt 0.91992000 0.71970200
vt 0.67380300 0.60532400
vt 0.91413300 0.71737100
vt 0.67380300 0.59913500
vt 0.90890800 0.71391500
vt 0.67380300 0.59294600
vt 0.90456800 0.70949400
vt 0.67380300 0.58667700
vt 0.67380300 0.58048800
vt 0.90111100 0.70426900
vt 0.92908300 0.68931900
vt 0.93872800 0.46096600
vt 0.63088100 0.46474400
vt 0.94218500 0.45582200
vt 0.63088100 0.47093300
vt 0.79244100 0.95930800
vt 0.62268300 0.46474400
vt 0.79002900 0.95352100
vt 0.62268300 0.47093300
vt 0.94451500 0.45003400
vt 0.63088100 0.47720200
vt 0.78882400 0.94741200
vt 0.62268300 0.47720200
vt 0.94572100 0.44392600
vt 0.63088100 0.48339100
vt 0.78882400 0.94122300
vt 0.62268300 0.48339100
vt 0.94572100 0.43773700
vt 0.63088100 0.48966100
vt 0.79002900 0.93511400
vt 0.62268300 0.48966100
vt 0.94451500 0.43162800
vt 0.63088100 0.49585000
vt 0.79244100 0.92932700
vt 0.62268300 0.49585000
vt 0.94218500 0.42584100
vt 0.63088100 0.50211900
vt 0.79589700 0.92418300
vt 0.62268300 0.50211900
vt 0.93872800 0.42061600
vt 0.63088100 0.50830800
vt 0.80031800 0.91976200
vt 0.62268300 0.50830800
vt 0.93430700 0.41627600
vt 0.63088100 0.51457800
vt 0.80546200 0.91630600
vt 0.62268300 0.51457800
vt 0.92908300 0.41282000
vt 0.63088100 0.52084700
vt 0.81124900 0.91389500
vt 0.62268300 0.52084700
vt 0.92337600 0.41040800
vt 0.63088100 0.52703600
vt 0.81735800 0.91268900
vt 0.62268300 0.52703600
vt 0.91726700 0.40920300
vt 0.63088100 0.53330600
vt 0.82354700 0.91268900
vt 0.62268300 0.53330600
vt 0.91099800 0.40920300
vt 0.63088100 0.53949500
vt 0.82965600 0.91389500
vt 0.62268300 0.53949500
vt 0.90488900 0.41040800
vt 0.63088100 0.54576400
vt 0.83544300 0.91630600
vt 0.62268300 0.54576400
vt 0.89910200 0.41282000
vt 0.63088100 0.55195300
vt 0.84058700 0.91976200
vt 0.62268300 0.55195300
vt 0.89395800 0.41627600
vt 0.63088100 0.55822300
vt 0.84500800 0.92418300
vt 0.62268300 0.55822300
vt 0.88953700 0.42061600
vt 0.63088100 0.56441200
vt 0.84846400 0.92932700
vt 0.62268300 0.56441200
vt 0.88608100 0.42584100
vt 0.63088100 0.57068200
vt 0.85087500 0.93511400
vt 0.62268300 0.57068200
vt 0.88366900 0.43162800
vt 0.63088100 0.57687100
vt 0.85208100 0.94122300
vt 0.62268300 0.57687100
vt 0.88246400 0.43773700
vt 0.63088100 0.58314000
vt 0.85208100 0.94741200
vt 0.62268300 0.58314000
vt 0.88246400 0.44392600
vt 0.63088100 0.58932900
vt 0.85087500 0.95352100
vt 0.62268300 0.58932900
vt 0.88366900 0.45003400
vt 0.63088100 0.59559900
vt 0.84846400 0.95930800
vt 0.62268300 0.59559900
vt 0.88608100 0.45582200
vt 0.63088100 0.60178800
vt 0.84500800 0.96445200
vt 0.62268300 0.60178800
vt 0.88953700 0.46096600
vt 0.63088100 0.60805700
vt 0.84058700 0.96887300
vt 0.62268300 0.60805700
vt 0.89395800 0.46538700
vt 0.63088100 0.61424600
vt 0.83544300 0.97232900
vt 0.62268300 0.61424600
vt 0.89910200 0.46884300
vt 0.63088100 0.62051600
vt 0.82965600 0.97474100
vt 0.62268300 0.62051600
vt 0.90488900 0.47125400
vt 0.63088100 0.62670500
vt 0.82354700 0.97594600
vt 0.62268300 0.62670500
vt 0.91099800 0.47246000
vt 0.63088100 0.63297400
vt 0.81735800 0.97594600
vt 0.62268300 0.63297400
vt 0.63088100 0.63916300
vt 0.91726700 0.47246000
vt 0.91413300 0.44079100
vt 0.93430700 0.46538700
vt 0.63088100 0.45847400
vt 0.62268300 0.45847400
vt 0.79589700 0.96445200
vt 0.82041200 0.94427700
vt 0.81124900 0.97474100
vt 0.62268300 0.63916300
vt 0.63088100 0.64543300
vt 0.92337600 0.47125400
vt 0.92908300 0.46884300
vt 0.63088100 0.65162200
vt 0.63088100 0.45228500
vt 0.62268300 0.45228500
vt 0.62268300 0.65162200
vt 0.80031800 0.96887300
vt 0.80546200 0.97232900
vt 0.62268300 0.64543300
vt 0.42350700 0.88262800
vt 0.35092600 0.64085100
vt 0.87908800 0.57920200
vt 0.33967300 0.64085100
vt 0.43162500 0.88423500
vt 0.35092600 0.63257200
vt 0.87322000 0.58515000
vt 0.33967300 0.63257200
vt 0.43934100 0.88745000
vt 0.35092600 0.62421300
vt 0.86855800 0.59206200
vt 0.33967300 0.62421300
vt 0.44625400 0.89203200
vt 0.35092600 0.61593400
vt 0.86534300 0.59969800
vt 0.33967300 0.61593400
vt 0.45212100 0.89789900
vt 0.35092600 0.60757500
vt 0.86373600 0.60789600
vt 0.33967300 0.60757500
vt 0.45678300 0.90481200
vt 0.35092600 0.59921600
vt 0.86373600 0.61617500
vt 0.33967300 0.59921600
vt 0.45991800 0.91252800
vt 0.35092600 0.59093700
vt 0.86534300 0.62437400
vt 0.33967300 0.59093700
vt 0.46152500 0.92072700
vt 0.35092600 0.58257700
vt 0.86855800 0.63201000
vt 0.33967300 0.58257700
vt 0.46152500 0.92900600
vt 0.35092600 0.57429900
vt 0.87322000 0.63900300
vt 0.33967300 0.57429900
vt 0.45991800 0.93720400
vt 0.35092600 0.56593900
vt 0.87908800 0.64487000
vt 0.33967300 0.56593900
vt 0.45678300 0.94484000
vt 0.35092600 0.55766000
vt 0.88600000 0.64945200
vt 0.33967300 0.55766000
vt 0.45212100 0.95175200
vt 0.35092600 0.54930100
vt 0.89363600 0.65266700
vt 0.33967300 0.54930100
vt 0.44625400 0.95770000
vt 0.35092600 0.54102200
vt 0.90183500 0.65427400
vt 0.33967300 0.54102200
vt 0.43934100 0.96228200
vt 0.35092600 0.53266300
vt 0.91011400 0.65427400
vt 0.33967300 0.53266300
vt 0.43162500 0.96549700
vt 0.35092600 0.52438400
vt 0.91831200 0.65266700
vt 0.33967300 0.52438400
vt 0.42350700 0.96710500
vt 0.35092600 0.51602500
vt 0.92602800 0.64945200
vt 0.33967300 0.51602500
vt 0.41514700 0.96710500
vt 0.35092600 0.50774600
vt 0.93294100 0.64487000
vt 0.33967300 0.50774600
vt 0.40702900 0.96549700
vt 0.35092600 0.49938600
vt 0.93880900 0.63900300
vt 0.33967300 0.49938600
vt 0.39931300 0.96228200
vt 0.35092600 0.49110700
vt 0.94339000 0.63209000
vt 0.33967300 0.49110700
vt 0.39240100 0.95770000
vt 0.35092600 0.48274800
vt 0.94660500 0.62437400
vt 0.33967300 0.48274800
vt 0.38653300 0.95175200
vt 0.35092600 0.47446900
vt 0.94821300 0.61617500
vt 0.33967300 0.47446900
vt 0.38187100 0.94484000
vt 0.35092600 0.46611000
vt 0.94821300 0.60789600
vt 0.33967300 0.46611000
vt 0.37873600 0.93720400
vt 0.35092600 0.45783100
vt 0.94660500 0.59969800
vt 0.33967300 0.45783100
vt 0.37704800 0.92900600
vt 0.35092600 0.44947200
vt 0.94339000 0.59206200
vt 0.33967300 0.44947200
vt 0.37704800 0.92072700
vt 0.35092600 0.44119300
vt 0.93880900 0.58515000
vt 0.33967300 0.44119300
vt 0.37873600 0.91252800
vt 0.35092600 0.43283400
vt 0.93294100 0.57920200
vt 0.33967300 0.43283400
vt 0.38187100 0.90481200
vt 0.35092600 0.42455500
vt 0.92602800 0.57462000
vt 0.33967300 0.42455500
vt 0.38653300 0.89789900
vt 0.35092600 0.41619500
vt 0.91831200 0.57140500
vt 0.33967300 0.41619500
vt 0.39240100 0.89203200
vt 0.35092600 0.40791700
vt 0.33967300 0.40791700
vt 0.91011400 0.56979700
vt 0.90601500 0.61207600
vt 0.88600000 0.57462000
vt 0.33967300 0.64921100
vt 0.35092600 0.64921100
vt 0.41514700 0.88262800
vt 0.41932700 0.92482600
vt 0.39931300 0.88745000
vt 0.35092600 0.39955700
vt 0.33967300 0.39955700
vt 0.90183500 0.56979700
vt 0.89363600 0.57140500
vt 0.33967300 0.39127800
vt 0.33967300 0.65748900
vt 0.40702900 0.88423500
vt 0.35092600 0.65748900
vt 0.35092600 0.39127800
f 2/2/2 3/3/3 5/5/5
f 5/5/5 3/3/3 7/7/7
f 7/7/7 3/3/3 9/9/9
f 9/9/9 3/3/3 11/11/11
f 11/11/11 3/3/3 13/13/13
f 13/13/13 3/3/3 15/15/15
f 15/15/15 3/3/3 17/17/17
f 17/17/17 3/3/3 19/19/19
f 19/19/19 3/3/3 21/21/21
f 21/21/21 3/3/3 23/23/23
f 23/23/23 3/3/3 25/25/25
f 25/25/25 3/3/3 27/27/27
f 27/27/27 3/3/3 29/29/29
f 29/29/29 3/3/3 31/31/31
f 31/31/31 3/3/3 33/33/33
f 33/33/33 3/3/3 35/35/35
f 35/35/35 3/3/3 37/37/37
f 37/37/37 3/3/3 39/39/39
f 39/39/39 3/3/3 41/41/41
f 41/41/41 3/3/3 43/43/43
f 43/43/43 3/3/3 46/46/46
f 46/46/46 3/3/3 48/48/48
f 48/48/48 3/3/3 50/50/50
f 50/50/50 3/3/3 52/52/52
f 52/52/52 3/3/3 54/54/54
f 54/54/54 3/3/3 56/56/56
f 56/56/56 3/3/3 58/58/58
f 58/58/58 3/3/3 60/60/60
f 60/60/60 3/3/3 62/62/62
f 62/62/62 3/3/3 64/64/64
f 64/64/64 3/3/3 65/65/65
f 3/3/3 2/2/2 65/65/65
f 66/66/66 1/1/1 68/68/68
f 68/68/68 1/1/1 70/70/70
f 1/1/1 4/4/4 70/70/70
f 70/70/70 4/4/4 72/72/72
f 4/4/4 6/6/6 72/72/72
f 72/72/72 6/6/6 74/74/74
f 6/6/6 8/8/8 74/74/74
f 74/74/74 8/8/8 76/76/76
f 8/8/8 10/10/10 76/76/76
f 76/76/76 10/10/10 78/78/78
f 10/10/10 12/12/12 78/78/78
f 78/78/78 12/12/12 80/80/80
f 12/12/12 14/14/14 80/80/80
f 80/80/80 14/14/14 82/82/82
f 14/14/14 16/16/16 82/82/82
f 82/82/82 16/16/16 84/84/84
f 16/16/16 18/18/18 84/84/84
f 84/84/84 18/18/18 86/86/86
f 18/18/18 20/20/20 86/86/86
f 86/86/86 20/20/20 88/88/88
f 20/20/20 22/22/22 88/88/88
f 88/88/88 22/22/22 90/90/90
f 22/22/22 24/24/24 90/90/90
f 90/90/90 24/24/24 92/92/92
f 24/24/24 26/26/26 92/92/92
f 92/92/92 26/26/26 94/94/94
f 26/26/26 28/28/28 94/94/94
f 94/94/94 28/28/28 96/96/96
f 28/28/28 30/30/30 96/96/96
f 96/96/96 30/30/30 98/98/98
f 30/30/30 32/32/32 98/98/98
f 98/98/98 32/32/32 100/100/100
f 32/32/32 34/34/34 100/100/100
f 100/100/100 34/34/34 102/102/102
f 34/34/34 36/36/36 102/102/102
f 102/102/102 36/36/36 104/104/104
f 36/36/36 38/38/38 104/104/104
f 104/104/104 38/38/38 106/106/106
f 38/38/38 40/40/40 106/106/106
f 106/106/106 40/40/40 108/108/108
f 40/40/40 42/42/42 108/108/108
f 108/108/108 42/42/42 111/111/111
f 42/42/42 44/44/44 111/111/111
f 110/110/110 45/45/45 113/113/113
f 45/45/45 47/47/47 113/113/113
f 113/113/113 47/47/47 115/115/115
f 47/47/47 49/49/49 115/115/115
f 115/115/115 49/49/49 117/117/117
f 49/49/49 51/51/51 117/117/117
f 117/117/117 51/51/51 119/119/119
f 51/51/51 53/53/53 119/119/119
f 119/119/119 53/53/53 121/121/121
f 53/53/53 55/55/55 121/121/121
f 121/121/121 55/55/55 123/123/123
f 55/55/55 57/57/57 123/123/123
f 123/123/123 57/57/57 125/125/125
f 57/57/57 59/59/59 125/125/125
f 125/125/125 59/59/59 127/127/127
f 59/59/59 61/61/61 127/127/127
f 127/127/127 61/61/61 129/129/129
f 61/61/61 63/63/63 129/129/129
f 129/129/129 63/63/63 130/130/130
f 63/63/63 66/66/66 130/130/130
f 66/66/66 68/68/68 130/130/130
f 131/131/131 67/67/67 132/132/132
f 67/67/67 69/69/69 132/132/132
f 69/69/69 71/71/71 132/132/132
f 71/71/71 73/73/73 132/132/132
f 73/73/73 75/75/75 132/132/132
f 75/75/75 77/77/77 132/132/132
f 77/77/77 79/79/79 132/132/132
f 79/79/79 81/81/81 132/132/132
f 81/81/81 83/83/83 132/132/132
f 83/83/83 85/85/85 132/132/132
f 85/85/85 87/87/87 132/132/132
f 87/87/87 89/89/89 132/132/132
f 89/89/89 91/91/91 132/132/132
f 91/91/91 93/93/93 132/132/132
f 93/93/93 95/95/95 132/132/132
f 95/95/95 97/97/97 132/132/132
f 97/97/97 99/99/99 132/132/132
f 99/99/99 101/101/101 132/132/132
f 101/101/101 103/103/103 132/132/132
f 103/103/103 105/105/105 132/132/132
f 105/105/105 107/107/107 132/132/132
f 107/107/107 109/109/109 132/132/132
f 109/109/109 112/112/112 132/132/132
f 112/112/112 114/114/114 132/132/132
f 114/114/114 116/116/116 132/132/132
f 116/116/116 118/118/118 132/132/132
f 118/118/118 120/120/120 132/132/132
f 120/120/120 122/122/122 132/132/132
f 122/122/122 124/124/124 132/132/132
f 124/124/124 126/126/126 132/132/132
f 126/126/126 128/128/128 132/132/132
f 134/134/134 136/136/136 138/138/138
f 138/138/138 136/136/136 140/140/140
f 136/136/136 142/142/142 140/140/140
f 140/140/140 142/142/142 144/144/144
f 142/142/142 146/146/146 144/144/144
f 144/144/144 146/146/146 148/148/148
f 146/146/146 150/150/150 148/148/148
f 148/148/148 150/150/150 152/152/152
f 150/150/150 154/154/154 152/152/152
f 152/152/152 154/154/154 156/156/156
f 154/154/154 158/158/158 156/156/156
f 156/156/156 158/158/158 160/160/160
f 158/158/158 162/162/162 160/160/160
f 160/160/160 162/162/162 164/164/164
f 162/162/162 166/166/166 164/164/164
f 164/164/164 166/166/166 168/168/168
f 166/166/166 170/170/170 168/168/168
f 168/168/168 170/170/170 172/172/172
f 170/170/170 174/174/174 172/172/172
f 172/172/172 174/174/174 176/176/176
f 174/174/174 178/178/178 176/176/176
f 176/176/176 178/178/178 180/180/180
f 178/178/178 182/182/182 180/180/180
f 180/180/180 182/182/182 184/184/184
f 182/182/182 186/186/186 184/184/184
f 184/184/184 186/186/186 188/188/188
f 186/186/186 190/190/190 188/188/188
f 188/188/188 190/190/190 192/192/192
f 190/190/190 194/194/194 192/192/192
f 192/192/192 194/194/194 196/196/196
f 194/194/194 198/198/198 196/196/196
f 196/196/196 198/198/198 200/200/200
f 198/198/198 202/202/202 200/200/200
f 200/200/200 202/202/202 204/204/204
f 202/202/202 206/206/206 204/204/204
f 204/204/204 206/206/206 208/208/208
f 206/206/206 210/210/210 208/208/208
f 208/208/208 210/210/210 212/212/212
f 210/210/210 214/214/214 212/212/212
f 212/212/212 214/214/214 216/216/216
f 214/214/214 218/218/218 216/216/216
f 216/216/216 218/218/218 220/220/220
f 218/218/218 222/222/222 220/220/220
f 220/220/220 222/222/222 224/224/224
f 222/222/222 226/226/226 224/224/224
f 224/224/224 226/226/226 228/228/228
f 226/226/226 230/230/230 228/228/228
f 228/228/228 230/230/230 232/232/232
f 230/230/230 234/234/234 232/232/232
f 232/232/232 234/234/234 236/236/236
f 234/234/234 238/238/238 236/236/236
f 236/236/236 238/238/238 240/240/240
f 238/238/238 242/242/242 240/240/240
f 240/240/240 242/242/242 244/244/244
f 244/244/244 242/242/242 245/245/245
f 246/246/246 241/241/241 247/247/247
f 241/241/241 237/237/237 247/247/247
f 237/237/237 233/233/233 247/247/247
f 233/233/233 229/229/229 247/247/247
f 229/229/229 225/225/225 247/247/247
f 225/225/225 221/221/221 247/247/247
f 221/221/221 217/217/217 247/247/247
f 217/217/217 213/213/213 247/247/247
f 213/213/213 209/209/209 247/247/247
f 209/209/209 205/205/205 247/247/247
f 205/205/205 201/201/201 247/247/247
f 201/201/201 197/197/197 247/247/247
f 197/197/197 193/193/193 247/247/247
f 193/193/193 189/189/189 247/247/247
f 189/189/189 185/185/185 247/247/247
f 185/185/185 181/181/181 247/247/247
f 181/181/181 177/177/177 247/247/247
f 177/177/177 173/173/173 247/247/247
f 173/173/173 169/169/169 247/247/247
f 169/169/169 165/165/165 247/247/247
f 165/165/165 161/161/161 247/247/247
f 161/161/161 157/157/157 247/247/247
f 157/157/157 153/153/153 247/247/247
f 153/153/153 149/149/149 247/247/247
f 149/149/149 145/145/145 247/247/247
f 145/145/145 141/141/141 247/247/247
f 141/141/141 135/135/135 247/247/247
f 135/135/135 133/133/133 247/247/247
f 247/247/247 133/133/133 248/248/248
f 249/249/249 134/134/134 250/250/250
f 134/134/134 138/138/138 250/250/250
f 251/251/251 137/137/137 252/252/252
f 137/137/137 139/139/139 252/252/252
f 139/139/139 143/143/143 252/252/252
f 143/143/143 147/147/147 252/252/252
f 147/147/147 151/151/151 252/252/252
f 151/151/151 155/155/155 252/252/252
f 155/155/155 159/159/159 252/252/252
f 159/159/159 163/163/163 252/252/252
f 163/163/163 167/167/167 252/252/252
f 167/167/167 171/171/171 252/252/252
f 171/171/171 175/175/175 252/252/252
f 175/175/175 179/179/179 252/252/252
f 179/179/179 183/183/183 252/252/252
f 183/183/183 187/187/187 252/252/252
f 187/187/187 191/191/191 252/252/252
f 191/191/191 195/195/195 252/252/252
f 195/195/195 199/199/199 252/252/252
f 199/199/199 203/203/203 252/252/252
f 203/203/203 207/207/207 252/252/252
f 207/207/207 211/211/211 252/252/252
f 211/211/211 215/215/215 252/252/252
f 215/215/215 219/219/219 252/252/252
f 219/219/219 223/223/223 252/252/252
f 223/223/223 227/227/227 252/252/252
f 227/227/227 231/231/231 252/252/252
f 231/231/231 235/235/235 252/252/252
f 235/235/235 239/239/239 252/252/252
f 239/239/239 243/243/243 252/252/252
f 252/252/252 243/243/243 253/253/253
f 244/244/244 245/245/245 254/254/254
f 254/254/254 245/245/245 255/255/255
f 246/246/246 247/247/247 256/256/256
f 256/256/256 247/247/247 257/257/257
f 247/247/247 248/248/248 257/257/257
f 259/259/259 249/249/249 260/260/260
f 249/249/249 250/250/250 260/260/260
f 251/251/251 252/252/252 262/262/262
f 262/262/262 252/252/252 263/263/263
f 252/252/252 253/253/253 263/263/263
f 254/254/254 255/255/255 264/264/264
f 255/255/255 258/258/258 264/264/264
f 266/266/266 268/268/268 270/270/270
f 268/268/268 272/272/272 270/270/270
f 270/270/270 272/272/272 274/274/274
f 272/272/272 276/276/276 274/274/274
f 274/274/274 276/276/276 278/278/278
f 276/276/276 280/280/280 278/278/278
f 278/278/278 280/280/280 282/282/282
f 280/280/280 284/284/284 282/282/282
f 282/282/282 284/284/284 286/286/286
f 284/284/284 288/288/288 286/286/286
f 286/286/286 288/288/288 290/290/290
f 288/288/288 292/292/292 290/290/290
f 290/290/290 292/292/292 294/294/294
f 292/292/292 296/296/296 294/294/294
f 294/294/294 296/296/296 298/298/298
f 296/296/296 300/300/300 298/298/298
f 298/298/298 300/300/300 302/302/302
f 300/300/300 304/304/304 302/302/302
f 302/302/302 304/304/304 306/306/306
f 304/304/304 308/308/308 306/306/306
f 306/306/306 308/308/308 310/310/310
f 308/308/308 312/312/312 310/310/310
f 310/310/310 312/312/312 314/314/314
f 312/312/312 316/316/316 314/314/314
f 314/314/314 316/316/316 318/318/318
f 316/316/316 320/320/320 318/318/318
f 318/318/318 320/320/320 322/322/322
f 320/320/320 324/324/324 322/322/322
f 322/322/322 324/324/324 326/326/326
f 324/324/324 328/328/328 326/326/326
f 326/326/326 328/328/328 330/330/330
f 328/328/328 332/332/332 330/330/330
f 330/330/330 332/332/332 334/334/334
f 332/332/332 336/336/336 334/334/334
f 334/334/334 336/336/336 338/338/338
f 336/336/336 340/340/340 338/338/338
f 338/338/338 340/340/340 342/342/342
f 340/340/340 344/344/344 342/342/342
f 342/342/342 344/344/344 346/346/346
f 344/344/344 348/348/348 346/346/346
f 346/346/346 348/348/348 350/350/350
f 348/348/348 352/352/352 350/350/350
f 350/350/350 352/352/352 354/354/354
f 352/352/352 356/356/356 354/354/354
f 354/354/354 356/356/356 358/358/358
f 356/356/356 360/360/360 358/358/358
f 358/358/358 360/360/360 362/362/362
f 360/360/360 364/364/364 362/362/362
f 362/362/362 364/364/364 366/366/366
f 364/364/364 368/368/368 366/366/366
f 366/366/366 368/368/368 370/370/370
f 368/368/368 372/372/372 370/370/370
f 370/370/370 372/372/372 374/374/374
f 372/372/372 376/376/376 374/374/374
f 374/374/374 376/376/376 378/378/378
f 378/378/378 376/376/376 379/379/379
f 380/380/380 375/375/375 381/381/381
f 375/375/375 371/371/371 381/381/381
f 371/371/371 367/367/367 381/381/381
f 367/367/367 363/363/363 381/381/381
f 363/363/363 359/359/359 381/381/381
f 359/359/359 355/355/355 381/381/381
f 355/355/355 351/351/351 381/381/381
f 351/351/351 347/347/347 381/381/381
f 347/347/347 343/343/343 381/381/381
f 343/343/343 339/339/339 381/381/381
f 339/339/339 335/335/335 381/381/381
f 335/335/335 331/331/331 381/381/381
f 331/331/331 327/327/327 381/381/381
f 327/327/327 323/323/323 381/381/381
f 323/323/323 319/319/319 381/381/381
f 319/319/319 315/315/315 381/381/381
f 315/315/315 311/311/311 381/381/381
f 311/311/311 307/307/307 381/381/381
f 307/307/307 303/303/303 381/381/381
f 303/303/303 299/299/299 381/381/381
f 299/299/299 295/295/295 381/381/381
f 295/295/295 291/291/291 381/381/381
f 291/291/291 287/287/287 381/381/381
f 287/287/287 283/283/283 381/381/381
f 283/283/283 279/279/279 381/381/381
f 279/279/279 275/275/275 381/381/381
f 275/275/275 271/271/271 381/381/381
f 271/271/271 267/267/267 381/381/381
f 381/381/381 267/267/267 382/382/382
f 268/268/268 266/266/266 383/383/383
f 383/383/383 266/266/266 384/384/384
f 385/385/385 265/265/265 386/386/386
f 265/265/265 269/269/269 386/386/386
f 269/269/269 273/273/273 386/386/386
f 273/273/273 277/277/277 386/386/386
f 277/277/277 281/281/281 386/386/386
f 281/281/281 285/285/285 386/386/386
f 285/285/285 289/289/289 386/386/386
f 289/289/289 293/293/293 386/386/386
f 293/293/293 297/297/297 386/386/386
f 297/297/297 301/301/301 386/386/386
f 301/301/301 305/305/305 386/386/386
f 305/305/305 309/309/309 386/386/386
f 309/309/309 313/313/313 386/386/386
f 313/313/313 317/317/317 386/386/386
f 317/317/317 321/321/321 386/386/386
f 321/321/321 325/325/325 386/386/386
f 325/325/325 329/329/329 386/386/386
f 329/329/329 333/333/333 386/386/386
f 333/333/333 337/337/337 386/386/386
f 337/337/337 341/341/341 386/386/386
f 341/341/341 345/345/345 386/386/386
f 345/345/345 349/349/349 386/386/386
f 349/349/349 353/353/353 386/386/386
f 353/353/353 357/357/357 386/386/386
f 357/357/357 361/361/361 386/386/386
f 361/361/361 365/365/365 386/386/386
f 365/365/365 369/369/369 386/386/386
f 369/369/369 373/373/373 386/386/386
f 373/373/373 377/377/377 386/386/386
f 386/386/386 377/377/377 387/387/387
f 378/378/378 379/379/379 388/388/388
f 388/388/388 379/379/379 389/389/389
f 380/380/380 381/381/381 390/390/390
f 390/390/390 381/381/381 391/391/391
f 381/381/381 382/382/382 391/391/391
f 383/383/383 384/384/384 393/393/393
f 393/393/393 384/384/384 395/395/395
f 385/385/385 386/386/386 394/394/394
f 386/386/386 387/387/387 394/394/394
f 388/388/388 389/389/389 396/396/396
f 392/392/392 396/396/396 389/389/389
f 261/261/261 264/264/264 258/258/258
f 131/131/131 132/132/132 128/128/128

