mtllib material.mtl
usemtl Plastic_Blue.002
v -0.00000100 -0.11961500 -0.05331900
v -0.00000100 -0.11331600 -0.05597900
v 0.00953400 -0.11887600 -0.05259700
v 0.00913100 -0.11272200 -0.05530700
v -0.00000100 -0.10655200 -0.05797200
v 0.00851000 -0.10600300 -0.05740700
v 0.00759700 -0.09903200 -0.05890200
v -0.00000100 -0.09952400 -0.05936100
v 0.00637600 -0.09205500 -0.06006100
v -0.00000100 -0.09241300 -0.06038000
v 0.00498800 -0.08517800 -0.06086700
v -0.00000100 -0.08537400 -0.06107400
v 0.00373300 -0.07968500 -0.06139900
v -0.00000100 -0.07992000 -0.06151700
v 0.00282600 -0.07619100 -0.06174100
v -0.00000100 -0.07568200 -0.06186900
v -0.00282900 -0.07619100 -0.06174100
v -0.00373100 -0.07968500 -0.06139900
v -0.00499100 -0.08517800 -0.06086700
v -0.00637900 -0.09205500 -0.06006100
v -0.00759400 -0.09903200 -0.05890200
v -0.00850700 -0.10600300 -0.05740700
v -0.00912900 -0.11272200 -0.05530700
v -0.00953200 -0.11887600 -0.05259700
v -0.00981200 -0.12435800 -0.04908600
v -0.00994100 -0.12895500 -0.04457800
v -0.00000100 -0.12510800 -0.04967900
v 0.00981400 -0.12435800 -0.04908600
v 0.01918800 -0.12186100 -0.04737800
v 0.01856100 -0.11673200 -0.05095000
v 0.01764300 -0.11088600 -0.05371100
v 0.01628200 -0.10432300 -0.05598400
v 0.01442300 -0.09762000 -0.05776500
v 0.01194800 -0.09085600 -0.05934400
v 0.00907000 -0.08396900 -0.06049700
v 0.00644400 -0.07812900 -0.06131500
v 0.00380600 -0.07395700 -0.06187500
v -0.00000100 -0.07306100 -0.06208800
v -0.00380900 -0.07395700 -0.06187500
v -0.00644600 -0.07812900 -0.06131500
v -0.00906700 -0.08396900 -0.06049700
v -0.01195100 -0.09085600 -0.05934400
v -0.01442600 -0.09762000 -0.05776500
v -0.01628500 -0.10432300 -0.05598400
v -0.01764000 -0.11088600 -0.05371100
v -0.01856400 -0.11673200 -0.05095000
v -0.01918500 -0.12186100 -0.04737800
v -0.01955500 -0.12628400 -0.04304900
v -0.01967800 -0.12989000 -0.03787000
v -0.01941500 -0.13575900 -0.01789600
v -0.01949300 -0.13446500 -0.02512500
v -0.00976700 -0.13692900 -0.02571900
v -0.00985100 -0.13510400 -0.03267900
v -0.01960500 -0.13254500 -0.03182800
v -0.00993500 -0.13249400 -0.03905100
v -0.00000100 -0.12970000 -0.04512700
v 0.00993800 -0.12895500 -0.04457800
v 0.01955800 -0.12628400 -0.04304900
v 0.02927800 -0.12158100 -0.04092200
v 0.02825900 -0.11756000 -0.04502600
v 0.02675900 -0.11285100 -0.04858200
v 0.02504000 -0.10772800 -0.05144900
v 0.02242500 -0.10150100 -0.05433200
v 0.01939500 -0.09509500 -0.05663400
v 0.01573300 -0.08816300 -0.05863800
v 0.01146600 -0.08052000 -0.06041900
v 0.00815700 -0.07484200 -0.06142700
v 0.00427100 -0.07102300 -0.06201500
v -0.00000100 -0.07021100 -0.06218900
v -0.00427400 -0.07102300 -0.06201500
v -0.00816000 -0.07484200 -0.06142700
v -0.01146400 -0.08052000 -0.06041900
v -0.01573600 -0.08816300 -0.05863800
v -0.01939800 -0.09509500 -0.05663400
v -0.02242700 -0.10150100 -0.05433200
v -0.02504200 -0.10772800 -0.05144900
v -0.02675600 -0.11285100 -0.04858200
v -0.02826200 -0.11756000 -0.04502600
v -0.02928100 -0.12158100 -0.04092200
v -0.02988000 -0.12509200 -0.03588800
v -0.03002600 -0.12779600 -0.03029400
v -0.02985200 -0.12993000 -0.02382600
v -0.02926400 -0.13162600 -0.01667000
v -0.01926400 -0.13680000 -0.01036000
v -0.02823400 -0.13313800 -0.00886400
v -0.01863100 -0.13759000 -0.00277800
v -0.02635800 -0.13440400 -0.00082900
v -0.02345800 -0.13631900 0.00682500
v -0.01731000 -0.13847400 0.00451300
v -0.01522700 -0.13929800 0.01093500
v -0.01937600 -0.13816100 0.01306900
v -0.01234300 -0.14012100 0.01417200
v -0.01426300 -0.13984100 0.01722400
v -0.00753300 -0.14099400 0.01558300
v -0.00782400 -0.14110100 0.01907200
v -0.00000100 -0.14150400 0.01568400
v -0.00000100 -0.14165500 0.01951900
v 0.00782700 -0.14110100 0.01907200
v 0.00753000 -0.14099400 0.01558300
v -0.00000100 -0.14116800 0.00955800
v -0.00823800 -0.14068600 0.00983200
v -0.00906700 -0.14005400 0.00329200
v -0.00959300 -0.13966700 -0.00373000
v -0.00975600 -0.13901800 -0.01098700
v -0.00975000 -0.13810500 -0.01839500
v -0.00000100 -0.13897800 -0.01859100
v -0.00000100 -0.13774100 -0.02597700
v -0.00000100 -0.13596600 -0.03304900
v -0.00000100 -0.13334000 -0.03958300
v 0.00993200 -0.13249400 -0.03905100
v 0.01967500 -0.12989000 -0.03787000
v 0.02987800 -0.12509200 -0.03588800
v 0.03800800 -0.11885400 -0.03301000
v 0.03698300 -0.11569000 -0.03789800
v 0.03546000 -0.11241400 -0.04193000
v 0.03342200 -0.10838800 -0.04569200
v 0.03104200 -0.10437300 -0.04886700
v 0.02736300 -0.09845500 -0.05251300
v 0.02344400 -0.09244700 -0.05533500
v 0.01862800 -0.08535200 -0.05802800
v 0.01318500 -0.07773100 -0.06014500
v 0.00880700 -0.07167800 -0.06134900
v 0.00442200 -0.06850300 -0.06198100
v -0.00000100 -0.06775300 -0.06216600
v -0.00442500 -0.06850300 -0.06198100
v -0.00880400 -0.07167800 -0.06134900
v -0.01318300 -0.07773100 -0.06014500
v -0.01863100 -0.08535200 -0.05802800
v -0.02344100 -0.09244700 -0.05533500
v -0.02736600 -0.09845500 -0.05251300
v -0.03104500 -0.10437300 -0.04886700
v -0.03341900 -0.10838800 -0.04569200
v -0.03545800 -0.11241400 -0.04193000
v -0.03698100 -0.11569000 -0.03789800
v -0.03801100 -0.11885400 -0.03301000
v -0.03844800 -0.12125600 -0.02818800
v -0.03839200 -0.12368600 -0.02188300
v -0.03765800 -0.12581400 -0.01509700
v -0.03621300 -0.12818300 -0.00697700
v -0.03356500 -0.13080300 0.00146100
v -0.02910800 -0.13391100 0.00959700
v -0.02304300 -0.13695700 0.01581800
v -0.01589300 -0.13942600 0.01996200
v -0.00844500 -0.14097700 0.02252100
v -0.00000100 -0.14157100 0.02365200
v 0.00844300 -0.14097700 0.02252100
v 0.01589600 -0.13942600 0.01996200
v 0.01426600 -0.13984100 0.01722400
v 0.01234500 -0.14012100 0.01417200
v 0.00823500 -0.14068600 0.00983200
v -0.00000100 -0.14075900 0.00291100
v -0.00000100 -0.14031100 -0.00404900
v -0.00000100 -0.13978500 -0.01116000
v 0.00974700 -0.13810500 -0.01839500
v 0.00977000 -0.13692900 -0.02571900
v 0.00984800 -0.13510400 -0.03267900
v 0.01960200 -0.13254500 -0.03182800
v 0.03002300 -0.12779600 -0.03029400
v 0.03844500 -0.12125600 -0.02818800
v 0.04022000 -0.12060100 -0.02094800
v 0.04021400 -0.11824900 -0.02700100
v 0.03977700 -0.11589700 -0.03162600
v 0.03875300 -0.11295800 -0.03616800
v 0.03728600 -0.10976600 -0.04009300
v 0.03534800 -0.10594700 -0.04371000
v 0.03306900 -0.10201000 -0.04687900
v 0.02952500 -0.09612000 -0.05064800
v 0.02584000 -0.09017300 -0.05362700
v 0.02109200 -0.08296700 -0.05653900
v 0.01543600 -0.07476900 -0.05898600
v 0.01101300 -0.06886700 -0.06025100
v 0.00541900 -0.06499800 -0.06108000
v -0.00000100 -0.06400100 -0.06136500
v -0.00541600 -0.06499800 -0.06108000
v -0.01101000 -0.06886700 -0.06025100
v -0.01543400 -0.07476900 -0.05898600
v -0.02108900 -0.08296700 -0.05653900
v -0.02584300 -0.09017300 -0.05362700
v -0.02952800 -0.09612000 -0.05064800
v -0.03306700 -0.10201000 -0.04687900
v -0.03535100 -0.10594700 -0.04371000
v -0.03728900 -0.10976600 -0.04009300
v -0.03875000 -0.11295800 -0.03616800
v -0.03977500 -0.11589700 -0.03162600
v -0.04021700 -0.11824900 -0.02700100
v -0.04021700 -0.12060100 -0.02094800
v -0.03961800 -0.12280700 -0.01409400
v -0.03819600 -0.12531600 -0.00594200
v -0.03573700 -0.12808200 0.00276600
v -0.03128600 -0.13157600 0.01150100
v -0.02486900 -0.13512600 0.01844400
v -0.01719200 -0.13808300 0.02320400
v -0.00901700 -0.13994700 0.02608800
v -0.00000100 -0.14062500 0.02725800
v 0.00901900 -0.13994700 0.02608800
v 0.01719500 -0.13808300 0.02320400
v 0.02486600 -0.13512600 0.01844400
v 0.02304100 -0.13695700 0.01581800
v 0.01937300 -0.13816100 0.01306900
v 0.01522900 -0.13929800 0.01093500
v 0.01730700 -0.13847400 0.00451300
v 0.00907000 -0.14005400 0.00329200
v 0.00959600 -0.13966700 -0.00373000
v 0.00975300 -0.13901800 -0.01098700
v 0.01941200 -0.13575900 -0.01789600
v 0.01949600 -0.13446500 -0.02512500
v 0.02984900 -0.12993000 -0.02382600
v 0.03839400 -0.12368600 -0.02188300
v 0.03961500 -0.12280700 -0.01409400
v 0.03929600 -0.12288000 -0.00508500
v 0.04047700 -0.12022000 -0.01322600
v 0.04088600 -0.11790200 -0.02011900
v 0.04047700 -0.11564500 -0.02585900
v 0.03982200 -0.11333800 -0.03024300
v 0.03878100 -0.11071200 -0.03437000
v 0.03745400 -0.10760400 -0.03814400
v 0.03576800 -0.10404300 -0.04165500
v 0.03375200 -0.10010700 -0.04485800
v 0.03032500 -0.09435600 -0.04861500
v 0.02679200 -0.08854400 -0.05152100
v 0.02213300 -0.08147100 -0.05436600
v 0.01636000 -0.07296600 -0.05676800
v 0.01244600 -0.06749500 -0.05793300
v 0.00606800 -0.06298200 -0.05909800
v -0.00000100 -0.06170000 -0.05956800
v -0.00606600 -0.06298200 -0.05909800
v -0.01244400 -0.06749500 -0.05793300
v -0.01636300 -0.07296600 -0.05676800
v -0.02213100 -0.08147200 -0.05436600
v -0.02678900 -0.08854400 -0.05152100
v -0.03032800 -0.09435600 -0.04862100
v -0.03375500 -0.10010700 -0.04485800
v -0.03577100 -0.10404300 -0.04165500
v -0.03745100 -0.10760400 -0.03814400
v -0.03877800 -0.11071200 -0.03437000
v -0.03982500 -0.11333800 -0.03024300
v -0.04047500 -0.11564500 -0.02585900
v -0.04088900 -0.11790700 -0.02011900
v -0.04048600 -0.12022000 -0.01322600
v -0.03931600 -0.12288000 -0.00508500
v -0.03699200 -0.12566300 0.00379600
v -0.03240600 -0.12934700 0.01294000
v -0.02556300 -0.13312700 0.02033100
v -0.01762900 -0.13622300 0.02527600
v -0.00922400 -0.13824500 0.02830500
v -0.00000100 -0.13904000 0.02954800
v 0.00922100 -0.13823900 0.02830500
v 0.01762000 -0.13621200 0.02526500
v 0.02554900 -0.13311600 0.02032000
v 0.03238600 -0.12933000 0.01293400
v 0.03128900 -0.13157600 0.01150100
v 0.02911000 -0.13391100 0.00959700
v 0.02346000 -0.13631900 0.00682500
v 0.01862800 -0.13759000 -0.00277800
v 0.01926100 -0.13680000 -0.01036000
v 0.02926700 -0.13162600 -0.01667000
v 0.03765500 -0.12581400 -0.01509700
v 0.03819800 -0.12531600 -0.00594200
v 0.03697200 -0.12565200 0.00379000
v 0.03574000 -0.12808200 0.00276600
v 0.03356200 -0.13080300 0.00146100
v 0.02636100 -0.13440400 -0.00082900
v 0.02823100 -0.13313800 -0.00886400
v 0.03621600 -0.12818300 -0.00697700
v -0.00713500 -0.10881400 0.55662900
v -0.00000100 -0.10944500 0.55712300
v -0.00678200 -0.10353500 0.55885100
v -0.00000100 -0.10404900 0.55931700
v -0.00627400 -0.09780900 0.56050400
v -0.00000100 -0.09830400 0.56090400
v -0.00000100 -0.09241300 0.56195900
v -0.00555300 -0.09194700 0.56162500
v -0.00000100 -0.08654100 0.56269800
v -0.00462500 -0.08617800 0.56244900
v -0.00358900 -0.08059400 0.56297600
v -0.00000100 -0.08082000 0.56315500
v -0.00266600 -0.07620000 0.56330600
v -0.00000100 -0.07645000 0.56341900
v -0.00201200 -0.07343600 0.56351300
v -0.00000100 -0.07309700 0.56362100
v 0.00200900 -0.07343600 0.56351300
v 0.00266400 -0.07620000 0.56330600
v 0.00358700 -0.08059400 0.56297600
v 0.00462300 -0.08617800 0.56244900
v 0.00555500 -0.09194700 0.56162500
v 0.00627100 -0.09780900 0.56050400
v 0.00678400 -0.10353500 0.55885100
v 0.00713700 -0.10881400 0.55662900
v -0.00000100 -0.11414000 0.55404800
v -0.00739400 -0.11350900 0.55366700
v -0.01484800 -0.11522300 0.54878800
v -0.01449000 -0.11146500 0.55250800
v -0.01393500 -0.10705700 0.55550800
v -0.01315800 -0.10202400 0.55775400
v -0.01206100 -0.09641500 0.55951500
v -0.01059600 -0.09076500 0.56082400
v -0.00870300 -0.08515200 0.56192600
v -0.00654200 -0.07956200 0.56268400
v -0.00461100 -0.07491500 0.56320200
v -0.00270400 -0.07165100 0.56356500
v -0.00000100 -0.07103000 0.56374400
v 0.00270600 -0.07165100 0.56356500
v 0.00461300 -0.07491500 0.56320200
v 0.00654400 -0.07956200 0.56268400
v 0.00870500 -0.08515200 0.56192600
v 0.01059800 -0.09076500 0.56082400
v 0.01205800 -0.09641500 0.55951500
v 0.01316000 -0.10202400 0.55775400
v 0.01393700 -0.10705700 0.55550800
v 0.01448800 -0.11146500 0.55250800
v 0.00739600 -0.11350900 0.55366700
v -0.00000100 -0.11802000 0.55013000
v -0.00753500 -0.11740300 0.54978700
v -0.01501800 -0.11821300 0.54427700
v -0.01084100 -0.12539400 0.49833300
v -0.00987600 -0.12556800 0.50031500
v -0.01505100 -0.12411800 0.50101700
v -0.01154300 -0.12512100 0.50303700
v -0.01823400 -0.12280900 0.50588100
v -0.01345500 -0.12438100 0.50783100
v -0.01446700 -0.12381200 0.51402300
v -0.02065900 -0.12143800 0.51243100
v -0.02194000 -0.12037900 0.51945200
v -0.01492800 -0.12333100 0.52048800
v -0.02264200 -0.11931900 0.52621900
v -0.01499900 -0.12265300 0.52694900
v -0.01500800 -0.12175900 0.53318800
v -0.02299000 -0.11809000 0.53245800
v -0.01503200 -0.12031800 0.53900800
v -0.02301400 -0.11645200 0.53812300
v -0.02279200 -0.11427100 0.54302500
v -0.02222700 -0.11133800 0.54739900
v -0.02134700 -0.10789600 0.55090700
v -0.02010800 -0.10383200 0.55385500
v -0.01871900 -0.09940600 0.55615300
v -0.01664700 -0.09407000 0.55835200
v -0.01428300 -0.08866500 0.56001400
v -0.01147700 -0.08292900 0.56139400
v -0.00814300 -0.07741000 0.56257100
v -0.00559500 -0.07286200 0.56322100
v -0.00293000 -0.07003600 0.56361700
v -0.00000100 -0.06951800 0.56372000
v 0.00292800 -0.07003600 0.56361700
v 0.00559800 -0.07286200 0.56322100
v 0.00814000 -0.07741000 0.56257100
v 0.01147900 -0.08292900 0.56139400
v 0.01428500 -0.08866500 0.56001400
v 0.01664500 -0.09407000 0.55835200
v 0.01871600 -0.09940600 0.55615300
v 0.02011000 -0.10383200 0.55385500
v 0.02134900 -0.10789600 0.55090700
v 0.02222500 -0.11133800 0.54739900
v 0.01485000 -0.11522300 0.54878800
v 0.00753300 -0.11740300 0.54978700
v -0.00000100 -0.12101000 0.54531300
v -0.00756800 -0.12031300 0.54498800
v -0.00753100 -0.12236600 0.53945100
v -0.00748800 -0.12371700 0.53343300
v -0.00749300 -0.12451800 0.52714600
v -0.00751200 -0.12509700 0.52082200
v -0.00739400 -0.12547400 0.51466300
v -0.00699400 -0.12565700 0.50873000
v -0.00635400 -0.12605300 0.50322100
v -0.00583100 -0.12626000 0.49981600
v -0.00594900 -0.12629800 0.49702800
v -0.00000100 -0.12661300 0.49963300
v -0.00000100 -0.12668400 0.49622800
v 0.00583300 -0.12626000 0.49981600
v 0.00594600 -0.12629800 0.49702800
v 0.00633200 -0.12631200 0.49361900
v -0.00000100 -0.12674000 0.49293200
v -0.00633000 -0.12631200 0.49361900
v -0.01214100 -0.12513000 0.49555500
v -0.01790000 -0.12316200 0.49882700
v -0.02263700 -0.12078400 0.50387000
v -0.02615400 -0.11835900 0.51083000
v -0.02812300 -0.11641400 0.51807200
v -0.02922500 -0.11464800 0.52507900
v -0.02960100 -0.11310800 0.53139400
v -0.02952100 -0.11133300 0.53694600
v -0.02906400 -0.10934600 0.54130600
v -0.02807100 -0.10663800 0.54555800
v -0.02675700 -0.10385500 0.54886800
v -0.02495800 -0.10039000 0.55196200
v -0.02298500 -0.09684900 0.55443000
v -0.02000000 -0.09182000 0.55718000
v -0.01682100 -0.08682300 0.55929900
v -0.01323300 -0.08104600 0.56111600
v -0.00886800 -0.07445800 0.56267500
v -0.00622200 -0.07060100 0.56332000
v -0.00310000 -0.06824200 0.56373000
v -0.00000100 -0.06763500 0.56385700
v 0.00309700 -0.06824200 0.56373000
v 0.00622400 -0.07060100 0.56332000
v 0.00887000 -0.07445800 0.56267500
v 0.01323100 -0.08104600 0.56111600
v 0.01682300 -0.08682300 0.55929900
v 0.02000200 -0.09182000 0.55718000
v 0.02298700 -0.09684900 0.55443000
v 0.02496000 -0.10039000 0.55196200
v 0.02675900 -0.10385500 0.54886800
v 0.02806800 -0.10663800 0.54555800
v 0.02906600 -0.10934600 0.54130600
v 0.02279000 -0.11427100 0.54302500
v 0.01502000 -0.11821300 0.54427700
v 0.00756600 -0.12031300 0.54498800
v -0.00000100 -0.12306800 0.53963900
v -0.00000100 -0.12437200 0.53352200
v -0.00000100 -0.12521500 0.52718400
v -0.00000100 -0.12570500 0.52084600
v -0.00000100 -0.12598700 0.51481400
v -0.00000100 -0.12622300 0.50893700
v -0.00000100 -0.12644400 0.50334800
v 0.00635100 -0.12605300 0.50322100
v 0.00987800 -0.12556800 0.50031500
v 0.01083800 -0.12539400 0.49833300
v 0.01214300 -0.12513000 0.49555500
v 0.01324000 -0.12372200 0.49223500
v 0.00681200 -0.12522400 0.49003100
v -0.00000100 -0.12582200 0.48922600
v -0.00681000 -0.12522400 0.49003100
v -0.01323800 -0.12372200 0.49223500
v -0.01948200 -0.12128800 0.49611000
v -0.02465200 -0.11840600 0.50188300
v -0.02812700 -0.11563200 0.50942700
v -0.02998300 -0.11349400 0.51698000
v -0.03093900 -0.11171000 0.52412800
v -0.03124900 -0.11007100 0.53042400
v -0.03112700 -0.10833400 0.53575400
v -0.03064200 -0.10637900 0.53988400
v -0.02967200 -0.10390700 0.54381100
v -0.02848500 -0.10119000 0.54696100
v -0.02680400 -0.09787000 0.54998000
v -0.02493000 -0.09452200 0.55246600
v -0.02217500 -0.08952200 0.55530500
v -0.01929800 -0.08450700 0.55754700
v -0.01573400 -0.07858800 0.55971300
v -0.01113800 -0.07158100 0.56173300
v -0.00834100 -0.06752200 0.56251900
v -0.00413100 -0.06455100 0.56324500
v -0.00000100 -0.06374500 0.56352700
v 0.00413300 -0.06455100 0.56324500
v 0.00833800 -0.06752200 0.56251900
v 0.01113500 -0.07158100 0.56173300
v 0.01573600 -0.07858800 0.55971300
v 0.01930000 -0.08450700 0.55754700
v 0.02217700 -0.08952200 0.55530500
v 0.02492700 -0.09452200 0.55246600
v 0.02680200 -0.09787000 0.54998000
v 0.02848700 -0.10119000 0.54696100
v 0.02967400 -0.10390700 0.54381100
v 0.03064400 -0.10637900 0.53988400
v 0.03112400 -0.10833400 0.53575400
v 0.02952300 -0.11133300 0.53694600
v 0.02301100 -0.11645200 0.53812300
v 0.01502900 -0.12031800 0.53900800
v 0.00752800 -0.12236600 0.53945100
v 0.00749000 -0.12371700 0.53343300
v 0.00749000 -0.12451800 0.52714600
v 0.00750900 -0.12509700 0.52082200
v 0.00739600 -0.12547400 0.51466300
v 0.00699100 -0.12565700 0.50873000
v 0.01345700 -0.12438100 0.50783100
v 0.01154500 -0.12512100 0.50303700
v 0.01504800 -0.12411800 0.50101700
v 0.01789700 -0.12316200 0.49882700
v 0.01948400 -0.12128800 0.49611000
v 0.01995000 -0.11908900 0.49398700
v 0.01362600 -0.12168800 0.48993700
v 0.00703400 -0.12333600 0.48760100
v -0.00000100 -0.12398100 0.48671100
v -0.00703600 -0.12334100 0.48760100
v -0.01362900 -0.12168800 0.48993700
v -0.01995300 -0.11909300 0.49398200
v -0.02545700 -0.11586800 0.50024900
v -0.02882900 -0.11289600 0.50823100
v -0.03078300 -0.11074000 0.51599600
v -0.03178600 -0.10905400 0.52322900
v -0.03200700 -0.10734000 0.52947300
v -0.03169200 -0.10563500 0.53453900
v -0.03111800 -0.10373300 0.53843400
v -0.03014700 -0.10153900 0.54197900
v -0.02903100 -0.09889200 0.54494600
v -0.02754800 -0.09570000 0.54786100
v -0.02575400 -0.09254000 0.55037100
v -0.02310300 -0.08768000 0.55305900
v -0.02033900 -0.08276900 0.55510800
v -0.01686800 -0.07695800 0.55727400
v -0.01240400 -0.06989500 0.55920900
v -0.00959800 -0.06574200 0.56005200
v -0.00466800 -0.06240300 0.56088100
v -0.00000100 -0.06142400 0.56123400
v 0.00467000 -0.06240300 0.56088100
v 0.00959500 -0.06574200 0.56005200
v 0.01240200 -0.06989500 0.55920900
v 0.01687100 -0.07695800 0.55727400
v 0.02034100 -0.08276900 0.55510300
v 0.02310500 -0.08768000 0.55305900
v 0.02575100 -0.09254000 0.55037100
v 0.02754600 -0.09570000 0.54786100
v 0.02903400 -0.09889200 0.54494600
v 0.03014500 -0.10153900 0.54197900
v 0.03111500 -0.10373300 0.53843400
v 0.03168900 -0.10563500 0.53453900
v 0.03200500 -0.10734000 0.52947300
v 0.03125100 -0.11007100 0.53042400
v 0.02960300 -0.11310800 0.53139400
v 0.02299200 -0.11809000 0.53245800
v 0.01500600 -0.12175900 0.53318800
v 0.01499600 -0.12265300 0.52694900
v 0.01492600 -0.12333100 0.52048800
v 0.01446900 -0.12381200 0.51402300
v 0.01823100 -0.12280900 0.50588100
v 0.02263900 -0.12078400 0.50387000
v 0.02465400 -0.11840600 0.50188300
v 0.02545500 -0.11586800 0.50025400
v 0.02812900 -0.11563200 0.50942700
v 0.02882200 -0.11289200 0.50823100
v 0.02998500 -0.11349400 0.51698000
v 0.03078100 -0.11074000 0.51599600
v 0.03178400 -0.10905400 0.52322900
v 0.03093600 -0.11171000 0.52412800
v 0.02922200 -0.11464800 0.52507900
v 0.02264400 -0.11931900 0.52621900
v 0.02193700 -0.12037900 0.51945200
v 0.02066100 -0.12143800 0.51243100
v 0.02615600 -0.11835900 0.51083000
v 0.02812000 -0.11641400 0.51807200
vn -0.00000000 -0.47100000 -0.88210000
vn -0.00000000 -0.33940000 -0.94060000
vn 0.18420000 -0.45900000 -0.86910000
vn 0.16680000 -0.33610000 -0.92700000
vn -0.00000000 -0.24310000 -0.97000000
vn 0.15290000 -0.23760000 -0.95930000
vn 0.13660000 -0.16740000 -0.97640000
vn -0.00000000 -0.17140000 -0.98520000
vn 0.11060000 -0.12290000 -0.98620000
vn -0.00000000 -0.12280000 -0.99240000
vn 0.08510000 -0.09100000 -0.99220000
vn -0.00000000 -0.09130000 -0.99580000
vn 0.06300000 -0.08610000 -0.99430000
vn -0.00000000 -0.08320000 -0.99650000
vn 0.04090000 -0.08120000 -0.99590000
vn -0.00000000 -0.08130000 -0.99670000
vn -0.04100000 -0.08130000 -0.99580000
vn -0.06300000 -0.08610000 -0.99430000
vn -0.08520000 -0.09090000 -0.99220000
vn -0.11060000 -0.12290000 -0.98620000
vn -0.13650000 -0.16740000 -0.97640000
vn -0.15290000 -0.23760000 -0.95930000
vn -0.16680000 -0.33600000 -0.92700000
vn -0.18420000 -0.45900000 -0.86910000
vn -0.19550000 -0.60850000 -0.76910000
vn -0.19350000 -0.75930000 -0.62140000
vn -0.00000000 -0.63120000 -0.77560000
vn 0.19550000 -0.60850000 -0.76910000
vn 0.36380000 -0.56950000 -0.73710000
vn 0.34190000 -0.43460000 -0.83320000
vn 0.31760000 -0.31020000 -0.89610000
vn 0.28540000 -0.22040000 -0.93270000
vn 0.24580000 -0.16210000 -0.95570000
vn 0.20260000 -0.12400000 -0.97140000
vn 0.13650000 -0.09500000 -0.98610000
vn 0.09240000 -0.08760000 -0.99190000
vn 0.07020000 -0.06810000 -0.99520000
vn -0.00000000 -0.05980000 -0.99820000
vn -0.07020000 -0.06810000 -0.99520000
vn -0.09240000 -0.08770000 -0.99190000
vn -0.13650000 -0.09500000 -0.98610000
vn -0.20260000 -0.12400000 -0.97140000
vn -0.24570000 -0.16220000 -0.95570000
vn -0.28540000 -0.22050000 -0.93270000
vn -0.31750000 -0.31020000 -0.89610000
vn -0.34200000 -0.43460000 -0.83320000
vn -0.36360000 -0.56960000 -0.73710000
vn -0.37450000 -0.69850000 -0.60980000
vn -0.36610000 -0.81150000 -0.45550000
vn -0.32070000 -0.93660000 -0.14120000
vn -0.33330000 -0.91940000 -0.20900000
vn -0.16940000 -0.96430000 -0.20340000
vn -0.17890000 -0.93340000 -0.31110000
vn -0.34890000 -0.88300000 -0.31390000
vn -0.18690000 -0.87110000 -0.45420000
vn -0.00000000 -0.77570000 -0.63110000
vn 0.19340000 -0.75930000 -0.62130000
vn 0.37450000 -0.69860000 -0.60970000
vn 0.54310000 -0.59770000 -0.58970000
vn 0.52240000 -0.47740000 -0.70660000
vn 0.48920000 -0.36180000 -0.79360000
vn 0.44490000 -0.27470000 -0.85240000
vn 0.38600000 -0.19970000 -0.90060000
vn 0.33130000 -0.14180000 -0.93280000
vn 0.27470000 -0.10200000 -0.95610000
vn 0.21280000 -0.07350000 -0.97430000
vn 0.16180000 -0.04700000 -0.98570000
vn 0.08970000 -0.01860000 -0.99580000
vn -0.00000000 -0.01020000 -0.99990000
vn -0.08970000 -0.01860000 -0.99580000
vn -0.16220000 -0.04690000 -0.98560000
vn -0.21280000 -0.07350000 -0.97430000
vn -0.27460000 -0.10190000 -0.95610000
vn -0.33150000 -0.14180000 -0.93280000
vn -0.38600000 -0.19960000 -0.90070000
vn -0.44490000 -0.27500000 -0.85230000
vn -0.48930000 -0.36170000 -0.79360000
vn -0.52250000 -0.47720000 -0.70660000
vn -0.54310000 -0.59770000 -0.58970000
vn -0.54720000 -0.70500000 -0.45120000
vn -0.53360000 -0.78420000 -0.31670000
vn -0.51310000 -0.83250000 -0.20910000
vn -0.48880000 -0.86160000 -0.13670000
vn -0.31400000 -0.94420000 -0.09950000
vn -0.46660000 -0.88160000 -0.07090000
vn -0.30570000 -0.94970000 -0.06740000
vn -0.43990000 -0.89600000 -0.06030000
vn -0.38820000 -0.92030000 -0.04860000
vn -0.27350000 -0.96050000 -0.05180000
vn -0.25290000 -0.96650000 -0.04370000
vn -0.31860000 -0.94690000 -0.04410000
vn -0.20590000 -0.97770000 -0.04120000
vn -0.23780000 -0.97110000 -0.02180000
vn -0.11620000 -0.99250000 -0.03940000
vn -0.12950000 -0.99150000 -0.01160000
vn -0.00000000 -0.99890000 -0.04660000
vn -0.00000000 -1.00000000 -0.00840000
vn 0.12950000 -0.99150000 -0.01160000
vn 0.11610000 -0.99250000 -0.03940000
vn -0.00000000 -0.99840000 -0.05640000
vn -0.13080000 -0.98960000 -0.05990000
vn -0.14410000 -0.98740000 -0.06540000
vn -0.15100000 -0.98640000 -0.06430000
vn -0.15660000 -0.98230000 -0.10260000
vn -0.16440000 -0.97680000 -0.13690000
vn -0.00000000 -0.99080000 -0.13530000
vn -0.00000000 -0.97880000 -0.20470000
vn -0.00000000 -0.95040000 -0.31100000
vn -0.00000000 -0.88560000 -0.46450000
vn 0.18690000 -0.87110000 -0.45420000
vn 0.36610000 -0.81160000 -0.45540000
vn 0.54720000 -0.70500000 -0.45120000
vn 0.76760000 -0.50170000 -0.39890000
vn 0.75350000 -0.40970000 -0.51410000
vn 0.71680000 -0.31870000 -0.62020000
vn 0.67370000 -0.23330000 -0.70120000
vn 0.62280000 -0.16240000 -0.76530000
vn 0.55850000 -0.09300000 -0.82430000
vn 0.48440000 -0.05250000 -0.87330000
vn 0.39880000 -0.02230000 -0.91680000
vn 0.32380000 0.00300000 -0.94610000
vn 0.25040000 0.06100000 -0.96620000
vn 0.13570000 0.11620000 -0.98390000
vn -0.00000000 0.12370000 -0.99230000
vn -0.13580000 0.11630000 -0.98390000
vn -0.25060000 0.06100000 -0.96620000
vn -0.32380000 0.00310000 -0.94610000
vn -0.39900000 -0.02200000 -0.91670000
vn -0.48430000 -0.05270000 -0.87330000
vn -0.55850000 -0.09280000 -0.82430000
vn -0.62330000 -0.16230000 -0.76500000
vn -0.67350000 -0.23360000 -0.70130000
vn -0.71650000 -0.31900000 -0.62040000
vn -0.75350000 -0.40950000 -0.51430000
vn -0.76780000 -0.50120000 -0.39900000
vn -0.76850000 -0.57460000 -0.28150000
vn -0.75600000 -0.63070000 -0.17490000
vn -0.73000000 -0.67630000 -0.09860000
vn -0.69390000 -0.71910000 -0.03770000
vn -0.62870000 -0.77760000 -0.00420000
vn -0.55050000 -0.83360000 0.04470000
vn -0.44470000 -0.89180000 0.08290000
vn -0.31300000 -0.94290000 0.11410000
vn -0.16580000 -0.97690000 0.13480000
vn -0.00000000 -0.98890000 0.14840000
vn 0.16570000 -0.97690000 0.13480000
vn 0.31310000 -0.94290000 0.11410000
vn 0.23790000 -0.97100000 -0.02190000
vn 0.20580000 -0.97770000 -0.04120000
vn 0.13070000 -0.98960000 -0.05990000
vn -0.00000000 -0.99770000 -0.06800000
vn -0.00000000 -0.99760000 -0.06900000
vn -0.00000000 -0.99560000 -0.09400000
vn 0.16440000 -0.97690000 -0.13690000
vn 0.16940000 -0.96430000 -0.20340000
vn 0.17890000 -0.93340000 -0.31110000
vn 0.34890000 -0.88300000 -0.31400000
vn 0.53360000 -0.78420000 -0.31680000
vn 0.76840000 -0.57450000 -0.28180000
vn 0.92930000 -0.35790000 -0.09090000
vn 0.95080000 -0.25820000 -0.17130000
vn 0.95320000 -0.16110000 -0.25590000
vn 0.94100000 -0.07930000 -0.32900000
vn 0.90720000 -0.02170000 -0.42000000
vn 0.86630000 0.02360000 -0.49890000
vn 0.80810000 0.06340000 -0.58570000
vn 0.75530000 0.09860000 -0.64790000
vn 0.69710000 0.13100000 -0.70490000
vn 0.63880000 0.17490000 -0.74920000
vn 0.57860000 0.21700000 -0.78620000
vn 0.47850000 0.32980000 -0.81380000
vn 0.27310000 0.43080000 -0.86010000
vn -0.00010000 0.44080000 -0.89760000
vn -0.27310000 0.43090000 -0.86010000
vn -0.47840000 0.32980000 -0.81390000
vn -0.57830000 0.21660000 -0.78650000
vn -0.63900000 0.17520000 -0.74900000
vn -0.69720000 0.13130000 -0.70480000
vn -0.75520000 0.09810000 -0.64820000
vn -0.80780000 0.06300000 -0.58610000
vn -0.86600000 0.02330000 -0.49950000
vn -0.90750000 -0.02190000 -0.41950000
vn -0.94110000 -0.07920000 -0.32880000
vn -0.95320000 -0.16070000 -0.25610000
vn -0.95100000 -0.25730000 -0.17120000
vn -0.92890000 -0.35900000 -0.09120000
vn -0.90200000 -0.43130000 -0.02150000
vn -0.86270000 -0.50430000 0.03730000
vn -0.81220000 -0.57150000 0.11750000
vn -0.72720000 -0.64920000 0.22280000
vn -0.60140000 -0.72780000 0.32960000
vn -0.43020000 -0.81200000 0.39450000
vn -0.22760000 -0.87630000 0.42470000
vn 0.00010000 -0.90310000 0.42950000
vn 0.22780000 -0.87580000 0.42550000
vn 0.43140000 -0.81020000 0.39700000
vn 0.60240000 -0.72570000 0.33230000
vn 0.44460000 -0.89190000 0.08290000
vn 0.31860000 -0.94690000 -0.04400000
vn 0.25300000 -0.96650000 -0.04370000
vn 0.27350000 -0.96050000 -0.05200000
vn 0.14410000 -0.98740000 -0.06530000
vn 0.15110000 -0.98640000 -0.06440000
vn 0.15660000 -0.98230000 -0.10270000
vn 0.32060000 -0.93670000 -0.14110000
vn 0.33340000 -0.91930000 -0.20910000
vn 0.51300000 -0.83250000 -0.20930000
vn 0.75600000 -0.63070000 -0.17490000
vn 0.90240000 -0.43040000 -0.02070000
vn 0.90600000 -0.41860000 0.06240000
vn 0.95110000 -0.30890000 0.00630000
vn 0.97760000 -0.20330000 -0.05500000
vn 0.99350000 -0.03810000 -0.10700000
vn 0.98510000 0.06800000 -0.15780000
vn 0.97400000 0.12850000 -0.18650000
vn 0.95370000 0.16140000 -0.25390000
vn 0.92640000 0.17100000 -0.33550000
vn 0.87360000 0.18160000 -0.45140000
vn 0.83200000 0.21050000 -0.51340000
vn 0.79320000 0.25290000 -0.55400000
vn 0.75700000 0.30950000 -0.57550000
vn 0.71370000 0.36220000 -0.59960000
vn 0.60590000 0.45410000 -0.65310000
vn 0.35100000 0.59660000 -0.72170000
vn -0.00010000 0.63220000 -0.77480000
vn -0.35110000 0.59650000 -0.72170000
vn -0.60580000 0.45430000 -0.65320000
vn -0.71330000 0.36150000 -0.60050000
vn -0.75690000 0.30940000 -0.57560000
vn -0.79330000 0.25420000 -0.55320000
vn -0.83180000 0.21000000 -0.51390000
vn -0.87330000 0.18080000 -0.45240000
vn -0.92650000 0.17110000 -0.33520000
vn -0.95400000 0.16200000 -0.25230000
vn -0.97400000 0.12840000 -0.18680000
vn -0.98510000 0.06640000 -0.15870000
vn -0.99360000 -0.03660000 -0.10710000
vn -0.97720000 -0.20490000 -0.05570000
vn -0.95060000 -0.31040000 0.00480000
vn -0.90360000 -0.42420000 0.05990000
vn -0.85420000 -0.49920000 0.14570000
vn -0.77590000 -0.56640000 0.27790000
vn -0.64690000 -0.63030000 0.42930000
vn -0.47350000 -0.70210000 0.53190000
vn -0.25350000 -0.77850000 0.57420000
vn 0.00030000 -0.82230000 0.56900000
vn 0.25370000 -0.77710000 0.57600000
vn 0.47520000 -0.69740000 0.53650000
vn 0.64860000 -0.62530000 0.43400000
vn 0.77930000 -0.55900000 0.28330000
vn 0.72940000 -0.64580000 0.22580000
vn 0.55050000 -0.83360000 0.04470000
vn 0.38810000 -0.92030000 -0.04860000
vn 0.30570000 -0.94980000 -0.06740000
vn 0.31400000 -0.94420000 -0.09950000
vn 0.48890000 -0.86150000 -0.13680000
vn 0.73000000 -0.67630000 -0.09860000
vn 0.86440000 -0.50130000 0.03840000
vn 0.85750000 -0.49220000 0.14970000
vn 0.81410000 -0.56830000 0.11960000
vn 0.62830000 -0.77790000 -0.00430000
vn 0.43990000 -0.89600000 -0.06040000
vn 0.46640000 -0.88170000 -0.07090000
vn 0.69390000 -0.71910000 -0.03780000
vn -0.17870000 -0.45230000 0.87380000
vn -0.00000000 -0.46810000 0.88370000
vn -0.16230000 -0.31910000 0.93370000
vn -0.00000000 -0.32460000 0.94580000
vn -0.14750000 -0.21670000 0.96500000
vn -0.00000000 -0.22330000 0.97480000
vn -0.00070000 -0.15330000 0.98820000
vn -0.13140000 -0.14710000 0.98040000
vn -0.00090000 -0.10520000 0.99450000
vn -0.11000000 -0.10290000 0.98860000
vn -0.09070000 -0.06910000 0.99350000
vn -0.00000000 -0.07130000 0.99750000
vn -0.07380000 -0.06160000 0.99540000
vn -0.00000000 -0.06110000 0.99810000
vn -0.05680000 -0.05560000 0.99680000
vn -0.00000000 -0.05710000 0.99840000
vn 0.05670000 -0.05570000 0.99680000
vn 0.07380000 -0.06170000 0.99540000
vn 0.09060000 -0.06910000 0.99350000
vn 0.11070000 -0.10190000 0.98860000
vn 0.13220000 -0.14770000 0.98020000
vn 0.14750000 -0.21670000 0.96500000
vn 0.16230000 -0.31910000 0.93370000
vn 0.17870000 -0.45240000 0.87380000
vn -0.00000000 -0.63110000 0.77570000
vn -0.19050000 -0.60840000 0.77040000
vn -0.37960000 -0.70310000 0.60130000
vn -0.36440000 -0.56580000 0.73960000
vn -0.33710000 -0.42240000 0.84140000
vn -0.30840000 -0.29210000 0.90530000
vn -0.27480000 -0.19880000 0.94070000
vn -0.23680000 -0.13800000 0.96170000
vn -0.19940000 -0.09690000 0.97510000
vn -0.13770000 -0.06880000 0.98810000
vn -0.10150000 -0.06140000 0.99290000
vn -0.07930000 -0.04820000 0.99570000
vn -0.00000000 -0.02620000 0.99970000
vn 0.07940000 -0.04810000 0.99570000
vn 0.10140000 -0.06140000 0.99290000
vn 0.13770000 -0.06880000 0.98810000
vn 0.19930000 -0.09690000 0.97510000
vn 0.23680000 -0.13810000 0.96170000
vn 0.27480000 -0.19880000 0.94070000
vn 0.30850000 -0.29190000 0.90530000
vn 0.33720000 -0.42250000 0.84130000
vn 0.36440000 -0.56580000 0.73960000
vn 0.19060000 -0.60840000 0.77040000
vn -0.00000000 -0.78460000 0.62000000
vn -0.19390000 -0.76730000 0.61130000
vn -0.37290000 -0.81960000 0.43500000
vn -0.23140000 -0.97270000 0.01710000
vn -0.20390000 -0.97870000 0.02290000
vn -0.31960000 -0.94730000 0.02110000
vn -0.24250000 -0.96950000 0.03590000
vn -0.38860000 -0.92110000 0.02490000
vn -0.26680000 -0.96280000 0.04350000
vn -0.29930000 -0.95290000 0.04930000
vn -0.44430000 -0.89470000 0.04640000
vn -0.47250000 -0.87890000 0.06480000
vn -0.31850000 -0.94510000 0.07340000
vn -0.49720000 -0.86000000 0.11470000
vn -0.32600000 -0.93870000 0.11210000
vn -0.33920000 -0.92350000 0.17950000
vn -0.52020000 -0.83330000 0.18680000
vn -0.35550000 -0.88970000 0.28630000
vn -0.53680000 -0.78980000 0.29670000
vn -0.54630000 -0.71320000 0.43920000
vn -0.53890000 -0.60290000 0.58830000
vn -0.51440000 -0.47550000 0.71360000
vn -0.47730000 -0.35200000 0.80510000
vn -0.43130000 -0.25520000 0.86540000
vn -0.37180000 -0.17740000 0.91120000
vn -0.30970000 -0.12070000 0.94310000
vn -0.24890000 -0.08650000 0.96470000
vn -0.17600000 -0.07140000 0.98180000
vn -0.10450000 -0.06510000 0.99240000
vn -0.05990000 -0.05380000 0.99680000
vn -0.00000000 -0.03200000 0.99950000
vn 0.05990000 -0.05370000 0.99680000
vn 0.10450000 -0.06510000 0.99240000
vn 0.17590000 -0.07140000 0.98180000
vn 0.24910000 -0.08630000 0.96460000
vn 0.30970000 -0.12080000 0.94310000
vn 0.37170000 -0.17760000 0.91120000
vn 0.43120000 -0.25510000 0.86540000
vn 0.47730000 -0.35190000 0.80520000
vn 0.51440000 -0.47580000 0.71350000
vn 0.53890000 -0.60300000 0.58820000
vn 0.37970000 -0.70300000 0.60130000
vn 0.19380000 -0.76740000 0.61120000
vn -0.00000000 -0.90060000 0.43460000
vn -0.18860000 -0.88380000 0.42810000
vn -0.17860000 -0.94350000 0.27910000
vn -0.16970000 -0.97040000 0.17190000
vn -0.16610000 -0.98040000 0.10600000
vn -0.15800000 -0.98470000 0.07380000
vn -0.15260000 -0.98750000 0.03930000
vn -0.14000000 -0.98920000 0.04430000
vn -0.11890000 -0.99160000 0.05180000
vn -0.11210000 -0.99330000 0.02880000
vn -0.12150000 -0.99250000 0.01630000
vn -0.00000000 -0.99950000 0.03220000
vn -0.00000000 -0.99980000 0.01780000
vn 0.11220000 -0.99330000 0.02880000
vn 0.12150000 -0.99250000 0.01630000
vn 0.16460000 -0.97720000 -0.13450000
vn -0.00000000 -0.99190000 -0.12720000
vn -0.16460000 -0.97710000 -0.13450000
vn -0.30750000 -0.94310000 -0.12610000
vn -0.45610000 -0.88420000 -0.10140000
vn -0.56910000 -0.81980000 -0.06380000
vn -0.66070000 -0.75060000 -0.01250000
vn -0.71570000 -0.69800000 0.02140000
vn -0.75230000 -0.65380000 0.08090000
vn -0.77010000 -0.61860000 0.15590000
vn -0.77900000 -0.56830000 0.26500000
vn -0.77790000 -0.49060000 0.39270000
vn -0.75740000 -0.39370000 0.52090000
vn -0.71620000 -0.29700000 0.63150000
vn -0.66730000 -0.20830000 0.71510000
vn -0.61500000 -0.13480000 0.77690000
vn -0.54600000 -0.07370000 0.83460000
vn -0.46330000 -0.03840000 0.88530000
vn -0.36860000 -0.02280000 0.92930000
vn -0.26560000 -0.02020000 0.96390000
vn -0.19100000 0.00920000 0.98150000
vn -0.10180000 0.02680000 0.99440000
vn -0.00000000 0.02330000 0.99970000
vn 0.10170000 0.02670000 0.99450000
vn 0.19110000 0.00930000 0.98150000
vn 0.26560000 -0.02020000 0.96390000
vn 0.36850000 -0.02290000 0.92930000
vn 0.46330000 -0.03830000 0.88540000
vn 0.54590000 -0.07390000 0.83460000
vn 0.61520000 -0.13470000 0.77680000
vn 0.66750000 -0.20790000 0.71500000
vn 0.71640000 -0.29730000 0.63120000
vn 0.75710000 -0.39410000 0.52110000
vn 0.77770000 -0.49070000 0.39290000
vn 0.54630000 -0.71320000 0.43920000
vn 0.37290000 -0.81960000 0.43490000
vn 0.18860000 -0.88390000 0.42810000
vn -0.00000000 -0.96100000 0.27660000
vn -0.00000000 -0.98500000 0.17240000
vn -0.00000000 -0.99470000 0.10320000
vn -0.00000000 -0.99790000 0.06510000
vn -0.00000000 -0.99910000 0.04320000
vn -0.00000000 -0.99920000 0.03980000
vn -0.00000000 -0.99880000 0.04880000
vn 0.11880000 -0.99160000 0.05180000
vn 0.20400000 -0.97870000 0.02270000
vn 0.23140000 -0.97270000 0.01710000
vn 0.30760000 -0.94310000 -0.12590000
vn 0.43150000 -0.80430000 -0.40850000
vn 0.23140000 -0.87270000 -0.43000000
vn 0.00010000 -0.90130000 -0.43320000
vn -0.23130000 -0.87300000 -0.42930000
vn -0.43140000 -0.80460000 -0.40820000
vn -0.62350000 -0.69610000 -0.35600000
vn -0.76750000 -0.58890000 -0.25330000
vn -0.87000000 -0.47220000 -0.14180000
vn -0.89950000 -0.43230000 -0.06270000
vn -0.91590000 -0.40090000 0.01900000
vn -0.93410000 -0.34480000 0.09250000
vn -0.94560000 -0.27310000 0.17650000
vn -0.94210000 -0.19210000 0.27500000
vn -0.92440000 -0.11160000 0.36460000
vn -0.89130000 -0.03810000 0.45180000
vn -0.84710000 0.01260000 0.53130000
vn -0.79960000 0.05950000 0.59760000
vn -0.74970000 0.10090000 0.65400000
vn -0.69970000 0.13780000 0.70100000
vn -0.63920000 0.16580000 0.75100000
vn -0.56370000 0.19120000 0.80350000
vn -0.47370000 0.29430000 0.83010000
vn -0.27200000 0.41810000 0.86670000
vn -0.00010000 0.44970000 0.89320000
vn 0.27210000 0.41810000 0.86670000
vn 0.47380000 0.29430000 0.83000000
vn 0.56370000 0.19140000 0.80350000
vn 0.63910000 0.16570000 0.75100000
vn 0.69980000 0.13810000 0.70090000
vn 0.74990000 0.10070000 0.65390000
vn 0.79980000 0.05960000 0.59720000
vn 0.84710000 0.01330000 0.53130000
vn 0.89130000 -0.03800000 0.45170000
vn 0.92450000 -0.11130000 0.36460000
vn 0.94240000 -0.19150000 0.27440000
vn 0.94580000 -0.27260000 0.17630000
vn 0.77920000 -0.56820000 0.26480000
vn 0.53670000 -0.78980000 0.29680000
vn 0.35550000 -0.88980000 0.28620000
vn 0.17860000 -0.94350000 0.27910000
vn 0.16970000 -0.97040000 0.17200000
vn 0.16610000 -0.98040000 0.10590000
vn 0.15800000 -0.98470000 0.07390000
vn 0.15260000 -0.98750000 0.03930000
vn 0.13990000 -0.98920000 0.04430000
vn 0.26690000 -0.96270000 0.04350000
vn 0.24260000 -0.96950000 0.03580000
vn 0.31970000 -0.94730000 0.02100000
vn 0.45580000 -0.88430000 -0.10120000
vn 0.62380000 -0.69540000 -0.35670000
vn 0.66770000 -0.58270000 -0.46330000
vn 0.47850000 -0.69230000 -0.54020000
vn 0.25680000 -0.77270000 -0.58050000
vn 0.00030000 -0.80680000 -0.59080000
vn -0.25680000 -0.77340000 -0.57950000
vn -0.47860000 -0.69280000 -0.53940000
vn -0.66700000 -0.58470000 -0.46180000
vn -0.82400000 -0.46130000 -0.32900000
vn -0.92340000 -0.32700000 -0.20080000
vn -0.94430000 -0.31190000 -0.10500000
vn -0.95320000 -0.30240000 -0.00420000
vn -0.96600000 -0.24590000 0.07950000
vn -0.97760000 -0.15160000 0.14610000
vn -0.97260000 -0.06090000 0.22440000
vn -0.95880000 0.01830000 0.28340000
vn -0.93390000 0.07430000 0.34980000
vn -0.89800000 0.10470000 0.42750000
vn -0.86100000 0.15520000 0.48440000
vn -0.83130000 0.21110000 0.51410000
vn -0.80560000 0.26080000 0.53200000
vn -0.77200000 0.29800000 0.56140000
vn -0.72720000 0.33970000 0.59650000
vn -0.61230000 0.46360000 0.64050000
vn -0.34770000 0.65030000 0.67550000
vn -0.00010000 0.70280000 0.71140000
vn 0.34780000 0.65020000 0.67550000
vn 0.61250000 0.46340000 0.64040000
vn 0.72710000 0.33980000 0.59650000
vn 0.77200000 0.29810000 0.56140000
vn 0.80580000 0.26130000 0.53150000
vn 0.83150000 0.21100000 0.51390000
vn 0.86110000 0.15490000 0.48430000
vn 0.89780000 0.10500000 0.42780000
vn 0.93390000 0.07420000 0.34980000
vn 0.95900000 0.01920000 0.28260000
vn 0.97290000 -0.06000000 0.22350000
vn 0.97760000 -0.15120000 0.14630000
vn 0.96640000 -0.24480000 0.07890000
vn 0.93430000 -0.34420000 0.09230000
vn 0.77010000 -0.61860000 0.15580000
vn 0.52020000 -0.83330000 0.18700000
vn 0.33910000 -0.92350000 0.17950000
vn 0.32590000 -0.93870000 0.11200000
vn 0.31840000 -0.94510000 0.07350000
vn 0.29930000 -0.95290000 0.04940000
vn 0.38850000 -0.92110000 0.02490000
vn 0.56900000 -0.81990000 -0.06370000
vn 0.76780000 -0.58830000 -0.25390000
vn 0.82450000 -0.45970000 -0.33000000
vn 0.87070000 -0.47080000 -0.14230000
vn 0.92420000 -0.32410000 -0.20190000
vn 0.89970000 -0.43200000 -0.06270000
vn 0.94460000 -0.31070000 -0.10580000
vn 0.95330000 -0.30210000 -0.00400000
vn 0.91590000 -0.40090000 0.01890000
vn 0.75240000 -0.65380000 0.08070000
vn 0.49720000 -0.86000000 0.11460000
vn 0.47250000 -0.87890000 0.06480000
vn 0.44440000 -0.89460000 0.04640000
vn 0.66060000 -0.75060000 -0.01240000
vn 0.71550000 -0.69830000 0.02170000
vt 0.10650900 0.84269500
vt 0.10653400 0.83819200
vt 0.10018000 0.84259600
vt 0.10031600 0.83813000
vt 0.10654600 0.83350400
vt 0.10060000 0.83343000
vt 0.10111800 0.82860600
vt 0.10657100 0.82876600
vt 0.10193200 0.82378200
vt 0.10658300 0.82394200
vt 0.10293100 0.81904500
vt 0.10660800 0.81914300
vt 0.10386900 0.81524500
vt 0.10662000 0.81540500
vt 0.10456000 0.81282700
vt 0.10663300 0.81246900
vt 0.10870500 0.81285100
vt 0.10937100 0.81526900
vt 0.11028400 0.81906900
vt 0.11124700 0.82381900
vt 0.11201200 0.82864300
vt 0.11249300 0.83347900
vt 0.11274000 0.83818000
vt 0.11283800 0.84264600
vt 0.11288800 0.84695100
vt 0.11291200 0.85120700
vt 0.10649700 0.84701300
vt 0.10009400 0.84690200
vt 0.09367900 0.84650700
vt 0.09392500 0.84223800
vt 0.09429600 0.83779700
vt 0.09497400 0.83298600
vt 0.09609700 0.82812500
vt 0.09779900 0.82323900
vt 0.09990900 0.81832900
vt 0.10188300 0.81420800
vt 0.10385700 0.81128400
vt 0.10664500 0.81065500
vt 0.10942100 0.81130900
vt 0.11137000 0.81424500
vt 0.11330700 0.81837800
vt 0.11536700 0.82330100
vt 0.11703300 0.82821100
vt 0.11811900 0.83308400
vt 0.11876000 0.83789600
vt 0.11909300 0.84233700
vt 0.11931500 0.84661800
vt 0.11946300 0.85082500
vt 0.11958700 0.85511800
vt 0.12020400 0.86930600
vt 0.11994400 0.86432200
vt 0.11309700 0.86485200
vt 0.11301100 0.86009000
vt 0.11974700 0.85959700
vt 0.11296200 0.85553800
vt 0.10647200 0.85124500
vt 0.10003200 0.85115800
vt 0.09349400 0.85072600
vt 0.08632600 0.84967800
vt 0.08691800 0.84555700
vt 0.08772000 0.84128900
vt 0.08862000 0.83698300
vt 0.09024900 0.83193700
vt 0.09227200 0.82692800
vt 0.09491200 0.82163500
vt 0.09812000 0.81599700
vt 0.10063700 0.81195100
vt 0.10352400 0.80924900
vt 0.10664500 0.80868100
vt 0.10976600 0.80927300
vt 0.11262900 0.81200000
vt 0.11510800 0.81607100
vt 0.11827900 0.82173400
vt 0.12087000 0.82703900
vt 0.12285600 0.83207300
vt 0.12443500 0.83713100
vt 0.12531100 0.84143700
vt 0.12607600 0.84571700
vt 0.12664400 0.84983800
vt 0.12710000 0.85420500
vt 0.12745800 0.85859800
vt 0.12772900 0.86343400
vt 0.12775400 0.86868900
vt 0.12035200 0.87450000
vt 0.12732200 0.87437700
vt 0.12010500 0.87978000
vt 0.12624900 0.88029800
vt 0.12406500 0.88604800
vt 0.11920400 0.88490000
vt 0.11771100 0.88950200
vt 0.12093100 0.89076000
vt 0.11554000 0.89189500
vt 0.11699600 0.89395600
vt 0.11191300 0.89301800
vt 0.11213500 0.89543600
vt 0.10630000 0.89314200
vt 0.10628700 0.89580600
vt 0.10045200 0.89538700
vt 0.10068600 0.89296900
vt 0.10632400 0.88892200
vt 0.11243100 0.88902100
vt 0.11303600 0.88450600
vt 0.11334400 0.87968200
vt 0.11335600 0.87475900
vt 0.11323300 0.86975000
vt 0.10639800 0.86988600
vt 0.10642300 0.86491400
vt 0.10643500 0.86016400
vt 0.10646000 0.85557500
vt 0.09995800 0.85547600
vt 0.09333300 0.85500700
vt 0.08582000 0.85403300
vt 0.07871400 0.85289800
vt 0.07959000 0.84848100
vt 0.08067500 0.84449600
vt 0.08200800 0.84021500
vt 0.08363600 0.83621800
vt 0.08616500 0.83074000
vt 0.08900300 0.82559600
vt 0.09265500 0.81988400
vt 0.09682500 0.81409700
vt 0.10016800 0.80975500
vt 0.10342500 0.80749700
vt 0.10665700 0.80696600
vt 0.10987700 0.80752200
vt 0.11311000 0.80980400
vt 0.11642800 0.81417100
vt 0.12054900 0.81999500
vt 0.12415100 0.82574400
vt 0.12695200 0.83091300
vt 0.12944400 0.83640300
vt 0.13103600 0.84041200
vt 0.13233100 0.84470600
vt 0.13338000 0.84869100
vt 0.13423100 0.85312000
vt 0.13477400 0.85719100
vt 0.13514400 0.86233600
vt 0.13502000 0.86778900
vt 0.13421800 0.87429000
vt 0.13220800 0.88098900
vt 0.12864200 0.88747900
vt 0.12381800 0.89246300
vt 0.11826700 0.89580600
vt 0.11260400 0.89783000
vt 0.10627500 0.89870600
vt 0.09995800 0.89778000
vt 0.09430800 0.89570800
vt 0.09560300 0.89385700
vt 0.09708400 0.89180900
vt 0.10021700 0.88897200
vt 0.10633700 0.88438200
vt 0.10636100 0.87968200
vt 0.10638600 0.87487000
vt 0.09957600 0.86970100
vt 0.09973600 0.86479100
vt 0.09987200 0.86002900
vt 0.09314800 0.85948600
vt 0.08543700 0.85842500
vt 0.07813400 0.85696900
vt 0.07516100 0.86163200
vt 0.07562900 0.85646300
vt 0.07623400 0.85233000
vt 0.07711000 0.84798800
vt 0.07819600 0.84387900
vt 0.07951600 0.83956100
vt 0.08115600 0.83539100
vt 0.08380900 0.82969200
vt 0.08667100 0.82439900
vt 0.09047100 0.81841500
vt 0.09496200 0.81206200
vt 0.09846500 0.80776800
vt 0.10267200 0.80496800
vt 0.10667000 0.80430200
vt 0.11065500 0.80500500
vt 0.11483700 0.80783000
vt 0.11830400 0.81216000
vt 0.12275700 0.81855100
vt 0.12649500 0.82455900
vt 0.12932100 0.82987700
vt 0.13191200 0.83558900
vt 0.13352800 0.83977100
vt 0.13482300 0.84411400
vt 0.13587200 0.84823400
vt 0.13671100 0.85257700
vt 0.13727800 0.85671000
vt 0.13771000 0.86189200
vt 0.13766100 0.86764100
vt 0.13678500 0.87441400
vt 0.13481100 0.88152000
vt 0.13102300 0.88861400
vt 0.12570600 0.89425200
vt 0.11953700 0.89811300
vt 0.11317100 0.90042000
vt 0.10626200 0.90130900
vt 0.09937800 0.90035900
vt 0.09302500 0.89800200
vt 0.08689300 0.89409100
vt 0.08879300 0.89231500
vt 0.09170500 0.89063700
vt 0.09492500 0.88940300
vt 0.09346900 0.88478900
vt 0.09965000 0.88444400
vt 0.09937800 0.87962000
vt 0.09940300 0.87469800
vt 0.09260500 0.86918300
vt 0.09290100 0.86421100
vt 0.08511700 0.86326100
vt 0.07772700 0.86210100
vt 0.07516100 0.86739400
vt 0.07398900 0.87431500
vt 0.07313700 0.86733200
vt 0.07313700 0.86127500
vt 0.07365500 0.85608100
vt 0.07429700 0.85182400
vt 0.07513600 0.84760500
vt 0.07622200 0.84333600
vt 0.07760300 0.83899400
vt 0.07928100 0.83460200
vt 0.08205700 0.82879100
vt 0.08494400 0.82341200
vt 0.08876800 0.81735400
vt 0.09346900 0.81056900
vt 0.09677500 0.80641100
vt 0.10190700 0.80310500
vt 0.10667000 0.80220400
vt 0.11143200 0.80314200
vt 0.11653900 0.80649800
vt 0.11982100 0.81066800
vt 0.12444800 0.81749000
vt 0.12823500 0.82358500
vt 0.13107300 0.82898800
vt 0.13379900 0.83482400
vt 0.13544000 0.83922800
vt 0.13678500 0.84358300
vt 0.13783300 0.84786400
vt 0.13864800 0.85209600
vt 0.13925200 0.85635200
vt 0.13973300 0.86154600
vt 0.13968400 0.86760400
vt 0.13877100 0.87458600
vt 0.13683400 0.88200100
vt 0.13282400 0.88958800
vt 0.12702600 0.89575700
vt 0.12042600 0.89989000
vt 0.11360300 0.90237000
vt 0.10626200 0.90325800
vt 0.09892200 0.90230800
vt 0.09211200 0.89976700
vt 0.08556100 0.89558400
vt 0.07981200 0.88936600
vt 0.08162500 0.88840400
vt 0.08400600 0.88729400
vt 0.08859600 0.88590000
vt 0.09261800 0.87965700
vt 0.09242000 0.87437700
vt 0.08505500 0.86850400
vt 0.07780100 0.86755400
vt 0.07597500 0.87416700
vt 0.07587600 0.88174200
vt 0.07789900 0.88128500
vt 0.08050300 0.88078000
vt 0.08647400 0.88012600
vt 0.08543700 0.87420400
vt 0.07855300 0.87405600
vt 0.53307700 0.89707100
vt 0.53782800 0.89703000
vt 0.53313900 0.90084100
vt 0.53777700 0.90081000
vt 0.53330400 0.90480700
vt 0.53772500 0.90469400
vt 0.53767300 0.90868100
vt 0.53365500 0.90880500
vt 0.53762200 0.91262600
vt 0.53422300 0.91275000
vt 0.53490500 0.91658200
vt 0.53757000 0.91650000
vt 0.53555600 0.91960900
vt 0.53752900 0.91947500
vt 0.53602100 0.92152000
vt 0.53749800 0.92177800
vt 0.53897500 0.92156100
vt 0.53949100 0.91966100
vt 0.54022500 0.91666500
vt 0.54102000 0.91284300
vt 0.54168100 0.90889800
vt 0.54213500 0.90492100
vt 0.54241400 0.90096500
vt 0.54256900 0.89719500
vt 0.53787000 0.89340400
vt 0.53305600 0.89342500
vt 0.52806700 0.89020200
vt 0.52820200 0.89376600
vt 0.52836700 0.89737000
vt 0.52861500 0.90113000
vt 0.52910000 0.90516900
vt 0.52992600 0.90920800
vt 0.53117600 0.91321500
vt 0.53270500 0.91718100
vt 0.53410000 0.92045600
vt 0.53549400 0.92273900
vt 0.53747700 0.92320300
vt 0.53947100 0.92279000
vt 0.54092700 0.92054900
vt 0.54241400 0.91731600
vt 0.54404600 0.91340100
vt 0.54540000 0.90941400
vt 0.54632900 0.90539600
vt 0.54692800 0.90136800
vt 0.54726900 0.89761800
vt 0.54753800 0.89402400
vt 0.54269300 0.89354900
vt 0.53792100 0.88984000
vt 0.53304600 0.88984000
vt 0.52795400 0.88657600
vt 0.53029800 0.85455600
vt 0.53102100 0.85592000
vt 0.52707600 0.85660100
vt 0.52976100 0.85786200
vt 0.52459700 0.86020600
vt 0.52831500 0.86128100
vt 0.52758200 0.86560800
vt 0.52274800 0.86503000
vt 0.52190100 0.87013300
vt 0.52735500 0.87008100
vt 0.52156000 0.87499700
vt 0.52744800 0.87450200
vt 0.52764400 0.87874700
vt 0.52161200 0.87951100
vt 0.52780900 0.88277500
vt 0.52187000 0.88365300
vt 0.52219000 0.88742300
vt 0.52259300 0.89113200
vt 0.52305800 0.89462300
vt 0.52365700 0.89823800
vt 0.52433900 0.90186400
vt 0.52555700 0.90608800
vt 0.52706500 0.91024000
vt 0.52902800 0.91455800
vt 0.53148600 0.91860700
vt 0.53336600 0.92185000
vt 0.53531800 0.92384400
vt 0.53745700 0.92423600
vt 0.53960500 0.92390600
vt 0.54162900 0.92196400
vt 0.54359200 0.91877200
vt 0.54616400 0.91478500
vt 0.54823000 0.91053000
vt 0.54985100 0.90640800
vt 0.55118400 0.90221500
vt 0.55195900 0.89861000
vt 0.55265100 0.89501500
vt 0.55320800 0.89153400
vt 0.54775500 0.89046000
vt 0.54279700 0.88996400
vt 0.53797300 0.88617400
vt 0.53302500 0.88618400
vt 0.53299400 0.88233100
vt 0.53294300 0.87829300
vt 0.53287000 0.87412000
vt 0.53280800 0.86986400
vt 0.53286000 0.86570100
vt 0.53313900 0.86164200
vt 0.53364500 0.85785100
vt 0.53404800 0.85548600
vt 0.53397600 0.85355400
vt 0.53836500 0.85535200
vt 0.53839600 0.85299700
vt 0.54268300 0.85560000
vt 0.54280700 0.85366800
vt 0.54313700 0.85130300
vt 0.53842700 0.85069300
vt 0.53370700 0.85118900
vt 0.52931700 0.85265600
vt 0.52485500 0.85519700
vt 0.52104300 0.85911100
vt 0.51813100 0.86448300
vt 0.51654000 0.87009100
vt 0.51582700 0.87557600
vt 0.51587900 0.88050300
vt 0.51627200 0.88489300
vt 0.51677800 0.88848700
vt 0.51753200 0.89228900
vt 0.51842000 0.89558300
vt 0.51953500 0.89917800
vt 0.52079600 0.90254500
vt 0.52277900 0.90702800
vt 0.52502000 0.91120100
vt 0.52765400 0.91573500
vt 0.53092800 0.92065200
vt 0.53290100 0.92341000
vt 0.53519400 0.92508300
vt 0.53744600 0.92553800
vt 0.53969800 0.92514500
vt 0.54204300 0.92353400
vt 0.54408800 0.92083800
vt 0.54749600 0.91600400
vt 0.55025400 0.91154200
vt 0.55260900 0.90743100
vt 0.55470600 0.90298900
vt 0.55605900 0.89966300
vt 0.55726800 0.89608900
vt 0.55823900 0.89282600
vt 0.55908600 0.88904500
vt 0.55370400 0.88783700
vt 0.54797100 0.88683500
vt 0.54291000 0.88630800
vt 0.53802500 0.88225900
vt 0.53807600 0.87818900
vt 0.53812800 0.87399600
vt 0.53818000 0.86977100
vt 0.53823100 0.86571200
vt 0.53828300 0.86174500
vt 0.53833400 0.85790300
vt 0.54302400 0.85797500
vt 0.54569900 0.85610600
vt 0.54645300 0.85477300
vt 0.54748600 0.85289300
vt 0.54865300 0.85050700
vt 0.54365400 0.84872000
vt 0.53846900 0.84803900
vt 0.53325200 0.84858600
vt 0.52821200 0.85023900
vt 0.52314000 0.85328600
vt 0.51877100 0.85783100
vt 0.51567200 0.86377000
vt 0.51400900 0.86979200
vt 0.51334800 0.87558600
vt 0.51339000 0.88077200
vt 0.51380300 0.88527500
vt 0.51431900 0.88897300
vt 0.51509400 0.89275300
vt 0.51591000 0.89620300
vt 0.51708800 0.89992200
vt 0.51842000 0.90338200
vt 0.52044500 0.90807100
vt 0.52264500 0.91243000
vt 0.52546400 0.91725400
vt 0.52911100 0.92262500
vt 0.53130000 0.92554800
vt 0.53444000 0.92765500
vt 0.53740500 0.92824400
vt 0.54039000 0.92773800
vt 0.54358200 0.92572400
vt 0.54584400 0.92285200
vt 0.54964500 0.91758400
vt 0.55259900 0.91283300
vt 0.55491300 0.90852600
vt 0.55706100 0.90388800
vt 0.55848700 0.90046900
vt 0.55975700 0.89677100
vt 0.56066600 0.89335200
vt 0.56153400 0.88959300
vt 0.56215300 0.88590500
vt 0.55969500 0.88546100
vt 0.55412800 0.88407700
vt 0.54820900 0.88303400
vt 0.54304500 0.88245500
vt 0.54319900 0.87842700
vt 0.54337500 0.87425400
vt 0.54355100 0.87000900
vt 0.54361300 0.86584600
vt 0.54343700 0.86177600
vt 0.54826100 0.86153900
vt 0.54690800 0.85808900
vt 0.54963500 0.85690100
vt 0.55188600 0.85554800
vt 0.55364200 0.85367800
vt 0.55494400 0.85193300
vt 0.54960400 0.84853400
vt 0.54417000 0.84657200
vt 0.53848900 0.84586900
vt 0.53279800 0.84642700
vt 0.52732400 0.84824500
vt 0.52188000 0.85149900
vt 0.51695300 0.85658100
vt 0.51363800 0.86302600
vt 0.51192300 0.86941000
vt 0.51129300 0.87548300
vt 0.51129300 0.88089500
vt 0.51171600 0.88549200
vt 0.51222300 0.88934500
vt 0.51296600 0.89312500
vt 0.51381300 0.89676100
vt 0.51502200 0.90062400
vt 0.51648800 0.90419800
vt 0.51852300 0.90901100
vt 0.52067200 0.91349400
vt 0.52358400 0.91843100
vt 0.52726200 0.92404000
vt 0.52969900 0.92724200
vt 0.53366600 0.92978300
vt 0.53737400 0.93047500
vt 0.54110300 0.92988600
vt 0.54514100 0.92744900
vt 0.54766200 0.92431900
vt 0.55149400 0.91881400
vt 0.55454100 0.91394900
vt 0.55681300 0.90951700
vt 0.55897200 0.90476600
vt 0.56053200 0.90122300
vt 0.56183300 0.89739100
vt 0.56278300 0.89377600
vt 0.56363000 0.89001600
vt 0.56422900 0.88618400
vt 0.56477700 0.88159800
vt 0.56269000 0.88141200
vt 0.56020100 0.88108100
vt 0.55450000 0.87993500
vt 0.54848800 0.87901600
vt 0.54878800 0.87478100
vt 0.54899400 0.87037000
vt 0.54889100 0.86588700
vt 0.55201000 0.86055700
vt 0.55559400 0.85955600
vt 0.55789800 0.85833700
vt 0.55974700 0.85713900
vt 0.56084200 0.86435900
vt 0.56288700 0.86366700
vt 0.56235000 0.87042200
vt 0.56443600 0.87009100
vt 0.56491100 0.87617500
vt 0.56285600 0.87622700
vt 0.56037700 0.87615400
vt 0.55466500 0.87543100
vt 0.55444800 0.87055600
vt 0.55373500 0.86543300
vt 0.55836300 0.86500900
vt 0.55980900 0.87064900
f 1/1/1 2/2/2 3/3/3
f 3/3/3 2/2/2 4/4/4
f 2/2/2 5/5/5 4/4/4
f 4/4/4 5/5/5 6/6/6
f 6/6/6 5/5/5 7/7/7
f 5/5/5 8/8/8 7/7/7
f 7/7/7 8/8/8 9/9/9
f 8/8/8 10/10/10 9/9/9
f 9/9/9 10/10/10 11/11/11
f 10/10/10 12/12/12 11/11/11
f 11/11/11 12/12/12 13/13/13
f 12/12/12 14/14/14 13/13/13
f 13/13/13 14/14/14 15/15/15
f 15/15/15 14/14/14 16/16/16
f 16/16/16 14/14/14 17/17/17
f 17/17/17 14/14/14 18/18/18
f 14/14/14 12/12/12 18/18/18
f 18/18/18 12/12/12 19/19/19
f 12/12/12 10/10/10 19/19/19
f 19/19/19 10/10/10 20/20/20
f 10/10/10 8/8/8 20/20/20
f 20/20/20 8/8/8 21/21/21
f 8/8/8 5/5/5 21/21/21
f 21/21/21 5/5/5 22/22/22
f 22/22/22 5/5/5 23/23/23
f 5/5/5 2/2/2 23/23/23
f 23/23/23 2/2/2 24/24/24
f 2/2/2 1/1/1 24/24/24
f 24/24/24 1/1/1 25/25/25
f 26/26/26 25/25/25 27/27/27
f 25/25/25 1/1/1 27/27/27
f 27/27/27 1/1/1 28/28/28
f 1/1/1 3/3/3 28/28/28
f 28/28/28 3/3/3 29/29/29
f 29/29/29 3/3/3 30/30/30
f 3/3/3 4/4/4 30/30/30
f 30/30/30 4/4/4 31/31/31
f 4/4/4 6/6/6 31/31/31
f 31/31/31 6/6/6 32/32/32
f 6/6/6 7/7/7 32/32/32
f 32/32/32 7/7/7 33/33/33
f 7/7/7 9/9/9 33/33/33
f 33/33/33 9/9/9 34/34/34
f 9/9/9 11/11/11 34/34/34
f 34/34/34 11/11/11 35/35/35
f 11/11/11 13/13/13 35/35/35
f 35/35/35 13/13/13 36/36/36
f 36/36/36 13/13/13 37/37/37
f 13/13/13 15/15/15 37/37/37
f 15/15/15 16/16/16 37/37/37
f 37/37/37 16/16/16 38/38/38
f 38/38/38 16/16/16 39/39/39
f 16/16/16 17/17/17 39/39/39
f 17/17/17 18/18/18 39/39/39
f 39/39/39 18/18/18 40/40/40
f 40/40/40 18/18/18 41/41/41
f 18/18/18 19/19/19 41/41/41
f 41/41/41 19/19/19 42/42/42
f 19/19/19 20/20/20 42/42/42
f 42/42/42 20/20/20 43/43/43
f 20/20/20 21/21/21 43/43/43
f 43/43/43 21/21/21 44/44/44
f 21/21/21 22/22/22 44/44/44
f 44/44/44 22/22/22 45/45/45
f 22/22/22 23/23/23 45/45/45
f 45/45/45 23/23/23 46/46/46
f 23/23/23 24/24/24 46/46/46
f 46/46/46 24/24/24 47/47/47
f 24/24/24 25/25/25 47/47/47
f 47/47/47 25/25/25 48/48/48
f 25/25/25 26/26/26 48/48/48
f 48/48/48 26/26/26 49/49/49
f 50/50/50 51/51/51 52/52/52
f 52/52/52 51/51/51 53/53/53
f 51/51/51 54/54/54 53/53/53
f 53/53/53 54/54/54 55/55/55
f 54/54/54 49/49/49 55/55/55
f 49/49/49 26/26/26 55/55/55
f 55/55/55 26/26/26 56/56/56
f 26/26/26 27/27/27 56/56/56
f 56/56/56 27/27/27 57/57/57
f 27/27/27 28/28/28 57/57/57
f 57/57/57 28/28/28 58/58/58
f 28/28/28 29/29/29 58/58/58
f 58/58/58 29/29/29 59/59/59
f 59/59/59 29/29/29 60/60/60
f 29/29/29 30/30/30 60/60/60
f 60/60/60 30/30/30 61/61/61
f 30/30/30 31/31/31 61/61/61
f 61/61/61 31/31/31 62/62/62
f 31/31/31 32/32/32 62/62/62
f 62/62/62 32/32/32 63/63/63
f 32/32/32 33/33/33 63/63/63
f 63/63/63 33/33/33 64/64/64
f 33/33/33 34/34/34 64/64/64
f 64/64/64 34/34/34 65/65/65
f 65/65/65 34/34/34 66/66/66
f 34/34/34 35/35/35 66/66/66
f 66/66/66 35/35/35 67/67/67
f 35/35/35 36/36/36 67/67/67
f 67/67/67 36/36/36 68/68/68
f 36/36/36 37/37/37 68/68/68
f 37/37/37 38/38/38 68/68/68
f 68/68/68 38/38/38 69/69/69
f 69/69/69 38/38/38 70/70/70
f 38/38/38 39/39/39 70/70/70
f 39/39/39 40/40/40 70/70/70
f 70/70/70 40/40/40 71/71/71
f 40/40/40 41/41/41 71/71/71
f 71/71/71 41/41/41 72/72/72
f 41/41/41 42/42/42 72/72/72
f 72/72/72 42/42/42 73/73/73
f 73/73/73 42/42/42 74/74/74
f 42/42/42 43/43/43 74/74/74
f 74/74/74 43/43/43 75/75/75
f 43/43/43 44/44/44 75/75/75
f 75/75/75 44/44/44 76/76/76
f 44/44/44 45/45/45 76/76/76
f 76/76/76 45/45/45 77/77/77
f 45/45/45 46/46/46 77/77/77
f 77/77/77 46/46/46 78/78/78
f 46/46/46 47/47/47 78/78/78
f 78/78/78 47/47/47 79/79/79
f 47/47/47 48/48/48 79/79/79
f 79/79/79 48/48/48 80/80/80
f 48/48/48 49/49/49 80/80/80
f 80/80/80 49/49/49 81/81/81
f 49/49/49 54/54/54 81/81/81
f 81/81/81 54/54/54 82/82/82
f 54/54/54 51/51/51 82/82/82
f 82/82/82 51/51/51 83/83/83
f 51/51/51 50/50/50 83/83/83
f 50/50/50 84/84/84 83/83/83
f 83/83/83 84/84/84 85/85/85
f 84/84/84 86/86/86 85/85/85
f 85/85/85 86/86/86 87/87/87
f 87/87/87 86/86/86 88/88/88
f 86/86/86 89/89/89 88/88/88
f 89/89/89 90/90/90 88/88/88
f 88/88/88 90/90/90 91/91/91
f 90/90/90 92/92/92 91/91/91
f 91/91/91 92/92/92 93/93/93
f 92/92/92 94/94/94 93/93/93
f 93/93/93 94/94/94 95/95/95
f 94/94/94 96/96/96 95/95/95
f 95/95/95 96/96/96 97/97/97
f 97/97/97 96/96/96 98/98/98
f 98/98/98 96/96/96 99/99/99
f 99/99/99 96/96/96 100/100/100
f 96/96/96 94/94/94 100/100/100
f 100/100/100 94/94/94 101/101/101
f 94/94/94 92/92/92 101/101/101
f 92/92/92 90/90/90 101/101/101
f 101/101/101 90/90/90 102/102/102
f 90/90/90 89/89/89 102/102/102
f 89/89/89 86/86/86 102/102/102
f 102/102/102 86/86/86 103/103/103
f 86/86/86 84/84/84 103/103/103
f 103/103/103 84/84/84 104/104/104
f 84/84/84 50/50/50 104/104/104
f 104/104/104 50/50/50 105/105/105
f 50/50/50 52/52/52 105/105/105
f 105/105/105 52/52/52 106/106/106
f 106/106/106 52/52/52 107/107/107
f 107/107/107 52/52/52 108/108/108
f 52/52/52 53/53/53 108/108/108
f 108/108/108 53/53/53 109/109/109
f 53/53/53 55/55/55 109/109/109
f 55/55/55 56/56/56 109/109/109
f 109/109/109 56/56/56 110/110/110
f 56/56/56 57/57/57 110/110/110
f 110/110/110 57/57/57 111/111/111
f 57/57/57 58/58/58 111/111/111
f 111/111/111 58/58/58 112/112/112
f 58/58/58 59/59/59 112/112/112
f 112/112/112 59/59/59 113/113/113
f 113/113/113 59/59/59 114/114/114
f 59/59/59 60/60/60 114/114/114
f 114/114/114 60/60/60 115/115/115
f 60/60/60 61/61/61 115/115/115
f 115/115/115 61/61/61 116/116/116
f 61/61/61 62/62/62 116/116/116
f 116/116/116 62/62/62 117/117/117
f 117/117/117 62/62/62 118/118/118
f 62/62/62 63/63/63 118/118/118
f 118/118/118 63/63/63 119/119/119
f 63/63/63 64/64/64 119/119/119
f 119/119/119 64/64/64 120/120/120
f 64/64/64 65/65/65 120/120/120
f 120/120/120 65/65/65 121/121/121
f 65/65/65 66/66/66 121/121/121
f 121/121/121 66/66/66 122/122/122
f 66/66/66 67/67/67 122/122/122
f 122/122/122 67/67/67 123/123/123
f 67/67/67 68/68/68 123/123/123
f 68/68/68 69/69/69 123/123/123
f 123/123/123 69/69/69 124/124/124
f 124/124/124 69/69/69 125/125/125
f 69/69/69 70/70/70 125/125/125
f 70/70/70 71/71/71 125/125/125
f 125/125/125 71/71/71 126/126/126
f 71/71/71 72/72/72 126/126/126
f 126/126/126 72/72/72 127/127/127
f 72/72/72 73/73/73 127/127/127
f 127/127/127 73/73/73 128/128/128
f 73/73/73 74/74/74 128/128/128
f 128/128/128 74/74/74 129/129/129
f 74/74/74 75/75/75 129/129/129
f 129/129/129 75/75/75 130/130/130
f 75/75/75 76/76/76 130/130/130
f 130/130/130 76/76/76 131/131/131
f 131/131/131 76/76/76 132/132/132
f 76/76/76 77/77/77 132/132/132
f 132/132/132 77/77/77 133/133/133
f 77/77/77 78/78/78 133/133/133
f 133/133/133 78/78/78 134/134/134
f 78/78/78 79/79/79 134/134/134
f 134/134/134 79/79/79 135/135/135
f 79/79/79 80/80/80 135/135/135
f 135/135/135 80/80/80 136/136/136
f 80/80/80 81/81/81 136/136/136
f 136/136/136 81/81/81 137/137/137
f 81/81/81 82/82/82 137/137/137
f 137/137/137 82/82/82 138/138/138
f 82/82/82 83/83/83 138/138/138
f 138/138/138 83/83/83 139/139/139
f 83/83/83 85/85/85 139/139/139
f 85/85/85 87/87/87 139/139/139
f 139/139/139 87/87/87 140/140/140
f 87/87/87 88/88/88 140/140/140
f 140/140/140 88/88/88 141/141/141
f 88/88/88 91/91/91 141/141/141
f 141/141/141 91/91/91 142/142/142
f 91/91/91 93/93/93 142/142/142
f 142/142/142 93/93/93 143/143/143
f 93/93/93 95/95/95 143/143/143
f 143/143/143 95/95/95 144/144/144
f 144/144/144 95/95/95 145/145/145
f 95/95/95 97/97/97 145/145/145
f 97/97/97 98/98/98 145/145/145
f 145/145/145 98/98/98 146/146/146
f 146/146/146 98/98/98 147/147/147
f 147/147/147 98/98/98 148/148/148
f 98/98/98 99/99/99 148/148/148
f 148/148/148 99/99/99 149/149/149
f 149/149/149 99/99/99 150/150/150
f 99/99/99 100/100/100 150/150/150
f 150/150/150 100/100/100 151/151/151
f 100/100/100 101/101/101 151/151/151
f 101/101/101 102/102/102 151/151/151
f 151/151/151 102/102/102 152/152/152
f 102/102/102 103/103/103 152/152/152
f 103/103/103 104/104/104 152/152/152
f 152/152/152 104/104/104 153/153/153
f 104/104/104 105/105/105 153/153/153
f 105/105/105 106/106/106 153/153/153
f 153/153/153 106/106/106 154/154/154
f 154/154/154 106/106/106 155/155/155
f 106/106/106 107/107/107 155/155/155
f 107/107/107 108/108/108 155/155/155
f 155/155/155 108/108/108 156/156/156
f 108/108/108 109/109/109 156/156/156
f 109/109/109 110/110/110 156/156/156
f 156/156/156 110/110/110 157/157/157
f 110/110/110 111/111/111 157/157/157
f 157/157/157 111/111/111 158/158/158
f 111/111/111 112/112/112 158/158/158
f 158/158/158 112/112/112 159/159/159
f 112/112/112 113/113/113 159/159/159
f 160/160/160 159/159/159 161/161/161
f 159/159/159 113/113/113 161/161/161
f 161/161/161 113/113/113 162/162/162
f 162/162/162 113/113/113 163/163/163
f 113/113/113 114/114/114 163/163/163
f 163/163/163 114/114/114 164/164/164
f 114/114/114 115/115/115 164/164/164
f 164/164/164 115/115/115 165/165/165
f 115/115/115 116/116/116 165/165/165
f 165/165/165 116/116/116 166/166/166
f 116/116/116 117/117/117 166/166/166
f 117/117/117 118/118/118 166/166/166
f 166/166/166 118/118/118 167/167/167
f 118/118/118 119/119/119 167/167/167
f 167/167/167 119/119/119 168/168/168
f 119/119/119 120/120/120 168/168/168
f 168/168/168 120/120/120 169/169/169
f 120/120/120 121/121/121 169/169/169
f 169/169/169 121/121/121 170/170/170
f 121/121/121 122/122/122 170/170/170
f 170/170/170 122/122/122 171/171/171
f 122/122/122 123/123/123 171/171/171
f 171/171/171 123/123/123 172/172/172
f 123/123/123 124/124/124 172/172/172
f 172/172/172 124/124/124 173/173/173
f 173/173/173 124/124/124 174/174/174
f 124/124/124 125/125/125 174/174/174
f 174/174/174 125/125/125 175/175/175
f 125/125/125 126/126/126 175/175/175
f 175/175/175 126/126/126 176/176/176
f 126/126/126 127/127/127 176/176/176
f 176/176/176 127/127/127 177/177/177
f 127/127/127 128/128/128 177/177/177
f 177/177/177 128/128/128 178/178/178
f 128/128/128 129/129/129 178/178/178
f 178/178/178 129/129/129 179/179/179
f 129/129/129 130/130/130 179/179/179
f 179/179/179 130/130/130 180/180/180
f 130/130/130 131/131/131 180/180/180
f 131/131/131 132/132/132 180/180/180
f 180/180/180 132/132/132 181/181/181
f 132/132/132 133/133/133 181/181/181
f 181/181/181 133/133/133 182/182/182
f 133/133/133 134/134/134 182/182/182
f 182/182/182 134/134/134 183/183/183
f 134/134/134 135/135/135 183/183/183
f 183/183/183 135/135/135 184/184/184
f 184/184/184 135/135/135 185/185/185
f 135/135/135 136/136/136 185/185/185
f 185/185/185 136/136/136 186/186/186
f 136/136/136 137/137/137 186/186/186
f 186/186/186 137/137/137 187/187/187
f 137/137/137 138/138/138 187/187/187
f 187/187/187 138/138/138 188/188/188
f 138/138/138 139/139/139 188/188/188
f 188/188/188 139/139/139 189/189/189
f 139/139/139 140/140/140 189/189/189
f 189/189/189 140/140/140 190/190/190
f 140/140/140 141/141/141 190/190/190
f 190/190/190 141/141/141 191/191/191
f 141/141/141 142/142/142 191/191/191
f 191/191/191 142/142/142 192/192/192
f 142/142/142 143/143/143 192/192/192
f 192/192/192 143/143/143 193/193/193
f 143/143/143 144/144/144 193/193/193
f 144/144/144 145/145/145 193/193/193
f 193/193/193 145/145/145 194/194/194
f 194/194/194 145/145/145 195/195/195
f 145/145/145 146/146/146 195/195/195
f 146/146/146 147/147/147 195/195/195
f 195/195/195 147/147/147 196/196/196
f 197/197/197 196/196/196 198/198/198
f 196/196/196 147/147/147 198/198/198
f 147/147/147 148/148/148 198/198/198
f 198/198/198 148/148/148 199/199/199
f 148/148/148 149/149/149 199/199/199
f 199/199/199 149/149/149 200/200/200
f 149/149/149 150/150/150 200/200/200
f 201/201/201 200/200/200 202/202/202
f 200/200/200 150/150/150 202/202/202
f 150/150/150 151/151/151 202/202/202
f 151/151/151 152/152/152 202/202/202
f 202/202/202 152/152/152 203/203/203
f 203/203/203 152/152/152 204/204/204
f 152/152/152 153/153/153 204/204/204
f 153/153/153 154/154/154 204/204/204
f 204/204/204 154/154/154 205/205/205
f 154/154/154 155/155/155 205/205/205
f 205/205/205 155/155/155 206/206/206
f 155/155/155 156/156/156 206/206/206
f 156/156/156 157/157/157 206/206/206
f 206/206/206 157/157/157 207/207/207
f 157/157/157 158/158/158 207/207/207
f 207/207/207 158/158/158 208/208/208
f 158/158/158 159/159/159 208/208/208
f 159/159/159 160/160/160 208/208/208
f 208/208/208 160/160/160 209/209/209
f 210/210/210 209/209/209 211/211/211
f 209/209/209 160/160/160 211/211/211
f 211/211/211 160/160/160 212/212/212
f 160/160/160 161/161/161 212/212/212
f 212/212/212 161/161/161 213/213/213
f 161/161/161 162/162/162 213/213/213
f 213/213/213 162/162/162 214/214/214
f 214/214/214 162/162/162 215/215/215
f 162/162/162 163/163/163 215/215/215
f 215/215/215 163/163/163 216/216/216
f 163/163/163 164/164/164 216/216/216
f 216/216/216 164/164/164 217/217/217
f 164/164/164 165/165/165 217/217/217
f 217/217/217 165/165/165 218/218/218
f 165/165/165 166/166/166 218/218/218
f 166/166/166 167/167/167 218/218/218
f 218/218/218 167/167/167 219/219/219
f 167/167/167 168/168/168 219/219/219
f 219/219/219 168/168/168 220/220/220
f 168/168/168 169/169/169 220/220/220
f 220/220/220 169/169/169 221/221/221
f 169/169/169 170/170/170 221/221/221
f 221/221/221 170/170/170 222/222/222
f 170/170/170 171/171/171 222/222/222
f 222/222/222 171/171/171 223/223/223
f 171/171/171 172/172/172 223/223/223
f 223/223/223 172/172/172 224/224/224
f 224/224/224 172/172/172 225/225/225
f 172/172/172 173/173/173 225/225/225
f 173/173/173 174/174/174 225/225/225
f 225/225/225 174/174/174 226/226/226
f 226/226/226 174/174/174 227/227/227
f 174/174/174 175/175/175 227/227/227
f 227/227/227 175/175/175 228/228/228
f 175/175/175 176/176/176 228/228/228
f 228/228/228 176/176/176 229/229/229
f 176/176/176 177/177/177 229/229/229
f 229/229/229 177/177/177 230/230/230
f 177/177/177 178/178/178 230/230/230
f 230/230/230 178/178/178 231/231/231
f 178/178/178 179/179/179 231/231/231
f 231/231/231 179/179/179 232/232/232
f 179/179/179 180/180/180 232/232/232
f 180/180/180 181/181/181 232/232/232
f 232/232/232 181/181/181 233/233/233
f 181/181/181 182/182/182 233/233/233
f 233/233/233 182/182/182 234/234/234
f 182/182/182 183/183/183 234/234/234
f 234/234/234 183/183/183 235/235/235
f 183/183/183 184/184/184 235/235/235
f 235/235/235 184/184/184 236/236/236
f 236/236/236 184/184/184 237/237/237
f 184/184/184 185/185/185 237/237/237
f 237/237/237 185/185/185 238/238/238
f 185/185/185 186/186/186 238/238/238
f 238/238/238 186/186/186 239/239/239
f 186/186/186 187/187/187 239/239/239
f 239/239/239 187/187/187 240/240/240
f 187/187/187 188/188/188 240/240/240
f 240/240/240 188/188/188 241/241/241
f 188/188/188 189/189/189 241/241/241
f 241/241/241 189/189/189 242/242/242
f 189/189/189 190/190/190 242/242/242
f 242/242/242 190/190/190 243/243/243
f 190/190/190 191/191/191 243/243/243
f 243/243/243 191/191/191 244/244/244
f 191/191/191 192/192/192 244/244/244
f 244/244/244 192/192/192 245/245/245
f 192/192/192 193/193/193 245/245/245
f 193/193/193 194/194/194 245/245/245
f 245/245/245 194/194/194 246/246/246
f 246/246/246 194/194/194 247/247/247
f 194/194/194 195/195/195 247/247/247
f 195/195/195 196/196/196 247/247/247
f 247/247/247 196/196/196 248/248/248
f 196/196/196 197/197/197 248/248/248
f 248/248/248 197/197/197 249/249/249
f 250/250/250 249/249/249 251/251/251
f 249/249/249 197/197/197 251/251/251
f 251/251/251 197/197/197 252/252/252
f 197/197/197 198/198/198 252/252/252
f 198/198/198 199/199/199 252/252/252
f 252/252/252 199/199/199 253/253/253
f 199/199/199 200/200/200 253/253/253
f 200/200/200 201/201/201 253/253/253
f 253/253/253 201/201/201 254/254/254
f 201/201/201 202/202/202 254/254/254
f 202/202/202 203/203/203 254/254/254
f 254/254/254 203/203/203 255/255/255
f 203/203/203 204/204/204 255/255/255
f 204/204/204 205/205/205 255/255/255
f 255/255/255 205/205/205 256/256/256
f 205/205/205 206/206/206 256/256/256
f 206/206/206 207/207/207 256/256/256
f 256/256/256 207/207/207 257/257/257
f 207/207/207 208/208/208 257/257/257
f 208/208/208 209/209/209 257/257/257
f 257/257/257 209/209/209 258/258/258
f 209/209/209 210/210/210 258/258/258
f 210/210/210 259/259/259 258/258/258
f 258/258/258 259/259/259 260/260/260
f 259/259/259 250/250/250 260/260/260
f 250/250/250 251/251/251 260/260/260
f 260/260/260 251/251/251 261/261/261
f 251/251/251 252/252/252 261/261/261
f 252/252/252 253/253/253 261/261/261
f 261/261/261 253/253/253 262/262/262
f 253/253/253 254/254/254 262/262/262
f 262/262/262 254/254/254 263/263/263
f 254/254/254 255/255/255 263/263/263
f 255/255/255 256/256/256 263/263/263
f 263/263/263 256/256/256 264/264/264
f 256/256/256 257/257/257 264/264/264
f 257/257/257 258/258/258 264/264/264
f 258/258/258 260/260/260 264/264/264
f 260/260/260 261/261/261 264/264/264
f 261/261/261 262/262/262 264/264/264
f 263/263/263 264/264/264 262/262/262
f 265/265/265 266/266/266 267/267/267
f 266/266/266 268/268/268 267/267/267
f 267/267/267 268/268/268 269/269/269
f 268/268/268 270/270/270 269/269/269
f 270/270/270 271/271/271 269/269/269
f 269/269/269 271/271/271 272/272/272
f 271/271/271 273/273/273 272/272/272
f 272/272/272 273/273/273 274/274/274
f 274/274/274 273/273/273 275/275/275
f 273/273/273 276/276/276 275/275/275
f 275/275/275 276/276/276 277/277/277
f 276/276/276 278/278/278 277/277/277
f 277/277/277 278/278/278 279/279/279
f 279/279/279 278/278/278 280/280/280
f 280/280/280 278/278/278 281/281/281
f 281/281/281 278/278/278 282/282/282
f 278/278/278 276/276/276 282/282/282
f 282/282/282 276/276/276 283/283/283
f 276/276/276 273/273/273 283/283/283
f 283/283/283 273/273/273 284/284/284
f 273/273/273 271/271/271 284/284/284
f 284/284/284 271/271/271 285/285/285
f 285/285/285 271/271/271 286/286/286
f 271/271/271 270/270/270 286/286/286
f 270/270/270 268/268/268 286/286/286
f 286/286/286 268/268/268 287/287/287
f 268/268/268 266/266/266 287/287/287
f 287/287/287 266/266/266 288/288/288
f 288/288/288 266/266/266 289/289/289
f 266/266/266 265/265/265 289/289/289
f 289/289/289 265/265/265 290/290/290
f 291/291/291 290/290/290 292/292/292
f 290/290/290 265/265/265 292/292/292
f 292/292/292 265/265/265 293/293/293
f 265/265/265 267/267/267 293/293/293
f 293/293/293 267/267/267 294/294/294
f 267/267/267 269/269/269 294/294/294
f 294/294/294 269/269/269 295/295/295
f 269/269/269 272/272/272 295/295/295
f 295/295/295 272/272/272 296/296/296
f 272/272/272 274/274/274 296/296/296
f 296/296/296 274/274/274 297/297/297
f 274/274/274 275/275/275 297/297/297
f 297/297/297 275/275/275 298/298/298
f 275/275/275 277/277/277 298/298/298
f 298/298/298 277/277/277 299/299/299
f 299/299/299 277/277/277 300/300/300
f 277/277/277 279/279/279 300/300/300
f 279/279/279 280/280/280 300/300/300
f 300/300/300 280/280/280 301/301/301
f 301/301/301 280/280/280 302/302/302
f 280/280/280 281/281/281 302/302/302
f 281/281/281 282/282/282 302/302/302
f 302/302/302 282/282/282 303/303/303
f 303/303/303 282/282/282 304/304/304
f 282/282/282 283/283/283 304/304/304
f 304/304/304 283/283/283 305/305/305
f 283/283/283 284/284/284 305/305/305
f 305/305/305 284/284/284 306/306/306
f 284/284/284 285/285/285 306/306/306
f 306/306/306 285/285/285 307/307/307
f 285/285/285 286/286/286 307/307/307
f 307/307/307 286/286/286 308/308/308
f 286/286/286 287/287/287 308/308/308
f 308/308/308 287/287/287 309/309/309
f 287/287/287 288/288/288 309/309/309
f 309/309/309 288/288/288 310/310/310
f 310/310/310 288/288/288 311/311/311
f 288/288/288 289/289/289 311/311/311
f 311/311/311 289/289/289 312/312/312
f 289/289/289 290/290/290 312/312/312
f 312/312/312 290/290/290 313/313/313
f 290/290/290 291/291/291 313/313/313
f 313/313/313 291/291/291 314/314/314
f 315/315/315 316/316/316 317/317/317
f 316/316/316 318/318/318 317/317/317
f 317/317/317 318/318/318 319/319/319
f 318/318/318 320/320/320 319/319/319
f 320/320/320 321/321/321 319/319/319
f 319/319/319 321/321/321 322/322/322
f 322/322/322 321/321/321 323/323/323
f 321/321/321 324/324/324 323/323/323
f 323/323/323 324/324/324 325/325/325
f 324/324/324 326/326/326 325/325/325
f 326/326/326 327/327/327 325/325/325
f 325/325/325 327/327/327 328/328/328
f 327/327/327 329/329/329 328/328/328
f 328/328/328 329/329/329 330/330/330
f 329/329/329 314/314/314 330/330/330
f 330/330/330 314/314/314 331/331/331
f 314/314/314 291/291/291 331/331/331
f 331/331/331 291/291/291 332/332/332
f 291/291/291 292/292/292 332/332/332
f 332/332/332 292/292/292 333/333/333
f 292/292/292 293/293/293 333/333/333
f 333/333/333 293/293/293 334/334/334
f 293/293/293 294/294/294 334/334/334
f 334/334/334 294/294/294 335/335/335
f 294/294/294 295/295/295 335/335/335
f 335/335/335 295/295/295 336/336/336
f 295/295/295 296/296/296 336/336/336
f 336/336/336 296/296/296 337/337/337
f 296/296/296 297/297/297 337/337/337
f 337/337/337 297/297/297 338/338/338
f 338/338/338 297/297/297 339/339/339
f 297/297/297 298/298/298 339/339/339
f 339/339/339 298/298/298 340/340/340
f 298/298/298 299/299/299 340/340/340
f 340/340/340 299/299/299 341/341/341
f 299/299/299 300/300/300 341/341/341
f 300/300/300 301/301/301 341/341/341
f 341/341/341 301/301/301 342/342/342
f 342/342/342 301/301/301 343/343/343
f 301/301/301 302/302/302 343/343/343
f 302/302/302 303/303/303 343/343/343
f 343/343/343 303/303/303 344/344/344
f 303/303/303 304/304/304 344/344/344
f 344/344/344 304/304/304 345/345/345
f 304/304/304 305/305/305 345/345/345
f 345/345/345 305/305/305 346/346/346
f 346/346/346 305/305/305 347/347/347
f 305/305/305 306/306/306 347/347/347
f 347/347/347 306/306/306 348/348/348
f 306/306/306 307/307/307 348/348/348
f 348/348/348 307/307/307 349/349/349
f 307/307/307 308/308/308 349/349/349
f 349/349/349 308/308/308 350/350/350
f 308/308/308 309/309/309 350/350/350
f 350/350/350 309/309/309 351/351/351
f 309/309/309 310/310/310 351/351/351
f 351/351/351 310/310/310 352/352/352
f 352/352/352 310/310/310 353/353/353
f 310/310/310 311/311/311 353/353/353
f 353/353/353 311/311/311 354/354/354
f 311/311/311 312/312/312 354/354/354
f 354/354/354 312/312/312 355/355/355
f 312/312/312 313/313/313 355/355/355
f 355/355/355 313/313/313 356/356/356
f 313/313/313 314/314/314 356/356/356
f 314/314/314 329/329/329 356/356/356
f 356/356/356 329/329/329 357/357/357
f 329/329/329 327/327/327 357/357/357
f 357/357/357 327/327/327 358/358/358
f 327/327/327 326/326/326 358/358/358
f 358/358/358 326/326/326 359/359/359
f 359/359/359 326/326/326 360/360/360
f 326/326/326 324/324/324 360/360/360
f 360/360/360 324/324/324 361/361/361
f 324/324/324 321/321/321 361/361/361
f 361/361/361 321/321/321 362/362/362
f 321/321/321 320/320/320 362/362/362
f 320/320/320 318/318/318 362/362/362
f 362/362/362 318/318/318 363/363/363
f 318/318/318 316/316/316 363/363/363
f 363/363/363 316/316/316 364/364/364
f 316/316/316 315/315/315 364/364/364
f 315/315/315 365/365/365 364/364/364
f 364/364/364 365/365/365 366/366/366
f 365/365/365 367/367/367 366/366/366
f 368/368/368 366/366/366 369/369/369
f 366/366/366 367/367/367 369/369/369
f 369/369/369 367/367/367 370/370/370
f 370/370/370 367/367/367 371/371/371
f 371/371/371 367/367/367 372/372/372
f 367/367/367 365/365/365 372/372/372
f 372/372/372 365/365/365 373/373/373
f 365/365/365 315/315/315 373/373/373
f 373/373/373 315/315/315 374/374/374
f 315/315/315 317/317/317 374/374/374
f 374/374/374 317/317/317 375/375/375
f 317/317/317 319/319/319 375/375/375
f 375/375/375 319/319/319 376/376/376
f 319/319/319 322/322/322 376/376/376
f 376/376/376 322/322/322 377/377/377
f 322/322/322 323/323/323 377/377/377
f 323/323/323 325/325/325 377/377/377
f 377/377/377 325/325/325 378/378/378
f 325/325/325 328/328/328 378/378/378
f 378/378/378 328/328/328 379/379/379
f 328/328/328 330/330/330 379/379/379
f 379/379/379 330/330/330 380/380/380
f 330/330/330 331/331/331 380/380/380
f 380/380/380 331/331/331 381/381/381
f 331/331/331 332/332/332 381/381/381
f 381/381/381 332/332/332 382/382/382
f 332/332/332 333/333/333 382/382/382
f 382/382/382 333/333/333 383/383/383
f 333/333/333 334/334/334 383/383/383
f 383/383/383 334/334/334 384/384/384
f 334/334/334 335/335/335 384/384/384
f 384/384/384 335/335/335 385/385/385
f 385/385/385 335/335/335 386/386/386
f 335/335/335 336/336/336 386/386/386
f 386/386/386 336/336/336 387/387/387
f 336/336/336 337/337/337 387/387/387
f 387/387/387 337/337/337 388/388/388
f 337/337/337 338/338/338 388/388/388
f 388/388/388 338/338/338 389/389/389
f 338/338/338 339/339/339 389/389/389
f 389/389/389 339/339/339 390/390/390
f 339/339/339 340/340/340 390/390/390
f 390/390/390 340/340/340 391/391/391
f 340/340/340 341/341/341 391/391/391
f 341/341/341 342/342/342 391/391/391
f 391/391/391 342/342/342 392/392/392
f 392/392/392 342/342/342 393/393/393
f 342/342/342 343/343/343 393/393/393
f 343/343/343 344/344/344 393/393/393
f 393/393/393 344/344/344 394/394/394
f 344/344/344 345/345/345 394/394/394
f 394/394/394 345/345/345 395/395/395
f 345/345/345 346/346/346 395/395/395
f 395/395/395 346/346/346 396/396/396
f 346/346/346 347/347/347 396/396/396
f 396/396/396 347/347/347 397/397/397
f 347/347/347 348/348/348 397/397/397
f 397/397/397 348/348/348 398/398/398
f 348/348/348 349/349/349 398/398/398
f 398/398/398 349/349/349 399/399/399
f 399/399/399 349/349/349 400/400/400
f 349/349/349 350/350/350 400/400/400
f 400/400/400 350/350/350 401/401/401
f 350/350/350 351/351/351 401/401/401
f 401/401/401 351/351/351 402/402/402
f 351/351/351 352/352/352 402/402/402
f 402/402/402 352/352/352 403/403/403
f 403/403/403 352/352/352 404/404/404
f 352/352/352 353/353/353 404/404/404
f 404/404/404 353/353/353 405/405/405
f 353/353/353 354/354/354 405/405/405
f 405/405/405 354/354/354 406/406/406
f 354/354/354 355/355/355 406/406/406
f 406/406/406 355/355/355 407/407/407
f 355/355/355 356/356/356 407/407/407
f 356/356/356 357/357/357 407/407/407
f 407/407/407 357/357/357 408/408/408
f 357/357/357 358/358/358 408/408/408
f 408/408/408 358/358/358 409/409/409
f 358/358/358 359/359/359 409/409/409
f 409/409/409 359/359/359 410/410/410
f 359/359/359 360/360/360 410/410/410
f 410/410/410 360/360/360 411/411/411
f 360/360/360 361/361/361 411/411/411
f 361/361/361 362/362/362 411/411/411
f 411/411/411 362/362/362 412/412/412
f 412/412/412 362/362/362 413/413/413
f 362/362/362 363/363/363 413/413/413
f 363/363/363 364/364/364 413/413/413
f 364/364/364 366/366/366 413/413/413
f 366/366/366 368/368/368 413/413/413
f 413/413/413 368/368/368 414/414/414
f 414/414/414 368/368/368 415/415/415
f 415/415/415 368/368/368 416/416/416
f 368/368/368 369/369/369 416/416/416
f 416/416/416 369/369/369 417/417/417
f 369/369/369 370/370/370 417/417/417
f 417/417/417 370/370/370 418/418/418
f 418/418/418 370/370/370 419/419/419
f 370/370/370 371/371/371 419/419/419
f 419/419/419 371/371/371 420/420/420
f 420/420/420 371/371/371 421/421/421
f 371/371/371 372/372/372 421/421/421
f 421/421/421 372/372/372 422/422/422
f 372/372/372 373/373/373 422/422/422
f 373/373/373 374/374/374 422/422/422
f 422/422/422 374/374/374 423/423/423
f 374/374/374 375/375/375 423/423/423
f 423/423/423 375/375/375 424/424/424
f 375/375/375 376/376/376 424/424/424
f 424/424/424 376/376/376 425/425/425
f 425/425/425 376/376/376 426/426/426
f 376/376/376 377/377/377 426/426/426
f 426/426/426 377/377/377 427/427/427
f 377/377/377 378/378/378 427/427/427
f 427/427/427 378/378/378 428/428/428
f 378/378/378 379/379/379 428/428/428
f 428/428/428 379/379/379 429/429/429
f 379/379/379 380/380/380 429/429/429
f 429/429/429 380/380/380 430/430/430
f 380/380/380 381/381/381 430/430/430
f 430/430/430 381/381/381 431/431/431
f 381/381/381 382/382/382 431/431/431
f 431/431/431 382/382/382 432/432/432
f 382/382/382 383/383/383 432/432/432
f 383/383/383 384/384/384 432/432/432
f 432/432/432 384/384/384 433/433/433
f 384/384/384 385/385/385 433/433/433
f 433/433/433 385/385/385 434/434/434
f 385/385/385 386/386/386 434/434/434
f 434/434/434 386/386/386 435/435/435
f 386/386/386 387/387/387 435/435/435
f 435/435/435 387/387/387 436/436/436
f 387/387/387 388/388/388 436/436/436
f 436/436/436 388/388/388 437/437/437
f 388/388/388 389/389/389 437/437/437
f 437/437/437 389/389/389 438/438/438
f 389/389/389 390/390/390 438/438/438
f 438/438/438 390/390/390 439/439/439
f 390/390/390 391/391/391 439/439/439
f 439/439/439 391/391/391 440/440/440
f 391/391/391 392/392/392 440/440/440
f 440/440/440 392/392/392 441/441/441
f 441/441/441 392/392/392 442/442/442
f 392/392/392 393/393/393 442/442/442
f 442/442/442 393/393/393 443/443/443
f 393/393/393 394/394/394 443/443/443
f 443/443/443 394/394/394 444/444/444
f 394/394/394 395/395/395 444/444/444
f 444/444/444 395/395/395 445/445/445
f 395/395/395 396/396/396 445/445/445
f 445/445/445 396/396/396 446/446/446
f 396/396/396 397/397/397 446/446/446
f 446/446/446 397/397/397 447/447/447
f 397/397/397 398/398/398 447/447/447
f 447/447/447 398/398/398 448/448/448
f 398/398/398 399/399/399 448/448/448
f 448/448/448 399/399/399 449/449/449
f 399/399/399 400/400/400 449/449/449
f 449/449/449 400/400/400 450/450/450
f 400/400/400 401/401/401 450/450/450
f 401/401/401 402/402/402 450/450/450
f 450/450/450 402/402/402 451/451/451
f 402/402/402 403/403/403 451/451/451
f 451/451/451 403/403/403 452/452/452
f 453/453/453 452/452/452 454/454/454
f 452/452/452 403/403/403 454/454/454
f 403/403/403 404/404/404 454/454/454
f 454/454/454 404/404/404 455/455/455
f 404/404/404 405/405/405 455/455/455
f 455/455/455 405/405/405 456/456/456
f 405/405/405 406/406/406 456/456/456
f 456/456/456 406/406/406 457/457/457
f 406/406/406 407/407/407 457/457/457
f 407/407/407 408/408/408 457/457/457
f 457/457/457 408/408/408 458/458/458
f 408/408/408 409/409/409 458/458/458
f 458/458/458 409/409/409 459/459/459
f 409/409/409 410/410/410 459/459/459
f 459/459/459 410/410/410 460/460/460
f 410/410/410 411/411/411 460/460/460
f 460/460/460 411/411/411 461/461/461
f 461/461/461 411/411/411 462/462/462
f 411/411/411 412/412/412 462/462/462
f 412/412/412 413/413/413 462/462/462
f 413/413/413 414/414/414 462/462/462
f 463/463/463 462/462/462 464/464/464
f 462/462/462 414/414/414 464/464/464
f 414/414/414 415/415/415 464/464/464
f 464/464/464 415/415/415 465/465/465
f 415/415/415 416/416/416 465/465/465
f 465/465/465 416/416/416 466/466/466
f 416/416/416 417/417/417 466/466/466
f 417/417/417 418/418/418 466/466/466
f 466/466/466 418/418/418 467/467/467
f 468/468/468 467/467/467 469/469/469
f 467/467/467 418/418/418 469/469/469
f 469/469/469 418/418/418 470/470/470
f 418/418/418 419/419/419 470/470/470
f 419/419/419 420/420/420 470/470/470
f 470/470/470 420/420/420 471/471/471
f 471/471/471 420/420/420 472/472/472
f 420/420/420 421/421/421 472/472/472
f 421/421/421 422/422/422 472/472/472
f 472/472/472 422/422/422 473/473/473
f 422/422/422 423/423/423 473/473/473
f 473/473/473 423/423/423 474/474/474
f 423/423/423 424/424/424 474/474/474
f 474/474/474 424/424/424 475/475/475
f 424/424/424 425/425/425 475/475/475
f 475/475/475 425/425/425 476/476/476
f 425/425/425 426/426/426 476/476/476
f 476/476/476 426/426/426 477/477/477
f 477/477/477 426/426/426 478/478/478
f 426/426/426 427/427/427 478/478/478
f 478/478/478 427/427/427 479/479/479
f 427/427/427 428/428/428 479/479/479
f 479/479/479 428/428/428 480/480/480
f 428/428/428 429/429/429 480/480/480
f 480/480/480 429/429/429 481/481/481
f 429/429/429 430/430/430 481/481/481
f 481/481/481 430/430/430 482/482/482
f 430/430/430 431/431/431 482/482/482
f 431/431/431 432/432/432 482/482/482
f 482/482/482 432/432/432 483/483/483
f 432/432/432 433/433/433 483/483/483
f 483/483/483 433/433/433 484/484/484
f 433/433/433 434/434/434 484/484/484
f 484/484/484 434/434/434 485/485/485
f 434/434/434 435/435/435 485/485/485
f 485/485/485 435/435/435 486/486/486
f 435/435/435 436/436/436 486/486/486
f 486/486/486 436/436/436 487/487/487
f 436/436/436 437/437/437 487/487/487
f 487/487/487 437/437/437 488/488/488
f 437/437/437 438/438/438 488/488/488
f 488/488/488 438/438/438 489/489/489
f 438/438/438 439/439/439 489/489/489
f 489/489/489 439/439/439 490/490/490
f 439/439/439 440/440/440 490/490/490
f 490/490/490 440/440/440 491/491/491
f 440/440/440 441/441/441 491/491/491
f 491/491/491 441/441/441 492/492/492
f 492/492/492 441/441/441 493/493/493
f 441/441/441 442/442/442 493/493/493
f 493/493/493 442/442/442 494/494/494
f 442/442/442 443/443/443 494/494/494
f 494/494/494 443/443/443 495/495/495
f 443/443/443 444/444/444 495/495/495
f 495/495/495 444/444/444 496/496/496
f 444/444/444 445/445/445 496/496/496
f 496/496/496 445/445/445 497/497/497
f 445/445/445 446/446/446 497/497/497
f 497/497/497 446/446/446 498/498/498
f 446/446/446 447/447/447 498/498/498
f 498/498/498 447/447/447 499/499/499
f 447/447/447 448/448/448 499/499/499
f 499/499/499 448/448/448 500/500/500
f 448/448/448 449/449/449 500/500/500
f 500/500/500 449/449/449 501/501/501
f 449/449/449 450/450/450 501/501/501
f 501/501/501 450/450/450 502/502/502
f 450/450/450 451/451/451 502/502/502
f 451/451/451 452/452/452 502/502/502
f 502/502/502 452/452/452 503/503/503
f 452/452/452 453/453/453 503/503/503
f 503/503/503 453/453/453 504/504/504
f 505/505/505 504/504/504 506/506/506
f 504/504/504 453/453/453 506/506/506
f 506/506/506 453/453/453 507/507/507
f 453/453/453 454/454/454 507/507/507
f 454/454/454 455/455/455 507/507/507
f 507/507/507 455/455/455 508/508/508
f 455/455/455 456/456/456 508/508/508
f 508/508/508 456/456/456 509/509/509
f 456/456/456 457/457/457 509/509/509
f 457/457/457 458/458/458 509/509/509
f 509/509/509 458/458/458 510/510/510
f 458/458/458 459/459/459 510/510/510
f 459/459/459 460/460/460 510/510/510
f 510/510/510 460/460/460 511/511/511
f 460/460/460 461/461/461 511/511/511
f 511/511/511 461/461/461 512/512/512
f 461/461/461 462/462/462 512/512/512
f 462/462/462 463/463/463 512/512/512
f 512/512/512 463/463/463 513/513/513
f 463/463/463 464/464/464 513/513/513
f 464/464/464 465/465/465 513/513/513
f 513/513/513 465/465/465 514/514/514
f 465/465/465 466/466/466 514/514/514
f 466/466/466 467/467/467 514/514/514
f 514/514/514 467/467/467 515/515/515
f 467/467/467 468/468/468 515/515/515
f 468/468/468 516/516/516 515/515/515
f 515/515/515 516/516/516 517/517/517
f 516/516/516 518/518/518 517/517/517
f 517/517/517 518/518/518 519/519/519
f 518/518/518 520/520/520 519/519/519
f 520/520/520 521/521/521 519/519/519
f 519/519/519 521/521/521 522/522/522
f 521/521/521 505/505/505 522/522/522
f 505/505/505 506/506/506 522/522/522
f 522/522/522 506/506/506 523/523/523
f 506/506/506 507/507/507 523/523/523
f 507/507/507 508/508/508 523/523/523
f 523/523/523 508/508/508 524/524/524
f 508/508/508 509/509/509 524/524/524
f 509/509/509 510/510/510 524/524/524
f 510/510/510 511/511/511 524/524/524
f 524/524/524 511/511/511 525/525/525
f 511/511/511 512/512/512 525/525/525
f 525/525/525 512/512/512 526/526/526
f 512/512/512 513/513/513 526/526/526
f 526/526/526 513/513/513 527/527/527
f 513/513/513 514/514/514 527/527/527
f 514/514/514 515/515/515 527/527/527
f 515/515/515 517/517/517 527/527/527
f 517/517/517 519/519/519 527/527/527
f 527/527/527 519/519/519 528/528/528
f 519/519/519 522/522/522 528/528/528
f 522/522/522 523/523/523 528/528/528
f 523/523/523 524/524/524 528/528/528
f 524/524/524 525/525/525 528/528/528
f 525/525/525 526/526/526 528/528/528
f 527/527/527 528/528/528 526/526/526

