mtllib material.mtl
usemtl Rubber_Black_002_COLOR_0.002
v 0.02248300 0.07181900 0.02520600
v 0.02248300 0.07181900 0.02520600
v 0.02248300 0.05305600 0.02520600
v 0.02248300 0.05305600 0.02520600
v 0.01537900 0.07181900 0.02189600
v 0.01537900 0.07181900 0.02189600
v 0.01537900 0.05305600 0.02189600
v 0.01537900 0.05305600 0.02189600
v 0.00780900 0.07181900 0.01986500
v 0.00780900 0.07181900 0.01986500
v 0.00780900 0.05305600 0.01986500
v 0.00780900 0.05305600 0.01986500
v 0.00000300 0.07181900 0.01918400
v 0.00000300 0.07181900 0.01918400
v 0.00000300 0.07181900 0.01918400
v 0.00000300 0.05305600 0.01918400
v 0.00000300 0.05305600 0.01918400
v 0.00000300 0.05305600 0.01918400
v -0.00780900 0.05305600 0.01986500
v -0.00780900 0.05305600 0.01986500
v -0.00780900 0.07181900 0.01986500
v -0.00780900 0.07181900 0.01986500
v -0.01537900 0.05305600 0.02189600
v -0.01537900 0.05305600 0.02189600
v -0.01537900 0.07181900 0.02189600
v -0.01537900 0.07181900 0.02189600
v -0.02248300 0.05305600 0.02520600
v -0.02248300 0.05305600 0.02520600
v -0.02248300 0.07181900 0.02520600
v -0.02248300 0.07181900 0.02520600
v -0.02890600 0.05305600 0.02970200
v -0.02890600 0.05305600 0.02970200
v -0.02890600 0.07181900 0.02970200
v -0.02890600 0.07181900 0.02970200
v -0.03445100 0.05305600 0.03524700
v -0.03445100 0.05305600 0.03524700
v -0.03445100 0.07181900 0.03524700
v -0.03445100 0.07181900 0.03524700
v -0.03894700 0.05305600 0.04167000
v -0.03894700 0.05305600 0.04167000
v -0.03894700 0.07181900 0.04167000
v -0.03894700 0.07181900 0.04167000
v -0.04225700 0.05305600 0.04877400
v -0.04225700 0.05305600 0.04877400
v -0.04225700 0.07181900 0.04877400
v -0.04225700 0.07181900 0.04877400
v -0.04428800 0.05305600 0.05634400
v -0.04428800 0.05305600 0.05634400
v -0.04428800 0.07181900 0.05634400
v -0.04428800 0.07181900 0.05634400
v -0.04496900 0.05305600 0.06415600
v -0.04496900 0.05305600 0.06415600
v -0.04496900 0.07181900 0.06415600
v -0.04496900 0.07181900 0.06415600
v -0.04428800 0.05305600 0.07196200
v -0.04428800 0.05305600 0.07196200
v -0.04428800 0.07181900 0.07196200
v -0.04428800 0.07181900 0.07196200
v -0.04225700 0.05305600 0.07953200
v -0.04225700 0.05305600 0.07953200
v -0.04225700 0.07181900 0.07953200
v -0.04225700 0.07181900 0.07953200
v -0.03894600 0.05305600 0.08663600
v -0.03894600 0.05305600 0.08663600
v -0.03894600 0.07181900 0.08663600
v -0.03894600 0.07181900 0.08663600
v -0.03445100 0.05305600 0.09305900
v -0.03445100 0.05305600 0.09305900
v -0.03445100 0.07181900 0.09305900
v -0.03445100 0.07181900 0.09305900
v -0.03445100 0.07181900 0.09305900
v -0.02890600 0.05305600 0.09860300
v -0.02890600 0.05305600 0.09860300
v -0.02890600 0.07182500 0.09860300
v -0.02890600 0.07182500 0.09860300
v -0.02890600 0.07182500 0.09860300
v -0.02248300 0.05305600 0.10309900
v -0.02248300 0.05305600 0.10309900
v -0.02248300 0.07182500 0.10309900
v -0.02248300 0.07182500 0.10309900
v -0.01537900 0.05305600 0.10641000
v -0.01537900 0.05305600 0.10641000
v -0.01537900 0.07182500 0.10641000
v -0.01537900 0.07182500 0.10641000
v -0.01537900 0.07182500 0.10641000
v -0.00780900 0.05305600 0.10844100
v -0.00780900 0.05305600 0.10844100
v -0.00780900 0.07182500 0.10844100
v -0.00780900 0.07182500 0.10844100
v 0.00000300 0.05305600 0.10912200
v 0.00000300 0.05305600 0.10912200
v 0.00000300 0.07182500 0.10912200
v 0.00000300 0.07182500 0.10912200
v 0.00780900 0.07182500 0.10844100
v 0.00780900 0.07182500 0.10844100
v 0.00780900 0.05305600 0.10844100
v 0.00780900 0.05305600 0.10844100
v 0.01537900 0.07182500 0.10641000
v 0.01537900 0.07182500 0.10641000
v 0.01537900 0.07182500 0.10641000
v 0.01537900 0.05305600 0.10641000
v 0.01537900 0.05305600 0.10641000
v 0.02248300 0.07182500 0.10309900
v 0.02248300 0.07182500 0.10309900
v 0.02248300 0.05305600 0.10309900
v 0.02248300 0.05305600 0.10309900
v 0.02890600 0.07182500 0.09860300
v 0.02890600 0.07182500 0.09860300
v 0.02890600 0.07182500 0.09860300
v 0.02890600 0.05305600 0.09860300
v 0.02890600 0.05305600 0.09860300
v 0.03445000 0.07181900 0.09305900
v 0.03445000 0.07181900 0.09305900
v 0.03445000 0.07181900 0.09305900
v 0.03445000 0.05305600 0.09305900
v 0.03445000 0.05305600 0.09305900
v 0.03894600 0.07181900 0.08663600
v 0.03894600 0.07181900 0.08663600
v 0.03894600 0.05305600 0.08663600
v 0.03894600 0.05305600 0.08663600
v 0.04225700 0.07181900 0.07953200
v 0.04225700 0.07181900 0.07953200
v 0.04225700 0.05305600 0.07953200
v 0.04225700 0.05305600 0.07953200
v 0.04428800 0.07181900 0.07196200
v 0.04428800 0.07181900 0.07196200
v 0.04428800 0.05305600 0.07196200
v 0.04428800 0.05305600 0.07196200
v 0.04496900 0.07181900 0.06415600
v 0.04496900 0.07181900 0.06415600
v 0.04496900 0.05305600 0.06415600
v 0.04496900 0.05305600 0.06415600
v 0.04428800 0.07181900 0.05634400
v 0.04428800 0.07181900 0.05634400
v 0.04428800 0.05305600 0.05634400
v 0.04428800 0.05305600 0.05634400
v 0.04225700 0.07181900 0.04877400
v 0.04225700 0.07181900 0.04877400
v 0.04225700 0.05305600 0.04877400
v 0.04225700 0.05305600 0.04877400
v 0.00000300 0.05305600 0.06415600
v 0.02890600 0.05305600 0.02970200
v 0.02890600 0.05305600 0.02970200
v 0.02890600 0.07181900 0.02970200
v 0.02890600 0.07181900 0.02970200
v 0.00000300 0.07181900 0.06415600
v 0.00000300 0.07181900 0.06415600
v 0.00000300 0.07181900 0.06415600
v 0.00000300 0.07181900 0.06415600
v 0.00000300 0.07181900 0.06415600
v 0.00000300 0.07181900 0.06415600
v 0.03894600 0.07181900 0.04167000
v 0.03894600 0.07181900 0.04167000
v 0.03894600 0.05305600 0.04167000
v 0.03894600 0.05305600 0.04167000
v 0.03445000 0.05305600 0.03524700
v 0.03445000 0.05305600 0.03524700
v 0.03445000 0.07181900 0.03524700
v 0.03445000 0.07181900 0.03524700
vn -0.00000000 1.00000000 -0.00000000
vn 0.49980000 -0.00000000 -0.86610000
vn -0.00000000 -1.00000000 -0.00000000
vn 0.49980000 -0.00000000 -0.86610000
vn -0.00000000 1.00000000 -0.00000000
vn 0.34210000 -0.00000000 -0.93970000
vn -0.00000000 -1.00000000 -0.00000000
vn 0.34210000 -0.00000000 -0.93970000
vn -0.00000000 1.00000000 -0.00000000
vn 0.17370000 -0.00000000 -0.98480000
vn -0.00000000 -1.00000000 -0.00000000
vn 0.17370000 -0.00000000 -0.98480000
vn -0.00000000 1.00000000 -0.00000000
vn -0.08680000 -0.00000000 -0.99620000
vn 0.08690000 -0.00000000 -0.99620000
vn -0.00000000 -1.00000000 -0.00000000
vn 0.08690000 -0.00000000 -0.99620000
vn -0.08680000 -0.00000000 -0.99620000
vn -0.00000000 -1.00000000 -0.00000000
vn -0.17360000 -0.00000000 -0.98480000
vn -0.00000000 1.00000000 -0.00000000
vn -0.17360000 -0.00000000 -0.98480000
vn -0.00000000 -1.00000000 -0.00000000
vn -0.34210000 -0.00000000 -0.93970000
vn -0.00000000 1.00000000 -0.00000000
vn -0.34210000 -0.00000000 -0.93970000
vn -0.00000000 -1.00000000 -0.00000000
vn -0.49980000 -0.00000000 -0.86610000
vn -0.00000000 1.00000000 -0.00000000
vn -0.49980000 -0.00000000 -0.86610000
vn -0.00000000 -1.00000000 -0.00000000
vn -0.64270000 -0.00000000 -0.76610000
vn -0.00000000 1.00000000 -0.00000000
vn -0.64270000 -0.00000000 -0.76610000
vn -0.00000000 -1.00000000 -0.00000000
vn -0.76610000 -0.00000000 -0.64270000
vn -0.00000000 1.00000000 -0.00000000
vn -0.76610000 -0.00000000 -0.64270000
vn -0.00000000 -1.00000000 -0.00000000
vn -0.86610000 -0.00000000 -0.49980000
vn -0.00000000 1.00000000 -0.00000000
vn -0.86610000 -0.00000000 -0.49980000
vn -0.00000000 -1.00000000 -0.00000000
vn -0.93970000 -0.00000000 -0.34210000
vn -0.00000000 1.00000000 -0.00000000
vn -0.93970000 -0.00000000 -0.34210000
vn -0.00000000 -1.00000000 -0.00000000
vn -0.98480000 -0.00000000 -0.17360000
vn -0.00000000 1.00000000 -0.00000000
vn -0.98480000 -0.00000000 -0.17360000
vn -0.00000000 -1.00000000 -0.00000000
vn -1.00000000 -0.00000000 -0.00000000
vn -0.00000000 1.00000000 -0.00000000
vn -1.00000000 -0.00000000 -0.00000000
vn -0.00000000 -1.00000000 -0.00000000
vn -0.98480000 -0.00000000 0.17370000
vn -0.00000000 1.00000000 -0.00000000
vn -0.98480000 -0.00000000 0.17370000
vn -0.00000000 -1.00000000 -0.00000000
vn -0.93970000 -0.00000000 0.34210000
vn -0.00000000 1.00000000 -0.00000000
vn -0.93970000 -0.00000000 0.34210000
vn -0.00000000 -1.00000000 -0.00000000
vn -0.86610000 -0.00000000 0.49980000
vn -0.00000000 1.00000000 -0.00000000
vn -0.86610000 -0.00000000 0.49980000
vn -0.00000000 -1.00000000 -0.00000000
vn -0.76610000 -0.00000000 0.64270000
vn -0.00000000 1.00000000 -0.00000000
vn -0.00050000 1.00000000 -0.00050000
vn -0.76610000 -0.00000000 0.64280000
vn -0.00000000 -1.00000000 -0.00000000
vn -0.64270000 -0.00000000 0.76610000
vn 0.00010000 1.00000000 -0.00010000
vn -0.00050000 1.00000000 -0.00050000
vn -0.64270000 -0.00000000 0.76610000
vn -0.00000000 -1.00000000 -0.00000000
vn -0.49980000 -0.00000000 0.86610000
vn 0.00010000 1.00000000 -0.00010000
vn -0.49980000 -0.00000000 0.86610000
vn -0.00000000 -1.00000000 -0.00000000
vn -0.34210000 -0.00000000 0.93970000
vn 0.00010000 1.00000000 -0.00010000
vn -0.00000000 1.00000000 -0.00010000
vn -0.34210000 -0.00000000 0.93970000
vn -0.00000000 -1.00000000 -0.00000000
vn -0.17360000 -0.00000000 0.98480000
vn -0.00000000 1.00000000 -0.00010000
vn -0.17360000 -0.00000000 0.98480000
vn -0.00000000 -1.00000000 -0.00000000
vn -0.00000000 -0.00000000 1.00000000
vn -0.00000000 1.00000000 -0.00010000
vn -0.00000000 -0.00000000 1.00000000
vn -0.00000000 1.00000000 -0.00010000
vn 0.17370000 -0.00000000 0.98480000
vn -0.00000000 -1.00000000 -0.00000000
vn 0.17370000 -0.00000000 0.98480000
vn -0.00000000 1.00000000 -0.00010000
vn -0.00010000 1.00000000 -0.00010000
vn 0.34210000 -0.00000000 0.93970000
vn -0.00000000 -1.00000000 -0.00000000
vn 0.34210000 -0.00000000 0.93970000
vn -0.00010000 1.00000000 -0.00010000
vn 0.49980000 -0.00000000 0.86610000
vn -0.00000000 -1.00000000 -0.00000000
vn 0.49980000 -0.00000000 0.86610000
vn 0.00050000 1.00000000 -0.00050000
vn -0.00010000 1.00000000 -0.00010000
vn 0.64270000 -0.00000000 0.76610000
vn -0.00000000 -1.00000000 -0.00000000
vn 0.64270000 -0.00000000 0.76610000
vn -0.00000000 1.00000000 -0.00000000
vn 0.00050000 1.00000000 -0.00050000
vn 0.76610000 -0.00000000 0.64270000
vn -0.00000000 -1.00000000 -0.00000000
vn 0.76610000 -0.00000000 0.64270000
vn -0.00000000 1.00000000 -0.00000000
vn 0.86610000 -0.00000000 0.49980000
vn -0.00000000 -1.00000000 -0.00000000
vn 0.86610000 -0.00000000 0.49980000
vn -0.00000000 1.00000000 -0.00000000
vn 0.93970000 -0.00000000 0.34210000
vn -0.00000000 -1.00000000 -0.00000000
vn 0.93970000 -0.00000000 0.34210000
vn -0.00000000 1.00000000 -0.00000000
vn 0.98480000 -0.00000000 0.17370000
vn -0.00000000 -1.00000000 -0.00000000
vn 0.98480000 -0.00000000 0.17370000
vn -0.00000000 1.00000000 -0.00000000
vn 1.00000000 -0.00000000 -0.00000000
vn -0.00000000 -1.00000000 -0.00000000
vn 1.00000000 -0.00000000 -0.00000000
vn -0.00000000 1.00000000 -0.00000000
vn 0.98480000 -0.00000000 -0.17360000
vn -0.00000000 -1.00000000 -0.00000000
vn 0.98480000 -0.00000000 -0.17360000
vn -0.00000000 1.00000000 -0.00000000
vn 0.93970000 -0.00000000 -0.34210000
vn 0.93970000 -0.00000000 -0.34210000
vn -0.00000000 -1.00000000 -0.00000000
vn -0.00000000 -1.00000000 -0.00000000
vn -0.00000000 -1.00000000 -0.00000000
vn 0.64270000 -0.00000000 -0.76610000
vn 0.64270000 -0.00000000 -0.76610000
vn -0.00000000 1.00000000 -0.00000000
vn 0.00010000 1.00000000 -0.00010000
vn -0.00000000 1.00000000 -0.00010000
vn -0.00000000 1.00000000 -0.00000000
vn -0.00050000 1.00000000 -0.00050000
vn 0.00050000 1.00000000 -0.00050000
vn -0.00010000 1.00000000 -0.00010000
vn -0.00000000 1.00000000 -0.00000000
vn 0.86610000 -0.00000000 -0.49980000
vn 0.86610000 -0.00000000 -0.49980000
vn -0.00000000 -1.00000000 -0.00000000
vn -0.00000000 -1.00000000 -0.00000000
vn 0.76610000 -0.00000000 -0.64270000
vn -0.00000000 1.00000000 -0.00000000
vn 0.76610000 -0.00000000 -0.64270000
vt 0.52678800 0.94045300
vt 0.54724200 0.46287700
vt 0.95972500 0.11673000
vt 0.53402000 0.46287700
vt 0.52780500 0.94587700
vt 0.54724200 0.45733900
vt 0.96492400 0.11480900
vt 0.53402000 0.45733900
vt 0.52780500 0.95141500
vt 0.54724200 0.45180200
vt 0.96967000 0.11209700
vt 0.53402000 0.45180200
vt 0.52678800 0.95683900
vt 0.54724200 0.64504700
vt 0.54724200 0.44626400
vt 0.97396400 0.10859300
vt 0.53402000 0.44626400
vt 0.53402000 0.64504700
vt 0.97746800 0.10429900
vt 0.53402000 0.63951000
vt 0.52486600 0.96203800
vt 0.54724200 0.63951000
vt 0.98018000 0.09955300
vt 0.53402000 0.63397200
vt 0.52215400 0.96689700
vt 0.54724200 0.63397200
vt 0.98210100 0.09435400
vt 0.53402000 0.62854800
vt 0.51865100 0.97107800
vt 0.54724200 0.62854800
vt 0.98311800 0.08893000
vt 0.53402000 0.62301100
vt 0.51435600 0.97458200
vt 0.54724200 0.62301100
vt 0.98311800 0.08339200
vt 0.53402000 0.61747300
vt 0.50961000 0.97740700
vt 0.54724200 0.61747300
vt 0.98210100 0.07796800
vt 0.53402000 0.61193600
vt 0.50441200 0.97932800
vt 0.54724200 0.61193600
vt 0.98018000 0.07276900
vt 0.53402000 0.60639800
vt 0.49898700 0.98023200
vt 0.54724200 0.60639800
vt 0.97746800 0.06791000
vt 0.53402000 0.60086100
vt 0.49345000 0.98023200
vt 0.54724200 0.60086100
vt 0.97396400 0.06372900
vt 0.53402000 0.59532300
vt 0.48802500 0.97932800
vt 0.54724200 0.59532300
vt 0.96967000 0.06022500
vt 0.53402000 0.58978600
vt 0.48282700 0.97740700
vt 0.54724200 0.58978600
vt 0.96492400 0.05740000
vt 0.53402000 0.58436100
vt 0.47796800 0.97458200
vt 0.54724200 0.58436100
vt 0.95972500 0.05547900
vt 0.53402000 0.57882400
vt 0.47378600 0.97107800
vt 0.54724200 0.57882400
vt 0.95430100 0.05457500
vt 0.53402000 0.57328700
vt 0.47028300 0.96689700
vt 0.47028300 0.96689700
vt 0.54724200 0.57328700
vt 0.94876300 0.05457500
vt 0.53402000 0.56774900
vt 0.46745800 0.96203800
vt 0.46745800 0.96203800
vt 0.54724200 0.56774900
vt 0.94333900 0.05547900
vt 0.53402000 0.56221200
vt 0.46553700 0.95683900
vt 0.54724200 0.56221200
vt 0.93814100 0.05740000
vt 0.53402000 0.55667400
vt 0.46463300 0.95141500
vt 0.46463300 0.95141500
vt 0.54724200 0.55667400
vt 0.93339400 0.06022500
vt 0.53402000 0.55113700
vt 0.46463300 0.94587700
vt 0.54724200 0.55113700
vt 0.92910000 0.06372900
vt 0.53402000 0.54571200
vt 0.46553700 0.94045300
vt 0.54724200 0.54571200
vt 0.46745800 0.93525500
vt 0.54724200 0.54017500
vt 0.92559700 0.06791000
vt 0.53402000 0.54017500
vt 0.47028300 0.93050800
vt 0.47028300 0.93050800
vt 0.54724200 0.53463800
vt 0.92277100 0.07276900
vt 0.53402000 0.53463800
vt 0.47378600 0.92621400
vt 0.54724200 0.52910000
vt 0.92096300 0.07796800
vt 0.53402000 0.52910000
vt 0.47796800 0.92271100
vt 0.47796800 0.92271100
vt 0.54724200 0.52356300
vt 0.91994600 0.08339200
vt 0.53402000 0.52356300
vt 0.48282700 0.91999800
vt 0.48282700 0.91999800
vt 0.54724200 0.51802500
vt 0.91994600 0.08893000
vt 0.53402000 0.51802500
vt 0.48802500 0.91807700
vt 0.54724200 0.51248800
vt 0.92096300 0.09435400
vt 0.53402000 0.51248800
vt 0.49345000 0.91706000
vt 0.54724200 0.50706300
vt 0.92277100 0.09955300
vt 0.53402000 0.50706300
vt 0.49898700 0.91706000
vt 0.54724200 0.50152600
vt 0.92559700 0.10429900
vt 0.53402000 0.50152600
vt 0.50441200 0.91807700
vt 0.54724200 0.49598800
vt 0.92910000 0.10859300
vt 0.53402000 0.49598800
vt 0.50961000 0.91999800
vt 0.54724200 0.49045100
vt 0.93339400 0.11209700
vt 0.53402000 0.49045100
vt 0.51435600 0.92271100
vt 0.54724200 0.48491300
vt 0.53402000 0.48491300
vt 0.93814100 0.11480900
vt 0.95147600 0.08610500
vt 0.95430100 0.11774700
vt 0.53402000 0.46830100
vt 0.54724200 0.46830100
vt 0.52486600 0.93525500
vt 0.49616200 0.94870300
vt 0.49616200 0.94870300
vt 0.49616200 0.94870300
vt 0.49616200 0.94870300
vt 0.49616200 0.94870300
vt 0.49616200 0.94870300
vt 0.51865100 0.92621400
vt 0.54724200 0.47937600
vt 0.53402000 0.47937600
vt 0.94333900 0.11673000
vt 0.94876300 0.11774700
vt 0.53402000 0.47383900
vt 0.52215400 0.93050800
vt 0.54724200 0.47383900
f 2/2/2 4/4/4 6/6/6
f 4/4/4 8/8/8 6/6/6
f 6/6/6 8/8/8 10/10/10
f 8/8/8 12/12/12 10/10/10
f 10/10/10 12/12/12 15/15/15
f 12/12/12 17/17/17 15/15/15
f 18/18/18 20/20/20 14/14/14
f 14/14/14 20/20/20 22/22/22
f 20/20/20 24/24/24 22/22/22
f 22/22/22 24/24/24 26/26/26
f 24/24/24 28/28/28 26/26/26
f 26/26/26 28/28/28 30/30/30
f 28/28/28 32/32/32 30/30/30
f 30/30/30 32/32/32 34/34/34
f 32/32/32 36/36/36 34/34/34
f 34/34/34 36/36/36 38/38/38
f 36/36/36 40/40/40 38/38/38
f 38/38/38 40/40/40 42/42/42
f 40/40/40 44/44/44 42/42/42
f 42/42/42 44/44/44 46/46/46
f 44/44/44 48/48/48 46/46/46
f 46/46/46 48/48/48 50/50/50
f 48/48/48 52/52/52 50/50/50
f 50/50/50 52/52/52 54/54/54
f 52/52/52 56/56/56 54/54/54
f 54/54/54 56/56/56 58/58/58
f 56/56/56 60/60/60 58/58/58
f 58/58/58 60/60/60 62/62/62
f 60/60/60 64/64/64 62/62/62
f 62/62/62 64/64/64 66/66/66
f 64/64/64 68/68/68 66/66/66
f 66/66/66 68/68/68 71/71/71
f 68/68/68 73/73/73 71/71/71
f 71/71/71 73/73/73 76/76/76
f 73/73/73 78/78/78 76/76/76
f 76/76/76 78/78/78 80/80/80
f 78/78/78 82/82/82 80/80/80
f 80/80/80 82/82/82 85/85/85
f 82/82/82 87/87/87 85/85/85
f 85/85/85 87/87/87 89/89/89
f 87/87/87 91/91/91 89/89/89
f 89/89/89 91/91/91 93/93/93
f 93/93/93 91/91/91 95/95/95
f 91/91/91 97/97/97 95/95/95
f 95/95/95 97/97/97 100/100/100
f 97/97/97 102/102/102 100/100/100
f 100/100/100 102/102/102 104/104/104
f 102/102/102 106/106/106 104/104/104
f 104/104/104 106/106/106 109/109/109
f 106/106/106 111/111/111 109/109/109
f 109/109/109 111/111/111 114/114/114
f 111/111/111 116/116/116 114/114/114
f 114/114/114 116/116/116 118/118/118
f 116/116/116 120/120/120 118/118/118
f 118/118/118 120/120/120 122/122/122
f 120/120/120 124/124/124 122/122/122
f 122/122/122 124/124/124 126/126/126
f 124/124/124 128/128/128 126/126/126
f 126/126/126 128/128/128 130/130/130
f 128/128/128 132/132/132 130/130/130
f 130/130/130 132/132/132 134/134/134
f 132/132/132 136/136/136 134/134/134
f 134/134/134 136/136/136 138/138/138
f 138/138/138 136/136/136 139/139/139
f 140/140/140 135/135/135 141/141/141
f 135/135/135 131/131/131 141/141/141
f 131/131/131 127/127/127 141/141/141
f 127/127/127 123/123/123 141/141/141
f 123/123/123 119/119/119 141/141/141
f 119/119/119 115/115/115 141/141/141
f 115/115/115 110/110/110 141/141/141
f 110/110/110 105/105/105 141/141/141
f 105/105/105 101/101/101 141/141/141
f 101/101/101 96/96/96 141/141/141
f 96/96/96 90/90/90 141/141/141
f 90/90/90 86/86/86 141/141/141
f 86/86/86 81/81/81 141/141/141
f 81/81/81 77/77/77 141/141/141
f 77/77/77 72/72/72 141/141/141
f 72/72/72 67/67/67 141/141/141
f 67/67/67 63/63/63 141/141/141
f 63/63/63 59/59/59 141/141/141
f 59/59/59 55/55/55 141/141/141
f 55/55/55 51/51/51 141/141/141
f 51/51/51 47/47/47 141/141/141
f 47/47/47 43/43/43 141/141/141
f 43/43/43 39/39/39 141/141/141
f 39/39/39 35/35/35 141/141/141
f 35/35/35 31/31/31 141/141/141
f 31/31/31 27/27/27 141/141/141
f 27/27/27 23/23/23 141/141/141
f 23/23/23 19/19/19 141/141/141
f 19/19/19 16/16/16 141/141/141
f 16/16/16 11/11/11 141/141/141
f 11/11/11 7/7/7 141/141/141
f 7/7/7 3/3/3 141/141/141
f 141/141/141 3/3/3 142/142/142
f 4/4/4 2/2/2 143/143/143
f 143/143/143 2/2/2 144/144/144
f 145/145/145 1/1/1 148/148/148
f 1/1/1 5/5/5 148/148/148
f 5/5/5 9/9/9 148/148/148
f 9/9/9 13/13/13 148/148/148
f 13/13/13 21/21/21 148/148/148
f 21/21/21 25/25/25 148/148/148
f 25/25/25 29/29/29 148/148/148
f 29/29/29 33/33/33 148/148/148
f 33/33/33 37/37/37 148/148/148
f 37/37/37 41/41/41 148/148/148
f 41/41/41 45/45/45 148/148/148
f 45/45/45 49/49/49 148/148/148
f 49/49/49 53/53/53 148/148/148
f 53/53/53 57/57/57 148/148/148
f 57/57/57 61/61/61 148/148/148
f 61/61/61 65/65/65 148/148/148
f 65/65/65 69/69/69 148/148/148
f 70/70/70 75/75/75 149/149/149
f 74/74/74 79/79/79 146/146/146
f 79/79/79 83/83/83 146/146/146
f 84/84/84 88/88/88 147/147/147
f 88/88/88 92/92/92 147/147/147
f 92/92/92 94/94/94 147/147/147
f 94/94/94 98/98/98 147/147/147
f 99/99/99 103/103/103 151/151/151
f 103/103/103 108/108/108 151/151/151
f 107/107/107 113/113/113 150/150/150
f 112/112/112 117/117/117 148/148/148
f 117/117/117 121/121/121 148/148/148
f 121/121/121 125/125/125 148/148/148
f 125/125/125 129/129/129 148/148/148
f 129/129/129 133/133/133 148/148/148
f 133/133/133 137/137/137 148/148/148
f 148/148/148 137/137/137 152/152/152
f 138/138/138 139/139/139 153/153/153
f 153/153/153 139/139/139 154/154/154
f 140/140/140 141/141/141 155/155/155
f 155/155/155 141/141/141 156/156/156
f 141/141/141 142/142/142 156/156/156
f 143/143/143 144/144/144 157/157/157
f 157/157/157 144/144/144 159/159/159
f 145/145/145 148/148/148 158/158/158
f 148/148/148 152/152/152 158/158/158
f 153/153/153 154/154/154 159/159/159
f 157/157/157 159/159/159 154/154/154

