mtllib material.mtl
usemtl Metal_DarkGray_002_COLOR_0.001
v 0.02893400 0.04148300 0.02960700
v 0.02212700 0.04155600 0.02456500
v 0.02242000 0.04587200 0.02523800
v 0.01505400 0.04520600 0.02195400
v 0.01535300 0.04911600 0.02194100
v 0.00769400 0.04741700 0.01997600
v 0.00784000 0.05112000 0.01990200
v 0.00000100 0.04812300 0.01921600
v 0.00000100 0.04812300 0.01921600
v 0.00000100 0.05182000 0.01920300
v 0.00000100 0.05182000 0.01920300
v -0.00784600 0.05112000 0.01990200
v -0.00769200 0.04741700 0.01997600
v -0.01535200 0.04911600 0.02194100
v -0.01505200 0.04520600 0.02195400
v -0.02241900 0.04587200 0.02523800
v -0.02893300 0.04148300 0.02960700
v -0.02212600 0.04155600 0.02456500
v -0.02320500 0.03893100 0.02158700
v -0.01545200 0.04259500 0.01988900
v -0.00771900 0.04470600 0.01908300
v 0.00000100 0.04541200 0.01877700
v 0.00000100 0.04541200 0.01877700
v 0.00771400 0.04470600 0.01908300
v 0.01545300 0.04259500 0.01988900
v 0.02320600 0.03893100 0.02158700
v 0.03089900 0.03314300 0.02425200
v 0.03079900 0.03495500 0.02879400
v 0.03474900 0.03609400 0.03498200
v 0.03894500 0.05305900 0.04166900
v 0.03894500 0.05305900 0.04166900
v 0.03444900 0.05305900 0.03524800
v 0.03444900 0.05305900 0.03524800
v 0.02890800 0.05305900 0.02970700
v 0.02890800 0.05305900 0.02970700
v 0.02890800 0.05305900 0.02970700
v 0.02248700 0.05305900 0.02521100
v 0.02248700 0.05305900 0.02521100
v 0.02248700 0.05305900 0.02521100
v 0.01538000 0.05305900 0.02189400
v 0.01538000 0.05305900 0.02189400
v 0.01538000 0.05305900 0.02189400
v 0.00780700 0.05305900 0.01986900
v 0.00780700 0.05305900 0.01986900
v 0.00780700 0.05305900 0.01986900
v 0.00000100 0.05305900 0.01918300
v 0.00000100 0.05305900 0.01918300
v 0.00000100 0.05305900 0.01918300
v -0.00780600 0.05305900 0.01986900
v -0.00780600 0.05305900 0.01986900
v -0.00780600 0.05305900 0.01986900
v -0.01537900 0.05305900 0.02189400
v -0.01537900 0.05305900 0.02189400
v -0.01537900 0.05305900 0.02189400
v -0.02248600 0.05305900 0.02521100
v -0.02248600 0.05305900 0.02521100
v -0.02890700 0.05305900 0.02970700
v -0.02890700 0.05305900 0.02970700
v -0.03444800 0.05305900 0.03524900
v -0.03444800 0.05305900 0.03524900
v -0.03894400 0.05305900 0.04166900
v -0.03894400 0.05305900 0.04166900
v -0.03474800 0.03609400 0.03498200
v -0.03080500 0.03495500 0.02879400
v -0.03089800 0.03314300 0.02425200
v -0.03742500 0.02495700 0.01995600
v -0.03175700 0.03185800 0.01787800
v -0.02475000 0.03753300 0.01617200
v -0.01694400 0.04163600 0.01491400
v -0.00859800 0.04412000 0.01414800
v 0.00000100 0.04495900 0.01389400
v 0.00000100 0.04495900 0.01389400
v 0.00859900 0.04412000 0.01414800
v 0.01693900 0.04163600 0.01491400
v 0.02475200 0.03753300 0.01617200
v 0.03175200 0.03185800 0.01787800
v 0.03742700 0.02495700 0.01995600
v 0.04157600 0.01719100 0.02232000
v 0.03738700 0.02565000 0.02821500
v 0.03749300 0.02745500 0.03444900
v 0.03955100 0.02984600 0.04135600
v 0.04225600 0.05305900 0.04877000
v 0.04225600 0.05305900 0.04877000
v 0.04225600 0.05305900 0.04877000
v 0.00000100 0.05305900 0.06415600
v 0.00000100 0.05305900 0.06415600
v 0.00000100 0.05305900 0.06415600
v 0.00000100 0.05305900 0.06415600
v 0.00000100 0.05305900 0.06415600
v 0.00000100 0.05305900 0.06415600
v 0.00000100 0.05305900 0.06415600
v 0.00000100 0.05305900 0.06415600
v 0.00000100 0.05305900 0.06415600
v 0.00000100 0.05305900 0.06415600
v 0.00000100 0.05305900 0.06415600
v 0.00000100 0.05305900 0.06415600
v 0.00000100 0.05305900 0.06415600
v 0.00000100 0.05305900 0.06415600
v 0.00000100 0.05305900 0.06415600
v 0.00000100 0.05305900 0.06415600
v 0.00000100 0.05305900 0.06415600
v 0.00000100 0.05305900 0.06415600
v 0.00000100 0.05305900 0.06415600
v 0.00000100 0.05305900 0.06415600
v -0.04225400 0.05305900 0.04877000
v -0.04225400 0.05305900 0.04877000
v -0.04225400 0.05305900 0.04877000
v -0.03955000 0.02984600 0.04135600
v -0.03749200 0.02745500 0.03444900
v -0.03738600 0.02565000 0.02821500
v -0.04158200 0.01719100 0.02232000
v -0.04411900 0.00881900 0.00000000
v -0.04411900 0.00881900 0.00000000
v -0.04411900 0.00881900 0.00000000
v -0.04154200 0.01725800 0.00000000
v -0.04154200 0.01725800 0.00000000
v -0.04154200 0.01725800 0.00000000
v -0.03737200 0.02503100 0.00000000
v -0.03737200 0.02503100 0.00000000
v -0.03737200 0.02503100 0.00000000
v -0.03176400 0.03183800 0.00000000
v -0.03176400 0.03183800 0.00000000
v -0.03176400 0.03183800 0.00000000
v -0.02493700 0.03742600 0.00000000
v -0.02493700 0.03742600 0.00000000
v -0.02493700 0.03742600 0.00000000
v -0.01712400 0.04151600 0.00000000
v -0.01712400 0.04151600 0.00000000
v -0.01712400 0.04151600 0.00000000
v -0.00867200 0.04398000 0.00000000
v -0.00867200 0.04398000 0.00000000
v -0.00867200 0.04398000 0.00000000
v 0.00000100 0.04484600 0.00000000
v 0.00000100 0.04484600 0.00000000
v 0.00000100 0.04484600 0.00000000
v 0.00000100 0.04484600 0.00000000
v 0.00867300 0.04398000 0.00000000
v 0.00867300 0.04398000 0.00000000
v 0.00867300 0.04398000 0.00000000
v 0.01712500 0.04151600 0.00000000
v 0.01712500 0.04151600 0.00000000
v 0.01712500 0.04151600 0.00000000
v 0.02493100 0.03742600 0.00000000
v 0.02493100 0.03742600 0.00000000
v 0.02493100 0.03742600 0.00000000
v 0.03176500 0.03183800 0.00000000
v 0.03176500 0.03183800 0.00000000
v 0.03176500 0.03183800 0.00000000
v 0.03737300 0.02503100 0.00000000
v 0.03737300 0.02503100 0.00000000
v 0.03737300 0.02503100 0.00000000
v 0.04154300 0.01725800 0.00000000
v 0.04154300 0.01725800 0.00000000
v 0.04154300 0.01725800 0.00000000
v 0.04412100 0.00881900 0.00000000
v 0.04412100 0.00881900 0.00000000
v 0.04412100 0.00881900 0.00000000
v 0.04500000 0.00004000 0.00000000
v 0.04500000 0.00004000 0.00000000
v 0.04500000 0.00004000 0.00000000
v 0.04496000 0.00004000 0.02870800
v 0.04412100 0.00881900 0.02488400
v 0.04220900 0.01636500 0.03358300
v 0.04246900 0.01807000 0.04189600
v 0.04296200 0.02290600 0.04859600
v 0.04428700 0.05305900 0.05634300
v 0.04428700 0.05305900 0.05634300
v 0.04428700 0.05305900 0.05634300
v 0.04496700 0.05305900 0.06415600
v 0.04496700 0.05305900 0.06415600
v 0.04428700 0.05305900 0.07196200
v 0.04428700 0.05305900 0.07196200
v 0.04225600 0.05305900 0.07953500
v 0.04225600 0.05305900 0.07953500
v 0.04225600 0.05305900 0.07953500
v 0.03894500 0.05305900 0.08663500
v 0.03894500 0.05305900 0.08663500
v 0.03894500 0.05305900 0.08663500
v 0.03444900 0.05305900 0.09305600
v 0.03444900 0.05305900 0.09305600
v 0.02890800 0.05305900 0.09859800
v 0.02890800 0.05305900 0.09859800
v 0.02890800 0.05305900 0.09859800
v 0.02248700 0.05305900 0.10309400
v 0.02248700 0.05305900 0.10309400
v 0.02248700 0.05305900 0.10309400
v 0.01538000 0.05305900 0.10641100
v 0.01538000 0.05305900 0.10641100
v 0.01538000 0.05305900 0.10641100
v 0.00780700 0.05305900 0.10843600
v 0.00780700 0.05305900 0.10843600
v 0.00000100 0.05305900 0.10912200
v 0.00000100 0.05305900 0.10912200
v -0.00780600 0.05305900 0.10843600
v -0.00780600 0.05305900 0.10843600
v -0.01537900 0.05305900 0.10641100
v -0.01537900 0.05305900 0.10641100
v -0.02248600 0.05305900 0.10309400
v -0.02248600 0.05305900 0.10309400
v -0.02248600 0.05305900 0.10309400
v -0.02890700 0.05305900 0.09859800
v -0.02890700 0.05305900 0.09859800
v -0.02890700 0.05305900 0.09859800
v -0.03444800 0.05305900 0.09305600
v -0.03444800 0.05305900 0.09305600
v -0.03444800 0.05305900 0.09305600
v -0.03894400 0.05305900 0.08663500
v -0.03894400 0.05305900 0.08663500
v -0.04225400 0.05305900 0.07953500
v -0.04225400 0.05305900 0.07953500
v -0.04225400 0.05305900 0.07953500
v -0.04428600 0.05305900 0.07196200
v -0.04428600 0.05305900 0.07196200
v -0.04428600 0.05305900 0.07196200
v -0.04496500 0.05305900 0.06415600
v -0.04496500 0.05305900 0.06415600
v -0.04428600 0.05305900 0.05634300
v -0.04428600 0.05305900 0.05634300
v -0.04428600 0.05305900 0.05634300
v -0.04296100 0.02290600 0.04859600
v -0.04246800 0.01807000 0.04189600
v -0.04220800 0.01636500 0.03358300
v -0.04411900 0.00881900 0.02488400
v -0.04495900 0.00004000 0.02870800
v -0.04499900 0.00004000 0.00000000
v -0.04499900 0.00004000 0.00000000
v -0.04499900 0.00004000 0.00000000
v -0.04411900 -0.00870600 0.02795500
v -0.04415300 -0.00873900 0.00000000
v -0.04415300 -0.00873900 0.00000000
v -0.04415300 -0.00873900 0.00000000
v 0.00000100 -0.00000000 0.00000000
v 0.00000100 -0.00000000 0.00000000
v 0.00000100 -0.00000000 0.00000000
v 0.00000100 -0.00000000 0.00000000
v 0.00000100 -0.00000000 0.00000000
v 0.00000100 -0.00000000 0.00000000
v 0.00000100 -0.00000000 0.00000000
v 0.00000100 -0.00000000 0.00000000
v 0.00000100 -0.00000000 0.00000000
v 0.00000100 -0.00000000 0.00000000
v 0.00000100 -0.00000000 0.00000000
v 0.00000100 -0.00000000 0.00000000
v 0.00000100 -0.00000000 0.00000000
v 0.00000100 -0.00000000 0.00000000
v 0.00000100 -0.00000000 0.00000000
v 0.00000100 -0.00000000 0.00000000
v 0.00000100 -0.00000000 0.00000000
v 0.00000100 -0.00000000 0.00000000
v 0.00000100 -0.00000000 0.00000000
v 0.00000100 -0.00000000 0.00000000
v 0.00000100 -0.00000000 0.00000000
v 0.00000100 -0.00000000 0.00000000
v 0.00000100 -0.00000000 0.00000000
v 0.00000100 -0.00000000 0.00000000
v 0.00000100 -0.00000000 0.00000000
v 0.00000100 -0.00000000 0.00000000
v 0.00000100 -0.00000000 0.00000000
v 0.00000100 -0.00000000 0.00000000
v 0.00000100 -0.00000000 0.00000000
v 0.00000100 -0.00000000 0.00000000
v 0.00000100 -0.00000000 0.00000000
v 0.00000100 -0.00000000 0.00000000
v 0.04415400 -0.00873900 0.00000000
v 0.04415400 -0.00873900 0.00000000
v 0.04415400 -0.00873900 0.00000000
v 0.04412100 -0.00870600 0.02795500
v 0.04410700 -0.00873900 0.03957800
v 0.04495300 0.00004000 0.04119000
v 0.04436700 0.00837900 0.03829900
v 0.04463400 0.00933800 0.04889000
v 0.04472000 0.01549900 0.05636300
v 0.04492000 0.01549900 0.06434200
v 0.04419400 0.01549900 0.07218800
v 0.04224200 0.01549900 0.07987500
v 0.03895200 0.01549900 0.08703500
v 0.03439600 0.01549900 0.09346200
v 0.02870100 0.01549900 0.09893100
v 0.02221400 0.01549900 0.10328000
v 0.01509400 0.01549900 0.10647700
v 0.00757400 0.01549900 0.10843600
v 0.00000100 0.01549900 0.10906800
v -0.00757200 0.01549900 0.10843600
v -0.01509200 0.01549900 0.10647700
v -0.02221300 0.01549900 0.10328000
v -0.02870700 0.01549900 0.09893100
v -0.03439500 0.01549900 0.09346200
v -0.03895100 0.01549900 0.08703500
v -0.04224800 0.01549900 0.07987500
v -0.04419300 0.01549900 0.07218800
v -0.04491900 0.01549900 0.06434200
v -0.04472600 0.01549900 0.05636300
v -0.04463900 0.00933800 0.04889000
v -0.04436600 0.00837900 0.03829900
v -0.04495200 0.00004000 0.04119000
v -0.04410600 -0.00873900 0.03957800
v -0.04173500 -0.01721800 0.03504200
v -0.04156800 -0.01715100 0.02567700
v -0.04160800 -0.01718500 0.00000000
v -0.04160800 -0.01718500 0.00000000
v -0.04160800 -0.01718500 0.00000000
v -0.03745900 -0.02497100 0.00000700
v -0.03745900 -0.02497100 0.00000700
v -0.03745900 -0.02497100 0.00000700
v -0.03187700 -0.03179800 0.00000700
v -0.03187700 -0.03179800 0.00000700
v -0.03187700 -0.03179800 0.00000700
v -0.02506300 -0.03740000 0.00000700
v -0.02506300 -0.03740000 0.00000700
v -0.02506300 -0.03740000 0.00000700
v -0.01729700 -0.04158200 0.00000700
v -0.01729700 -0.04158200 0.00000700
v -0.01729700 -0.04158200 0.00000700
v -0.00885800 -0.04416000 0.00000700
v -0.00885800 -0.04416000 0.00000700
v -0.00885800 -0.04416000 0.00000700
v 0.00000100 -0.04503300 0.00000700
v 0.00000100 -0.04503300 0.00000700
v 0.00000100 -0.04503300 0.00000700
v 0.00000100 -0.04503300 0.00000700
v 0.00885900 -0.04416000 0.00000700
v 0.00885900 -0.04416000 0.00000700
v 0.00885900 -0.04416000 0.00000700
v 0.01729800 -0.04158200 0.00000700
v 0.01729800 -0.04158200 0.00000700
v 0.01729800 -0.04158200 0.00000700
v 0.02506500 -0.03740000 0.00000700
v 0.02506500 -0.03740000 0.00000700
v 0.02506500 -0.03740000 0.00000700
v 0.03187800 -0.03179800 0.00000700
v 0.03187800 -0.03179800 0.00000700
v 0.03187800 -0.03179800 0.00000700
v 0.03746000 -0.02497100 0.00000700
v 0.03746000 -0.02497100 0.00000700
v 0.03746000 -0.02497100 0.00000700
v 0.04160300 -0.01718500 0.00000000
v 0.04160300 -0.01718500 0.00000000
v 0.04160300 -0.01718500 0.00000000
v 0.04157000 -0.01715100 0.02567700
v 0.04172900 -0.01721800 0.03504200
v 0.04140300 -0.02058800 0.04055700
v 0.04437400 -0.00921800 0.04825700
v 0.04510000 0.00006000 0.05640900
v 0.04511300 0.00004000 0.06434200
v 0.04444700 0.00004700 0.07224200
v 0.04252900 0.00005300 0.07998100
v 0.03922500 0.00006000 0.08718800
v 0.03458900 0.00005300 0.09361600
v 0.02880800 0.00004700 0.09905700
v 0.02224000 0.00004000 0.10332700
v 0.01508700 0.00004700 0.10645700
v 0.00756000 0.00004700 0.10835600
v 0.00000100 0.00004700 0.10897500
v -0.00755900 0.00004700 0.10835600
v -0.01508600 0.00004700 0.10645700
v -0.02223900 0.00004000 0.10332700
v -0.02880700 0.00004700 0.09905700
v -0.03458800 0.00005300 0.09361600
v -0.03922400 0.00006000 0.08718800
v -0.04252800 0.00005300 0.07998100
v -0.04444600 0.00004700 0.07224200
v -0.04511200 0.00004000 0.06434200
v -0.04509900 0.00006000 0.05640900
v -0.04437900 -0.00921800 0.04825700
v -0.04140200 -0.02058800 0.04055700
v -0.03669300 -0.02912700 0.03476200
v -0.03698600 -0.02639600 0.03032600
v -0.03744600 -0.02496400 0.02319300
v -0.03186400 -0.03178500 0.02102800
v -0.02505700 -0.03739300 0.01930300
v -0.01729000 -0.04156900 0.01803100
v -0.00885100 -0.04413300 0.01725100
v 0.00000100 -0.04500600 0.01698500
v 0.00000100 -0.04500600 0.01698500
v 0.00885300 -0.04413300 0.01725100
v 0.01729200 -0.04156900 0.01803100
v 0.02505800 -0.03739300 0.01930300
v 0.03186500 -0.03178500 0.02102800
v 0.03744700 -0.02496400 0.02319300
v 0.03698700 -0.02639600 0.03032600
v 0.03669400 -0.02912700 0.03476200
v 0.03530900 -0.03462200 0.03789300
v 0.03985100 -0.02920000 0.04372800
v 0.04314200 -0.02226000 0.05078800
v 0.04474700 -0.01623900 0.05830800
v 0.04506600 -0.01477300 0.06592100
v 0.04437400 -0.01331500 0.07350000
v 0.04236200 -0.01189600 0.08087400
v 0.03901900 -0.01056400 0.08775400
v 0.03442300 -0.00937800 0.09391500
v 0.02874800 -0.00835200 0.09917100
v 0.02224700 -0.00752000 0.10335400
v 0.01512700 -0.00690700 0.10641700
v 0.00760000 -0.00652700 0.10828900
v 0.00000100 -0.00640800 0.10890800
v -0.00759900 -0.00652700 0.10828900
v -0.01513200 -0.00690700 0.10641700
v -0.02225200 -0.00752000 0.10335400
v -0.02874700 -0.00835200 0.09917100
v -0.03442200 -0.00937800 0.09391500
v -0.03901700 -0.01056400 0.08775400
v -0.04236800 -0.01189600 0.08087400
v -0.04437300 -0.01331500 0.07350000
v -0.04506500 -0.01477300 0.06592100
v -0.04474600 -0.01623900 0.05830800
v -0.04314000 -0.02226000 0.05078800
v -0.03985000 -0.02920000 0.04372800
v -0.03530700 -0.03462200 0.03789300
v -0.02905300 -0.03930500 0.03285700
v -0.02954600 -0.03648700 0.02982700
v -0.03043900 -0.03394300 0.02649000
v -0.02365100 -0.03895800 0.02415900
v -0.01607800 -0.04249500 0.02253300
v -0.00806500 -0.04456600 0.02153400
v 0.00000100 -0.04522600 0.02122100
v 0.00000100 -0.04522600 0.02122100
v 0.00806700 -0.04456600 0.02153400
v 0.01607300 -0.04249500 0.02253300
v 0.02365300 -0.03895800 0.02415900
v 0.03044000 -0.03394300 0.02649000
v 0.02954700 -0.03648700 0.02982700
v 0.02905400 -0.03930500 0.03285700
v 0.02898800 -0.04168900 0.03494200
v 0.02898800 -0.04168900 0.03494200
v 0.03458900 -0.03949800 0.04028400
v 0.03458900 -0.03949800 0.04028400
v 0.03903200 -0.03704000 0.04635800
v 0.03903200 -0.03704000 0.04635800
v 0.04228900 -0.03434200 0.05307200
v 0.04228900 -0.03434200 0.05307200
v 0.04425400 -0.03149200 0.06015300
v 0.04425400 -0.03149200 0.06015300
v 0.04489300 -0.02857400 0.06739900
v 0.04489300 -0.02857400 0.06739900
v 0.04419400 -0.02566300 0.07463900
v 0.04419400 -0.02566300 0.07463900
v 0.04217600 -0.02287300 0.08158600
v 0.04217600 -0.02287300 0.08158600
v 0.03886500 -0.02022200 0.08818700
v 0.03886500 -0.02022200 0.08818700
v 0.03436300 -0.01783100 0.09414200
v 0.03436300 -0.01783100 0.09414200
v 0.02880800 -0.01576600 0.09928400
v 0.02880800 -0.01576600 0.09928400
v 0.02238000 -0.01408700 0.10344700
v 0.02238000 -0.01408700 0.10344700
v 0.01526000 -0.01285500 0.10651100
v 0.01526000 -0.01285500 0.10651100
v 0.00768000 -0.01210900 0.10838200
v 0.00768000 -0.01210900 0.10838200
v 0.00000100 -0.01186300 0.10898800
v 0.00000100 -0.01186300 0.10898800
v -0.00768600 -0.01210900 0.10838200
v -0.00768600 -0.01210900 0.10838200
v -0.01525900 -0.01285500 0.10651100
v -0.01525900 -0.01285500 0.10651100
v -0.02237900 -0.01408700 0.10344700
v -0.02237900 -0.01408700 0.10344700
v -0.02881300 -0.01576600 0.09928400
v -0.02881300 -0.01576600 0.09928400
v -0.03436200 -0.01783100 0.09414200
v -0.03436200 -0.01783100 0.09414200
v -0.03886400 -0.02022200 0.08818700
v -0.03886400 -0.02022200 0.08818700
v -0.04218100 -0.02287300 0.08158700
v -0.04218100 -0.02287300 0.08158700
v -0.04419300 -0.02566300 0.07463900
v -0.04419300 -0.02566300 0.07463900
v -0.04489900 -0.02857400 0.06739900
v -0.04489900 -0.02857400 0.06739900
v -0.04425900 -0.03149200 0.06015300
v -0.04425900 -0.03149200 0.06015300
v -0.04228800 -0.03434200 0.05307200
v -0.04228800 -0.03434200 0.05307200
v -0.03903100 -0.03704000 0.04635900
v -0.03903100 -0.03704000 0.04635900
v -0.03458800 -0.03949800 0.04028400
v -0.03458800 -0.03949800 0.04028400
v -0.02899300 -0.04168900 0.03494200
v -0.02899300 -0.04168900 0.03494200
v -0.02259900 -0.04346100 0.03067300
v -0.02259900 -0.04346100 0.03067300
v -0.02259900 -0.04224900 0.02931400
v -0.02285200 -0.04065700 0.02700900
v -0.01547900 -0.04352100 0.02505100
v -0.00776600 -0.04516600 0.02383900
v 0.00000100 -0.04569900 0.02346600
v 0.00000100 -0.04569900 0.02346600
v 0.00776000 -0.04516600 0.02383900
v 0.01547300 -0.04352100 0.02505100
v 0.02285300 -0.04065700 0.02700900
v 0.02260000 -0.04224900 0.02931400
v 0.02260000 -0.04346100 0.03067300
v 0.02260000 -0.04346100 0.03067300
v 0.02850200 -0.04292800 0.03634100
v 0.02850200 -0.04292800 0.03634100
v 0.03393700 -0.04089000 0.04140300
v 0.03393700 -0.04089000 0.04140300
v 0.03833300 -0.03852500 0.04727100
v 0.03833300 -0.03852500 0.04727100
v 0.04157000 -0.03590800 0.05375200
v 0.04157000 -0.03590800 0.05375200
v 0.04354100 -0.03312300 0.06065900
v 0.04354100 -0.03312300 0.06065900
v 0.04418700 -0.03025900 0.06777900
v 0.04418700 -0.03025900 0.06777900
v 0.04349500 -0.02738900 0.07489300
v 0.04349500 -0.02738900 0.07489300
v 0.04147600 -0.02461100 0.08178600
v 0.04147600 -0.02461100 0.08178600
v 0.03819900 -0.02200700 0.08825400
v 0.03819900 -0.02200700 0.08825400
v 0.03376300 -0.01964900 0.09409500
v 0.03376300 -0.01964900 0.09409500
v 0.02830200 -0.01761700 0.09913100
v 0.02830200 -0.01761700 0.09913100
v 0.02198100 -0.01597900 0.10320700
v 0.02198100 -0.01597900 0.10320700
v 0.01499400 -0.01476700 0.10621100
v 0.01499400 -0.01476700 0.10621100
v 0.00754700 -0.01402700 0.10803600
v 0.00754700 -0.01402700 0.10803600
v 0.00000100 -0.01379400 0.10862900
v 0.00000100 -0.01379400 0.10862900
v -0.00754600 -0.01402700 0.10803600
v -0.00754600 -0.01402700 0.10803600
v -0.01499200 -0.01476700 0.10621100
v -0.01499200 -0.01476700 0.10621100
v -0.02197900 -0.01597900 0.10320700
v -0.02197900 -0.01597900 0.10320700
v -0.02830000 -0.01761700 0.09913100
v -0.02830000 -0.01761700 0.09913100
v -0.03376200 -0.01964900 0.09409500
v -0.03376200 -0.01964900 0.09409500
v -0.03819800 -0.02200700 0.08825400
v -0.03819800 -0.02200700 0.08825400
v -0.04147500 -0.02461100 0.08178600
v -0.04147500 -0.02461100 0.08178600
v -0.04349300 -0.02738900 0.07489300
v -0.04349300 -0.02738900 0.07489300
v -0.04418600 -0.03025900 0.06777900
v -0.04418600 -0.03025900 0.06777900
v -0.04354000 -0.03312300 0.06065900
v -0.04354000 -0.03312300 0.06065900
v -0.04156800 -0.03590800 0.05375200
v -0.04156800 -0.03590800 0.05375200
v -0.03833100 -0.03852500 0.04727100
v -0.03833100 -0.03852500 0.04727100
v -0.03393500 -0.04089000 0.04140300
v -0.03393500 -0.04089000 0.04140300
v -0.02850000 -0.04292800 0.03634100
v -0.02850000 -0.04292800 0.03634100
v -0.02220600 -0.04458600 0.03222500
v -0.02220600 -0.04458600 0.03222500
v -0.01523200 -0.04581200 0.02918700
v -0.01523200 -0.04581200 0.02918700
v -0.01547900 -0.04482600 0.02748900
v -0.01547900 -0.04482600 0.02748900
v -0.01543200 -0.04434000 0.02674900
v -0.00782600 -0.04557200 0.02515800
v 0.00000100 -0.04599200 0.02463800
v 0.00000100 -0.04599200 0.02463800
v 0.00782700 -0.04557200 0.02515800
v 0.01542700 -0.04434000 0.02674900
v 0.01547300 -0.04482600 0.02748900
v 0.01547300 -0.04482600 0.02748900
v 0.02220700 -0.04458600 0.03222500
v 0.02220700 -0.04458600 0.03222500
v 0.02096200 -0.04622500 0.03526200
v 0.02096200 -0.04622500 0.03526200
v 0.02096200 -0.04622500 0.03526200
v 0.02689600 -0.04466000 0.03914500
v 0.02689600 -0.04466000 0.03914500
v 0.02689600 -0.04466000 0.03914500
v 0.03201200 -0.04272800 0.04392100
v 0.03201200 -0.04272800 0.04392100
v 0.03201200 -0.04272800 0.04392100
v 0.03615500 -0.04049700 0.04944900
v 0.03615500 -0.04049700 0.04944900
v 0.03615500 -0.04049700 0.04944900
v 0.03920500 -0.03802600 0.05556300
v 0.03920500 -0.03802600 0.05556300
v 0.03920500 -0.03802600 0.05556300
v 0.04106300 -0.03539500 0.06207100
v 0.04106300 -0.03539500 0.06207100
v 0.04106300 -0.03539500 0.06207100
v 0.04167000 -0.03268400 0.06877800
v 0.04167000 -0.03268400 0.06877800
v 0.04101000 -0.02997300 0.07548500
v 0.04101000 -0.02997300 0.07548500
v 0.04101000 -0.02997300 0.07548500
v 0.03911200 -0.02734900 0.08198600
v 0.03911200 -0.02734900 0.08198600
v 0.03911200 -0.02734900 0.08198600
v 0.03601500 -0.02488400 0.08808100
v 0.03601500 -0.02488400 0.08808100
v 0.03183200 -0.02266000 0.09358200
v 0.03183200 -0.02266000 0.09358200
v 0.03183200 -0.02266000 0.09358200
v 0.02667600 -0.02074100 0.09832500
v 0.02667600 -0.02074100 0.09832500
v 0.02667600 -0.02074100 0.09832500
v 0.02071500 -0.01918900 0.10216800
v 0.02071500 -0.01918900 0.10216800
v 0.02071500 -0.01918900 0.10216800
v 0.01412100 -0.01805000 0.10499900
v 0.01412100 -0.01805000 0.10499900
v 0.01412100 -0.01805000 0.10499900
v 0.00710100 -0.01735100 0.10671700
v 0.00710100 -0.01735100 0.10671700
v 0.00710100 -0.01735100 0.10671700
v 0.00000100 -0.01713100 0.10727000
v 0.00000100 -0.01713100 0.10727000
v 0.00000100 -0.01713100 0.10727000
v -0.00710000 -0.01735100 0.10671700
v -0.00710000 -0.01735100 0.10671700
v -0.00710000 -0.01735100 0.10671700
v -0.01412700 -0.01805000 0.10499900
v -0.01412700 -0.01805000 0.10499900
v -0.01412700 -0.01805000 0.10499900
v -0.02071400 -0.01918900 0.10216800
v -0.02071400 -0.01918900 0.10216800
v -0.02071400 -0.01918900 0.10216800
v -0.02668200 -0.02074100 0.09832500
v -0.02668200 -0.02074100 0.09832500
v -0.02668200 -0.02074100 0.09832500
v -0.03183100 -0.02266000 0.09358200
v -0.03183100 -0.02266000 0.09358200
v -0.03183100 -0.02266000 0.09358200
v -0.03602000 -0.02488400 0.08808100
v -0.03602000 -0.02488400 0.08808100
v -0.03911100 -0.02734900 0.08198600
v -0.03911100 -0.02734900 0.08198600
v -0.03911100 -0.02734900 0.08198600
v -0.04101600 -0.02997300 0.07548500
v -0.04101600 -0.02997300 0.07548500
v -0.04101600 -0.02997300 0.07548500
v -0.04166800 -0.03268400 0.06877800
v -0.04166800 -0.03268400 0.06877800
v -0.04106200 -0.03539500 0.06207100
v -0.04106200 -0.03539500 0.06207100
v -0.04106200 -0.03539500 0.06207100
v -0.03920400 -0.03802600 0.05556300
v -0.03920400 -0.03802600 0.05556300
v -0.03920400 -0.03802600 0.05556300
v -0.03616000 -0.04049700 0.04944900
v -0.03616000 -0.04049700 0.04944900
v -0.03616000 -0.04049700 0.04944900
v -0.03201000 -0.04272800 0.04392100
v -0.03201000 -0.04272800 0.04392100
v -0.03201000 -0.04272800 0.04392100
v -0.02689500 -0.04466000 0.03914500
v -0.02689500 -0.04466000 0.03914500
v -0.02689500 -0.04466000 0.03914500
v -0.02096000 -0.04622500 0.03526200
v -0.02096000 -0.04622500 0.03526200
v -0.02096000 -0.04622500 0.03526200
v -0.01438600 -0.04738400 0.03239800
v -0.01438600 -0.04738400 0.03239800
v -0.01438600 -0.04738400 0.03239800
v -0.00737900 -0.04809700 0.03063300
v -0.00737900 -0.04809700 0.03063300
v -0.00737900 -0.04809700 0.03063300
v -0.00779900 -0.04657100 0.02731600
v -0.00779900 -0.04657100 0.02731600
v -0.00789200 -0.04572500 0.02551100
v -0.00789200 -0.04572500 0.02551100
v 0.00000100 -0.04604500 0.02483100
v 0.00000100 -0.04604500 0.02483100
v 0.00000100 -0.04604500 0.02483100
v 0.00000100 -0.04604500 0.02483100
v 0.00789300 -0.04572500 0.02551100
v 0.00789300 -0.04572500 0.02551100
v 0.01523300 -0.04581200 0.02918700
v 0.01523300 -0.04581200 0.02918700
v 0.01438700 -0.04738400 0.03239800
v 0.01438700 -0.04738400 0.03239800
v 0.01438700 -0.04738400 0.03239800
v 0.00000100 -0.03270400 0.06872500
v 0.00000100 -0.03270400 0.06872500
v 0.00000100 -0.03270400 0.06872500
v 0.00000100 -0.03270400 0.06872500
v 0.00000100 -0.03270400 0.06872500
v 0.00000100 -0.03270400 0.06872500
v 0.00000100 -0.03270400 0.06872500
v 0.00000100 -0.03270400 0.06872500
v 0.00000100 -0.03270400 0.06872500
v 0.00000100 -0.03270400 0.06872500
v 0.00000100 -0.03270400 0.06872500
v 0.00000100 -0.03270400 0.06872500
v 0.00000100 -0.03270400 0.06872500
v 0.00000100 -0.03270400 0.06872500
v 0.00000100 -0.03270400 0.06872500
v 0.00000100 -0.03270400 0.06872500
v 0.00000100 -0.03270400 0.06872500
v 0.00000100 -0.03270400 0.06872500
v 0.00000100 -0.03270400 0.06872500
v 0.00000100 -0.03270400 0.06872500
v 0.00000100 -0.03270400 0.06872500
v 0.00000100 -0.03270400 0.06872500
v 0.00000100 -0.03270400 0.06872500
v 0.00000100 -0.04834300 0.03002700
v 0.00000100 -0.04834300 0.03002700
v 0.00000100 -0.04834300 0.03002700
v 0.00000100 -0.04834300 0.03002700
v 0.00000100 -0.04682400 0.02667600
v 0.00000100 -0.04682400 0.02667600
v 0.00000100 -0.04682400 0.02667600
v 0.00000100 -0.04682400 0.02667600
v 0.00780000 -0.04657100 0.02731600
v 0.00780000 -0.04657100 0.02731600
v 0.00738100 -0.04809700 0.03063300
v 0.00738100 -0.04809700 0.03063300
v 0.00738100 -0.04809700 0.03063300
vn 0.65330000 0.12820000 -0.74610000
vn 0.59140000 0.44340000 -0.67350000
vn 0.49830000 0.03790000 -0.86620000
vn 0.40230000 0.31710000 -0.85880000
vn 0.33930000 -0.01990000 -0.94050000
vn 0.17010000 0.14770000 -0.97430000
vn 0.17590000 -0.01830000 -0.98420000
vn -0.10080000 0.07090000 -0.99240000
vn 0.10080000 0.07090000 -0.99240000
vn 0.08800000 -0.01010000 -0.99610000
vn -0.08800000 -0.01010000 -0.99610000
vn -0.17600000 -0.01810000 -0.98420000
vn -0.17000000 0.14760000 -0.97430000
vn -0.33940000 -0.01990000 -0.94040000
vn -0.40230000 0.31710000 -0.85880000
vn -0.49830000 0.03790000 -0.86620000
vn -0.65340000 0.12850000 -0.74610000
vn -0.59130000 0.44350000 -0.67350000
vn -0.57180000 0.78060000 -0.25230000
vn -0.40130000 0.81050000 -0.42670000
vn -0.18640000 0.76120000 -0.62110000
vn -0.12210000 0.72890000 -0.67360000
vn 0.12220000 0.72890000 -0.67360000
vn 0.18630000 0.76120000 -0.62120000
vn 0.40120000 0.81040000 -0.42700000
vn 0.57190000 0.78060000 -0.25240000
vn 0.71830000 0.67910000 -0.15120000
vn 0.76340000 0.47750000 -0.43500000
vn 0.80350000 0.15930000 -0.57360000
vn -0.00000000 1.00000000 -0.00000000
vn 0.86480000 0.02730000 -0.50130000
vn -0.00000000 1.00000000 -0.00000000
vn 0.76310000 0.01870000 -0.64600000
vn -0.00000000 1.00000000 -0.00000000
vn -0.00000000 1.00000000 -0.00000000
vn 0.63980000 0.00410000 -0.76850000
vn -0.00000000 1.00000000 -0.00000000
vn -0.00000000 1.00000000 -0.00000000
vn 0.49950000 -0.00880000 -0.86630000
vn -0.00000000 1.00000000 -0.00000000
vn -0.00000000 1.00000000 -0.00000000
vn 0.34210000 -0.01330000 -0.93960000
vn -0.00000000 1.00000000 -0.00000000
vn -0.00000000 1.00000000 -0.00000000
vn 0.17240000 -0.01400000 -0.98490000
vn -0.00000000 1.00000000 -0.00000000
vn -0.08750000 -0.01610000 -0.99600000
vn 0.08750000 -0.01610000 -0.99600000
vn -0.00000000 1.00000000 -0.00000000
vn -0.00000000 1.00000000 -0.00000000
vn -0.17220000 -0.01340000 -0.98500000
vn -0.00000000 1.00000000 -0.00000000
vn -0.00000000 1.00000000 -0.00000000
vn -0.34220000 -0.01330000 -0.93950000
vn -0.00000000 1.00000000 -0.00000000
vn -0.49950000 -0.00880000 -0.86630000
vn -0.00000000 1.00000000 -0.00000000
vn -0.63980000 0.00410000 -0.76850000
vn -0.00000000 1.00000000 -0.00000000
vn -0.76310000 0.01870000 -0.64600000
vn -0.00000000 1.00000000 -0.00000000
vn -0.86480000 0.02730000 -0.50130000
vn -0.80360000 0.15940000 -0.57340000
vn -0.76340000 0.47750000 -0.43500000
vn -0.71830000 0.67900000 -0.15130000
vn -0.83320000 0.55270000 -0.01880000
vn -0.70920000 0.70470000 -0.01970000
vn -0.55800000 0.82960000 -0.02240000
vn -0.38610000 0.92200000 -0.02820000
vn -0.19950000 0.97900000 -0.04270000
vn -0.09690000 0.99400000 -0.05080000
vn 0.09690000 0.99400000 -0.05080000
vn 0.19960000 0.97900000 -0.04250000
vn 0.38600000 0.92210000 -0.02840000
vn 0.55800000 0.82950000 -0.02240000
vn 0.70910000 0.70480000 -0.01990000
vn 0.83330000 0.55260000 -0.01880000
vn 0.92520000 0.37920000 -0.01390000
vn 0.85010000 0.51730000 -0.09830000
vn 0.88520000 0.37370000 -0.27730000
vn 0.90760000 0.13580000 -0.39730000
vn 0.93990000 0.02620000 -0.34050000
vn -0.00000000 1.00000000 -0.00000000
vn -0.00000000 1.00000000 -0.00000000
vn -0.00000000 1.00000000 -0.00000000
vn -0.00000000 1.00000000 -0.00000000
vn -0.00000000 1.00000000 -0.00000000
vn -0.00000000 1.00000000 -0.00000000
vn -0.00000000 1.00000000 -0.00000000
vn -0.00000000 1.00000000 -0.00000000
vn -0.00000000 1.00000000 -0.00000000
vn -0.00000000 1.00000000 -0.00000000
vn -0.00000000 1.00000000 -0.00000000
vn -0.00000000 1.00000000 -0.00000000
vn -0.00000000 1.00000000 -0.00000000
vn -0.00000000 1.00000000 -0.00000000
vn -0.00000000 1.00000000 -0.00000000
vn -0.00000000 1.00000000 -0.00000000
vn -0.00000000 1.00000000 -0.00000000
vn -0.00000000 1.00000000 -0.00000000
vn -0.00000000 1.00000000 -0.00000000
vn -0.00000000 1.00000000 -0.00000000
vn -0.00000000 1.00000000 -0.00000000
vn -0.00000000 1.00000000 -0.00000000
vn -0.00000000 1.00000000 -0.00000000
vn -0.00000000 1.00000000 -0.00000000
vn -0.93990000 0.02620000 -0.34050000
vn -0.90760000 0.13580000 -0.39730000
vn -0.88520000 0.37360000 -0.27720000
vn -0.85010000 0.51740000 -0.09830000
vn -0.92520000 0.37920000 -0.01380000
vn -0.00000000 -0.00000000 -1.00000000
vn -0.00000000 -0.00000000 -1.00000000
vn -0.98060000 0.19620000 0.00020000
vn -0.00000000 -0.00000000 -1.00000000
vn -0.00000000 -0.00000000 -1.00000000
vn -0.92320000 0.38430000 -0.00070000
vn -0.00000000 -0.00000000 -1.00000000
vn -0.00000000 -0.00000000 -1.00000000
vn -0.83050000 0.55700000 -0.00040000
vn -0.00000000 -0.00000000 -1.00000000
vn -0.00000000 -0.00000000 -1.00000000
vn -0.70540000 0.70880000 0.00040000
vn -0.00000000 -0.00000000 -1.00000000
vn -0.00000000 -0.00000000 -1.00000000
vn -0.55240000 0.83360000 0.00050000
vn -0.00000000 -0.00000000 -1.00000000
vn -0.00000000 -0.00000000 -1.00000000
vn -0.37550000 0.92680000 -0.00410000
vn -0.00000000 -0.00000000 -1.00000000
vn -0.00000000 -0.00000000 -1.00000000
vn -0.19080000 0.98160000 -0.00870000
vn -0.00000000 -0.00000000 -1.00000000
vn -0.00000000 -0.00000000 -1.00000000
vn 0.09870000 0.99510000 -0.00890000
vn -0.09870000 0.99510000 -0.00890000
vn -0.00000000 -0.00000000 -1.00000000
vn -0.00000000 -0.00000000 -1.00000000
vn 0.19080000 0.98160000 -0.00870000
vn -0.00000000 -0.00000000 -1.00000000
vn -0.00000000 -0.00000000 -1.00000000
vn 0.37570000 0.92670000 -0.00400000
vn -0.00000000 -0.00000000 -1.00000000
vn -0.00000000 -0.00000000 -1.00000000
vn 0.55220000 0.83370000 0.00040000
vn -0.00000000 -0.00000000 -1.00000000
vn -0.00000000 -0.00000000 -1.00000000
vn 0.70540000 0.70880000 0.00050000
vn -0.00000000 -0.00000000 -1.00000000
vn -0.00000000 -0.00000000 -1.00000000
vn 0.83040000 0.55710000 -0.00030000
vn -0.00000000 -0.00000000 -1.00000000
vn -0.00000000 -0.00000000 -1.00000000
vn 0.92320000 0.38420000 -0.00050000
vn -0.00000000 -0.00000000 -1.00000000
vn -0.00000000 -0.00000000 -1.00000000
vn 0.98060000 0.19630000 0.00030000
vn -0.00000000 -0.00000000 -1.00000000
vn -0.00000000 -0.00000000 -1.00000000
vn 1.00000000 0.00190000 0.00140000
vn 1.00000000 0.00010000 0.00070000
vn 0.98240000 0.18680000 -0.00830000
vn 0.94330000 0.32690000 -0.05870000
vn 0.96270000 0.22630000 -0.14860000
vn 0.97030000 0.09040000 -0.22440000
vn -0.00000000 1.00000000 -0.00000000
vn 0.98610000 0.01110000 -0.16560000
vn -0.00000000 1.00000000 -0.00000000
vn 1.00000000 -0.00170000 0.00010000
vn -0.00000000 1.00000000 -0.00000000
vn 0.98500000 -0.00020000 0.17230000
vn -0.00000000 1.00000000 -0.00000000
vn -0.00000000 1.00000000 -0.00000000
vn 0.93990000 0.00330000 0.34130000
vn -0.00000000 1.00000000 -0.00000000
vn -0.00000000 1.00000000 -0.00000000
vn 0.86610000 0.00500000 0.49990000
vn -0.00000000 1.00000000 -0.00000000
vn 0.76550000 0.00400000 0.64340000
vn -0.00000000 1.00000000 -0.00000000
vn -0.00000000 1.00000000 -0.00000000
vn 0.64220000 0.00140000 0.76650000
vn -0.00000000 1.00000000 -0.00000000
vn -0.00000000 1.00000000 -0.00000000
vn 0.49970000 -0.00070000 0.86620000
vn -0.00000000 1.00000000 -0.00000000
vn -0.00000000 1.00000000 -0.00000000
vn 0.34190000 -0.00150000 0.93970000
vn -0.00000000 1.00000000 -0.00000000
vn 0.17360000 -0.00150000 0.98480000
vn -0.00000000 1.00000000 -0.00000000
vn -0.00000000 -0.00140000 1.00000000
vn -0.00000000 1.00000000 -0.00000000
vn -0.17360000 -0.00150000 0.98480000
vn -0.00000000 1.00000000 -0.00000000
vn -0.34190000 -0.00150000 0.93970000
vn -0.00000000 1.00000000 -0.00000000
vn -0.00000000 1.00000000 -0.00000000
vn -0.49970000 -0.00070000 0.86620000
vn -0.00000000 1.00000000 -0.00000000
vn -0.00000000 1.00000000 -0.00000000
vn -0.64220000 0.00150000 0.76660000
vn -0.00000000 1.00000000 -0.00000000
vn -0.00000000 1.00000000 -0.00000000
vn -0.76550000 0.00410000 0.64340000
vn -0.00000000 1.00000000 -0.00000000
vn -0.86610000 0.00500000 0.49990000
vn -0.00000000 1.00000000 -0.00000000
vn -0.00000000 1.00000000 -0.00000000
vn -0.93990000 0.00340000 0.34140000
vn -0.00000000 1.00000000 -0.00000000
vn -0.00000000 1.00000000 -0.00000000
vn -0.98500000 -0.00010000 0.17230000
vn -0.00000000 1.00000000 -0.00000000
vn -1.00000000 -0.00170000 0.00010000
vn -0.00000000 1.00000000 -0.00000000
vn -0.00000000 1.00000000 -0.00000000
vn -0.00000000 1.00000000 -0.00000000
vn -0.98610000 0.01110000 -0.16560000
vn -0.97020000 0.09060000 -0.22470000
vn -0.96260000 0.22650000 -0.14880000
vn -0.94330000 0.32680000 -0.05850000
vn -0.98240000 0.18650000 -0.00820000
vn -1.00000000 0.00010000 0.00070000
vn -0.00000000 -0.00000000 -1.00000000
vn -0.00000000 -0.00000000 -1.00000000
vn -1.00000000 0.00190000 0.00140000
vn -0.98180000 -0.18980000 -0.00200000
vn -0.98110000 -0.19330000 0.00160000
vn -0.00000000 -0.00000000 -1.00000000
vn -0.00000000 -0.00000000 -1.00000000
vn -0.00000000 -0.00000000 -1.00000000
vn -0.00000000 -0.00000000 -1.00000000
vn -0.00000000 -0.00000000 -1.00000000
vn -0.00000000 -0.00000000 -1.00000000
vn -0.00000000 -0.00000000 -1.00000000
vn -0.00000000 -0.00000000 -1.00000000
vn -0.00000000 -0.00000000 -1.00000000
vn -0.00000000 -0.00000000 -1.00000000
vn -0.00000000 -0.00000000 -1.00000000
vn -0.00000000 -0.00000000 -1.00000000
vn -0.00000000 -0.00000000 -1.00000000
vn -0.00000000 -0.00000000 -1.00000000
vn -0.00000000 -0.00000000 -1.00000000
vn -0.00000000 -0.00000000 -1.00000000
vn -0.00000000 -0.00000000 -1.00000000
vn -0.00000000 -0.00000000 -1.00000000
vn -0.00000000 -0.00000000 -1.00000000
vn -0.00000000 -0.00000000 -1.00000000
vn 0.00030000 -0.00070000 -1.00000000
vn -0.00010000 -0.00010000 -1.00000000
vn -0.00010000 -0.00010000 -1.00000000
vn -0.00010000 -0.00010000 -1.00000000
vn -0.00000000 -0.00010000 -1.00000000
vn -0.00000000 -0.00010000 -1.00000000
vn -0.00000000 -0.00010000 -1.00000000
vn -0.00000000 -0.00010000 -1.00000000
vn 0.00010000 -0.00010000 -1.00000000
vn 0.00010000 -0.00010000 -1.00000000
vn 0.00010000 -0.00010000 -1.00000000
vn -0.00030000 -0.00070000 -1.00000000
vn -0.00000000 -0.00000000 -1.00000000
vn -0.00000000 -0.00000000 -1.00000000
vn -0.00000000 -0.00000000 -1.00000000
vn -0.00000000 -0.00000000 -1.00000000
vn 0.98110000 -0.19350000 0.00150000
vn 0.98180000 -0.18990000 -0.00190000
vn 0.98620000 -0.16420000 -0.02100000
vn 0.99990000 -0.01220000 -0.00730000
vn 0.98970000 0.14040000 -0.02840000
vn 0.99530000 0.07800000 -0.05660000
vn 0.99670000 0.04150000 -0.06990000
vn 0.99940000 0.01060000 0.03350000
vn 0.98560000 0.00720000 0.16900000
vn 0.94270000 0.01010000 0.33340000
vn 0.86570000 0.01250000 0.50040000
vn 0.75710000 0.01200000 0.65320000
vn 0.62680000 0.00890000 0.77910000
vn 0.48440000 0.00430000 0.87480000
vn 0.33160000 0.00040000 0.94340000
vn 0.16770000 -0.00220000 0.98580000
vn -0.00000000 -0.00310000 1.00000000
vn -0.16770000 -0.00220000 0.98580000
vn -0.33160000 0.00040000 0.94340000
vn -0.48420000 0.00430000 0.87490000
vn -0.62680000 0.00880000 0.77910000
vn -0.75730000 0.01200000 0.65300000
vn -0.86560000 0.01250000 0.50060000
vn -0.94270000 0.01000000 0.33350000
vn -0.98570000 0.00720000 0.16860000
vn -0.99940000 0.01060000 0.03380000
vn -0.99670000 0.04150000 -0.06960000
vn -0.99540000 0.07770000 -0.05680000
vn -0.98970000 0.14040000 -0.02860000
vn -0.99990000 -0.01220000 -0.00730000
vn -0.98620000 -0.16400000 -0.02110000
vn -0.94430000 -0.32180000 -0.06900000
vn -0.92700000 -0.37500000 -0.01050000
vn -0.00000000 -0.00000000 -1.00000000
vn -0.92460000 -0.38090000 0.00140000
vn 0.00030000 -0.00070000 -1.00000000
vn 0.00030000 -0.00070000 -1.00000000
vn -0.83230000 -0.55430000 0.00070000
vn -0.00010000 -0.00010000 -1.00000000
vn -0.00010000 -0.00010000 -1.00000000
vn -0.70820000 -0.70610000 0.00080000
vn -0.00010000 -0.00010000 -1.00000000
vn -0.00010000 -0.00010000 -1.00000000
vn -0.55720000 -0.83040000 0.00060000
vn -0.00010000 -0.00010000 -1.00000000
vn -0.00010000 -0.00010000 -1.00000000
vn -0.38480000 -0.92300000 0.00110000
vn -0.00000000 -0.00010000 -1.00000000
vn -0.00000000 -0.00010000 -1.00000000
vn -0.19600000 -0.98060000 0.00160000
vn -0.00000000 -0.00010000 -1.00000000
vn -0.00000000 -0.00010000 -1.00000000
vn -0.09800000 -0.99520000 0.00160000
vn 0.09800000 -0.99520000 0.00160000
vn -0.00000000 -0.00010000 -1.00000000
vn -0.00000000 -0.00010000 -1.00000000
vn 0.19600000 -0.98060000 0.00160000
vn -0.00000000 -0.00010000 -1.00000000
vn -0.00000000 -0.00010000 -1.00000000
vn 0.38480000 -0.92300000 0.00110000
vn 0.00010000 -0.00010000 -1.00000000
vn 0.00010000 -0.00010000 -1.00000000
vn 0.55720000 -0.83040000 0.00060000
vn 0.00010000 -0.00010000 -1.00000000
vn 0.00010000 -0.00010000 -1.00000000
vn 0.70820000 -0.70610000 0.00070000
vn 0.00010000 -0.00010000 -1.00000000
vn 0.00010000 -0.00010000 -1.00000000
vn 0.83250000 -0.55400000 0.00070000
vn -0.00030000 -0.00070000 -1.00000000
vn -0.00000000 -0.00000000 -1.00000000
vn -0.00030000 -0.00070000 -1.00000000
vn 0.92460000 -0.38100000 0.00130000
vn 0.92700000 -0.37500000 -0.01030000
vn 0.94430000 -0.32190000 -0.06930000
vn 0.94910000 -0.26010000 -0.17750000
vn 0.99330000 -0.09170000 -0.07000000
vn 0.99980000 -0.00560000 -0.01900000
vn 0.99930000 0.00350000 0.03750000
vn 0.98650000 0.01250000 0.16310000
vn 0.94400000 0.01370000 0.32970000
vn 0.86450000 0.01290000 0.50240000
vn 0.75230000 0.01010000 0.65870000
vn 0.61840000 0.00670000 0.78580000
vn 0.47450000 0.00190000 0.88020000
vn 0.32370000 -0.00360000 0.94610000
vn 0.16350000 -0.00730000 0.98650000
vn -0.00000000 -0.00820000 1.00000000
vn -0.16350000 -0.00730000 0.98650000
vn -0.32370000 -0.00350000 0.94620000
vn -0.47450000 0.00210000 0.88020000
vn -0.61840000 0.00670000 0.78580000
vn -0.75230000 0.01010000 0.65870000
vn -0.86450000 0.01290000 0.50240000
vn -0.94390000 0.01380000 0.32990000
vn -0.98660000 0.01250000 0.16300000
vn -0.99930000 0.00350000 0.03750000
vn -0.99980000 -0.00570000 -0.01880000
vn -0.99330000 -0.09140000 -0.07020000
vn -0.94910000 -0.26030000 -0.17720000
vn -0.85230000 -0.42900000 -0.29940000
vn -0.85260000 -0.50450000 -0.13650000
vn -0.83820000 -0.54480000 -0.02470000
vn -0.71880000 -0.69430000 -0.03620000
vn -0.56730000 -0.82250000 -0.04220000
vn -0.39160000 -0.91940000 -0.03540000
vn -0.20300000 -0.97880000 -0.02920000
vn -0.09350000 -0.99520000 -0.02920000
vn 0.09350000 -0.99520000 -0.02920000
vn 0.20300000 -0.97880000 -0.02920000
vn 0.39170000 -0.91940000 -0.03510000
vn 0.56720000 -0.82250000 -0.04220000
vn 0.71880000 -0.69430000 -0.03620000
vn 0.83820000 -0.54470000 -0.02480000
vn 0.85270000 -0.50430000 -0.13630000
vn 0.85230000 -0.42890000 -0.29940000
vn 0.80760000 -0.38860000 -0.44360000
vn 0.91350000 -0.24260000 -0.32660000
vn 0.97250000 -0.12410000 -0.19730000
vn 0.99590000 -0.04520000 -0.07860000
vn 0.99960000 -0.00620000 0.02580000
vn 0.98400000 0.00520000 0.17820000
vn 0.93700000 0.01100000 0.34920000
vn 0.85590000 0.01210000 0.51690000
vn 0.74580000 0.01230000 0.66610000
vn 0.61490000 0.01320000 0.78850000
vn 0.47130000 0.01350000 0.88190000
vn 0.32040000 0.00980000 0.94720000
vn 0.16210000 0.00490000 0.98680000
vn -0.00000000 0.00220000 1.00000000
vn -0.16190000 0.00500000 0.98680000
vn -0.32040000 0.00990000 0.94720000
vn -0.47150000 0.01340000 0.88180000
vn -0.61490000 0.01330000 0.78850000
vn -0.74590000 0.01240000 0.66600000
vn -0.85580000 0.01220000 0.51720000
vn -0.93700000 0.01120000 0.34920000
vn -0.98400000 0.00510000 0.17780000
vn -0.99960000 -0.00600000 0.02580000
vn -0.99590000 -0.04510000 -0.07860000
vn -0.97240000 -0.12420000 -0.19740000
vn -0.91350000 -0.24260000 -0.32660000
vn -0.80760000 -0.38860000 -0.44360000
vn -0.65600000 -0.55650000 -0.50990000
vn -0.68880000 -0.61300000 -0.38710000
vn -0.71230000 -0.67560000 -0.19000000
vn -0.54390000 -0.81180000 -0.21260000
vn -0.36280000 -0.91280000 -0.18760000
vn -0.18490000 -0.97160000 -0.14740000
vn -0.08150000 -0.98800000 -0.13090000
vn 0.08150000 -0.98800000 -0.13090000
vn 0.18510000 -0.97170000 -0.14710000
vn 0.36270000 -0.91290000 -0.18740000
vn 0.54380000 -0.81180000 -0.21260000
vn 0.71230000 -0.67560000 -0.19000000
vn 0.68880000 -0.61300000 -0.38710000
vn 0.65590000 -0.55690000 -0.50960000
vn 0.56520000 -0.70280000 -0.43190000
vn 0.64000000 -0.51580000 -0.56950000
vn 0.69670000 -0.61660000 -0.36660000
vn 0.77460000 -0.37650000 -0.50820000
vn 0.80000000 -0.53720000 -0.26730000
vn 0.87840000 -0.24920000 -0.40770000
vn 0.87540000 -0.46180000 -0.14260000
vn 0.94700000 -0.14380000 -0.28730000
vn 0.91680000 -0.39930000 0.00060000
vn 0.98640000 -0.06920000 -0.14900000
vn 0.92310000 -0.35250000 0.15390000
vn 0.99980000 -0.02090000 0.00350000
vn 0.89600000 -0.31870000 0.30920000
vn 0.98550000 0.00270000 0.16980000
vn 0.84290000 -0.28820000 0.45430000
vn 0.93930000 0.01010000 0.34280000
vn 0.76410000 -0.26390000 0.58860000
vn 0.86110000 0.01200000 0.50830000
vn 0.66630000 -0.23850000 0.70650000
vn 0.75450000 0.01350000 0.65620000
vn 0.55160000 -0.21790000 0.80510000
vn 0.62650000 0.01640000 0.77930000
vn 0.42430000 -0.20160000 0.88280000
vn 0.48220000 0.02070000 0.87580000
vn 0.28710000 -0.18790000 0.93930000
vn 0.32760000 0.02160000 0.94460000
vn 0.14400000 -0.18550000 0.97200000
vn 0.16500000 0.01900000 0.98610000
vn 0.00010000 -0.18300000 0.98310000
vn -0.00000000 0.01590000 0.99990000
vn -0.14340000 -0.18530000 0.97220000
vn -0.16500000 0.01910000 0.98610000
vn -0.28790000 -0.18730000 0.93920000
vn -0.32760000 0.02130000 0.94460000
vn -0.42400000 -0.20110000 0.88310000
vn -0.48220000 0.02040000 0.87580000
vn -0.55130000 -0.21850000 0.80520000
vn -0.62650000 0.01680000 0.77920000
vn -0.66700000 -0.23730000 0.70630000
vn -0.75470000 0.01350000 0.65600000
vn -0.76450000 -0.26230000 0.58890000
vn -0.86090000 0.01200000 0.50870000
vn -0.84280000 -0.28920000 0.45400000
vn -0.93940000 0.01010000 0.34270000
vn -0.89660000 -0.31810000 0.30810000
vn -0.98550000 0.00290000 0.16970000
vn -0.92170000 -0.35580000 0.15420000
vn -0.99980000 -0.02040000 0.00370000
vn -0.91450000 -0.40450000 0.00170000
vn -0.98640000 -0.06890000 -0.14940000
vn -0.87330000 -0.46620000 -0.14150000
vn -0.94690000 -0.14390000 -0.28760000
vn -0.79750000 -0.54230000 -0.26430000
vn -0.87840000 -0.24920000 -0.40770000
vn -0.69320000 -0.62280000 -0.36270000
vn -0.77460000 -0.37630000 -0.50830000
vn -0.56160000 -0.71000000 -0.42490000
vn -0.64040000 -0.51460000 -0.57010000
vn -0.42070000 -0.78450000 -0.45560000
vn -0.50300000 -0.63730000 -0.58390000
vn -0.48800000 -0.70110000 -0.51990000
vn -0.50560000 -0.76300000 -0.40270000
vn -0.33320000 -0.87640000 -0.34780000
vn -0.16300000 -0.95070000 -0.26370000
vn -0.07740000 -0.97170000 -0.22340000
vn 0.07750000 -0.97170000 -0.22330000
vn 0.16280000 -0.95070000 -0.26380000
vn 0.33300000 -0.87640000 -0.34780000
vn 0.50550000 -0.76310000 -0.40280000
vn 0.48790000 -0.70120000 -0.51990000
vn 0.50290000 -0.63740000 -0.58380000
vn 0.42520000 -0.77820000 -0.46210000
vn 0.46670000 -0.84660000 -0.25580000
vn 0.56690000 -0.70680000 -0.42320000
vn 0.55500000 -0.81410000 -0.17090000
vn 0.69240000 -0.62300000 -0.36400000
vn 0.62700000 -0.77540000 -0.07500000
vn 0.79490000 -0.54390000 -0.26900000
vn 0.68000000 -0.73260000 0.03080000
vn 0.87020000 -0.46890000 -0.15100000
vn 0.71210000 -0.68720000 0.14370000
vn 0.91410000 -0.40520000 -0.01230000
vn 0.72160000 -0.64120000 0.26090000
vn 0.92390000 -0.35650000 0.13940000
vn 0.70950000 -0.59510000 0.37730000
vn 0.90000000 -0.32130000 0.29450000
vn 0.67730000 -0.54930000 0.48930000
vn 0.84750000 -0.28910000 0.44510000
vn 0.62260000 -0.50800000 0.59520000
vn 0.77010000 -0.26440000 0.58060000
vn 0.55000000 -0.47020000 0.69020000
vn 0.67230000 -0.23890000 0.70060000
vn 0.46010000 -0.43840000 0.77210000
vn 0.55760000 -0.21800000 0.80100000
vn 0.35770000 -0.41230000 0.83790000
vn 0.42940000 -0.20180000 0.88030000
vn 0.24380000 -0.39230000 0.88690000
vn 0.29110000 -0.18760000 0.93810000
vn 0.12280000 -0.38020000 0.91670000
vn 0.14610000 -0.18500000 0.97180000
vn -0.00000000 -0.37680000 0.92630000
vn 0.00010000 -0.18300000 0.98310000
vn -0.12280000 -0.38020000 0.91670000
vn -0.14500000 -0.18610000 0.97180000
vn -0.24380000 -0.39200000 0.88710000
vn -0.29160000 -0.18830000 0.93780000
vn -0.35780000 -0.41220000 0.83790000
vn -0.42870000 -0.20230000 0.88050000
vn -0.46040000 -0.43780000 0.77220000
vn -0.55620000 -0.22070000 0.80120000
vn -0.55000000 -0.47000000 0.69040000
vn -0.67180000 -0.24030000 0.70070000
vn -0.62330000 -0.50730000 0.59510000
vn -0.76880000 -0.26590000 0.58150000
vn -0.67740000 -0.54910000 0.48950000
vn -0.84570000 -0.29330000 0.44580000
vn -0.71030000 -0.59440000 0.37700000
vn -0.89970000 -0.32250000 0.29430000
vn -0.72160000 -0.64120000 0.26090000
vn -0.92290000 -0.35910000 0.13910000
vn -0.71210000 -0.68720000 0.14370000
vn -0.91360000 -0.40630000 -0.01410000
vn -0.68020000 -0.73240000 0.03090000
vn -0.87120000 -0.46580000 -0.15520000
vn -0.62750000 -0.77490000 -0.07570000
vn -0.79650000 -0.53940000 -0.27320000
vn -0.55500000 -0.81410000 -0.17090000
vn -0.69400000 -0.61790000 -0.36950000
vn -0.46670000 -0.84660000 -0.25580000
vn -0.56970000 -0.70210000 -0.42720000
vn -0.36370000 -0.87390000 -0.32250000
vn -0.42920000 -0.77720000 -0.46020000
vn -0.24950000 -0.89410000 -0.37190000
vn -0.28410000 -0.84410000 -0.45470000
vn -0.27570000 -0.85090000 -0.44720000
vn -0.33550000 -0.77270000 -0.53900000
vn -0.32430000 -0.81880000 -0.47370000
vn -0.15220000 -0.92050000 -0.35980000
vn -0.07330000 -0.96380000 -0.25640000
vn 0.07340000 -0.96380000 -0.25640000
vn 0.15240000 -0.92040000 -0.36010000
vn 0.32420000 -0.81880000 -0.47370000
vn 0.33530000 -0.77270000 -0.53890000
vn 0.27940000 -0.84460000 -0.45660000
vn 0.42710000 -0.78240000 -0.45320000
vn 0.36370000 -0.87390000 -0.32250000
vn -0.00040000 -0.92730000 0.37440000
vn 0.00020000 -0.92710000 0.37470000
vn 0.36430000 -0.87390000 -0.32200000
vn -0.00040000 -0.92730000 0.37440000
vn 0.00010000 -0.92710000 0.37480000
vn 0.46720000 -0.84670000 -0.25470000
vn -0.00020000 -0.92730000 0.37440000
vn 0.00010000 -0.92710000 0.37480000
vn 0.55530000 -0.81410000 -0.16970000
vn -0.00010000 -0.92710000 0.37470000
vn -0.00020000 -0.92730000 0.37440000
vn 0.62730000 -0.77530000 -0.07430000
vn -0.00000000 -0.92710000 0.37480000
vn -0.00010000 -0.92710000 0.37470000
vn 0.68010000 -0.73250000 0.03170000
vn -0.00000000 -0.92710000 0.37480000
vn -0.00000000 -0.92710000 0.37470000
vn 0.71190000 -0.68720000 0.14480000
vn -0.00000000 -0.92710000 0.37470000
vn 0.72110000 -0.64130000 0.26200000
vn -0.00000000 -0.92730000 0.37430000
vn -0.00000000 -0.92710000 0.37470000
vn 0.70920000 -0.59500000 0.37810000
vn -0.00010000 -0.92710000 0.37480000
vn -0.00000000 -0.92730000 0.37430000
vn 0.67680000 -0.54940000 0.49000000
vn -0.00010000 -0.92710000 0.37480000
vn 0.62180000 -0.50820000 0.59600000
vn -0.00010000 -0.92710000 0.37480000
vn -0.00020000 -0.92710000 0.37480000
vn 0.54930000 -0.47040000 0.69070000
vn -0.00020000 -0.92710000 0.37480000
vn 0.00010000 -0.92720000 0.37460000
vn 0.45940000 -0.43830000 0.77250000
vn 0.00010000 -0.92720000 0.37460000
vn 0.00060000 -0.92730000 0.37440000
vn 0.35730000 -0.41200000 0.83820000
vn -0.00060000 -0.92710000 0.37480000
vn 0.00060000 -0.92730000 0.37440000
vn 0.24330000 -0.39210000 0.88720000
vn -0.00060000 -0.92710000 0.37480000
vn 0.00050000 -0.92720000 0.37460000
vn 0.12230000 -0.38030000 0.91680000
vn 0.00050000 -0.92720000 0.37460000
vn -0.00050000 -0.92720000 0.37460000
vn -0.00000000 -0.37710000 0.92620000
vn -0.00050000 -0.92720000 0.37460000
vn 0.00060000 -0.92710000 0.37480000
vn -0.12230000 -0.38020000 0.91680000
vn -0.00060000 -0.92730000 0.37440000
vn 0.00060000 -0.92710000 0.37480000
vn -0.24340000 -0.39180000 0.88730000
vn -0.00010000 -0.92720000 0.37460000
vn -0.00060000 -0.92730000 0.37440000
vn -0.35740000 -0.41190000 0.83820000
vn -0.00010000 -0.92720000 0.37460000
vn 0.00020000 -0.92710000 0.37480000
vn -0.45990000 -0.43760000 0.77260000
vn 0.00020000 -0.92710000 0.37480000
vn 0.00010000 -0.92710000 0.37480000
vn -0.54920000 -0.47030000 0.69080000
vn 0.00010000 -0.92710000 0.37480000
vn -0.62250000 -0.50750000 0.59580000
vn -0.00000000 -0.92730000 0.37430000
vn 0.00010000 -0.92710000 0.37480000
vn -0.67680000 -0.54920000 0.49030000
vn -0.00000000 -0.92730000 0.37430000
vn -0.00000000 -0.92710000 0.37470000
vn -0.71000000 -0.59440000 0.37770000
vn -0.00000000 -0.92710000 0.37470000
vn -0.72130000 -0.64130000 0.26190000
vn -0.00000000 -0.92710000 0.37470000
vn -0.00000000 -0.92710000 0.37480000
vn -0.71190000 -0.68720000 0.14480000
vn -0.00000000 -0.92710000 0.37480000
vn 0.00010000 -0.92710000 0.37470000
vn -0.68020000 -0.73230000 0.03200000
vn 0.00010000 -0.92710000 0.37470000
vn 0.00020000 -0.92730000 0.37440000
vn -0.62780000 -0.77480000 -0.07500000
vn -0.00010000 -0.92710000 0.37480000
vn 0.00020000 -0.92730000 0.37440000
vn -0.55540000 -0.81410000 -0.16990000
vn -0.00010000 -0.92710000 0.37480000
vn 0.00040000 -0.92730000 0.37440000
vn -0.46720000 -0.84670000 -0.25480000
vn -0.00020000 -0.92710000 0.37470000
vn 0.00040000 -0.92730000 0.37440000
vn -0.36430000 -0.87390000 -0.32200000
vn 0.00010000 -0.92720000 0.37460000
vn -0.00020000 -0.92710000 0.37470000
vn -0.25010000 -0.89400000 -0.37170000
vn 0.00010000 -0.92720000 0.37460000
vn -0.00020000 -0.92710000 0.37470000
vn -0.12740000 -0.90700000 -0.40140000
vn -0.12670000 -0.90720000 -0.40120000
vn -0.14090000 -0.89700000 -0.41910000
vn -0.13490000 -0.90110000 -0.41210000
vn -0.16640000 -0.89070000 -0.42300000
vn -0.07060000 -0.91890000 -0.38810000
vn 0.06350000 -0.91710000 -0.39350000
vn 0.06930000 -0.96040000 -0.26980000
vn -0.06930000 -0.96040000 -0.26980000
vn 0.16650000 -0.89070000 -0.42310000
vn 0.13300000 -0.89770000 -0.42000000
vn 0.28170000 -0.84910000 -0.44690000
vn 0.24950000 -0.89410000 -0.37190000
vn 0.25010000 -0.89400000 -0.37170000
vn 0.00020000 -0.92710000 0.37470000
vn -0.00010000 -0.92720000 0.37460000
vn 0.00060000 -0.92710000 0.37480000
vn -0.00000000 -0.92710000 0.37480000
vn -0.00000000 -0.92710000 0.37470000
vn -0.00020000 -0.92730000 0.37440000
vn -0.00010000 -0.92710000 0.37470000
vn -0.00000000 -0.92730000 0.37430000
vn -0.00040000 -0.92730000 0.37440000
vn -0.00010000 -0.92710000 0.37480000
vn -0.00020000 -0.92710000 0.37480000
vn 0.00060000 -0.92730000 0.37440000
vn -0.00060000 -0.92730000 0.37440000
vn 0.00020000 -0.92710000 0.37470000
vn -0.00020000 -0.92710000 0.37470000
vn 0.00010000 -0.92710000 0.37480000
vn 0.00010000 -0.92720000 0.37460000
vn 0.00040000 -0.92730000 0.37440000
vn -0.00010000 -0.92720000 0.37460000
vn 0.00010000 -0.92710000 0.37470000
vn 0.00020000 -0.92710000 0.37480000
vn -0.00060000 -0.92710000 0.37480000
vn 0.00050000 -0.92720000 0.37460000
vn -0.00050000 -0.92720000 0.37460000
vn 0.00020000 -0.92730000 0.37440000
vn 0.00020000 -0.92710000 0.37470000
vn -0.00020000 -0.92710000 0.37470000
vn 0.06420000 -0.90890000 -0.41200000
vn -0.06420000 -0.90890000 -0.41200000
vn -0.06390000 -0.90920000 -0.41150000
vn 0.06390000 -0.90920000 -0.41150000
vn 0.06170000 -0.91950000 -0.38830000
vn -0.06960000 -0.91680000 -0.39310000
vn 0.13550000 -0.90090000 -0.41220000
vn 0.12670000 -0.90720000 -0.40120000
vn -0.00010000 -0.92720000 0.37460000
vn 0.00020000 -0.92710000 0.37470000
vn 0.12740000 -0.90700000 -0.40140000
vt 0.64449100 0.41687200
vt 0.64207800 0.42262600
vt 0.63957200 0.42086300
vt 0.63688000 0.42596800
vt 0.63483800 0.42429700
vt 0.63196100 0.42893800
vt 0.63010500 0.42708100
vt 0.62732100 0.24888300
vt 0.62732100 0.43190800
vt 0.62555700 0.43014400
vt 0.62555700 0.25064600
vt 0.63010500 0.25370900
vt 0.63196100 0.25185300
vt 0.63483800 0.25649300
vt 0.63688000 0.25482300
vt 0.63957200 0.25992700
vt 0.64449100 0.26391800
vt 0.64207800 0.25816400
vt 0.64421200 0.25612200
vt 0.63855100 0.25305900
vt 0.63326000 0.25036800
vt 0.62834100 0.24776900
vt 0.62834100 0.43302100
vt 0.63326000 0.43042300
vt 0.63855100 0.42773100
vt 0.64421200 0.42466800
vt 0.65070900 0.42123400
vt 0.64922400 0.41789300
vt 0.64950300 0.41232400
vt 0.95596700 0.86311200
vt 0.63855100 0.40480700
vt 0.95049200 0.86413300
vt 0.63780800 0.40963300
vt 0.94501600 0.86413300
vt 0.94501600 0.86413300
vt 0.63669500 0.41427400
vt 0.93954000 0.86311200
vt 0.93954000 0.86311200
vt 0.63511700 0.41863600
vt 0.93434200 0.86125600
vt 0.93434200 0.86125600
vt 0.63261100 0.42262600
vt 0.92960900 0.85847100
vt 0.92960900 0.85847100
vt 0.62908400 0.42615300
vt 0.92534000 0.85494400
vt 0.62490700 0.25120300
vt 0.62490700 0.42958700
vt 0.92181300 0.85076800
vt 0.92181300 0.85076800
vt 0.62908400 0.25454400
vt 0.91902800 0.84594200
vt 0.91902800 0.84594200
vt 0.63261100 0.25816400
vt 0.91717200 0.84074400
vt 0.63511700 0.26215500
vt 0.91624400 0.83526800
vt 0.63669500 0.26651700
vt 0.91624400 0.82979200
vt 0.63780800 0.27115800
vt 0.91717200 0.82431600
vt 0.63855100 0.27598400
vt 0.64950300 0.26846600
vt 0.64922400 0.26289700
vt 0.65070900 0.25955600
vt 0.65869100 0.25760700
vt 0.65256500 0.25519400
vt 0.64653300 0.25268800
vt 0.64077800 0.25008900
vt 0.63511700 0.24739800
vt 0.62954800 0.24498500
vt 0.62954800 0.43580600
vt 0.63511700 0.43339300
vt 0.64077800 0.43070100
vt 0.64653300 0.42810200
vt 0.65256500 0.42550400
vt 0.65869100 0.42318300
vt 0.66472400 0.42095600
vt 0.65748400 0.41733600
vt 0.65590700 0.41288100
vt 0.65470000 0.40731300
vt 0.63882900 0.39988800
vt 0.96116500 0.86125600
vt 0.96116500 0.86125600
vt 0.94780000 0.83257700
vt 0.94780000 0.83257700
vt 0.94780000 0.83257700
vt 0.94780000 0.83257700
vt 0.94780000 0.83257700
vt 0.94780000 0.83257700
vt 0.94780000 0.83257700
vt 0.94780000 0.83257700
vt 0.94780000 0.83257700
vt 0.94780000 0.83257700
vt 0.94780000 0.83257700
vt 0.94780000 0.83257700
vt 0.94780000 0.83257700
vt 0.94780000 0.83257700
vt 0.94780000 0.83257700
vt 0.94780000 0.83257700
vt 0.94780000 0.83257700
vt 0.94780000 0.83257700
vt 0.94780000 0.83257700
vt 0.94780000 0.83257700
vt 0.91902800 0.81911900
vt 0.91902800 0.81911900
vt 0.63882900 0.28090300
vt 0.65470000 0.27347800
vt 0.65590700 0.26790900
vt 0.65748400 0.26345400
vt 0.66472400 0.25983400
vt 0.95466800 0.23663100
vt 0.95466800 0.23663100
vt 0.67205600 0.24452000
vt 0.96070100 0.23783800
vt 0.96070100 0.23783800
vt 0.66620900 0.24414900
vt 0.96645500 0.24025100
vt 0.96645500 0.24025100
vt 0.66054700 0.24368500
vt 0.97165300 0.24368500
vt 0.97165300 0.24368500
vt 0.65488600 0.24285000
vt 0.97601500 0.24804700
vt 0.97601500 0.24804700
vt 0.64941000 0.24164300
vt 0.97944900 0.25324500
vt 0.97944900 0.25324500
vt 0.64393400 0.23997300
vt 0.98176900 0.25899900
vt 0.98176900 0.25899900
vt 0.63836500 0.23802400
vt 0.98297600 0.26503200
vt 0.98297600 0.26503200
vt 0.63279700 0.44490100
vt 0.63279700 0.23588900
vt 0.98297600 0.27115800
vt 0.98297600 0.27115800
vt 0.63836500 0.44276700
vt 0.98186200 0.27728300
vt 0.98186200 0.27728300
vt 0.64393400 0.44081800
vt 0.97954200 0.28303700
vt 0.97954200 0.28303700
vt 0.64941000 0.43914700
vt 0.97610800 0.28823500
vt 0.97610800 0.28823500
vt 0.65488600 0.43794100
vt 0.97174500 0.29259700
vt 0.97174500 0.29259700
vt 0.66054700 0.43710500
vt 0.96654800 0.29612400
vt 0.96654800 0.29612400
vt 0.66620900 0.43664100
vt 0.96079400 0.29844400
vt 0.96079400 0.29844400
vt 0.67205600 0.43627000
vt 0.95476100 0.29974400
vt 0.95476100 0.29974400
vt 0.67799600 0.43608400
vt 0.67706800 0.41585100
vt 0.67084900 0.41882100
vt 0.66472400 0.41297400
vt 0.66333200 0.40712700
vt 0.65999000 0.40192900
vt 0.96589800 0.85847100
vt 0.63901500 0.39478300
vt 0.96589800 0.85847100
vt 0.63892200 0.38958500
vt 0.97016800 0.85494400
vt 0.63892200 0.38429500
vt 0.97369500 0.85076800
vt 0.97647900 0.84594200
vt 0.63882900 0.37891200
vt 0.97647900 0.84594200
vt 0.97833500 0.84074400
vt 0.63873600 0.37352900
vt 0.97833500 0.84074400
vt 0.63873600 0.36805300
vt 0.97935600 0.83526800
vt 0.97935600 0.82979200
vt 0.63864400 0.36248400
vt 0.97935600 0.82979200
vt 0.97833500 0.82431600
vt 0.63864400 0.35691600
vt 0.97833500 0.82431600
vt 0.97647900 0.81911900
vt 0.63864400 0.35144000
vt 0.97647900 0.81911900
vt 0.63864400 0.34587100
vt 0.97369500 0.81438600
vt 0.63864400 0.34039500
vt 0.97016800 0.81011600
vt 0.63864400 0.33491900
vt 0.96589800 0.80658900
vt 0.63864400 0.32935100
vt 0.96116500 0.80380500
vt 0.95596700 0.80194900
vt 0.63864400 0.32378200
vt 0.95596700 0.80194900
vt 0.95049200 0.80102100
vt 0.63864400 0.31830600
vt 0.95049200 0.80102100
vt 0.94501600 0.80102100
vt 0.63873600 0.31273700
vt 0.94501600 0.80102100
vt 0.63873600 0.30726100
vt 0.93954000 0.80194900
vt 0.93434200 0.80380500
vt 0.63882900 0.30187800
vt 0.93434200 0.80380500
vt 0.92960900 0.80658900
vt 0.63892200 0.29649500
vt 0.92960900 0.80658900
vt 0.63892200 0.29120500
vt 0.92534000 0.81011600
vt 0.92181300 0.81438600
vt 0.92181300 0.81438600
vt 0.63901500 0.28600700
vt 0.65999000 0.27886100
vt 0.66333200 0.27366300
vt 0.66472400 0.26781600
vt 0.67084900 0.26196900
vt 0.67706800 0.26493900
vt 0.94845000 0.23663100
vt 0.94845000 0.23663100
vt 0.67799600 0.24470600
vt 0.68337900 0.26456800
vt 0.68393600 0.24489200
vt 0.94232400 0.23783800
vt 0.94232400 0.23783800
vt 0.95151300 0.26818700
vt 0.95151300 0.26818700
vt 0.95151300 0.26818700
vt 0.95151300 0.26818700
vt 0.95151300 0.26818700
vt 0.95151300 0.26818700
vt 0.95151300 0.26818700
vt 0.95151300 0.26818700
vt 0.95151300 0.26818700
vt 0.95151300 0.26818700
vt 0.95151300 0.26818700
vt 0.95151300 0.26818700
vt 0.95151300 0.26818700
vt 0.95151300 0.26818700
vt 0.95151300 0.26818700
vt 0.95151300 0.26818700
vt 0.95151300 0.26818700
vt 0.95151300 0.26818700
vt 0.95151300 0.26818700
vt 0.95151300 0.26818700
vt 0.95151300 0.26818700
vt 0.95151300 0.26818700
vt 0.95151300 0.26818700
vt 0.95151300 0.26818700
vt 0.95151300 0.26818700
vt 0.95151300 0.26818700
vt 0.95151300 0.26818700
vt 0.95151300 0.26818700
vt 0.95151300 0.26818700
vt 0.95151300 0.26818700
vt 0.95151300 0.26818700
vt 0.95151300 0.26818700
vt 0.94854300 0.29974400
vt 0.94854300 0.29974400
vt 0.68393600 0.43589900
vt 0.68337900 0.41622300
vt 0.68310100 0.40805500
vt 0.67669600 0.40712700
vt 0.67066400 0.40935400
vt 0.66964300 0.40192900
vt 0.66537400 0.39636100
vt 0.66537400 0.39060600
vt 0.66528100 0.38485200
vt 0.66528100 0.37919100
vt 0.66518800 0.37352900
vt 0.66518800 0.36786700
vt 0.66518800 0.36220600
vt 0.66509500 0.35673000
vt 0.66509500 0.35125400
vt 0.66509500 0.34577800
vt 0.66509500 0.34039500
vt 0.66509500 0.33501200
vt 0.66509500 0.32953600
vt 0.66509500 0.32406000
vt 0.66518800 0.31858400
vt 0.66518800 0.31292300
vt 0.66518800 0.30726100
vt 0.66528100 0.30160000
vt 0.66528100 0.29593800
vt 0.66537400 0.29018400
vt 0.66537400 0.28443000
vt 0.66964300 0.27886100
vt 0.67066400 0.27143600
vt 0.67669600 0.27366300
vt 0.68310100 0.27273500
vt 0.68959700 0.26958000
vt 0.68969000 0.26299000
vt 0.93657000 0.24025100
vt 0.68996900 0.24489200
vt 0.93657000 0.24025100
vt 0.93137200 0.24368500
vt 0.69609400 0.24479900
vt 0.93137200 0.24368500
vt 0.92701000 0.24804700
vt 0.70231300 0.24452000
vt 0.92701000 0.24804700
vt 0.92357600 0.25324500
vt 0.70862400 0.24433500
vt 0.92357600 0.25324500
vt 0.92116300 0.25899900
vt 0.71493500 0.24405600
vt 0.92116300 0.25899900
vt 0.91995700 0.26503200
vt 0.72115300 0.24377800
vt 0.91995700 0.26503200
vt 0.91995700 0.27134300
vt 0.72746500 0.24368500
vt 0.72746500 0.43710500
vt 0.91995700 0.27134300
vt 0.92116300 0.27746900
vt 0.72115300 0.43701200
vt 0.92116300 0.27746900
vt 0.92357600 0.28322300
vt 0.71493500 0.43673400
vt 0.92357600 0.28322300
vt 0.92710300 0.28832800
vt 0.70862400 0.43645600
vt 0.92710300 0.28832800
vt 0.93146500 0.29278300
vt 0.70231300 0.43617700
vt 0.93146500 0.29278300
vt 0.93666300 0.29621700
vt 0.69609400 0.43599100
vt 0.93666300 0.29621700
vt 0.94241700 0.29853700
vt 0.94241700 0.29853700
vt 0.68996900 0.43589900
vt 0.68969000 0.41780000
vt 0.68959700 0.41121100
vt 0.69182500 0.40712700
vt 0.68319300 0.40192900
vt 0.67632500 0.39636100
vt 0.67623200 0.39051400
vt 0.67614000 0.38485200
vt 0.67604700 0.37909800
vt 0.67604700 0.37343600
vt 0.67604700 0.36786700
vt 0.67604700 0.36220600
vt 0.67604700 0.35673000
vt 0.67604700 0.35116100
vt 0.67604700 0.34577800
vt 0.67595400 0.34039500
vt 0.67604700 0.33501200
vt 0.67604700 0.32953600
vt 0.67604700 0.32406000
vt 0.67604700 0.31858400
vt 0.67604700 0.31292300
vt 0.67604700 0.30735400
vt 0.67604700 0.30169300
vt 0.67614000 0.29593800
vt 0.67623200 0.29018400
vt 0.67632500 0.28443000
vt 0.68319300 0.27886100
vt 0.69182500 0.27366300
vt 0.69878600 0.26958000
vt 0.69711500 0.26623900
vt 0.69609400 0.26113400
vt 0.70240500 0.25946300
vt 0.70862400 0.25788500
vt 0.71493500 0.25677200
vt 0.72124600 0.25593600
vt 0.72746500 0.25547200
vt 0.72746500 0.42531800
vt 0.72124600 0.42485400
vt 0.71493500 0.42401900
vt 0.70862400 0.42281200
vt 0.70240500 0.42132700
vt 0.69609400 0.41965700
vt 0.69711500 0.41455200
vt 0.69878600 0.41121100
vt 0.70259100 0.40870500
vt 0.69776500 0.40443500
vt 0.69228900 0.39951600
vt 0.68774100 0.39441200
vt 0.68653500 0.38902900
vt 0.68542100 0.38364600
vt 0.68440000 0.37826200
vt 0.68347200 0.37297200
vt 0.68263600 0.36749600
vt 0.68189400 0.36211300
vt 0.68133700 0.35663700
vt 0.68087300 0.35125400
vt 0.68059500 0.34577800
vt 0.68050200 0.34039500
vt 0.68059500 0.33501200
vt 0.68087300 0.32953600
vt 0.68133700 0.32406000
vt 0.68189400 0.31867700
vt 0.68263600 0.31320100
vt 0.68347200 0.30781800
vt 0.68440000 0.30243500
vt 0.68542100 0.29714500
vt 0.68653500 0.29176200
vt 0.68774100 0.28637900
vt 0.69228900 0.28127400
vt 0.69776500 0.27635500
vt 0.70259100 0.27208600
vt 0.70778900 0.26809500
vt 0.70602500 0.26577400
vt 0.70426200 0.26326900
vt 0.71020200 0.26131900
vt 0.71614200 0.25983400
vt 0.72198900 0.25881400
vt 0.72774300 0.25816400
vt 0.72774300 0.42262600
vt 0.72198900 0.42197700
vt 0.71614200 0.42095600
vt 0.71020200 0.41947100
vt 0.70426200 0.41752200
vt 0.70602500 0.41501600
vt 0.70778900 0.41269600
vt 0.70908800 0.41093200
vt 0.70908800 0.41093200
vt 0.70583900 0.40657000
vt 0.70583900 0.40657000
vt 0.70305500 0.40202200
vt 0.70305500 0.40202200
vt 0.70064200 0.39719600
vt 0.70064200 0.39719600
vt 0.69832200 0.39237000
vt 0.69832200 0.39237000
vt 0.69618700 0.38754400
vt 0.69618700 0.38754400
vt 0.69405200 0.38262500
vt 0.69405200 0.38262500
vt 0.69210300 0.37761300
vt 0.69210300 0.37761300
vt 0.69024700 0.37250800
vt 0.69024700 0.37250800
vt 0.68857600 0.36731100
vt 0.68857600 0.36731100
vt 0.68718400 0.36211300
vt 0.68718400 0.36211300
vt 0.68597800 0.35673000
vt 0.68597800 0.35673000
vt 0.68505000 0.35125400
vt 0.68505000 0.35125400
vt 0.68458600 0.34577800
vt 0.68458600 0.34577800
vt 0.68440000 0.34039500
vt 0.68440000 0.34039500
vt 0.68458600 0.33501200
vt 0.68458600 0.33501200
vt 0.68505000 0.32953600
vt 0.68505000 0.32953600
vt 0.68597800 0.32406000
vt 0.68597800 0.32406000
vt 0.68718400 0.31867700
vt 0.68718400 0.31867700
vt 0.68857600 0.31348000
vt 0.68857600 0.31348000
vt 0.69024700 0.30828200
vt 0.69024700 0.30828200
vt 0.69210300 0.30317800
vt 0.69210300 0.30317800
vt 0.69405200 0.29816600
vt 0.69405200 0.29816600
vt 0.69618700 0.29324700
vt 0.69618700 0.29324700
vt 0.69832200 0.28842000
vt 0.69832200 0.28842000
vt 0.70064200 0.28359400
vt 0.70064200 0.28359400
vt 0.70305500 0.27876800
vt 0.70305500 0.27876800
vt 0.70583900 0.27422000
vt 0.70583900 0.27422000
vt 0.70908800 0.26985800
vt 0.70908800 0.26985800
vt 0.71298600 0.26605300
vt 0.71298600 0.26605300
vt 0.71242900 0.26503200
vt 0.71150100 0.26336100
vt 0.71707000 0.26150500
vt 0.72254600 0.26029800
vt 0.72802200 0.25955600
vt 0.72802200 0.42123400
vt 0.72254600 0.42049200
vt 0.71707000 0.41928500
vt 0.71150100 0.41742900
vt 0.71242900 0.41575800
vt 0.71298600 0.41464500
vt 0.71298600 0.41464500
vt 0.71001600 0.41000400
vt 0.71001600 0.41000400
vt 0.70686000 0.40582700
vt 0.70686000 0.40582700
vt 0.70416900 0.40137300
vt 0.70416900 0.40137300
vt 0.70175600 0.39673200
vt 0.70175600 0.39673200
vt 0.69952800 0.39199900
vt 0.69952800 0.39199900
vt 0.69739400 0.38717200
vt 0.69739400 0.38717200
vt 0.69535200 0.38225300
vt 0.69535200 0.38225300
vt 0.69340300 0.37724100
vt 0.69340300 0.37724100
vt 0.69154600 0.37223000
vt 0.69154600 0.37223000
vt 0.68996900 0.36703200
vt 0.68996900 0.36703200
vt 0.68848400 0.36183500
vt 0.68848400 0.36183500
vt 0.68727700 0.35654400
vt 0.68727700 0.35654400
vt 0.68644200 0.35116100
vt 0.68644200 0.35116100
vt 0.68588500 0.34577800
vt 0.68588500 0.34577800
vt 0.68569900 0.34039500
vt 0.68569900 0.34039500
vt 0.68588500 0.33501200
vt 0.68588500 0.33501200
vt 0.68644200 0.32962900
vt 0.68644200 0.32962900
vt 0.68727700 0.32424600
vt 0.68727700 0.32424600
vt 0.68848400 0.31895600
vt 0.68848400 0.31895600
vt 0.68996900 0.31375800
vt 0.68996900 0.31375800
vt 0.69154600 0.30856100
vt 0.69154600 0.30856100
vt 0.69340300 0.30354900
vt 0.69340300 0.30354900
vt 0.69535200 0.29853700
vt 0.69535200 0.29853700
vt 0.69739400 0.29361800
vt 0.69739400 0.29361800
vt 0.69952800 0.28879200
vt 0.69952800 0.28879200
vt 0.70175600 0.28405800
vt 0.70175600 0.28405800
vt 0.70416900 0.27941800
vt 0.70416900 0.27941800
vt 0.70686000 0.27496300
vt 0.70686000 0.27496300
vt 0.71001600 0.27078600
vt 0.71001600 0.27078600
vt 0.71372800 0.26716700
vt 0.71372800 0.26716700
vt 0.71827600 0.26447500
vt 0.71827600 0.26447500
vt 0.71771900 0.26326900
vt 0.71771900 0.26326900
vt 0.71744100 0.26271200
vt 0.72273100 0.26122700
vt 0.72820700 0.26020600
vt 0.72820700 0.42058500
vt 0.72273100 0.41956400
vt 0.71744100 0.41807900
vt 0.71771900 0.41752200
vt 0.71771900 0.41752200
vt 0.71372800 0.41362400
vt 0.71372800 0.41362400
vt 0.72041100 0.95434600
vt 0.72041100 0.95434600
vt 0.71530600 0.41148900
vt 0.72301000 0.94998400
vt 0.72301000 0.94998400
vt 0.71187200 0.40824100
vt 0.72635100 0.94608600
vt 0.72635100 0.94608600
vt 0.70899500 0.40434300
vt 0.73024900 0.94274400
vt 0.73024900 0.94274400
vt 0.70639600 0.40007300
vt 0.73470400 0.94023800
vt 0.73470400 0.94023800
vt 0.70407600 0.39552500
vt 0.73953000 0.93847500
vt 0.73953000 0.93847500
vt 0.70184900 0.39088500
vt 0.74454200 0.93764000
vt 0.69971400 0.38605900
vt 0.74964700 0.93764000
vt 0.74964700 0.93764000
vt 0.69767200 0.38123200
vt 0.75465900 0.93847500
vt 0.75465900 0.93847500
vt 0.69572300 0.37631300
vt 0.75948500 0.94023800
vt 0.69396000 0.37139400
vt 0.76394000 0.94283700
vt 0.76394000 0.94283700
vt 0.69238200 0.36629000
vt 0.76783800 0.94617800
vt 0.76783800 0.94617800
vt 0.69098900 0.36118500
vt 0.77108600 0.95007700
vt 0.77108600 0.95007700
vt 0.68978300 0.35598800
vt 0.77368500 0.95453100
vt 0.77368500 0.95453100
vt 0.68894800 0.35079000
vt 0.77535600 0.95935800
vt 0.77535600 0.95935800
vt 0.68839100 0.34559300
vt 0.77628400 0.96427700
vt 0.77628400 0.96427700
vt 0.68829800 0.34039500
vt 0.77628400 0.96928900
vt 0.77628400 0.96928900
vt 0.68839100 0.33519800
vt 0.77544800 0.97430000
vt 0.77544800 0.97430000
vt 0.68894800 0.33000000
vt 0.77368500 0.97912700
vt 0.77368500 0.97912700
vt 0.68978300 0.32480300
vt 0.77117900 0.98358200
vt 0.77117900 0.98358200
vt 0.69098900 0.31960500
vt 0.76783800 0.98748000
vt 0.76783800 0.98748000
vt 0.69238200 0.31450100
vt 0.76394000 0.99082100
vt 0.69396000 0.30939600
vt 0.75957800 0.99342000
vt 0.75957800 0.99342000
vt 0.69572300 0.30447700
vt 0.75475100 0.99518300
vt 0.75475100 0.99518300
vt 0.69767200 0.29955800
vt 0.74973900 0.99611100
vt 0.69971400 0.29473200
vt 0.74463500 0.99611100
vt 0.74463500 0.99611100
vt 0.70184900 0.28990500
vt 0.73953000 0.99527600
vt 0.73953000 0.99527600
vt 0.70407600 0.28526500
vt 0.73470400 0.99351200
vt 0.73470400 0.99351200
vt 0.70639600 0.28071700
vt 0.73024900 0.99100600
vt 0.73024900 0.99100600
vt 0.70899500 0.27644800
vt 0.72635100 0.98766500
vt 0.72635100 0.98766500
vt 0.71187200 0.27255000
vt 0.72301000 0.98376700
vt 0.72301000 0.98376700
vt 0.71530600 0.26920800
vt 0.72050400 0.97940500
vt 0.72050400 0.97940500
vt 0.71939000 0.26679500
vt 0.71874000 0.97457900
vt 0.71874000 0.97457900
vt 0.72403100 0.26512500
vt 0.72328800 0.26271200
vt 0.72328800 0.26271200
vt 0.72291700 0.26141200
vt 0.72291700 0.26141200
vt 0.72839300 0.26020600
vt 0.72839300 0.42058500
vt 0.72839300 0.42058500
vt 0.72839300 0.26020600
vt 0.72291700 0.41937800
vt 0.72291700 0.41937800
vt 0.71827600 0.41631500
vt 0.71827600 0.41631500
vt 0.71939000 0.41399500
vt 0.71864700 0.95917200
vt 0.71864700 0.95917200
vt 0.74704800 0.96687500
vt 0.74704800 0.96687500
vt 0.74704800 0.96687500
vt 0.74704800 0.96687500
vt 0.74704800 0.96687500
vt 0.74704800 0.96687500
vt 0.74704800 0.96687500
vt 0.74704800 0.96687500
vt 0.74704800 0.96687500
vt 0.74704800 0.96687500
vt 0.74704800 0.96687500
vt 0.74704800 0.96687500
vt 0.74704800 0.96687500
vt 0.74704800 0.96687500
vt 0.74704800 0.96687500
vt 0.74704800 0.96687500
vt 0.74704800 0.96687500
vt 0.74704800 0.96687500
vt 0.74704800 0.96687500
vt 0.74704800 0.96687500
vt 0.74704800 0.96687500
vt 0.74704800 0.96687500
vt 0.74704800 0.96687500
vt 0.71781200 0.96947400
vt 0.71781200 0.96947400
vt 0.72913500 0.41677900
vt 0.72913500 0.26401100
vt 0.72867100 0.26150500
vt 0.72867100 0.41928500
vt 0.72867100 0.41928500
vt 0.72867100 0.26150500
vt 0.72328800 0.41807900
vt 0.72328800 0.41807900
vt 0.71781200 0.96418400
vt 0.71781200 0.96418400
vt 0.72403100 0.41566600
f 1/1/1 2/2/2 3/3/3
f 2/2/2 4/4/4 3/3/3
f 3/3/3 4/4/4 5/5/5
f 4/4/4 6/6/6 5/5/5
f 5/5/5 6/6/6 7/7/7
f 6/6/6 9/9/9 7/7/7
f 7/7/7 9/9/9 10/10/10
f 11/11/11 8/8/8 12/12/12
f 8/8/8 13/13/13 12/12/12
f 12/12/12 13/13/13 14/14/14
f 13/13/13 15/15/15 14/14/14
f 14/14/14 15/15/15 16/16/16
f 17/17/17 16/16/16 18/18/18
f 16/16/16 15/15/15 18/18/18
f 18/18/18 15/15/15 19/19/19
f 19/19/19 15/15/15 20/20/20
f 15/15/15 13/13/13 20/20/20
f 20/20/20 13/13/13 21/21/21
f 21/21/21 13/13/13 22/22/22
f 13/13/13 8/8/8 22/22/22
f 9/9/9 6/6/6 23/23/23
f 23/23/23 6/6/6 24/24/24
f 24/24/24 6/6/6 25/25/25
f 6/6/6 4/4/4 25/25/25
f 25/25/25 4/4/4 26/26/26
f 4/4/4 2/2/2 26/26/26
f 26/26/26 2/2/2 27/27/27
f 27/27/27 2/2/2 28/28/28
f 2/2/2 1/1/1 28/28/28
f 28/28/28 1/1/1 29/29/29
f 31/31/31 29/29/29 33/33/33
f 29/29/29 1/1/1 33/33/33
f 33/33/33 1/1/1 36/36/36
f 1/1/1 3/3/3 36/36/36
f 36/36/36 3/3/3 39/39/39
f 3/3/3 5/5/5 39/39/39
f 39/39/39 5/5/5 42/42/42
f 5/5/5 7/7/7 42/42/42
f 42/42/42 7/7/7 45/45/45
f 7/7/7 10/10/10 45/45/45
f 45/45/45 10/10/10 48/48/48
f 47/47/47 11/11/11 51/51/51
f 11/11/11 12/12/12 51/51/51
f 51/51/51 12/12/12 54/54/54
f 12/12/12 14/14/14 54/54/54
f 54/54/54 14/14/14 56/56/56
f 14/14/14 16/16/16 56/56/56
f 56/56/56 16/16/16 58/58/58
f 16/16/16 17/17/17 58/58/58
f 58/58/58 17/17/17 60/60/60
f 62/62/62 60/60/60 63/63/63
f 60/60/60 17/17/17 63/63/63
f 63/63/63 17/17/17 64/64/64
f 17/17/17 18/18/18 64/64/64
f 64/64/64 18/18/18 65/65/65
f 18/18/18 19/19/19 65/65/65
f 66/66/66 65/65/65 67/67/67
f 65/65/65 19/19/19 67/67/67
f 67/67/67 19/19/19 68/68/68
f 19/19/19 20/20/20 68/68/68
f 68/68/68 20/20/20 69/69/69
f 20/20/20 21/21/21 69/69/69
f 69/69/69 21/21/21 70/70/70
f 70/70/70 21/21/21 71/71/71
f 21/21/21 22/22/22 71/71/71
f 23/23/23 24/24/24 72/72/72
f 72/72/72 24/24/24 73/73/73
f 73/73/73 24/24/24 74/74/74
f 24/24/24 25/25/25 74/74/74
f 74/74/74 25/25/25 75/75/75
f 25/25/25 26/26/26 75/75/75
f 75/75/75 26/26/26 76/76/76
f 26/26/26 27/27/27 76/76/76
f 76/76/76 27/27/27 77/77/77
f 78/78/78 77/77/77 79/79/79
f 77/77/77 27/27/27 79/79/79
f 27/27/27 28/28/28 79/79/79
f 79/79/79 28/28/28 80/80/80
f 28/28/28 29/29/29 80/80/80
f 80/80/80 29/29/29 81/81/81
f 29/29/29 31/31/31 81/81/81
f 81/81/81 31/31/31 82/82/82
f 84/84/84 30/30/30 90/90/90
f 30/30/30 32/32/32 90/90/90
f 32/32/32 34/34/34 90/90/90
f 35/35/35 37/37/37 89/89/89
f 38/38/38 40/40/40 88/88/88
f 41/41/41 43/43/43 87/87/87
f 44/44/44 46/46/46 86/86/86
f 46/46/46 49/49/49 86/86/86
f 50/50/50 52/52/52 85/85/85
f 53/53/53 55/55/55 104/104/104
f 55/55/55 57/57/57 104/104/104
f 57/57/57 59/59/59 104/104/104
f 59/59/59 61/61/61 104/104/104
f 104/104/104 61/61/61 105/105/105
f 107/107/107 62/62/62 108/108/108
f 62/62/62 63/63/63 108/108/108
f 108/108/108 63/63/63 109/109/109
f 63/63/63 64/64/64 109/109/109
f 109/109/109 64/64/64 110/110/110
f 64/64/64 65/65/65 110/110/110
f 65/65/65 66/66/66 110/110/110
f 110/110/110 66/66/66 111/111/111
f 114/114/114 111/111/111 117/117/117
f 111/111/111 66/66/66 117/117/117
f 117/117/117 66/66/66 120/120/120
f 66/66/66 67/67/67 120/120/120
f 120/120/120 67/67/67 123/123/123
f 67/67/67 68/68/68 123/123/123
f 123/123/123 68/68/68 126/126/126
f 68/68/68 69/69/69 126/126/126
f 126/126/126 69/69/69 129/129/129
f 69/69/69 70/70/70 129/129/129
f 129/129/129 70/70/70 132/132/132
f 132/132/132 70/70/70 136/136/136
f 70/70/70 71/71/71 136/136/136
f 72/72/72 73/73/73 135/135/135
f 135/135/135 73/73/73 139/139/139
f 139/139/139 73/73/73 142/142/142
f 73/73/73 74/74/74 142/142/142
f 142/142/142 74/74/74 145/145/145
f 74/74/74 75/75/75 145/145/145
f 145/145/145 75/75/75 148/148/148
f 75/75/75 76/76/76 148/148/148
f 148/148/148 76/76/76 151/151/151
f 76/76/76 77/77/77 151/151/151
f 151/151/151 77/77/77 154/154/154
f 77/77/77 78/78/78 154/154/154
f 154/154/154 78/78/78 157/157/157
f 160/160/160 157/157/157 161/161/161
f 161/161/161 157/157/157 162/162/162
f 157/157/157 78/78/78 162/162/162
f 162/162/162 78/78/78 163/163/163
f 78/78/78 79/79/79 163/163/163
f 79/79/79 80/80/80 163/163/163
f 163/163/163 80/80/80 164/164/164
f 80/80/80 81/81/81 164/164/164
f 164/164/164 81/81/81 165/165/165
f 81/81/81 82/82/82 165/165/165
f 165/165/165 82/82/82 167/167/167
f 83/83/83 91/91/91 166/166/166
f 168/168/168 92/92/92 170/170/170
f 170/170/170 92/92/92 172/172/172
f 172/172/172 92/92/92 173/173/173
f 175/175/175 93/93/93 176/176/176
f 178/178/178 94/94/94 180/180/180
f 180/180/180 94/94/94 181/181/181
f 183/183/183 95/95/95 184/184/184
f 186/186/186 96/96/96 187/187/187
f 189/189/189 97/97/97 191/191/191
f 191/191/191 97/97/97 193/193/193
f 193/193/193 97/97/97 195/195/195
f 195/195/195 97/97/97 197/197/197
f 197/197/197 97/97/97 198/198/198
f 200/200/200 98/98/98 201/201/201
f 203/203/203 99/99/99 204/204/204
f 206/206/206 100/100/100 208/208/208
f 208/208/208 100/100/100 209/209/209
f 211/211/211 101/101/101 212/212/212
f 214/214/214 102/102/102 216/216/216
f 216/216/216 102/102/102 218/218/218
f 103/103/103 106/106/106 217/217/217
f 219/219/219 107/107/107 220/220/220
f 107/107/107 108/108/108 220/220/220
f 220/220/220 108/108/108 221/221/221
f 108/108/108 109/109/109 221/221/221
f 221/221/221 109/109/109 222/222/222
f 109/109/109 110/110/110 222/222/222
f 110/110/110 111/111/111 222/222/222
f 222/222/222 111/111/111 223/223/223
f 111/111/111 114/114/114 223/223/223
f 223/223/223 114/114/114 224/224/224
f 114/114/114 227/227/227 224/224/224
f 228/228/228 224/224/224 229/229/229
f 224/224/224 227/227/227 229/229/229
f 231/231/231 225/225/225 248/248/248
f 226/226/226 112/112/112 247/247/247
f 113/113/113 115/115/115 246/246/246
f 116/116/116 118/118/118 245/245/245
f 119/119/119 121/121/121 244/244/244
f 122/122/122 124/124/124 243/243/243
f 125/125/125 127/127/127 242/242/242
f 128/128/128 130/130/130 241/241/241
f 131/131/131 133/133/133 240/240/240
f 134/134/134 137/137/137 239/239/239
f 138/138/138 140/140/140 238/238/238
f 141/141/141 143/143/143 237/237/237
f 144/144/144 146/146/146 236/236/236
f 147/147/147 149/149/149 235/235/235
f 150/150/150 152/152/152 234/234/234
f 153/153/153 155/155/155 233/233/233
f 156/156/156 158/158/158 232/232/232
f 263/263/263 159/159/159 264/264/264
f 160/160/160 161/161/161 266/266/266
f 266/266/266 161/161/161 267/267/267
f 268/268/268 267/267/267 269/269/269
f 267/267/267 161/161/161 269/269/269
f 161/161/161 162/162/162 269/269/269
f 269/269/269 162/162/162 270/270/270
f 162/162/162 163/163/163 270/270/270
f 163/163/163 164/164/164 270/270/270
f 270/270/270 164/164/164 271/271/271
f 164/164/164 165/165/165 271/271/271
f 271/271/271 165/165/165 272/272/272
f 165/165/165 167/167/167 272/272/272
f 272/272/272 167/167/167 273/273/273
f 167/167/167 169/169/169 273/273/273
f 273/273/273 169/169/169 274/274/274
f 169/169/169 171/171/171 274/274/274
f 274/274/274 171/171/171 275/275/275
f 171/171/171 174/174/174 275/275/275
f 275/275/275 174/174/174 276/276/276
f 174/174/174 177/177/177 276/276/276
f 276/276/276 177/177/177 277/277/277
f 177/177/177 179/179/179 277/277/277
f 277/277/277 179/179/179 278/278/278
f 179/179/179 182/182/182 278/278/278
f 278/278/278 182/182/182 279/279/279
f 182/182/182 185/185/185 279/279/279
f 279/279/279 185/185/185 280/280/280
f 185/185/185 188/188/188 280/280/280
f 280/280/280 188/188/188 281/281/281
f 188/188/188 190/190/190 281/281/281
f 281/281/281 190/190/190 282/282/282
f 190/190/190 192/192/192 282/282/282
f 192/192/192 194/194/194 282/282/282
f 282/282/282 194/194/194 283/283/283
f 194/194/194 196/196/196 283/283/283
f 283/283/283 196/196/196 284/284/284
f 196/196/196 199/199/199 284/284/284
f 284/284/284 199/199/199 285/285/285
f 199/199/199 202/202/202 285/285/285
f 285/285/285 202/202/202 286/286/286
f 202/202/202 205/205/205 286/286/286
f 286/286/286 205/205/205 287/287/287
f 205/205/205 207/207/207 287/287/287
f 287/287/287 207/207/207 288/288/288
f 207/207/207 210/210/210 288/288/288
f 288/288/288 210/210/210 289/289/289
f 210/210/210 213/213/213 289/289/289
f 289/289/289 213/213/213 290/290/290
f 213/213/213 215/215/215 290/290/290
f 290/290/290 215/215/215 291/291/291
f 215/215/215 219/219/219 291/291/291
f 291/291/291 219/219/219 292/292/292
f 219/219/219 220/220/220 292/292/292
f 292/292/292 220/220/220 293/293/293
f 220/220/220 221/221/221 293/293/293
f 293/293/293 221/221/221 294/294/294
f 221/221/221 222/222/222 294/294/294
f 222/222/222 223/223/223 294/294/294
f 294/294/294 223/223/223 295/295/295
f 223/223/223 224/224/224 295/295/295
f 224/224/224 228/228/228 295/295/295
f 295/295/295 228/228/228 296/296/296
f 296/296/296 228/228/228 297/297/297
f 297/297/297 228/228/228 298/298/298
f 228/228/228 229/229/229 298/298/298
f 298/298/298 229/229/229 300/300/300
f 230/230/230 249/249/249 299/299/299
f 301/301/301 250/250/250 302/302/302
f 304/304/304 251/251/251 305/305/305
f 307/307/307 252/252/252 308/308/308
f 310/310/310 253/253/253 311/311/311
f 313/313/313 254/254/254 314/314/314
f 316/316/316 255/255/255 317/317/317
f 320/320/320 256/256/256 321/321/321
f 323/323/323 257/257/257 324/324/324
f 326/326/326 258/258/258 327/327/327
f 329/329/329 259/259/259 330/330/330
f 332/332/332 260/260/260 333/333/333
f 335/335/335 261/261/261 337/337/337
f 262/262/262 265/265/265 336/336/336
f 338/338/338 266/266/266 339/339/339
f 266/266/266 267/267/267 339/339/339
f 339/339/339 267/267/267 340/340/340
f 267/267/267 268/268/268 340/340/340
f 340/340/340 268/268/268 341/341/341
f 341/341/341 268/268/268 342/342/342
f 342/342/342 268/268/268 343/343/343
f 268/268/268 269/269/269 343/343/343
f 269/269/269 270/270/270 343/343/343
f 270/270/270 271/271/271 343/343/343
f 271/271/271 272/272/272 343/343/343
f 272/272/272 273/273/273 343/343/343
f 343/343/343 273/273/273 344/344/344
f 273/273/273 274/274/274 344/344/344
f 344/344/344 274/274/274 345/345/345
f 274/274/274 275/275/275 345/345/345
f 345/345/345 275/275/275 346/346/346
f 275/275/275 276/276/276 346/346/346
f 346/346/346 276/276/276 347/347/347
f 276/276/276 277/277/277 347/347/347
f 347/347/347 277/277/277 348/348/348
f 277/277/277 278/278/278 348/348/348
f 348/348/348 278/278/278 349/349/349
f 278/278/278 279/279/279 349/349/349
f 349/349/349 279/279/279 350/350/350
f 279/279/279 280/280/280 350/350/350
f 350/350/350 280/280/280 351/351/351
f 280/280/280 281/281/281 351/351/351
f 351/351/351 281/281/281 352/352/352
f 281/281/281 282/282/282 352/352/352
f 352/352/352 282/282/282 353/353/353
f 353/353/353 282/282/282 354/354/354
f 282/282/282 283/283/283 354/354/354
f 354/354/354 283/283/283 355/355/355
f 283/283/283 284/284/284 355/355/355
f 355/355/355 284/284/284 356/356/356
f 284/284/284 285/285/285 356/356/356
f 356/356/356 285/285/285 357/357/357
f 285/285/285 286/286/286 357/357/357
f 357/357/357 286/286/286 358/358/358
f 286/286/286 287/287/287 358/358/358
f 358/358/358 287/287/287 359/359/359
f 287/287/287 288/288/288 359/359/359
f 359/359/359 288/288/288 360/360/360
f 288/288/288 289/289/289 360/360/360
f 360/360/360 289/289/289 361/361/361
f 289/289/289 290/290/290 361/361/361
f 361/361/361 290/290/290 362/362/362
f 290/290/290 291/291/291 362/362/362
f 362/362/362 291/291/291 363/363/363
f 291/291/291 292/292/292 363/363/363
f 292/292/292 293/293/293 363/363/363
f 293/293/293 294/294/294 363/363/363
f 294/294/294 295/295/295 363/363/363
f 295/295/295 296/296/296 363/363/363
f 363/363/363 296/296/296 364/364/364
f 364/364/364 296/296/296 365/365/365
f 296/296/296 297/297/297 365/365/365
f 365/365/365 297/297/297 366/366/366
f 366/366/366 297/297/297 367/367/367
f 297/297/297 298/298/298 367/367/367
f 367/367/367 298/298/298 368/368/368
f 298/298/298 300/300/300 368/368/368
f 300/300/300 303/303/303 368/368/368
f 368/368/368 303/303/303 369/369/369
f 303/303/303 306/306/306 369/369/369
f 369/369/369 306/306/306 370/370/370
f 306/306/306 309/309/309 370/370/370
f 370/370/370 309/309/309 371/371/371
f 309/309/309 312/312/312 371/371/371
f 371/371/371 312/312/312 372/372/372
f 312/312/312 315/315/315 372/372/372
f 315/315/315 318/318/318 372/372/372
f 372/372/372 318/318/318 373/373/373
f 374/374/374 319/319/319 375/375/375
f 319/319/319 322/322/322 375/375/375
f 322/322/322 325/325/325 375/375/375
f 375/375/375 325/325/325 376/376/376
f 325/325/325 328/328/328 376/376/376
f 376/376/376 328/328/328 377/377/377
f 328/328/328 331/331/331 377/377/377
f 377/377/377 331/331/331 378/378/378
f 331/331/331 334/334/334 378/378/378
f 378/378/378 334/334/334 379/379/379
f 334/334/334 338/338/338 379/379/379
f 338/338/338 339/339/339 379/379/379
f 379/379/379 339/339/339 380/380/380
f 339/339/339 340/340/340 380/380/380
f 380/380/380 340/340/340 381/381/381
f 340/340/340 341/341/341 381/381/381
f 382/382/382 381/381/381 383/383/383
f 381/381/381 341/341/341 383/383/383
f 383/383/383 341/341/341 384/384/384
f 341/341/341 342/342/342 384/384/384
f 384/384/384 342/342/342 385/385/385
f 342/342/342 343/343/343 385/385/385
f 343/343/343 344/344/344 385/385/385
f 385/385/385 344/344/344 386/386/386
f 344/344/344 345/345/345 386/386/386
f 386/386/386 345/345/345 387/387/387
f 387/387/387 345/345/345 388/388/388
f 345/345/345 346/346/346 388/388/388
f 388/388/388 346/346/346 389/389/389
f 346/346/346 347/347/347 389/389/389
f 389/389/389 347/347/347 390/390/390
f 347/347/347 348/348/348 390/390/390
f 390/390/390 348/348/348 391/391/391
f 348/348/348 349/349/349 391/391/391
f 391/391/391 349/349/349 392/392/392
f 349/349/349 350/350/350 392/392/392
f 392/392/392 350/350/350 393/393/393
f 350/350/350 351/351/351 393/393/393
f 393/393/393 351/351/351 394/394/394
f 351/351/351 352/352/352 394/394/394
f 394/394/394 352/352/352 395/395/395
f 352/352/352 353/353/353 395/395/395
f 353/353/353 354/354/354 395/395/395
f 395/395/395 354/354/354 396/396/396
f 354/354/354 355/355/355 396/396/396
f 396/396/396 355/355/355 397/397/397
f 355/355/355 356/356/356 397/397/397
f 397/397/397 356/356/356 398/398/398
f 356/356/356 357/357/357 398/398/398
f 398/398/398 357/357/357 399/399/399
f 357/357/357 358/358/358 399/399/399
f 399/399/399 358/358/358 400/400/400
f 358/358/358 359/359/359 400/400/400
f 400/400/400 359/359/359 401/401/401
f 359/359/359 360/360/360 401/401/401
f 401/401/401 360/360/360 402/402/402
f 360/360/360 361/361/361 402/402/402
f 402/402/402 361/361/361 403/403/403
f 403/403/403 361/361/361 404/404/404
f 361/361/361 362/362/362 404/404/404
f 404/404/404 362/362/362 405/405/405
f 362/362/362 363/363/363 405/405/405
f 363/363/363 364/364/364 405/405/405
f 405/405/405 364/364/364 406/406/406
f 364/364/364 365/365/365 406/406/406
f 406/406/406 365/365/365 407/407/407
f 365/365/365 366/366/366 407/407/407
f 407/407/407 366/366/366 408/408/408
f 409/409/409 408/408/408 410/410/410
f 408/408/408 366/366/366 410/410/410
f 366/366/366 367/367/367 410/410/410
f 410/410/410 367/367/367 411/411/411
f 367/367/367 368/368/368 411/411/411
f 368/368/368 369/369/369 411/411/411
f 411/411/411 369/369/369 412/412/412
f 369/369/369 370/370/370 412/412/412
f 412/412/412 370/370/370 413/413/413
f 370/370/370 371/371/371 413/413/413
f 413/413/413 371/371/371 414/414/414
f 371/371/371 372/372/372 414/414/414
f 372/372/372 373/373/373 414/414/414
f 414/414/414 373/373/373 415/415/415
f 416/416/416 374/374/374 417/417/417
f 374/374/374 375/375/375 417/417/417
f 375/375/375 376/376/376 417/417/417
f 417/417/417 376/376/376 418/418/418
f 376/376/376 377/377/377 418/418/418
f 418/418/418 377/377/377 419/419/419
f 377/377/377 378/378/378 419/419/419
f 419/419/419 378/378/378 420/420/420
f 378/378/378 379/379/379 420/420/420
f 379/379/379 380/380/380 420/420/420
f 420/420/420 380/380/380 421/421/421
f 380/380/380 381/381/381 421/421/421
f 381/381/381 382/382/382 421/421/421
f 421/421/421 382/382/382 422/422/422
f 424/424/424 422/422/422 426/426/426
f 422/422/422 382/382/382 426/426/426
f 426/426/426 382/382/382 428/428/428
f 382/382/382 383/383/383 428/428/428
f 428/428/428 383/383/383 430/430/430
f 383/383/383 384/384/384 430/430/430
f 430/430/430 384/384/384 432/432/432
f 384/384/384 385/385/385 432/432/432
f 432/432/432 385/385/385 434/434/434
f 385/385/385 386/386/386 434/434/434
f 434/434/434 386/386/386 436/436/436
f 386/386/386 387/387/387 436/436/436
f 436/436/436 387/387/387 438/438/438
f 387/387/387 388/388/388 438/438/438
f 438/438/438 388/388/388 440/440/440
f 388/388/388 389/389/389 440/440/440
f 440/440/440 389/389/389 442/442/442
f 389/389/389 390/390/390 442/442/442
f 442/442/442 390/390/390 444/444/444
f 390/390/390 391/391/391 444/444/444
f 444/444/444 391/391/391 446/446/446
f 391/391/391 392/392/392 446/446/446
f 446/446/446 392/392/392 448/448/448
f 392/392/392 393/393/393 448/448/448
f 448/448/448 393/393/393 450/450/450
f 393/393/393 394/394/394 450/450/450
f 450/450/450 394/394/394 452/452/452
f 394/394/394 395/395/395 452/452/452
f 395/395/395 396/396/396 452/452/452
f 452/452/452 396/396/396 454/454/454
f 396/396/396 397/397/397 454/454/454
f 454/454/454 397/397/397 456/456/456
f 397/397/397 398/398/398 456/456/456
f 456/456/456 398/398/398 458/458/458
f 398/398/398 399/399/399 458/458/458
f 458/458/458 399/399/399 460/460/460
f 399/399/399 400/400/400 460/460/460
f 460/460/460 400/400/400 462/462/462
f 400/400/400 401/401/401 462/462/462
f 462/462/462 401/401/401 464/464/464
f 401/401/401 402/402/402 464/464/464
f 464/464/464 402/402/402 466/466/466
f 402/402/402 403/403/403 466/466/466
f 466/466/466 403/403/403 468/468/468
f 403/403/403 404/404/404 468/468/468
f 468/468/468 404/404/404 470/470/470
f 404/404/404 405/405/405 470/470/470
f 470/470/470 405/405/405 472/472/472
f 405/405/405 406/406/406 472/472/472
f 472/472/472 406/406/406 474/474/474
f 406/406/406 407/407/407 474/474/474
f 474/474/474 407/407/407 476/476/476
f 407/407/407 408/408/408 476/476/476
f 476/476/476 408/408/408 478/478/478
f 408/408/408 409/409/409 478/478/478
f 478/478/478 409/409/409 480/480/480
f 480/480/480 409/409/409 482/482/482
f 482/482/482 409/409/409 483/483/483
f 483/483/483 409/409/409 484/484/484
f 409/409/409 410/410/410 484/484/484
f 410/410/410 411/411/411 484/484/484
f 411/411/411 412/412/412 484/484/484
f 484/484/484 412/412/412 485/485/485
f 412/412/412 413/413/413 485/485/485
f 485/485/485 413/413/413 486/486/486
f 413/413/413 414/414/414 486/486/486
f 414/414/414 415/415/415 486/486/486
f 486/486/486 415/415/415 487/487/487
f 488/488/488 416/416/416 489/489/489
f 416/416/416 417/417/417 489/489/489
f 417/417/417 418/418/418 489/489/489
f 489/489/489 418/418/418 490/490/490
f 418/418/418 419/419/419 490/490/490
f 490/490/490 419/419/419 491/491/491
f 419/419/419 420/420/420 491/491/491
f 420/420/420 421/421/421 491/491/491
f 421/421/421 422/422/422 491/491/491
f 491/491/491 422/422/422 492/492/492
f 492/492/492 422/422/422 493/493/493
f 422/422/422 424/424/424 493/493/493
f 494/494/494 423/423/423 496/496/496
f 496/496/496 423/423/423 498/498/498
f 423/423/423 425/425/425 498/498/498
f 498/498/498 425/425/425 500/500/500
f 425/425/425 427/427/427 500/500/500
f 500/500/500 427/427/427 502/502/502
f 427/427/427 429/429/429 502/502/502
f 502/502/502 429/429/429 504/504/504
f 429/429/429 431/431/431 504/504/504
f 504/504/504 431/431/431 506/506/506
f 431/431/431 433/433/433 506/506/506
f 506/506/506 433/433/433 508/508/508
f 433/433/433 435/435/435 508/508/508
f 508/508/508 435/435/435 510/510/510
f 435/435/435 437/437/437 510/510/510
f 510/510/510 437/437/437 512/512/512
f 437/437/437 439/439/439 512/512/512
f 512/512/512 439/439/439 514/514/514
f 439/439/439 441/441/441 514/514/514
f 514/514/514 441/441/441 516/516/516
f 441/441/441 443/443/443 516/516/516
f 516/516/516 443/443/443 518/518/518
f 443/443/443 445/445/445 518/518/518
f 518/518/518 445/445/445 520/520/520
f 445/445/445 447/447/447 520/520/520
f 520/520/520 447/447/447 522/522/522
f 447/447/447 449/449/449 522/522/522
f 522/522/522 449/449/449 524/524/524
f 449/449/449 451/451/451 524/524/524
f 524/524/524 451/451/451 526/526/526
f 451/451/451 453/453/453 526/526/526
f 526/526/526 453/453/453 528/528/528
f 453/453/453 455/455/455 528/528/528
f 528/528/528 455/455/455 530/530/530
f 455/455/455 457/457/457 530/530/530
f 530/530/530 457/457/457 532/532/532
f 457/457/457 459/459/459 532/532/532
f 532/532/532 459/459/459 534/534/534
f 459/459/459 461/461/461 534/534/534
f 534/534/534 461/461/461 536/536/536
f 461/461/461 463/463/463 536/536/536
f 536/536/536 463/463/463 538/538/538
f 463/463/463 465/465/465 538/538/538
f 538/538/538 465/465/465 540/540/540
f 465/465/465 467/467/467 540/540/540
f 540/540/540 467/467/467 542/542/542
f 467/467/467 469/469/469 542/542/542
f 542/542/542 469/469/469 544/544/544
f 469/469/469 471/471/471 544/544/544
f 544/544/544 471/471/471 546/546/546
f 471/471/471 473/473/473 546/546/546
f 546/546/546 473/473/473 548/548/548
f 473/473/473 475/475/475 548/548/548
f 548/548/548 475/475/475 550/550/550
f 475/475/475 477/477/477 550/550/550
f 550/550/550 477/477/477 552/552/552
f 477/477/477 479/479/479 552/552/552
f 552/552/552 479/479/479 554/554/554
f 479/479/479 481/481/481 554/554/554
f 554/554/554 481/481/481 556/556/556
f 556/556/556 481/481/481 557/557/557
f 482/482/482 483/483/483 558/558/558
f 558/558/558 483/483/483 559/559/559
f 483/483/483 484/484/484 559/559/559
f 484/484/484 485/485/485 559/559/559
f 559/559/559 485/485/485 560/560/560
f 485/485/485 486/486/486 560/560/560
f 560/560/560 486/486/486 561/561/561
f 486/486/486 487/487/487 561/561/561
f 488/488/488 489/489/489 562/562/562
f 562/562/562 489/489/489 563/563/563
f 489/489/489 490/490/490 563/563/563
f 563/563/563 490/490/490 564/564/564
f 490/490/490 491/491/491 564/564/564
f 491/491/491 492/492/492 564/564/564
f 564/564/564 492/492/492 565/565/565
f 492/492/492 493/493/493 565/565/565
f 566/566/566 494/494/494 567/567/567
f 494/494/494 496/496/496 567/567/567
f 568/568/568 495/495/495 571/571/571
f 571/571/571 495/495/495 574/574/574
f 495/495/495 497/497/497 574/574/574
f 574/574/574 497/497/497 577/577/577
f 497/497/497 499/499/499 577/577/577
f 577/577/577 499/499/499 580/580/580
f 499/499/499 501/501/501 580/580/580
f 580/580/580 501/501/501 583/583/583
f 501/501/501 503/503/503 583/583/583
f 583/583/583 503/503/503 586/586/586
f 503/503/503 505/505/505 586/586/586
f 586/586/586 505/505/505 588/588/588
f 505/505/505 507/507/507 588/588/588
f 588/588/588 507/507/507 591/591/591
f 507/507/507 509/509/509 591/591/591
f 591/591/591 509/509/509 594/594/594
f 509/509/509 511/511/511 594/594/594
f 594/594/594 511/511/511 596/596/596
f 511/511/511 513/513/513 596/596/596
f 596/596/596 513/513/513 599/599/599
f 513/513/513 515/515/515 599/599/599
f 599/599/599 515/515/515 602/602/602
f 602/602/602 515/515/515 605/605/605
f 515/515/515 517/517/517 605/605/605
f 605/605/605 517/517/517 608/608/608
f 517/517/517 519/519/519 608/608/608
f 608/608/608 519/519/519 611/611/611
f 519/519/519 521/521/521 611/611/611
f 521/521/521 523/523/523 611/611/611
f 611/611/611 523/523/523 614/614/614
f 614/614/614 523/523/523 617/617/617
f 523/523/523 525/525/525 617/617/617
f 525/525/525 527/527/527 617/617/617
f 617/617/617 527/527/527 620/620/620
f 527/527/527 529/529/529 620/620/620
f 620/620/620 529/529/529 623/623/623
f 529/529/529 531/531/531 623/623/623
f 623/623/623 531/531/531 626/626/626
f 626/626/626 531/531/531 629/629/629
f 531/531/531 533/533/533 629/629/629
f 629/629/629 533/533/533 631/631/631
f 533/533/533 535/535/535 631/631/631
f 631/631/631 535/535/535 634/634/634
f 535/535/535 537/537/537 634/634/634
f 634/634/634 537/537/537 637/637/637
f 537/537/537 539/539/539 637/637/637
f 637/637/637 539/539/539 639/639/639
f 539/539/539 541/541/541 639/639/639
f 639/639/639 541/541/541 642/642/642
f 541/541/541 543/543/543 642/642/642
f 642/642/642 543/543/543 645/645/645
f 543/543/543 545/545/545 645/645/645
f 645/645/645 545/545/545 648/648/648
f 545/545/545 547/547/547 648/648/648
f 648/648/648 547/547/547 651/651/651
f 547/547/547 549/549/549 651/651/651
f 651/651/651 549/549/549 654/654/654
f 549/549/549 551/551/551 654/654/654
f 654/654/654 551/551/551 657/657/657
f 551/551/551 553/553/553 657/657/657
f 657/657/657 553/553/553 660/660/660
f 553/553/553 555/555/555 660/660/660
f 660/660/660 555/555/555 663/663/663
f 663/663/663 555/555/555 664/664/664
f 556/556/556 557/557/557 665/665/665
f 665/665/665 557/557/557 666/666/666
f 558/558/558 559/559/559 667/667/667
f 559/559/559 560/560/560 667/667/667
f 667/667/667 560/560/560 671/671/671
f 560/560/560 561/561/561 671/671/671
f 562/562/562 563/563/563 670/670/670
f 670/670/670 563/563/563 672/672/672
f 563/563/563 564/564/564 672/672/672
f 564/564/564 565/565/565 672/672/672
f 673/673/673 566/566/566 674/674/674
f 566/566/566 567/567/567 674/674/674
f 675/675/675 568/568/568 676/676/676
f 568/568/568 571/571/571 676/676/676
f 677/677/677 570/570/570 690/690/690
f 569/569/569 572/572/572 685/685/685
f 573/573/573 576/576/576 692/692/692
f 575/575/575 579/579/579 682/682/682
f 578/578/578 582/582/582 683/683/683
f 581/581/581 584/584/584 680/680/680
f 585/585/585 587/587/587 681/681/681
f 587/587/587 590/590/590 681/681/681
f 589/589/589 593/593/593 684/684/684
f 592/592/592 595/595/595 686/686/686
f 595/595/595 597/597/597 686/686/686
f 598/598/598 600/600/600 687/687/687
f 601/601/601 603/603/603 693/693/693
f 604/604/604 607/607/607 688/688/688
f 606/606/606 609/609/609 698/698/698
f 610/610/610 612/612/612 699/699/699
f 613/613/613 615/615/615 700/700/700
f 616/616/616 619/619/619 679/679/679
f 618/618/618 622/622/622 689/689/689
f 621/621/621 624/624/624 695/695/695
f 625/625/625 627/627/627 697/697/697
f 628/628/628 630/630/630 692/692/692
f 630/630/630 633/633/633 692/692/692
f 632/632/632 635/635/635 684/684/684
f 636/636/636 638/638/638 681/681/681
f 638/638/638 640/640/640 681/681/681
f 641/641/641 643/643/643 680/680/680
f 644/644/644 646/646/646 696/696/696
f 647/647/647 650/650/650 701/701/701
f 649/649/649 652/652/652 686/686/686
f 653/653/653 656/656/656 694/694/694
f 655/655/655 659/659/659 691/691/691
f 658/658/658 661/661/661 693/693/693
f 691/691/691 662/662/662 703/703/703
f 705/705/705 663/663/663 706/706/706
f 663/663/663 664/664/664 706/706/706
f 665/665/665 666/666/666 709/709/709
f 666/666/666 668/668/668 709/709/709
f 708/708/708 669/669/669 710/710/710
f 669/669/669 673/673/673 710/710/710
f 673/673/673 674/674/674 710/710/710
f 711/711/711 675/675/675 714/714/714
f 675/675/675 676/676/676 714/714/714
f 678/678/678 695/695/695 712/712/712
f 690/690/690 702/702/702 713/713/713
f 704/704/704 707/707/707 714/714/714
f 711/711/711 714/714/714 707/707/707

