mtllib material.mtl
usemtl black
v -0.04798300 0.04804200 0.21288400
v -0.04542800 0.05034700 0.22101700
v -0.04287300 0.05265200 0.22915100
v -0.04144900 0.05378100 0.21925800
v -0.04045600 0.05451800 0.22218200
v -0.03849700 0.05593200 0.21925800
v -0.03849700 0.05593200 0.22510700
v -0.03849700 0.05593200 0.22915100
v -0.03751600 0.05659400 0.22510700
v -0.03461100 -0.05841700 0.21913000
v -0.03362600 0.05898600 0.21431100
v -0.03149500 -0.06005100 0.22604200
v -0.03149300 -0.06004700 0.21607000
v -0.02863600 -0.06156600 0.22293400
v -0.02824800 -0.06174500 0.21288400
v -0.02824800 -0.06174500 0.22915100
v -0.02601400 -0.06261000 0.21702300
v -0.02601400 -0.06260800 0.22519200
v -0.02509700 0.06309200 0.22740400
v -0.02349600 -0.06370500 0.21472500
v -0.02128600 -0.06454500 0.23750000
v -0.02023500 0.06481500 0.22915100
v -0.01983900 0.06493700 0.21937200
v -0.01971900 -0.06504300 0.23750000
v -0.01971900 -0.06504300 0.23750000
v -0.01971900 -0.06504300 0.23750000
v -0.01968800 -0.06498300 0.21855300
v -0.01968800 -0.06498300 0.21855300
v -0.01961700 -0.06500400 0.21759400
v -0.01955300 -0.06502400 0.21672800
v -0.01950300 -0.06514300 0.23750000
v -0.01950300 -0.06514300 0.23750000
v -0.01949400 0.06510900 0.22849500
v -0.01949400 0.06510900 0.22849500
v -0.01939400 -0.06507100 0.21622400
v -0.01923700 -0.06511800 0.21572700
v -0.01895400 -0.06520000 0.21525200
v -0.01682700 0.06568800 0.22616300
v -0.01676500 0.06580300 0.21600700
v -0.01675800 0.06570200 0.21600700
v -0.01675500 0.06570600 0.22610000
v -0.01675400 0.06570300 0.21601000
v -0.01568200 -0.06616700 0.23750000
v -0.01568200 -0.06616700 0.23750000
v -0.01519900 -0.06617300 0.21277200
v -0.01519300 -0.06627900 0.21275500
v -0.01466700 -0.06629700 0.21963000
v -0.01466700 -0.06629700 0.21963000
v -0.01460800 -0.06631000 0.21876400
v -0.01460200 -0.06631100 0.21874500
v -0.01443600 -0.06634800 0.21820500
v -0.01442900 -0.06645100 0.21820500
v -0.01442000 -0.06635100 0.21817800
v -0.01413600 -0.06641200 0.21770300
v -0.01408900 -0.06642200 0.21765500
v -0.01408100 -0.06652600 0.21765500
v -0.01373100 -0.06649700 0.21729300
v -0.01372300 -0.06660100 0.21729300
v -0.01366700 -0.06651000 0.21725400
v -0.01365900 -0.06661400 0.21725400
v -0.01342500 0.06666200 0.22317400
v -0.01341800 0.06656100 0.22317400
v -0.01335300 -0.06657400 0.21258300
v -0.01328800 0.06668900 0.21913000
v -0.01328100 0.06658900 0.21913000
v -0.01323700 -0.06659700 0.21699200
v -0.01323000 -0.06670100 0.21699200
v -0.01315400 -0.06661300 0.21696500
v -0.01314700 -0.06671700 0.21696500
v -0.01295000 -0.06665400 0.21258200
v -0.01112100 -0.06698300 0.21258200
v -0.01103300 0.06709900 0.21913000
v -0.01102600 0.06699900 0.21913000
v -0.01102600 0.06699900 0.22317400
v -0.00928400 -0.06726200 0.21258200
v -0.00928400 -0.06726200 0.21675700
v -0.00927600 -0.06736400 0.21258200
v -0.00672900 -0.06756600 0.21675700
v -0.00587200 -0.06764600 0.21681500
v -0.00586600 -0.06764600 0.21681700
v -0.00585900 -0.06774700 0.21682300
v -0.00558800 -0.06767000 0.21258200
v -0.00530700 -0.06769200 0.21698700
v -0.00529800 -0.06769300 0.21699200
v -0.00480300 -0.06773000 0.21728700
v -0.00477800 -0.06773200 0.21731100
v -0.00439700 -0.06775700 0.21768700
v -0.00438600 -0.06775800 0.21769700
v -0.00408100 -0.06777700 0.21819200
v -0.00407900 -0.06777700 0.21819500
v -0.00390400 -0.06778800 0.21874200
v -0.00390200 -0.06778800 0.21877000
v -0.00390200 -0.06778800 0.21877000
v -0.00389300 -0.06788800 0.21877000
v -0.00383900 -0.06779100 0.21963000
v -0.00383900 -0.06779100 0.21963000
v -0.00134900 0.06788700 0.21855300
v -0.00126600 0.06788800 0.21704600
v -0.00122400 0.06798900 0.21684000
v -0.00121500 0.06798900 0.21672800
v -0.00121300 0.06788900 0.21684400
v -0.00098300 0.06789300 0.21596600
v -0.00088600 0.06799400 0.21572700
v -0.00088200 0.06789400 0.21578200
v -0.00046900 0.06789800 0.21502600
v -0.00030600 0.06799900 0.21480800
v -0.00028200 0.06789800 0.21482300
v 0.00039000 0.06789900 0.21409200
v 0.00048800 0.06799800 0.21400500
v 0.00212300 0.06786300 0.21312500
v 0.00320600 0.06782400 0.21276100
v 0.00383900 0.06779100 0.21963000
v 0.00383900 0.06779100 0.21963000
v 0.00389100 0.06788900 0.21879500
v 0.00389900 0.06778800 0.21879500
v 0.00389900 0.06778800 0.21879500
v 0.00390300 0.06778800 0.21874400
v 0.00407200 0.06777800 0.21821800
v 0.00408000 0.06777700 0.21819400
v 0.00438100 0.06775800 0.21770500
v 0.00438600 0.06775800 0.21769700
v 0.00480200 0.06773000 0.21728700
v 0.00480300 0.06773000 0.21728700
v 0.00529100 0.06779400 0.21699100
v 0.00530800 0.06769200 0.21698700
v 0.00532500 0.06779100 0.21698000
v 0.00533200 0.06769000 0.21697900
v 0.00558800 0.06767000 0.21258200
v 0.00587300 0.06764600 0.21681500
v 0.00587800 -0.06764500 0.21288400
v 0.00590400 0.06764300 0.21681300
v 0.00672200 0.06766700 0.21675700
v 0.00672900 0.06756600 0.21675700
v 0.00928400 0.06726200 0.21258200
v 0.00928400 0.06726200 0.21675700
v 0.01102600 -0.06699900 0.22317400
v 0.01180800 0.06696700 0.21675700
v 0.01182400 0.06686300 0.21675700
v 0.01259900 0.06672000 0.21681500
v 0.01272200 0.06669800 0.21682500
v 0.01295000 0.06665400 0.21258200
v 0.01295000 0.06665400 0.21258200
v 0.01316700 0.06661100 0.21696900
v 0.01334100 0.06657700 0.21258300
v 0.01368100 0.06650700 0.21726300
v 0.01371700 0.06660200 0.21728800
v 0.01373000 0.06649700 0.21729300
v 0.01409600 0.06652300 0.21766900
v 0.01410300 0.06641900 0.21766900
v 0.01412600 0.06651700 0.21769900
v 0.01413600 0.06641200 0.21770300
v 0.01434700 0.06646900 0.21821700
v 0.01459800 0.06641500 0.21876600
v 0.01466000 0.06640100 0.21963000
v 0.01466700 0.06629700 0.21963000
v 0.01521100 0.06617100 0.21277300
v 0.01544900 0.06611900 0.21279700
v 0.01657300 0.06594700 0.21320900
v 0.01658400 0.06584200 0.21319900
v 0.01675000 0.06580100 0.21325800
v 0.01675400 -0.06570300 0.21601000
v 0.01675500 -0.06570600 0.22610000
v 0.01675500 -0.06570600 0.22610000
v 0.01676500 -0.06580300 0.21600700
v 0.01682700 -0.06568800 0.22616300
v 0.01683400 -0.06578900 0.22616300
v 0.01683400 -0.06578900 0.22616300
v 0.01772400 0.06554400 0.21388300
v 0.01791700 0.06549300 0.21400700
v 0.01818800 0.06541800 0.21429100
v 0.01870100 0.06527400 0.21482900
v 0.01883600 0.06533900 0.21502500
v 0.01896500 0.06519700 0.21527000
v 0.01923700 0.06511800 0.21572600
v 0.01940100 0.06506900 0.21624600
v 0.01955300 0.06502400 0.21672800
v 0.01961900 0.06500400 0.21762600
v 0.01963100 0.06510500 0.21762400
v 0.01968800 0.06498300 0.21855300
v 0.02023500 -0.06481500 0.22915100
v 0.02141800 0.06443400 0.21288400
v 0.02600700 0.06272000 0.22519200
v 0.02600700 0.06272000 0.22519200
v 0.02601500 0.06260800 0.22519200
v 0.02690300 0.06236400 0.22442000
v 0.02690300 0.06236400 0.22442000
v 0.02693300 0.06243900 0.21288400
v 0.02693300 0.06243900 0.21288400
v 0.02774000 -0.06197500 0.21288400
v 0.02824800 0.06174500 0.21288400
v 0.02824800 0.06174500 0.22915100
v 0.02863700 0.06156600 0.22293400
v 0.03059000 0.06061900 0.22119700
v 0.03136900 0.06011700 0.22616300
v 0.03142900 0.06008100 0.21600700
v 0.03149300 0.06004700 0.21607000
v 0.03149500 0.06005100 0.22604200
v 0.03362600 -0.05898600 0.21431100
v 0.03386700 -0.05885100 0.22915100
v 0.03415100 -0.05868700 0.21573800
v 0.03449000 0.05848800 0.22317400
v 0.03460200 0.05853800 0.21913000
v 0.03461100 0.05841700 0.21913000
v 0.03647300 -0.05725900 0.22218200
v 0.03849700 -0.05593200 0.21925800
v 0.03946200 -0.05525500 0.22510700
v 0.04308600 -0.05247500 0.21431100
v 0.01102600 -0.06699900 0.21288400
v 0.01102600 -0.06699900 0.21913000
v 0.01681100 0.06588900 0.21329100
v 0.01771000 0.06565100 0.21389200
v 0.03656300 0.05721500 0.21288400
v 0.03656300 0.05721500 0.21913000
v 0.03656300 0.05721500 0.21913000
v -0.00162700 -0.06788100 0.21329200
v 0.00587800 -0.06764500 0.22915100
v 0.01102600 -0.06699900 0.22915100
v 0.00090000 0.06789100 0.21376200
v 0.00162900 0.06788000 0.21329100
v 0.01983900 -0.06493700 0.21937200
v 0.03656300 0.05721500 0.22317400
v 0.03656300 0.05721500 0.22915100
v 0.04144900 -0.05378100 0.21925800
v 0.04144900 -0.05378100 0.21925800
v -0.03059000 -0.06061900 0.22119700
v -0.02863600 -0.06156600 0.22293400
v 0.00046900 -0.06789800 0.21502700
v 0.00088000 -0.06789400 0.21577900
v -0.03647300 0.05725900 0.22218200
v -0.03543000 0.05792400 0.21925800
v -0.00134900 0.06788700 0.22915100
v -0.03386700 0.05885100 0.22915100
v -0.03080400 0.06041300 0.22101700
v -0.02862300 -0.06168200 0.22293900
v -0.03058200 -0.06073500 0.22119700
v -0.00134900 0.06788700 0.21855300
v -0.00134900 0.06788700 0.21855300
v -0.00134900 0.06788700 0.21855300
v -0.00126600 0.06788800 0.21704600
v 0.03655500 0.05733900 0.21913000
v 0.04144900 -0.05378100 0.21925800
v 0.04144900 -0.05378100 0.21925800
v 0.01675500 -0.06570600 0.22610000
v 0.01682700 -0.06568800 0.22616300
v 0.01682700 -0.06568800 0.22616300
v 0.01180800 0.06696700 0.21258200
v 0.01294300 0.06675700 0.21258200
v -0.00349000 -0.06780600 0.21274000
v -0.00320700 -0.06782400 0.21276100
v 0.02601400 0.06261000 0.21702300
v -0.02601400 -0.06260800 0.22519200
v -0.03142900 -0.06008100 0.21600700
v 0.02349700 0.06370500 0.21472600
v -0.03656300 -0.05721500 0.21913000
v -0.01675800 0.06570200 0.21600700
v -0.01675400 0.06570300 0.21601000
v 0.01774100 -0.06554100 0.22119700
v -0.03656300 -0.05721500 0.22317400
v -0.01341800 0.06656100 0.22317400
v -0.01341800 0.06656100 0.22317400
v -0.01341800 0.06656100 0.22317400
v -0.01102600 0.06699900 0.22317400
v -0.01657200 -0.06584500 0.21319400
v -0.01545300 -0.06611800 0.21279800
v 0.00126700 -0.06788800 0.21705000
v 0.00134900 -0.06788700 0.21855300
v 0.00134900 -0.06788700 0.21855300
v 0.00134900 -0.06788700 0.21855300
v -0.01675000 -0.06580100 0.21325800
v 0.04355200 -0.05209200 0.21288400
v 0.04798300 -0.04804200 0.21288400
v 0.04798300 -0.04804200 0.21288400
v 0.04798300 -0.04804200 0.21288400
v 0.02141000 0.06454100 0.22915100
v 0.02141000 0.06454100 0.22915100
v 0.02141000 0.06454100 0.22915100
v -0.00383900 -0.06779100 0.22915100
v -0.03656300 -0.05721500 0.21288400
v 0.00134900 -0.06788700 0.22915100
v 0.01328800 -0.06668900 0.21913000
v 0.01675400 -0.06570300 0.21601000
v 0.01675800 -0.06570200 0.21600700
v 0.00053200 0.06789700 0.21400100
v -0.01774100 0.06554100 0.22119700
v -0.01968800 -0.06498300 0.22915100
v -0.01466700 -0.06629700 0.22915100
v -0.02023500 0.06481500 0.22915100
v -0.01682700 0.06568800 0.22616300
v -0.01682700 0.06568800 0.22616300
v -0.01682700 0.06568800 0.22616300
v 0.01520600 0.06627700 0.21275600
v -0.03310200 0.05928500 0.21288400
v -0.02774000 0.06197500 0.21288400
v -0.03136900 -0.06011700 0.22616300
v -0.03656300 -0.05721500 0.22915100
v -0.01519900 -0.06617300 0.21277200
v -0.01335300 -0.06657400 0.21258300
v -0.02141800 -0.06443400 0.22915100
v -0.01112100 -0.06698300 0.21258200
v -0.00928400 -0.06726200 0.21258200
v -0.00083100 -0.06789200 0.21380700
v -0.00053800 -0.06789700 0.21399600
v -0.01537800 -0.06621400 0.23750000
v -0.02711200 0.06225200 0.21288400
v -0.02244100 0.06397700 0.21705000
v -0.01102600 0.06699900 0.21288400
v -0.01102600 0.06699900 0.21913000
v 0.02244100 -0.06397700 0.21705000
v 0.04287300 -0.05265200 0.22915100
v 0.04542800 -0.05034700 0.22101700
v -0.04144900 0.05378100 0.21925800
v -0.04144900 0.05378100 0.21925800
v -0.04144900 0.05378100 0.21925800
v 0.03849700 -0.05593200 0.21573800
v 0.01460800 0.06631000 0.21876400
v 0.01460900 0.06631000 0.21876500
v 0.01460900 0.06631000 0.21876500
v -0.01294300 -0.06675700 0.21258200
v -0.01328100 0.06658900 0.21913000
v -0.01328100 0.06658900 0.21913000
v -0.01103300 0.06709900 0.21913000
v -0.01817400 -0.06542200 0.21427600
v -0.01791600 -0.06549400 0.21400600
v 0.00121400 -0.06788900 0.21684400
v 0.01466700 0.06629700 0.21963000
v 0.01466700 0.06629700 0.21963000
v 0.02601500 0.06260800 0.22519200
v 0.02601500 0.06260800 0.22519200
v 0.02601500 0.06260800 0.22519200
v 0.02863700 0.06156600 0.22293400
v -0.00088200 0.06789400 0.21578200
v -0.00046900 0.06789800 0.21502600
v -0.00046900 0.06789800 0.21502600
v -0.00032700 0.06799900 0.21482900
v -0.00032700 0.06799900 0.21482900
v -0.00028200 0.06789800 0.21482300
v -0.01102600 0.06699900 0.22915100
v 0.01181700 0.06696500 0.21675700
v 0.01259200 0.06682400 0.21681000
v -0.00407200 -0.06787800 0.21819500
v -0.00395400 -0.06788500 0.21856700
v 0.01459600 0.06641500 0.21874000
v 0.01459600 0.06641500 0.21874000
v 0.01443100 0.06634900 0.21819500
v 0.01443600 0.06634800 0.21820400
v -0.04058700 0.05443400 0.21573800
v -0.03849700 0.05593200 0.21573800
v -0.00407400 -0.06787800 0.21819200
v -0.00039000 -0.06789900 0.21409200
v 0.00928400 0.06726200 0.21258200
v 0.03543000 -0.05792400 0.21925800
v 0.00383900 0.06779100 0.22915100
v 0.01459800 0.06641500 0.21876600
v 0.03751600 -0.05659400 0.22510700
v 0.03849700 -0.05593200 0.22510700
v 0.00383900 0.06779100 0.21963000
v 0.00389900 0.06778800 0.21879500
v 0.01527800 0.06626200 0.21276100
v 0.00098600 -0.06789300 0.21597500
v -0.01870100 -0.06527400 0.21482900
v 0.01658400 0.06584200 0.21319900
v 0.01675000 0.06580100 0.21325800
v -0.03449000 -0.05848800 0.22317400
v -0.01675500 0.06570600 0.22610000
v -0.01675500 0.06570600 0.22610000
v -0.01328800 0.06668900 0.21913000
v -0.01328800 0.06668900 0.21913000
v -0.00203500 -0.06786600 0.21315500
v -0.00439700 -0.06775700 0.21768700
v -0.00438600 -0.06775800 0.21769700
v -0.00477100 -0.06783200 0.21731100
v -0.00439000 -0.06785800 0.21768700
v 0.03149300 0.06004700 0.21607000
v 0.03149300 0.06004700 0.21607000
v 0.03461100 0.05841700 0.21913000
v 0.03461100 0.05841700 0.21913000
v -0.00408100 -0.06777700 0.21819200
v 0.01800800 0.06557200 0.21409100
v 0.01818200 0.06552300 0.21428800
v -0.00479600 -0.06783100 0.21728700
v -0.04261900 0.05285900 0.21573800
v 0.01791700 0.06549300 0.21400700
v 0.01818800 0.06541800 0.21429100
v 0.03460200 0.05853800 0.21913000
v 0.01870100 0.06527400 0.21482900
v 0.01870100 0.06527400 0.21482900
v -0.01272300 -0.06669700 0.21682500
v -0.01258300 -0.06672300 0.21681400
v -0.01466700 -0.06629700 0.21963000
v -0.01460800 -0.06631000 0.21876400
v -0.00477800 -0.06773200 0.21731100
v -0.00437900 -0.06785900 0.21769700
v -0.02244100 0.06397600 0.22516300
v 0.00672900 0.06756600 0.21675700
v 0.00928400 0.06726200 0.21675700
v -0.00407900 -0.06777700 0.21819500
v -0.03946200 0.05525500 0.22510700
v 0.01883600 0.06533900 0.21502500
v 0.00359100 0.06779900 0.21273200
v 0.02711200 -0.06225200 0.21288400
v -0.00530000 -0.06779300 0.21698700
v -0.00529100 -0.06779400 0.21699200
v 0.01896200 0.06530200 0.21526600
v -0.00530700 -0.06769200 0.21698700
v -0.00529800 -0.06769300 0.21699200
v -0.01771400 -0.06554700 0.21387700
v -0.04542800 0.05034700 0.22101700
v -0.04542800 0.05034700 0.22101700
v -0.04308600 0.05247500 0.21431100
v 0.03142100 0.06019800 0.21600700
v 0.03142100 0.06019800 0.21600700
v 0.03142100 0.06019800 0.21600700
v -0.01460200 -0.06631100 0.21874500
v -0.01443600 -0.06634800 0.21820500
v 0.01896500 0.06519700 0.21527000
v -0.01459600 -0.06641500 0.21873700
v 0.01968100 0.06509000 0.22915100
v 0.01466700 0.06629700 0.22915100
v 0.01772400 0.06554400 0.21388300
v 0.01295000 0.06665400 0.21258200
v 0.01334100 0.06657700 0.21258300
v -0.01442000 -0.06635100 0.21817800
v -0.00090100 0.06799400 0.21577400
v 0.01544900 0.06611900 0.21279700
v -0.00558800 -0.06767000 0.21258200
v 0.01521100 0.06617100 0.21277300
v -0.02023500 0.06481500 0.21288400
v 0.01341800 -0.06656100 0.22317400
v 0.01341800 -0.06656100 0.22317400
v 0.02141800 0.06443400 0.22915100
v 0.02141800 0.06443400 0.22915100
v 0.03621200 -0.05743800 0.22915100
v 0.03310200 -0.05928500 0.21288400
v -0.00098300 0.06789300 0.21596600
v -0.01323700 -0.06659700 0.21699200
v -0.01315400 -0.06661300 0.21696500
v 0.02023500 -0.06481500 0.22915100
v -0.01459700 -0.06641500 0.21874400
v -0.00121300 0.06788900 0.21684400
v 0.00581300 0.06775100 0.21682500
v 0.00589700 0.06774300 0.21681900
v 0.02023500 -0.06481500 0.21288400
v 0.04083000 0.05425200 0.21288400
v 0.04083000 0.05425200 0.22915100
v 0.00587300 0.06764600 0.21681500
v 0.00590400 0.06764300 0.21681300
v -0.00480300 -0.06773000 0.21728700
v -0.02711200 0.06225200 0.22915100
v 0.01328100 -0.06658900 0.21913000
v 0.01328100 -0.06658900 0.21913000
v -0.01466000 -0.06640100 0.21963000
v -0.01342500 0.06666200 0.22317400
v 0.02600700 0.06272000 0.22519200
v -0.00672200 -0.06766700 0.21675700
v 0.04045600 -0.05451800 0.22218200
v 0.00028000 -0.06789800 0.21482100
v 0.01316700 0.06661100 0.21696900
v 0.01323700 0.06659700 0.21699100
v -0.03415100 0.05868700 0.21573800
v 0.01968800 0.06498300 0.21855300
v 0.01968800 0.06498300 0.21855300
v 0.01968800 0.06498300 0.22915100
v 0.01182400 0.06686300 0.21675700
v 0.03849700 -0.05593200 0.22915100
v -0.02141800 -0.06443400 0.21288400
v 0.03080400 -0.06041300 0.22101700
v -0.03621200 0.05743800 0.22915100
v -0.04355200 0.05209200 0.21288400
v -0.01182400 -0.06686300 0.21675700
v -0.00928400 -0.06726200 0.21675700
v 0.00039000 0.06789900 0.21409200
v 0.01961900 0.06500400 0.21762600
v -0.01676500 0.06580300 0.21600700
v -0.01373100 -0.06649700 0.21729300
v -0.01366700 -0.06651000 0.21725400
v -0.01683400 0.06578900 0.22616300
v -0.01683400 0.06578900 0.22616300
v -0.01683400 0.06578900 0.22616300
v -0.00587800 0.06764500 0.22915100
v 0.01368100 0.06650700 0.21726300
v -0.00587800 0.06764500 0.21288400
v 0.01933000 0.06519500 0.21596800
v 0.01933000 0.06519500 0.21596800
v 0.01939900 0.06517400 0.21624300
v -0.00580400 -0.06775200 0.21682700
v 0.02244100 -0.06397600 0.22516300
v 0.01272200 0.06669800 0.21682500
v -0.00587200 -0.06764600 0.21681500
v -0.00586600 -0.06764600 0.21681700
v -0.01441300 -0.06645500 0.21817800
v -0.01412900 -0.06651600 0.21770300
v 0.01923700 0.06511800 0.21572600
v 0.01923700 0.06511800 0.21572600
v 0.01940100 0.06506900 0.21624600
v 0.00480200 0.06773000 0.21728700
v 0.00480300 0.06773000 0.21728700
v 0.00480300 0.06773000 0.21728700
v -0.01413600 -0.06641200 0.21770300
v -0.01408900 -0.06642200 0.21765500
v 0.01266500 0.06681000 0.21681500
v 0.00533200 0.06769000 0.21697900
v 0.02824800 0.06174500 0.21288400
v 0.02824800 0.06174500 0.21288400
v 0.02824800 0.06174500 0.21288400
v 0.03142900 0.06008100 0.21600700
v 0.03142900 0.06008100 0.21600700
v -0.01295000 -0.06665400 0.21258200
v 0.02824000 0.06185900 0.21288400
v 0.02824000 0.06185900 0.21288400
v 0.00530800 0.06769200 0.21698700
v -0.04083000 -0.05425200 0.22915100
v -0.04083000 -0.05425200 0.21288400
v 0.02141800 0.06443400 0.21288400
v 0.00390300 0.06778800 0.21874400
v 0.00407200 0.06777800 0.21821800
v 0.02509700 -0.06309200 0.22740400
v 0.00389300 0.06788800 0.21876100
v 0.01409600 0.06652300 0.21766900
v 0.01412600 0.06651700 0.21769900
v 0.00406400 0.06787800 0.21821700
v -0.00390400 -0.06778800 0.21874200
v 0.00406800 0.06787800 0.21820500
v 0.00437300 0.06785900 0.21770400
v 0.01442400 0.06645300 0.21819400
v 0.01373000 0.06649700 0.21729300
v 0.01259900 0.06672000 0.21681500
v -0.00672900 -0.06756600 0.21675700
v 0.01442600 0.06645200 0.21819700
v 0.01410300 0.06641900 0.21766900
v 0.01413600 0.06641200 0.21770300
v 0.00479600 0.06783100 0.21728800
v 0.00479600 0.06783100 0.21728800
v 0.00438600 0.06775800 0.21769700
v -0.00389400 -0.06788800 0.21875400
v -0.00390200 -0.06778800 0.21877000
v -0.00383900 -0.06779100 0.21963000
v 0.00478900 0.06783100 0.21729200
v 0.04261900 -0.05285900 0.21573800
v 0.01955300 0.06502400 0.21672800
v 0.01955300 0.06502400 0.21672800
v 0.00438100 0.06775800 0.21770500
v 0.00437400 0.06785900 0.21770300
v 0.01960100 0.06511400 0.21704600
v 0.01960100 0.06511400 0.21704600
v 0.00408000 0.06777700 0.21819400
vn -0.66650000 0.74540000 0.01050000
vn -0.00000000 -0.00000000 1.00000000
vn -0.61390000 0.78930000 -0.01270000
vn -0.62640000 0.77950000 0.00420000
vn -0.64620000 0.76270000 0.02740000
vn -0.56290000 0.82650000 -0.00140000
vn -0.57450000 0.81840000 0.00860000
vn -0.57610000 0.81740000 0.00130000
vn -0.52610000 0.85040000 -0.00360000
vn -0.48890000 -0.87230000 -0.00010000
vn -0.44840000 0.89360000 0.02240000
vn -0.47510000 -0.87990000 0.00920000
vn -0.47950000 -0.87750000 -0.00890000
vn -0.67030000 -0.04240000 0.74080000
vn -0.40830000 -0.91260000 0.02280000
vn -0.39930000 -0.91680000 -0.00150000
vn -0.40770000 -0.91300000 0.01190000
vn -0.66150000 -0.04200000 0.74870000
vn -0.34250000 0.93910000 0.02710000
vn -0.37300000 -0.92750000 -0.02480000
vn -0.00030000 -0.00000000 1.00000000
vn -0.30600000 0.95170000 -0.02400000
vn -0.28110000 0.95890000 -0.03940000
vn 0.00010000 -0.00000000 1.00000000
vn -0.00030000 -0.00000000 1.00000000
vn -0.00000000 -0.00000000 1.00000000
vn -0.25320000 -0.96740000 -0.00000000
vn -0.25300000 -0.96750000 0.00110000
vn -0.25290000 -0.96750000 0.00310000
vn -0.25430000 -0.96710000 0.00700000
vn 0.00010000 -0.00000000 1.00000000
vn -0.00030000 -0.00000000 1.00000000
vn -0.65210000 -0.04520000 -0.75680000
vn -0.65190000 -0.04580000 -0.75690000
vn -0.25410000 -0.96710000 0.00990000
vn -0.25430000 -0.96700000 0.01310000
vn -0.25540000 -0.96670000 0.01550000
vn -0.27130000 0.96250000 0.00250000
vn -0.66000000 -0.04710000 0.74980000
vn -0.26540000 0.96410000 -0.00030000
vn -0.23180000 0.97270000 0.00880000
vn -0.24230000 0.97020000 -0.00430000
vn 0.00010000 -0.00000000 1.00000000
vn -0.00000000 -0.00000000 1.00000000
vn -0.21150000 -0.97740000 0.00030000
vn 0.05570000 -0.14770000 0.98750000
vn -0.25290000 -0.96750000 -0.00120000
vn -0.25320000 -0.96740000 -0.00000000
vn -0.24970000 -0.96820000 -0.01400000
vn -0.24690000 -0.96890000 -0.01610000
vn -0.24070000 -0.97040000 -0.01770000
vn -0.91080000 -0.05880000 -0.40860000
vn -0.23530000 -0.97170000 -0.01900000
vn -0.22930000 -0.97330000 -0.01260000
vn -0.22140000 -0.97510000 -0.01450000
vn -0.71490000 -0.05210000 -0.69730000
vn -0.21490000 -0.97650000 -0.01250000
vn -0.61280000 -0.04800000 -0.78880000
vn -0.20690000 -0.97830000 -0.00800000
vn -0.52640000 -0.04020000 -0.84930000
vn -0.00000000 -0.00000000 -1.00000000
vn -0.22180000 0.97510000 -0.00100000
vn 0.12630000 0.27200000 0.95400000
vn -0.00000000 -0.00000000 1.00000000
vn -0.21900000 0.97570000 -0.00000000
vn -0.19690000 -0.98040000 -0.00730000
vn -0.40600000 -0.02770000 -0.91340000
vn -0.19450000 -0.98090000 -0.00410000
vn -0.30660000 -0.02090000 -0.95160000
vn 0.00160000 0.00010000 1.00000000
vn -0.16310000 -0.98660000 -0.00030000
vn -0.20760000 0.97790000 -0.02490000
vn -0.14280000 0.98970000 0.00020000
vn -0.14310000 0.98970000 -0.00000000
vn -0.13140000 -0.99130000 -0.00170000
vn -0.13600000 -0.99070000 0.00080000
vn -0.00000000 -0.00000000 1.00000000
vn 0.03370000 -0.00040000 -0.99940000
vn -0.04380000 -0.99900000 0.00280000
vn -0.04510000 -0.99900000 -0.00060000
vn 0.07060000 -0.05870000 -0.99580000
vn -0.08570000 -0.99630000 -0.00150000
vn 0.38330000 0.02630000 -0.92320000
vn 0.50030000 0.03410000 -0.86520000
vn -0.06580000 -0.99780000 -0.00850000
vn 0.69770000 0.04830000 -0.71480000
vn -0.05820000 -0.99810000 -0.01860000
vn -0.04890000 -0.99870000 -0.01620000
vn -0.02780000 -0.99960000 -0.00030000
vn 0.90080000 0.06180000 -0.42980000
vn -0.02130000 -0.99980000 -0.00460000
vn -0.01890000 -0.99980000 -0.00020000
vn -0.01890000 -0.99980000 -0.00210000
vn 0.99360000 0.08980000 -0.06830000
vn -0.01890000 -0.99980000 -0.00210000
vn -0.01850000 -0.99980000 -0.00000000
vn 0.99730000 0.06330000 0.03810000
vn 0.01740000 0.99980000 0.00590000
vn 0.98840000 0.06300000 0.13840000
vn 0.94760000 0.24080000 0.20980000
vn 0.01770000 0.99980000 0.00870000
vn 0.01750000 0.99980000 0.01200000
vn 0.88060000 0.24040000 0.40840000
vn 0.01650000 0.99980000 0.01450000
vn 0.01850000 0.99970000 0.01470000
vn 0.69250000 0.27620000 0.66640000
vn 0.01890000 0.99970000 0.01800000
vn 0.02060000 0.99970000 0.01630000
vn 0.55730000 0.17260000 0.81220000
vn 0.03760000 0.99930000 0.00770000
vn 0.05060000 0.99870000 0.00330000
vn 0.01850000 0.99980000 -0.00000000
vn 0.01900000 0.99980000 -0.00220000
vn -0.99440000 -0.08210000 -0.06640000
vn 0.01890000 0.99980000 -0.00040000
vn 0.01900000 0.99980000 -0.00220000
vn 0.02110000 0.99980000 -0.00430000
vn 0.02940000 0.99940000 -0.01920000
vn 0.03570000 0.99910000 -0.02120000
vn 0.02960000 0.99960000 -0.00060000
vn 0.03660000 0.99930000 0.00080000
vn 0.02180000 0.99970000 0.01480000
vn 0.04290000 0.99900000 0.01020000
vn -0.42970000 -0.03480000 -0.90230000
vn 0.07670000 0.99700000 -0.00610000
vn -0.30270000 -0.01670000 -0.95290000
vn 0.07900000 0.99690000 -0.00370000
vn 0.08620000 0.99630000 -0.00260000
vn 0.08780000 0.99610000 -0.00030000
vn 0.12450000 -0.99220000 -0.00000000
vn 0.09420000 0.99560000 -0.00070000
vn -0.03830000 -0.00030000 -0.99930000
vn 0.10520000 0.99440000 -0.00160000
vn 0.00010000 -0.00000000 1.00000000
vn -0.00000000 -0.00000000 -1.00000000
vn 0.14310000 -0.98970000 -0.00000000
vn 0.00050000 -0.00000000 -1.00000000
vn 0.03970000 0.00080000 -0.99920000
vn 0.17970000 0.98370000 -0.00120000
vn 0.18450000 0.98280000 -0.00110000
vn 0.00010000 -0.00000000 1.00000000
vn -0.00170000 -0.00010000 1.00000000
vn 0.19750000 0.98030000 -0.00270000
vn 0.20240000 0.97930000 0.00070000
vn 0.52450000 0.02720000 -0.85090000
vn 0.60580000 0.03850000 -0.79470000
vn 0.21070000 0.97750000 -0.01010000
vn 0.71390000 0.04560000 -0.69880000
vn 0.21990000 0.97550000 -0.00970000
vn 0.78070000 0.04900000 -0.62290000
vn 0.22910000 0.97330000 -0.01200000
vn 0.20680000 0.97840000 0.00320000
vn 0.99180000 0.10380000 -0.07470000
vn 0.99710000 0.06830000 -0.03330000
vn 0.99720000 0.06680000 -0.03280000
vn 0.21290000 0.97710000 0.00100000
vn 0.22470000 0.97440000 0.00490000
vn -0.35520000 -0.12730000 0.92610000
vn -0.35430000 -0.12190000 0.92720000
vn -0.42700000 -0.04880000 0.90290000
vn 0.24230000 -0.97020000 -0.00430000
vn 0.65180000 0.04580000 -0.75700000
vn 0.65190000 0.04580000 -0.75690000
vn 0.65990000 0.04710000 0.74990000
vn 0.27130000 -0.96250000 0.00250000
vn 0.65180000 0.04580000 -0.75700000
vn 0.65190000 0.04580000 -0.75690000
vn -0.56860000 -0.14730000 0.80930000
vn 0.24960000 0.96830000 0.01450000
vn 0.25180000 0.96760000 0.01720000
vn 0.25350000 0.96720000 0.01570000
vn -0.73810000 -0.25670000 0.62400000
vn 0.25560000 0.96670000 0.01540000
vn -0.94760000 0.15330000 0.28010000
vn -0.96230000 -0.03020000 0.27020000
vn 0.25290000 0.96750000 0.00640000
vn -0.98980000 0.12570000 0.06640000
vn -0.99160000 0.11220000 0.06380000
vn -0.99780000 -0.05980000 0.02690000
vn 0.65190000 0.04580000 -0.75690000
vn -0.00000000 -0.00000000 1.00000000
vn 0.66270000 0.04800000 0.74730000
vn 0.66280000 0.04800000 0.74730000
vn 0.36640000 0.93040000 -0.00380000
vn 0.66310000 0.04990000 0.74690000
vn 0.66280000 0.04800000 0.74730000
vn -0.00010000 -0.00000000 1.00000000
vn -0.00000000 -0.00000000 1.00000000
vn 0.45820000 -0.88880000 0.01060000
vn 0.40830000 0.91250000 0.02280000
vn 0.39930000 0.91680000 -0.00140000
vn 0.67180000 0.04920000 0.73910000
vn 0.49060000 0.87140000 -0.00160000
vn 0.46550000 0.88500000 0.01020000
vn 0.44270000 0.89670000 -0.00240000
vn 0.47950000 0.87750000 -0.00890000
vn 0.47510000 0.87990000 0.00920000
vn 0.44840000 -0.89360000 0.02230000
vn 0.50980000 -0.86010000 -0.02000000
vn 0.47180000 -0.88150000 0.01960000
vn 0.48650000 0.87370000 -0.00100000
vn -0.71340000 -0.05300000 0.69870000
vn 0.48890000 0.87230000 -0.00010000
vn 0.48170000 -0.87590000 0.02740000
vn 0.56420000 -0.82560000 -0.00310000
vn 0.60070000 -0.79920000 0.02070000
vn 0.67450000 -0.73800000 0.02220000
vn 0.12450000 -0.99220000 -0.00000000
vn 0.14280000 -0.98970000 0.00020000
vn -0.47890000 0.00050000 0.87790000
vn -0.56670000 -0.13620000 0.81260000
vn 0.57040000 0.82140000 -0.00000000
vn 0.55510000 0.83180000 0.00020000
vn -0.00000000 -0.00000000 1.00000000
vn -0.03110000 -0.99940000 0.01280000
vn 0.12450000 -0.99220000 -0.00000000
vn 0.12450000 -0.99220000 -0.00000000
vn 0.02600000 0.99960000 0.01330000
vn 0.03070000 0.99940000 0.01310000
vn 0.28110000 -0.95890000 -0.03940000
vn 0.55490000 0.83190000 -0.00000000
vn 0.57040000 0.82140000 -0.00000000
vn -0.00000000 -0.00000000 1.00000000
vn 0.61280000 -0.79020000 0.00150000
vn -0.49050000 -0.87140000 -0.00160000
vn -0.43250000 -0.90160000 0.00920000
vn -0.01640000 -0.99980000 0.01460000
vn -0.01660000 -0.99980000 0.01430000
vn -0.48170000 0.87590000 0.02740000
vn -0.50070000 0.86560000 0.00450000
vn 0.01850000 0.99980000 -0.00000000
vn -0.50980000 0.86010000 -0.02000000
vn -0.48170000 0.87630000 -0.00270000
vn -0.66650000 -0.04180000 0.74440000
vn -0.67610000 -0.04610000 0.73540000
vn 0.01850000 0.99980000 -0.00000000
vn 0.01900000 0.99980000 -0.00220000
vn 0.01870000 0.99980000 0.00070000
vn 0.96860000 -0.23470000 0.08220000
vn -0.00000000 -0.00000000 1.00000000
vn 0.64970000 -0.76010000 0.01420000
vn -0.00000000 -0.00000000 1.00000000
vn 0.23180000 -0.97270000 0.00880000
vn 0.65180000 0.04580000 -0.75700000
vn 0.65190000 0.04580000 -0.75690000
vn 0.00010000 -0.00000000 1.00000000
vn -0.01090000 -0.02140000 0.99970000
vn -0.06460000 -0.99790000 -0.00010000
vn -0.05000000 -0.99870000 0.00360000
vn 0.40770000 0.91300000 0.01190000
vn -0.36640000 -0.93040000 -0.00390000
vn -0.44270000 -0.89670000 -0.00240000
vn 0.37300000 0.92750000 -0.02490000
vn -0.55510000 -0.83180000 0.00020000
vn -0.63650000 -0.04340000 0.77010000
vn -0.63210000 -0.04490000 0.77360000
vn 0.21430000 -0.97680000 0.00140000
vn -0.55490000 -0.83190000 -0.00000000
vn -0.65190000 -0.04620000 -0.75690000
vn -0.65190000 -0.04580000 -0.75690000
vn -0.00000000 -0.00000000 -1.00000000
vn -0.00000000 -0.00000000 -1.00000000
vn -0.23560000 -0.97180000 0.00940000
vn -0.22380000 -0.97460000 0.00450000
vn -0.01740000 -0.99980000 0.00570000
vn -0.01890000 -0.99980000 -0.00210000
vn -0.01850000 -0.99980000 -0.00000000
vn -0.01870000 -0.99980000 0.00070000
vn -0.24120000 -0.97040000 0.01340000
vn 0.67450000 -0.73790000 0.02220000
vn 0.21470000 -0.21500000 0.95270000
vn 0.67560000 -0.73680000 0.02640000
vn 0.65540000 -0.75520000 -0.00810000
vn 0.66270000 0.04800000 0.74730000
vn 0.66310000 0.05030000 0.74680000
vn 0.30150000 0.94950000 -0.08660000
vn -0.01850000 -0.99980000 -0.00000000
vn -0.57040000 -0.82140000 -0.00000000
vn -0.01850000 -0.99980000 -0.00000000
vn 0.66090000 0.04700000 0.74900000
vn 0.63210000 0.04490000 0.77360000
vn 0.26540000 -0.96410000 -0.00030000
vn 0.02350000 0.99960000 0.01310000
vn -0.21430000 0.97680000 0.00140000
vn -0.25320000 -0.96740000 -0.00000000
vn -0.25320000 -0.96740000 -0.00000000
vn -0.65210000 -0.04520000 -0.75680000
vn -0.65210000 -0.04520000 -0.75680000
vn -0.65180000 -0.04580000 -0.75700000
vn -0.65190000 -0.04580000 -0.75690000
vn -0.05510000 0.14860000 0.98740000
vn -0.44830000 0.89360000 0.02270000
vn -0.45820000 0.88880000 0.01060000
vn -0.46540000 -0.88500000 0.01020000
vn -0.57040000 -0.82140000 -0.00000000
vn 0.05760000 -0.16300000 0.98490000
vn -0.20320000 -0.97910000 0.00090000
vn -0.36630000 -0.93050000 -0.00390000
vn -0.00000000 -0.00000000 1.00000000
vn -0.00000000 -0.00000000 1.00000000
vn -0.02580000 -0.99960000 0.01330000
vn -0.02360000 -0.99960000 0.01310000
vn -0.00000000 -0.00000000 1.00000000
vn -0.34920000 0.93700000 0.00360000
vn -0.31730000 0.94830000 -0.00240000
vn -0.12450000 0.99220000 -0.00000000
vn -0.00000000 -0.00000000 1.00000000
vn 0.31730000 -0.94830000 -0.00240000
vn 0.61390000 -0.78930000 -0.01270000
vn 0.64660000 -0.76280000 -0.00260000
vn -0.00000000 -0.00000000 1.00000000
vn -0.00000000 -0.00000000 1.00000000
vn -0.64620000 0.76270000 0.02720000
vn 0.56460000 -0.82530000 -0.00280000
vn 0.23290000 0.96880000 -0.08440000
vn 0.22780000 0.96690000 -0.11480000
vn 0.99230000 0.10140000 -0.07070000
vn 0.01080000 0.02160000 0.99970000
vn -0.00000000 -0.00000000 1.00000000
vn -0.66090000 -0.04700000 0.74900000
vn -0.00000000 -0.00000000 1.00000000
vn -0.25230000 -0.96750000 0.01780000
vn -0.24940000 -0.96830000 0.01480000
vn -0.01780000 -0.99980000 0.00850000
vn 0.25320000 0.96740000 -0.00000000
vn 0.25290000 0.96750000 -0.00110000
vn 0.66280000 0.04800000 0.74730000
vn 0.66270000 0.04800000 0.74730000
vn 0.66310000 0.05030000 0.74680000
vn 0.43260000 0.90150000 0.00920000
vn 0.86480000 0.23320000 0.44470000
vn 0.84200000 -0.14230000 0.52030000
vn 0.70440000 0.27520000 0.65430000
vn 0.83810000 -0.16240000 0.52080000
vn 0.65920000 0.35980000 0.66030000
vn 0.70010000 0.25390000 0.66740000
vn -0.12450000 0.99220000 -0.00000000
vn 0.02940000 0.00200000 -0.99960000
vn 0.06410000 -0.04160000 -0.99710000
vn 0.89820000 0.06290000 -0.43500000
vn 0.95120000 0.05780000 -0.30320000
vn 0.99140000 0.10390000 -0.07970000
vn 0.25000000 0.96800000 -0.01920000
vn 0.23720000 0.97130000 -0.01540000
vn 0.24390000 0.96970000 -0.01350000
vn -0.59670000 0.80250000 0.00030000
vn -0.55920000 0.82900000 -0.00000000
vn 0.83640000 0.05810000 -0.54510000
vn -0.02050000 -0.99970000 0.01650000
vn 0.13820000 0.99040000 -0.00170000
vn 0.50070000 -0.86560000 0.00450000
vn 0.01850000 0.99980000 -0.00000000
vn 0.21350000 0.97690000 -0.00160000
vn 0.52610000 -0.85040000 -0.00360000
vn 0.57450000 -0.81840000 0.00860000
vn -0.99690000 -0.06980000 -0.03520000
vn -0.99420000 -0.07860000 -0.07390000
vn -0.09940000 0.11180000 0.98870000
vn -0.01770000 -0.99980000 0.01190000
vn -0.25360000 -0.96720000 0.01600000
vn 0.23560000 0.97180000 0.00900000
vn 0.24160000 0.97030000 0.01060000
vn -0.48650000 -0.87370000 -0.00100000
vn -0.65190000 -0.04580000 -0.75690000
vn -0.65180000 -0.04580000 -0.75700000
vn -0.66090000 -0.04700000 0.74900000
vn -0.17830000 0.98070000 -0.07970000
vn -0.03870000 -0.99920000 0.00700000
vn 0.68910000 0.04840000 -0.72310000
vn 0.76430000 0.05320000 -0.64260000
vn 0.69840000 0.04830000 -0.71410000
vn 0.68950000 0.04800000 -0.72270000
vn -0.71290000 -0.04810000 0.69970000
vn -0.71510000 -0.05000000 0.69720000
vn -0.71340000 -0.05310000 0.69870000
vn -0.00000000 -0.00000000 1.00000000
vn 0.84420000 0.05810000 -0.53280000
vn -0.69730000 0.04880000 0.71520000
vn -0.73730000 -0.01010000 0.67550000
vn 0.61310000 0.04230000 -0.78890000
vn -0.65980000 0.75120000 0.02090000
vn -0.61280000 -0.13270000 0.77900000
vn -0.74080000 -0.03370000 0.67090000
vn -0.00000000 -0.00000000 1.00000000
vn -0.85310000 0.14760000 0.50040000
vn -0.72700000 -0.32020000 0.60740000
vn -0.18710000 -0.98230000 -0.00070000
vn -0.18240000 -0.98320000 -0.00080000
vn -0.99720000 -0.06680000 -0.03330000
vn -0.98340000 -0.06990000 -0.16760000
vn -0.05740000 -0.99830000 -0.01240000
vn 0.77690000 0.05360000 -0.62740000
vn -0.30770000 0.95140000 -0.01290000
vn -0.03040000 -0.00210000 -0.99950000
vn 0.13860000 0.99030000 -0.00200000
vn -0.02090000 -0.99980000 0.00100000
vn -0.60070000 0.79920000 0.02070000
vn -0.83070000 0.28540000 0.47810000
vn 0.06470000 0.99790000 -0.00100000
vn 0.34920000 -0.93700000 0.00360000
vn 0.40230000 0.03160000 -0.91500000
vn 0.50180000 0.03450000 -0.86430000
vn -0.87140000 0.01180000 0.49040000
vn -0.09050000 -0.99580000 -0.01190000
vn -0.08530000 -0.99630000 -0.01000000
vn -0.24510000 -0.96940000 0.01280000
vn -0.63670000 0.77110000 0.00340000
vn -0.65540000 0.75520000 -0.00810000
vn -0.67450000 0.73800000 0.02220000
vn -0.71510000 -0.05000000 0.69720000
vn -0.71290000 -0.04990000 0.69950000
vn -0.71310000 -0.04940000 0.69930000
vn -0.95490000 -0.03980000 -0.29420000
vn -0.91850000 -0.06170000 -0.39050000
vn -0.87410000 -0.02420000 0.48520000
vn -0.97330000 -0.03860000 -0.22640000
vn 0.33450000 0.94190000 -0.02940000
vn 0.25320000 0.96740000 -0.00000000
vn 0.24760000 0.96880000 0.01270000
vn 0.17910000 0.98380000 -0.00080000
vn -0.12460000 -0.26460000 0.95630000
vn -0.86220000 -0.05870000 -0.50320000
vn 0.91840000 0.14950000 0.36620000
vn -0.32300000 -0.14870000 0.93470000
vn -0.02380000 -0.00930000 0.99970000
vn -0.05780000 0.16260000 0.98500000
vn -0.31210000 0.94970000 0.02580000
vn 0.22180000 -0.97510000 -0.00100000
vn 0.65190000 0.04580000 -0.75690000
vn 0.36630000 0.93050000 -0.00380000
vn 0.66310000 0.05030000 0.74680000
vn 0.52930000 -0.84840000 -0.00630000
vn 0.44830000 -0.89360000 0.02270000
vn 0.93730000 -0.10280000 0.33300000
vn -0.43820000 -0.02970000 -0.89840000
vn -0.30970000 -0.02430000 -0.95050000
vn 0.30600000 -0.95170000 -0.02400000
vn -0.99060000 -0.06520000 -0.12040000
vn 0.96510000 0.16090000 0.20670000
vn -0.23570000 -0.04150000 -0.97090000
vn -0.06630000 0.05660000 -0.99620000
vn 0.31210000 -0.94970000 0.02580000
vn 0.57040000 0.82140000 -0.00000000
vn 0.57040000 0.82140000 -0.00000000
vn -0.13620000 0.01730000 -0.99050000
vn -0.06390000 0.05310000 -0.99650000
vn 0.60050000 0.04150000 -0.79860000
vn -0.34880000 0.93600000 0.04770000
vn 0.21900000 -0.97570000 -0.00000000
vn 0.66090000 0.04700000 0.74900000
vn -0.99710000 -0.06770000 -0.03380000
vn -0.65190000 -0.04620000 -0.75690000
vn 0.35390000 0.93530000 -0.00690000
vn 0.04300000 0.00300000 -0.99910000
vn 0.64620000 -0.76270000 0.02740000
vn -0.01800000 -0.99970000 0.01550000
vn 0.30380000 0.02370000 -0.95250000
vn 0.20020000 0.97970000 -0.00560000
vn -0.47180000 0.88150000 0.01960000
vn 0.25300000 0.96750000 0.00140000
vn 0.25320000 0.96740000 -0.00000000
vn 0.25320000 0.96740000 -0.00000000
vn 0.16640000 0.98600000 -0.00450000
vn 0.57610000 -0.81740000 0.00130000
vn -0.36600000 -0.92950000 -0.04500000
vn 0.48170000 -0.87630000 -0.00270000
vn -0.52930000 0.84840000 -0.00630000
vn -0.67450000 0.73790000 0.02220000
vn -0.16940000 -0.98550000 0.00070000
vn 0.00010000 -0.00000000 -1.00000000
vn 0.69690000 -0.06310000 0.71440000
vn 0.25290000 0.96750000 0.00300000
vn -0.22370000 0.97450000 -0.01770000
vn -0.63900000 -0.04980000 -0.76760000
vn -0.52560000 -0.03950000 -0.84980000
vn -0.65190000 -0.04580000 -0.75690000
vn -0.65180000 -0.04580000 -0.75700000
vn -0.65190000 -0.04620000 -0.75690000
vn -0.12450000 0.99220000 -0.00000000
vn 0.20710000 0.97830000 -0.00720000
vn -0.12450000 0.99220000 -0.00000000
vn -0.85660000 -0.25740000 0.44710000
vn -0.91630000 0.31040000 0.25330000
vn -0.96240000 0.00760000 0.27160000
vn 0.23730000 0.04750000 -0.97030000
vn 0.30770000 -0.95140000 -0.01290000
vn 0.25000000 0.03980000 -0.96740000
vn 0.18220000 -0.05490000 -0.98170000
vn 0.28560000 -0.00070000 -0.95830000
vn -0.86090000 -0.05820000 -0.50540000
vn -0.78370000 -0.05170000 -0.61900000
vn 0.25450000 0.96700000 0.01320000
vn -0.82800000 -0.35750000 0.43190000
vn 0.25340000 0.96730000 0.01080000
vn -0.35500000 -0.02170000 -0.93460000
vn -0.51560000 -0.02970000 -0.85630000
vn -0.00000000 0.00990000 -1.00000000
vn -0.80160000 -0.05470000 -0.59540000
vn -0.71760000 -0.05440000 -0.69440000
vn 0.14020000 -0.01510000 -0.99000000
vn -0.30260000 -0.01180000 -0.95310000
vn -0.00010000 -0.00000000 1.00000000
vn -0.00000000 -0.00000000 1.00000000
vn -0.71290000 -0.04990000 0.69950000
vn -0.71510000 -0.05000000 0.69720000
vn -0.71290000 -0.04990000 0.69950000
vn -0.18660000 -0.98240000 -0.00020000
vn -0.71290000 -0.04990000 0.69950000
vn -0.00010000 -0.00000000 1.00000000
vn -0.40150000 -0.02980000 -0.91540000
vn -0.57040000 -0.82140000 -0.00000000
vn -0.57040000 -0.82140000 -0.00000000
vn 0.36600000 0.92950000 -0.04520000
vn -0.97720000 -0.06010000 -0.20390000
vn -0.94840000 -0.07690000 -0.30750000
vn 0.34250000 -0.93910000 0.02710000
vn -0.98380000 -0.07200000 -0.16450000
vn 0.20090000 0.97960000 0.00290000
vn 0.18230000 0.98310000 0.01330000
vn -0.94810000 -0.07850000 -0.30800000
vn 0.97720000 0.07310000 -0.19940000
vn -0.90870000 -0.06490000 -0.41240000
vn -0.78420000 -0.05820000 -0.61780000
vn 0.22830000 0.96910000 0.09360000
vn 0.64160000 0.04260000 -0.76580000
vn 0.06710000 -0.04690000 -0.99660000
vn -0.10520000 -0.99440000 -0.00160000
vn 0.22460000 0.97230000 0.06440000
vn 0.71870000 0.04780000 -0.69370000
vn 0.80440000 0.05490000 -0.59150000
vn -0.49120000 -0.02010000 -0.87080000
vn -0.51590000 -0.02710000 -0.85620000
vn -0.77290000 -0.05680000 -0.63190000
vn 0.98170000 0.07770000 -0.17380000
vn 0.99340000 0.08940000 -0.07220000
vn 0.99690000 0.07020000 -0.03530000
vn -0.61400000 -0.03890000 -0.78840000
vn 0.65600000 -0.75450000 0.01880000
vn -0.88830000 -0.38920000 0.24380000
vn -0.96670000 0.24440000 0.07630000
vn -0.84910000 -0.07130000 -0.52350000
vn -0.69420000 -0.04040000 -0.71860000
vn -0.93260000 -0.26260000 0.24780000
vn -0.96870000 0.23680000 0.07500000
vn -0.89880000 -0.06000000 -0.43420000
f 293//293 292//292 11//11
f 6//6 230//230 459//459
f 11//11 459//459 293//293
f 293//293 459//459 230//230
f 293//293 230//230 233//233
f 467//467 232//232 9//9
f 9//9 232//232 233//233
f 9//9 233//233 229//229
f 229//229 233//233 230//230
f 312//312 311//311 2//2
f 408//408 4//4 1//1
f 467//467 9//9 8//8
f 8//8 9//9 7//7
f 8//8 7//7 3//3
f 3//3 7//7 397//397
f 3//3 397//397 407//407
f 407//407 397//397 5//5
f 407//407 5//5 313//313
f 459//459 347//347 6//6
f 6//6 347//347 346//346
f 6//6 346//346 4//4
f 4//4 346//346 381//381
f 4//4 381//381 1//1
f 1//1 381//381 409//409
f 1//1 409//409 468//468
f 223//223 271//271 242//242
f 241//241 273//273 310//310
f 241//241 310//310 455//455
f 433//433 198//198 189//189
f 189//189 198//198 200//200
f 466//466 189//189 351//351
f 351//351 189//189 200//200
f 351//351 200//200 205//205
f 205//205 200//200 314//314
f 205//205 314//314 224//224
f 224//224 314//314 538//538
f 224//224 538//538 272//272
f 272//272 538//538 207//207
f 272//272 207//207 270//270
f 351//351 204//204 466//466
f 466//466 204//204 354//354
f 466//466 354//354 199//199
f 455//455 310//310 206//206
f 206//206 310//310 309//309
f 206//206 309//309 355//355
f 355//355 309//309 464//464
f 355//355 464//464 354//354
f 354//354 464//464 432//432
f 354//354 432//432 199//199
f 136//136 217//217 216//216
f 442//442 400//400 308//308
f 442//442 308//308 282//282
f 282//282 308//308 220//220
f 282//282 220//220 161//161
f 243//243 257//257 165//165
f 165//165 257//257 486//486
f 165//165 486//486 437//437
f 437//437 486//486 516//516
f 130//130 208//208 209//209
f 220//220 257//257 161//161
f 161//161 257//257 243//243
f 161//161 243//243 449//449
f 449//449 243//243 428//428
f 449//449 428//428 209//209
f 209//209 428//428 136//136
f 209//209 136//136 130//130
f 130//130 136//136 216//216
f 297//297 68//68 45//45
f 45//45 68//68 66//66
f 45//45 66//66 264//264
f 264//264 66//66 59//59
f 54//54 323//323 55//55
f 55//55 323//323 406//406
f 55//55 406//406 57//57
f 57//57 406//406 269//269
f 57//57 269//269 59//59
f 59//59 269//269 263//263
f 59//59 263//263 264//264
f 53//53 360//360 54//54
f 54//54 360//360 322//322
f 54//54 322//322 323//323
f 50//50 35//35 51//51
f 51//51 35//35 36//36
f 51//51 36//36 53//53
f 53//53 36//36 37//37
f 53//53 37//37 360//360
f 286//286 285//285 48//48
f 48//48 285//285 27//27
f 47//47 28//28 49//49
f 49//49 28//28 29//29
f 49//49 29//29 50//50
f 50//50 29//29 30//30
f 50//50 30//30 35//35
f 267//267 279//279 277//277
f 277//277 96//96 267//267
f 266//266 95//95 93//93
f 268//268 92//92 265//265
f 265//265 92//92 91//91
f 265//265 91//91 324//324
f 324//324 91//91 396//396
f 89//89 228//228 396//396
f 396//396 228//228 359//359
f 396//396 359//359 324//324
f 88//88 456//456 89//89
f 89//89 456//456 227//227
f 89//89 227//227 228//228
f 301//301 302//302 88//88
f 88//88 302//302 349//349
f 88//88 349//349 456//456
f 88//88 87//87 301//301
f 301//301 87//87 391//391
f 301//301 391//391 215//215
f 215//215 391//391 85//85
f 215//215 85//85 368//368
f 368//368 85//85 249//249
f 249//249 85//85 405//405
f 249//249 405//405 248//248
f 405//405 404//404 248//248
f 248//248 404//404 80//80
f 248//248 80//80 82//82
f 80//80 79//79 82//82
f 82//82 79//79 527//527
f 82//82 527//527 75//75
f 75//75 527//527 76//76
f 75//75 76//76 71//71
f 71//71 76//76 469//469
f 71//71 469//469 507//507
f 507//507 469//469 388//388
f 507//507 388//388 297//297
f 297//297 388//388 387//387
f 297//297 387//387 68//68
f 258//258 295//295 511//511
f 12//12 225//225 294//294
f 294//294 225//225 226//226
f 294//294 226//226 16//16
f 16//16 226//226 251//251
f 16//16 251//251 298//298
f 512//512 278//278 254//254
f 465//465 20//20 15//15
f 15//15 20//20 17//17
f 15//15 17//17 252//252
f 252//252 17//17 225//225
f 252//252 225//225 13//13
f 13//13 225//225 12//12
f 13//13 12//12 10//10
f 10//10 12//12 363//363
f 10//10 363//363 254//254
f 254//254 363//363 258//258
f 254//254 258//258 512//512
f 512//512 258//258 511//511
f 74//74 337//337 479//479
f 427//427 304//304 305//305
f 427//427 305//305 40//40
f 40//40 305//305 23//23
f 40//40 23//23 42//42
f 41//41 284//284 38//38
f 38//38 284//284 393//393
f 38//38 393//393 22//22
f 22//22 393//393 19//19
f 22//22 19//19 448//448
f 481//481 306//306 73//73
f 23//23 284//284 42//42
f 42//42 284//284 41//41
f 42//42 41//41 65//65
f 65//65 41//41 62//62
f 65//65 62//62 73//73
f 73//73 62//62 74//74
f 73//73 74//74 481//481
f 481//481 74//74 479//479
f 144//144 420//420 139//139
f 139//139 140//140 144//144
f 144//144 140//140 143//143
f 144//144 143//143 156//156
f 156//156 143//143 458//458
f 156//156 458//458 157//157
f 157//157 458//458 480//480
f 157//157 480//480 361//361
f 361//361 480//480 147//147
f 361//361 147//147 362//362
f 362//362 147//147 149//149
f 362//362 149//149 419//419
f 419//419 149//149 151//151
f 419//419 151//151 169//169
f 344//344 345//345 492//492
f 492//492 173//173 344//344
f 344//344 173//173 171//171
f 344//344 171//171 151//151
f 151//151 171//171 170//170
f 151//151 170//170 169//169
f 418//418 462//462 325//325
f 325//325 462//462 461//461
f 326//326 460//460 316//316
f 316//316 460//460 472//472
f 316//316 472//472 315//315
f 315//315 472//472 176//176
f 315//315 176//176 345//345
f 345//345 176//176 494//494
f 345//345 494//494 492//492
f 236//236 231//231 352//352
f 119//119 102//102 118//118
f 118//118 102//102 101//101
f 118//118 101//101 117//117
f 117//117 101//101 98//98
f 117//117 98//98 115//115
f 115//115 98//98 238//238
f 116//116 237//237 113//113
f 112//112 236//236 352//352
f 120//120 105//105 119//119
f 119//119 105//105 104//104
f 119//119 104//104 102//102
f 123//123 219//219 122//122
f 122//122 219//219 218//218
f 122//122 218//218 121//121
f 218//218 283//283 121//121
f 121//121 283//283 108//108
f 121//121 108//108 120//120
f 120//120 108//108 107//107
f 120//120 107//107 105//105
f 129//129 128//128 127//127
f 127//127 128//128 399//399
f 127//127 399//399 125//125
f 125//125 399//399 111//111
f 125//125 111//111 123//123
f 123//123 111//111 110//110
f 123//123 110//110 219//219
f 129//129 131//131 128//128
f 128//128 131//131 133//133
f 128//128 133//133 350//350
f 350//350 133//133 395//395
f 350//350 395//395 420//420
f 420//420 395//395 463//463
f 420//420 463//463 139//139
f 221//221 222//222 444//444
f 443//443 212//212 213//213
f 444//444 443//443 221//221
f 221//221 443//443 213//213
f 221//221 213//213 201//201
f 201//201 213//213 203//203
f 201//201 203//203 197//197
f 513//513 253//253 190//190
f 190//190 253//253 250//250
f 190//190 250//250 195//195
f 195//195 250//250 193//193
f 195//195 193//193 196//196
f 203//203 196//196 197//197
f 197//197 196//196 193//193
f 197//197 193//193 194//194
f 194//194 193//193 330//330
f 194//194 330//330 191//191
f 191//191 330//330 184//184
f 191//191 184//184 430//430
f 180//180 167//167 245//245
f 167//167 429//429 163//163
f 166//166 162//162 244//244
f 450//450 280//280 281//281
f 281//281 280//280 164//164
f 425//425 300//300 77//77
f 77//77 300//300 299//299
f 77//77 299//299 318//318
f 318//318 299//299 70//70
f 296//296 46//46 63//63
f 63//63 46//46 318//318
f 63//63 318//318 70//70
f 436//436 69//69 435//435
f 435//435 69//69 67//67
f 435//435 67//67 475//475
f 475//475 67//67 60//60
f 475//475 60//60 474//474
f 474//474 60//60 58//58
f 474//474 58//58 499//499
f 499//499 58//58 56//56
f 499//499 56//56 498//498
f 498//498 56//56 491//491
f 498//498 491//491 422//422
f 422//422 491//491 490//490
f 422//422 490//490 414//414
f 414//414 490//490 52//52
f 414//414 52//52 413//413
f 52//52 416//416 413//413
f 413//413 416//416 438//438
f 413//413 438//438 390//390
f 390//390 438//438 451//451
f 390//390 451//451 389//389
f 78//78 454//454 470//470
f 536//536 94//94 535//535
f 90//90 521//521 341//341
f 535//535 94//94 521//521
f 521//521 94//94 534//534
f 521//521 534//534 341//341
f 341//341 340//340 90//90
f 90//90 340//340 348//348
f 90//90 348//348 377//377
f 377//377 348//348 392//392
f 377//377 392//392 370//370
f 370//370 392//392 372//372
f 370//370 372//372 369//369
f 369//369 372//372 371//371
f 369//369 371//371 86//86
f 86//86 371//371 447//447
f 447//447 371//371 380//380
f 447//447 380//380 84//84
f 84//84 380//380 402//402
f 84//84 402//402 83//83
f 83//83 402//402 401//401
f 83//83 401//401 489//489
f 81//81 454//454 78//78
f 401//401 485//485 489//489
f 489//489 485//485 81//81
f 489//489 81//81 488//488
f 488//488 81//81 78//78
f 14//14 235//235 234//234
f 14//14 234//234 18//18
f 478//478 452//452 259//259
f 260//260 364//364 476//476
f 477//477 365//365 289//289
f 476//476 290//290 34//34
f 33//33 288//288 287//287
f 320//320 366//366 256//256
f 256//256 366//366 39//39
f 256//256 39//39 255//255
f 307//307 321//321 319//319
f 319//319 321//321 64//64
f 261//261 61//61 262//262
f 246//246 134//134 141//141
f 246//246 142//142 247//247
f 247//247 142//142 421//421
f 247//247 421//421 291//291
f 291//291 421//421 426//426
f 291//291 426//426 358//358
f 358//358 426//426 424//424
f 358//358 424//424 158//158
f 158//158 424//424 159//159
f 158//158 159//159 210//210
f 210//210 159//159 160//160
f 210//210 160//160 211//211
f 211//211 160//160 168//168
f 211//211 168//168 378//378
f 378//378 168//168 382//382
f 378//378 382//382 379//379
f 379//379 382//382 383//383
f 379//379 383//383 172//172
f 172//172 383//383 386//386
f 398//398 385//385 403//403
f 403//403 385//385 415//415
f 403//403 415//415 482//482
f 482//482 415//415 493//493
f 483//483 174//174 484//484
f 484//484 174//174 175//175
f 484//484 175//175 543//543
f 175//175 539//539 543//543
f 544//544 540//540 177//177
f 544//544 177//177 178//178
f 178//178 177//177 179//179
f 342//342 153//153 317//317
f 317//317 153//153 154//154
f 317//317 154//154 155//155
f 150//150 530//530 148//148
f 530//530 529//529 148//148
f 148//148 529//529 525//525
f 148//148 525//525 146//146
f 146//146 525//525 145//145
f 457//457 487//487 500//500
f 500//500 487//487 526//526
f 500//500 526//526 339//339
f 339//339 526//526 138//138
f 339//339 138//138 338//338
f 394//394 132//132 135//135
f 135//135 137//137 138//138
f 138//138 137//137 338//338
f 126//126 440//440 445//445
f 445//445 440//440 441//441
f 445//445 441//441 446//446
f 446//446 441//441 132//132
f 446//446 132//132 394//394
f 445//445 501//501 126//126
f 126//126 501//501 510//510
f 126//126 510//510 124//124
f 124//124 510//510 496//496
f 124//124 496//496 532//532
f 531//531 497//497 495//495
f 531//531 495//495 537//537
f 537//537 495//495 533//533
f 537//537 533//533 542//542
f 542//542 533//533 523//523
f 523//523 533//533 541//541
f 523//523 541//541 522//522
f 522//522 541//541 545//545
f 522//522 545//545 520//520
f 520//520 545//545 515//515
f 520//520 515//515 517//517
f 517//517 515//515 514//514
f 517//517 514//514 114//114
f 514//514 357//357 114//114
f 114//114 357//357 356//356
f 97//97 239//239 99//99
f 99//99 239//239 439//439
f 99//99 439//439 100//100
f 100//100 439//439 434//434
f 100//100 434//434 423//423
f 423//423 434//434 331//331
f 423//423 331//331 103//103
f 103//103 331//331 332//332
f 103//103 332//332 334//334
f 335//335 333//333 106//106
f 106//106 333//333 336//336
f 106//106 336//336 109//109
f 109//109 336//336 471//471
f 188//188 181//181 503//503
f 187//187 502//502 509//509
f 375//375 202//202 373//373
f 373//373 202//202 412//412
f 374//374 410//410 505//505
f 506//506 411//411 508//508
f 506//506 508//508 504//504
f 384//384 376//376 240//240
f 240//240 376//376 214//214
f 185//185 327//327 192//192
f 186//186 183//183 327//327
f 328//328 182//182 274//274
f 329//329 275//275 431//431
f 44//44 303//303 26//26
f 43//43 24//24 31//31
f 32//32 25//25 21//21
f 367//367 72//72 473//473
f 353//353 343//343 152//152
f 152//152 343//343 528//528
f 152//152 528//528 524//524
f 524//524 519//519 152//152
f 152//152 519//519 518//518
f 417//417 276//276 453//453

