mtllib material.mtl
usemtl SWMaterial-3_001
v -0.02609400 -0.09295100 0.53752500
v -0.01846900 -0.09574300 0.53525000
v -0.00937700 -0.09818000 0.53525000
v -0.01607400 -0.09709900 0.53749000
v -0.00697700 -0.09907600 0.53750300
v -0.00463000 0.00938200 0.53745400
v 0.00000000 0.00900000 0.53525000
v -0.00937700 0.00818000 0.53525000
v -0.01397600 0.00716000 0.53525000
v -0.01823900 0.00646900 0.53748700
v -0.02282100 0.00394100 0.53525000
v -0.02700000 0.00176500 0.53525000
v -0.03025800 0.00043400 0.53748900
v -0.03471000 -0.00363400 0.53525000
v -0.03789800 -0.00574400 0.53745700
v -0.04136600 -0.01028900 0.53525000
v -0.04423400 -0.01402700 0.53525000
v -0.04406300 -0.01281400 0.53745900
v -0.04894000 -0.02217900 0.53525000
v -0.05074300 -0.02653100 0.53525000
v -0.05216000 -0.03102400 0.53525000
v -0.05031500 -0.02348700 0.53753900
v -0.05434800 -0.03951200 0.53747800
v -0.05400000 -0.04500000 0.53525000
v -0.05379400 -0.04970600 0.53525000
v -0.05422300 -0.05020400 0.53746600
v -0.05318000 -0.05437700 0.53525000
v -0.05074300 -0.06346900 0.53525000
v -0.05182100 -0.06259900 0.53749100
v -0.04676500 -0.07200000 0.53525000
v -0.04423400 -0.07597300 0.53525000
v -0.04136600 -0.07971100 0.53525000
v -0.04471600 -0.07625500 0.53746000
v -0.03471000 -0.08636600 0.53525000
v -0.03651400 -0.08562900 0.53748200
v -0.02282100 -0.09394100 0.53525000
v 0.00034300 -0.10208000 0.54039600
v 0.01200300 -0.10109100 0.54099600
v 0.02134500 -0.09829800 0.54111100
v 0.03002900 -0.09387800 0.54102500
v 0.05632500 -0.03532800 0.54033400
v 0.04703500 -0.01280200 0.54040600
v 0.03385100 0.00089000 0.54043100
v 0.02311900 0.00718300 0.54037700
v -0.05410000 -0.05867100 0.09848800
v -0.05577800 -0.04534000 0.09846700
v -0.05435600 -0.04964500 0.10055700
v -0.05605700 -0.06424500 0.09674900
v -0.04986300 -0.06985800 0.09849300
v -0.04823700 -0.07025500 0.10055100
v -0.04823700 -0.07025500 0.10055100
v -0.04823700 -0.07025500 0.10055100
v -0.04823700 -0.07025500 0.10055100
v -0.04823700 -0.07025500 0.10055100
v -0.03579900 -0.09228200 0.09677900
v -0.04305400 -0.08065000 0.09843500
v -0.01093700 0.01310900 0.09674900
v -0.02525500 -0.09323700 0.10055200
v -0.01364000 0.00911200 0.09848200
v -0.02152600 -0.10016700 0.09674900
v -0.02380800 0.00927700 0.09674900
v -0.01440300 0.00759200 0.10055400
v -0.01440300 0.00759200 0.10055400
v -0.02495600 0.00482200 0.09848400
v -0.00623900 -0.10317200 0.09687900
v -0.03441000 0.00319400 0.09674900
v -0.00474100 -0.09919300 0.10055000
v -0.00474100 -0.09919300 0.10055000
v -0.04466300 -0.00921400 0.09742500
v -0.03556200 -0.00233300 0.09884000
v -0.04028500 -0.00811600 0.10019700
v -0.04636400 -0.01600900 0.10003400
v -0.05073800 -0.01907000 0.09748400
v -0.05876300 -0.03767600 0.09674900
v -0.05675600 -0.02810300 0.09674900
v -0.05429100 -0.03215300 0.09847700
v 0.01220800 -0.10164600 0.54740000
v 0.03038200 -0.09434400 0.54740000
v 0.03764700 -0.08832000 0.54108800
v 0.04353900 -0.08331900 0.54740000
v 0.03828400 -0.08850000 0.54740000
v 0.04801000 -0.07744900 0.54740000
v 0.05277800 -0.06870100 0.54426500
v 0.04936400 -0.07417400 0.54095700
v 0.05670800 -0.05703200 0.54459800
v 0.05794700 -0.04500000 0.54740000
v 0.05704700 -0.03536300 0.54426600
v 0.04946100 -0.01476400 0.54459900
v 0.05456700 -0.02573400 0.54440200
v 0.04801000 -0.01255100 0.54740000
v 0.03454000 0.00144500 0.54455200
v 0.02630500 0.00654300 0.54440300
v 0.01811000 0.00994800 0.54740000
v 0.01721900 0.01024700 0.54440800
v 0.00734800 0.01241100 0.54440000
v -0.00130900 0.01233300 0.54083000
v 0.06749500 -0.03324800 0.09559700
v 0.06264200 -0.01691800 0.09559700
v 0.03943100 -0.09522800 0.09617300
v 0.05125000 -0.09067400 0.09559700
v 0.01688700 0.02139600 0.09559700
v 0.06839700 -0.04893600 0.09559700
v 0.05384100 0.00670000 0.08985700
v 0.05803700 -0.00065300 0.09281100
v 0.04526200 0.01426800 0.09007400
v 0.03702300 0.01647300 0.09414100
v 0.04648600 0.00968000 0.09412200
v 0.03904400 0.01897700 0.08680000
v 0.02856900 0.01837100 0.09537000
v 0.02776700 0.02171400 0.09359700
v 0.03786100 0.01935800 0.08990500
v 0.02934400 0.02361300 0.08990300
v 0.07334800 -0.05999000 0.08912200
v 0.07415100 -0.05591300 0.08680000
v 0.07308300 -0.02938900 0.08966800
v 0.02008500 -0.11686700 0.08994600
v 0.00785500 0.02666400 0.09376100
v 0.03058100 -0.11128200 0.09283600
v 0.02986900 -0.10948700 0.09454800
v 0.02679200 -0.11505100 0.08680000
v 0.00000000 -0.12000000 0.08680000
v 0.03003200 -0.11331400 0.08985500
v 0.00994900 -0.11888400 0.09014100
v 0.01225200 -0.11885300 0.08680000
v 0.04211500 -0.10694500 0.08897700
v 0.03971300 -0.10717500 0.09163400
v 0.03904400 -0.10897700 0.08680000
v 0.06925900 -0.05965700 0.09469700
v 0.04480100 -0.10005500 0.09471300
v 0.04794300 -0.10261000 0.08680000
v 0.04782200 -0.10090900 0.09199800
v 0.05574900 -0.09504500 0.08910300
v 0.02030400 0.02661800 0.09089100
v 0.05522900 -0.08907100 0.09476800
v 0.05699100 -0.09172700 0.09188200
v 0.00819700 0.02950100 0.08680000
v 0.06250800 -0.08635500 0.08680000
v 0.01586600 -0.11427000 0.09467000
v 0.06383200 -0.08166100 0.09191900
v 0.06750200 -0.07090900 0.09355700
v 0.06152900 -0.08028500 0.09462100
v 0.06474700 -0.08248800 0.08900900
v 0.07067700 -0.04588700 0.09487200
v 0.06920700 -0.07307800 0.08957500
v 0.07098300 -0.06921600 0.08680000
v 0.07056800 -0.06605400 0.09188200
v 0.00795000 0.02925300 0.09007200
v 0.01610000 0.02313900 0.09518100
v 0.07251000 -0.05411900 0.09276100
v 0.07469100 -0.04614900 0.08984200
v 0.06919500 -0.03183500 0.09494300
v 0.07314400 -0.03669600 0.09209000
v 0.06929600 -0.01735500 0.08992500
v 0.06797600 -0.02190900 0.09410800
v 0.06372100 -0.01194500 0.09412700
v 0.06227600 -0.00376800 0.09014000
v 0.06786300 -0.01318700 0.08680000
v 0.05521400 -0.00061600 0.09466900
v -0.05216000 -0.05897600 0.53525000
v -0.05074300 -0.06346900 0.10055000
v -0.05074300 -0.06346900 0.10055000
v -0.05074300 -0.06346900 0.10055000
v -0.04894000 -0.06782100 0.10055000
v -0.04894000 -0.06782100 0.10055000
v -0.04423400 -0.07597300 0.10055000
v -0.04423400 -0.07597300 0.10055000
v -0.04423400 -0.07597300 0.10055000
v -0.04894000 -0.06782100 0.53525000
v -0.00470600 0.00879500 0.53525000
v -0.04136600 -0.07971100 0.10055000
v -0.04136600 -0.07971100 0.10055000
v -0.01846900 0.00574300 0.53525000
v -0.03818400 -0.08318400 0.53525000
v -0.03097300 -0.08923400 0.10055000
v -0.02700000 0.00176500 0.10055000
v -0.02700000 0.00176500 0.10055000
v -0.03097300 -0.00076600 0.53525000
v -0.03471000 -0.00363400 0.10055000
v -0.03097300 -0.08923400 0.53525000
v -0.02700000 -0.09176500 0.10055000
v -0.01846900 -0.09574300 0.10055000
v -0.02700000 -0.09176500 0.53525000
v -0.01397600 -0.09716000 0.10055000
v -0.03818400 -0.00681600 0.53525000
v -0.04676500 -0.01800000 0.10055000
v -0.01397600 -0.09716000 0.53525000
v -0.00937700 -0.09818000 0.10055000
v -0.00470600 -0.09879500 0.10055000
v -0.00470600 -0.09879500 0.10055000
v -0.00470600 -0.09879500 0.10055000
v -0.00470600 -0.09879500 0.53525000
v -0.04676500 -0.01800000 0.53525000
v -0.04894000 -0.02217900 0.10055000
v -0.05216000 -0.03102400 0.10055000
v -0.05216000 -0.03102400 0.10055000
v -0.05216000 -0.03102400 0.10055000
v -0.05318000 -0.03562300 0.53525000
v -0.05379400 -0.04029400 0.53525000
v -0.05216000 -0.05897600 0.10055000
v -0.05216000 -0.05897600 0.10055000
v -0.04189900 -0.09989500 0.09548200
v -0.04187400 -0.00312600 0.09674900
v -0.05816600 -0.08272800 0.09551800
v -0.02438700 0.01902300 0.09559700
v -0.05016000 -0.07631000 0.09674900
v -0.05798900 -0.05412800 0.09685200
v -0.06849800 -0.04368900 0.09559700
v -0.05016000 -0.01369000 0.09674900
v -0.04976400 0.00288000 0.09548300
v -0.00327500 0.02450500 0.09552000
v -0.07098300 -0.02078400 0.08680000
v -0.07415100 -0.05591300 0.08680000
v -0.07098300 -0.06921600 0.08680000
v 0.05582100 -0.09501600 0.08680000
v 0.06786300 -0.07681300 0.08680000
v 0.07495000 -0.04500000 0.08680000
v 0.07415100 -0.03408700 0.08680000
v 0.07098300 -0.02078400 0.08680000
v 0.06250800 -0.00364500 0.08680000
v 0.05582100 0.00501600 0.08680000
v 0.04794300 0.01261000 0.08680000
v 0.02931300 0.02398000 0.08680000
v 0.02160700 0.02682000 0.08680000
v -0.00819700 0.02950100 0.08680000
v -0.05582100 -0.09501600 0.08680000
v -0.04743600 -0.10273200 0.09000500
v -0.04794300 -0.10261000 0.08680000
v -0.03772900 -0.10656300 0.09365500
v -0.03277100 -0.10526500 0.09559700
v -0.03904400 -0.10897700 0.08680000
v -0.02679200 -0.11505100 0.08680000
v -0.03198700 -0.11249000 0.09000600
v -0.00660400 0.02747000 0.09311100
v -0.02160700 0.02682000 0.08680000
v -0.07319400 -0.03084300 0.09015600
v -0.07064500 -0.04611400 0.09488500
v -0.07451300 -0.04199300 0.09006600
v -0.07226400 -0.06252700 0.09090100
v 0.00492400 -0.11678100 0.09398400
v -0.00063300 -0.11953500 0.09017900
v -0.00811600 0.02943200 0.08933500
v -0.03336400 0.01897200 0.09369300
v -0.03020600 0.02322200 0.08992000
v -0.02931300 0.02398000 0.08680000
v -0.03904400 0.01897700 0.08680000
v -0.03987800 0.01808300 0.08984800
v -0.04286700 0.01261700 0.09407300
v -0.05422500 0.00388500 0.09298500
v -0.07400500 -0.05217800 0.09084600
v -0.04794300 0.01261000 0.08680000
v -0.05582100 0.00501600 0.08680000
v -0.04928400 0.01108900 0.08983300
v -0.01225200 -0.11885300 0.08680000
v -0.01694100 -0.11794200 0.08942600
v -0.06041000 -0.00095900 0.08965200
v -0.06391700 -0.01146300 0.09379700
v -0.00757100 -0.11798600 0.09235100
v -0.06250800 -0.00364500 0.08680000
v -0.01983700 0.02666400 0.09094400
v -0.06825700 -0.03131400 0.09536100
v -0.06935500 -0.02471700 0.09358000
v -0.07195000 -0.03623500 0.09355000
v -0.06786300 -0.01318700 0.08680000
v -0.06804800 -0.01438400 0.09009700
v -0.07167900 -0.02339800 0.08885100
v -0.02463300 -0.11292300 0.09370700
v -0.07415100 -0.03408700 0.08680000
v -0.01465600 0.02358500 0.09510100
v -0.07495000 -0.04500000 0.08680000
v -0.06902400 -0.05814000 0.09501200
v -0.07025600 -0.07000100 0.08983600
v -0.06475200 -0.07673400 0.09375800
v -0.06786300 -0.07681300 0.08680000
v -0.06102500 -0.08620400 0.09191100
v -0.06633700 -0.07942400 0.08977200
v -0.06250800 -0.08635500 0.08680000
v -0.05729900 -0.08753500 0.09426800
v -0.05789900 -0.09214200 0.08973000
v -0.05067600 -0.09193300 0.09548300
v -0.04954100 -0.09778300 0.09359200
v -0.06749500 -0.05675200 0.09559700
v -0.06744600 -0.06916400 0.09420900
v -0.06264200 -0.07308200 0.09559700
v -0.02584200 0.02185400 0.09415300
v -0.03833300 0.01178200 0.09559700
v -0.03335000 0.01599600 0.09536800
v -0.05816600 -0.00727200 0.09551800
v -0.06679400 -0.02937000 0.09559700
v -0.06264200 -0.01691800 0.09559700
v -0.02358900 -0.10988300 0.09549000
v -0.01110900 -0.11361500 0.09548500
v 0.05628600 -0.03161200 0.54740000
v 0.05280300 -0.02113100 0.54740000
v 0.05711400 -0.05479300 0.54740000
v 0.05280300 -0.06886900 0.54740000
v 0.02160600 -0.09876800 0.54740000
v 0.00245900 -0.10289600 0.54740000
v -0.03828400 -0.08850000 0.54740000
v -0.04353900 -0.08331900 0.54740000
v -0.05280300 -0.06886900 0.54740000
v 0.00000000 0.01300000 0.54740000
v 0.00736000 0.01247800 0.54740000
v 0.03038200 0.00434400 0.54740000
v 0.03913600 -0.00238900 0.54740000
v 0.05605700 -0.02575500 0.09674900
v 0.03157100 0.01580200 0.09559700
v 0.04158600 0.00955600 0.09559700
v 0.05125000 0.00067400 0.09559700
v 0.02262600 -0.09962900 0.09674900
v 0.06264200 -0.07308200 0.09559700
v 0.03277100 -0.10526500 0.09559700
v 0.00456300 -0.11400100 0.09557700
v 0.00629600 0.01349000 0.09683800
v -0.00491900 -0.10279100 0.54740000
v -0.00736000 0.01247800 0.54740000
v -0.01696800 0.01040700 0.54740000
v -0.03038200 0.00434400 0.54740000
v -0.02355500 0.00794900 0.54438800
v -0.03828400 -0.00150000 0.54740000
v -0.03613500 0.00030600 0.54438700
v -0.04508500 -0.00859600 0.54740000
v -0.04483700 -0.00841700 0.54440400
v -0.04938800 -0.01459000 0.54740000
v -0.05280300 -0.02113100 0.54740000
v -0.05607700 -0.03039800 0.54740000
v -0.05794700 -0.04746200 0.54740000
v -0.05773800 -0.04008500 0.54740000
v -0.05788400 -0.04219600 0.54438700
v -0.05711400 -0.05479300 0.54740000
v -0.05708300 -0.05449400 0.54440500
v -0.05545700 -0.06198400 0.54740000
v -0.04952700 -0.07509000 0.54438600
v -0.05465800 -0.06400300 0.54440300
v -0.04801000 -0.07744900 0.54740000
v -0.03634100 -0.08935400 0.54108200
v -0.03038200 -0.09434400 0.54740000
v -0.01220800 -0.10164600 0.54740000
v -0.02160600 -0.09876800 0.54740000
v -0.01344700 -0.10069800 0.54083300
v -0.00763200 -0.10236100 0.54439700
v 0.00233200 -0.10284400 0.54453900
v 0.05795800 -0.03284800 0.09674900
v 0.05568000 -0.04153500 0.09847500
v 0.05341200 -0.03334200 0.10006300
v 0.05054000 -0.01661500 0.09715800
v 0.05333800 -0.02888500 0.09848700
v 0.05032100 -0.02197900 0.09897100
v 0.05087200 -0.01468700 0.09674900
v 0.03827300 0.00018800 0.09674900
v 0.02537100 0.00822500 0.09681400
v -0.00009200 -0.10129200 0.09791900
v 0.03297800 -0.00009000 0.09848800
v 0.01093700 -0.10310900 0.09674900
v 0.00944600 -0.09857400 0.10055000
v 0.00944600 -0.09857400 0.10055000
v 0.00944600 -0.09857400 0.10055000
v 0.01617600 0.00833400 0.09847000
v 0.01340200 -0.09912700 0.09851900
v 0.02111400 -0.09800100 0.09745300
v 0.00737800 0.00934100 0.09973500
v 0.02477600 -0.09377000 0.09998900
v 0.00688300 0.01161900 0.09746000
v 0.03282700 -0.08878500 0.09996200
v 0.03327000 -0.09155600 0.09746000
v 0.04133400 -0.08242100 0.09847900
v 0.05016000 -0.07631000 0.09674900
v 0.05605700 -0.06424500 0.09674900
v 0.04753400 -0.07407500 0.09848600
v 0.05276000 -0.06317800 0.09848400
v 0.05819100 -0.05147800 0.09685600
v -0.01170600 0.01118000 0.54104600
v -0.02143100 0.00780800 0.54037700
v -0.03005900 0.00342300 0.54038700
v -0.03782400 -0.00236300 0.54039500
v -0.04694600 -0.01211100 0.54076400
v -0.05216300 -0.02105400 0.54110900
v -0.05546400 -0.03022400 0.54111500
v -0.05704700 -0.04291100 0.54041000
v -0.05572900 -0.05737200 0.54040900
v -0.05180400 -0.06878000 0.54041100
v -0.04703500 -0.07719800 0.54040600
v -0.04162300 -0.08451700 0.54109200
v -0.03030600 -0.09373600 0.54107300
v -0.02162500 -0.09815800 0.54105900
v 0.04013100 -0.08180000 0.10055100
v 0.04013100 -0.08180000 0.10055100
v 0.04013100 -0.08180000 0.10055100
v 0.04136600 -0.07971100 0.10055000
v 0.04587300 -0.07433200 0.10055100
v 0.04676500 -0.07200000 0.10055000
v 0.02282100 -0.09394100 0.10055000
v 0.05024100 -0.06598600 0.10055100
v 0.05024100 -0.06598600 0.10055100
v 0.05024100 -0.06598600 0.10055100
v 0.05024100 -0.06598600 0.10055100
v 0.05074300 -0.06346900 0.10055000
v 0.01657100 -0.09686500 0.10055100
v 0.01657100 -0.09686500 0.10055100
v 0.01657100 -0.09686500 0.10055100
v 0.05318000 -0.05437700 0.10055000
v 0.05310200 -0.05702600 0.10055100
v 0.05310200 -0.05702600 0.10055100
v 0.01397600 -0.09716000 0.10055000
v 0.05502300 -0.05172100 0.09877600
v 0.05379400 -0.04029400 0.10055000
v 0.00233500 -0.09941200 0.10055200
v 0.00233500 -0.09941200 0.10055200
v 0.00233500 -0.09941200 0.10055200
v 0.00000000 -0.09900000 0.10055000
v 0.00000000 -0.09900000 0.10055000
v 0.05441200 -0.04266200 0.10055200
v 0.05441200 -0.04266200 0.10055200
v 0.05441200 -0.04266200 0.10055200
v 0.05318000 -0.03562300 0.10055000
v -0.01164500 -0.09911900 0.09890700
v 0.05074300 -0.02653100 0.10055000
v 0.05216000 -0.03102400 0.10055000
v -0.02032900 -0.09651400 0.09886200
v 0.04894000 -0.02217900 0.10055000
v -0.02282100 -0.09394100 0.10055000
v 0.04587300 -0.01566800 0.10055100
v -0.03106400 -0.09099400 0.09883200
v 0.04676500 -0.01800000 0.10055000
v 0.04136600 -0.01028900 0.10055000
v 0.04423400 -0.01402700 0.10055000
v -0.03818400 -0.08318400 0.10055000
v -0.03818400 -0.08318400 0.10055000
v -0.03818400 -0.08318400 0.10055000
v -0.03471000 -0.08636600 0.10055000
v -0.03680000 -0.08513100 0.10055200
v 0.04244800 -0.00917400 0.09884000
v -0.04316600 -0.07818800 0.10055100
v 0.03471000 -0.00363400 0.10055000
v 0.03471000 -0.00363400 0.10055000
v 0.03318800 -0.00183400 0.10055100
v 0.03318800 -0.00183400 0.10055100
v 0.03318800 -0.00183400 0.10055100
v 0.02700000 0.00176500 0.10055000
v -0.04676500 -0.07200000 0.10055000
v -0.04676500 -0.07200000 0.10055000
v 0.02502000 0.00433900 0.09897500
v 0.02282100 0.00394100 0.10055000
v -0.05186600 -0.06156600 0.10055100
v -0.05186600 -0.06156600 0.10055100
v -0.05186600 -0.06156600 0.10055100
v 0.01657100 0.00686500 0.10055100
v -0.05318000 -0.05437700 0.10055000
v -0.05379400 -0.04970600 0.10055000
v -0.05400000 -0.04500000 0.10055000
v -0.00470600 0.00879500 0.10055000
v -0.00017200 0.01042900 0.09885100
v -0.05379400 -0.04029400 0.10055000
v -0.05379400 -0.04029400 0.10055000
v -0.00474100 0.00919300 0.10055000
v -0.00474100 0.00919300 0.10055000
v -0.05318000 -0.03562300 0.10055000
v -0.05318000 -0.03562300 0.10055000
v -0.05394300 -0.03760900 0.10055100
v -0.00937700 0.00818000 0.10055000
v -0.01846900 0.00574300 0.10055000
v -0.01397600 0.00716000 0.10055000
v -0.01397600 0.00716000 0.10055000
v -0.05186600 -0.02843400 0.10055200
v -0.02282100 0.00394100 0.10055000
v -0.05074300 -0.02653100 0.10055000
v -0.05068400 -0.02418100 0.09982700
v -0.02525500 0.00323700 0.10055100
v -0.02525500 0.00323700 0.10055100
v -0.02525500 0.00323700 0.10055100
v -0.04423400 -0.01402700 0.10055000
v -0.03097300 -0.00076600 0.10055000
v -0.04136600 -0.01028900 0.10055000
v -0.03818400 -0.00681600 0.10055000
v 0.01846900 0.00574300 0.53525000
v 0.01397600 0.00716000 0.53525000
v 0.01823900 0.00646900 0.53748700
v 0.01160400 0.01079400 0.54036900
v 0.00692700 0.00907800 0.53748900
v 0.00470600 0.00879500 0.53525000
v 0.00466700 -0.09938300 0.53746600
v 0.00000000 -0.09900000 0.53525000
v 0.00937700 -0.09818000 0.53525000
v 0.01397600 -0.09716000 0.53525000
v 0.01607500 -0.09709900 0.53749000
v 0.02282100 -0.09394100 0.53525000
v 0.02700000 -0.09176500 0.53525000
v 0.02678200 -0.09259000 0.53748800
v 0.03097300 -0.08923400 0.53525000
v 0.03471000 -0.08636600 0.53525000
v 0.03634000 -0.08565400 0.53749200
v 0.03818400 -0.08318400 0.53525000
v 0.04443200 -0.08133300 0.54109900
v 0.04136600 -0.07971100 0.53525000
v 0.04423400 -0.07597300 0.53525000
v 0.04419100 -0.07708700 0.53749100
v 0.04676500 -0.07200000 0.53525000
v 0.04997600 -0.06681100 0.53749500
v 0.04894000 -0.06782100 0.53525000
v 0.05345600 -0.05611600 0.53751800
v 0.05467400 -0.06141500 0.54040700
v 0.05379400 -0.04970600 0.53525000
v 0.05400000 -0.04500000 0.53525000
v 0.05736000 -0.04615300 0.54090100
v 0.05379400 -0.04029400 0.53525000
v 0.05455900 -0.04644200 0.53752700
v 0.05303500 -0.03163900 0.53745500
v 0.05318000 -0.03562300 0.53525000
v 0.05216000 -0.03102400 0.53525000
v 0.05074300 -0.02653100 0.53525000
v 0.05195300 -0.02147900 0.54044900
v 0.04791800 -0.01897700 0.53749400
v 0.04288200 -0.01140700 0.53736800
v 0.04136600 -0.01028900 0.53525000
v 0.03818400 -0.00681600 0.53525000
v 0.03097300 -0.00076600 0.53525000
v 0.03471000 -0.00363400 0.53525000
v 0.04162300 -0.00548200 0.54109200
v 0.03760700 -0.00543000 0.53749000
v 0.02700000 0.00176500 0.53525000
v 0.02884600 0.00127200 0.53749100
v 0.00470600 -0.09879500 0.10055000
v 0.00470600 -0.09879500 0.10055000
v 0.00470600 -0.09879500 0.10055000
v 0.00937700 -0.09818000 0.10055000
v 0.00470600 -0.09879500 0.53525000
v 0.04676500 -0.01800000 0.53525000
v 0.04894000 -0.02217900 0.53525000
v 0.04423400 -0.01402700 0.53525000
v 0.01846900 -0.09574300 0.10055000
v 0.03818400 -0.00681600 0.10055000
v 0.01846900 -0.09574300 0.53525000
v 0.02700000 -0.09176500 0.10055000
v 0.03097300 -0.00076600 0.10055000
v 0.03097300 -0.00076600 0.10055000
v 0.03097300 -0.08923400 0.10055000
v 0.03471000 -0.08636600 0.10055000
v 0.03818400 -0.08318400 0.10055000
v 0.03818400 -0.08318400 0.10055000
v 0.02282100 0.00394100 0.53525000
v 0.01846900 0.00574300 0.10055000
v 0.01397600 0.00716000 0.10055000
v 0.04423400 -0.07597300 0.10055000
v 0.00937700 0.00818000 0.10055000
v 0.00470600 0.00879500 0.10055000
v 0.04894000 -0.06782100 0.10055000
v 0.00937700 0.00818000 0.53525000
v 0.00000000 0.00900000 0.10055000
v 0.05216000 -0.05897600 0.10055000
v 0.05074300 -0.06346900 0.53525000
v 0.05318000 -0.05437700 0.53525000
v 0.05216000 -0.05897600 0.53525000
v 0.05379400 -0.04970600 0.10055000
v 0.05400000 -0.04500000 0.10055000
v -0.03828400 -0.00150000 0.54740000
v -0.04508500 -0.00859600 0.54740000
v -0.05794700 -0.04746200 0.54740000
v -0.05773800 -0.04008500 0.54740000
v -0.03828400 -0.08850000 0.54740000
v -0.03038200 -0.09434400 0.54740000
v 0.05711400 -0.05479300 0.54740000
v 0.05280300 -0.06886900 0.54740000
v 0.00819700 0.02950100 0.08680000
v 0.02160700 0.02682000 0.08680000
v 0.05441200 -0.04266200 0.10055200
v 0.05379400 -0.04970600 0.10055000
v 0.05379400 -0.04970600 0.10055000
v -0.02609400 -0.09295100 0.53752500
v -0.03651400 -0.08562900 0.53748200
v 0.01220800 -0.10164600 0.54740000
v 0.00245900 -0.10289600 0.54740000
v -0.01440300 0.00759200 0.10055400
v -0.02525500 0.00323700 0.10055100
v -0.04423400 -0.07597300 0.10055000
v -0.04136600 -0.07971100 0.10055000
v 0.01823900 0.00646900 0.53748700
v 0.00692700 0.00907800 0.53748900
v -0.05074300 -0.06346900 0.10055000
v -0.04894000 -0.06782100 0.10055000
v 0.04997600 -0.06681100 0.53749500
v -0.00736000 0.01247800 0.54740000
v -0.01696800 0.01040700 0.54740000
v -0.04471600 -0.07625500 0.53746000
v -0.05073800 -0.01907000 0.09748400
v -0.04136600 -0.01028900 0.10055000
v -0.03818400 -0.00681600 0.10055000
v -0.04676500 -0.01800000 0.10055000
v -0.04423400 -0.01402700 0.10055000
v 0.01397600 -0.09716000 0.10055000
v 0.01397600 -0.09716000 0.10055000
v 0.01397600 -0.09716000 0.10055000
v 0.01846900 -0.09574300 0.10055000
v 0.01846900 -0.09574300 0.10055000
v -0.05607700 -0.03039800 0.54740000
v -0.00463000 0.00938200 0.53745400
v -0.01823900 0.00646900 0.53748700
v -0.04823700 -0.07025500 0.10055100
v -0.05186600 -0.06156600 0.10055100
v 0.07098300 -0.06921600 0.08680000
v 0.06786300 -0.07681300 0.08680000
v -0.01607400 -0.09709900 0.53749000
v 0.02282100 0.00394100 0.10055000
v 0.02282100 0.00394100 0.10055000
v 0.01846900 0.00574300 0.10055000
v 0.05276000 -0.06317800 0.09848400
v 0.01397600 0.00716000 0.10055000
v -0.05429100 -0.03215300 0.09847700
v -0.05216300 -0.02105400 0.54110900
v -0.00491900 -0.10279100 0.54740000
v 0.03904400 -0.10897700 0.08680000
v 0.04794300 -0.10261000 0.08680000
v 0.04753400 -0.07407500 0.09848600
v -0.07415100 -0.03408700 0.08680000
v -0.07495000 -0.04500000 0.08680000
v 0.04136600 -0.01028900 0.10055000
v 0.04136600 -0.01028900 0.10055000
v 0.03818400 -0.00681600 0.10055000
v 0.03818400 -0.00681600 0.10055000
v 0.02700000 -0.09176500 0.10055000
v 0.03097300 -0.08923400 0.10055000
v -0.02700000 -0.09176500 0.10055000
v -0.02700000 -0.09176500 0.10055000
v -0.02282100 -0.09394100 0.10055000
v -0.02282100 -0.09394100 0.10055000
v -0.03097300 -0.08923400 0.10055000
v -0.04353900 -0.08331900 0.54740000
v -0.04801000 -0.07744900 0.54740000
v 0.05582100 -0.09501600 0.08680000
v 0.00000000 -0.12000000 0.08680000
v -0.01225200 -0.11885300 0.08680000
v -0.05216000 -0.03102400 0.10055000
v -0.05318000 -0.03562300 0.10055000
v 0.05794700 -0.04500000 0.54740000
v 0.05628600 -0.03161200 0.54740000
v -0.03106400 -0.09099400 0.09883200
v -0.03106400 -0.09099400 0.09883200
v -0.03106400 -0.09099400 0.09883200
v -0.03680000 -0.08513100 0.10055200
v -0.03680000 -0.08513100 0.10055200
v -0.03680000 -0.08513100 0.10055200
v 0.05379400 -0.04029400 0.10055000
v 0.05379400 -0.04029400 0.10055000
v 0.05318000 -0.03562300 0.10055000
v 0.05318000 -0.03562300 0.10055000
v -0.00697700 -0.09907600 0.53750300
v 0.03318800 -0.00183400 0.10055100
v 0.02700000 0.00176500 0.10055000
v 0.02700000 0.00176500 0.10055000
v -0.05216000 -0.05897600 0.10055000
v -0.05318000 -0.05437700 0.10055000
v -0.01846900 -0.09574300 0.10055000
v -0.05280300 -0.06886900 0.54740000
v 0.02282100 -0.09394100 0.10055000
v 0.02282100 -0.09394100 0.10055000
v 0.01657100 -0.09686500 0.10055100
v 0.07415100 -0.05591300 0.08680000
v 0.07495000 -0.04500000 0.08680000
v 0.00466700 -0.09938300 0.53746600
v 0.01607500 -0.09709900 0.53749000
v -0.06250800 -0.00364500 0.08680000
v -0.06786300 -0.01318700 0.08680000
v 0.02884600 0.00127200 0.53749100
v 0.04587300 -0.01566800 0.10055100
v 0.04587300 -0.01566800 0.10055100
v 0.04587300 -0.01566800 0.10055100
v -0.05182100 -0.06259900 0.53749100
v -0.07098300 -0.02078400 0.08680000
v 0.02134500 -0.09829800 0.54111100
v 0.03002900 -0.09387800 0.54102500
v -0.02495600 0.00482200 0.09848400
v 0.00470600 -0.09879500 0.10055000
v 0.00937700 -0.09818000 0.10055000
v 0.00944600 -0.09857400 0.10055000
v -0.04794300 -0.10261000 0.08680000
v -0.03904400 -0.10897700 0.08680000
v 0.04676500 -0.01800000 0.10055000
v 0.04676500 -0.01800000 0.10055000
v 0.04423400 -0.01402700 0.10055000
v 0.04423400 -0.01402700 0.10055000
v -0.00470600 0.00879500 0.10055000
v -0.00937700 0.00818000 0.10055000
v -0.04938800 -0.01459000 0.54740000
v -0.05280300 -0.02113100 0.54740000
v 0.03904400 0.01897700 0.08680000
v 0.02931300 0.02398000 0.08680000
v 0.00000000 0.01300000 0.54740000
v 0.00736000 0.01247800 0.54740000
v -0.05582100 -0.09501600 0.08680000
v -0.05422300 -0.05020400 0.53746600
v 0.04791800 -0.01897700 0.53749400
v 0.05074300 -0.06346900 0.10055000
v 0.05074300 -0.06346900 0.10055000
v 0.05216000 -0.05897600 0.10055000
v 0.05216000 -0.05897600 0.10055000
v 0.05216000 -0.05897600 0.10055000
v -0.02679200 -0.11505100 0.08680000
v -0.03097300 -0.00076600 0.10055000
v -0.03097300 -0.00076600 0.10055000
v -0.02525500 -0.09323700 0.10055200
v -0.02525500 -0.09323700 0.10055200
v -0.05435600 -0.04964500 0.10055700
v -0.05394300 -0.03760900 0.10055100
v -0.05394300 -0.03760900 0.10055100
v -0.05394300 -0.03760900 0.10055100
v -0.05394300 -0.03760900 0.10055100
v -0.01220800 -0.10164600 0.54740000
v -0.02160600 -0.09876800 0.54740000
v -0.02160700 0.02682000 0.08680000
v -0.02931300 0.02398000 0.08680000
v 0.03764700 -0.08832000 0.54108800
v -0.05379400 -0.04029400 0.10055000
v 0.03471000 -0.08636600 0.10055000
v 0.03471000 -0.08636600 0.10055000
v 0.03818400 -0.08318400 0.10055000
v 0.04894000 -0.06782100 0.10055000
v 0.04894000 -0.06782100 0.10055000
v 0.04894000 -0.06782100 0.10055000
v 0.05216000 -0.03102400 0.10055000
v -0.04894000 -0.02217900 0.10055000
v -0.00009200 -0.10129200 0.09791900
v 0.03634000 -0.08565400 0.53749200
v 0.04419100 -0.07708700 0.53749100
v 0.06786300 -0.01318700 0.08680000
v 0.07098300 -0.02078400 0.08680000
v -0.01397600 -0.09716000 0.10055000
v -0.00937700 -0.09818000 0.10055000
v -0.00937700 -0.09818000 0.10055000
v -0.00819700 0.02950100 0.08680000
v 0.05318000 -0.05437700 0.10055000
v 0.05318000 -0.05437700 0.10055000
v 0.07415100 -0.03408700 0.08680000
v 0.06250800 -0.00364500 0.08680000
v 0.04136600 -0.07971100 0.10055000
v 0.04136600 -0.07971100 0.10055000
v 0.04136600 -0.07971100 0.10055000
v 0.04676500 -0.07200000 0.10055000
v 0.04676500 -0.07200000 0.10055000
v 0.04423400 -0.07597300 0.10055000
v 0.04423400 -0.07597300 0.10055000
v -0.05379400 -0.04970600 0.10055000
v -0.05400000 -0.04500000 0.10055000
v 0.04794300 0.01261000 0.08680000
v -0.04305400 -0.08065000 0.09843500
v -0.05582100 0.00501600 0.08680000
v 0.05074300 -0.02653100 0.10055000
v 0.04894000 -0.02217900 0.10055000
v 0.04894000 -0.02217900 0.10055000
v -0.02162500 -0.09815800 0.54105900
v -0.00470600 -0.09879500 0.10055000
v 0.00000000 -0.09900000 0.10055000
v -0.05545700 -0.06198400 0.54740000
v 0.03038200 0.00434400 0.54740000
v 0.03913600 -0.00238900 0.54740000
v 0.05400000 -0.04500000 0.10055000
v 0.05400000 -0.04500000 0.10055000
v -0.02700000 0.00176500 0.10055000
v 0.03327000 -0.09155600 0.09746000
v -0.05186600 -0.02843400 0.10055200
v -0.05186600 -0.02843400 0.10055200
v -0.05186600 -0.02843400 0.10055200
v 0.03471000 -0.00363400 0.10055000
v 0.03097300 -0.00076600 0.10055000
v -0.04986300 -0.06985800 0.09849300
v 0.04801000 -0.07744900 0.54740000
v -0.05074300 -0.02653100 0.10055000
v -0.05074300 -0.02653100 0.10055000
v 0.02679200 -0.11505100 0.08680000
v 0.04013100 -0.08180000 0.10055100
v -0.07415100 -0.05591300 0.08680000
v -0.07098300 -0.06921600 0.08680000
v 0.06250800 -0.08635500 0.08680000
v -0.03904400 0.01897700 0.08680000
v -0.05410000 -0.05867100 0.09848800
v -0.05577800 -0.04534000 0.09846700
v 0.04353900 -0.08331900 0.54740000
v 0.03828400 -0.08850000 0.54740000
v 0.02678200 -0.09259000 0.53748800
v 0.05582100 0.00501600 0.08680000
v -0.04794300 0.01261000 0.08680000
v -0.03471000 -0.00363400 0.10055000
v 0.01225200 -0.11885300 0.08680000
v 0.04244800 -0.00917400 0.09884000
v -0.05434800 -0.03951200 0.53747800
v 0.05310200 -0.05702600 0.10055100
v -0.00474100 -0.09919300 0.10055000
v 0.00233500 -0.09941200 0.10055200
v -0.01364000 0.00911200 0.09848200
v -0.01846900 0.00574300 0.10055000
v -0.01397600 0.00716000 0.10055000
v 0.00470600 0.00879500 0.10055000
v 0.00000000 0.00900000 0.10055000
v 0.00000000 0.00900000 0.10055000
v -0.06786300 -0.07681300 0.08680000
v -0.06250800 -0.08635500 0.08680000
v -0.03038200 0.00434400 0.54740000
v 0.03038200 -0.09434400 0.54740000
v 0.00937700 0.00818000 0.10055000
v -0.05711400 -0.05479300 0.54740000
v -0.04676500 -0.07200000 0.10055000
v 0.05303500 -0.03163900 0.53745500
v -0.03030600 -0.09373600 0.54107300
v -0.00474100 0.00919300 0.10055000
v -0.02282100 0.00394100 0.10055000
v -0.02282100 0.00394100 0.10055000
v 0.04801000 -0.01255100 0.54740000
v 0.01811000 0.00994800 0.54740000
v 0.02160600 -0.09876800 0.54740000
v -0.04316600 -0.07818800 0.10055100
v -0.04316600 -0.07818800 0.10055100
v -0.04316600 -0.07818800 0.10055100
v -0.04316600 -0.07818800 0.10055100
v -0.03818400 -0.08318400 0.10055000
v -0.03471000 -0.08636600 0.10055000
v -0.03471000 -0.08636600 0.10055000
v 0.04587300 -0.07433200 0.10055100
v 0.04587300 -0.07433200 0.10055100
v 0.04587300 -0.07433200 0.10055100
v 0.04587300 -0.07433200 0.10055100
v 0.04587300 -0.07433200 0.10055100
v 0.05024100 -0.06598600 0.10055100
v 0.05280300 -0.02113100 0.54740000
vn -0.37260000 -0.68510000 -0.62590000
vn -0.35220000 -0.93200000 -0.08590000
vn -0.18280000 -0.97880000 -0.09200000
vn -0.23380000 -0.73310000 -0.63860000
vn -0.09900000 -0.77950000 -0.61860000
vn -0.07650000 0.76920000 -0.63440000
vn 0.00910000 0.99740000 -0.07140000
vn -0.18630000 0.98100000 -0.05400000
vn -0.24370000 0.96740000 -0.06810000
vn -0.24840000 0.72800000 -0.63890000
vn -0.43130000 0.90030000 -0.05850000
vn -0.48640000 0.86970000 -0.08420000
vn -0.49320000 0.74320000 -0.45220000
vn -0.63000000 0.77320000 -0.07270000
vn -0.63060000 0.63810000 -0.44180000
vn -0.75470000 0.65170000 -0.07600000
vn -0.82410000 0.55590000 -0.10850000
vn -0.72490000 0.52380000 -0.44740000
vn -0.89360000 0.42630000 -0.14070000
vn -0.93700000 0.32790000 -0.12060000
vn -0.96720000 0.25290000 -0.02460000
vn -0.82180000 0.34890000 -0.45050000
vn -0.77160000 0.10340000 -0.62760000
vn -0.99710000 -0.00440000 -0.07660000
vn -0.99100000 -0.08390000 -0.10410000
vn -0.97860000 -0.09620000 -0.18210000
vn -0.98190000 -0.17820000 -0.06470000
vn -0.92670000 -0.34410000 -0.15130000
vn -0.91530000 -0.31160000 -0.25510000
vn -0.87290000 -0.48570000 -0.04580000
vn -0.81270000 -0.56940000 -0.12340000
vn -0.75980000 -0.64660000 -0.06810000
vn -0.62240000 -0.43920000 -0.64790000
vn -0.63070000 -0.76620000 -0.12290000
vn -0.52060000 -0.58260000 -0.62410000
vn -0.40880000 -0.90860000 -0.08580000
vn -0.00510000 -0.89700000 -0.44190000
vn 0.19390000 -0.90480000 -0.37920000
vn 0.37040000 -0.92480000 -0.08700000
vn 0.52060000 -0.84900000 -0.09090000
vn 0.88220000 0.14670000 -0.44750000
vn 0.73870000 0.51270000 -0.43760000
vn 0.52830000 0.72450000 -0.44270000
vn 0.36710000 0.81930000 -0.44040000
vn -0.80200000 -0.18890000 0.56660000
vn -0.50590000 -0.01400000 0.86250000
vn 0.01290000 0.00110000 0.99990000
vn -0.25840000 -0.09130000 0.96170000
vn -0.41610000 -0.20760000 0.88530000
vn 0.00290000 0.00180000 1.00000000
vn 0.00180000 0.00090000 1.00000000
vn 0.00280000 0.00180000 1.00000000
vn 0.00310000 0.00130000 1.00000000
vn 0.00330000 0.00140000 1.00000000
vn -0.17800000 -0.22080000 0.95890000
vn -0.63750000 -0.53800000 0.55160000
vn -0.05110000 0.28150000 0.95820000
vn -0.41650000 -0.49270000 0.76410000
vn -0.12140000 0.45260000 0.88340000
vn -0.10970000 -0.27600000 0.95490000
vn -0.10800000 0.25230000 0.96160000
vn 0.00220000 -0.00750000 1.00000000
vn 0.00170000 -0.00780000 1.00000000
vn -0.37300000 0.76470000 0.52540000
vn -0.02070000 -0.29700000 0.95460000
vn -0.16550000 0.23600000 0.95760000
vn -0.00030000 -0.00000000 1.00000000
vn -0.00000000 -0.00000000 1.00000000
vn -0.43120000 0.34210000 0.83490000
vn -0.43300000 0.49980000 0.75010000
vn -0.46340000 0.44760000 0.76480000
vn -0.57890000 0.35920000 0.73210000
vn -0.66270000 0.32750000 0.67350000
vn -0.26970000 0.02880000 0.96250000
vn -0.24640000 0.08970000 0.96500000
vn -0.80810000 0.18860000 0.55810000
vn -0.00000000 -0.00000000 1.00000000
vn -0.00000000 -0.00000000 1.00000000
vn 0.50660000 -0.59270000 -0.62610000
vn -0.00000000 -0.00000000 1.00000000
vn -0.00000000 -0.00000000 1.00000000
vn -0.00000000 -0.00000000 1.00000000
vn 0.90510000 -0.40590000 -0.12630000
vn 0.79940000 -0.46320000 -0.38260000
vn 0.97200000 -0.21380000 -0.09730000
vn -0.00000000 -0.00000000 1.00000000
vn 0.98590000 0.15450000 -0.06490000
vn 0.85080000 0.51550000 -0.10180000
vn 0.93990000 0.32270000 -0.11140000
vn 0.80140000 0.59700000 -0.03700000
vn 0.59830000 0.79720000 -0.08080000
vn 0.45090000 0.88880000 -0.08260000
vn -0.00000000 -0.00000000 1.00000000
vn 0.28680000 0.95170000 -0.10970000
vn 0.13380000 0.98270000 -0.12790000
vn -0.01660000 0.91970000 -0.39240000
vn 0.22820000 0.03570000 0.97300000
vn 0.26140000 0.11870000 0.95790000
vn 0.11120000 -0.13440000 0.98470000
vn 0.19770000 -0.18430000 0.96280000
vn 0.05250000 0.19430000 0.97950000
vn 0.24070000 -0.02350000 0.97030000
vn 0.67270000 0.66030000 0.33390000
vn 0.61430000 0.47950000 0.62660000
vn 0.56310000 0.75470000 0.33650000
vn 0.33500000 0.54870000 0.76590000
vn 0.42740000 0.49050000 0.75940000
vn -0.00000000 -0.00000000 -1.00000000
vn 0.14730000 0.33890000 0.92920000
vn 0.27070000 0.65090000 0.70930000
vn 0.47330000 0.81800000 0.32690000
vn 0.38170000 0.86690000 0.32070000
vn 0.95560000 -0.20220000 0.21460000
vn -0.00000000 -0.00000000 -1.00000000
vn 0.93150000 0.21360000 0.29430000
vn 0.24890000 -0.91360000 0.32150000
vn 0.07020000 0.67240000 0.73680000
vn 0.32930000 -0.70860000 0.62410000
vn 0.21970000 -0.47830000 0.85030000
vn -0.00000000 -0.00000000 -1.00000000
vn 0.01070000 -0.99030000 0.13830000
vn 0.39220000 -0.87470000 0.28480000
vn 0.11930000 -0.93450000 0.33540000
vn -0.00000000 -0.00000000 -1.00000000
vn 0.56150000 -0.80470000 0.19280000
vn 0.43760000 -0.70920000 0.55270000
vn 0.48830000 -0.86650000 0.10370000
vn 0.49390000 -0.11430000 0.86200000
vn 0.31620000 -0.39630000 0.86200000
vn -0.00000000 -0.00000000 -1.00000000
vn 0.56780000 -0.64520000 0.51120000
vn 0.71870000 -0.65690000 0.22780000
vn 0.23460000 0.87120000 0.43120000
vn 0.42000000 -0.32390000 0.84770000
vn 0.65510000 -0.52080000 0.54740000
vn -0.00000000 -0.00000000 -1.00000000
vn -0.00000000 -0.00000000 -1.00000000
vn 0.13640000 -0.54840000 0.82500000
vn 0.72150000 -0.42070000 0.55000000
vn 0.64060000 -0.25410000 0.72460000
vn 0.46050000 -0.27520000 0.84390000
vn 0.84620000 -0.49390000 0.20000000
vn 0.55310000 0.00090000 0.83310000
vn 0.88130000 -0.36340000 0.30220000
vn -0.00000000 -0.00000000 -1.00000000
vn 0.81540000 -0.23690000 0.52820000
vn 0.08800000 0.94050000 0.32820000
vn 0.11190000 0.47640000 0.87210000
vn 0.78400000 -0.09380000 0.61370000
vn 0.93960000 -0.01400000 0.34200000
vn 0.50700000 0.10160000 0.85600000
vn 0.83470000 0.08850000 0.54350000
vn 0.86930000 0.35220000 0.34670000
vn 0.62250000 0.20460000 0.75540000
vn 0.57340000 0.30470000 0.76050000
vn 0.79190000 0.51020000 0.33550000
vn 0.88370000 0.43860000 0.16340000
vn 0.39920000 0.31290000 0.86180000
vn -0.96330000 -0.24390000 -0.11200000
vn 0.00200000 0.00060000 1.00000000
vn 0.00310000 0.00130000 1.00000000
vn 0.00330000 0.00140000 1.00000000
vn 0.00180000 0.00090000 1.00000000
vn 0.00330000 0.00140000 1.00000000
vn 0.00280000 0.00180000 1.00000000
vn 0.00290000 0.00180000 1.00000000
vn 0.00160000 0.00120000 1.00000000
vn -0.89820000 -0.43730000 -0.04540000
vn -0.08720000 0.98790000 -0.12830000
vn 0.00160000 0.00120000 1.00000000
vn 0.00250000 0.00230000 1.00000000
vn -0.34160000 0.93060000 -0.13130000
vn -0.71190000 -0.69440000 -0.10490000
vn -0.44100000 -0.61520000 0.65350000
vn 0.00090000 -0.00180000 1.00000000
vn 0.00180000 -0.00280000 1.00000000
vn -0.58130000 0.80570000 -0.11340000
vn -0.47030000 0.56980000 0.67390000
vn -0.57260000 -0.81720000 -0.06550000
vn 0.00180000 0.00360000 1.00000000
vn -0.25560000 -0.74150000 0.62030000
vn -0.50280000 -0.85610000 -0.11940000
vn -0.22070000 -0.76560000 0.60430000
vn -0.71100000 0.69380000 -0.11430000
vn -0.86600000 0.50000000 -0.00000000
vn -0.24790000 -0.96380000 -0.09770000
vn -0.00000000 -0.00000000 1.00000000
vn -0.00000000 -0.00000000 1.00000000
vn -0.00030000 -0.00000000 1.00000000
vn -0.00010000 0.00010000 1.00000000
vn -0.07610000 -0.99260000 -0.09430000
vn -0.85710000 0.51460000 -0.02330000
vn -0.66380000 0.33720000 0.66750000
vn 0.00380000 -0.00120000 1.00000000
vn 0.00310000 -0.00070000 1.00000000
vn 0.00590000 -0.00140000 1.00000000
vn -0.97910000 0.18750000 -0.07930000
vn -0.98750000 0.08220000 -0.13430000
vn 0.00200000 0.00060000 1.00000000
vn 0.00350000 0.00080000 1.00000000
vn -0.20900000 -0.27440000 0.93860000
vn -0.12430000 0.13280000 0.98330000
vn -0.30070000 -0.19090000 0.93440000
vn -0.09410000 0.25430000 0.96250000
vn -0.23130000 -0.15020000 0.96120000
vn -0.28920000 -0.03850000 0.95650000
vn -0.23040000 0.00800000 0.97310000
vn -0.17720000 0.11060000 0.97790000
vn -0.24860000 0.24120000 0.93810000
vn -0.01320000 0.38800000 0.92160000
vn -0.00000000 -0.00000000 -1.00000000
vn -0.97800000 -0.15060000 0.14410000
vn -0.94210000 -0.30980000 0.12830000
vn -0.00000000 -0.00000000 -1.00000000
vn -0.00000000 -0.00000000 -1.00000000
vn -0.00000000 -0.00000000 -1.00000000
vn -0.00000000 -0.00000000 -1.00000000
vn -0.00000000 -0.00000000 -1.00000000
vn -0.00000000 -0.00000000 -1.00000000
vn -0.00000000 -0.00000000 -1.00000000
vn -0.00000000 -0.00000000 -1.00000000
vn -0.00000000 -0.00000000 -1.00000000
vn -0.00000000 -0.00000000 -1.00000000
vn -0.09610000 0.99480000 0.03330000
vn -0.00000000 -0.00000000 -1.00000000
vn -0.59130000 -0.73430000 0.33340000
vn -0.64310000 -0.76230000 0.07280000
vn -0.36880000 -0.59940000 0.71040000
vn -0.14660000 -0.27940000 0.94890000
vn -0.00000000 -0.00000000 -1.00000000
vn -0.34170000 -0.92790000 0.14890000
vn -0.41330000 -0.85220000 0.32080000
vn -0.06340000 0.75530000 0.65230000
vn -0.00000000 -0.00000000 -1.00000000
vn -0.92230000 0.18880000 0.33720000
vn -0.55760000 -0.01570000 0.82990000
vn -0.93510000 0.03120000 0.35310000
vn -0.88480000 -0.20620000 0.41790000
vn 0.04390000 -0.68420000 0.72800000
vn -0.00660000 -0.93850000 0.34530000
vn -0.09270000 0.96300000 0.25310000
vn -0.33390000 0.63150000 0.69980000
vn -0.38450000 0.86060000 0.33380000
vn -0.37860000 0.91760000 0.12150000
vn -0.50990000 0.85370000 0.10590000
vn -0.50880000 0.79300000 0.33510000
vn -0.39620000 0.52390000 0.75410000
vn -0.57000000 0.51200000 0.64260000
vn -0.89770000 -0.08450000 0.43250000
vn -0.62380000 0.77440000 0.10580000
vn -0.72630000 0.66250000 0.18360000
vn -0.62540000 0.70890000 0.32620000
vn -0.00000000 -0.00000000 -1.00000000
vn -0.22710000 -0.94040000 0.25320000
vn -0.77130000 0.55650000 0.30890000
vn -0.61330000 0.32620000 0.71930000
vn -0.08990000 -0.80360000 0.58840000
vn -0.00000000 -0.00000000 -1.00000000
vn -0.23180000 0.86940000 0.43630000
vn -0.38630000 0.07890000 0.91900000
vn -0.67750000 0.21570000 0.70320000
vn -0.71210000 0.07940000 0.69760000
vn -0.00000000 -0.00000000 -1.00000000
vn -0.85740000 0.38080000 0.34630000
vn -0.93030000 0.26920000 0.24930000
vn -0.23780000 -0.66560000 0.70750000
vn -0.00000000 -0.00000000 -1.00000000
vn -0.10960000 0.47360000 0.87390000
vn -0.99150000 -0.01360000 0.12930000
vn -0.50960000 -0.10540000 0.85400000
vn -0.87890000 -0.32980000 0.34470000
vn -0.62310000 -0.29230000 0.72550000
vn -0.90670000 -0.40860000 0.10440000
vn -0.70460000 -0.47430000 0.52780000
vn -0.84570000 -0.43810000 0.30470000
vn -0.82090000 -0.54530000 0.16960000
vn -0.49120000 -0.38520000 0.78120000
vn -0.73370000 -0.60310000 0.31310000
vn -0.24090000 -0.22390000 0.94440000
vn -0.48860000 -0.50920000 0.70860000
vn -0.22710000 -0.04220000 0.97290000
vn -0.59600000 -0.21320000 0.77420000
vn -0.27010000 -0.12090000 0.95520000
vn -0.23040000 0.59980000 0.76630000
vn -0.15850000 0.21840000 0.96290000
vn -0.17530000 0.31760000 0.93190000
vn -0.30900000 0.21390000 0.92670000
vn -0.19700000 0.05620000 0.97880000
vn -0.29000000 0.11780000 0.94980000
vn -0.11420000 -0.30030000 0.94700000
vn -0.07050000 -0.40270000 0.91260000
vn -0.00000000 -0.00000000 1.00000000
vn -0.00000000 -0.00000000 1.00000000
vn -0.00000000 -0.00000000 1.00000000
vn -0.00000000 -0.00000000 1.00000000
vn 0.37200000 -0.92440000 -0.08450000
vn -0.00000000 -0.00000000 1.00000000
vn -0.64790000 -0.75670000 -0.08710000
vn -0.75600000 -0.64580000 -0.10690000
vn -0.90530000 -0.41760000 -0.07770000
vn -0.00000000 -0.00000000 1.00000000
vn -0.00000000 -0.00000000 1.00000000
vn 0.52140000 0.85280000 -0.02920000
vn -0.00000000 -0.00000000 1.00000000
vn 0.12770000 0.03990000 0.99100000
vn 0.12980000 0.21660000 0.96760000
vn 0.17040000 0.22800000 0.95860000
vn 0.20700000 0.18940000 0.95980000
vn 0.08310000 -0.20380000 0.97550000
vn 0.28290000 -0.11860000 0.95180000
vn 0.13960000 -0.24490000 0.95940000
vn 0.01770000 -0.31870000 0.94770000
vn 0.04960000 0.24540000 0.96820000
vn -0.07170000 -0.99540000 -0.06410000
vn -0.13120000 0.98690000 -0.09380000
vn -0.28760000 0.95510000 -0.07160000
vn -0.51490000 0.85260000 -0.08890000
vn -0.41100000 0.90940000 -0.06480000
vn -0.68070000 0.73160000 -0.03920000
vn -0.61410000 0.78140000 -0.11130000
vn -0.78010000 0.62420000 -0.04340000
vn -0.76880000 0.62910000 -0.11450000
vn -0.84890000 0.51860000 -0.10260000
vn -0.91370000 0.39710000 -0.08640000
vn -0.00000000 -0.00000000 1.00000000
vn -0.99410000 -0.05550000 -0.09270000
vn -0.99120000 0.12610000 -0.04060000
vn -0.99190000 0.05270000 -0.11600000
vn -0.00000000 -0.00000000 1.00000000
vn -0.97950000 -0.15170000 -0.13220000
vn -0.00000000 -0.00000000 1.00000000
vn -0.85130000 -0.51300000 -0.11040000
vn -0.93430000 -0.32860000 -0.13820000
vn -0.80910000 -0.58460000 -0.06020000
vn -0.57960000 -0.72970000 -0.36280000
vn -0.52170000 -0.84870000 -0.08660000
vn -0.23840000 -0.96830000 -0.07420000
vn -0.37130000 -0.92450000 -0.08600000
vn -0.21700000 -0.89540000 -0.38890000
vn -0.12740000 -0.98230000 -0.13710000
vn 0.05110000 -0.99250000 -0.11120000
vn 0.26570000 0.05270000 0.96260000
vn 0.70140000 0.04070000 0.71160000
vn 0.74420000 0.15720000 0.64920000
vn 0.37140000 0.20980000 0.90450000
vn 0.60190000 0.21100000 0.77020000
vn 0.65860000 0.27650000 0.69990000
vn 0.16030000 0.11160000 0.98070000
vn 0.18070000 0.21270000 0.96030000
vn 0.12770000 0.27980000 0.95150000
vn 0.00740000 -0.48940000 0.87200000
vn 0.38500000 0.54960000 0.74140000
vn 0.04610000 -0.27020000 0.96170000
vn -0.00060000 0.00200000 1.00000000
vn -0.00020000 0.00400000 1.00000000
vn -0.00000000 -0.00000000 1.00000000
vn 0.19150000 0.71810000 0.66910000
vn 0.17510000 -0.66020000 0.73040000
vn 0.17470000 -0.47190000 0.86420000
vn 0.10230000 0.70880000 0.69800000
vn 0.31700000 -0.62050000 0.71730000
vn 0.10350000 0.51660000 0.84990000
vn 0.42250000 -0.53460000 0.73190000
vn 0.10930000 -0.16930000 0.97950000
vn 0.55450000 -0.53070000 0.64100000
vn 0.23840000 -0.15320000 0.95900000
vn 0.26720000 -0.09100000 0.95930000
vn 0.73270000 -0.43630000 0.52230000
vn 0.42170000 -0.15380000 0.89360000
vn 0.32330000 -0.03050000 0.94580000
vn -0.19190000 0.90490000 -0.37990000
vn -0.33900000 0.82590000 -0.45060000
vn -0.46840000 0.77720000 -0.42010000
vn -0.60700000 0.66640000 -0.43300000
vn -0.75590000 0.51980000 -0.39810000
vn -0.90590000 0.41160000 -0.09910000
vn -0.89340000 0.23330000 -0.38400000
vn -0.89740000 0.02080000 -0.44070000
vn -0.87830000 -0.18810000 -0.43950000
vn -0.81270000 -0.38060000 -0.44110000
vn -0.73960000 -0.51290000 -0.43580000
vn -0.68040000 -0.62980000 -0.37470000
vn -0.41780000 -0.65230000 -0.63250000
vn -0.37620000 -0.92230000 -0.08880000
vn -0.00150000 0.00140000 1.00000000
vn -0.00230000 0.00250000 1.00000000
vn -0.00270000 0.00210000 1.00000000
vn 0.76610000 -0.64280000 -0.00000000
vn 0.71260000 -0.47110000 0.51990000
vn 0.86600000 -0.50000000 -0.00000000
vn -0.00120000 0.00300000 1.00000000
vn -0.00190000 0.00080000 1.00000000
vn -0.00350000 0.00110000 1.00000000
vn -0.00310000 0.00100000 1.00000000
vn -0.00290000 0.00150000 1.00000000
vn 0.93970000 -0.34200000 -0.00000000
vn -0.00120000 0.00300000 1.00000000
vn -0.00060000 0.00200000 1.00000000
vn -0.00060000 0.00190000 1.00000000
vn 0.72070000 -0.03800000 0.69220000
vn -0.00200000 0.00040000 1.00000000
vn -0.00310000 0.00100000 1.00000000
vn 0.25890000 -0.96590000 -0.00000000
vn 0.65950000 -0.07550000 0.74790000
vn 0.99620000 0.08720000 -0.00000000
vn -0.00030000 -0.00000000 1.00000000
vn -0.00020000 0.00400000 1.00000000
vn -0.00020000 0.00390000 1.00000000
vn 0.00030000 0.00630000 1.00000000
vn -0.00020000 0.00390000 1.00000000
vn -0.00390000 -0.00020000 1.00000000
vn -0.00640000 0.00030000 1.00000000
vn -0.00650000 -0.00090000 1.00000000
vn 0.98480000 0.17360000 -0.00000000
vn -0.14130000 -0.65850000 0.73920000
vn 0.93970000 0.34200000 -0.00000000
vn 0.96590000 0.25880000 -0.00000000
vn -0.23940000 -0.59740000 0.76540000
vn -0.00310000 -0.00160000 1.00000000
vn 0.00180000 0.00360000 1.00000000
vn 0.79400000 0.49470000 0.35330000
vn -0.42710000 -0.82870000 0.36180000
vn 0.86600000 0.50000000 -0.00000000
vn -0.00260000 -0.00200000 1.00000000
vn 0.81920000 0.57360000 -0.00000000
vn 0.00270000 0.00300000 1.00000000
vn 0.00250000 0.00230000 1.00000000
vn 0.00430000 0.00410000 1.00000000
vn 0.00270000 0.00300000 1.00000000
vn -0.31850000 -0.54010000 0.77900000
vn 0.58510000 0.50990000 0.63060000
vn -0.69020000 -0.48940000 0.53300000
vn -0.00120000 -0.00160000 1.00000000
vn -0.00230000 -0.00250000 1.00000000
vn -0.00230000 -0.00250000 1.00000000
vn -0.00120000 -0.00160000 1.00000000
vn -0.00190000 -0.00290000 1.00000000
vn 0.38710000 0.67930000 0.62350000
vn 0.00280000 0.00180000 1.00000000
vn 0.00180000 0.00090000 1.00000000
vn 0.30530000 0.58250000 0.75330000
vn 0.33350000 0.69190000 0.64030000
vn 0.00200000 0.00060000 1.00000000
vn 0.00310000 0.00130000 1.00000000
vn 0.00220000 0.00070000 1.00000000
vn 0.16070000 0.48400000 0.86020000
vn 0.02390000 0.00450000 0.99970000
vn 0.01260000 0.00120000 0.99990000
vn 0.02320000 -0.00030000 0.99970000
vn -0.00000000 -0.00000000 1.00000000
vn 0.00340000 0.67660000 0.73640000
vn 0.00370000 -0.00020000 1.00000000
vn 0.00200000 -0.00030000 1.00000000
vn -0.00000000 -0.00000000 1.00000000
vn -0.00000000 -0.00010000 1.00000000
vn 0.00200000 -0.00030000 1.00000000
vn 0.00310000 -0.00070000 1.00000000
vn -0.87950000 0.10530000 0.46410000
vn 0.00170000 -0.00780000 1.00000000
vn 0.00500000 -0.01320000 0.99990000
vn 0.00190000 -0.00760000 1.00000000
vn 0.00170000 -0.00780000 1.00000000
vn -0.45890000 0.27170000 0.84590000
vn -0.42260000 0.90630000 -0.00000000
vn 0.00380000 -0.00120000 1.00000000
vn -0.69040000 0.27030000 0.67100000
vn 0.00100000 -0.00200000 1.00000000
vn 0.00090000 -0.00180000 1.00000000
vn 0.00180000 -0.00280000 1.00000000
vn -0.57120000 0.43220000 0.69780000
vn -0.57360000 0.81920000 -0.00000000
vn -0.50180000 0.37750000 0.77830000
vn -0.40490000 0.43620000 0.80360000
vn 0.34160000 0.93060000 -0.13130000
vn 0.24370000 0.96740000 -0.06810000
vn 0.24800000 0.73170000 -0.63490000
vn 0.18470000 0.87680000 -0.44390000
vn 0.08690000 0.77150000 -0.63030000
vn 0.07620000 0.99260000 -0.09470000
vn 0.08000000 -0.77210000 -0.63050000
vn -0.00920000 -0.99740000 -0.07100000
vn 0.18120000 -0.98090000 -0.07010000
vn 0.24790000 -0.96380000 -0.09770000
vn 0.23020000 -0.74210000 -0.62950000
vn 0.40800000 -0.91010000 -0.07210000
vn 0.49870000 -0.85680000 -0.13130000
vn 0.47660000 -0.85030000 -0.22330000
vn 0.57710000 -0.81370000 -0.06980000
vn 0.63250000 -0.76760000 -0.10380000
vn 0.51800000 -0.58090000 -0.62780000
vn 0.71380000 -0.69570000 -0.08060000
vn 0.71150000 -0.59610000 -0.37210000
vn 0.75420000 -0.65160000 -0.08130000
vn 0.81530000 -0.56440000 -0.12960000
vn 0.78740000 -0.57390000 -0.22490000
vn 0.86590000 -0.49530000 -0.06930000
vn 0.71850000 -0.32220000 -0.61640000
vn 0.89790000 -0.42680000 -0.10790000
vn 0.88490000 -0.17460000 -0.43180000
vn 0.86160000 -0.26400000 -0.43350000
vn 0.99080000 -0.09390000 -0.09720000
vn 0.99320000 0.00760000 -0.11590000
vn 0.92610000 -0.02620000 -0.37650000
vn 0.99480000 0.09240000 -0.04250000
vn 0.89330000 -0.02320000 -0.44880000
vn 0.75370000 0.21180000 -0.62210000
vn 0.98260000 0.15850000 -0.09710000
vn 0.95390000 0.26040000 -0.14920000
vn 0.93270000 0.35710000 -0.04990000
vn 0.82360000 0.36490000 -0.43430000
vn 0.86370000 0.46240000 -0.20030000
vn 0.70840000 0.56960000 -0.41670000
vn 0.75630000 0.64730000 -0.09500000
vn 0.71060000 0.69400000 -0.11540000
vn 0.58140000 0.80930000 -0.08420000
vn 0.62990000 0.77180000 -0.08710000
vn 0.68640000 0.63490000 -0.35460000
vn 0.61850000 0.65030000 -0.44110000
vn 0.48930000 0.86620000 -0.10170000
vn 0.40310000 0.65830000 -0.63570000
vn -0.00000000 -0.00000000 1.00000000
vn -0.00020000 0.00390000 1.00000000
vn -0.00020000 0.00400000 1.00000000
vn 0.17370000 -0.98480000 -0.00000000
vn 0.08690000 -0.98790000 -0.12860000
vn 0.85720000 0.50370000 -0.10720000
vn 0.91110000 0.40650000 -0.06820000
vn 0.82000000 0.56570000 -0.08710000
vn 0.34200000 -0.93970000 -0.00000000
vn 0.70710000 0.70720000 -0.00000000
vn 0.35410000 -0.93160000 -0.08250000
vn 0.39100000 -0.62330000 0.67720000
vn -0.00120000 -0.00160000 1.00000000
vn -0.00190000 -0.00290000 1.00000000
vn 0.57360000 -0.81910000 -0.00000000
vn 0.43010000 -0.51500000 0.74150000
vn -0.00230000 0.00250000 1.00000000
vn -0.00150000 0.00140000 1.00000000
vn 0.42780000 0.90120000 -0.06970000
vn -0.00120000 -0.00290000 1.00000000
vn 0.25890000 0.96590000 -0.00000000
vn 0.81920000 -0.57360000 -0.00000000
vn 0.17370000 0.98480000 -0.00000000
vn 0.08710000 0.99620000 -0.00000000
vn 0.90630000 -0.42260000 -0.00000000
vn 0.18750000 0.97870000 -0.08320000
vn -0.00000000 -0.00000000 1.00000000
vn 0.96590000 -0.25880000 -0.00000000
vn 0.94020000 -0.33120000 -0.07950000
vn 0.97940000 -0.16400000 -0.11810000
vn 0.95820000 -0.27000000 -0.09400000
vn 0.99620000 -0.08720000 -0.00000000
vn 1.00000000 -0.00000000 -0.00000000
vn -0.00000000 -0.00000000 1.00000000
vn -0.00000000 -0.00000000 1.00000000
vn -0.00000000 -0.00000000 1.00000000
vn -0.00000000 -0.00000000 1.00000000
vn -0.00000000 -0.00000000 1.00000000
vn -0.00000000 -0.00000000 1.00000000
vn 0.98910000 -0.14450000 -0.02770000
vn 0.91040000 -0.41270000 -0.02900000
vn 0.10230000 0.99130000 0.08290000
vn 0.28420000 0.94910000 0.13570000
vn 0.83900000 0.01640000 0.54390000
vn 0.77610000 -0.07760000 0.62580000
vn -0.00640000 0.00030000 1.00000000
vn -0.46580000 -0.85790000 -0.21680000
vn -0.65100000 -0.72330000 -0.23010000
vn 0.21650000 -0.97270000 -0.08370000
vn 0.05860000 -0.99810000 -0.02070000
vn -0.24750000 0.81960000 0.51670000
vn -0.41400000 0.74540000 0.52250000
vn -0.81920000 -0.57360000 -0.00000000
vn -0.76610000 -0.64280000 -0.00000000
vn 0.32420000 0.91960000 -0.22200000
vn 0.12610000 0.97200000 -0.19810000
vn -0.93970000 -0.34200000 -0.00000000
vn -0.90630000 -0.42260000 -0.00000000
vn 0.89840000 -0.39100000 -0.19980000
vn -0.00000000 -0.00000000 1.00000000
vn -0.00000000 -0.00000000 1.00000000
vn -0.80470000 -0.55860000 -0.20080000
vn -0.34420000 0.16370000 0.92450000
vn -0.76610000 0.64280000 -0.00000000
vn -0.70710000 0.70720000 -0.00000000
vn -0.60780000 0.31350000 0.72960000
vn -0.81920000 0.57360000 -0.00000000
vn -0.00000000 -0.00000000 1.00000000
vn -0.00060000 0.00190000 1.00000000
vn -0.00060000 0.00200000 1.00000000
vn -0.00120000 0.00300000 1.00000000
vn -0.00060000 0.00190000 1.00000000
vn -0.96430000 0.25060000 -0.08560000
vn -0.08450000 0.97380000 -0.21110000
vn -0.32480000 0.92110000 -0.21460000
vn -0.75070000 -0.41490000 0.51410000
vn -0.81790000 -0.28500000 0.49980000
vn 0.94080000 -0.30300000 0.15200000
vn 0.89660000 -0.42790000 0.11390000
vn -0.29040000 -0.93470000 -0.20480000
vn 0.42260000 0.90630000 -0.00000000
vn -0.00130000 -0.00300000 1.00000000
vn 0.34200000 0.93970000 -0.00000000
vn 0.78920000 -0.26580000 0.55360000
vn 0.05810000 0.48050000 0.87500000
vn -0.42660000 0.10560000 0.89830000
vn -0.71360000 0.34270000 -0.61100000
vn -0.00000000 -0.00000000 1.00000000
vn -0.00000000 -0.00000000 -1.00000000
vn 0.63840000 -0.74230000 0.20340000
vn 0.39180000 -0.23160000 0.89040000
vn -0.98280000 0.13510000 0.12590000
vn -0.00000000 -0.00000000 -1.00000000
vn 0.55780000 0.48820000 0.67120000
vn 0.76610000 0.64280000 -0.00000000
vn 0.55440000 0.54880000 0.62570000
vn -0.00230000 -0.00250000 1.00000000
vn 0.50000000 -0.86600000 -0.00000000
vn 0.37150000 -0.57810000 0.72640000
vn -0.50000000 -0.86600000 -0.00000000
vn -0.41460000 -0.51800000 0.74820000
vn -0.42260000 -0.90630000 -0.00000000
vn -0.21050000 -0.67060000 0.71130000
vn -0.57360000 -0.81910000 -0.00000000
vn -0.00000000 -0.00000000 1.00000000
vn -0.00000000 -0.00000000 1.00000000
vn 0.74560000 -0.66620000 0.01490000
vn -0.00000000 -0.00000000 -1.00000000
vn -0.12690000 -0.98580000 0.10990000
vn -0.96590000 0.25880000 -0.00000000
vn -0.98480000 0.17360000 -0.00000000
vn 0.99750000 0.00200000 -0.07000000
vn 0.97260000 0.23230000 -0.00960000
vn -0.41880000 -0.60730000 0.67510000
vn -0.62100000 -0.70690000 0.33850000
vn -0.26150000 -0.42200000 0.86800000
vn -0.62060000 -0.69150000 0.36980000
vn 0.00430000 0.00410000 1.00000000
vn 0.00270000 0.00300000 1.00000000
vn -0.00650000 -0.00090000 1.00000000
vn -0.00390000 -0.00020000 1.00000000
vn -0.00650000 -0.00090000 1.00000000
vn 0.59940000 0.10820000 0.79310000
vn -0.12360000 -0.97160000 -0.20180000
vn 0.53600000 0.66320000 0.52230000
vn -0.00190000 -0.00290000 1.00000000
vn 0.50000000 0.86600000 -0.00000000
vn -0.96590000 -0.25880000 -0.00000000
vn -0.98480000 -0.17360000 -0.00000000
vn -0.34200000 -0.93970000 -0.00000000
vn -0.00000000 -0.00000000 1.00000000
vn 0.27210000 -0.57240000 0.77350000
vn 0.42260000 -0.90630000 -0.00000000
vn 0.31770000 -0.83440000 0.45040000
vn 0.98620000 -0.12200000 0.11180000
vn 0.99570000 0.01660000 0.09120000
vn 0.08320000 -0.97300000 -0.21540000
vn 0.29040000 -0.93600000 -0.19890000
vn -0.84470000 0.51980000 0.12730000
vn -0.89110000 0.43910000 0.11440000
vn 0.51870000 0.83100000 -0.20120000
vn -0.00170000 -0.00110000 1.00000000
vn -0.00310000 -0.00160000 1.00000000
vn -0.00260000 -0.00200000 1.00000000
vn -0.74350000 -0.25810000 -0.61700000
vn -0.92940000 0.34670000 0.12660000
vn 0.29120000 -0.71860000 -0.63150000
vn 0.42230000 -0.65530000 -0.62630000
vn -0.20700000 0.39840000 0.89360000
vn 0.08710000 -0.99620000 -0.00000000
vn -0.00000000 -0.00000000 1.00000000
vn 0.12080000 -0.87280000 0.47290000
vn -0.00000000 -0.00000000 -1.00000000
vn -0.51760000 -0.83310000 0.19510000
vn -0.00170000 -0.00110000 1.00000000
vn -0.00310000 -0.00160000 1.00000000
vn -0.00260000 -0.00200000 1.00000000
vn -0.00170000 -0.00110000 1.00000000
vn -0.08710000 0.99620000 -0.00000000
vn -0.17370000 0.98480000 -0.00000000
vn -0.00000000 -0.00000000 1.00000000
vn -0.00000000 -0.00000000 1.00000000
vn 0.52980000 0.84200000 0.10180000
vn 0.39050000 0.91390000 0.11060000
vn -0.00650000 0.99610000 -0.08840000
vn 0.15040000 0.98840000 -0.02270000
vn -0.72320000 -0.67650000 0.13900000
vn -0.77830000 -0.07420000 -0.62350000
vn 0.67420000 0.36330000 -0.64300000
vn -0.00350000 0.00110000 1.00000000
vn -0.00190000 0.00080000 1.00000000
vn -0.00200000 0.00040000 1.00000000
vn -0.00310000 0.00100000 1.00000000
vn -0.00350000 0.00110000 1.00000000
vn -0.00000000 -0.00000000 -1.00000000
vn -0.45070000 0.63530000 0.62720000
vn 0.00180000 -0.00280000 1.00000000
vn 0.00180000 0.00360000 1.00000000
vn -0.39960000 -0.81600000 0.41760000
vn -0.89010000 -0.09550000 0.44570000
vn 0.00240000 -0.00030000 1.00000000
vn 0.00310000 -0.00070000 1.00000000
vn 0.00590000 -0.00140000 1.00000000
vn 0.00200000 -0.00030000 1.00000000
vn -0.00000000 -0.00000000 1.00000000
vn -0.00000000 -0.00000000 1.00000000
vn -0.29130000 0.94400000 0.15490000
vn -0.00000000 -0.00000000 -1.00000000
vn 0.65240000 -0.75260000 -0.08900000
vn -0.99620000 0.08720000 -0.00000000
vn 0.64280000 -0.76610000 -0.00000000
vn -0.00230000 0.00250000 1.00000000
vn 0.70710000 -0.70720000 -0.00000000
vn -0.00190000 0.00080000 1.00000000
vn -0.00290000 0.00150000 1.00000000
vn -0.00310000 0.00160000 1.00000000
vn 0.65590000 0.20150000 0.72740000
vn -0.90630000 0.42260000 -0.00000000
vn -0.00110000 -0.83240000 0.55420000
vn 0.65400000 -0.72950000 -0.20030000
vn 0.62940000 -0.46010000 -0.62620000
vn -0.00000000 -0.00000000 -1.00000000
vn 0.94120000 0.30560000 0.14400000
vn -0.25890000 -0.96590000 -0.00000000
vn -0.17370000 -0.98480000 -0.00000000
vn -0.16290000 -0.74280000 0.64940000
vn -0.00000000 -0.00000000 -1.00000000
vn 0.98480000 -0.17360000 -0.00000000
vn -0.00200000 0.00040000 1.00000000
vn 0.97990000 0.11770000 0.16110000
vn 0.83170000 0.54980000 0.07800000
vn -0.00270000 0.00210000 1.00000000
vn -0.00150000 0.00140000 1.00000000
vn -0.00260000 0.00200000 1.00000000
vn -0.00310000 0.00160000 1.00000000
vn -0.00170000 0.00110000 1.00000000
vn -0.00170000 0.00110000 1.00000000
vn -0.00260000 0.00200000 1.00000000
vn -0.99620000 -0.08720000 -0.00000000
vn -1.00000000 -0.00000000 -0.00000000
vn 0.63900000 0.75870000 0.12670000
vn -0.40670000 -0.35560000 0.84150000
vn -0.00000000 -0.00000000 -1.00000000
vn 0.77020000 0.26910000 0.57820000
vn 0.69600000 0.31010000 0.64770000
vn 0.90630000 0.42260000 -0.00000000
vn -0.29640000 -0.71360000 -0.63470000
vn -0.08710000 -0.99620000 -0.00000000
vn -0.00000000 -1.00000000 -0.00000000
vn -0.96110000 -0.26510000 -0.07770000
vn -0.00000000 -0.00000000 1.00000000
vn 0.69170000 0.72060000 -0.04770000
vn -0.00640000 0.00030000 1.00000000
vn -0.00390000 -0.00020000 1.00000000
vn -0.50000000 0.86600000 -0.00000000
vn 0.42540000 -0.57980000 0.69490000
vn -0.83740000 0.28590000 0.46590000
vn 0.00380000 -0.00120000 1.00000000
vn 0.00590000 -0.00140000 1.00000000
vn 0.64280000 0.76610000 -0.00000000
vn 0.57360000 0.81920000 -0.00000000
vn -0.76660000 -0.37540000 0.52100000
vn 0.83040000 -0.55020000 -0.08760000
vn -0.48180000 0.26870000 0.83410000
vn -0.93970000 0.34200000 -0.00000000
vn 0.34820000 -0.92990000 0.11830000
vn 0.61170000 -0.58040000 0.53750000
vn -0.00000000 -0.00000000 -1.00000000
vn -0.00000000 -0.00000000 -1.00000000
vn 0.81250000 -0.56400000 0.14740000
vn -0.00000000 -0.00000000 -1.00000000
vn -0.45510000 -0.10260000 0.88450000
vn -0.83240000 0.01260000 0.55410000
vn 0.73710000 -0.66750000 -0.10590000
vn 0.65450000 -0.75020000 -0.09380000
vn 0.38390000 -0.68170000 -0.62280000
vn 0.75080000 0.64970000 0.11880000
vn -0.00000000 -0.00000000 -1.00000000
vn -0.64280000 0.76610000 -0.00000000
vn 0.16420000 -0.98230000 0.09030000
vn 0.48830000 0.38240000 0.78450000
vn -0.96960000 0.10290000 -0.22200000
vn 0.86190000 -0.17370000 0.47640000
vn -0.10870000 -0.84860000 0.51770000
vn 0.07340000 -0.84490000 0.52980000
vn -0.19760000 0.83130000 0.51950000
vn -0.34200000 0.93970000 -0.00000000
vn -0.25890000 0.96590000 -0.00000000
vn 0.04330000 0.75730000 0.65160000
vn -0.00000000 1.00000000 -0.00000000
vn 0.03240000 0.76650000 0.64140000
vn -0.00000000 -0.00000000 -1.00000000
vn -0.00000000 -0.00000000 -1.00000000
vn -0.00000000 -0.00000000 1.00000000
vn 0.52190000 -0.84840000 -0.08840000
vn 0.15210000 0.72980000 0.66650000
vn -0.98260000 -0.18220000 -0.03560000
vn -0.86600000 -0.50000000 -0.00000000
vn 0.94030000 0.23560000 -0.24560000
vn -0.52460000 -0.84710000 -0.08520000
vn -0.08530000 0.89090000 0.44610000
vn 0.00140000 -0.00320000 1.00000000
vn 0.00090000 -0.00180000 1.00000000
vn -0.00000000 -0.00000000 1.00000000
vn 0.31800000 0.94810000 0.00970000
vn -0.00000000 -0.00000000 1.00000000
vn 0.00250000 0.00230000 1.00000000
vn 0.00430000 0.00410000 1.00000000
vn 0.00160000 0.00120000 1.00000000
vn 0.00290000 0.00180000 1.00000000
vn -0.70710000 -0.70720000 -0.00000000
vn -0.33730000 -0.54950000 0.76440000
vn -0.64280000 -0.76610000 -0.00000000
vn -0.00290000 0.00150000 1.00000000
vn -0.00170000 0.00110000 1.00000000
vn -0.00260000 0.00200000 1.00000000
vn -0.00270000 0.00210000 1.00000000
vn -0.00310000 0.00160000 1.00000000
vn 0.79230000 -0.35840000 0.49390000
vn 0.90900000 0.41210000 -0.06200000
f 36//36 2//2 567//567
f 747//747 383//383 1//1
f 567//567 2//2 600//600
f 2//2 186//186 600//600
f 747//747 1//1 4//4
f 186//186 3//3 600//600
f 339//339 747//747 4//4
f 600//600 3//3 644//644
f 3//3 191//191 644//644
f 339//339 4//4 5//5
f 481//481 657//657 644//644
f 191//191 481//481 644//644
f 37//37 339//339 5//5
f 480//480 37//37 5//5
f 7//7 169//169 594//594
f 371//371 96//96 6//6
f 169//169 8//8 594//594
f 594//594 8//8 595//595
f 8//8 9//9 595//595
f 371//371 6//6 10//10
f 372//372 371//371 10//10
f 9//9 172//172 595//595
f 172//172 11//11 595//595
f 373//373 372//372 10//10
f 595//595 11//11 13//13
f 11//11 12//12 13//13
f 373//373 10//10 13//13
f 12//12 177//177 13//13
f 374//374 373//373 13//13
f 13//13 177//177 15//15
f 177//177 14//14 15//15
f 14//14 184//184 15//15
f 374//374 13//13 15//15
f 375//375 374//374 15//15
f 15//15 184//184 18//18
f 184//184 16//16 18//18
f 16//16 17//17 18//18
f 375//375 15//15 18//18
f 17//17 192//192 22//22
f 18//18 17//17 22//22
f 607//607 375//375 18//18
f 192//192 19//19 22//22
f 607//607 18//18 22//22
f 19//19 20//20 22//22
f 377//377 607//607 22//22
f 20//20 21//21 22//22
f 22//22 21//21 782//782
f 21//21 197//197 782//782
f 377//377 22//22 23//23
f 378//378 377//377 23//23
f 197//197 198//198 782//782
f 198//198 24//24 782//782
f 24//24 25//25 26//26
f 782//782 24//24 26//26
f 379//379 378//378 688//688
f 378//378 23//23 688//688
f 25//25 27//27 26//26
f 26//26 27//27 29//29
f 379//379 688//688 665//665
f 27//27 159//159 29//29
f 159//159 28//28 29//29
f 28//28 168//168 29//29
f 380//380 379//379 665//665
f 168//168 30//30 29//29
f 29//29 30//30 582//582
f 30//30 31//31 582//582
f 380//380 665//665 33//33
f 381//381 380//380 33//33
f 31//31 32//32 582//582
f 582//582 32//32 568//568
f 32//32 173//173 568//568
f 382//382 381//381 33//33
f 173//173 34//34 568//568
f 382//382 33//33 35//35
f 34//34 179//179 568//568
f 335//335 382//382 35//35
f 568//568 179//179 567//567
f 179//179 182//182 567//567
f 383//383 335//335 35//35
f 182//182 36//36 567//567
f 383//383 35//35 1//1
f 74//74 206//206 46//46
f 46//46 206//206 772//772
f 700//700 773//773 45//45
f 206//206 48//48 772//772
f 597//597 700//700 45//45
f 772//772 48//48 49//49
f 596//596 597//597 762//762
f 597//597 45//45 762//762
f 48//48 205//205 49//49
f 49//49 205//205 742//742
f 432//432 596//596 56//56
f 596//596 762//762 56//56
f 205//205 55//55 742//742
f 637//637 432//432 56//56
f 742//742 55//55 636//636
f 637//637 56//56 635//635
f 313//313 57//57 451//451
f 451//451 57//57 59//59
f 571//571 801//801 786//786
f 801//801 451//451 786//786
f 636//636 55//55 418//418
f 699//699 422//422 418//418
f 55//55 60//60 418//418
f 57//57 61//61 59//59
f 418//418 60//60 415//415
f 59//59 61//61 669//669
f 572//572 571//571 64//64
f 571//571 786//786 64//64
f 415//415 60//60 65//65
f 61//61 66//66 669//669
f 415//415 65//65 351//351
f 669//669 66//66 70//70
f 572//572 64//64 70//70
f 784//784 415//415 719//719
f 785//785 784//784 719//719
f 66//66 202//202 69//69
f 66//66 69//69 70//70
f 202//202 208//208 69//69
f 70//70 69//69 71//71
f 71//71 69//69 72//72
f 69//69 208//208 583//583
f 69//69 73//73 72//72
f 208//208 75//75 583//583
f 72//72 73//73 466//466
f 583//583 75//75 606//606
f 73//73 76//76 466//466
f 757//757 466//466 76//76
f 458//458 757//757 76//76
f 75//75 74//74 606//606
f 606//606 74//74 46//46
f 458//458 76//76 773//773
f 700//700 458//458 773//773
f 341//341 569//569 570//570
f 38//38 569//569 341//341
f 38//38 341//341 37//37
f 39//39 569//569 38//38
f 39//39 296//296 569//569
f 39//39 795//795 296//296
f 40//40 795//795 39//39
f 709//709 775//775 795//795
f 709//709 795//795 40//40
f 492//492 775//775 709//709
f 492//492 774//774 775//775
f 492//492 763//763 774//774
f 84//84 561//561 763//763
f 84//84 763//763 492//492
f 83//83 561//561 84//84
f 83//83 84//84 500//500
f 85//85 561//561 83//83
f 85//85 560//560 561//561
f 85//85 83//83 500//500
f 85//85 632//632 560//560
f 85//85 500//500 503//503
f 503//503 632//632 85//85
f 87//87 633//633 632//632
f 87//87 632//632 503//503
f 87//87 503//503 41//41
f 89//89 633//633 87//87
f 89//89 41//41 510//510
f 89//89 87//87 41//41
f 89//89 820//820 633//633
f 88//88 90//90 820//820
f 88//88 820//820 89//89
f 88//88 89//89 510//510
f 88//88 510//510 42//42
f 517//517 752//752 90//90
f 517//517 90//90 88//88
f 517//517 88//88 42//42
f 91//91 752//752 517//517
f 91//91 517//517 43//43
f 91//91 303//303 752//752
f 92//92 303//303 91//91
f 92//92 91//91 43//43
f 92//92 43//43 44//44
f 92//92 805//805 303//303
f 94//94 805//805 92//92
f 94//94 92//92 44//44
f 94//94 44//44 477//477
f 95//95 686//686 805//805
f 95//95 805//805 94//94
f 95//95 94//94 477//477
f 95//95 685//685 686//686
f 95//95 96//96 685//685
f 95//95 477//477 96//96
f 143//143 102//102 128//128
f 97//97 102//102 143//143
f 151//151 97//97 143//143
f 98//98 97//97 151//151
f 138//138 311//311 312//312
f 154//154 98//98 151//151
f 119//119 311//311 138//138
f 155//155 98//98 154//154
f 308//308 98//98 155//155
f 129//129 311//311 119//119
f 158//158 308//308 155//155
f 129//129 99//99 311//311
f 107//107 308//308 158//158
f 129//129 100//100 99//99
f 307//307 308//308 107//107
f 134//134 100//100 129//129
f 106//106 307//307 107//107
f 306//306 307//307 106//106
f 141//141 100//100 134//134
f 109//109 306//306 106//106
f 141//141 310//310 100//100
f 101//101 306//306 109//109
f 148//148 101//101 109//109
f 210//210 101//101 148//148
f 102//102 310//310 128//128
f 103//103 107//107 104//104
f 103//103 777//777 741//741
f 105//105 103//103 741//741
f 105//105 107//107 103//103
f 105//105 106//106 107//107
f 111//111 105//105 741//741
f 111//111 741//741 683//683
f 111//111 106//106 105//105
f 111//111 110//110 106//106
f 110//110 109//109 106//106
f 112//112 111//111 683//683
f 112//112 683//683 684//684
f 110//110 148//148 109//109
f 112//112 110//110 111//111
f 112//112 133//133 110//110
f 133//133 112//112 684//684
f 133//133 684//684 563//563
f 240//240 123//123 239//239
f 116//116 780//780 766//766
f 113//113 598//598 655//655
f 113//113 150//150 149//149
f 150//150 143//143 149//149
f 150//150 152//152 143//143
f 150//150 113//113 655//655
f 150//150 655//655 656//656
f 150//150 730//730 115//115
f 150//150 115//115 152//152
f 150//150 656//656 730//730
f 115//115 730//730 723//723
f 133//133 563//563 147//147
f 119//119 138//138 118//118
f 117//117 233//233 210//210
f 147//147 233//233 117//117
f 122//122 118//118 116//116
f 122//122 116//116 766//766
f 239//239 138//138 312//312
f 240//240 121//121 780//780
f 123//123 240//240 780//780
f 122//122 766//766 127//127
f 138//138 239//239 123//123
f 126//126 118//118 122//122
f 138//138 123//123 116//116
f 129//129 119//119 118//118
f 125//125 122//122 127//127
f 125//125 126//126 122//122
f 116//116 123//123 780//780
f 126//126 129//129 118//118
f 131//131 129//129 126//126
f 125//125 127//127 610//610
f 125//125 131//131 126//126
f 132//132 131//131 125//125
f 132//132 125//125 610//610
f 135//135 129//129 131//131
f 132//132 610//610 627//627
f 135//135 131//131 132//132
f 134//134 129//129 135//135
f 147//147 563//563 562//562
f 141//141 134//134 135//135
f 132//132 627//627 770//770
f 139//139 141//141 135//135
f 147//147 562//562 224//224
f 241//241 147//147 224//224
f 142//142 132//132 770//770
f 142//142 135//135 132//132
f 142//142 139//139 135//135
f 140//140 310//310 141//141
f 142//142 770//770 599//599
f 138//138 116//116 118//118
f 140//140 141//141 139//139
f 143//143 128//128 149//149
f 144//144 139//139 142//142
f 144//144 140//140 139//139
f 140//140 128//128 310//310
f 144//144 142//142 599//599
f 143//143 152//152 151//151
f 146//146 140//140 144//144
f 144//144 599//599 598//598
f 146//146 128//128 140//140
f 117//117 133//133 147//147
f 113//113 144//144 598//598
f 117//117 210//210 148//148
f 113//113 146//146 144//144
f 149//149 128//128 146//146
f 113//113 149//149 146//146
f 148//148 133//133 117//117
f 148//148 110//110 133//133
f 154//154 151//151 152//152
f 115//115 154//154 152//152
f 153//153 154//154 115//115
f 153//153 115//115 723//723
f 153//153 723//723 157//157
f 153//153 155//155 154//154
f 156//156 155//155 153//153
f 156//156 153//153 157//157
f 156//156 157//157 731//731
f 156//156 104//104 155//155
f 158//158 155//155 104//104
f 156//156 731//731 777//777
f 103//103 156//156 777//777
f 104//104 107//107 158//158
f 103//103 104//104 156//156
f 28//28 577//577 578//578
f 28//28 159//159 577//577
f 168//168 578//578 798//798
f 168//168 28//28 578//578
f 169//169 790//790 679//679
f 169//169 679//679 680//680
f 169//169 7//7 790//790
f 30//30 798//798 573//573
f 30//30 168//168 798//798
f 8//8 680//680 788//788
f 8//8 169//169 680//680
f 31//31 573//573 574//574
f 31//31 30//30 573//573
f 9//9 788//788 787//787
f 9//9 8//8 788//788
f 32//32 574//574 811//811
f 32//32 31//31 574//574
f 172//172 787//787 464//464
f 172//172 9//9 787//787
f 173//173 811//811 813//813
f 173//173 32//32 811//811
f 11//11 464//464 755//755
f 11//11 172//172 464//464
f 34//34 813//813 624//624
f 34//34 173//173 813//813
f 12//12 11//11 755//755
f 12//12 755//755 471//471
f 179//179 624//624 620//620
f 179//179 34//34 624//624
f 177//177 12//12 471//471
f 177//177 471//471 779//779
f 182//182 620//620 622//622
f 182//182 179//179 620//620
f 14//14 177//177 779//779
f 14//14 779//779 585//585
f 36//36 622//622 650//650
f 36//36 182//182 622//622
f 184//184 585//585 584//584
f 184//184 14//14 585//585
f 2//2 36//36 650//650
f 2//2 650//650 724//724
f 16//16 584//584 587//587
f 16//16 184//184 584//584
f 186//186 2//2 724//724
f 186//186 724//724 725//725
f 17//17 587//587 185//185
f 17//17 16//16 587//587
f 3//3 186//186 725//725
f 3//3 725//725 748//748
f 192//192 185//185 718//718
f 192//192 17//17 185//185
f 191//191 3//3 748//748
f 191//191 748//748 749//749
f 481//481 191//191 749//749
f 19//19 718//718 765//765
f 19//19 192//192 718//718
f 20//20 765//765 630//630
f 20//20 19//19 765//765
f 21//21 630//630 631//631
f 21//21 20//20 630//630
f 197//197 631//631 710//710
f 197//197 21//21 631//631
f 198//198 710//710 740//740
f 198//198 197//197 710//710
f 24//24 740//740 739//739
f 24//24 198//198 740//740
f 25//25 739//739 649//649
f 25//25 24//24 739//739
f 27//27 649//649 648//648
f 27//27 25//25 649//649
f 159//159 648//648 577//577
f 159//159 27//27 648//648
f 279//279 205//205 203//203
f 283//283 203//203 205//205
f 60//60 229//229 290//290
f 206//206 207//207 281//281
f 229//229 60//60 55//55
f 207//207 206//206 74//74
f 74//74 75//75 288//288
f 74//74 288//288 207//207
f 289//289 208//208 287//287
f 55//55 279//279 201//201
f 279//279 55//55 205//205
f 202//202 209//209 287//287
f 202//202 287//287 208//208
f 283//283 205//205 48//48
f 204//204 57//57 210//210
f 313//313 210//210 57//57
f 48//48 281//281 283//283
f 206//206 281//281 48//48
f 75//75 289//289 288//288
f 289//289 75//75 208//208
f 202//202 285//285 209//209
f 66//66 285//285 202//202
f 285//285 66//66 61//61
f 61//61 204//204 285//285
f 204//204 61//61 57//57
f 60//60 291//291 65//65
f 60//60 290//290 291//291
f 65//65 291//291 312//312
f 229//229 55//55 201//201
f 609//609 234//234 727//727
f 609//609 708//708 234//234
f 609//609 771//771 708//708
f 609//609 778//778 771//771
f 609//609 743//743 778//778
f 609//609 258//258 743//743
f 609//609 263//263 258//258
f 609//609 211//211 263//263
f 609//609 267//267 211//211
f 609//609 613//613 267//267
f 609//609 768//768 613//613
f 609//609 769//769 768//768
f 609//609 792//792 769//769
f 609//609 793//793 792//792
f 609//609 225//225 793//793
f 609//609 673//673 225//225
f 609//609 230//230 673//673
f 609//609 695//695 230//230
f 609//609 253//253 695//695
f 609//609 628//628 253//253
f 609//609 124//124 628//628
f 609//609 120//120 124//124
f 609//609 214//214 130//130
f 609//609 137//137 214//214
f 609//609 215//215 137//137
f 609//609 145//145 215//215
f 609//609 114//114 145//145
f 609//609 216//216 114//114
f 609//609 217//217 216//216
f 609//609 218//218 217//217
f 609//609 722//722 218//218
f 609//609 219//219 722//722
f 609//609 220//220 219//219
f 609//609 221//221 220//220
f 609//609 108//108 221//221
f 609//609 222//222 108//108
f 609//609 223//223 222//222
f 609//609 136//136 223//223
f 609//609 727//727 136//136
f 226//226 687//687 227//227
f 228//228 201//201 280//280
f 228//228 229//229 201//201
f 226//226 228//228 280//280
f 226//226 227//227 674//674
f 232//232 228//228 226//226
f 266//266 229//229 228//228
f 232//232 226//226 674//674
f 266//266 290//290 229//229
f 232//232 266//266 228//228
f 232//232 674//674 231//231
f 254//254 266//266 232//232
f 254//254 232//232 231//231
f 241//241 233//233 147//147
f 259//259 241//241 707//707
f 265//265 612//612 235//235
f 265//265 666//666 612//612
f 235//235 237//237 262//262
f 237//237 249//249 236//236
f 237//237 236//236 262//262
f 237//237 235//235 612//612
f 237//237 612//612 269//269
f 237//237 269//269 249//249
f 249//249 269//269 212//212
f 249//249 212//212 238//238
f 238//238 212//212 213//213
f 254//254 231//231 629//629
f 239//239 291//291 257//257
f 239//239 312//312 291//291
f 259//259 707//707 244//244
f 240//240 239//239 257//257
f 243//243 284//284 259//259
f 242//242 286//286 284//284
f 243//243 259//259 244//244
f 243//243 242//242 284//284
f 233//233 241//241 259//259
f 243//243 244//244 245//245
f 246//246 242//242 243//243
f 247//247 286//286 242//242
f 246//246 243//243 245//245
f 241//241 224//224 707//707
f 247//247 242//242 246//246
f 246//246 245//245 250//250
f 252//252 247//247 246//246
f 252//252 246//246 250//250
f 248//248 209//209 247//247
f 252//252 248//248 247//247
f 252//252 250//250 251//251
f 249//249 238//238 270//270
f 248//248 287//287 209//209
f 255//255 248//248 252//252
f 255//255 252//252 251//251
f 256//256 287//287 248//248
f 255//255 251//251 659//659
f 255//255 256//256 248//248
f 256//256 289//289 287//287
f 240//240 257//257 254//254
f 240//240 254//254 629//629
f 240//240 629//629 121//121
f 264//264 256//256 255//255
f 233//233 268//268 210//210
f 264//264 255//255 659//659
f 264//264 659//659 660//660
f 268//268 233//233 259//259
f 261//261 260//260 289//289
f 261//261 289//289 256//256
f 262//262 236//236 260//260
f 264//264 261//261 256//256
f 236//236 249//249 270//270
f 265//265 264//264 660//660
f 265//265 660//660 666//666
f 235//235 261//261 264//264
f 238//238 282//282 270//270
f 262//262 260//260 261//261
f 265//265 235//235 264//264
f 235//235 262//262 261//261
f 257//257 266//266 254//254
f 266//266 291//291 290//290
f 291//291 266//266 257//257
f 268//268 259//259 284//284
f 271//271 282//282 238//238
f 271//271 238//238 213//213
f 271//271 213//213 273//273
f 275//275 282//282 271//271
f 275//275 272//272 282//282
f 272//272 203//203 282//282
f 275//275 271//271 273//273
f 277//277 203//203 272//272
f 274//274 277//277 272//272
f 275//275 273//273 276//276
f 274//274 272//272 275//275
f 277//277 279//279 203//203
f 278//278 274//274 275//275
f 278//278 275//275 276//276
f 280//280 277//277 274//274
f 280//280 279//279 277//277
f 278//278 276//276 687//687
f 278//278 280//280 274//274
f 226//226 280//280 278//278
f 280//280 201//201 279//279
f 226//226 278//278 687//687
f 236//236 281//281 207//207
f 270//270 281//281 236//236
f 204//204 210//210 268//268
f 282//282 283//283 281//281
f 282//282 281//281 270//270
f 284//284 204//204 268//268
f 286//286 204//204 284//284
f 203//203 283//283 282//282
f 285//285 204//204 286//286
f 247//247 285//285 286//286
f 209//209 285//285 247//247
f 260//260 288//288 289//289
f 260//260 207//207 288//288
f 236//236 207//207 260//260
f 558//558 293//293 804//804
f 558//558 292//292 293//293
f 558//558 86//86 292//292
f 558//558 294//294 86//86
f 558//558 295//295 294//294
f 558//558 82//82 295//295
f 558//558 80//80 82//82
f 558//558 81//81 80//80
f 558//558 78//78 81//81
f 558//558 806//806 78//78
f 558//558 77//77 806//806
f 558//558 297//297 77//77
f 558//558 608//608 297//297
f 558//558 705//705 608//608
f 558//558 706//706 705//705
f 558//558 559//559 706//706
f 558//558 626//626 625//625
f 558//558 651//651 626//626
f 558//558 331//331 651//651
f 558//558 329//329 331//331
f 558//558 556//556 329//329
f 558//558 557//557 556//556
f 558//558 325//325 557//557
f 558//558 682//682 325//325
f 558//558 681//681 682//682
f 558//558 555//555 681//681
f 558//558 554//554 555//555
f 558//558 794//794 554//554
f 558//558 581//581 794//794
f 558//558 580//580 581//581
f 558//558 301//301 580//580
f 558//558 302//302 301//301
f 558//558 93//93 302//302
f 558//558 751//751 93//93
f 558//558 304//304 751//751
f 558//558 804//804 304//304
f 101//101 313//313 350//350
f 350//350 306//306 101//101
f 370//370 102//102 97//97
f 102//102 370//370 310//310
f 349//349 306//306 350//350
f 349//349 308//308 307//307
f 308//308 349//349 348//348
f 348//348 98//98 308//308
f 309//309 312//312 311//311
f 98//98 348//348 305//305
f 309//309 353//353 312//312
f 65//65 312//312 353//353
f 305//305 97//97 98//98
f 342//342 97//97 305//305
f 97//97 342//342 370//370
f 367//367 310//310 370//370
f 310//310 367//367 366//366
f 366//366 100//100 310//310
f 100//100 366//366 99//99
f 311//311 99//99 309//309
f 306//306 349//349 307//307
f 313//313 101//101 210//210
f 341//341 570//570 314//314
f 96//96 315//315 685//685
f 371//371 315//315 96//96
f 371//371 316//316 315//315
f 318//318 316//316 371//371
f 318//318 371//371 372//372
f 318//318 317//317 316//316
f 318//318 372//372 373//373
f 320//320 317//317 318//318
f 320//320 318//318 373//373
f 320//320 319//319 317//317
f 320//320 373//373 374//374
f 322//322 321//321 319//319
f 322//322 319//319 320//320
f 322//322 374//374 375//375
f 322//322 320//320 374//374
f 375//375 321//321 322//322
f 375//375 323//323 321//321
f 376//376 323//323 375//375
f 376//376 324//324 323//323
f 377//377 593//593 324//324
f 377//377 324//324 376//376
f 328//328 327//327 593//593
f 328//328 593//593 377//377
f 328//328 377//377 378//378
f 328//328 326//326 327//327
f 330//330 797//797 326//326
f 330//330 326//326 328//328
f 330//330 378//378 379//379
f 330//330 328//328 378//378
f 333//333 750//750 797//797
f 333//333 797//797 330//330
f 333//333 330//330 379//379
f 333//333 300//300 750//750
f 333//333 379//379 380//380
f 332//332 300//300 333//333
f 332//332 333//333 380//380
f 332//332 334//334 300//300
f 332//332 380//380 381//381
f 382//382 299//299 334//334
f 382//382 334//334 332//332
f 382//382 332//332 381//381
f 382//382 298//298 299//299
f 335//335 298//298 382//382
f 800//800 336//336 298//298
f 800//800 298//298 335//335
f 384//384 336//336 800//800
f 384//384 338//338 336//336
f 339//339 337//337 338//338
f 339//339 338//338 384//384
f 340//340 337//337 339//339
f 340//340 314//314 337//337
f 340//340 341//341 314//314
f 340//340 37//37 341//341
f 340//340 339//339 37//37
f 370//370 342//342 343//343
f 564//564 343//343 344//344
f 344//344 343//343 346//346
f 343//343 342//342 346//346
f 342//342 305//305 345//345
f 342//342 345//345 346//346
f 347//347 344//344 346//346
f 305//305 348//348 345//345
f 346//346 345//345 347//347
f 347//347 345//345 781//781
f 421//421 347//347 431//431
f 345//345 348//348 349//349
f 345//345 349//349 781//781
f 781//781 349//349 352//352
f 645//645 431//431 352//352
f 349//349 350//350 352//352
f 441//441 645//645 352//352
f 352//352 350//350 441//441
f 65//65 353//353 351//351
f 351//351 353//353 358//358
f 672//672 785//785 358//358
f 785//785 719//719 358//358
f 441//441 350//350 357//357
f 446//446 441//441 357//357
f 654//654 672//672 358//358
f 353//353 309//309 359//359
f 360//360 446//446 357//357
f 358//358 353//353 359//359
f 350//350 313//313 362//362
f 357//357 350//350 362//362
f 357//357 362//362 360//360
f 358//358 359//359 361//361
f 654//654 358//358 361//361
f 359//359 309//309 364//364
f 313//313 451//451 362//362
f 361//361 359//359 756//756
f 309//309 99//99 364//364
f 362//362 451//451 360//360
f 361//361 756//756 363//363
f 363//363 756//756 365//365
f 767//767 363//363 365//365
f 364//364 99//99 366//366
f 756//756 366//366 365//365
f 389//389 767//767 365//365
f 365//365 366//366 611//611
f 389//389 365//365 368//368
f 819//819 389//389 368//368
f 611//611 366//366 369//369
f 819//819 368//368 604//604
f 369//369 366//366 367//367
f 783//783 819//819 604//604
f 369//369 367//367 404//404
f 367//367 370//370 404//404
f 783//783 604//604 404//404
f 404//404 370//370 343//343
f 564//564 404//404 343//343
f 536//536 363//363 767//767
f 712//712 386//386 537//537
f 733//733 538//538 385//385
f 817//817 732//732 387//387
f 738//738 734//734 816//816
f 619//619 363//363 536//536
f 361//361 363//363 619//619
f 736//736 737//737 815//815
f 532//532 361//361 619//619
f 715//715 814//814 395//395
f 716//716 735//735 818//818
f 652//652 361//361 532//532
f 654//654 361//361 652//652
f 691//691 714//714 392//392
f 591//591 397//397 391//391
f 693//693 394//394 402//402
f 694//694 690//690 393//393
f 589//589 399//399 592//592
f 354//354 398//398 590//590
f 729//729 692//692 401//401
f 671//671 356//356 588//588
f 404//404 400//400 783//783
f 565//565 400//400 404//404
f 523//523 407//407 355//355
f 521//521 356//356 671//671
f 564//564 565//565 404//404
f 753//753 566//566 412//412
f 410//410 408//408 522//522
f 641//641 754//754 411//411
f 189//189 67//67 406//406
f 190//190 408//408 409//409
f 642//642 640//640 413//413
f 643//643 564//564 344//344
f 726//726 415//415 784//784
f 187//187 68//68 188//188
f 717//717 643//643 344//344
f 183//183 415//415 726//726
f 418//418 415//415 183//183
f 744//744 344//344 347//347
f 744//744 717//717 344//344
f 181//181 418//418 183//183
f 745//745 744//744 347//347
f 623//623 699//699 418//418
f 623//623 418//418 181//181
f 421//421 745//745 347//347
f 676//676 419//419 663//663
f 180//180 698//698 420//420
f 634//634 58//58 621//621
f 678//678 675//675 662//662
f 174//174 634//634 621//621
f 614//614 421//421 431//431
f 424//424 677//677 664//664
f 812//812 430//430 634//634
f 812//812 634//634 174//174
f 616//616 614//614 431//431
f 426//426 639//639 429//429
f 435//435 434//434 617//617
f 645//645 616//616 431//431
f 807//807 427//427 171//171
f 808//808 638//638 428//428
f 436//436 533//533 433//433
f 809//809 170//170 167//167
f 646//646 534//534 437//437
f 441//441 438//438 645//645
f 50//50 810//810 166//166
f 52//52 165//165 439//439
f 163//163 51//51 440//440
f 441//441 442//442 438//438
f 162//162 54//54 164//164
f 446//446 442//442 441//441
f 446//446 540//540 602//602
f 444//444 53//53 161//161
f 199//199 443//443 160//160
f 446//446 605//605 540//540
f 447//447 445//445 200//200
f 360//360 605//605 446//446
f 360//360 796//796 605//605
f 47//47 445//445 447//447
f 789//789 796//796 360//360
f 448//448 47//47 447//447
f 451//451 789//789 360//360
f 791//791 789//789 451//451
f 47//47 448//448 449//449
f 454//454 450//450 547//547
f 801//801 791//791 451//451
f 701//701 449//449 452//452
f 701//701 47//47 449//449
f 459//459 450//450 455//455
f 62//62 459//459 455//455
f 704//704 453//453 456//456
f 195//195 702//702 457//457
f 63//63 462//462 459//459
f 759//759 703//703 196//196
f 465//465 758//758 194//194
f 62//62 460//460 461//461
f 467//467 802//802 460//460
f 467//467 460//460 62//62
f 466//466 764//764 193//193
f 466//466 463//463 764//764
f 175//175 803//803 468//468
f 586//586 466//466 193//193
f 72//72 466//466 586//586
f 697//697 176//176 469//469
f 470//470 72//72 586//586
f 70//70 696//696 572//572
f 472//472 72//72 470//470
f 178//178 696//696 70//70
f 71//71 72//72 472//472
f 71//71 473//473 178//178
f 71//71 472//472 473//473
f 71//71 178//178 70//70
f 539//539 474//474 575//575
f 44//44 520//520 476//476
f 474//474 475//475 575//575
f 475//475 546//546 575//575
f 477//477 44//44 476//476
f 575//575 546//546 576//576
f 546//546 479//479 576//576
f 477//477 476//476 478//478
f 7//7 594//594 576//576
f 479//479 7//7 576//576
f 96//96 477//477 478//478
f 6//6 96//96 478//478
f 481//481 525//525 657//657
f 38//38 37//37 480//480
f 525//525 482//482 657//657
f 657//657 482//482 658//658
f 482//482 483//483 658//658
f 38//38 480//480 484//484
f 667//667 38//38 484//484
f 483//483 531//531 658//658
f 531//531 485//485 487//487
f 658//658 531//531 487//487
f 667//667 484//484 776//776
f 668//668 667//667 776//776
f 485//485 486//486 487//487
f 486//486 488//488 487//487
f 79//79 668//668 776//776
f 487//487 488//488 720//720
f 488//488 489//489 720//720
f 79//79 776//776 490//490
f 489//489 491//491 720//720
f 492//492 79//79 490//490
f 720//720 491//491 495//495
f 491//491 493//493 495//495
f 492//492 490//490 721//721
f 493//493 494//494 495//495
f 84//84 492//492 721//721
f 494//494 496//496 495//495
f 496//496 498//498 579//579
f 495//495 496//496 579//579
f 84//84 721//721 497//497
f 500//500 84//84 497//497
f 498//498 549//549 579//579
f 579//579 549//549 499//499
f 549//549 551//551 499//499
f 500//500 497//497 499//499
f 551//551 550//550 499//499
f 503//503 500//500 499//499
f 550//550 501//501 499//499
f 503//503 499//499 505//505
f 499//499 501//501 505//505
f 501//501 502//502 505//505
f 41//41 503//503 505//505
f 502//502 504//504 505//505
f 41//41 505//505 506//506
f 504//504 507//507 799//799
f 505//505 504//504 799//799
f 507//507 508//508 799//799
f 508//508 509//509 799//799
f 509//509 527//527 799//799
f 510//510 41//41 506//506
f 799//799 527//527 511//511
f 527//527 526//526 511//511
f 510//510 506//506 689//689
f 526//526 528//528 511//511
f 42//42 510//510 689//689
f 511//511 528//528 512//512
f 528//528 513//513 512//512
f 42//42 689//689 512//512
f 513//513 514//514 512//512
f 517//517 42//42 518//518
f 42//42 512//512 518//518
f 512//512 514//514 518//518
f 514//514 516//516 518//518
f 516//516 515//515 518//518
f 43//43 517//517 518//518
f 518//518 515//515 661//661
f 515//515 519//519 661//661
f 43//43 518//518 520//520
f 519//519 539//539 661//661
f 44//44 43//43 520//520
f 661//661 539//539 575//575
f 509//509 416//416 746//746
f 509//509 508//508 416//416
f 481//481 749//749 670//670
f 527//527 746//746 423//423
f 527//527 509//509 746//746
f 525//525 670//670 524//524
f 525//525 481//481 670//670
f 526//526 423//423 425//425
f 526//526 527//527 423//423
f 482//482 524//524 403//403
f 482//482 525//525 524//524
f 528//528 425//425 615//615
f 528//528 526//526 425//425
f 483//483 403//403 529//529
f 483//483 482//482 403//403
f 513//513 615//615 530//530
f 513//513 528//528 615//615
f 531//531 529//529 653//653
f 531//531 483//483 529//529
f 514//514 530//530 760//760
f 514//514 513//513 530//530
f 485//485 653//653 618//618
f 485//485 531//531 653//653
f 516//516 760//760 761//761
f 516//516 514//514 760//760
f 486//486 485//485 618//618
f 486//486 618//618 535//535
f 515//515 761//761 647//647
f 515//515 516//516 761//761
f 488//488 486//486 535//535
f 488//488 535//535 711//711
f 519//519 647//647 601//601
f 519//519 515//515 647//647
f 489//489 488//488 711//711
f 489//489 711//711 713//713
f 539//539 601//601 603//603
f 539//539 519//519 601//601
f 491//491 713//713 388//388
f 491//491 489//489 713//713
f 474//474 539//539 603//603
f 474//474 603//603 541//541
f 493//493 388//388 542//542
f 493//493 491//491 388//388
f 475//475 474//474 541//541
f 475//475 541//541 543//543
f 494//494 542//542 390//390
f 494//494 493//493 542//542
f 546//546 475//475 543//543
f 546//546 543//543 544//544
f 496//496 390//390 545//545
f 496//496 494//494 390//390
f 479//479 546//546 544//544
f 7//7 479//479 544//544
f 498//498 545//545 396//396
f 7//7 544//544 790//790
f 498//498 496//496 545//545
f 549//549 396//396 548//548
f 549//549 498//498 396//396
f 551//551 548//548 728//728
f 551//551 549//549 548//548
f 550//550 728//728 552//552
f 550//550 551//551 728//728
f 501//501 552//552 553//553
f 501//501 550//550 552//552
f 502//502 553//553 405//405
f 502//502 501//501 553//553
f 504//504 405//405 414//414
f 504//504 502//502 405//405
f 507//507 414//414 417//417
f 507//507 504//504 414//414
f 508//508 417//417 416//416
f 508//508 507//507 417//417

