mtllib material.mtl
usemtl LinkGrey.002
v 0.00119500 0.04752100 0.07649100
v 0.00119500 0.04752100 0.07649100
v 0.00119500 0.04752100 0.07649100
v 0.00832200 0.04679500 0.07649300
v 0.00832200 0.04679500 0.07649300
v 0.01475300 0.04519700 0.07649200
v 0.01475300 0.04519700 0.07649200
v 0.01475300 0.04519700 0.07649200
v 0.01475300 0.04519700 0.07649200
v 0.02103800 0.04265800 0.07649200
v 0.02103800 0.04265800 0.07649200
v 0.02103800 0.04265800 0.07649200
v 0.02541600 0.04019400 0.07649200
v 0.02541600 0.04019400 0.07649200
v 0.02541600 0.04019400 0.07649200
v 0.03171900 0.03554200 0.07649100
v 0.03171900 0.03554200 0.07649100
v 0.03171900 0.03554200 0.07649100
v 0.03671100 0.03040400 0.07649300
v 0.03671100 0.03040400 0.07649300
v 0.04061100 0.02504600 0.07649200
v 0.04061100 0.02504600 0.07649200
v 0.04061100 0.02504600 0.07649200
v 0.04061100 0.02504600 0.07649200
v 0.04379400 0.01906100 0.07649200
v 0.04379400 0.01906100 0.07649200
v 0.04379400 0.01906100 0.07649200
v 0.04556400 0.01436000 0.07649200
v 0.04556400 0.01436000 0.07649200
v 0.04556400 0.01436000 0.07649200
v 0.04740100 0.00674400 0.07649100
v 0.04740100 0.00674400 0.07649100
v 0.04740100 0.00674400 0.07649100
v 0.04792300 -0.00040000 0.07649300
v 0.04792300 -0.00040000 0.07649300
v 0.04746600 -0.00701100 0.07649200
v 0.04746600 -0.00701100 0.07649200
v 0.04746600 -0.00701100 0.07649200
v 0.04746600 -0.00701100 0.07649200
v 0.04605800 -0.01364200 0.07649200
v 0.04605800 -0.01364200 0.07649200
v 0.04605800 -0.01364200 0.07649200
v 0.04439100 -0.01838100 0.07649200
v 0.04439100 -0.01838100 0.07649200
v 0.04439100 -0.01838100 0.07649200
v 0.04090300 -0.02539600 0.07649100
v 0.04090300 -0.02539600 0.07649100
v 0.04090300 -0.02539600 0.07649100
v 0.03671100 -0.03120400 0.07649300
v 0.03671100 -0.03120400 0.07649300
v 0.03211200 -0.03597500 0.07649200
v 0.03211200 -0.03597500 0.07649200
v 0.03211200 -0.03597500 0.07649200
v 0.03211200 -0.03597500 0.07649200
v 0.02677100 -0.04014900 0.07649200
v 0.02677100 -0.04014900 0.07649200
v 0.02677100 -0.04014900 0.07649200
v 0.02244800 -0.04270800 0.07649200
v 0.02244800 -0.04270800 0.07649200
v 0.02244800 -0.04270800 0.07649200
v 0.01526700 -0.04584000 0.07649100
v 0.01526700 -0.04584000 0.07649100
v 0.01526700 -0.04584000 0.07649100
v 0.00832200 -0.04759500 0.07649300
v 0.00832200 -0.04759500 0.07649300
v 0.00116900 -0.04832600 0.07649200
v 0.00116900 -0.04832600 0.07649200
v 0.00116900 -0.04832600 0.07649200
v 0.00116900 -0.04832600 0.07649200
v -0.00539400 -0.04801100 0.07649200
v -0.00539400 -0.04801100 0.07649200
v -0.00539400 -0.04801100 0.07649200
v -0.00999900 -0.04723900 0.07649200
v -0.00999900 -0.04723900 0.07649200
v -0.00999900 -0.04723900 0.07649200
v -0.01751300 -0.04502300 0.07649100
v -0.01751300 -0.04502300 0.07649100
v -0.01751300 -0.04502300 0.07649100
v -0.02396100 -0.04190200 0.07649300
v -0.02396100 -0.04190200 0.07649300
v -0.02945800 -0.03820200 0.07649200
v -0.02945800 -0.03820200 0.07649200
v -0.02945800 -0.03820200 0.07649200
v -0.02945800 -0.03820200 0.07649200
v -0.03449700 -0.03366600 0.07649200
v -0.03449700 -0.03366600 0.07649200
v -0.03449700 -0.03366600 0.07649200
v -0.03776800 -0.02985400 0.07649200
v -0.03776800 -0.02985400 0.07649200
v -0.03776800 -0.02985400 0.07649200
v -0.04209900 -0.02332600 0.07649100
v -0.04209900 -0.02332600 0.07649100
v -0.04209900 -0.02332600 0.07649100
v -0.04503300 -0.01679100 0.07649300
v -0.04503300 -0.01679100 0.07649300
v -0.04686500 -0.01042200 0.07649200
v -0.04686500 -0.01042200 0.07649200
v -0.04686500 -0.01042200 0.07649200
v -0.04686500 -0.01042200 0.07649200
v -0.04780900 -0.00370900 0.07649200
v -0.04780900 -0.00370900 0.07649200
v -0.04780900 -0.00370900 0.07649200
v -0.04786400 0.00131400 0.07649200
v -0.04786400 0.00131400 0.07649200
v -0.04786400 0.00131400 0.07649200
v -0.04698600 0.00909800 0.07649100
v -0.04698600 0.00909800 0.07649100
v -0.04698600 0.00909800 0.07649100
v -0.04503300 0.01599000 0.07649300
v -0.04503300 0.01599000 0.07649300
v -0.04234300 0.02204700 0.07649200
v -0.04234300 0.02204700 0.07649200
v -0.04234300 0.02204700 0.07649200
v -0.04234300 0.02204700 0.07649200
v -0.03875100 0.02779600 0.07649200
v -0.03875100 0.02779600 0.07649200
v -0.03875100 0.02779600 0.07649200
v -0.03556400 0.03167900 0.07649200
v -0.03556400 0.03167900 0.07649200
v -0.03556400 0.03167900 0.07649200
v -0.02988800 0.03707800 0.07649100
v -0.02988800 0.03707800 0.07649100
v -0.02988800 0.03707800 0.07649100
v -0.02396100 0.04110200 0.07649300
v -0.02396100 0.04110200 0.07649300
v -0.01800800 0.04401200 0.07649200
v -0.01800800 0.04401200 0.07649200
v -0.01800800 0.04401200 0.07649200
v -0.01800800 0.04401200 0.07649200
v -0.01156100 0.04610800 0.07649200
v -0.01156100 0.04610800 0.07649200
v -0.01156100 0.04610800 0.07649200
v -0.00662400 0.04703400 0.07649200
v -0.00662400 0.04703400 0.07649200
v -0.00662400 0.04703400 0.07649200
v -0.04773800 -0.00042700 0.07943200
v -0.04773800 -0.00042700 0.07943200
v -0.04773800 -0.00042700 0.07943200
v -0.04773800 -0.00042700 0.07943200
v -0.04773800 -0.00042700 0.07943200
v -0.04581100 0.01311200 0.07945600
v -0.04581100 0.01311200 0.07945600
v -0.04581100 0.01311200 0.07945600
v -0.04581100 0.01311200 0.07945600
v -0.04581100 0.01311200 0.07945600
v -0.04581100 0.01311200 0.07945600
v -0.04364000 0.01898300 0.07940700
v -0.04364000 0.01898300 0.07940700
v -0.04364000 0.01898300 0.07940700
v -0.04364000 0.01898300 0.07940700
v -0.04364000 0.01898300 0.07940700
v -0.04064700 0.02465500 0.07947500
v -0.04064700 0.02465500 0.07947500
v -0.04064700 0.02465500 0.07947500
v -0.04064700 0.02465500 0.07947500
v -0.04064700 0.02465500 0.07947500
v -0.02632100 0.03945300 0.07945900
v -0.02632100 0.03945300 0.07945900
v -0.02632100 0.03945300 0.07945900
v -0.02632100 0.03945300 0.07945900
v -0.02632100 0.03945300 0.07945900
v -0.02632100 0.03945300 0.07945900
v -0.02632100 0.03945300 0.07945900
v -0.02107200 0.04245000 0.07940700
v -0.02107200 0.04245000 0.07940700
v -0.02107200 0.04245000 0.07940700
v -0.02107200 0.04245000 0.07940700
v -0.01505300 0.04491400 0.07947100
v -0.01505300 0.04491400 0.07947100
v -0.01505300 0.04491400 0.07947100
v -0.01505300 0.04491400 0.07947100
v -0.01505300 0.04491400 0.07947100
v -0.01505300 0.04491400 0.07947100
v 0.00544000 0.04705500 0.07943400
v 0.00544000 0.04705500 0.07943400
v 0.00544000 0.04705500 0.07943400
v 0.00544000 0.04705500 0.07943400
v 0.00544000 0.04705500 0.07943400
v 0.00544000 0.04705500 0.07943400
v 0.00544000 0.04705500 0.07943400
v 0.01148900 0.04594800 0.07940600
v 0.01148900 0.04594800 0.07940600
v 0.01148900 0.04594800 0.07940600
v 0.01148900 0.04594800 0.07940600
v 0.01768000 0.04395800 0.07945900
v 0.01768000 0.04395800 0.07945900
v 0.01768000 0.04395800 0.07945900
v 0.01768000 0.04395800 0.07945900
v 0.01768000 0.04395800 0.07945900
v 0.01768000 0.04395800 0.07945900
v 0.03465300 0.03246800 0.07945700
v 0.03465300 0.03246800 0.07945700
v 0.03465300 0.03246800 0.07945700
v 0.03465300 0.03246800 0.07945700
v 0.03465300 0.03246800 0.07945700
v 0.03465300 0.03246800 0.07945700
v 0.03863200 0.02770500 0.07937400
v 0.03863200 0.02770500 0.07937400
v 0.03863200 0.02770500 0.07937400
v 0.03863200 0.02770500 0.07937400
v 0.03863200 0.02770500 0.07937400
v 0.04204800 0.02217900 0.07950400
v 0.04204800 0.02217900 0.07950400
v 0.04204800 0.02217900 0.07950400
v 0.04204800 0.02217900 0.07950400
v 0.04204800 0.02217900 0.07950400
v 0.04763700 -0.00347800 0.07947500
v 0.04763700 -0.00347800 0.07947500
v 0.04763700 -0.00347800 0.07947500
v 0.04763700 -0.00347800 0.07947500
v 0.04675800 -0.01009000 0.07946300
v 0.04675800 -0.01009000 0.07946300
v 0.04675800 -0.01009000 0.07946300
v 0.04675800 -0.01009000 0.07946300
v 0.04675800 -0.01009000 0.07946300
v 0.04675800 -0.01009000 0.07946300
v 0.03840500 -0.02879500 0.07945500
v 0.03840500 -0.02879500 0.07945500
v 0.03840500 -0.02879500 0.07945500
v 0.03840500 -0.02879500 0.07945500
v 0.03840500 -0.02879500 0.07945500
v 0.03840500 -0.02879500 0.07945500
v 0.03840500 -0.02879500 0.07945500
v 0.03840500 -0.02879500 0.07945500
v 0.03448000 -0.03343600 0.07940600
v 0.03448000 -0.03343600 0.07940600
v 0.03448000 -0.03343600 0.07940600
v 0.03448000 -0.03343600 0.07940600
v 0.02968000 -0.03780300 0.07947300
v 0.02968000 -0.03780300 0.07947300
v 0.02968000 -0.03780300 0.07947300
v 0.02968000 -0.03780300 0.07947300
v 0.02968000 -0.03780300 0.07947300
v 0.00526000 -0.04784500 0.07948100
v 0.00526000 -0.04784500 0.07948100
v 0.00526000 -0.04784500 0.07948100
v 0.00526000 -0.04784500 0.07948100
v 0.00526000 -0.04784500 0.07948100
v -0.00140100 -0.04813000 0.07946600
v -0.00140100 -0.04813000 0.07946600
v -0.00140100 -0.04813000 0.07946600
v -0.00140100 -0.04813000 0.07946600
v -0.00140100 -0.04813000 0.07946600
v -0.02634800 -0.04020000 0.07950200
v -0.02634800 -0.04020000 0.07950200
v -0.02634800 -0.04020000 0.07950200
v -0.02634800 -0.04020000 0.07950200
v -0.03166500 -0.03613800 0.07947300
v -0.03166500 -0.03613800 0.07947300
v -0.03166500 -0.03613800 0.07947300
v -0.03166500 -0.03613800 0.07947300
v -0.03166500 -0.03613800 0.07947300
v -0.03166500 -0.03613800 0.07947300
v -0.04580300 -0.01384000 0.07948700
v -0.04580300 -0.01384000 0.07948700
v -0.04580300 -0.01384000 0.07948700
v -0.04580300 -0.01384000 0.07948700
v -0.04724400 -0.00733200 0.07946900
v -0.04724400 -0.00733200 0.07946900
v -0.04724400 -0.00733200 0.07946900
v -0.04724400 -0.00733200 0.07946900
v -0.04724400 -0.00733200 0.07946900
v -0.04724400 -0.00733200 0.07946900
v -0.04069300 -0.02537200 0.07948400
v -0.04069300 -0.02537200 0.07948400
v -0.04069300 -0.02537200 0.07948400
v -0.04069300 -0.02537200 0.07948400
v -0.04069300 -0.02537200 0.07948400
v -0.04069300 -0.02537200 0.07948400
v -0.04374400 -0.01963000 0.07935500
v -0.04374400 -0.01963000 0.07935500
v -0.04374400 -0.01963000 0.07935500
v -0.04374400 -0.01963000 0.07935500
v -0.04374400 -0.01963000 0.07935500
v -0.04374400 -0.01963000 0.07935500
v -0.04374400 -0.01963000 0.07935500
v -0.03644600 -0.03122300 0.07946100
v -0.03644600 -0.03122300 0.07946100
v -0.03644600 -0.03122300 0.07946100
v -0.03644600 -0.03122300 0.07946100
v -0.03644600 -0.03122300 0.07946100
v -0.01503400 -0.04571500 0.07948800
v -0.01503400 -0.04571500 0.07948800
v -0.01503400 -0.04571500 0.07948800
v -0.01503400 -0.04571500 0.07948800
v -0.01503400 -0.04571500 0.07948800
v -0.01503400 -0.04571500 0.07948800
v -0.01503400 -0.04571500 0.07948800
v -0.02109300 -0.04327700 0.07935500
v -0.02109300 -0.04327700 0.07935500
v -0.02109300 -0.04327700 0.07935500
v -0.02109300 -0.04327700 0.07935500
v -0.02109300 -0.04327700 0.07935500
v -0.02109300 -0.04327700 0.07935500
v -0.00828400 -0.04741400 0.07943200
v -0.00828400 -0.04741400 0.07943200
v -0.00828400 -0.04741400 0.07943200
v -0.00828400 -0.04741400 0.07943200
v -0.00828400 -0.04741400 0.07943200
v 0.01759200 -0.04478900 0.07946800
v 0.01759200 -0.04478900 0.07946800
v 0.01759200 -0.04478900 0.07946800
v 0.01759200 -0.04478900 0.07946800
v 0.01759200 -0.04478900 0.07946800
v 0.01132200 -0.04682300 0.07935500
v 0.01132200 -0.04682300 0.07935500
v 0.01132200 -0.04682300 0.07935500
v 0.01132200 -0.04682300 0.07935500
v 0.01132200 -0.04682300 0.07935500
v 0.01132200 -0.04682300 0.07935500
v 0.01132200 -0.04682300 0.07935500
v 0.02399800 -0.04166000 0.07946200
v 0.02399800 -0.04166000 0.07946200
v 0.02399800 -0.04166000 0.07946200
v 0.02399800 -0.04166000 0.07946200
v 0.02399800 -0.04166000 0.07946200
v 0.02399800 -0.04166000 0.07946200
v 0.04200800 -0.02308900 0.07948800
v 0.04200800 -0.02308900 0.07948800
v 0.04200800 -0.02308900 0.07948800
v 0.04200800 -0.02308900 0.07948800
v 0.04200800 -0.02308900 0.07948800
v 0.04485500 -0.01674000 0.07943100
v 0.04485500 -0.01674000 0.07943100
v 0.04485500 -0.01674000 0.07943100
v 0.04485500 -0.01674000 0.07943100
v 0.04485500 -0.01674000 0.07943100
v 0.04677300 0.00919500 0.07947100
v 0.04677300 0.00919500 0.07947100
v 0.04677300 0.00919500 0.07947100
v 0.04677300 0.00919500 0.07947100
v 0.04677300 0.00919500 0.07947100
v 0.04768500 0.00266800 0.07935500
v 0.04768500 0.00266800 0.07935500
v 0.04768500 0.00266800 0.07935500
v 0.04768500 0.00266800 0.07935500
v 0.04768500 0.00266800 0.07935500
v 0.04768500 0.00266800 0.07935500
v 0.04768500 0.00266800 0.07935500
v 0.04481300 0.01603400 0.07946300
v 0.04481300 0.01603400 0.07946300
v 0.04481300 0.01603400 0.07946300
v 0.04481300 0.01603400 0.07946300
v 0.04481300 0.01603400 0.07946300
v 0.04481300 0.01603400 0.07946300
v 0.02965600 0.03701600 0.07948700
v 0.02965600 0.03701600 0.07948700
v 0.02965600 0.03701600 0.07948700
v 0.02965600 0.03701600 0.07948700
v 0.02965600 0.03701600 0.07948700
v 0.02965600 0.03701600 0.07948700
v 0.02389600 0.04092800 0.07943000
v 0.02389600 0.04092800 0.07943000
v 0.02389600 0.04092800 0.07943000
v 0.02389600 0.04092800 0.07943000
v 0.02389600 0.04092800 0.07943000
v -0.00130400 0.04732800 0.07947500
v -0.00130400 0.04732800 0.07947500
v -0.00130400 0.04732800 0.07947500
v -0.00130400 0.04732800 0.07947500
v -0.00130400 0.04732800 0.07947500
v -0.00130400 0.04732800 0.07947500
v -0.00836500 0.04659200 0.07946400
v -0.00836500 0.04659200 0.07946400
v -0.00836500 0.04659200 0.07946400
v -0.00836500 0.04659200 0.07946400
v -0.00836500 0.04659200 0.07946400
v -0.03167900 0.03531900 0.07948600
v -0.03167900 0.03531900 0.07948600
v -0.03167900 0.03531900 0.07948600
v -0.03167900 0.03531900 0.07948600
v -0.03167900 0.03531900 0.07948600
v -0.03167900 0.03531900 0.07948600
v -0.03654100 0.03032100 0.07942800
v -0.03654100 0.03032100 0.07942800
v -0.03654100 0.03032100 0.07942800
v -0.03654100 0.03032100 0.07942800
v -0.03654100 0.03032100 0.07942800
v -0.04723800 0.00652600 0.07948800
v -0.04723800 0.00652600 0.07948800
v -0.04723800 0.00652600 0.07948800
v -0.04723800 0.00652600 0.07948800
v -0.04723800 0.00652600 0.07948800
v -0.04723800 0.00652600 0.07948800
v 0.01656700 -0.03658200 0.08787600
v 0.01656700 -0.03658200 0.08787600
v 0.01656700 -0.03658200 0.08787600
v 0.01656700 -0.03658200 0.08787600
v 0.01656700 -0.03658200 0.08787600
v 0.01656700 -0.03658200 0.08787600
v 0.01656700 -0.03658200 0.08787600
v 0.00770400 -0.03840900 0.08895100
v 0.00770400 -0.03840900 0.08895100
v 0.00770400 -0.03840900 0.08895100
v 0.00770400 -0.03840900 0.08895100
v 0.00770400 -0.03840900 0.08895100
v 0.00770400 -0.03840900 0.08895100
v -0.00226300 -0.04008200 0.08792600
v -0.00226300 -0.04008200 0.08792600
v -0.00226300 -0.04008200 0.08792600
v -0.00226300 -0.04008200 0.08792600
v -0.00226300 -0.04008200 0.08792600
v -0.00226300 -0.04008200 0.08792600
v -0.00226300 -0.04008200 0.08792600
v -0.00226300 -0.04008200 0.08792600
v -0.00986900 -0.03784800 0.08907500
v -0.00986900 -0.03784800 0.08907500
v -0.00986900 -0.03784800 0.08907500
v -0.00986900 -0.03784800 0.08907500
v -0.00986900 -0.03784800 0.08907500
v -0.01875300 -0.03556100 0.08780300
v -0.01875300 -0.03556100 0.08780300
v -0.01875300 -0.03556100 0.08780300
v -0.01875300 -0.03556100 0.08780300
v -0.01875300 -0.03556100 0.08780300
v -0.01875300 -0.03556100 0.08780300
v -0.01875300 -0.03556100 0.08780300
v -0.01875300 -0.03556100 0.08780300
v -0.01875300 -0.03556100 0.08780300
v -0.02843700 -0.02824100 0.08787500
v -0.02843700 -0.02824100 0.08787500
v -0.02843700 -0.02824100 0.08787500
v -0.02843700 -0.02824100 0.08787500
v -0.02843700 -0.02824100 0.08787500
v -0.02843700 -0.02824100 0.08787500
v -0.02843700 -0.02824100 0.08787500
v 0.02678100 -0.02990400 0.08780900
v 0.02678100 -0.02990400 0.08780900
v 0.02678100 -0.02990400 0.08780900
v 0.02678100 -0.02990400 0.08780900
v 0.02678100 -0.02990400 0.08780900
v 0.02678100 -0.02990400 0.08780900
v 0.02678100 -0.02990400 0.08780900
v 0.02678100 -0.02990400 0.08780900
v 0.02678100 -0.02990400 0.08780900
v 0.03186200 -0.02241000 0.08907400
v 0.03186200 -0.02241000 0.08907400
v 0.03186200 -0.02241000 0.08907400
v 0.03186200 -0.02241000 0.08907400
v 0.03186200 -0.02241000 0.08907400
v 0.03575800 -0.01574000 0.08888600
v 0.03575800 -0.01574000 0.08888600
v 0.03575800 -0.01574000 0.08888600
v 0.03575800 -0.01574000 0.08888600
v 0.03575800 -0.01574000 0.08888600
v 0.03575800 -0.01574000 0.08888600
v 0.03575800 -0.01574000 0.08888600
v 0.03575800 -0.01574000 0.08888600
v 0.03957100 -0.00392800 0.08797800
v 0.03957100 -0.00392800 0.08797800
v 0.03957100 -0.00392800 0.08797800
v 0.03957100 -0.00392800 0.08797800
v 0.03957100 -0.00392800 0.08797800
v 0.03957100 -0.00392800 0.08797800
v 0.03957100 -0.00392800 0.08797800
v 0.03957100 -0.00392800 0.08797800
v 0.03869500 0.00902900 0.08783300
v 0.03869500 0.00902900 0.08783300
v 0.03869500 0.00902900 0.08783300
v 0.03869500 0.00902900 0.08783300
v 0.03869500 0.00902900 0.08783300
v 0.03869500 0.00902900 0.08783300
v 0.03869500 0.00902900 0.08783300
v 0.00137100 0.03935400 0.08775000
v 0.00137100 0.03935400 0.08775000
v 0.00137100 0.03935400 0.08775000
v 0.00137100 0.03935400 0.08775000
v 0.00137100 0.03935400 0.08775000
v 0.00137100 0.03935400 0.08775000
v 0.01058300 0.03785800 0.08806400
v 0.01058300 0.03785800 0.08806400
v 0.01058300 0.03785800 0.08806400
v 0.01058300 0.03785800 0.08806400
v 0.01058300 0.03785800 0.08806400
v 0.01058300 0.03785800 0.08806400
v 0.01058300 0.03785800 0.08806400
v 0.01822600 0.03383400 0.08894800
v 0.01822600 0.03383400 0.08894800
v 0.01822600 0.03383400 0.08894800
v 0.01822600 0.03383400 0.08894800
v 0.01822600 0.03383400 0.08894800
v 0.01822600 0.03383400 0.08894800
v 0.01822600 0.03383400 0.08894800
v 0.02698600 0.02889200 0.08781600
v 0.02698600 0.02889200 0.08781600
v 0.02698600 0.02889200 0.08781600
v 0.02698600 0.02889200 0.08781600
v 0.02698600 0.02889200 0.08781600
v 0.02698600 0.02889200 0.08781600
v 0.02698600 0.02889200 0.08781600
v 0.03343800 0.01949200 0.08889700
v 0.03343800 0.01949200 0.08889700
v 0.03343800 0.01949200 0.08889700
v 0.03343800 0.01949200 0.08889700
v 0.03343800 0.01949200 0.08889700
v 0.03343800 0.01949200 0.08889700
v 0.03343800 0.01949200 0.08889700
v 0.03343800 0.01949200 0.08889700
v -0.03236600 0.02246700 0.08815300
v -0.03236600 0.02246700 0.08815300
v -0.03236600 0.02246700 0.08815300
v -0.03236600 0.02246700 0.08815300
v -0.03236600 0.02246700 0.08815300
v -0.03236600 0.02246700 0.08815300
v -0.03236600 0.02246700 0.08815300
v -0.03236600 0.02246700 0.08815300
v -0.02612800 0.02825700 0.08896000
v -0.02612800 0.02825700 0.08896000
v -0.02612800 0.02825700 0.08896000
v -0.02612800 0.02825700 0.08896000
v -0.02612800 0.02825700 0.08896000
v -0.02612800 0.02825700 0.08896000
v -0.01848100 0.03489300 0.08780100
v -0.01848100 0.03489300 0.08780100
v -0.01848100 0.03489300 0.08780100
v -0.01848100 0.03489300 0.08780100
v -0.01848100 0.03489300 0.08780100
v -0.01848100 0.03489300 0.08780100
v -0.01848100 0.03489300 0.08780100
v -0.01848100 0.03489300 0.08780100
v -0.00742700 0.03876500 0.08774800
v -0.00742700 0.03876500 0.08774800
v -0.00742700 0.03876500 0.08774800
v -0.00742700 0.03876500 0.08774800
v -0.00742700 0.03876500 0.08774800
v -0.00742700 0.03876500 0.08774800
v -0.00742700 0.03876500 0.08774800
v -0.00742700 0.03876500 0.08774800
v -0.03312900 -0.02055500 0.08896000
v -0.03312900 -0.02055500 0.08896000
v -0.03312900 -0.02055500 0.08896000
v -0.03312900 -0.02055500 0.08896000
v -0.03312900 -0.02055500 0.08896000
v -0.03312900 -0.02055500 0.08896000
v -0.03815500 -0.01183500 0.08781000
v -0.03815500 -0.01183500 0.08781000
v -0.03815500 -0.01183500 0.08781000
v -0.03815500 -0.01183500 0.08781000
v -0.03815500 -0.01183500 0.08781000
v -0.03815500 -0.01183500 0.08781000
v -0.03815500 -0.01183500 0.08781000
v -0.03815500 -0.01183500 0.08781000
v -0.03891800 0.00032400 0.08885400
v -0.03891800 0.00032400 0.08885400
v -0.03891800 0.00032400 0.08885400
v -0.03891800 0.00032400 0.08885400
v -0.03891800 0.00032400 0.08885400
v -0.03891800 0.00032400 0.08885400
v -0.03891800 0.00032400 0.08885400
v -0.03820300 0.01119100 0.08770700
v -0.03820300 0.01119100 0.08770700
v -0.03820300 0.01119100 0.08770700
v -0.03820300 0.01119100 0.08770700
v -0.03820300 0.01119100 0.08770700
v -0.03820300 0.01119100 0.08770700
v -0.03820300 0.01119100 0.08770700
v -0.03820300 0.01119100 0.08770700
v 0.03607400 -0.00676100 0.33908800
v 0.03607400 -0.00676100 0.33908800
v 0.03663100 -0.00040000 0.33908800
v 0.03663100 -0.00040000 0.33908800
v 0.03442100 -0.01292800 0.33908800
v 0.03442100 -0.01292800 0.33908800
v 0.03442100 -0.01292800 0.33908800
v 0.03172300 -0.01871500 0.33908800
v 0.03172300 -0.01871500 0.33908800
v 0.02806100 -0.02394600 0.33908800
v 0.02806100 -0.02394600 0.33908800
v 0.02806100 -0.02394600 0.33908800
v 0.01831500 -0.03212300 0.33908800
v 0.02354600 -0.02846100 0.33908800
v 0.02354600 -0.02846100 0.33908800
v 0.01252800 -0.03482200 0.33908800
v 0.01252800 -0.03482200 0.33908800
v 0.00636100 -0.03647400 0.33908800
v 0.00636100 -0.03647400 0.33908800
v 0.00000000 -0.03703100 0.33908800
v 0.00000000 -0.03703100 0.33908800
v -0.00636100 -0.03647400 0.33908800
v -0.00636100 -0.03647400 0.33908800
v -0.01252800 -0.03482200 0.33908800
v -0.01252800 -0.03482200 0.33908800
v -0.01831500 -0.03212300 0.33908800
v -0.02354600 -0.02846100 0.33908800
v -0.03172300 -0.01871500 0.33908800
v -0.03172300 -0.01871500 0.33908800
v -0.02806100 -0.02394600 0.33908800
v -0.02806100 -0.02394600 0.33908800
v -0.03442100 -0.01292800 0.33908800
v -0.03442100 -0.01292800 0.33908800
v -0.03607400 -0.00676100 0.33908800
v -0.03663100 -0.00040000 0.33908800
v -0.03607400 0.00596100 0.33908800
v -0.03442200 0.01212800 0.33908800
v -0.03442200 0.01212800 0.33908800
v -0.03442200 0.01212800 0.33908800
v -0.03172300 0.01791500 0.33908800
v -0.03172300 0.01791500 0.33908800
v -0.02806100 0.02314600 0.33908800
v -0.02806100 0.02314600 0.33908800
v -0.02806100 0.02314600 0.33908800
v -0.01831500 0.03132300 0.33908800
v -0.01831500 0.03132300 0.33908800
v -0.02354600 0.02766100 0.33908800
v -0.02354600 0.02766100 0.33908800
v -0.01252800 0.03402100 0.33908800
v -0.01252800 0.03402100 0.33908800
v -0.00636100 0.03567400 0.33908800
v -0.00636100 0.03567400 0.33908800
v -0.00636100 0.03567400 0.33908800
v -0.00000000 0.03623100 0.33908800
v -0.00000000 0.03623100 0.33908800
v 0.00636100 0.03567400 0.33908800
v 0.00636100 0.03567400 0.33908800
v 0.01268000 0.03398400 0.33908800
v 0.01268000 0.03398400 0.33908800
v 0.01268000 0.03398400 0.33908800
v 0.01268000 0.03398400 0.33908800
v 0.01831500 0.03132300 0.33908800
v 0.01831500 0.03132300 0.33908800
v 0.02354600 0.02766100 0.33908800
v 0.02354600 0.02766100 0.33908800
v 0.03172300 0.01791500 0.33908800
v 0.03172300 0.01791500 0.33908800
v 0.02806100 0.02314600 0.33908800
v 0.03442100 0.01212800 0.33908800
v 0.03442100 0.01212800 0.33908800
v 0.03607400 0.00596100 0.33908800
v 0.03233600 0.01896300 0.09291600
v 0.03233600 0.01896300 0.09291600
v 0.03233600 0.01896300 0.09291600
v 0.03233600 0.01896300 0.09291600
v 0.03233600 0.01896300 0.09291600
v -0.00407800 0.03706400 0.09159000
v -0.00407800 0.03706400 0.09159000
v -0.00407800 0.03706400 0.09159000
v -0.00407800 0.03706400 0.09159000
v -0.00407800 0.03706400 0.09159000
v -0.03670500 0.00827100 0.09150300
v -0.03670500 0.00827100 0.09150300
v -0.03670500 0.00827100 0.09150300
v -0.03670500 0.00827100 0.09150300
v -0.03670500 0.00827100 0.09150300
v -0.03777700 -0.00079800 0.09166700
v -0.03777700 -0.00079800 0.09166700
v -0.03777700 -0.00079800 0.09166700
v -0.03777700 -0.00079800 0.09166700
v -0.03777700 -0.00079800 0.09166700
v -0.03777700 -0.00079800 0.09166700
v -0.02068000 -0.03190400 0.09159100
v -0.02068000 -0.03190400 0.09159100
v -0.02068000 -0.03190400 0.09159100
v -0.02068000 -0.03190400 0.09159100
v -0.01552700 -0.03477100 0.09150400
v -0.01552700 -0.03477100 0.09150400
v -0.01552700 -0.03477100 0.09150400
v -0.01552700 -0.03477100 0.09150400
v -0.01552700 -0.03477100 0.09150400
v -0.01552700 -0.03477100 0.09150400
v 0.02720500 -0.02647100 0.09159300
v 0.02720500 -0.02647100 0.09159300
v 0.02720500 -0.02647100 0.09159300
v 0.02720500 -0.02647100 0.09159300
v 0.02720500 -0.02647100 0.09159300
v 0.02720500 -0.02647100 0.09159300
v 0.02281200 -0.03043400 0.09150300
v 0.02281200 -0.03043400 0.09150300
v 0.02281200 -0.03043400 0.09150300
v 0.02281200 -0.03043400 0.09150300
v 0.03772800 0.00261600 0.09145400
v 0.03772800 0.00261600 0.09145400
v 0.03772800 0.00261600 0.09145400
v 0.03772800 0.00261600 0.09145400
v 0.03772800 0.00261600 0.09145400
v 0.03772800 0.00261600 0.09145400
v 0.03720900 -0.00626800 0.09162600
v 0.03720900 -0.00626800 0.09162600
v 0.03720900 -0.00626800 0.09162600
v 0.03720900 -0.00626800 0.09162600
v 0.03720900 -0.00626800 0.09162600
v 0.03591700 -0.01178600 0.09159900
v 0.03591700 -0.01178600 0.09159900
v 0.03591700 -0.01178600 0.09159900
v 0.03591700 -0.01178600 0.09159900
v 0.03591700 -0.01178600 0.09159900
v 0.03220100 -0.01989100 0.09312000
v 0.03220100 -0.01989100 0.09312000
v 0.03220100 -0.01989100 0.09312000
v 0.03220100 -0.01989100 0.09312000
v 0.03220100 -0.01989100 0.09312000
v 0.03220100 -0.01989100 0.09312000
v 0.01782800 -0.03359900 0.09159300
v 0.01782800 -0.03359900 0.09159300
v 0.01782800 -0.03359900 0.09159300
v 0.01782800 -0.03359900 0.09159300
v 0.01782800 -0.03359900 0.09159300
v 0.01782800 -0.03359900 0.09159300
v 0.01033900 -0.03679700 0.09153300
v 0.01033900 -0.03679700 0.09153300
v 0.01033900 -0.03679700 0.09153300
v 0.01033900 -0.03679700 0.09153300
v 0.01033900 -0.03679700 0.09153300
v 0.01033900 -0.03679700 0.09153300
v 0.00121700 -0.03806600 0.09158700
v 0.00121700 -0.03806600 0.09158700
v 0.00121700 -0.03806600 0.09158700
v 0.00121700 -0.03806600 0.09158700
v 0.00121700 -0.03806600 0.09158700
v -0.00710100 -0.03746900 0.09178700
v -0.00710100 -0.03746900 0.09178700
v -0.00710100 -0.03746900 0.09178700
v -0.00710100 -0.03746900 0.09178700
v -0.00710100 -0.03746900 0.09178700
v -0.00710100 -0.03746900 0.09178700
v -0.02522400 -0.02839700 0.09159200
v -0.02522400 -0.02839700 0.09159200
v -0.02522400 -0.02839700 0.09159200
v -0.02522400 -0.02839700 0.09159200
v -0.02522400 -0.02839700 0.09159200
v -0.02522400 -0.02839700 0.09159200
v -0.03076300 -0.02243000 0.09153300
v -0.03076300 -0.02243000 0.09153300
v -0.03076300 -0.02243000 0.09153300
v -0.03076300 -0.02243000 0.09153300
v -0.03076300 -0.02243000 0.09153300
v -0.03076300 -0.02243000 0.09153300
v -0.03495700 -0.01445900 0.09160000
v -0.03495700 -0.01445900 0.09160000
v -0.03495700 -0.01445900 0.09160000
v -0.03495700 -0.01445900 0.09160000
v -0.03495700 -0.01445900 0.09160000
v -0.03676700 -0.00881000 0.09150300
v -0.03676700 -0.00881000 0.09150300
v -0.03676700 -0.00881000 0.09150300
v -0.03676700 -0.00881000 0.09150300
v -0.03676700 -0.00881000 0.09150300
v -0.03224600 0.01914100 0.09154100
v -0.03224600 0.01914100 0.09154100
v -0.03224600 0.01914100 0.09154100
v -0.03224600 0.01914100 0.09154100
v -0.03224600 0.01914100 0.09154100
v -0.02726300 0.02571200 0.09178100
v -0.02726300 0.02571200 0.09178100
v -0.02726300 0.02571200 0.09178100
v -0.02726300 0.02571200 0.09178100
v -0.02726300 0.02571200 0.09178100
v -0.02726300 0.02571200 0.09178100
v -0.02047400 0.03123000 0.09159900
v -0.02047400 0.03123000 0.09159900
v -0.02047400 0.03123000 0.09159900
v -0.02047400 0.03123000 0.09159900
v -0.02047400 0.03123000 0.09159900
v -0.01543000 0.03397500 0.09159700
v -0.01543000 0.03397500 0.09159700
v -0.01543000 0.03397500 0.09159700
v -0.01543000 0.03397500 0.09159700
v -0.01543000 0.03397500 0.09159700
v 0.00749100 0.03655300 0.09154100
v 0.00749100 0.03655300 0.09154100
v 0.00749100 0.03655300 0.09154100
v 0.00749100 0.03655300 0.09154100
v 0.00749100 0.03655300 0.09154100
v 0.01535000 0.03409100 0.09177300
v 0.01535000 0.03409100 0.09177300
v 0.01535000 0.03409100 0.09177300
v 0.01535000 0.03409100 0.09177300
v 0.01535000 0.03409100 0.09177300
v 0.01535000 0.03409100 0.09177300
v 0.01535000 0.03409100 0.09177300
v 0.02285200 0.02955800 0.09159900
v 0.02285200 0.02955800 0.09159900
v 0.02285200 0.02955800 0.09159900
v 0.02285200 0.02955800 0.09159900
v 0.02285200 0.02955800 0.09159900
v 0.02729100 0.02563300 0.09150300
v 0.02729100 0.02563300 0.09150300
v 0.02729100 0.02563300 0.09150300
v 0.02729100 0.02563300 0.09150300
v 0.02729100 0.02563300 0.09150300
v 0.02729100 0.02563300 0.09150300
v -0.03487300 0.01388100 0.09159200
v -0.03487300 0.01388100 0.09159200
v -0.03487300 0.01388100 0.09159200
v -0.03487300 0.01388100 0.09159200
v -0.03487300 0.01388100 0.09159200
v -0.00987500 0.03600000 0.09150400
v -0.00987500 0.03600000 0.09150400
v -0.00987500 0.03600000 0.09150400
v -0.00987500 0.03600000 0.09150400
v -0.00987500 0.03600000 0.09150400
v 0.00165900 0.03724700 0.09159200
v 0.00165900 0.03724700 0.09159200
v 0.00165900 0.03724700 0.09159200
v 0.00165900 0.03724700 0.09159200
v 0.00165900 0.03724700 0.09159200
v 0.03597500 0.01092400 0.09150300
v 0.03597500 0.01092400 0.09150300
v 0.03597500 0.01092400 0.09150300
v 0.03597500 0.01092400 0.09150300
v 0.03597500 0.01092400 0.09150300
v 0.03080600 -0.02200000 0.33908800
v 0.03080600 -0.02200000 0.33908800
v 0.03080600 -0.02200000 0.33908800
v 0.03080600 -0.02200000 0.33908800
v 0.03080600 -0.02200000 0.33908800
v 0.03080600 -0.02200000 0.33908800
v 0.03080600 -0.02200000 0.33908800
v 0.03625600 -0.01050600 0.33908800
v 0.03625600 -0.01050600 0.33908800
v 0.03625600 -0.01050600 0.33908800
v 0.03625600 -0.01050600 0.33908800
v 0.03625600 -0.01050600 0.33908800
v 0.03625600 -0.01050600 0.33908800
v 0.03625600 -0.01050600 0.33908800
v 0.03625600 -0.01050600 0.33908800
v 0.03750000 -0.00040000 0.33908800
v 0.03750000 -0.00040000 0.33908800
v 0.03750000 -0.00040000 0.33908800
v 0.03750000 -0.00040000 0.33908800
v 0.03620800 0.00979700 0.33908800
v 0.03620800 0.00979700 0.33908800
v 0.03620800 0.00979700 0.33908800
v 0.03620800 0.00979700 0.33908800
v 0.03620800 0.00979700 0.33908800
v 0.03620800 0.00979700 0.33908800
v 0.03080600 0.02120000 0.33908800
v 0.03080600 0.02120000 0.33908800
v 0.03080600 0.02120000 0.33908800
v 0.03080600 0.02120000 0.33908800
v 0.03080600 0.02120000 0.33908800
v 0.02186600 0.03023400 0.33908800
v 0.02186600 0.03023400 0.33908800
v 0.02186600 0.03023400 0.33908800
v 0.02186600 0.03023400 0.33908800
v 0.02186600 0.03023400 0.33908800
v 0.02186600 0.03023400 0.33908800
v 0.00439000 0.03706200 0.33908800
v 0.00439000 0.03706200 0.33908800
v 0.00439000 0.03706200 0.33908800
v 0.00439000 0.03706200 0.33908800
v 0.00439000 0.03706200 0.33908800
v 0.00439000 0.03706200 0.33908800
v 0.00439000 0.03706200 0.33908800
v 0.00439000 0.03706200 0.33908800
v 0.00439000 0.03706200 0.33908800
v -0.00980700 0.03592300 0.33908800
v -0.00980700 0.03592300 0.33908800
v -0.00980700 0.03592300 0.33908800
v -0.00980700 0.03592300 0.33908800
v -0.00980700 0.03592300 0.33908800
v -0.00980700 0.03592300 0.33908800
v -0.00980700 0.03592300 0.33908800
v -0.00980700 0.03592300 0.33908800
v -0.02133900 0.03060300 0.33908800
v -0.02133900 0.03060300 0.33908800
v -0.02133900 0.03060300 0.33908800
v -0.02133900 0.03060300 0.33908800
v -0.02133900 0.03060300 0.33908800
v -0.02133900 0.03060300 0.33908800
v -0.02133900 0.03060300 0.33908800
v -0.03070300 0.02140900 0.33908800
v -0.03070300 0.02140900 0.33908800
v -0.03070300 0.02140900 0.33908800
v -0.03070300 0.02140900 0.33908800
v -0.03070300 0.02140900 0.33908800
v -0.03070300 0.02140900 0.33908800
v -0.03070300 0.02140900 0.33908800
v -0.03070300 0.02140900 0.33908800
v -0.03642700 0.00899900 0.33908800
v -0.03642700 0.00899900 0.33908800
v -0.03642700 0.00899900 0.33908800
v -0.03642700 0.00899900 0.33908800
v -0.03642700 0.00899900 0.33908800
v -0.03642700 0.00899900 0.33908800
v -0.03749100 -0.00356100 0.33908800
v -0.03749100 -0.00356100 0.33908800
v -0.03749100 -0.00356100 0.33908800
v -0.03749100 -0.00356100 0.33908800
v -0.03749100 -0.00356100 0.33908800
v -0.03430100 -0.01589600 0.33908800
v -0.03430100 -0.01589600 0.33908800
v -0.03430100 -0.01589600 0.33908800
v -0.03430100 -0.01589600 0.33908800
v -0.03430100 -0.01589600 0.33908800
v -0.03430100 -0.01589600 0.33908800
v -0.03430100 -0.01589600 0.33908800
v -0.02872600 -0.02450400 0.33908800
v -0.02872600 -0.02450400 0.33908800
v -0.02872600 -0.02450400 0.33908800
v -0.02872600 -0.02450400 0.33908800
v -0.02125400 -0.03144000 0.33908800
v -0.02125400 -0.03144000 0.33908800
v -0.02125400 -0.03144000 0.33908800
v -0.02125400 -0.03144000 0.33908800
v -0.02125400 -0.03144000 0.33908800
v -0.02125400 -0.03144000 0.33908800
v -0.00980700 -0.03672300 0.33908800
v -0.00980700 -0.03672300 0.33908800
v -0.00980700 -0.03672300 0.33908800
v -0.00980700 -0.03672300 0.33908800
v -0.00980700 -0.03672300 0.33908800
v -0.00980700 -0.03672300 0.33908800
v 0.00290800 -0.03791100 0.33908800
v 0.00290800 -0.03791100 0.33908800
v 0.00290800 -0.03791100 0.33908800
v 0.00290800 -0.03791100 0.33908800
v 0.00290800 -0.03791100 0.33908800
v 0.00290800 -0.03791100 0.33908800
v 0.00290800 -0.03791100 0.33908800
v 0.01282600 -0.03563800 0.33908800
v 0.01282600 -0.03563800 0.33908800
v 0.01282600 -0.03563800 0.33908800
v 0.01282600 -0.03563800 0.33908800
v 0.02193300 -0.03096200 0.33908800
v 0.02193300 -0.03096200 0.33908800
v 0.02193300 -0.03096200 0.33908800
v 0.02193300 -0.03096200 0.33908800
v 0.02193300 -0.03096200 0.33908800
v 0.02193300 -0.03096200 0.33908800
v 0.02193300 -0.03096200 0.33908800
vn 0.04080000 0.99430000 0.09860000
vn -0.06210000 0.99800000 0.01260000
vn 0.10140000 0.99480000 0.01130000
vn 0.10140000 0.99480000 0.01130000
vn 0.23840000 0.95970000 0.14860000
vn 0.37440000 0.92710000 0.01760000
vn 0.23840000 0.95970000 0.14860000
vn 0.17950000 0.98240000 -0.05210000
vn 0.30380000 0.94790000 0.09600000
vn 0.49020000 0.87090000 0.03630000
vn 0.37440000 0.92710000 0.01760000
vn 0.43640000 0.89390000 0.10230000
vn 0.49020000 0.87090000 0.03630000
vn 0.59390000 0.80440000 0.01300000
vn 0.55930000 0.82480000 0.08360000
vn 0.67010000 0.73560000 0.09940000
vn 0.59390000 0.80440000 0.01300000
vn 0.71710000 0.69680000 0.01270000
vn 0.79940000 0.58180000 0.14990000
vn 0.71710000 0.69680000 0.01270000
vn 0.76520000 0.64050000 -0.06550000
vn 0.79940000 0.58180000 0.14990000
vn 0.88260000 0.46940000 0.02580000
vn 0.84570000 0.52500000 0.09630000
vn 0.88260000 0.46940000 0.02580000
vn 0.90720000 0.40750000 0.10410000
vn 0.93520000 0.35200000 0.03790000
vn 0.97200000 0.23450000 0.01200000
vn 0.93520000 0.35200000 0.03790000
vn 0.95760000 0.27460000 0.08720000
vn 0.98610000 0.13610000 0.09590000
vn 0.97200000 0.23450000 0.01200000
vn 0.99730000 0.07290000 0.00480000
vn 0.99730000 0.07290000 0.00480000
vn 0.98560000 -0.06810000 0.15490000
vn 0.98640000 -0.13140000 0.09910000
vn 0.98560000 -0.06810000 0.15490000
vn 0.99890000 -0.00860000 -0.04710000
vn 0.97800000 -0.20780000 0.01800000
vn 0.97800000 -0.20780000 0.01800000
vn 0.94270000 -0.33150000 0.03640000
vn 0.95620000 -0.27410000 0.10240000
vn 0.90950000 -0.40710000 0.08380000
vn 0.94270000 -0.33150000 0.03640000
vn 0.89540000 -0.44520000 0.01280000
vn 0.89540000 -0.44520000 0.01280000
vn 0.81080000 -0.58520000 0.01230000
vn 0.84110000 -0.53170000 0.09930000
vn 0.71170000 -0.68610000 0.15110000
vn 0.81080000 -0.58520000 0.01230000
vn 0.67070000 -0.73550000 0.09600000
vn 0.71170000 -0.68610000 0.15110000
vn 0.61560000 -0.78780000 0.01910000
vn 0.76250000 -0.64440000 -0.05800000
vn 0.55850000 -0.82310000 0.10260000
vn 0.50910000 -0.85990000 0.03770000
vn 0.61560000 -0.78780000 0.01910000
vn 0.43720000 -0.89510000 0.08760000
vn 0.50910000 -0.85990000 0.03770000
vn 0.39970000 -0.91660000 0.01140000
vn 0.30560000 -0.94730000 0.09580000
vn 0.39970000 -0.91660000 0.01140000
vn 0.24490000 -0.96950000 0.00470000
vn 0.24490000 -0.96950000 0.00470000
vn 0.10040000 -0.98210000 0.15960000
vn 0.16440000 -0.98410000 -0.06650000
vn 0.10040000 -0.98210000 0.15960000
vn 0.04230000 -0.99390000 0.10220000
vn -0.04790000 -0.99860000 0.02460000
vn -0.16530000 -0.98550000 0.03780000
vn -0.10340000 -0.98970000 0.09950000
vn -0.04790000 -0.99860000 0.02460000
vn -0.16530000 -0.98550000 0.03780000
vn -0.24260000 -0.96650000 0.08410000
vn -0.28290000 -0.95910000 0.01260000
vn -0.28290000 -0.95910000 0.01260000
vn -0.43560000 -0.90010000 0.00410000
vn -0.37330000 -0.92280000 0.09570000
vn -0.43560000 -0.90010000 0.00410000
vn -0.55140000 -0.81890000 0.15910000
vn -0.60430000 -0.79050000 0.09980000
vn -0.50570000 -0.86130000 -0.04920000
vn -0.55140000 -0.81890000 0.15910000
vn -0.66890000 -0.74310000 0.01920000
vn -0.75840000 -0.65070000 0.03750000
vn -0.71320000 -0.69340000 0.10240000
vn -0.66890000 -0.74310000 0.01920000
vn -0.83320000 -0.55280000 0.01350000
vn -0.80600000 -0.58530000 0.08880000
vn -0.75840000 -0.65070000 0.03750000
vn -0.91230000 -0.40960000 0.00460000
vn -0.83320000 -0.55280000 0.01350000
vn -0.87990000 -0.46540000 0.09520000
vn -0.91230000 -0.40960000 0.00460000
vn -0.94920000 -0.27310000 0.15660000
vn -0.94920000 -0.27310000 0.15660000
vn -0.97160000 -0.21490000 0.09940000
vn -0.99010000 -0.13930000 0.01850000
vn -0.94150000 -0.33380000 -0.04700000
vn -0.99930000 -0.01090000 0.03630000
vn -0.99010000 -0.13930000 0.01850000
vn -0.99220000 -0.07050000 0.10260000
vn -0.99390000 0.07080000 0.08440000
vn -0.99930000 -0.01090000 0.03630000
vn -0.99360000 0.11210000 0.01240000
vn -0.96200000 0.27260000 0.01220000
vn -0.97240000 0.21120000 0.09930000
vn -0.99360000 0.11210000 0.01240000
vn -0.96200000 0.27260000 0.01220000
vn -0.90320000 0.40120000 0.15250000
vn -0.88090000 0.46360000 0.09540000
vn -0.84800000 0.52970000 0.01890000
vn -0.93670000 0.34600000 -0.05310000
vn -0.90320000 0.40120000 0.15250000
vn -0.80500000 0.58420000 0.10350000
vn -0.77250000 0.63400000 0.03630000
vn -0.84800000 0.52970000 0.01890000
vn -0.68910000 0.72450000 0.01320000
vn -0.71480000 0.69430000 0.08340000
vn -0.77250000 0.63400000 0.03630000
vn -0.56170000 0.82720000 0.01310000
vn -0.68910000 0.72450000 0.01320000
vn -0.60750000 0.78810000 0.09940000
vn -0.56170000 0.82720000 0.01310000
vn -0.43430000 0.88840000 0.14850000
vn -0.43430000 0.88840000 0.14850000
vn -0.30910000 0.95090000 0.01880000
vn -0.37800000 0.92080000 0.09630000
vn -0.49550000 0.86680000 -0.05620000
vn -0.30910000 0.95090000 0.01880000
vn -0.18430000 0.98210000 0.03820000
vn -0.24200000 0.96480000 0.10300000
vn -0.06210000 0.99800000 0.01260000
vn -0.10340000 0.99080000 0.08680000
vn -0.18430000 0.98210000 0.03820000
vn -0.99930000 -0.01090000 0.03630000
vn -0.72720000 -0.04850000 0.68470000
vn -0.99220000 -0.07050000 0.10260000
vn -0.99390000 0.07080000 0.08440000
vn -0.73110000 0.04710000 0.68070000
vn -0.67990000 0.25720000 0.68670000
vn -0.70770000 0.15670000 0.68900000
vn -0.96200000 0.27260000 0.01220000
vn -0.97240000 0.21120000 0.09930000
vn -0.93670000 0.34600000 -0.05310000
vn -0.90320000 0.40120000 0.15250000
vn -0.67990000 0.25720000 0.68670000
vn -0.88090000 0.46360000 0.09540000
vn -0.93670000 0.34600000 -0.05310000
vn -0.64020000 0.32950000 0.69390000
vn -0.64080000 0.30380000 0.70500000
vn -0.88090000 0.46360000 0.09540000
vn -0.80500000 0.58420000 0.10350000
vn -0.84800000 0.52970000 0.01890000
vn -0.59370000 0.43580000 0.67640000
vn -0.64020000 0.32950000 0.69390000
vn -0.49550000 0.86680000 -0.05620000
vn -0.40390000 0.58780000 0.70100000
vn -0.60750000 0.78810000 0.09940000
vn -0.56170000 0.82720000 0.01310000
vn -0.44110000 0.57620000 0.68800000
vn -0.35680000 0.63680000 0.68350000
vn -0.43430000 0.88840000 0.14850000
vn -0.35680000 0.63680000 0.68350000
vn -0.28090000 0.66850000 0.68860000
vn -0.49550000 0.86680000 -0.05620000
vn -0.37800000 0.92080000 0.09630000
vn -0.28090000 0.66850000 0.68860000
vn -0.17630000 0.70540000 0.68650000
vn -0.23040000 0.66740000 0.70810000
vn -0.37800000 0.92080000 0.09630000
vn -0.30910000 0.95090000 0.01880000
vn -0.24200000 0.96480000 0.10300000
vn 0.09120000 0.70800000 0.70030000
vn 0.13440000 0.71700000 0.68400000
vn 0.03350000 0.72510000 0.68780000
vn 0.23840000 0.95970000 0.14860000
vn 0.04080000 0.99430000 0.09860000
vn 0.10140000 0.99480000 0.01130000
vn 0.17950000 0.98240000 -0.05210000
vn 0.17950000 0.98240000 -0.05210000
vn 0.13440000 0.71700000 0.68400000
vn 0.21960000 0.70130000 0.67820000
vn 0.30380000 0.94790000 0.09600000
vn 0.21960000 0.70130000 0.67820000
vn 0.32320000 0.65640000 0.68170000
vn 0.43640000 0.89390000 0.10230000
vn 0.27030000 0.66610000 0.69520000
vn 0.37440000 0.92710000 0.01760000
vn 0.30380000 0.94790000 0.09600000
vn 0.55360000 0.45030000 0.70050000
vn 0.71710000 0.69680000 0.01270000
vn 0.67010000 0.73560000 0.09940000
vn 0.49380000 0.53800000 0.68310000
vn 0.79940000 0.58180000 0.14990000
vn 0.76520000 0.64050000 -0.06550000
vn 0.55160000 0.45880000 0.69660000
vn 0.55360000 0.45030000 0.70050000
vn 0.76520000 0.64050000 -0.06550000
vn 0.61700000 0.39740000 0.67920000
vn 0.84570000 0.52500000 0.09630000
vn 0.61700000 0.39740000 0.67920000
vn 0.66160000 0.29310000 0.69020000
vn 0.84570000 0.52500000 0.09630000
vn 0.90720000 0.40750000 0.10410000
vn 0.88260000 0.46940000 0.02580000
vn 0.98640000 -0.13140000 0.09910000
vn 0.99890000 -0.00860000 -0.04710000
vn 0.72460000 -0.09760000 0.68220000
vn 0.72530000 0.00780000 0.68840000
vn 0.68980000 -0.16860000 0.70410000
vn 0.97800000 -0.20780000 0.01800000
vn 0.95620000 -0.27410000 0.10240000
vn 0.98640000 -0.13140000 0.09910000
vn 0.69500000 -0.20210000 0.69000000
vn 0.72460000 -0.09760000 0.68220000
vn 0.54470000 -0.46800000 0.69590000
vn 0.76250000 -0.64440000 -0.05800000
vn 0.81080000 -0.58520000 0.01230000
vn 0.71170000 -0.68610000 0.15110000
vn 0.64470000 -0.35750000 0.67570000
vn 0.54090000 -0.48310000 0.68850000
vn 0.60170000 -0.38400000 0.70040000
vn 0.84110000 -0.53170000 0.09930000
vn 0.76250000 -0.64440000 -0.05800000
vn 0.67070000 -0.73550000 0.09600000
vn 0.49770000 -0.53650000 0.68150000
vn 0.54470000 -0.46800000 0.69590000
vn 0.55850000 -0.82310000 0.10260000
vn 0.61560000 -0.78780000 0.01910000
vn 0.40030000 -0.59160000 0.69980000
vn 0.67070000 -0.73550000 0.09600000
vn 0.49770000 -0.53650000 0.68150000
vn 0.16440000 -0.98410000 -0.06650000
vn 0.04790000 -0.71370000 0.69880000
vn 0.04230000 -0.99390000 0.10220000
vn 0.13540000 -0.71910000 0.68160000
vn 0.02940000 -0.72270000 0.69050000
vn 0.04230000 -0.99390000 0.10220000
vn 0.02940000 -0.72270000 0.69050000
vn -0.07890000 -0.72630000 0.68290000
vn -0.04790000 -0.99860000 0.02460000
vn -0.10340000 -0.98970000 0.09950000
vn -0.60430000 -0.79050000 0.09980000
vn -0.43140000 -0.55980000 0.70750000
vn -0.50570000 -0.86130000 -0.04920000
vn -0.35530000 -0.63910000 0.68220000
vn -0.60430000 -0.79050000 0.09980000
vn -0.43140000 -0.55980000 0.70750000
vn -0.66890000 -0.74310000 0.01920000
vn -0.52580000 -0.50970000 0.68100000
vn -0.42670000 -0.57150000 0.70100000
vn -0.71320000 -0.69340000 0.10240000
vn -0.70860000 -0.15500000 0.68840000
vn -0.94150000 -0.33380000 -0.04700000
vn -0.97160000 -0.21490000 0.09940000
vn -0.67990000 -0.25740000 0.68670000
vn -0.72720000 -0.04850000 0.68470000
vn -0.70010000 -0.10460000 0.70640000
vn -0.97160000 -0.21490000 0.09940000
vn -0.99010000 -0.13930000 0.01850000
vn -0.70860000 -0.15500000 0.68840000
vn -0.99220000 -0.07050000 0.10260000
vn -0.57420000 -0.44730000 0.68570000
vn -0.64910000 -0.32950000 0.68560000
vn -0.57740000 -0.42180000 0.69900000
vn -0.80600000 -0.58530000 0.08880000
vn -0.87990000 -0.46540000 0.09520000
vn -0.83320000 -0.55280000 0.01350000
vn -0.87990000 -0.46540000 0.09520000
vn -0.91230000 -0.40960000 0.00460000
vn -0.94920000 -0.27310000 0.15660000
vn -0.67990000 -0.25740000 0.68670000
vn -0.65650000 -0.28630000 0.69790000
vn -0.64910000 -0.32950000 0.68560000
vn -0.94150000 -0.33380000 -0.04700000
vn -0.75840000 -0.65070000 0.03750000
vn -0.57740000 -0.42180000 0.69900000
vn -0.71320000 -0.69340000 0.10240000
vn -0.80600000 -0.58530000 0.08880000
vn -0.52580000 -0.50970000 0.68100000
vn -0.37330000 -0.92280000 0.09570000
vn -0.28290000 -0.95910000 0.01260000
vn -0.28360000 -0.66760000 0.68840000
vn -0.24260000 -0.96650000 0.08410000
vn -0.16650000 -0.68490000 0.70930000
vn -0.27110000 -0.66730000 0.69370000
vn -0.11560000 -0.73640000 0.66660000
vn -0.28360000 -0.66760000 0.68840000
vn -0.35530000 -0.63910000 0.68220000
vn -0.37330000 -0.92280000 0.09570000
vn -0.50570000 -0.86130000 -0.04920000
vn -0.55140000 -0.81890000 0.15910000
vn -0.43560000 -0.90010000 0.00410000
vn -0.16650000 -0.68490000 0.70930000
vn -0.07890000 -0.72630000 0.68290000
vn -0.24260000 -0.96650000 0.08410000
vn -0.10340000 -0.98970000 0.09950000
vn -0.16530000 -0.98550000 0.03780000
vn 0.30560000 -0.94730000 0.09580000
vn 0.43720000 -0.89510000 0.08760000
vn 0.39970000 -0.91660000 0.01140000
vn 0.21020000 -0.68670000 0.69590000
vn 0.32180000 -0.65770000 0.68110000
vn 0.21020000 -0.68670000 0.69590000
vn 0.30560000 -0.94730000 0.09580000
vn 0.24490000 -0.96950000 0.00470000
vn 0.13540000 -0.71910000 0.68160000
vn 0.16440000 -0.98410000 -0.06650000
vn 0.10040000 -0.98210000 0.15960000
vn 0.22550000 -0.68880000 0.68900000
vn 0.40030000 -0.59160000 0.69980000
vn 0.32180000 -0.65770000 0.68110000
vn 0.55850000 -0.82310000 0.10260000
vn 0.50910000 -0.85990000 0.03770000
vn 0.39210000 -0.59250000 0.70380000
vn 0.43720000 -0.89510000 0.08760000
vn 0.60170000 -0.38400000 0.70040000
vn 0.84110000 -0.53170000 0.09930000
vn 0.90950000 -0.40710000 0.08380000
vn 0.67260000 -0.29560000 0.67840000
vn 0.89540000 -0.44520000 0.01280000
vn 0.69500000 -0.20210000 0.69000000
vn 0.67260000 -0.29560000 0.67840000
vn 0.90950000 -0.40710000 0.08380000
vn 0.94270000 -0.33150000 0.03640000
vn 0.95620000 -0.27410000 0.10240000
vn 0.70230000 0.20210000 0.68250000
vn 0.97200000 0.23450000 0.01200000
vn 0.71560000 0.08760000 0.69300000
vn 0.95760000 0.27460000 0.08720000
vn 0.98610000 0.13610000 0.09590000
vn 0.70560000 0.05560000 0.70640000
vn 0.98610000 0.13610000 0.09590000
vn 0.99890000 -0.00860000 -0.04710000
vn 0.99730000 0.07290000 0.00480000
vn 0.71560000 0.08760000 0.69300000
vn 0.72530000 0.00780000 0.68840000
vn 0.98560000 -0.06810000 0.15490000
vn 0.66160000 0.29310000 0.69020000
vn 0.70230000 0.20210000 0.68250000
vn 0.66200000 0.26120000 0.70250000
vn 0.95760000 0.27460000 0.08720000
vn 0.90720000 0.40750000 0.10410000
vn 0.93520000 0.35200000 0.03790000
vn 0.40250000 0.60280000 0.68900000
vn 0.55930000 0.82480000 0.08360000
vn 0.67010000 0.73560000 0.09940000
vn 0.59390000 0.80440000 0.01300000
vn 0.41760000 0.57990000 0.69950000
vn 0.49380000 0.53800000 0.68310000
vn 0.32320000 0.65640000 0.68170000
vn 0.43640000 0.89390000 0.10230000
vn 0.49020000 0.87090000 0.03630000
vn 0.40250000 0.60280000 0.68900000
vn 0.55930000 0.82480000 0.08360000
vn 0.04080000 0.99430000 0.09860000
vn -0.06210000 0.99800000 0.01260000
vn 0.03350000 0.72510000 0.68780000
vn -0.10340000 0.99080000 0.08680000
vn -0.07620000 0.72040000 0.68930000
vn -0.04790000 0.71150000 0.70100000
vn -0.17630000 0.70540000 0.68650000
vn -0.24200000 0.96480000 0.10300000
vn -0.18430000 0.98210000 0.03820000
vn -0.10340000 0.99080000 0.08680000
vn -0.07620000 0.72040000 0.68930000
vn -0.60750000 0.78810000 0.09940000
vn -0.71480000 0.69430000 0.08340000
vn -0.68910000 0.72450000 0.01320000
vn -0.54250000 0.48940000 0.68280000
vn -0.51900000 0.49680000 0.69560000
vn -0.44110000 0.57620000 0.68800000
vn -0.80500000 0.58420000 0.10350000
vn -0.71480000 0.69430000 0.08340000
vn -0.59370000 0.43580000 0.67640000
vn -0.51900000 0.49680000 0.69560000
vn -0.77250000 0.63400000 0.03630000
vn -0.99360000 0.11210000 0.01240000
vn -0.97240000 0.21120000 0.09930000
vn -0.73110000 0.04710000 0.68070000
vn -0.70770000 0.15670000 0.68900000
vn -0.70130000 0.12030000 0.70270000
vn -0.99390000 0.07080000 0.08440000
vn 0.33210000 -0.78740000 0.51930000
vn 0.39210000 -0.59250000 0.70380000
vn 0.22900000 -0.91350000 0.33630000
vn 0.32180000 -0.65770000 0.68110000
vn 0.22550000 -0.68880000 0.68900000
vn 0.21020000 -0.68670000 0.69590000
vn 0.49460000 -0.75200000 0.43580000
vn 0.04790000 -0.71370000 0.69880000
vn 0.13540000 -0.71910000 0.68160000
vn 0.22900000 -0.91350000 0.33630000
vn 0.12700000 -0.89450000 0.42860000
vn 0.22550000 -0.68880000 0.68900000
vn 0.11240000 -0.91180000 0.39500000
vn -0.04900000 -0.85460000 0.51700000
vn -0.21550000 -0.91260000 0.34750000
vn 0.11240000 -0.91180000 0.39500000
vn -0.16650000 -0.68490000 0.70930000
vn -0.07890000 -0.72630000 0.68290000
vn 0.04790000 -0.71370000 0.69880000
vn 0.02940000 -0.72270000 0.69050000
vn -0.11560000 -0.73640000 0.66660000
vn -0.28230000 -0.85800000 0.42920000
vn -0.27110000 -0.66730000 0.69370000
vn -0.11560000 -0.73640000 0.66660000
vn -0.21550000 -0.91260000 0.34750000
vn -0.28990000 -0.86180000 0.41630000
vn -0.35530000 -0.63910000 0.68220000
vn -0.28230000 -0.85800000 0.42920000
vn -0.54030000 -0.71910000 0.43700000
vn -0.42670000 -0.57150000 0.70100000
vn -0.27110000 -0.66730000 0.69370000
vn -0.28360000 -0.66760000 0.68840000
vn -0.40950000 -0.75150000 0.51730000
vn -0.43140000 -0.55980000 0.70750000
vn -0.55630000 -0.72100000 0.41320000
vn -0.42670000 -0.57150000 0.70100000
vn -0.78180000 -0.52480000 0.33660000
vn -0.52580000 -0.50970000 0.68100000
vn -0.54030000 -0.71910000 0.43700000
vn -0.62880000 -0.57860000 0.51940000
vn -0.57740000 -0.42180000 0.69900000
vn -0.57420000 -0.44730000 0.68570000
vn 0.49460000 -0.75200000 0.43580000
vn 0.49210000 -0.76310000 0.41900000
vn 0.71450000 -0.55620000 0.42440000
vn 0.56740000 -0.64060000 0.51750000
vn 0.54090000 -0.48310000 0.68850000
vn 0.54470000 -0.46800000 0.69590000
vn 0.49770000 -0.53650000 0.68150000
vn 0.40030000 -0.59160000 0.69980000
vn 0.39210000 -0.59250000 0.70380000
vn 0.84280000 -0.48570000 0.23180000
vn 0.64470000 -0.35750000 0.67570000
vn 0.54090000 -0.48310000 0.68850000
vn 0.71530000 -0.61860000 0.32520000
vn 0.71450000 -0.55620000 0.42440000
vn 0.85590000 -0.31560000 0.40960000
vn 0.84280000 -0.48570000 0.23180000
vn 0.64470000 -0.35750000 0.67570000
vn 0.69500000 -0.20210000 0.69000000
vn 0.60170000 -0.38400000 0.70040000
vn 0.68980000 -0.16860000 0.70410000
vn 0.90400000 -0.26610000 0.33470000
vn 0.67260000 -0.29560000 0.67840000
vn 0.85010000 -0.03950000 0.52510000
vn 0.92810000 0.06680000 0.36620000
vn 0.87650000 -0.20730000 0.43460000
vn 0.70560000 0.05560000 0.70640000
vn 0.68980000 -0.16860000 0.70410000
vn 0.90400000 -0.26610000 0.33470000
vn 0.72460000 -0.09760000 0.68220000
vn 0.72530000 0.00780000 0.68840000
vn 0.66200000 0.26120000 0.70250000
vn 0.82710000 0.37280000 0.42050000
vn 0.92810000 0.06680000 0.36620000
vn 0.70560000 0.05560000 0.70640000
vn 0.71560000 0.08760000 0.69300000
vn 0.70230000 0.20210000 0.68250000
vn 0.83190000 0.17240000 0.52750000
vn 0.10830000 0.87500000 0.47180000
vn 0.09120000 0.70800000 0.70030000
vn 0.12860000 0.88540000 0.44670000
vn -0.05870000 0.87340000 0.48340000
vn -0.04790000 0.71150000 0.70100000
vn 0.03350000 0.72510000 0.68780000
vn 0.27030000 0.66610000 0.69520000
vn 0.13440000 0.71700000 0.68400000
vn 0.40760000 0.84840000 0.33770000
vn 0.09120000 0.70800000 0.70030000
vn 0.21960000 0.70130000 0.67820000
vn 0.12860000 0.88540000 0.44670000
vn 0.24100000 0.81850000 0.52150000
vn 0.27030000 0.66610000 0.69520000
vn 0.47750000 0.77410000 0.41560000
vn 0.48930000 0.77600000 0.39800000
vn 0.41760000 0.57990000 0.69950000
vn 0.32320000 0.65640000 0.68170000
vn 0.40760000 0.84840000 0.33770000
vn 0.40250000 0.60280000 0.68900000
vn 0.48930000 0.77600000 0.39800000
vn 0.57390000 0.63660000 0.51510000
vn 0.72400000 0.54550000 0.42220000
vn 0.55160000 0.45880000 0.69660000
vn 0.55360000 0.45030000 0.70050000
vn 0.49380000 0.53800000 0.68310000
vn 0.41760000 0.57990000 0.69950000
vn 0.61700000 0.39740000 0.67920000
vn 0.66160000 0.29310000 0.69020000
vn 0.66200000 0.26120000 0.70250000
vn 0.82710000 0.37280000 0.42050000
vn 0.55160000 0.45880000 0.69660000
vn 0.73530000 0.61600000 0.28280000
vn 0.88990000 0.35180000 0.29040000
vn 0.72400000 0.54550000 0.42220000
vn -0.51900000 0.49680000 0.69560000
vn -0.59370000 0.43580000 0.67640000
vn -0.64020000 0.32950000 0.69390000
vn -0.81090000 0.40300000 0.42440000
vn -0.68990000 0.50410000 0.51950000
vn -0.64080000 0.30380000 0.70500000
vn -0.66370000 0.66840000 0.33580000
vn -0.54250000 0.48940000 0.68280000
vn -0.44110000 0.57620000 0.68800000
vn -0.56750000 0.71190000 0.41360000
vn -0.56580000 0.72170000 0.39890000
vn -0.66370000 0.66840000 0.33580000
vn -0.40390000 0.58780000 0.70100000
vn -0.54250000 0.48940000 0.68280000
vn -0.28090000 0.66850000 0.68860000
vn -0.41040000 0.75450000 0.51210000
vn -0.56580000 0.72170000 0.39890000
vn -0.23040000 0.66740000 0.70810000
vn -0.35680000 0.63680000 0.68350000
vn -0.40390000 0.58780000 0.70100000
vn -0.30010000 0.84370000 0.44510000
vn -0.29610000 0.85110000 0.43350000
vn -0.04790000 0.71150000 0.70100000
vn -0.23040000 0.66740000 0.70810000
vn -0.29610000 0.85110000 0.43350000
vn -0.05870000 0.87340000 0.48340000
vn -0.02910000 0.90440000 0.42570000
vn -0.16220000 0.84220000 0.51420000
vn -0.17630000 0.70540000 0.68650000
vn -0.07620000 0.72040000 0.68930000
vn -0.81610000 -0.41770000 0.39950000
vn -0.79920000 -0.42410000 0.42600000
vn -0.65650000 -0.28630000 0.69790000
vn -0.57420000 -0.44730000 0.68570000
vn -0.78180000 -0.52480000 0.33660000
vn -0.64910000 -0.32950000 0.68560000
vn -0.67990000 -0.25740000 0.68670000
vn -0.65650000 -0.28630000 0.69790000
vn -0.70860000 -0.15500000 0.68840000
vn -0.70010000 -0.10460000 0.70640000
vn -0.81870000 -0.25350000 0.51530000
vn -0.93490000 -0.08820000 0.34390000
vn -0.89230000 -0.12140000 0.43480000
vn -0.81610000 -0.41770000 0.39950000
vn -0.73110000 0.04710000 0.68070000
vn -0.70130000 0.12030000 0.70270000
vn -0.72720000 -0.04850000 0.68470000
vn -0.70010000 -0.10460000 0.70640000
vn -0.90390000 0.11430000 0.41210000
vn -0.89500000 0.10460000 0.43370000
vn -0.93490000 -0.08820000 0.34390000
vn -0.70770000 0.15670000 0.68900000
vn -0.70130000 0.12030000 0.70270000
vn -0.64080000 0.30380000 0.70500000
vn -0.67990000 0.25720000 0.68670000
vn -0.81310000 0.41010000 0.41310000
vn -0.81090000 0.40300000 0.42440000
vn -0.89500000 0.10460000 0.43370000
vn -0.81450000 0.25780000 0.51970000
vn 0.00020000 -0.00000000 1.00000000
vn 0.00010000 -0.00000000 1.00000000
vn 0.00020000 -0.00000000 1.00000000
vn -0.00000000 -0.00000000 1.00000000
vn 0.00010000 -0.00010000 1.00000000
vn 0.00010000 -0.00000000 1.00000000
vn -0.00000000 0.00010000 1.00000000
vn -0.00000000 -0.00000000 1.00000000
vn -0.00000000 0.00010000 1.00000000
vn -0.00000000 0.00010000 1.00000000
vn -0.00000000 -0.00000000 1.00000000
vn -0.00000000 -0.00010000 1.00000000
vn -0.00000000 -0.00000000 1.00000000
vn -0.00000000 0.00010000 1.00000000
vn -0.00000000 -0.00000000 1.00000000
vn -0.00000000 -0.00000000 1.00000000
vn 0.00010000 -0.00030000 1.00000000
vn 0.00010000 -0.00030000 1.00000000
vn -0.00000000 -0.00010000 1.00000000
vn -0.00000000 -0.00010000 1.00000000
vn -0.00000000 0.00010000 1.00000000
vn -0.00000000 -0.00000000 1.00000000
vn -0.00000000 0.00010000 1.00000000
vn -0.00000000 0.00010000 1.00000000
vn -0.00000000 -0.00000000 1.00000000
vn -0.00000000 -0.00000000 1.00000000
vn -0.00000000 -0.00000000 1.00000000
vn -0.00010000 -0.00010000 1.00000000
vn -0.00020000 -0.00020000 1.00000000
vn -0.00000000 -0.00000000 1.00000000
vn -0.00020000 -0.00020000 1.00000000
vn -0.00010000 -0.00010000 1.00000000
vn -0.00000000 -0.00000000 1.00000000
vn -0.00000000 -0.00000000 1.00000000
vn -0.00000000 -0.00000000 1.00000000
vn -0.00000000 -0.00000000 1.00000000
vn -0.00040000 0.00010000 1.00000000
vn -0.00000000 -0.00000000 1.00000000
vn -0.00010000 -0.00000000 1.00000000
vn -0.00040000 0.00010000 1.00000000
vn -0.00010000 0.00010000 1.00000000
vn -0.00020000 0.00010000 1.00000000
vn -0.00020000 0.00020000 1.00000000
vn -0.00010000 0.00010000 1.00000000
vn -0.00000000 0.00010000 1.00000000
vn -0.00010000 0.00010000 1.00000000
vn -0.00020000 0.00010000 1.00000000
vn -0.00010000 0.00010000 1.00000000
vn -0.00000000 0.00010000 1.00000000
vn -0.00000000 -0.00000000 1.00000000
vn -0.00000000 -0.00010000 1.00000000
vn -0.00000000 -0.00030000 1.00000000
vn -0.00000000 -0.00000000 1.00000000
vn -0.00000000 -0.00020000 1.00000000
vn -0.00000000 -0.00030000 1.00000000
vn -0.00020000 -0.00030000 1.00000000
vn -0.00000000 -0.00020000 1.00000000
vn -0.00000000 -0.00030000 1.00000000
vn -0.00020000 -0.00030000 1.00000000
vn 0.34810000 0.93740000 0.00420000
vn 0.37790000 0.92580000 0.00450000
vn 0.00010000 0.00010000 1.00000000
vn -0.00000000 -0.00030000 1.00000000
vn -0.00000000 -0.00000000 1.00000000
vn 0.00010000 0.00010000 1.00000000
vn -0.00000000 -0.00010000 1.00000000
vn -0.00000000 -0.00000000 1.00000000
vn -0.00000000 -0.00000000 1.00000000
vn -0.00000000 -0.00000000 1.00000000
vn -0.00000000 -0.00010000 1.00000000
vn -0.00000000 -0.00000000 1.00000000
vn 0.73530000 0.61600000 0.28280000
vn 0.88990000 0.35180000 0.29040000
vn 0.91110000 0.41230000 0.00100000
vn 0.90370000 0.42810000 0.00170000
vn 0.79760000 0.60320000 -0.00050000
vn -0.02910000 0.90440000 0.42570000
vn -0.16220000 0.84220000 0.51420000
vn -0.18050000 0.98360000 0.00040000
vn -0.03200000 0.99950000 0.00110000
vn -0.08000000 0.99680000 0.00270000
vn -0.99310000 0.11740000 0.00080000
vn -0.81450000 0.25780000 0.51970000
vn -0.90390000 0.11430000 0.41210000
vn -0.95060000 0.31050000 0.00020000
vn -0.89500000 0.10460000 0.43370000
vn -0.90390000 0.11430000 0.41210000
vn -0.93490000 -0.08820000 0.34390000
vn -0.89230000 -0.12140000 0.43480000
vn -0.99640000 0.08440000 0.00210000
vn -0.99210000 -0.12510000 -0.00020000
vn -0.99310000 0.11740000 0.00080000
vn -0.55630000 -0.72100000 0.41320000
vn -0.48630000 -0.87380000 0.00050000
vn -0.40950000 -0.75150000 0.51730000
vn -0.61100000 -0.79160000 0.00010000
vn -0.40950000 -0.75150000 0.51730000
vn -0.48630000 -0.87380000 0.00050000
vn -0.28230000 -0.85800000 0.42920000
vn -0.41910000 -0.90790000 0.00250000
vn -0.30490000 -0.95240000 -0.00050000
vn -0.28990000 -0.86180000 0.41630000
vn 0.71450000 -0.55620000 0.42440000
vn 0.71530000 -0.61860000 0.32520000
vn 0.66980000 -0.74250000 0.00080000
vn 0.56740000 -0.64060000 0.51750000
vn 0.71060000 -0.70360000 0.00240000
vn 0.79650000 -0.60460000 -0.00070000
vn 0.56740000 -0.64060000 0.51750000
vn 0.66980000 -0.74250000 0.00080000
vn 0.53610000 -0.84420000 0.00010000
vn 0.49210000 -0.76310000 0.41900000
vn 0.85010000 -0.03950000 0.52510000
vn 0.97850000 0.20640000 -0.00000000
vn 0.83190000 0.17240000 0.52750000
vn 0.99210000 0.12570000 0.00240000
vn 0.99830000 -0.05830000 0.00020000
vn 0.92810000 0.06680000 0.36620000
vn 0.85010000 -0.03950000 0.52510000
vn 0.97370000 -0.22800000 -0.00020000
vn 0.87650000 -0.20730000 0.43460000
vn 0.99830000 -0.05830000 0.00020000
vn 0.99250000 -0.12220000 0.00170000
vn 0.85590000 -0.31560000 0.40960000
vn 0.97370000 -0.22800000 -0.00020000
vn 0.90910000 -0.41660000 0.00090000
vn 0.90400000 -0.26610000 0.33470000
vn 0.87650000 -0.20730000 0.43460000
vn 0.84280000 -0.48570000 0.23180000
vn 0.90360000 -0.42840000 0.00150000
vn 0.71530000 -0.61860000 0.32520000
vn 0.79650000 -0.60460000 -0.00070000
vn 0.90910000 -0.41660000 0.00090000
vn 0.85590000 -0.31560000 0.40960000
vn 0.53610000 -0.84420000 0.00010000
vn 0.49210000 -0.76310000 0.41900000
vn 0.33210000 -0.78740000 0.51930000
vn 0.49460000 -0.75200000 0.43580000
vn 0.39270000 -0.91970000 0.00040000
vn 0.45680000 -0.88960000 0.00190000
vn 0.33210000 -0.78740000 0.51930000
vn 0.39270000 -0.91970000 0.00040000
vn 0.12700000 -0.89450000 0.42860000
vn 0.22340000 -0.97470000 0.00230000
vn 0.13780000 -0.99050000 -0.00030000
vn 0.22900000 -0.91350000 0.33630000
vn -0.04900000 -0.85460000 0.51700000
vn 0.11240000 -0.91180000 0.39500000
vn 0.12700000 -0.89450000 0.42860000
vn -0.07170000 -0.99740000 0.00110000
vn 0.13780000 -0.99050000 -0.00030000
vn -0.28990000 -0.86180000 0.41630000
vn -0.04900000 -0.85460000 0.51700000
vn -0.21550000 -0.91260000 0.34750000
vn -0.09300000 -0.99570000 0.00200000
vn -0.30490000 -0.95240000 -0.00050000
vn -0.07170000 -0.99740000 0.00110000
vn -0.68030000 -0.73300000 0.00190000
vn -0.55630000 -0.72100000 0.41320000
vn -0.73290000 -0.68040000 0.00030000
vn -0.61100000 -0.79160000 0.00010000
vn -0.62880000 -0.57860000 0.51940000
vn -0.54030000 -0.71910000 0.43700000
vn -0.62880000 -0.57860000 0.51940000
vn -0.79920000 -0.42410000 0.42600000
vn -0.88500000 -0.46560000 -0.00040000
vn -0.83940000 -0.54360000 0.00240000
vn -0.78180000 -0.52480000 0.33660000
vn -0.73290000 -0.68040000 0.00030000
vn -0.81870000 -0.25350000 0.51530000
vn -0.95230000 -0.30510000 0.00080000
vn -0.88500000 -0.46560000 -0.00040000
vn -0.81610000 -0.41770000 0.39950000
vn -0.79920000 -0.42410000 0.42600000
vn -0.96820000 -0.25040000 0.00250000
vn -0.95230000 -0.30510000 0.00080000
vn -0.99210000 -0.12510000 -0.00020000
vn -0.81870000 -0.25350000 0.51530000
vn -0.89230000 -0.12140000 0.43480000
vn -0.68990000 0.50410000 0.51950000
vn -0.81090000 0.40300000 0.42440000
vn -0.79680000 0.60430000 -0.00060000
vn -0.89460000 0.44680000 0.00150000
vn -0.81310000 0.41010000 0.41310000
vn -0.66370000 0.66840000 0.33580000
vn -0.68990000 0.50410000 0.51950000
vn -0.70060000 0.71360000 0.00270000
vn -0.79680000 0.60430000 -0.00060000
vn -0.63080000 0.77600000 -0.00020000
vn -0.56750000 0.71190000 0.41360000
vn -0.56580000 0.72170000 0.39890000
vn -0.56750000 0.71190000 0.41360000
vn -0.41040000 0.75450000 0.51210000
vn -0.47800000 0.87840000 0.00060000
vn -0.63080000 0.77600000 -0.00020000
vn -0.41890000 0.90800000 0.00240000
vn -0.47800000 0.87840000 0.00060000
vn -0.30010000 0.84370000 0.44510000
vn -0.41040000 0.75450000 0.51210000
vn -0.34250000 0.93950000 0.00040000
vn 0.10830000 0.87500000 0.47180000
vn 0.24100000 0.81850000 0.52150000
vn 0.29890000 0.95430000 0.00180000
vn 0.11820000 0.99300000 -0.00060000
vn 0.12860000 0.88540000 0.44670000
vn 0.37790000 0.92580000 0.00450000
vn 0.51720000 0.85580000 -0.00030000
vn 0.34810000 0.93740000 0.00420000
vn 0.29890000 0.95430000 0.00180000
vn 0.24100000 0.81850000 0.52150000
vn 0.47750000 0.77410000 0.41560000
vn 0.40760000 0.84840000 0.33770000
vn 0.48930000 0.77600000 0.39800000
vn 0.57390000 0.63660000 0.51510000
vn 0.66240000 0.74920000 0.00060000
vn 0.51720000 0.85580000 -0.00030000
vn 0.47750000 0.77410000 0.41560000
vn 0.71080000 0.70340000 0.00250000
vn 0.73530000 0.61600000 0.28280000
vn 0.72400000 0.54550000 0.42220000
vn 0.57390000 0.63660000 0.51510000
vn 0.66240000 0.74920000 0.00060000
vn 0.79760000 0.60320000 -0.00050000
vn -0.95060000 0.31050000 0.00020000
vn -0.90810000 0.41880000 0.00260000
vn -0.81450000 0.25780000 0.51970000
vn -0.81310000 0.41010000 0.41310000
vn -0.89460000 0.44680000 0.00150000
vn -0.34250000 0.93950000 0.00040000
vn -0.18050000 0.98360000 0.00040000
vn -0.16220000 0.84220000 0.51420000
vn -0.30010000 0.84370000 0.44510000
vn -0.29610000 0.85110000 0.43350000
vn 0.10830000 0.87500000 0.47180000
vn -0.02910000 0.90440000 0.42570000
vn -0.03200000 0.99950000 0.00110000
vn -0.05870000 0.87340000 0.48340000
vn 0.11820000 0.99300000 -0.00060000
vn 0.88990000 0.35180000 0.29040000
vn 0.82710000 0.37280000 0.42050000
vn 0.83190000 0.17240000 0.52750000
vn 0.91110000 0.41230000 0.00100000
vn 0.97850000 0.20640000 -0.00000000
vn 0.90360000 -0.42840000 0.00150000
vn 0.79650000 -0.60460000 -0.00070000
vn 0.00010000 -0.00010000 1.00000000
vn -0.00000000 0.00010000 1.00000000
vn 0.71060000 -0.70360000 0.00240000
vn -0.00000000 -0.00010000 1.00000000
vn -0.00000000 -0.00000000 1.00000000
vn -0.00000000 -0.00000000 1.00000000
vn 0.99250000 -0.12220000 0.00170000
vn 0.90910000 -0.41660000 0.00090000
vn 0.00020000 -0.00000000 1.00000000
vn 0.00010000 -0.00010000 1.00000000
vn 0.00010000 -0.00000000 1.00000000
vn 0.97370000 -0.22800000 -0.00020000
vn 0.90360000 -0.42840000 0.00150000
vn 0.99250000 -0.12220000 0.00170000
vn -0.00000000 -0.00000000 1.00000000
vn 0.99830000 -0.05830000 0.00020000
vn 0.99210000 0.12570000 0.00240000
vn 0.91110000 0.41230000 0.00100000
vn 0.97850000 0.20640000 -0.00000000
vn 0.99210000 0.12570000 0.00240000
vn 0.90370000 0.42810000 0.00170000
vn -0.00000000 -0.00000000 1.00000000
vn -0.00000000 -0.00010000 1.00000000
vn -0.00000000 -0.00000000 1.00000000
vn 0.00010000 0.00010000 1.00000000
vn 0.90370000 0.42810000 0.00170000
vn 0.79760000 0.60320000 -0.00050000
vn 0.71080000 0.70340000 0.00250000
vn 0.00010000 0.00010000 1.00000000
vn 0.51720000 0.85580000 -0.00030000
vn 0.71080000 0.70340000 0.00250000
vn 0.66240000 0.74920000 0.00060000
vn 0.37790000 0.92580000 0.00450000
vn -0.00000000 -0.00030000 1.00000000
vn -0.00000000 -0.00010000 1.00000000
vn -0.03200000 0.99950000 0.00110000
vn -0.08000000 0.99680000 0.00270000
vn -0.00000000 -0.00020000 1.00000000
vn -0.00020000 -0.00030000 1.00000000
vn -0.00000000 -0.00030000 1.00000000
vn 0.34810000 0.93740000 0.00420000
vn 0.11820000 0.99300000 -0.00060000
vn 0.29890000 0.95430000 0.00180000
vn -0.41890000 0.90800000 0.00240000
vn -0.18050000 0.98360000 0.00040000
vn -0.08000000 0.99680000 0.00270000
vn -0.34250000 0.93950000 0.00040000
vn -0.00000000 -0.00000000 1.00000000
vn -0.00010000 0.00010000 1.00000000
vn -0.00000000 -0.00010000 1.00000000
vn -0.00000000 0.00010000 1.00000000
vn -0.00020000 0.00010000 1.00000000
vn -0.70060000 0.71360000 0.00270000
vn -0.00020000 0.00020000 1.00000000
vn -0.00010000 0.00010000 1.00000000
vn -0.63080000 0.77600000 -0.00020000
vn -0.41890000 0.90800000 0.00240000
vn -0.47800000 0.87840000 0.00060000
vn -0.90810000 0.41880000 0.00260000
vn -0.00040000 0.00010000 1.00000000
vn -0.00020000 0.00020000 1.00000000
vn -0.89460000 0.44680000 0.00150000
vn -0.70060000 0.71360000 0.00270000
vn -0.00010000 0.00010000 1.00000000
vn -0.00010000 -0.00000000 1.00000000
vn -0.79680000 0.60430000 -0.00060000
vn -0.00010000 -0.00000000 1.00000000
vn -0.95060000 0.31050000 0.00020000
vn -0.99310000 0.11740000 0.00080000
vn -0.90810000 0.41880000 0.00260000
vn -0.99640000 0.08440000 0.00210000
vn -0.00000000 -0.00000000 1.00000000
vn -0.99640000 0.08440000 0.00210000
vn -0.96820000 -0.25040000 0.00250000
vn -0.99210000 -0.12510000 -0.00020000
vn -0.00010000 -0.00010000 1.00000000
vn -0.00000000 -0.00000000 1.00000000
vn -0.88500000 -0.46560000 -0.00040000
vn -0.00010000 -0.00010000 1.00000000
vn -0.95230000 -0.30510000 0.00080000
vn -0.00000000 -0.00000000 1.00000000
vn -0.83940000 -0.54360000 0.00240000
vn -0.96820000 -0.25040000 0.00250000
vn -0.00020000 -0.00020000 1.00000000
vn -0.68030000 -0.73300000 0.00190000
vn -0.00000000 -0.00000000 1.00000000
vn -0.73290000 -0.68040000 0.00030000
vn -0.83940000 -0.54360000 0.00240000
vn -0.41910000 -0.90790000 0.00250000
vn -0.61100000 -0.79160000 0.00010000
vn -0.48630000 -0.87380000 0.00050000
vn -0.00000000 -0.00000000 1.00000000
vn -0.68030000 -0.73300000 0.00190000
vn -0.00000000 0.00010000 1.00000000
vn -0.00000000 -0.00010000 1.00000000
vn -0.30490000 -0.95240000 -0.00050000
vn -0.41910000 -0.90790000 0.00250000
vn -0.00000000 -0.00000000 1.00000000
vn -0.09300000 -0.99570000 0.00200000
vn -0.00000000 0.00010000 1.00000000
vn -0.00000000 -0.00010000 1.00000000
vn 0.13780000 -0.99050000 -0.00030000
vn -0.07170000 -0.99740000 0.00110000
vn -0.00000000 -0.00000000 1.00000000
vn 0.22340000 -0.97470000 0.00230000
vn 0.00010000 -0.00030000 1.00000000
vn -0.09300000 -0.99570000 0.00200000
vn 0.22340000 -0.97470000 0.00230000
vn 0.39270000 -0.91970000 0.00040000
vn 0.45680000 -0.88960000 0.00190000
vn -0.00000000 -0.00000000 1.00000000
vn 0.71060000 -0.70360000 0.00240000
vn 0.66980000 -0.74250000 0.00080000
vn 0.53610000 -0.84420000 0.00010000
vn 0.45680000 -0.88960000 0.00190000
vn -0.00000000 -0.00010000 1.00000000
vn -0.00000000 -0.00000000 1.00000000
vn -0.00000000 0.00010000 1.00000000
f 242//242 72//72 69//69
f 71//71 243//243 298//298
f 70//70 299//299 73//73
f 74//74 297//297 285//285
f 75//75 283//283 76//76
f 78//78 282//282 291//291
f 77//77 294//294 79//79
f 80//80 293//293 83//83
f 82//82 292//292 246//246
f 244//244 248//248 81//81
f 84//84 250//250 87//87
f 86//86 253//253 279//279
f 85//85 277//277 90//90
f 89//89 280//280 267//267
f 88//88 269//269 92//92
f 93//93 268//268 270//270
f 91//91 271//271 94//94
f 95//95 272//272 96//96
f 99//99 276//276 255//255
f 256//256 260//260 97//97
f 98//98 261//261 101//101
f 102//102 263//263 138//138
f 100//100 136//136 104//104
f 103//103 139//139 384//384
f 105//105 379//379 108//108
f 107//107 380//380 144//144
f 106//106 143//143 109//109
f 110//110 146//146 114//114
f 113//113 145//145 149//149
f 148//148 152//152 111//111
f 112//112 154//154 117//117
f 115//115 153//153 374//374
f 116//116 378//378 120//120
f 119//119 375//375 369//369
f 118//118 370//370 122//122
f 123//123 368//368 159//159
f 121//121 160//160 124//124
f 125//125 163//163 126//126
f 129//129 157//157 166//166
f 167//167 171//171 128//128
f 127//127 172//172 130//130
f 132//132 173//173 364//364
f 131//131 365//365 135//135
f 134//134 366//366 360//360
f 133//133 358//358 2//2
f 1//1 357//357 178//178
f 3//3 179//179 4//4
f 5//5 177//177 7//7
f 8//8 180//180 181//181
f 184//184 190//190 9//9
f 6//6 189//189 11//11
f 12//12 187//187 353//353
f 10//10 354//354 13//13
f 15//15 356//356 347//347
f 14//14 349//349 17//17
f 16//16 348//348 193//193
f 18//18 192//192 20//20
f 19//19 195//195 22//22
f 21//21 196//196 199//199
f 24//24 201//201 204//204
f 23//23 206//206 25//25
f 26//26 205//205 344//344
f 27//27 345//345 29//29
f 30//30 343//343 331//331
f 28//28 329//329 32//32
f 31//31 332//332 334//334
f 33//33 336//336 34//34
f 35//35 339//339 37//37
f 38//38 335//335 208//208
f 207//207 214//214 36//36
f 39//39 212//212 40//40
f 42//42 213//213 327//327
f 41//41 326//326 44//44
f 43//43 325//325 320//320
f 45//45 322//322 46//46
f 48//48 319//319 224//224
f 47//47 219//219 50//50
f 49//49 220//220 52//52
f 54//54 218//218 225//225
f 226//226 232//232 51//51
f 53//53 230//230 57//57
f 55//55 229//229 314//314
f 56//56 315//315 59//59
f 58//58 317//317 301//301
f 60//60 302//302 62//62
f 61//61 300//300 306//306
f 63//63 307//307 64//64
f 65//65 310//310 67//67
f 66//66 309//309 234//234
f 68//68 236//236 239//239
f 313//313 388//388 304//304
f 303//303 390//390 305//305
f 311//311 389//389 396//396
f 308//308 393//393 237//237
f 235//235 392//392 403//403
f 238//238 404//404 240//240
f 241//241 402//402 296//296
f 295//295 401//401 286//286
f 288//288 405//405 408//408
f 287//287 407//407 415//415
f 284//284 416//416 289//289
f 290//290 411//411 247//247
f 245//245 418//418 249//249
f 252//252 414//414 420//420
f 251//251 422//422 281//281
f 386//386 316//316 435//435
f 434//434 312//312 231//231
f 433//433 233//233 227//227
f 432//432 228//228 217//217
f 431//431 222//222 438//438
f 437//437 221//221 443//443
f 445//445 223//223 318//318
f 448//448 321//321 324//324
f 444//444 323//323 215//215
f 446//446 211//211 453//453
f 455//455 216//216 209//209
f 341//341 462//462 328//328
f 330//330 461//461 337//337
f 333//333 460//460 452//452
f 338//338 456//456 210//210
f 367//367 528//528 361//361
f 362//362 521//521 468//468
f 359//359 469//469 176//176
f 174//174 465//465 473//473
f 175//175 471//471 182//182
f 183//183 474//474 185//185
f 188//188 470//470 477//477
f 186//186 481//481 352//352
f 355//355 483//483 346//346
f 350//350 480//480 490//490
f 351//351 489//489 194//194
f 191//191 488//488 198//198
f 197//197 487//487 495//495
f 200//200 491//491 202//202
f 203//203 492//492 340//340
f 342//342 493//493 457//457
f 141//141 553//553 147//147
f 151//151 552//552 504//504
f 150//150 501//501 156//156
f 155//155 500//500 376//376
f 377//377 499//499 372//372
f 371//371 506//506 512//512
f 373//373 507//507 161//161
f 158//158 511//511 518//518
f 162//162 517//517 164//164
f 165//165 513//513 168//168
f 170//170 516//516 522//522
f 169//169 527//527 363//363
f 278//278 425//425 266//266
f 264//264 426//426 532//532
f 265//265 534//534 275//275
f 274//274 531//531 536//536
f 273//273 535//535 257//257
f 254//254 537//537 262//262
f 259//259 538//538 546//546
f 258//258 545//545 137//137
f 140//140 543//543 381//381
f 383//383 544//544 551//551
f 382//382 550//550 142//142
f 458//458 494//494 797//797
f 463//463 798//798 672//672
f 450//450 459//459 675//675
f 449//449 670//670 676//676
f 429//429 440//440 660//660
f 430//430 663//663 666//666
f 428//428 669//669 693//693
f 387//387 703//703 394//394
f 412//412 406//406 656//656
f 417//417 654//654 652//652
f 419//419 650//650 716//716
f 421//421 725//725 533//533
f 554//554 784//784 741//741
f 505//505 742//742 510//510
f 467//467 524//524 794//794
f 464//464 791//791 758//758
f 472//472 769//769 482//482
f 451//451 678//678 685//685
f 441//441 681//681 691//691
f 447//447 454//454 684//684
f 436//436 442//442 686//686
f 439//439 688//688 661//661
f 700//700 706//706 395//395
f 694//694 698//698 385//385
f 695//695 391//391 427//427
f 400//400 397//397 705//705
f 398//398 704//704 710//710
f 410//410 709//709 659//659
f 399//399 711//711 409//409
f 722//722 731//731 530//530
f 719//719 721//721 424//424
f 720//720 423//423 413//413
f 542//542 529//529 730//730
f 539//539 727//727 735//735
f 541//541 736//736 646//646
f 547//547 644//644 641//641
f 645//645 549//549 540//540
f 640//640 783//783 557//557
f 643//643 556//556 548//548
f 747//747 749//749 508//508
f 737//737 743//743 503//503
f 738//738 502//502 555//555
f 515//515 509//509 748//748
f 514//514 750//750 756//756
f 755//755 789//789 519//519
f 523//523 520//520 790//790
f 526//526 788//788 635//635
f 634//634 792//792 525//525
f 768//768 774//774 478//478
f 759//759 767//767 476//476
f 762//762 475//475 466//466
f 484//484 479//479 770//770
f 485//485 771//771 778//778
f 496//496 776//776 629//629
f 630//630 796//796 497//497
f 777//777 498//498 486//486
f 566//566 804//804 564//564
f 562//562 803//803 812//812
f 563//563 813//813 559//559
f 558//558 811//811 560//560
f 561//561 808//808 817//817
f 561//561 817//817 628//628
f 628//628 817//817 824//824
f 628//628 824//824 626//626
f 627//627 825//825 623//623
f 624//624 824//824 826//826
f 624//624 826//826 625//625
f 625//625 826//826 621//621
f 622//622 827//827 831//831
f 622//622 831//831 619//619
f 620//620 836//836 615//615
f 613//613 616//616 841//841
f 614//614 840//840 611//611
f 612//612 842//842 609//609
f 608//608 837//837 852//852
f 610//610 850//850 607//607
f 606//606 853//853 602//602
f 603//603 851//851 857//857
f 603//603 857//857 605//605
f 604//604 854//854 599//599
f 600//600 856//856 863//863
f 601//601 866//866 598//598
f 597//597 862//862 594//594
f 596//596 867//867 869//869
f 595//595 874//874 593//593
f 593//593 874//874 592//592
f 592//592 874//874 879//879
f 592//592 879//879 591//591
f 591//591 879//879 590//590
f 589//589 878//878 881//881
f 589//589 881//881 585//585
f 586//586 886//886 588//588
f 587//587 883//883 888//888
f 587//587 888//888 584//584
f 584//584 888//888 894//894
f 584//584 894//894 583//583
f 583//583 894//894 582//582
f 581//581 896//896 902//902
f 582//582 900//900 579//579
f 580//580 902//902 578//578
f 577//577 897//897 903//903
f 577//577 903//903 576//576
f 575//575 908//908 574//574
f 573//573 906//906 913//913
f 573//573 913//913 570//570
f 570//570 913//913 919//919
f 570//570 919//919 572//572
f 571//571 920//920 567//567
f 569//569 918//918 806//806
f 568//568 807//807 565//565
f 909//909 901//901 712//712
f 891//891 657//657 899//899
f 898//898 658//658 713//713
f 893//893 651//651 655//655
f 889//889 726//726 717//717
f 887//887 715//715 895//895
f 892//892 718//718 653//653
f 880//880 729//729 723//723
f 884//884 724//724 890//890
f 876//876 732//732 885//885
f 882//882 733//733 728//728
f 877//877 648//648 734//734
f 873//873 647//647 875//875
f 871//871 639//639 649//649
f 861//861 782//782 872//872
f 870//870 781//781 642//642
f 745//745 739//739 868//868
f 864//864 740//740 785//785
f 858//858 752//752 746//746
f 855//855 744//744 865//865
f 846//846 753//753 859//859
f 860//860 754//754 751//751
f 849//849 786//786 757//757
f 839//839 638//638 848//848
f 847//847 636//636 787//787
f 838//838 793//793 637//637
f 766//766 760//760 845//845
f 844//844 761//761 795//795
f 765//765 843//843 617//617
f 763//763 618//618 835//835
f 764//764 832//832 773//773
f 772//772 834//834 779//779
f 775//775 833//833 830//830
f 780//780 829//829 633//633
f 632//632 828//828 823//823
f 631//631 820//820 799//799
f 800//800 821//821 671//671
f 673//673 822//822 819//819
f 814//814 682//682 677//677
f 809//809 680//680 816//816
f 818//818 679//679 674//674
f 801//801 687//687 815//815
f 810//810 690//690 683//683
f 914//914 664//664 805//805
f 802//802 665//665 689//689
f 915//915 667//667 662//662
f 911//911 699//699 696//696
f 912//912 697//697 917//917
f 916//916 692//692 668//668
f 714//714 707//707 905//905
f 904//904 708//708 702//702
f 907//907 701//701 910//910

