mtllib material.mtl
usemtl Rohr
v -0.00333400 -0.03757700 0.06175000
v -0.03789900 0.00005000 0.06175000
v -0.03677400 0.00933900 0.05185000
v -0.03762700 -0.00397900 0.05185000
v -0.00190800 0.03784400 0.06175000
v -0.00737700 0.03714200 0.05185000
v -0.03638000 -0.00993800 0.06175000
v -0.03503900 -0.01406200 0.05185000
v -0.01634300 0.03439400 0.06175000
v -0.02074300 0.03193000 0.05185000
v -0.03303900 -0.01845300 0.06175000
v -0.02973800 -0.02339400 0.05185000
v -0.02644700 -0.02692200 0.06175000
v -0.03015400 0.02323100 0.06175000
v -0.03122800 0.02142300 0.05185000
v -0.02101100 -0.03139500 0.05185000
v -0.01590800 -0.03445800 0.06175000
v -0.00886200 -0.03686200 0.05185000
v -0.03603800 0.01136900 0.06175000
v 0.00444500 -0.03750600 0.05185000
v 0.03535800 -0.00000800 0.18970800
v 0.03516500 -0.00236000 0.19064600
v 0.03427100 -0.00865300 0.18974600
v 0.03105600 -0.01679900 0.18972700
v 0.02621500 -0.02366000 0.18972400
v 0.01928400 -0.02959200 0.18973700
v -0.00159700 0.03530600 0.18972300
v 0.00608600 0.03486100 0.18973800
v 0.01721500 -0.03070800 0.19064600
v -0.00405300 0.03520100 0.19065100
v 0.01140400 -0.03340200 0.18971000
v 0.01129500 0.03348000 0.18982000
v 0.00437000 -0.03496900 0.18971700
v 0.01799600 0.03040900 0.18971000
v -0.00316500 -0.03516700 0.18972500
v 0.02360600 0.02633500 0.18974400
v 0.02826000 0.02122300 0.18972400
v 0.02734900 0.02587400 0.18960700
v 0.03250400 0.01397900 0.18971700
v 0.03455400 0.00724800 0.18970400
v 0.01812100 0.02886000 0.18328500
v 0.01724900 0.02845100 0.18140900
v 0.00676800 -0.03344200 0.18343400
v 0.01001700 0.03269400 0.18340900
v 0.01139300 0.03119400 0.18124200
v 0.00602200 0.03265100 0.18113000
v -0.00001300 0.03333800 0.18214600
v -0.00442400 0.03386900 0.18337800
v 0.00430400 -0.03291900 0.18124900
v 0.01515000 -0.03042500 0.18330200
v 0.01285600 -0.03050600 0.18120500
v 0.02225300 -0.02569200 0.18323400
v 0.02031700 -0.02627600 0.18130900
v 0.02916800 -0.01763200 0.18328800
v 0.02764300 -0.01846500 0.18130200
v 0.03300800 -0.00843600 0.18336800
v 0.03124000 -0.01108400 0.18119400
v 0.03269000 -0.00562900 0.18120500
v 0.03400900 -0.00139700 0.18338500
v 0.03299700 0.00361500 0.18108100
v 0.03349000 0.00681800 0.18343400
v 0.03099300 0.01185100 0.18122300
v 0.03096100 0.01409200 0.18330700
v 0.02732400 0.02031300 0.18327700
v 0.02671800 0.01987800 0.18135000
v 0.02322200 0.02417700 0.18242400
v 0.01741300 0.02841500 0.07930200
v 0.01256800 0.03244900 0.07592700
v 0.01098400 0.03140800 0.07947700
v -0.00237500 -0.03463900 0.07580000
v 0.00420800 -0.03440200 0.07584500
v 0.00423500 0.03295500 0.07954000
v -0.00234400 0.03318800 0.07948700
v 0.00152800 0.03481300 0.07588600
v -0.00010400 -0.03317800 0.07953400
v 0.00787400 -0.03222200 0.07949600
v 0.01082400 -0.03296200 0.07584200
v 0.01430100 -0.02997100 0.07930500
v 0.01748500 -0.02995800 0.07594900
v 0.01983700 -0.02671400 0.07920200
v 0.02214400 -0.02654700 0.07614400
v 0.02399000 -0.02298400 0.07943300
v 0.02864900 -0.01681100 0.07938700
v 0.02848900 -0.01981300 0.07596100
v 0.03133700 -0.01099000 0.07950000
v 0.03272700 -0.01157400 0.07589800
v 0.03320200 -0.00194400 0.07964000
v 0.03476300 -0.00147800 0.07588500
v 0.03247600 0.00726500 0.07946100
v 0.03376000 0.00814800 0.07587900
v 0.03031500 0.01373200 0.07936200
v 0.03129500 0.01492000 0.07598500
v 0.02690300 0.01956800 0.07937900
v 0.02753900 0.02103500 0.07601900
v 0.02192800 0.02504200 0.07946600
v 0.02177600 0.02706800 0.07603400
v -0.00702100 -0.03462600 0.19064900
v -0.03527600 0.00341500 0.19065000
v 0.00583800 -0.03493600 0.19065000
v 0.00583800 -0.03493600 0.19065000
v 0.00583800 -0.03493600 0.19065000
v -0.03452900 -0.00692700 0.19065000
v -0.03452900 -0.00692700 0.19065000
v -0.03137300 -0.01642700 0.19065000
v -0.03137300 -0.01642700 0.19065000
v -0.01416400 0.03234000 0.19065000
v -0.01416400 0.03234000 0.19065000
v -0.01416400 0.03234000 0.19065000
v -0.02252700 0.02728900 0.19065100
v -0.02376100 -0.02604100 0.19064800
v -0.02376100 -0.02604100 0.19064800
v -0.02376100 -0.02604100 0.19064800
v -0.03095300 0.01730200 0.19065000
v -0.01711100 -0.03080000 0.19065000
v -0.01711100 -0.03080000 0.19065000
v -0.03759300 -0.00184700 0.18965000
v -0.00401200 0.03739300 0.18964500
v -0.00401200 0.03739300 0.18964500
v -0.03677100 -0.00713800 0.18784200
v -0.01012800 0.03612500 0.18787700
v -0.03448800 -0.01534500 0.18964500
v -0.01347900 0.03517200 0.18964900
v -0.01347900 0.03517200 0.18964900
v -0.02331500 0.02973300 0.18963900
v -0.02391300 0.02889900 0.18774900
v -0.02735400 -0.02580700 0.18965000
v -0.02979900 0.02279000 0.18773500
v -0.03229500 0.01946400 0.18964800
v -0.01802500 -0.03299500 0.18965000
v -0.00841200 -0.03657000 0.18965000
v -0.03662600 0.00842200 0.18964800
v 0.00102300 -0.03763000 0.18964700
v -0.02380300 -0.02868800 0.18706200
v -0.02808800 -0.02453600 0.18708400
v -0.01879100 -0.03219500 0.18708200
v -0.01352900 -0.03474500 0.18705800
v -0.00723400 -0.03659600 0.18709000
v -0.00020600 -0.03718100 0.18684100
v -0.00251200 0.03736900 0.18717800
v -0.01026900 0.03547200 0.18626800
v -0.02032800 0.03102300 0.18657200
v -0.01745600 0.03319800 0.18766500
v -0.02741300 0.02479200 0.18643100
v -0.03182400 0.01875500 0.18646900
v -0.03495600 0.01329700 0.18702800
v -0.03702900 0.00482400 0.18707100
v -0.03724600 -0.00233400 0.18694800
v -0.03527200 -0.01214500 0.18698000
v -0.03190700 -0.01943500 0.18715800
v -0.03328000 0.00177600 0.18237500
v -0.03358700 -0.00556600 0.18334100
v -0.03126000 -0.01341200 0.18332200
v -0.01090700 0.03235300 0.18342300
v -0.02806500 -0.01912000 0.18330400
v -0.01742300 0.02930400 0.18325100
v -0.02442700 -0.02367600 0.18333300
v -0.01867200 -0.02838800 0.18329000
v -0.02541400 0.02274000 0.18325500
v -0.01105400 -0.03227000 0.18334700
v -0.03012600 0.01585000 0.18330300
v -0.00225300 -0.03394500 0.18338400
v -0.03301100 0.00861000 0.18339400
v -0.03249400 -0.00697700 0.18119000
v -0.03324200 -0.00128000 0.07949400
v -0.03073800 -0.01269100 0.07948000
v -0.00760900 0.03239500 0.18130500
v -0.00855700 0.03213900 0.07945800
v -0.02963700 -0.01478700 0.18124500
v -0.02680500 -0.01973100 0.07918900
v -0.01427700 0.03008000 0.07931700
v -0.02627500 -0.02021400 0.18113300
v -0.02339000 -0.02356200 0.07942000
v -0.01611800 0.02906400 0.18123900
v -0.01904900 0.02730400 0.07931900
v -0.01972000 -0.02674000 0.18133400
v -0.02343500 0.02363900 0.07931500
v -0.01792900 -0.02793900 0.07939200
v -0.02087600 0.02589400 0.18137200
v -0.02766500 0.01859400 0.07922900
v -0.01256300 -0.03068300 0.07943400
v -0.02681800 0.01967400 0.18117200
v -0.01267600 -0.03056300 0.18123000
v -0.03061000 0.01311700 0.07933000
v -0.00709400 -0.03235900 0.07954500
v -0.00571600 -0.03262100 0.18112600
v -0.03170700 0.01006700 0.18117700
v -0.03265800 0.00594500 0.07952700
v -0.03192200 -0.01346100 0.07595600
v -0.00945700 0.03352700 0.07587000
v -0.03458000 -0.00423200 0.07582700
v -0.00988800 -0.03328800 0.07586800
v -0.03410400 0.00672000 0.07590400
v -0.01372800 -0.04225700 0.06570500
v -0.01757800 -0.02984800 0.07599900
v -0.03159100 0.01421700 0.07600400
v -0.02349000 -0.02545000 0.07594200
v -0.02777200 0.02085100 0.07597000
v -0.02822900 -0.02008700 0.07600900
v -0.02083700 0.02782600 0.07598300
v -0.02701500 0.03516200 0.06605100
v -0.04050800 -0.01853600 0.06560700
v -0.03687900 -0.02515900 0.06538700
v -0.04033800 -0.02026200 0.06265500
v -0.04033800 -0.02026200 0.06265500
v -0.04033800 -0.02026200 0.06265500
v -0.04033800 -0.02026200 0.06265500
v -0.03409900 -0.02947500 0.06265800
v -0.03174600 -0.03128400 0.06544600
v -0.02825100 -0.03505000 0.06265700
v -0.02825100 -0.03505000 0.06265700
v -0.02825100 -0.03505000 0.06265700
v -0.02684500 -0.03551500 0.06558300
v -0.02078400 -0.03957700 0.06528900
v -0.02156000 -0.03956900 0.06265700
v -0.01258000 -0.04326200 0.06265700
v -0.00532000 -0.04425100 0.06562400
v -0.00161600 -0.04508100 0.06265500
v 0.00298900 -0.04446600 0.06553600
v -0.00147700 0.04455600 0.06574700
v -0.00339100 0.04502400 0.06265800
v -0.01146800 0.04329700 0.06531700
v -0.01270500 0.04331700 0.06265500
v -0.01270500 0.04331700 0.06265500
v -0.02006300 0.04039500 0.06265800
v -0.01913200 0.04035200 0.06548400
v -0.02700500 0.03617800 0.06265700
v -0.02761100 0.03547600 0.06454600
v -0.03298200 0.03074700 0.06265800
v -0.03298200 0.03074700 0.06265800
v -0.03298200 0.03074700 0.06265800
v -0.03456500 0.02823600 0.06555400
v -0.03887800 0.02305100 0.06265800
v -0.03887800 0.02305100 0.06265800
v -0.03849600 0.02256700 0.06551300
v -0.04222900 0.01490100 0.06528000
v -0.04331200 0.01263000 0.06265700
v -0.04331200 0.01263000 0.06265700
v -0.04432800 0.00526900 0.06556100
v -0.04481400 0.00469500 0.06265700
v -0.04481400 0.00469500 0.06265700
v -0.04481400 0.00469500 0.06265700
v -0.04497900 -0.00316700 0.06265500
v -0.04497900 -0.00316700 0.06265500
v -0.04497900 -0.00316700 0.06265500
v -0.04437200 -0.00416300 0.06563200
v -0.04366000 -0.01109300 0.06265800
v -0.04366000 -0.01109300 0.06265800
v -0.04366000 -0.01109300 0.06265800
v -0.04300300 -0.01155300 0.06561200
v 0.04164100 -0.00949600 0.06260800
v 0.04252700 -0.00308400 0.06260800
v 0.04252700 -0.00308400 0.06260800
v 0.04260500 0.00320200 0.06260900
v 0.00423500 -0.04241800 0.06259900
v 0.04083500 0.01260300 0.06260800
v 0.03773200 0.01997800 0.06260800
v 0.03342800 0.02664600 0.06260300
v 0.03342800 0.02664600 0.06260300
v 0.03342800 0.02664600 0.06260300
v 0.02907700 0.03124600 0.06261200
v 0.02907700 0.03124600 0.06261200
v -0.00163100 -0.04258400 0.06259700
v 0.02410000 0.03532400 0.06260800
v 0.02410000 0.03532400 0.06260800
v 0.02410000 0.03532400 0.06260800
v 0.01255300 -0.04078500 0.06260800
v 0.01706500 0.03916200 0.06261000
v 0.01706500 0.03916200 0.06261000
v 0.01706500 0.03916200 0.06261000
v 0.01992800 -0.03768200 0.06260800
v 0.01992800 -0.03768200 0.06260800
v 0.01096800 0.04128500 0.06259900
v 0.02660400 -0.03337600 0.06260800
v 0.00462400 0.04246800 0.06259700
v 0.00462400 0.04246800 0.06259700
v 0.00462400 0.04246800 0.06259700
v -0.00160100 0.04268600 0.06259800
v -0.00160100 0.04268600 0.06259800
v 0.03169800 -0.02849000 0.06260800
v 0.03169800 -0.02849000 0.06260800
v 0.03169800 -0.02849000 0.06260800
v 0.03531500 -0.02398600 0.06260800
v 0.03531500 -0.02398600 0.06260800
v 0.03531500 -0.02398600 0.06260800
v 0.03910600 -0.01702500 0.06260800
v 0.03910600 -0.01702500 0.06260800
v -0.00478900 -0.04245300 0.06175000
v -0.04213800 0.00680600 0.06175000
v -0.04252500 -0.00428500 0.06175000
v 0.00000000 0.04270900 0.06175000
v -0.01062500 0.04145400 0.06175000
v -0.04032700 -0.01376200 0.06175000
v -0.02099100 0.03720700 0.06175000
v -0.03643300 -0.02230700 0.06175000
v -0.03107100 0.02953500 0.06175000
v -0.02708100 -0.03313700 0.06175000
v -0.03899500 0.01755800 0.06175000
v -0.01596300 -0.03952800 0.06175000
v -0.03126100 -0.00092700 0.19905000
v -0.03120500 -0.00029200 0.19065000
v -0.00639100 0.03066600 0.19905000
v -0.00851500 0.03023600 0.19065000
v -0.02970900 -0.00972400 0.19065000
v -0.02970900 -0.00972400 0.19065000
v 0.00446600 0.03100500 0.19905000
v -0.02944000 -0.01030200 0.19905000
v -0.02428900 -0.01979400 0.19905000
v -0.02428900 -0.01979400 0.19905000
v -0.02555000 -0.01784000 0.19065100
v -0.02555000 -0.01784000 0.19065100
v -0.02555000 -0.01784000 0.19065100
v -0.01647600 0.02663400 0.19905000
v -0.01647600 0.02663400 0.19905000
v -0.01647600 0.02663400 0.19905000
v -0.01934600 0.02462500 0.19065000
v -0.01934600 0.02462500 0.19065000
v -0.01726800 -0.02626200 0.19065000
v -0.02368500 0.02036900 0.19905000
v -0.01445400 -0.02771500 0.19905000
v -0.02575800 0.01766800 0.19065000
v -0.02575800 0.01766800 0.19065000
v -0.02932900 0.01116300 0.19905000
v -0.02932900 0.01116300 0.19905000
v -0.02932900 0.01116300 0.19905000
v -0.02994200 0.00908500 0.19065000
v -0.00542200 -0.03070200 0.19065000
v -0.00232300 -0.03122800 0.19905000
v 0.00271800 -0.03102200 0.19065000
v 0.00271800 -0.03102200 0.19065000
v 0.00271800 -0.03102200 0.19065000
v 0.02141300 -0.02274600 0.19905000
v 0.02859700 -0.01283100 0.19905000
v 0.02592600 0.01770100 0.19905000
v 0.01603700 0.02700400 0.19905000
v 0.01111300 -0.02928000 0.19905000
v 0.03122200 -0.00131300 0.19905000
v 0.03023000 0.00779700 0.19905000
v 0.03081400 0.00590100 0.19065000
v 0.03081400 0.00590100 0.19065000
v 0.03081400 0.00590100 0.19065000
v 0.01161000 -0.02899100 0.19065000
v 0.01161000 -0.02899100 0.19065000
v 0.01161000 -0.02899100 0.19065000
v 0.02685400 0.01594800 0.19065000
v 0.02685400 0.01594800 0.19065000
v 0.01897500 -0.02467800 0.19065000
v 0.01897500 -0.02467800 0.19065000
v 0.01897500 -0.02467800 0.19065000
v 0.02084200 0.02336900 0.19065100
v 0.02084200 0.02336900 0.19065100
v 0.02479400 -0.01897500 0.19065000
v 0.02479400 -0.01897500 0.19065000
v 0.02479400 -0.01897500 0.19065000
v 0.01287800 0.02847600 0.19065000
v 0.01287800 0.02847600 0.19065000
v 0.01287800 0.02847600 0.19065000
v 0.03032700 -0.00807600 0.19065000
v 0.03032700 -0.00807600 0.19065000
v 0.03032700 -0.00807600 0.19065000
v 0.00369800 0.03110600 0.19065000
v 0.02931900 -0.03096100 0.06175000
v 0.02375700 -0.02940500 0.06175000
v 0.03733400 -0.02094900 0.06175000
v 0.03257100 -0.01938400 0.06175000
v 0.02168300 -0.03670700 0.06175000
v 0.01579900 -0.03422100 0.06175000
v 0.01000000 -0.04160100 0.06175000
v 0.03782300 -0.00396000 0.06175000
v 0.04242500 -0.00585800 0.06175000
v 0.00696900 -0.03714500 0.06175000
v 0.04213800 0.00680600 0.06175000
v 0.03630400 0.01072700 0.06175000
v 0.03899500 0.01755800 0.06175000
v 0.03201200 0.02010300 0.06175000
v 0.03311400 0.02696900 0.06175000
v 0.03311400 0.02696900 0.06175000
v 0.02318100 0.03020400 0.06175000
v 0.02318100 0.03020400 0.06175000
v 0.02373000 0.03571100 0.06175000
v 0.00986500 0.03658300 0.06175000
v 0.01062500 0.04145400 0.06175000
v -0.04165900 0.00951600 0.06260800
v -0.04165900 0.00951600 0.06260800
v -0.04165900 0.00951600 0.06260800
v -0.04264300 0.00163400 0.06261000
v -0.04240200 -0.00473900 0.06260800
v -0.04240200 -0.00473900 0.06260800
v -0.04240200 -0.00473900 0.06260800
v -0.04121400 -0.01100500 0.06260800
v -0.04121400 -0.01100500 0.06260800
v -0.04121400 -0.01100500 0.06260800
v -0.03847100 -0.01851900 0.06260200
v -0.03442600 -0.02516500 0.06260400
v -0.03442600 -0.02516500 0.06260400
v -0.03442600 -0.02516500 0.06260400
v -0.03016500 -0.03013200 0.06260800
v -0.03016500 -0.03013200 0.06260800
v -0.03016500 -0.03013200 0.06260800
v -0.00794200 0.04197000 0.06259800
v -0.00794200 0.04197000 0.06259800
v -0.02396500 -0.03531500 0.06260200
v -0.01401200 0.04035200 0.06259900
v -0.01401200 0.04035200 0.06259900
v -0.02132500 0.03706800 0.06260300
v -0.02132500 0.03706800 0.06260300
v -0.01704200 -0.03906400 0.06259700
v -0.00946600 -0.04160900 0.06260800
v -0.02784500 0.03237800 0.06259900
v -0.03234000 0.02788400 0.06260300
v -0.03234000 0.02788400 0.06260300
v -0.03613800 0.02274600 0.06260000
v -0.03613800 0.02274600 0.06260000
v -0.03613800 0.02274600 0.06260000
v -0.03911400 0.01709300 0.06259700
v 0.03189500 -0.03184400 0.06265700
v 0.02311200 -0.03875400 0.06265600
v 0.03703500 -0.02561300 0.06265700
v 0.04104000 -0.01865800 0.06265700
v 0.04104000 -0.01865800 0.06265700
v 0.04104000 -0.01865800 0.06265700
v 0.04104000 -0.01865800 0.06265700
v 0.01021400 -0.04391100 0.06265500
v 0.04448000 -0.00781500 0.06265700
v 0.04489100 0.00505200 0.06265700
v 0.04489100 0.00505200 0.06265700
v 0.04222800 0.01588200 0.06265600
v 0.03797100 0.02439600 0.06265700
v 0.03298300 0.03074600 0.06265700
v 0.02700400 0.03617800 0.06265700
v 0.02700400 0.03617800 0.06265700
v 0.02700400 0.03617800 0.06265700
v 0.02010400 0.04037300 0.06265700
v 0.01258000 0.04336200 0.06265700
v 0.00464700 0.04486400 0.06265700
v 0.01960400 -0.04046500 0.06436800
v 0.03857700 0.02237100 0.06559100
v 0.04208200 0.01506600 0.06550300
v 0.03375400 0.02927300 0.06541200
v 0.02892800 0.03407700 0.06541700
v 0.02255700 0.03848600 0.06560100
v 0.01458200 0.04230600 0.06541100
v 0.00678800 0.04412600 0.06555200
v 0.01004500 -0.04342100 0.06550600
v 0.01884900 -0.04001200 0.06602100
v 0.02820300 -0.03451600 0.06557200
v 0.03377400 -0.02913700 0.06540800
v 0.03784600 -0.02352300 0.06548400
v 0.04137500 -0.01672200 0.06543900
v 0.04344500 -0.00994100 0.06557100
v 0.04460200 -0.00165400 0.06556400
v 0.04413000 0.00635900 0.06556500
v 0.03730400 0.00138200 0.18704200
v 0.03639600 0.00824400 0.18703100
v 0.03397200 0.01532700 0.18684900
v 0.00884100 -0.03577100 0.18638500
v 0.02809100 0.02402200 0.18635500
v 0.01412900 -0.03453100 0.18700800
v 0.02245900 -0.02976700 0.18705000
v 0.02328700 0.02920700 0.18704300
v 0.02729200 -0.02523200 0.18687600
v 0.01698800 0.03334200 0.18716500
v 0.03141000 -0.02015100 0.18704000
v 0.01065600 0.03583400 0.18707300
v 0.03397900 -0.01430700 0.18638800
v 0.00466400 0.03708700 0.18704500
v 0.03702900 -0.00472500 0.18707100
v 0.03039200 0.02197300 0.18762200
v 0.01773000 0.03344800 0.18964500
v 0.00573600 -0.03703100 0.18793500
v 0.01840300 -0.03257800 0.18777100
v 0.02826300 -0.02481600 0.18964400
v 0.03560700 -0.01151500 0.18726500
v 0.03447300 0.01539900 0.18964500
v 0.03775600 0.00115500 0.18964400
v 0.01625700 -0.03411200 0.18965000
v 0.03502400 -0.01397500 0.18965000
v 0.00400800 0.03747700 0.18965000
v -0.00861400 0.03432600 0.18970900
v -0.01514600 0.03193700 0.18972000
v -0.02103500 0.02840800 0.18971600
v -0.02607700 0.02388600 0.18972300
v -0.03109900 0.01685400 0.18973900
v -0.03524700 -0.00168100 0.18970000
v -0.01162000 -0.03332800 0.18971800
v -0.03425000 -0.00865500 0.18972000
v -0.03169600 -0.01545600 0.18972900
v 0.03417900 0.00942800 0.19064900
v 0.02852400 0.02092500 0.19065000
v 0.02636800 -0.02362500 0.19065000
v 0.01879500 0.03009800 0.19064900
v 0.03312000 -0.01225800 0.19064800
v 0.00684800 0.03472700 0.19065000
v -0.01608100 0.03049200 0.07642500
v -0.03239400 -0.00816800 0.07886900
v -0.03511300 0.00384100 0.18975200
v -0.03378800 0.01008900 0.18981900
v -0.01844700 -0.03003300 0.18974800
v -0.02414200 -0.02574600 0.18972200
v -0.02879900 -0.02034900 0.18972600
v 0.00402900 0.03767700 0.05185000
v 0.03779400 -0.00185700 0.05185000
v 0.03620800 0.01134400 0.05185000
v 0.01817900 -0.03335900 0.05185000
v 0.03077700 0.02195100 0.05185000
v 0.02973800 -0.02339400 0.05185000
v 0.02265500 0.03046900 0.05185000
v 0.03548100 -0.01304000 0.05185000
v 0.01306300 0.03545400 0.05185000
v 0.01258000 0.04336200 0.06265700
v 0.01258000 0.04336200 0.06265700
v 0.00464700 0.04486400 0.06265700
v 0.00464700 0.04486400 0.06265700
v 0.00464700 0.04486400 0.06265700
v -0.04213800 0.00680600 0.06175000
v -0.04213800 0.00680600 0.06175000
v -0.04252500 -0.00428500 0.06175000
v 0.04213800 0.00680600 0.06175000
v 0.04213800 0.00680600 0.06175000
v 0.04213800 0.00680600 0.06175000
v 0.03899500 0.01755800 0.06175000
v 0.03899500 0.01755800 0.06175000
v 0.03899500 0.01755800 0.06175000
v 0.03899500 0.01755800 0.06175000
v -0.00232300 -0.03122800 0.19905000
v -0.00232300 -0.03122800 0.19905000
v 0.01111300 -0.02928000 0.19905000
v -0.03849600 0.02256700 0.06551300
v 0.02734900 0.02587400 0.18960700
v 0.01773000 0.03344800 0.18964500
v -0.02575800 0.01766800 0.19065000
v -0.02994200 0.00908500 0.19065000
v -0.04264300 0.00163400 0.06261000
v -0.04264300 0.00163400 0.06261000
v -0.04264300 0.00163400 0.06261000
v -0.04264300 0.00163400 0.06261000
v -0.04432800 0.00526900 0.06556100
v -0.04437200 -0.00416300 0.06563200
v -0.03527600 0.00341500 0.19065000
v -0.03527600 0.00341500 0.19065000
v -0.03095300 0.01730200 0.19065000
v -0.03095300 0.01730200 0.19065000
v -0.03095300 0.01730200 0.19065000
v 0.04164100 -0.00949600 0.06260800
v 0.04164100 -0.00949600 0.06260800
v 0.04164100 -0.00949600 0.06260800
v 0.04164100 -0.00949600 0.06260800
v 0.04242500 -0.00585800 0.06175000
v 0.04242500 -0.00585800 0.06175000
v 0.02729200 -0.02523200 0.18687600
v 0.01129500 0.03348000 0.18982000
v 0.01129500 0.03348000 0.18982000
v 0.01129500 0.03348000 0.18982000
v 0.01799600 0.03040900 0.18971000
v 0.01799600 0.03040900 0.18971000
v -0.03762700 -0.00397900 0.05185000
v -0.03503900 -0.01406200 0.05185000
v -0.01879100 -0.03219500 0.18708200
v -0.01352900 -0.03474500 0.18705800
v 0.04222800 0.01588200 0.06265600
v 0.04222800 0.01588200 0.06265600
v 0.04222800 0.01588200 0.06265600
v 0.03797100 0.02439600 0.06265700
v 0.03797100 0.02439600 0.06265700
v 0.03797100 0.02439600 0.06265700
v 0.02311200 -0.03875400 0.06265600
v 0.02311200 -0.03875400 0.06265600
v 0.01021400 -0.04391100 0.06265500
v 0.03630400 0.01072700 0.06175000
v 0.03201200 0.02010300 0.06175000
v 0.03201200 0.02010300 0.06175000
v 0.00102300 -0.03763000 0.18964700
v 0.01625700 -0.03411200 0.18965000
v 0.00437000 -0.03496900 0.18971700
v -0.00316500 -0.03516700 0.18972500
v -0.00316500 -0.03516700 0.18972500
v 0.01140400 -0.03340200 0.18971000
v 0.01140400 -0.03340200 0.18971000
v 0.01140400 -0.03340200 0.18971000
v 0.00583800 -0.03493600 0.19065000
v 0.00583800 -0.03493600 0.19065000
v 0.02141300 -0.02274600 0.19905000
v 0.02859700 -0.01283100 0.19905000
v -0.04222900 0.01490100 0.06528000
v 0.00400800 0.03747700 0.18965000
v -0.02380300 -0.02868800 0.18706200
v 0.00402900 0.03767700 0.05185000
v 0.01306300 0.03545400 0.05185000
v -0.00723400 -0.03659600 0.18709000
v -0.03126100 -0.00092700 0.19905000
v -0.02932900 0.01116300 0.19905000
v -0.01062500 0.04145400 0.06175000
v -0.01062500 0.04145400 0.06175000
v -0.02099100 0.03720700 0.06175000
v 0.02360600 0.02633500 0.18974400
v 0.02360600 0.02633500 0.18974400
v 0.02360600 0.02633500 0.18974400
v 0.02373000 0.03571100 0.06175000
v 0.02373000 0.03571100 0.06175000
v 0.01062500 0.04145400 0.06175000
v 0.01062500 0.04145400 0.06175000
v -0.00737700 0.03714200 0.05185000
v -0.02074300 0.03193000 0.05185000
v -0.03613800 0.02274600 0.06260000
v -0.03613800 0.02274600 0.06260000
v -0.03911400 0.01709300 0.06259700
v -0.04032700 -0.01376200 0.06175000
v -0.03643300 -0.02230700 0.06175000
v -0.03643300 -0.02230700 0.06175000
v -0.03643300 -0.02230700 0.06175000
v -0.02607700 0.02388600 0.18972300
v -0.02607700 0.02388600 0.18972300
v -0.02607700 0.02388600 0.18972300
v -0.03109900 0.01685400 0.18973900
v -0.03109900 0.01685400 0.18973900
v -0.03759300 -0.00184700 0.18965000
v -0.03662600 0.00842200 0.18964800
v -0.02808800 -0.02453600 0.18708400
v 0.01721500 -0.03070800 0.19064600
v 0.01721500 -0.03070800 0.19064600
v 0.01721500 -0.03070800 0.19064600
v 0.01721500 -0.03070800 0.19064600
v 0.01721500 -0.03070800 0.19064600
v 0.02636800 -0.02362500 0.19065000
v 0.02636800 -0.02362500 0.19065000
v 0.02636800 -0.02362500 0.19065000
v 0.02636800 -0.02362500 0.19065000
v 0.03447300 0.01539900 0.18964500
v 0.03081400 0.00590100 0.19065000
v 0.02685400 0.01594800 0.19065000
v -0.03234000 0.02788400 0.06260300
v -0.04165900 0.00951600 0.06260800
v 0.04413000 0.00635900 0.06556500
v 0.04260500 0.00320200 0.06260900
v 0.04260500 0.00320200 0.06260900
v 0.04260500 0.00320200 0.06260900
v 0.04260500 0.00320200 0.06260900
v -0.04331200 0.01263000 0.06265700
v -0.04481400 0.00469500 0.06265700
v -0.03107100 0.02953500 0.06175000
v -0.03107100 0.02953500 0.06175000
v -0.00163100 -0.04258400 0.06259700
v -0.00163100 -0.04258400 0.06259700
v -0.00163100 -0.04258400 0.06259700
v -0.00946600 -0.04160900 0.06260800
v -0.00946600 -0.04160900 0.06260800
v -0.00946600 -0.04160900 0.06260800
v -0.00946600 -0.04160900 0.06260800
v -0.03511300 0.00384100 0.18975200
v -0.03511300 0.00384100 0.18975200
v -0.03378800 0.01008900 0.18981900
v -0.03378800 0.01008900 0.18981900
v -0.03378800 0.01008900 0.18981900
v -0.00945700 0.03352700 0.07587000
v -0.01608100 0.03049200 0.07642500
v -0.02973800 -0.02339400 0.05185000
v 0.03189500 -0.03184400 0.06265700
v 0.03189500 -0.03184400 0.06265700
v 0.03189500 -0.03184400 0.06265700
v -0.03899500 0.01755800 0.06175000
v -0.03899500 0.01755800 0.06175000
v 0.02826300 -0.02481600 0.18964400
v 0.03502400 -0.01397500 0.18965000
v -0.04050800 -0.01853600 0.06560700
v -0.03687900 -0.02515900 0.06538700
v 0.02010400 0.04037300 0.06265700
v 0.02010400 0.04037300 0.06265700
v 0.02010400 0.04037300 0.06265700
v 0.02084200 0.02336900 0.19065100
v 0.02826000 0.02122300 0.18972400
v -0.03638000 -0.00993800 0.06175000
v -0.03303900 -0.01845300 0.06175000
v -0.03298200 0.03074700 0.06265800
v -0.03887800 0.02305100 0.06265800
v -0.01270500 0.04331700 0.06265500
v -0.02006300 0.04039500 0.06265800
v 0.03703500 -0.02561300 0.06265700
v 0.03703500 -0.02561300 0.06265700
v 0.03703500 -0.02561300 0.06265700
v -0.00702100 -0.03462600 0.19064900
v -0.00702100 -0.03462600 0.19064900
v -0.00702100 -0.03462600 0.19064900
v -0.00702100 -0.03462600 0.19064900
v -0.00702100 -0.03462600 0.19064900
v -0.00702100 -0.03462600 0.19064900
v -0.01711100 -0.03080000 0.19065000
v -0.01711100 -0.03080000 0.19065000
v -0.00159700 0.03530600 0.18972300
v -0.00159700 0.03530600 0.18972300
v -0.00861400 0.03432600 0.18970900
v -0.00861400 0.03432600 0.18970900
v -0.00861400 0.03432600 0.18970900
v 0.02700400 0.03617800 0.06265700
v 0.00462400 0.04246800 0.06259700
v -0.00160100 0.04268600 0.06259800
v 0.02168300 -0.03670700 0.06175000
v 0.01000000 -0.04160100 0.06175000
v 0.01000000 -0.04160100 0.06175000
v 0.01000000 -0.04160100 0.06175000
v -0.03847100 -0.01851900 0.06260200
v -0.03847100 -0.01851900 0.06260200
v -0.03847100 -0.01851900 0.06260200
v -0.03442600 -0.02516500 0.06260400
v -0.03442600 -0.02516500 0.06260400
v -0.01401200 0.04035200 0.06259900
v -0.01401200 0.04035200 0.06259900
v 0.03639600 0.00824400 0.18703100
v 0.00466400 0.03708700 0.18704500
v 0.03257100 -0.01938400 0.06175000
v 0.03782300 -0.00396000 0.06175000
v -0.00001300 0.03333800 0.18214600
v -0.03677400 0.00933900 0.05185000
v -0.02708100 -0.03313700 0.06175000
v -0.02708100 -0.03313700 0.06175000
v -0.02708100 -0.03313700 0.06175000
v -0.01596300 -0.03952800 0.06175000
v -0.03016500 -0.03013200 0.06260800
v -0.03016500 -0.03013200 0.06260800
v -0.02396500 -0.03531500 0.06260200
v -0.02396500 -0.03531500 0.06260200
v -0.02396500 -0.03531500 0.06260200
v -0.04300300 -0.01155300 0.06561200
v 0.03298300 0.03074600 0.06265700
v 0.03298300 0.03074600 0.06265700
v 0.04208200 0.01506600 0.06550300
v -0.00405300 0.03520100 0.19065100
v -0.00405300 0.03520100 0.19065100
v -0.00405300 0.03520100 0.19065100
v -0.00405300 0.03520100 0.19065100
v 0.01065600 0.03583400 0.18707300
v 0.00423500 -0.04241800 0.06259900
v 0.00423500 -0.04241800 0.06259900
v 0.01255300 -0.04078500 0.06260800
v 0.01255300 -0.04078500 0.06260800
v 0.01255300 -0.04078500 0.06260800
v -0.03137300 -0.01642700 0.19065000
v -0.03137300 -0.01642700 0.19065000
v -0.02376100 -0.02604100 0.19064800
v -0.03789900 0.00005000 0.06175000
v -0.02944000 -0.01030200 0.19905000
v -0.02428900 -0.01979400 0.19905000
v 0.03773200 0.01997800 0.06260800
v 0.03773200 0.01997800 0.06260800
v 0.03773200 0.01997800 0.06260800
v 0.03773200 0.01997800 0.06260800
v 0.04083500 0.01260300 0.06260800
v 0.04083500 0.01260300 0.06260800
v 0.04083500 0.01260300 0.06260800
v 0.04083500 0.01260300 0.06260800
v 0.04083500 0.01260300 0.06260800
v 0.01458200 0.04230600 0.06541100
v 0.00678800 0.04412600 0.06555200
v 0.03250400 0.01397900 0.18971700
v 0.03250400 0.01397900 0.18971700
v 0.03250400 0.01397900 0.18971700
v 0.03455400 0.00724800 0.18970400
v 0.03032700 -0.00807600 0.19065000
v -0.00401200 0.03739300 0.18964500
v -0.00542200 -0.03070200 0.19065000
v -0.00542200 -0.03070200 0.19065000
v 0.00271800 -0.03102200 0.19065000
v 0.00608600 0.03486100 0.18973800
v 0.00608600 0.03486100 0.18973800
v 0.02621500 -0.02366000 0.18972400
v 0.01928400 -0.02959200 0.18973700
v 0.01928400 -0.02959200 0.18973700
v -0.00161600 -0.04508100 0.06265500
v -0.00161600 -0.04508100 0.06265500
v -0.00161600 -0.04508100 0.06265500
v -0.03452900 -0.00692700 0.19065000
v -0.00147700 0.04455600 0.06574700
v -0.03122800 0.02142300 0.05185000
v -0.02700500 0.03617800 0.06265700
v 0.03910600 -0.01702500 0.06260800
v 0.03910600 -0.01702500 0.06260800
v -0.04497900 -0.00316700 0.06265500
v -0.02132500 0.03706800 0.06260300
v -0.02784500 0.03237800 0.06259900
v -0.02784500 0.03237800 0.06259900
v -0.03524700 -0.00168100 0.18970000
v -0.03425000 -0.00865500 0.18972000
v 0.03730400 0.00138200 0.18704200
v -0.02879900 -0.02034900 0.18972600
v -0.02879900 -0.02034900 0.18972600
v 0.01161000 -0.02899100 0.19065000
v 0.01897500 -0.02467800 0.19065000
v -0.01162000 -0.03332800 0.18971800
v -0.01162000 -0.03332800 0.18971800
v -0.01162000 -0.03332800 0.18971800
v 0.03775600 0.00115500 0.18964400
v -0.02252700 0.02728900 0.19065100
v -0.02252700 0.02728900 0.19065100
v -0.02252700 0.02728900 0.19065100
v 0.00444500 -0.03750600 0.05185000
v 0.01817900 -0.03335900 0.05185000
v -0.03015400 0.02323100 0.06175000
v -0.03603800 0.01136900 0.06175000
v 0.02973800 -0.02339400 0.05185000
v 0.03548100 -0.01304000 0.05185000
v -0.01445400 -0.02771500 0.19905000
v 0.01287800 0.02847600 0.19065000
v 0.00369800 0.03110600 0.19065000
v 0.00369800 0.03110600 0.19065000
v 0.03733400 -0.02094900 0.06175000
v 0.03733400 -0.02094900 0.06175000
v 0.03733400 -0.02094900 0.06175000
v 0.03702900 -0.00472500 0.18707100
v 0.02931900 -0.03096100 0.06175000
v 0.03169800 -0.02849000 0.06260800
v 0.03531500 -0.02398600 0.06260800
v 0.03531500 -0.02398600 0.06260800
v 0.03077700 0.02195100 0.05185000
v 0.02265500 0.03046900 0.05185000
v -0.01372800 -0.04225700 0.06570500
v -0.02970900 -0.00972400 0.19065000
v -0.02555000 -0.01784000 0.19065100
v 0.03377400 -0.02913700 0.06540800
v -0.01347900 0.03517200 0.18964900
v -0.02331500 0.02973300 0.18963900
v 0.02907700 0.03124600 0.06261200
v 0.02410000 0.03532400 0.06260800
v 0.02375700 -0.02940500 0.06175000
v 0.01579900 -0.03422100 0.06175000
v 0.02255700 0.03848600 0.06560100
v 0.03535800 -0.00000800 0.18970800
v 0.03535800 -0.00000800 0.18970800
v -0.04366000 -0.01109300 0.06265800
v -0.00639100 0.03066600 0.19905000
v 0.00446600 0.03100500 0.19905000
v 0.00446600 0.03100500 0.19905000
v 0.00446600 0.03100500 0.19905000
v 0.00446600 0.03100500 0.19905000
v -0.02156000 -0.03956900 0.06265700
v -0.02156000 -0.03956900 0.06265700
v -0.01258000 -0.04326200 0.06265700
v -0.01258000 -0.04326200 0.06265700
v -0.02101100 -0.03139500 0.05185000
v -0.00886200 -0.03686200 0.05185000
v 0.02892800 0.03407700 0.06541700
v 0.02479400 -0.01897500 0.19065000
v 0.03779400 -0.00185700 0.05185000
v 0.03620800 0.01134400 0.05185000
v -0.01416400 0.03234000 0.19065000
v 0.03105600 -0.01679900 0.18972700
v 0.03105600 -0.01679900 0.18972700
v 0.03105600 -0.01679900 0.18972700
v 0.03312000 -0.01225800 0.19064800
v 0.03312000 -0.01225800 0.19064800
v 0.03312000 -0.01225800 0.19064800
v 0.03312000 -0.01225800 0.19064800
v 0.03312000 -0.01225800 0.19064800
v -0.01844700 -0.03003300 0.18974800
v 0.03375400 0.02927300 0.06541200
v 0.03516500 -0.00236000 0.19064600
v 0.03516500 -0.00236000 0.19064600
v 0.03516500 -0.00236000 0.19064600
v 0.03516500 -0.00236000 0.19064600
v 0.03516500 -0.00236000 0.19064600
v 0.03417900 0.00942800 0.19064900
v 0.03417900 0.00942800 0.19064900
v 0.03417900 0.00942800 0.19064900
v 0.03417900 0.00942800 0.19064900
v -0.02078400 -0.03957700 0.06528900
v -0.01726800 -0.02626200 0.19065000
v -0.01726800 -0.02626200 0.19065000
v -0.01726800 -0.02626200 0.19065000
v -0.01726800 -0.02626200 0.19065000
v -0.00333400 -0.03757700 0.06175000
v -0.01590800 -0.03445800 0.06175000
v 0.02852400 0.02092500 0.19065000
v 0.02852400 0.02092500 0.19065000
v 0.02852400 0.02092500 0.19065000
v 0.02852400 0.02092500 0.19065000
v -0.01704200 -0.03906400 0.06259700
v -0.02083700 0.02782600 0.07598300
v -0.00794200 0.04197000 0.06259800
v 0.01706500 0.03916200 0.06261000
v 0.01706500 0.03916200 0.06261000
v 0.01706500 0.03916200 0.06261000
v -0.00190800 0.03784400 0.06175000
v -0.01634300 0.03439400 0.06175000
v -0.03448800 -0.01534500 0.18964500
v -0.02735400 -0.02580700 0.18965000
v -0.02684500 -0.03551500 0.06558300
v 0.03342800 0.02664600 0.06260300
v 0.00696900 -0.03714500 0.06175000
v -0.00851500 0.03023600 0.19065000
v -0.00851500 0.03023600 0.19065000
v -0.01934600 0.02462500 0.19065000
v 0.03427100 -0.00865300 0.18974600
v 0.03427100 -0.00865300 0.18974600
v 0.03427100 -0.00865300 0.18974600
v -0.04121400 -0.01100500 0.06260800
v -0.02414200 -0.02574600 0.18972200
v -0.01647600 0.02663400 0.19905000
v 0.03857700 0.02237100 0.06559100
v -0.02368500 0.02036900 0.19905000
v -0.02825100 -0.03505000 0.06265700
v -0.00339100 0.04502400 0.06265800
v -0.00339100 0.04502400 0.06265800
v -0.00339100 0.04502400 0.06265800
v -0.03174600 -0.03128400 0.06544600
v -0.03229500 0.01946400 0.18964800
v -0.04240200 -0.00473900 0.06260800
v -0.00478900 -0.04245300 0.06175000
v -0.00478900 -0.04245300 0.06175000
v -0.00478900 -0.04245300 0.06175000
v 0.01992800 -0.03768200 0.06260800
v 0.03122200 -0.00131300 0.19905000
v 0.03023000 0.00779700 0.19905000
v -0.04033800 -0.02026200 0.06265500
v -0.01146800 0.04329700 0.06531700
v -0.01514600 0.03193700 0.18972000
v -0.02103500 0.02840800 0.18971600
v 0.04137500 -0.01672200 0.06543900
v -0.01802500 -0.03299500 0.18965000
v 0.04104000 -0.01865800 0.06265700
v 0.04448000 -0.00781500 0.06265700
v 0.04448000 -0.00781500 0.06265700
v 0.04448000 -0.00781500 0.06265700
v 0.01096800 0.04128500 0.06259900
v 0.01096800 0.04128500 0.06259900
v 0.01096800 0.04128500 0.06259900
v 0.02660400 -0.03337600 0.06260800
v 0.02660400 -0.03337600 0.06260800
v -0.03120500 -0.00029200 0.19065000
v 0.02592600 0.01770100 0.19905000
v 0.02592600 0.01770100 0.19905000
v 0.01603700 0.02700400 0.19905000
v 0.00684800 0.03472700 0.19065000
v 0.00684800 0.03472700 0.19065000
v 0.00684800 0.03472700 0.19065000
v 0.01879500 0.03009800 0.19064900
v 0.01879500 0.03009800 0.19064900
v 0.01879500 0.03009800 0.19064900
v 0.01879500 0.03009800 0.19064900
v 0.03784600 -0.02352300 0.06548400
v -0.02644700 -0.02692200 0.06175000
v -0.03409900 -0.02947500 0.06265800
v -0.03409900 -0.02947500 0.06265800
v -0.03409900 -0.02947500 0.06265800
v -0.03169600 -0.01545600 0.18972900
v 0.04252700 -0.00308400 0.06260800
v 0.04489100 0.00505200 0.06265700
v 0.00000000 0.04270900 0.06175000
v 0.02318100 0.03020400 0.06175000
v -0.00841200 -0.03657000 0.18965000
v 0.03311400 0.02696900 0.06175000
v 0.00986500 0.03658300 0.06175000
vn -0.08790000 -0.99610000 0.01240000
vn -0.00000000 -0.00000000 -1.00000000
vn -0.00000000 -0.00000000 -1.00000000
vn -0.00000000 -0.00000000 -1.00000000
vn -0.05990000 0.99800000 0.02090000
vn -0.20500000 0.97870000 -0.00970000
vn -0.96530000 -0.26080000 0.01220000
vn -0.92870000 -0.37030000 -0.01860000
vn -0.42970000 0.90280000 0.01850000
vn -0.00000000 -0.00000000 -1.00000000
vn -0.87100000 -0.49110000 0.00990000
vn -0.00000000 -0.00000000 -1.00000000
vn -0.69230000 -0.72140000 0.01730000
vn -0.79090000 0.61190000 0.00060000
vn -0.83430000 0.55120000 -0.01020000
vn -0.55850000 -0.82930000 -0.01720000
vn -0.42120000 -0.90690000 0.00850000
vn -0.00000000 -0.00000000 -1.00000000
vn -0.00000000 -0.00000000 -1.00000000
vn -0.00000000 -0.00000000 -1.00000000
vn 0.98620000 -0.12450000 -0.10940000
vn 0.98620000 -0.12450000 -0.10940000
vn 0.89610000 -0.18500000 0.40350000
vn 0.89630000 -0.35310000 -0.26840000
vn 0.72860000 -0.67840000 -0.09440000
vn 0.56920000 -0.73280000 0.37270000
vn 0.05540000 0.96520000 0.25570000
vn 0.10290000 0.99260000 0.06520000
vn 0.43280000 -0.89430000 -0.11330000
vn -0.25070000 0.88560000 0.39100000
vn 0.43280000 -0.89430000 -0.11330000
vn 0.25670000 0.96380000 -0.07240000
vn 0.06090000 -0.99630000 -0.06040000
vn 0.46130000 0.88150000 -0.10090000
vn -0.20260000 -0.93270000 -0.29850000
vn 0.57310000 0.78730000 -0.22730000
vn 0.78910000 0.61370000 -0.02710000
vn 0.04170000 0.03640000 0.99850000
vn 0.78900000 0.38810000 0.47630000
vn 0.98760000 0.13360000 0.08300000
vn 0.45440000 0.70640000 -0.54270000
vn 0.50150000 0.84290000 -0.19510000
vn 0.16920000 -0.80980000 -0.56180000
vn 0.24640000 0.80140000 -0.54500000
vn 0.35550000 0.91470000 -0.19220000
vn 0.15310000 0.98260000 -0.10480000
vn -0.00710000 0.80220000 -0.59700000
vn -0.08380000 0.80800000 -0.58320000
vn 0.11080000 -0.97590000 -0.18810000
vn 0.38370000 -0.74400000 -0.54710000
vn 0.37070000 -0.90910000 -0.19020000
vn 0.56210000 -0.61530000 -0.55270000
vn 0.59690000 -0.78060000 -0.18520000
vn 0.71480000 -0.43610000 -0.54660000
vn 0.79980000 -0.57070000 -0.18600000
vn 0.81630000 -0.21210000 -0.53730000
vn 0.92150000 -0.35080000 -0.16680000
vn 0.97080000 -0.14700000 -0.18950000
vn 0.82920000 -0.03310000 -0.55800000
vn 0.97910000 0.09420000 -0.18050000
vn 0.81370000 0.17190000 -0.55530000
vn 0.91740000 0.34860000 -0.19220000
vn 0.75400000 0.35980000 -0.54960000
vn 0.69750000 0.48390000 -0.52860000
vn 0.80520000 0.56470000 -0.18100000
vn 0.63340000 0.69480000 -0.34080000
vn 0.50260000 0.84550000 0.18060000
vn 0.29730000 0.77620000 0.55600000
vn 0.31190000 0.92920000 0.19830000
vn -0.07050000 -0.81900000 0.56950000
vn 0.10180000 -0.82440000 0.55680000
vn 0.14240000 0.97210000 0.18640000
vn -0.07620000 0.98040000 0.18180000
vn 0.03880000 0.82830000 0.55890000
vn -0.00380000 -0.98000000 0.19910000
vn 0.22520000 -0.95310000 0.20210000
vn 0.25850000 -0.78890000 0.55760000
vn 0.41830000 -0.88490000 0.20470000
vn 0.41570000 -0.70030000 0.58040000
vn 0.56520000 -0.80380000 0.18560000
vn 0.53920000 -0.63910000 0.54850000
vn 0.72030000 -0.66920000 0.18250000
vn 0.85350000 -0.48770000 0.18350000
vn 0.68280000 -0.47100000 0.55850000
vn 0.92890000 -0.31450000 0.19540000
vn 0.78210000 -0.27700000 0.55820000
vn 0.97940000 -0.06250000 0.19210000
vn 0.82830000 -0.03320000 0.55920000
vn 0.96240000 0.19320000 0.19120000
vn 0.81140000 0.18340000 0.55490000
vn 0.89320000 0.40340000 0.19850000
vn 0.75210000 0.35960000 0.55230000
vn 0.79250000 0.57650000 0.19890000
vn 0.66100000 0.50970000 0.55080000
vn 0.66240000 0.72350000 0.19470000
vn 0.52100000 0.65310000 0.54960000
vn -0.20260000 -0.93270000 -0.29850000
vn -0.00000000 -0.00000000 1.00000000
vn -0.00010000 -0.00010000 1.00000000
vn 0.00060000 -0.00060000 1.00000000
vn -0.00000000 -0.00000000 1.00000000
vn -0.00010000 -0.00000000 1.00000000
vn -0.00000000 -0.00000000 1.00000000
vn -0.00020000 -0.00030000 1.00000000
vn -0.00010000 -0.00000000 1.00000000
vn -0.00000000 -0.00000000 1.00000000
vn -0.00000000 -0.00010000 1.00000000
vn 0.00010000 -0.00010000 1.00000000
vn -0.64080000 0.75930000 -0.11370000
vn -0.00030000 -0.00010000 1.00000000
vn -0.00030000 -0.00040000 1.00000000
vn -0.00020000 -0.00030000 1.00000000
vn -0.00000000 -0.00000000 1.00000000
vn -0.00030000 -0.00010000 1.00000000
vn -0.00000000 -0.00010000 1.00000000
vn -0.02110000 -0.00150000 0.99980000
vn -0.00490000 0.03150000 0.99950000
vn -0.00690000 0.03100000 0.99950000
vn -0.96780000 -0.20590000 -0.14500000
vn -0.25350000 0.95510000 -0.15370000
vn -0.90320000 -0.40800000 -0.13300000
vn -0.00690000 0.03100000 0.99950000
vn -0.00980000 0.02770000 0.99960000
vn -0.02040000 0.02630000 0.99940000
vn -0.62860000 0.71740000 -0.30030000
vn -0.72170000 -0.68770000 -0.07950000
vn -0.77280000 0.60840000 -0.18080000
vn -0.03200000 0.02100000 0.99930000
vn -0.47900000 -0.87390000 -0.08280000
vn -0.22940000 -0.97080000 -0.07010000
vn -0.03700000 0.00980000 0.99930000
vn 0.00200000 -0.03130000 0.99950000
vn -0.47840000 -0.57860000 -0.66050000
vn -0.57160000 -0.49330000 -0.65570000
vn -0.37210000 -0.65110000 -0.66160000
vn -0.28230000 -0.70060000 -0.65530000
vn -0.14230000 -0.73140000 -0.66700000
vn -0.01340000 -0.90210000 -0.43130000
vn -0.04850000 0.92590000 -0.37480000
vn -0.24530000 0.81210000 -0.52940000
vn -0.48970000 0.72970000 -0.47730000
vn -0.44200000 0.86120000 -0.25110000
vn -0.63230000 0.59550000 -0.49570000
vn -0.77170000 0.44900000 -0.45050000
vn -0.87960000 0.33410000 -0.33870000
vn -0.92820000 0.11790000 -0.35280000
vn -0.91010000 -0.05920000 -0.41020000
vn -0.86970000 -0.28560000 -0.40250000
vn -0.79610000 -0.50280000 -0.33680000
vn -0.92840000 0.04700000 -0.36850000
vn -0.82720000 -0.12130000 -0.54870000
vn -0.76880000 -0.32800000 -0.54890000
vn -0.27950000 0.76900000 -0.57490000
vn -0.70510000 -0.45730000 -0.54190000
vn -0.43710000 0.72350000 -0.53440000
vn -0.58890000 -0.58420000 -0.55840000
vn -0.44950000 -0.71160000 -0.53990000
vn -0.60750000 0.56560000 -0.55770000
vn -0.26790000 -0.78680000 -0.55600000
vn -0.72720000 0.37710000 -0.57360000
vn -0.04720000 -0.82330000 -0.56560000
vn -0.81110000 0.18660000 -0.55440000
vn -0.96140000 -0.21360000 -0.17330000
vn -0.97980000 -0.04140000 0.19540000
vn -0.90920000 -0.36410000 0.20200000
vn -0.23190000 0.95280000 -0.19600000
vn -0.25380000 0.94600000 0.20150000
vn -0.87510000 -0.44960000 -0.17890000
vn -0.79430000 -0.57040000 0.20890000
vn -0.40600000 0.89500000 0.18470000
vn -0.77470000 -0.60450000 -0.18570000
vn -0.68250000 -0.70480000 0.19340000
vn -0.45440000 0.86750000 -0.20260000
vn -0.55830000 0.80290000 0.20880000
vn -0.58930000 -0.78580000 -0.18750000
vn -0.69510000 0.69420000 0.18670000
vn -0.53490000 -0.82020000 0.20280000
vn -0.63140000 0.76070000 -0.15070000
vn -0.81520000 0.54290000 0.20180000
vn -0.37440000 -0.90590000 0.19800000
vn -0.80360000 0.56910000 -0.17440000
vn -0.39000000 -0.89780000 -0.20470000
vn -0.90650000 0.37370000 0.19650000
vn -0.18770000 -0.96530000 0.18160000
vn -0.16170000 -0.97080000 -0.17740000
vn -0.93340000 0.31050000 -0.18000000
vn -0.96410000 0.17300000 0.20120000
vn -0.77230000 -0.32370000 0.54670000
vn -0.40150000 0.79230000 -0.45940000
vn -0.82130000 -0.09970000 0.56170000
vn -0.23490000 -0.79590000 0.55800000
vn -0.81650000 0.15330000 0.55660000
vn -0.30890000 -0.93180000 0.19090000
vn -0.41880000 -0.72160000 0.55120000
vn -0.76440000 0.34210000 0.54650000
vn -0.56510000 -0.61420000 0.55080000
vn -0.66120000 0.50550000 0.55440000
vn -0.68070000 -0.48290000 0.55080000
vn -0.40150000 0.79230000 -0.45940000
vn -0.50970000 0.66560000 0.54510000
vn -0.65610000 -0.30670000 0.68950000
vn -0.82210000 -0.56050000 0.09980000
vn -0.02010000 -0.01390000 -0.99970000
vn -0.02180000 -0.00710000 -0.99970000
vn -0.01960000 -0.00980000 -0.99980000
vn -0.02030000 -0.00700000 -0.99980000
vn -0.74870000 -0.64070000 0.17020000
vn -0.69570000 -0.70170000 0.15350000
vn -0.01400000 -0.02080000 -0.99970000
vn -0.01390000 -0.01630000 -0.99980000
vn -0.01520000 -0.01580000 -0.99980000
vn -0.58380000 -0.79710000 0.15390000
vn -0.45120000 -0.88220000 0.13450000
vn -0.48190000 -0.86500000 0.13960000
vn -0.26800000 -0.94600000 0.18220000
vn -0.12010000 -0.89780000 0.42370000
vn -0.03130000 -0.98430000 0.17370000
vn 0.06950000 -0.90820000 0.41270000
vn -0.02390000 0.98380000 0.17770000
vn -0.08710000 0.97880000 0.18520000
vn -0.24210000 0.96090000 0.13410000
vn -0.00680000 0.02250000 -0.99970000
vn -0.01120000 0.02380000 -0.99970000
vn -0.00940000 0.02030000 -0.99980000
vn -0.38280000 0.81450000 0.43590000
vn -0.01370000 0.01850000 -0.99970000
vn -0.60360000 0.76120000 0.23730000
vn -0.01590000 0.01550000 -0.99980000
vn -0.01930000 0.01480000 -0.99970000
vn -0.01930000 0.01470000 -0.99970000
vn -0.69780000 0.57330000 0.42950000
vn -0.01930000 0.01470000 -0.99970000
vn -0.02040000 0.01240000 -0.99970000
vn -0.84920000 0.49000000 0.19680000
vn -0.93140000 0.34970000 0.10130000
vn -0.02170000 0.00410000 -0.99980000
vn -0.02100000 0.00560000 -0.99980000
vn -0.98110000 0.11470000 0.15610000
vn -0.02080000 0.00060000 -0.99980000
vn -0.01870000 0.00210000 -0.99980000
vn -0.02170000 0.00410000 -0.99980000
vn -0.01860000 -0.00050000 -0.99980000
vn -0.02060000 -0.00380000 -0.99980000
vn -0.02080000 0.00060000 -0.99980000
vn -0.97990000 -0.09850000 0.17350000
vn -0.02030000 -0.00700000 -0.99980000
vn -0.02060000 -0.00380000 -0.99980000
vn -0.02040000 -0.00380000 -0.99980000
vn -0.69770000 -0.18980000 0.69080000
vn 0.85110000 -0.28710000 -0.43960000
vn 0.01870000 -0.00250000 -0.99980000
vn 0.02440000 -0.00020000 -0.99970000
vn 0.95510000 0.17980000 0.23530000
vn 0.00270000 -0.02520000 -0.99970000
vn 0.89140000 0.37500000 0.25450000
vn 0.80660000 0.52040000 -0.28030000
vn 0.01800000 0.01450000 -0.99970000
vn 0.01350000 0.01480000 -0.99980000
vn 0.01700000 0.01020000 -0.99980000
vn 0.01260000 0.01440000 -0.99980000
vn 0.01350000 0.01480000 -0.99980000
vn 0.02740000 -0.96740000 -0.25170000
vn 0.00870000 0.01650000 -0.99980000
vn 0.01140000 0.01860000 -0.99980000
vn 0.01260000 0.01440000 -0.99980000
vn 0.37370000 -0.88820000 -0.26730000
vn 0.00870000 0.01650000 -0.99980000
vn 0.00900000 0.02060000 -0.99970000
vn 0.00810000 0.01860000 -0.99980000
vn 0.00830000 -0.01970000 -0.99980000
vn 0.00870000 -0.01850000 -0.99980000
vn 0.27520000 0.95810000 0.07900000
vn 0.58300000 -0.76540000 -0.27240000
vn 0.00040000 0.02470000 -0.99970000
vn 0.00280000 0.02480000 -0.99970000
vn 0.00490000 0.02470000 -0.99970000
vn -0.00270000 0.02360000 -0.99970000
vn -0.00020000 0.02550000 -0.99970000
vn 0.01610000 -0.01290000 -0.99980000
vn 0.01650000 -0.01360000 -0.99980000
vn 0.01330000 -0.01380000 -0.99980000
vn 0.01610000 -0.01290000 -0.99980000
vn 0.01830000 -0.01060000 -0.99980000
vn 0.01720000 -0.00940000 -0.99980000
vn 0.01720000 -0.00940000 -0.99980000
vn 0.01950000 -0.00660000 -0.99980000
vn -0.23270000 -0.88910000 -0.39420000
vn -0.00000000 -0.00000000 -1.00000000
vn -0.00000000 -0.00000000 -1.00000000
vn 0.01610000 0.99960000 0.02220000
vn -0.00000000 -0.00000000 -1.00000000
vn -0.93960000 -0.33550000 0.06820000
vn -0.00000000 -0.00000000 -1.00000000
vn -0.70060000 -0.60490000 -0.37860000
vn -0.55630000 0.75830000 -0.33990000
vn -0.59870000 -0.71650000 0.35820000
vn -0.00000000 -0.00000000 -1.00000000
vn -0.00000000 -0.00000000 -1.00000000
vn -0.00000000 -0.00000000 1.00000000
vn -0.00000000 -0.00000000 1.00000000
vn -0.00000000 -0.00010000 1.00000000
vn -0.27080000 0.96260000 -0.01200000
vn -0.00010000 -0.00000000 1.00000000
vn -0.00000000 -0.00000000 1.00000000
vn 0.14550000 0.98930000 0.01370000
vn -0.00000000 -0.00000000 1.00000000
vn -0.00000000 0.00010000 1.00000000
vn -0.00000000 -0.00000000 1.00000000
vn -0.00030000 -0.00040000 1.00000000
vn -0.00020000 -0.00030000 1.00000000
vn -0.00010000 -0.00000000 1.00000000
vn -0.00000000 0.00010000 1.00000000
vn 0.00010000 -0.00010000 1.00000000
vn -0.00000000 -0.00010000 1.00000000
vn -0.00000000 -0.00000000 1.00000000
vn 0.00010000 -0.00010000 1.00000000
vn -0.54920000 -0.83570000 -0.00130000
vn 0.00010000 -0.00010000 1.00000000
vn -0.00000000 0.00010000 1.00000000
vn 0.00010000 -0.00010000 1.00000000
vn -0.00000000 -0.00000000 1.00000000
vn -0.00000000 0.00010000 1.00000000
vn -0.00000000 -0.00000000 1.00000000
vn 0.00010000 -0.00010000 1.00000000
vn -0.00000000 -0.00000000 1.00000000
vn -0.20440000 -0.97880000 -0.01270000
vn -0.07280000 -0.99710000 0.02340000
vn -0.00000000 -0.00000000 1.00000000
vn -0.00010000 -0.00010000 1.00000000
vn -0.00000000 -0.00020000 1.00000000
vn 0.68080000 -0.73210000 0.02480000
vn 0.90790000 -0.41900000 0.01320000
vn 0.82930000 0.55870000 0.00810000
vn -0.00010000 -0.00010000 1.00000000
vn -0.00000000 -0.00000000 1.00000000
vn -0.00000000 -0.00000000 1.00000000
vn -0.00000000 -0.00000000 1.00000000
vn 0.00020000 0.00010000 1.00000000
vn 0.00100000 -0.00000000 1.00000000
vn 0.00050000 -0.00030000 1.00000000
vn 0.00060000 -0.00060000 1.00000000
vn 0.00050000 -0.00090000 1.00000000
vn -0.00000000 -0.00000000 1.00000000
vn 0.00020000 0.00010000 1.00000000
vn -0.00000000 -0.00010000 1.00000000
vn -0.00000000 0.00010000 1.00000000
vn 0.00050000 -0.00090000 1.00000000
vn 0.00010000 -0.00080000 1.00000000
vn -0.00000000 -0.00010000 1.00000000
vn 0.00010000 0.00030000 1.00000000
vn 0.00050000 -0.00030000 1.00000000
vn -0.00000000 0.00010000 1.00000000
vn 0.00020000 0.00010000 1.00000000
vn 0.00020000 0.00020000 1.00000000
vn -0.00000000 -0.00000000 1.00000000
vn 0.00010000 0.00030000 1.00000000
vn 0.00090000 -0.00000000 1.00000000
vn 0.00100000 -0.00000000 1.00000000
vn 0.00050000 -0.00030000 1.00000000
vn 0.10590000 0.99430000 -0.00920000
vn -0.00000000 -0.00000000 -1.00000000
vn 0.64260000 -0.76620000 0.00270000
vn 0.82260000 -0.44810000 0.34990000
vn 0.86350000 -0.50380000 0.02250000
vn -0.00000000 -0.00000000 -1.00000000
vn 0.40240000 -0.91530000 0.01710000
vn 0.04990000 -0.86700000 -0.49580000
vn 0.99510000 -0.09860000 0.00970000
vn 0.85110000 -0.28710000 -0.43950000
vn -0.00000000 -0.00000000 -1.00000000
vn 0.87930000 0.25700000 -0.40110000
vn 0.96640000 0.25680000 0.00660000
vn 0.87930000 0.25700000 -0.40110000
vn 0.84320000 0.53750000 0.00860000
vn -0.00000000 -0.00000000 -1.00000000
vn -0.00010000 -0.00010000 -1.00000000
vn -0.00000000 -0.00000000 -1.00000000
vn -0.00010000 -0.00010000 -1.00000000
vn 0.34950000 0.79750000 -0.49180000
vn 0.27470000 0.96130000 0.02090000
vn 0.34950000 0.79750000 -0.49180000
vn -0.02080000 0.00410000 -0.99980000
vn -0.02170000 0.00410000 -0.99980000
vn -0.01870000 0.00210000 -0.99980000
vn -0.97940000 0.12230000 0.16070000
vn -0.02040000 -0.00380000 -0.99980000
vn -0.01860000 -0.00050000 -0.99980000
vn -0.02060000 -0.00380000 -0.99980000
vn -0.02180000 -0.00710000 -0.99970000
vn -0.02040000 -0.00380000 -0.99980000
vn -0.02030000 -0.00700000 -0.99980000
vn -0.87210000 -0.39260000 -0.29200000
vn -0.01480000 -0.01350000 -0.99980000
vn -0.02010000 -0.01390000 -0.99970000
vn -0.01890000 -0.01360000 -0.99970000
vn -0.01480000 -0.01350000 -0.99980000
vn -0.01520000 -0.01580000 -0.99980000
vn -0.01490000 -0.01520000 -0.99980000
vn -0.00450000 0.02510000 -0.99970000
vn -0.00270000 0.02360000 -0.99970000
vn -0.46450000 -0.80980000 -0.35850000
vn -0.00980000 0.02320000 -0.99970000
vn -0.01120000 0.02380000 -0.99970000
vn -0.01200000 0.02100000 -0.99970000
vn -0.01120000 0.02380000 -0.99970000
vn -0.44430000 -0.89250000 -0.07710000
vn -0.23750000 -0.89620000 -0.37470000
vn -0.67380000 0.67420000 0.30250000
vn -0.01820000 0.01530000 -0.99970000
vn -0.01930000 0.01480000 -0.99970000
vn -0.01930000 0.01470000 -0.99970000
vn -0.01930000 0.01480000 -0.99970000
vn -0.01940000 0.01340000 -0.99970000
vn -0.02460000 0.01050000 -0.99960000
vn 0.69190000 -0.70270000 0.16590000
vn 0.52260000 -0.83300000 0.18160000
vn 0.81000000 -0.56430000 0.15960000
vn 0.01830000 -0.01060000 -0.99980000
vn 0.01840000 -0.00840000 -0.99980000
vn 0.01950000 -0.00660000 -0.99980000
vn 0.01720000 -0.00940000 -0.99980000
vn 0.22780000 -0.96290000 0.14480000
vn 0.97000000 -0.16740000 0.17650000
vn 0.01840000 0.00340000 -0.99980000
vn 0.01970000 0.00230000 -0.99980000
vn 0.92210000 0.35690000 0.14980000
vn 0.82780000 0.53140000 0.18010000
vn 0.72140000 0.67760000 0.14290000
vn 0.01260000 0.01440000 -0.99980000
vn 0.01350000 0.01480000 -0.99980000
vn 0.01140000 0.01860000 -0.99980000
vn 0.43600000 0.88290000 0.17440000
vn 0.26150000 0.95250000 0.15620000
vn 0.08840000 0.98150000 0.16960000
vn 0.41380000 -0.89690000 0.15580000
vn 0.62650000 0.36910000 0.68650000
vn 0.68490000 0.24040000 0.68780000
vn 0.55070000 0.47530000 0.68620000
vn 0.47470000 0.55300000 0.68480000
vn 0.50070000 0.85120000 0.15750000
vn 0.33580000 0.93140000 0.14030000
vn 0.15220000 0.97620000 0.15420000
vn 0.20740000 -0.87090000 0.44550000
vn 0.35150000 -0.75540000 0.55300000
vn 0.56840000 -0.70870000 0.41800000
vn 0.55110000 -0.47590000 0.68540000
vn 0.61930000 -0.37930000 0.68740000
vn 0.66780000 -0.28070000 0.68930000
vn 0.87170000 -0.21400000 0.44080000
vn 0.91480000 -0.03350000 0.40240000
vn 0.71590000 0.10460000 0.69030000
vn 0.98490000 0.04750000 -0.16670000
vn 0.97340000 0.22530000 0.04110000
vn 0.81740000 0.37150000 -0.44020000
vn 0.20930000 -0.83630000 -0.50680000
vn 0.66210000 0.58470000 -0.46880000
vn 0.32410000 -0.85400000 -0.40690000
vn 0.57150000 -0.76070000 -0.30790000
vn 0.58550000 0.72450000 -0.36370000
vn 0.71400000 -0.68440000 -0.14770000
vn 0.40530000 0.81090000 -0.42210000
vn 0.78830000 -0.51530000 -0.33620000
vn 0.28120000 0.95750000 0.06360000
vn 0.77860000 -0.34410000 -0.52480000
vn 0.13500000 0.98440000 -0.11320000
vn 0.98370000 -0.16170000 0.07930000
vn 0.80500000 0.55300000 -0.21500000
vn 0.01320000 0.02570000 0.99960000
vn 0.17700000 -0.97720000 -0.11700000
vn 0.50430000 -0.82100000 -0.26760000
vn 0.02720000 -0.02250000 0.99940000
vn 0.90790000 -0.25430000 -0.33330000
vn 0.91040000 0.39750000 -0.11510000
vn 0.99460000 0.03050000 -0.09910000
vn 0.42630000 -0.89880000 -0.10200000
vn 0.03330000 -0.01430000 0.99930000
vn 0.00270000 0.03620000 0.99930000
vn -0.25700000 0.89300000 0.36940000
vn -0.47430000 0.87150000 0.12460000
vn -0.01840000 0.02650000 0.99950000
vn -0.65800000 0.73320000 -0.17140000
vn -0.12140000 0.03650000 -0.99190000
vn -0.95500000 -0.06740000 0.28870000
vn -0.20260000 -0.93270000 -0.29850000
vn -0.93220000 -0.28140000 0.22790000
vn -0.91740000 -0.38820000 -0.08740000
vn 0.78900000 0.38810000 0.47630000
vn 0.78900000 0.38810000 0.47630000
vn 0.74050000 -0.43980000 0.50820000
vn 0.31850000 0.82220000 0.47170000
vn 0.89610000 -0.18500000 0.40350000
vn 0.31850000 0.82220000 0.47170000
vn -0.40150000 0.79230000 -0.45940000
vn -0.81940000 -0.20240000 0.53630000
vn -0.12140000 0.03650000 -0.99190000
vn -0.12140000 0.03650000 -0.99190000
vn -0.55520000 -0.82410000 0.11250000
vn -0.02210000 -0.02230000 0.99950000
vn -0.03240000 -0.02220000 0.99920000
vn -0.00000000 -0.00000000 -1.00000000
vn -0.00000000 -0.00000000 -1.00000000
vn -0.00000000 -0.00000000 -1.00000000
vn -0.00000000 -0.00000000 -1.00000000
vn -0.00000000 -0.00000000 -1.00000000
vn -0.00000000 -0.00000000 -1.00000000
vn 0.59560000 0.80320000 -0.01010000
vn 0.93920000 -0.34320000 0.00280000
vn -0.00000000 -0.00000000 -1.00000000
vn 0.00900000 0.02060000 -0.99970000
vn 0.00720000 0.02170000 -0.99970000
vn 0.00490000 0.02470000 -0.99970000
vn 0.00250000 0.02460000 -0.99970000
vn 0.00040000 0.02470000 -0.99970000
vn -0.93510000 0.03260000 -0.35280000
vn -0.98420000 0.13940000 0.10940000
vn -0.99440000 -0.08710000 0.05940000
vn -0.00000000 -0.00000000 -1.00000000
vn 0.91220000 0.02070000 -0.40920000
vn 0.95510000 0.17980000 0.23530000
vn -0.00000000 -0.00000000 -1.00000000
vn -0.00010000 -0.00010000 -1.00000000
vn 0.89140000 0.37500000 0.25450000
vn 0.81820000 0.52350000 -0.23770000
vn -0.00000000 -0.00000000 1.00000000
vn -0.00000000 0.00010000 1.00000000
vn 0.35140000 -0.93600000 0.01930000
vn -0.63330000 0.35840000 0.68590000
vn 0.71450000 0.68290000 -0.15210000
vn 0.46950000 0.87450000 -0.12160000
vn -0.82670000 0.56260000 -0.01050000
vn -0.96190000 0.27340000 -0.00540000
vn -0.94310000 0.02930000 -0.33130000
vn -0.01870000 0.00210000 -0.99980000
vn -0.02080000 0.00060000 -0.99980000
vn -0.01860000 -0.00050000 -0.99980000
vn -0.71760000 0.08710000 0.69100000
vn -0.72010000 -0.05980000 0.69130000
vn -0.79040000 0.24610000 0.56100000
vn -0.99100000 0.08010000 -0.10720000
vn -0.79040000 0.24610000 0.56100000
vn -0.85370000 0.50820000 -0.11390000
vn -0.66700000 0.56270000 0.48830000
vn 0.94200000 -0.13020000 0.30920000
vn 0.02040000 -0.00560000 -0.99980000
vn 0.01950000 -0.00660000 -0.99980000
vn 0.01870000 -0.00250000 -0.99980000
vn 0.95850000 -0.11810000 0.25970000
vn -0.00000000 -0.00000000 -1.00000000
vn 0.54470000 -0.47040000 -0.69430000
vn 0.05910000 0.16450000 -0.98460000
vn 0.31850000 0.82220000 0.47170000
vn 0.41520000 0.90820000 -0.05280000
vn 0.05910000 0.16450000 -0.98460000
vn 0.01030000 0.02220000 0.99970000
vn -0.99460000 -0.10230000 -0.01920000
vn -0.00000000 -0.00000000 -1.00000000
vn -0.52030000 -0.84700000 -0.10880000
vn -0.35320000 -0.93530000 -0.02060000
vn 0.01850000 0.00710000 -0.99980000
vn 0.01720000 0.00720000 -0.99980000
vn 0.01980000 0.01010000 -0.99980000
vn 0.01790000 0.01100000 -0.99980000
vn 0.01980000 0.01010000 -0.99980000
vn 0.01700000 0.01020000 -0.99980000
vn 0.00830000 -0.01970000 -0.99980000
vn 0.01000000 -0.01680000 -0.99980000
vn 0.00520000 -0.02000000 -0.99980000
vn -0.00000000 -0.00000000 -1.00000000
vn -0.00010000 -0.00010000 -1.00000000
vn -0.00000000 -0.00000000 -1.00000000
vn 0.02120000 -0.99460000 -0.10190000
vn 0.01140000 -0.02810000 0.99950000
vn 0.00700000 -0.03480000 0.99940000
vn -0.00340000 -0.03520000 0.99940000
vn -0.02010000 -0.90640000 0.42190000
vn 0.20770000 -0.93320000 -0.29340000
vn 0.00800000 -0.02980000 0.99950000
vn 0.30750000 -0.82690000 0.47080000
vn 0.17340000 -0.95900000 -0.22410000
vn 0.30750000 -0.82690000 0.47080000
vn -0.00000000 -0.00000000 1.00000000
vn -0.00000000 -0.00000000 1.00000000
vn -0.68900000 0.23970000 0.68390000
vn 0.11070000 0.99040000 -0.08240000
vn -0.62100000 -0.78380000 -0.00250000
vn 0.10030000 0.99490000 -0.00970000
vn 0.36440000 0.93130000 0.00040000
vn -0.17070000 -0.98220000 -0.07810000
vn -0.99970000 -0.02150000 0.00750000
vn -0.93740000 0.34820000 0.01230000
vn -0.23880000 0.95520000 0.17480000
vn -0.36190000 0.88340000 -0.29770000
vn -0.48410000 0.87310000 -0.05780000
vn 0.03990000 0.04380000 0.99820000
vn 0.58270000 0.61800000 0.52770000
vn 0.73950000 0.67320000 0.00620000
vn -0.00000000 -0.00000000 -1.00000000
vn 0.53190000 0.83710000 0.12780000
vn -0.00000000 -0.00000000 -1.00000000
vn 0.23010000 0.97020000 0.07620000
vn -0.00000000 -0.00000000 -1.00000000
vn -0.55980000 0.82860000 0.00180000
vn -0.73160000 0.48620000 -0.47790000
vn -0.87730000 0.46170000 0.13090000
vn -0.92690000 0.36830000 0.07270000
vn -0.00000000 -0.00000000 -1.00000000
vn -0.86330000 -0.39350000 -0.31590000
vn -0.00000000 -0.00000000 -1.00000000
vn -0.82530000 -0.50220000 0.25840000
vn -0.80420000 0.57400000 -0.15410000
vn -0.66700000 0.56270000 0.48830000
vn -0.03130000 0.02860000 0.99910000
vn -0.89210000 0.44540000 -0.07680000
vn -0.03630000 0.01750000 0.99920000
vn -0.99680000 -0.03810000 -0.06970000
vn -0.96890000 0.22740000 -0.09750000
vn -0.76400000 -0.63790000 -0.09750000
vn 0.56390000 -0.72890000 0.38830000
vn 0.30750000 -0.82690000 0.47080000
vn 0.00010000 -0.00080000 1.00000000
vn 0.00050000 -0.00090000 1.00000000
vn 0.00060000 -0.00060000 1.00000000
vn 0.74030000 -0.66750000 -0.08060000
vn 0.00020000 0.00010000 1.00000000
vn -0.00000000 0.00010000 1.00000000
vn 0.00010000 -0.00080000 1.00000000
vn 0.02970000 0.01290000 0.99950000
vn 0.98170000 0.19030000 -0.00990000
vn 0.87480000 0.48440000 -0.00450000
vn -0.79300000 0.60920000 -0.00090000
vn -0.92700000 0.25600000 -0.27410000
vn 0.96970000 0.16650000 0.17900000
vn 0.91670000 0.01960000 -0.39900000
vn 0.02080000 0.00070000 -0.99980000
vn 0.01840000 0.00340000 -0.99980000
vn 0.02440000 -0.00020000 -0.99970000
vn -0.95340000 0.25790000 0.15640000
vn -0.98490000 0.09200000 0.14670000
vn -0.70130000 0.67080000 0.24140000
vn -0.00000000 -0.00000000 -1.00000000
vn -0.11770000 -0.94920000 0.29190000
vn -0.00170000 -0.02310000 -0.99970000
vn -0.00430000 -0.02310000 -0.99970000
vn -0.00390000 -0.02220000 -0.99970000
vn -0.00430000 -0.02310000 -0.99970000
vn -0.00420000 -0.02160000 -0.99980000
vn -0.11770000 -0.94920000 0.29190000
vn -0.98340000 0.14260000 -0.11180000
vn -0.07980000 -0.00380000 0.99680000
vn -0.97500000 0.20750000 -0.07950000
vn -0.92890000 0.36890000 -0.03330000
vn -0.79040000 0.24610000 0.56100000
vn -0.22850000 0.79090000 0.56770000
vn -0.42040000 0.82210000 0.38390000
vn -0.78160000 -0.62360000 -0.01420000
vn 0.01330000 -0.01380000 -0.99980000
vn 0.01650000 -0.01360000 -0.99980000
vn 0.01430000 -0.01440000 -0.99980000
vn -0.90720000 0.41180000 0.08670000
vn -0.72640000 0.48060000 -0.49130000
vn 0.74410000 -0.66130000 -0.09500000
vn 0.91530000 -0.38480000 -0.11940000
vn -0.90680000 -0.38400000 0.17380000
vn -0.59260000 -0.41730000 0.68900000
vn 0.01140000 0.01860000 -0.99980000
vn 0.00870000 0.01740000 -0.99980000
vn 0.00870000 0.01650000 -0.99980000
vn 0.67060000 0.74190000 0.00410000
vn 0.04230000 0.03220000 0.99860000
vn -0.00000000 -0.00000000 -1.00000000
vn -0.00000000 -0.00000000 -1.00000000
vn -0.71450000 0.67650000 0.17830000
vn -0.84910000 0.50030000 0.16940000
vn -0.29730000 0.94360000 0.14550000
vn -0.44860000 0.87830000 0.16520000
vn 0.01830000 -0.01060000 -0.99980000
vn 0.01610000 -0.01290000 -0.99980000
vn 0.01650000 -0.01360000 -0.99980000
vn -0.00010000 -0.00010000 1.00000000
vn -0.00000000 -0.00020000 1.00000000
vn -0.00000000 -0.00010000 1.00000000
vn -0.00010000 -0.00020000 1.00000000
vn -0.32360000 -0.85320000 0.40900000
vn -0.02180000 -0.89950000 0.43630000
vn -0.32360000 -0.85320000 0.40900000
vn -0.46130000 -0.88460000 -0.06860000
vn -0.00220000 0.03400000 0.99940000
vn -0.13360000 0.96020000 -0.24510000
vn -0.13360000 0.96020000 -0.24510000
vn -0.00690000 0.03010000 0.99950000
vn -0.00690000 0.03100000 0.99950000
vn 0.58160000 0.79540000 0.17060000
vn 0.11030000 0.94940000 -0.29410000
vn -0.09220000 0.98440000 -0.14970000
vn 0.52400000 -0.84830000 0.07670000
vn 0.37380000 -0.88950000 -0.26280000
vn -0.00000000 -0.00000000 -1.00000000
vn 0.18090000 -0.92310000 0.33940000
vn -0.82530000 -0.50220000 0.25840000
vn -0.02180000 -0.00710000 -0.99970000
vn -0.02020000 -0.00880000 -0.99980000
vn -0.82530000 -0.50220000 0.25840000
vn -0.70040000 -0.60460000 -0.37940000
vn -0.36430000 0.88590000 -0.28720000
vn -0.25120000 0.94240000 0.22070000
vn 0.73290000 0.16900000 -0.65900000
vn 0.09040000 0.74390000 -0.66220000
vn -0.00000000 -0.00000000 -1.00000000
vn -0.00000000 -0.00000000 -1.00000000
vn 0.00130000 0.99990000 -0.01460000
vn -0.96630000 0.25740000 -0.00370000
vn -0.46380000 -0.80680000 -0.36600000
vn -0.69620000 -0.59910000 -0.39540000
vn -0.00000000 -0.00000000 -1.00000000
vn -0.34890000 -0.93650000 0.03600000
vn -0.59870000 -0.71650000 0.35820000
vn -0.69330000 -0.59520000 -0.40640000
vn -0.01400000 -0.02080000 -0.99970000
vn -0.01340000 -0.01950000 -0.99970000
vn -0.59870000 -0.71650000 0.35820000
vn -0.94880000 -0.26640000 0.16970000
vn 0.01460000 0.01490000 -0.99980000
vn 0.01350000 0.01480000 -0.99980000
vn 0.93600000 0.32350000 0.13880000
vn -0.00000000 -0.00000000 1.00000000
vn -0.00000000 -0.00010000 1.00000000
vn -0.13360000 0.96020000 -0.24510000
vn 0.05260000 0.97390000 0.22080000
vn 0.21970000 0.72130000 -0.65680000
vn 0.04930000 -0.87120000 -0.48840000
vn 0.18090000 -0.92310000 0.33940000
vn 0.00830000 -0.01970000 -0.99980000
vn 0.00780000 -0.02060000 -0.99980000
vn 0.18090000 -0.92310000 0.33940000
vn -0.71460000 -0.56590000 0.41110000
vn -0.87030000 -0.46210000 -0.17050000
vn -0.65850000 -0.75070000 0.05260000
vn -1.00000000 0.00860000 0.00390000
vn -0.93870000 -0.34460000 0.00640000
vn -0.77600000 -0.63080000 0.00250000
vn 0.89140000 0.37500000 0.25450000
vn 0.01980000 0.01010000 -0.99980000
vn 0.01720000 0.00720000 -0.99980000
vn 0.01700000 0.01020000 -0.99980000
vn 0.95510000 0.17980000 0.23530000
vn 0.02040000 0.00550000 -0.99980000
vn 0.01720000 0.00720000 -0.99980000
vn 0.01840000 0.00340000 -0.99980000
vn 0.87930000 0.25700000 -0.40110000
vn 0.23590000 0.68610000 0.68820000
vn 0.11950000 0.71210000 0.69180000
vn 0.02870000 0.01040000 0.99950000
vn 0.85990000 0.50380000 -0.08270000
vn 0.91750000 0.28000000 -0.28240000
vn 0.03200000 0.00700000 0.99950000
vn 0.96850000 -0.24840000 -0.01740000
vn -0.12370000 0.99030000 -0.06340000
vn -0.00010000 -0.00020000 1.00000000
vn -0.00000000 -0.00020000 1.00000000
vn 0.10360000 -0.99460000 0.00540000
vn 0.00990000 0.04020000 0.99910000
vn 0.05910000 0.16450000 -0.98460000
vn 0.02650000 -0.02310000 0.99940000
vn 0.02780000 -0.03730000 0.99890000
vn 0.43280000 -0.89430000 -0.11330000
vn -0.00430000 -0.02310000 -0.99970000
vn -0.00140000 -0.02350000 -0.99970000
vn -0.00390000 -0.02220000 -0.99970000
vn -0.98550000 -0.16510000 0.04010000
vn -0.03560000 0.72160000 0.69140000
vn -0.00000000 -0.00000000 -1.00000000
vn -0.56850000 0.81340000 0.12360000
vn 0.84830000 -0.28560000 -0.44590000
vn 0.82260000 -0.44810000 0.34990000
vn -0.98270000 -0.05900000 0.17570000
vn -0.53310000 0.84220000 -0.07990000
vn -0.52200000 0.72600000 -0.44770000
vn -0.01880000 0.01940000 -0.99960000
vn -0.02600000 -0.00200000 0.99970000
vn -0.07290000 -0.00860000 0.99730000
vn 0.74260000 0.03110000 -0.66900000
vn -0.83770000 -0.49580000 -0.22910000
vn -0.71770000 -0.57060000 0.39910000
vn 0.37430000 -0.92720000 -0.00970000
vn 0.59580000 -0.80320000 -0.00050000
vn -0.43200000 -0.89390000 -0.11980000
vn -0.01140000 -0.03230000 0.99940000
vn -0.32360000 -0.85320000 0.40900000
vn 0.02740000 0.00090000 0.99960000
vn 0.00010000 -0.00010000 1.00000000
vn -0.00000000 -0.00000000 1.00000000
vn -0.66700000 0.56270000 0.48830000
vn 0.12110000 -0.99240000 -0.02200000
vn 0.47530000 -0.87970000 -0.01690000
vn -0.00000000 -0.00000000 -1.00000000
vn -0.94540000 0.32590000 0.00340000
vn 0.77540000 -0.63120000 -0.01780000
vn -0.00000000 -0.00000000 -1.00000000
vn -0.44750000 -0.89400000 0.02230000
vn 0.39750000 0.91760000 -0.00800000
vn -0.00000000 -0.00000000 1.00000000
vn -0.00000000 -0.00010000 1.00000000
vn -0.00000000 -0.00000000 -1.00000000
vn 0.84930000 -0.28610000 -0.44360000
vn 0.73100000 -0.58520000 -0.35090000
vn 0.74230000 -0.10130000 -0.66230000
vn 0.69100000 -0.71850000 0.07910000
vn 0.73690000 -0.60480000 -0.30210000
vn 0.73110000 -0.58540000 -0.35050000
vn 0.82260000 -0.44810000 0.34990000
vn 0.81210000 0.58340000 -0.00600000
vn -0.00000000 -0.00000000 -1.00000000
vn -0.23080000 -0.68460000 0.69140000
vn -0.94790000 -0.31850000 0.00510000
vn -0.82570000 -0.56410000 -0.00730000
vn 0.75400000 -0.64070000 0.14480000
vn -0.36000000 0.92660000 -0.10870000
vn -0.60930000 0.78540000 -0.10920000
vn 0.63430000 0.68030000 -0.36720000
vn 0.58180000 0.80560000 0.11170000
vn -0.00000000 -0.00000000 -1.00000000
vn -0.00000000 -0.00000000 -1.00000000
vn 0.36480000 0.62760000 0.68780000
vn 0.02950000 -0.00190000 0.99960000
vn 0.92420000 0.07810000 0.37390000
vn -0.95500000 -0.24520000 0.16690000
vn -0.19100000 0.98150000 0.01110000
vn -0.00000000 -0.00000000 1.00000000
vn -0.00000000 -0.00010000 1.00000000
vn -0.00000000 0.00010000 1.00000000
vn -0.00010000 -0.00010000 1.00000000
vn -0.01150000 -0.02050000 -0.99970000
vn -0.01400000 -0.02080000 -0.99970000
vn -0.00390000 -0.02220000 -0.99970000
vn -0.00550000 -0.02090000 -0.99980000
vn -0.00000000 -0.00000000 -1.00000000
vn -0.22840000 -0.97350000 -0.01270000
vn 0.64730000 0.74930000 0.13980000
vn 0.80260000 -0.59650000 -0.00800000
vn 0.99980000 -0.02070000 -0.00740000
vn 0.95920000 0.28280000 0.00110000
vn -0.38110000 0.92410000 0.03020000
vn 0.74050000 -0.43980000 0.50820000
vn 0.81200000 -0.57280000 -0.11230000
vn 0.03780000 -0.02590000 0.99890000
vn 0.74050000 -0.43980000 0.50820000
vn 0.89630000 -0.35310000 -0.26840000
vn 0.00020000 0.00010000 1.00000000
vn 0.00090000 -0.00000000 1.00000000
vn 0.00050000 -0.00030000 1.00000000
vn -0.02360000 -0.03580000 0.99910000
vn 0.75690000 0.63640000 0.14840000
vn 0.92080000 0.07690000 0.38250000
vn 0.89610000 -0.18500000 0.40350000
vn 0.00090000 -0.00000000 1.00000000
vn 0.00050000 -0.00030000 1.00000000
vn 0.00100000 -0.00000000 1.00000000
vn 0.94090000 0.25920000 -0.21790000
vn -0.00000000 -0.00010000 1.00000000
vn 0.00050000 -0.00030000 1.00000000
vn 0.00020000 0.00010000 1.00000000
vn -0.33410000 -0.64460000 0.68760000
vn -0.00030000 -0.00010000 1.00000000
vn -0.00010000 -0.00020000 1.00000000
vn -0.00000000 -0.00010000 1.00000000
vn -0.00030000 -0.00040000 1.00000000
vn -0.00000000 -0.00000000 -1.00000000
vn -0.00000000 -0.00000000 -1.00000000
vn 0.82140000 0.56810000 -0.05100000
vn -0.00000000 -0.00010000 1.00000000
vn 0.00010000 0.00030000 1.00000000
vn 0.58270000 0.61800000 0.52770000
vn -0.00990000 -0.02340000 -0.99970000
vn -0.49700000 0.66010000 0.56320000
vn -0.12420000 0.97200000 -0.19940000
vn 0.47060000 0.86270000 0.18530000
vn 0.34950000 0.79750000 -0.49180000
vn 0.32830000 0.94300000 0.05450000
vn -0.00000000 -0.00000000 -1.00000000
vn -0.00000000 -0.00000000 -1.00000000
vn -0.03200000 -0.01310000 0.99940000
vn -0.02410000 -0.02200000 0.99950000
vn -0.43640000 -0.58180000 0.68630000
vn 0.80660000 0.58580000 -0.07970000
vn 0.19240000 -0.98130000 -0.00460000
vn -0.00000000 -0.00010000 1.00000000
vn -0.00000000 -0.00000000 1.00000000
vn -0.61290000 0.79000000 -0.01780000
vn 0.89630000 -0.35310000 -0.26840000
vn 0.07520000 -0.00730000 0.99710000
vn 0.98620000 -0.12450000 -0.10940000
vn -0.94740000 -0.22960000 -0.22310000
vn -0.70490000 -0.70630000 0.06500000
vn -0.51680000 0.85610000 0.00670000
vn 0.86960000 0.47170000 0.14590000
vn -0.76180000 0.64750000 0.01750000
vn -0.61840000 -0.76930000 0.16070000
vn -0.00190000 0.02460000 -0.99970000
vn -0.00270000 0.02360000 -0.99970000
vn 0.00040000 0.02470000 -0.99970000
vn -0.52520000 -0.49820000 0.68990000
vn -0.85190000 0.49590000 -0.16840000
vn -0.98830000 -0.13540000 0.07010000
vn 0.03630000 -0.93670000 -0.34820000
vn -0.00000000 -0.00000000 -1.00000000
vn -0.11770000 -0.94920000 0.29190000
vn 0.39960000 -0.89460000 -0.20000000
vn 0.99880000 -0.04910000 -0.00100000
vn 0.96070000 0.27770000 0.00410000
vn -0.88000000 -0.44170000 0.17460000
vn -0.18390000 0.70360000 0.68640000
vn -0.01590000 0.02980000 0.99940000
vn -0.53260000 0.83320000 0.14860000
vn 0.92790000 -0.34780000 0.13400000
vn -0.01680000 -0.03540000 0.99920000
vn 0.89670000 -0.41220000 0.16120000
vn 0.02440000 -0.00020000 -0.99970000
vn 0.01870000 -0.00250000 -0.99980000
vn 0.02000000 -0.00330000 -0.99980000
vn 0.00490000 0.02470000 -0.99970000
vn 0.00630000 0.02280000 -0.99970000
vn 0.00900000 0.02060000 -0.99970000
vn 0.01380000 -0.01730000 -0.99980000
vn 0.01330000 -0.01380000 -0.99980000
vn -1.00000000 -0.00470000 -0.00700000
vn -0.00000000 -0.00000000 1.00000000
vn -0.00010000 -0.00010000 1.00000000
vn 0.51140000 0.85910000 0.02180000
vn 0.00020000 0.00020000 1.00000000
vn -0.00000000 -0.00000000 1.00000000
vn 0.19540000 0.98050000 -0.01870000
vn 0.00020000 0.00020000 1.00000000
vn 0.00010000 0.00030000 1.00000000
vn 0.58270000 0.61800000 0.52770000
vn 0.53640000 0.82370000 -0.18390000
vn 0.84360000 -0.51380000 0.15590000
vn -0.00000000 -0.00000000 -1.00000000
vn -0.02010000 -0.01390000 -0.99970000
vn -0.01480000 -0.01350000 -0.99980000
vn -0.01520000 -0.01580000 -0.99980000
vn -0.03080000 -0.01590000 0.99940000
vn 0.99890000 -0.02440000 -0.03950000
vn 0.97920000 0.10830000 0.17190000
vn -0.00000000 -0.00000000 -1.00000000
vn 0.60750000 0.79430000 0.00930000
vn -0.00730000 -0.02980000 0.99950000
vn 0.76870000 0.63650000 -0.06320000
vn -0.00000000 -0.00000000 -1.00000000
f 738//738 711//711 555//555
f 5//5 586//586 6//6
f 7//7 555//555 8//8
f 7//7 738//738 555//555
f 9//9 5//5 6//6
f 9//9 6//6 602//602
f 11//11 7//7 8//8
f 11//11 8//8 655//655
f 13//13 11//11 655//655
f 14//14 9//9 602//602
f 14//14 602//602 15//15
f 13//13 655//655 16//16
f 17//17 13//13 16//16
f 17//17 16//16 837//837
f 14//14 15//15 711//711
f 796//796 14//14 711//711
f 1//1 17//17 837//837
f 738//738 796//796 711//711
f 1//1 837//837 793//793
f 27//27 728//728 28//28
f 762//762 550//550 553//553
f 552//552 935//935 34//34
f 41//41 42//42 45//45
f 44//44 41//41 45//45
f 44//44 45//45 46//46
f 710//710 44//44 46//46
f 43//43 161//161 49//49
f 43//43 49//49 51//51
f 50//50 43//43 51//51
f 50//50 51//51 53//53
f 52//52 50//50 53//53
f 52//52 53//53 55//55
f 54//54 52//52 55//55
f 54//54 55//55 57//57
f 56//56 54//54 57//57
f 56//56 57//57 58//58
f 59//59 56//56 58//58
f 59//59 58//58 60//60
f 61//61 59//59 60//60
f 61//61 60//60 62//62
f 63//63 61//61 62//62
f 63//63 62//62 65//65
f 64//64 63//63 65//65
f 66//66 64//64 65//65
f 41//41 66//66 42//42
f 67//67 96//96 68//68
f 69//69 67//67 68//68
f 69//69 68//68 72//72
f 72//72 68//68 74//74
f 73//73 72//72 74//74
f 75//75 70//70 71//71
f 75//75 71//71 76//76
f 76//76 71//71 77//77
f 76//76 77//77 78//78
f 78//78 77//77 79//79
f 80//80 78//78 81//81
f 78//78 79//79 81//81
f 82//82 80//80 81//81
f 82//82 81//81 84//84
f 83//83 82//82 84//84
f 85//85 83//83 84//84
f 85//85 84//84 86//86
f 85//85 86//86 87//87
f 87//87 86//86 88//88
f 87//87 88//88 90//90
f 89//89 87//87 90//90
f 89//89 90//90 91//91
f 91//91 90//90 92//92
f 93//93 91//91 92//92
f 93//93 92//92 94//94
f 95//95 93//93 94//94
f 95//95 94//94 96//96
f 67//67 95//95 96//96
f 579//579 684//684 575//575
f 539//539 648//648 483//483
f 727//727 688//688 689//689
f 769//769 483//483 485//485
f 769//769 539//539 483//483
f 842//842 30//30 478//478
f 736//736 769//769 485//485
f 842//842 478//478 479//479
f 736//736 485//485 486//486
f 109//109 479//479 913//913
f 109//109 842//842 479//479
f 736//736 486//486 782//782
f 109//109 913//913 481//481
f 737//737 783//783 893//893
f 737//737 735//735 783//783
f 542//542 792//792 611//611
f 541//541 610//610 613//613
f 686//686 737//737 497//497
f 686//686 497//497 786//786
f 541//541 613//613 651//651
f 683//683 685//685 788//788
f 538//538 540//540 652//652
f 539//539 650//650 648//648
f 97//97 484//484 35//35
f 615//615 146//146 147//147
f 615//615 616//616 146//146
f 584//584 139//139 757//757
f 615//615 147//147 119//119
f 757//757 139//139 120//120
f 121//121 119//119 148//148
f 121//121 615//615 119//119
f 817//817 757//757 120//120
f 121//121 148//148 149//149
f 817//817 142//142 818//818
f 126//126 149//149 617//617
f 126//126 121//121 149//149
f 126//126 617//617 585//585
f 902//902 818//818 127//127
f 129//129 126//126 585//585
f 129//129 585//585 557//557
f 129//129 557//557 558//558
f 130//130 129//129 558//558
f 130//130 558//558 588//588
f 616//616 902//902 145//145
f 130//130 588//588 571//571
f 588//588 138//138 571//571
f 120//120 139//139 140//140
f 142//142 120//120 140//140
f 142//142 140//140 141//141
f 142//142 817//817 120//120
f 142//142 125//125 818//818
f 125//125 142//142 141//141
f 125//125 141//141 143//143
f 127//127 125//125 143//143
f 127//127 818//818 125//125
f 127//127 143//143 144//144
f 145//145 902//902 127//127
f 145//145 127//127 144//144
f 146//146 616//616 145//145
f 119//119 147//147 148//148
f 148//148 147//147 151//151
f 148//148 151//151 152//152
f 140//140 139//139 48//48
f 140//140 48//48 153//153
f 149//149 148//148 152//152
f 154//154 149//149 152//152
f 155//155 140//140 153//153
f 134//134 149//149 154//154
f 141//141 140//140 155//155
f 156//156 134//134 154//154
f 133//133 134//134 156//156
f 133//133 156//156 157//157
f 143//143 155//155 158//158
f 143//143 141//141 155//155
f 135//135 133//133 157//157
f 135//135 157//157 159//159
f 136//136 135//135 159//159
f 144//144 143//143 158//158
f 160//160 144//144 158//158
f 137//137 136//136 159//159
f 137//137 159//159 161//161
f 145//145 144//144 160//160
f 138//138 137//137 161//161
f 145//145 160//160 162//162
f 146//146 145//145 162//162
f 146//146 162//162 150//150
f 147//147 146//146 150//150
f 147//147 150//150 151//151
f 163//163 150//150 164//164
f 163//163 164//164 165//165
f 166//166 73//73 167//167
f 166//166 710//710 73//73
f 168//168 165//165 169//169
f 168//168 163//163 165//165
f 166//166 167//167 170//170
f 171//171 169//169 172//172
f 171//171 168//168 169//169
f 173//173 170//170 174//174
f 173//173 166//166 170//170
f 175//175 171//171 172//172
f 173//173 174//174 176//176
f 175//175 172//172 177//177
f 178//178 173//173 176//176
f 178//178 176//176 179//179
f 175//175 177//177 180//180
f 182//182 175//175 180//180
f 181//181 178//178 179//179
f 181//181 179//179 183//183
f 182//182 180//180 184//184
f 185//185 182//182 184//184
f 185//185 184//184 75//75
f 186//186 181//181 183//183
f 49//49 185//185 75//75
f 186//186 183//183 187//187
f 150//150 187//187 164//164
f 150//150 186//186 187//187
f 249//249 201//201 188//188
f 911//911 225//225 653//653
f 537//537 249//249 190//190
f 770//770 653//653 74//74
f 770//770 911//911 653//653
f 216//216 70//70 191//191
f 536//536 190//190 192//192
f 536//536 537//537 190//190
f 813//813 216//216 191//191
f 862//862 191//191 194//194
f 583//583 536//536 192//192
f 862//862 813//813 191//191
f 583//583 192//192 195//195
f 883//883 194//194 196//196
f 527//527 583//583 195//195
f 883//883 862//862 194//194
f 527//527 195//195 197//197
f 901//901 883//883 196//196
f 231//231 527//527 197//197
f 664//664 196//196 198//198
f 231//231 197//197 874//874
f 664//664 901//901 196//196
f 200//200 231//231 874//874
f 201//201 664//664 198//198
f 201//201 198//198 188//188
f 225//225 200//200 874//874
f 249//249 188//188 190//190
f 225//225 874//874 653//653
f 202//202 910//910 207//207
f 208//208 202//202 207//207
f 208//208 207//207 897//897
f 212//212 208//208 897//897
f 213//213 897//897 214//214
f 213//213 212//212 897//897
f 213//213 214//214 215//215
f 193//193 213//213 215//215
f 216//216 193//193 215//215
f 216//216 215//215 217//217
f 216//216 217//217 218//218
f 221//221 219//219 220//220
f 221//221 220//220 674//674
f 221//221 674//674 675//675
f 225//225 221//221 675//675
f 225//225 675//675 772//772
f 227//227 225//225 772//772
f 200//200 225//225 227//227
f 227//227 772//772 672//672
f 231//231 227//227 672//672
f 200//200 227//227 231//231
f 231//231 672//672 673//673
f 234//234 231//231 673//673
f 235//235 234//234 673//673
f 235//235 673//673 637//637
f 238//238 637//637 638//638
f 238//238 235//235 637//637
f 238//238 638//638 775//775
f 245//245 238//238 775//775
f 245//245 775//775 826//826
f 721//721 245//245 826//826
f 663//663 721//721 826//826
f 663//663 826//826 910//910
f 202//202 663//663 910//910
f 641//641 647//647 906//906
f 532//532 514//514 516//516
f 385//385 631//631 515//515
f 694//694 290//290 591//591
f 903//903 532//532 516//516
f 875//875 694//694 591//591
f 892//892 516//516 292//292
f 892//892 903//903 516//516
f 705//705 875//875 591//591
f 704//704 592//592 593//593
f 392//392 292//292 607//607
f 392//392 892//892 292//292
f 776//776 704//704 593//593
f 776//776 593//593 295//295
f 702//702 699//699 609//609
f 777//777 776//776 295//295
f 703//703 294//294 713//713
f 717//717 703//703 713//713
f 630//630 408//408 639//639
f 720//720 716//716 296//296
f 603//603 639//639 660//660
f 603//603 630//630 639//639
f 401//401 712//712 715//715
f 605//605 604//604 659//659
f 406//406 401//401 715//715
f 407//407 715//715 287//287
f 631//631 659//659 515//515
f 407//407 406//406 715//715
f 631//631 605//605 659//659
f 827//827 360//360 302//302
f 589//589 925//925 814//814
f 827//827 305//305 360//360
f 739//739 589//589 814//814
f 740//740 814//814 815//815
f 740//740 739//739 814//814
f 894//894 827//827 302//302
f 894//894 302//302 888//888
f 740//740 815//815 317//317
f 896//896 894//894 888//888
f 896//896 888//888 530//530
f 799//799 740//740 317//317
f 590//590 896//896 530//530
f 590//590 530//530 531//531
f 799//799 317//317 326//326
f 327//327 799//799 326//326
f 327//327 326//326 760//760
f 589//589 531//531 925//925
f 589//589 590//590 531//531
f 830//830 312//312 322//322
f 313//313 318//318 324//324
f 582//582 828//828 335//335
f 581//581 582//582 335//335
f 335//335 828//828 323//323
f 927//927 334//334 831//831
f 926//926 828//828 336//336
f 337//337 926//926 336//336
f 323//323 299//299 306//306
f 829//829 301//301 314//314
f 323//323 306//306 308//308
f 336//336 828//828 582//582
f 335//335 323//323 308//308
f 524//524 335//335 308//308
f 525//525 307//307 319//319
f 908//908 756//756 628//628
f 909//909 908//908 628//628
f 526//526 760//760 784//784
f 526//526 327//327 760//760
f 333//333 628//628 629//629
f 333//333 909//909 628//628
f 526//526 784//784 785//785
f 333//333 629//629 668//668
f 331//331 526//526 785//785
f 331//331 785//785 839//839
f 928//928 333//333 668//668
f 928//928 668//668 800//800
f 332//332 331//331 839//839
f 332//332 839//839 756//756
f 305//305 928//928 800//800
f 305//305 800//800 360//360
f 908//908 332//332 756//756
f 803//803 361//361 708//708
f 361//361 821//821 708//708
f 361//361 365//365 821//821
f 821//821 365//365 822//822
f 365//365 697//697 822//822
f 803//803 708//708 709//709
f 548//548 803//803 709//709
f 822//822 697//697 370//370
f 517//517 548//548 709//709
f 697//697 905//905 867//867
f 370//370 697//697 867//867
f 517//517 709//709 568//568
f 520//520 517//517 568//568
f 905//905 298//298 868//868
f 867//867 905//905 868//868
f 520//520 568//568 570//570
f 868//868 298//298 714//714
f 521//521 569//569 376//376
f 376//376 569//569 378//378
f 868//868 714//714 937//937
f 375//375 377//377 597//597
f 937//937 714//714 608//608
f 937//937 608//608 671//671
f 597//597 377//377 948//948
f 597//597 948//948 599//599
f 671//671 608//608 606//606
f 671//671 606//606 670//670
f 2//2 670//670 289//289
f 670//670 606//606 289//289
f 948//948 879//879 599//599
f 599//599 879//879 944//944
f 2//2 289//289 288//288
f 944//944 879//879 291//291
f 879//879 880//880 291//291
f 19//19 2//2 288//288
f 19//19 288//288 297//297
f 291//291 880//880 293//293
f 795//795 19//19 297//297
f 795//795 297//297 640//640
f 293//293 880//880 640//640
f 880//880 795//795 640//640
f 876//876 820//820 598//598
f 250//250 773//773 804//804
f 877//877 379//379 381//381
f 272//272 878//878 600//600
f 730//730 262//262 904//904
f 730//730 904//904 367//367
f 942//942 543//543 547//547
f 693//693 272//272 600//600
f 633//633 942//942 547//547
f 693//693 600//600 290//290
f 734//734 731//731 698//698
f 633//633 547//547 518//518
f 694//694 693//693 290//290
f 745//745 253//253 519//519
f 907//907 696//696 695//695
f 907//907 266//266 696//696
f 749//749 371//371 373//373
f 273//273 907//907 695//695
f 741//741 255//255 522//522
f 273//273 695//695 807//807
f 884//884 256//256 523//523
f 884//884 523//523 947//947
f 808//808 273//273 807//807
f 809//809 807//807 805//805
f 809//809 808//808 807//807
f 819//819 884//884 947//947
f 819//819 947//947 598//598
f 820//820 819//819 598//598
f 774//774 810//810 363//363
f 250//250 804//804 369//369
f 410//410 412//412 229//229
f 778//778 409//409 226//226
f 226//226 409//409 228//228
f 281//281 656//656 924//924
f 658//658 566//566 923//923
f 678//678 657//657 280//280
f 677//677 279//279 282//282
f 923//923 566//566 271//271
f 418//418 676//676 283//283
f 421//421 284//284 285//285
f 270//270 565//565 732//732
f 566//566 567//567 733//733
f 420//420 286//286 545//545
f 919//919 419//419 544//544
f 733//733 567//567 254//254
f 918//918 546//546 251//251
f 567//567 767//767 254//254
f 917//917 252//252 636//636
f 425//425 919//919 634//634
f 254//254 767//767 642//642
f 643//643 766//766 645//645
f 644//644 768//768 834//834
f 424//424 635//635 748//748
f 425//425 746//746 559//559
f 646//646 835//835 873//873
f 873//873 835//835 832//832
f 560//560 747//747 743//743
f 873//873 832//832 719//719
f 561//561 742//742 563//563
f 564//564 744//744 259//259
f 718//718 833//833 209//209
f 562//562 257//257 722//722
f 723//723 258//258 261//261
f 719//719 210//210 398//398
f 397//397 211//211 940//940
f 723//723 261//261 430//430
f 429//429 260//260 265//265
f 396//396 939//939 393//393
f 394//394 938//938 203//203
f 431//431 264//264 665//665
f 667//667 263//263 267//267
f 395//395 205//205 701//701
f 666//666 269//269 510//510
f 700//700 204//204 389//389
f 391//391 206//206 246//246
f 509//509 268//268 922//922
f 390//390 248//248 386//386
f 388//388 247//247 243//243
f 510//510 921//921 512//512
f 511//511 920//920 276//276
f 387//387 242//242 535//535
f 513//513 274//274 900//900
f 534//534 244//244 239//239
f 275//275 278//278 898//898
f 384//384 533//533 240//240
f 277//277 400//400 899//899
f 383//383 241//241 236//236
f 898//898 399//399 222//222
f 399//399 402//402 222//222
f 414//414 382//382 237//237
f 403//403 405//405 223//223
f 413//413 414//414 233//233
f 414//414 237//237 233//233
f 222//222 404//404 224//224
f 224//224 404//404 226//226
f 404//404 778//778 226//226
f 411//411 232//232 230//230
f 435//435 422//422 416//416
f 895//895 724//724 427//427
f 852//852 895//895 427//427
f 852//852 427//427 428//428
f 838//838 852//852 428//428
f 838//838 428//428 692//692
f 440//440 838//838 692//692
f 440//440 692//692 432//432
f 441//441 440//440 432//432
f 441//441 432//432 433//433
f 442//442 441//441 433//433
f 442//442 433//433 434//434
f 442//442 434//434 219//219
f 219//219 434//434 220//220
f 218//218 217//217 422//422
f 443//443 218//218 422//422
f 435//435 443//443 422//422
f 444//444 443//443 435//435
f 445//445 435//435 416//416
f 445//445 444//444 435//435
f 445//445 416//416 415//415
f 816//816 445//445 415//415
f 816//816 415//415 417//417
f 936//936 816//816 417//417
f 936//936 417//417 916//916
f 914//914 936//936 916//916
f 914//914 916//916 423//423
f 449//449 914//914 423//423
f 450//450 449//449 423//423
f 450//450 423//423 943//943
f 632//632 450//450 943//943
f 724//724 632//632 943//943
f 724//724 943//943 426//426
f 724//724 426//426 427//427
f 444//444 79//79 77//77
f 443//443 444//444 77//77
f 451//451 90//90 88//88
f 451//451 437//437 90//90
f 443//443 77//77 71//71
f 218//218 443//443 71//71
f 218//218 71//71 70//70
f 450//450 451//451 88//88
f 216//216 218//218 70//70
f 751//751 770//770 74//74
f 751//751 74//74 68//68
f 750//750 751//751 68//68
f 449//449 88//88 86//86
f 449//449 450//450 88//88
f 823//823 750//750 68//68
f 823//823 68//68 96//96
f 448//448 449//449 86//86
f 448//448 86//86 84//84
f 447//447 448//448 84//84
f 439//439 823//823 96//96
f 446//446 447//447 84//84
f 446//446 84//84 81//81
f 438//438 439//439 96//96
f 438//438 96//96 94//94
f 445//445 446//446 81//81
f 436//436 438//438 94//94
f 436//436 94//94 92//92
f 445//445 81//81 79//79
f 444//444 445//445 79//79
f 437//437 436//436 92//92
f 437//437 92//92 90//90
f 62//62 60//60 89//89
f 49//49 75//75 76//76
f 62//62 89//89 91//91
f 49//49 76//76 78//78
f 65//65 91//91 93//93
f 65//65 62//62 91//91
f 51//51 49//49 78//78
f 51//51 78//78 80//80
f 65//65 93//93 95//95
f 53//53 51//51 80//80
f 53//53 80//80 82//82
f 66//66 65//65 95//95
f 66//66 95//95 67//67
f 42//42 66//66 67//67
f 55//55 53//53 82//82
f 55//55 82//82 83//83
f 42//42 67//67 69//69
f 45//45 42//42 69//69
f 45//45 69//69 72//72
f 46//46 45//45 72//72
f 55//55 83//83 85//85
f 710//710 46//46 72//72
f 710//710 72//72 73//73
f 57//57 55//55 85//85
f 57//57 85//85 87//87
f 58//58 57//57 87//87
f 60//60 87//87 89//89
f 60//60 58//58 87//87
f 706//706 781//781 61//61
f 138//138 161//161 43//43
f 454//454 61//61 63//63
f 454//454 706//706 61//61
f 455//455 138//138 43//43
f 455//455 43//43 50//50
f 456//456 63//63 64//64
f 456//456 454//454 63//63
f 457//457 455//455 50//50
f 458//458 457//457 50//50
f 458//458 50//50 52//52
f 456//456 64//64 66//66
f 41//41 456//456 66//66
f 459//459 456//456 41//41
f 549//549 458//458 52//52
f 461//461 459//459 41//41
f 44//44 461//461 41//41
f 462//462 52//52 54//54
f 462//462 549//549 52//52
f 729//729 461//461 44//44
f 464//464 462//462 54//54
f 707//707 729//729 44//44
f 707//707 44//44 47//47
f 48//48 707//707 47//47
f 464//464 54//54 56//56
f 139//139 707//707 48//48
f 472//472 464//464 56//56
f 806//806 472//472 56//56
f 59//59 806//806 56//56
f 781//781 806//806 59//59
f 781//781 59//59 61//61
f 459//459 528//528 467//467
f 459//459 467//467 456//456
f 459//459 461//461 529//529
f 469//469 138//138 455//455
f 457//457 469//469 455//455
f 470//470 457//457 458//458
f 460//460 661//661 458//458
f 462//462 661//661 460//460
f 472//472 462//462 464//464
f 453//453 474//474 452//452
f 454//454 473//473 453//453
f 467//467 473//473 454//454
f 467//467 454//454 456//456
f 474//474 466//466 452//452
f 571//571 138//138 469//469
f 473//473 474//474 453//453
f 475//475 469//469 457//457
f 475//475 571//571 469//469
f 475//475 457//457 470//470
f 475//475 470//470 458//458
f 528//528 473//473 467//467
f 661//661 475//475 458//458
f 528//528 459//459 529//529
f 662//662 661//661 462//462
f 662//662 462//462 472//472
f 529//529 461//461 463//463
f 584//584 529//529 463//463
f 584//584 463//463 465//465
f 662//662 472//472 466//466
f 584//584 465//465 139//139
f 474//474 662//662 466//466
f 38//38 468//468 594//594
f 669//669 38//38 594//594
f 627//627 38//38 669//669
f 594//594 468//468 554//554
f 627//627 669//669 752//752
f 554//554 468//468 761//761
f 627//627 752//752 755//755
f 468//468 477//477 761//761
f 789//789 627//627 755//755
f 789//789 755//755 824//824
f 761//761 477//477 687//687
f 687//687 477//477 117//117
f 687//687 117//117 690//690
f 789//789 824//824 476//476
f 691//691 118//118 122//122
f 476//476 824//824 890//890
f 690//690 123//123 912//912
f 476//476 890//890 845//845
f 912//912 123//123 124//124
f 476//476 845//845 763//763
f 912//912 124//124 480//480
f 476//476 763//763 471//471
f 480//480 124//124 612//612
f 612//612 124//124 128//128
f 471//471 763//763 764//764
f 612//612 128//128 614//614
f 471//471 764//764 572//572
f 572//572 764//764 577//577
f 614//614 128//128 131//131
f 614//614 131//131 649//649
f 572//572 577//577 573//573
f 572//572 573//573 132//132
f 649//649 131//131 779//779
f 779//779 131//131 116//116
f 132//132 573//573 574//574
f 132//132 574//574 946//946
f 574//574 787//787 946//946
f 779//779 116//116 881//881
f 780//780 779//779 881//881
f 946//946 787//787 915//915
f 941//941 780//780 881//881
f 499//499 941//941 881//881
f 787//787 851//851 915//915
f 498//498 499//499 882//882
f 499//499 881//881 882//882
f 851//851 498//498 882//882
f 915//915 851//851 882//882
f 858//858 825//825 40//40
f 858//858 853//853 825//825
f 579//579 575//575 33//33
f 858//858 40//40 754//754
f 579//579 33//33 576//576
f 869//869 753//753 37//37
f 488//488 487//487 39//39
f 619//619 580//580 578//578
f 29//29 31//31 765//765
f 869//869 37//37 596//596
f 623//623 618//618 26//26
f 623//623 26//26 25//25
f 934//934 872//872 595//595
f 935//935 36//36 34//34
f 623//623 25//25 844//844
f 846//846 489//489 843//843
f 492//492 490//490 551//551
f 847//847 24//24 889//889
f 931//931 32//32 28//28
f 931//931 28//28 728//728
f 22//22 891//891 21//21
f 854//854 491//491 23//23
f 871//871 933//933 350//350
f 870//870 349//349 345//345
f 350//350 933//933 356//356
f 859//859 870//870 345//345
f 932//932 929//929 354//354
f 861//861 344//344 338//338
f 355//355 930//930 801//801
f 930//930 725//725 801//801
f 856//856 860//860 340//340
f 802//802 726//726 886//886
f 857//857 339//339 358//358
f 849//849 855//855 357//357
f 886//886 726//726 107//107
f 887//887 106//106 315//315
f 850//850 359//359 351//351
f 848//848 353//353 624//624
f 316//316 108//108 790//790
f 316//316 790//790 320//320
f 625//625 352//352 346//346
f 321//321 791//791 113//113
f 626//626 348//348 620//620
f 621//621 347//347 342//342
f 321//321 113//113 325//325
f 622//622 341//341 100//100
f 343//343 328//328 101//101
f 325//325 113//113 98//98
f 300//300 325//325 98//98
f 330//330 759//759 680//680
f 99//99 329//329 679//679
f 300//300 98//98 103//103
f 304//304 300//300 103//103
f 758//758 864//864 682//682
f 303//303 102//102 105//105
f 681//681 865//865 115//115
f 311//311 303//303 105//105
f 114//114 863//863 110//110
f 866//866 309//309 111//111
f 310//310 104//104 112//112
f 180//180 177//177 194//194
f 180//180 194//194 191//191
f 184//184 180//180 191//191
f 184//184 191//191 75//75
f 75//75 191//191 70//70
f 73//73 74//74 653//653
f 73//73 653//653 167//167
f 167//167 653//653 654//654
f 170//170 167//167 654//654
f 189//189 199//199 493//493
f 174//174 170//170 654//654
f 174//174 654//654 874//874
f 176//176 174//174 874//874
f 176//176 874//874 197//197
f 179//179 176//176 197//197
f 179//179 197//197 195//195
f 183//183 179//179 195//195
f 187//187 183//183 192//192
f 183//183 195//195 192//192
f 164//164 187//187 192//192
f 164//164 192//192 190//190
f 494//494 164//164 190//190
f 165//165 164//164 494//494
f 494//494 190//190 188//188
f 165//165 494//494 188//188
f 169//169 165//165 198//198
f 165//165 188//188 198//198
f 172//172 169//169 198//198
f 172//172 198//198 196//196
f 177//177 172//172 196//196
f 177//177 196//196 194//194
f 159//159 157//157 182//182
f 157//157 175//175 182//182
f 159//159 182//182 185//185
f 161//161 159//159 185//185
f 49//49 161//161 185//185
f 48//48 47//47 166//166
f 153//153 48//48 166//166
f 153//153 166//166 173//173
f 155//155 153//153 173//173
f 155//155 173//173 178//178
f 158//158 155//155 178//178
f 158//158 178//178 181//181
f 160//160 158//158 181//181
f 160//160 181//181 186//186
f 162//162 160//160 186//186
f 162//162 186//186 150//150
f 151//151 150//150 163//163
f 151//151 163//163 152//152
f 152//152 163//163 168//168
f 152//152 168//168 171//171
f 154//154 152//152 171//171
f 156//156 154//154 171//171
f 156//156 171//171 175//175
f 157//157 156//156 175//175
f 482//482 495//495 496//496
f 497//497 737//737 893//893
f 5//5 380//380 586//586
f 885//885 1//1 793//793
f 368//368 840//840 841//841
f 372//372 368//368 841//841
f 885//885 793//793 794//794
f 366//366 885//885 794//794
f 374//374 841//841 811//811
f 374//374 372//372 841//841
f 362//362 366//366 794//794
f 362//362 794//794 797//797
f 945//945 374//374 811//811
f 945//945 811//811 506//506
f 364//364 362//362 797//797
f 364//364 797//797 507//507
f 945//945 506//506 587//587
f 380//380 945//945 587//587
f 368//368 364//364 507//507
f 368//368 507//507 840//840
f 380//380 587//587 586//586
f 4//4 3//3 771//771
f 601//601 556//556 771//771
f 556//556 4//4 771//771
f 601//601 771//771 10//10
f 798//798 20//20 812//812
f 502//502 798//798 812//812
f 504//504 502//502 812//812
f 798//798 505//505 503//503
f 20//20 836//836 556//556
f 836//836 12//12 556//556
f 798//798 503//503 20//20
f 508//508 812//812 500//500
f 501//501 798//798 502//502
f 20//20 556//556 601//601
f 812//812 20//20 601//601
f 500//500 812//812 601//601
f 20//20 18//18 836//836

