mtllib material.mtl
usemtl Rubber_Black_002_COLOR_0
v -0.07354500 0.10900500 -0.01470600
v -0.07354500 0.10900500 -0.01470600
v -0.07501000 0.10900500 -0.00007300
v -0.07501000 0.10900500 -0.00007300
v -0.00000500 0.10900500 -0.00028300
v -0.00000500 0.10900500 -0.00028300
v -0.00000500 0.10900500 -0.00028300
v -0.00000500 0.10900500 -0.00028300
v -0.07359000 0.10900500 0.01456900
v -0.07359000 0.10900500 0.01456900
v -0.06935100 0.10900500 0.02864400
v -0.06935100 0.10900500 0.02864400
v -0.06244600 0.10900500 0.04162800
v -0.06244600 0.10900500 0.04162800
v -0.05313400 0.10900500 0.05301100
v -0.05313400 0.10900500 0.05301100
v -0.04177900 0.10900500 0.06234100
v -0.04177900 0.10900500 0.06234100
v -0.02883100 0.10900500 0.06931000
v -0.02883100 0.10900500 0.06931000
v -0.02883100 0.10900500 0.06931000
v -0.01476600 0.10899600 0.07360500
v -0.01476600 0.10899600 0.07360500
v -0.01476600 0.10899600 0.07360500
v -0.00000500 0.10899600 0.07507000
v -0.00000500 0.10899600 0.07507000
v 0.01476600 0.10899600 0.07360500
v 0.01476600 0.10899600 0.07360500
v 0.01476600 0.10899600 0.07360500
v 0.02883100 0.10900500 0.06931000
v 0.02883100 0.10900500 0.06931000
v 0.02883100 0.10900500 0.06931000
v 0.04177900 0.10900500 0.06234100
v 0.04177900 0.10900500 0.06234100
v 0.05313400 0.10900500 0.05301100
v 0.05313400 0.10900500 0.05301100
v 0.06244600 0.10900500 0.04162800
v 0.06244600 0.10900500 0.04162800
v 0.06935100 0.10900500 0.02864400
v 0.06935100 0.10900500 0.02864400
v 0.07359000 0.10900500 0.01456900
v 0.07359000 0.10900500 0.01456900
v 0.07501000 0.10900500 -0.00007300
v 0.07501000 0.10900500 -0.00007300
v 0.07354500 0.10900500 -0.01470600
v 0.07354500 0.10900500 -0.01470600
v 0.06925000 0.10900500 -0.02876200
v 0.06925000 0.10900500 -0.02876200
v 0.06229100 0.10900500 -0.04171900
v 0.06229100 0.10900500 -0.04171900
v 0.05294100 0.10900500 -0.05307400
v 0.05294100 0.10900500 -0.05307400
v 0.04155900 0.10900500 -0.06237700
v 0.04155900 0.10900500 -0.06237700
v 0.02854700 0.10900500 -0.06919900
v 0.02854700 0.10900500 -0.06919900
v 0.01445400 0.10900500 -0.07331100
v 0.01445400 0.10900500 -0.07331100
v -0.00000500 0.10900500 -0.07475700
v -0.00000500 0.10900500 -0.07475700
v -0.00000500 0.10900500 -0.07475700
v -0.01445400 0.10900500 -0.07331100
v -0.01445400 0.10900500 -0.07331100
v -0.02854700 0.10900500 -0.06919900
v -0.02854700 0.10900500 -0.06919900
v -0.04155900 0.10900500 -0.06237700
v -0.04155900 0.10900500 -0.06237700
v -0.05294100 0.10900500 -0.05307400
v -0.05294100 0.10900500 -0.05307400
v -0.05294100 0.08900600 -0.05307400
v -0.05294100 0.08900600 -0.05307400
v -0.04155900 0.08900600 -0.06237700
v -0.04155900 0.08900600 -0.06237700
v -0.02854700 0.08900600 -0.06919900
v -0.02854700 0.08900600 -0.06919900
v -0.01445400 0.08900600 -0.07331100
v -0.01445400 0.08900600 -0.07331100
v -0.00000500 0.08900600 -0.07475700
v -0.00000500 0.08900600 -0.07475700
v -0.00000500 0.08900600 -0.07475700
v 0.01445400 0.08900600 -0.07331100
v 0.01445400 0.08900600 -0.07331100
v 0.02854700 0.08900600 -0.06919900
v 0.02854700 0.08900600 -0.06919900
v 0.04155900 0.08900600 -0.06237700
v 0.04155900 0.08900600 -0.06237700
v 0.05294100 0.08900600 -0.05307400
v 0.05294100 0.08900600 -0.05307400
v 0.06229100 0.08900600 -0.04171900
v 0.06229100 0.08900600 -0.04171900
v 0.06925000 0.08900600 -0.02876200
v 0.06925000 0.08900600 -0.02876200
v 0.07354500 0.08900600 -0.01470600
v 0.07354500 0.08900600 -0.01470600
v 0.07501000 0.08900600 -0.00007300
v 0.07501000 0.08900600 -0.00007300
v 0.07359000 0.08900600 0.01456900
v 0.07359000 0.08900600 0.01456900
v 0.07359000 0.08900600 0.01456900
v 0.06935100 0.08899700 0.02864400
v 0.06935100 0.08899700 0.02864400
v 0.06935100 0.08899700 0.02864400
v 0.06244600 0.08899700 0.04162800
v 0.06244600 0.08899700 0.04162800
v 0.06244600 0.08899700 0.04162800
v 0.05313400 0.08899700 0.05301100
v 0.05313400 0.08899700 0.05301100
v 0.04177900 0.08899700 0.06234100
v 0.04177900 0.08899700 0.06234100
v 0.02883100 0.08899700 0.06931000
v 0.02883100 0.08899700 0.06931000
v 0.02883100 0.08899700 0.06931000
v 0.01476600 0.08899700 0.07360500
v 0.01476600 0.08899700 0.07360500
v -0.00000500 0.08899700 0.07507000
v -0.00000500 0.08899700 0.07507000
v -0.01476600 0.08899700 0.07360500
v -0.01476600 0.08899700 0.07360500
v -0.02883100 0.08899700 0.06931000
v -0.02883100 0.08899700 0.06931000
v -0.02883100 0.08899700 0.06931000
v -0.04177900 0.08899700 0.06234100
v -0.04177900 0.08899700 0.06234100
v -0.05313400 0.08899700 0.05301100
v -0.05313400 0.08899700 0.05301100
v -0.06244600 0.08899700 0.04162800
v -0.06244600 0.08899700 0.04162800
v -0.06935100 0.08899700 0.02864400
v -0.06935100 0.08899700 0.02864400
v -0.06935100 0.08899700 0.02864400
v -0.07359000 0.08900600 0.01456900
v -0.07359000 0.08900600 0.01456900
v -0.07359000 0.08900600 0.01456900
v -0.07501000 0.08900600 -0.00007300
v -0.07501000 0.08900600 -0.00007300
v -0.07354500 0.08900600 -0.01470600
v -0.07354500 0.08900600 -0.01470600
v -0.06925000 0.10900500 -0.02876200
v -0.06925000 0.10900500 -0.02876200
v -0.06229100 0.10900500 -0.04171900
v -0.06229100 0.10900500 -0.04171900
v -0.06229100 0.08900600 -0.04171900
v -0.06229100 0.08900600 -0.04171900
v -0.00000500 0.08900600 0.00000100
v -0.00000500 0.08900600 0.00000100
v -0.00000500 0.08900600 0.00000100
v -0.00000500 0.08900600 0.00000100
v -0.00000500 0.08900600 0.00000100
v -0.00000500 0.08900600 0.00000100
v -0.00000500 0.08900600 0.00000100
v -0.06925000 0.08900600 -0.02876200
v -0.06925000 0.08900600 -0.02876200
vn -0.98040000 -0.00000000 -0.19690000
vn -0.00000000 1.00000000 -0.00000000
vn -1.00000000 -0.00000000 -0.00160000
vn -0.00000000 1.00000000 -0.00000000
vn 0.00060000 1.00000000 0.00020000
vn -0.00060000 1.00000000 0.00020000
vn -0.00000000 1.00000000 -0.00000000
vn -0.00000000 1.00000000 0.00010000
vn -0.98110000 -0.00000000 0.19340000
vn -0.00000000 1.00000000 -0.00000000
vn -0.92470000 -0.00000000 0.38080000
vn -0.00000000 1.00000000 -0.00000000
vn -0.83250000 -0.00000000 0.55410000
vn -0.00000000 1.00000000 -0.00000000
vn -0.70790000 -0.00000000 0.70630000
vn -0.00000000 1.00000000 -0.00000000
vn -0.55700000 -0.00000000 0.83050000
vn -0.00000000 1.00000000 -0.00000000
vn -0.38490000 -0.00000000 0.92300000
vn -0.00000000 1.00000000 -0.00000000
vn 0.00060000 1.00000000 0.00020000
vn -0.19640000 -0.00000000 0.98050000
vn 0.00060000 1.00000000 0.00020000
vn -0.00000000 1.00000000 0.00010000
vn -0.00000000 -0.00000000 1.00000000
vn -0.00000000 1.00000000 0.00010000
vn 0.19630000 -0.00000000 0.98050000
vn -0.00060000 1.00000000 0.00020000
vn -0.00000000 1.00000000 0.00010000
vn 0.38490000 -0.00000000 0.92300000
vn -0.00060000 1.00000000 0.00020000
vn -0.00000000 1.00000000 -0.00000000
vn 0.55700000 -0.00000000 0.83050000
vn -0.00000000 1.00000000 -0.00000000
vn 0.70790000 -0.00000000 0.70630000
vn -0.00000000 1.00000000 -0.00000000
vn 0.83250000 -0.00000000 0.55400000
vn -0.00000000 1.00000000 -0.00000000
vn 0.92470000 -0.00000000 0.38080000
vn -0.00000000 1.00000000 -0.00000000
vn 0.98110000 -0.00000000 0.19340000
vn -0.00000000 1.00000000 -0.00000000
vn 1.00000000 -0.00000000 -0.00160000
vn -0.00000000 1.00000000 -0.00000000
vn 0.98040000 -0.00000000 -0.19690000
vn -0.00000000 1.00000000 -0.00000000
vn 0.92310000 -0.00000000 -0.38450000
vn -0.00000000 1.00000000 -0.00000000
vn 0.83050000 -0.00000000 -0.55710000
vn -0.00000000 1.00000000 -0.00000000
vn 0.70580000 -0.00000000 -0.70840000
vn -0.00000000 1.00000000 -0.00000000
vn 0.55140000 -0.00000000 -0.83420000
vn -0.00000000 1.00000000 -0.00000000
vn 0.37410000 -0.00000000 -0.92740000
vn -0.00000000 1.00000000 -0.00000000
vn 0.19060000 -0.00000000 -0.98170000
vn -0.00000000 1.00000000 -0.00000000
vn -0.09960000 -0.00000000 -0.99500000
vn 0.09960000 -0.00000000 -0.99500000
vn -0.00000000 1.00000000 -0.00000000
vn -0.19070000 -0.00000000 -0.98170000
vn -0.00000000 1.00000000 -0.00000000
vn -0.37410000 -0.00000000 -0.92740000
vn -0.00000000 1.00000000 -0.00000000
vn -0.55140000 -0.00000000 -0.83420000
vn -0.00000000 1.00000000 -0.00000000
vn -0.00000000 1.00000000 -0.00000000
vn -0.70580000 -0.00000000 -0.70840000
vn -0.00000000 -1.00000000 -0.00000000
vn -0.70580000 -0.00000000 -0.70840000
vn -0.00000000 -1.00000000 -0.00000000
vn -0.55140000 -0.00000000 -0.83420000
vn -0.00000000 -1.00000000 -0.00000000
vn -0.37410000 -0.00000000 -0.92740000
vn -0.00000000 -1.00000000 -0.00000000
vn -0.19070000 -0.00000000 -0.98170000
vn -0.00000000 -1.00000000 -0.00000000
vn 0.09960000 -0.00000000 -0.99500000
vn -0.09960000 -0.00000000 -0.99500000
vn -0.00000000 -1.00000000 -0.00000000
vn 0.19060000 -0.00000000 -0.98170000
vn -0.00000000 -1.00000000 -0.00000000
vn 0.37410000 -0.00000000 -0.92740000
vn -0.00000000 -1.00000000 -0.00000000
vn 0.55140000 -0.00000000 -0.83420000
vn -0.00000000 -1.00000000 -0.00000000
vn 0.70580000 -0.00000000 -0.70840000
vn -0.00000000 -1.00000000 -0.00000000
vn 0.83050000 -0.00000000 -0.55710000
vn -0.00000000 -1.00000000 -0.00000000
vn 0.92310000 -0.00000000 -0.38450000
vn -0.00000000 -1.00000000 -0.00000000
vn 0.98040000 -0.00000000 -0.19690000
vn -0.00000000 -1.00000000 -0.00000000
vn 1.00000000 -0.00000000 -0.00160000
vn -0.00000000 -1.00000000 -0.00000000
vn 0.00010000 -1.00000000 -0.00060000
vn 0.98110000 -0.00000000 0.19340000
vn -0.00010000 -1.00000000 -0.00010000
vn 0.00010000 -1.00000000 -0.00060000
vn 0.92470000 -0.00000000 0.38080000
vn -0.00010000 -1.00000000 -0.00010000
vn -0.00010000 -1.00000000 -0.00010000
vn 0.83250000 -0.00000000 0.55400000
vn -0.00010000 -1.00000000 -0.00010000
vn 0.70790000 -0.00000000 0.70630000
vn -0.00010000 -1.00000000 -0.00010000
vn 0.55700000 -0.00000000 0.83050000
vn -0.00000000 -1.00000000 -0.00010000
vn -0.00010000 -1.00000000 -0.00010000
vn 0.38480000 -0.00000000 0.92300000
vn -0.00000000 -1.00000000 -0.00010000
vn 0.19630000 -0.00000000 0.98050000
vn -0.00000000 -1.00000000 -0.00010000
vn -0.00000000 -0.00000000 1.00000000
vn -0.00000000 -1.00000000 -0.00010000
vn -0.19640000 -0.00000000 0.98050000
vn 0.00010000 -1.00000000 -0.00010000
vn -0.00000000 -1.00000000 -0.00010000
vn -0.38480000 -0.00000000 0.92300000
vn 0.00010000 -1.00000000 -0.00010000
vn -0.55700000 -0.00000000 0.83050000
vn 0.00010000 -1.00000000 -0.00010000
vn -0.70790000 -0.00000000 0.70630000
vn 0.00010000 -1.00000000 -0.00010000
vn -0.83250000 -0.00000000 0.55410000
vn 0.00010000 -1.00000000 -0.00010000
vn -0.00010000 -1.00000000 -0.00060000
vn -0.92470000 -0.00000000 0.38080000
vn -0.00000000 -1.00000000 -0.00000000
vn -0.00010000 -1.00000000 -0.00060000
vn -0.98110000 -0.00000000 0.19340000
vn -0.00000000 -1.00000000 -0.00000000
vn -1.00000000 -0.00000000 -0.00160000
vn -0.00000000 -1.00000000 -0.00000000
vn -0.98040000 -0.00000000 -0.19690000
vn -0.92310000 -0.00000000 -0.38450000
vn -0.00000000 1.00000000 -0.00000000
vn -0.00000000 1.00000000 -0.00000000
vn -0.83050000 -0.00000000 -0.55710000
vn -0.83050000 -0.00000000 -0.55710000
vn -0.00000000 -1.00000000 -0.00000000
vn -0.00010000 -1.00000000 -0.00010000
vn 0.00010000 -1.00000000 -0.00010000
vn -0.00000000 -1.00000000 -0.00010000
vn -0.00000000 -1.00000000 -0.00000000
vn 0.00010000 -1.00000000 -0.00060000
vn -0.00010000 -1.00000000 -0.00060000
vn -0.00010000 -1.00000000 -0.00010000
vn -0.00000000 -1.00000000 -0.00000000
vn -0.92310000 -0.00000000 -0.38450000
vt 0.20711300 0.38484500
vt 0.10504300 0.74959900
vt 0.21748400 0.38484500
vt 0.10714000 0.75980000
vt 0.05454700 0.76490100
vt 0.05454700 0.76490100
vt 0.05454700 0.76490100
vt 0.05454700 0.76490100
vt 0.22779900 0.38484500
vt 0.10714000 0.77011500
vt 0.23817100 0.38484500
vt 0.10515700 0.78031600
vt 0.24854200 0.38484500
vt 0.10124600 0.78989400
vt 0.25891300 0.38484500
vt 0.09552200 0.79850800
vt 0.26928500 0.38484500
vt 0.08821100 0.80587600
vt 0.27959900 0.38484500
vt 0.07959700 0.81165700
vt 0.07959700 0.81165700
vt 0.28997100 0.38484500
vt 0.07007500 0.81562400
vt 0.07007500 0.81562400
vt 0.30039800 0.38484500
vt 0.05981700 0.81772100
vt 0.31082700 0.38484500
vt 0.04933300 0.81772100
vt 0.04933300 0.81772100
vt 0.32125500 0.38484500
vt 0.03918800 0.81568100
vt 0.03918800 0.81568100
vt 0.33162600 0.38484500
vt 0.02961000 0.81171300
vt 0.34194000 0.38484500
vt 0.02099600 0.80598900
vt 0.35231200 0.38484500
vt 0.01368500 0.79862200
vt 0.36268300 0.38484500
vt 0.00796100 0.79000700
vt 0.37305500 0.38484500
vt 0.00399300 0.78048600
vt 0.38336900 0.38484500
vt 0.00195300 0.77028500
vt 0.39374100 0.38484500
vt 0.00195300 0.75991300
vt 0.40411200 0.38484500
vt 0.00399300 0.74976900
vt 0.41448300 0.38484500
vt 0.00796100 0.74019100
vt 0.42485500 0.38484500
vt 0.01368500 0.73157600
vt 0.43516900 0.38484500
vt 0.02105200 0.72426500
vt 0.44554100 0.38484500
vt 0.02966700 0.71859800
vt 0.45591200 0.38484500
vt 0.03924500 0.71468800
vt 0.13479700 0.38484500
vt 0.46617000 0.38484500
vt 0.04927600 0.71270400
vt 0.14505500 0.38484500
vt 0.05953400 0.71270400
vt 0.15531300 0.38484500
vt 0.06967900 0.71457400
vt 0.16568400 0.38484500
vt 0.07931300 0.71842800
vt 0.08792800 0.72415200
vt 0.17605600 0.38484500
vt 0.24446100 0.72415200
vt 0.17605600 0.37073300
vt 0.25307600 0.71842800
vt 0.16568400 0.37073300
vt 0.26265400 0.71457400
vt 0.15531300 0.37073300
vt 0.27285500 0.71270400
vt 0.14505500 0.37073300
vt 0.28305600 0.71270400
vt 0.46617000 0.37073300
vt 0.13479700 0.37073300
vt 0.29308800 0.71468800
vt 0.45591200 0.37073300
vt 0.30266600 0.71859800
vt 0.44554100 0.37073300
vt 0.31133700 0.72426500
vt 0.43516900 0.37073300
vt 0.31864800 0.73157600
vt 0.42485500 0.37073300
vt 0.32442800 0.74019100
vt 0.41448300 0.37073300
vt 0.32839600 0.74976900
vt 0.40411200 0.37073300
vt 0.33043600 0.75991300
vt 0.39374100 0.37073300
vt 0.33043600 0.77028500
vt 0.38336900 0.37073300
vt 0.32839600 0.78048600
vt 0.32839600 0.78048600
vt 0.37305500 0.37073300
vt 0.32442800 0.79000700
vt 0.32442800 0.79000700
vt 0.36268300 0.37073300
vt 0.31870400 0.79862200
vt 0.31870400 0.79862200
vt 0.35231200 0.37073300
vt 0.31133700 0.80598900
vt 0.34194000 0.37073300
vt 0.30272200 0.81171300
vt 0.33162600 0.37073300
vt 0.29320100 0.81568100
vt 0.29320100 0.81568100
vt 0.32125500 0.37073300
vt 0.28300000 0.81772100
vt 0.31082700 0.37073300
vt 0.27257200 0.81772100
vt 0.30039800 0.37073300
vt 0.26231400 0.81562400
vt 0.28997100 0.37073300
vt 0.25273600 0.81165700
vt 0.25273600 0.81165700
vt 0.27959900 0.37073300
vt 0.24417800 0.80587600
vt 0.26928500 0.37073300
vt 0.23686700 0.79850800
vt 0.25891300 0.37073300
vt 0.23114300 0.78989400
vt 0.24854200 0.37073300
vt 0.22717600 0.78031600
vt 0.22717600 0.78031600
vt 0.23817100 0.37073300
vt 0.22519200 0.77011500
vt 0.22519200 0.77011500
vt 0.22779900 0.37073300
vt 0.22524900 0.75980000
vt 0.21748400 0.37073300
vt 0.22728900 0.74959900
vt 0.20711300 0.37073300
vt 0.19674200 0.38484500
vt 0.10107600 0.74007700
vt 0.09529500 0.73146300
vt 0.18637000 0.38484500
vt 0.18637000 0.37073300
vt 0.23709400 0.73146300
vt 0.27784200 0.76507100
vt 0.27784200 0.76507100
vt 0.27784200 0.76507100
vt 0.27784200 0.76507100
vt 0.27784200 0.76507100
vt 0.27784200 0.76507100
vt 0.27784200 0.76507100
vt 0.23131300 0.74007700
vt 0.19674200 0.37073300
f 2/2/2 4/4/4 7/7/7
f 4/4/4 10/10/10 7/7/7
f 10/10/10 12/12/12 7/7/7
f 12/12/12 14/14/14 7/7/7
f 14/14/14 16/16/16 7/7/7
f 16/16/16 18/18/18 7/7/7
f 18/18/18 20/20/20 7/7/7
f 21/21/21 23/23/23 5/5/5
f 24/24/24 26/26/26 8/8/8
f 26/26/26 29/29/29 8/8/8
f 28/28/28 31/31/31 6/6/6
f 32/32/32 34/34/34 7/7/7
f 34/34/34 36/36/36 7/7/7
f 36/36/36 38/38/38 7/7/7
f 38/38/38 40/40/40 7/7/7
f 40/40/40 42/42/42 7/7/7
f 42/42/42 44/44/44 7/7/7
f 44/44/44 46/46/46 7/7/7
f 46/46/46 48/48/48 7/7/7
f 48/48/48 50/50/50 7/7/7
f 50/50/50 52/52/52 7/7/7
f 52/52/52 54/54/54 7/7/7
f 54/54/54 56/56/56 7/7/7
f 56/56/56 58/58/58 7/7/7
f 58/58/58 61/61/61 7/7/7
f 61/61/61 63/63/63 7/7/7
f 63/63/63 65/65/65 7/7/7
f 65/65/65 67/67/67 7/7/7
f 7/7/7 67/67/67 68/68/68
f 69/69/69 66/66/66 71/71/71
f 71/71/71 66/66/66 73/73/73
f 66/66/66 64/64/64 73/73/73
f 73/73/73 64/64/64 75/75/75
f 64/64/64 62/62/62 75/75/75
f 75/75/75 62/62/62 77/77/77
f 62/62/62 59/59/59 77/77/77
f 77/77/77 59/59/59 80/80/80
f 60/60/60 57/57/57 79/79/79
f 79/79/79 57/57/57 82/82/82
f 57/57/57 55/55/55 82/82/82
f 82/82/82 55/55/55 84/84/84
f 55/55/55 53/53/53 84/84/84
f 84/84/84 53/53/53 86/86/86
f 53/53/53 51/51/51 86/86/86
f 86/86/86 51/51/51 88/88/88
f 51/51/51 49/49/49 88/88/88
f 88/88/88 49/49/49 90/90/90
f 49/49/49 47/47/47 90/90/90
f 90/90/90 47/47/47 92/92/92
f 47/47/47 45/45/45 92/92/92
f 92/92/92 45/45/45 94/94/94
f 45/45/45 43/43/43 94/94/94
f 94/94/94 43/43/43 96/96/96
f 43/43/43 41/41/41 96/96/96
f 96/96/96 41/41/41 99/99/99
f 41/41/41 39/39/39 99/99/99
f 99/99/99 39/39/39 102/102/102
f 39/39/39 37/37/37 102/102/102
f 102/102/102 37/37/37 105/105/105
f 37/37/37 35/35/35 105/105/105
f 105/105/105 35/35/35 107/107/107
f 35/35/35 33/33/33 107/107/107
f 107/107/107 33/33/33 109/109/109
f 33/33/33 30/30/30 109/109/109
f 109/109/109 30/30/30 112/112/112
f 30/30/30 27/27/27 112/112/112
f 112/112/112 27/27/27 114/114/114
f 27/27/27 25/25/25 114/114/114
f 114/114/114 25/25/25 116/116/116
f 25/25/25 22/22/22 116/116/116
f 116/116/116 22/22/22 118/118/118
f 22/22/22 19/19/19 118/118/118
f 118/118/118 19/19/19 121/121/121
f 19/19/19 17/17/17 121/121/121
f 121/121/121 17/17/17 123/123/123
f 17/17/17 15/15/15 123/123/123
f 123/123/123 15/15/15 125/125/125
f 15/15/15 13/13/13 125/125/125
f 125/125/125 13/13/13 127/127/127
f 13/13/13 11/11/11 127/127/127
f 127/127/127 11/11/11 130/130/130
f 11/11/11 9/9/9 130/130/130
f 130/130/130 9/9/9 133/133/133
f 9/9/9 3/3/3 133/133/133
f 133/133/133 3/3/3 135/135/135
f 3/3/3 1/1/1 135/135/135
f 135/135/135 1/1/1 137/137/137
f 137/137/137 1/1/1 138/138/138
f 2/2/2 7/7/7 139/139/139
f 139/139/139 7/7/7 140/140/140
f 7/7/7 68/68/68 140/140/140
f 141/141/141 69/69/69 142/142/142
f 69/69/69 71/71/71 142/142/142
f 143/143/143 70/70/70 147/147/147
f 70/70/70 72/72/72 147/147/147
f 72/72/72 74/74/74 147/147/147
f 74/74/74 76/76/76 147/147/147
f 76/76/76 78/78/78 147/147/147
f 78/78/78 81/81/81 147/147/147
f 81/81/81 83/83/83 147/147/147
f 83/83/83 85/85/85 147/147/147
f 85/85/85 87/87/87 147/147/147
f 87/87/87 89/89/89 147/147/147
f 89/89/89 91/91/91 147/147/147
f 91/91/91 93/93/93 147/147/147
f 93/93/93 95/95/95 147/147/147
f 95/95/95 97/97/97 147/147/147
f 98/98/98 101/101/101 148/148/148
f 100/100/100 103/103/103 144/144/144
f 104/104/104 106/106/106 150/150/150
f 106/106/106 108/108/108 150/150/150
f 108/108/108 111/111/111 150/150/150
f 110/110/110 113/113/113 146/146/146
f 113/113/113 115/115/115 146/146/146
f 115/115/115 117/117/117 146/146/146
f 117/117/117 120/120/120 146/146/146
f 119/119/119 122/122/122 145/145/145
f 122/122/122 124/124/124 145/145/145
f 124/124/124 126/126/126 145/145/145
f 126/126/126 128/128/128 145/145/145
f 129/129/129 132/132/132 149/149/149
f 131/131/131 134/134/134 147/147/147
f 134/134/134 136/136/136 147/147/147
f 147/147/147 136/136/136 151/151/151
f 137/137/137 138/138/138 152/152/152
f 138/138/138 141/141/141 152/152/152
f 141/141/141 142/142/142 152/152/152
f 147/147/147 151/151/151 143/143/143

