mtllib material.mtl
usemtl Metal_DarkGray_002_COLOR_0
v -0.04822300 0.05764600 -0.06914100
v -0.03688300 0.06605700 -0.06925900
v -0.03737700 0.06494000 -0.07645800
v -0.02509600 0.07041000 -0.07535200
v -0.02559000 0.07042100 -0.08186900
v -0.01282700 0.07370300 -0.07903400
v -0.01307400 0.07382100 -0.08521000
v -0.00000500 0.07497400 -0.08021100
v -0.00000500 0.07497400 -0.08021100
v -0.00000500 0.07498600 -0.08637500
v -0.00000500 0.07498600 -0.08637500
v 0.01307600 0.07382100 -0.08521000
v 0.01281700 0.07370300 -0.07903400
v 0.02559200 0.07042100 -0.08186900
v 0.02509800 0.07041000 -0.07535200
v 0.03736700 0.06494000 -0.07645800
v 0.04822500 0.05764600 -0.06914100
v 0.03688500 0.06605700 -0.06925900
v 0.03868500 0.07101000 -0.06489500
v 0.02575700 0.07384500 -0.07100000
v 0.01286400 0.07518500 -0.07451700
v -0.00000500 0.07570300 -0.07570500
v -0.00000500 0.07570300 -0.07570500
v -0.01286200 0.07518500 -0.07451700
v -0.02575500 0.07384400 -0.07100000
v -0.03868300 0.07101000 -0.06489500
v -0.05150500 0.06657500 -0.05523700
v -0.05134000 0.05899900 -0.05826000
v -0.05791600 0.04868300 -0.06016600
v -0.06491500 0.03754300 -0.08843300
v -0.05742200 0.04824700 -0.08843300
v -0.04817600 0.05748200 -0.08843300
v -0.03748300 0.06498700 -0.08843300
v -0.02563700 0.07050400 -0.08843300
v -0.01301500 0.07388000 -0.08843300
v -0.00000500 0.07502100 -0.08843300
v -0.00000500 0.07502100 -0.08843300
v 0.01301700 0.07388000 -0.08843300
v 0.02563900 0.07050400 -0.08843300
v 0.03747300 0.06498700 -0.08843300
v 0.04817800 0.05748200 -0.08843300
v 0.05742400 0.04824700 -0.08843300
v 0.06491700 0.03754300 -0.08843300
v 0.05791800 0.04868300 -0.06016600
v 0.05134200 0.05899900 -0.05826000
v 0.05150700 0.06657500 -0.05523700
v 0.06238800 0.07373900 -0.04160300
v 0.05293000 0.07719700 -0.05310800
v 0.04126100 0.08004400 -0.06256600
v 0.02823900 0.08214900 -0.06940000
v 0.01433400 0.08342000 -0.07354100
v -0.00000500 0.08384300 -0.07494100
v -0.00000500 0.08384300 -0.07494100
v -0.01433300 0.08342000 -0.07354100
v -0.02823700 0.08214900 -0.06940000
v -0.04125900 0.08004400 -0.06256600
v -0.05292800 0.07719700 -0.05310800
v -0.06238600 0.07373900 -0.04160300
v -0.06930300 0.06979800 -0.02865200
v -0.06231500 0.05996400 -0.04275600
v -0.06250400 0.04957700 -0.04575600
v -0.06592700 0.03807200 -0.04975500
v -0.07043200 0.02570900 -0.08843300
v -0.07043200 0.02570900 -0.11213700
v -0.06491500 0.03754300 -0.11213700
v -0.05742200 0.04824700 -0.11213700
v -0.04817600 0.05748200 -0.11213700
v -0.03748300 0.06498700 -0.11213700
v -0.02563700 0.07050400 -0.11213700
v -0.01301500 0.07388000 -0.11213700
v -0.00000500 0.07502100 -0.11213700
v -0.00000500 0.07502100 -0.11213700
v 0.01301700 0.07388000 -0.11213700
v 0.02563900 0.07050400 -0.11213700
v 0.03747300 0.06498700 -0.11213700
v 0.04817800 0.05748200 -0.11213700
v 0.05742400 0.04824700 -0.11213700
v 0.06491700 0.03754300 -0.11213700
v 0.07043400 0.02570900 -0.11213700
v 0.07043400 0.02570900 -0.08843300
v 0.06592900 0.03807200 -0.04975500
v 0.06249400 0.04957700 -0.04575600
v 0.06231700 0.05996400 -0.04275600
v 0.06930500 0.06979800 -0.02865200
v 0.07353900 0.08900700 -0.01470100
v 0.07353900 0.08900700 -0.01470100
v 0.07353900 0.08900700 -0.01470100
v 0.06924600 0.08900700 -0.02877000
v 0.06924600 0.08900700 -0.02877000
v 0.06924600 0.08900700 -0.02877000
v 0.06229400 0.08900700 -0.04172100
v 0.06229400 0.08900700 -0.04172100
v 0.06229400 0.08900700 -0.04172100
v 0.05294200 0.08900700 -0.05307300
v 0.05294200 0.08900700 -0.05307300
v 0.05294200 0.08900700 -0.05307300
v 0.04156700 0.08900700 -0.06237800
v 0.04156700 0.08900700 -0.06237800
v 0.04156700 0.08900700 -0.06237800
v 0.02854500 0.08900700 -0.06920000
v 0.02854500 0.08900700 -0.06920000
v 0.02854500 0.08900700 -0.06920000
v 0.01445200 0.08900700 -0.07330600
v 0.01445200 0.08900700 -0.07330600
v 0.01445200 0.08900700 -0.07330600
v -0.00000500 0.08900700 -0.07475200
v -0.00000500 0.08900700 -0.07475200
v -0.00000500 0.08900700 -0.07475200
v -0.00000500 0.08900700 -0.07475200
v -0.01446200 0.08900700 -0.07330600
v -0.01446200 0.08900700 -0.07330600
v -0.01446200 0.08900700 -0.07330600
v -0.02854300 0.08900700 -0.06920000
v -0.02854300 0.08900700 -0.06920000
v -0.02854300 0.08900700 -0.06920000
v -0.04156500 0.08900700 -0.06237800
v -0.04156500 0.08900700 -0.06237800
v -0.04156500 0.08900700 -0.06237800
v -0.05294000 0.08900700 -0.05307300
v -0.05294000 0.08900700 -0.05307300
v -0.05294000 0.08900700 -0.05307300
v -0.06229200 0.08900700 -0.04172100
v -0.06229200 0.08900700 -0.04172100
v -0.06229200 0.08900700 -0.04172100
v -0.06924400 0.08900700 -0.02877000
v -0.06924400 0.08900700 -0.02877000
v -0.06924400 0.08900700 -0.02877000
v -0.07353800 0.08900700 -0.01470100
v -0.07353800 0.08900700 -0.01470100
v -0.07353800 0.08900700 -0.01470100
v -0.07500800 0.08900700 -0.00006700
v -0.07500800 0.08900700 -0.00006700
v -0.07500800 0.08900700 -0.00006700
v -0.07493800 0.05915200 -0.00006700
v -0.07354900 0.06552800 -0.01470100
v -0.07036200 0.05102400 -0.02727600
v -0.07078500 0.03716600 -0.03012200
v -0.07160800 0.02600300 -0.03818000
v -0.07382000 0.01308700 -0.08843300
v -0.07382000 0.01308700 -0.11213700
v -0.07496100 0.00006500 -0.08843300
v -0.07496100 0.00006500 -0.11213700
v -0.07382000 -0.01294600 -0.08843300
v -0.07382000 -0.01294600 -0.11213700
v -0.07043200 -0.02556800 -0.08843300
v -0.07043200 -0.02556800 -0.11213700
v -0.06491500 -0.03741300 -0.08843300
v -0.06491500 -0.03741300 -0.11213700
v -0.05742200 -0.04811800 -0.08843300
v -0.05742200 -0.04811800 -0.11213700
v -0.04817600 -0.05735200 -0.08843300
v -0.04817600 -0.05735200 -0.11213700
v -0.03748300 -0.06484500 -0.08843300
v -0.03748300 -0.06484500 -0.11213700
v -0.02563700 -0.07037400 -0.08843300
v -0.02563700 -0.07037400 -0.11213700
v -0.01301500 -0.07375000 -0.08843300
v -0.01301500 -0.07375000 -0.11213700
v -0.00000500 -0.07489100 -0.08843300
v -0.00000500 -0.07489100 -0.11213700
v 0.01301700 -0.07375000 -0.11213700
v 0.01301700 -0.07375000 -0.08843300
v 0.02563900 -0.07037400 -0.11213700
v 0.02563900 -0.07037400 -0.08843300
v 0.03747300 -0.06484500 -0.11213700
v 0.03747300 -0.06484500 -0.08843300
v 0.04817800 -0.05735200 -0.11213700
v 0.04817800 -0.05735200 -0.08843300
v 0.05742400 -0.04811800 -0.11213700
v 0.05742400 -0.04811800 -0.08843300
v 0.06491700 -0.03741300 -0.11213700
v 0.06491700 -0.03741300 -0.08843300
v 0.07043400 -0.02556800 -0.11213700
v 0.07043400 -0.02556800 -0.08843300
v 0.07382200 -0.01294500 -0.11213700
v 0.07382200 -0.01294500 -0.08843300
v 0.07496300 0.00006500 -0.11213700
v 0.07496300 0.00006500 -0.08843300
v 0.07382200 0.01308700 -0.11213700
v 0.07382200 0.01308700 -0.08843300
v 0.07161000 0.02600300 -0.03818000
v 0.07078700 0.03716600 -0.03012200
v 0.07035200 0.05102400 -0.02727600
v 0.07353900 0.06552800 -0.01470100
v 0.07493900 0.05915200 -0.00006700
v 0.07501000 0.08900700 -0.00006700
v 0.07501000 0.08900700 -0.00006700
v 0.07501000 0.08900700 -0.00006700
v 0.07353900 0.06041100 0.01450800
v 0.07359800 0.08899600 0.01456700
v 0.07359800 0.08899600 0.01456700
v 0.07359800 0.08899600 0.01456700
v -0.00000500 0.08900700 0.00000400
v -0.00000500 0.08900700 0.00000400
v -0.00000500 0.08900700 0.00000400
v -0.00000500 0.08900700 0.00000400
v -0.00000500 0.08900700 0.00000400
v -0.00000500 0.08900700 0.00000400
v -0.00000500 0.08900700 0.00000400
v -0.00000500 0.08900700 0.00000400
v -0.00000500 0.08900700 0.00000400
v -0.00000500 0.08900700 0.00000400
v -0.00000500 0.08900700 0.00000400
v -0.00000500 0.08900700 0.00000400
v -0.00000500 0.08900700 0.00000400
v -0.00000500 0.08900700 0.00000400
v -0.00000500 0.08900700 0.00000400
v -0.00000500 0.08900700 0.00000400
v -0.00000500 0.08900700 0.00000400
v -0.00000500 0.08900700 0.00000400
v -0.00000500 0.08900700 0.00000400
v -0.00000500 0.08900700 0.00000400
v -0.00000500 0.08900700 0.00000400
v -0.00000500 0.08900700 0.00000400
v -0.00000500 0.08900700 0.00000400
v -0.00000500 0.08900700 0.00000400
v -0.00000500 0.08900700 0.00000400
v -0.00000500 0.08900700 0.00000400
v -0.00000500 0.08900700 0.00000400
v -0.00000500 0.08900700 0.00000400
v -0.00000500 0.08900700 0.00000400
v -0.00000500 0.08900700 0.00000400
v -0.00000500 0.08900700 0.00000400
v -0.00000500 0.08900700 0.00000400
v -0.07359700 0.08899600 0.01456700
v -0.07359700 0.08899600 0.01456700
v -0.07359700 0.08899600 0.01456700
v -0.07353800 0.06041100 0.01450800
v -0.07352600 0.04102500 0.01456700
v -0.07493800 0.03834300 -0.00006700
v -0.07394900 0.04315400 -0.01396000
v -0.07440800 0.02550900 -0.01557100
v -0.07454900 0.01305100 -0.02582900
v -0.07487900 -0.00024100 -0.02582900
v -0.07366700 -0.01333400 -0.02584100
v -0.07042000 -0.02613200 -0.02584100
v -0.06492700 -0.03808400 -0.02584100
v -0.05733900 -0.04878800 -0.02584100
v -0.04784600 -0.05790500 -0.02582900
v -0.03702400 -0.06515100 -0.02582900
v -0.02515500 -0.07048000 -0.02582900
v -0.01262700 -0.07375000 -0.02582900
v -0.00000500 -0.07479700 -0.02582900
v 0.01262900 -0.07375000 -0.02582900
v 0.02515700 -0.07048000 -0.02582900
v 0.03702600 -0.06515100 -0.02582900
v 0.04784800 -0.05790500 -0.02582900
v 0.05734100 -0.04878800 -0.02584100
v 0.06492900 -0.03808400 -0.02584100
v 0.07042200 -0.02613200 -0.02584100
v 0.07365700 -0.01333400 -0.02584100
v 0.07488100 -0.00024100 -0.02582900
v 0.07455100 0.01305100 -0.02582900
v 0.07439800 0.02550900 -0.01557100
v 0.07395100 0.04315400 -0.01396000
v 0.07493900 0.03834300 -0.00006700
v 0.07351600 0.04102500 0.01456700
v 0.06956300 0.04858900 0.02870600
v 0.06929300 0.06419900 0.02858900
v 0.06935200 0.08899600 0.02864700
v 0.06935200 0.08899600 0.02864700
v 0.06935200 0.08899600 0.02864700
v 0.06244700 0.08899600 0.04162200
v 0.06244700 0.08899600 0.04162200
v 0.06244700 0.08899600 0.04162200
v 0.05313000 0.08899600 0.05300900
v 0.05313000 0.08899600 0.05300900
v 0.05313000 0.08899600 0.05300900
v 0.04177800 0.08899600 0.06234900
v 0.04177800 0.08899600 0.06234900
v 0.04177800 0.08899600 0.06234900
v 0.02882700 0.08899600 0.06931300
v 0.02882700 0.08899600 0.06931300
v 0.02882700 0.08899600 0.06931300
v 0.01477000 0.08899600 0.07360700
v 0.01477000 0.08899600 0.07360700
v 0.01477000 0.08899600 0.07360700
v -0.00000500 0.08899600 0.07506600
v -0.00000500 0.08899600 0.07506600
v -0.00000500 0.08899600 0.07506600
v -0.00000500 0.08899600 0.07506600
v -0.01476800 0.08899600 0.07360700
v -0.01476800 0.08899600 0.07360700
v -0.01476800 0.08899600 0.07360700
v -0.02882500 0.08899600 0.06931300
v -0.02882500 0.08899600 0.06931300
v -0.02882500 0.08899600 0.06931300
v -0.04177700 0.08899600 0.06234900
v -0.04177700 0.08899600 0.06234900
v -0.04177700 0.08899600 0.06234900
v -0.05314000 0.08899600 0.05300900
v -0.05314000 0.08899600 0.05300900
v -0.05314000 0.08899600 0.05300900
v -0.06244500 0.08899600 0.04162200
v -0.06244500 0.08899600 0.04162200
v -0.06244500 0.08899600 0.04162200
v -0.06935000 0.08899600 0.02864700
v -0.06935000 0.08899600 0.02864700
v -0.06935000 0.08899600 0.02864700
v -0.06929100 0.06419800 0.02858900
v -0.06956200 0.04858900 0.02870600
v -0.06900900 0.03940100 0.03431700
v -0.07397300 0.02656700 0.01536700
v -0.07517300 0.01298100 -0.00009100
v -0.07519600 -0.00024100 -0.00006700
v -0.07409100 -0.01341600 -0.00007900
v -0.07089100 -0.02632000 -0.00009100
v -0.06538600 -0.03833100 -0.00010200
v -0.05765700 -0.04904700 -0.00007900
v -0.04801100 -0.05811700 -0.00007900
v -0.03707100 -0.06523400 -0.00006700
v -0.02514300 -0.07044500 -0.00006700
v -0.01260300 -0.07360900 -0.00007900
v -0.00000500 -0.07464400 -0.00007900
v 0.01260500 -0.07360900 -0.00007900
v 0.02514500 -0.07044500 -0.00006700
v 0.03707300 -0.06523400 -0.00006700
v 0.04801300 -0.05811700 -0.00007900
v 0.05765900 -0.04904700 -0.00007900
v 0.06537600 -0.03833100 -0.00010200
v 0.07089300 -0.02632000 -0.00009100
v 0.07409200 -0.01341600 -0.00007900
v 0.07519800 -0.00024100 -0.00006700
v 0.07517500 0.01298100 -0.00009100
v 0.07397500 0.02656700 0.01536700
v 0.06901100 0.03940100 0.03431700
v 0.06116400 0.04904700 0.04855100
v 0.06164700 0.05644700 0.04399900
v 0.06242300 0.06833900 0.04161100
v 0.05310600 0.07195100 0.05298600
v 0.04176700 0.07483300 0.06233800
v 0.02881500 0.07695000 0.06929000
v 0.01475800 0.07825600 0.07356000
v -0.00000500 0.07869100 0.07501900
v -0.00000500 0.07869100 0.07501900
v -0.01475600 0.07825600 0.07356000
v -0.02881300 0.07695000 0.06929000
v -0.04176500 0.07483300 0.06233800
v -0.05311700 0.07195100 0.05298600
v -0.06242100 0.06833900 0.04161100
v -0.06165700 0.05644600 0.04399900
v -0.06116300 0.04904700 0.04855100
v -0.05884500 0.04383600 0.05771500
v -0.06642100 0.03410800 0.04868000
v -0.07191400 0.02234400 0.03710500
v -0.07458500 0.00980500 0.02705900
v -0.07511400 -0.00288800 0.02462400
v -0.07396100 -0.01551000 0.02218900
v -0.07062000 -0.02780300 0.01982500
v -0.06504500 -0.03928400 0.01760100
v -0.05737500 -0.04955300 0.01563700
v -0.04791700 -0.05830500 0.01393100
v -0.03708300 -0.06526900 0.01253200
v -0.02521400 -0.07038600 0.01150800
v -0.01266200 -0.07350300 0.01088500
v -0.00000500 -0.07453800 0.01067300
v 0.01266400 -0.07350300 0.01088500
v 0.02521600 -0.07038600 0.01150800
v 0.03708500 -0.06526900 0.01253200
v 0.04791900 -0.05830500 0.01393100
v 0.05737700 -0.04955300 0.01563700
v 0.06503500 -0.03928400 0.01760100
v 0.07062200 -0.02780300 0.01982500
v 0.07396300 -0.01551000 0.02218900
v 0.07511600 -0.00288800 0.02462400
v 0.07458600 0.00980500 0.02705900
v 0.07190400 0.02234500 0.03710500
v 0.06642300 0.03410800 0.04868000
v 0.05884700 0.04383600 0.05771500
v 0.04842500 0.05223500 0.06551400
v 0.04924800 0.05728200 0.06082000
v 0.05074200 0.06284600 0.05657300
v 0.03942600 0.06673900 0.06493700
v 0.02679200 0.06944500 0.07083100
v 0.01344000 0.07110400 0.07428900
v -0.00000500 0.07162100 0.07538300
v -0.00000500 0.07162100 0.07538300
v -0.01343900 0.07110400 0.07428900
v -0.02679000 0.06944500 0.07083100
v -0.03942400 0.06673900 0.06493700
v -0.05074000 0.06284600 0.05657300
v -0.04924600 0.05728200 0.06082000
v -0.04842300 0.05223500 0.06551400
v -0.04829400 0.04834200 0.07000700
v -0.04829400 0.04834200 0.07000700
v -0.05757500 0.03956600 0.06643100
v -0.05757500 0.03956600 0.06643100
v -0.06499700 0.02950800 0.06237300
v -0.06499700 0.02950800 0.06237300
v -0.07044400 0.01840400 0.05790300
v -0.07044400 0.01840400 0.05790300
v -0.07374900 0.00665200 0.05317400
v -0.07374900 0.00665200 0.05317400
v -0.07482000 -0.00541700 0.04830400
v -0.07482000 -0.00541700 0.04830400
v -0.07365500 -0.01747400 0.04345700
v -0.07365500 -0.01747400 0.04345700
v -0.07027900 -0.02909700 0.03877600
v -0.07027900 -0.02909700 0.03877600
v -0.06473900 -0.04007200 0.03436400
v -0.06473900 -0.04007200 0.03436400
v -0.05723400 -0.04998800 0.03037700
v -0.05723400 -0.04998800 0.03037700
v -0.04798800 -0.05854000 0.02694200
v -0.04798800 -0.05854000 0.02694200
v -0.03727100 -0.06546900 0.02415400
v -0.03727100 -0.06546900 0.02415400
v -0.02541400 -0.07056200 0.02209500
v -0.02541400 -0.07056200 0.02209500
v -0.01279200 -0.07368000 0.02084800
v -0.01279200 -0.07368000 0.02084800
v -0.00000500 -0.07468000 0.02044800
v -0.00000500 -0.07468000 0.02044800
v 0.01279400 -0.07368000 0.02084800
v 0.01279400 -0.07368000 0.02084800
v 0.02541600 -0.07056200 0.02209500
v 0.02541600 -0.07056200 0.02209500
v 0.03727300 -0.06546900 0.02415400
v 0.03727300 -0.06546900 0.02415400
v 0.04797800 -0.05854000 0.02694200
v 0.04797800 -0.05854000 0.02694200
v 0.05723500 -0.04998800 0.03037700
v 0.05723500 -0.04998800 0.03037700
v 0.06474100 -0.04007200 0.03436400
v 0.06474100 -0.04007200 0.03436400
v 0.07026900 -0.02909700 0.03877600
v 0.07026900 -0.02909700 0.03877600
v 0.07365700 -0.01747400 0.04345700
v 0.07365700 -0.01747400 0.04345700
v 0.07482200 -0.00541700 0.04830400
v 0.07482200 -0.00541700 0.04830400
v 0.07375100 0.00665200 0.05317400
v 0.07375100 0.00665200 0.05317400
v 0.07044600 0.01840400 0.05790300
v 0.07044600 0.01840400 0.05790300
v 0.06498800 0.02950800 0.06237300
v 0.06498800 0.02950800 0.06237300
v 0.05756500 0.03956600 0.06643100
v 0.05756500 0.03956600 0.06643100
v 0.04829500 0.04834200 0.07000700
v 0.04829500 0.04834200 0.07000700
v 0.03763800 0.05538800 0.07290100
v 0.03763800 0.05538800 0.07290100
v 0.03767300 0.05814000 0.07043100
v 0.03809600 0.06198700 0.06777200
v 0.02579200 0.06524500 0.07254800
v 0.01293500 0.06726900 0.07527700
v -0.00000500 0.06788000 0.07617100
v -0.00000500 0.06788000 0.07617100
v -0.01294500 0.06726900 0.07527700
v -0.02580200 0.06524500 0.07254800
v -0.03809500 0.06198700 0.06777200
v -0.03767100 0.05814000 0.07043100
v -0.03763600 0.05538800 0.07290100
v -0.03763600 0.05538800 0.07290100
v -0.04781100 0.04694200 0.07124200
v -0.04781100 0.04694200 0.07124200
v -0.05691600 0.03843700 0.06781900
v -0.05691600 0.03843700 0.06781900
v -0.06429200 0.02860300 0.06385500
v -0.06429200 0.02860300 0.06385500
v -0.06972600 0.01773300 0.05946700
v -0.06972600 0.01773300 0.05946700
v -0.07303200 0.00614600 0.05479700
v -0.07303200 0.00614600 0.05479700
v -0.07411400 -0.00579300 0.04998600
v -0.07411400 -0.00579300 0.04998600
v -0.07295000 -0.01773300 0.04517500
v -0.07295000 -0.01773300 0.04517500
v -0.06957300 -0.02929700 0.04051700
v -0.06957300 -0.02929700 0.04051700
v -0.06408000 -0.04014200 0.03614100
v -0.06408000 -0.04014200 0.03614100
v -0.05663400 -0.04994100 0.03220000
v -0.05663400 -0.04994100 0.03220000
v -0.04747000 -0.05838700 0.02878900
v -0.04747000 -0.05838700 0.02878900
v -0.03687100 -0.06523400 0.02603600
v -0.03687100 -0.06523400 0.02603600
v -0.02514300 -0.07025700 0.02401300
v -0.02514300 -0.07025700 0.02401300
v -0.01266200 -0.07332700 0.02276600
v -0.01266200 -0.07332700 0.02276600
v -0.00000500 -0.07432700 0.02236600
v -0.00000500 -0.07432700 0.02236600
v 0.01265200 -0.07332700 0.02276600
v 0.01265200 -0.07332700 0.02276600
v 0.02514500 -0.07025700 0.02401300
v 0.02514500 -0.07025700 0.02401300
v 0.03687300 -0.06523400 0.02603600
v 0.03687300 -0.06523400 0.02603600
v 0.04747200 -0.05838700 0.02878900
v 0.04747200 -0.05838700 0.02878900
v 0.05663600 -0.04994100 0.03220000
v 0.05663600 -0.04994100 0.03220000
v 0.06408200 -0.04014200 0.03614100
v 0.06408200 -0.04014200 0.03614100
v 0.06957500 -0.02929600 0.04051700
v 0.06957500 -0.02929600 0.04051700
v 0.07295100 -0.01773300 0.04517500
v 0.07295100 -0.01773300 0.04517500
v 0.07411600 -0.00579300 0.04998600
v 0.07411600 -0.00579300 0.04998600
v 0.07303400 0.00614700 0.05479700
v 0.07303400 0.00614700 0.05479700
v 0.06971600 0.01773300 0.05946700
v 0.06971600 0.01773300 0.05946700
v 0.06429300 0.02860300 0.06385500
v 0.06429300 0.02860300 0.06385500
v 0.05691800 0.03843700 0.06781900
v 0.05691800 0.03843700 0.06781900
v 0.04780100 0.04694200 0.07124200
v 0.04780100 0.04694200 0.07124200
v 0.03725000 0.05383500 0.07403000
v 0.03725000 0.05383500 0.07403000
v 0.02555700 0.05894000 0.07607700
v 0.02555700 0.05894000 0.07607700
v 0.02579200 0.06063400 0.07508900
v 0.02579200 0.06063400 0.07508900
v 0.02572100 0.06241000 0.07391300
v 0.01305200 0.06506900 0.07597100
v -0.00000500 0.06593900 0.07666500
v -0.00000500 0.06593900 0.07666500
v -0.01305000 0.06506900 0.07597100
v -0.02572000 0.06241000 0.07391300
v -0.02579000 0.06063400 0.07508900
v -0.02579000 0.06063400 0.07508900
v -0.03724800 0.05383500 0.07403000
v -0.03724800 0.05383500 0.07403000
v -0.03493000 0.04822400 0.07705400
v -0.03493000 0.04822400 0.07705400
v -0.03493000 0.04822400 0.07705400
v -0.04482300 0.04175400 0.07444200
v -0.04482300 0.04175400 0.07444200
v -0.04482300 0.04175400 0.07444200
v -0.05336400 0.03379000 0.07121900
v -0.05336400 0.03379000 0.07121900
v -0.05336400 0.03379000 0.07121900
v -0.06026900 0.02458000 0.06750200
v -0.06026900 0.02458000 0.06750200
v -0.06026900 0.02458000 0.06750200
v -0.06535000 0.01439200 0.06338500
v -0.06535000 0.01439200 0.06338500
v -0.06535000 0.01439200 0.06338500
v -0.06844400 0.00353500 0.05899700
v -0.06844400 0.00353500 0.05899700
v -0.06844400 0.00353500 0.05899700
v -0.06945600 -0.00765200 0.05448000
v -0.06945600 -0.00765200 0.05448000
v -0.06945600 -0.00765200 0.05448000
v -0.06836200 -0.01882700 0.04996300
v -0.06836200 -0.01882700 0.04996300
v -0.06836200 -0.01882700 0.04996300
v -0.06518600 -0.02966100 0.04558700
v -0.06518600 -0.02966100 0.04558700
v -0.06518600 -0.02966100 0.04558700
v -0.06003300 -0.03981300 0.04148100
v -0.06003300 -0.03981300 0.04148100
v -0.06003300 -0.03981300 0.04148100
v -0.05305800 -0.04898800 0.03777600
v -0.05305800 -0.04898800 0.03777600
v -0.05305800 -0.04898800 0.03777600
v -0.04447000 -0.05689300 0.03457600
v -0.04447000 -0.05689300 0.03457600
v -0.04447000 -0.05689300 0.03457600
v -0.03453000 -0.06330400 0.03198800
v -0.03453000 -0.06330400 0.03198800
v -0.03453000 -0.06330400 0.03198800
v -0.02354300 -0.06801000 0.03008200
v -0.02354300 -0.06801000 0.03008200
v -0.02354300 -0.06801000 0.03008200
v -0.01183900 -0.07088000 0.02893000
v -0.01183900 -0.07088000 0.02893000
v -0.01183900 -0.07088000 0.02893000
v -0.00000500 -0.07180900 0.02855300
v -0.00000500 -0.07180900 0.02855300
v -0.00000500 -0.07180900 0.02855300
v 0.01184100 -0.07088000 0.02893000
v 0.01184100 -0.07088000 0.02893000
v 0.01184100 -0.07088000 0.02893000
v 0.02354500 -0.06801000 0.03008200
v 0.02354500 -0.06801000 0.03008200
v 0.02354500 -0.06801000 0.03008200
v 0.03453200 -0.06330400 0.03198800
v 0.03453200 -0.06330400 0.03198800
v 0.03453200 -0.06330400 0.03198800
v 0.04447200 -0.05689300 0.03457600
v 0.04447200 -0.05689300 0.03457600
v 0.04447200 -0.05689300 0.03457600
v 0.05305900 -0.04898800 0.03777600
v 0.05305900 -0.04898800 0.03777600
v 0.05305900 -0.04898800 0.03777600
v 0.06003500 -0.03981300 0.04148100
v 0.06003500 -0.03981300 0.04148100
v 0.06003500 -0.03981300 0.04148100
v 0.06518800 -0.02966100 0.04558700
v 0.06518800 -0.02966100 0.04558700
v 0.06518800 -0.02966100 0.04558700
v 0.06836400 -0.01882700 0.04996300
v 0.06836400 -0.01882700 0.04996300
v 0.06836400 -0.01882700 0.04996300
v 0.06945800 -0.00765200 0.05448000
v 0.06945800 -0.00765200 0.05448000
v 0.06945800 -0.00765200 0.05448000
v 0.06844600 0.00353500 0.05899700
v 0.06844600 0.00353500 0.05899700
v 0.06844600 0.00353500 0.05899700
v 0.06535200 0.01439200 0.06338500
v 0.06535200 0.01439200 0.06338500
v 0.06535200 0.01439200 0.06338500
v 0.06027000 0.02458000 0.06750200
v 0.06027000 0.02458000 0.06750200
v 0.06027000 0.02458000 0.06750200
v 0.05336500 0.03379000 0.07121900
v 0.05336500 0.03379000 0.07121900
v 0.05336500 0.03379000 0.07121900
v 0.04482500 0.04175400 0.07444200
v 0.04482500 0.04175400 0.07444200
v 0.04482500 0.04175400 0.07444200
v 0.03493200 0.04822400 0.07705400
v 0.03493200 0.04822400 0.07705400
v 0.03493200 0.04822400 0.07705400
v 0.02398000 0.05300000 0.07898300
v 0.02398000 0.05300000 0.07898300
v 0.01229900 0.05594100 0.08017100
v 0.01229900 0.05594100 0.08017100
v 0.01229900 0.05594100 0.08017100
v 0.01307600 0.06206900 0.07734800
v 0.01307600 0.06206900 0.07734800
v 0.01317000 0.06386900 0.07650100
v 0.01317000 0.06386900 0.07650100
v -0.00000500 0.06498700 0.07699500
v -0.00000500 0.06498700 0.07699500
v -0.00000500 0.06498700 0.07699500
v -0.00000500 0.06498700 0.07699500
v -0.01316800 0.06386900 0.07650100
v -0.01316800 0.06386900 0.07650100
v -0.02555500 0.05894000 0.07607700
v -0.02555500 0.05894000 0.07607700
v -0.02397900 0.05300000 0.07898300
v -0.02397900 0.05300000 0.07898300
v -0.00000500 -0.00755800 0.05451500
v -0.00000500 -0.00755800 0.05451500
v -0.00000500 -0.00755800 0.05451500
v -0.00000500 -0.00755800 0.05451500
v -0.00000500 -0.00755800 0.05451500
v -0.00000500 -0.00755800 0.05451500
v -0.00000500 -0.00755800 0.05451500
v -0.00000500 -0.00755800 0.05451500
v -0.00000500 -0.00755800 0.05451500
v -0.00000500 -0.00755800 0.05451500
v -0.00000500 -0.00755800 0.05451500
v -0.00000500 -0.00755800 0.05451500
v -0.00000500 -0.00755800 0.05451500
v -0.00000500 -0.00755800 0.05451500
v -0.00000500 -0.00755800 0.05451500
v -0.00000500 -0.00755800 0.05451500
v -0.00000500 -0.00755800 0.05451500
v -0.00000500 -0.00755800 0.05451500
v -0.00000500 -0.00755800 0.05451500
v -0.00000500 -0.00755800 0.05451500
v -0.00000500 -0.00755800 0.05451500
v -0.00000500 -0.00755800 0.05451500
v -0.00000500 -0.00755800 0.05451500
v -0.00000500 -0.00755800 0.05451500
v -0.00000500 -0.00755800 0.05451500
v -0.00000500 -0.00755800 0.05451500
v -0.00000500 0.05695200 0.08058300
v -0.00000500 0.05695200 0.08058300
v -0.00000500 0.05695200 0.08058300
v -0.00000500 0.05695200 0.08058300
v -0.00000500 0.06314000 0.07778300
v -0.00000500 0.06314000 0.07778300
v -0.00000500 0.06314000 0.07778300
v -0.00000500 0.06314000 0.07778300
v -0.01308600 0.06206900 0.07734800
v -0.01308600 0.06206900 0.07734800
v -0.01229800 0.05594100 0.08017100
v -0.01229800 0.05594100 0.08017100
v -0.01229800 0.05594100 0.08017100
vn -0.65360000 0.74590000 -0.12820000
vn -0.59190000 0.67320000 -0.44330000
vn -0.49850000 0.86610000 -0.03770000
vn -0.40190000 0.85900000 -0.31720000
vn -0.33900000 0.94060000 0.01940000
vn -0.17030000 0.97430000 -0.14770000
vn -0.17610000 0.98420000 0.01830000
vn 0.10100000 0.99230000 -0.07150000
vn -0.10110000 0.99230000 -0.07150000
vn -0.08790000 0.99610000 0.00990000
vn 0.08790000 0.99610000 0.00990000
vn 0.17610000 0.98420000 0.01850000
vn 0.17020000 0.97430000 -0.14760000
vn 0.33910000 0.94050000 0.01940000
vn 0.40180000 0.85900000 -0.31730000
vn 0.49840000 0.86610000 -0.03800000
vn 0.65350000 0.74590000 -0.12830000
vn 0.59180000 0.67300000 -0.44360000
vn 0.57200000 0.25190000 -0.78060000
vn 0.40110000 0.42750000 -0.81020000
vn 0.18660000 0.62150000 -0.76090000
vn 0.12290000 0.67420000 -0.72820000
vn -0.12300000 0.67430000 -0.72820000
vn -0.18660000 0.62160000 -0.76080000
vn -0.40110000 0.42750000 -0.81020000
vn -0.57200000 0.25190000 -0.78060000
vn -0.71840000 0.15080000 -0.67910000
vn -0.76340000 0.43490000 -0.47760000
vn -0.80340000 0.57370000 -0.15950000
vn -0.86550000 0.50070000 -0.01360000
vn -0.76450000 0.64460000 -0.00920000
vn -0.64150000 0.76710000 -0.00210000
vn -0.49990000 0.86610000 0.00440000
vn -0.34170000 0.93980000 0.00710000
vn -0.17290000 0.98490000 0.00740000
vn -0.08740000 0.99610000 0.00850000
vn 0.08730000 0.99610000 0.00850000
vn 0.17290000 0.98490000 0.00740000
vn 0.34190000 0.93970000 0.00710000
vn 0.49980000 0.86610000 0.00440000
vn 0.64130000 0.76730000 -0.00210000
vn 0.76450000 0.64460000 -0.00920000
vn 0.86550000 0.50070000 -0.01360000
vn 0.80340000 0.57380000 -0.15930000
vn 0.76340000 0.43480000 -0.47760000
vn 0.71840000 0.15080000 -0.67910000
vn 0.83330000 0.01880000 -0.55250000
vn 0.70910000 0.02000000 -0.70480000
vn 0.55760000 0.02220000 -0.82980000
vn 0.38500000 0.03200000 -0.92240000
vn 0.19850000 0.05640000 -0.97850000
vn 0.09750000 0.06550000 -0.99310000
vn -0.09760000 0.06550000 -0.99310000
vn -0.19850000 0.05620000 -0.97850000
vn -0.38500000 0.03200000 -0.92240000
vn -0.55760000 0.02220000 -0.82980000
vn -0.70910000 0.02000000 -0.70480000
vn -0.83330000 0.01880000 -0.55250000
vn -0.92520000 0.01410000 -0.37930000
vn -0.85000000 0.09850000 -0.51740000
vn -0.88510000 0.27730000 -0.37380000
vn -0.90750000 0.39740000 -0.13580000
vn -0.93980000 0.34140000 -0.01320000
vn -0.93960000 0.34220000 -0.00000000
vn -0.86610000 0.49990000 -0.00000000
vn -0.76590000 0.64300000 -0.00000000
vn -0.64300000 0.76590000 -0.00000000
vn -0.50030000 0.86590000 -0.00000000
vn -0.34160000 0.93980000 -0.00000000
vn -0.17350000 0.98480000 -0.00000000
vn 0.08730000 0.99620000 -0.00000000
vn -0.08740000 0.99620000 -0.00000000
vn 0.17350000 0.98480000 -0.00000000
vn 0.34180000 0.93980000 -0.00000000
vn 0.50020000 0.86590000 -0.00000000
vn 0.64280000 0.76610000 -0.00000000
vn 0.76590000 0.64300000 -0.00000000
vn 0.86610000 0.49990000 -0.00000000
vn 0.93960000 0.34220000 -0.00000000
vn 0.93980000 0.34140000 -0.01320000
vn 0.90740000 0.39770000 -0.13570000
vn 0.88520000 0.27740000 -0.37360000
vn 0.85010000 0.09800000 -0.51740000
vn 0.92530000 0.01380000 -0.37900000
vn -0.00000000 1.00000000 -0.00000000
vn -0.00000000 1.00000000 -0.00000000
vn 0.98060000 -0.00050000 -0.19590000
vn -0.00000000 1.00000000 -0.00000000
vn -0.00000000 1.00000000 -0.00000000
vn 0.92320000 0.00100000 -0.38420000
vn -0.00000000 1.00000000 -0.00000000
vn -0.00000000 1.00000000 -0.00000000
vn 0.83030000 0.00110000 -0.55740000
vn -0.00000000 1.00000000 -0.00000000
vn -0.00000000 1.00000000 -0.00000000
vn 0.70500000 0.00020000 -0.70920000
vn -0.00000000 1.00000000 -0.00000000
vn -0.00000000 1.00000000 -0.00000000
vn 0.55390000 -0.00110000 -0.83260000
vn -0.00000000 1.00000000 -0.00000000
vn -0.00000000 1.00000000 -0.00000000
vn 0.37930000 0.01220000 -0.92520000
vn -0.00000000 1.00000000 -0.00000000
vn -0.00000000 1.00000000 -0.00000000
vn 0.19200000 0.03730000 -0.98070000
vn -0.00000000 1.00000000 -0.00000000
vn -0.00000000 1.00000000 -0.00000000
vn -0.09850000 0.03700000 -0.99440000
vn 0.09850000 0.03710000 -0.99440000
vn -0.00000000 1.00000000 -0.00000000
vn -0.00000000 1.00000000 -0.00000000
vn -0.19220000 0.03680000 -0.98070000
vn -0.00000000 1.00000000 -0.00000000
vn -0.00000000 1.00000000 -0.00000000
vn -0.37930000 0.01220000 -0.92520000
vn -0.00000000 1.00000000 -0.00000000
vn -0.00000000 1.00000000 -0.00000000
vn -0.55390000 -0.00110000 -0.83260000
vn -0.00000000 1.00000000 -0.00000000
vn -0.00000000 1.00000000 -0.00000000
vn -0.70500000 0.00020000 -0.70920000
vn -0.00000000 1.00000000 -0.00000000
vn -0.00000000 1.00000000 -0.00000000
vn -0.83030000 0.00110000 -0.55740000
vn -0.00000000 1.00000000 -0.00000000
vn -0.00000000 1.00000000 -0.00000000
vn -0.92320000 0.00100000 -0.38420000
vn -0.00000000 1.00000000 -0.00000000
vn -0.00000000 1.00000000 -0.00000000
vn -0.98060000 -0.00030000 -0.19590000
vn -0.00000000 1.00000000 -0.00000000
vn -0.00000000 1.00000000 0.00080000
vn -1.00000000 -0.00240000 -0.00200000
vn -1.00000000 -0.00070000 0.00030000
vn -0.98240000 0.00850000 -0.18650000
vn -0.94330000 0.05840000 -0.32680000
vn -0.96260000 0.14870000 -0.22640000
vn -0.97020000 0.22470000 -0.09060000
vn -0.98540000 0.16990000 -0.00550000
vn -0.98480000 0.17390000 -0.00000000
vn -1.00000000 -0.00010000 0.00090000
vn -1.00000000 -0.00000000 -0.00000000
vn -0.98490000 -0.17330000 -0.00000000
vn -0.98480000 -0.17400000 -0.00000000
vn -0.93980000 -0.34160000 -0.00170000
vn -0.93970000 -0.34200000 -0.00000000
vn -0.86620000 -0.49970000 -0.00250000
vn -0.86620000 -0.49970000 -0.00000000
vn -0.76560000 -0.64330000 -0.00210000
vn -0.76590000 -0.64300000 -0.00000000
vn -0.64240000 -0.76640000 -0.00070000
vn -0.64270000 -0.76610000 -0.00000000
vn -0.50010000 -0.86600000 0.00040000
vn -0.50030000 -0.86580000 -0.00000000
vn -0.34200000 -0.93970000 0.00080000
vn -0.34200000 -0.93970000 -0.00000000
vn -0.17360000 -0.98480000 0.00070000
vn -0.17350000 -0.98480000 -0.00000000
vn -0.00000000 -1.00000000 0.00080000
vn -0.00000000 -1.00000000 -0.00000000
vn 0.17350000 -0.98480000 -0.00000000
vn 0.17350000 -0.98480000 0.00070000
vn 0.34220000 -0.93960000 -0.00000000
vn 0.34220000 -0.93960000 0.00080000
vn 0.50030000 -0.86590000 -0.00000000
vn 0.50000000 -0.86600000 0.00030000
vn 0.64250000 -0.76630000 -0.00000000
vn 0.64220000 -0.76660000 -0.00080000
vn 0.76590000 -0.64300000 -0.00000000
vn 0.76560000 -0.64330000 -0.00210000
vn 0.86620000 -0.49970000 -0.00000000
vn 0.86620000 -0.49970000 -0.00250000
vn 0.93970000 -0.34200000 -0.00000000
vn 0.93980000 -0.34160000 -0.00170000
vn 0.98480000 -0.17400000 -0.00000000
vn 0.98490000 -0.17330000 0.00010000
vn 1.00000000 -0.00000000 -0.00000000
vn 1.00000000 -0.00010000 0.00090000
vn 0.98480000 0.17390000 -0.00000000
vn 0.98540000 0.16990000 -0.00550000
vn 0.97020000 0.22470000 -0.09040000
vn 0.96260000 0.14880000 -0.22620000
vn 0.94330000 0.05860000 -0.32680000
vn 0.98240000 0.00830000 -0.18670000
vn 1.00000000 -0.00070000 -0.00010000
vn -0.00000000 1.00000000 0.00080000
vn -0.00000000 1.00000000 -0.00000000
vn 1.00000000 -0.00240000 -0.00200000
vn 0.98180000 0.00150000 0.18980000
vn 0.98110000 -0.00260000 0.19350000
vn 0.00020000 1.00000000 -0.00000000
vn -0.00000000 1.00000000 0.00080000
vn -0.00000000 1.00000000 -0.00000000
vn -0.00000000 1.00000000 -0.00000000
vn -0.00000000 1.00000000 -0.00000000
vn -0.00000000 1.00000000 -0.00000000
vn -0.00000000 1.00000000 -0.00000000
vn -0.00000000 1.00000000 -0.00000000
vn -0.00000000 1.00000000 -0.00000000
vn -0.00000000 1.00000000 -0.00000000
vn -0.00000000 1.00000000 -0.00000000
vn -0.00000000 1.00000000 -0.00000000
vn -0.00000000 1.00000000 -0.00000000
vn -0.00000000 1.00000000 -0.00000000
vn -0.00000000 1.00000000 -0.00000000
vn -0.00000000 1.00000000 -0.00000000
vn -0.00000000 1.00000000 -0.00000000
vn -0.00000000 1.00000000 -0.00000000
vn -0.00000000 1.00000000 0.00080000
vn 0.00020000 1.00000000 -0.00000000
vn 0.00010000 1.00000000 0.00010000
vn 0.00010000 1.00000000 0.00010000
vn 0.00010000 1.00000000 0.00010000
vn 0.00010000 1.00000000 0.00010000
vn -0.00000000 1.00000000 0.00020000
vn -0.00000000 1.00000000 0.00020000
vn -0.00000000 1.00000000 0.00020000
vn -0.00000000 1.00000000 0.00020000
vn -0.00010000 1.00000000 0.00010000
vn -0.00010000 1.00000000 0.00010000
vn -0.00010000 1.00000000 0.00010000
vn -0.00010000 1.00000000 0.00010000
vn -0.00020000 1.00000000 -0.00000000
vn -0.00000000 1.00000000 0.00080000
vn -0.00000000 1.00000000 0.00080000
vn -0.00020000 1.00000000 -0.00000000
vn -0.98110000 -0.00260000 0.19350000
vn -0.98180000 0.00170000 0.18980000
vn -0.98620000 0.02120000 0.16420000
vn -0.99990000 0.00720000 0.01190000
vn -0.98970000 0.02830000 -0.14060000
vn -0.99540000 0.05690000 -0.07770000
vn -0.99670000 0.06970000 -0.04150000
vn -0.99940000 -0.03350000 -0.01050000
vn -0.98560000 -0.16890000 -0.00710000
vn -0.94270000 -0.33340000 -0.01010000
vn -0.86570000 -0.50040000 -0.01260000
vn -0.75710000 -0.65320000 -0.01200000
vn -0.62660000 -0.77930000 -0.00880000
vn -0.48420000 -0.87490000 -0.00430000
vn -0.33180000 -0.94340000 -0.00040000
vn -0.16770000 -0.98580000 0.00230000
vn -0.00000000 -1.00000000 0.00320000
vn 0.16760000 -0.98580000 0.00230000
vn 0.33180000 -0.94340000 -0.00040000
vn 0.48420000 -0.87490000 -0.00440000
vn 0.62660000 -0.77930000 -0.00880000
vn 0.75720000 -0.65310000 -0.01190000
vn 0.86570000 -0.50040000 -0.01240000
vn 0.94280000 -0.33310000 -0.01020000
vn 0.98560000 -0.16880000 -0.00720000
vn 0.99940000 -0.03400000 -0.01050000
vn 0.99670000 0.07000000 -0.04140000
vn 0.99530000 0.05690000 -0.07790000
vn 0.98960000 0.02850000 -0.14070000
vn 0.99990000 0.00720000 0.01220000
vn 0.98620000 0.02110000 0.16430000
vn 0.94430000 0.06900000 0.32180000
vn 0.92700000 0.00980000 0.37500000
vn 0.00020000 1.00000000 -0.00000000
vn 0.92470000 -0.00250000 0.38070000
vn 0.00010000 1.00000000 0.00010000
vn 0.00010000 1.00000000 0.00010000
vn 0.83230000 -0.00150000 0.55430000
vn 0.00010000 1.00000000 0.00010000
vn 0.00010000 1.00000000 0.00010000
vn 0.70820000 -0.00180000 0.70600000
vn 0.00010000 1.00000000 0.00010000
vn 0.00010000 1.00000000 0.00010000
vn 0.55690000 -0.00140000 0.83060000
vn 0.00010000 1.00000000 0.00010000
vn 0.00010000 1.00000000 0.00010000
vn 0.38420000 -0.00260000 0.92320000
vn -0.00000000 1.00000000 0.00020000
vn -0.00000000 1.00000000 0.00020000
vn 0.19620000 -0.00450000 0.98060000
vn -0.00000000 1.00000000 0.00020000
vn -0.00000000 1.00000000 0.00020000
vn 0.09820000 -0.00450000 0.99520000
vn -0.09830000 -0.00450000 0.99510000
vn -0.00000000 1.00000000 0.00020000
vn -0.00000000 1.00000000 0.00020000
vn -0.19620000 -0.00450000 0.98060000
vn -0.00000000 1.00000000 0.00020000
vn -0.00000000 1.00000000 0.00020000
vn -0.38420000 -0.00260000 0.92320000
vn -0.00010000 1.00000000 0.00010000
vn -0.00010000 1.00000000 0.00010000
vn -0.55670000 -0.00140000 0.83070000
vn -0.00010000 1.00000000 0.00010000
vn -0.00010000 1.00000000 0.00010000
vn -0.70830000 -0.00180000 0.70600000
vn -0.00010000 1.00000000 0.00010000
vn -0.00010000 1.00000000 0.00010000
vn -0.83250000 -0.00150000 0.55410000
vn -0.00010000 1.00000000 0.00010000
vn -0.00020000 1.00000000 -0.00000000
vn -0.00010000 1.00000000 0.00010000
vn -0.92470000 -0.00250000 0.38070000
vn -0.92700000 0.00990000 0.37480000
vn -0.94420000 0.06910000 0.32190000
vn -0.94910000 0.17740000 0.26040000
vn -0.99330000 0.07000000 0.09160000
vn -0.99980000 0.01880000 0.00570000
vn -0.99930000 -0.03730000 -0.00340000
vn -0.98660000 -0.16290000 -0.01250000
vn -0.94400000 -0.32980000 -0.01380000
vn -0.86450000 -0.50240000 -0.01300000
vn -0.75220000 -0.65890000 -0.01010000
vn -0.61820000 -0.78600000 -0.00670000
vn -0.47460000 -0.88020000 -0.00180000
vn -0.32350000 -0.94620000 0.00340000
vn -0.16360000 -0.98650000 0.00720000
vn -0.00000000 -1.00000000 0.00790000
vn 0.16360000 -0.98650000 0.00720000
vn 0.32350000 -0.94620000 0.00340000
vn 0.47460000 -0.88020000 -0.00180000
vn 0.61820000 -0.78600000 -0.00670000
vn 0.75240000 -0.65860000 -0.01010000
vn 0.86450000 -0.50250000 -0.01290000
vn 0.94380000 -0.33010000 -0.01370000
vn 0.98660000 -0.16280000 -0.01260000
vn 0.99930000 -0.03740000 -0.00350000
vn 0.99980000 0.01890000 0.00560000
vn 0.99330000 0.07040000 0.09140000
vn 0.94910000 0.17720000 0.26030000
vn 0.85220000 0.29950000 0.42890000
vn 0.85260000 0.13640000 0.50450000
vn 0.83810000 0.02410000 0.54500000
vn 0.71870000 0.03580000 0.69440000
vn 0.56710000 0.04150000 0.82260000
vn 0.39130000 0.03470000 0.91960000
vn 0.20320000 0.02820000 0.97870000
vn 0.09350000 0.02780000 0.99520000
vn -0.09350000 0.02780000 0.99520000
vn -0.20320000 0.02820000 0.97870000
vn -0.39130000 0.03470000 0.91960000
vn -0.56690000 0.04160000 0.82280000
vn -0.71880000 0.03540000 0.69430000
vn -0.83820000 0.02440000 0.54490000
vn -0.85260000 0.13620000 0.50450000
vn -0.85230000 0.29910000 0.42910000
vn -0.80750000 0.44440000 0.38780000
vn -0.91340000 0.32710000 0.24240000
vn -0.97240000 0.19750000 0.12410000
vn -0.99590000 0.07830000 0.04510000
vn -0.99960000 -0.02590000 0.00620000
vn -0.98410000 -0.17780000 -0.00500000
vn -0.93710000 -0.34890000 -0.01080000
vn -0.85590000 -0.51710000 -0.01190000
vn -0.74560000 -0.66630000 -0.01240000
vn -0.61460000 -0.78870000 -0.01350000
vn -0.47140000 -0.88180000 -0.01350000
vn -0.32060000 -0.94720000 -0.01000000
vn -0.16200000 -0.98680000 -0.00540000
vn -0.00000000 -1.00000000 -0.00230000
vn 0.16200000 -0.98680000 -0.00540000
vn 0.32060000 -0.94720000 -0.01000000
vn 0.47150000 -0.88180000 -0.01350000
vn 0.61460000 -0.78870000 -0.01330000
vn 0.74580000 -0.66610000 -0.01230000
vn 0.85580000 -0.51710000 -0.01210000
vn 0.93700000 -0.34910000 -0.01070000
vn 0.98400000 -0.17790000 -0.00490000
vn 0.99960000 -0.02590000 0.00620000
vn 0.99590000 0.07850000 0.04520000
vn 0.97240000 0.19750000 0.12420000
vn 0.91340000 0.32690000 0.24250000
vn 0.80750000 0.44410000 0.38820000
vn 0.65530000 0.51070000 0.55670000
vn 0.68900000 0.38690000 0.61280000
vn 0.71250000 0.18970000 0.67550000
vn 0.54390000 0.21260000 0.81180000
vn 0.36260000 0.18790000 0.91280000
vn 0.18490000 0.14630000 0.97180000
vn 0.08140000 0.13050000 0.98810000
vn -0.08140000 0.13060000 0.98810000
vn -0.18490000 0.14660000 0.97180000
vn -0.36250000 0.18840000 0.91270000
vn -0.54390000 0.21260000 0.81180000
vn -0.71240000 0.18960000 0.67570000
vn -0.68900000 0.38690000 0.61290000
vn -0.65520000 0.51080000 0.55660000
vn -0.56170000 0.43220000 0.70550000
vn -0.63610000 0.57400000 0.51570000
vn -0.69230000 0.36510000 0.62250000
vn -0.77260000 0.51070000 0.37730000
vn -0.79750000 0.26750000 0.54070000
vn -0.87670000 0.41050000 0.25070000
vn -0.87500000 0.14430000 0.46200000
vn -0.94590000 0.29020000 0.14530000
vn -0.91500000 -0.00110000 0.40340000
vn -0.98610000 0.15070000 0.06960000
vn -0.92280000 -0.15420000 0.35310000
vn -0.99980000 -0.00320000 0.02080000
vn -0.89490000 -0.30960000 0.32150000
vn -0.98550000 -0.16970000 -0.00290000
vn -0.84210000 -0.45500000 0.28960000
vn -0.93900000 -0.34380000 -0.01050000
vn -0.76470000 -0.58920000 0.26080000
vn -0.86040000 -0.50940000 -0.01180000
vn -0.66610000 -0.70680000 0.23810000
vn -0.75400000 -0.65670000 -0.01340000
vn -0.55080000 -0.80480000 0.22110000
vn -0.62600000 -0.77970000 -0.01690000
vn -0.42380000 -0.88320000 0.20070000
vn -0.48160000 -0.87610000 -0.02140000
vn -0.28660000 -0.93890000 0.19050000
vn -0.32750000 -0.94460000 -0.02180000
vn -0.14370000 -0.97150000 0.18830000
vn -0.16450000 -0.98620000 -0.01970000
vn 0.00030000 -0.98340000 0.18130000
vn -0.00000000 -0.99990000 -0.01630000
vn 0.14300000 -0.97150000 0.18890000
vn 0.16440000 -0.98620000 -0.01970000
vn 0.28680000 -0.93900000 0.18990000
vn 0.32750000 -0.94460000 -0.02180000
vn 0.42420000 -0.88320000 0.20030000
vn 0.48170000 -0.87610000 -0.02130000
vn 0.55150000 -0.80540000 0.21730000
vn 0.62590000 -0.77970000 -0.01650000
vn 0.66650000 -0.70690000 0.23700000
vn 0.75400000 -0.65670000 -0.01360000
vn 0.76540000 -0.58890000 0.25970000
vn 0.86050000 -0.50930000 -0.01200000
vn 0.84460000 -0.45350000 0.28450000
vn 0.93900000 -0.34390000 -0.01020000
vn 0.89510000 -0.30970000 0.32080000
vn 0.98540000 -0.17010000 -0.00290000
vn 0.92280000 -0.15310000 0.35360000
vn 0.99980000 -0.00320000 0.02080000
vn 0.91430000 -0.00130000 0.40510000
vn 0.98610000 0.15100000 0.06940000
vn 0.87190000 0.14130000 0.46880000
vn 0.94590000 0.29030000 0.14510000
vn 0.79750000 0.26850000 0.54030000
vn 0.87650000 0.41050000 0.25150000
vn 0.69160000 0.36510000 0.62320000
vn 0.77250000 0.51020000 0.37800000
vn 0.55920000 0.42660000 0.71090000
vn 0.63630000 0.57380000 0.51560000
vn 0.41870000 0.46060000 0.78270000
vn 0.49920000 0.58540000 0.63890000
vn 0.48690000 0.51870000 0.70270000
vn 0.50560000 0.40310000 0.76280000
vn 0.33280000 0.34870000 0.87620000
vn 0.16270000 0.26640000 0.95000000
vn 0.07780000 0.22540000 0.97120000
vn -0.07780000 0.22540000 0.97120000
vn -0.16290000 0.26630000 0.95000000
vn -0.33300000 0.34840000 0.87620000
vn -0.50570000 0.40300000 0.76280000
vn -0.48690000 0.51870000 0.70270000
vn -0.49920000 0.58540000 0.63890000
vn -0.42140000 0.46430000 0.77900000
vn -0.46630000 0.25410000 0.84730000
vn -0.56610000 0.42490000 0.70640000
vn -0.55520000 0.17130000 0.81390000
vn -0.68990000 0.36330000 0.62620000
vn -0.62720000 0.07560000 0.77520000
vn -0.79330000 0.27010000 0.54560000
vn -0.67990000 -0.03090000 0.73270000
vn -0.87060000 0.15360000 0.46750000
vn -0.71180000 -0.14430000 0.68740000
vn -0.91280000 0.01220000 0.40830000
vn -0.72230000 -0.26050000 0.64070000
vn -0.92360000 -0.13950000 0.35700000
vn -0.71050000 -0.37680000 0.59430000
vn -0.89860000 -0.29540000 0.32440000
vn -0.67670000 -0.48960000 0.54990000
vn -0.84640000 -0.44570000 0.29150000
vn -0.62270000 -0.59500000 0.50810000
vn -0.77040000 -0.58120000 0.26210000
vn -0.54990000 -0.69020000 0.47030000
vn -0.67220000 -0.70080000 0.23870000
vn -0.46040000 -0.77210000 0.43800000
vn -0.55630000 -0.80090000 0.22160000
vn -0.35740000 -0.83800000 0.41230000
vn -0.42870000 -0.88080000 0.20110000
vn -0.24360000 -0.88690000 0.39250000
vn -0.29050000 -0.93780000 0.19030000
vn -0.12310000 -0.91660000 0.38030000
vn -0.14620000 -0.97120000 0.18830000
vn -0.00000000 -0.92640000 0.37660000
vn 0.00030000 -0.98340000 0.18130000
vn 0.12300000 -0.91670000 0.38010000
vn 0.14480000 -0.97120000 0.18920000
vn 0.24360000 -0.88690000 0.39250000
vn 0.29040000 -0.93770000 0.19090000
vn 0.35740000 -0.83800000 0.41230000
vn 0.42880000 -0.88060000 0.20150000
vn 0.46040000 -0.77210000 0.43800000
vn 0.55690000 -0.80120000 0.21910000
vn 0.54990000 -0.69020000 0.47030000
vn 0.67170000 -0.70100000 0.23950000
vn 0.62270000 -0.59510000 0.50810000
vn 0.77000000 -0.58140000 0.26300000
vn 0.67670000 -0.48960000 0.54990000
vn 0.84830000 -0.44440000 0.28790000
vn 0.71050000 -0.37680000 0.59430000
vn 0.89830000 -0.29590000 0.32470000
vn 0.72230000 -0.26050000 0.64070000
vn 0.92380000 -0.13800000 0.35710000
vn 0.71190000 -0.14410000 0.68740000
vn 0.91320000 0.01390000 0.40730000
vn 0.68050000 -0.03020000 0.73220000
vn 0.86920000 0.15400000 0.46980000
vn 0.62740000 0.07540000 0.77510000
vn 0.79590000 0.27530000 0.53910000
vn 0.55520000 0.17140000 0.81380000
vn 0.69260000 0.36880000 0.61990000
vn 0.46650000 0.25480000 0.84700000
vn 0.56700000 0.42580000 0.70510000
vn 0.36340000 0.32130000 0.87450000
vn 0.42720000 0.46150000 0.77750000
vn 0.24910000 0.37150000 0.89440000
vn 0.28140000 0.45670000 0.84390000
vn 0.27220000 0.45320000 0.84890000
vn 0.33020000 0.53880000 0.77510000
vn 0.32270000 0.47150000 0.82070000
vn 0.15330000 0.36040000 0.92010000
vn 0.07480000 0.28810000 0.95470000
vn -0.07490000 0.28810000 0.95470000
vn -0.15320000 0.36000000 0.92030000
vn -0.32260000 0.47100000 0.82100000
vn -0.33020000 0.53870000 0.77510000
vn -0.27460000 0.45850000 0.84520000
vn -0.42610000 0.45740000 0.78050000
vn -0.36320000 0.32140000 0.87450000
vn -0.00000000 -0.37460000 0.92720000
vn 0.00020000 -0.37450000 0.92720000
vn -0.36370000 0.32080000 0.87450000
vn -0.00030000 -0.37490000 0.92710000
vn 0.00020000 -0.37450000 0.92720000
vn -0.46680000 0.25350000 0.84730000
vn 0.00020000 -0.37440000 0.92730000
vn -0.00030000 -0.37490000 0.92710000
vn -0.55560000 0.17050000 0.81380000
vn -0.00000000 -0.37470000 0.92710000
vn 0.00020000 -0.37440000 0.92730000
vn -0.62740000 0.07470000 0.77510000
vn -0.00000000 -0.37470000 0.92720000
vn -0.00000000 -0.37470000 0.92710000
vn -0.67990000 -0.03190000 0.73270000
vn -0.00000000 -0.37470000 0.92720000
vn -0.00000000 -0.37440000 0.92730000
vn -0.71160000 -0.14530000 0.68740000
vn -0.00000000 -0.37480000 0.92710000
vn -0.00000000 -0.37440000 0.92730000
vn -0.72190000 -0.26150000 0.64060000
vn -0.00000000 -0.37450000 0.92720000
vn -0.00000000 -0.37480000 0.92710000
vn -0.70990000 -0.37770000 0.59450000
vn 0.00010000 -0.37480000 0.92710000
vn -0.00000000 -0.37450000 0.92720000
vn -0.67590000 -0.49050000 0.55010000
vn -0.00010000 -0.37450000 0.92720000
vn 0.00010000 -0.37480000 0.92710000
vn -0.62200000 -0.59570000 0.50830000
vn 0.00030000 -0.37490000 0.92710000
vn -0.00010000 -0.37450000 0.92720000
vn -0.54920000 -0.69060000 0.47050000
vn -0.00020000 -0.37460000 0.92720000
vn 0.00030000 -0.37490000 0.92710000
vn -0.45990000 -0.77250000 0.43780000
vn 0.00030000 -0.37480000 0.92710000
vn -0.00020000 -0.37460000 0.92720000
vn -0.35700000 -0.83840000 0.41190000
vn 0.00030000 -0.37480000 0.92710000
vn -0.00050000 -0.37450000 0.92720000
vn -0.24320000 -0.88710000 0.39240000
vn -0.00050000 -0.37450000 0.92720000
vn 0.00010000 -0.37460000 0.92720000
vn -0.12270000 -0.91670000 0.38040000
vn -0.00010000 -0.37460000 0.92720000
vn 0.00010000 -0.37460000 0.92720000
vn -0.00000000 -0.92630000 0.37680000
vn 0.00050000 -0.37450000 0.92720000
vn -0.00010000 -0.37460000 0.92720000
vn 0.12270000 -0.91670000 0.38020000
vn -0.00030000 -0.37480000 0.92710000
vn 0.00050000 -0.37450000 0.92720000
vn 0.24320000 -0.88710000 0.39240000
vn -0.00030000 -0.37480000 0.92710000
vn 0.00020000 -0.37460000 0.92720000
vn 0.35700000 -0.83840000 0.41190000
vn -0.00030000 -0.37490000 0.92710000
vn 0.00020000 -0.37460000 0.92720000
vn 0.45990000 -0.77250000 0.43780000
vn -0.00030000 -0.37490000 0.92710000
vn 0.00010000 -0.37450000 0.92720000
vn 0.54920000 -0.69060000 0.47050000
vn -0.00010000 -0.37480000 0.92710000
vn 0.00010000 -0.37450000 0.92720000
vn 0.62200000 -0.59570000 0.50830000
vn -0.00000000 -0.37450000 0.92720000
vn -0.00010000 -0.37480000 0.92710000
vn 0.67590000 -0.49050000 0.55010000
vn -0.00000000 -0.37450000 0.92720000
vn -0.00000000 -0.37480000 0.92710000
vn 0.70990000 -0.37770000 0.59450000
vn -0.00000000 -0.37480000 0.92710000
vn -0.00000000 -0.37440000 0.92730000
vn 0.72190000 -0.26150000 0.64070000
vn -0.00000000 -0.37470000 0.92720000
vn -0.00000000 -0.37440000 0.92730000
vn 0.71160000 -0.14530000 0.68740000
vn -0.00000000 -0.37470000 0.92720000
vn -0.00000000 -0.37470000 0.92710000
vn 0.68040000 -0.03130000 0.73210000
vn -0.00020000 -0.37440000 0.92730000
vn -0.00000000 -0.37470000 0.92710000
vn 0.62760000 0.07460000 0.77490000
vn 0.00030000 -0.37490000 0.92710000
vn -0.00020000 -0.37440000 0.92730000
vn 0.55560000 0.17050000 0.81380000
vn -0.00020000 -0.37450000 0.92720000
vn 0.00030000 -0.37490000 0.92710000
vn 0.46700000 0.25410000 0.84700000
vn -0.00020000 -0.37450000 0.92720000
vn -0.00000000 -0.37460000 0.92720000
vn 0.36390000 0.32080000 0.87440000
vn -0.00000000 -0.37460000 0.92720000
vn 0.24970000 0.37100000 0.89440000
vn 0.00020000 -0.37470000 0.92720000
vn -0.00000000 -0.37460000 0.92720000
vn 0.12740000 0.40160000 0.90690000
vn 0.12680000 0.40170000 0.90700000
vn 0.13790000 0.41890000 0.89750000
vn 0.13150000 0.41500000 0.90030000
vn 0.16030000 0.41840000 0.89400000
vn 0.06760000 0.39160000 0.91760000
vn -0.06330000 0.39480000 0.91660000
vn -0.07170000 0.33090000 0.94090000
vn 0.07170000 0.33090000 0.94100000
vn -0.16030000 0.41840000 0.89400000
vn -0.12990000 0.42040000 0.89800000
vn -0.28000000 0.45150000 0.84720000
vn -0.24910000 0.37140000 0.89440000
vn -0.24970000 0.37100000 0.89440000
vn -0.00000000 -0.37460000 0.92720000
vn 0.00020000 -0.37440000 0.92730000
vn -0.00020000 -0.37470000 0.92720000
vn 0.00010000 -0.37480000 0.92710000
vn -0.00000000 -0.37470000 0.92720000
vn 0.00050000 -0.37450000 0.92720000
vn -0.00030000 -0.37480000 0.92710000
vn -0.00020000 -0.37460000 0.92720000
vn -0.00030000 -0.37490000 0.92710000
vn -0.00000000 -0.37480000 0.92710000
vn -0.00000000 -0.37470000 0.92710000
vn -0.00000000 -0.37450000 0.92720000
vn -0.00000000 -0.37460000 0.92720000
vn 0.00020000 -0.37450000 0.92720000
vn 0.00020000 -0.37470000 0.92720000
vn 0.00010000 -0.37460000 0.92720000
vn -0.00010000 -0.37460000 0.92720000
vn 0.00010000 -0.37450000 0.92720000
vn -0.00010000 -0.37480000 0.92710000
vn 0.00030000 -0.37480000 0.92710000
vn -0.00050000 -0.37450000 0.92720000
vn -0.00020000 -0.37440000 0.92730000
vn -0.00020000 -0.37450000 0.92720000
vn 0.00020000 -0.37460000 0.92720000
vn -0.00000000 -0.37440000 0.92730000
vn 0.00030000 -0.37490000 0.92710000
vn -0.00010000 -0.37450000 0.92720000
vn 0.00020000 -0.37470000 0.92720000
vn -0.00020000 -0.37470000 0.92720000
vn -0.06430000 0.41140000 0.90920000
vn 0.06430000 0.41140000 0.90920000
vn 0.06410000 0.41120000 0.90930000
vn -0.06420000 0.41120000 0.90930000
vn -0.06260000 0.39180000 0.91790000
vn 0.06740000 0.39450000 0.91640000
vn -0.13470000 0.41550000 0.89960000
vn -0.12690000 0.40150000 0.90700000
vn -0.00020000 -0.37470000 0.92720000
vn -0.00000000 -0.37460000 0.92720000
vn -0.12740000 0.40150000 0.90700000
vt 0.29433900 0.04419000
vt 0.29702000 0.03391200
vt 0.30182400 0.03614600
vt 0.30428200 0.02642700
vt 0.30841500 0.02843800
vt 0.31042600 0.01894200
vt 0.31422500 0.02084100
vt 0.31567700 0.33733000
vt 0.31567700 0.01134500
vt 0.31891700 0.01279800
vt 0.31891700 0.33587700
vt 0.31422500 0.32794600
vt 0.31042600 0.32973300
vt 0.30841500 0.32034900
vt 0.30428200 0.32224800
vt 0.30182400 0.31264100
vt 0.29433900 0.30448500
vt 0.29702000 0.31476300
vt 0.29288700 0.31733300
vt 0.30093100 0.32437100
vt 0.30774500 0.33152000
vt 0.31366600 0.33867000
vt 0.31366600 0.01000500
vt 0.30774500 0.01715400
vt 0.30093100 0.02430400
vt 0.29288700 0.03134200
vt 0.28305600 0.03838000
vt 0.28618400 0.04340700
vt 0.28618400 0.05290300
vt 0.30484100 0.06485700
vt 0.30595800 0.05603100
vt 0.30774500 0.04720600
vt 0.30997900 0.03849200
vt 0.31288400 0.02989000
vt 0.31623600 0.02140000
vt 0.31981000 0.01302100
vt 0.31981000 0.33576600
vt 0.31623600 0.32727500
vt 0.31288400 0.31878500
vt 0.30997900 0.31018300
vt 0.30774500 0.30146900
vt 0.30595800 0.29264400
vt 0.30484100 0.28381800
vt 0.28618400 0.29577200
vt 0.28618400 0.30526800
vt 0.28305600 0.31029500
vt 0.26976200 0.31264100
vt 0.27914600 0.31699800
vt 0.28819500 0.32213600
vt 0.29623900 0.32828100
vt 0.30327700 0.33531900
vt 0.31020300 0.34258000
vt 0.31020300 0.00609500
vt 0.30327700 0.01335600
vt 0.29623900 0.02039400
vt 0.28819500 0.02653900
vt 0.27914600 0.03167700
vt 0.26976200 0.03614600
vt 0.26004300 0.04005600
vt 0.27233200 0.04553000
vt 0.27534800 0.05268000
vt 0.27769400 0.06206400
vt 0.30417000 0.07368200
vt 0.32081600 0.07479900
vt 0.32148600 0.06675600
vt 0.32249100 0.05871200
vt 0.32405500 0.05078100
vt 0.32617800 0.04296100
vt 0.32885900 0.03502900
vt 0.33198700 0.02687400
vt 0.33522700 0.33018000
vt 0.33522700 0.01849500
vt 0.33198700 0.32180100
vt 0.32885900 0.31364600
vt 0.32617800 0.30582600
vt 0.32405500 0.29789400
vt 0.32249100 0.28996300
vt 0.32148600 0.28203100
vt 0.32081600 0.27387600
vt 0.30417000 0.27499300
vt 0.27769400 0.28672300
vt 0.27534800 0.29610700
vt 0.27233200 0.30314500
vt 0.26004300 0.30861900
vt 0.11570700 0.74967000
vt 0.11570700 0.74967000
vt 0.24909500 0.32135500
vt 0.11961700 0.74006200
vt 0.11961700 0.74006200
vt 0.25859000 0.32213600
vt 0.12542600 0.73146000
vt 0.12542600 0.73146000
vt 0.26786300 0.32314200
vt 0.13279900 0.72419900
vt 0.13279900 0.72419900
vt 0.27691200 0.32492900
vt 0.14140100 0.71839000
vt 0.14140100 0.71839000
vt 0.28540200 0.32783400
vt 0.15100900 0.71459100
vt 0.15100900 0.71459100
vt 0.29344600 0.33219100
vt 0.16117500 0.71269200
vt 0.16117500 0.71269200
vt 0.30070700 0.33822300
vt 0.17145300 0.71269200
vt 0.17145300 0.71269200
vt 0.30785700 0.00341300
vt 0.30785700 0.34526200
vt 0.18150700 0.71470300
vt 0.18150700 0.71470300
vt 0.30070700 0.01045100
vt 0.19111500 0.71861300
vt 0.19111500 0.71861300
vt 0.29344600 0.01648400
vt 0.19971700 0.72431100
vt 0.19971700 0.72431100
vt 0.28540200 0.02084100
vt 0.20709000 0.73157200
vt 0.20709000 0.73157200
vt 0.27691200 0.02374600
vt 0.21278700 0.74017400
vt 0.21278700 0.74017400
vt 0.26786300 0.02553300
vt 0.21680900 0.74978200
vt 0.21680900 0.74978200
vt 0.25859000 0.02665000
vt 0.21882000 0.75994800
vt 0.21882000 0.75994800
vt 0.24909500 0.02732100
vt 0.21882000 0.77033700
vt 0.21882000 0.77033700
vt 0.23937600 0.02776700
vt 0.24026900 0.04877000
vt 0.25021200 0.04385400
vt 0.26049000 0.05323800
vt 0.26328300 0.06284600
vt 0.26875700 0.07156000
vt 0.30383500 0.08239600
vt 0.32059200 0.08306600
vt 0.30383500 0.09133300
vt 0.32048100 0.09166800
vt 0.30394700 0.10049400
vt 0.32059200 0.10060600
vt 0.30394700 0.10965400
vt 0.32070400 0.10976600
vt 0.30405900 0.11892700
vt 0.32070400 0.11892700
vt 0.30405900 0.12819900
vt 0.32070400 0.12819900
vt 0.30405900 0.13747100
vt 0.32070400 0.13736000
vt 0.30405900 0.14663200
vt 0.32081600 0.14663200
vt 0.30405900 0.15590500
vt 0.32081600 0.15590500
vt 0.30405900 0.16506500
vt 0.32081600 0.16506500
vt 0.30405900 0.17433800
vt 0.32081600 0.17433800
vt 0.32081600 0.18361000
vt 0.30405900 0.18361000
vt 0.32081600 0.19288200
vt 0.30405900 0.19277000
vt 0.32081600 0.20204300
vt 0.30405900 0.20204300
vt 0.32070400 0.21131500
vt 0.30405900 0.21131500
vt 0.32070400 0.22047600
vt 0.30405900 0.22047600
vt 0.32070400 0.22974800
vt 0.30405900 0.22974800
vt 0.32070400 0.23902000
vt 0.30394700 0.23902000
vt 0.32059200 0.24818100
vt 0.30394700 0.24818100
vt 0.32048100 0.25700700
vt 0.30383500 0.25745400
vt 0.32059200 0.26560900
vt 0.30383500 0.26627900
vt 0.26875700 0.27711500
vt 0.26328300 0.28582900
vt 0.26049000 0.29543700
vt 0.25021200 0.30493200
vt 0.24026900 0.30001700
vt 0.11358400 0.75972400
vt 0.11358400 0.75972400
vt 0.23937600 0.32101900
vt 0.22999100 0.30068700
vt 0.22965600 0.32079600
vt 0.11358400 0.77011400
vt 0.11358400 0.77011400
vt 0.16620200 0.76508700
vt 0.16620200 0.76508700
vt 0.16620200 0.76508700
vt 0.16620200 0.76508700
vt 0.16620200 0.76508700
vt 0.16620200 0.76508700
vt 0.16620200 0.76508700
vt 0.16620200 0.76508700
vt 0.16620200 0.76508700
vt 0.16620200 0.76508700
vt 0.16620200 0.76508700
vt 0.16620200 0.76508700
vt 0.16620200 0.76508700
vt 0.16620200 0.76508700
vt 0.16620200 0.76508700
vt 0.16620200 0.76508700
vt 0.16620200 0.76508700
vt 0.16620200 0.76508700
vt 0.16620200 0.76508700
vt 0.16620200 0.76508700
vt 0.16620200 0.76508700
vt 0.16620200 0.76508700
vt 0.16620200 0.76508700
vt 0.16620200 0.76508700
vt 0.16620200 0.76508700
vt 0.16620200 0.76508700
vt 0.16620200 0.76508700
vt 0.16620200 0.76508700
vt 0.16620200 0.76508700
vt 0.16620200 0.76508700
vt 0.16620200 0.76508700
vt 0.16620200 0.76508700
vt 0.21680900 0.78050300
vt 0.21680900 0.78050300
vt 0.22965600 0.02787900
vt 0.22999100 0.04798800
vt 0.23021500 0.06161700
vt 0.24093900 0.06329300
vt 0.25088200 0.05949400
vt 0.25267000 0.07178300
vt 0.25970800 0.08139100
vt 0.25981900 0.09122200
vt 0.25981900 0.10060600
vt 0.25993100 0.10999000
vt 0.25993100 0.11937400
vt 0.25993100 0.12864600
vt 0.25993100 0.13791800
vt 0.25993100 0.14707900
vt 0.25993100 0.15635100
vt 0.25993100 0.16540000
vt 0.25993100 0.17433800
vt 0.25993100 0.18327500
vt 0.25993100 0.19243500
vt 0.25993100 0.20159600
vt 0.25993100 0.21075600
vt 0.25993100 0.22002900
vt 0.25993100 0.22930100
vt 0.25993100 0.23868500
vt 0.25981900 0.24806900
vt 0.25981900 0.25745400
vt 0.25970800 0.26739600
vt 0.25267000 0.27689200
vt 0.25088200 0.28918100
vt 0.24093900 0.28538200
vt 0.23021500 0.28705800
vt 0.21960200 0.29230900
vt 0.21960200 0.30336800
vt 0.11559500 0.78028000
vt 0.21960200 0.32090800
vt 0.11559500 0.78028000
vt 0.11950500 0.78988700
vt 0.20965900 0.32090800
vt 0.11950500 0.78988700
vt 0.12520300 0.79848900
vt 0.19994000 0.32157800
vt 0.12520300 0.79848900
vt 0.13257600 0.80586200
vt 0.19022100 0.32269500
vt 0.13257600 0.80586200
vt 0.14117800 0.81167200
vt 0.18039000 0.32437100
vt 0.14117800 0.81167200
vt 0.15067400 0.81569300
vt 0.17055900 0.32649300
vt 0.15067400 0.81569300
vt 0.16095200 0.81770400
vt 0.16039300 0.32883900
vt 0.16039300 0.01983600
vt 0.16095200 0.81770400
vt 0.17134100 0.81770400
vt 0.17055900 0.02218200
vt 0.17134100 0.81770400
vt 0.18150700 0.81569300
vt 0.18039000 0.02430400
vt 0.18150700 0.81569300
vt 0.19111500 0.81167200
vt 0.19022100 0.02598000
vt 0.19111500 0.81167200
vt 0.19971700 0.80597400
vt 0.19994000 0.02720900
vt 0.19971700 0.80597400
vt 0.20709000 0.79860100
vt 0.20965900 0.02776700
vt 0.20709000 0.79860100
vt 0.21278700 0.78999900
vt 0.21278700 0.78999900
vt 0.21960200 0.02776700
vt 0.21960200 0.04530700
vt 0.21960200 0.05636600
vt 0.21580400 0.06295800
vt 0.22999100 0.07178300
vt 0.24161000 0.08116700
vt 0.24172100 0.09099800
vt 0.24172100 0.10060600
vt 0.24172100 0.10999000
vt 0.24183300 0.11937400
vt 0.24183300 0.12864600
vt 0.24183300 0.13803000
vt 0.24183300 0.14719100
vt 0.24183300 0.15635100
vt 0.24183300 0.16540000
vt 0.24183300 0.17433800
vt 0.24183300 0.18327500
vt 0.24183300 0.19232400
vt 0.24183300 0.20148400
vt 0.24183300 0.21075600
vt 0.24183300 0.22002900
vt 0.24183300 0.22930100
vt 0.24172100 0.23868500
vt 0.24172100 0.24806900
vt 0.24172100 0.25767700
vt 0.24161000 0.26750800
vt 0.22999100 0.27689200
vt 0.21580400 0.28571700
vt 0.20418500 0.29275500
vt 0.20720200 0.29811800
vt 0.20932400 0.30638500
vt 0.19904600 0.30951300
vt 0.18888000 0.31275200
vt 0.17893800 0.31599200
vt 0.16899500 0.31912000
vt 0.15882900 0.32180100
vt 0.15882900 0.02687400
vt 0.16899500 0.02955500
vt 0.17893800 0.03268300
vt 0.18888000 0.03592300
vt 0.19904600 0.03916200
vt 0.20932400 0.04229000
vt 0.20720200 0.05066900
vt 0.20418500 0.05592000
vt 0.19759400 0.05994100
vt 0.20563800 0.06720300
vt 0.21479800 0.07558100
vt 0.22239500 0.08418300
vt 0.22440600 0.09312100
vt 0.22608100 0.10216900
vt 0.22775700 0.11110700
vt 0.22932100 0.12004400
vt 0.23077400 0.12909300
vt 0.23189100 0.13814200
vt 0.23289600 0.14719100
vt 0.23367800 0.15635100
vt 0.23412500 0.16540000
vt 0.23423700 0.17433800
vt 0.23412500 0.18327500
vt 0.23367800 0.19243500
vt 0.23289600 0.20148400
vt 0.23189100 0.21053300
vt 0.23077400 0.21958200
vt 0.22932100 0.22863100
vt 0.22775700 0.23756800
vt 0.22608100 0.24661700
vt 0.22440600 0.25555400
vt 0.22239500 0.26449100
vt 0.21479800 0.27309400
vt 0.20563800 0.28147200
vt 0.19759400 0.28873400
vt 0.18910400 0.29577200
vt 0.19234400 0.29957000
vt 0.19558300 0.30336800
vt 0.18575200 0.30739000
vt 0.17625700 0.31118800
vt 0.16687300 0.31442800
vt 0.15771200 0.31710900
vt 0.15771200 0.03156600
vt 0.16687300 0.03424700
vt 0.17625700 0.03759800
vt 0.18575200 0.04128500
vt 0.19558300 0.04530700
vt 0.19234400 0.04921700
vt 0.18910400 0.05290300
vt 0.18642300 0.05603100
vt 0.18642300 0.05603100
vt 0.19178500 0.06351600
vt 0.19178500 0.06351600
vt 0.19625400 0.07122500
vt 0.19625400 0.07122500
vt 0.20038700 0.07926800
vt 0.20038700 0.07926800
vt 0.20418500 0.08731100
vt 0.20418500 0.08731100
vt 0.20776000 0.09546700
vt 0.20776000 0.09546700
vt 0.21122300 0.10373400
vt 0.21122300 0.10373400
vt 0.21446300 0.11211200
vt 0.21446300 0.11211200
vt 0.21759100 0.12071400
vt 0.21759100 0.12071400
vt 0.22038400 0.12942800
vt 0.22038400 0.12942800
vt 0.22273000 0.13825300
vt 0.22273000 0.13825300
vt 0.22474100 0.14719100
vt 0.22474100 0.14719100
vt 0.22619300 0.15624000
vt 0.22619300 0.15624000
vt 0.22708700 0.16528900
vt 0.22708700 0.16528900
vt 0.22731000 0.17433800
vt 0.22731000 0.17433800
vt 0.22708700 0.18338600
vt 0.22708700 0.18338600
vt 0.22619300 0.19243500
vt 0.22619300 0.19243500
vt 0.22474100 0.20159600
vt 0.22474100 0.20159600
vt 0.22273000 0.21053300
vt 0.22273000 0.21053300
vt 0.22038400 0.21935900
vt 0.22038400 0.21935900
vt 0.21759100 0.22796100
vt 0.21759100 0.22796100
vt 0.21446300 0.23656300
vt 0.21446300 0.23656300
vt 0.21122300 0.24494100
vt 0.21122300 0.24494100
vt 0.20776000 0.25320800
vt 0.20776000 0.25320800
vt 0.20418500 0.26136400
vt 0.20418500 0.26136400
vt 0.20038700 0.26940700
vt 0.20038700 0.26940700
vt 0.19625400 0.27745100
vt 0.19625400 0.27745100
vt 0.19178500 0.28527100
vt 0.19178500 0.28527100
vt 0.18642300 0.29264400
vt 0.18642300 0.29264400
vt 0.18027800 0.29934700
vt 0.18027800 0.29934700
vt 0.18161900 0.30146900
vt 0.18340600 0.30426200
vt 0.17458100 0.30839600
vt 0.16575500 0.31185900
vt 0.15704200 0.31465200
vt 0.15704200 0.03402300
vt 0.16575500 0.03681600
vt 0.17458100 0.04027900
vt 0.18340600 0.04441300
vt 0.18161900 0.04720600
vt 0.18027800 0.04932800
vt 0.18027800 0.04932800
vt 0.18552900 0.05692500
vt 0.18552900 0.05692500
vt 0.19066800 0.06418600
vt 0.19066800 0.06418600
vt 0.19513600 0.07189500
vt 0.19513600 0.07189500
vt 0.19915800 0.07971500
vt 0.19915800 0.07971500
vt 0.20295600 0.08775800
vt 0.20295600 0.08775800
vt 0.20653100 0.09591400
vt 0.20653100 0.09591400
vt 0.20999400 0.10418000
vt 0.20999400 0.10418000
vt 0.21323400 0.11255900
vt 0.21323400 0.11255900
vt 0.21636200 0.12104900
vt 0.21636200 0.12104900
vt 0.21915500 0.12965100
vt 0.21915500 0.12965100
vt 0.22138900 0.13847700
vt 0.22138900 0.13847700
vt 0.22340000 0.14730200
vt 0.22340000 0.14730200
vt 0.22474100 0.15635100
vt 0.22474100 0.15635100
vt 0.22563500 0.16540000
vt 0.22563500 0.16540000
vt 0.22597000 0.17433800
vt 0.22597000 0.17433800
vt 0.22563500 0.18327500
vt 0.22563500 0.18327500
vt 0.22474100 0.19232400
vt 0.22474100 0.19232400
vt 0.22340000 0.20137300
vt 0.22340000 0.20137300
vt 0.22138900 0.21031000
vt 0.22138900 0.21031000
vt 0.21915500 0.21902300
vt 0.21915500 0.21902300
vt 0.21636200 0.22762600
vt 0.21636200 0.22762600
vt 0.21323400 0.23622800
vt 0.21323400 0.23622800
vt 0.20999400 0.24449400
vt 0.20999400 0.24449400
vt 0.20653100 0.25276100
vt 0.20653100 0.25276100
vt 0.20295600 0.26091700
vt 0.20295600 0.26091700
vt 0.19915800 0.26896000
vt 0.19915800 0.26896000
vt 0.19513600 0.27689200
vt 0.19513600 0.27689200
vt 0.19066800 0.28448800
vt 0.19066800 0.28448800
vt 0.18552900 0.29175000
vt 0.18552900 0.29175000
vt 0.17938400 0.29834100
vt 0.17938400 0.29834100
vt 0.17234700 0.30392700
vt 0.17234700 0.30392700
vt 0.17312900 0.30504400
vt 0.17312900 0.30504400
vt 0.17368700 0.30638500
vt 0.16530900 0.31040600
vt 0.15659500 0.31342300
vt 0.15659500 0.03525200
vt 0.16530900 0.03826900
vt 0.17368700 0.04229000
vt 0.17312900 0.04363100
vt 0.17312900 0.04363100
vt 0.17938400 0.05044500
vt 0.17938400 0.05044500
vt 0.88832800 0.82541300
vt 0.88832800 0.82541300
vt 0.17614500 0.05390900
vt 0.89570100 0.82965800
vt 0.89570100 0.82965800
vt 0.18184200 0.06005300
vt 0.90229200 0.83524400
vt 0.90229200 0.83524400
vt 0.18664600 0.06686800
vt 0.90765500 0.84172300
vt 0.90765500 0.84172300
vt 0.19100300 0.07424100
vt 0.91201200 0.84909600
vt 0.91201200 0.84909600
vt 0.19491300 0.08194900
vt 0.91480500 0.85714000
vt 0.91480500 0.85714000
vt 0.19860000 0.08976900
vt 0.91636900 0.86551800
vt 0.91636900 0.86551800
vt 0.20217400 0.09781300
vt 0.91625700 0.87412000
vt 0.91625700 0.87412000
vt 0.20563800 0.10596800
vt 0.91480500 0.88249900
vt 0.91480500 0.88249900
vt 0.20887700 0.11423500
vt 0.91190000 0.89054300
vt 0.91190000 0.89054300
vt 0.21189400 0.12261300
vt 0.90754300 0.89791600
vt 0.90754300 0.89791600
vt 0.21457500 0.13099200
vt 0.90206900 0.90439500
vt 0.90206900 0.90439500
vt 0.21692100 0.13959400
vt 0.89559000 0.90986900
vt 0.89559000 0.90986900
vt 0.21870800 0.14819600
vt 0.88810500 0.91411400
vt 0.88810500 0.91411400
vt 0.22016100 0.15691000
vt 0.88017300 0.91701900
vt 0.88017300 0.91701900
vt 0.22094200 0.16573500
vt 0.87190600 0.91847100
vt 0.87190600 0.91847100
vt 0.22127800 0.17433800
vt 0.86352700 0.91847100
vt 0.86352700 0.91847100
vt 0.22094200 0.18293900
vt 0.85514900 0.91701900
vt 0.85514900 0.91701900
vt 0.22016100 0.19176500
vt 0.84710500 0.91411400
vt 0.84710500 0.91411400
vt 0.21870800 0.20047900
vt 0.83962000 0.90986900
vt 0.83962000 0.90986900
vt 0.21692100 0.20908100
vt 0.83314100 0.90450700
vt 0.83314100 0.90450700
vt 0.21457500 0.21768300
vt 0.82755500 0.89791600
vt 0.82755500 0.89791600
vt 0.21189400 0.22606200
vt 0.82331000 0.89054300
vt 0.82331000 0.89054300
vt 0.20887700 0.23444000
vt 0.82029400 0.88261100
vt 0.82029400 0.88261100
vt 0.20563800 0.24270700
vt 0.81884100 0.87423200
vt 0.81884100 0.87423200
vt 0.20217400 0.25086200
vt 0.81884100 0.86563000
vt 0.81884100 0.86563000
vt 0.19860000 0.25890600
vt 0.82018200 0.85725100
vt 0.82018200 0.85725100
vt 0.19491300 0.26683800
vt 0.82308700 0.84920800
vt 0.82308700 0.84920800
vt 0.19100300 0.27443400
vt 0.82733200 0.84183500
vt 0.82733200 0.84183500
vt 0.18664600 0.28180700
vt 0.83280600 0.83524400
vt 0.83280600 0.83524400
vt 0.18184200 0.28862200
vt 0.83928500 0.82976900
vt 0.83928500 0.82976900
vt 0.17614500 0.29476600
vt 0.84665800 0.82541300
vt 0.16966500 0.29990500
vt 0.85470200 0.82250800
vt 0.85470200 0.82250800
vt 0.16240400 0.30403900
vt 0.16452700 0.30828400
vt 0.16452700 0.30828400
vt 0.16508500 0.30951300
vt 0.16508500 0.30951300
vt 0.15637100 0.31286400
vt 0.15637100 0.03581100
vt 0.15637100 0.03581100
vt 0.15637100 0.31286400
vt 0.16508500 0.03916200
vt 0.16508500 0.03916200
vt 0.17234700 0.04486000
vt 0.17234700 0.04486000
vt 0.16966500 0.04877000
vt 0.88028500 0.82250800
vt 0.86754900 0.86976300
vt 0.86754900 0.86976300
vt 0.86754900 0.86976300
vt 0.86754900 0.86976300
vt 0.86754900 0.86976300
vt 0.86754900 0.86976300
vt 0.86754900 0.86976300
vt 0.86754900 0.86976300
vt 0.86754900 0.86976300
vt 0.86754900 0.86976300
vt 0.86754900 0.86976300
vt 0.86754900 0.86976300
vt 0.86754900 0.86976300
vt 0.86754900 0.86976300
vt 0.86754900 0.86976300
vt 0.86754900 0.86976300
vt 0.86754900 0.86976300
vt 0.86754900 0.86976300
vt 0.86754900 0.86976300
vt 0.86754900 0.86976300
vt 0.86754900 0.86976300
vt 0.86754900 0.86976300
vt 0.86754900 0.86976300
vt 0.86754900 0.86976300
vt 0.86754900 0.86976300
vt 0.86754900 0.86976300
vt 0.86319200 0.82094400
vt 0.86319200 0.82094400
vt 0.15436000 0.04150800
vt 0.15436000 0.30716700
vt 0.15592400 0.31163500
vt 0.15592400 0.03704000
vt 0.15592400 0.03704000
vt 0.15592400 0.31163500
vt 0.16452700 0.04039100
vt 0.16452700 0.04039100
vt 0.87190600 0.82094400
vt 0.87190600 0.82094400
vt 0.16240400 0.04474800
f 1/1/1 2/2/2 3/3/3
f 2/2/2 4/4/4 3/3/3
f 3/3/3 4/4/4 5/5/5
f 4/4/4 6/6/6 5/5/5
f 5/5/5 6/6/6 7/7/7
f 6/6/6 9/9/9 7/7/7
f 7/7/7 9/9/9 10/10/10
f 11/11/11 8/8/8 12/12/12
f 8/8/8 13/13/13 12/12/12
f 12/12/12 13/13/13 14/14/14
f 13/13/13 15/15/15 14/14/14
f 14/14/14 15/15/15 16/16/16
f 17/17/17 16/16/16 18/18/18
f 16/16/16 15/15/15 18/18/18
f 18/18/18 15/15/15 19/19/19
f 19/19/19 15/15/15 20/20/20
f 15/15/15 13/13/13 20/20/20
f 20/20/20 13/13/13 21/21/21
f 21/21/21 13/13/13 22/22/22
f 13/13/13 8/8/8 22/22/22
f 9/9/9 6/6/6 23/23/23
f 23/23/23 6/6/6 24/24/24
f 24/24/24 6/6/6 25/25/25
f 6/6/6 4/4/4 25/25/25
f 25/25/25 4/4/4 26/26/26
f 4/4/4 2/2/2 26/26/26
f 26/26/26 2/2/2 27/27/27
f 27/27/27 2/2/2 28/28/28
f 2/2/2 1/1/1 28/28/28
f 28/28/28 1/1/1 29/29/29
f 30/30/30 29/29/29 31/31/31
f 29/29/29 1/1/1 31/31/31
f 31/31/31 1/1/1 32/32/32
f 1/1/1 3/3/3 32/32/32
f 32/32/32 3/3/3 33/33/33
f 3/3/3 5/5/5 33/33/33
f 33/33/33 5/5/5 34/34/34
f 5/5/5 7/7/7 34/34/34
f 34/34/34 7/7/7 35/35/35
f 7/7/7 10/10/10 35/35/35
f 35/35/35 10/10/10 36/36/36
f 37/37/37 11/11/11 38/38/38
f 11/11/11 12/12/12 38/38/38
f 38/38/38 12/12/12 39/39/39
f 12/12/12 14/14/14 39/39/39
f 39/39/39 14/14/14 40/40/40
f 14/14/14 16/16/16 40/40/40
f 40/40/40 16/16/16 41/41/41
f 16/16/16 17/17/17 41/41/41
f 41/41/41 17/17/17 42/42/42
f 43/43/43 42/42/42 44/44/44
f 42/42/42 17/17/17 44/44/44
f 44/44/44 17/17/17 45/45/45
f 17/17/17 18/18/18 45/45/45
f 45/45/45 18/18/18 46/46/46
f 18/18/18 19/19/19 46/46/46
f 47/47/47 46/46/46 48/48/48
f 46/46/46 19/19/19 48/48/48
f 48/48/48 19/19/19 49/49/49
f 19/19/19 20/20/20 49/49/49
f 49/49/49 20/20/20 50/50/50
f 20/20/20 21/21/21 50/50/50
f 50/50/50 21/21/21 51/51/51
f 51/51/51 21/21/21 52/52/52
f 21/21/21 22/22/22 52/52/52
f 23/23/23 24/24/24 53/53/53
f 53/53/53 24/24/24 54/54/54
f 54/54/54 24/24/24 55/55/55
f 24/24/24 25/25/25 55/55/55
f 55/55/55 25/25/25 56/56/56
f 25/25/25 26/26/26 56/56/56
f 56/56/56 26/26/26 57/57/57
f 26/26/26 27/27/27 57/57/57
f 57/57/57 27/27/27 58/58/58
f 59/59/59 58/58/58 60/60/60
f 58/58/58 27/27/27 60/60/60
f 27/27/27 28/28/28 60/60/60
f 60/60/60 28/28/28 61/61/61
f 28/28/28 29/29/29 61/61/61
f 61/61/61 29/29/29 62/62/62
f 29/29/29 30/30/30 62/62/62
f 62/62/62 30/30/30 63/63/63
f 64/64/64 63/63/63 65/65/65
f 63/63/63 30/30/30 65/65/65
f 65/65/65 30/30/30 66/66/66
f 30/30/30 31/31/31 66/66/66
f 66/66/66 31/31/31 67/67/67
f 31/31/31 32/32/32 67/67/67
f 67/67/67 32/32/32 68/68/68
f 32/32/32 33/33/33 68/68/68
f 68/68/68 33/33/33 69/69/69
f 33/33/33 34/34/34 69/69/69
f 69/69/69 34/34/34 70/70/70
f 34/34/34 35/35/35 70/70/70
f 70/70/70 35/35/35 72/72/72
f 35/35/35 36/36/36 72/72/72
f 37/37/37 38/38/38 71/71/71
f 71/71/71 38/38/38 73/73/73
f 38/38/38 39/39/39 73/73/73
f 73/73/73 39/39/39 74/74/74
f 39/39/39 40/40/40 74/74/74
f 74/74/74 40/40/40 75/75/75
f 40/40/40 41/41/41 75/75/75
f 75/75/75 41/41/41 76/76/76
f 41/41/41 42/42/42 76/76/76
f 76/76/76 42/42/42 77/77/77
f 42/42/42 43/43/43 77/77/77
f 77/77/77 43/43/43 78/78/78
f 79/79/79 78/78/78 80/80/80
f 78/78/78 43/43/43 80/80/80
f 80/80/80 43/43/43 81/81/81
f 43/43/43 44/44/44 81/81/81
f 81/81/81 44/44/44 82/82/82
f 44/44/44 45/45/45 82/82/82
f 82/82/82 45/45/45 83/83/83
f 45/45/45 46/46/46 83/83/83
f 46/46/46 47/47/47 83/83/83
f 83/83/83 47/47/47 84/84/84
f 87/87/87 84/84/84 90/90/90
f 84/84/84 47/47/47 90/90/90
f 90/90/90 47/47/47 93/93/93
f 47/47/47 48/48/48 93/93/93
f 93/93/93 48/48/48 96/96/96
f 48/48/48 49/49/49 96/96/96
f 96/96/96 49/49/49 99/99/99
f 49/49/49 50/50/50 99/99/99
f 99/99/99 50/50/50 102/102/102
f 50/50/50 51/51/51 102/102/102
f 102/102/102 51/51/51 105/105/105
f 105/105/105 51/51/51 109/109/109
f 51/51/51 52/52/52 109/109/109
f 53/53/53 54/54/54 108/108/108
f 108/108/108 54/54/54 112/112/112
f 112/112/112 54/54/54 115/115/115
f 54/54/54 55/55/55 115/115/115
f 115/115/115 55/55/55 118/118/118
f 55/55/55 56/56/56 118/118/118
f 118/118/118 56/56/56 121/121/121
f 56/56/56 57/57/57 121/121/121
f 121/121/121 57/57/57 124/124/124
f 57/57/57 58/58/58 124/124/124
f 124/124/124 58/58/58 127/127/127
f 58/58/58 59/59/59 127/127/127
f 127/127/127 59/59/59 130/130/130
f 133/133/133 130/130/130 134/134/134
f 134/134/134 130/130/130 135/135/135
f 130/130/130 59/59/59 135/135/135
f 135/135/135 59/59/59 136/136/136
f 59/59/59 60/60/60 136/136/136
f 60/60/60 61/61/61 136/136/136
f 136/136/136 61/61/61 137/137/137
f 61/61/61 62/62/62 137/137/137
f 137/137/137 62/62/62 138/138/138
f 62/62/62 63/63/63 138/138/138
f 138/138/138 63/63/63 139/139/139
f 63/63/63 64/64/64 139/139/139
f 64/64/64 140/140/140 139/139/139
f 139/139/139 140/140/140 141/141/141
f 140/140/140 142/142/142 141/141/141
f 141/141/141 142/142/142 143/143/143
f 142/142/142 144/144/144 143/143/143
f 143/143/143 144/144/144 145/145/145
f 144/144/144 146/146/146 145/145/145
f 145/145/145 146/146/146 147/147/147
f 146/146/146 148/148/148 147/147/147
f 147/147/147 148/148/148 149/149/149
f 148/148/148 150/150/150 149/149/149
f 149/149/149 150/150/150 151/151/151
f 150/150/150 152/152/152 151/151/151
f 151/151/151 152/152/152 153/153/153
f 152/152/152 154/154/154 153/153/153
f 153/153/153 154/154/154 155/155/155
f 154/154/154 156/156/156 155/155/155
f 155/155/155 156/156/156 157/157/157
f 156/156/156 158/158/158 157/157/157
f 157/157/157 158/158/158 159/159/159
f 158/158/158 160/160/160 159/159/159
f 160/160/160 161/161/161 159/159/159
f 159/159/159 161/161/161 162/162/162
f 161/161/161 163/163/163 162/162/162
f 162/162/162 163/163/163 164/164/164
f 163/163/163 165/165/165 164/164/164
f 164/164/164 165/165/165 166/166/166
f 165/165/165 167/167/167 166/166/166
f 166/166/166 167/167/167 168/168/168
f 167/167/167 169/169/169 168/168/168
f 168/168/168 169/169/169 170/170/170
f 169/169/169 171/171/171 170/170/170
f 170/170/170 171/171/171 172/172/172
f 171/171/171 173/173/173 172/172/172
f 172/172/172 173/173/173 174/174/174
f 173/173/173 175/175/175 174/174/174
f 174/174/174 175/175/175 176/176/176
f 175/175/175 177/177/177 176/176/176
f 176/176/176 177/177/177 178/178/178
f 177/177/177 179/179/179 178/178/178
f 178/178/178 179/179/179 180/180/180
f 179/179/179 79/79/79 180/180/180
f 79/79/79 80/80/80 180/180/180
f 180/180/180 80/80/80 181/181/181
f 80/80/80 81/81/81 181/181/181
f 181/181/181 81/81/81 182/182/182
f 81/81/81 82/82/82 182/182/182
f 182/182/182 82/82/82 183/183/183
f 82/82/82 83/83/83 183/183/183
f 83/83/83 84/84/84 183/183/183
f 183/183/183 84/84/84 184/184/184
f 84/84/84 87/87/87 184/184/184
f 184/184/184 87/87/87 185/185/185
f 87/87/87 188/188/188 185/185/185
f 189/189/189 185/185/185 190/190/190
f 185/185/185 188/188/188 190/190/190
f 192/192/192 186/186/186 209/209/209
f 187/187/187 85/85/85 208/208/208
f 86/86/86 88/88/88 207/207/207
f 89/89/89 91/91/91 206/206/206
f 92/92/92 94/94/94 205/205/205
f 95/95/95 97/97/97 204/204/204
f 98/98/98 100/100/100 203/203/203
f 101/101/101 103/103/103 202/202/202
f 104/104/104 106/106/106 201/201/201
f 107/107/107 110/110/110 200/200/200
f 111/111/111 113/113/113 199/199/199
f 114/114/114 116/116/116 198/198/198
f 117/117/117 119/119/119 197/197/197
f 120/120/120 122/122/122 196/196/196
f 123/123/123 125/125/125 195/195/195
f 126/126/126 128/128/128 194/194/194
f 129/129/129 131/131/131 193/193/193
f 224/224/224 132/132/132 225/225/225
f 133/133/133 134/134/134 227/227/227
f 227/227/227 134/134/134 228/228/228
f 229/229/229 228/228/228 230/230/230
f 228/228/228 134/134/134 230/230/230
f 134/134/134 135/135/135 230/230/230
f 230/230/230 135/135/135 231/231/231
f 135/135/135 136/136/136 231/231/231
f 136/136/136 137/137/137 231/231/231
f 231/231/231 137/137/137 232/232/232
f 137/137/137 138/138/138 232/232/232
f 232/232/232 138/138/138 233/233/233
f 138/138/138 139/139/139 233/233/233
f 233/233/233 139/139/139 234/234/234
f 139/139/139 141/141/141 234/234/234
f 234/234/234 141/141/141 235/235/235
f 141/141/141 143/143/143 235/235/235
f 235/235/235 143/143/143 236/236/236
f 143/143/143 145/145/145 236/236/236
f 236/236/236 145/145/145 237/237/237
f 145/145/145 147/147/147 237/237/237
f 237/237/237 147/147/147 238/238/238
f 147/147/147 149/149/149 238/238/238
f 238/238/238 149/149/149 239/239/239
f 149/149/149 151/151/151 239/239/239
f 239/239/239 151/151/151 240/240/240
f 151/151/151 153/153/153 240/240/240
f 240/240/240 153/153/153 241/241/241
f 153/153/153 155/155/155 241/241/241
f 241/241/241 155/155/155 242/242/242
f 155/155/155 157/157/157 242/242/242
f 242/242/242 157/157/157 243/243/243
f 157/157/157 159/159/159 243/243/243
f 159/159/159 162/162/162 243/243/243
f 243/243/243 162/162/162 244/244/244
f 162/162/162 164/164/164 244/244/244
f 244/244/244 164/164/164 245/245/245
f 164/164/164 166/166/166 245/245/245
f 245/245/245 166/166/166 246/246/246
f 166/166/166 168/168/168 246/246/246
f 246/246/246 168/168/168 247/247/247
f 168/168/168 170/170/170 247/247/247
f 247/247/247 170/170/170 248/248/248
f 170/170/170 172/172/172 248/248/248
f 248/248/248 172/172/172 249/249/249
f 172/172/172 174/174/174 249/249/249
f 249/249/249 174/174/174 250/250/250
f 174/174/174 176/176/176 250/250/250
f 250/250/250 176/176/176 251/251/251
f 176/176/176 178/178/178 251/251/251
f 251/251/251 178/178/178 252/252/252
f 178/178/178 180/180/180 252/252/252
f 252/252/252 180/180/180 253/253/253
f 180/180/180 181/181/181 253/253/253
f 253/253/253 181/181/181 254/254/254
f 181/181/181 182/182/182 254/254/254
f 254/254/254 182/182/182 255/255/255
f 182/182/182 183/183/183 255/255/255
f 183/183/183 184/184/184 255/255/255
f 255/255/255 184/184/184 256/256/256
f 184/184/184 185/185/185 256/256/256
f 185/185/185 189/189/189 256/256/256
f 256/256/256 189/189/189 257/257/257
f 257/257/257 189/189/189 258/258/258
f 258/258/258 189/189/189 259/259/259
f 189/189/189 190/190/190 259/259/259
f 259/259/259 190/190/190 261/261/261
f 191/191/191 210/210/210 260/260/260
f 262/262/262 211/211/211 263/263/263
f 265/265/265 212/212/212 266/266/266
f 268/268/268 213/213/213 269/269/269
f 271/271/271 214/214/214 272/272/272
f 274/274/274 215/215/215 275/275/275
f 277/277/277 216/216/216 278/278/278
f 281/281/281 217/217/217 282/282/282
f 284/284/284 218/218/218 285/285/285
f 287/287/287 219/219/219 288/288/288
f 290/290/290 220/220/220 291/291/291
f 293/293/293 221/221/221 294/294/294
f 296/296/296 222/222/222 298/298/298
f 223/223/223 226/226/226 297/297/297
f 299/299/299 227/227/227 300/300/300
f 227/227/227 228/228/228 300/300/300
f 300/300/300 228/228/228 301/301/301
f 228/228/228 229/229/229 301/301/301
f 301/301/301 229/229/229 302/302/302
f 302/302/302 229/229/229 303/303/303
f 303/303/303 229/229/229 304/304/304
f 229/229/229 230/230/230 304/304/304
f 230/230/230 231/231/231 304/304/304
f 231/231/231 232/232/232 304/304/304
f 232/232/232 233/233/233 304/304/304
f 233/233/233 234/234/234 304/304/304
f 304/304/304 234/234/234 305/305/305
f 234/234/234 235/235/235 305/305/305
f 305/305/305 235/235/235 306/306/306
f 235/235/235 236/236/236 306/306/306
f 306/306/306 236/236/236 307/307/307
f 236/236/236 237/237/237 307/307/307
f 307/307/307 237/237/237 308/308/308
f 237/237/237 238/238/238 308/308/308
f 308/308/308 238/238/238 309/309/309
f 238/238/238 239/239/239 309/309/309
f 309/309/309 239/239/239 310/310/310
f 239/239/239 240/240/240 310/310/310
f 310/310/310 240/240/240 311/311/311
f 240/240/240 241/241/241 311/311/311
f 311/311/311 241/241/241 312/312/312
f 241/241/241 242/242/242 312/312/312
f 312/312/312 242/242/242 313/313/313
f 242/242/242 243/243/243 313/313/313
f 313/313/313 243/243/243 314/314/314
f 314/314/314 243/243/243 315/315/315
f 243/243/243 244/244/244 315/315/315
f 315/315/315 244/244/244 316/316/316
f 244/244/244 245/245/245 316/316/316
f 316/316/316 245/245/245 317/317/317
f 245/245/245 246/246/246 317/317/317
f 317/317/317 246/246/246 318/318/318
f 246/246/246 247/247/247 318/318/318
f 318/318/318 247/247/247 319/319/319
f 247/247/247 248/248/248 319/319/319
f 319/319/319 248/248/248 320/320/320
f 248/248/248 249/249/249 320/320/320
f 320/320/320 249/249/249 321/321/321
f 249/249/249 250/250/250 321/321/321
f 321/321/321 250/250/250 322/322/322
f 250/250/250 251/251/251 322/322/322
f 322/322/322 251/251/251 323/323/323
f 251/251/251 252/252/252 323/323/323
f 323/323/323 252/252/252 324/324/324
f 252/252/252 253/253/253 324/324/324
f 253/253/253 254/254/254 324/324/324
f 254/254/254 255/255/255 324/324/324
f 255/255/255 256/256/256 324/324/324
f 256/256/256 257/257/257 324/324/324
f 324/324/324 257/257/257 325/325/325
f 325/325/325 257/257/257 326/326/326
f 257/257/257 258/258/258 326/326/326
f 326/326/326 258/258/258 327/327/327
f 327/327/327 258/258/258 328/328/328
f 258/258/258 259/259/259 328/328/328
f 328/328/328 259/259/259 329/329/329
f 259/259/259 261/261/261 329/329/329
f 261/261/261 264/264/264 329/329/329
f 329/329/329 264/264/264 330/330/330
f 264/264/264 267/267/267 330/330/330
f 330/330/330 267/267/267 331/331/331
f 267/267/267 270/270/270 331/331/331
f 331/331/331 270/270/270 332/332/332
f 270/270/270 273/273/273 332/332/332
f 332/332/332 273/273/273 333/333/333
f 273/273/273 276/276/276 333/333/333
f 276/276/276 279/279/279 333/333/333
f 333/333/333 279/279/279 334/334/334
f 335/335/335 280/280/280 336/336/336
f 280/280/280 283/283/283 336/336/336
f 283/283/283 286/286/286 336/336/336
f 336/336/336 286/286/286 337/337/337
f 286/286/286 289/289/289 337/337/337
f 337/337/337 289/289/289 338/338/338
f 289/289/289 292/292/292 338/338/338
f 338/338/338 292/292/292 339/339/339
f 292/292/292 295/295/295 339/339/339
f 339/339/339 295/295/295 340/340/340
f 295/295/295 299/299/299 340/340/340
f 299/299/299 300/300/300 340/340/340
f 340/340/340 300/300/300 341/341/341
f 300/300/300 301/301/301 341/341/341
f 341/341/341 301/301/301 342/342/342
f 301/301/301 302/302/302 342/342/342
f 343/343/343 342/342/342 344/344/344
f 342/342/342 302/302/302 344/344/344
f 344/344/344 302/302/302 345/345/345
f 302/302/302 303/303/303 345/345/345
f 345/345/345 303/303/303 346/346/346
f 303/303/303 304/304/304 346/346/346
f 304/304/304 305/305/305 346/346/346
f 346/346/346 305/305/305 347/347/347
f 305/305/305 306/306/306 347/347/347
f 347/347/347 306/306/306 348/348/348
f 348/348/348 306/306/306 349/349/349
f 306/306/306 307/307/307 349/349/349
f 349/349/349 307/307/307 350/350/350
f 307/307/307 308/308/308 350/350/350
f 350/350/350 308/308/308 351/351/351
f 308/308/308 309/309/309 351/351/351
f 351/351/351 309/309/309 352/352/352
f 309/309/309 310/310/310 352/352/352
f 352/352/352 310/310/310 353/353/353
f 310/310/310 311/311/311 353/353/353
f 353/353/353 311/311/311 354/354/354
f 311/311/311 312/312/312 354/354/354
f 354/354/354 312/312/312 355/355/355
f 312/312/312 313/313/313 355/355/355
f 355/355/355 313/313/313 356/356/356
f 313/313/313 314/314/314 356/356/356
f 314/314/314 315/315/315 356/356/356
f 356/356/356 315/315/315 357/357/357
f 315/315/315 316/316/316 357/357/357
f 357/357/357 316/316/316 358/358/358
f 316/316/316 317/317/317 358/358/358
f 358/358/358 317/317/317 359/359/359
f 317/317/317 318/318/318 359/359/359
f 359/359/359 318/318/318 360/360/360
f 318/318/318 319/319/319 360/360/360
f 360/360/360 319/319/319 361/361/361
f 319/319/319 320/320/320 361/361/361
f 361/361/361 320/320/320 362/362/362
f 320/320/320 321/321/321 362/362/362
f 362/362/362 321/321/321 363/363/363
f 321/321/321 322/322/322 363/363/363
f 363/363/363 322/322/322 364/364/364
f 364/364/364 322/322/322 365/365/365
f 322/322/322 323/323/323 365/365/365
f 365/365/365 323/323/323 366/366/366
f 323/323/323 324/324/324 366/366/366
f 324/324/324 325/325/325 366/366/366
f 366/366/366 325/325/325 367/367/367
f 325/325/325 326/326/326 367/367/367
f 367/367/367 326/326/326 368/368/368
f 326/326/326 327/327/327 368/368/368
f 368/368/368 327/327/327 369/369/369
f 370/370/370 369/369/369 371/371/371
f 369/369/369 327/327/327 371/371/371
f 327/327/327 328/328/328 371/371/371
f 371/371/371 328/328/328 372/372/372
f 328/328/328 329/329/329 372/372/372
f 329/329/329 330/330/330 372/372/372
f 372/372/372 330/330/330 373/373/373
f 330/330/330 331/331/331 373/373/373
f 373/373/373 331/331/331 374/374/374
f 331/331/331 332/332/332 374/374/374
f 374/374/374 332/332/332 375/375/375
f 332/332/332 333/333/333 375/375/375
f 333/333/333 334/334/334 375/375/375
f 375/375/375 334/334/334 376/376/376
f 377/377/377 335/335/335 378/378/378
f 335/335/335 336/336/336 378/378/378
f 336/336/336 337/337/337 378/378/378
f 378/378/378 337/337/337 379/379/379
f 337/337/337 338/338/338 379/379/379
f 379/379/379 338/338/338 380/380/380
f 338/338/338 339/339/339 380/380/380
f 380/380/380 339/339/339 381/381/381
f 339/339/339 340/340/340 381/381/381
f 340/340/340 341/341/341 381/381/381
f 381/381/381 341/341/341 382/382/382
f 341/341/341 342/342/342 382/382/382
f 342/342/342 343/343/343 382/382/382
f 382/382/382 343/343/343 383/383/383
f 385/385/385 383/383/383 387/387/387
f 383/383/383 343/343/343 387/387/387
f 387/387/387 343/343/343 389/389/389
f 343/343/343 344/344/344 389/389/389
f 389/389/389 344/344/344 391/391/391
f 344/344/344 345/345/345 391/391/391
f 391/391/391 345/345/345 393/393/393
f 345/345/345 346/346/346 393/393/393
f 393/393/393 346/346/346 395/395/395
f 346/346/346 347/347/347 395/395/395
f 395/395/395 347/347/347 397/397/397
f 347/347/347 348/348/348 397/397/397
f 397/397/397 348/348/348 399/399/399
f 348/348/348 349/349/349 399/399/399
f 399/399/399 349/349/349 401/401/401
f 349/349/349 350/350/350 401/401/401
f 401/401/401 350/350/350 403/403/403
f 350/350/350 351/351/351 403/403/403
f 403/403/403 351/351/351 405/405/405
f 351/351/351 352/352/352 405/405/405
f 405/405/405 352/352/352 407/407/407
f 352/352/352 353/353/353 407/407/407
f 407/407/407 353/353/353 409/409/409
f 353/353/353 354/354/354 409/409/409
f 409/409/409 354/354/354 411/411/411
f 354/354/354 355/355/355 411/411/411
f 411/411/411 355/355/355 413/413/413
f 355/355/355 356/356/356 413/413/413
f 356/356/356 357/357/357 413/413/413
f 413/413/413 357/357/357 415/415/415
f 357/357/357 358/358/358 415/415/415
f 415/415/415 358/358/358 417/417/417
f 358/358/358 359/359/359 417/417/417
f 417/417/417 359/359/359 419/419/419
f 359/359/359 360/360/360 419/419/419
f 419/419/419 360/360/360 421/421/421
f 360/360/360 361/361/361 421/421/421
f 421/421/421 361/361/361 423/423/423
f 361/361/361 362/362/362 423/423/423
f 423/423/423 362/362/362 425/425/425
f 362/362/362 363/363/363 425/425/425
f 425/425/425 363/363/363 427/427/427
f 363/363/363 364/364/364 427/427/427
f 427/427/427 364/364/364 429/429/429
f 364/364/364 365/365/365 429/429/429
f 429/429/429 365/365/365 431/431/431
f 365/365/365 366/366/366 431/431/431
f 431/431/431 366/366/366 433/433/433
f 366/366/366 367/367/367 433/433/433
f 433/433/433 367/367/367 435/435/435
f 367/367/367 368/368/368 435/435/435
f 435/435/435 368/368/368 437/437/437
f 368/368/368 369/369/369 437/437/437
f 437/437/437 369/369/369 439/439/439
f 369/369/369 370/370/370 439/439/439
f 439/439/439 370/370/370 441/441/441
f 441/441/441 370/370/370 443/443/443
f 443/443/443 370/370/370 444/444/444
f 444/444/444 370/370/370 445/445/445
f 370/370/370 371/371/371 445/445/445
f 371/371/371 372/372/372 445/445/445
f 372/372/372 373/373/373 445/445/445
f 445/445/445 373/373/373 446/446/446
f 373/373/373 374/374/374 446/446/446
f 446/446/446 374/374/374 447/447/447
f 374/374/374 375/375/375 447/447/447
f 375/375/375 376/376/376 447/447/447
f 447/447/447 376/376/376 448/448/448
f 449/449/449 377/377/377 450/450/450
f 377/377/377 378/378/378 450/450/450
f 378/378/378 379/379/379 450/450/450
f 450/450/450 379/379/379 451/451/451
f 379/379/379 380/380/380 451/451/451
f 451/451/451 380/380/380 452/452/452
f 380/380/380 381/381/381 452/452/452
f 381/381/381 382/382/382 452/452/452
f 382/382/382 383/383/383 452/452/452
f 452/452/452 383/383/383 453/453/453
f 453/453/453 383/383/383 454/454/454
f 383/383/383 385/385/385 454/454/454
f 455/455/455 384/384/384 457/457/457
f 457/457/457 384/384/384 459/459/459
f 384/384/384 386/386/386 459/459/459
f 459/459/459 386/386/386 461/461/461
f 386/386/386 388/388/388 461/461/461
f 461/461/461 388/388/388 463/463/463
f 388/388/388 390/390/390 463/463/463
f 463/463/463 390/390/390 465/465/465
f 390/390/390 392/392/392 465/465/465
f 465/465/465 392/392/392 467/467/467
f 392/392/392 394/394/394 467/467/467
f 467/467/467 394/394/394 469/469/469
f 394/394/394 396/396/396 469/469/469
f 469/469/469 396/396/396 471/471/471
f 396/396/396 398/398/398 471/471/471
f 471/471/471 398/398/398 473/473/473
f 398/398/398 400/400/400 473/473/473
f 473/473/473 400/400/400 475/475/475
f 400/400/400 402/402/402 475/475/475
f 475/475/475 402/402/402 477/477/477
f 402/402/402 404/404/404 477/477/477
f 477/477/477 404/404/404 479/479/479
f 404/404/404 406/406/406 479/479/479
f 479/479/479 406/406/406 481/481/481
f 406/406/406 408/408/408 481/481/481
f 481/481/481 408/408/408 483/483/483
f 408/408/408 410/410/410 483/483/483
f 483/483/483 410/410/410 485/485/485
f 410/410/410 412/412/412 485/485/485
f 485/485/485 412/412/412 487/487/487
f 412/412/412 414/414/414 487/487/487
f 487/487/487 414/414/414 489/489/489
f 414/414/414 416/416/416 489/489/489
f 489/489/489 416/416/416 491/491/491
f 416/416/416 418/418/418 491/491/491
f 491/491/491 418/418/418 493/493/493
f 418/418/418 420/420/420 493/493/493
f 493/493/493 420/420/420 495/495/495
f 420/420/420 422/422/422 495/495/495
f 495/495/495 422/422/422 497/497/497
f 422/422/422 424/424/424 497/497/497
f 497/497/497 424/424/424 499/499/499
f 424/424/424 426/426/426 499/499/499
f 499/499/499 426/426/426 501/501/501
f 426/426/426 428/428/428 501/501/501
f 501/501/501 428/428/428 503/503/503
f 428/428/428 430/430/430 503/503/503
f 503/503/503 430/430/430 505/505/505
f 430/430/430 432/432/432 505/505/505
f 505/505/505 432/432/432 507/507/507
f 432/432/432 434/434/434 507/507/507
f 507/507/507 434/434/434 509/509/509
f 434/434/434 436/436/436 509/509/509
f 509/509/509 436/436/436 511/511/511
f 436/436/436 438/438/438 511/511/511
f 511/511/511 438/438/438 513/513/513
f 438/438/438 440/440/440 513/513/513
f 513/513/513 440/440/440 515/515/515
f 440/440/440 442/442/442 515/515/515
f 515/515/515 442/442/442 517/517/517
f 517/517/517 442/442/442 518/518/518
f 443/443/443 444/444/444 519/519/519
f 519/519/519 444/444/444 520/520/520
f 444/444/444 445/445/445 520/520/520
f 445/445/445 446/446/446 520/520/520
f 520/520/520 446/446/446 521/521/521
f 446/446/446 447/447/447 521/521/521
f 521/521/521 447/447/447 522/522/522
f 447/447/447 448/448/448 522/522/522
f 449/449/449 450/450/450 523/523/523
f 523/523/523 450/450/450 524/524/524
f 450/450/450 451/451/451 524/524/524
f 524/524/524 451/451/451 525/525/525
f 451/451/451 452/452/452 525/525/525
f 452/452/452 453/453/453 525/525/525
f 525/525/525 453/453/453 526/526/526
f 453/453/453 454/454/454 526/526/526
f 527/527/527 455/455/455 528/528/528
f 455/455/455 457/457/457 528/528/528
f 529/529/529 456/456/456 532/532/532
f 532/532/532 456/456/456 535/535/535
f 456/456/456 458/458/458 535/535/535
f 535/535/535 458/458/458 538/538/538
f 458/458/458 460/460/460 538/538/538
f 538/538/538 460/460/460 541/541/541
f 460/460/460 462/462/462 541/541/541
f 541/541/541 462/462/462 544/544/544
f 462/462/462 464/464/464 544/544/544
f 544/544/544 464/464/464 547/547/547
f 464/464/464 466/466/466 547/547/547
f 547/547/547 466/466/466 550/550/550
f 466/466/466 468/468/468 550/550/550
f 550/550/550 468/468/468 553/553/553
f 468/468/468 470/470/470 553/553/553
f 553/553/553 470/470/470 556/556/556
f 470/470/470 472/472/472 556/556/556
f 556/556/556 472/472/472 559/559/559
f 472/472/472 474/474/474 559/559/559
f 559/559/559 474/474/474 562/562/562
f 474/474/474 476/476/476 562/562/562
f 562/562/562 476/476/476 565/565/565
f 565/565/565 476/476/476 568/568/568
f 476/476/476 478/478/478 568/568/568
f 568/568/568 478/478/478 571/571/571
f 478/478/478 480/480/480 571/571/571
f 571/571/571 480/480/480 574/574/574
f 480/480/480 482/482/482 574/574/574
f 482/482/482 484/484/484 574/574/574
f 574/574/574 484/484/484 577/577/577
f 577/577/577 484/484/484 580/580/580
f 484/484/484 486/486/486 580/580/580
f 486/486/486 488/488/488 580/580/580
f 580/580/580 488/488/488 583/583/583
f 488/488/488 490/490/490 583/583/583
f 583/583/583 490/490/490 586/586/586
f 490/490/490 492/492/492 586/586/586
f 586/586/586 492/492/492 589/589/589
f 589/589/589 492/492/492 592/592/592
f 492/492/492 494/494/494 592/592/592
f 592/592/592 494/494/494 595/595/595
f 494/494/494 496/496/496 595/595/595
f 595/595/595 496/496/496 598/598/598
f 496/496/496 498/498/498 598/598/598
f 598/598/598 498/498/498 601/601/601
f 498/498/498 500/500/500 601/601/601
f 601/601/601 500/500/500 604/604/604
f 500/500/500 502/502/502 604/604/604
f 604/604/604 502/502/502 607/607/607
f 502/502/502 504/504/504 607/607/607
f 607/607/607 504/504/504 610/610/610
f 504/504/504 506/506/506 610/610/610
f 610/610/610 506/506/506 613/613/613
f 506/506/506 508/508/508 613/613/613
f 613/613/613 508/508/508 616/616/616
f 508/508/508 510/510/510 616/616/616
f 616/616/616 510/510/510 619/619/619
f 510/510/510 512/512/512 619/619/619
f 619/619/619 512/512/512 622/622/622
f 512/512/512 514/514/514 622/622/622
f 622/622/622 514/514/514 624/624/624
f 514/514/514 516/516/516 624/624/624
f 624/624/624 516/516/516 627/627/627
f 627/627/627 516/516/516 628/628/628
f 517/517/517 518/518/518 629/629/629
f 629/629/629 518/518/518 630/630/630
f 519/519/519 520/520/520 631/631/631
f 520/520/520 521/521/521 631/631/631
f 631/631/631 521/521/521 635/635/635
f 521/521/521 522/522/522 635/635/635
f 523/523/523 524/524/524 634/634/634
f 634/634/634 524/524/524 636/636/636
f 524/524/524 525/525/525 636/636/636
f 525/525/525 526/526/526 636/636/636
f 637/637/637 527/527/527 638/638/638
f 527/527/527 528/528/528 638/638/638
f 639/639/639 529/529/529 640/640/640
f 529/529/529 532/532/532 640/640/640
f 641/641/641 530/530/530 653/653/653
f 531/531/531 534/534/534 654/654/654
f 533/533/533 537/537/537 649/649/649
f 536/536/536 540/540/540 642/642/642
f 539/539/539 543/543/543 651/651/651
f 542/542/542 545/545/545 645/645/645
f 546/546/546 549/549/549 665/665/665
f 548/548/548 552/552/552 650/650/650
f 551/551/551 555/555/555 652/652/652
f 554/554/554 558/558/558 644/644/644
f 557/557/557 561/561/561 667/667/667
f 560/560/560 564/564/564 666/666/666
f 563/563/563 567/567/567 648/648/648
f 566/566/566 569/569/569 660/660/660
f 570/570/570 572/572/572 661/661/661
f 573/573/573 576/576/576 656/656/656
f 575/575/575 579/579/579 657/657/657
f 578/578/578 582/582/582 646/646/646
f 581/581/581 584/584/584 647/647/647
f 585/585/585 588/588/588 664/664/664
f 587/587/587 590/590/590 649/649/649
f 591/591/591 594/594/594 658/658/658
f 593/593/593 597/597/597 659/659/659
f 596/596/596 599/599/599 652/652/652
f 600/600/600 602/602/602 650/650/650
f 603/603/603 606/606/606 665/665/665
f 605/605/605 608/608/608 645/645/645
f 609/609/609 612/612/612 651/651/651
f 611/611/611 615/615/615 662/662/662
f 614/614/614 618/618/618 666/666/666
f 617/617/617 620/620/620 663/663/663
f 621/621/621 623/623/623 653/653/653
f 623/623/623 626/626/626 653/653/653
f 655/655/655 625/625/625 668/668/668
f 671/671/671 627/627/627 672/672/672
f 627/627/627 628/628/628 672/672/672
f 629/629/629 630/630/630 675/675/675
f 630/630/630 632/632/632 675/675/675
f 674/674/674 633/633/633 676/676/676
f 633/633/633 637/637/637 676/676/676
f 637/637/637 638/638/638 676/676/676
f 677/677/677 639/639/639 680/680/680
f 639/639/639 640/640/640 680/680/680
f 641/641/641 653/653/653 679/679/679
f 643/643/643 669/669/669 678/678/678
f 670/670/670 673/673/673 680/680/680
f 677/677/677 680/680/680 673/673/673

