mtllib material.mtl
usemtl Material-Metal.005
v -0.04012900 -0.07812500 0.02324900
v -0.04353300 -0.07834100 0.02260400
v -0.04394300 -0.07796600 0.02297200
v -0.04564600 -0.07861300 0.02483300
v -0.04606400 -0.07856300 0.02634300
v -0.04599200 -0.07909500 0.02668000
v -0.03894900 -0.07900500 0.02663600
v -0.03894100 -0.07857700 0.02641900
v -0.04404300 -0.07915900 0.02913700
v -0.04103000 -0.07918000 0.02934000
v -0.03818900 -0.08616700 0.02439100
v -0.03921800 -0.08571300 0.02189200
v -0.03989600 -0.08565500 0.02160800
v -0.03969900 -0.11843400 0.01578200
v -0.04245000 -0.11899400 0.01895400
v -0.04280300 -0.11823600 0.01472900
v -0.04574000 -0.11851400 0.01621500
v -0.03834400 -0.11882300 0.01798900
v -0.04666200 -0.11909800 0.01953700
v -0.03871100 -0.11935700 0.02099600
v -0.04476700 -0.11962600 0.02259800
v -0.04069100 -0.11966400 0.02280200
v -0.04490400 -0.11600900 0.01538500
v -0.04147800 -0.11579800 0.01477800
v -0.03858500 -0.11620800 0.01666900
v -0.04687000 -0.11640600 0.01758600
v -0.04363900 -0.11766400 0.02390500
v -0.04689300 -0.11705000 0.02148300
v -0.03841200 -0.11707400 0.02177800
v -0.04087200 -0.11751000 0.02380500
v -0.03773700 -0.11676800 0.01948700
v -0.04521500 -0.11597500 0.01600400
v -0.04255900 -0.11572500 0.01466800
v -0.04014800 -0.11591400 0.01543500
v -0.03819600 -0.11624700 0.01735000
v -0.04665900 -0.11657600 0.01813700
v -0.04696700 -0.11676600 0.02076600
v -0.03787900 -0.11676400 0.02039000
v -0.03892800 -0.11721500 0.02240100
v -0.04556300 -0.11721800 0.02273900
v -0.04314200 -0.11750500 0.02360000
v -0.04057400 -0.11754200 0.02315000
v -0.04245500 -0.11583700 0.01510600
v -0.03979400 -0.11606500 0.01613900
v -0.03842300 -0.11637300 0.01795400
v -0.03842200 -0.11689400 0.02091700
v -0.04603900 -0.11710100 0.02181200
v -0.04543200 -0.10057900 0.01854100
v -0.04649700 -0.11078100 0.01918900
v -0.04676900 -0.10116100 0.02038800
v -0.04698100 -0.10254800 0.02265100
v -0.03964200 -0.10175500 0.02585100
v -0.03950200 -0.11154200 0.02341800
v -0.03828600 -0.10181200 0.02389300
v -0.04179800 -0.11164000 0.02453100
v -0.04260500 -0.10197000 0.02671700
v -0.04404400 -0.10307400 0.02608900
v -0.04044800 -0.10163600 0.01789100
v -0.04051500 -0.11054500 0.01660800
v -0.04263900 -0.10048800 0.01751000
v -0.04275500 -0.11044900 0.01612700
v -0.04524200 -0.11044500 0.01708300
v -0.03856800 -0.10191500 0.01950800
v -0.03890100 -0.11065600 0.01797700
v -0.03790900 -0.10236000 0.02179100
v -0.03811600 -0.11117700 0.02069100
v -0.04661100 -0.11135500 0.02139600
v -0.04572100 -0.10292100 0.02499200
v -0.04545100 -0.11162000 0.02333100
v -0.04396000 -0.11193300 0.02424100
v -0.04453000 -0.09940800 0.01812500
v -0.04623400 -0.10006900 0.01948100
v -0.04154300 -0.10009500 0.01764400
v -0.04708600 -0.10194800 0.02243900
v -0.03929800 -0.10151300 0.01862800
v -0.03805800 -0.10125200 0.02371000
v -0.04039900 -0.10099500 0.02660100
v -0.04452100 -0.10226800 0.02613300
v -0.03797900 -0.10195300 0.02093100
v -0.04595900 -0.10270300 0.02469900
v -0.04302500 -0.09288000 0.02052900
v -0.04000600 -0.09266400 0.01942000
v -0.04530900 -0.09267900 0.01948900
v -0.03973800 -0.09314400 0.02199800
v -0.04509800 -0.09317400 0.02223100
v -0.03770300 -0.09335000 0.02324700
v -0.04708800 -0.09358300 0.02455400
v -0.04504500 -0.09369100 0.02516400
v -0.04002200 -0.09367200 0.02505500
v -0.03904900 -0.09415100 0.02660900
v -0.04174900 -0.09389800 0.02634900
v -0.04175100 -0.09420600 0.02809800
v -0.04524100 -0.09404100 0.02715300
v -0.04108100 -0.09321600 0.01888800
v -0.04380300 -0.09323200 0.01901100
v -0.04553800 -0.09340100 0.01988600
v -0.03850300 -0.09353900 0.02083700
v -0.04683700 -0.09370600 0.02183900
v -0.03770900 -0.09412500 0.02393200
v -0.04205300 -0.09863300 0.01773700
v -0.04447300 -0.09481300 0.01880700
v -0.04398800 -0.09700000 0.01825400
v -0.03957800 -0.09866300 0.01874400
v -0.04711100 -0.09413300 0.02407900
v -0.04489700 -0.09496300 0.01893600
v -0.03806200 -0.09909200 0.02063100
v -0.04625500 -0.09886100 0.01970700
v -0.04720000 -0.09941600 0.02207400
v -0.04582700 -0.09456000 0.02660700
v -0.03785000 -0.09969500 0.02388000
v -0.04105300 -0.09483000 0.02783200
v -0.04355100 -0.09481800 0.02784300
v -0.04650000 -0.09975700 0.02483300
v -0.03982200 -0.10001500 0.02630200
v -0.04479000 -0.10004400 0.02651800
v -0.04228500 -0.10013900 0.02708800
v -0.04555800 -0.09683900 0.01909100
v -0.04245000 -0.07852300 0.02611500
v -0.04018400 -0.08071100 0.02241700
v -0.04561600 -0.08105300 0.02323800
v -0.03890200 -0.08101600 0.02579300
v -0.04516800 -0.08165800 0.02832300
v -0.04094400 -0.08180100 0.02926000
v -0.03839200 -0.08144900 0.02516500
v -0.03904100 -0.08198200 0.02771300
v -0.04344400 -0.08225400 0.02943400
v -0.03915400 -0.08661200 0.02708300
v -0.04366900 -0.08687400 0.02856100
v -0.04536300 -0.08668400 0.02738200
v -0.04117400 -0.08686900 0.02857700
v -0.04546100 -0.08570200 0.02192700
v -0.04259900 -0.08548900 0.02076200
v -0.04187600 -0.08534900 0.01998500
v -0.04573700 -0.08558900 0.02128900
v -0.04733800 -0.08629400 0.02533600
v -0.04657700 -0.08626900 0.02509300
v -0.03869500 -0.08675300 0.02787200
v -0.04542500 -0.08705200 0.02870600
v -0.04296100 -0.08721100 0.02967600
v -0.04493000 -0.08572000 0.02034400
v -0.04135600 -0.08563300 0.01974200
v -0.04724000 -0.08621100 0.02296000
v -0.03809800 -0.08601800 0.02196800
v -0.04722900 -0.08679900 0.02641000
v -0.03754300 -0.08673000 0.02614200
v -0.03994900 -0.08726300 0.02907700
v -0.04685200 -0.09142000 0.02118200
v -0.04698000 -0.08980600 0.02571000
v -0.04714300 -0.08935300 0.02326600
v -0.04692300 -0.09233500 0.02620800
v -0.04707800 -0.08982700 0.02624100
v -0.04240900 -0.09098200 0.01871300
v -0.04664100 -0.08910700 0.02138600
v -0.04370500 -0.08861500 0.01964300
v -0.03872400 -0.08899700 0.02119400
v -0.03805600 -0.09141500 0.02120800
v -0.04198100 -0.08866800 0.01930700
v -0.03823500 -0.08886000 0.02139600
v -0.03805300 -0.09006200 0.02673500
v -0.03804500 -0.09231300 0.02628700
v -0.03788000 -0.08924200 0.02278000
v -0.04247600 -0.09277100 0.02878400
v -0.04089000 -0.09019000 0.02868900
v -0.04309300 -0.09042000 0.02894800
v -0.04578200 -0.09019000 0.02753900
v -0.03821400 -0.09254500 0.02615200
v -0.04255000 -0.09296500 0.02854100
v -0.04671600 -0.09251800 0.02603800
v -0.04663600 -0.09167100 0.02120700
v -0.03821100 -0.09168200 0.02131700
v -0.04232100 -0.09126100 0.01888600
v -0.04353700 -0.09162200 0.02099100
v -0.04040600 -0.09170300 0.02149500
v -0.04546800 -0.09210100 0.02365200
v -0.03961700 -0.09225100 0.02455600
v -0.04154500 -0.09262200 0.02656500
v -0.04387200 -0.09256500 0.02626700
v -0.04401400 -0.08845600 0.01941200
v -0.04059300 -0.08860500 0.01956100
v -0.04748100 -0.08938700 0.02380300
v -0.03736200 -0.08944100 0.02411800
v -0.03810900 -0.08988000 0.02674100
v -0.04481700 -0.09025800 0.02860900
v -0.04062300 -0.09042800 0.02896000
vn 0.51260000 0.72180000 -0.46500000
vn -0.21420000 0.45140000 -0.86620000
vn -0.44980000 0.72560000 -0.52080000
vn -0.80790000 0.50320000 -0.30680000
vn -0.81710000 0.56710000 0.10350000
vn -0.94590000 0.11430000 0.30360000
vn 0.96350000 0.07140000 0.25820000
vn 0.80260000 0.59390000 0.05670000
vn -0.32450000 0.52330000 0.78800000
vn 0.31410000 0.53060000 0.78730000
vn 0.77940000 0.62640000 0.01410000
vn 0.16760000 0.98570000 -0.01500000
vn 0.38250000 0.86700000 -0.31930000
vn 0.43430000 -0.61450000 -0.65860000
vn -0.00010000 -0.98490000 -0.17340000
vn -0.05950000 -0.57160000 -0.81840000
vn -0.53440000 -0.62890000 -0.56470000
vn 0.66920000 -0.68980000 -0.27630000
vn -0.68530000 -0.72650000 -0.05130000
vn 0.60790000 -0.76730000 0.20430000
vn -0.37200000 -0.79640000 0.47680000
vn 0.27330000 -0.81850000 0.50540000
vn -0.45320000 0.55010000 -0.70140000
vn 0.20910000 0.64120000 -0.73840000
vn 0.71910000 0.49930000 -0.48330000
vn -0.77960000 0.60960000 -0.14360000
vn -0.20260000 0.26160000 0.94370000
vn -0.81750000 0.29610000 0.49390000
vn 0.67270000 0.48290000 0.56070000
vn 0.29170000 0.50400000 0.81300000
vn 0.95420000 0.29690000 0.03620000
vn -0.56950000 0.62510000 -0.53380000
vn -0.04530000 0.32900000 -0.94320000
vn 0.53350000 0.24340000 -0.81000000
vn 0.90960000 0.31150000 -0.27500000
vn -0.39500000 0.91870000 -0.00750000
vn -0.77470000 0.62750000 0.07780000
vn 0.85510000 0.38040000 0.35220000
vn -0.84600000 0.07490000 -0.52780000
vn -0.58430000 0.22550000 0.77960000
vn -0.12450000 0.57150000 0.81110000
vn 0.17590000 0.81310000 0.55490000
vn 0.02460000 0.90220000 -0.43070000
vn 0.36230000 0.86960000 -0.33540000
vn 0.56560000 0.82230000 -0.06310000
vn 0.54600000 0.74190000 0.38920000
vn -0.26280000 0.88920000 0.37460000
vn -0.61620000 0.10570000 -0.78050000
vn -0.95710000 0.03580000 -0.28750000
vn -0.94970000 0.20780000 -0.23410000
vn -0.97520000 -0.06650000 0.21090000
vn 0.64490000 -0.09460000 0.75840000
vn 0.70060000 -0.13700000 0.70030000
vn 0.88560000 -0.16240000 0.43510000
vn 0.16740000 -0.17930000 0.96940000
vn -0.12420000 0.24450000 0.96170000
vn -0.36840000 -0.23630000 0.89910000
vn 0.44480000 0.11980000 -0.88760000
vn 0.44490000 0.14580000 -0.88360000
vn -0.07470000 0.20460000 -0.97600000
vn -0.07510000 0.16560000 -0.98330000
vn -0.64350000 0.11760000 -0.75630000
vn 0.83460000 0.30870000 -0.45630000
vn 0.83850000 0.08640000 -0.53800000
vn 0.99970000 -0.00150000 -0.02290000
vn 0.99590000 -0.02410000 0.08680000
vn -0.97080000 -0.05150000 0.23440000
vn -0.73580000 -0.08110000 0.67230000
vn -0.71120000 -0.13630000 0.68960000
vn -0.34340000 -0.17450000 0.92280000
vn -0.41240000 0.07340000 -0.90800000
vn -0.82700000 0.04560000 -0.56040000
vn 0.25150000 0.13700000 -0.95810000
vn -0.99150000 -0.12390000 0.03910000
vn 0.64500000 -0.18070000 -0.74250000
vn 0.92360000 -0.16350000 0.34660000
vn 0.40500000 -0.20710000 0.89060000
vn -0.44970000 -0.22750000 0.86370000
vn 0.93230000 -0.22940000 -0.27980000
vn -0.82580000 -0.23570000 0.51240000
vn -0.06570000 0.92910000 -0.36410000
vn 0.46340000 0.64560000 -0.60700000
vn -0.48130000 0.61710000 -0.62250000
vn 0.44660000 0.89210000 -0.06860000
vn -0.48720000 0.86550000 -0.11620000
vn 0.80210000 0.59710000 0.00520000
vn -0.76970000 0.55720000 0.31160000
vn -0.41500000 0.80280000 0.42810000
vn 0.53170000 0.69550000 0.48320000
vn 0.58940000 0.51390000 0.62330000
vn 0.11040000 0.68790000 0.71730000
vn 0.08430000 0.47440000 0.87620000
vn -0.42370000 0.51760000 0.74330000
vn 0.20620000 0.38640000 -0.89900000
vn -0.16100000 0.36520000 -0.91690000
vn -0.71880000 0.02570000 -0.69480000
vn 0.81450000 0.34830000 -0.46390000
vn -0.88410000 0.39310000 -0.25260000
vn 0.97400000 0.11620000 0.19430000
vn 0.09070000 0.11300000 -0.98940000
vn -0.30740000 0.23980000 -0.92090000
vn -0.25870000 0.15890000 -0.95280000
vn 0.59270000 0.10790000 -0.79820000
vn -0.99230000 -0.01090000 0.12320000
vn -0.52780000 0.20050000 -0.82540000
vn 0.93180000 0.04020000 -0.36070000
vn -0.82950000 0.06970000 -0.55410000
vn -0.99600000 -0.02280000 -0.08650000
vn -0.73790000 -0.00440000 0.67490000
vn 0.94730000 -0.09910000 0.30470000
vn 0.33490000 -0.06860000 0.93970000
vn -0.24810000 0.01180000 0.96870000
vn -0.86460000 -0.11490000 0.48910000
vn 0.61550000 -0.16520000 0.77070000
vn -0.48670000 -0.17710000 0.85540000
vn 0.02340000 -0.24850000 0.96830000
vn -0.83570000 0.23540000 -0.49620000
vn 0.00480000 0.98360000 0.18040000
vn 0.57390000 0.24700000 -0.78080000
vn -0.81680000 0.20400000 -0.53970000
vn 0.90930000 0.39520000 0.13020000
vn -0.69660000 0.00280000 0.71750000
vn 0.38320000 0.00010000 0.92370000
vn 0.90590000 0.41370000 -0.09090000
vn 0.75960000 0.32640000 0.56260000
vn -0.22640000 0.28650000 0.93100000
vn 0.50900000 0.70020000 0.50060000
vn -0.22200000 0.59820000 0.77000000
vn -0.50830000 0.63970000 0.57650000
vn 0.21940000 0.57660000 0.78700000
vn -0.41530000 0.87470000 -0.24960000
vn -0.02730000 0.89360000 -0.44810000
vn -0.01120000 0.89910000 -0.43750000
vn -0.53370000 0.76580000 -0.35890000
vn -0.80290000 0.58070000 0.13480000
vn -0.56190000 0.80440000 0.19300000
vn 0.67700000 0.38820000 0.62520000
vn -0.48190000 0.49880000 0.72040000
vn -0.07540000 0.45820000 0.88560000
vn -0.41710000 0.58970000 -0.69160000
vn 0.25690000 0.54250000 -0.79990000
vn -0.82030000 0.52730000 -0.22160000
vn 0.72050000 0.59890000 -0.34960000
vn -0.83350000 0.36600000 0.41390000
vn 0.81910000 0.48680000 0.30350000
vn 0.42140000 0.37660000 0.82500000
vn -0.81270000 -0.25980000 -0.52150000
vn -0.86490000 -0.48890000 -0.11350000
vn -0.69860000 -0.70120000 -0.14240000
vn -0.80490000 -0.46010000 0.37470000
vn -0.93190000 -0.13960000 0.33480000
vn -0.00620000 -0.16720000 -0.98590000
vn -0.79620000 0.07080000 -0.60090000
vn -0.25160000 -0.45730000 -0.85300000
vn 0.47090000 -0.24350000 -0.84790000
vn 0.80470000 -0.24380000 -0.54130000
vn 0.13830000 0.63590000 -0.75920000
vn 0.78270000 0.02630000 -0.62180000
vn 0.83890000 0.00510000 0.54430000
vn 0.82360000 -0.38140000 0.41970000
vn 0.88040000 -0.40950000 -0.23910000
vn 0.01100000 -0.48860000 0.87250000
vn 0.25370000 -0.95790000 0.13460000
vn -0.16880000 0.39390000 0.90350000
vn -0.63130000 -0.31200000 0.71000000
vn 0.47090000 -0.87330000 0.12470000
vn -0.06280000 -0.92900000 0.36480000
vn -0.39040000 -0.91970000 0.04080000
vn -0.41450000 -0.79570000 -0.44170000
vn 0.47040000 -0.80190000 -0.36840000
vn 0.07350000 -0.74930000 -0.65810000
vn -0.23420000 -0.71130000 -0.66270000
vn 0.32180000 -0.76620000 -0.55620000
vn -0.54580000 -0.82090000 -0.16820000
vn 0.53910000 -0.84220000 -0.01050000
vn 0.18500000 -0.90010000 0.39450000
vn -0.25210000 -0.90650000 0.33860000
vn -0.25490000 -0.36640000 -0.89490000
vn 0.32330000 -0.43160000 -0.84220000
vn -0.79690000 -0.58630000 -0.14540000
vn 0.80750000 -0.57340000 -0.13860000
vn 0.81920000 0.04150000 0.57200000
vn -0.37710000 -0.67700000 0.63200000
vn 0.19670000 -0.86300000 0.46530000
f 1//1 2//2 3//3
f 2//2 4//4 3//3
f 4//4 5//5 3//3
f 4//4 6//6 5//5
f 7//7 1//1 8//8
f 6//6 9//9 5//5
f 10//10 7//7 8//8
f 11//11 12//12 13//13
f 14//14 15//15 16//16
f 15//15 19//19 17//17
f 18//18 15//15 14//14
f 20//20 15//15 18//18
f 15//15 22//22 21//21
f 20//20 22//22 15//15
f 16//16 23//23 24//24
f 17//17 23//23 16//16
f 14//14 16//16 24//24
f 25//25 14//14 24//24
f 17//17 26//26 23//23
f 21//21 27//27 28//28
f 22//22 20//20 29//29
f 18//18 14//14 25//25
f 31//31 18//18 25//25
f 27//27 22//22 30//30
f 17//17 19//19 26//26
f 19//19 28//28 26//26
f 20//20 18//18 31//31
f 29//29 20//20 31//31
f 19//19 21//21 28//28
f 21//21 22//22 27//27
f 23//23 32//32 33//33
f 34//34 24//24 33//33
f 24//24 23//23 33//33
f 34//34 25//25 24//24
f 35//35 25//25 34//34
f 26//26 36//36 32//32
f 23//23 26//26 32//32
f 26//26 37//37 36//36
f 35//35 31//31 25//25
f 26//26 28//28 37//37
f 38//38 31//31 35//35
f 38//38 29//29 31//31
f 39//39 29//29 38//38
f 28//28 40//40 37//37
f 39//39 30//30 29//29
f 27//27 41//41 40//40
f 42//42 30//30 39//39
f 28//28 27//27 40//40
f 41//41 30//30 42//42
f 27//27 30//30 41//41
f 32//32 43//43 33//33
f 43//43 34//34 33//33
f 44//44 34//34 43//43
f 44//44 35//35 34//34
f 45//45 35//35 44//44
f 38//38 35//35 45//45
f 46//46 38//38 45//45
f 37//37 47//47 36//36
f 39//39 38//38 46//46
f 40//40 47//47 37//37
f 42//42 39//39 46//46
f 40//40 41//41 47//47
f 48//48 62//62 50//50
f 49//49 51//51 50//50
f 52//52 53//53 54//54
f 55//55 53//53 52//52
f 56//56 55//55 52//52
f 57//57 55//55 56//56
f 59//59 61//61 58//58
f 61//61 62//62 60//60
f 64//64 59//59 58//58
f 66//66 64//64 65//65
f 49//49 67//67 51//51
f 54//54 66//66 65//65
f 53//53 66//66 54//54
f 67//67 69//69 68//68
f 69//69 70//70 57//57
f 70//70 55//55 57//57
f 59//59 43//43 61//61
f 43//43 32//32 61//61
f 44//44 43//43 59//59
f 64//64 44//44 59//59
f 45//45 44//44 64//64
f 36//36 49//49 32//32
f 66//66 45//45 64//64
f 36//36 67//67 49//49
f 46//46 45//45 66//66
f 36//36 47//47 67//67
f 53//53 46//46 66//66
f 47//47 69//69 67//67
f 42//42 46//46 53//53
f 47//47 41//41 70//70
f 55//55 42//42 53//53
f 41//41 55//55 70//70
f 41//41 42//42 55//55
f 60//60 48//48 71//71
f 48//48 72//72 71//71
f 73//73 60//60 71//71
f 48//48 50//50 72//72
f 58//58 60//60 73//73
f 50//50 74//74 72//72
f 75//75 58//58 73//73
f 52//52 76//76 77//77
f 52//52 54//54 76//76
f 56//56 52//52 77//77
f 63//63 58//58 75//75
f 54//54 65//65 76//76
f 50//50 51//51 74//74
f 78//78 56//56 77//77
f 65//65 79//79 76//76
f 79//79 63//63 75//75
f 65//65 63//63 79//79
f 57//57 56//56 78//78
f 68//68 57//57 78//78
f 51//51 80//80 74//74
f 80//80 68//68 78//78
f 51//51 68//68 80//80
f 81//81 82//82 83//83
f 81//81 84//84 82//82
f 85//85 81//81 83//83
f 84//84 86//86 82//82
f 87//87 85//85 83//83
f 87//87 88//88 85//85
f 89//89 86//86 84//84
f 89//89 90//90 86//86
f 91//91 92//92 89//89
f 92//92 90//90 89//89
f 87//87 93//93 88//88
f 88//88 93//93 91//91
f 82//82 94//94 83//83
f 94//94 95//95 83//83
f 95//95 96//96 83//83
f 97//97 94//94 82//82
f 86//86 97//97 82//82
f 96//96 98//98 83//83
f 99//99 97//97 86//86
f 100//100 102//102 94//94
f 98//98 87//87 83//83
f 101//101 96//96 95//95
f 102//102 101//101 95//95
f 103//103 100//100 94//94
f 97//97 103//103 94//94
f 98//98 104//104 87//87
f 101//101 105//105 96//96
f 106//106 103//103 97//97
f 105//105 107//107 96//96
f 107//107 98//98 96//96
f 90//90 99//99 86//86
f 107//107 108//108 98//98
f 99//99 106//106 97//97
f 108//108 104//104 98//98
f 109//109 93//93 87//87
f 104//104 109//109 87//87
f 110//110 106//106 99//99
f 92//92 111//111 90//90
f 112//112 92//92 93//93
f 109//109 112//112 93//93
f 112//112 111//111 92//92
f 108//108 113//113 104//104
f 113//113 109//109 104//104
f 90//90 110//110 99//99
f 114//114 110//110 90//90
f 113//113 115//115 109//109
f 111//111 114//114 90//90
f 115//115 112//112 109//109
f 115//115 116//116 112//112
f 116//116 111//111 112//112
f 100//100 71//71 102//102
f 71//71 117//117 102//102
f 117//117 107//107 105//105
f 71//71 107//107 117//117
f 111//111 116//116 114//114
f 73//73 71//71 100//100
f 103//103 75//75 100//100
f 75//75 73//73 100//100
f 72//72 107//107 71//71
f 106//106 75//75 103//103
f 72//72 108//108 107//107
f 79//79 75//75 106//106
f 72//72 74//74 108//108
f 110//110 79//79 106//106
f 76//76 79//79 110//110
f 74//74 113//113 108//108
f 80//80 78//78 115//115
f 74//74 80//80 113//113
f 77//77 76//76 110//110
f 114//114 77//77 110//110
f 116//116 77//77 114//114
f 78//78 116//116 115//115
f 78//78 77//77 116//116
f 102//102 105//105 101//101
f 102//102 117//117 105//105
f 118//118 1//1 3//3
f 5//5 118//118 3//3
f 118//118 8//8 1//1
f 5//5 9//9 118//118
f 10//10 8//8 118//118
f 9//9 10//10 118//118
f 119//119 2//2 1//1
f 120//120 4//4 2//2
f 121//121 119//119 1//1
f 120//120 6//6 4//4
f 122//122 9//9 6//6
f 10//10 123//123 7//7
f 123//123 121//121 7//7
f 123//123 10//10 9//9
f 122//122 123//123 9//9
f 121//121 124//124 119//119
f 125//125 124//124 121//121
f 123//123 125//125 121//121
f 126//126 123//123 122//122
f 125//125 11//11 124//124
f 127//127 11//11 125//125
f 123//123 130//130 125//125
f 122//122 129//129 126//126
f 126//126 130//130 123//123
f 128//128 130//130 126//126
f 133//133 134//134 132//132
f 13//13 12//12 133//133
f 132//132 13//13 133//133
f 135//135 131//131 134//134
f 135//135 136//136 131//131
f 127//127 137//137 11//11
f 135//135 129//129 136//136
f 138//138 129//129 135//135
f 130//130 137//137 127//127
f 138//138 128//128 129//129
f 139//139 137//137 130//130
f 128//128 139//139 130//130
f 138//138 139//139 128//128
f 140//140 134//134 133//133
f 141//141 140//140 133//133
f 12//12 141//141 133//133
f 140//140 142//142 134//134
f 143//143 141//141 12//12
f 142//142 135//135 134//134
f 11//11 143//143 12//12
f 142//142 144//144 135//135
f 145//145 143//143 11//11
f 137//137 145//145 11//11
f 144//144 138//138 135//135
f 146//146 145//145 137//137
f 139//139 146//146 137//137
f 147//147 148//148 149//149
f 147//147 150//150 148//148
f 150//150 151//151 148//148
f 152//152 147//147 154//154
f 156//156 152//152 155//155
f 156//156 155//155 158//158
f 159//159 160//160 161//161
f 160//160 156//156 161//161
f 161//161 156//156 158//158
f 152//152 154//154 157//157
f 162//162 163//163 164//164
f 147//147 149//149 153//153
f 150//150 165//165 151//151
f 162//162 160//160 159//159
f 163//163 162//162 159//159
f 162//162 166//166 160//160
f 162//162 167//167 166//166
f 150//150 164//164 165//165
f 150//150 162//162 164//164
f 168//168 167//167 150//150
f 167//167 162//162 150//150
f 169//169 150//150 147//147
f 168//168 150//150 169//169
f 160//160 166//166 156//156
f 166//166 170//170 156//156
f 156//156 170//170 152//152
f 170//170 171//171 152//152
f 172//172 169//169 171//171
f 170//170 173//173 171//171
f 173//173 172//172 171//171
f 172//172 174//174 169//169
f 174//174 168//168 169//169
f 166//166 175//175 170//170
f 175//175 173//173 170//170
f 166//166 176//176 175//175
f 177//177 168//168 174//174
f 167//167 168//168 177//177
f 166//166 167//167 176//176
f 176//176 167//167 177//177
f 171//171 147//147 152//152
f 169//169 147//147 171//171
f 119//119 132//132 2//2
f 131//131 120//120 2//2
f 132//132 131//131 2//2
f 13//13 132//132 119//119
f 136//136 6//6 120//120
f 131//131 136//136 120//120
f 124//124 11//11 13//13
f 6//6 136//136 122//122
f 136//136 129//129 122//122
f 178//178 140//140 141//141
f 179//179 178//178 141//141
f 143//143 158//158 179//179
f 153//153 142//142 140//140
f 178//178 153//153 140//140
f 153//153 180//180 142//142
f 145//145 181//181 143//143
f 181//181 158//158 143//143
f 180//180 144//144 142//142
f 180//180 151//151 144//144
f 182//182 181//181 145//145
f 151//151 138//138 144//144
f 146//146 182//182 145//145
f 151//151 183//183 138//138
f 184//184 182//182 146//146
f 183//183 139//139 138//138
f 139//139 184//184 146//146
f 183//183 184//184 139//139
f 179//179 155//155 157//157
f 179//179 154//154 178//178
f 157//157 154//154 179//179
f 154//154 153//153 178//178
f 158//158 155//155 179//179
f 149//149 180//180 153//153
f 181//181 161//161 158//158
f 159//159 161//161 181//181
f 149//149 151//151 180//180
f 182//182 159//159 181//181
f 148//148 151//151 149//149
f 165//165 183//183 151//151
f 184//184 163//163 182//182
f 163//163 159//159 182//182
f 165//165 164//164 183//183
f 164//164 184//184 183//183
f 164//164 163//163 184//184
f 173//173 81//81 172//172
f 84//84 81//81 173//173
f 81//81 85//85 172//172
f 85//85 174//174 172//172
f 175//175 84//84 173//173
f 85//85 88//88 174//174
f 176//176 89//89 175//175
f 89//89 84//84 175//175
f 88//88 177//177 174//174
f 91//91 89//89 176//176
f 88//88 91//91 177//177
f 91//91 176//176 177//177
f 15//15 17//17 16//16
f 15//15 21//21 19//19
f 22//22 29//29 30//30
f 62//62 49//49 50//50
f 61//61 60//60 58//58
f 62//62 48//48 60//60
f 64//64 58//58 63//63
f 64//64 63//63 65//65
f 67//67 68//68 51//51
f 69//69 57//57 68//68
f 32//32 62//62 61//61
f 49//49 62//62 32//32
f 47//47 70//70 69//69
f 93//93 92//92 91//91
f 102//102 95//95 94//94
f 80//80 115//115 113//113
f 121//121 1//1 7//7
f 130//130 127//127 125//125
f 129//129 128//128 126//126
f 134//134 131//131 132//132
f 147//147 153//153 154//154
f 152//152 157//157 155//155
f 124//124 13//13 119//119
f 143//143 179//179 141//141

