mtllib material.mtl
usemtl Material-Metal.006
v -0.03891500 -0.07874600 -0.02503400
v -0.03894100 -0.07846400 -0.02590200
v -0.04057500 -0.07806300 -0.02312100
v -0.04597000 -0.07852400 -0.02628700
v -0.04505300 -0.07841100 -0.02381200
v -0.04372400 -0.07796200 -0.02278400
v -0.04602400 -0.07894400 -0.02660500
v -0.03904200 -0.07905700 -0.02714400
v -0.04078800 -0.07920400 -0.02935400
v -0.04417300 -0.07910900 -0.02912500
v -0.04516900 -0.08668200 -0.02764600
v -0.04614000 -0.08672000 -0.02783300
v -0.04653300 -0.08623800 -0.02517500
v -0.04245000 -0.11897200 -0.01899400
v -0.03970500 -0.11838000 -0.01570000
v -0.04335200 -0.11822300 -0.01476700
v -0.04613700 -0.11859300 -0.01687200
v -0.03802000 -0.11898700 -0.01922400
v -0.04660900 -0.11908200 -0.01961900
v -0.03988600 -0.11955300 -0.02230100
v -0.04281100 -0.11970600 -0.02314600
v -0.04558800 -0.11946900 -0.02187600
v -0.04026400 -0.11596500 -0.01534400
v -0.04271700 -0.11581200 -0.01472900
v -0.04587500 -0.11602300 -0.01620700
v -0.03849500 -0.11617900 -0.01688600
v -0.04735400 -0.11669000 -0.01950800
v -0.03768700 -0.11669700 -0.01950100
v -0.03877100 -0.11725200 -0.02234500
v -0.04584100 -0.11724700 -0.02264500
v -0.04376400 -0.11747400 -0.02380200
v -0.04170100 -0.11754500 -0.02402700
v -0.04092700 -0.11579700 -0.01505700
v -0.04400500 -0.11576900 -0.01499000
v -0.03854300 -0.11609200 -0.01677000
v -0.04633000 -0.11619300 -0.01683500
v -0.04680500 -0.11690200 -0.01931900
v -0.03814500 -0.11687600 -0.01991100
v -0.04674000 -0.11688500 -0.02109300
v -0.03843000 -0.11700100 -0.02189700
v -0.04535600 -0.11724800 -0.02311500
v -0.04072500 -0.11741900 -0.02369000
v -0.04300700 -0.11736800 -0.02399100
v -0.04120500 -0.11590500 -0.01532100
v -0.04401500 -0.11591200 -0.01553500
v -0.04584800 -0.11616800 -0.01681600
v -0.03875100 -0.11623100 -0.01728300
v -0.04598000 -0.11704300 -0.02177700
v -0.03945000 -0.11713000 -0.02239500
v -0.04404800 -0.11728700 -0.02326500
v -0.04182400 -0.11734700 -0.02357600
v -0.04190200 -0.11021600 -0.01619100
v -0.04158600 -0.10064800 -0.01759100
v -0.04393300 -0.10039200 -0.01777800
v -0.03939100 -0.10179300 -0.01852900
v -0.03799600 -0.10246100 -0.02280400
v -0.03922300 -0.11147000 -0.02314700
v -0.03840300 -0.10153600 -0.02444500
v -0.04074000 -0.10184300 -0.02648400
v -0.04115000 -0.11162300 -0.02437100
v -0.04306900 -0.10222700 -0.02652600
v -0.04480900 -0.11052200 -0.01686200
v -0.04630000 -0.10082500 -0.01955500
v -0.03933100 -0.11065800 -0.01745800
v -0.04638900 -0.11092700 -0.01876600
v -0.03804800 -0.10215600 -0.02082900
v -0.04694400 -0.10225000 -0.02148100
v -0.03829700 -0.11087900 -0.01946000
v -0.04662800 -0.11132000 -0.02135700
v -0.04657500 -0.10265100 -0.02389100
v -0.03830700 -0.11132900 -0.02124600
v -0.04538200 -0.11179200 -0.02337100
v -0.04487800 -0.10298500 -0.02569300
v -0.04342700 -0.11188500 -0.02447600
v -0.04281000 -0.09971300 -0.01762300
v -0.04492600 -0.09942500 -0.01835800
v -0.04681000 -0.10057400 -0.02052600
v -0.03960100 -0.10120300 -0.01837400
v -0.03981500 -0.10090900 -0.02629900
v -0.04697900 -0.10222500 -0.02283300
v -0.04343200 -0.10173700 -0.02665900
v -0.03782900 -0.10159500 -0.02250200
v -0.03819900 -0.10193000 -0.02048600
v -0.04569900 -0.10269300 -0.02513600
v -0.04212400 -0.09286200 -0.02061700
v -0.04468400 -0.09301500 -0.02144000
v -0.04437300 -0.09256600 -0.01898700
v -0.03906800 -0.09278500 -0.02018900
v -0.03962800 -0.09314200 -0.02221900
v -0.04724700 -0.09333500 -0.02337800
v -0.03781400 -0.09339900 -0.02253500
v -0.04516700 -0.09363800 -0.02496500
v -0.03885000 -0.09389500 -0.02652500
v -0.04035500 -0.09373400 -0.02559900
v -0.04517300 -0.09403800 -0.02733100
v -0.04238500 -0.09386900 -0.02635400
v -0.04153300 -0.09435800 -0.02797500
v -0.04381400 -0.09321200 -0.01895400
v -0.04145000 -0.09316400 -0.01891000
v -0.04548900 -0.09337100 -0.01994000
v -0.03937200 -0.09336300 -0.01986800
v -0.04703900 -0.09376400 -0.02214700
v -0.04471600 -0.09492400 -0.01884800
v -0.04277700 -0.09850400 -0.01782500
v -0.04021800 -0.09872100 -0.01828100
v -0.04507100 -0.09484900 -0.01914400
v -0.04673200 -0.09430300 -0.02533500
v -0.04668300 -0.09905600 -0.02027700
v -0.04546600 -0.09712000 -0.01907400
v -0.03823500 -0.09893600 -0.02034200
v -0.03801700 -0.09425400 -0.02483500
v -0.04715200 -0.09936600 -0.02289100
v -0.04448300 -0.09474600 -0.02763700
v -0.03769400 -0.09933200 -0.02266400
v -0.03935000 -0.09463400 -0.02691400
v -0.04631700 -0.09986000 -0.02515000
v -0.03853300 -0.09974700 -0.02505900
v -0.04363100 -0.10022000 -0.02704900
v -0.04051400 -0.10005100 -0.02669600
v -0.04395900 -0.09666300 -0.01823300
v -0.04245000 -0.07849200 -0.02610700
v -0.04262300 -0.08060800 -0.02179800
v -0.04525400 -0.08060300 -0.02366900
v -0.04642100 -0.08129400 -0.02576600
v -0.04389300 -0.08188800 -0.02919700
v -0.04530800 -0.08105100 -0.02260500
v -0.04526400 -0.08194200 -0.02833200
v -0.03852800 -0.08634800 -0.02576000
v -0.03864200 -0.08600700 -0.02371600
v -0.03978500 -0.08669500 -0.02778100
v -0.04255200 -0.08689200 -0.02881500
v -0.03936000 -0.08550000 -0.02098500
v -0.04269800 -0.08547000 -0.02077000
v -0.04369100 -0.08536800 -0.02017300
v -0.03997000 -0.08560600 -0.02149000
v -0.04559600 -0.08565900 -0.02207600
v -0.04689600 -0.08581200 -0.02271600
v -0.03744900 -0.08625300 -0.02435700
v -0.03792400 -0.08668500 -0.02692100
v -0.04173700 -0.08700900 -0.02953900
v -0.04140700 -0.08562500 -0.01977900
v -0.04488800 -0.08569200 -0.02032100
v -0.03844600 -0.08592600 -0.02162100
v -0.04692800 -0.08605200 -0.02234300
v -0.04746600 -0.08655900 -0.02513600
v -0.04659100 -0.08696800 -0.02755600
v -0.04002000 -0.08723400 -0.02911600
v -0.04364000 -0.08730600 -0.02959700
v -0.04232300 -0.09096500 -0.01872000
v -0.03820400 -0.08905900 -0.02147300
v -0.04073700 -0.08871200 -0.01977900
v -0.03795700 -0.09145000 -0.02132700
v -0.04551900 -0.08876200 -0.02064100
v -0.04681100 -0.09138600 -0.02111700
v -0.04260800 -0.08875100 -0.01917100
v -0.04698600 -0.08977100 -0.02571700
v -0.04697300 -0.09223000 -0.02608300
v -0.04687600 -0.08914700 -0.02170100
v -0.04706100 -0.08974500 -0.02625800
v -0.04238600 -0.09042500 -0.02920300
v -0.04259700 -0.09276400 -0.02878900
v -0.04607600 -0.09000200 -0.02725400
v -0.03777100 -0.08938800 -0.02317600
v -0.03810900 -0.09228900 -0.02639900
v -0.03811200 -0.09003000 -0.02674300
v -0.03823000 -0.09252700 -0.02621500
v -0.04261000 -0.09292400 -0.02850700
v -0.03818900 -0.09166900 -0.02139000
v -0.04239900 -0.09123800 -0.01889200
v -0.04675700 -0.09248800 -0.02604100
v -0.04667600 -0.09166200 -0.02128300
v -0.04420500 -0.09166000 -0.02136000
v -0.04090300 -0.09163500 -0.02116700
v -0.04544600 -0.09215700 -0.02423600
v -0.03949200 -0.09211000 -0.02386500
v -0.04047200 -0.09248900 -0.02599100
v -0.04323500 -0.09256600 -0.02652900
v -0.04010600 -0.08865200 -0.01978400
v -0.04488400 -0.08864900 -0.01983100
v -0.04740900 -0.08931500 -0.02374600
v -0.03738000 -0.08950700 -0.02456600
v -0.03874300 -0.09003000 -0.02757800
v -0.04522200 -0.09016700 -0.02839200
v -0.04168400 -0.09031900 -0.02912400
vn 0.88280000 0.38800000 0.26490000
vn 0.71960000 0.68310000 -0.12500000
vn 0.38510000 0.76600000 0.51470000
vn -0.76960000 0.63820000 -0.01720000
vn -0.72610000 0.53270000 0.43470000
vn -0.27870000 0.75960000 0.58770000
vn -0.94160000 0.20390000 -0.26790000
vn 0.82810000 0.37590000 -0.41590000
vn 0.33330000 0.51140000 -0.79210000
vn -0.39050000 0.53810000 -0.74690000
vn -0.42670000 0.68860000 -0.58630000
vn -0.41040000 0.69200000 -0.59390000
vn -0.98090000 0.12610000 -0.14780000
vn 0.00150000 -0.98470000 0.17420000
vn 0.44350000 -0.60250000 0.66360000
vn -0.14780000 -0.56010000 0.81510000
vn -0.59910000 -0.64070000 0.48010000
vn 0.71960000 -0.68900000 0.08660000
vn -0.66010000 -0.75120000 0.00670000
vn 0.41770000 -0.80920000 -0.41320000
vn -0.06550000 -0.84070000 -0.53750000
vn -0.51690000 -0.78190000 -0.34830000
vn 0.46600000 0.40700000 0.78560000
vn -0.02600000 0.59220000 0.80530000
vn -0.58350000 0.70170000 0.40890000
vn 0.89280000 -0.03470000 0.44920000
vn -0.75280000 0.64870000 -0.11200000
vn 0.76740000 0.62190000 -0.15620000
vn 0.70860000 0.09400000 -0.69930000
vn -0.71630000 0.22600000 -0.66020000
vn -0.32960000 0.02780000 -0.94370000
vn 0.18710000 0.18830000 -0.96410000
vn 0.20280000 0.52910000 0.82400000
vn -0.52980000 0.28780000 0.79780000
vn 0.67580000 0.53270000 0.50940000
vn 0.82510000 0.01230000 -0.56490000
vn -0.39530000 0.90390000 -0.16360000
vn 0.44640000 0.87830000 -0.17120000
vn -0.88910000 0.36090000 -0.28150000
vn 0.84240000 0.40650000 -0.35370000
vn -0.51930000 0.11030000 -0.84750000
vn 0.47110000 -0.02810000 -0.88160000
vn -0.09810000 0.39220000 -0.91460000
vn 0.16940000 0.92690000 0.33500000
vn -0.20940000 0.88180000 0.42270000
vn -0.54210000 0.80410000 0.24420000
vn 0.52680000 0.83840000 0.14000000
vn -0.47680000 0.74560000 -0.46550000
vn 0.42680000 0.69360000 -0.58030000
vn -0.25080000 0.68330000 -0.68570000
vn 0.13520000 0.64980000 -0.74790000
vn 0.11880000 0.15600000 0.98060000
vn 0.27410000 0.32170000 0.90630000
vn -0.34390000 0.11840000 0.93150000
vn 0.70280000 0.08980000 0.70570000
vn 0.98120000 -0.10450000 -0.16200000
vn 0.75240000 -0.13670000 -0.64440000
vn 0.83250000 0.33870000 -0.43850000
vn 0.30030000 -0.11770000 -0.94650000
vn 0.31150000 -0.18150000 -0.93280000
vn -0.08150000 -0.26170000 -0.96170000
vn -0.53470000 0.13290000 0.83450000
vn -0.80640000 0.12900000 0.57710000
vn 0.71070000 0.11620000 0.69380000
vn -0.92610000 0.05710000 0.37300000
vn 0.96280000 0.08170000 0.25760000
vn -0.99460000 -0.01980000 0.10160000
vn 0.97190000 0.03510000 0.23280000
vn -0.97410000 -0.04950000 -0.22060000
vn -0.86170000 0.17270000 -0.47720000
vn 0.97210000 -0.05300000 -0.22840000
vn -0.69420000 -0.13890000 -0.70630000
vn -0.53820000 -0.14620000 -0.83010000
vn -0.22270000 -0.18120000 -0.95790000
vn -0.04340000 0.10640000 0.99340000
vn -0.54820000 0.04770000 0.83500000
vn -0.95170000 0.01340000 0.30690000
vn 0.57640000 0.02620000 0.81680000
vn 0.56040000 -0.18620000 -0.80700000
vn -0.93390000 -0.33840000 -0.11530000
vn -0.17800000 -0.26990000 -0.94630000
vn 0.99330000 -0.08630000 -0.07710000
vn 0.90050000 -0.06930000 0.42930000
vn -0.67410000 -0.45610000 -0.58100000
vn 0.03460000 0.91490000 0.40220000
vn -0.40600000 0.89600000 0.17980000
vn -0.35540000 0.62850000 0.69190000
vn 0.61060000 0.67610000 0.41240000
vn 0.50370000 0.86260000 0.04690000
vn -0.84790000 0.51920000 -0.10750000
vn 0.77770000 0.62670000 0.04940000
vn -0.42590000 0.80870000 -0.40580000
vn 0.62200000 0.53000000 -0.57640000
vn 0.43950000 0.72030000 -0.53670000
vn -0.50940000 0.47140000 -0.71990000
vn 0.01810000 0.64740000 -0.76190000
vn 0.13170000 0.47070000 -0.87240000
vn -0.20240000 0.07430000 0.97650000
vn 0.20020000 0.49670000 0.84450000
vn -0.73380000 0.30920000 0.60490000
vn 0.63750000 0.14630000 0.75640000
vn -0.91680000 0.27770000 0.28680000
vn -0.43850000 0.20810000 0.87430000
vn -0.03230000 0.14610000 0.98870000
vn 0.45950000 0.11660000 0.88050000
vn -0.64100000 0.20660000 0.73920000
vn -0.87080000 0.18620000 -0.45500000
vn -0.89060000 0.01800000 0.45450000
vn -0.68150000 0.11700000 0.72240000
vn 0.88380000 0.05320000 0.46490000
vn 0.92530000 0.20250000 -0.32080000
vn -0.99660000 -0.04500000 -0.06870000
vn -0.37180000 -0.01250000 -0.92820000
vn 0.99830000 -0.03550000 -0.04570000
vn 0.61680000 -0.04050000 -0.78600000
vn -0.80110000 -0.12640000 -0.58500000
vn 0.83250000 -0.16990000 -0.52730000
vn -0.23400000 -0.21220000 -0.94880000
vn 0.34120000 -0.19060000 -0.92050000
vn -0.00570000 0.31430000 0.94930000
vn 0.00530000 0.98380000 -0.17940000
vn -0.05110000 0.27790000 0.95930000
vn -0.76090000 0.46330000 0.45420000
vn -0.98800000 0.14300000 -0.05900000
vn -0.35950000 -0.01810000 -0.93300000
vn -0.62630000 0.49540000 0.60190000
vn -0.64590000 0.42210000 -0.63610000
vn 0.65420000 0.70040000 -0.28550000
vn 0.65260000 0.75570000 0.05510000
vn 0.45080000 0.62490000 -0.63740000
vn -0.01100000 0.70090000 -0.71320000
vn 0.45280000 0.70110000 0.55080000
vn -0.03900000 0.88740000 0.45940000
vn -0.12830000 0.80040000 0.58560000
vn 0.34850000 0.88860000 0.29810000
vn -0.47830000 0.83160000 0.28240000
vn -0.57940000 0.81300000 0.05820000
vn 0.78360000 0.62060000 -0.02880000
vn 0.70550000 0.54360000 -0.45470000
vn 0.11460000 0.37630000 -0.91940000
vn 0.17270000 0.62280000 0.76310000
vn -0.44700000 0.58420000 0.67740000
vn 0.73520000 0.51400000 0.44200000
vn -0.82260000 0.36970000 0.43200000
vn -0.84640000 0.50680000 -0.16360000
vn -0.77250000 0.28350000 -0.56820000
vn 0.42740000 0.36300000 -0.82800000
vn -0.22110000 0.35190000 -0.90960000
vn 0.03790000 -0.18340000 0.98230000
vn 0.82300000 0.05770000 0.56510000
vn 0.35770000 -0.62520000 0.69370000
vn 0.80790000 -0.31360000 0.49890000
vn -0.12410000 -0.79070000 0.59950000
vn -0.78770000 -0.26010000 0.55850000
vn -0.07790000 0.13270000 0.98810000
vn -0.90020000 -0.42860000 0.07680000
vn -0.85880000 -0.36990000 -0.35440000
vn -0.88510000 0.03360000 0.46410000
vn -0.93190000 -0.13220000 -0.33790000
vn -0.01330000 0.28340000 -0.95890000
vn -0.02710000 -0.54030000 -0.84100000
vn -0.56160000 -0.63370000 -0.53200000
vn 0.96610000 -0.20180000 0.16090000
vn 0.81390000 -0.35040000 -0.46350000
vn 0.81010000 0.28800000 -0.51060000
vn 0.51660000 -0.84750000 -0.12190000
vn -0.02590000 -0.96400000 -0.26470000
vn 0.36490000 -0.85150000 0.37660000
vn -0.04770000 -0.75570000 0.65320000
vn -0.46700000 -0.86420000 -0.18740000
vn -0.48060000 -0.80680000 0.34350000
vn -0.32120000 -0.72100000 0.61400000
vn 0.27050000 -0.74210000 0.61330000
vn -0.52040000 -0.84830000 0.09740000
vn 0.54940000 -0.82940000 0.10130000
vn 0.36230000 -0.88370000 -0.29640000
vn -0.17180000 -0.91000000 -0.37730000
vn 0.38980000 -0.45150000 0.80260000
vn -0.42100000 -0.49520000 0.75990000
vn -0.83180000 -0.53670000 0.14120000
vn 0.83340000 -0.55150000 0.03600000
vn 0.59330000 -0.61880000 -0.51490000
vn -0.42700000 -0.71300000 -0.55620000
vn 0.18280000 -0.65010000 -0.73750000
f 1//1 2//2 3//3
f 4//4 5//5 6//6
f 7//7 5//5 4//4
f 1//1 8//8 2//2
f 8//8 9//9 2//2
f 10//10 7//7 4//4
f 11//11 12//12 13//13
f 16//16 17//17 14//14
f 14//14 20//20 18//18
f 19//19 14//14 17//17
f 21//21 20//20 14//14
f 14//14 19//19 22//22
f 24//24 16//16 23//23
f 25//25 16//16 24//24
f 15//15 26//26 23//23
f 17//17 16//16 25//25
f 15//15 18//18 26//26
f 27//27 17//17 25//25
f 18//18 28//28 26//26
f 18//18 29//29 28//28
f 22//22 19//19 30//30
f 31//31 22//22 30//30
f 19//19 17//17 27//27
f 18//18 20//20 29//29
f 20//20 32//32 29//29
f 21//21 22//22 31//31
f 20//20 21//21 32//32
f 32//32 21//21 31//31
f 24//24 33//33 34//34
f 24//24 23//23 33//33
f 34//34 25//25 24//24
f 23//23 35//35 33//33
f 34//34 45//45 25//25
f 23//23 26//26 35//35
f 36//36 27//27 25//25
f 37//37 27//27 36//36
f 28//28 38//38 35//35
f 26//26 28//28 35//35
f 39//39 27//27 37//37
f 28//28 40//40 38//38
f 39//39 30//30 27//27
f 28//28 29//29 40//40
f 41//41 30//30 39//39
f 29//29 42//42 40//40
f 29//29 32//32 42//42
f 41//41 31//31 30//30
f 43//43 31//31 41//41
f 32//32 43//43 42//42
f 43//43 32//32 31//31
f 33//33 44//44 34//34
f 44//44 45//45 34//34
f 35//35 44//44 33//33
f 46//46 36//36 45//45
f 47//47 44//44 35//35
f 37//37 36//36 46//46
f 35//35 38//38 47//47
f 48//48 39//39 37//37
f 40//40 49//49 38//38
f 41//41 39//39 48//48
f 42//42 49//49 40//40
f 50//50 41//41 48//48
f 42//42 51//51 49//49
f 43//43 41//41 50//50
f 51//51 43//43 50//50
f 42//42 43//43 51//51
f 52//52 53//53 54//54
f 52//52 55//55 53//53
f 56//56 57//57 58//58
f 57//57 59//59 58//58
f 57//57 60//60 59//59
f 60//60 61//61 59//59
f 54//54 62//62 52//52
f 63//63 62//62 54//54
f 52//52 64//64 55//55
f 65//65 62//62 63//63
f 64//64 68//68 55//55
f 67//67 65//65 63//63
f 69//69 65//65 67//67
f 68//68 71//71 56//56
f 70//70 69//69 67//67
f 71//71 57//57 56//56
f 72//72 69//69 70//70
f 73//73 72//72 70//70
f 74//74 72//72 73//73
f 61//61 74//74 73//73
f 60//60 74//74 61//61
f 62//62 45//45 52//52
f 45//45 44//44 52//52
f 44//44 64//64 52//52
f 46//46 45//45 62//62
f 65//65 46//46 62//62
f 44//44 47//47 64//64
f 47//47 68//68 64//64
f 37//37 46//46 65//65
f 69//69 37//37 65//65
f 47//47 38//38 68//68
f 38//38 71//71 68//68
f 48//48 37//37 69//69
f 38//38 49//49 71//71
f 72//72 48//48 69//69
f 74//74 50//50 72//72
f 50//50 48//48 72//72
f 49//49 60//60 57//57
f 49//49 51//51 60//60
f 51//51 50//50 74//74
f 51//51 74//74 60//60
f 54//54 75//75 76//76
f 63//63 54//54 76//76
f 54//54 53//53 75//75
f 77//77 63//63 76//76
f 53//53 78//78 75//75
f 67//67 63//63 77//77
f 58//58 59//59 79//79
f 53//53 55//55 78//78
f 80//80 67//67 77//77
f 59//59 81//81 79//79
f 82//82 58//58 79//79
f 56//56 58//58 82//82
f 59//59 61//61 81//81
f 66//66 56//56 82//82
f 55//55 83//83 78//78
f 83//83 66//66 82//82
f 55//55 66//66 83//83
f 70//70 67//67 80//80
f 61//61 73//73 81//81
f 73//73 84//84 81//81
f 84//84 70//70 80//80
f 73//73 70//70 84//84
f 85//85 86//86 87//87
f 88//88 85//85 87//87
f 89//89 85//85 88//88
f 86//86 90//90 87//87
f 91//91 89//89 88//88
f 92//92 90//90 86//86
f 93//93 94//94 89//89
f 91//91 93//93 89//89
f 95//95 90//90 92//92
f 93//93 96//96 94//94
f 96//96 95//95 92//92
f 93//93 97//97 96//96
f 97//97 95//95 96//96
f 98//98 99//99 87//87
f 99//99 88//88 87//87
f 100//100 98//98 87//87
f 99//99 101//101 88//88
f 102//102 100//100 87//87
f 90//90 102//102 87//87
f 101//101 91//91 88//88
f 103//103 104//104 98//98
f 104//104 99//99 98//98
f 104//104 105//105 99//99
f 106//106 103//103 98//98
f 105//105 101//101 99//99
f 100//100 106//106 98//98
f 107//107 102//102 90//90
f 108//108 109//109 102//102
f 109//109 106//106 100//100
f 105//105 110//110 101//101
f 110//110 91//91 101//101
f 111//111 93//93 91//91
f 95//95 107//107 90//90
f 112//112 108//108 102//102
f 113//113 107//107 95//95
f 110//110 114//114 91//91
f 111//111 115//115 93//93
f 107//107 112//112 102//102
f 114//114 111//111 91//91
f 115//115 97//97 93//93
f 97//97 113//113 95//95
f 116//116 112//112 107//107
f 114//114 117//117 111//111
f 117//117 115//115 111//111
f 113//113 116//116 107//107
f 118//118 116//116 113//113
f 119//119 97//97 115//115
f 97//97 118//118 113//113
f 119//119 118//118 97//97
f 120//120 104//104 103//103
f 76//76 104//104 120//120
f 109//109 76//76 120//120
f 108//108 76//76 109//109
f 117//117 119//119 115//115
f 75//75 105//105 104//104
f 76//76 75//75 104//104
f 75//75 78//78 105//105
f 78//78 110//110 105//105
f 77//77 76//76 108//108
f 83//83 82//82 114//114
f 78//78 83//83 110//110
f 112//112 80//80 108//108
f 80//80 77//77 108//108
f 116//116 80//80 112//112
f 82//82 117//117 114//114
f 84//84 80//80 116//116
f 82//82 79//79 117//117
f 118//118 84//84 116//116
f 79//79 119//119 117//117
f 81//81 84//84 118//118
f 79//79 118//118 119//119
f 79//79 81//81 118//118
f 109//109 103//103 106//106
f 109//109 120//120 103//103
f 3//3 121//121 6//6
f 2//2 121//121 3//3
f 121//121 4//4 6//6
f 10//10 4//4 121//121
f 9//9 10//10 121//121
f 2//2 9//9 121//121
f 122//122 3//3 6//6
f 5//5 123//123 6//6
f 7//7 123//123 5//5
f 124//124 123//123 7//7
f 125//125 124//124 7//7
f 9//9 125//125 10//10
f 123//123 126//126 122//122
f 124//124 126//126 123//123
f 125//125 127//127 124//124
f 128//128 8//8 1//1
f 129//129 128//128 1//1
f 130//130 9//9 8//8
f 128//128 130//130 8//8
f 125//125 11//11 127//127
f 130//130 131//131 9//9
f 131//131 11//11 125//125
f 131//131 125//125 9//9
f 132//132 133//133 134//134
f 135//135 133//133 132//132
f 133//133 136//136 134//134
f 136//136 137//137 134//134
f 129//129 135//135 132//132
f 138//138 129//129 132//132
f 13//13 137//137 136//136
f 128//128 129//129 138//138
f 12//12 137//137 13//13
f 139//139 128//128 138//138
f 130//130 128//128 139//139
f 140//140 130//130 139//139
f 131//131 12//12 11//11
f 140//140 131//131 130//130
f 140//140 12//12 131//131
f 141//141 132//132 134//134
f 142//142 141//141 134//134
f 141//141 143//143 132//132
f 137//137 142//142 134//134
f 144//144 142//142 137//137
f 143//143 138//138 132//132
f 145//145 144//144 137//137
f 12//12 145//145 137//137
f 146//146 145//145 12//12
f 147//147 140//140 139//139
f 148//148 146//146 12//12
f 140//140 148//148 12//12
f 147//147 148//148 140//140
f 149//149 150//150 151//151
f 149//149 152//152 150//150
f 154//154 149//149 153//153
f 157//157 154//154 156//156
f 159//159 157//157 156//156
f 160//160 161//161 162//162
f 161//161 157//157 162//162
f 162//162 157//157 159//159
f 158//158 154//154 153//153
f 149//149 151//151 155//155
f 152//152 163//163 150//150
f 164//164 161//161 160//160
f 166//166 161//161 164//164
f 167//167 161//161 166//166
f 152//152 165//165 163//163
f 152//152 164//164 165//165
f 168//168 166//166 152//152
f 166//166 164//164 152//152
f 169//169 152//152 149//149
f 168//168 152//152 169//169
f 161//161 170//170 157//157
f 161//161 167//167 170//170
f 170//170 171//171 154//154
f 157//157 170//170 154//154
f 171//171 172//172 169//169
f 172//172 173//173 169//169
f 173//173 168//168 169//169
f 170//170 174//174 171//171
f 174//174 172//172 171//171
f 173//173 175//175 168//168
f 175//175 166//166 168//168
f 176//176 166//166 175//175
f 170//170 177//177 174//174
f 167//167 166//166 176//176
f 170//170 167//167 177//177
f 177//177 167//167 176//176
f 154//154 171//171 149//149
f 171//171 169//169 149//149
f 135//135 3//3 122//122
f 133//133 135//135 122//122
f 126//126 133//133 122//122
f 136//136 133//133 126//126
f 124//124 13//13 136//136
f 127//127 13//13 124//124
f 11//11 13//13 127//127
f 3//3 135//135 1//1
f 135//135 129//129 1//1
f 142//142 155//155 141//141
f 155//155 178//178 141//141
f 179//179 155//155 142//142
f 178//178 143//143 141//141
f 142//142 144//144 179//179
f 178//178 150//150 143//143
f 150//150 138//138 143//143
f 144//144 145//145 180//180
f 150//150 181//181 138//138
f 181//181 139//139 138//138
f 159//159 180//180 145//145
f 146//146 159//159 145//145
f 181//181 182//182 139//139
f 182//182 147//147 139//139
f 148//148 183//183 146//146
f 183//183 159//159 146//146
f 182//182 184//184 147//147
f 184//184 148//148 147//147
f 184//184 183//183 148//148
f 180//180 156//156 158//158
f 151//151 178//178 155//155
f 153//153 155//155 179//179
f 158//158 153//153 179//179
f 151//151 150//150 178//178
f 163//163 181//181 150//150
f 159//159 156//156 180//180
f 165//165 181//181 163//163
f 165//165 182//182 181//181
f 183//183 162//162 159//159
f 160//160 184//184 182//182
f 165//165 160//160 182//182
f 160//160 162//162 183//183
f 184//184 160//160 183//183
f 172//172 85//85 173//173
f 85//85 89//89 173//173
f 86//86 85//85 172//172
f 89//89 175//175 173//173
f 174//174 86//86 172//172
f 92//92 86//86 174//174
f 89//89 94//94 175//175
f 94//94 176//176 175//175
f 177//177 92//92 174//174
f 94//94 96//96 176//176
f 96//96 177//177 176//176
f 96//96 92//92 177//177
f 16//16 14//14 15//15
f 14//14 18//18 15//15
f 14//14 22//22 21//21
f 16//16 15//15 23//23
f 19//19 27//27 30//30
f 45//45 36//36 25//25
f 68//68 66//66 55//55
f 68//68 56//56 66//66
f 49//49 57//57 71//71
f 109//109 100//100 102//102
f 83//83 114//114 110//110
f 123//123 122//122 6//6
f 125//125 7//7 10//10
f 149//149 155//155 153//153
f 154//154 158//158 156//156
f 164//164 160//160 165//165
f 124//124 136//136 126//126
f 144//144 158//158 179//179
f 144//144 180//180 158//158

