mtllib material.mtl
usemtl Material-Metal.008
v 0.03799000 -0.12440500 -0.00180400
v 0.03798600 -0.08105900 -0.03868900
v 0.03798500 -0.10261600 -0.03470800
v 0.03797400 -0.11686600 -0.02258900
v 0.03799000 -0.06111800 -0.02994900
v 0.03799600 -0.05150800 -0.01779900
v 0.03798700 -0.04699200 -0.00251700
v 0.03797700 -0.08918800 0.03844400
v 0.03798400 -0.06800800 0.03474600
v 0.03797600 -0.10706300 0.03205900
v 0.03798600 -0.11952100 0.01846600
v 0.03798800 -0.05444000 0.02259600
v 0.04252900 -0.09477600 -0.03745700
v 0.04250600 -0.11063000 -0.02907600
v 0.04251600 -0.07617700 -0.03749500
v 0.04252700 -0.12145200 -0.01400100
v 0.04250800 -0.05952500 -0.02881100
v 0.04250900 -0.12390900 0.00281300
v 0.04251100 -0.04903100 -0.01255000
v 0.04237600 -0.12116200 0.01409100
v 0.04251700 -0.11327200 0.02669000
v 0.04251600 -0.04759200 0.00906900
v 0.03814100 -0.04901700 0.01211800
v 0.04251500 -0.09843700 0.03631200
v 0.04252100 -0.05993200 0.02903500
v 0.04251800 -0.07905200 0.03813900
vn -0.60610000 -0.79330000 -0.05690000
vn -0.60350000 0.06280000 -0.79490000
vn -0.60490000 -0.35900000 -0.71080000
vn -0.60230000 -0.64940000 -0.46420000
vn -0.66550000 0.44050000 -0.60250000
vn -0.64150000 0.66490000 -0.38270000
vn -0.59510000 0.80160000 -0.05720000
vn -0.60400000 -0.07440000 0.79350000
vn -0.56950000 0.35880000 0.73960000
vn -0.61410000 -0.43510000 0.65850000
vn -0.62400000 -0.68450000 0.37700000
vn -0.60110000 0.66330000 0.44580000
vn 0.60350000 -0.16910000 -0.77930000
vn 0.63220000 -0.50560000 -0.58710000
vn 0.63150000 0.24460000 -0.73580000
vn 0.59580000 -0.75050000 -0.28610000
vn 0.64280000 0.52490000 -0.55800000
vn 0.65210000 -0.75040000 0.10840000
vn 0.63110000 0.73660000 -0.24320000
vn 0.62930000 -0.73770000 0.24460000
vn 0.62840000 -0.56480000 0.53490000
vn 0.61510000 0.76900000 0.17390000
vn -0.66120000 0.69840000 0.27380000
vn 0.61600000 -0.26300000 0.74260000
vn 0.61350000 0.53030000 0.58520000
vn 0.58900000 0.13620000 0.79660000
f 1//1 2//2 3//3
f 4//4 1//1 3//3
f 1//1 5//5 2//2
f 1//1 6//6 5//5
f 1//1 12//12 6//6
f 8//8 9//9 1//1
f 10//10 8//8 1//1
f 11//11 10//10 1//1
f 9//9 12//12 1//1
f 13//13 14//14 3//3
f 2//2 13//13 3//3
f 14//14 4//4 3//3
f 2//2 15//15 13//13
f 14//14 16//16 4//4
f 16//16 1//1 4//4
f 5//5 15//15 2//2
f 5//5 17//17 15//15
f 16//16 18//18 1//1
f 6//6 17//17 5//5
f 6//6 19//19 17//17
f 18//18 20//20 1//1
f 20//20 11//11 1//1
f 7//7 19//19 6//6
f 20//20 21//21 11//11
f 7//7 22//22 19//19
f 21//21 10//10 11//11
f 23//23 22//22 7//7
f 21//21 24//24 10//10
f 24//24 8//8 10//10
f 12//12 22//22 23//23
f 12//12 25//25 22//22
f 24//24 26//26 8//8
f 9//9 25//25 12//12
f 26//26 9//9 8//8
f 9//9 26//26 25//25
f 15//15 14//14 13//13
f 17//17 14//14 15//15
f 14//14 18//18 16//16
f 19//19 14//14 17//17
f 14//14 21//21 18//18
f 24//24 21//21 14//14
f 26//26 24//24 14//14
f 14//14 22//22 26//26
f 19//19 22//22 14//14
f 12//12 23//23 7//7
f 18//18 21//21 20//20
f 12//12 7//7 6//6
f 22//22 25//25 26//26

