mtllib material.mtl
usemtl Material-Metal.009
v 0.03189700 -0.05304500 0.00473700
v 0.03190400 -0.05467100 -0.01085200
v 0.03200000 -0.05263300 -0.00295800
v 0.03200000 -0.05576800 0.01431800
v 0.03188000 -0.06011000 0.02067000
v 0.03185400 -0.06521100 -0.02579800
v 0.03201700 -0.05742800 -0.01754300
v 0.03200000 -0.06732000 0.02754100
v 0.03192900 -0.07387200 0.03065300
v 0.03189300 -0.08145000 -0.03255600
v 0.03200000 -0.07253000 -0.03034400
v 0.03200000 -0.08401900 0.03296700
v 0.03191800 -0.09151900 0.03225600
v 0.03058800 -0.09736600 -0.03005600
v 0.03200000 -0.08993000 -0.03270100
v 0.03191200 -0.11078000 -0.02088600
v 0.03200500 -0.10430000 -0.02726400
v 0.03168300 -0.11781000 -0.00483200
v 0.03200500 -0.11573300 -0.01350800
v 0.03202700 -0.11208300 0.01976400
v 0.03186600 -0.11605700 0.01183200
v 0.03198200 -0.10398200 0.02728500
v 0.03200500 -0.11845100 0.00334600
v 0.03796200 -0.04849800 0.01319300
v 0.03799300 -0.05300700 0.00666600
v 0.03796900 -0.04759100 -0.01288300
v 0.03799700 -0.05276800 -0.00520600
v 0.03800000 -0.05576800 0.01431800
v 0.03799200 -0.05663900 -0.01599100
v 0.03799300 -0.05277600 -0.01903900
v 0.03790800 -0.04967500 -0.01877900
v 0.03800400 -0.04952800 0.01858100
v 0.03804200 -0.05367200 0.01950900
v 0.03794700 -0.06290700 -0.02617900
v 0.03800000 -0.06209700 -0.02777400
v 0.03797800 -0.05146100 -0.02996100
v 0.03789200 -0.06563500 -0.02999000
v 0.03814600 -0.05356400 -0.02231000
v 0.03773400 -0.04955900 0.03006600
v 0.03794700 -0.06297000 0.02635700
v 0.03795800 -0.05274600 0.02284000
v 0.03788500 -0.06567600 0.02998100
v 0.03800400 -0.06422300 0.02759900
v 0.03789300 -0.06032000 0.02172000
v 0.03796600 -0.06468400 -0.02585100
v 0.03800000 -0.06732000 0.02754100
v 0.03793100 -0.06939700 -0.03118200
v 0.03802900 -0.07566200 -0.03516600
v 0.03800500 -0.07856600 -0.03700100
v 0.03796700 -0.06882100 0.03089200
v 0.03800600 -0.07592000 0.03517000
v 0.03798000 -0.07578900 0.03171300
v 0.03800000 -0.07253000 -0.03034400
v 0.03790100 -0.07158000 -0.03473800
v 0.03790300 -0.07201100 0.03498700
v 0.03798700 -0.08077400 -0.03281500
v 0.03800300 -0.08716300 0.03309100
v 0.03800900 -0.07845000 0.03703200
v 0.03801000 -0.09283800 -0.03698200
v 0.03799700 -0.09271000 0.03701300
v 0.03799800 -0.09239900 -0.03250400
v 0.03801400 -0.09510200 -0.03501700
v 0.03804900 -0.09500800 0.03502800
v 0.03800000 -0.09910500 0.03023300
v 0.03797100 -0.09830000 -0.03568700
v 0.03799000 -0.10355300 -0.02781800
v 0.03804500 -0.10074800 -0.03299000
v 0.03788500 -0.09861300 0.03524700
v 0.03800500 -0.10151600 0.03277100
v 0.03794800 -0.10432500 -0.03288300
v 0.03802700 -0.10627200 -0.02977000
v 0.03789400 -0.10454500 0.03241400
v 0.03801400 -0.11436100 0.02389000
v 0.03801600 -0.10810900 0.02416700
v 0.03799800 -0.11206300 -0.01996600
v 0.03803000 -0.11093200 -0.02601700
v 0.03794400 -0.10977400 -0.02910000
v 0.03802100 -0.11622900 -0.02010300
v 0.03793100 -0.11441000 -0.02396300
v 0.03796600 -0.11538700 0.02044500
v 0.03800500 -0.11537300 0.01450600
v 0.03801300 -0.11750500 -0.00832400
v 0.03797700 -0.12102400 0.01968100
v 0.03796700 -0.12324400 -0.01276700
v 0.03794300 -0.12342700 0.01283800
v 0.03799000 -0.11858200 0.00272200
v 0.03793900 -0.12132000 -0.01938400
v 0.02753600 -0.07497600 0.03280200
v 0.02760500 -0.07243300 0.03533800
v 0.02753600 -0.06843600 0.03050400
v 0.02761800 -0.07263800 -0.03561100
v 0.02749100 -0.07586600 -0.03294500
v 0.02750900 -0.06893100 -0.03066400
v 0.02755000 -0.07614400 -0.03508800
v 0.02748900 -0.07863700 -0.03699800
v 0.02749700 -0.08948600 -0.03285700
v 0.02752300 -0.09087400 0.03293000
v 0.02749600 -0.09243300 0.03699000
v 0.02755800 -0.07812000 0.03687400
v 0.02752500 -0.09269600 -0.03698600
v 0.02748000 -0.09540500 -0.03532500
v 0.02750100 -0.09984400 -0.02988600
v 0.02748500 -0.09463700 0.03517300
v 0.02757800 -0.09828200 0.03564700
v 0.02747900 -0.10137700 -0.03323800
v 0.02746800 -0.10715300 0.02556400
v 0.02744900 -0.10079400 0.03287500
v 0.02752700 -0.10648000 -0.02981000
v 0.02749800 -0.10874000 -0.02359000
v 0.02768300 -0.10413900 0.03249200
v 0.02751400 -0.11067800 -0.02768200
v 0.02743600 -0.11393600 0.02450200
v 0.02748900 -0.11553200 -0.02044800
v 0.02728000 -0.11538300 -0.01441500
v 0.02748300 -0.11541400 0.02034100
v 0.02750100 -0.12149200 -0.01413600
v 0.02736300 -0.11883000 0.00097800
v 0.02739100 -0.11621300 0.01266500
v 0.02753100 -0.12268500 0.01301400
v 0.02759200 -0.12107000 -0.01961000
v 0.02753200 -0.12130000 0.01945800
v 0.02755300 -0.12341200 -0.01291900
v 0.02750000 -0.05250000 0.00000000
v 0.02753600 -0.04758000 0.01277600
v 0.02754200 -0.04846000 -0.01295800
v 0.02750100 -0.05349100 -0.00852200
v 0.02749100 -0.04952200 0.01422900
v 0.02750200 -0.05343000 0.00827400
v 0.02749900 -0.05712700 -0.01766700
v 0.02749500 -0.05246000 -0.01898900
v 0.02756700 -0.04953600 -0.01855000
v 0.02749000 -0.05335300 0.01924800
v 0.02761700 -0.04972100 0.01878700
v 0.02749700 -0.05726700 0.01846700
v 0.02749600 -0.05502200 -0.02173000
v 0.02749300 -0.05410700 0.02223300
v 0.02733200 -0.05259800 -0.02288700
v 0.03018900 -0.10302200 0.02578900
v 0.03007100 -0.09330500 0.03055600
v 0.03014300 -0.08902400 0.03138300
v 0.03007000 -0.07481500 0.03043000
v 0.03011800 -0.06111400 0.02091600
v 0.03014000 -0.05491500 0.00771600
v 0.03010800 -0.05407100 0.00375300
v 0.03005100 -0.05541400 -0.01092300
v 0.03001500 -0.06476300 -0.02454500
v 0.03009300 -0.07840500 -0.03099700
v 0.03022400 -0.08212600 -0.03131400
v 0.02989800 -0.11030500 -0.02002300
v 0.03019800 -0.11600800 -0.00775500
v 0.03000200 -0.11534400 0.01164300
v 0.03004800 -0.10707900 0.02334800
v 0.03030200 -0.05842000 0.00172500
v 0.03032000 -0.05942400 0.00817700
v 0.03037500 -0.05915400 -0.00626900
v 0.03018900 -0.06134100 0.01586800
v 0.03019100 -0.06615300 0.01906200
v 0.02990700 -0.06113000 -0.00948200
v 0.03015100 -0.06639700 -0.01928800
v 0.03020000 -0.05971900 -0.01297700
v 0.03030100 -0.07332200 0.02464500
v 0.03027900 -0.07773000 -0.02600100
v 0.03020000 -0.06966700 -0.02414900
v 0.03028700 -0.08726000 0.02702200
v 0.03016900 -0.07847800 0.02858300
v 0.02998100 -0.07802400 0.02531800
v 0.03037300 -0.09154300 -0.02681300
v 0.03028800 -0.08377100 -0.02693000
v 0.03005900 -0.10154600 0.02111900
v 0.03009500 -0.09200000 0.02564300
v 0.03020100 -0.09727700 -0.02411600
v 0.03027900 -0.10426700 -0.01967400
v 0.03023100 -0.10957100 0.01175600
v 0.03040200 -0.10543200 0.01862700
v 0.03033200 -0.11149000 -0.00788800
v 0.03026200 -0.10786500 -0.01511200
v 0.03041600 -0.11230300 0.00590900
v 0.03024800 -0.11643500 -0.00221200
v 0.03030700 -0.11230300 -0.00198600
v 0.02867600 -0.06190500 -0.03000000
v 0.01441900 -0.04571600 -0.03000800
v 0.02733400 -0.04020300 -0.03000000
v 0.03759400 -0.04960600 -0.03000000
v 0.01209600 -0.05175000 -0.03001800
v 0.03008900 -0.06245400 -0.03000100
v 0.01369900 -0.06614000 -0.02995500
v 0.02925400 -0.06354000 -0.03000000
v 0.03518300 -0.04500000 -0.02419600
v 0.02795500 -0.04042200 -0.02500400
v 0.01883400 -0.04186400 -0.02475700
v 0.01201000 -0.05415500 -0.02249300
v 0.01238600 -0.05385200 -0.00546700
v 0.02754400 -0.05341500 0.00018800
v 0.01234900 -0.05359600 0.00422700
v 0.02750000 -0.05472200 -0.00875700
v 0.02751100 -0.05470400 0.00860000
v 0.01249800 -0.05754300 -0.01607700
v 0.02750000 -0.05685500 -0.01426400
v 0.01256700 -0.05762600 0.01627400
v 0.02750500 -0.05824700 0.01707500
v 0.02750700 -0.06270900 -0.02274900
v 0.02750000 -0.06394200 0.02364800
v 0.01326100 -0.06327500 0.02310400
v 0.01337900 -0.06374800 -0.02351300
v 0.01461500 -0.07007300 -0.02822900
v 0.02749600 -0.07162500 -0.02903500
v 0.01431000 -0.06881400 0.02744600
v 0.02749200 -0.07108900 0.02864500
v 0.01656900 -0.07727900 0.03117300
v 0.01709500 -0.07926400 -0.03147800
v 0.02752700 -0.08124400 -0.03174500
v 0.02750700 -0.08254000 0.03200600
v 0.01955900 -0.08858900 -0.03200800
v 0.01982400 -0.08941500 0.03193800
v 0.02752200 -0.09650100 0.03051000
v 0.02752100 -0.09379200 -0.03103200
v 0.02215800 -0.09786100 -0.02974400
v 0.02219200 -0.09791900 0.02964600
v 0.02752000 -0.10102900 -0.02792700
v 0.02466800 -0.10791400 -0.02320300
v 0.02410400 -0.10510600 0.02548600
v 0.02750700 -0.11044100 -0.02044000
v 0.02750000 -0.10705800 0.02364800
v 0.02687700 -0.11371600 0.01564600
v 0.02709100 -0.11644100 -0.00970700
v 0.02225100 -0.09834900 -0.03061100
v 0.01970200 -0.08849100 -0.03294000
v 0.02203500 -0.09767000 0.03088300
v 0.01987000 -0.08903700 0.03289700
v 0.02471000 -0.10719400 -0.02499900
v 0.02502700 -0.10839400 0.02421100
v 0.01236200 -0.05271400 0.00558900
v 0.01233900 -0.05304400 -0.00703300
v 0.01258300 -0.05726700 -0.01822400
v 0.01263200 -0.05711200 0.01757800
v 0.02751000 -0.05432200 -0.00257100
v 0.02749100 -0.05791700 -0.00955600
v 0.02750700 -0.05717400 0.00479900
v 0.02749700 -0.05726300 0.00569500
v 0.02747200 -0.05837300 -0.01004000
v 0.02752200 -0.06309900 -0.00716600
v 0.02743500 -0.06331000 0.01894600
v 0.02750000 -0.06313300 -0.02020400
v 0.02750400 -0.06668400 -0.02250400
v 0.02755000 -0.06375200 -0.00676100
v 0.02741400 -0.06305700 0.00077400
v 0.02749600 -0.06509900 0.00964800
v 0.02750000 -0.08082100 0.02495000
v 0.02751200 -0.07580900 0.02684000
v 0.02748900 -0.08003900 0.02179200
v 0.02749400 -0.07582000 0.02750100
v 0.02748200 -0.07097300 -0.01784400
v 0.02760500 -0.07839500 -0.02210100
v 0.02750300 -0.06719200 -0.02197400
v 0.02749500 -0.06727400 0.01343800
v 0.02750000 -0.07359800 0.01909500
v 0.02749300 -0.07974500 -0.02823000
v 0.02750000 -0.08550000 -0.03050500
v 0.02749500 -0.08070600 -0.02831100
v 0.02749000 -0.09510800 -0.02769700
v 0.02747500 -0.09042800 0.02832700
v 0.02750000 -0.08664000 0.02247100
v 0.02750000 -0.09297700 -0.02258300
v 0.02727500 -0.08552900 -0.02236600
v 0.02749700 -0.09353300 0.02109100
v 0.02750000 -0.09978000 0.02473300
v 0.02756900 -0.09903000 -0.01867000
v 0.02750600 -0.10530900 -0.02152700
v 0.02746300 -0.09542700 -0.02698400
v 0.02755300 -0.10082800 0.01681300
v 0.02750000 -0.09978000 0.02042800
v 0.02750000 -0.10592800 0.02042800
v 0.02751700 -0.10432300 0.02177100
v 0.02748200 -0.10389800 0.02248000
v 0.02747300 -0.10539900 -0.01051400
v 0.02754400 -0.10637600 0.00927100
v 0.02750100 -0.11036400 0.00866600
v 0.02755000 -0.10754200 -0.01848700
v 0.02749900 -0.11043000 -0.00654800
v 0.02747800 -0.10808600 -0.00077600
v 0.02744700 -0.11382700 -0.00516200
v 0.02748200 -0.11313500 0.00962200
v 0.02746700 -0.11248100 0.00998500
v 0.02749600 -0.11432600 -0.00465600
v 0.02736800 -0.11739500 0.00521200
v 0.01601200 -0.07521900 -0.03289000
v 0.01911900 -0.04178900 -0.02982900
v 0.03490800 -0.04483200 -0.02984000
v 0.01388300 -0.04610000 -0.02416000
v 0.01271900 -0.05946000 -0.02980000
v 0.01204000 -0.05294900 0.02282100
v 0.01271900 -0.05946000 0.02980000
v 0.01211100 -0.05139300 0.03000700
v 0.01236800 -0.05573700 0.02134000
v 0.01369300 -0.06604700 0.02994500
v 0.01598600 -0.07534700 0.03293500
v 0.02981900 -0.06269700 -0.02650900
v 0.02887600 -0.06160200 0.03000000
v 0.02662000 -0.04055600 0.03000700
v 0.01902000 -0.04174500 0.03001400
v 0.03276100 -0.04291700 0.03000600
v 0.03011600 -0.06208800 0.02999200
v 0.02867000 -0.06321600 0.02999100
v 0.01858500 -0.04198600 0.02473200
v 0.02704900 -0.04013200 0.02505800
v 0.03598700 -0.04592600 0.02405700
v 0.01375300 -0.04665200 0.02390100
v 0.02761400 -0.07529700 0.03502700
v 0.01413700 -0.04607200 0.02986400
v 0.02944200 -0.06268100 0.02646600
v 0.03790000 -0.12350000 -0.01260000
v 0.02760000 -0.12350000 0.01260000
v 0.03789000 -0.12149900 -0.01420200
v 0.03791400 -0.12150500 0.01429600
v 0.03780000 -0.04750000 0.01260000
v 0.02770000 -0.04750000 -0.01260000
v 0.03781900 -0.04949500 -0.01430500
vn 0.30320000 -0.94470000 -0.12530000
vn 0.23690000 -0.91880000 0.31560000
vn 0.64370000 -0.76350000 0.05150000
vn 0.64910000 -0.68320000 -0.33470000
vn 0.26030000 -0.76710000 -0.58640000
vn 0.26680000 -0.57170000 0.77590000
vn 0.63390000 -0.64880000 0.42100000
vn 0.65400000 -0.41530000 -0.63230000
vn 0.22290000 -0.36730000 -0.90300000
vn 0.32580000 -0.08620000 0.94150000
vn 0.64370000 -0.30580000 0.70150000
vn 0.66080000 -0.05120000 -0.74880000
vn 0.30210000 0.19450000 -0.93320000
vn 0.59260000 0.32360000 0.73770000
vn 0.47300000 0.07820000 0.87760000
vn 0.27600000 0.72910000 0.62630000
vn 0.47350000 0.52380000 0.70810000
vn 0.37460000 0.92020000 0.11400000
vn 0.61460000 0.71830000 0.32600000
vn 0.64460000 0.60820000 -0.46320000
vn 0.26040000 0.90640000 -0.33280000
vn 0.36480000 0.49220000 -0.79040000
vn 0.61380000 0.78410000 -0.09220000
vn 0.79980000 0.50110000 0.33060000
vn 0.76060000 -0.63770000 -0.12140000
vn 0.60940000 0.70810000 -0.35670000
vn 0.75640000 -0.64530000 0.10680000
vn 0.73550000 -0.60520000 -0.30460000
vn 0.73710000 -0.59100000 0.32760000
vn 0.84600000 0.35070000 -0.40160000
vn 0.56890000 0.59010000 -0.57290000
vn 0.59260000 0.59610000 0.54170000
vn 0.90320000 0.35770000 0.23700000
vn 0.97210000 0.20460000 0.11460000
vn 0.98020000 0.17770000 0.08680000
vn 0.77220000 0.15820000 -0.61540000
vn 0.68970000 0.12040000 -0.71400000
vn 0.87910000 0.42470000 0.21640000
vn 0.72420000 0.22500000 0.65190000
vn 0.96910000 0.18380000 0.16460000
vn 0.82980000 0.41600000 -0.37190000
vn 0.70570000 0.11240000 0.69950000
vn 0.97720000 0.15310000 0.14690000
vn 0.53790000 -0.67420000 -0.50600000
vn 0.76650000 -0.40530000 0.49830000
vn 0.73650000 -0.36470000 -0.56980000
vn 0.73660000 0.42160000 -0.52890000
vn 0.83540000 0.12030000 -0.53640000
vn 0.64560000 0.21900000 -0.73160000
vn 0.73030000 0.38460000 0.56460000
vn 0.78530000 0.20650000 0.58370000
vn 0.75580000 -0.19030000 -0.62650000
vn 0.74060000 -0.26920000 0.61570000
vn 0.61500000 0.43840000 -0.65540000
vn 0.60920000 0.37700000 0.69760000
vn 0.75630000 -0.08280000 0.64890000
vn 0.74820000 0.04170000 -0.66210000
vn 0.64290000 0.23570000 0.72880000
vn 0.64340000 -0.25880000 -0.72050000
vn 0.62860000 -0.26930000 0.72970000
vn 0.76420000 0.14400000 0.62870000
vn 0.83760000 -0.15340000 -0.52430000
vn 0.80970000 -0.18500000 0.55690000
vn 0.77210000 0.24750000 -0.58530000
vn 0.60390000 -0.23440000 -0.76180000
vn 0.75520000 0.34840000 0.55520000
vn 0.82290000 -0.24610000 -0.51220000
vn 0.61520000 -0.27470000 0.73900000
vn 0.78230000 -0.25210000 0.56950000
vn 0.60080000 -0.40240000 -0.69080000
vn 0.82260000 -0.33060000 -0.46270000
vn 0.63620000 -0.31430000 0.70460000
vn 0.65510000 -0.63910000 0.40290000
vn 0.75140000 0.45270000 -0.48000000
vn 0.76150000 0.51480000 0.39390000
vn 0.81690000 -0.43110000 -0.38330000
vn 0.60280000 -0.50590000 -0.61700000
vn 0.82860000 -0.32010000 -0.45940000
vn 0.63500000 -0.59810000 -0.48890000
vn 0.84730000 -0.34860000 0.40070000
vn 0.75930000 0.58960000 -0.27540000
vn 0.75210000 0.63920000 0.16040000
vn 0.59200000 -0.57630000 0.56330000
vn 0.72960000 -0.44970000 -0.51520000
vn 0.61140000 -0.70610000 0.35710000
vn 0.75590000 0.65250000 -0.05280000
vn 0.57680000 -0.61440000 -0.53840000
vn -0.73580000 0.11970000 0.66650000
vn -0.60780000 0.30180000 0.73450000
vn -0.08960000 0.38910000 0.91680000
vn -0.59480000 0.29800000 -0.74660000
vn -0.73370000 0.11180000 -0.67020000
vn -0.10680000 0.40640000 -0.90740000
vn -0.79170000 0.17690000 -0.58470000
vn -0.64300000 0.24590000 -0.72540000
vn -0.73530000 -0.09290000 -0.67130000
vn -0.75510000 -0.11180000 0.64600000
vn -0.64450000 -0.25180000 0.72200000
vn -0.64590000 0.23050000 0.72780000
vn -0.64740000 -0.20200000 -0.73490000
vn -0.75080000 -0.25880000 -0.60760000
vn -0.74380000 -0.29850000 -0.59810000
vn -0.82740000 -0.19180000 0.52780000
vn -0.59520000 -0.26760000 0.75770000
vn -0.71540000 -0.31290000 -0.62470000
vn -0.77340000 -0.39270000 0.49760000
vn -0.79880000 -0.27760000 0.53370000
vn -0.74680000 -0.34510000 -0.56840000
vn -0.76950000 -0.47490000 -0.42700000
vn -0.61550000 -0.31830000 0.72100000
vn -0.67320000 -0.48870000 -0.55500000
vn -0.65970000 -0.61360000 0.43390000
vn -0.80950000 -0.33110000 -0.48490000
vn -0.96180000 -0.25660000 -0.09490000
vn -0.85100000 -0.33800000 0.40190000
vn -0.81410000 -0.50170000 -0.29250000
vn -0.99910000 -0.04290000 0.00590000
vn -0.98800000 -0.14750000 0.04600000
vn -0.80250000 -0.47440000 0.36190000
vn -0.57160000 -0.59680000 -0.56310000
vn -0.58500000 -0.57410000 0.57290000
vn -0.60360000 -0.69960000 -0.38240000
vn -0.72660000 0.68700000 -0.00370000
vn -0.61220000 0.70520000 0.35760000
vn -0.82490000 0.44770000 -0.34530000
vn -0.73240000 0.65950000 -0.16930000
vn -0.81970000 0.51130000 0.25810000
vn -0.73320000 0.65950000 0.16580000
vn -0.62790000 0.77760000 0.03200000
vn -0.79070000 0.28410000 -0.54230000
vn -0.57850000 0.58370000 -0.56970000
vn -0.85760000 0.33930000 0.38660000
vn -0.57220000 0.60440000 0.55430000
vn -0.61850000 0.77580000 -0.12450000
vn -0.27410000 0.80820000 0.52120000
vn -0.18760000 0.73980000 -0.64620000
vn -0.01100000 0.30030000 0.95380000
vn 0.85550000 0.12500000 -0.50250000
vn 0.73720000 0.34570000 -0.58050000
vn 0.69600000 -0.12160000 -0.70770000
vn 0.62180000 -0.23390000 -0.74750000
vn 0.65020000 -0.53150000 -0.54280000
vn 0.63830000 -0.66110000 -0.39440000
vn 0.72880000 -0.67880000 0.08960000
vn 0.65040000 -0.71340000 0.26070000
vn 0.64900000 -0.54640000 0.52930000
vn 0.56960000 -0.37580000 0.73090000
vn 0.77160000 0.13510000 0.62150000
vn 0.73790000 0.54560000 0.39720000
vn 0.67240000 0.64200000 0.36830000
vn 0.68510000 0.66690000 -0.29320000
vn 0.48960000 0.73470000 -0.46970000
vn 0.97770000 -0.17090000 0.12240000
vn 0.97890000 -0.10230000 -0.17710000
vn 0.97410000 -0.20540000 -0.09440000
vn 0.99270000 -0.04840000 0.11020000
vn 0.98210000 -0.05110000 -0.18100000
vn 0.99310000 -0.01850000 0.11620000
vn 0.98230000 -0.18440000 0.03140000
vn 0.98770000 0.07220000 0.13830000
vn 0.97900000 -0.18440000 -0.08750000
vn 0.97340000 -0.19040000 0.12700000
vn 0.99020000 0.13540000 0.03500000
vn 0.97660000 -0.13760000 -0.16520000
vn 0.97240000 0.21020000 -0.10170000
vn 0.98490000 0.11010000 -0.13390000
vn 0.97540000 -0.05170000 0.21430000
vn 0.97090000 0.12820000 0.20240000
vn 0.98420000 -0.07560000 -0.15990000
vn 0.97910000 0.17010000 -0.11120000
vn 0.96820000 0.19650000 0.15460000
vn 0.97600000 0.05820000 0.21000000
vn 0.97320000 0.12800000 -0.19100000
vn 0.97960000 0.20080000 0.00230000
vn 0.97870000 0.11070000 0.17270000
vn 0.97950000 0.20130000 0.00100000
vn 0.97910000 0.19060000 0.07070000
vn 0.80490000 0.56120000 -0.19300000
vn 0.97560000 0.15980000 -0.15070000
vn 0.12220000 -0.12010000 -0.98520000
vn -0.59690000 0.44250000 -0.66930000
vn 0.12560000 0.76700000 -0.62920000
vn 0.93770000 0.33790000 -0.08050000
vn -0.74110000 0.10600000 -0.66290000
vn -0.31310000 -0.09540000 -0.94490000
vn -0.75020000 -0.06210000 -0.65830000
vn 0.04500000 0.21000000 -0.97670000
vn 0.57650000 0.56500000 0.59020000
vn 0.16810000 0.80130000 0.57420000
vn -0.31880000 0.74450000 0.58660000
vn -0.82430000 0.28460000 0.48950000
vn -0.71890000 -0.68520000 0.11690000
vn -0.68910000 -0.72470000 0.00090000
vn -0.74850000 -0.65650000 -0.09380000
vn -0.68340000 -0.70440000 0.19190000
vn -0.68630000 -0.69910000 -0.20060000
vn -0.76260000 -0.57200000 0.30230000
vn -0.68910000 -0.64380000 0.33260000
vn -0.76120000 -0.57050000 -0.30820000
vn -0.68230000 -0.61900000 -0.38900000
vn -0.67450000 -0.52320000 0.52090000
vn -0.68780000 -0.49050000 -0.53500000
vn -0.69830000 -0.54880000 -0.45950000
vn -0.68980000 -0.55100000 0.46970000
vn -0.69390000 -0.47590000 0.54030000
vn -0.67180000 -0.31900000 0.66860000
vn -0.68770000 -0.49150000 -0.53430000
vn -0.68180000 -0.32300000 -0.65640000
vn -0.68910000 -0.35760000 -0.63030000
vn -0.69220000 -0.32610000 0.64380000
vn -0.68620000 -0.08810000 0.72210000
vn -0.67620000 -0.06700000 -0.73360000
vn -0.78070000 -0.17520000 0.59980000
vn -0.77520000 -0.17720000 -0.60630000
vn -0.66260000 0.25020000 -0.70590000
vn -0.68460000 0.16930000 0.70900000
vn -0.74080000 0.07880000 0.66700000
vn -0.70450000 0.11490000 -0.70030000
vn -0.68880000 0.37140000 0.62260000
vn -0.89640000 0.05590000 0.43960000
vn -0.79750000 0.20450000 -0.56760000
vn -0.59380000 0.66560000 0.45210000
vn -0.66920000 0.53570000 -0.51500000
vn -0.96980000 0.13970000 -0.20000000
vn -0.73740000 -0.66140000 -0.13680000
vn -0.62510000 -0.41820000 -0.65910000
vn -0.58970000 -0.23000000 -0.77420000
vn -0.61670000 -0.44170000 0.65160000
vn -0.60410000 -0.22850000 0.76340000
vn -0.50800000 -0.62360000 -0.59420000
vn -0.59260000 -0.67100000 0.44560000
vn -0.67400000 0.72740000 0.12880000
vn -0.69160000 0.70750000 -0.14540000
vn -0.80680000 0.58730000 0.06390000
vn -0.22460000 0.96050000 -0.16430000
vn -0.99980000 0.02150000 0.00050000
vn -0.90670000 -0.28910000 -0.30710000
vn -0.94460000 0.09500000 0.31420000
vn -0.94080000 0.15790000 -0.29990000
vn -0.92310000 0.25470000 0.28820000
vn -0.99990000 -0.01580000 0.00480000
vn -0.99800000 0.05770000 -0.02390000
vn -1.00000000 0.00030000 -0.00170000
vn -0.91870000 -0.33830000 0.20380000
vn -0.29520000 -0.90370000 0.31010000
vn 0.99960000 0.02630000 -0.00500000
vn -0.28380000 -0.87830000 -0.38480000
vn -1.00000000 0.00040000 -0.00070000
vn -0.93840000 -0.00030000 0.34560000
vn -0.30660000 -0.22770000 -0.92420000
vn -0.94550000 -0.05070000 -0.32170000
vn -0.34870000 -0.61000000 0.71160000
vn -0.32310000 -0.30560000 0.89560000
vn -0.91320000 0.26250000 -0.31190000
vn -0.30480000 -0.77400000 -0.55500000
vn -0.28380000 -0.50430000 -0.81560000
vn -0.93430000 -0.34060000 -0.10540000
vn -0.99990000 -0.00000000 -0.01380000
vn -0.93710000 0.32720000 -0.12200000
vn -0.89500000 -0.14970000 0.42020000
vn -0.99810000 -0.01320000 0.06000000
vn -0.29780000 0.04510000 -0.95360000
vn -0.99980000 -0.01140000 -0.01310000
vn 0.90780000 0.05760000 -0.41540000
vn -0.32540000 0.35110000 -0.87800000
vn -1.00000000 0.00150000 0.00120000
vn -0.32280000 0.52840000 0.78530000
vn -1.00000000 0.00070000 0.00700000
vn -0.90950000 0.21690000 -0.35450000
vn -0.30040000 0.62850000 -0.71740000
vn -1.00000000 0.00060000 -0.00820000
vn -0.99950000 0.03290000 0.00230000
vn -0.89150000 0.18440000 0.41380000
vn -0.89800000 -0.27260000 -0.34540000
vn -0.30750000 0.84620000 0.43510000
vn -0.30820000 0.86500000 -0.39600000
vn -0.99980000 0.01450000 -0.01600000
vn -0.99950000 -0.00190000 0.03160000
vn -1.00000000 0.00470000 -0.00120000
vn -0.31300000 0.94880000 0.04300000
vn -0.94510000 -0.18910000 0.26640000
vn -0.84460000 0.52340000 0.11270000
vn -0.85920000 -0.35810000 -0.36530000
vn -0.91090000 0.40240000 -0.09130000
vn -0.59770000 0.76000000 -0.25520000
vn -0.66720000 -0.03550000 -0.74410000
vn -0.32840000 0.71250000 -0.62000000
vn 0.58130000 0.52900000 -0.61830000
vn -0.65860000 0.49590000 0.56590000
vn -0.89570000 -0.10950000 -0.43090000
vn -0.77070000 0.22880000 -0.59470000
vn -0.87940000 -0.10230000 0.46490000
vn -0.74050000 0.11070000 0.66280000
vn -0.81610000 0.37800000 -0.43710000
vn -0.74600000 -0.05970000 0.66330000
vn -0.67410000 -0.04570000 0.73730000
vn -0.09460000 0.95920000 -0.26630000
vn 0.13770000 -0.24080000 0.96080000
vn 0.06760000 0.72290000 0.68760000
vn -0.32640000 0.68270000 0.65380000
vn 0.44940000 0.61880000 0.64440000
vn -0.23220000 -0.05480000 0.97110000
vn 0.09440000 0.14060000 0.98560000
vn -0.34690000 0.72710000 -0.59240000
vn 0.11600000 0.82870000 -0.54750000
vn 0.60580000 0.52920000 -0.59410000
vn -0.63110000 0.46570000 -0.62040000
vn -0.77250000 0.15310000 0.61630000
vn -0.64230000 0.44930000 0.62090000
vn -0.00910000 0.46640000 0.88450000
vn 0.51840000 -0.77250000 -0.36680000
vn -0.57730000 -0.70620000 0.40990000
vn -0.60310000 -0.71300000 -0.35760000
vn -0.60890000 -0.70080000 0.37160000
vn 0.54900000 0.74030000 0.38800000
vn -0.54090000 0.70890000 -0.45260000
vn -0.58240000 0.73020000 -0.35740000
f 1//1 2//2 3//3
f 4//4 5//5 1//1
f 2//2 6//6 7//7
f 8//8 9//9 5//5
f 10//10 11//11 6//6
f 12//12 13//13 9//9
f 14//14 15//15 10//10
f 16//16 17//17 14//14
f 18//18 19//19 16//16
f 20//20 21//21 22//22
f 21//21 23//23 18//18
f 24//24 25//25 26//26
f 25//25 27//27 26//26
f 28//28 25//25 24//24
f 27//27 29//29 26//26
f 29//29 30//30 26//26
f 30//30 31//31 26//26
f 32//32 33//33 28//28
f 36//36 38//38 35//35
f 35//35 37//37 36//36
f 39//39 40//40 41//41
f 40//40 33//33 41//41
f 42//42 43//43 39//39
f 43//43 40//40 39//39
f 29//29 38//38 30//30
f 40//40 28//28 33//33
f 29//29 34//34 38//38
f 40//40 44//44 28//28
f 45//45 34//34 29//29
f 40//40 46//46 44//44
f 47//47 37//37 35//35
f 34//34 47//47 35//35
f 48//48 47//47 34//34
f 49//49 48//48 34//34
f 45//45 49//49 34//34
f 43//43 46//46 40//40
f 42//42 50//50 43//43
f 50//50 51//51 43//43
f 51//51 52//52 43//43
f 52//52 46//46 43//43
f 53//53 49//49 45//45
f 48//48 54//54 47//47
f 55//55 51//51 50//50
f 56//56 49//49 53//53
f 57//57 52//52 51//51
f 58//58 57//57 51//51
f 56//56 59//59 49//49
f 60//60 57//57 58//58
f 61//61 59//59 56//56
f 62//62 59//59 61//61
f 60//60 63//63 57//57
f 63//63 64//64 57//57
f 61//61 65//65 62//62
f 66//66 67//67 61//61
f 67//67 65//65 61//61
f 63//63 68//68 64//64
f 68//68 69//69 64//64
f 70//70 67//67 66//66
f 71//71 70//70 66//66
f 69//69 72//72 64//64
f 64//64 72//72 74//74
f 75//75 76//76 66//66
f 77//77 71//71 66//66
f 76//76 77//77 66//66
f 78//78 79//79 75//75
f 79//79 76//76 75//75
f 73//73 80//80 74//74
f 80//80 81//81 74//74
f 82//82 78//78 75//75
f 83//83 81//81 80//80
f 84//84 78//78 82//82
f 83//83 85//85 81//81
f 85//85 86//86 81//81
f 84//84 87//87 78//78
f 86//86 84//84 82//82
f 85//85 84//84 86//86
f 88//88 89//89 90//90
f 91//91 92//92 93//93
f 94//94 92//92 91//91
f 95//95 92//92 94//94
f 95//95 96//96 92//92
f 98//98 99//99 97//97
f 100//100 96//96 95//95
f 101//101 102//102 96//96
f 100//100 101//101 96//96
f 103//103 98//98 97//97
f 97//97 104//104 103//103
f 101//101 105//105 102//102
f 106//106 107//107 97//97
f 107//107 104//104 97//97
f 108//108 109//109 102//102
f 105//105 108//108 102//102
f 110//110 107//107 106//106
f 108//108 111//111 109//109
f 112//112 110//110 106//106
f 113//113 114//114 109//109
f 111//111 113//113 109//109
f 115//115 112//112 106//106
f 116//116 117//117 114//114
f 113//113 120//120 114//114
f 118//118 119//119 106//106
f 119//119 115//115 106//106
f 117//117 119//119 118//118
f 119//119 121//121 115//115
f 122//122 119//119 117//117
f 116//116 122//122 117//117
f 51//51 308//308 99//99
f 103//103 63//63 60//60
f 123//123 124//124 125//125
f 126//126 123//123 125//125
f 123//123 128//128 124//124
f 125//125 130//130 129//129
f 130//130 125//125 131//131
f 132//132 133//133 127//127
f 128//128 134//134 127//127
f 134//134 132//132 127//127
f 135//135 129//129 130//130
f 134//134 136//136 132//132
f 49//49 95//95 94//94
f 59//59 101//101 100//100
f 30//30 135//135 130//130
f 38//38 135//135 30//30
f 135//135 38//38 137//137
f 13//13 138//138 139//139
f 22//22 138//138 13//13
f 9//9 140//140 141//141
f 13//13 140//140 9//9
f 5//5 141//141 142//142
f 9//9 141//141 5//5
f 1//1 142//142 143//143
f 5//5 142//142 1//1
f 2//2 1//1 144//144
f 145//145 2//2 144//144
f 6//6 2//2 145//145
f 146//146 6//6 145//145
f 10//10 6//6 146//146
f 147//147 10//10 146//146
f 14//14 10//10 148//148
f 16//16 14//14 149//149
f 18//18 16//16 149//149
f 150//150 18//18 149//149
f 22//22 151//151 152//152
f 21//21 151//151 22//22
f 153//153 145//145 144//144
f 142//142 154//154 143//143
f 153//153 155//155 145//145
f 142//142 156//156 154//154
f 156//156 157//157 154//154
f 158//158 159//159 160//160
f 159//159 145//145 160//160
f 159//159 146//146 145//145
f 142//142 161//161 157//157
f 141//141 161//161 142//142
f 162//162 147//147 163//163
f 159//159 162//162 163//163
f 147//147 146//146 163//163
f 141//141 164//164 165//165
f 164//164 166//166 165//165
f 140//140 164//164 141//141
f 167//167 148//148 168//168
f 167//167 14//14 148//148
f 139//139 138//138 170//170
f 171//171 172//172 14//14
f 172//172 149//149 14//14
f 152//152 173//173 174//174
f 151//151 173//173 152//152
f 175//175 150//150 176//176
f 150//150 149//149 176//176
f 177//177 178//178 179//179
f 151//151 178//178 177//177
f 182//182 183//183 180//180
f 180//180 184//184 181//181
f 185//185 180//180 183//183
f 180//180 186//186 184//184
f 37//37 185//185 183//183
f 187//187 186//186 180//180
f 37//37 187//187 185//185
f 37//37 186//186 187//187
f 137//137 188//188 189//189
f 190//190 137//137 189//189
f 191//191 137//137 190//190
f 137//137 38//38 188//188
f 37//37 93//93 186//186
f 192//192 193//193 194//194
f 192//192 195//195 193//193
f 196//196 194//194 193//193
f 195//195 192//192 197//197
f 196//196 200//200 199//199
f 197//197 201//201 198//198
f 203//203 199//199 200//200
f 204//204 201//201 197//197
f 201//201 204//204 205//205
f 202//202 208//208 207//207
f 209//209 207//207 208//208
f 210//210 211//211 206//206
f 212//212 209//209 208//208
f 213//213 211//211 210//210
f 212//212 214//214 209//209
f 215//215 214//214 212//212
f 213//213 216//216 211//211
f 217//217 216//216 213//213
f 218//218 214//214 215//215
f 217//217 219//219 216//216
f 220//220 219//219 217//217
f 215//215 221//221 218//218
f 220//220 222//222 219//219
f 223//223 221//221 215//215
f 224//224 221//221 223//223
f 225//225 222//222 220//220
f 96//96 226//226 227//227
f 228//228 97//97 229//229
f 102//102 226//226 96//96
f 228//228 106//106 97//97
f 102//102 230//230 226//226
f 231//231 106//106 228//228
f 109//109 230//230 102//102
f 109//109 114//114 230//230
f 118//118 106//106 231//231
f 232//232 128//128 123//123
f 233//233 232//232 123//123
f 126//126 233//233 123//123
f 234//234 233//233 126//126
f 128//128 232//232 235//235
f 195//195 236//236 193//193
f 236//236 239//239 193//193
f 198//198 236//236 195//195
f 198//198 237//237 236//236
f 237//237 238//238 236//236
f 238//238 239//239 236//236
f 239//239 200//200 196//196
f 240//240 237//237 198//198
f 201//201 243//243 198//198
f 237//237 241//241 238//238
f 242//242 200//200 239//239
f 241//241 242//242 239//239
f 240//240 241//241 237//237
f 243//243 241//241 240//240
f 242//242 202//202 200//200
f 244//244 243//243 201//201
f 243//243 252//252 241//241
f 246//246 242//242 241//241
f 245//245 246//246 241//241
f 246//246 247//247 242//242
f 206//206 244//244 201//201
f 248//248 249//249 202//202
f 250//250 248//248 202//202
f 242//242 256//256 202//202
f 249//249 251//251 202//202
f 251//251 208//208 202//202
f 253//253 252//252 243//243
f 244//244 254//254 243//243
f 254//254 253//253 243//243
f 255//255 242//242 247//247
f 255//255 256//256 242//242
f 253//253 254//254 244//244
f 244//244 206//206 253//253
f 211//211 257//257 206//206
f 251//251 212//212 208//208
f 248//248 251//251 249//249
f 258//258 259//259 211//211
f 259//259 260//260 257//257
f 260//260 263//263 257//257
f 261//261 212//212 251//251
f 248//248 261//261 251//251
f 258//258 260//260 259//259
f 262//262 248//248 250//250
f 261//261 215//215 212//212
f 216//216 258//258 211//211
f 216//216 260//260 258//258
f 263//263 264//264 253//253
f 265//265 266//266 248//248
f 262//262 265//265 248//248
f 266//266 261//261 248//248
f 263//263 267//267 264//264
f 216//216 219//219 260//260
f 263//263 269//269 267//267
f 260//260 269//269 263//263
f 266//266 215//215 261//261
f 270//270 271//271 265//265
f 271//271 266//266 265//265
f 219//219 269//269 260//260
f 219//219 268//268 269//269
f 272//272 271//271 270//270
f 272//272 273//273 271//271
f 273//273 274//274 271//271
f 274//274 266//266 271//271
f 274//274 215//215 266//266
f 222//222 268//268 219//219
f 274//274 223//223 215//215
f 268//268 278//278 267//267
f 276//276 277//277 270//270
f 277//277 272//272 270//270
f 273//273 223//223 274//274
f 272//272 223//223 273//273
f 222//222 278//278 268//268
f 224//224 272//272 277//277
f 224//224 223//223 272//272
f 278//278 279//279 275//275
f 279//279 280//280 275//275
f 279//279 277//277 280//280
f 222//222 279//279 278//278
f 222//222 281//281 279//279
f 279//279 281//281 277//277
f 282//282 283//283 277//277
f 283//283 224//224 277//277
f 282//282 224//224 283//283
f 222//222 225//225 281//281
f 281//281 284//284 282//282
f 284//284 285//285 282//282
f 285//285 224//224 282//282
f 225//225 285//285 284//284
f 225//225 284//284 281//281
f 27//27 1//1 3//3
f 2//2 27//27 3//3
f 27//27 25//25 1//1
f 29//29 27//27 2//2
f 7//7 29//29 2//2
f 25//25 4//4 1//1
f 28//28 4//4 25//25
f 28//28 44//44 5//5
f 45//45 29//29 7//7
f 6//6 45//45 7//7
f 44//44 8//8 5//5
f 46//46 8//8 44//44
f 6//6 11//11 53//53
f 46//46 52//52 9//9
f 11//11 10//10 56//56
f 52//52 12//12 9//9
f 57//57 12//12 52//52
f 61//61 56//56 10//10
f 15//15 61//61 10//10
f 57//57 13//13 12//12
f 14//14 61//61 15//15
f 64//64 13//13 57//57
f 66//66 61//61 14//14
f 17//17 66//66 14//14
f 64//64 22//22 13//13
f 74//74 22//22 64//64
f 17//17 16//16 66//66
f 74//74 20//20 22//22
f 19//19 75//75 16//16
f 81//81 20//20 74//74
f 82//82 75//75 19//19
f 81//81 21//21 20//20
f 18//18 82//82 19//19
f 81//81 86//86 21//21
f 86//86 82//82 18//18
f 23//23 86//86 18//18
f 21//21 178//178 151//151
f 18//18 178//178 21//21
f 246//246 245//245 155//155
f 154//154 246//246 153//153
f 245//245 158//158 155//155
f 247//247 246//246 154//154
f 255//255 247//247 154//154
f 157//157 255//255 154//154
f 245//245 252//252 158//158
f 252//252 159//159 158//158
f 256//256 255//255 157//157
f 161//161 256//256 157//157
f 252//252 162//162 159//159
f 166//166 256//256 161//161
f 253//253 162//162 252//252
f 166//166 250//250 256//256
f 264//264 168//168 253//253
f 166//166 164//164 250//250
f 167//167 168//168 264//264
f 164//164 170//170 262//262
f 170//170 265//265 262//262
f 267//267 171//171 264//264
f 171//171 167//167 264//264
f 169//169 265//265 170//170
f 172//172 171//171 267//267
f 169//169 270//270 265//265
f 176//176 172//172 267//267
f 275//275 176//176 267//267
f 169//169 174//174 270//270
f 174//174 173//173 276//276
f 175//175 176//176 275//275
f 280//280 175//175 275//275
f 173//173 177//177 276//276
f 177//177 280//280 276//276
f 179//179 175//175 280//280
f 177//177 179//179 280//280
f 93//93 286//286 186//186
f 92//92 286//286 93//93
f 92//92 96//96 227//227
f 210//210 205//205 286//286
f 213//213 210//210 286//286
f 54//54 91//91 93//93
f 54//54 48//48 91//91
f 48//48 94//94 91//91
f 49//49 94//94 48//48
f 62//62 101//101 59//59
f 62//62 65//65 101//101
f 65//65 105//105 101//101
f 65//65 67//67 105//105
f 67//67 70//70 105//105
f 70//70 108//108 105//105
f 70//70 71//71 108//108
f 77//77 111//111 108//108
f 71//71 77//77 108//108
f 77//77 76//76 111//111
f 76//76 79//79 111//111
f 79//79 113//113 111//111
f 78//78 113//113 79//79
f 182//182 287//287 190//190
f 189//189 188//188 288//288
f 287//287 181//181 190//190
f 188//188 36//36 288//288
f 38//38 36//36 188//188
f 184//184 289//289 181//181
f 184//184 191//191 289//289
f 290//290 191//191 184//184
f 291//291 294//294 292//292
f 290//290 234//234 191//191
f 199//199 203//203 294//294
f 290//290 197//197 234//234
f 204//204 197//197 290//290
f 186//186 204//204 290//290
f 203//203 295//295 292//292
f 207//207 295//295 203//203
f 186//186 205//205 204//204
f 286//286 205//205 186//186
f 207//207 296//296 295//295
f 191//191 135//135 137//137
f 191//191 234//234 135//135
f 234//234 129//129 135//135
f 185//185 297//297 180//180
f 297//297 187//187 180//180
f 187//187 297//297 185//185
f 54//54 93//93 47//47
f 300//300 293//293 299//299
f 298//298 301//301 299//299
f 298//298 39//39 301//301
f 298//298 302//302 39//39
f 293//293 295//295 298//298
f 302//302 42//42 39//39
f 303//303 42//42 302//302
f 295//295 42//42 303//303
f 41//41 304//304 305//305
f 306//306 41//41 305//305
f 41//41 307//307 304//304
f 41//41 291//291 307//307
f 90//90 42//42 295//295
f 296//296 90//90 295//295
f 296//296 88//88 90//90
f 97//97 88//88 229//229
f 209//209 296//296 207//207
f 209//209 214//214 296//296
f 221//221 228//228 218//218
f 221//221 231//231 228//228
f 224//224 231//231 221//221
f 224//224 118//118 231//231
f 89//89 51//51 55//55
f 308//308 51//51 89//89
f 104//104 68//68 63//63
f 107//107 68//68 104//104
f 69//69 68//68 107//107
f 110//110 72//72 69//69
f 110//110 112//112 72//72
f 115//115 80//80 73//73
f 33//33 136//136 41//41
f 136//136 33//33 132//132
f 305//305 300//300 299//299
f 304//304 300//300 305//305
f 301//301 305//305 299//299
f 306//306 305//305 301//301
f 304//304 307//307 309//309
f 39//39 306//306 301//301
f 307//307 293//293 309//309
f 291//291 293//293 307//307
f 41//41 306//306 39//39
f 136//136 291//291 41//41
f 136//136 294//294 291//291
f 134//134 294//294 136//136
f 235//235 294//294 134//134
f 302//302 298//298 310//310
f 303//303 310//310 298//298
f 310//310 303//303 302//302
f 34//34 35//35 297//297
f 43//43 40//40 310//310
f 179//179 281//281 175//175
f 284//284 281//281 179//179
f 150//150 175//175 281//281
f 178//178 284//284 179//179
f 18//18 150//150 281//281
f 284//284 18//18 281//281
f 178//178 18//18 284//284
f 283//283 177//177 173//173
f 282//282 177//177 283//283
f 151//151 283//283 173//173
f 151//151 177//177 282//282
f 151//151 282//282 283//283
f 138//138 274//274 169//169
f 274//274 273//273 169//169
f 273//273 174//174 169//169
f 152//152 174//174 273//273
f 138//138 152//152 274//274
f 152//152 273//273 274//274
f 140//140 261//261 164//164
f 261//261 170//170 164//164
f 139//139 261//261 140//140
f 139//139 170//170 261//261
f 141//141 251//251 161//161
f 249//249 166//166 161//161
f 251//251 249//249 161//161
f 249//249 251//251 166//166
f 141//141 165//165 251//251
f 242//242 156//156 142//142
f 242//242 157//157 156//156
f 157//157 242//242 142//142
f 143//143 239//239 144//144
f 238//238 153//153 144//144
f 239//239 238//238 144//144
f 154//154 239//239 143//143
f 154//154 153//153 238//238
f 154//154 238//238 239//239
f 237//237 240//240 145//145
f 240//240 160//160 145//145
f 155//155 237//237 145//145
f 158//158 160//160 240//240
f 158//158 240//240 237//237
f 155//155 158//158 237//237
f 159//159 244//244 146//146
f 254//254 244//244 159//159
f 163//163 146//146 244//244
f 254//254 163//163 244//244
f 159//159 163//163 254//254
f 162//162 257//257 147//147
f 259//259 257//257 162//162
f 148//148 147//147 259//259
f 168//168 148//148 259//259
f 162//162 168//168 259//259
f 269//269 260//260 167//167
f 260//260 14//14 167//167
f 171//171 269//269 167//167
f 269//269 14//14 260//260
f 171//171 14//14 269//269
f 278//278 149//149 172//172
f 176//176 278//278 172//172
f 176//176 149//149 278//278
f 148//148 10//10 147//147
f 1//1 143//143 144//144
f 13//13 139//139 140//140
f 22//22 152//152 138//138
f 311//311 85//85 312//312
f 84//84 311//311 122//122
f 313//313 122//122 116//116
f 84//84 122//122 313//313
f 87//87 313//313 120//120
f 78//78 87//87 120//120
f 115//115 121//121 83//83
f 312//312 85//85 119//119
f 85//85 314//314 119//119
f 314//314 121//121 119//119
f 314//314 83//83 121//121
f 316//316 124//124 315//315
f 26//26 125//125 316//316
f 317//317 125//125 26//26
f 317//317 31//31 131//131
f 125//125 317//317 131//131
f 124//124 24//24 315//315
f 127//127 24//24 124//124
f 32//32 24//24 127//127
f 133//133 32//32 127//127
f 49//49 59//59 100//100
f 37//37 47//47 93//93
f 90//90 50//50 42//42
f 89//89 55//55 50//50
f 31//31 30//30 130//130
f 98//98 60//60 58//58
f 33//33 32//32 133//133
f 132//132 33//33 133//133
f 192//192 194//194 233//233
f 194//194 232//232 233//233
f 194//194 199//199 232//232
f 197//197 192//192 233//233
f 226//226 217//217 213//213
f 230//230 220//220 226//226
f 220//220 217//217 226//226
f 114//114 225//225 220//220
f 285//285 117//117 224//224
f 225//225 117//117 285//285
f 315//315 24//24 26//26
f 317//317 26//26 31//31
f 289//289 191//191 190//190
f 199//199 294//294 235//235
f 234//234 197//197 233//233
f 199//199 235//235 232//232
f 125//125 124//124 316//316
f 122//122 312//312 119//119
f 88//88 308//308 89//89
f 88//88 99//99 308//308
f 84//84 313//313 87//87
f 85//85 311//311 84//84
f 83//83 314//314 85//85
f 309//309 293//293 300//300
f 292//292 295//295 293//293
f 214//214 229//229 296//296
f 218//218 229//229 214//214
f 218//218 228//228 229//229
f 117//117 225//225 114//114
f 117//117 118//118 224//224
f 226//226 213//213 227//227
f 114//114 220//220 230//230
f 227//227 213//213 286//286
f 186//186 290//290 184//184
f 182//182 181//181 287//287
f 288//288 183//183 182//182
f 36//36 183//183 288//288
f 36//36 37//37 183//183
f 32//32 28//28 24//24
f 38//38 34//34 35//35
f 72//72 73//73 74//74
f 99//99 88//88 97//97
f 120//120 116//116 114//114
f 51//51 99//99 58//58
f 103//103 60//60 98//98
f 128//128 127//127 124//124
f 125//125 129//129 126//126
f 138//138 169//169 170//170
f 182//182 180//180 181//181
f 195//195 197//197 198//198
f 196//196 199//199 194//194
f 203//203 200//200 202//202
f 201//201 205//205 206//206
f 202//202 207//207 203//203
f 210//210 206//206 205//205
f 234//234 126//126 129//129
f 128//128 235//235 134//134
f 239//239 196//196 193//193
f 243//243 240//240 198//198
f 241//241 239//239 238//238
f 252//252 245//245 241//241
f 256//256 250//250 202//202
f 206//206 257//257 253//253
f 259//259 257//257 211//211
f 263//263 253//253 257//257
f 269//269 268//268 267//267
f 278//278 275//275 267//267
f 277//277 276//276 280//280
f 281//281 282//282 277//277
f 28//28 5//5 4//4
f 6//6 53//53 45//45
f 46//46 9//9 8//8
f 11//11 56//56 53//53
f 16//16 75//75 66//66
f 86//86 23//23 21//21
f 246//246 155//155 153//153
f 168//168 162//162 253//253
f 164//164 262//262 250//250
f 174//174 276//276 270//270
f 92//92 227//227 286//286
f 182//182 190//190 189//189
f 189//189 288//288 182//182
f 181//181 289//289 190//190
f 291//291 292//292 293//293
f 203//203 292//292 294//294
f 293//293 298//298 299//299
f 295//295 303//303 298//298
f 88//88 296//296 229//229
f 104//104 63//63 103//103
f 110//110 69//69 107//107
f 112//112 73//73 72//72
f 115//115 73//73 112//112
f 304//304 309//309 300//300
f 251//251 165//165 166//166
f 147//147 257//257 259//259
f 311//311 312//312 122//122
f 313//313 116//116 120//120
f 78//78 120//120 113//113
f 115//115 83//83 80//80
f 316//316 315//315 26//26
f 49//49 100//100 95//95
f 89//89 50//50 90//90
f 31//31 130//130 131//131
f 98//98 58//58 99//99

