mtllib material.mtl
usemtl Material-Metal.007
v 0.01511200 -0.01667000 -0.03200000
v 0.00054600 -0.02334600 -0.03404800
v 0.01650100 -0.01591200 -0.03384400
v 0.00309300 -0.02228600 -0.03200000
v 0.02673700 -0.01431500 -0.03209300
v 0.01847500 -0.01422000 -0.03200200
v 0.02143100 -0.01207300 -0.03192100
v 0.03289600 -0.03269600 -0.03200400
v 0.03063000 -0.03516800 -0.03200000
v 0.02996600 -0.03576400 -0.03200000
v -0.00457100 -0.02382300 -0.03200300
v -0.00610900 -0.02980600 -0.03200000
v 0.00351400 -0.04544700 -0.03200000
v 0.02432000 -0.04015100 -0.03196000
v 0.00836700 -0.04613400 -0.03200200
v 0.00576700 -0.04647300 -0.03199200
v 0.03287900 -0.04294000 -0.03200400
v 0.03530700 -0.03996800 -0.03192300
v 0.01639600 -0.04346000 -0.03201500
v 0.01151600 -0.05245700 -0.03196300
v 0.00805100 -0.05297000 -0.03268800
v 0.03602900 -0.04203900 -0.03753900
v 0.03302400 -0.03328400 -0.03488900
v 0.02727800 -0.01561700 -0.03832500
v 0.03503100 -0.03928900 -0.03488300
v 0.02484200 -0.01180600 -0.03886500
v 0.02148500 -0.00889200 -0.03496700
v 0.02207400 -0.00903800 -0.03927100
v -0.00640100 -0.02936000 -0.03461600
v -0.00705200 -0.02311600 -0.03913100
v -0.00723600 -0.02275600 -0.03490200
v -0.00600700 -0.03018200 -0.03828600
v 0.02169500 0.01077000 -0.03876500
v 0.02717700 -0.00735200 -0.03887900
v 0.02232400 0.00734100 -0.03919600
v 0.02281400 -0.00280700 -0.03875300
v 0.02272800 -0.00208900 -0.03490200
v 0.01946100 0.00798700 -0.03905000
v 0.01780000 0.01150300 -0.03495700
v 0.04067600 -0.04835000 -0.03745100
v -0.01030600 -0.02732700 -0.03876600
v 0.01346200 -0.06247500 -0.03736000
v 0.01132600 -0.06370300 -0.03724600
v 0.00978600 -0.05637600 -0.03765500
v 0.03443800 -0.04685800 -0.03738600
v 0.03839800 -0.05017300 -0.03704600
v 0.04181300 -0.05618000 -0.03720400
v 0.03914200 -0.05573700 -0.03713800
v 0.01249800 -0.05831900 -0.03750400
v 0.01415700 -0.05647100 -0.03732800
v 0.03599200 -0.06243000 -0.03700600
v 0.03456600 -0.06788400 -0.03699000
v 0.01727700 -0.06897400 -0.03706100
v 0.03117200 -0.06631500 -0.03696100
v 0.02244400 -0.06770400 -0.03710200
v 0.02502300 -0.07062800 -0.03700700
v 0.00426000 -0.04660300 -0.03486400
v 0.00929600 -0.05471800 -0.03693400
v 0.00766700 -0.05214800 -0.03485300
v -0.02055900 -0.00602000 -0.03499600
v -0.01314200 -0.01861400 -0.03881200
v -0.02176600 -0.00346400 -0.03939400
v -0.01294100 -0.01880400 -0.03490300
v 0.01847400 -0.00591100 -0.03268700
v 0.01295900 -0.01177600 -0.03369200
v 0.01260800 -0.00635400 -0.03323600
v 0.01861000 -0.01176500 -0.03414200
v -0.00056200 -0.02069400 -0.03303900
v -0.00686400 -0.01625900 -0.03294900
v -0.00160000 -0.01372900 -0.03303000
v -0.00612900 -0.02056500 -0.03299900
v -0.01516100 0.00079700 -0.03299600
v -0.01647700 -0.00579500 -0.03300800
v -0.02141800 0.00022300 -0.03307100
v -0.01413800 -0.00344800 -0.03439100
v -0.02087800 -0.00502100 -0.03300100
v -0.00419500 0.01749800 -0.03302600
v -0.01021400 0.01929700 -0.03298900
v -0.00669700 0.02017500 -0.03408700
v -0.01105000 0.01400300 -0.03289900
v -0.00507700 0.01300900 -0.03298100
v 0.01540400 0.00900600 -0.03298100
v 0.00947600 0.01418100 -0.03310800
v 0.01552100 0.01554900 -0.03285500
v 0.01058800 0.00923500 -0.03299600
v 0.01641600 -0.00477300 -0.03491100
v -0.00585600 -0.01416000 -0.03493900
v 0.00047400 -0.01399400 -0.03406700
v -0.00696600 -0.01950200 -0.03487500
v 0.00084800 -0.01724600 -0.03393800
v -0.00197400 -0.02133100 -0.03483500
v 0.04213500 -0.05462900 -0.03294400
v 0.04183300 -0.05032000 -0.03688600
v 0.04068200 -0.04651300 -0.03301200
v 0.03858900 -0.06422200 -0.03290700
v 0.04003400 -0.06178700 -0.03652600
v 0.01211300 -0.06479200 -0.03327800
v 0.02039500 -0.07004600 -0.03282300
v 0.03037700 -0.06977200 -0.03296900
v -0.02092600 0.00179800 -0.03499700
v -0.01512100 0.00104800 -0.03490100
v -0.01589900 -0.00562600 -0.03489800
v -0.01772300 0.01150400 -0.03490300
v -0.01663600 0.01311000 -0.03962800
v -0.01227000 0.01676600 -0.03499800
v -0.00912900 0.01989000 -0.03953300
v -0.01999800 0.00675800 -0.03958000
v -0.00370600 0.01684100 -0.03488900
v -0.00471300 0.01387900 -0.03506500
v -0.00929300 0.01272600 -0.03488400
v -0.00002900 0.02108100 -0.03968600
v 0.00644400 0.02015400 -0.03490600
v -0.00074300 0.02098700 -0.03490000
v 0.00741600 0.01983600 -0.03952400
v 0.01327800 0.01640100 -0.03488800
v 0.01586200 0.01504800 -0.03901000
v 0.00885800 0.01304400 -0.03488700
v 0.01193300 0.00844200 -0.03496200
v 0.01512800 0.00892200 -0.03490200
v 0.00654700 0.01215800 -0.03479900
v -0.00121400 0.01381500 -0.02999800
v -0.00108700 0.01357600 -0.03476700
v -0.00894600 0.01083700 -0.03486900
v 0.00751700 0.01142500 -0.03000000
v -0.00884100 0.01020300 -0.03000000
v -0.01340200 0.00370000 -0.03000500
v 0.01154000 0.00729500 -0.03435300
v 0.01235100 0.00577400 -0.02999600
v -0.01380900 0.00162500 -0.03466100
v 0.01352900 0.00194500 -0.03487800
v 0.01350000 0.00000000 -0.03000000
v -0.01250700 -0.00552200 -0.03000000
v 0.01301800 -0.00418500 -0.03474700
v 0.01253600 -0.00530600 -0.02999900
v -0.01193400 -0.00669300 -0.03474100
v 0.00941700 -0.01020400 -0.03391200
v -0.00831900 -0.01092100 -0.03432000
v -0.00731200 -0.01159600 -0.02999900
v 0.00884100 -0.01020300 -0.03000000
v 0.00428500 -0.01292800 -0.03000100
v -0.00192100 -0.01336300 -0.03000000
v -0.00468600 -0.02419700 -0.03486700
v 0.02423900 -0.01232100 -0.03477000
v 0.00025200 -0.02048300 -0.03394400
v 0.03921200 -0.05298700 -0.03490100
v 0.03648700 -0.06195100 -0.03485800
v 0.01924000 -0.06648000 -0.03489900
v 0.01376800 -0.06084300 -0.03495400
v 0.03092700 -0.06618400 -0.03490000
v 0.02615500 -0.06753300 -0.03489000
v 0.03548700 -0.04259400 -0.03547400
v 0.03280800 -0.04295600 -0.03489900
v 0.01894800 -0.04177500 -0.03489100
v 0.02746300 -0.04063100 -0.03489500
v 0.01330900 -0.04782600 -0.03489200
v 0.01188800 -0.05287600 -0.03487800
v 0.03430700 -0.04740600 -0.03488900
v 0.03717500 -0.04916600 -0.03489900
v 0.01398200 -0.05633300 -0.03489800
v 0.00468500 0.02353800 -0.03050000
v -0.00155800 0.02415300 -0.03976500
v -0.00340300 0.02392200 -0.03052900
v 0.00700200 0.02308200 -0.03975000
v 0.01196900 0.02093700 -0.03047600
v -0.00986800 0.02199600 -0.03946700
v -0.01236300 0.02066800 -0.03051400
v 0.01544900 0.01865500 -0.03907700
v -0.01670800 0.01747900 -0.03941000
v 0.01771200 0.01619600 -0.03050000
v -0.01818100 0.01566700 -0.03050000
v 0.02191600 0.01005300 -0.03050500
v -0.02077700 0.01223000 -0.03979500
v -0.02221200 0.00940400 -0.03047600
v -0.02383100 0.00390600 -0.03956800
v -0.02414600 -0.00057300 -0.03040800
v -0.02364400 -0.00535800 -0.03913600
v -0.02176200 -0.01037800 -0.03049200
v -0.02039700 -0.01266500 -0.03909700
v 0.03617500 -0.03311900 -0.03056800
v 0.03549300 -0.03328600 -0.03000300
v 0.03768600 -0.05162600 -0.03000100
v 0.03589000 -0.06100100 -0.02998400
v 0.01991400 -0.06612000 -0.03000200
v 0.02965700 -0.06572500 -0.02999900
v -0.01256500 -0.02526000 -0.03840900
v 0.00258900 -0.04963200 -0.03075900
v 0.00184200 -0.04749700 -0.03000000
v 0.01111300 0.02088100 -0.02999800
v -0.00449500 0.02369600 -0.02999700
v -0.02038200 0.01302000 -0.02998900
v 0.02049500 0.01243700 -0.02999900
v -0.02351400 -0.00197600 -0.02999900
v -0.02057900 -0.01145000 -0.02999900
v -0.01004500 0.02068400 -0.04008000
v 0.01695400 0.01563100 -0.03959600
v -0.01187100 -0.02223500 -0.03904200
v 0.00809200 -0.04604500 -0.03481600
v 0.02017800 -0.01263500 -0.03471900
v 0.02996900 -0.03589500 -0.03476100
v 0.01133000 -0.00896300 -0.03405000
vn 0.32020000 -0.60120000 -0.73210000
vn 0.29160000 -0.77360000 -0.56260000
vn 0.41110000 -0.65860000 -0.63030000
vn 0.25830000 -0.63060000 -0.73190000
vn -0.60280000 -0.44540000 -0.66210000
vn 0.44020000 -0.54400000 -0.71430000
vn 0.11680000 -0.75570000 -0.64440000
vn -0.76180000 0.11630000 -0.63720000
vn -0.47070000 0.50770000 -0.72160000
vn -0.38270000 -0.00570000 -0.92390000
vn 0.51100000 -0.63760000 -0.57640000
vn 0.73930000 0.14730000 -0.65710000
vn 0.52600000 0.50850000 -0.68170000
vn -0.03220000 0.56200000 -0.82650000
vn 0.25580000 0.26960000 -0.92840000
vn 0.04390000 0.73470000 -0.67690000
vn -0.07270000 0.75410000 -0.65280000
vn -0.71380000 -0.18510000 -0.67550000
vn -0.41690000 0.47770000 -0.77330000
vn -0.41010000 0.58960000 -0.69580000
vn 0.61670000 0.49110000 -0.61530000
vn -0.59680000 -0.01530000 -0.80220000
vn -0.96590000 -0.04570000 -0.25490000
vn -0.65360000 -0.32340000 -0.68420000
vn -0.86100000 -0.48380000 -0.15690000
vn -0.43200000 -0.49310000 -0.75510000
vn -0.65730000 -0.19620000 -0.72760000
vn -0.67220000 -0.24200000 -0.69970000
vn 0.97440000 0.20220000 -0.09840000
vn 0.66840000 0.34850000 -0.65710000
vn 0.50960000 0.30710000 -0.80380000
vn 0.68280000 0.25150000 -0.68590000
vn 0.76200000 0.40070000 -0.50880000
vn 0.45780000 0.12900000 -0.87970000
vn 0.35060000 0.09380000 -0.93180000
vn -0.68000000 -0.05190000 -0.73140000
vn -0.74020000 -0.07820000 -0.66790000
vn -0.64870000 -0.29000000 -0.70370000
vn -0.86760000 -0.22130000 -0.44530000
vn 0.34350000 0.06300000 -0.93700000
vn -0.18710000 -0.16790000 -0.96790000
vn 0.37350000 0.15800000 -0.91410000
vn -0.57230000 -0.48160000 -0.66370000
vn 0.03770000 0.10400000 -0.99390000
vn -0.74380000 -0.19910000 -0.63800000
vn -0.52380000 -0.36180000 -0.77120000
vn 0.71140000 -0.14450000 -0.68780000
vn -0.56720000 0.12100000 -0.81460000
vn 0.07410000 -0.00540000 -0.99720000
vn 0.70830000 0.43340000 -0.55720000
vn -0.52110000 0.42810000 -0.73830000
vn 0.42020000 -0.65210000 -0.63100000
vn -0.36290000 -0.70170000 -0.61310000
vn -0.27490000 0.55740000 -0.78340000
vn 0.10250000 0.54740000 -0.83060000
vn 0.02640000 -0.77470000 -0.63180000
vn 0.66700000 0.70690000 -0.23540000
vn 0.62880000 0.65390000 -0.42070000
vn 0.92360000 0.35920000 -0.13410000
vn 0.72420000 0.62320000 -0.29520000
vn 0.52750000 0.47870000 -0.70190000
vn 0.56950000 0.06600000 -0.81930000
vn 0.54230000 0.51540000 -0.66350000
vn -0.44310000 -0.54640000 -0.71070000
vn 0.01180000 0.12450000 -0.99220000
vn 0.49380000 -0.33730000 -0.80150000
vn -0.18390000 0.12330000 -0.97520000
vn -0.35560000 0.57960000 -0.73320000
vn 0.74600000 -0.27210000 -0.60780000
vn -0.12310000 -0.75880000 -0.63960000
vn 0.49330000 0.67450000 -0.54930000
vn -0.53100000 -0.53540000 -0.65680000
vn -0.30630000 0.68560000 -0.66040000
vn 0.65950000 -0.33580000 -0.67250000
vn -0.38450000 0.09950000 -0.91770000
vn 0.58500000 0.42430000 -0.69120000
vn -0.67990000 -0.31910000 -0.66020000
vn 0.44040000 -0.61560000 -0.65350000
vn -0.03890000 -0.85260000 -0.52110000
vn 0.62850000 0.49640000 -0.59880000
vn -0.47440000 0.69990000 -0.53390000
vn -0.41090000 0.63630000 -0.65290000
vn 0.66770000 -0.47300000 -0.57490000
vn -0.44220000 -0.59750000 -0.66890000
vn 0.56810000 0.59030000 -0.57340000
vn -0.08240000 -0.43670000 -0.89580000
vn 0.29760000 -0.17890000 -0.93780000
vn -0.17210000 0.50800000 -0.84400000
vn 0.44390000 0.20150000 -0.87310000
vn -0.21430000 -0.02760000 -0.97640000
vn 0.13660000 0.48160000 -0.86570000
vn 0.88920000 -0.07470000 0.45150000
vn 0.88690000 0.13800000 -0.44080000
vn 0.89040000 0.21680000 0.40030000
vn 0.70920000 -0.56330000 0.42390000
vn 0.77290000 -0.40860000 -0.48540000
vn -0.65360000 -0.63630000 0.40970000
vn -0.22250000 -0.87040000 0.43920000
vn 0.26980000 -0.86930000 0.41420000
vn 0.78170000 -0.44120000 -0.44070000
vn -0.18780000 -0.39980000 -0.89710000
vn -0.23670000 0.51300000 -0.82510000
vn 0.62360000 -0.39730000 -0.67330000
vn 0.52380000 -0.46510000 -0.71360000
vn 0.78550000 -0.45800000 -0.41610000
vn 0.31690000 -0.75870000 -0.56920000
vn 0.61930000 -0.22420000 -0.75240000
vn -0.49490000 -0.02140000 -0.86870000
vn -0.42180000 0.33160000 -0.84390000
vn 0.13500000 0.45780000 -0.87880000
vn 0.00280000 -0.68010000 -0.73310000
vn -0.21970000 -0.71020000 -0.66880000
vn -0.00870000 -0.73380000 -0.67930000
vn -0.23950000 -0.65240000 -0.71900000
vn -0.19990000 -0.91310000 -0.35530000
vn -0.56900000 -0.60190000 -0.56030000
vn 0.41900000 -0.05190000 -0.90650000
vn -0.04370000 0.37040000 -0.92780000
vn -0.26490000 0.57360000 -0.77520000
vn -0.29080000 -0.57700000 -0.76320000
vn 0.05080000 -0.61110000 0.78990000
vn 0.06050000 -0.67690000 -0.73360000
vn 0.35740000 -0.46690000 -0.80880000
vn -0.35310000 -0.54060000 0.76360000
vn 0.44470000 -0.51540000 0.73250000
vn 0.58730000 -0.17690000 0.78980000
vn -0.76550000 -0.44550000 -0.46420000
vn -0.59150000 -0.28330000 0.75490000
vn 0.69720000 -0.11920000 -0.70690000
vn -0.64870000 -0.08960000 -0.75580000
vn -0.67440000 0.00200000 0.73840000
vn 0.58700000 0.24790000 0.77070000
vn -0.63320000 -0.05820000 -0.77180000
vn -0.60530000 0.26310000 0.75130000
vn 0.56930000 0.35850000 -0.73980000
vn -0.53330000 0.58970000 -0.60650000
vn 0.66740000 0.71260000 -0.21620000
vn 0.33110000 0.53930000 0.77430000
vn -0.45650000 0.52230000 0.72030000
vn -0.21790000 0.60900000 0.76260000
vn 0.12750000 0.66150000 0.73900000
vn 0.38400000 -0.41420000 -0.82520000
vn 0.50610000 -0.29600000 -0.81010000
vn -0.23190000 0.26620000 -0.93560000
vn -0.77280000 -0.08850000 -0.62840000
vn -0.62480000 0.43820000 -0.64620000
vn 0.36720000 0.69430000 -0.61900000
vn 0.69980000 0.13030000 -0.70240000
vn -0.30930000 0.63600000 -0.70700000
vn -0.09350000 0.76480000 -0.63740000
vn -0.84750000 0.36770000 -0.38270000
vn 0.02540000 0.64360000 -0.76490000
vn -0.34500000 0.69760000 -0.62790000
vn 0.16960000 0.75310000 -0.63570000
vn -0.68580000 0.37360000 -0.62450000
vn -0.48290000 0.14670000 -0.86330000
vn -0.43570000 -0.19860000 -0.87790000
vn -0.49220000 -0.57180000 -0.65640000
vn 0.39160000 0.32470000 -0.86100000
vn 0.15730000 0.81750000 0.55400000
vn -0.03310000 0.74110000 -0.67060000
vn -0.08560000 0.97770000 0.19190000
vn 0.22110000 0.68510000 -0.69410000
vn 0.47980000 0.77590000 0.40960000
vn -0.35230000 0.79860000 -0.48800000
vn -0.42230000 0.70350000 0.57160000
vn 0.54680000 0.65040000 -0.52730000
vn -0.56870000 0.61370000 -0.54770000
vn 0.61890000 0.59540000 0.51230000
vn -0.66620000 0.63830000 0.38570000
vn 0.84390000 0.36560000 0.39260000
vn -0.62670000 0.34770000 -0.69740000
vn -0.81570000 0.29130000 0.49980000
vn -0.72880000 0.10920000 -0.67590000
vn -0.86260000 0.01640000 0.50570000
vn -0.75640000 -0.18570000 -0.62720000
vn -0.82160000 -0.33990000 0.45760000
vn -0.62150000 -0.36100000 -0.69530000
vn 0.86010000 0.24090000 0.44970000
vn 0.34380000 0.07440000 0.93610000
vn 0.33010000 0.01770000 0.94380000
vn 0.29890000 -0.19010000 0.93520000
vn -0.15640000 -0.35970000 0.91990000
vn 0.12210000 -0.33550000 0.93410000
vn -0.69050000 -0.42450000 -0.58570000
vn -0.72650000 -0.53040000 0.43690000
vn -0.39650000 -0.26310000 0.87950000
vn 0.18870000 0.42250000 0.88650000
vn -0.23230000 0.76900000 0.59550000
vn -0.76180000 0.48950000 0.42430000
vn 0.67510000 0.45460000 0.58100000
vn -0.46120000 -0.09310000 0.88240000
vn -0.35560000 -0.20480000 0.91190000
vn -0.05340000 0.08890000 -0.99460000
vn 0.16330000 0.09090000 -0.98240000
vn -0.08510000 -0.05250000 -0.99500000
vn 0.52930000 0.62150000 -0.57750000
vn 0.20620000 -0.35060000 -0.91350000
vn -0.82870000 -0.04770000 -0.55770000
vn 0.21090000 -0.06640000 -0.97530000
f 1//1 2//2 3//3
f 4//4 2//2 1//1
f 5//5 6//6 7//7
f 5//5 8//8 6//6
f 9//9 1//1 8//8
f 9//9 10//10 1//1
f 10//10 11//11 4//4
f 10//10 13//13 11//11
f 14//14 15//15 10//10
f 15//15 16//16 10//10
f 16//16 13//13 10//10
f 17//17 14//14 10//10
f 18//18 17//17 10//10
f 19//19 15//15 14//14
f 20//20 15//15 19//19
f 20//20 21//21 15//15
f 22//22 23//23 24//24
f 23//23 8//8 24//24
f 22//22 25//25 23//23
f 26//26 27//27 28//28
f 26//26 5//5 27//27
f 24//24 5//5 26//26
f 29//29 32//32 30//30
f 33//33 34//34 35//35
f 36//36 37//37 38//38
f 37//37 39//39 38//38
f 40//40 22//22 34//34
f 22//22 24//24 34//34
f 24//24 26//26 34//34
f 32//32 41//41 30//30
f 42//42 43//43 41//41
f 44//44 42//42 41//41
f 32//32 44//44 41//41
f 40//40 45//45 22//22
f 40//40 46//46 45//45
f 47//47 46//46 40//40
f 48//48 46//46 47//47
f 49//49 44//44 50//50
f 47//47 51//51 48//48
f 50//50 42//42 49//49
f 52//52 51//51 47//47
f 53//53 43//43 42//42
f 52//52 54//54 51//51
f 55//55 53//53 42//42
f 56//56 53//53 55//55
f 52//52 56//56 54//54
f 57//57 58//58 32//32
f 29//29 13//13 32//32
f 12//12 13//13 29//29
f 59//59 58//58 57//57
f 21//21 58//58 59//59
f 60//60 61//61 62//62
f 63//63 61//61 60//60
f 64//64 65//65 66//66
f 67//67 65//65 64//64
f 68//68 71//71 69//69
f 73//73 76//76 74//74
f 75//75 73//73 72//72
f 77//77 78//78 79//79
f 77//77 81//81 80//80
f 82//82 85//85 83//83
f 66//66 86//86 64//64
f 86//86 27//27 64//64
f 67//67 64//64 27//27
f 70//70 87//87 88//88
f 69//69 87//87 70//70
f 69//69 89//89 87//87
f 68//68 70//70 90//90
f 71//71 89//89 69//69
f 71//71 91//91 89//89
f 68//68 91//91 71//71
f 92//92 93//93 94//94
f 47//47 93//93 92//92
f 95//95 96//96 92//92
f 96//96 47//47 92//92
f 52//52 96//96 95//95
f 53//53 97//97 43//43
f 53//53 98//98 97//97
f 99//99 52//52 95//95
f 99//99 56//56 52//52
f 56//56 98//98 53//53
f 98//98 56//56 99//99
f 72//72 74//74 100//100
f 101//101 72//72 100//100
f 75//75 72//72 101//101
f 74//74 62//62 100//100
f 76//76 62//62 74//74
f 76//76 60//60 62//62
f 102//102 73//73 75//75
f 73//73 60//60 76//76
f 60//60 73//73 102//102
f 103//103 104//104 105//105
f 104//104 106//106 105//105
f 100//100 107//107 103//103
f 107//107 104//104 103//103
f 62//62 107//107 100//100
f 78//78 106//106 79//79
f 105//105 106//106 78//78
f 77//77 79//79 108//108
f 80//80 105//105 78//78
f 81//81 77//77 108//108
f 109//109 81//81 108//108
f 80//80 110//110 105//105
f 81//81 110//110 80//80
f 110//110 81//81 109//109
f 111//111 114//114 112//112
f 113//113 79//79 111//111
f 114//114 115//115 112//112
f 116//116 115//115 114//114
f 84//84 83//83 115//115
f 116//116 84//84 115//115
f 116//116 39//39 84//84
f 39//39 82//82 84//84
f 85//85 117//117 83//83
f 85//85 118//118 117//117
f 119//119 82//82 39//39
f 82//82 118//118 85//85
f 118//118 82//82 119//119
f 38//38 39//39 116//116
f 120//120 121//121 122//122
f 121//121 123//123 122//122
f 120//120 124//124 121//121
f 125//125 123//123 121//121
f 126//126 123//123 125//125
f 127//127 124//124 120//120
f 127//127 128//128 124//124
f 126//126 129//129 123//123
f 130//130 128//128 127//127
f 130//130 131//131 128//128
f 132//132 129//129 126//126
f 133//133 131//131 130//130
f 133//133 134//134 131//131
f 132//132 135//135 129//129
f 136//136 134//134 133//133
f 132//132 138//138 137//137
f 136//136 139//139 134//134
f 136//136 140//140 139//139
f 88//88 140//140 136//136
f 138//138 88//88 137//137
f 141//141 88//88 138//138
f 140//140 88//88 141//141
f 108//108 79//79 113//113
f 112//112 108//108 113//113
f 115//115 108//108 112//112
f 115//115 117//117 108//108
f 122//122 109//109 108//108
f 117//117 120//120 108//108
f 120//120 122//122 108//108
f 110//110 103//103 105//105
f 122//122 123//123 109//109
f 101//101 103//103 110//110
f 129//129 101//101 110//110
f 123//123 129//129 110//110
f 117//117 118//118 120//120
f 101//101 100//100 103//103
f 39//39 37//37 119//119
f 130//130 118//118 119//119
f 37//37 27//27 119//119
f 27//27 86//86 119//119
f 86//86 130//130 119//119
f 75//75 101//101 129//129
f 86//86 133//133 130//130
f 86//86 66//66 133//133
f 135//135 102//102 75//75
f 142//142 31//31 102//102
f 63//63 60//60 102//102
f 31//31 63//63 102//102
f 87//87 89//89 102//102
f 89//89 142//142 102//102
f 135//135 87//87 102//102
f 143//143 67//67 27//27
f 5//5 143//143 27//27
f 144//144 2//2 91//91
f 91//91 142//142 89//89
f 2//2 142//142 91//91
f 29//29 31//31 142//142
f 46//46 48//48 145//145
f 48//48 146//146 145//145
f 51//51 146//146 48//48
f 147//147 42//42 148//148
f 54//54 146//146 51//51
f 54//54 149//149 146//146
f 147//147 55//55 42//42
f 54//54 150//150 149//149
f 150//150 55//55 147//147
f 55//55 150//150 54//54
f 22//22 18//18 25//25
f 151//151 18//18 22//22
f 17//17 18//18 151//151
f 152//152 17//17 151//151
f 153//153 14//14 154//154
f 17//17 152//152 154//154
f 14//14 17//17 154//154
f 153//153 19//19 14//14
f 155//155 19//19 153//153
f 155//155 20//20 19//19
f 156//156 20//20 155//155
f 21//21 20//20 156//156
f 149//149 155//155 154//154
f 152//152 149//149 154//154
f 157//157 152//152 151//151
f 157//157 149//149 152//152
f 149//149 156//156 155//155
f 158//158 149//149 157//157
f 145//145 149//149 158//158
f 149//149 159//159 156//156
f 159//159 21//21 156//156
f 146//146 149//149 145//145
f 149//149 148//148 159//159
f 149//149 147//147 148//148
f 150//150 147//147 149//149
f 160//160 161//161 162//162
f 160//160 163//163 161//161
f 164//164 163//163 160//160
f 161//161 165//165 162//162
f 165//165 166//166 162//162
f 167//167 163//163 164//164
f 168//168 166//166 165//165
f 169//169 167//167 164//164
f 168//168 170//170 166//166
f 171//171 33//33 169//169
f 33//33 167//167 169//169
f 168//168 172//172 170//170
f 172//172 173//173 170//170
f 174//174 173//173 172//172
f 174//174 175//175 173//173
f 174//174 176//176 175//175
f 176//176 177//177 175//175
f 178//178 177//177 176//176
f 179//179 33//33 171//171
f 179//179 93//93 33//33
f 94//94 93//93 179//179
f 180//180 94//94 179//179
f 181//181 94//94 180//180
f 181//181 92//92 94//94
f 182//182 92//92 181//181
f 182//182 95//95 92//92
f 97//97 98//98 183//183
f 184//184 95//95 182//182
f 99//99 95//95 184//184
f 183//183 98//98 184//184
f 185//185 177//177 178//178
f 185//185 186//186 177//177
f 43//43 186//186 185//185
f 43//43 97//97 186//186
f 22//22 45//45 151//151
f 45//45 157//157 151//151
f 45//45 46//46 157//157
f 46//46 158//158 157//157
f 186//186 183//183 187//187
f 186//186 97//97 183//183
f 121//121 188//188 189//189
f 121//121 124//124 188//188
f 125//125 121//121 189//189
f 190//190 125//125 189//189
f 124//124 128//128 191//191
f 126//126 125//125 190//190
f 128//128 131//131 191//191
f 131//131 180//180 191//191
f 192//192 126//126 190//190
f 192//192 132//132 126//126
f 134//134 180//180 131//131
f 193//193 132//132 192//192
f 193//193 138//138 132//132
f 139//139 180//180 134//134
f 181//181 180//180 139//139
f 140//140 181//181 139//139
f 187//187 141//141 138//138
f 193//193 187//187 138//138
f 183//183 184//184 140//140
f 184//184 181//181 140//140
f 187//187 140//140 141//141
f 187//187 183//183 140//140
f 184//184 182//182 181//181
f 159//159 58//58 21//21
f 159//159 50//50 58//58
f 148//148 50//50 159//159
f 148//148 42//42 50//50
f 163//163 111//111 161//161
f 111//111 194//194 161//161
f 114//114 111//111 163//163
f 195//195 114//114 163//163
f 104//104 172//172 194//194
f 107//107 172//172 104//104
f 107//107 174//174 172//172
f 35//35 38//38 195//195
f 34//34 36//36 35//35
f 36//36 38//38 35//35
f 107//107 62//62 174//174
f 176//176 174//174 62//62
f 178//178 176//176 62//62
f 61//61 178//178 62//62
f 196//196 185//185 178//178
f 61//61 196//196 178//178
f 30//30 196//196 61//61
f 46//46 145//145 158//158
f 50//50 44//44 58//58
f 49//49 42//42 44//44
f 30//30 41//41 196//196
f 34//34 28//28 36//36
f 34//34 26//26 28//28
f 28//28 27//27 37//37
f 36//36 28//28 37//37
f 31//31 30//30 61//61
f 58//58 44//44 32//32
f 104//104 194//194 106//106
f 106//106 194//194 111//111
f 116//116 114//114 195//195
f 38//38 116//116 195//195
f 41//41 43//43 185//185
f 194//194 165//165 161//161
f 194//194 168//168 165//165
f 195//195 163//163 167//167
f 172//172 168//168 194//194
f 33//33 195//195 167//167
f 35//35 195//195 33//33
f 93//93 34//34 33//33
f 93//93 40//40 34//34
f 47//47 40//40 93//93
f 96//96 52//52 47//47
f 177//177 187//187 193//193
f 186//186 187//187 177//177
f 189//189 160//160 162//162
f 188//188 164//164 160//160
f 189//189 188//188 160//160
f 166//166 189//189 162//162
f 166//166 190//190 189//189
f 191//191 169//169 164//164
f 188//188 191//191 164//164
f 170//170 190//190 166//166
f 191//191 171//171 169//169
f 173//173 190//190 170//170
f 175//175 190//190 173//173
f 175//175 192//192 190//190
f 175//175 177//177 192//192
f 177//177 193//193 192//192
f 191//191 180//180 171//171
f 11//11 29//29 142//142
f 12//12 29//29 11//11
f 4//4 11//11 2//2
f 11//11 142//142 2//2
f 16//16 15//15 197//197
f 16//16 57//57 13//13
f 57//57 16//16 197//197
f 15//15 59//59 197//197
f 21//21 59//59 15//15
f 197//197 59//59 57//57
f 5//5 7//7 143//143
f 143//143 7//7 198//198
f 6//6 198//198 7//7
f 6//6 3//3 198//198
f 6//6 1//1 3//3
f 25//25 18//18 199//199
f 18//18 10//10 199//199
f 199//199 10//10 9//9
f 199//199 9//9 23//23
f 9//9 8//8 23//23
f 25//25 199//199 23//23
f 118//118 127//127 120//120
f 130//130 127//127 118//118
f 135//135 75//75 129//129
f 200//200 136//136 133//133
f 87//87 135//135 137//137
f 88//88 87//87 137//137
f 41//41 185//185 196//196
f 83//83 117//117 115//115
f 123//123 110//110 109//109
f 90//90 136//136 200//200
f 65//65 90//90 200//200
f 67//67 90//90 65//65
f 90//90 88//88 136//136
f 3//3 90//90 67//67
f 2//2 144//144 3//3
f 144//144 90//90 3//3
f 91//91 68//68 144//144
f 90//90 70//70 88//88
f 144//144 68//68 90//90
f 65//65 200//200 66//66
f 200//200 133//133 66//66
f 198//198 3//3 67//67
f 143//143 198//198 67//67
f 1//1 6//6 8//8
f 10//10 4//4 1//1
f 13//13 12//12 11//11
f 8//8 5//5 24//24
f 29//29 30//30 31//31
f 56//56 55//55 54//54
f 13//13 57//57 32//32
f 68//68 69//69 70//70
f 73//73 74//74 72//72
f 77//77 80//80 78//78
f 82//82 83//83 84//84
f 111//111 112//112 113//113
f 79//79 106//106 111//111
f 132//132 137//137 135//135
f 155//155 153//153 154//154
f 98//98 99//99 184//184
f 124//124 191//191 188//188
f 31//31 61//61 63//63
f 180//180 179//179 171//171

