mtllib material.mtl
usemtl Material-Metal.004
v 0.00309500 -0.02228500 0.03200000
v 0.01756100 -0.01539600 0.03404800
v 0.00162200 -0.02286400 0.03384400
v 0.01511400 -0.01666900 0.03200000
v -0.00617100 -0.02969100 0.03209300
v -0.00094300 -0.02329200 0.03200200
v -0.00448600 -0.02418200 0.03192100
v 0.00397700 -0.04620900 0.03200400
v 0.00732700 -0.04605600 0.03200000
v 0.00820900 -0.04593000 0.03200000
v 0.02120900 -0.01177700 0.03200300
v 0.02678600 -0.01443600 0.03200000
v 0.03260800 -0.03185200 0.03200000
v 0.01519700 -0.04441400 0.03196000
v 0.03002200 -0.03601500 0.03200200
v 0.03195000 -0.03423900 0.03199200
v 0.01184500 -0.05276800 0.03200400
v 0.00800700 -0.05272300 0.03192300
v 0.02282000 -0.04045900 0.03201500
v 0.03285100 -0.04248800 0.03196300
v 0.03546800 -0.04015900 0.03268800
v 0.00913300 -0.05460700 0.03753900
v 0.00434500 -0.04668400 0.03488900
v -0.00551900 -0.03094200 0.03832500
v 0.00766400 -0.05207700 0.03488300
v -0.00687900 -0.02662800 0.03886500
v -0.00696100 -0.02218400 0.03496700
v -0.00722700 -0.02272800 0.03927100
v 0.02663100 -0.01392600 0.03461600
v 0.02225900 -0.00942100 0.03913100
v 0.02210100 -0.00904800 0.03490200
v 0.02700800 -0.01475500 0.03828600
v -0.02217700 -0.00972900 0.03876500
v -0.01179400 -0.02556100 0.03887900
v -0.01995000 -0.01241200 0.03919600
v -0.01248100 -0.01929800 0.03875300
v -0.01297600 -0.01877100 0.03490200
v -0.01860900 -0.00980100 0.03905000
v -0.02024000 -0.00627100 0.03495700
v 0.01099200 -0.06222000 0.03745100
v 0.02757700 -0.00962600 0.03876600
v 0.03928700 -0.05040900 0.03736000
v 0.04160000 -0.04955800 0.03724600
v 0.03696800 -0.04367500 0.03765500
v 0.01385000 -0.05647800 0.03738600
v 0.01385200 -0.06164200 0.03704600
v 0.01626800 -0.06811600 0.03720400
v 0.01764200 -0.06578300 0.03713800
v 0.03671800 -0.04700300 0.03750400
v 0.03423600 -0.04708900 0.03732800
v 0.02479700 -0.06766100 0.03700600
v 0.02989500 -0.07006600 0.03699000
v 0.04182400 -0.05750500 0.03706100
v 0.03087000 -0.06645700 0.03696100
v 0.03753500 -0.06065200 0.03710200
v 0.03812300 -0.06450800 0.03700700
v 0.03301700 -0.03316600 0.03486400
v 0.03601000 -0.04223600 0.03693400
v 0.03508400 -0.03933700 0.03485300
v 0.01781200 0.01190900 0.03499600
v 0.02271400 -0.00186100 0.03881200
v 0.01662600 0.01447400 0.03939400
v 0.02273000 -0.00213600 0.03490300
v -0.00731500 -0.01796100 0.03268700
v 0.00072200 -0.01749400 0.03369200
v -0.00321200 -0.01374600 0.03323600
v -0.00291200 -0.02182100 0.03414200
v 0.01623800 -0.01284400 0.03303900
v 0.01687900 -0.00516500 0.03294900
v 0.01156100 -0.00757900 0.03303000
v 0.01971000 -0.00849200 0.03299900
v 0.00912000 0.01214200 0.03299600
v 0.01502000 0.00892300 0.03300800
v 0.01357500 0.01657300 0.03307100
v 0.01172000 0.00863400 0.03439100
v 0.01725000 0.01279500 0.03300100
v -0.01072600 0.01444600 0.03302600
v -0.00824400 0.02021800 0.03298900
v -0.01117400 0.01808300 0.03408700
v -0.00364700 0.01746200 0.03289900
v -0.00671700 0.01224300 0.03298100
v -0.01678800 -0.00603500 0.03298100
v -0.01695300 0.00183200 0.03310800
v -0.02188100 -0.00192700 0.03285500
v -0.01387300 -0.00219500 0.03299600
v -0.00686800 -0.01565200 0.03491100
v 0.01462200 -0.00459200 0.03493900
v 0.01043300 -0.00934100 0.03406700
v 0.01943200 -0.00716700 0.03487500
v 0.01268700 -0.01171400 0.03393800
v 0.01763200 -0.01217000 0.03483500
v 0.01487300 -0.06736700 0.03294400
v 0.01176100 -0.06437100 0.03688600
v 0.00957900 -0.06104600 0.03301200
v 0.02450500 -0.07080200 0.03290700
v 0.02171000 -0.07034900 0.03652600
v 0.04192900 -0.05086000 0.03327800
v 0.04064600 -0.06058400 0.03282300
v 0.03403200 -0.06806500 0.03296900
v 0.01205100 0.01720600 0.03499700
v 0.00890200 0.01227300 0.03490100
v 0.01452000 0.00858700 0.03489800
v 0.00255100 0.02097700 0.03490300
v 0.00062200 0.02117400 0.03962800
v -0.00498400 0.02017000 0.03499800
v -0.00939500 0.01976500 0.03953300
v 0.00765100 0.01967700 0.03958000
v -0.01053600 0.01364900 0.03488900
v -0.00761800 0.01252200 0.03506500
v -0.00379500 0.01529500 0.03488400
v -0.01614700 0.01355000 0.03968600
v -0.01959000 0.00798900 0.03490600
v -0.01561700 0.01403700 0.03490000
v -0.01996900 0.00704000 0.03952400
v -0.02109600 0.00034000 0.03488800
v -0.02171600 -0.00251000 0.03901000
v -0.01568500 0.00157700 0.03488700
v -0.01412800 -0.00373500 0.03496200
v -0.01654500 -0.00587800 0.03490200
v -0.01352300 0.00278100 0.03479900
v -0.00981400 0.00979700 0.02999800
v -0.00971200 0.00954600 0.03476700
v -0.00256900 0.01381700 0.03486900
v -0.01358300 0.00156600 0.03000000
v -0.00215000 0.01332900 0.03000000
v 0.00576500 0.01265600 0.03000500
v -0.01299600 -0.00416900 0.03435300
v -0.01234900 -0.00576700 0.02999600
v 0.00761700 0.01163600 0.03466100
v -0.01016800 -0.00912800 0.03487800
v -0.00865800 -0.01035300 0.03000000
v 0.01226400 0.00605200 0.03000000
v -0.00513800 -0.01266900 0.03474700
v -0.00397000 -0.01301800 0.02999900
v 0.01279500 0.00486100 0.03474100
v 0.00178900 -0.01376800 0.03391200
v 0.01371900 -0.00062400 0.03432000
v 0.01359000 -0.00183000 0.02999900
v 0.00215700 -0.01332500 0.03000000
v 0.00717000 -0.01157900 0.03000100
v 0.01148600 -0.00709800 0.03000000
v 0.02157000 -0.01192900 0.03486700
v -0.00609700 -0.02649600 0.03477000
v 0.01555300 -0.01333300 0.03394400
v 0.01548800 -0.06407200 0.03490100
v 0.02411300 -0.06773300 0.03485800
v 0.03865200 -0.05741000 0.03489900
v 0.03783900 -0.04959600 0.03495400
v 0.03092600 -0.06618400 0.03490000
v 0.03502300 -0.06339000 0.03489000
v 0.00990600 -0.05454700 0.03547400
v 0.01190200 -0.05272400 0.03489900
v 0.01989000 -0.04133500 0.03489100
v 0.01354900 -0.04713200 0.03489500
v 0.02814900 -0.04089200 0.03489200
v 0.03293500 -0.04304200 0.03487800
v 0.01435400 -0.05672900 0.03488900
v 0.01386400 -0.06005800 0.03489900
v 0.03424300 -0.04686600 0.03489800
v -0.02105700 0.01151100 0.03050000
v -0.01752300 0.01669300 0.03976500
v -0.01616200 0.01796000 0.03052900
v -0.02219300 0.00944000 0.03975000
v -0.02373500 0.00425400 0.03047600
v -0.01053600 0.02168400 0.03946700
v -0.00791700 0.02274600 0.03051400
v -0.02421700 0.00012100 0.03907700
v -0.00268300 0.02403200 0.03941000
v -0.02378300 -0.00319200 0.03050000
v -0.00034800 0.02399900 0.03050000
v -0.02176900 -0.01035900 0.03050500
v 0.00395400 0.02378500 0.03979500
v 0.00704200 0.02307300 0.03047600
v 0.01229700 0.02078700 0.03956800
v 0.01593600 0.01815500 0.03040800
v 0.01928400 0.01470000 0.03913600
v 0.02192700 0.01003500 0.03049200
v 0.02280500 0.00752100 0.03909700
v 0.00219700 -0.04899500 0.03056800
v 0.00276300 -0.04857900 0.03000300
v 0.01542400 -0.06202800 0.03000100
v 0.02376600 -0.06666600 0.02998400
v 0.03794300 -0.05769500 0.03000200
v 0.03138900 -0.06491600 0.02999900
v 0.02744100 -0.00656700 0.03840900
v 0.03641200 -0.03382800 0.03075900
v 0.03525400 -0.03188600 0.03000000
v -0.02314300 0.00487500 0.02999800
v -0.01528800 0.01865300 0.02999700
v 0.00309400 0.02399000 0.02998900
v -0.02268600 -0.00773900 0.02999900
v 0.01660700 0.01677000 0.02999900
v 0.02199000 0.00844100 0.02999900
v -0.00941700 0.02097800 0.04008000
v -0.02286400 -0.00297400 0.03959600
v 0.02467500 -0.00515900 0.03904200
v 0.03013000 -0.03574800 0.03481600
v -0.00325100 -0.02358200 0.03471900
v 0.00830900 -0.04601600 0.03476100
v -0.00039000 -0.01444000 0.03405000
vn 0.25570000 -0.63130000 0.73210000
vn 0.40630000 -0.72000000 0.56260000
vn 0.24140000 -0.73790000 0.63030000
vn 0.31800000 -0.60270000 0.73190000
vn 0.72840000 0.17660000 0.66210000
vn 0.13490000 -0.68670000 0.71430000
vn 0.50470000 -0.57450000 0.64440000
vn 0.39960000 0.65900000 0.63720000
vn -0.08750000 0.68680000 0.72160000
vn 0.24990000 0.28980000 0.92390000
vn 0.16120000 -0.80110000 0.57640000
vn -0.58730000 -0.47250000 0.65710000
vn -0.72750000 -0.07720000 0.68170000
vn -0.41040000 0.38530000 0.82650000
vn -0.37090000 -0.02320000 0.92840000
vn -0.59170000 0.43780000 0.67690000
vn -0.53180000 0.53950000 0.65280000
vn 0.59990000 0.42870000 0.67550000
vn -0.09900000 0.62630000 0.77330000
vn -0.18910000 0.69290000 0.69580000
vn -0.77230000 -0.15800000 0.61530000
vn 0.39470000 0.44800000 0.80220000
vn 0.65480000 0.71160000 0.25490000
vn 0.66750000 0.29380000 0.68420000
vn 0.92350000 0.35000000 0.15690000
vn 0.65540000 0.01500000 0.75510000
vn 0.57220000 0.37830000 0.72760000
vn 0.61690000 0.36030000 0.69970000
vn -0.78030000 -0.61760000 0.09840000
vn -0.69620000 -0.28910000 0.65710000
vn -0.56250000 -0.19380000 0.80380000
vn -0.63100000 -0.36240000 0.68590000
vn -0.79620000 -0.32740000 0.50880000
vn -0.39260000 -0.26840000 0.87970000
vn -0.29690000 -0.20880000 0.93180000
vn 0.47610000 0.48830000 0.73140000
vn 0.53490000 0.51750000 0.66790000
vn 0.63860000 0.31150000 0.70370000
vn 0.72640000 0.52350000 0.44530000
vn -0.26870000 -0.22300000 0.93700000
vn 0.24880000 0.03580000 0.96790000
vn -0.36090000 -0.18510000 0.91410000
vn 0.73660000 0.13000000 0.66370000
vn -0.10400000 0.03780000 0.99390000
vn 0.63000000 0.44280000 0.63800000
vn 0.61350000 0.16960000 0.77120000
vn -0.34560000 -0.63840000 0.68780000
vn 0.27110000 0.51270000 0.81460000
vn -0.04340000 -0.06030000 0.99720000
vn -0.78690000 -0.26530000 0.55720000
vn 0.00600000 0.67440000 0.73830000
vn 0.23060000 -0.74070000 0.63100000
vn 0.77110000 -0.17180000 0.61310000
vn -0.25110000 0.56850000 0.78340000
vn -0.48560000 0.27260000 0.83060000
vn 0.57730000 -0.51730000 0.63180000
vn -0.97020000 -0.05810000 0.23540000
vn -0.90500000 -0.06280000 0.42070000
vn -0.86810000 -0.47790000 0.13410000
vn -0.94270000 -0.15560000 0.29520000
vn -0.70560000 -0.09750000 0.70190000
vn -0.41610000 -0.39450000 0.81930000
vn -0.74330000 -0.08520000 0.66350000
vn 0.70340000 -0.01060000 0.71070000
vn -0.10300000 0.07080000 0.99220000
vn -0.05810000 -0.59520000 0.80150000
vn 0.02340000 0.22020000 0.97520000
vn -0.21640000 0.64470000 0.73320000
vn -0.27000000 -0.74680000 0.60780000
vn 0.66100000 -0.39240000 0.63960000
vn -0.83390000 0.05440000 0.54930000
vn 0.75140000 0.06380000 0.65680000
vn -0.32940000 0.67480000 0.66040000
vn -0.16560000 -0.72140000 0.67250000
vn 0.17040000 0.35880000 0.91770000
vn -0.70080000 -0.17650000 0.69120000
vn 0.68100000 0.31680000 0.66020000
vn 0.18960000 -0.73280000 0.65350000
vn 0.67890000 -0.51720000 0.52110000
vn -0.78400000 -0.16360000 0.59880000
vn -0.23240000 0.81300000 0.53390000
vn -0.22440000 0.72350000 0.65290000
vn -0.06560000 -0.81560000 0.57490000
vn 0.74200000 -0.04410000 0.66890000
vn -0.81730000 -0.05700000 0.57340000
vn 0.38790000 -0.21700000 0.89580000
vn -0.05370000 -0.34310000 0.93780000
vn -0.27920000 0.45790000 0.84400000
vn -0.43930000 -0.21120000 0.87310000
vn 0.15870000 0.14670000 0.97640000
vn -0.45710000 0.20420000 0.86570000
vn -0.51320000 -0.72990000 -0.45150000
vn -0.67490000 -0.59180000 0.44080000
vn -0.73760000 -0.54390000 -0.40030000
vn -0.02290000 -0.90540000 -0.42390000
vn -0.18250000 -0.85500000 0.48540000
vn 0.90740000 0.09310000 -0.40980000
vn 0.81040000 -0.38780000 -0.43920000
vn 0.49370000 -0.76470000 -0.41420000
vn -0.16310000 -0.88270000 0.44070000
vn 0.42720000 -0.11250000 0.89710000
vn -0.24160000 0.51080000 0.82510000
vn -0.09540000 -0.73320000 0.67330000
vn 0.02060000 -0.70020000 0.71360000
vn -0.15270000 -0.89640000 0.41610000
vn 0.37860000 -0.72980000 0.56920000
vn -0.22540000 -0.61890000 0.75240000
vn 0.33390000 0.36590000 0.86870000
vn 0.01630000 0.53630000 0.84390000
vn -0.43770000 0.19020000 0.87880000
vn 0.51990000 -0.43850000 0.73310000
vn 0.68570000 -0.28720000 0.66880000
vn 0.56840000 -0.46410000 0.67930000
vn 0.65410000 -0.23490000 0.71900000
vn 0.82870000 -0.43250000 0.35530000
vn 0.82680000 0.05030000 0.56030000
vn -0.22900000 -0.35470000 0.90650000
vn -0.25600000 0.27120000 0.92780000
vn -0.27000000 0.57120000 0.77520000
vn 0.62920000 -0.14710000 0.76320000
vn 0.43610000 -0.43110000 -0.78990000
vn 0.48030000 -0.48070000 0.73360000
vn 0.12890000 -0.57370000 0.80880000
vn 0.64120000 -0.07600000 -0.76360000
vn 0.11000000 -0.67180000 -0.73250000
vn -0.24110000 -0.56400000 -0.78980000
vn 0.83290000 0.30140000 0.46420000
vn 0.59680000 0.27190000 -0.75490000
vn -0.35590000 -0.61130000 0.70690000
vn 0.48490000 0.44010000 0.75580000
vn 0.43110000 0.51860000 -0.73840000
vn -0.56670000 -0.29120000 -0.77070000
vn 0.45090000 0.44830000 0.77180000
vn 0.18660000 0.63310000 -0.75130000
vn -0.64030000 -0.20660000 0.73980000
vn -0.11010000 0.78740000 0.60650000
vn -0.97480000 -0.05480000 0.21620000
vn -0.62610000 0.09200000 -0.77430000
vn -0.10770000 0.68530000 -0.72030000
vn -0.32730000 0.55790000 -0.76260000
vn -0.58920000 0.32660000 -0.73900000
vn 0.07130000 -0.56030000 0.82520000
vn -0.09770000 -0.57810000 0.81010000
vn -0.05540000 0.34870000 0.93560000
vn 0.56370000 0.53600000 0.62840000
vn 0.06480000 0.76040000 0.64620000
vn -0.76810000 0.16380000 0.61900000
vn -0.54900000 -0.45310000 0.70240000
vn -0.28940000 0.64530000 0.70700000
vn -0.52670000 0.56240000 0.63740000
vn 0.26170000 0.88600000 0.38270000
vn -0.51000000 0.39340000 0.76490000
vn -0.31380000 0.71220000 0.62790000
vn -0.68650000 0.35310000 0.63570000
vn 0.15340000 0.76580000 0.62450000
vn 0.19730000 0.46450000 0.86330000
vn 0.43190000 0.20680000 0.87790000
vn 0.75440000 0.01060000 0.65630000
vn -0.50030000 -0.09200000 0.86100000
vn -0.72800000 0.40390000 -0.55400000
vn -0.54720000 0.50090000 0.67060000
vn -0.69500000 0.69300000 -0.19190000
vn -0.66730000 0.27000000 0.69410000
vn -0.90300000 0.12980000 -0.40960000
vn -0.38650000 0.78260000 0.48800000
vn -0.26870000 0.77530000 -0.57160000
vn -0.84970000 -0.00210000 0.52730000
vn -0.10580000 0.82990000 0.54770000
vn -0.85380000 -0.09280000 -0.51230000
vn -0.06220000 0.92050000 -0.38570000
vn -0.82190000 -0.41280000 -0.39260000
vn 0.13540000 0.70380000 0.69740000
vn 0.29990000 0.81260000 -0.49980000
vn 0.38390000 0.62910000 0.67590000
vn 0.54090000 0.67210000 -0.50570000
vn 0.62780000 0.46100000 0.62720000
vn 0.78790000 0.41210000 -0.45760000
vn 0.67570000 0.24500000 0.69530000
vn -0.73660000 -0.50510000 -0.44970000
vn -0.27770000 -0.21600000 -0.93610000
vn -0.22540000 -0.24180000 -0.94380000
vn -0.04590000 -0.35120000 -0.93520000
vn 0.37620000 -0.11080000 -0.91990000
vn 0.17900000 -0.30890000 -0.93410000
vn 0.76860000 0.25720000 0.58570000
vn 0.87300000 0.21690000 -0.43690000
vn 0.45620000 0.13540000 -0.87950000
vn -0.44510000 0.12630000 -0.88650000
vn -0.44080000 0.67160000 -0.59550000
vn 0.11330000 0.89840000 -0.42430000
vn -0.78180000 -0.22610000 -0.58100000
vn 0.36730000 0.29400000 -0.88240000
vn 0.38520000 0.14130000 -0.91190000
vn -0.03390000 0.09800000 0.99460000
vn -0.17450000 -0.06690000 0.98240000
vn 0.09490000 0.03160000 0.99500000
vn -0.81630000 -0.00730000 0.57750000
vn 0.13660000 -0.38310000 0.91350000
vn 0.56830000 0.60500000 0.55770000
vn -0.08430000 -0.20440000 0.97530000
f 1//1 2//2 3//3
f 4//4 2//2 1//1
f 5//5 6//6 7//7
f 5//5 8//8 6//6
f 9//9 1//1 8//8
f 9//9 10//10 1//1
f 10//10 11//11 4//4
f 10//10 13//13 11//11
f 14//14 15//15 10//10
f 15//15 16//16 10//10
f 16//16 13//13 10//10
f 17//17 14//14 10//10
f 18//18 17//17 10//10
f 19//19 15//15 14//14
f 20//20 15//15 19//19
f 20//20 21//21 15//15
f 22//22 23//23 24//24
f 23//23 8//8 24//24
f 22//22 25//25 23//23
f 26//26 27//27 28//28
f 26//26 5//5 27//27
f 24//24 5//5 26//26
f 29//29 32//32 30//30
f 33//33 34//34 35//35
f 36//36 37//37 38//38
f 37//37 39//39 38//38
f 40//40 22//22 34//34
f 22//22 24//24 34//34
f 24//24 26//26 34//34
f 32//32 41//41 30//30
f 42//42 43//43 41//41
f 44//44 42//42 41//41
f 32//32 44//44 41//41
f 40//40 45//45 22//22
f 40//40 46//46 45//45
f 47//47 46//46 40//40
f 48//48 46//46 47//47
f 49//49 44//44 50//50
f 47//47 51//51 48//48
f 50//50 42//42 49//49
f 52//52 51//51 47//47
f 53//53 43//43 42//42
f 52//52 54//54 51//51
f 55//55 53//53 42//42
f 56//56 53//53 55//55
f 52//52 56//56 54//54
f 57//57 58//58 32//32
f 29//29 13//13 32//32
f 12//12 13//13 29//29
f 59//59 58//58 57//57
f 21//21 58//58 59//59
f 60//60 61//61 62//62
f 63//63 61//61 60//60
f 64//64 65//65 66//66
f 67//67 65//65 64//64
f 68//68 71//71 69//69
f 73//73 76//76 74//74
f 75//75 73//73 72//72
f 77//77 78//78 79//79
f 77//77 81//81 80//80
f 82//82 85//85 83//83
f 66//66 86//86 64//64
f 86//86 27//27 64//64
f 67//67 64//64 27//27
f 70//70 87//87 88//88
f 69//69 87//87 70//70
f 69//69 89//89 87//87
f 68//68 70//70 90//90
f 71//71 89//89 69//69
f 71//71 91//91 89//89
f 68//68 91//91 71//71
f 92//92 93//93 94//94
f 47//47 93//93 92//92
f 95//95 96//96 92//92
f 96//96 47//47 92//92
f 52//52 96//96 95//95
f 53//53 97//97 43//43
f 53//53 98//98 97//97
f 99//99 52//52 95//95
f 99//99 56//56 52//52
f 56//56 98//98 53//53
f 98//98 56//56 99//99
f 72//72 74//74 100//100
f 101//101 72//72 100//100
f 75//75 72//72 101//101
f 74//74 62//62 100//100
f 76//76 62//62 74//74
f 76//76 60//60 62//62
f 102//102 73//73 75//75
f 73//73 60//60 76//76
f 60//60 73//73 102//102
f 103//103 104//104 105//105
f 104//104 106//106 105//105
f 100//100 107//107 103//103
f 107//107 104//104 103//103
f 62//62 107//107 100//100
f 78//78 106//106 79//79
f 105//105 106//106 78//78
f 77//77 79//79 108//108
f 80//80 105//105 78//78
f 81//81 77//77 108//108
f 109//109 81//81 108//108
f 80//80 110//110 105//105
f 81//81 110//110 80//80
f 110//110 81//81 109//109
f 111//111 114//114 112//112
f 113//113 79//79 111//111
f 114//114 115//115 112//112
f 116//116 115//115 114//114
f 84//84 83//83 115//115
f 116//116 84//84 115//115
f 116//116 39//39 84//84
f 39//39 82//82 84//84
f 85//85 117//117 83//83
f 85//85 118//118 117//117
f 119//119 82//82 39//39
f 82//82 118//118 85//85
f 118//118 82//82 119//119
f 38//38 39//39 116//116
f 120//120 121//121 122//122
f 121//121 123//123 122//122
f 120//120 124//124 121//121
f 125//125 123//123 121//121
f 126//126 123//123 125//125
f 127//127 124//124 120//120
f 127//127 128//128 124//124
f 126//126 129//129 123//123
f 130//130 128//128 127//127
f 130//130 131//131 128//128
f 132//132 129//129 126//126
f 133//133 131//131 130//130
f 133//133 134//134 131//131
f 132//132 135//135 129//129
f 136//136 134//134 133//133
f 132//132 138//138 137//137
f 136//136 139//139 134//134
f 136//136 140//140 139//139
f 88//88 140//140 136//136
f 138//138 88//88 137//137
f 141//141 88//88 138//138
f 140//140 88//88 141//141
f 108//108 79//79 113//113
f 112//112 108//108 113//113
f 115//115 108//108 112//112
f 115//115 117//117 108//108
f 122//122 109//109 108//108
f 117//117 120//120 108//108
f 120//120 122//122 108//108
f 110//110 103//103 105//105
f 122//122 123//123 109//109
f 101//101 103//103 110//110
f 129//129 101//101 110//110
f 123//123 129//129 110//110
f 117//117 118//118 120//120
f 101//101 100//100 103//103
f 39//39 37//37 119//119
f 130//130 118//118 119//119
f 37//37 27//27 119//119
f 27//27 86//86 119//119
f 86//86 130//130 119//119
f 75//75 101//101 129//129
f 86//86 133//133 130//130
f 86//86 66//66 133//133
f 135//135 102//102 75//75
f 142//142 31//31 102//102
f 63//63 60//60 102//102
f 31//31 63//63 102//102
f 87//87 89//89 102//102
f 89//89 142//142 102//102
f 135//135 87//87 102//102
f 143//143 67//67 27//27
f 5//5 143//143 27//27
f 144//144 2//2 91//91
f 91//91 142//142 89//89
f 2//2 142//142 91//91
f 29//29 31//31 142//142
f 46//46 48//48 145//145
f 48//48 146//146 145//145
f 51//51 146//146 48//48
f 147//147 42//42 148//148
f 54//54 146//146 51//51
f 54//54 149//149 146//146
f 147//147 55//55 42//42
f 54//54 150//150 149//149
f 150//150 55//55 147//147
f 55//55 150//150 54//54
f 22//22 18//18 25//25
f 151//151 18//18 22//22
f 17//17 18//18 151//151
f 152//152 17//17 151//151
f 153//153 14//14 154//154
f 17//17 152//152 154//154
f 14//14 17//17 154//154
f 153//153 19//19 14//14
f 155//155 19//19 153//153
f 155//155 20//20 19//19
f 156//156 20//20 155//155
f 21//21 20//20 156//156
f 149//149 155//155 154//154
f 152//152 149//149 154//154
f 157//157 152//152 151//151
f 157//157 149//149 152//152
f 149//149 156//156 155//155
f 158//158 149//149 157//157
f 145//145 149//149 158//158
f 149//149 159//159 156//156
f 159//159 21//21 156//156
f 146//146 149//149 145//145
f 149//149 148//148 159//159
f 149//149 147//147 148//148
f 150//150 147//147 149//149
f 160//160 161//161 162//162
f 160//160 163//163 161//161
f 164//164 163//163 160//160
f 161//161 165//165 162//162
f 165//165 166//166 162//162
f 167//167 163//163 164//164
f 168//168 166//166 165//165
f 169//169 167//167 164//164
f 168//168 170//170 166//166
f 171//171 33//33 169//169
f 33//33 167//167 169//169
f 168//168 172//172 170//170
f 172//172 173//173 170//170
f 174//174 173//173 172//172
f 174//174 175//175 173//173
f 174//174 176//176 175//175
f 176//176 177//177 175//175
f 178//178 177//177 176//176
f 179//179 33//33 171//171
f 179//179 93//93 33//33
f 94//94 93//93 179//179
f 180//180 94//94 179//179
f 181//181 94//94 180//180
f 181//181 92//92 94//94
f 182//182 92//92 181//181
f 182//182 95//95 92//92
f 97//97 98//98 183//183
f 184//184 95//95 182//182
f 99//99 95//95 184//184
f 183//183 98//98 184//184
f 185//185 177//177 178//178
f 185//185 186//186 177//177
f 43//43 186//186 185//185
f 43//43 97//97 186//186
f 22//22 45//45 151//151
f 45//45 157//157 151//151
f 45//45 46//46 157//157
f 46//46 158//158 157//157
f 186//186 183//183 187//187
f 186//186 97//97 183//183
f 121//121 188//188 189//189
f 121//121 124//124 188//188
f 125//125 121//121 189//189
f 190//190 125//125 189//189
f 124//124 128//128 191//191
f 126//126 125//125 190//190
f 128//128 131//131 191//191
f 131//131 180//180 191//191
f 192//192 126//126 190//190
f 192//192 132//132 126//126
f 134//134 180//180 131//131
f 193//193 132//132 192//192
f 193//193 138//138 132//132
f 139//139 180//180 134//134
f 181//181 180//180 139//139
f 140//140 181//181 139//139
f 187//187 141//141 138//138
f 193//193 187//187 138//138
f 183//183 184//184 140//140
f 184//184 181//181 140//140
f 187//187 140//140 141//141
f 187//187 183//183 140//140
f 184//184 182//182 181//181
f 159//159 58//58 21//21
f 159//159 50//50 58//58
f 148//148 50//50 159//159
f 148//148 42//42 50//50
f 163//163 111//111 161//161
f 111//111 194//194 161//161
f 114//114 111//111 163//163
f 195//195 114//114 163//163
f 104//104 172//172 194//194
f 107//107 172//172 104//104
f 107//107 174//174 172//172
f 35//35 38//38 195//195
f 34//34 36//36 35//35
f 36//36 38//38 35//35
f 107//107 62//62 174//174
f 176//176 174//174 62//62
f 178//178 176//176 62//62
f 61//61 178//178 62//62
f 196//196 185//185 178//178
f 61//61 196//196 178//178
f 30//30 196//196 61//61
f 46//46 145//145 158//158
f 50//50 44//44 58//58
f 49//49 42//42 44//44
f 30//30 41//41 196//196
f 34//34 28//28 36//36
f 34//34 26//26 28//28
f 28//28 27//27 37//37
f 36//36 28//28 37//37
f 31//31 30//30 61//61
f 58//58 44//44 32//32
f 104//104 194//194 106//106
f 106//106 194//194 111//111
f 116//116 114//114 195//195
f 38//38 116//116 195//195
f 41//41 43//43 185//185
f 194//194 165//165 161//161
f 194//194 168//168 165//165
f 195//195 163//163 167//167
f 172//172 168//168 194//194
f 33//33 195//195 167//167
f 35//35 195//195 33//33
f 93//93 34//34 33//33
f 93//93 40//40 34//34
f 47//47 40//40 93//93
f 96//96 52//52 47//47
f 177//177 187//187 193//193
f 186//186 187//187 177//177
f 189//189 160//160 162//162
f 188//188 164//164 160//160
f 189//189 188//188 160//160
f 166//166 189//189 162//162
f 166//166 190//190 189//189
f 191//191 169//169 164//164
f 188//188 191//191 164//164
f 170//170 190//190 166//166
f 191//191 171//171 169//169
f 173//173 190//190 170//170
f 175//175 190//190 173//173
f 175//175 192//192 190//190
f 175//175 177//177 192//192
f 177//177 193//193 192//192
f 191//191 180//180 171//171
f 11//11 29//29 142//142
f 12//12 29//29 11//11
f 4//4 11//11 2//2
f 11//11 142//142 2//2
f 16//16 15//15 197//197
f 16//16 57//57 13//13
f 57//57 16//16 197//197
f 15//15 59//59 197//197
f 21//21 59//59 15//15
f 197//197 59//59 57//57
f 5//5 7//7 143//143
f 143//143 7//7 198//198
f 6//6 198//198 7//7
f 6//6 3//3 198//198
f 6//6 1//1 3//3
f 25//25 18//18 199//199
f 18//18 10//10 199//199
f 199//199 10//10 9//9
f 199//199 9//9 23//23
f 9//9 8//8 23//23
f 25//25 199//199 23//23
f 118//118 127//127 120//120
f 130//130 127//127 118//118
f 135//135 75//75 129//129
f 200//200 136//136 133//133
f 87//87 135//135 137//137
f 88//88 87//87 137//137
f 41//41 185//185 196//196
f 83//83 117//117 115//115
f 123//123 110//110 109//109
f 90//90 136//136 200//200
f 65//65 90//90 200//200
f 67//67 90//90 65//65
f 90//90 88//88 136//136
f 3//3 90//90 67//67
f 2//2 144//144 3//3
f 144//144 90//90 3//3
f 91//91 68//68 144//144
f 90//90 70//70 88//88
f 144//144 68//68 90//90
f 65//65 200//200 66//66
f 200//200 133//133 66//66
f 198//198 3//3 67//67
f 143//143 198//198 67//67
f 1//1 6//6 8//8
f 10//10 4//4 1//1
f 13//13 12//12 11//11
f 8//8 5//5 24//24
f 29//29 30//30 31//31
f 56//56 55//55 54//54
f 13//13 57//57 32//32
f 68//68 69//69 70//70
f 73//73 74//74 72//72
f 77//77 80//80 78//78
f 82//82 83//83 84//84
f 111//111 112//112 113//113
f 79//79 106//106 111//111
f 132//132 137//137 135//135
f 155//155 153//153 154//154
f 98//98 99//99 184//184
f 124//124 191//191 188//188
f 31//31 61//61 63//63
f 180//180 179//179 171//171

