mtllib material.mtl
usemtl SWMaterial-2_001.001
v 0.00152900 0.06386100 -0.04315000
v -0.00126900 0.06636500 -0.04440000
v -0.00047200 0.06534800 -0.04317000
v -0.00015600 0.06663900 -0.04439000
v 0.00040400 0.06535600 -0.04315000
v 0.00117600 0.06486800 -0.04316000
v 0.00249000 0.06509100 -0.04440000
v 0.00276500 0.06392500 -0.04438000
v 0.00106200 0.06279700 -0.04315000
v 0.00257300 0.06286900 -0.04441000
v 0.00260400 0.06287900 -0.04480000
v 0.00271100 0.06451100 -0.04480000
v 0.00184900 0.06593000 -0.04439000
v 0.00210600 0.06568500 -0.04480000
v 0.00128100 0.06633000 -0.04440000
v 0.00069700 0.06655500 -0.04439000
v -0.00148900 0.06623900 -0.04480000
v 0.00065600 0.06303400 -0.04397000
v 0.00138500 0.06331600 -0.04397000
v 0.00065600 0.06303400 -0.04480000
v 0.00019500 0.06240300 -0.04480000
v -0.00041300 0.06289400 -0.04480000
v 0.00019500 0.06240300 -0.04397000
v -0.00041300 0.06289400 -0.04397000
v -0.00119000 0.06297800 -0.04397000
v -0.00138500 0.06446500 -0.04397000
v -0.00107000 0.06375000 -0.04397000
v -0.00138500 0.06446500 -0.04480000
v -0.00065600 0.06474700 -0.04397000
v 0.00041300 0.06488700 -0.04397000
v -0.00019500 0.06537800 -0.04397000
v 0.00041300 0.06488700 -0.04480000
v 0.00107000 0.06403100 -0.04480000
v 0.00107000 0.06403100 -0.04397000
v 0.00119000 0.06480300 -0.04397000
v 0.00119000 0.06480300 -0.04480000
v 0.00138500 0.06331600 -0.04480000
v -0.00119000 0.06297800 -0.04480000
v -0.00107000 0.06375000 -0.04480000
v -0.00065600 0.06474700 -0.04480000
v -0.00019500 0.06537800 -0.04480000
v -0.00024600 0.06664600 -0.04480000
v 0.00105800 0.06646300 -0.04480000
v 0.00034900 0.06114700 -0.04480000
v 0.00158400 0.06160500 -0.04480000
v -0.00249400 0.06512100 -0.04480000
v -0.00277100 0.06359100 -0.04480000
v -0.00212400 0.06212000 -0.04439000
v -0.00217400 0.06215700 -0.04480000
v -0.00095600 0.06127900 -0.04480000
v -0.00032700 0.06113200 -0.04440000
v -0.00256400 0.06288400 -0.04440000
v 0.00037500 0.06240000 -0.04318000
v -0.00144700 0.06154900 -0.04439000
v -0.00209900 0.06399600 -0.04374000
v -0.00275800 0.06372500 -0.04439000
v -0.00139500 0.06454100 -0.04318000
v -0.00103100 0.06501300 -0.04317000
v 0.00091300 0.06128800 -0.04439000
v 0.00187300 0.06183400 -0.04441000
v -0.00195500 0.06582500 -0.04440000
v -0.00252500 0.06505500 -0.04440000
v -0.00140500 0.06323700 -0.04316000
v -0.00048800 0.06244100 -0.04316000
v -0.03554000 0.09750300 -0.05290000
v -0.03479800 0.09844100 -0.05290000
v -0.03325000 0.09905900 -0.05291000
v -0.03154200 0.09860600 -0.05289000
v -0.03581400 0.09627800 -0.05287000
v -0.03466900 0.09752900 -0.05218000
v -0.03391300 0.09756400 -0.05166000
v -0.03350300 0.09846700 -0.05237000
v -0.03278000 0.09780900 -0.05167000
v -0.03177100 0.09713600 -0.05166000
v -0.03456500 0.09657300 -0.05167000
v -0.03041500 0.09716300 -0.05330000
v -0.03089400 0.09802000 -0.05290000
v -0.03046400 0.09725500 -0.05289000
v -0.03115600 0.09833700 -0.05330000
v -0.03219900 0.09892100 -0.05330000
v -0.03221500 0.09892600 -0.05289000
v -0.03403800 0.09886100 -0.05289000
v -0.03561800 0.09737000 -0.05330000
v -0.03196700 0.09629700 -0.05247000
v -0.03358500 0.09723100 -0.05247000
v -0.03412500 0.09629700 -0.05247000
v -0.03250700 0.09723100 -0.05247000
v -0.03174700 0.09704700 -0.05247000
v -0.03174700 0.09554700 -0.05247000
v -0.03250700 0.09536200 -0.05330000
v -0.03250700 0.09536200 -0.05247000
v -0.03304600 0.09479700 -0.05330000
v -0.03304600 0.09479700 -0.05247000
v -0.03358500 0.09536200 -0.05330000
v -0.03358500 0.09536200 -0.05247000
v -0.03412500 0.09629700 -0.05330000
v -0.03434500 0.09554700 -0.05247000
v -0.03434500 0.09704700 -0.05247000
v -0.03250700 0.09723100 -0.05330000
v -0.03304600 0.09779700 -0.05247000
v -0.03174700 0.09554700 -0.05330000
v -0.03030000 0.09593500 -0.05330000
v -0.03196700 0.09629700 -0.05330000
v -0.03340300 0.09906100 -0.05330000
v -0.03304600 0.09779700 -0.05330000
v -0.03174700 0.09704700 -0.05330000
v -0.03579200 0.09593500 -0.05330000
v -0.03434500 0.09554700 -0.05330000
v -0.03257100 0.09355100 -0.05330000
v -0.03358500 0.09723100 -0.05330000
v -0.03434500 0.09704700 -0.05330000
v -0.03472900 0.09849600 -0.05330000
v -0.03526100 0.09460500 -0.05330000
v -0.03406100 0.09371500 -0.05330000
v -0.03276700 0.09355400 -0.05290000
v -0.03116400 0.09428200 -0.05290000
v -0.03127800 0.09416500 -0.05330000
v -0.03064000 0.09495100 -0.05330000
v -0.03027800 0.09628000 -0.05287000
v -0.03186100 0.09380700 -0.05290000
v -0.03165900 0.09489000 -0.05210000
v -0.03057500 0.09504800 -0.05290000
v -0.03241700 0.09419700 -0.05233000
v -0.03467600 0.09404600 -0.05291000
v -0.03373800 0.09362600 -0.05289000
v -0.03432100 0.09545800 -0.05166000
v -0.03551500 0.09504400 -0.05290000
v -0.03512200 0.09557000 -0.05234000
v -0.03152700 0.09605400 -0.05166000
v -0.03332900 0.09478500 -0.05165000
v -0.03215600 0.09504300 -0.05165000
v -0.00045100 0.15480300 -0.04315000
v -0.00146100 0.15407000 -0.04314000
v 0.00016400 0.15481200 -0.04318000
v 0.00201500 0.15502000 -0.04440000
v 0.00244500 0.15425400 -0.04439000
v -0.00277600 0.15413500 -0.04440000
v -0.00158300 0.15463300 -0.04360000
v -0.00041600 0.15605000 -0.04440000
v 0.00132200 0.15564000 -0.04440000
v 0.00107600 0.15422900 -0.04315000
v 0.00137400 0.15329700 -0.04315000
v 0.00263100 0.15327900 -0.04437000
v 0.00069400 0.15592600 -0.04439000
v -0.00139300 0.15574700 -0.04439000
v -0.00221300 0.15512900 -0.04440000
v -0.00121600 0.15329700 -0.04397000
v -0.00067700 0.15236200 -0.04397000
v 0.00040200 0.15423100 -0.04397000
v 0.00040200 0.15236200 -0.04397000
v 0.00116200 0.15404700 -0.04397000
v 0.00116200 0.15254700 -0.04397000
v 0.00094200 0.15329700 -0.04397000
v -0.00013700 0.15179700 -0.04397000
v -0.00143600 0.15254700 -0.04480000
v -0.00143600 0.15254700 -0.04397000
v -0.00143600 0.15404700 -0.04397000
v -0.00067700 0.15423100 -0.04397000
v -0.00013700 0.15479700 -0.04397000
v -0.00182000 0.15549600 -0.04480000
v 0.00116200 0.15254700 -0.04480000
v -0.00013700 0.15479700 -0.04480000
v -0.00049400 0.15606100 -0.04480000
v 0.00249400 0.15416300 -0.04480000
v 0.00094200 0.15329700 -0.04480000
v 0.00071000 0.15592100 -0.04480000
v 0.00116200 0.15404700 -0.04480000
v 0.00040200 0.15423100 -0.04480000
v 0.00175300 0.15533700 -0.04480000
v -0.00013700 0.15179700 -0.04480000
v -0.00067700 0.15236200 -0.04480000
v -0.00121600 0.15329700 -0.04480000
v -0.00250500 0.15470800 -0.04480000
v -0.00286700 0.15376200 -0.04480000
v -0.00143600 0.15404700 -0.04480000
v 0.00040200 0.15236200 -0.04480000
v -0.00067700 0.15423100 -0.04480000
v -0.00275300 0.15233500 -0.04480000
v -0.00201700 0.15127600 -0.04480000
v -0.00110100 0.15070100 -0.04480000
v 0.00033800 0.15055100 -0.04480000
v 0.00163100 0.15116500 -0.04480000
v 0.00104800 0.15080700 -0.04440000
v 0.00226800 0.15195100 -0.04480000
v 0.00260900 0.15293500 -0.04480000
v 0.00233200 0.15204400 -0.04440000
v 0.00163600 0.15119100 -0.04439000
v 0.00014600 0.15178500 -0.04315000
v -0.00154900 0.15091900 -0.04440000
v -0.00284900 0.15285000 -0.04439000
v 0.00115100 0.15247400 -0.04315000
v 0.00174900 0.15242700 -0.04371000
v 0.00049200 0.15119700 -0.04383000
v 0.00014100 0.15055400 -0.04440000
v -0.00147000 0.15164900 -0.04376000
v -0.00082900 0.15062600 -0.04439000
v -0.00227100 0.15155300 -0.04439000
v -0.00154900 0.15268700 -0.04317000
v -0.00268300 0.15224200 -0.04440000
v -0.00164200 0.15329700 -0.04315000
v -0.00288700 0.15329700 -0.04440000
v -0.00102700 0.15204300 -0.04315000
v 0.03366300 0.09755100 -0.05165000
v 0.03291500 0.09782000 -0.05167000
v 0.03144800 0.09707000 -0.05164000
v 0.03069600 0.09812900 -0.05290000
v 0.03205400 0.09763200 -0.05165000
v 0.03360300 0.09892600 -0.05289000
v 0.03013300 0.09713500 -0.05290000
v 0.03136200 0.09771400 -0.05212000
v 0.03217800 0.09844800 -0.05237000
v 0.03423100 0.09864000 -0.05290000
v 0.03421800 0.09763200 -0.05210000
v 0.03554000 0.09627800 -0.05287000
v 0.03428200 0.09654100 -0.05165000
v 0.03536000 0.09723800 -0.05289000
v 0.03492300 0.09802000 -0.05290000
v 0.03256800 0.09905900 -0.05291000
v 0.03241400 0.09906100 -0.05330000
v 0.03153400 0.09876100 -0.05290000
v 0.03019900 0.09737000 -0.05330000
v 0.03407100 0.09704700 -0.05247000
v 0.03223200 0.09536200 -0.05247000
v 0.03223200 0.09723100 -0.05247000
v 0.03385100 0.09629700 -0.05247000
v 0.03331100 0.09536200 -0.05247000
v 0.03331100 0.09723100 -0.05247000
v 0.03407100 0.09704700 -0.05330000
v 0.03407100 0.09554700 -0.05247000
v 0.03223200 0.09536200 -0.05330000
v 0.03277200 0.09479700 -0.05247000
v 0.03147300 0.09554700 -0.05247000
v 0.03169300 0.09629700 -0.05247000
v 0.03223200 0.09723100 -0.05330000
v 0.03147300 0.09704700 -0.05247000
v 0.03277200 0.09779700 -0.05330000
v 0.03277200 0.09779700 -0.05247000
v 0.03108800 0.09849600 -0.05330000
v 0.03407100 0.09554700 -0.05330000
v 0.03385100 0.09629700 -0.05330000
v 0.03547500 0.09697500 -0.05330000
v 0.03361800 0.09892100 -0.05330000
v 0.03331100 0.09723100 -0.05330000
v 0.03466200 0.09833700 -0.05330000
v 0.03324600 0.09355100 -0.05330000
v 0.03277200 0.09479700 -0.05330000
v 0.03180700 0.09370100 -0.05330000
v 0.03147300 0.09554700 -0.05330000
v 0.03147300 0.09704700 -0.05330000
v 0.03169300 0.09629700 -0.05330000
v 0.03331100 0.09536200 -0.05330000
v 0.03002600 0.09593500 -0.05330000
v 0.03036600 0.09495100 -0.05330000
v 0.03089100 0.09427600 -0.05330000
v 0.03136000 0.09391900 -0.05290000
v 0.03454000 0.09416500 -0.05330000
v 0.03538800 0.09533500 -0.05330000
v 0.03454500 0.09419100 -0.05289000
v 0.03336700 0.09360100 -0.05288000
v 0.03063800 0.09455300 -0.05289000
v 0.03406000 0.09547400 -0.05165000
v 0.03465800 0.09542700 -0.05221000
v 0.03524100 0.09504400 -0.05290000
v 0.03395700 0.09380700 -0.05290000
v 0.03207900 0.09362600 -0.05289000
v 0.03143900 0.09464900 -0.05226000
v 0.03089600 0.09544800 -0.05219000
v 0.03014100 0.09543100 -0.05290000
v 0.03126700 0.09603200 -0.05165000
v 0.03002200 0.09629700 -0.05290000
v 0.03188100 0.09504300 -0.05165000
v 0.03305500 0.09478500 -0.05165000
vn 0.67270000 -0.01990000 0.73960000
vn -0.39690000 0.84920000 0.34830000
vn -0.19330000 0.65950000 0.72640000
vn -0.05310000 0.92260000 0.38210000
vn 0.19060000 0.66140000 0.72540000
vn 0.53050000 0.42920000 0.73100000
vn 0.84630000 0.41090000 0.33890000
vn 0.94610000 -0.00260000 0.32390000
vn 0.49640000 -0.46920000 0.73030000
vn 0.84780000 -0.35510000 0.39390000
vn 0.71460000 -0.28120000 -0.64060000
vn 0.75880000 0.16920000 -0.62900000
vn 0.60770000 0.70520000 0.36530000
vn 0.58170000 0.48930000 -0.64980000
vn 0.39220000 0.66600000 0.63450000
vn 0.21560000 0.90430000 0.36840000
vn -0.41500000 0.62550000 -0.66070000
vn -0.38370000 0.50030000 -0.77620000
vn -0.75580000 0.31330000 -0.57490000
vn -0.46300000 0.60370000 -0.64890000
vn -0.05380000 0.41100000 -0.91010000
vn 0.29160000 0.70280000 -0.64880000
vn -0.10620000 0.81130000 -0.57490000
vn 0.24160000 0.58220000 -0.77640000
vn 0.64930000 0.49780000 -0.57490000
vn 0.75580000 -0.31330000 -0.57490000
vn 0.62500000 0.08200000 -0.77630000
vn 0.38310000 -0.15880000 -0.90990000
vn 0.38370000 -0.50030000 -0.77620000
vn -0.24160000 -0.58220000 -0.77630000
vn 0.10620000 -0.81130000 -0.57490000
vn -0.29160000 -0.70280000 -0.64890000
vn -0.75440000 -0.09900000 -0.64890000
vn -0.62500000 -0.08200000 -0.77630000
vn -0.64940000 -0.49780000 -0.57490000
vn -0.32900000 -0.25220000 -0.91000000
vn -0.38310000 0.15880000 -0.90990000
vn 0.32900000 0.25220000 -0.91000000
vn 0.75440000 0.09890000 -0.64890000
vn 0.46300000 -0.60370000 -0.64890000
vn 0.05380000 -0.41100000 -0.91000000
vn -0.07380000 0.75020000 -0.65710000
vn 0.28670000 0.69910000 -0.65500000
vn 0.10020000 -0.76130000 -0.64060000
vn 0.42460000 -0.63260000 -0.64770000
vn -0.67710000 0.32480000 -0.66030000
vn -0.76080000 -0.07100000 -0.64510000
vn -0.69570000 -0.60120000 0.39310000
vn -0.59110000 -0.46950000 -0.65590000
vn -0.27710000 -0.72650000 -0.62880000
vn -0.10310000 -0.93920000 0.32760000
vn -0.88370000 -0.34560000 0.31560000
vn 0.16300000 -0.67060000 0.72360000
vn -0.50480000 -0.79200000 0.34340000
vn -0.69170000 0.02710000 0.72170000
vn -0.92130000 -0.01450000 0.38860000
vn -0.62530000 0.25140000 0.73870000
vn -0.47260000 0.51250000 0.71690000
vn 0.30740000 -0.88570000 0.34800000
vn 0.66890000 -0.67200000 0.31790000
vn -0.68680000 0.64960000 0.32620000
vn -0.86070000 0.36100000 0.35910000
vn -0.59690000 -0.28430000 0.75030000
vn -0.24530000 -0.63130000 0.73570000
vn -0.82590000 0.42980000 0.36490000
vn -0.61590000 0.70360000 0.35450000
vn -0.02920000 0.93020000 0.36600000
vn 0.50010000 0.78540000 0.36460000
vn -0.93580000 0.01380000 0.35210000
vn -0.56040000 0.40450000 0.72270000
vn -0.36500000 0.54600000 0.75410000
vn -0.14230000 0.67690000 0.72220000
vn 0.12640000 0.64930000 0.75000000
vn 0.55260000 0.37410000 0.74480000
vn -0.65030000 0.11420000 0.75100000
vn 0.71530000 0.23600000 -0.65780000
vn 0.74920000 0.56530000 0.34510000
vn 0.86070000 0.33020000 0.38740000
vn 0.52170000 0.55770000 -0.64560000
vn 0.21500000 0.70830000 -0.67240000
vn 0.25820000 0.89180000 0.37150000
vn -0.35110000 0.87460000 0.33430000
vn -0.71220000 0.28680000 -0.64070000
vn -0.63040000 -0.00000000 -0.77630000
vn 0.31510000 -0.54580000 -0.77640000
vn 0.63040000 -0.00000000 -0.77630000
vn -0.31510000 -0.54580000 -0.77640000
vn -0.70850000 -0.40930000 -0.57490000
vn -0.70870000 0.40890000 -0.57500000
vn -0.38050000 0.65880000 -0.64900000
vn -0.31540000 0.54600000 -0.77620000
vn -0.00000000 0.41480000 -0.90990000
vn -0.00000000 0.81820000 -0.57500000
vn 0.38050000 0.65880000 -0.64900000
vn 0.31530000 0.54600000 -0.77610000
vn 0.76090000 -0.00000000 -0.64890000
vn 0.70870000 0.40880000 -0.57490000
vn 0.70850000 -0.40930000 -0.57490000
vn -0.38050000 -0.65900000 -0.64880000
vn -0.00000000 -0.81820000 -0.57490000
vn -0.35930000 0.20730000 -0.90990000
vn 0.75290000 -0.11910000 -0.64720000
vn -0.76090000 -0.00000000 -0.64890000
vn -0.09900000 0.75290000 -0.65060000
vn -0.00000000 -0.41440000 -0.91010000
vn -0.35890000 -0.20730000 -0.91010000
vn -0.75350000 -0.11800000 -0.64680000
vn 0.35930000 0.20730000 -0.90990000
vn 0.13070000 -0.75680000 -0.64050000
vn 0.38040000 -0.65900000 -0.64880000
vn 0.35890000 -0.20730000 -0.91010000
vn -0.45820000 0.58930000 -0.66540000
vn -0.61670000 -0.48350000 -0.62120000
vn -0.27360000 -0.70640000 -0.65280000
vn 0.04890000 -0.91520000 0.40000000
vn 0.65360000 -0.66270000 0.36570000
vn 0.47750000 -0.57950000 -0.66040000
vn 0.63290000 -0.37800000 -0.67570000
vn 0.93100000 0.00470000 0.36490000
vn 0.40640000 -0.85360000 0.32600000
vn 0.49970000 -0.48290000 0.71910000
vn 0.83690000 -0.41500000 0.35680000
vn 0.18320000 -0.67290000 0.71670000
vn -0.56850000 -0.76370000 0.30570000
vn -0.19400000 -0.91460000 0.35470000
vn -0.54990000 -0.37390000 0.74680000
vn -0.84860000 -0.41360000 0.32990000
vn -0.66960000 -0.19540000 0.71660000
vn 0.66130000 -0.10340000 0.74300000
vn -0.12890000 -0.66040000 0.73980000
vn 0.38990000 -0.55040000 0.73820000
vn -0.18300000 0.65770000 0.73070000
vn -0.57520000 0.35910000 0.73500000
vn 0.18190000 0.66640000 0.72300000
vn 0.74870000 0.56720000 0.34310000
vn 0.86120000 0.33300000 0.38390000
vn -0.88410000 0.30100000 0.35730000
vn -0.49170000 0.49520000 0.71630000
vn -0.07240000 0.92280000 0.37850000
vn 0.49430000 0.79620000 0.34900000
vn 0.53230000 0.41640000 0.73700000
vn 0.68190000 0.01280000 0.73130000
vn 0.93200000 -0.00010000 0.36250000
vn 0.25090000 0.89310000 0.37350000
vn -0.41540000 0.84320000 0.34130000
vn -0.70730000 0.61310000 0.35190000
vn 0.63040000 -0.00000000 -0.77630000
vn 0.31530000 0.54610000 -0.77610000
vn -0.31510000 -0.54580000 -0.77640000
vn -0.31530000 0.54610000 -0.77610000
vn -0.70850000 -0.40930000 -0.57490000
vn -0.70870000 0.40890000 -0.57500000
vn -0.63040000 -0.00000000 -0.77630000
vn -0.00000000 0.81820000 -0.57500000
vn 0.35930000 0.20730000 -0.90990000
vn 0.70870000 0.40890000 -0.57500000
vn 0.70850000 -0.40930000 -0.57490000
vn 0.31510000 -0.54580000 -0.77640000
vn -0.00000000 -0.81820000 -0.57490000
vn -0.45090000 0.61110000 -0.65060000
vn -0.35930000 0.20730000 -0.90990000
vn -0.00000000 -0.41440000 -0.91010000
vn -0.10030000 0.75740000 -0.64530000
vn 0.71540000 0.23600000 -0.65760000
vn -0.76090000 -0.00000000 -0.64890000
vn 0.21110000 0.70790000 -0.67400000
vn -0.35890000 -0.20740000 -0.91010000
vn -0.38040000 -0.65900000 -0.64880000
vn 0.52350000 0.55850000 -0.64350000
vn -0.00000000 0.41490000 -0.90990000
vn 0.38050000 0.65880000 -0.64900000
vn 0.76090000 -0.00000000 -0.64890000
vn -0.64750000 0.38010000 -0.66050000
vn -0.74190000 0.10750000 -0.66190000
vn 0.35890000 -0.20740000 -0.91010000
vn -0.38050000 0.65880000 -0.64900000
vn 0.38040000 -0.65900000 -0.64880000
vn -0.71500000 -0.26080000 -0.64870000
vn -0.51150000 -0.54510000 -0.66420000
vn -0.24670000 -0.70310000 -0.66690000
vn 0.13120000 -0.75670000 -0.64040000
vn 0.48730000 -0.57270000 -0.65930000
vn 0.40540000 -0.85120000 0.33330000
vn 0.63270000 -0.37690000 -0.67650000
vn 0.75290000 -0.11920000 -0.64730000
vn 0.83180000 -0.42250000 0.36010000
vn 0.60940000 -0.68450000 0.40010000
vn 0.12870000 -0.66570000 0.73510000
vn -0.48240000 -0.79990000 0.35700000
vn -0.92930000 -0.13460000 0.34400000
vn 0.55600000 -0.39050000 0.73370000
vn 0.64610000 -0.29070000 0.70570000
vn 0.19920000 -0.67690000 0.70860000
vn 0.04890000 -0.91520000 0.40000000
vn -0.44600000 -0.54800000 0.70770000
vn -0.18860000 -0.91190000 0.36450000
vn -0.73250000 -0.58370000 0.35020000
vn -0.63280000 -0.28880000 0.71850000
vn -0.83950000 -0.37220000 0.39590000
vn -0.69430000 0.01310000 0.71960000
vn -0.94360000 -0.00550000 0.33100000
vn -0.38380000 -0.57390000 0.72340000
vn 0.40180000 0.54940000 0.73250000
vn 0.06080000 0.68790000 0.72320000
vn -0.60650000 0.32110000 0.72740000
vn -0.72140000 0.61180000 0.32460000
vn -0.31000000 0.61780000 0.72270000
vn 0.25520000 0.88990000 0.37820000
vn -0.89660000 0.25510000 0.36190000
vn -0.49050000 0.51290000 0.70450000
vn -0.20480000 0.67210000 0.71160000
vn 0.49080000 0.79940000 0.34640000
vn 0.54580000 0.43450000 0.71640000
vn 0.94700000 -0.03160000 0.31960000
vn 0.66020000 0.10820000 0.74330000
vn 0.85690000 0.35720000 0.37150000
vn 0.75960000 0.55810000 0.33390000
vn -0.04120000 0.93050000 0.36400000
vn -0.10730000 0.75720000 -0.64430000
vn -0.40990000 0.84940000 0.33250000
vn -0.70590000 0.30360000 -0.64000000
vn -0.70850000 -0.40930000 -0.57490000
vn 0.31540000 0.54600000 -0.77620000
vn 0.31510000 -0.54580000 -0.77640000
vn -0.63040000 -0.00000000 -0.77630000
vn -0.31530000 0.54600000 -0.77610000
vn -0.31510000 -0.54580000 -0.77640000
vn -0.35890000 -0.20730000 -0.91010000
vn -0.70870000 0.40890000 -0.57500000
vn 0.38050000 0.65880000 -0.64900000
vn -0.00000000 0.81820000 -0.57500000
vn 0.70870000 0.40890000 -0.57500000
vn 0.63040000 -0.00000000 -0.77630000
vn 0.38050000 -0.65900000 -0.64880000
vn 0.70850000 -0.40930000 -0.57490000
vn -0.00000000 -0.41440000 -0.91010000
vn -0.00000000 -0.81820000 -0.57490000
vn -0.45820000 0.60620000 -0.65000000
vn -0.35930000 0.20730000 -0.90990000
vn -0.76090000 -0.00000000 -0.64890000
vn 0.74560000 0.18850000 -0.63920000
vn 0.21100000 0.70790000 -0.67410000
vn -0.38040000 -0.65900000 -0.64880000
vn 0.52700000 0.55550000 -0.64330000
vn 0.10190000 -0.76240000 -0.63900000
vn -0.00000000 0.41480000 -0.90990000
vn -0.24670000 -0.70310000 -0.66690000
vn 0.35930000 0.20730000 -0.90990000
vn 0.35890000 -0.20730000 -0.91010000
vn 0.76090000 -0.00000000 -0.64890000
vn -0.38050000 0.65880000 -0.64900000
vn -0.74870000 -0.08110000 -0.65790000
vn -0.65090000 -0.36360000 -0.66640000
vn -0.50330000 -0.55190000 -0.66490000
vn -0.48240000 -0.79990000 0.35710000
vn 0.49060000 -0.56970000 -0.65940000
vn 0.73500000 -0.24880000 -0.63080000
vn 0.60170000 -0.68940000 0.40330000
vn 0.18620000 -0.89280000 0.41020000
vn -0.72070000 -0.58300000 0.37500000
vn 0.56240000 -0.37270000 0.73810000
vn 0.64510000 -0.27940000 0.71120000
vn 0.81890000 -0.45330000 0.35210000
vn 0.36480000 -0.74170000 0.56280000
vn -0.18830000 -0.91310000 0.36170000
vn -0.45330000 -0.54260000 0.70720000
vn -0.60890000 -0.33100000 0.72090000
vn -0.89030000 -0.29980000 0.34270000
vn -0.65990000 -0.11160000 0.74300000
vn -0.93930000 0.03710000 0.34100000
vn -0.38680000 -0.55350000 0.73760000
vn 0.12980000 -0.65920000 0.74070000
f 4//4 3//3 5//5
f 16//16 4//4 5//5
f 13//13 16//16 5//5
f 13//13 5//5 6//6
f 13//13 15//15 16//16
f 1//1 7//7 6//6
f 7//7 13//13 6//6
f 8//8 7//7 1//1
f 10//10 1//1 9//9
f 10//10 8//8 1//1
f 9//9 60//60 10//10
f 58//58 3//3 2//2
f 2//2 3//3 4//4
f 60//60 45//45 11//11
f 10//10 60//60 11//11
f 8//8 11//11 12//12
f 8//8 10//10 11//11
f 7//7 8//8 12//12
f 7//7 12//12 14//14
f 13//13 7//7 14//14
f 13//13 14//14 43//43
f 15//15 13//13 43//43
f 16//16 15//15 43//43
f 16//16 43//43 42//42
f 4//4 16//16 42//42
f 2//2 42//42 17//17
f 2//2 4//4 42//42
f 18//18 23//23 24//24
f 27//27 24//24 25//25
f 34//34 19//19 18//18
f 29//29 27//27 26//26
f 35//35 34//34 30//30
f 31//31 30//30 29//29
f 24//24 34//34 18//18
f 24//24 27//27 29//29
f 24//24 29//29 30//30
f 24//24 30//30 34//34
f 37//37 19//19 34//34
f 33//33 37//37 34//34
f 20//20 18//18 19//19
f 37//37 20//20 19//19
f 21//21 23//23 18//18
f 20//20 21//21 18//18
f 22//22 24//24 23//23
f 21//21 22//22 23//23
f 38//38 25//25 24//24
f 22//22 38//38 24//24
f 39//39 27//27 25//25
f 38//38 39//39 25//25
f 28//28 26//26 27//27
f 39//39 28//28 27//27
f 40//40 29//29 26//26
f 28//28 40//40 26//26
f 41//41 31//31 29//29
f 40//40 41//41 29//29
f 32//32 30//30 31//31
f 41//41 32//32 31//31
f 36//36 35//35 30//30
f 32//32 36//36 30//30
f 33//33 34//34 35//35
f 36//36 33//33 35//35
f 32//32 43//43 36//36
f 44//44 21//21 45//45
f 36//36 43//43 14//14
f 21//21 20//20 45//45
f 20//20 37//37 45//45
f 36//36 14//14 12//12
f 45//45 37//37 11//11
f 46//46 17//17 28//28
f 47//47 46//46 28//28
f 33//33 36//36 12//12
f 37//37 33//33 12//12
f 49//49 47//47 38//38
f 50//50 49//49 38//38
f 37//37 12//12 11//11
f 47//47 28//28 39//39
f 38//38 47//47 39//39
f 28//28 17//17 40//40
f 17//17 42//42 41//41
f 40//40 17//17 41//41
f 50//50 38//38 22//22
f 41//41 42//42 43//43
f 44//44 50//50 21//21
f 50//50 22//22 21//21
f 32//32 41//41 43//43
f 59//59 44//44 45//45
f 61//61 17//17 46//46
f 61//61 2//2 17//17
f 60//60 59//59 45//45
f 62//62 61//61 46//46
f 62//62 46//46 47//47
f 56//56 62//62 47//47
f 52//52 56//56 47//47
f 52//52 47//47 49//49
f 48//48 52//52 49//49
f 54//54 48//48 49//49
f 54//54 49//49 50//50
f 51//51 54//54 50//50
f 51//51 50//50 44//44
f 59//59 51//51 44//44
f 55//55 62//62 56//56
f 9//9 53//53 59//59
f 51//51 53//53 64//64
f 53//53 51//51 59//59
f 54//54 64//64 63//63
f 54//54 51//51 64//64
f 48//48 54//54 63//63
f 63//63 55//55 52//52
f 52//52 48//48 63//63
f 55//55 63//63 57//57
f 55//55 56//56 52//52
f 57//57 62//62 55//55
f 62//62 58//58 61//61
f 62//62 57//57 58//58
f 9//9 59//59 60//60
f 58//58 2//2 61//61
f 70//70 75//75 71//71
f 75//75 65//65 69//69
f 72//72 71//71 73//73
f 68//68 73//73 74//74
f 73//73 81//81 67//67
f 70//70 66//66 65//65
f 70//70 65//65 75//75
f 71//71 66//66 70//70
f 71//71 82//82 66//66
f 72//72 82//82 71//71
f 82//82 72//72 67//67
f 73//73 67//67 72//72
f 68//68 81//81 73//73
f 74//74 77//77 68//68
f 129//129 78//78 74//74
f 78//78 77//77 74//74
f 129//129 119//119 78//78
f 119//119 102//102 76//76
f 78//78 119//119 76//76
f 77//77 76//76 79//79
f 77//77 78//78 76//76
f 68//68 77//77 79//79
f 68//68 79//79 80//80
f 81//81 68//68 80//80
f 81//81 80//80 104//104
f 67//67 81//81 104//104
f 82//82 104//104 112//112
f 82//82 67//67 104//104
f 66//66 82//82 112//112
f 66//66 112//112 83//83
f 65//65 66//66 83//83
f 69//69 83//83 107//107
f 69//69 65//65 83//83
f 84//84 89//89 91//91
f 95//95 91//91 93//93
f 87//87 88//88 84//84
f 86//86 95//95 97//97
f 100//100 87//87 85//85
f 98//98 85//85 86//86
f 95//95 84//84 91//91
f 95//95 87//87 84//84
f 95//95 86//86 85//85
f 95//95 85//85 87//87
f 99//99 106//106 88//88
f 99//99 88//88 87//87
f 106//106 103//103 84//84
f 106//106 84//84 88//88
f 101//101 89//89 84//84
f 103//103 101//101 84//84
f 90//90 91//91 89//89
f 101//101 90//90 89//89
f 90//90 92//92 93//93
f 90//90 93//93 91//91
f 92//92 94//94 95//95
f 92//92 95//95 93//93
f 94//94 108//108 97//97
f 94//94 97//97 95//95
f 108//108 96//96 86//86
f 108//108 86//86 97//97
f 96//96 111//111 98//98
f 96//96 98//98 86//86
f 110//110 85//85 98//98
f 111//111 110//110 98//98
f 110//110 105//105 100//100
f 110//110 100//100 85//85
f 99//99 87//87 100//100
f 105//105 99//99 100//100
f 110//110 112//112 104//104
f 105//105 110//110 104//104
f 118//118 101//101 102//102
f 101//101 103//103 102//102
f 102//102 103//103 76//76
f 103//103 106//106 76//76
f 105//105 104//104 80//80
f 99//99 105//105 80//80
f 113//113 107//107 108//108
f 99//99 80//80 79//79
f 76//76 106//106 79//79
f 106//106 99//99 79//79
f 109//109 114//114 92//92
f 114//114 113//113 94//94
f 113//113 108//108 94//94
f 92//92 114//114 94//94
f 107//107 83//83 96//96
f 108//108 107//107 96//96
f 96//96 83//83 111//111
f 117//117 109//109 90//90
f 109//109 92//92 90//90
f 111//111 83//83 112//112
f 110//110 111//111 112//112
f 117//117 90//90 101//101
f 117//117 101//101 118//118
f 127//127 107//107 113//113
f 127//127 69//69 107//107
f 124//124 127//127 113//113
f 124//124 113//113 114//114
f 125//125 124//124 114//114
f 125//125 114//114 109//109
f 115//115 125//125 109//109
f 120//120 115//115 109//109
f 120//120 109//109 117//117
f 116//116 120//120 117//117
f 122//122 116//116 117//117
f 122//122 117//117 118//118
f 122//122 118//118 102//102
f 119//119 122//122 102//102
f 121//121 129//129 131//131
f 123//123 121//121 131//131
f 123//123 131//131 130//130
f 121//121 120//120 116//116
f 123//123 120//120 121//121
f 124//124 130//130 126//126
f 124//124 125//125 130//130
f 69//69 127//127 128//128
f 129//129 122//122 119//119
f 122//122 129//129 121//121
f 121//121 116//116 122//122
f 123//123 115//115 120//120
f 125//125 115//115 123//123
f 125//125 123//123 130//130
f 126//126 127//127 124//124
f 75//75 128//128 126//126
f 128//128 127//127 126//126
f 75//75 69//69 128//128
f 138//138 133//133 132//132
f 145//145 138//138 132//132
f 139//139 145//145 132//132
f 134//134 139//139 132//132
f 141//141 140//140 134//134
f 134//134 144//144 139//139
f 138//138 137//137 133//133
f 137//137 201//201 200//200
f 138//138 146//146 137//137
f 138//138 145//145 146//146
f 140//140 144//144 134//134
f 141//141 135//135 140//140
f 142//142 136//136 141//141
f 136//136 135//135 141//141
f 200//200 133//133 137//137
f 142//142 143//143 136//136
f 143//143 185//185 164//164
f 136//136 143//143 164//164
f 135//135 164//164 169//169
f 135//135 136//136 164//164
f 140//140 135//135 169//169
f 140//140 169//169 166//166
f 144//144 140//140 166//166
f 144//144 166//166 163//163
f 139//139 144//144 163//163
f 145//145 163//163 160//160
f 145//145 139//139 163//163
f 146//146 145//145 160//160
f 146//146 160//160 173//173
f 137//137 173//173 174//174
f 137//137 146//146 173//173
f 201//201 137//137 174//174
f 153//153 152//152 150//150
f 148//148 150//150 154//154
f 149//149 151//151 153//153
f 147//147 148//148 156//156
f 159//159 149//149 158//158
f 157//157 158//158 147//147
f 150//150 149//149 153//153
f 150//150 148//148 147//147
f 150//150 158//158 149//149
f 150//150 147//147 158//158
f 168//168 167//167 151//151
f 168//168 151//151 149//149
f 167//167 165//165 153//153
f 167//167 153//153 151//151
f 161//161 152//152 153//153
f 165//165 161//161 153//153
f 176//176 150//150 152//152
f 161//161 176//176 152//152
f 176//176 170//170 154//154
f 176//176 154//154 150//150
f 170//170 171//171 148//148
f 170//170 148//148 154//154
f 171//171 155//155 156//156
f 171//171 156//156 148//148
f 155//155 172//172 147//147
f 155//155 147//147 156//156
f 172//172 175//175 157//157
f 172//172 157//157 147//147
f 177//177 158//158 157//157
f 175//175 177//177 157//157
f 177//177 162//162 159//159
f 177//177 159//159 158//158
f 168//168 149//149 159//159
f 162//162 168//168 159//159
f 177//177 160//160 163//163
f 162//162 177//177 163//163
f 184//184 161//161 185//185
f 161//161 165//165 185//185
f 185//185 165//165 164//164
f 165//165 167//167 164//164
f 162//162 163//163 166//166
f 168//168 162//162 166//166
f 179//179 178//178 155//155
f 168//168 166//166 169//169
f 164//164 167//167 169//169
f 167//167 168//168 169//169
f 181//181 180//180 170//170
f 180//180 179//179 171//171
f 179//179 155//155 171//171
f 170//170 180//180 171//171
f 178//178 174//174 172//172
f 155//155 178//178 172//172
f 174//174 173//173 175//175
f 172//172 174//174 175//175
f 182//182 181//181 176//176
f 181//181 170//170 176//176
f 175//175 173//173 160//160
f 177//177 175//175 160//160
f 182//182 176//176 161//161
f 182//182 161//161 184//184
f 143//143 186//186 185//185
f 201//201 174//174 178//178
f 190//190 201//201 178//178
f 199//199 190//190 178//178
f 197//197 178//178 179//179
f 197//197 199//199 178//178
f 189//189 197//197 179//179
f 189//189 179//179 180//180
f 196//196 189//189 180//180
f 196//196 180//180 181//181
f 194//194 196//196 181//181
f 183//183 194//194 181//181
f 183//183 181//181 182//182
f 187//187 183//183 182//182
f 186//186 187//187 182//182
f 186//186 182//182 184//184
f 186//186 184//184 185//185
f 187//187 192//192 191//191
f 192//192 186//186 143//143
f 187//187 191//191 188//188
f 193//193 187//187 188//188
f 193//193 183//183 187//187
f 196//196 188//188 202//202
f 195//195 196//196 202//202
f 198//198 195//195 202//202
f 195//195 189//189 196//196
f 197//197 189//189 195//195
f 191//191 192//192 142//142
f 192//192 187//187 186//186
f 193//193 194//194 183//183
f 196//196 193//193 188//188
f 196//196 194//194 193//193
f 198//198 197//197 195//195
f 199//199 197//197 198//198
f 198//198 190//190 199//199
f 200//200 190//190 198//198
f 190//190 200//200 201//201
f 142//142 192//192 143//143
f 207//207 210//210 205//205
f 211//211 207//207 204//204
f 210//210 220//220 206//206
f 211//211 220//220 210//210
f 212//212 204//204 203//203
f 213//213 212//212 203//203
f 204//204 208//208 218//218
f 213//213 203//203 215//215
f 210//210 209//209 205//205
f 209//209 270//270 269//269
f 210//210 206//206 209//209
f 207//207 211//211 210//210
f 211//211 218//218 220//220
f 204//204 218//218 211//211
f 212//212 208//208 204//204
f 213//213 217//217 212//212
f 216//216 213//213 215//215
f 216//216 217//217 213//213
f 215//215 214//214 216//216
f 269//269 205//205 209//209
f 216//216 214//214 241//241
f 217//217 241//241 244//244
f 217//217 216//216 241//241
f 212//212 217//217 244//244
f 212//212 244//244 242//242
f 208//208 212//212 242//242
f 208//208 242//242 219//219
f 218//218 208//208 219//219
f 220//220 219//219 238//238
f 220//220 218//218 219//219
f 206//206 220//220 238//238
f 206//206 238//238 221//221
f 209//209 206//206 221//221
f 209//209 221//221 252//252
f 270//270 209//209 252//252
f 225//225 229//229 226//226
f 223//223 226//226 231//231
f 227//227 222//222 225//225
f 233//233 223//223 232//232
f 237//237 227//227 224//224
f 235//235 224//224 233//233
f 233//233 226//226 223//223
f 233//233 225//225 226//226
f 233//233 227//227 225//225
f 233//233 224//224 227//227
f 243//243 228//228 222//222
f 243//243 222//222 227//227
f 228//228 240//240 225//225
f 228//228 225//225 222//222
f 239//239 229//229 225//225
f 240//240 239//239 225//225
f 251//251 226//226 229//229
f 239//239 251//251 229//229
f 251//251 246//246 231//231
f 251//251 231//231 226//226
f 246//246 230//230 223//223
f 246//246 223//223 231//231
f 230//230 248//248 232//232
f 230//230 232//232 223//223
f 248//248 250//250 233//233
f 248//248 233//233 232//232
f 250//250 249//249 235//235
f 250//250 235//235 233//233
f 234//234 224//224 235//235
f 249//249 234//234 235//235
f 234//234 236//236 237//237
f 234//234 237//237 224//224
f 243//243 227//227 237//237
f 236//236 243//243 237//237
f 234//234 238//238 219//219
f 236//236 234//234 219//219
f 239//239 240//240 257//257
f 257//257 240//240 241//241
f 240//240 228//228 241//241
f 236//236 219//219 242//242
f 243//243 236//236 242//242
f 253//253 252//252 248//248
f 254//254 253//253 248//248
f 243//243 242//242 244//244
f 241//241 228//228 244//244
f 228//228 243//243 244//244
f 245//245 247//247 246//246
f 247//247 254//254 230//230
f 254//254 248//248 230//230
f 246//246 247//247 230//230
f 252//252 221//221 250//250
f 248//248 252//252 250//250
f 250//250 221//221 249//249
f 256//256 245//245 251//251
f 245//245 246//246 251//251
f 249//249 221//221 238//238
f 234//234 249//249 238//238
f 256//256 251//251 239//239
f 256//256 239//239 257//257
f 214//214 263//263 257//257
f 214//214 257//257 241//241
f 268//268 270//270 252//252
f 268//268 252//252 253//253
f 260//260 253//253 254//254
f 260//260 268//268 253//253
f 255//255 260//260 254//254
f 255//255 254//254 247//247
f 265//265 255//255 247//247
f 265//265 247//247 245//245
f 259//259 265//265 245//245
f 264//264 259//259 245//245
f 264//264 245//245 256//256
f 258//258 264//264 256//256
f 263//263 258//258 256//256
f 263//263 256//256 257//257
f 258//258 262//262 261//261
f 262//262 263//263 214//214
f 258//258 261//261 272//272
f 259//259 258//258 272//272
f 259//259 264//264 258//258
f 265//265 272//272 271//271
f 266//266 265//265 271//271
f 267//267 271//271 269//269
f 267//267 266//266 271//271
f 266//266 255//255 265//265
f 260//260 255//255 266//266
f 267//267 268//268 260//260
f 261//261 262//262 215//215
f 262//262 258//258 263//263
f 265//265 259//259 272//272
f 267//267 260//260 266//266
f 269//269 268//268 267//267
f 268//268 269//269 270//270
f 215//215 262//262 214//214

