# Blender 3.3.21
# www.blender.org
mtllib wrist3.mtl
o eSeries_UR10e_042
v -0.017976 0.108496 0.019734
v -0.019279 0.108496 0.015128
v -0.020297 0.108496 0.017766
v -0.017393 0.108496 0.014613
v -0.015501 0.108496 0.015706
v -0.015422 0.108496 0.018530
v 0.017379 0.108496 0.019734
v 0.015057 0.108496 0.017766
v 0.016076 0.108496 0.015128
v 0.017962 0.108496 0.014613
v 0.019854 0.108496 0.015706
v 0.019933 0.108496 0.018530
v -0.017298 0.108496 -0.015666
v -0.015216 0.108496 -0.017237
v -0.019926 0.108496 -0.016730
v -0.019527 0.108496 -0.020169
v -0.016071 0.108496 -0.020374
v 0.018057 0.108496 -0.015666
v 0.020139 0.108496 -0.017237
v 0.015429 0.108496 -0.016730
v 0.015828 0.108496 -0.020169
v 0.019284 0.108496 -0.020374
v -0.017652 0.115955 0.019785
v -0.015078 0.115945 0.017811
v -0.015893 0.115968 0.015327
v -0.018162 0.115955 0.014545
v -0.019994 0.115968 0.016087
v -0.020028 0.115962 0.018266
v 0.017703 0.115955 0.019785
v 0.020277 0.115945 0.017811
v 0.019462 0.115968 0.015327
v 0.017193 0.115955 0.014545
v 0.015361 0.115968 0.016087
v 0.015327 0.115962 0.018266
v -0.018101 0.115966 -0.015674
v -0.015637 0.115955 -0.016533
v -0.015327 0.115962 -0.019335
v -0.017704 0.115955 -0.020855
v -0.019775 0.115968 -0.019654
v -0.020152 0.115955 -0.017284
v 0.018147 0.115966 -0.015682
v 0.020169 0.115955 -0.017333
v 0.019356 0.115955 -0.020253
v 0.016998 0.115968 -0.020665
v 0.015306 0.115962 -0.019291
v 0.015670 0.115955 -0.016494
v -0.015628 0.116481 0.014554
v -0.019049 0.116496 0.014385
v -0.020841 0.116490 0.016676
v -0.019615 0.116495 0.019579
v -0.017056 0.116495 0.020193
v -0.014785 0.116493 0.018396
v 0.019727 0.116481 0.014554
v 0.016306 0.116496 0.014385
v 0.014514 0.116490 0.016676
v 0.015740 0.116495 0.019579
v 0.018299 0.116495 0.020193
v 0.020570 0.116493 0.018396
v -0.014617 0.116496 -0.018557
v -0.016157 0.116490 -0.021025
v -0.019556 0.116493 -0.020744
v -0.020809 0.116493 -0.017852
v -0.019162 0.116495 -0.015476
v -0.015740 0.116487 -0.015605
v 0.019198 0.116490 -0.021025
v 0.015799 0.116493 -0.020744
v 0.014546 0.116493 -0.017852
v 0.017197 0.116481 -0.014945
v 0.020837 0.116487 -0.017460
v -0.000189 0.079045 0.051074
v 0.000008 0.083052 0.051013
v -0.013025 0.116496 0.018266
v -0.013552 0.116496 0.014613
v -0.016555 0.116496 0.012490
v -0.020207 0.116496 0.013018
v -0.022463 0.116496 0.016429
v -0.021048 0.116496 0.020703
v -0.017141 0.116496 0.021899
v -0.014548 0.116496 0.020710
v 0.022330 0.116496 0.018266
v 0.021802 0.116496 0.014613
v 0.018800 0.116496 0.012490
v 0.015148 0.116496 0.013018
v 0.012891 0.116496 0.016429
v 0.014307 0.116496 0.020703
v 0.018214 0.116496 0.021899
v 0.020807 0.116496 0.020710
v -0.016143 0.116496 -0.022801
v -0.019399 0.116496 -0.022634
v -0.021666 0.116496 -0.020859
v -0.022377 0.116496 -0.016814
v -0.019212 0.116496 -0.013623
v -0.015547 0.116496 -0.013926
v -0.012909 0.116496 -0.017073
v -0.013621 0.116496 -0.020675
v 0.021734 0.116496 -0.020675
v 0.019212 0.116496 -0.022801
v 0.015148 0.116496 -0.022337
v 0.013025 0.116496 -0.019335
v 0.013739 0.116496 -0.015291
v 0.016956 0.116496 -0.013522
v 0.019807 0.116496 -0.013926
v 0.022446 0.116496 -0.017073
v 0.004768 0.082270 0.048781
v 0.003648 0.084253 0.048876
v 0.001922 0.085353 0.049412
v 0.000803 0.085950 0.048001
v -0.000395 0.085726 0.049264
v -0.000000 0.085947 0.047997
v -0.000580 0.085927 0.047997
v -0.002475 0.085241 0.048861
v -0.003971 0.083600 0.049366
v -0.004828 0.081748 0.048793
v -0.004610 0.079742 0.049102
v -0.003700 0.077881 0.048861
v -0.001729 0.076395 0.047993
v -0.000366 0.076045 0.048007
v 0.001440 0.076456 0.049163
v 0.000579 0.076167 0.047997
v 0.003721 0.077886 0.048794
v 0.004854 0.079829 0.046997
v 0.004019 0.079340 0.049910
v -0.001812 0.077054 0.049847
v 0.001336 0.077583 0.050539
v -0.002611 0.078561 0.050617
v -0.003324 0.081189 0.050795
v -0.001988 0.084462 0.050255
v 0.002626 0.083065 0.050799
v 0.003691 0.081467 0.050494
v -0.000025 0.084246 0.050798
v -0.002201 0.082852 0.050910
v 0.002040 0.079225 0.050949
v -0.000046 0.079035 0.051051
v 0.000046 0.083059 0.051051
v -0.022293 0.107596 0.015782
v -0.020663 0.107596 0.013422
v -0.018402 0.107596 0.012428
v -0.015134 0.107596 0.012996
v -0.013000 0.107596 0.016014
v -0.013530 0.107596 0.019686
v -0.015741 0.107596 0.021471
v -0.018217 0.107596 0.021924
v -0.020824 0.107596 0.020729
v -0.022195 0.107596 0.018675
v 0.013062 0.107596 0.015782
v 0.014377 0.107596 0.013739
v 0.016548 0.107596 0.012465
v 0.020220 0.107596 0.012996
v 0.022355 0.107596 0.016014
v 0.021824 0.107596 0.019686
v 0.019614 0.107596 0.021471
v 0.017138 0.107596 0.021924
v 0.014531 0.107596 0.020729
v 0.013160 0.107596 0.018675
v -0.022293 0.107596 -0.019573
v -0.020338 0.107596 -0.022221
v -0.018017 0.107596 -0.022941
v -0.015134 0.107596 -0.022359
v -0.013000 0.107596 -0.019341
v -0.013531 0.107596 -0.015669
v -0.016549 0.107596 -0.013535
v -0.019819 0.107596 -0.013903
v -0.022088 0.107596 -0.016288
v 0.018806 0.107596 -0.013535
v 0.021824 0.107596 -0.015669
v 0.022355 0.107596 -0.019341
v 0.020220 0.107596 -0.022359
v 0.017338 0.107596 -0.022941
v 0.015017 0.107596 -0.022221
v 0.013062 0.107596 -0.019573
v 0.013267 0.107596 -0.016288
v 0.015536 0.107596 -0.013903
v -0.004376 0.083571 0.046965
v -0.001467 0.085813 0.046965
v 0.001767 0.085785 0.046965
v 0.004746 0.082777 0.046965
v 0.003536 0.077516 0.046965
v 0.001163 0.076250 0.046965
v -0.001767 0.076309 0.046965
v -0.004747 0.079317 0.046965
v -0.000000 0.108694 0.024465
v 0.003137 0.110481 0.023705
v 0.000877 0.110496 0.021542
v -0.000000 0.110496 0.021465
v -0.001715 0.110512 0.021655
v -0.003048 0.110494 0.024667
v -0.001531 0.110500 0.027312
v 0.001489 0.110506 0.027310
v -0.000000 0.110496 0.027465
v 0.009525 0.110496 -0.013439
v -0.000999 0.110496 -0.016543
v 0.015059 0.110496 -0.005642
v 0.015720 0.110496 0.001087
v 0.012905 0.110496 0.008990
v 0.003763 0.110496 0.015057
v -0.005767 0.110496 0.014284
v -0.013364 0.110496 0.008334
v -0.015763 0.110496 0.000598
v -0.014819 0.110496 -0.006301
v -0.009950 0.110496 -0.012938
v 0.000000 0.076147 0.046965
v -0.000001 0.085947 0.046965
v 0.002659 0.116440 0.022897
v 0.001475 0.116598 0.021609
v -0.000608 0.116689 0.021272
v -0.002521 0.116581 0.022633
v -0.003148 0.116605 0.024562
v -0.002207 0.116602 0.026738
v -0.000697 0.116447 0.027402
v 0.001535 0.116453 0.027295
v 0.003157 0.116609 0.024944
v -0.012907 0.116475 0.015757
v -0.015272 0.116186 0.012887
v -0.019811 0.116190 0.012676
v -0.022581 0.116531 0.016029
v -0.021889 0.116185 0.019625
v -0.018067 0.116174 0.022078
v -0.013594 0.116175 0.019941
v 0.022338 0.116190 0.015851
v 0.020088 0.116195 0.012890
v 0.016469 0.116550 0.012281
v 0.014567 0.116193 0.013492
v 0.012995 0.116190 0.015931
v 0.013647 0.116174 0.020017
v 0.017253 0.116507 0.022122
v 0.020109 0.116197 0.021277
v 0.022076 0.116194 0.019154
v -0.012692 0.116518 -0.017786
v -0.014207 0.116174 -0.021742
v -0.017369 0.116530 -0.023203
v -0.020881 0.116167 -0.021903
v -0.022499 0.116190 -0.018593
v -0.021368 0.116167 -0.015008
v -0.018058 0.116190 -0.013390
v -0.014501 0.116186 -0.014496
v 0.022657 0.116507 -0.017788
v 0.021368 0.116167 -0.021416
v 0.018057 0.116190 -0.023034
v 0.015101 0.116524 -0.022521
v 0.013176 0.116536 -0.020385
v 0.013099 0.116186 -0.016499
v 0.014914 0.116530 -0.014045
v 0.018259 0.116524 -0.013222
v 0.021227 0.116537 -0.014672
v 0.001295 0.115690 -0.016288
v 0.006616 0.115708 -0.014890
v 0.011119 0.115690 -0.011769
v 0.014903 0.115685 -0.006085
v 0.015753 0.115690 0.000760
v 0.014360 0.115690 0.006070
v 0.011235 0.115690 0.010583
v 0.006744 0.115708 0.013761
v 0.001920 0.115694 0.015061
v -0.004660 0.115709 0.014773
v -0.011118 0.115690 0.010700
v -0.014290 0.115690 0.006220
v -0.015739 0.115690 0.000925
v -0.014984 0.115685 -0.005862
v -0.010313 0.115684 -0.012640
v -0.004230 0.115673 -0.015763
v -0.004747 0.082777 0.043965
v -0.001772 0.085789 0.043965
v 0.001409 0.085831 0.043965
v 0.004376 0.083571 0.043965
v 0.004746 0.079317 0.043965
v 0.001772 0.076304 0.043965
v -0.001058 0.076228 0.043965
v -0.003536 0.077516 0.043965
v -0.004758 0.079782 0.043965
v -0.000007 0.116695 0.027715
v -0.000000 0.116446 0.027465
v -0.000000 0.116696 0.027715
v 0.001215 0.116703 0.027605
v 0.000006 0.116695 0.021215
v -0.000000 0.116696 0.021215
v -0.019977 0.116784 0.022327
v -0.015298 0.116695 0.021929
v -0.012577 0.116695 0.018866
v -0.022266 0.116734 0.020070
v -0.015101 0.116693 0.012395
v -0.020119 0.116690 0.012277
v 0.021295 0.116706 0.021199
v 0.013399 0.116694 0.020525
v 0.020259 0.116693 0.012421
v 0.012489 0.116687 0.015254
v 0.023130 0.116691 0.016565
v -0.022794 0.116693 -0.019892
v -0.022464 0.116695 -0.015833
v -0.018917 0.116692 -0.012897
v -0.021440 0.116718 -0.022228
v -0.013615 0.116693 -0.021780
v -0.014097 0.116693 -0.014168
v 0.012384 0.116693 -0.017134
v 0.019357 0.116693 -0.023328
v 0.022027 0.116729 -0.021455
v -0.003764 0.116700 0.015884
v -0.000000 0.115696 0.015215
v -0.000000 0.116696 0.016215
v 0.000231 0.116656 0.016216
v -0.004978 0.116710 -0.016841
v -0.013191 0.116695 -0.011116
v -0.017022 0.116694 -0.001596
v -0.015120 0.116696 0.006804
v -0.010368 0.116695 0.012869
v 0.000230 0.116657 -0.017285
v -0.000000 0.116696 -0.017284
v 0.010677 0.116695 0.012683
v 0.016013 0.116695 0.004897
v 0.016359 0.116694 -0.005359
v 0.010367 0.116695 -0.013939
v -0.000001 0.076137 0.043965
v 0.000000 0.085957 0.043965
v 0.002531 0.116697 -0.031353
v -0.007211 0.116697 0.029358
v 0.007788 0.116697 0.029165
v 0.018313 0.116696 0.024005
v -0.028120 0.116698 0.011913
v -0.030494 0.116696 0.000871
v 0.026042 0.116696 0.015529
v 0.030453 0.116698 0.003929
v -0.013387 0.116697 -0.028211
v -0.029096 0.116698 -0.010643
v 0.028708 0.116698 -0.011698
v 0.015832 0.116697 -0.026829
v -0.005040 0.080395 0.040165
v -0.004141 0.083884 0.040165
v -0.001393 0.085823 0.040165
v 0.001063 0.085906 0.040165
v 0.003116 0.084982 0.040165
v 0.004900 0.082229 0.040165
v 0.004344 0.078383 0.040165
v 0.001463 0.076271 0.040165
v -0.001177 0.076201 0.040165
v -0.003513 0.077462 0.040165
v -0.020618 0.115702 -0.024428
v -0.012057 0.115691 -0.029816
v -0.031502 0.115691 0.002693
v -0.030406 0.115706 -0.009380
v -0.025954 0.115702 -0.018493
v -0.024543 0.115702 0.019307
v -0.028811 0.115702 0.012351
v -0.018707 0.115721 0.024883
v -0.011598 0.115731 0.028816
v 0.004245 0.115720 0.030738
v -0.003773 0.115677 0.030798
v 0.012039 0.115720 0.028639
v 0.019044 0.115721 0.024632
v 0.026079 0.115691 0.017428
v 0.030291 0.115702 0.008330
v 0.031548 0.115683 0.000374
v 0.030743 0.115702 -0.007675
v 0.027926 0.115702 -0.015239
v 0.023174 0.115714 -0.021957
v 0.015091 0.115699 -0.028371
v -0.002143 0.115702 -0.032023
v 0.005913 0.115702 -0.031537
v -0.000000 0.076097 0.040165
v 0.000293 0.076071 0.040165
v -0.000000 0.085997 0.040165
v -0.001747 0.085888 0.040165
v 0.002381 0.110196 -0.032003
v 0.010285 0.110196 -0.030370
v 0.019346 0.110196 -0.025602
v 0.027339 0.110196 -0.016510
v 0.031336 0.110196 -0.005084
v 0.030329 0.110196 0.009072
v 0.024448 0.110196 0.019421
v 0.016844 0.110196 0.026278
v 0.007656 0.110196 0.030081
v -0.002539 0.110196 0.031028
v -0.012176 0.110196 0.028580
v -0.019162 0.110196 0.024540
v -0.024896 0.110196 0.018860
v -0.029001 0.110196 0.011910
v -0.031209 0.110196 0.004147
v -0.031173 0.110196 -0.006091
v -0.026810 0.110196 -0.017383
v -0.018528 0.110196 -0.026212
v -0.007537 0.110196 -0.031289
v 0.004874 0.082881 0.040879
v 0.002205 0.085679 0.040857
v -0.000216 0.086240 0.040968
v -0.002183 0.086040 0.040981
v -0.005112 0.081983 0.040884
v -0.004741 0.079148 0.040892
v -0.002242 0.076315 0.040800
v 0.001081 0.076138 0.040764
v 0.002106 0.076047 0.040985
v 0.004752 0.079111 0.040882
v -0.017384 0.110197 0.038420
v -0.000366 0.110235 0.041965
v 0.017383 0.110197 -0.039490
v 0.004035 0.110197 -0.043001
v -0.009736 0.110197 -0.042066
v 0.006310 0.110192 0.041620
v 0.018437 0.110197 0.037933
v -0.022488 0.110197 -0.036784
v -0.031175 0.110197 -0.029502
v -0.040346 0.110198 0.013755
v -0.030617 0.110198 0.029374
v 0.037413 0.110197 -0.021026
v 0.028912 0.110197 -0.031900
v 0.027860 0.110197 0.031634
v 0.035630 0.110197 0.022922
v 0.041254 0.110197 0.010318
v -0.037957 0.110197 -0.020001
v -0.042616 0.110198 -0.004507
v 0.042474 0.110198 -0.005817
v 0.000071 0.086247 0.040953
v -0.000010 0.075847 0.040963
v -0.000000 0.076047 0.040765
v -0.000000 0.075847 0.040965
v -0.002584 0.107702 -0.045523
v 0.007147 0.107702 -0.045027
v 0.018780 0.107706 -0.041616
v 0.029062 0.107702 -0.034973
v 0.035786 0.107702 -0.027920
v 0.041886 0.107706 -0.017445
v 0.044782 0.107702 -0.005550
v 0.044814 0.107702 0.004193
v 0.042750 0.107702 0.013717
v 0.038686 0.107702 0.022573
v 0.031213 0.107706 0.032117
v 0.020932 0.107669 0.039403
v 0.007990 0.107683 0.043994
v -0.000000 0.110196 0.041965
v -0.000000 0.107696 0.044465
v -0.006021 0.107699 0.044155
v -0.018924 0.107722 0.040460
v -0.030914 0.107706 0.032400
v -0.038537 0.107702 0.022821
v -0.042657 0.107702 0.013991
v -0.044783 0.107702 0.004481
v -0.044814 0.107702 -0.005263
v -0.042039 0.107706 -0.017062
v -0.035962 0.107702 -0.027690
v -0.027499 0.107706 -0.036370
v -0.014618 0.107706 -0.043275
v -0.007298 0.071736 0.044232
v 0.009810 0.072502 0.043510
v -0.017400 0.075047 0.040965
v 0.017399 0.075047 0.040965
v 0.000037 0.071550 0.044468
v 0.017399 0.087047 0.040965
v -0.017400 0.087047 0.040965
v -0.009814 0.089591 0.043509
v 0.007305 0.090357 0.044232
v -0.000038 0.090544 0.044468
v 0.012118 0.067947 0.042874
v 0.020894 0.067947 0.039382
v -0.000000 0.090547 0.044465
v -0.011428 0.067947 0.043045
v -0.020999 0.067947 0.039369
v 0.000397 0.067948 0.044604
v -0.000000 0.071547 0.044465
v -0.031505 0.067947 0.031831
v -0.038831 0.067947 0.022324
v -0.042837 0.067947 0.013443
v -0.044840 0.067947 0.003907
v -0.044747 0.067947 -0.005836
v -0.041729 0.067947 -0.017821
v -0.035608 0.067947 -0.028146
v -0.028840 0.067947 -0.035155
v -0.018407 0.067947 -0.041781
v -0.006863 0.067947 -0.045068
v 0.002871 0.067947 -0.045503
v 0.015003 0.067947 -0.043138
v 0.027820 0.067947 -0.036118
v 0.036132 0.067947 -0.027458
v 0.042183 0.067947 -0.016680
v 0.044840 0.067947 -0.004976
v 0.044746 0.067947 0.004767
v 0.042561 0.067947 0.014262
v 0.038385 0.067947 0.023065
v 0.030613 0.067947 0.032676
v -0.043724 0.067947 -0.000535
v -0.043459 0.067947 -0.005345
v -0.042666 0.067947 -0.010096
v -0.041355 0.067947 -0.014732
v -0.039542 0.067947 -0.019195
v -0.037249 0.067947 -0.023432
v -0.034504 0.067947 -0.027390
v -0.031341 0.067947 -0.031023
v -0.027796 0.067947 -0.034286
v -0.023915 0.067947 -0.037139
v -0.019743 0.067947 -0.039547
v -0.015331 0.067947 -0.041482
v -0.010734 0.067947 -0.042920
v -0.006006 0.067947 -0.043844
v -0.001205 0.067947 -0.044242
v 0.003611 0.067947 -0.044109
v 0.008382 0.067947 -0.043447
v 0.013052 0.067947 -0.042265
v 0.017564 0.067947 -0.040576
v 0.021862 0.067947 -0.038401
v 0.025895 0.067947 -0.035766
v 0.029613 0.067947 -0.032703
v 0.032972 0.067947 -0.029250
v 0.035931 0.067947 -0.025449
v 0.038454 0.067947 -0.021345
v 0.040510 0.067947 -0.016988
v 0.042074 0.067947 -0.012432
v 0.043127 0.067947 -0.007731
v 0.043657 0.067947 -0.002943
v 0.043657 0.067947 0.001874
v 0.043127 0.067947 0.006662
v 0.042074 0.067947 0.011363
v 0.040510 0.067947 0.015919
v 0.038454 0.067947 0.020276
v 0.035931 0.067947 0.024380
v 0.032972 0.067947 0.028181
v 0.029613 0.067947 0.031634
v 0.025895 0.067947 0.034697
v 0.021862 0.067947 0.037331
v 0.017564 0.067947 0.039506
v 0.013052 0.067947 0.041196
v 0.008382 0.067947 0.042378
v 0.003611 0.067947 0.043040
v -0.001205 0.067947 0.043173
v -0.006006 0.067947 0.042775
v -0.010734 0.067947 0.041851
v -0.015331 0.067947 0.040413
v -0.019743 0.067947 0.038478
v -0.023915 0.067947 0.036069
v -0.027796 0.067947 0.033217
v -0.031341 0.067947 0.029954
v -0.034504 0.067947 0.026321
v -0.037249 0.067947 0.022362
v -0.039542 0.067947 0.018126
v -0.041355 0.067947 0.013662
v -0.042666 0.067947 0.009027
v -0.043459 0.067947 0.004275
vn -0.0000 1.0000 -0.0000
vn -0.4262 0.0248 -0.9043
vn -0.6080 -0.0483 -0.7924
vn -0.9984 0.0489 0.0279
vn -0.9497 -0.0340 0.3113
vn -0.5003 0.0176 0.8657
vn -0.3259 -0.0250 0.9451
vn 0.2632 0.0359 0.9641
vn 0.6434 -0.0366 0.7647
vn 0.9321 0.0430 0.3598
vn 0.9992 -0.0371 0.0157
vn 0.6463 0.0278 -0.7626
vn 0.5385 -0.0176 -0.8425
vn -0.3290 -0.0364 -0.9436
vn -0.6018 0.0413 -0.7976
vn -0.9929 -0.0456 -0.1098
vn -0.9630 0.0595 0.2627
vn -0.5374 -0.0634 0.8409
vn 0.0588 0.0771 0.9953
vn 0.5007 -0.0430 0.8646
vn 0.9874 0.0220 0.1570
vn 0.9926 0.0386 0.1152
vn 0.6170 -0.0397 -0.7859
vn 0.3749 0.0393 -0.9262
vn -0.6023 0.0055 -0.7982
vn -0.6322 -0.0073 -0.7748
vn -0.9647 0.0073 0.2632
vn -0.9633 0.0050 0.2683
vn -0.1722 -0.0142 0.9850
vn 0.0589 0.0569 0.9966
vn 0.6300 -0.0472 0.7751
vn 0.9918 0.0558 0.1151
vn 0.9912 -0.0279 -0.1291
vn 0.3752 0.0173 -0.9268
vn 0.3111 -0.0058 -0.9503
vn -0.6791 0.6973 0.2293
vn -0.1775 0.8473 0.5006
vn -0.0472 0.2109 0.9764
vn 0.3978 0.7903 0.4659
vn 0.6806 0.5021 0.5336
vn 0.5304 0.8477 0.0109
vn 0.8948 0.2373 -0.3782
vn 0.2808 0.8552 -0.4356
vn 0.2104 0.4303 -0.8778
vn -0.3747 0.7855 -0.4925
vn -0.4030 0.7599 -0.5101
vn -0.9374 0.2818 0.2046
vn -0.4030 0.7598 -0.5101
vn -0.7993 0.3365 0.4979
vn -0.2596 0.8779 0.4024
vn 0.0822 0.0781 0.9936
vn 0.2728 0.8440 0.4617
vn 0.8394 0.4037 0.3638
vn 0.5793 0.8094 0.0965
vn 0.7623 0.3731 -0.5288
vn 0.3359 0.8362 -0.4336
vn -0.0354 0.2877 -0.9571
vn -0.1720 0.8465 -0.5039
vn -0.8570 0.4001 -0.3248
vn -0.5576 0.8280 -0.0597
vn -0.5946 0.7868 0.1656
vn -0.8614 0.3176 0.3964
vn -0.0970 0.8083 0.5807
vn 0.0783 0.3198 0.9442
vn 0.3403 0.8399 0.4228
vn 0.8932 0.2289 0.3871
vn 0.4908 0.8691 -0.0618
vn 0.7293 -0.1572 -0.6659
vn 0.1400 0.8873 -0.4393
vn -0.6313 -0.0576 -0.7734
vn -0.5054 0.4595 -0.7304
vn -0.0930 -0.0064 0.9956
vn -0.0480 0.0175 0.9987
vn 0.0815 0.0111 0.9966
vn 0.0536 0.0308 0.9981
vn -0.0020 1.0000 -0.0028
vn -0.0075 1.0000 0.0011
vn -0.0078 0.9999 0.0110
vn 0.0040 1.0000 0.0057
vn 0.0001 1.0000 0.0005
vn -0.0011 1.0000 0.0014
vn 0.0032 1.0000 0.0021
vn 0.0037 1.0000 -0.0012
vn -0.0000 1.0000 -0.0014
vn 0.0003 1.0000 -0.0011
vn 0.0003 1.0000 -0.0009
vn -0.0004 1.0000 -0.0010
vn -0.0004 1.0000 -0.0013
vn -0.0019 1.0000 -0.0012
vn 0.0038 1.0000 -0.0012
vn 0.0010 1.0000 0.0033
vn 0.0001 1.0000 0.0017
vn 0.0014 1.0000 0.0018
vn 0.0015 1.0000 0.0006
vn 0.0023 1.0000 0.0004
vn 0.0011 1.0000 -0.0014
vn 0.0009 1.0000 -0.0008
vn 0.0023 1.0000 -0.0008
vn -0.0005 1.0000 -0.0057
vn -0.0061 1.0000 -0.0051
vn -0.0023 1.0000 0.0022
vn -0.0005 1.0000 0.0001
vn -0.0022 1.0000 -0.0007
vn -0.0027 1.0000 0.0032
vn -0.0026 1.0000 0.0023
vn 0.0002 1.0000 0.0019
vn 0.0018 1.0000 0.0013
vn 0.0025 1.0000 -0.0004
vn 0.0045 1.0000 0.0002
vn 0.0055 0.9999 -0.0100
vn -0.0016 0.9999 -0.0112
vn -0.0044 1.0000 -0.0040
vn -0.0050 1.0000 -0.0042
vn -0.0063 1.0000 0.0013
vn -0.0054 0.9855 0.1696
vn -0.0339 0.9864 0.1609
vn -0.2576 0.9479 0.1875
vn 0.1275 -0.9806 0.1490
vn 0.9570 -0.1484 0.2494
vn 0.9160 -0.3449 0.2047
vn -0.2387 -0.9183 0.3157
vn -0.5011 -0.8223 0.2697
vn -0.0738 -0.8979 0.4341
vn 0.1339 0.9461 0.2948
vn 0.8495 -0.0139 0.5274
vn 0.5267 -0.5828 0.6188
vn 0.5003 -0.6509 0.5710
vn -0.5613 -0.5925 0.5778
vn -0.6924 -0.4148 0.5903
vn -0.7988 0.0058 0.6016
vn -0.7666 0.1626 0.6212
vn -0.5278 0.6496 0.5472
vn -0.2891 0.7892 0.5418
vn 0.5464 0.5508 0.6309
vn 0.7060 0.3698 0.6039
vn 0.7074 0.3552 0.6111
vn -0.0091 -0.7739 0.6333
vn -0.6704 -0.2299 0.7055
vn -0.1177 0.7004 0.7040
vn 0.0736 0.7266 0.6831
vn -0.1059 -0.4962 0.8617
vn -0.5452 0.3144 0.7771
vn -0.5111 0.3811 0.7704
vn 0.2480 0.5570 0.7926
vn 0.4658 -0.1670 0.8690
vn 0.4453 -0.3919 0.8051
vn -0.2048 0.3921 0.8968
vn 0.0715 -0.2704 0.9601
vn -0.0808 -0.3990 0.9134
vn 0.0415 -0.7878 0.6146
vn -0.1630 -0.1107 0.9804
vn 0.0944 0.2126 0.9726
vn 0.2699 -0.0036 0.9629
vn 0.0177 -0.9874 0.1575
vn -0.0795 0.2030 0.9760
vn -0.8338 0.0241 -0.5515
vn -0.8227 0.0163 -0.5682
vn -0.4025 -0.0210 -0.9152
vn -0.1429 0.0366 -0.9891
vn 0.1712 -0.0286 -0.9848
vn 0.5768 0.0457 -0.8156
vn 0.8158 -0.0402 -0.5769
vn 0.9890 0.0389 -0.1429
vn 0.9892 -0.0334 0.1429
vn 0.8481 0.0361 0.5286
vn 0.6281 -0.0177 0.7780
vn 0.4168 0.0218 0.9087
vn 0.1802 -0.0190 0.9834
vn -0.2924 0.0381 0.9555
vn -0.4168 -0.0079 0.9089
vn -0.8314 -0.0194 0.5553
vn -0.9481 0.0506 0.3139
vn -0.9992 -0.0216 0.0337
vn -0.8405 0.0289 -0.5410
vn -0.5057 -0.0261 -0.8623
vn -0.1429 0.0389 -0.9890
vn 0.1429 -0.0334 -0.9892
vn 0.8481 0.0361 0.5285
vn -0.8315 -0.0194 0.5553
vn -0.9839 0.0443 -0.1730
vn -0.8043 -0.0291 -0.5936
vn -0.6164 0.0286 -0.7869
vn -0.2962 -0.0130 -0.9550
vn -0.0513 0.0265 -0.9983
vn 0.1978 -0.0263 -0.9799
vn 0.6443 0.0351 -0.7640
vn 0.8161 -0.0295 -0.5771
vn 0.9802 0.0394 -0.1939
vn 0.9887 -0.0465 0.1428
vn 0.7654 0.0478 0.6417
vn 0.5771 -0.0291 0.8161
vn 0.0824 0.0345 0.9960
vn -0.1120 -0.0237 0.9934
vn -0.7098 0.0263 0.7040
vn -0.7244 0.0172 0.6891
vn -0.9976 -0.0287 0.0622
vn 0.1402 0.0277 0.9897
vn -0.1134 0.0395 -0.9928
vn -0.2962 -0.0081 -0.9551
vn -0.8046 0.0041 -0.5938
vn -0.8164 0.0120 -0.5773
vn -0.9980 -0.0059 0.0623
vn -0.9842 0.0328 0.1740
vn -0.7240 -0.0387 0.6887
vn -0.4816 0.0394 0.8755
vn -0.1120 -0.0247 0.9934
vn -0.9837 0.0856 -0.1580
vn -0.9140 0.3769 0.1498
vn -0.7168 0.6881 0.1128
vn -0.6084 0.7891 -0.0849
vn -0.2811 0.9498 0.1376
vn 0.0089 0.9931 -0.1165
vn -0.0164 0.9848 -0.1729
vn 0.3174 0.9371 0.1454
vn 0.5579 0.8226 0.1100
vn 0.7040 0.6974 -0.1342
vn 0.8666 0.4833 0.1246
vn 0.9993 0.0365 -0.0015
vn 0.8687 -0.4952 0.0122
vn 0.5408 -0.8334 0.1138
vn 0.4706 -0.8820 0.0234
vn 0.2438 -0.9680 0.0600
vn -0.0201 -0.9956 -0.0915
vn -0.0981 -0.9914 0.0863
vn -0.5741 -0.8139 0.0894
vn -0.7035 -0.6968 -0.1395
vn -0.8812 -0.4497 0.1457
vn -0.9921 -0.0952 0.0822
vn -0.3783 0.8343 0.4010
vn 0.0647 0.8554 0.5140
vn -0.0452 0.8563 0.5145
vn 0.5062 0.8314 0.2290
vn 0.4754 0.8358 -0.2747
vn -0.0590 0.8557 -0.5141
vn 0.0536 0.8559 -0.5143
vn -0.5241 0.8156 -0.2452
vn -0.9699 -0.0453 0.2394
vn -0.6907 0.0425 0.7219
vn -0.7308 0.0642 0.6796
vn 0.0435 -0.0152 0.9989
vn -0.1553 0.0889 0.9839
vn 0.5810 -0.0537 0.8121
vn 0.9129 0.0560 0.4044
vn 0.9509 0.0209 0.3089
vn 0.8673 0.0056 -0.4977
vn 0.9160 0.0643 -0.3960
vn 0.3986 -0.0420 -0.9162
vn -0.0480 0.0219 -0.9986
vn -0.0004 -0.0026 -1.0000
vn -0.9094 0.0060 -0.4158
vn -0.8211 0.1157 -0.5589
vn -0.8162 0.0252 0.5772
vn -0.7715 -0.0043 0.6362
vn -0.1713 0.0097 0.9852
vn -0.0464 -0.0365 0.9983
vn 0.4023 0.0395 0.9147
vn 0.8224 -0.0322 0.5680
vn 0.7713 0.0073 0.6365
vn 0.9989 0.0332 -0.0337
vn 0.9816 -0.0140 -0.1904
vn 0.8312 0.0317 -0.5551
vn 0.5395 -0.0412 -0.8410
vn 0.4168 0.0090 -0.9089
vn -0.1802 0.0207 -0.9834
vn -0.4305 -0.0529 -0.9010
vn -0.6280 0.0185 -0.7780
vn -0.9897 -0.0031 -0.1430
vn -0.9868 0.0056 -0.1616
vn -0.8164 0.0094 0.5774
vn -0.7961 -0.0048 0.6051
vn -0.1430 0.0100 0.9897
vn -0.1641 0.0188 0.9863
vn 0.5339 0.0221 0.8453
vn 0.5058 0.0136 0.8625
vn 0.8409 -0.0030 0.5413
vn 0.8405 -0.0028 0.5418
vn 0.9994 0.0084 -0.0337
vn 0.9870 -0.0314 -0.1576
vn 0.8310 0.0396 -0.5549
vn 0.4166 -0.0324 -0.9085
vn 0.5033 0.0127 -0.8640
vn -0.1802 0.0242 -0.9833
vn -0.2845 -0.0052 -0.9587
vn -0.6280 0.0186 -0.7780
vn -0.7333 -0.0205 -0.6796
vn -0.9895 0.0201 -0.1429
vn -0.9969 -0.0034 -0.0792
vn -0.9326 -0.0305 0.3597
vn -0.8156 0.0467 0.5767
vn -0.4212 -0.0197 0.9068
vn -0.1977 0.0430 0.9793
vn 0.2962 0.0065 0.9551
vn 0.3482 -0.0128 0.9373
vn 0.8043 0.0289 0.5936
vn 0.8980 -0.0285 0.4392
vn 0.9976 0.0311 -0.0622
vn 0.9530 -0.0351 -0.3009
vn 0.7239 0.0420 -0.6886
vn 0.4391 -0.0364 -0.8977
vn 0.1119 0.0363 -0.9931
vn -0.2967 -0.0361 -0.9543
vn -0.5768 0.0462 -0.8156
vn -0.8744 -0.0327 -0.4842
vn -0.9880 0.0590 -0.1427
vn -0.9412 -0.0268 0.3369
vn -0.8156 0.0457 0.5768
vn -0.4390 -0.0400 0.8976
vn -0.1978 0.0272 0.9799
vn 0.2962 -0.0145 0.9550
vn 0.1743 0.0314 0.9842
vn 0.8045 0.0123 0.5938
vn 0.7420 0.0512 0.6685
vn 0.9998 -0.0110 0.0188
vn 0.9979 0.0180 -0.0623
vn 0.7245 -0.0027 -0.6892
vn 0.8000 0.0462 -0.5982
vn 0.2390 0.0013 -0.9710
vn 0.1119 0.0417 -0.9928
vn -0.4391 0.0046 -0.8984
vn -0.5766 0.0524 -0.8154
vn -0.9088 -0.0142 -0.4170
vn -0.9880 0.0584 -0.1427
vn -0.2538 0.0647 0.9651
vn -0.2812 0.1085 0.9535
vn -0.5676 -0.0890 0.8185
vn -0.8299 0.0770 0.5526
vn -0.8152 0.0249 0.5786
vn -0.9922 -0.0193 0.1233
vn -0.9951 0.0125 0.0978
vn -0.9672 -0.0099 -0.2537
vn -0.9393 0.0751 -0.3347
vn -0.8189 -0.0893 -0.5670
vn -0.5762 0.0647 -0.8147
vn -0.5497 0.1085 -0.8283
vn -0.2588 -0.0910 -0.9616
vn 0.0438 0.0163 -0.9989
vn 0.0805 0.0760 -0.9938
vn 0.5331 -0.0340 -0.8453
vn 0.6140 0.0917 -0.7839
vn 0.8129 -0.0893 -0.5755
vn 0.9625 0.0645 -0.2633
vn 0.9550 0.0142 -0.2962
vn 0.9938 -0.0116 0.1105
vn 0.9906 0.0200 0.1356
vn 0.8232 -0.0218 0.5673
vn 0.8061 0.0224 0.5913
vn 0.4566 -0.0191 0.8895
vn 0.3719 0.0931 0.9236
vn 0.0944 -0.0903 0.9914
vn -0.7083 0.6992 -0.0977
vn -0.6096 0.7907 0.0556
vn -0.0906 0.9959 0.0012
vn -0.0132 0.9989 -0.0446
vn 0.0914 0.9958 0.0047
vn 0.6049 0.7940 -0.0598
vn 0.7070 0.7003 0.0981
vn 0.9913 0.0863 -0.0995
vn 0.9985 0.0360 -0.0415
vn 0.8673 -0.4950 0.0528
vn 0.7053 -0.6962 -0.1334
vn 0.4692 -0.8795 0.0794
vn 0.0885 -0.9961 -0.0000
vn 0.0268 -0.9990 -0.0366
vn -0.0915 -0.9958 0.0052
vn -0.4595 -0.8841 -0.0847
vn -0.7040 -0.6973 0.1346
vn -0.8779 -0.4736 -0.0700
vn -1.0000 0.0039 0.0045
vn -0.9913 0.0863 0.0995
vn 0.4047 0.0272 -0.9140
vn 0.0640 0.7086 -0.7027
vn -0.1595 0.6981 -0.6981
vn -0.0811 0.7048 -0.7048
vn -0.0639 0.7442 -0.6649
vn -0.7747 -0.3036 -0.5547
vn -0.2882 -0.9460 0.1483
vn 0.1823 0.8652 -0.4670
vn 0.0077 0.9768 0.2140
vn -0.0811 0.1494 -0.9854
vn -0.1902 0.8977 -0.3975
vn -0.7447 0.0885 -0.6615
vn 0.4738 0.7273 -0.4965
vn 0.2389 0.8985 -0.3683
vn 0.5883 0.6939 0.4154
vn 0.7847 0.6131 -0.0920
vn -0.4659 0.8848 -0.0130
vn -0.6216 0.6430 0.4473
vn -0.0324 0.7016 0.7118
vn -0.0188 0.6164 0.7872
vn -0.3873 0.8486 -0.3603
vn 0.2892 0.7362 -0.6119
vn -0.2234 0.3851 -0.8954
vn -0.0526 0.6944 0.7176
vn 0.5471 -0.3729 0.7494
vn 0.4461 0.8472 0.2884
vn 0.7732 0.6225 -0.1209
vn 0.8309 0.5375 -0.1441
vn -0.9285 0.0523 -0.3678
vn -0.5071 0.8609 -0.0412
vn -0.7400 0.3678 0.5631
vn -0.6355 0.6339 0.4407
vn 0.4703 0.8536 0.2239
vn 0.9336 0.3500 -0.0761
vn 0.5235 0.8369 -0.1598
vn 0.6332 0.1193 -0.7647
vn 0.5582 0.7605 0.3318
vn -0.3346 0.4424 0.8321
vn 0.2064 0.6429 0.7376
vn 0.2253 0.8517 -0.4731
vn -0.2721 0.3967 -0.8767
vn -0.1964 0.6385 -0.7442
vn -0.6502 0.7037 -0.2863
vn -0.6415 0.7455 0.1807
vn 0.5242 0.8472 0.0868
vn 0.7444 0.3058 -0.5936
vn -0.2238 0.8537 0.4702
vn 0.1814 0.1033 0.9780
vn -0.4678 0.5933 0.6551
vn -0.6363 0.7557 0.1551
vn 0.3487 0.5421 -0.7646
vn 0.0679 0.7169 -0.6939
vn 0.0628 0.7057 -0.7057
vn -0.0560 0.7060 -0.7060
vn 0.1497 0.8563 -0.4943
vn -0.2148 0.5726 -0.7912
vn 0.2858 0.7819 0.5540
vn 0.5325 0.3624 0.7649
vn 0.4592 0.8301 0.3164
vn 0.8898 0.2828 0.3582
vn 0.5401 0.8395 0.0594
vn 0.8380 0.4953 -0.2292
vn 0.7132 0.6821 -0.1616
vn 0.5746 0.7102 -0.4068
vn 0.6319 0.5963 -0.4951
vn 0.3035 0.8200 -0.4852
vn -0.3028 0.2694 0.9142
vn -0.2086 0.5813 0.7865
vn 0.1348 0.7794 0.6118
vn 0.0613 0.7411 0.6686
vn 0.0618 0.7403 0.6694
vn -0.3119 0.2386 -0.9197
vn -0.3346 0.8124 -0.4776
vn -0.6630 0.5914 -0.4591
vn -0.6767 0.5719 -0.4637
vn -0.5911 0.7916 -0.1551
vn -0.9288 0.3694 -0.0313
vn -0.5927 0.8021 0.0730
vn -0.6495 0.6251 0.4330
vn -0.6959 0.5286 0.4861
vn -0.3359 0.8048 0.4893
vn -0.0006 1.0000 -0.0001
vn -0.0045 1.0000 0.0021
vn 0.0140 0.9999 -0.0074
vn 0.0141 0.9999 -0.0076
vn -0.0119 0.9980 0.0619
vn -0.0067 0.9993 0.0361
vn -0.0000 1.0000 -0.0003
vn 0.0104 0.9795 0.2012
vn -0.0080 1.0000 0.0008
vn -0.0117 0.9999 -0.0079
vn 0.0078 0.9995 -0.0294
vn 0.0162 0.9999 -0.0056
vn 0.0001 1.0000 0.0034
vn -0.0106 0.9988 -0.0479
vn -0.0141 0.9979 -0.0633
vn -0.0011 1.0000 -0.0000
vn -0.0005 1.0000 0.0005
vn -0.1471 0.9876 -0.0541
vn -0.0074 0.9976 0.0694
vn 0.0712 0.9959 -0.0555
vn -0.0010 0.9991 0.0417
vn 0.0010 1.0000 -0.0003
vn 0.0002 1.0000 0.0003
vn -0.0002 1.0000 -0.0001
vn -0.0023 1.0000 -0.0008
vn 0.0001 1.0000 0.0006
vn -0.0380 0.9992 0.0084
vn 0.0240 0.9996 -0.0138
vn 0.0262 0.9995 0.0179
vn -0.0635 0.9959 -0.0642
vn -0.0384 0.9962 -0.0784
vn 0.0383 0.9990 0.0245
vn -0.0037 1.0000 -0.0047
vn -0.0004 1.0000 -0.0007
vn 0.0226 0.9990 0.0385
vn -0.0214 0.9994 -0.0281
vn 0.0689 0.9974 -0.0213
vn 0.0665 0.9941 0.0860
vn -0.0430 0.9991 -0.0009
vn 0.0001 1.0000 -0.0002
vn 0.0007 1.0000 0.0003
vn 0.0007 1.0000 0.0002
vn 0.0003 1.0000 -0.0004
vn 0.1111 0.9910 0.0751
vn -0.0003 1.0000 0.0001
vn 0.0081 0.9999 -0.0126
vn -0.0170 0.9995 -0.0257
vn -0.1107 0.9907 0.0789
vn -0.0150 0.9998 -0.0165
vn -0.0225 0.9997 0.0025
vn -0.0488 0.9975 0.0502
vn -0.0129 0.9992 0.0380
vn 0.0110 0.9999 0.0040
vn -0.0332 0.9989 0.0345
vn 0.2013 0.9795 0.0067
vn 0.0518 0.9980 -0.0356
vn 0.0367 0.9991 0.0225
vn 0.0007 1.0000 -0.0002
vn 0.0068 0.9998 -0.0200
vn 0.0356 0.9991 -0.0248
vn 0.0001 1.0000 0.0007
vn 0.0175 0.9997 -0.0194
vn -0.0233 0.9996 -0.0130
vn 0.0107 0.9999 0.0046
vn -0.0033 1.0000 0.0012
vn 0.0086 1.0000 -0.0029
vn 0.0007 0.9999 -0.0110
vn 0.0087 0.9996 0.0273
vn -0.9651 0.2489 -0.0814
vn -0.7087 0.6996 0.0909
vn -0.5758 0.8160 -0.0503
vn -0.0939 0.9956 -0.0006
vn -0.0339 0.9992 -0.0228
vn 0.0885 0.9960 0.0115
vn 0.4103 0.9118 -0.0195
vn 0.6033 0.7919 0.0940
vn 0.8367 0.5424 -0.0761
vn 0.9906 0.0862 0.1062
vn 0.9873 -0.1426 -0.0694
vn 0.7083 -0.6992 0.0970
vn 0.5906 -0.8059 -0.0411
vn 0.0939 -0.9956 0.0010
vn -0.0858 -0.9940 -0.0682
vn 0.0267 -0.9996 0.0064
vn -0.4610 -0.8871 0.0208
vn -0.4750 -0.8799 0.0097
vn -0.8801 -0.4748 0.0015
vn -0.8869 -0.4619 -0.0086
vn -0.9972 0.0039 0.0747
vn -0.4467 0.5433 -0.7109
vn -0.3693 0.7834 -0.4998
vn -0.6368 0.7690 -0.0568
vn -0.7609 0.5316 -0.3720
vn -0.4249 0.8611 -0.2793
vn -0.5676 0.6460 -0.5103
vn -0.7842 0.6132 -0.0951
vn -0.6586 0.6347 0.4042
vn -0.7574 0.6181 0.2103
vn -0.5792 0.8056 0.1244
vn -0.4806 0.8077 0.3414
vn -0.5129 0.6719 0.5344
vn -0.4906 0.7265 0.4812
vn -0.2448 0.8561 0.4551
vn -0.2670 0.8355 0.4804
vn 0.0070 0.8425 0.5386
vn -0.0001 0.8158 0.5784
vn -0.2116 0.4846 0.8487
vn 0.2219 0.5221 0.8235
vn 0.3637 0.6808 0.6358
vn 0.2520 0.8200 0.5139
vn 0.5112 0.7017 0.4963
vn 0.4825 0.7779 0.4027
vn 0.6080 0.4591 0.6478
vn 0.6986 0.6378 0.3242
vn 0.5382 0.8175 0.2048
vn 0.8751 0.4640 0.1372
vn 0.5756 0.8159 -0.0556
vn 0.5308 0.8454 -0.0593
vn 0.8364 0.4511 -0.3114
vn 0.4737 0.8150 -0.3337
vn 0.5262 0.7714 -0.3579
vn 0.4361 0.7434 -0.5071
vn 0.4965 0.6001 -0.6272
vn -0.1176 0.7945 -0.5957
vn -0.1118 0.8601 -0.4977
vn 0.0561 0.3626 -0.9303
vn 0.2006 0.7891 -0.5806
vn 0.2038 0.7743 -0.5991
vn -0.0000 -0.0000 1.0000
vn 0.2021 -0.0469 -0.9782
vn 0.3256 0.0585 -0.9437
vn 0.4640 -0.0849 -0.8818
vn 0.6191 0.0860 -0.7806
vn 0.7483 -0.0846 -0.6579
vn 0.8155 0.0461 -0.5769
vn 0.9370 -0.0195 -0.3489
vn 0.9426 -0.0537 -0.3297
vn 0.9932 0.0602 -0.0992
vn 0.9916 -0.1086 0.0705
vn 0.9874 0.0278 0.1560
vn 0.9057 0.0628 0.4193
vn 0.8667 -0.0786 0.4925
vn 0.7149 0.0409 0.6980
vn 0.6690 -0.0454 0.7419
vn 0.4956 0.0608 0.8664
vn 0.3817 -0.0621 0.9222
vn 0.2599 0.0457 0.9646
vn 0.0923 -0.0613 0.9938
vn 0.0072 0.0435 0.9990
vn -0.2456 -0.0147 0.9693
vn -0.2461 -0.0156 0.9691
vn -0.4840 0.0133 0.8749
vn -0.5006 -0.0125 0.8656
vn -0.6908 0.0120 0.7229
vn -0.7038 -0.0126 0.7103
vn -0.8523 0.0122 0.5230
vn -0.8609 -0.0110 0.5086
vn -0.9633 0.0117 0.2683
vn -0.9616 0.0212 0.2735
vn -0.9985 -0.0541 -0.0035
vn -0.9924 0.0844 -0.0899
vn -0.9294 -0.0851 -0.3591
vn -0.8973 0.0511 -0.4384
vn -0.7435 -0.0192 -0.6684
vn -0.7282 -0.0551 -0.6831
vn -0.5312 0.0719 -0.8442
vn -0.4172 -0.1011 -0.9032
vn -0.2166 0.0825 -0.9728
vn -0.0717 -0.0625 -0.9955
vn 0.0602 0.0458 -0.9971
vn -0.7606 -0.4930 0.4224
vn -0.7002 -0.6698 -0.2471
vn -0.3839 -0.8531 0.3533
vn -0.2234 -0.9735 0.0489
vn 0.0058 -0.9201 0.3917
vn 0.1000 -0.9674 0.2329
vn 0.5776 -0.6898 0.4365
vn 0.7498 -0.5320 -0.3935
vn 0.8125 -0.2095 0.5440
vn 0.9747 0.1271 -0.1838
vn 0.8160 0.4249 0.3918
vn 0.7163 0.6407 -0.2766
vn 0.4005 0.7418 0.5379
vn 0.0881 0.9956 -0.0313
vn 0.0505 0.9830 -0.1764
vn -0.1680 0.9795 0.1111
vn 0.0349 0.9705 0.2384
vn -0.4878 0.6657 0.5647
vn -0.7417 0.6330 -0.2218
vn -0.9137 0.1320 0.3845
vn -0.9973 0.0324 -0.0655
vn 0.0001 1.0000 -0.0001
vn -0.0000 1.0000 -0.0001
vn -0.0016 1.0000 -0.0032
vn -0.0000 1.0000 0.0001
vn 0.0061 1.0000 -0.0047
vn -0.0000 1.0000 0.0004
vn -0.0003 1.0000 0.0003
vn 0.0001 1.0000 -0.0000
vn -0.0001 1.0000 -0.0000
vn 0.0002 1.0000 -0.0000
vn -0.0001 1.0000 0.0001
vn 0.0525 0.0298 0.9982
vn 0.0945 0.6971 0.7107
vn -0.1632 0.6976 0.6977
vn -0.0590 0.7058 0.7060
vn -0.0768 0.7433 0.6645
vn 0.0383 0.6583 -0.7518
vn 0.1709 0.7407 -0.6497
vn 0.2011 0.6987 -0.6865
vn 0.3847 0.7145 -0.5844
vn 0.3712 0.7297 -0.5742
vn 0.5397 0.6663 -0.5145
vn 0.5073 0.7651 -0.3966
vn 0.6657 0.6375 -0.3878
vn 0.5929 0.7807 -0.1973
vn 0.7318 0.6579 -0.1780
vn 0.7342 0.6789 -0.0024
vn 0.6267 0.7778 0.0474
vn 0.7357 0.6583 0.1595
vn 0.6135 0.7407 0.2738
vn 0.6251 0.7259 0.2868
vn 0.5915 0.6601 0.4630
vn 0.4937 0.7500 0.4403
vn 0.4112 0.6728 0.6151
vn 0.3983 0.7219 0.5658
vn 0.2519 0.6599 0.7078
vn 0.1954 0.7399 0.6437
vn 0.0394 0.7005 0.7126
vn 0.0428 0.7064 0.7065
vn 0.0745 0.7051 0.7052
vn -0.0365 0.6985 0.7147
vn -0.1257 0.7940 0.5949
vn -0.1972 0.6936 0.6929
vn -0.3928 0.7179 0.5747
vn -0.3809 0.7317 0.5652
vn -0.5965 0.6473 0.4745
vn -0.5161 0.7939 0.3215
vn -0.6805 0.6604 0.3175
vn -0.7166 0.6789 0.1601
vn -0.6034 0.7939 0.0750
vn -0.7509 0.6604 0.0024
vn -0.7142 0.6796 -0.1678
vn -0.6044 0.7757 -0.1818
vn -0.6659 0.6415 -0.3810
vn -0.5368 0.7516 -0.3832
vn -0.5411 0.6552 -0.5272
vn -0.4184 0.7588 -0.4991
vn -0.3682 0.6266 -0.6869
vn -0.2453 0.7677 -0.5920
vn -0.1407 0.6415 -0.7541
vn -0.0436 0.7651 -0.6424
vn -0.0012 0.7006 0.7136
vn -0.0000 0.7071 0.7071
vn -0.0035 0.7269 0.6867
vn -0.0025 -0.0221 0.9998
vn -0.0000 0.0028 1.0000
vn -0.0035 -0.0730 0.9973
vn 0.0033 0.0305 0.9995
vn 0.0059 -0.1439 0.9896
vn 0.0046 0.0854 0.9963
vn -0.0000 -0.0153 0.9999
vn -0.0072 0.0009 1.0000
vn -0.0125 0.2739 0.9617
vn -0.0069 -0.0000 1.0000
vn -0.0061 0.0012 1.0000
vn 0.0126 -0.0213 0.9997
vn 0.0045 0.0037 1.0000
vn 0.0066 -0.0000 1.0000
vn -0.0000 -0.7024 0.7117
vn 0.0021 -0.7102 0.7040
vn 0.0036 -0.7271 0.6865
vn 0.3344 -0.0003 0.9424
vn 0.3133 0.0183 0.9495
vn 0.3695 -0.0251 0.9289
vn 0.0321 0.0124 0.9994
vn 0.0115 0.0221 0.9997
vn 0.0797 0.0459 0.9958
vn -0.0961 -0.0154 0.9953
vn -0.2752 0.0234 0.9611
vn -0.3569 0.0980 0.9290
vn -0.3220 -0.0493 0.9455
vn -0.4053 -0.0000 0.9142
vn -0.1288 -0.1659 0.9777
vn -0.0849 0.0291 0.9960
vn -0.0309 0.0352 0.9989
vn 0.1457 -0.0640 0.9873
vn 0.0930 0.0468 0.9946
vn 0.3104 0.0246 0.9503
vn -0.3179 -0.0003 0.9481
vn -0.3808 -0.0055 0.9246
vn -0.5579 0.0063 0.8299
vn -0.5829 -0.0030 0.8125
vn -0.7825 0.0027 0.6227
vn -0.7921 -0.0018 0.6104
vn -0.9062 0.0014 0.4228
vn -0.9116 -0.0016 0.4112
vn -0.9759 0.0014 0.2181
vn -0.9786 -0.0016 0.2056
vn -1.0000 0.0014 0.0032
vn -1.0000 -0.0016 -0.0096
vn -0.9734 0.0017 -0.2290
vn -0.9697 -0.0029 -0.2442
vn -0.8681 0.0027 -0.4964
vn -0.8602 -0.0018 -0.5099
vn -0.7160 0.0017 -0.6981
vn -0.7194 0.0030 -0.6946
vn -0.5361 -0.0077 -0.8441
vn -0.4724 0.0119 -0.8813
vn -0.2738 -0.0100 -0.9617
vn -0.1837 0.0085 -0.9830
vn -0.0446 -0.0066 -0.9990
vn 0.0509 0.0065 -0.9987
vn 0.1913 -0.0088 -0.9815
vn 0.2813 0.0100 -0.9596
vn 0.4803 -0.0121 -0.8770
vn 0.5427 0.0072 -0.8399
vn 0.7238 -0.0027 -0.6900
vn 0.7215 -0.0018 -0.6924
vn 0.8642 0.0017 -0.5032
vn 0.8719 -0.0029 -0.4896
vn 0.9716 0.0027 -0.2366
vn 0.9752 -0.0018 -0.2213
vn 1.0000 0.0014 -0.0032
vn 1.0000 -0.0016 0.0096
vn 0.9773 0.0014 0.2118
vn 0.9745 -0.0016 0.2243
vn 0.9089 0.0014 0.4170
vn 0.9035 -0.0016 0.4286
vn 0.7873 0.0017 0.6165
vn 0.7776 -0.0029 0.6288
vn 0.5782 0.0028 0.8159
vn 0.5679 -0.0010 0.8231
vn 0.4086 -0.0009 0.9127
vn 0.4125 -0.0000 0.9110
vn -0.0000 -1.0000 -0.0000
vn -0.0001 -1.0000 -0.0001
vn -0.0000 -1.0000 -0.0001
vn -0.0000 -1.0000 0.0007
vn -0.0001 -1.0000 0.0008
vn -0.0004 -1.0000 0.0019
vn 0.0001 -1.0000 0.0001
vn -0.0000 -1.0000 0.0001
vn 0.0001 -1.0000 -0.0001
vn 0.0001 -1.0000 -0.0002
s 0
usemtl LinkGrey.001
f 2//1 3//1 1//1
f 2//1 5//1 4//1
f 2//1 6//1 5//1
f 2//1 1//1 6//1
f 7//1 9//1 8//1
f 10//1 9//1 7//1
f 7//1 11//1 10//1
f 7//1 12//1 11//1
f 15//1 13//1 14//1
f 14//1 16//1 15//1
f 14//1 17//1 16//1
f 20//1 18//1 19//1
f 19//1 21//1 20//1
f 19//1 22//1 21//1
f 1//2 23//2 6//2
f 6//3 23//3 24//3
f 6//4 24//4 5//4
f 5//5 24//5 25//5
f 5//6 25//6 4//6
f 4//7 25//7 26//7
f 4//8 26//8 2//8
f 2//9 26//9 27//9
f 2//10 27//10 3//10
f 3//11 27//11 28//11
f 3//12 28//12 1//12
f 1//13 28//13 23//13
f 7//2 29//2 12//2
f 12//3 29//3 30//3
f 12//4 30//4 11//4
f 11//5 30//5 31//5
f 11//6 31//6 10//6
f 10//7 31//7 32//7
f 10//8 32//8 9//8
f 9//9 32//9 33//9
f 9//10 33//10 8//10
f 8//11 33//11 34//11
f 8//12 34//12 7//12
f 7//13 34//13 29//13
f 13//14 35//14 36//14
f 13//15 36//15 14//15
f 14//16 36//16 37//16
f 14//17 37//17 17//17
f 17//18 37//18 38//18
f 17//19 38//19 16//19
f 16//20 38//20 39//20
f 16//21 39//21 40//21
f 16//22 40//22 15//22
f 15//23 40//23 35//23
f 15//24 35//24 13//24
f 18//25 41//25 19//25
f 19//26 41//26 42//26
f 19//27 42//27 22//27
f 22//28 42//28 43//28
f 22//29 43//29 44//29
f 22//30 44//30 21//30
f 21//31 44//31 45//31
f 21//32 45//32 20//32
f 20//33 45//33 46//33
f 20//34 46//34 18//34
f 18//35 46//35 41//35
f 24//36 47//36 25//36
f 25//37 47//37 26//37
f 26//38 47//38 48//38
f 26//39 48//39 27//39
f 27//40 48//40 49//40
f 27//41 49//41 28//41
f 28//42 49//42 50//42
f 28//43 50//43 23//43
f 23//44 50//44 51//44
f 23//45 51//45 24//45
f 24//46 51//46 52//46
f 24//47 52//47 47//47
f 30//36 53//36 31//36
f 31//37 53//37 32//37
f 32//38 53//38 54//38
f 32//39 54//39 33//39
f 33//40 54//40 55//40
f 33//41 55//41 34//41
f 34//42 55//42 56//42
f 34//43 56//43 29//43
f 29//44 56//44 57//44
f 29//45 57//45 30//45
f 30//48 57//48 58//48
f 30//47 58//47 53//47
f 37//49 59//49 60//49
f 37//50 60//50 38//50
f 38//51 60//51 61//51
f 38//52 61//52 39//52
f 39//53 61//53 62//53
f 39//54 62//54 40//54
f 40//55 62//55 63//55
f 40//56 63//56 35//56
f 35//57 63//57 64//57
f 35//58 64//58 36//58
f 36//59 64//59 59//59
f 36//60 59//60 37//60
f 42//61 69//61 43//61
f 43//62 69//62 65//62
f 43//63 65//63 44//63
f 44//64 65//64 66//64
f 44//65 66//65 45//65
f 45//66 66//66 67//66
f 45//67 67//67 46//67
f 46//68 67//68 68//68
f 46//69 68//69 41//69
f 41//70 68//70 42//70
f 42//71 68//71 69//71
f 131//72 126//72 70//72
f 71//73 131//73 70//73
f 128//74 71//74 70//74
f 132//75 128//75 70//75
f 52//76 72//76 47//76
f 47//77 72//77 73//77
f 47//78 73//78 74//78
f 47//79 74//79 48//79
f 48//80 74//80 75//80
f 48//81 75//81 49//81
f 49//82 75//82 76//82
f 49//83 76//83 77//83
f 49//84 77//84 50//84
f 50//85 77//85 51//85
f 51//86 77//86 78//86
f 51//87 78//87 79//87
f 51//88 79//88 52//88
f 52//89 79//89 72//89
f 58//76 80//76 53//76
f 53//77 80//77 81//77
f 53//78 81//78 82//78
f 53//79 82//79 54//79
f 54//80 82//80 83//80
f 54//81 83//81 55//81
f 55//82 83//82 84//82
f 55//90 84//90 85//90
f 55//84 85//84 56//84
f 56//85 85//85 57//85
f 57//86 85//86 86//86
f 57//87 86//87 87//87
f 57//88 87//88 58//88
f 58//89 87//89 80//89
f 60//91 88//91 61//91
f 61//92 88//92 89//92
f 61//93 89//93 90//93
f 61//94 90//94 62//94
f 62//95 90//95 91//95
f 62//96 91//96 63//96
f 63//97 91//97 92//97
f 63//98 92//98 64//98
f 64//99 92//99 93//99
f 64//100 93//100 94//100
f 64//101 94//101 59//101
f 59//102 94//102 95//102
f 59//103 95//103 60//103
f 60//104 95//104 88//104
f 69//105 96//105 65//105
f 65//104 96//104 97//104
f 65//91 97//91 66//91
f 66//106 97//106 98//106
f 66//107 98//107 99//107
f 66//94 99//94 67//94
f 67//108 99//108 100//108
f 67//109 100//109 68//109
f 68//110 100//110 101//110
f 68//111 101//111 102//111
f 68//112 102//112 69//112
f 69//113 102//113 103//113
f 69//114 103//114 96//114
f 108//115 107//115 109//115
f 108//116 109//116 110//116
f 108//117 110//117 111//117
f 118//118 117//118 119//118
f 121//119 104//119 122//119
f 121//120 122//120 120//120
f 116//121 117//121 123//121
f 116//122 123//122 115//122
f 117//123 118//123 123//123
f 107//124 108//124 106//124
f 104//125 129//125 122//125
f 120//126 122//126 124//126
f 120//127 124//127 118//127
f 115//128 123//128 125//128
f 115//129 125//129 114//129
f 113//130 114//130 126//130
f 113//131 126//131 112//131
f 111//132 112//132 127//132
f 111//133 127//133 108//133
f 105//134 106//134 128//134
f 105//135 128//135 104//135
f 104//136 128//136 129//136
f 118//137 124//137 123//137
f 114//138 125//138 126//138
f 108//139 127//139 130//139
f 108//140 130//140 106//140
f 123//141 124//141 125//141
f 112//142 126//142 131//142
f 112//143 131//143 127//143
f 106//144 130//144 128//144
f 122//145 129//145 132//145
f 122//146 132//146 124//146
f 127//147 131//147 130//147
f 124//148 132//148 133//148
f 124//149 133//149 125//149
f 125//150 133//150 70//150
f 125//151 70//151 126//151
f 130//152 134//152 128//152
f 129//153 128//153 132//153
f 71//154 128//154 134//154
f 131//155 134//155 130//155
f 135//156 76//156 75//156
f 135//157 75//157 136//157
f 136//158 75//158 137//158
f 137//159 75//159 74//159
f 137//160 74//160 138//160
f 138//161 74//161 73//161
f 138//162 73//162 139//162
f 139//163 73//163 72//163
f 139//164 72//164 140//164
f 140//165 72//165 79//165
f 140//166 79//166 141//166
f 141//167 79//167 78//167
f 141//168 78//168 142//168
f 142//169 78//169 77//169
f 142//170 77//170 143//170
f 143//171 77//171 144//171
f 144//172 77//172 76//172
f 144//173 76//173 135//173
f 145//156 84//156 83//156
f 145//174 83//174 146//174
f 146//175 83//175 147//175
f 147//176 83//176 82//176
f 147//177 82//177 148//177
f 148//161 82//161 81//161
f 148//162 81//162 149//162
f 149//163 81//163 80//163
f 149//164 80//164 150//164
f 150//178 80//178 87//178
f 150//166 87//166 151//166
f 151//167 87//167 86//167
f 151//168 86//168 152//168
f 152//169 86//169 85//169
f 152//170 85//170 153//170
f 153//179 85//179 154//179
f 154//172 85//172 84//172
f 154//173 84//173 145//173
f 155//180 91//180 90//180
f 155//181 90//181 156//181
f 156//182 90//182 89//182
f 156//183 89//183 157//183
f 157//184 89//184 88//184
f 157//185 88//185 158//185
f 158//186 88//186 95//186
f 158//187 95//187 159//187
f 159//188 95//188 94//188
f 159//189 94//189 160//189
f 160//190 94//190 93//190
f 160//191 93//191 161//191
f 161//192 93//192 92//192
f 161//193 92//193 162//193
f 162//194 92//194 91//194
f 162//195 91//195 163//195
f 163//196 91//196 155//196
f 101//197 164//197 102//197
f 102//191 164//191 165//191
f 102//190 165//190 103//190
f 103//189 165//189 166//189
f 103//188 166//188 96//188
f 96//187 166//187 167//187
f 96//186 167//186 97//186
f 97//185 167//185 168//185
f 97//198 168//198 98//198
f 98//199 168//199 169//199
f 98//200 169//200 170//200
f 98//201 170//201 99//201
f 99//202 170//202 171//202
f 99//203 171//203 100//203
f 100//204 171//204 172//204
f 100//205 172//205 101//205
f 101//206 172//206 164//206
f 180//207 113//207 173//207
f 173//208 113//208 112//208
f 173//209 112//209 111//209
f 173//210 111//210 174//210
f 174//211 111//211 110//211
f 174//212 110//212 175//212
f 175//213 110//213 107//213
f 175//214 107//214 106//214
f 175//215 106//215 105//215
f 175//216 105//216 176//216
f 176//217 105//217 104//217
f 176//218 104//218 121//218
f 121//219 120//219 177//219
f 177//220 120//220 118//220
f 177//221 118//221 178//221
f 178//222 118//222 119//222
f 178//223 119//223 179//223
f 179//224 119//224 116//224
f 179//225 116//225 115//225
f 179//226 115//226 180//226
f 180//227 115//227 114//227
f 180//228 114//228 113//228
f 182//229 183//229 181//229
f 184//230 185//230 181//230
f 183//231 184//231 181//231
f 181//232 185//232 186//232
f 186//233 187//233 181//233
f 189//234 188//234 181//234
f 187//235 189//235 181//235
f 188//236 182//236 181//236
f 194//1 193//1 190//1
f 190//1 193//1 192//1
f 190//1 195//1 194//1
f 190//1 196//1 195//1
f 190//1 197//1 196//1
f 198//1 197//1 190//1
f 190//1 199//1 198//1
f 190//1 200//1 199//1
f 190//1 191//1 200//1
f 182//237 211//237 203//237
f 182//238 203//238 183//238
f 183//239 203//239 204//239
f 183//240 204//240 185//240
f 185//241 204//241 205//241
f 185//242 205//242 206//242
f 185//243 206//243 186//243
f 186//244 206//244 207//244
f 186//245 207//245 187//245
f 187//246 207//246 208//246
f 187//247 208//247 209//247
f 187//248 209//248 210//248
f 187//249 210//249 188//249
f 188//250 210//250 182//250
f 182//251 210//251 211//251
f 139//252 212//252 138//252
f 138//253 212//253 213//253
f 138//254 213//254 137//254
f 137//255 213//255 214//255
f 137//256 214//256 136//256
f 136//257 214//257 135//257
f 135//258 214//258 215//258
f 135//259 215//259 144//259
f 144//260 215//260 216//260
f 144//261 216//261 143//261
f 143//262 216//262 217//262
f 143//263 217//263 142//263
f 142//264 217//264 141//264
f 141//265 217//265 218//265
f 141//266 218//266 140//266
f 140//267 218//267 139//267
f 139//268 218//268 212//268
f 149//269 219//269 148//269
f 148//270 219//270 220//270
f 148//271 220//271 147//271
f 147//272 220//272 221//272
f 147//273 221//273 222//273
f 147//274 222//274 146//274
f 146//275 222//275 145//275
f 145//276 222//276 223//276
f 145//277 223//277 154//277
f 154//278 223//278 224//278
f 154//279 224//279 153//279
f 153//280 224//280 152//280
f 152//281 224//281 225//281
f 152//282 225//282 151//282
f 151//283 225//283 226//283
f 151//284 226//284 150//284
f 150//285 226//285 227//285
f 150//286 227//286 149//286
f 149//287 227//287 219//287
f 159//288 228//288 229//288
f 159//289 229//289 158//289
f 158//290 229//290 230//290
f 158//291 230//291 157//291
f 157//292 230//292 156//292
f 156//293 230//293 231//293
f 156//294 231//294 155//294
f 155//295 231//295 232//295
f 155//296 232//296 163//296
f 163//297 232//297 233//297
f 163//298 233//298 162//298
f 162//299 233//299 234//299
f 162//300 234//300 161//300
f 161//301 234//301 235//301
f 161//302 235//302 160//302
f 160//303 235//303 228//303
f 160//304 228//304 159//304
f 166//305 236//305 237//305
f 166//306 237//306 167//306
f 167//307 237//307 238//307
f 167//308 238//308 168//308
f 168//309 238//309 169//309
f 169//310 238//310 239//310
f 169//311 239//311 170//311
f 170//312 239//312 240//312
f 170//313 240//313 241//313
f 170//314 241//314 171//314
f 171//315 241//315 172//315
f 172//316 241//316 242//316
f 172//317 242//317 243//317
f 172//318 243//318 164//318
f 164//319 243//319 244//319
f 164//320 244//320 165//320
f 165//321 244//321 236//321
f 165//322 236//322 166//322
f 245//323 191//323 246//323
f 246//324 191//324 190//324
f 246//325 190//325 247//325
f 247//326 190//326 248//326
f 248//327 190//327 192//327
f 248//328 192//328 249//328
f 249//329 192//329 193//329
f 249//330 193//330 250//330
f 250//331 193//331 194//331
f 250//332 194//332 251//332
f 251//333 194//333 252//333
f 252//334 194//334 195//334
f 252//335 195//335 253//335
f 253//336 195//336 254//336
f 254//337 195//337 196//337
f 254//338 196//338 255//338
f 255//339 196//339 197//339
f 255//340 197//340 256//340
f 256//341 197//341 257//341
f 257//342 197//342 198//342
f 257//343 198//343 258//343
f 258//344 198//344 199//344
f 258//345 199//345 259//345
f 259//346 199//346 200//346
f 259//347 200//347 260//347
f 260//348 200//348 191//348
f 260//349 191//349 245//349
f 261//350 173//350 262//350
f 262//351 173//351 174//351
f 262//352 174//352 202//352
f 262//353 202//353 263//353
f 263//354 202//354 175//354
f 263//355 175//355 264//355
f 264//356 175//356 176//356
f 264//357 176//357 265//357
f 265//358 176//358 121//358
f 265//359 121//359 177//359
f 265//360 177//360 266//360
f 266//361 177//361 178//361
f 266//362 178//362 201//362
f 266//363 201//363 267//363
f 267//364 201//364 179//364
f 267//365 179//365 268//365
f 268//366 179//366 180//366
f 268//367 180//367 269//367
f 269//368 180//368 261//368
f 261//369 180//369 173//369
f 209//370 208//370 270//370
f 209//371 270//371 271//371
f 271//372 270//372 272//372
f 271//373 272//373 210//373
f 210//374 272//374 273//374
f 210//375 273//375 211//375
f 203//376 211//376 204//376
f 204//377 274//377 275//377
f 204//378 275//378 205//378
f 217//379 276//379 277//379
f 217//380 277//380 218//380
f 218//381 277//381 278//381
f 216//382 279//382 276//382
f 216//383 276//383 217//383
f 214//384 281//384 215//384
f 216//385 215//385 279//385
f 218//386 278//386 212//386
f 213//387 212//387 280//387
f 213//388 280//388 214//388
f 214//389 280//389 281//389
f 226//390 282//390 227//390
f 224//391 283//391 225//391
f 226//392 225//392 282//392
f 220//393 284//393 221//393
f 222//394 221//394 285//394
f 222//395 285//395 223//395
f 223//396 285//396 224//396
f 224//397 285//397 283//397
f 282//398 286//398 227//398
f 227//399 286//399 219//399
f 219//400 286//400 220//400
f 220//401 286//401 284//401
f 231//402 287//402 232//402
f 232//403 287//403 288//403
f 232//404 288//404 233//404
f 233//405 288//405 289//405
f 231//406 290//406 287//406
f 229//407 291//407 230//407
f 231//408 230//408 290//408
f 233//409 289//409 234//409
f 234//410 289//410 235//410
f 235//411 289//411 292//411
f 235//412 292//412 228//412
f 229//413 228//413 291//413
f 240//414 293//414 241//414
f 241//415 293//415 242//415
f 237//416 294//416 238//416
f 238//417 294//417 239//417
f 237//418 295//418 294//418
f 237//419 236//419 295//419
f 254//420 304//420 296//420
f 254//421 296//421 297//421
f 297//422 296//422 298//422
f 297//423 298//423 253//423
f 253//424 298//424 299//424
f 253//425 299//425 252//425
f 260//426 300//426 259//426
f 259//427 300//427 301//427
f 259//428 301//428 258//428
f 258//429 301//429 302//429
f 258//430 302//430 257//430
f 257//431 302//431 256//431
f 256//432 302//432 303//432
f 256//433 303//433 255//433
f 255//434 303//434 304//434
f 255//435 304//435 254//435
f 246//436 310//436 305//436
f 246//437 305//437 245//437
f 245//438 305//438 306//438
f 245//439 306//439 260//439
f 260//440 306//440 300//440
f 252//441 299//441 307//441
f 252//442 307//442 251//442
f 251//443 307//443 250//443
f 250//444 307//444 308//444
f 250//445 308//445 249//445
f 249//446 308//446 309//446
f 249//447 309//447 248//447
f 248//448 309//448 247//448
f 247//449 309//449 310//449
f 247//450 310//450 246//450
f 296//451 304//451 278//451
f 305//452 310//452 313//452
f 314//453 207//453 278//453
f 278//454 207//454 206//454
f 278//455 206//455 205//455
f 278//456 205//456 274//456
f 278//457 274//457 283//457
f 283//458 274//458 204//458
f 283//459 204//459 211//459
f 283//460 211//460 315//460
f 315//461 211//461 273//461
f 314//462 208//462 207//462
f 315//463 273//463 314//463
f 314//464 273//464 270//464
f 270//465 208//465 314//465
f 302//466 281//466 303//466
f 303//467 281//467 280//467
f 303//467 280//467 304//467
f 212//468 278//468 304//468
f 304//469 280//469 212//469
f 279//470 215//470 317//470
f 317//471 215//471 281//471
f 317//472 281//472 318//472
f 318//473 281//473 302//473
f 277//474 314//474 278//474
f 319//475 320//475 286//475
f 286//476 320//476 284//476
f 221//477 284//477 309//477
f 307//478 285//478 221//478
f 307//479 221//479 308//479
f 316//480 282//480 225//480
f 316//481 225//481 315//481
f 315//482 225//482 283//482
f 319//483 286//483 282//483
f 301//451 289//451 302//451
f 301//484 292//484 289//484
f 313//485 291//485 228//485
f 300//486 228//486 301//486
f 301//487 228//487 292//487
f 321//488 290//488 230//488
f 321//489 230//489 291//489
f 302//490 289//490 318//490
f 318//491 289//491 322//491
f 322//492 289//492 288//492
f 322//493 288//493 287//493
f 322//494 287//494 290//494
f 284//495 320//495 309//495
f 309//496 320//496 244//496
f 309//497 244//497 243//497
f 295//498 236//498 323//498
f 323//499 236//499 244//499
f 323//500 244//500 320//500
f 324//501 294//501 295//501
f 239//502 324//502 313//502
f 239//503 313//503 240//503
f 239//504 294//504 324//504
f 308//505 221//505 309//505
f 293//506 240//506 313//506
f 310//507 242//507 293//507
f 310//508 293//508 313//508
f 309//509 243//509 242//509
f 309//510 242//510 310//510
f 321//511 291//511 313//511
f 277//512 276//512 314//512
f 300//513 313//513 228//513
f 313//514 300//514 305//514
f 299//515 283//515 307//515
f 307//516 283//516 285//516
f 283//517 299//517 278//517
f 278//518 299//518 296//518
f 325//519 261//519 326//519
f 326//520 261//520 262//520
f 326//521 262//521 327//521
f 327//522 262//522 312//522
f 327//523 312//523 328//523
f 328//524 312//524 263//524
f 328//525 263//525 329//525
f 329//526 263//526 264//526
f 329//527 264//527 330//527
f 330//528 264//528 265//528
f 330//529 265//529 331//529
f 331//530 265//530 266//530
f 331//531 266//531 332//531
f 332//532 266//532 311//532
f 332//533 311//533 267//533
f 332//534 267//534 333//534
f 333//535 267//535 268//535
f 333//536 268//536 334//536
f 334//537 268//537 269//537
f 334//538 269//538 325//538
f 325//539 269//539 261//539
f 335//540 321//540 336//540
f 335//541 290//541 321//541
f 337//542 322//542 338//542
f 338//543 322//543 339//543
f 339//544 322//544 290//544
f 339//545 290//545 335//545
f 337//546 318//546 322//546
f 340//547 317//547 341//547
f 341//548 317//548 337//548
f 337//549 317//549 318//549
f 340//550 279//550 317//550
f 342//551 276//551 340//551
f 340//552 276//552 279//552
f 343//553 314//553 276//553
f 343//554 276//554 342//554
f 344//555 315//555 314//555
f 344//556 314//556 345//556
f 345//557 314//557 343//557
f 346//558 315//558 344//558
f 347//559 316//559 346//559
f 346//560 316//560 315//560
f 348//561 316//561 347//561
f 348//562 319//562 282//562
f 348//563 282//563 316//563
f 319//564 348//564 349//564
f 319//565 349//565 320//565
f 320//566 349//566 350//566
f 320//567 350//567 351//567
f 320//568 351//568 323//568
f 323//569 351//569 352//569
f 323//570 352//570 353//570
f 323//571 353//571 295//571
f 353//572 324//572 295//572
f 354//573 324//573 353//573
f 336//574 321//574 313//574
f 336//575 313//575 355//575
f 355//576 313//576 356//576
f 356//577 313//577 354//577
f 354//578 313//578 324//578
f 332//579 357//579 358//579
f 327//579 359//579 360//579
f 327//579 360//579 326//579
f 361//580 356//580 362//580
f 362//581 356//581 354//581
f 362//582 354//582 363//582
f 363//583 354//583 353//583
f 363//584 353//584 364//584
f 364//585 353//585 352//585
f 364//586 352//586 351//586
f 364//587 351//587 365//587
f 365//588 351//588 350//588
f 365//589 350//589 366//589
f 366//590 350//590 349//590
f 366//591 349//591 348//591
f 366//592 348//592 367//592
f 367//593 348//593 347//593
f 367//594 347//594 368//594
f 368//595 347//595 346//595
f 368//596 346//596 369//596
f 369//597 346//597 344//597
f 369//598 344//598 370//598
f 370//599 344//599 345//599
f 370//600 345//600 343//600
f 370//601 343//601 371//601
f 371//602 343//602 342//602
f 371//603 342//603 372//603
f 372//604 342//604 340//604
f 372//605 340//605 373//605
f 373//606 340//606 341//606
f 373//607 341//607 374//607
f 374//608 341//608 337//608
f 374//609 337//609 375//609
f 375//610 337//610 376//610
f 376//611 337//611 338//611
f 376//612 338//612 377//612
f 377//613 338//613 339//613
f 377//614 339//614 335//614
f 377//615 335//615 378//615
f 378//616 335//616 336//616
f 378//617 336//617 379//617
f 379//618 336//618 355//618
f 379//619 355//619 361//619
f 361//620 355//620 356//620
f 330//621 380//621 329//621
f 329//622 380//622 381//622
f 329//623 381//623 328//623
f 328//624 381//624 382//624
f 328//625 382//625 360//625
f 360//626 382//626 383//626
f 360//627 383//627 326//627
f 326//628 383//628 384//628
f 326//629 384//629 325//629
f 325//630 384//630 385//630
f 325//631 385//631 334//631
f 334//632 385//632 386//632
f 334//633 386//633 333//633
f 333//634 386//634 358//634
f 358//635 386//635 387//635
f 358//636 387//636 332//636
f 332//637 387//637 388//637
f 332//638 388//638 331//638
f 331//639 388//639 389//639
f 331//640 389//640 330//640
f 330//641 389//641 380//641
f 372//642 400//642 390//642
f 372//1 390//1 371//1
f 371//643 390//643 370//643
f 370//644 390//644 391//644
f 362//645 392//645 393//645
f 362//645 393//645 361//645
f 361//645 393//645 379//645
f 379//645 393//645 394//645
f 370//646 391//646 395//646
f 370//647 395//647 369//647
f 369//648 395//648 396//648
f 369//643 396//643 368//643
f 379//645 394//645 397//645
f 379//1 397//1 378//1
f 378//645 397//645 398//645
f 378//1 398//1 377//1
f 375//649 399//649 374//649
f 374//642 399//642 373//642
f 373//642 399//642 400//642
f 373//642 400//642 372//642
f 364//650 401//650 402//650
f 364//1 402//1 363//1
f 363//645 402//645 392//645
f 363//645 392//645 362//645
f 368//643 396//643 403//643
f 368//1 403//1 367//1
f 367//650 403//650 404//650
f 367//1 404//1 366//1
f 366//650 404//650 405//650
f 398//649 406//649 377//649
f 377//649 406//649 376//649
f 376//649 406//649 407//649
f 376//649 407//649 375//649
f 375//651 407//651 399//651
f 366//652 405//652 408//652
f 366//650 408//650 365//650
f 365//650 408//650 364//650
f 364//650 408//650 401//650
f 381//653 409//653 382//653
f 386//654 410//654 411//654
f 411//655 410//655 412//655
f 411//656 412//656 387//656
f 387//657 412//657 388//657
f 413//658 393//658 414//658
f 414//659 393//659 392//659
f 414//660 392//660 415//660
f 415//661 392//661 402//661
f 415//662 402//662 416//662
f 416//663 402//663 417//663
f 417//664 402//664 401//664
f 417//665 401//665 418//665
f 418//666 401//666 408//666
f 418//667 408//667 419//667
f 419//668 408//668 420//668
f 420//669 408//669 405//669
f 420//670 405//670 421//670
f 421//671 405//671 404//671
f 421//672 404//672 422//672
f 422//673 404//673 423//673
f 423//674 404//674 403//674
f 423//675 403//675 396//675
f 423//676 396//676 424//676
f 424//677 396//677 425//677
f 425//678 396//678 395//678
f 425//679 395//679 426//679
f 425//680 426//680 427//680
f 427//681 426//681 391//681
f 427//682 391//682 428//682
f 428//683 391//683 390//683
f 428//684 390//684 429//684
f 429//685 390//685 400//685
f 429//686 400//686 430//686
f 430//687 400//687 431//687
f 431//688 400//688 399//688
f 431//689 399//689 432//689
f 432//690 399//690 433//690
f 433//691 399//691 407//691
f 433//692 407//692 434//692
f 434//693 407//693 435//693
f 435//694 407//694 406//694
f 435//695 406//695 436//695
f 436//696 406//696 398//696
f 436//697 398//697 437//697
f 437//698 398//698 397//698
f 437//699 397//699 438//699
f 438//700 397//700 394//700
f 438//701 394//701 413//701
f 413//702 394//702 393//702
f 439//703 440//703 441//703
f 441//704 440//704 442//704
f 440//705 439//705 443//705
f 445//706 384//706 383//706
f 410//707 441//707 442//707
f 410//708 442//708 388//708
f 442//709 389//709 388//709
f 381//710 444//710 409//710
f 445//711 383//711 409//711
f 445//712 409//712 444//712
f 381//713 380//713 444//713
f 410//714 386//714 441//714
f 444//715 380//715 442//715
f 442//716 380//716 389//716
f 441//717 386//717 385//717
f 441//718 385//718 384//718
f 441//719 384//719 445//719
f 444//720 447//720 445//720
f 445//721 447//721 446//721
f 446//722 447//722 448//722
f 425//723 447//723 424//723
f 424//724 447//724 444//724
f 449//725 450//725 442//725
f 447//726 425//726 451//726
f 451//727 425//727 428//727
f 451//728 428//728 448//728
f 448//729 428//729 446//729
f 446//730 428//730 429//730
f 452//731 439//731 453//731
f 453//732 439//732 441//732
f 453//733 441//733 445//733
f 452//734 454//734 439//734
f 454//735 443//735 455//735
f 454//736 455//736 439//736
f 449//737 440//737 454//737
f 454//738 440//738 443//738
f 442//739 440//739 449//739
f 446//740 429//740 445//740
f 445//741 429//741 453//741
f 453//742 429//742 430//742
f 453//743 430//743 456//743
f 456//744 430//744 431//744
f 456//745 431//745 457//745
f 457//746 431//746 432//746
f 457//747 432//747 458//747
f 458//748 432//748 433//748
f 458//749 433//749 459//749
f 459//750 433//750 434//750
f 459//751 434//751 460//751
f 460//752 434//752 435//752
f 460//753 435//753 461//753
f 461//754 435//754 436//754
f 461//755 436//755 462//755
f 462//756 436//756 437//756
f 462//757 437//757 463//757
f 463//758 437//758 464//758
f 464//759 437//759 438//759
f 464//760 438//760 465//760
f 465//761 438//761 413//761
f 465//762 413//762 466//762
f 466//763 413//763 414//763
f 466//764 414//764 467//764
f 467//765 414//765 415//765
f 467//766 415//766 468//766
f 468//767 415//767 416//767
f 468//768 416//768 417//768
f 468//769 417//769 469//769
f 469//770 417//770 418//770
f 469//771 418//771 470//771
f 470//772 418//772 419//772
f 470//773 419//773 471//773
f 471//774 419//774 420//774
f 471//775 420//775 472//775
f 472//776 420//776 421//776
f 472//777 421//777 473//777
f 473//778 421//778 422//778
f 473//779 422//779 474//779
f 474//780 422//780 423//780
f 474//781 423//781 475//781
f 475//782 423//782 424//782
f 475//783 424//783 450//783
f 450//784 424//784 444//784
f 450//785 444//785 442//785
f 476//786 459//786 460//786
f 476//786 460//786 477//786
f 477//786 460//786 478//786
f 478//786 460//786 461//786
f 478//786 461//786 479//786
f 479//786 461//786 480//786
f 480//786 461//786 481//786
f 481//786 461//786 462//786
f 481//786 462//786 482//786
f 482//786 462//786 483//786
f 483//786 462//786 463//786
f 483//786 463//786 484//786
f 484//786 463//786 485//786
f 485//786 463//786 464//786
f 485//786 464//786 486//786
f 486//786 464//786 487//786
f 487//786 464//786 488//786
f 488//786 464//786 465//786
f 488//786 465//786 489//786
f 489//786 465//786 490//786
f 490//786 465//786 466//786
f 490//786 466//786 491//786
f 491//786 466//786 492//786
f 492//786 466//786 467//786
f 492//786 467//786 493//786
f 493//786 467//786 494//786
f 494//786 467//786 495//786
f 495//786 467//786 468//786
f 495//786 468//786 496//786
f 496//786 468//786 497//786
f 497//786 468//786 498//786
f 498//786 468//786 469//786
f 498//786 469//786 499//786
f 499//786 469//786 500//786
f 500//786 469//786 470//786
f 500//786 470//786 501//786
f 501//786 470//786 502//786
f 502//786 470//786 503//786
f 503//786 470//786 471//786
f 503//786 471//786 504//786
f 504//786 471//786 505//786
f 505//786 471//786 472//786
f 505//786 472//786 506//786
f 506//786 472//786 507//786
f 507//786 472//786 473//786
f 507//786 473//786 508//786
f 508//786 473//786 509//786
f 509//786 473//786 474//786
f 509//786 474//786 510//786
f 510//786 474//786 511//786
f 511//786 474//786 475//786
f 511//786 475//786 512//786
f 512//786 475//786 513//786
f 513//786 475//786 514//786
f 514//787 475//787 450//787
f 514//788 450//788 515//788
f 515//787 450//787 516//787
f 516//786 450//786 449//786
f 516//786 449//786 517//786
f 517//786 449//786 518//786
f 518//789 449//789 454//789
f 518//789 454//789 519//789
f 519//790 454//790 520//790
f 520//791 454//791 521//791
f 521//792 454//792 452//792
f 521//793 452//793 522//793
f 522//793 452//793 523//793
f 523//794 452//794 453//794
f 523//794 453//794 524//794
f 524//795 453//795 525//795
f 525//788 453//788 456//788
f 525//786 456//786 526//786
f 526//786 456//786 527//786
f 527//786 456//786 528//786
f 528//786 456//786 457//786
f 528//786 457//786 529//786
f 529//786 457//786 530//786
f 530//786 457//786 458//786
f 530//786 458//786 531//786
f 531//786 458//786 532//786
f 532//786 458//786 459//786
f 532//786 459//786 476//786
l 359 328
l 357 333
