mtllib material.mtl
usemtl colour_abb_orange.003
v 0.24000000 0.03500000 0.16300000
v 0.21000000 0.03500000 0.16300000
v 0.24000000 0.01500000 0.16300000
v 0.21000000 0.01500000 0.16300000
v 0.20577500 0.15652100 0.14300000
v 0.18587600 0.17970100 0.14300000
v 0.14641000 0.14641000 0.14300000
v -0.03713800 0.13860000 0.14300000
v -0.03285100 0.12260000 0.14300000
v 0.03285100 0.12260000 0.14300000
v 0.05418000 0.25279800 0.14300000
v 0.02398300 0.25742400 0.14300000
v 0.05359000 0.20000000 0.14300000
v 0.08362100 0.24464200 0.14300000
v 0.16338200 -0.20037200 0.14300000
v 0.18587600 -0.17970100 0.14300000
v 0.14641000 -0.14641000 0.14300000
v 0.03285100 -0.12260000 0.14300000
v -0.03285100 -0.12260000 0.14300000
v -0.03713800 -0.13860000 0.14300000
v 0.05359000 -0.20000000 0.14300000
v 0.25808700 0.01527500 0.14300000
v 0.24000000 0.03500000 0.14300000
v 0.25808700 -0.01527500 0.14300000
v 0.24000000 -0.03500000 0.14300000
v 0.25448400 -0.04561100 0.14300000
v 0.08362100 -0.24464200 0.14300000
v 0.11189500 -0.23307100 0.14300000
v 0.20000000 0.05359000 0.14300000
v 0.21000000 0.03500000 0.14300000
v -0.10146200 -0.10146200 0.14300000
v -0.13860000 -0.03713800 0.14300000
v -0.21591400 -0.20980500 0.14300000
v 0.16338200 0.20037200 0.14300000
v 0.13860600 0.21824500 0.14300000
v 0.11189500 0.23307100 0.14300000
v 0.25448400 0.04561100 0.14300000
v 0.24732700 0.07531100 0.14300000
v 0.23671700 0.10395900 0.14300000
v 0.22280200 0.13115600 0.14300000
v -0.21591400 0.20980500 0.14300000
v -0.00654900 0.25845600 0.14300000
v 0.21000000 -0.03500000 0.14300000
v 0.20000000 -0.05359000 0.14300000
v 0.24732700 -0.07531100 0.14300000
v 0.13860600 -0.21824500 0.14300000
v -0.13860000 0.03713800 0.14300000
v -0.10146200 0.10146200 0.14300000
v -0.06691500 0.24972900 0.14300000
v -0.03699000 0.25587900 0.14300000
v -0.03699000 -0.25587900 0.14300000
v -0.00654900 -0.25845600 0.14300000
v 0.02398300 -0.25742400 0.14300000
v 0.05418000 -0.25279800 0.14300000
v 0.20577500 -0.15652100 0.14300000
v 0.22280200 -0.13115600 0.14300000
v 0.23671700 -0.10395900 0.14300000
v -0.06691500 -0.24972900 0.14300000
v 0.02384700 -0.08900000 0.17500000
v 0.02813500 -0.10500000 0.15900000
v 0.06515300 -0.06515300 0.17500000
v 0.07686500 -0.07686500 0.15900000
v 0.08900000 -0.02384700 0.17500000
v 0.10500000 -0.02813500 0.15900000
v 0.08900000 0.02384700 0.17500000
v 0.10500000 0.02813500 0.15900000
v 0.06515300 0.06515300 0.17500000
v 0.07686500 0.07686500 0.15900000
v 0.02384700 0.08900000 0.17500000
v 0.02813500 0.10500000 0.15900000
v -0.02384700 0.08900000 0.17500000
v -0.02813500 0.10500000 0.15900000
v -0.06515300 0.06515300 0.17500000
v -0.07686500 0.07686500 0.15900000
v -0.08900000 0.02384700 0.17500000
v -0.10500000 0.02813500 0.15900000
v -0.08900000 -0.02384700 0.17500000
v -0.10500000 -0.02813500 0.15900000
v -0.06515300 -0.06515300 0.17500000
v -0.07686500 -0.07686500 0.15900000
v -0.02384700 -0.08900000 0.17500000
v -0.02813500 -0.10500000 0.15900000
v -0.25000000 -0.20067200 0.01200000
v -0.25000000 -0.22000000 0.01200000
v -0.42200000 -0.22000000 0.01200000
v 0.30046300 0.05241200 0.01200000
v 0.30087400 0.05000000 0.01200000
v 0.24937500 0.10350000 0.01200000
v 0.20000000 0.05000000 0.01200000
v 0.03564500 0.26763700 0.01200000
v 0.05658200 0.26400500 0.01200000
v 0.30087400 -0.05000000 0.01200000
v 0.30046300 -0.05241200 0.01200000
v 0.20000000 -0.05000000 0.01200000
v 0.24937500 -0.10350000 0.01200000
v 0.24721100 -0.10856800 0.01200000
v -0.42200000 0.22000000 0.01200000
v -0.25000000 0.22000000 0.01200000
v -0.25000000 0.20437700 0.01200000
v -0.14000000 0.23451900 0.01200000
v -0.14000000 -0.23014600 0.01200000
v -0.14000000 0.29103000 0.01200000
v -0.14000000 -0.29103000 0.01200000
v 0.03564500 -0.26763700 0.01200000
v 0.21489700 0.16345900 0.01200000
v 0.23267800 0.13697000 0.01200000
v 0.24721100 0.10856800 0.01200000
v 0.11685500 -0.24340300 0.01200000
v 0.08732800 -0.25548700 0.01200000
v 0.05658200 -0.26400500 0.01200000
v 0.08732800 0.25548700 0.01200000
v 0.11685500 0.24340300 0.01200000
v 0.14475000 0.22792000 0.01200000
v 0.17062400 0.20925400 0.01200000
v 0.19411600 0.18766700 0.01200000
v 0.23267800 -0.13697000 0.01200000
v 0.21489700 -0.16345900 0.01200000
v 0.19411600 -0.18766700 0.01200000
v 0.17062400 -0.20925400 0.01200000
v 0.14475000 -0.22792000 0.01200000
v -0.38410800 0.04500000 0.15996400
v -0.38007900 -0.20608600 0.17103500
v -0.38007900 0.20608600 0.17103500
v -0.43096500 0.21831800 0.03122600
v -0.43096500 -0.21831800 0.03122600
v -0.42686100 0.01500000 0.04250200
v -0.42686100 -0.03000000 0.04250200
v -0.38410800 0.01500000 0.15996400
v -0.42686100 0.04500000 0.04250200
v -0.38410800 -0.03000000 0.15996400
v -0.42686100 0.09000000 0.04250200
v -0.38410800 0.09000000 0.15996400
v -0.28000000 0.01552700 0.18000000
v -0.28000000 0.20530200 0.18000000
v -0.28500000 0.01552700 0.18000000
v -0.36085300 0.20530200 0.18000000
v -0.28500000 -0.01552700 0.18000000
v -0.36085300 -0.20530200 0.18000000
v -0.28000000 -0.01552700 0.18000000
v -0.28000000 -0.20530200 0.18000000
v -0.22060900 0.20830200 0.14571000
v -0.26800000 0.01674800 0.17307200
v -0.26800000 -0.01674800 0.17307200
v -0.22060900 -0.20830200 0.14571000
v 0.03378800 -0.12610000 0.15550000
v 0.03908200 -0.14585600 0.15550000
v 0.09231200 -0.09231200 0.15550000
v 0.10677400 -0.10677400 0.15550000
v 0.12610000 -0.03378800 0.15550000
v 0.14585600 -0.03908200 0.15550000
v 0.12610000 0.03378800 0.15550000
v 0.14585600 0.03908200 0.15550000
v 0.09231200 0.09231200 0.15550000
v 0.10677400 0.10677400 0.15550000
v 0.03378800 0.12610000 0.15550000
v 0.03908200 0.14585600 0.15550000
v 0.24670400 0.10171600 0.04800000
v 0.03523000 -0.26451500 0.04800000
v 0.25571400 -0.05841500 0.10000000
v 0.24670400 -0.10171600 0.04800000
v 0.24846100 -0.09583500 0.05425300
v 0.25288100 -0.07729300 0.07566900
v 0.25292300 -0.07701700 0.07602400
v 0.25292300 -0.07701700 0.07602400
v 0.02433700 -0.26119100 0.09673200
v 0.02433700 -0.26119100 0.09673200
v 0.02433700 -0.26119100 0.09673200
v 0.03086000 -0.26066100 0.09793900
v 0.00316500 -0.26291100 0.09281400
v -0.00665200 -0.26260000 0.09178400
v -0.02460500 -0.26203200 0.08990000
v -0.03760600 -0.26014200 0.08958400
v -0.05209900 -0.25803600 0.08923300
v -0.06811700 -0.25421700 0.08990200
v -0.06811700 0.25421700 0.08990200
v -0.05209900 0.25803600 0.08923300
v -0.03760600 0.26014200 0.08958400
v -0.02460500 0.26203200 0.08990000
v -0.00665200 0.26260000 0.09178400
v 0.00316500 0.26291100 0.09281400
v 0.02433700 0.26119100 0.09673200
v 0.03086000 0.26066100 0.09793900
v 0.03523000 0.26451500 0.04800000
v 0.25162900 0.08331000 0.06844300
v 0.25275500 0.07699300 0.07631600
v 0.25497600 0.06452600 0.09185300
v 0.25571400 0.05841500 0.10000000
v 0.25816700 0.04638500 0.10000000
v 0.25825500 0.04628500 0.09919100
v 0.25825500 0.04628500 0.09919100
v 0.26383500 0.04000000 0.04800000
v 0.25816700 -0.04638500 0.10000000
v 0.25825500 -0.04628500 0.09919100
v 0.25825500 -0.04628500 0.09919100
v 0.26638400 0.01576600 0.04800000
v 0.26638400 -0.01576600 0.04800000
v 0.26383500 -0.04000000 0.04800000
v 0.28000000 -0.01068100 0.04800000
v 0.27075000 -0.00534000 0.04800000
v 0.27075000 0.00534000 0.04800000
v 0.28000000 0.01068100 0.04800000
v 0.30069900 0.02634400 0.04800000
v 0.29918800 0.04000000 0.04800000
v 0.29918800 -0.04000000 0.04800000
v 0.30069900 -0.02634400 0.04800000
v 0.28925000 -0.00534000 0.04800000
v 0.30185000 0.00000000 0.04800000
v 0.28925000 0.00534000 0.04800000
v -0.17570300 -0.22473600 0.09711500
v -0.18000000 -0.22803300 0.04800000
v -0.18000000 -0.29318000 0.04800000
v 0.03086200 -0.26069100 0.09791800
v -0.20466000 -0.26925000 0.04800000
v -0.19931900 -0.26000000 0.04800000
v -0.20466000 -0.25075000 0.04800000
v -0.21534000 -0.25075000 0.04800000
v -0.23427600 -0.28772400 0.04800000
v -0.22922600 -0.29143800 0.04800000
v -0.21534000 -0.26925000 0.04800000
v -0.22361900 -0.29424100 0.04800000
v -0.22173400 -0.21685000 0.04800000
v -0.24685000 -0.21685000 0.04800000
v -0.22068100 -0.26000000 0.04800000
v -0.24685000 -0.26000000 0.04800000
v -0.24631700 -0.26624600 0.04800000
v -0.21761800 -0.29605400 0.04800000
v -0.21139700 -0.29682400 0.04800000
v -0.20513500 -0.29652800 0.04800000
v -0.24473300 -0.27231100 0.04800000
v -0.24214400 -0.27802000 0.04800000
v -0.23862400 -0.28320800 0.04800000
v -0.24631700 0.26624600 0.04800000
v -0.24685000 0.26000000 0.04800000
v -0.22068100 0.26000000 0.04800000
v -0.21534000 0.25075000 0.04800000
v -0.24685000 0.21685000 0.04800000
v -0.22173400 0.21685000 0.04800000
v -0.20466000 0.25075000 0.04800000
v -0.18000000 0.22803300 0.04800000
v -0.19931900 0.26000000 0.04800000
v -0.18000000 0.29318000 0.04800000
v -0.20466000 0.26925000 0.04800000
v -0.20513500 0.29652800 0.04800000
v -0.21534000 0.26925000 0.04800000
v -0.21139700 0.29682400 0.04800000
v -0.21761800 0.29605400 0.04800000
v -0.23427600 0.28772400 0.04800000
v -0.23862400 0.28320800 0.04800000
v -0.24214400 0.27802000 0.04800000
v -0.24473300 0.27231100 0.04800000
v -0.22361900 0.29424100 0.04800000
v -0.22922600 0.29143800 0.04800000
v 0.03086200 0.26069100 0.09791800
v -0.17570300 0.22473600 0.09711500
v -0.20471900 -0.29965000 0.01200000
v -0.25000000 -0.26000000 0.01200000
v -0.21151600 -0.29997100 0.01200000
v -0.21826900 -0.29913600 0.01200000
v -0.22478300 -0.29716800 0.01200000
v -0.23086900 -0.29412500 0.01200000
v -0.23635100 -0.29009300 0.01200000
v -0.24107100 -0.28519200 0.01200000
v -0.24489100 -0.27956100 0.01200000
v -0.24770200 -0.27336400 0.01200000
v -0.24942100 -0.26678000 0.01200000
v -0.20471900 0.29965000 0.01200000
v -0.25000000 0.26000000 0.01200000
v -0.24942100 0.26678000 0.01200000
v -0.24770200 0.27336400 0.01200000
v -0.24489100 0.27956100 0.01200000
v -0.24107100 0.28519200 0.01200000
v -0.23635100 0.29009300 0.01200000
v -0.23086900 0.29412500 0.01200000
v -0.22478300 0.29716800 0.01200000
v -0.21826900 0.29913600 0.01200000
v -0.21151600 0.29997100 0.01200000
v 0.29752900 0.05089100 0.04800000
v 0.29752900 -0.05089100 0.04800000
v 0.30383600 -0.02661900 0.01200000
v 0.30426900 -0.01672200 0.01200000
v 0.30185000 0.00000000 0.04800000
v 0.30383600 0.02661900 0.01200000
v 0.30426900 0.01672200 0.01200000
v 0.30500000 0.00000000 0.01200000
v 0.26774400 0.04638500 0.10000000
v 0.29716200 0.04176700 0.06239200
v 0.26774400 -0.04638500 0.10000000
v 0.29716200 -0.04176700 0.06239200
v 0.08974900 -0.08974900 0.15900000
v 0.03285100 -0.12260000 0.15900000
v -0.03285100 -0.12260000 0.15900000
v -0.08974900 -0.08974900 0.15900000
v -0.12260000 -0.03285100 0.15900000
v -0.12260000 0.03285100 0.15900000
v -0.08974900 0.08974900 0.15900000
v -0.03285100 0.12260000 0.15900000
v 0.03285100 0.12260000 0.15900000
v 0.08974900 0.08974900 0.15900000
v 0.12260000 0.03285100 0.15900000
v 0.12260000 -0.03285100 0.15900000
v -0.26800000 0.01200000 0.20000000
v -0.26800000 -0.01200000 0.20000000
v -0.28500000 -0.01200000 0.20000000
v -0.28500000 0.01200000 0.20000000
v -0.28500000 0.01200000 0.20000000
v -0.43109300 0.09000000 0.17706500
v -0.43109300 0.04500000 0.17706500
v -0.47384600 0.09000000 0.05960300
v -0.47384600 0.04500000 0.05960300
v -0.43109300 0.01500000 0.17706500
v -0.43109300 -0.03000000 0.17706500
v -0.47384600 0.01500000 0.05960300
v -0.47384600 -0.03000000 0.05960300
v 0.20000000 0.05000000 0.00000000
v 0.20000000 -0.05000000 0.00000000
v 0.30087400 0.05000000 0.00000000
v 0.30454100 0.01673400 0.00000000
v 0.30500000 0.00000000 0.01200000
v 0.30454100 -0.01673400 0.00000000
v 0.30087400 -0.05000000 0.00000000
v 0.28000000 0.01068100 0.00000000
v 0.28925000 0.00534000 0.00000000
v 0.28925000 -0.00534000 0.00000000
v 0.28000000 -0.01068100 0.00000000
v 0.27075000 -0.00534000 0.00000000
v 0.27075000 0.00534000 0.00000000
v -0.20471900 -0.29965000 0.00000000
v -0.21151600 -0.29997100 0.00000000
v -0.21826900 -0.29913600 0.00000000
v -0.22478300 -0.29716800 0.00000000
v -0.23086900 -0.29412500 0.00000000
v -0.23635100 -0.29009300 0.00000000
v -0.24107100 -0.28519200 0.00000000
v -0.24489100 -0.27956100 0.00000000
v -0.24770200 -0.27336400 0.00000000
v -0.24942100 -0.26678000 0.00000000
v -0.25000000 -0.26000000 0.00000000
v -0.25000000 -0.20067200 0.00000000
v -0.14000000 -0.23014600 0.00000000
v -0.14000000 -0.29103000 0.00000000
v -0.21534000 -0.26925000 0.00000000
v -0.22068100 -0.26000000 0.00000000
v -0.21534000 -0.25075000 0.00000000
v -0.20466000 -0.25075000 0.00000000
v -0.19931900 -0.26000000 0.00000000
v -0.20466000 -0.26925000 0.00000000
v -0.25000000 0.26000000 0.00000000
v -0.24942100 0.26678000 0.00000000
v -0.24770200 0.27336400 0.00000000
v -0.24489100 0.27956100 0.00000000
v -0.24107100 0.28519200 0.00000000
v -0.23635100 0.29009300 0.00000000
v -0.23086900 0.29412500 0.00000000
v -0.22478300 0.29716800 0.00000000
v -0.21826900 0.29913600 0.00000000
v -0.21151600 0.29997100 0.00000000
v -0.20471900 0.29965000 0.00000000
v -0.14000000 0.29103000 0.00000000
v -0.14000000 0.23451900 0.00000000
v -0.25000000 0.20437700 0.00000000
v -0.20466000 0.26925000 0.00000000
v -0.19931900 0.26000000 0.00000000
v -0.20466000 0.25075000 0.00000000
v -0.21534000 0.25075000 0.00000000
v -0.21534000 0.26925000 0.00000000
v -0.22068100 0.26000000 0.00000000
v 0.21000000 -0.03500000 0.16300000
v 0.21000000 -0.01500000 0.16300000
v 0.21000000 0.01500000 0.20300000
v 0.21000000 -0.01500000 0.20300000
v 0.24000000 -0.03500000 0.16300000
v 0.24000000 -0.01500000 0.16300000
v 0.24000000 -0.01500000 0.20300000
v 0.24000000 0.01500000 0.20300000
v -0.42686100 0.04500000 0.04250200
v -0.42686100 0.04500000 0.04250200
v -0.47384600 0.04500000 0.05960300
v -0.47384600 0.04500000 0.05960300
v 0.28925000 -0.00534000 0.04800000
v 0.28925000 -0.00534000 0.04800000
v 0.28925000 0.00534000 0.04800000
v 0.28925000 0.00534000 0.04800000
v 0.03564500 0.26763700 0.01200000
v 0.05658200 0.26400500 0.01200000
v -0.12260000 0.03285100 0.15900000
v -0.08974900 0.08974900 0.15900000
v 0.03086000 0.26066100 0.09793900
v 0.03086000 0.26066100 0.09793900
v 0.03086200 0.26069100 0.09791800
v 0.03086200 0.26069100 0.09791800
v 0.03086200 0.26069100 0.09791800
v 0.26638400 0.01576600 0.04800000
v 0.26638400 -0.01576600 0.04800000
v -0.06515300 -0.06515300 0.17500000
v -0.02384700 -0.08900000 0.17500000
v -0.42686100 0.09000000 0.04250200
v -0.42686100 0.09000000 0.04250200
v -0.38410800 0.09000000 0.15996400
v -0.38410800 0.09000000 0.15996400
v -0.20466000 0.25075000 0.04800000
v -0.20466000 0.25075000 0.04800000
v -0.19931900 0.26000000 0.04800000
v -0.19931900 0.26000000 0.04800000
v 0.09231200 -0.09231200 0.15550000
v 0.12610000 -0.03378800 0.15550000
v 0.27075000 -0.00534000 0.00000000
v 0.27075000 -0.00534000 0.00000000
v 0.27075000 0.00534000 0.00000000
v 0.27075000 0.00534000 0.00000000
v 0.03378800 0.12610000 0.15550000
v 0.03378800 0.12610000 0.15550000
v 0.03285100 0.12260000 0.15900000
v 0.03285100 0.12260000 0.15900000
v 0.03285100 0.12260000 0.15900000
v 0.29918800 -0.04000000 0.04800000
v 0.29918800 -0.04000000 0.04800000
v 0.29716200 -0.04176700 0.06239200
v 0.29716200 -0.04176700 0.06239200
v 0.03523000 -0.26451500 0.04800000
v 0.03086200 -0.26069100 0.09791800
v 0.03086200 -0.26069100 0.09791800
v 0.03086200 -0.26069100 0.09791800
v -0.42686100 -0.03000000 0.04250200
v -0.42686100 -0.03000000 0.04250200
v -0.38410800 -0.03000000 0.15996400
v -0.38410800 -0.03000000 0.15996400
v -0.25000000 -0.20067200 0.00000000
v -0.25000000 -0.20067200 0.00000000
v -0.14000000 -0.23014600 0.00000000
v -0.14000000 -0.23014600 0.00000000
v 0.30087400 -0.05000000 0.01200000
v 0.30087400 -0.05000000 0.01200000
v 0.30087400 -0.05000000 0.00000000
v 0.30087400 -0.05000000 0.00000000
v 0.23267800 0.13697000 0.01200000
v 0.24721100 0.10856800 0.01200000
v 0.21000000 0.03500000 0.16300000
v 0.21000000 0.03500000 0.16300000
v 0.21000000 0.01500000 0.16300000
v 0.21000000 0.01500000 0.16300000
v -0.26800000 0.01674800 0.17307200
v -0.26800000 0.01674800 0.17307200
v -0.26800000 -0.01674800 0.17307200
v -0.26800000 -0.01674800 0.17307200
v 0.24000000 0.03500000 0.16300000
v 0.24000000 0.03500000 0.16300000
v -0.18000000 -0.29318000 0.04800000
v -0.18000000 -0.29318000 0.04800000
v -0.18000000 -0.29318000 0.04800000
v -0.18000000 -0.29318000 0.04800000
v -0.20513500 -0.29652800 0.04800000
v 0.02398300 0.25742400 0.14300000
v -0.00654900 0.25845600 0.14300000
v 0.30087400 0.05000000 0.00000000
v 0.30087400 0.05000000 0.00000000
v 0.30454100 0.01673400 0.00000000
v -0.42200000 0.22000000 0.01200000
v -0.42200000 0.22000000 0.01200000
v -0.43096500 0.21831800 0.03122600
v -0.43096500 0.21831800 0.03122600
v 0.03285100 -0.12260000 0.14300000
v 0.03285100 -0.12260000 0.14300000
v 0.05359000 -0.20000000 0.14300000
v -0.02460500 0.26203200 0.08990000
v -0.00665200 0.26260000 0.09178400
v -0.21826900 0.29913600 0.00000000
v -0.21151600 0.29997100 0.00000000
v -0.03699000 -0.25587900 0.14300000
v -0.06691500 -0.24972900 0.14300000
v 0.12260000 0.03285100 0.15900000
v 0.12260000 -0.03285100 0.15900000
v -0.22361900 -0.29424100 0.04800000
v -0.21761800 -0.29605400 0.04800000
v 0.24000000 0.01500000 0.16300000
v 0.24000000 0.01500000 0.16300000
v 0.24000000 0.01500000 0.20300000
v 0.24000000 0.01500000 0.20300000
v -0.14000000 0.29103000 0.01200000
v -0.14000000 0.29103000 0.01200000
v 0.21000000 0.01500000 0.20300000
v 0.21000000 0.01500000 0.20300000
v 0.21000000 -0.01500000 0.20300000
v 0.21000000 -0.01500000 0.20300000
v 0.10500000 0.02813500 0.15900000
v 0.07686500 0.07686500 0.15900000
v 0.28925000 -0.00534000 0.00000000
v 0.28925000 -0.00534000 0.00000000
v 0.27075000 0.00534000 0.04800000
v 0.27075000 0.00534000 0.04800000
v 0.28000000 0.01068100 0.04800000
v 0.28000000 0.01068100 0.04800000
v -0.43109300 0.01500000 0.17706500
v -0.43109300 0.01500000 0.17706500
v -0.47384600 0.01500000 0.05960300
v -0.47384600 0.01500000 0.05960300
v 0.03378800 -0.12610000 0.15550000
v 0.03378800 -0.12610000 0.15550000
v 0.03908200 -0.14585600 0.15550000
v -0.38007900 -0.20608600 0.17103500
v -0.38007900 -0.20608600 0.17103500
v -0.38007900 0.20608600 0.17103500
v -0.38007900 0.20608600 0.17103500
v -0.21534000 -0.26925000 0.00000000
v -0.21534000 -0.26925000 0.00000000
v -0.22068100 -0.26000000 0.00000000
v -0.22068100 -0.26000000 0.00000000
v 0.08732800 0.25548700 0.01200000
v 0.11685500 0.24340300 0.01200000
v 0.28000000 -0.01068100 0.04800000
v 0.28000000 -0.01068100 0.04800000
v 0.28000000 -0.01068100 0.00000000
v 0.28000000 -0.01068100 0.00000000
v -0.03713800 0.13860000 0.14300000
v -0.03713800 0.13860000 0.14300000
v -0.03285100 0.12260000 0.15900000
v -0.03285100 0.12260000 0.15900000
v -0.03285100 0.12260000 0.15900000
v 0.21000000 0.03500000 0.14300000
v 0.21000000 0.03500000 0.14300000
v 0.21000000 -0.03500000 0.14300000
v 0.21000000 -0.03500000 0.14300000
v -0.14000000 0.29103000 0.00000000
v -0.14000000 0.29103000 0.00000000
v 0.00316500 0.26291100 0.09281400
v -0.13860000 -0.03713800 0.14300000
v -0.13860000 0.03713800 0.14300000
v -0.21534000 -0.25075000 0.04800000
v -0.21534000 -0.25075000 0.04800000
v -0.22068100 -0.26000000 0.04800000
v -0.22068100 -0.26000000 0.04800000
v -0.22478300 0.29716800 0.00000000
v -0.05209900 0.25803600 0.08923300
v -0.03760600 0.26014200 0.08958400
v -0.06515300 0.06515300 0.17500000
v -0.08900000 0.02384700 0.17500000
v 0.16338200 0.20037200 0.14300000
v 0.13860600 0.21824500 0.14300000
v -0.22068100 0.26000000 0.04800000
v -0.22068100 0.26000000 0.04800000
v -0.22068100 0.26000000 0.00000000
v -0.22068100 0.26000000 0.00000000
v -0.24631700 0.26624600 0.04800000
v -0.24473300 0.27231100 0.04800000
v -0.20513500 0.29652800 0.04800000
v -0.21139700 0.29682400 0.04800000
v 0.24937500 0.10350000 0.01200000
v -0.42686100 0.01500000 0.04250200
v -0.42686100 0.01500000 0.04250200
v -0.10146200 -0.10146200 0.14300000
v -0.23635100 0.29009300 0.00000000
v -0.23086900 0.29412500 0.00000000
v 0.16338200 -0.20037200 0.14300000
v 0.18587600 -0.17970100 0.14300000
v -0.25000000 -0.20067200 0.01200000
v -0.25000000 -0.20067200 0.01200000
v -0.25000000 -0.22000000 0.01200000
v -0.25000000 -0.22000000 0.01200000
v -0.21139700 -0.29682400 0.04800000
v -0.28000000 0.20530200 0.18000000
v -0.22060900 0.20830200 0.14571000
v 0.30046300 0.05241200 0.01200000
v 0.30046300 0.05241200 0.01200000
v 0.29752900 0.05089100 0.04800000
v 0.08900000 -0.02384700 0.17500000
v 0.08900000 0.02384700 0.17500000
v -0.02813500 0.10500000 0.15900000
v -0.07686500 0.07686500 0.15900000
v -0.18000000 -0.22803300 0.04800000
v -0.18000000 -0.22803300 0.04800000
v -0.14000000 -0.23014600 0.01200000
v -0.14000000 -0.23014600 0.01200000
v -0.36085300 0.20530200 0.18000000
v -0.10146200 0.10146200 0.14300000
v -0.03285100 -0.12260000 0.14300000
v -0.03285100 -0.12260000 0.14300000
v -0.20471900 0.29965000 0.00000000
v -0.21591400 0.20980500 0.14300000
v 0.11189500 0.23307100 0.14300000
v -0.12260000 -0.03285100 0.15900000
v -0.23427600 0.28772400 0.04800000
v -0.22922600 0.29143800 0.04800000
v 0.21000000 -0.01500000 0.16300000
v 0.21000000 -0.01500000 0.16300000
v -0.18000000 0.29318000 0.04800000
v -0.18000000 0.29318000 0.04800000
v -0.18000000 0.29318000 0.04800000
v -0.18000000 0.29318000 0.04800000
v -0.42200000 -0.22000000 0.01200000
v -0.42200000 -0.22000000 0.01200000
v 0.24000000 -0.03500000 0.16300000
v 0.24000000 -0.03500000 0.16300000
v 0.24000000 -0.01500000 0.16300000
v 0.24000000 -0.01500000 0.16300000
v -0.24107100 0.28519200 0.00000000
v -0.00654900 -0.25845600 0.14300000
v -0.43109300 -0.03000000 0.17706500
v -0.43109300 -0.03000000 0.17706500
v -0.47384600 -0.03000000 0.05960300
v -0.47384600 -0.03000000 0.05960300
v -0.26800000 0.01200000 0.20000000
v -0.26800000 0.01200000 0.20000000
v 0.26383500 -0.04000000 0.04800000
v 0.26383500 -0.04000000 0.04800000
v -0.06811700 0.25421700 0.08990200
v -0.17570300 0.22473600 0.09711500
v -0.17570300 0.22473600 0.09711500
v 0.25288100 -0.07729300 0.07566900
v 0.25292300 -0.07701700 0.07602400
v 0.25571400 -0.05841500 0.10000000
v 0.25571400 -0.05841500 0.10000000
v -0.38410800 0.01500000 0.15996400
v -0.38410800 0.01500000 0.15996400
v 0.21489700 0.16345900 0.01200000
v -0.24942100 -0.26678000 0.00000000
v -0.25000000 -0.26000000 0.00000000
v -0.20466000 -0.26925000 0.04800000
v -0.20466000 -0.26925000 0.04800000
v -0.21534000 -0.26925000 0.04800000
v -0.21534000 -0.26925000 0.04800000
v 0.03086000 -0.26066100 0.09793900
v 0.03086000 -0.26066100 0.09793900
v -0.18000000 0.22803300 0.04800000
v -0.18000000 0.22803300 0.04800000
v -0.17570300 -0.22473600 0.09711500
v -0.17570300 -0.22473600 0.09711500
v 0.02433700 0.26119100 0.09673200
v 0.02433700 0.26119100 0.09673200
v 0.02433700 0.26119100 0.09673200
v -0.03285100 0.12260000 0.14300000
v -0.03285100 0.12260000 0.14300000
v 0.08974900 -0.08974900 0.15900000
v -0.21591400 -0.20980500 0.14300000
v 0.24000000 -0.01500000 0.20300000
v 0.24000000 -0.01500000 0.20300000
v -0.08974900 -0.08974900 0.15900000
v -0.24489100 0.27956100 0.00000000
v 0.06515300 0.06515300 0.17500000
v 0.02384700 0.08900000 0.17500000
v 0.02398300 -0.25742400 0.14300000
v -0.20466000 0.26925000 0.04800000
v -0.20466000 0.26925000 0.04800000
v -0.21534000 0.26925000 0.04800000
v -0.21534000 0.26925000 0.04800000
v 0.20000000 0.05000000 0.01200000
v 0.20000000 0.05000000 0.01200000
v 0.20000000 0.05000000 0.00000000
v 0.20000000 0.05000000 0.00000000
v 0.06515300 -0.06515300 0.17500000
v 0.20000000 -0.05000000 0.01200000
v 0.20000000 -0.05000000 0.01200000
v -0.24770200 -0.27336400 0.00000000
v 0.24000000 0.03500000 0.14300000
v 0.24000000 0.03500000 0.14300000
v 0.21000000 -0.03500000 0.16300000
v 0.21000000 -0.03500000 0.16300000
v -0.14000000 0.23451900 0.01200000
v -0.14000000 0.23451900 0.01200000
v -0.14000000 0.23451900 0.00000000
v -0.14000000 0.23451900 0.00000000
v 0.02813500 0.10500000 0.15900000
v 0.03564500 -0.26763700 0.01200000
v 0.05658200 -0.26400500 0.01200000
v 0.18587600 0.17970100 0.14300000
v 0.25808700 -0.01527500 0.14300000
v 0.25448400 -0.04561100 0.14300000
v 0.07686500 -0.07686500 0.15900000
v 0.10500000 -0.02813500 0.15900000
v 0.30046300 -0.05241200 0.01200000
v 0.30046300 -0.05241200 0.01200000
v 0.29752900 -0.05089100 0.04800000
v -0.19931900 -0.26000000 0.00000000
v -0.19931900 -0.26000000 0.00000000
v -0.20466000 -0.26925000 0.00000000
v -0.20466000 -0.26925000 0.00000000
v -0.24489100 -0.27956100 0.00000000
v -0.20466000 0.26925000 0.00000000
v -0.20466000 0.26925000 0.00000000
v -0.21534000 0.26925000 0.00000000
v -0.21534000 0.26925000 0.00000000
v 0.25816700 -0.04638500 0.10000000
v 0.25816700 -0.04638500 0.10000000
v 0.25825500 -0.04628500 0.09919100
v -0.03713800 -0.13860000 0.14300000
v -0.03713800 -0.13860000 0.14300000
v -0.25000000 0.26000000 0.00000000
v -0.25000000 0.20437700 0.00000000
v -0.25000000 0.20437700 0.00000000
v 0.03285100 -0.12260000 0.15900000
v 0.03285100 -0.12260000 0.15900000
v 0.03285100 -0.12260000 0.15900000
v -0.03285100 -0.12260000 0.15900000
v -0.03285100 -0.12260000 0.15900000
v -0.03285100 -0.12260000 0.15900000
v -0.21761800 0.29605400 0.04800000
v -0.22361900 0.29424100 0.04800000
v 0.12610000 0.03378800 0.15550000
v -0.25000000 0.20437700 0.01200000
v -0.25000000 0.20437700 0.01200000
v -0.02384700 0.08900000 0.17500000
v -0.21826900 -0.29913600 0.00000000
v -0.22478300 -0.29716800 0.00000000
v -0.21534000 0.25075000 0.04800000
v -0.21534000 0.25075000 0.04800000
v -0.21534000 0.25075000 0.00000000
v -0.21534000 0.25075000 0.00000000
v -0.19931900 -0.26000000 0.04800000
v -0.19931900 -0.26000000 0.04800000
v -0.20466000 -0.25075000 0.04800000
v -0.20466000 -0.25075000 0.04800000
v -0.14000000 -0.29103000 0.01200000
v -0.14000000 -0.29103000 0.01200000
v -0.14000000 -0.29103000 0.00000000
v -0.14000000 -0.29103000 0.00000000
v 0.26383500 0.04000000 0.04800000
v 0.26383500 0.04000000 0.04800000
v -0.06811700 -0.25421700 0.08990200
v 0.13860600 -0.21824500 0.14300000
v 0.03285100 0.12260000 0.14300000
v 0.03285100 0.12260000 0.14300000
v -0.28000000 0.01552700 0.18000000
v -0.28000000 0.01552700 0.18000000
v -0.28500000 0.01552700 0.18000000
v -0.28500000 0.01552700 0.18000000
v 0.11685500 -0.24340300 0.01200000
v 0.14475000 -0.22792000 0.01200000
v 0.23671700 0.10395900 0.14300000
v 0.22280200 0.13115600 0.14300000
v 0.08974900 0.08974900 0.15900000
v 0.23267800 -0.13697000 0.01200000
v 0.21489700 -0.16345900 0.01200000
v 0.02384700 -0.08900000 0.17500000
v -0.24942100 0.26678000 0.00000000
v 0.00316500 -0.26291100 0.09281400
v -0.00665200 -0.26260000 0.09178400
v 0.08362100 -0.24464200 0.14300000
v 0.05418000 -0.25279800 0.14300000
v 0.20577500 -0.15652100 0.14300000
v 0.22280200 -0.13115600 0.14300000
v -0.43109300 0.04500000 0.17706500
v -0.43109300 0.04500000 0.17706500
v 0.20000000 -0.05000000 0.00000000
v 0.20000000 -0.05000000 0.00000000
v 0.27075000 -0.00534000 0.04800000
v 0.27075000 -0.00534000 0.04800000
v 0.03908200 0.14585600 0.15550000
v 0.30087400 0.05000000 0.01200000
v 0.30087400 0.05000000 0.01200000
v 0.25275500 0.07699300 0.07631600
v 0.25497600 0.06452600 0.09185300
v -0.24685000 -0.21685000 0.04800000
v -0.24685000 -0.21685000 0.04800000
v -0.28000000 -0.01552700 0.18000000
v -0.28000000 -0.01552700 0.18000000
v -0.28000000 -0.20530200 0.18000000
v -0.28000000 -0.20530200 0.18000000
v -0.20471900 -0.29965000 0.00000000
v 0.24732700 -0.07531100 0.14300000
v -0.22060900 -0.20830200 0.14571000
v 0.24000000 -0.03500000 0.14300000
v 0.24000000 -0.03500000 0.14300000
v 0.25808700 0.01527500 0.14300000
v 0.25448400 0.04561100 0.14300000
v 0.30454100 -0.01673400 0.00000000
v -0.28500000 0.01200000 0.20000000
v -0.28500000 0.01200000 0.20000000
v 0.19411600 -0.18766700 0.01200000
v -0.24685000 0.21685000 0.04800000
v -0.24685000 0.21685000 0.04800000
v -0.22173400 0.21685000 0.04800000
v 0.05418000 0.25279800 0.14300000
v 0.08362100 0.24464200 0.14300000
v -0.22173400 -0.21685000 0.04800000
v -0.02460500 -0.26203200 0.08990000
v 0.23671700 -0.10395900 0.14300000
v -0.26800000 -0.01200000 0.20000000
v -0.26800000 -0.01200000 0.20000000
v -0.28500000 -0.01200000 0.20000000
v -0.28500000 -0.01200000 0.20000000
v 0.28925000 0.00534000 0.00000000
v 0.28925000 0.00534000 0.00000000
v -0.24685000 -0.26000000 0.04800000
v -0.24631700 -0.26624600 0.04800000
v 0.02813500 -0.10500000 0.15900000
v -0.02813500 -0.10500000 0.15900000
v -0.23086900 -0.29412500 0.00000000
v -0.23635100 -0.29009300 0.00000000
v 0.28000000 0.01068100 0.00000000
v 0.28000000 0.01068100 0.00000000
v -0.24473300 -0.27231100 0.04800000
v -0.24214400 -0.27802000 0.04800000
v -0.19931900 0.26000000 0.00000000
v -0.19931900 0.26000000 0.00000000
v -0.10500000 0.02813500 0.15900000
v 0.24732700 0.07531100 0.14300000
v 0.25571400 0.05841500 0.10000000
v 0.25571400 0.05841500 0.10000000
v -0.25000000 0.22000000 0.01200000
v -0.25000000 0.22000000 0.01200000
v -0.38410800 0.04500000 0.15996400
v -0.38410800 0.04500000 0.15996400
v -0.24770200 0.27336400 0.00000000
v -0.03760600 -0.26014200 0.08958400
v 0.25816700 0.04638500 0.10000000
v 0.25816700 0.04638500 0.10000000
v 0.26774400 0.04638500 0.10000000
v 0.26774400 0.04638500 0.10000000
v 0.26774400 0.04638500 0.10000000
v -0.47384600 0.09000000 0.05960300
v -0.47384600 0.09000000 0.05960300
v 0.05359000 0.20000000 0.14300000
v 0.17062400 0.20925400 0.01200000
v 0.19411600 0.18766700 0.01200000
v -0.07686500 -0.07686500 0.15900000
v -0.36085300 -0.20530200 0.18000000
v 0.26774400 -0.04638500 0.10000000
v 0.26774400 -0.04638500 0.10000000
v 0.26774400 -0.04638500 0.10000000
v -0.23862400 -0.28320800 0.04800000
v -0.03699000 0.25587900 0.14300000
v 0.17062400 -0.20925400 0.01200000
v -0.20466000 0.25075000 0.00000000
v -0.20466000 0.25075000 0.00000000
v -0.20466000 -0.25075000 0.00000000
v -0.20466000 -0.25075000 0.00000000
v 0.09231200 0.09231200 0.15550000
v -0.24107100 -0.28519200 0.00000000
v -0.21534000 -0.25075000 0.00000000
v -0.21534000 -0.25075000 0.00000000
v -0.43109300 0.09000000 0.17706500
v -0.43109300 0.09000000 0.17706500
v -0.28500000 -0.01552700 0.18000000
v -0.28500000 -0.01552700 0.18000000
v 0.25162900 0.08331000 0.06844300
v 0.29716200 0.04176700 0.06239200
v 0.29716200 0.04176700 0.06239200
v -0.05209900 -0.25803600 0.08923300
v -0.21151600 -0.29997100 0.00000000
v -0.43096500 -0.21831800 0.03122600
v -0.43096500 -0.21831800 0.03122600
v 0.14475000 0.22792000 0.01200000
v 0.30069900 0.02634400 0.04800000
v 0.29918800 0.04000000 0.04800000
v 0.29918800 0.04000000 0.04800000
v -0.22922600 -0.29143800 0.04800000
v -0.23427600 -0.28772400 0.04800000
v -0.08900000 -0.02384700 0.17500000
v 0.25825500 0.04628500 0.09919100
v -0.24685000 0.26000000 0.04800000
v -0.23862400 0.28320800 0.04800000
v -0.24214400 0.27802000 0.04800000
v 0.24721100 -0.10856800 0.01200000
v 0.02433700 -0.26119100 0.09673200
v 0.11189500 -0.23307100 0.14300000
v 0.20577500 0.15652100 0.14300000
v 0.30069900 -0.02634400 0.04800000
v 0.03523000 0.26451500 0.04800000
v -0.10500000 -0.02813500 0.15900000
v -0.06691500 0.24972900 0.14300000
v 0.24937500 -0.10350000 0.01200000
v 0.08732800 -0.25548700 0.01200000
vn -0.00000000 1.00000000 -0.00000000
vn -0.00000000 1.00000000 -0.00000000
vn -0.00000000 1.00000000 -0.00000000
vn -0.00000000 1.00000000 -0.00000000
vn -0.00000000 -0.00000000 1.00000000
vn -0.00000000 -0.00000000 1.00000000
vn 0.06460000 0.06460000 0.99580000
vn 0.96590000 0.25880000 -0.00000000
vn 0.96590000 0.25880000 -0.00000000
vn -0.00000000 -0.00000000 1.00000000
vn -0.00000000 -0.00000000 1.00000000
vn 0.09250000 0.99140000 0.09210000
vn -0.96590000 0.25880000 -0.00000000
vn 0.32220000 0.94260000 0.08720000
vn 0.62950000 -0.77210000 0.08720000
vn 0.71620000 -0.69240000 0.08720000
vn 0.06460000 -0.06460000 0.99580000
vn -0.96590000 -0.25880000 -0.00000000
vn 0.96590000 -0.25880000 -0.00000000
vn 0.96590000 -0.25880000 -0.00000000
vn -0.96590000 -0.25880000 -0.00000000
vn -0.00000000 -0.00000000 1.00000000
vn -0.00000000 1.00000000 -0.00000000
vn -0.00000000 -0.00000000 1.00000000
vn -0.00000000 -0.00000000 1.00000000
vn -0.00000000 -0.00000000 1.00000000
vn 0.32220000 -0.94260000 0.08720000
vn -0.00000000 -0.00000000 1.00000000
vn 0.08830000 0.02370000 0.99580000
vn -0.00000000 1.00000000 -0.00000000
vn -0.49130000 -0.49130000 0.71930000
vn -0.67110000 -0.17980000 0.71930000
vn -0.25780000 -0.96230000 0.08720000
vn 0.62950000 0.77210000 0.08720000
vn 0.53410000 0.84090000 0.08720000
vn 0.43110000 0.89810000 0.08720000
vn -0.00000000 -0.00000000 1.00000000
vn -0.00000000 -0.00000000 1.00000000
vn -0.00000000 -0.00000000 1.00000000
vn 0.85850000 0.50540000 0.08720000
vn 0.21460000 -0.00000000 0.97670000
vn -0.02520000 0.99540000 0.09280000
vn -0.00000000 -1.00000000 -0.00000000
vn 0.08830000 -0.02370000 0.99580000
vn -0.00000000 -0.00000000 1.00000000
vn 0.53410000 -0.84090000 0.08720000
vn -0.67110000 0.17980000 0.71930000
vn -0.49130000 0.49130000 0.71930000
vn -0.23170000 0.96860000 0.09050000
vn -0.00000000 -0.00000000 1.00000000
vn -0.00000000 -0.00000000 1.00000000
vn -0.00000000 -0.00000000 1.00000000
vn -0.00000000 -0.00000000 1.00000000
vn -0.00000000 -0.00000000 1.00000000
vn 0.79290000 -0.60310000 0.08720000
vn 0.85850000 -0.50540000 0.08720000
vn -0.00000000 -0.00000000 1.00000000
vn -0.23170000 -0.96860000 0.09050000
vn 0.17980000 -0.67110000 0.71930000
vn -0.00000000 -0.00000000 1.00000000
vn -0.00000000 -0.00000000 1.00000000
vn -0.00000000 -0.00000000 1.00000000
vn 0.67110000 -0.17980000 0.71930000
vn -0.00000000 -0.00000000 1.00000000
vn -0.00000000 -0.00000000 1.00000000
vn -0.00000000 -0.00000000 1.00000000
vn 0.49130000 0.49130000 0.71930000
vn -0.00000000 -0.00000000 1.00000000
vn -0.00000000 -0.00000000 1.00000000
vn -0.00000000 -0.00000000 1.00000000
vn -0.17980000 0.67110000 0.71930000
vn -0.17980000 0.67110000 0.71930000
vn -0.00000000 -0.00000000 1.00000000
vn -0.00000000 -0.00000000 1.00000000
vn -0.00000000 -0.00000000 1.00000000
vn -0.67110000 0.17980000 0.71930000
vn -0.00000000 -0.00000000 1.00000000
vn -0.67110000 -0.17980000 0.71930000
vn -0.00000000 -0.00000000 1.00000000
vn -0.00000000 -0.00000000 1.00000000
vn -0.00000000 -0.00000000 1.00000000
vn -0.00000000 -0.00000000 1.00000000
vn 0.25880000 0.96590000 -0.00000000
vn -0.99950000 -0.00000000 0.03010000
vn -0.00000000 -0.99620000 0.08720000
vn 0.98210000 0.16720000 0.08710000
vn -0.00000000 -0.00000000 -1.00000000
vn 0.82510000 0.55790000 0.08890000
vn -0.00000000 1.00000000 -0.00000000
vn 0.15090000 0.98470000 0.08710000
vn 0.21840000 0.97200000 0.08720000
vn -0.00000000 -1.00000000 -0.00000000
vn -0.00000000 -0.00000000 -1.00000000
vn -1.00000000 -0.00000000 -0.00000000
vn -0.00000000 -0.00000000 -1.00000000
vn -0.00000000 -0.00000000 -1.00000000
vn -0.90630000 -0.00000000 -0.42260000
vn -0.00000000 0.99620000 0.08720000
vn -1.00000000 -0.00000000 -0.00000000
vn 0.26430000 -0.96440000 -0.00000000
vn 1.00000000 -0.00000000 -0.00000000
vn 1.00000000 -0.00000000 -0.00000000
vn 0.13180000 -0.98960000 0.05820000
vn 0.15090000 -0.98470000 0.08710000
vn 0.79290000 0.60310000 0.08720000
vn 0.85850000 0.50540000 0.08720000
vn 0.90210000 0.42270000 0.08720000
vn -0.00000000 -0.00000000 -1.00000000
vn 0.32220000 -0.94260000 0.08720000
vn 0.21830000 -0.97200000 0.08750000
vn 0.32220000 0.94260000 0.08720000
vn 0.43110000 0.89810000 0.08720000
vn -0.00000000 -0.00000000 -1.00000000
vn -0.00000000 -0.00000000 -1.00000000
vn -0.00000000 -0.00000000 -1.00000000
vn -0.00000000 -0.00000000 -1.00000000
vn 0.79290000 -0.60310000 0.08720000
vn 0.71620000 -0.69240000 0.08720000
vn 0.62950000 -0.77210000 0.08720000
vn 0.53410000 -0.84090000 0.08720000
vn -0.00000000 -1.00000000 -0.00000000
vn -0.42260000 -0.00000000 0.90630000
vn -0.42260000 -0.00000000 0.90630000
vn -0.90630000 -0.00000000 -0.42260000
vn -0.90630000 -0.00000000 -0.42260000
vn -0.34200000 -0.00000000 -0.93970000
vn -0.00000000 -1.00000000 -0.00000000
vn -0.00000000 1.00000000 -0.00000000
vn -0.00000000 -1.00000000 -0.00000000
vn 0.34200000 -0.00000000 0.93970000
vn -0.34200000 -0.00000000 -0.93970000
vn -0.00000000 1.00000000 -0.00000000
vn 0.25140000 -0.00000000 0.96790000
vn -0.00000000 0.99620000 0.08720000
vn -0.00000000 0.98480000 0.17370000
vn -0.21900000 -0.00000000 0.97570000
vn -0.00000000 -0.98480000 0.17360000
vn -0.00000000 -0.99620000 0.08720000
vn 0.50000000 -0.00000000 0.86600000
vn 0.50000000 -0.00000000 0.86600000
vn -0.08730000 0.99230000 0.08780000
vn -0.00000000 0.98480000 0.17360000
vn -0.00000000 -0.98480000 0.17360000
vn -0.08730000 -0.99230000 0.08780000
vn 0.35360000 -0.61240000 0.70710000
vn -0.96590000 -0.25880000 -0.00000000
vn 0.49130000 -0.49130000 0.71920000
vn 0.09010000 -0.09010000 0.99180000
vn 0.67110000 -0.17980000 0.71920000
vn 0.12310000 -0.03300000 0.99180000
vn 0.67110000 0.17980000 0.71920000
vn 0.12310000 0.03300000 0.99180000
vn 0.49130000 0.49130000 0.71920000
vn 0.09010000 0.09010000 0.99180000
vn -0.00000000 -0.00000000 1.00000000
vn 0.06590000 0.11420000 0.99130000
vn 0.84750000 0.51180000 0.14060000
vn 0.15430000 -0.98400000 0.08890000
vn -0.00000000 -0.00000000 1.00000000
vn 0.84730000 -0.51280000 0.13860000
vn 0.81020000 -0.52100000 0.26870000
vn 0.64090000 -0.64080000 0.42260000
vn 0.64090000 -0.64090000 0.42260000
vn 0.64090000 -0.64080000 0.42260000
vn -0.10340000 -0.57560000 0.81110000
vn -0.10330000 -0.57560000 0.81120000
vn -0.10350000 -0.57430000 0.81210000
vn -0.10350000 -0.57430000 0.81210000
vn -0.10330000 -0.57560000 0.81120000
vn -0.04000000 -0.99590000 0.08070000
vn -0.10330000 -0.57560000 0.81120000
vn -0.10330000 -0.57560000 0.81120000
vn -0.10330000 -0.57560000 0.81120000
vn -0.10330000 -0.57560000 0.81120000
vn -0.10330000 0.57560000 0.81120000
vn -0.10330000 0.57560000 0.81120000
vn -0.10330000 0.57560000 0.81120000
vn -0.10330000 0.57560000 0.81120000
vn -0.10330000 0.57560000 0.81120000
vn -0.10330000 0.57560000 0.81120000
vn 0.06570000 0.99450000 0.08150000
vn -0.10350000 0.57450000 0.81190000
vn 0.99620000 -0.00090000 0.08720000
vn 0.93780000 0.33390000 0.09510000
vn 0.64090000 0.64090000 0.42260000
vn 0.64090000 0.64090000 0.42260000
vn 0.64090000 0.64090000 0.42260000
vn -0.00000000 -0.99260000 0.12180000
vn -0.00000000 -0.99260000 0.12180000
vn -0.00000000 -0.99250000 0.12190000
vn -0.00000000 -0.00000000 1.00000000
vn -0.00000000 0.99260000 0.12180000
vn -0.00000000 0.99250000 0.12190000
vn -0.00000000 0.99260000 0.12180000
vn -0.00000000 -0.00000000 1.00000000
vn -0.00000000 -0.00000000 1.00000000
vn -0.00000000 -0.00000000 1.00000000
vn 0.50000000 0.86600000 -0.00000000
vn 1.00000000 -0.00000000 -0.00000000
vn 0.50000000 -0.86600000 -0.00000000
vn -0.50000000 -0.86600000 -0.00000000
vn -0.00000000 -0.00000000 1.00000000
vn -0.00000000 -0.99250000 0.12190000
vn -0.00000000 -0.00000000 1.00000000
vn 0.99330000 -0.07950000 0.08390000
vn -1.00000000 -0.00000000 -0.00000000
vn -0.00000000 -0.00000000 1.00000000
vn -1.00000000 -0.00000000 -0.00000000
vn -0.10330000 -0.57560000 0.81120000
vn -0.25780000 -0.96220000 0.08720000
vn 0.13150000 -0.98750000 0.08720000
vn 0.13150000 -0.98750000 0.08720000
vn -0.86600000 0.50000000 -0.00000000
vn -0.86600000 -0.50000000 -0.00000000
vn -0.00000000 -1.00000000 -0.00000000
vn 0.86600000 -0.50000000 -0.00000000
vn -0.00000000 -0.00000000 1.00000000
vn -0.00000000 -0.00000000 1.00000000
vn 0.86600000 0.50000000 -0.00000000
vn -0.36820000 -0.92570000 0.08720000
vn -0.00000000 -0.00000000 1.00000000
vn -0.99620000 -0.00000000 0.08720000
vn 0.86600000 0.50000000 -0.00000000
vn -0.00000000 -0.00000000 1.00000000
vn -0.00000000 -0.00000000 1.00000000
vn -0.20590000 -0.97470000 0.08720000
vn -0.03780000 -0.99550000 0.08720000
vn 0.08930000 -0.99220000 0.08710000
vn -0.00000000 -0.00000000 1.00000000
vn -0.86900000 -0.48720000 0.08720000
vn -0.77380000 -0.62740000 0.08720000
vn -0.00000000 -0.00000000 1.00000000
vn -0.00000000 -0.00000000 1.00000000
vn 0.86600000 0.50000000 -0.00000000
vn -0.00000000 -0.00000000 1.00000000
vn -0.99620000 -0.00000000 0.08720000
vn -0.13000000 0.98760000 0.08790000
vn -0.86600000 0.50000000 -0.00000000
vn -0.25780000 0.96230000 0.08720000
vn -0.86600000 -0.50000000 -0.00000000
vn -0.99620000 -0.00000000 0.08720000
vn -0.00000000 -1.00000000 -0.00000000
vn 0.08930000 0.99220000 0.08710000
vn 0.86600000 -0.50000000 -0.00000000
vn -0.03780000 0.99550000 0.08720000
vn -0.20590000 0.97470000 0.08720000
vn -0.65630000 0.74950000 0.08720000
vn -0.77380000 0.62740000 0.08720000
vn -0.86900000 0.48720000 0.08720000
vn -0.93900000 0.33280000 0.08720000
vn -0.00000000 -0.00000000 1.00000000
vn -0.51970000 0.84990000 0.08720000
vn 0.13150000 0.98750000 0.08720000
vn -0.25780000 0.96230000 0.08720000
vn 0.08970000 -0.99500000 0.04350000
vn -0.99810000 -0.04250000 0.04350000
vn -0.03790000 -0.99830000 0.04350000
vn -0.20650000 -0.97750000 0.04350000
vn -0.36920000 -0.92830000 0.04350000
vn -0.52120000 -0.85230000 0.04350000
vn -0.65820000 -0.75160000 0.04350000
vn -0.77600000 -0.62920000 0.04350000
vn -0.87140000 -0.48860000 0.04350000
vn -0.94160000 -0.33380000 0.04350000
vn -0.98460000 -0.16930000 0.04350000
vn 0.08970000 0.99500000 0.04350000
vn -0.99810000 0.04250000 0.04350000
vn -0.98460000 0.16930000 0.04350000
vn -0.94160000 0.33380000 0.04350000
vn -0.87140000 0.48860000 0.04350000
vn -0.77600000 0.62920000 0.04350000
vn -0.65820000 0.75160000 0.04350000
vn -0.52120000 0.85230000 0.04350000
vn -0.36920000 0.92830000 0.04350000
vn -0.20650000 0.97750000 0.04350000
vn -0.03790000 0.99830000 0.04350000
vn 0.67980000 0.67980000 0.27530000
vn 0.98370000 -0.14980000 0.09950000
vn 0.99530000 -0.08910000 0.03770000
vn 0.99750000 -0.04360000 0.05490000
vn 0.99620000 -0.00000000 0.08720000
vn 0.99530000 0.09280000 0.02930000
vn 0.99750000 0.04360000 0.05490000
vn 0.99620000 -0.00000000 0.08720000
vn 0.64090000 0.64090000 0.42260000
vn 0.98150000 0.14950000 0.11980000
vn 0.64090000 -0.64090000 0.42260000
vn 0.98150000 -0.14950000 0.11980000
vn 0.49130000 -0.49130000 0.71920000
vn -0.00000000 -1.00000000 -0.00000000
vn 0.96590000 -0.25880000 -0.00000000
vn -0.00000000 -0.00000000 1.00000000
vn -0.00000000 -0.00000000 1.00000000
vn -0.00000000 -0.00000000 1.00000000
vn -0.00000000 -0.00000000 1.00000000
vn 0.96590000 0.25880000 -0.00000000
vn -0.00000000 1.00000000 -0.00000000
vn -0.00000000 -0.00000000 1.00000000
vn -0.00000000 -0.00000000 1.00000000
vn -0.00000000 -0.00000000 1.00000000
vn -0.00000000 -0.00000000 1.00000000
vn 1.00000000 -0.00000000 -0.00000000
vn -0.00000000 -0.98480000 0.17360000
vn -0.00000000 0.98480000 0.17370000
vn -0.00000000 0.98480000 0.17360000
vn -0.93970000 -0.00000000 0.34200000
vn -0.93970000 -0.00000000 0.34200000
vn -0.93970000 -0.00000000 0.34200000
vn -0.93970000 -0.00000000 0.34200000
vn 0.34200000 -0.00000000 0.93970000
vn -0.93970000 -0.00000000 0.34200000
vn -0.93970000 -0.00000000 0.34200000
vn -0.34200000 -0.00000000 -0.93970000
vn -1.00000000 -0.00000000 -0.00000000
vn -0.00000000 -1.00000000 -0.00000000
vn -0.00000000 1.00000000 -0.00000000
vn -0.00000000 -0.00000000 -1.00000000
vn 0.99990000 -0.00000000 -0.01410000
vn -0.00000000 -0.00000000 -1.00000000
vn -0.00000000 -1.00000000 -0.00000000
vn 0.50000000 -0.86600000 -0.00000000
vn -0.50000000 -0.86600000 -0.00000000
vn -1.00000000 -0.00000000 -0.00000000
vn -0.50000000 0.86600000 -0.00000000
vn 1.00000000 -0.00000000 -0.00000000
vn 1.00000000 -0.00000000 -0.00000000
vn 0.08970000 -0.99600000 -0.00000000
vn -0.03790000 -0.99930000 -0.00000000
vn -0.00000000 -0.00000000 -1.00000000
vn -0.36960000 -0.92920000 -0.00000000
vn -0.52170000 -0.85310000 -0.00000000
vn -0.00000000 -0.00000000 -1.00000000
vn -0.77680000 -0.62980000 -0.00000000
vn -0.00000000 -0.00000000 -1.00000000
vn -0.00000000 -0.00000000 -1.00000000
vn -0.00000000 -0.00000000 -1.00000000
vn -0.00000000 -0.00000000 -1.00000000
vn -1.00000000 -0.00000000 -0.00000000
vn 1.00000000 -0.00000000 -0.00000000
vn -0.00000000 -0.00000000 -1.00000000
vn 0.86600000 0.50000000 -0.00000000
vn 0.86600000 0.50000000 -0.00000000
vn -0.00000000 -1.00000000 -0.00000000
vn -0.86600000 -0.50000000 -0.00000000
vn -0.86600000 0.50000000 -0.00000000
vn -0.86600000 0.50000000 -0.00000000
vn -0.00000000 -0.00000000 -1.00000000
vn -0.00000000 -0.00000000 -1.00000000
vn -0.00000000 -0.00000000 -1.00000000
vn -0.87230000 0.48900000 -0.00000000
vn -0.00000000 -0.00000000 -1.00000000
vn -0.00000000 -0.00000000 -1.00000000
vn -0.00000000 -0.00000000 -1.00000000
vn -0.00000000 -0.00000000 -1.00000000
vn -0.00000000 -0.00000000 -1.00000000
vn -0.00000000 -0.00000000 -1.00000000
vn 0.08970000 0.99600000 -0.00000000
vn -0.00000000 -0.00000000 -1.00000000
vn 0.26430000 -0.96440000 -0.00000000
vn 0.26430000 -0.96440000 -0.00000000
vn -0.86600000 -0.50000000 -0.00000000
vn -0.86600000 0.50000000 -0.00000000
vn -0.00000000 1.00000000 -0.00000000
vn 0.86600000 0.50000000 -0.00000000
vn -0.00000000 -1.00000000 -0.00000000
vn 0.86600000 0.50000000 -0.00000000
vn -0.00000000 -0.00000000 1.00000000
vn -0.00000000 -1.00000000 -0.00000000
vn -0.00000000 -0.00000000 1.00000000
vn -0.00000000 -0.00000000 1.00000000
vn -0.00000000 -0.00000000 1.00000000
vn -0.00000000 -0.00000000 1.00000000
vn -0.00000000 -0.00000000 1.00000000
vn -0.00000000 1.00000000 -0.00000000
vn -0.34200000 -0.00000000 -0.93970000
vn -0.93970000 -0.00000000 0.34200000
vn -0.34200000 -0.00000000 -0.93970000
vn -0.00000000 -1.00000000 -0.00000000
vn -0.00000000 -0.00000000 1.00000000
vn -0.50000000 0.86600000 -0.00000000
vn -0.00000000 -0.00000000 1.00000000
vn -0.50000000 -0.86600000 -0.00000000
vn -0.00000000 -0.00000000 -1.00000000
vn -0.00000000 -0.00000000 -1.00000000
vn -0.67110000 0.17980000 0.71930000
vn -0.49130000 0.49130000 0.71930000
vn 0.99620000 -0.00090000 0.08720000
vn 0.12640000 0.98810000 0.08760000
vn 0.99620000 -0.00090000 0.08720000
vn -0.10340000 0.57560000 0.81110000
vn -0.10350000 0.57450000 0.81190000
vn 0.99480000 0.05220000 0.08720000
vn 0.99450000 -0.05450000 0.08980000
vn -0.49130000 -0.49130000 0.71930000
vn -0.17980000 -0.67110000 0.71930000
vn -0.93970000 -0.00000000 0.34200000
vn -0.00000000 1.00000000 -0.00000000
vn -0.93970000 -0.00000000 0.34200000
vn 0.34200000 -0.00000000 0.93970000
vn -0.00000000 -0.00000000 1.00000000
vn -0.00000000 1.00000000 -0.00000000
vn -0.00000000 -0.00000000 1.00000000
vn -0.86600000 0.50000000 -0.00000000
vn -0.00000000 -0.00000000 1.00000000
vn -0.00000000 -0.00000000 1.00000000
vn -0.00000000 -0.00000000 -1.00000000
vn 0.50000000 0.86600000 -0.00000000
vn -0.00000000 -0.00000000 -1.00000000
vn 0.50000000 -0.86600000 -0.00000000
vn 0.35360000 0.61240000 0.70710000
vn -0.96590000 0.25880000 -0.00000000
vn 0.35360000 0.61240000 0.70710000
vn -0.00000000 -0.00000000 1.00000000
vn -0.96590000 0.25880000 -0.00000000
vn -0.00000000 0.99250000 0.12190000
vn 0.98660000 -0.13390000 0.09320000
vn -0.00000000 0.99250000 0.12190000
vn 0.64090000 -0.64090000 0.42260000
vn 0.99620000 0.00090000 0.08720000
vn 0.99620000 0.00090000 0.08720000
vn -0.10340000 -0.57560000 0.81110000
vn -0.10350000 -0.57430000 0.81210000
vn -0.34200000 -0.00000000 -0.93970000
vn -0.93970000 -0.00000000 0.34200000
vn -0.93970000 -0.00000000 0.34200000
vn -0.00000000 -1.00000000 -0.00000000
vn 0.25880000 0.96590000 -0.00000000
vn -0.00000000 -0.00000000 -1.00000000
vn 0.25880000 0.96590000 -0.00000000
vn -0.00000000 -0.00000000 -1.00000000
vn 0.98830000 -0.14080000 0.05950000
vn -0.00000000 -0.00000000 -1.00000000
vn 0.99260000 -0.12090000 -0.00960000
vn -0.00000000 -0.00000000 -1.00000000
vn -0.00000000 -0.00000000 -1.00000000
vn -0.00000000 -0.00000000 -1.00000000
vn -0.00000000 -0.00000000 1.00000000
vn -1.00000000 -0.00000000 -0.00000000
vn -0.00000000 -0.00000000 1.00000000
vn -1.00000000 -0.00000000 -0.00000000
vn 0.50000000 -0.00000000 0.86600000
vn 1.00000000 -0.00000000 -0.00000000
vn 0.50000000 -0.00000000 0.86600000
vn 1.00000000 -0.00000000 -0.00000000
vn -0.00000000 -0.00000000 1.00000000
vn 1.00000000 -0.00000000 -0.00000000
vn -0.10340000 -0.57560000 0.81110000
vn -0.10330000 -0.57560000 0.81120000
vn -0.00000000 -0.00000000 1.00000000
vn -0.99620000 -0.00000000 0.08720000
vn -0.00000000 -0.00000000 1.00000000
vn -0.00000000 -0.00000000 1.00000000
vn -0.00000000 -0.00000000 1.00000000
vn 0.99400000 0.10960000 -0.00000000
vn -0.00000000 -0.00000000 -1.00000000
vn 0.99840000 0.05630000 -0.00350000
vn -0.00000000 0.99620000 0.08720000
vn -0.00000000 -0.00000000 -1.00000000
vn -0.00000000 0.99620000 0.08720000
vn -0.93970000 -0.00000000 0.34200000
vn -0.00000000 -0.00000000 1.00000000
vn -0.00000000 -1.00000000 -0.00000000
vn 0.02360000 -0.04090000 0.99890000
vn -0.09480000 0.99200000 0.08330000
vn -0.04000000 0.99590000 0.08070000
vn -0.20670000 0.97840000 -0.00000000
vn -0.03790000 0.99930000 -0.00000000
vn -0.14240000 -0.98540000 0.09310000
vn -0.00000000 -0.00000000 1.00000000
vn 0.67110000 0.17980000 0.71920000
vn 0.67110000 -0.17980000 0.71920000
vn -0.00000000 -0.00000000 1.00000000
vn -0.00000000 -0.00000000 1.00000000
vn 1.00000000 -0.00000000 -0.00000000
vn -0.00000000 -0.00000000 1.00000000
vn 1.00000000 -0.00000000 -0.00000000
vn -0.00000000 -0.00000000 1.00000000
vn -0.00000000 -0.00000000 -1.00000000
vn 0.13180000 0.98960000 0.05820000
vn -1.00000000 -0.00000000 -0.00000000
vn -0.00000000 1.00000000 -0.00000000
vn -0.00000000 -1.00000000 -0.00000000
vn -1.00000000 -0.00000000 -0.00000000
vn 0.67110000 0.17980000 0.71930000
vn 0.49130000 0.49130000 0.71930000
vn -0.50000000 0.86600000 -0.00000000
vn -0.00000000 -0.00000000 -1.00000000
vn -0.00000000 -0.00000000 1.00000000
vn 1.00000000 -0.00000000 -0.00000000
vn -0.00000000 -0.00000000 1.00000000
vn 0.50000000 -0.86600000 -0.00000000
vn -0.00000000 1.00000000 -0.00000000
vn -0.93970000 -0.00000000 0.34200000
vn -0.34200000 -0.00000000 -0.93970000
vn -0.00000000 1.00000000 -0.00000000
vn -0.00000000 -0.00000000 1.00000000
vn -0.96590000 -0.25880000 -0.00000000
vn 0.06590000 -0.11420000 0.99130000
vn -0.93970000 -0.00000000 0.34200000
vn -0.00000000 -0.99620000 0.08720000
vn -0.93970000 -0.00000000 0.34200000
vn -0.00000000 0.99620000 0.08720000
vn -0.00000000 -0.00000000 -1.00000000
vn -0.00000000 1.00000000 -0.00000000
vn -0.00000000 -0.00000000 -1.00000000
vn 0.86600000 -0.50000000 -0.00000000
vn -0.00000000 -0.00000000 -1.00000000
vn -0.00000000 -0.00000000 -1.00000000
vn -0.50000000 0.86600000 -0.00000000
vn -0.00000000 -0.00000000 1.00000000
vn 0.50000000 0.86600000 -0.00000000
vn -0.00000000 -0.00000000 -1.00000000
vn -0.00000000 -0.00000000 1.00000000
vn -0.35360000 0.61240000 0.70710000
vn -0.35360000 0.61240000 0.70710000
vn -0.00000000 -0.00000000 1.00000000
vn -0.00000000 1.00000000 -0.00000000
vn -1.00000000 -0.00000000 -0.00000000
vn -0.00000000 -0.00000000 1.00000000
vn -0.00000000 -0.00000000 1.00000000
vn -1.00000000 -0.00000000 -0.00000000
vn 0.13200000 0.99120000 -0.00000000
vn 1.00000000 -0.00000000 -0.00000000
vn 0.00830000 0.99650000 0.08370000
vn -0.00000000 -0.00000000 1.00000000
vn -0.00000000 -0.00000000 1.00000000
vn -0.00000000 -0.00000000 1.00000000
vn -0.00000000 -1.00000000 -0.00000000
vn -0.00000000 -0.00000000 1.00000000
vn 0.86600000 -0.50000000 -0.00000000
vn -0.36960000 0.92920000 -0.00000000
vn -0.18850000 0.97830000 0.08590000
vn -0.14530000 0.98610000 0.08040000
vn -0.49130000 0.49130000 0.71930000
vn -0.67110000 0.17980000 0.71930000
vn -0.00000000 -0.00000000 1.00000000
vn -0.00000000 -0.00000000 1.00000000
vn 0.86600000 -0.50000000 -0.00000000
vn -0.00000000 -0.00000000 1.00000000
vn -0.00000000 -0.00000000 -1.00000000
vn 0.86600000 -0.50000000 -0.00000000
vn -0.98180000 0.16890000 0.08720000
vn -0.00000000 -0.00000000 1.00000000
vn -0.00000000 -0.00000000 1.00000000
vn -0.00000000 -0.00000000 1.00000000
vn -0.00000000 -0.00000000 -1.00000000
vn -0.00000000 1.00000000 -0.00000000
vn -0.93970000 -0.00000000 0.34200000
vn -0.00000000 -0.00000000 1.00000000
vn -0.65880000 0.75230000 -0.00000000
vn -0.52170000 0.85310000 -0.00000000
vn -0.00000000 -0.00000000 1.00000000
vn -0.00000000 -0.00000000 1.00000000
vn -0.00000000 -0.00000000 -1.00000000
vn -1.00000000 -0.00000000 -0.00000000
vn -0.00000000 -0.00000000 -1.00000000
vn -0.00000000 -0.99620000 0.08720000
vn -0.00000000 -0.00000000 1.00000000
vn 0.26240000 -0.00000000 0.96500000
vn 0.50000000 -0.00000000 0.86600000
vn 0.70440000 0.70440000 0.08720000
vn -0.00000000 -0.00000000 -1.00000000
vn 0.98360000 0.15030000 0.10020000
vn -0.00000000 -0.00000000 1.00000000
vn 0.67110000 0.17980000 0.71930000
vn -0.00000000 -0.00000000 1.00000000
vn -0.49130000 0.49130000 0.71930000
vn -0.00000000 -0.00000000 1.00000000
vn -0.99620000 -0.00000000 0.08720000
vn -0.00000000 -0.00000000 -1.00000000
vn 0.25880000 0.96590000 -0.00000000
vn -0.00000000 0.99620000 0.08720000
vn -0.00000000 -0.00000000 1.00000000
vn -0.00000000 -0.00000000 1.00000000
vn -0.00000000 -1.00000000 -0.00000000
vn -0.00000000 -0.00000000 -1.00000000
vn -0.25780000 0.96230000 0.08720000
vn -0.00000000 -0.00000000 1.00000000
vn -0.67110000 -0.17980000 0.71930000
vn -0.00000000 -0.00000000 1.00000000
vn -0.00000000 -0.00000000 1.00000000
vn -1.00000000 -0.00000000 -0.00000000
vn -0.00000000 -0.00000000 1.00000000
vn -0.10340000 0.57560000 0.81110000
vn -0.10330000 0.57560000 0.81120000
vn 0.13150000 0.98750000 0.08720000
vn -0.00000000 -0.00000000 1.00000000
vn -0.00000000 -0.00000000 -1.00000000
vn -0.90630000 -0.00000000 -0.42260000
vn 1.00000000 -0.00000000 -0.00000000
vn -0.00000000 -1.00000000 -0.00000000
vn -0.00000000 -1.00000000 -0.00000000
vn 1.00000000 -0.00000000 -0.00000000
vn -0.77680000 0.62980000 -0.00000000
vn -0.02520000 -0.99540000 0.09280000
vn -0.00000000 -1.00000000 -0.00000000
vn 0.34200000 -0.00000000 0.93970000
vn -0.93970000 -0.00000000 0.34200000
vn -0.00000000 -1.00000000 -0.00000000
vn -0.00000000 0.98480000 0.17360000
vn 1.00000000 -0.00000000 -0.00000000
vn -0.00000000 0.99250000 0.12190000
vn 0.99000000 -0.10410000 0.09510000
vn -0.24230000 0.96630000 0.08710000
vn -0.10330000 0.57560000 0.81120000
vn -0.99620000 -0.00000000 0.08720000
vn 0.94360000 -0.31810000 0.09150000
vn 0.96260000 -0.25650000 0.08700000
vn 0.64090000 -0.64090000 0.42260000
vn 0.96810000 -0.23430000 0.08880000
vn 0.34200000 -0.00000000 0.93970000
vn -0.93970000 -0.00000000 0.34200000
vn -0.00000000 -0.00000000 -1.00000000
vn -0.98550000 -0.16950000 -0.00000000
vn -0.99910000 -0.04260000 -0.00000000
vn -0.00000000 -0.00000000 1.00000000
vn -0.00000000 1.00000000 -0.00000000
vn -0.00000000 -0.00000000 1.00000000
vn -0.00000000 1.00000000 -0.00000000
vn 0.11300000 -0.98700000 0.11420000
vn 0.99620000 0.00090000 0.08720000
vn -0.00000000 -0.00000000 1.00000000
vn -0.99620000 -0.00000000 0.08720000
vn -0.25780000 -0.96230000 0.08720000
vn -0.99620000 -0.00000000 0.08720000
vn -0.10350000 0.57450000 0.81190000
vn -0.10340000 0.57560000 0.81110000
vn -0.10330000 0.57560000 0.81120000
vn -0.00000000 1.00000000 -0.00000000
vn -0.00000000 -0.00000000 1.00000000
vn -0.00000000 -0.00000000 1.00000000
vn 0.21460000 -0.00000000 0.97670000
vn 1.00000000 -0.00000000 -0.00000000
vn -0.00000000 -1.00000000 -0.00000000
vn -0.49130000 -0.49130000 0.71930000
vn -0.00000000 -0.00000000 -1.00000000
vn -0.00000000 -0.00000000 1.00000000
vn 0.17980000 0.67110000 0.71930000
vn 0.09650000 -0.99160000 0.08650000
vn -0.00000000 -0.00000000 1.00000000
vn -0.86600000 -0.50000000 -0.00000000
vn -0.00000000 -0.00000000 1.00000000
vn -0.00000000 -1.00000000 -0.00000000
vn -0.00000000 -0.00000000 -1.00000000
vn -1.00000000 -0.00000000 -0.00000000
vn -0.00000000 -0.00000000 -1.00000000
vn -0.00000000 1.00000000 -0.00000000
vn 0.49130000 -0.49130000 0.71930000
vn -0.00000000 -0.00000000 -1.00000000
vn -0.00000000 -1.00000000 -0.00000000
vn -0.94250000 -0.33410000 -0.00000000
vn 1.00000000 -0.00000000 -0.00000000
vn -0.00000000 -0.00000000 1.00000000
vn -1.00000000 -0.00000000 -0.00000000
vn -0.00000000 -1.00000000 -0.00000000
vn 1.00000000 -0.00000000 -0.00000000
vn -0.00000000 -0.00000000 -1.00000000
vn -0.00000000 -0.00000000 -1.00000000
vn 1.00000000 -0.00000000 -0.00000000
vn 0.17980000 0.67110000 0.71930000
vn -0.00000000 -0.00000000 -1.00000000
vn -0.00000000 -0.00000000 -1.00000000
vn 0.71620000 0.69240000 0.08720000
vn 0.99450000 -0.05890000 0.08710000
vn 0.98080000 -0.17260000 0.09130000
vn 0.49130000 -0.49130000 0.71930000
vn 0.67110000 -0.17980000 0.71930000
vn 0.98220000 -0.16390000 0.09130000
vn 0.70440000 -0.70440000 0.08720000
vn 0.67980000 -0.67980000 0.27530000
vn -0.00000000 -0.00000000 -1.00000000
vn -0.86600000 -0.50000000 -0.00000000
vn -0.00000000 -0.00000000 -1.00000000
vn -0.00000000 1.00000000 -0.00000000
vn -0.87230000 -0.48900000 -0.00000000
vn -0.00000000 -0.00000000 -1.00000000
vn -0.00000000 -1.00000000 -0.00000000
vn -0.00000000 -0.00000000 -1.00000000
vn 0.86600000 -0.50000000 -0.00000000
vn 0.98070000 -0.17520000 0.08720000
vn -0.00000000 -0.00000000 1.00000000
vn 0.98910000 -0.11780000 0.08810000
vn -0.00000000 -0.00000000 1.00000000
vn -0.35360000 -0.61240000 0.70710000
vn -0.99910000 0.04260000 -0.00000000
vn -0.00000000 -0.00000000 -1.00000000
vn -1.00000000 -0.00000000 -0.00000000
vn -0.00000000 -0.00000000 1.00000000
vn 0.35360000 -0.61240000 0.70710000
vn -0.96590000 -0.25880000 -0.00000000
vn -0.00000000 -1.00000000 -0.00000000
vn -0.00000000 -0.00000000 1.00000000
vn -0.35360000 -0.61240000 0.70710000
vn -0.00000000 -0.00000000 1.00000000
vn -0.36820000 0.92570000 0.08720000
vn -0.00000000 -0.00000000 1.00000000
vn -0.00000000 -0.00000000 -1.00000000
vn 0.26430000 -0.96440000 -0.00000000
vn -0.00000000 -0.00000000 1.00000000
vn -0.20670000 -0.97840000 -0.00000000
vn -0.00000000 -0.00000000 -1.00000000
vn -0.00000000 1.00000000 -0.00000000
vn 0.86600000 0.50000000 -0.00000000
vn -0.00000000 -0.00000000 -1.00000000
vn -0.00000000 1.00000000 -0.00000000
vn -0.00000000 -0.00000000 1.00000000
vn -0.86600000 0.50000000 -0.00000000
vn -0.00000000 -0.00000000 1.00000000
vn -0.86600000 -0.50000000 -0.00000000
vn 1.00000000 -0.00000000 -0.00000000
vn -0.00000000 -0.00000000 -1.00000000
vn 1.00000000 -0.00000000 -0.00000000
vn 0.13200000 -0.99120000 -0.00000000
vn -0.00000000 -0.99250000 0.12190000
vn 0.99010000 0.10880000 0.08820000
vn -0.24230000 -0.96630000 0.08710000
vn -0.00000000 -0.00000000 1.00000000
vn -0.96590000 0.25880000 -0.00000000
vn -0.00000000 1.00000000 -0.00000000
vn -0.00000000 0.98480000 0.17370000
vn -0.00000000 0.98480000 0.17360000
vn -0.00000000 -0.00000000 1.00000000
vn -1.00000000 -0.00000000 -0.00000000
vn 0.43110000 -0.89810000 0.08720000
vn -0.00000000 -0.00000000 -1.00000000
vn 0.91230000 0.40020000 0.08730000
vn -0.00000000 -0.00000000 1.00000000
vn 0.49130000 0.49130000 0.71920000
vn 0.85850000 -0.50540000 0.08720000
vn -0.00000000 -0.00000000 -1.00000000
vn -0.00000000 -0.00000000 1.00000000
vn -0.98550000 0.16950000 -0.00000000
vn 0.00830000 -0.99650000 0.08370000
vn -0.10330000 -0.57560000 0.81120000
vn -0.00000000 -0.00000000 1.00000000
vn 0.20790000 -0.97430000 0.08710000
vn -0.00000000 -0.00000000 1.00000000
vn -0.00000000 -0.00000000 1.00000000
vn -0.00000000 -1.00000000 -0.00000000
vn 0.34200000 -0.00000000 0.93970000
vn -1.00000000 -0.00000000 -0.00000000
vn -0.00000000 -0.00000000 -1.00000000
vn -0.00000000 -0.00000000 1.00000000
vn 0.50000000 0.86600000 -0.00000000
vn -0.96590000 0.25880000 -0.00000000
vn 0.98920000 0.13660000 0.05320000
vn -0.00000000 1.00000000 -0.00000000
vn 0.94820000 0.30200000 0.09870000
vn 0.95990000 0.26650000 0.08730000
vn -0.00000000 -0.99620000 0.08720000
vn -0.00000000 -0.00000000 1.00000000
vn -0.00000000 -0.98480000 0.17360000
vn -0.00000000 -0.00000000 1.00000000
vn -0.00000000 -0.99620000 0.08720000
vn -0.00000000 -0.00000000 1.00000000
vn -0.00000000 -0.00000000 -1.00000000
vn 0.95180000 -0.29290000 0.09100000
vn 0.50000000 -0.00000000 0.86600000
vn 1.00000000 -0.00000000 -0.00000000
vn -0.00000000 -1.00000000 -0.00000000
vn 0.99440000 0.05870000 0.08780000
vn 0.98060000 0.17570000 0.08720000
vn 0.99860000 -0.05350000 -0.00470000
vn -1.00000000 -0.00000000 -0.00000000
vn -0.00000000 -0.00000000 1.00000000
vn -0.00000000 -0.00000000 -1.00000000
vn -0.00000000 0.99620000 0.08720000
vn -0.00000000 -0.00000000 1.00000000
vn -0.00000000 -0.00000000 1.00000000
vn 0.21070000 0.97340000 0.08970000
vn -0.00000000 -0.00000000 1.00000000
vn -0.13000000 -0.98760000 0.08790000
vn -0.09480000 -0.99200000 0.08330000
vn 0.91200000 -0.40070000 0.08790000
vn -0.00000000 -0.98480000 0.17360000
vn -0.00000000 -0.00000000 1.00000000
vn -0.00000000 -0.00000000 1.00000000
vn -1.00000000 -0.00000000 -0.00000000
vn -0.00000000 -0.00000000 -1.00000000
vn -1.00000000 -0.00000000 -0.00000000
vn -0.99530000 -0.04250000 0.08710000
vn -0.98180000 -0.16890000 0.08720000
vn 0.17980000 -0.67110000 0.71930000
vn -0.17980000 -0.67110000 0.71930000
vn -0.00000000 -0.00000000 -1.00000000
vn -0.65880000 -0.75230000 -0.00000000
vn -0.00000000 -0.00000000 -1.00000000
vn -0.50000000 -0.86600000 -0.00000000
vn -0.93900000 -0.33280000 0.08720000
vn -0.00000000 -0.00000000 1.00000000
vn -0.86600000 -0.50000000 -0.00000000
vn -0.00000000 -0.00000000 -1.00000000
vn -0.00000000 -0.00000000 1.00000000
vn 0.95250000 0.29150000 0.08800000
vn 0.96990000 0.22070000 0.10250000
vn -0.00000000 -0.00000000 1.00000000
vn -0.00000000 -0.00000000 -1.00000000
vn -0.99950000 -0.00000000 0.03010000
vn -0.93970000 -0.00000000 0.34200000
vn 0.34200000 -0.00000000 0.93970000
vn -0.94250000 0.33410000 -0.00000000
vn -0.14530000 -0.98610000 0.08040000
vn 0.97940000 0.17980000 0.09230000
vn -0.00000000 -0.00000000 1.00000000
vn -0.00000000 -0.99260000 0.12180000
vn -0.00000000 -0.99250000 0.12190000
vn -0.00000000 -0.00000000 1.00000000
vn -0.34200000 -0.00000000 -0.93970000
vn -0.00000000 1.00000000 -0.00000000
vn 0.02360000 0.04090000 0.99890000
vn 0.62950000 0.77210000 0.08720000
vn 0.71620000 0.69240000 0.08720000
vn -0.49130000 -0.49130000 0.71930000
vn -0.21900000 -0.00000000 0.97570000
vn -0.00000000 0.99250000 0.12190000
vn -0.00000000 0.99260000 0.12180000
vn -0.00000000 -0.00000000 1.00000000
vn -0.00000000 -0.00000000 1.00000000
vn -0.14240000 0.98540000 0.09310000
vn -0.00000000 -0.00000000 -1.00000000
vn -0.86600000 0.50000000 -0.00000000
vn -0.00000000 -0.00000000 -1.00000000
vn -0.00000000 -0.00000000 -1.00000000
vn -0.00000000 -1.00000000 -0.00000000
vn -0.00000000 -0.00000000 1.00000000
vn -0.00000000 -0.00000000 -1.00000000
vn -0.00000000 -0.00000000 -1.00000000
vn 0.86600000 -0.50000000 -0.00000000
vn -0.00000000 1.00000000 -0.00000000
vn 0.34200000 -0.00000000 0.93970000
vn -1.00000000 -0.00000000 -0.00000000
vn -0.00000000 -0.00000000 1.00000000
vn 0.64090000 0.64090000 0.42260000
vn -0.00000000 -0.99250000 0.12190000
vn 0.64090000 0.64090000 0.42260000
vn -0.18850000 -0.97830000 0.08590000
vn -0.00000000 -0.00000000 -1.00000000
vn -0.93970000 -0.00000000 0.34200000
vn -0.00000000 -0.99620000 0.08720000
vn 0.53410000 0.84090000 0.08720000
vn 0.99330000 0.07650000 0.08720000
vn 0.98600000 0.13580000 0.09670000
vn -0.00000000 -0.00000000 1.00000000
vn -0.51970000 -0.84990000 0.08720000
vn -0.65630000 -0.74950000 0.08720000
vn -0.67110000 -0.17980000 0.71930000
vn 0.98790000 0.12530000 0.09110000
vn -0.99530000 0.04250000 0.08710000
vn -0.00000000 -0.00000000 1.00000000
vn -0.00000000 -0.00000000 1.00000000
vn 0.90210000 -0.42270000 0.08720000
vn 0.07840000 -0.99210000 0.09790000
vn 0.43110000 -0.89810000 0.08720000
vn 0.79290000 0.60310000 0.08720000
vn -0.00000000 -0.00000000 1.00000000
vn 0.15080000 0.98470000 0.08730000
vn -0.00000000 -0.00000000 1.00000000
vn -0.00000000 -0.00000000 1.00000000
vn 0.82510000 -0.55790000 0.08890000
vn -0.00000000 -0.00000000 -1.00000000
f 445//445 437//437 475//475
f 475//475 437//437 439//439
f 5//5 6//6 7//7
f 513//513 630//630 10//10
f 11//11 452//452 810//810
f 11//11 810//810 771//771
f 552//552 553//553 17//17
f 461//461 574//574 683//683
f 461//461 683//683 463//463
f 22//22 653//653 24//24
f 24//24 653//653 25//25
f 24//24 25//25 26//26
f 735//735 28//28 463//463
f 29//29 519//519 653//653
f 549//549 525//525 632//632
f 6//6 536//536 7//7
f 7//7 536//536 537//537
f 7//7 537//537 810//810
f 810//810 537//537 578//578
f 810//810 578//578 771//771
f 22//22 37//37 653//653
f 653//653 37//37 38//38
f 653//653 38//38 29//29
f 29//29 38//38 39//39
f 29//29 39//39 7//7
f 7//7 39//39 727//727
f 7//7 727//727 5//5
f 632//632 525//525 41//41
f 453//453 513//513 452//452
f 452//452 513//513 10//10
f 452//452 10//10 810//810
f 519//519 29//29 520//520
f 520//520 29//29 44//44
f 520//520 44//44 25//25
f 25//25 44//44 45//45
f 25//25 45//45 26//26
f 463//463 28//28 17//17
f 17//17 28//28 717//717
f 17//17 717//717 552//552
f 525//525 526//526 41//41
f 41//41 526//526 573//573
f 41//41 573//573 858//858
f 858//858 573//573 513//513
f 858//858 513//513 50//50
f 50//50 513//513 453//453
f 51//51 52//52 683//683
f 683//683 52//52 53//53
f 683//683 53//53 463//463
f 463//463 53//53 54//54
f 463//463 54//54 735//735
f 553//553 737//737 17//17
f 17//17 737//737 738//738
f 17//17 738//738 44//44
f 44//44 738//738 57//57
f 44//44 57//57 45//45
f 549//549 632//632 683//683
f 683//683 632//632 469//469
f 683//683 469//469 51//51
f 59//59 783//783 648//648
f 648//648 783//783 666//666
f 648//648 666//666 63//63
f 63//63 666//666 667//667
f 63//63 667//667 565//565
f 565//565 667//667 484//484
f 565//565 484//484 67//67
f 67//67 484//484 485//485
f 67//67 485//485 638//638
f 638//638 485//485 660//660
f 638//638 660//660 71//71
f 71//71 660//660 72//72
f 71//71 72//72 534//534
f 534//534 72//72 567//567
f 534//534 567//567 535//535
f 535//535 567//567 76//76
f 535//535 76//76 846//846
f 846//846 76//76 78//78
f 846//846 78//78 394//394
f 394//394 78//78 813//813
f 394//394 813//813 395//395
f 395//395 813//813 784//784
f 395//395 784//784 59//59
f 59//59 784//784 783//783
f 554//554 556//556 588//588
f 562//562 87//87 546//546
f 546//546 87//87 644//644
f 644//644 383//383 384//384
f 432//432 93//93 649//649
f 649//649 93//93 95//95
f 649//649 95//95 96//96
f 458//458 797//797 588//588
f 588//588 797//797 697//697
f 588//588 697//697 554//554
f 554//554 697//697 657//657
f 554//554 657//657 570//570
f 478//478 383//383 657//657
f 657//657 383//383 644//644
f 657//657 644//644 570//570
f 570//570 644//644 649//649
f 570//570 649//649 711//711
f 711//711 649//649 661//661
f 613//613 435//435 644//644
f 644//644 435//435 436//436
f 644//644 436//436 546//546
f 108//108 860//860 649//649
f 649//649 860//860 662//662
f 649//649 662//662 661//661
f 384//384 507//507 644//644
f 644//644 507//507 508//508
f 644//644 508//508 113//113
f 113//113 114//114 644//644
f 644//644 114//114 115//115
f 644//644 115//115 613//613
f 96//96 116//116 649//649
f 649//649 116//116 730//730
f 649//649 730//730 766//766
f 766//766 820//820 649//649
f 649//649 820//820 725//725
f 649//649 725//725 108//108
f 799//799 499//499 501//501
f 460//460 838//838 548//548
f 548//548 838//838 424//424
f 548//548 612//612 376//376
f 424//424 838//838 425//425
f 425//425 838//838 499//499
f 425//425 499//499 612//612
f 612//612 499//499 799//799
f 612//612 799//799 376//376
f 548//548 376//376 460//460
f 460//460 376//376 396//396
f 460//460 396//396 501//501
f 501//501 396//396 398//398
f 501//501 398//398 799//799
f 133//133 559//559 722//722
f 722//722 559//559 136//136
f 722//722 136//136 832//832
f 832//832 136//136 814//814
f 832//832 814//814 753//753
f 753//753 814//814 755//755
f 559//559 133//133 560//560
f 560//560 133//133 441//441
f 443//443 139//139 140//140
f 140//140 758//758 443//443
f 443//443 758//758 632//632
f 443//443 632//632 441//441
f 441//441 632//632 41//41
f 441//441 41//41 560//560
f 496//496 498//498 404//404
f 404//404 498//498 148//148
f 404//404 148//148 405//405
f 405//405 148//148 150//150
f 405//405 150//150 696//696
f 696//696 150//150 152//152
f 696//696 152//152 825//825
f 825//825 152//152 154//154
f 825//825 154//154 155//155
f 155//155 154//154 156//156
f 157//157 88//88 107//107
f 158//158 104//104 110//110
f 665//665 757//757 610//610
f 160//160 161//161 774//774
f 774//774 161//161 607//607
f 774//774 607//607 757//757
f 757//757 607//607 608//608
f 757//757 608//608 610//610
f 736//736 639//639 852//852
f 158//158 110//110 620//620
f 852//852 639//639 733//733
f 733//733 639//639 595//595
f 733//733 595//595 170//170
f 170//170 595//595 773//773
f 773//773 595//595 468//468
f 773//773 468//468 802//802
f 802//802 468//468 836//836
f 836//836 468//468 58//58
f 836//836 58//58 716//716
f 604//604 49//49 532//532
f 532//532 49//49 819//819
f 532//532 819//819 533//533
f 533//533 819//819 464//464
f 464//464 819//819 42//42
f 464//464 42//42 465//465
f 465//465 42//42 524//524
f 524//524 42//42 12//12
f 524//524 12//12 181//181
f 181//181 12//12 388//388
f 388//388 12//12 770//770
f 388//388 770//770 856//856
f 184//184 726//726 748//748
f 748//748 726//726 794//794
f 748//748 794//794 749//749
f 749//749 794//794 795//795
f 795//795 794//794 803//803
f 803//803 794//794 762//762
f 803//803 762//762 847//847
f 847//847 762//762 761//761
f 847//847 761//761 715//715
f 610//610 680//680 665//665
f 665//665 680//680 682//682
f 665//665 682//682 664//664
f 715//715 761//761 392//392
f 392//392 761//761 664//664
f 392//392 664//664 393//393
f 393//393 664//664 682//682
f 393//393 682//682 603//603
f 859//859 160//160 851//851
f 851//851 160//160 774//774
f 851//851 774//774 729//729
f 729//729 774//774 56//56
f 729//729 56//56 117//117
f 117//117 56//56 55//55
f 117//117 55//55 118//118
f 118//118 55//55 16//16
f 118//118 16//16 119//119
f 119//119 16//16 15//15
f 119//119 15//15 120//120
f 120//120 15//15 46//46
f 120//120 46//46 724//724
f 724//724 46//46 853//853
f 724//724 853//853 109//109
f 109//109 853//853 27//27
f 109//109 27//27 110//110
f 110//110 27//27 736//736
f 110//110 736//736 620//620
f 620//620 736//736 852//852
f 90//90 856//856 91//91
f 91//91 856//856 770//770
f 91//91 770//770 111//111
f 111//111 770//770 14//14
f 111//111 14//14 112//112
f 112//112 14//14 36//36
f 112//112 36//36 840//840
f 840//840 36//36 35//35
f 840//840 35//35 811//811
f 811//811 35//35 34//34
f 811//811 34//34 812//812
f 812//812 34//34 663//663
f 812//812 663//663 105//105
f 105//105 663//663 854//854
f 105//105 854//854 106//106
f 106//106 854//854 40//40
f 106//106 40//40 107//107
f 107//107 40//40 726//726
f 107//107 726//726 157//157
f 157//157 726//726 184//184
f 197//197 510//510 196//196
f 196//196 510//510 743//743
f 196//196 743//743 195//195
f 195//195 743//743 488//488
f 195//195 488//488 490//490
f 202//202 843//843 191//191
f 197//197 204//204 510//510
f 510//510 204//204 855//855
f 510//510 855//855 379//379
f 379//379 855//855 207//207
f 379//379 207//207 381//381
f 381//381 207//207 202//202
f 381//381 202//202 490//490
f 490//490 202//202 191//191
f 490//490 191//191 195//195
f 625//625 569//569 450//450
f 419//419 621//621 420//420
f 616//616 449//449 706//706
f 706//706 449//449 568//568
f 706//706 568//568 708//708
f 708//708 568//568 527//527
f 217//217 218//218 618//618
f 618//618 218//218 472//472
f 568//568 221//221 527//527
f 527//527 221//221 751//751
f 527//527 751//751 529//529
f 529//529 751//751 224//224
f 529//529 224//224 225//225
f 472//472 473//473 618//618
f 618//618 473//473 558//558
f 618//618 558//558 616//616
f 616//616 558//558 451//451
f 616//616 451//451 449//449
f 225//225 229//229 529//529
f 529//529 229//229 790//790
f 529//529 790//790 618//618
f 618//618 790//790 818//818
f 618//618 818//818 217//217
f 232//232 233//233 539//539
f 539//539 233//233 235//235
f 233//233 768//768 235//235
f 235//235 768//768 769//769
f 235//235 769//769 400//400
f 400//400 769//769 622//622
f 400//400 622//622 402//402
f 402//402 622//622 587//587
f 402//402 587//587 640//640
f 640//640 587//587 544//544
f 640//640 544//544 642//642
f 642//642 544//544 545//545
f 642//642 545//545 694//694
f 580//580 849//849 642//642
f 642//642 849//849 850//850
f 642//642 850//850 539//539
f 539//539 850//850 543//543
f 539//539 543//543 232//232
f 694//694 251//251 642//642
f 642//642 251//251 581//581
f 642//642 581//581 580//580
f 183//183 389//389 387//387
f 606//606 241//241 623//623
f 176//176 585//585 175//175
f 175//175 585//585 605//605
f 176//176 177//177 585//585
f 585//585 177//177 178//178
f 585//585 178//178 179//179
f 182//182 391//391 626//626
f 627//627 390//390 584//584
f 628//628 585//585 180//180
f 180//180 585//585 179//179
f 169//169 734//734 448//448
f 448//448 734//734 171//171
f 448//448 171//171 172//172
f 172//172 173//173 448//448
f 448//448 173//173 174//174
f 448//448 174//174 209//209
f 169//169 448//448 166//166
f 165//165 447//447 421//421
f 167//167 422//422 168//168
f 228//228 255//255 211//211
f 211//211 255//255 103//103
f 103//103 104//104 211//211
f 211//211 104//104 158//158
f 211//211 158//158 212//212
f 138//138 750//750 754//754
f 754//754 750//750 772//772
f 754//754 772//772 144//144
f 85//85 557//557 839//839
f 839//839 557//557 750//750
f 839//839 750//750 500//500
f 500//500 750//750 138//138
f 781//781 222//222 256//256
f 256//256 222//222 84//84
f 255//255 228//228 257//257
f 257//257 228//228 227//227
f 257//257 227//227 258//258
f 258//258 227//227 226//226
f 258//258 226//226 259//259
f 259//259 226//226 220//220
f 259//259 220//220 260//260
f 260//260 220//220 844//844
f 260//260 844//844 261//261
f 261//261 844//844 845//845
f 261//261 845//845 262//262
f 262//262 845//845 231//231
f 262//262 231//231 263//263
f 263//263 231//231 230//230
f 263//263 230//230 264//264
f 264//264 230//230 789//789
f 264//264 789//789 265//265
f 265//265 789//789 782//782
f 265//265 782//782 256//256
f 256//256 782//782 781//781
f 856//856 90//90 479//479
f 253//253 856//856 586//586
f 586//586 856//856 479//479
f 586//586 479//479 243//243
f 243//243 479//479 266//266
f 267//267 848//848 268//268
f 268//268 848//848 542//542
f 268//268 542//542 269//269
f 269//269 542//542 250//250
f 269//269 250//250 270//270
f 270//270 250//250 249//249
f 270//270 249//249 271//271
f 271//271 249//249 248//248
f 271//271 248//248 272//272
f 272//272 248//248 247//247
f 272//272 247//247 273//273
f 273//273 247//247 252//252
f 273//273 252//252 274//274
f 274//274 252//252 695//695
f 274//274 695//695 275//275
f 275//275 695//695 246//246
f 275//275 246//246 276//276
f 276//276 246//246 245//245
f 276//276 245//245 266//266
f 266//266 245//245 243//243
f 236//236 848//848 798//798
f 798//798 848//848 267//267
f 98//98 457//457 767//767
f 767//767 457//457 459//459
f 141//141 237//237 134//134
f 134//134 237//237 767//767
f 134//134 767//767 572//572
f 572//572 767//767 459//459
f 572//572 459//459 502//502
f 49//49 604//604 577//577
f 577//577 604//604 254//254
f 254//254 239//239 577//577
f 577//577 239//239 237//237
f 577//577 237//237 141//141
f 772//772 210//210 624//624
f 144//144 772//772 33//33
f 33//33 772//772 624//624
f 33//33 624//624 58//58
f 58//58 624//624 716//716
f 97//97 589//589 124//124
f 124//124 589//589 125//125
f 123//123 122//122 136//136
f 136//136 122//122 814//814
f 277//277 561//561 157//157
f 157//157 561//561 88//88
f 669//669 670//670 859//859
f 859//859 670//670 160//160
f 278//278 668//668 416//416
f 416//416 668//668 431//431
f 416//416 431//431 205//205
f 431//431 279//279 205//205
f 205//205 279//279 280//280
f 205//205 280//280 281//281
f 86//86 563//563 746//746
f 746//746 563//563 842//842
f 746//746 842//842 282//282
f 282//282 842//842 841//841
f 282//282 841//841 283//283
f 283//283 841//841 281//281
f 283//283 281//281 284//284
f 284//284 281//281 280//280
f 804//804 807//807 796//796
f 187//187 285//285 186//186
f 186//186 285//285 835//835
f 186//186 835//835 185//185
f 185//185 835//835 277//277
f 185//185 277//277 833//833
f 833//833 277//277 157//157
f 805//805 188//188 189//189
f 806//806 190//190 834//834
f 834//834 190//190 714//714
f 834//834 714//714 203//203
f 842//842 563//563 286//286
f 159//159 817//817 681//681
f 194//194 192//192 816//816
f 193//193 815//815 602//602
f 602//602 815//815 417//417
f 602//602 417//417 415//415
f 161//161 160//160 670//670
f 287//287 609//609 418//418
f 418//418 609//609 163//163
f 418//418 164//164 670//670
f 670//670 164//164 162//162
f 670//670 162//162 161//161
f 278//278 416//416 288//288
f 289//289 689//689 147//147
f 147//147 689//689 145//145
f 693//693 635//635 684//684
f 684//684 635//635 31//31
f 635//635 579//579 31//31
f 31//31 579//579 32//32
f 579//579 385//385 32//32
f 32//32 385//385 47//47
f 385//385 386//386 47//47
f 47//47 386//386 48//48
f 386//386 515//515 48//48
f 48//48 515//515 514//514
f 412//412 728//728 410//410
f 410//410 728//728 153//153
f 728//728 470//470 153//153
f 153//153 470//470 151//151
f 470//470 471//471 151//151
f 151//151 471//471 149//149
f 471//471 289//289 149//149
f 149//149 289//289 147//147
f 70//70 413//413 566//566
f 566//566 413//413 516//516
f 566//566 516//516 74//74
f 74//74 516//516 295//295
f 74//74 295//295 793//793
f 793//793 295//295 294//294
f 793//793 294//294 857//857
f 857//857 294//294 293//293
f 857//857 293//293 80//80
f 80//80 293//293 292//292
f 80//80 292//292 82//82
f 82//82 292//292 692//692
f 82//82 692//692 60//60
f 60//60 692//692 688//688
f 60//60 688//688 62//62
f 62//62 688//688 631//631
f 62//62 631//631 64//64
f 64//64 631//631 300//300
f 64//64 300//300 66//66
f 66//66 300//300 299//299
f 66//66 299//299 68//68
f 68//68 299//299 298//298
f 68//68 298//298 70//70
f 70//70 298//298 413//413
f 7//7 810//810 154//154
f 154//154 810//810 156//156
f 29//29 7//7 152//152
f 152//152 7//7 154//154
f 44//44 29//29 150//150
f 150//150 29//29 152//152
f 17//17 44//44 148//148
f 148//148 44//44 150//150
f 463//463 17//17 498//498
f 498//498 17//17 148//148
f 21//21 146//146 18//18
f 18//18 146//146 497//497
f 18//18 497//497 690//690
f 575//575 462//462 691//691
f 691//691 462//462 290//290
f 20//20 19//19 291//291
f 414//414 411//411 718//718
f 718//718 411//411 745//745
f 718//718 745//745 13//13
f 629//629 517//517 719//719
f 719//719 517//517 297//297
f 9//9 8//8 296//296
f 442//442 601//601 444//444
f 444//444 601//601 302//302
f 778//778 764//764 831//831
f 831//831 764//764 723//723
f 301//301 765//765 776//776
f 776//776 765//765 777//777
f 135//135 304//304 720//720
f 721//721 305//305 600//600
f 721//721 600//600 142//142
f 303//303 137//137 775//775
f 775//775 137//137 752//752
f 775//775 752//752 143//143
f 830//830 740//740 399//399
f 399//399 740//740 800//800
f 809//809 829//829 397//397
f 397//397 829//829 132//132
f 377//377 808//808 375//375
f 375//375 808//808 131//131
f 739//739 378//378 121//121
f 121//121 378//378 129//129
f 308//308 309//309 306//306
f 306//306 309//309 307//307
f 310//310 597//597 611//611
f 611//611 597//597 130//130
f 495//495 492//492 547//547
f 547//547 492//492 128//128
f 313//313 494//494 423//423
f 423//423 494//494 126//126
f 596//596 599//599 426//426
f 426//426 599//599 127//127
f 312//312 598//598 493//493
f 493//493 598//598 311//311
f 314//314 741//741 645//645
f 645//645 741//741 94//94
f 316//316 647//647 747//747
f 747//747 647//647 89//89
f 454//454 746//746 456//456
f 456//456 746//746 282//282
f 282//282 283//283 456//456
f 456//456 283//283 318//318
f 456//456 318//318 763//763
f 431//431 433//433 279//279
f 279//279 433//433 763//763
f 279//279 763//763 280//280
f 280//280 763//763 318//318
f 315//315 320//320 650//650
f 650//650 320//320 92//92
f 787//787 455//455 779//779
f 779//779 455//455 317//317
f 779//779 317//317 487//487
f 487//487 317//317 319//319
f 487//487 319//319 512//512
f 512//512 319//319 434//434
f 512//512 434//434 406//406
f 406//406 434//434 742//742
f 406//406 742//742 408//408
f 408//408 742//742 646//646
f 408//408 646//646 787//787
f 787//787 646//646 455//455
f 327//327 255//255 257//257
f 327//327 257//257 328//328
f 328//328 257//257 258//258
f 328//328 258//258 700//700
f 700//700 258//258 259//259
f 700//700 259//259 330//330
f 330//330 259//259 260//260
f 330//330 260//260 331//331
f 331//331 260//260 261//261
f 331//331 261//261 786//786
f 786//786 261//261 262//262
f 786//786 262//262 333//333
f 333//333 262//262 263//263
f 333//333 263//263 675//675
f 675//675 263//263 264//264
f 675//675 264//264 651//651
f 651//651 264//264 265//265
f 651//651 265//265 614//614
f 614//614 265//265 256//256
f 614//614 256//256 615//615
f 615//615 256//256 338//338
f 338//338 256//256 84//84
f 338//338 84//84 555//555
f 429//429 427//427 571//571
f 571//571 427//427 83//83
f 712//712 339//339 710//710
f 710//710 339//339 101//101
f 327//327 713//713 255//255
f 255//255 713//713 103//103
f 701//701 785//785 503//503
f 335//335 336//336 505//505
f 505//505 336//336 337//337
f 505//505 337//337 827//827
f 827//827 337//337 428//428
f 827//827 428//428 823//823
f 823//823 428//428 430//430
f 823//823 430//430 671//671
f 673//673 756//756 837//837
f 673//673 837//837 503//503
f 503//503 837//837 329//329
f 503//503 329//329 701//701
f 671//671 430//430 673//673
f 673//673 430//430 340//340
f 673//673 340//340 756//756
f 785//785 332//332 503//503
f 503//503 332//332 826//826
f 503//503 826//826 505//505
f 505//505 826//826 334//334
f 505//505 334//334 335//335
f 685//685 267//267 268//268
f 685//685 268//268 732//732
f 732//732 268//268 269//269
f 732//732 269//269 801//801
f 801//801 269//269 270//270
f 801//801 270//270 350//350
f 350//350 270//270 271//271
f 350//350 271//271 594//594
f 594//594 271//271 272//272
f 594//594 272//272 550//550
f 550//550 272//272 273//273
f 550//550 273//273 551//551
f 551//551 273//273 274//274
f 551//551 274//274 531//531
f 531//531 274//274 275//275
f 531//531 275//275 466//466
f 466//466 275//275 276//276
f 466//466 276//276 467//467
f 467//467 276//276 266//266
f 467//467 266//266 357//357
f 522//522 357//357 479//479
f 479//479 357//357 266//266
f 659//659 523//523 656//656
f 656//656 523//523 102//102
f 360//360 359//359 698//698
f 698//698 359//359 100//100
f 267//267 685//685 798//798
f 798//798 685//685 687//687
f 798//798 687//687 99//99
f 676//676 358//358 792//792
f 792//792 358//358 658//658
f 792//792 658//658 822//822
f 822//822 658//658 686//686
f 822//822 686//686 704//704
f 678//678 353//353 354//354
f 348//348 349//349 540//540
f 354//354 355//355 678//678
f 678//678 355//355 356//356
f 678//678 356//356 676//676
f 676//676 356//356 576//576
f 676//676 576//576 358//358
f 704//704 686//686 540//540
f 540//540 686//686 347//347
f 540//540 347//347 348//348
f 349//349 636//636 540//540
f 540//540 636//636 351//351
f 540//540 351//351 678//678
f 678//678 351//351 352//352
f 678//678 352//352 353//353
f 564//564 65//65 637//637
f 75//75 77//77 79//79
f 73//73 75//75 699//699
f 699//699 75//75 564//564
f 699//699 564//564 69//69
f 69//69 564//564 637//637
f 61//61 564//564 731//731
f 731//731 564//564 75//75
f 731//731 75//75 81//81
f 81//81 75//75 79//79
f 363//363 705//705 401//401
f 401//401 705//705 702//702
f 362//362 821//821 403//403
f 403//403 821//821 238//238
f 361//361 791//791 641//641
f 641//641 791//791 240//240
f 365//365 677//677 643//643
f 643//643 677//677 242//242
f 541//541 679//679 538//538
f 538//538 679//679 244//244
f 364//364 366//366 703//703
f 703//703 366//366 234//234
f 674//674 504//504 617//617
f 617//617 504//504 619//619
f 345//345 346//346 707//707
f 707//707 346//346 213//213
f 344//344 672//672 709//709
f 709//709 672//672 214//214
f 343//343 824//824 528//528
f 528//528 824//824 215//215
f 506//506 828//828 530//530
f 530//530 828//828 216//216
f 341//341 342//342 219//219
f 219//219 342//342 223//223
f 407//407 744//744 511//511
f 511//511 744//744 198//198
f 324//324 509//509 486//486
f 486//486 509//509 380//380
f 323//323 206//206 780//780
f 780//780 206//206 208//208
f 322//322 382//382 788//788
f 788//788 382//382 201//201
f 321//321 491//491 409//409
f 409//409 491//491 200//200
f 326//326 489//489 325//325
f 325//325 489//489 199//199
f 521//521 654//654 518//518
f 518//518 654//654 582//582
f 438//438 518//518 440//440
f 440//440 518//518 582//582
f 440//440 582//582 480//480
f 480//480 582//582 483//483
f 591//591 655//655 760//760
f 760//760 655//655 43//43
f 652//652 446//446 759//759
f 759//759 446//446 474//474
f 590//590 759//759 593//593
f 593//593 759//759 474//474
f 593//593 474//474 633//633
f 633//633 474//474 476//476
f 2//2 1//1 30//30
f 30//30 1//1 23//23
f 367//367 371//371 583//583
f 583//583 371//371 372//372
f 634//634 482//482 592//592
f 592//592 482//482 368//368
f 481//481 374//374 4//4
f 4//4 374//374 3//3
f 373//373 477//477 370//370
f 370//370 477//477 369//369

