mtllib material.mtl
usemtl Material-Metal.031
v 0.00000000 0.00000000 0.00000000
v -0.01476600 0.01908800 0.00001400
v 0.00216300 0.02404700 0.00000300
v 0.01794000 0.01609900 0.00001600
v -0.02361500 0.00459800 0.00000300
v 0.02315900 0.00626600 0.00001500
v 0.02209100 -0.00879800 -0.00000000
v -0.02003800 -0.01322000 0.00001600
v -0.00398600 -0.02380000 0.00001000
v -0.01322700 -0.01992500 0.00001900
v 0.01265500 -0.02029200 -0.00000400
v -0.00673900 0.02312600 0.00052800
v 0.00341900 0.02413700 0.00229800
v -0.00726200 0.02301800 0.00229700
v 0.01107500 0.02138700 0.00051300
v 0.01613800 0.01823000 0.00231100
v -0.01523600 0.01883200 0.00229600
v -0.02083300 0.01209500 0.00053300
v -0.02278100 0.00871000 0.00230500
v 0.02263800 0.00837700 0.00229700
v -0.02399800 -0.00364300 0.00056600
v 0.02418300 -0.00051300 0.00230300
v 0.02410900 -0.00276800 0.00059400
v -0.02399400 -0.00447200 0.00228900
v 0.02189500 -0.00999100 0.00230300
v 0.01875200 -0.01565200 0.00048700
v -0.01928200 -0.01459500 0.00229700
v 0.01702000 -0.01711600 0.00229700
v -0.01261900 -0.02057700 0.00229700
v 0.00959900 -0.02219100 0.00230300
v 0.00781800 -0.02301700 0.00052700
v -0.00194200 -0.02426500 0.00229400
v -0.01370900 0.02874300 0.00230000
v -0.00183400 0.03201500 0.00230600
v 0.01198900 0.02963000 0.00229500
v -0.02188500 0.02317900 0.00230000
v 0.02109200 0.02390200 0.00230000
v -0.02679000 0.01704000 0.00230000
v 0.02748900 0.01607500 0.00230000
v -0.03150900 0.00573000 0.00230600
v 0.03120400 0.00648300 0.00230200
v -0.03121000 -0.00633000 0.00230000
v 0.03143400 -0.00654800 0.00230500
v -0.02756400 -0.01597200 0.00230300
v -0.02053900 -0.02436400 0.00230100
v 0.02576300 -0.01871700 0.00230000
v -0.00885600 -0.03082100 0.00230500
v 0.01857800 -0.02589100 0.00230200
v 0.00682500 -0.03138300 0.00230400
v -0.00577400 0.03217700 -0.00100000
v 0.00264300 0.03265300 -0.00092300
v -0.01326100 0.02996200 -0.00092600
v 0.01281600 0.03027100 -0.00101300
v -0.02230500 0.02413000 -0.00096900
v 0.01976300 0.02604100 -0.00100000
v 0.02559700 0.02055400 -0.00110500
v -0.02758400 0.01754500 -0.00100000
v -0.03122500 0.01013200 -0.00096700
v 0.02977500 0.01349600 -0.00100000
v 0.03233500 0.00594700 -0.00098500
v -0.03282500 0.00169500 -0.00122600
v -0.03229900 -0.00588100 -0.00097000
v 0.03271600 -0.00256000 -0.00115500
v 0.03096800 -0.01095000 -0.00097200
v -0.02977500 -0.01349600 -0.00100000
v -0.02576900 -0.02033800 -0.00102700
v 0.02603400 -0.01998100 -0.00094700
v -0.01600800 -0.02882600 -0.00108800
v 0.01850600 -0.02709800 -0.00093800
v 0.00600300 -0.03249400 -0.00084100
v -0.00498700 -0.03230800 -0.00100000
v -0.00908400 0.03244500 -0.00041600
v 0.00224200 0.03360600 -0.00055200
v 0.01272100 0.03122600 -0.00043700
v -0.01855500 0.02811900 -0.00062100
v 0.01975500 0.02713300 -0.00046600
v -0.02455400 0.02284000 -0.00038800
v 0.02588500 0.02158700 -0.00049700
v -0.02938400 0.01656200 -0.00059500
v 0.03025000 0.01458000 -0.00048800
v -0.03316900 0.00598600 -0.00028800
v 0.03292900 0.00706600 -0.00041500
v -0.03318900 -0.00534100 -0.00033500
v -0.03087100 -0.01325600 -0.00059500
v 0.03226600 -0.00956700 -0.00039400
v 0.02861200 -0.01771400 -0.00059000
v -0.02689500 -0.02015100 -0.00033100
v -0.02005700 -0.02707700 -0.00050900
v 0.02425200 -0.02327100 -0.00055300
v 0.01622200 -0.02955200 -0.00046400
v -0.01142100 -0.03162300 -0.00054800
v 0.00626200 -0.03302600 -0.00043500
v -0.00278700 -0.03349500 -0.00059300
v -0.00348100 0.03157000 0.00516100
v 0.00417800 0.03150900 0.00513300
v -0.01407500 0.02872100 0.00500900
v 0.01309000 0.02901000 0.00511700
v -0.02234700 0.02272900 0.00489500
v 0.01928800 0.02520300 0.00509500
v -0.02763900 0.01576100 0.00509300
v 0.02504600 0.01968700 0.00506800
v -0.03143200 0.00600800 0.00511200
v 0.02868300 0.01368800 0.00507500
v 0.03136100 0.00561100 0.00513700
v -0.03153700 -0.00450700 0.00511300
v 0.03351200 -0.00099300 -0.00030300
v 0.03169800 -0.00198900 0.00508200
v -0.02939900 -0.01198800 0.00505700
v 0.03025200 -0.01001600 0.00508900
v -0.02581700 -0.01869800 0.00510100
v 0.02722700 -0.01640700 0.00503100
v -0.01911200 -0.02547800 0.00509100
v 0.01996400 -0.02492300 0.00552000
v -0.01217300 -0.02941100 0.00497400
v -0.00382600 -0.03165800 0.00514300
v 0.00959900 -0.03045200 0.00495500
v 0.00390500 -0.03204600 0.00425200
v -0.00093600 0.03187500 0.00843100
v 0.01214000 0.02920000 0.00842600
v -0.01340900 0.02861500 0.00851900
v 0.02223000 0.02270100 0.00843500
v -0.02188300 0.02295700 0.00849000
v -0.02806300 0.01461600 0.00849800
v 0.02869000 0.01300400 0.00850000
v 0.03108500 0.00529300 0.00899400
v -0.03136200 0.00440200 0.00845900
v 0.03118500 -0.00611700 0.00845300
v -0.03051500 -0.00899500 0.00849400
v 0.02657900 -0.01690600 0.00850000
v -0.02454600 -0.01993300 0.00843100
v 0.02006300 -0.02466200 0.00838300
v -0.01769900 -0.02586000 0.00899400
v -0.01195300 -0.02924400 0.00846700
v 0.00829100 -0.03053200 0.00848700
v -0.00185900 -0.03162000 0.00851900
v -0.01168500 0.02901200 0.00900100
v 0.00000000 0.00000000 0.00900000
v 0.00335500 0.03122500 0.00900000
v 0.01601000 0.02668100 0.00900000
v -0.02193400 0.02207000 0.00900000
v 0.02562000 0.01812900 0.00900000
v -0.02937200 0.01088200 0.00900100
v -0.03099600 -0.00415200 0.00900100
v -0.00319200 -0.03120900 0.00900200
v 0.01199400 -0.02888800 0.00900100
v -0.02562000 -0.01812900 0.00900000
v 0.02944300 -0.01087400 0.00900000
v 0.02193400 -0.02207000 0.00900000
vn -0.00010000 0.00010000 -1.00000000
vn -0.43960000 0.58710000 -0.67980000
vn 0.02550000 0.72670000 -0.68640000
vn 0.60250000 0.46280000 -0.65020000
vn -0.78360000 0.08840000 -0.61490000
vn 0.71450000 0.17690000 -0.67680000
vn 0.83520000 -0.34780000 -0.42600000
vn -0.62930000 -0.37680000 -0.67970000
vn -0.16890000 -0.72910000 -0.66320000
vn -0.40670000 -0.58530000 -0.70140000
vn 0.50340000 -0.75610000 -0.41810000
vn -0.21320000 0.80680000 -0.55100000
vn 0.10290000 0.59880000 -0.79430000
vn -0.20280000 0.61740000 -0.76000000
vn 0.39410000 0.81350000 -0.42770000
vn 0.38200000 0.45430000 -0.80480000
vn -0.41530000 0.48950000 -0.76680000
vn -0.73100000 0.49280000 -0.47210000
vn -0.54260000 0.20610000 -0.81430000
vn 0.55900000 0.24460000 -0.79230000
vn -0.82220000 -0.08540000 -0.56280000
vn 0.63720000 0.02100000 -0.77040000
vn 0.88000000 -0.13620000 -0.45490000
vn -0.59490000 -0.12950000 -0.79330000
vn 0.51090000 -0.21490000 -0.83240000
vn 0.69420000 -0.54960000 -0.46480000
vn -0.47730000 -0.39030000 -0.78730000
vn 0.40930000 -0.50650000 -0.75890000
vn -0.31040000 -0.54010000 -0.78220000
vn 0.29910000 -0.55480000 -0.77630000
vn 0.23040000 -0.85330000 -0.46780000
vn -0.01630000 -0.58980000 -0.80740000
vn 0.27820000 -0.57500000 -0.76940000
vn 0.04120000 -0.66840000 -0.74270000
vn -0.23200000 -0.60000000 -0.76560000
vn 0.43320000 -0.45890000 -0.77580000
vn -0.42490000 -0.48400000 -0.76500000
vn 0.53230000 -0.33260000 -0.77850000
vn -0.55500000 -0.32090000 -0.76750000
vn 0.64470000 -0.11420000 -0.75580000
vn -0.61740000 -0.12520000 -0.77660000
vn 0.61800000 0.12300000 -0.77650000
vn -0.65210000 0.13140000 -0.74670000
vn 0.55520000 0.31800000 -0.76850000
vn 0.43250000 0.50730000 -0.74540000
vn -0.51700000 0.36350000 -0.77500000
vn 0.18450000 0.65820000 -0.72990000
vn -0.37170000 0.51700000 -0.77100000
vn -0.15070000 0.63410000 -0.75850000
vn 0.10940000 -0.20850000 -0.97190000
vn -0.04580000 -0.35240000 -0.93470000
vn 0.09610000 -0.23450000 -0.96740000
vn -0.08570000 -0.24930000 -0.96460000
vn 0.12300000 -0.15800000 -0.97970000
vn -0.16380000 -0.26500000 -0.95020000
vn -0.16760000 -0.17700000 -0.96980000
vn 0.32220000 -0.17000000 -0.93130000
vn 0.09980000 -0.06660000 -0.99280000
vn -0.28100000 -0.12960000 -0.95090000
vn -0.21410000 -0.05510000 -0.97530000
vn -0.03210000 0.01540000 -0.99940000
vn 0.22630000 0.00670000 -0.97400000
vn -0.09380000 -0.07160000 -0.99300000
vn -0.19030000 0.08790000 -0.97780000
vn 0.34410000 0.12430000 -0.93070000
vn 0.14310000 0.09910000 -0.98470000
vn -0.24930000 0.19370000 -0.94890000
vn 0.02940000 0.01620000 -0.99940000
vn -0.09730000 0.21490000 -0.97180000
vn -0.01450000 0.22550000 -0.97410000
vn -0.01640000 0.30280000 -0.95290000
vn -0.25140000 0.90120000 -0.35300000
vn 0.05610000 0.91380000 -0.40220000
vn 0.34230000 0.88750000 -0.30860000
vn -0.49150000 0.74360000 -0.45330000
vn 0.54400000 0.76630000 -0.34170000
vn -0.70910000 0.63390000 -0.30870000
vn 0.72050000 0.61880000 -0.31300000
vn -0.80040000 0.43660000 -0.41080000
vn 0.83700000 0.41560000 -0.35600000
vn -0.94580000 0.17990000 -0.27040000
vn 0.92470000 0.21690000 -0.31280000
vn -0.95420000 -0.14500000 -0.26180000
vn -0.84730000 -0.35470000 -0.39530000
vn 0.91530000 -0.25870000 -0.30890000
vn 0.77180000 -0.46930000 -0.42900000
vn -0.77530000 -0.57900000 -0.25250000
vn -0.56670000 -0.73130000 -0.37950000
vn 0.65330000 -0.62900000 -0.42150000
vn 0.41650000 -0.81150000 -0.40980000
vn -0.30060000 -0.86650000 -0.39860000
vn 0.19270000 -0.92700000 -0.32170000
vn -0.06200000 -0.89680000 -0.43800000
vn -0.14510000 0.97290000 0.18030000
vn 0.15710000 0.96200000 0.22310000
vn -0.43230000 0.87580000 0.21480000
vn 0.41250000 0.88730000 0.20630000
vn -0.68660000 0.70090000 0.19300000
vn 0.57380000 0.78850000 0.22130000
vn -0.84940000 0.49100000 0.19350000
vn 0.77680000 0.58860000 0.22380000
vn -0.95920000 0.19430000 0.20530000
vn 0.88510000 0.41940000 0.20180000
vn 0.96370000 0.16760000 0.20770000
vn -0.96840000 -0.11050000 0.22350000
vn 0.97550000 -0.00980000 -0.21980000
vn 0.97200000 -0.03730000 0.23220000
vn -0.90000000 -0.38940000 0.19590000
vn 0.91960000 -0.32450000 0.22120000
vn -0.79870000 -0.56420000 0.20930000
vn 0.83120000 -0.51570000 0.20780000
vn -0.59160000 -0.77630000 0.21780000
vn 0.61490000 -0.76830000 0.17780000
vn -0.38020000 -0.90400000 0.19530000
vn -0.12790000 -0.97070000 0.20360000
vn 0.31410000 -0.92450000 0.21620000
vn 0.08850000 -0.83630000 0.54120000
vn -0.04970000 0.86970000 0.49110000
vn 0.31990000 0.80590000 0.49810000
vn -0.40500000 0.79900000 0.44450000
vn 0.59690000 0.63250000 0.49360000
vn -0.59660000 0.67260000 0.43790000
vn -0.75800000 0.41310000 0.50480000
vn 0.79430000 0.35320000 0.49430000
vn 0.70190000 0.10580000 0.70440000
vn -0.83220000 0.09250000 0.54670000
vn 0.84680000 -0.14180000 0.51260000
vn -0.81190000 -0.25620000 0.52460000
vn 0.71140000 -0.47250000 0.52020000
vn -0.69940000 -0.61670000 0.36130000
vn 0.54540000 -0.69190000 0.47320000
vn -0.38470000 -0.56810000 0.72750000
vn -0.31220000 -0.78230000 0.53900000
vn 0.19140000 -0.83520000 0.51550000
vn 0.01130000 -0.92390000 0.38240000
vn -0.18630000 0.64280000 0.74300000
vn -0.00000000 -0.00000000 1.00000000
vn 0.15540000 0.81100000 0.56400000
vn 0.37240000 0.58480000 0.72070000
vn -0.29890000 0.26390000 0.91710000
vn 0.71380000 0.47630000 0.51350000
vn -0.73080000 0.24140000 0.63850000
vn -0.80960000 -0.05760000 0.58420000
vn -0.12450000 -0.62450000 0.77110000
vn 0.35270000 -0.72990000 0.58550000
vn -0.65400000 -0.37650000 0.65610000
vn 0.78450000 -0.33050000 0.52470000
vn 0.42100000 -0.36780000 0.82910000
f 3//3 4//4 1//1
f 1//1 5//5 2//2
f 6//6 1//1 4//4
f 7//7 1//1 6//6
f 8//8 5//5 1//1
f 1//1 11//11 9//9
f 10//10 8//8 1//1
f 7//7 11//11 1//1
f 12//12 13//13 3//3
f 14//14 13//13 12//12
f 13//13 15//15 3//3
f 2//2 14//14 12//12
f 13//13 16//16 15//15
f 17//17 14//14 2//2
f 16//16 4//4 15//15
f 18//18 17//17 2//2
f 19//19 17//17 18//18
f 20//20 6//6 4//4
f 16//16 20//20 4//4
f 5//5 19//19 18//18
f 21//21 19//19 5//5
f 22//22 23//23 6//6
f 20//20 22//22 6//6
f 24//24 19//19 21//21
f 22//22 25//25 23//23
f 8//8 24//24 21//21
f 25//25 26//26 23//23
f 27//27 24//24 8//8
f 25//25 28//28 26//26
f 10//10 27//27 8//8
f 29//29 27//27 10//10
f 30//30 31//31 26//26
f 28//28 30//30 26//26
f 9//9 29//29 10//10
f 32//32 29//29 9//9
f 30//30 32//32 31//31
f 32//32 9//9 31//31
f 14//14 33//33 34//34
f 13//13 14//14 34//34
f 35//35 13//13 34//34
f 16//16 13//13 35//35
f 33//33 14//14 17//17
f 37//37 16//16 35//35
f 17//17 38//38 36//36
f 39//39 16//16 37//37
f 19//19 38//38 17//17
f 19//19 40//40 38//38
f 20//20 16//16 39//39
f 41//41 20//20 39//39
f 22//22 20//20 41//41
f 24//24 40//40 19//19
f 24//24 42//42 40//40
f 43//43 22//22 41//41
f 43//43 25//25 22//22
f 24//24 27//27 44//44
f 45//45 44//44 27//27
f 43//43 46//46 25//25
f 46//46 28//28 25//25
f 29//29 45//45 27//27
f 47//47 45//45 29//29
f 46//46 48//48 28//28
f 48//48 30//30 28//28
f 32//32 47//47 29//29
f 48//48 49//49 30//30
f 49//49 32//32 30//30
f 49//49 47//47 32//32
f 34//34 50//50 51//51
f 34//34 52//52 50//50
f 35//35 34//34 51//51
f 53//53 35//35 51//51
f 34//34 33//33 52//52
f 33//33 54//54 52//52
f 53//53 55//55 35//35
f 33//33 36//36 54//54
f 56//56 37//37 55//55
f 36//36 38//38 57//57
f 39//39 37//37 56//56
f 38//38 58//58 57//57
f 59//59 39//39 56//56
f 38//38 40//40 58//58
f 41//41 39//39 59//59
f 60//60 41//41 59//59
f 40//40 61//61 58//58
f 40//40 62//62 61//61
f 43//43 41//41 60//60
f 63//63 43//43 60//60
f 40//40 42//42 62//62
f 64//64 43//43 63//63
f 42//42 65//65 62//62
f 44//44 66//66 65//65
f 42//42 44//44 65//65
f 46//46 43//43 64//64
f 67//67 46//46 64//64
f 45//45 68//68 66//66
f 44//44 45//45 66//66
f 48//48 46//46 67//67
f 69//69 48//48 67//67
f 45//45 47//47 68//68
f 49//49 48//48 69//69
f 70//70 49//49 69//69
f 47//47 71//71 68//68
f 47//47 70//70 71//71
f 47//47 49//49 70//70
f 50//50 72//72 73//73
f 51//51 50//50 73//73
f 53//53 51//51 73//73
f 74//74 53//53 73//73
f 52//52 72//72 50//50
f 52//52 75//75 72//72
f 55//55 53//53 74//74
f 76//76 55//55 74//74
f 54//54 75//75 52//52
f 54//54 77//77 75//75
f 76//76 78//78 55//55
f 54//54 79//79 77//77
f 57//57 79//79 54//54
f 59//59 56//56 78//78
f 80//80 59//59 78//78
f 58//58 79//79 57//57
f 58//58 81//81 79//79
f 80//80 82//82 59//59
f 58//58 61//61 81//81
f 82//82 106//106 60//60
f 62//62 83//83 61//61
f 62//62 84//84 83//83
f 85//85 64//64 63//63
f 65//65 84//84 62//62
f 86//86 64//64 85//85
f 66//66 84//84 65//65
f 86//86 67//67 64//64
f 66//66 87//87 84//84
f 66//66 88//88 87//87
f 89//89 67//67 86//86
f 68//68 88//88 66//66
f 89//89 69//69 67//67
f 90//90 69//69 89//89
f 68//68 91//91 88//88
f 90//90 70//70 69//69
f 92//92 70//70 90//90
f 71//71 91//91 68//68
f 71//71 93//93 91//91
f 93//93 70//70 92//92
f 70//70 93//93 71//71
f 83//83 81//81 61//61
f 72//72 94//94 73//73
f 94//94 95//95 73//73
f 96//96 94//94 72//72
f 95//95 74//74 73//73
f 75//75 96//96 72//72
f 95//95 97//97 74//74
f 97//97 99//99 76//76
f 77//77 98//98 75//75
f 98//98 96//96 75//75
f 99//99 101//101 78//78
f 100//100 98//98 77//77
f 101//101 103//103 80//80
f 102//102 100//100 79//79
f 103//103 104//104 82//82
f 105//105 102//102 81//81
f 104//104 107//107 106//106
f 107//107 109//109 85//85
f 108//108 105//105 83//83
f 110//110 108//108 84//84
f 109//109 111//111 86//86
f 111//111 89//89 86//86
f 112//112 110//110 87//87
f 111//111 113//113 89//89
f 113//113 90//90 89//89
f 114//114 112//112 88//88
f 93//93 115//115 91//91
f 115//115 114//114 91//91
f 116//116 92//92 90//90
f 113//113 116//116 90//90
f 116//116 117//117 92//92
f 92//92 117//117 93//93
f 117//117 115//115 93//93
f 116//116 115//115 117//117
f 94//94 118//118 95//95
f 96//96 120//120 94//94
f 118//118 119//119 95//95
f 119//119 97//97 95//95
f 98//98 120//120 96//96
f 119//119 121//121 97//97
f 121//121 99//99 97//97
f 122//122 120//120 98//98
f 121//121 101//101 99//99
f 100//100 122//122 98//98
f 123//123 122//122 100//100
f 121//121 124//124 101//101
f 124//124 103//103 101//101
f 102//102 123//123 100//100
f 125//125 104//104 124//124
f 126//126 123//123 102//102
f 105//105 126//126 102//102
f 125//125 127//127 104//104
f 127//127 107//107 104//104
f 128//128 126//126 105//105
f 127//127 109//109 107//107
f 108//108 128//128 105//105
f 110//110 128//128 108//108
f 127//127 129//129 109//109
f 129//129 111//111 109//109
f 130//130 128//128 110//110
f 131//131 113//113 129//129
f 112//112 130//130 110//110
f 114//114 132//132 112//112
f 132//132 130//130 112//112
f 133//133 132//132 114//114
f 134//134 116//116 131//131
f 115//115 133//133 114//114
f 135//135 133//133 115//115
f 134//134 135//135 116//116
f 135//135 115//115 116//116
f 137//137 139//139 136//136
f 140//140 137//137 136//136
f 137//137 141//141 139//139
f 142//142 143//143 140//140
f 137//137 147//147 141//141
f 137//137 132//132 145//145
f 137//137 143//143 132//132
f 148//148 147//147 137//137
f 145//145 148//148 137//137
f 2//2 12//12 3//3
f 15//15 4//4 3//3
f 5//5 18//18 2//2
f 23//23 7//7 6//6
f 8//8 21//21 5//5
f 23//23 26//26 7//7
f 26//26 11//11 7//7
f 26//26 31//31 11//11
f 31//31 9//9 11//11
f 120//120 136//136 118//118
f 136//136 138//138 118//118
f 138//138 119//119 118//118
f 138//138 139//139 119//119
f 122//122 136//136 120//120
f 139//139 121//121 119//119
f 140//140 136//136 122//122
f 139//139 141//141 121//121
f 123//123 140//140 122//122
f 142//142 140//140 123//123
f 141//141 124//124 121//121
f 126//126 142//142 123//123
f 141//141 125//125 124//124
f 128//128 143//143 126//126
f 143//143 142//142 126//126
f 125//125 147//147 127//127
f 130//130 146//146 128//128
f 146//146 143//143 128//128
f 147//147 129//129 127//127
f 147//147 148//148 129//129
f 148//148 131//131 129//129
f 132//132 146//146 130//130
f 148//148 145//145 131//131
f 145//145 134//134 131//131
f 135//135 144//144 133//133
f 144//144 132//132 133//133
f 145//145 144//144 134//134
f 144//144 135//135 134//134
f 106//106 85//85 63//63
f 3//3 1//1 2//2
f 1//1 9//9 10//10
f 33//33 17//17 36//36
f 24//24 44//44 42//42
f 55//55 37//37 35//35
f 36//36 57//57 54//54
f 78//78 56//56 55//55
f 82//82 60//60 59//59
f 106//106 63//63 60//60
f 97//97 76//76 74//74
f 99//99 78//78 76//76
f 100//100 77//77 79//79
f 101//101 80//80 78//78
f 102//102 79//79 81//81
f 103//103 82//82 80//80
f 105//105 81//81 83//83
f 104//104 106//106 82//82
f 107//107 85//85 106//106
f 108//108 83//83 84//84
f 110//110 84//84 87//87
f 109//109 86//86 85//85
f 112//112 87//87 88//88
f 114//114 88//88 91//91
f 120//120 118//118 94//94
f 104//104 103//103 124//124
f 113//113 111//111 129//129
f 116//116 113//113 131//131
f 139//139 138//138 136//136
f 143//143 137//137 140//140
f 147//147 125//125 141//141
f 132//132 144//144 145//145
f 143//143 146//146 132//132

