# Blender 3.3.21
# www.blender.org
mtllib base_link.mtl
o Base_Link
v 0.240000 0.035000 0.163000
v 0.210000 0.035000 0.163000
v 0.240000 0.015000 0.163000
v 0.210000 0.015000 0.163000
v 0.205775 0.156521 0.143000
v 0.185876 0.179701 0.143000
v 0.146410 0.146410 0.143000
v -0.037138 0.138600 0.143000
v -0.032851 0.122600 0.143000
v 0.032851 0.122600 0.143000
v 0.054180 0.252798 0.143000
v 0.023983 0.257424 0.143000
v 0.053590 0.200000 0.143000
v 0.083621 0.244642 0.143000
v 0.163382 -0.200372 0.143000
v 0.185876 -0.179701 0.143000
v 0.146410 -0.146410 0.143000
v 0.032851 -0.122600 0.143000
v -0.032851 -0.122600 0.143000
v -0.037138 -0.138600 0.143000
v 0.053590 -0.200000 0.143000
v 0.258087 0.015275 0.143000
v 0.240000 0.035000 0.143000
v 0.258087 -0.015275 0.143000
v 0.240000 -0.035000 0.143000
v 0.254484 -0.045611 0.143000
v 0.083621 -0.244642 0.143000
v 0.111895 -0.233071 0.143000
v 0.200000 0.053590 0.143000
v 0.210000 0.035000 0.143000
v -0.101462 -0.101462 0.143000
v -0.138600 -0.037138 0.143000
v -0.215914 -0.209805 0.143000
v 0.163382 0.200372 0.143000
v 0.138606 0.218245 0.143000
v 0.111895 0.233071 0.143000
v 0.254484 0.045611 0.143000
v 0.247327 0.075311 0.143000
v 0.236717 0.103959 0.143000
v 0.222802 0.131156 0.143000
v -0.215914 0.209805 0.143000
v -0.006549 0.258456 0.143000
v 0.210000 -0.035000 0.143000
v 0.200000 -0.053590 0.143000
v 0.247327 -0.075311 0.143000
v 0.138606 -0.218245 0.143000
v -0.138600 0.037138 0.143000
v -0.101462 0.101462 0.143000
v -0.066915 0.249729 0.143000
v -0.036990 0.255879 0.143000
v -0.036990 -0.255879 0.143000
v -0.006549 -0.258456 0.143000
v 0.023983 -0.257424 0.143000
v 0.054180 -0.252798 0.143000
v 0.205775 -0.156521 0.143000
v 0.222802 -0.131156 0.143000
v 0.236717 -0.103959 0.143000
v -0.066915 -0.249729 0.143000
v 0.023847 -0.089000 0.175000
v 0.028135 -0.105000 0.159000
v 0.065153 -0.065153 0.175000
v 0.076865 -0.076865 0.159000
v 0.089000 -0.023847 0.175000
v 0.105000 -0.028135 0.159000
v 0.089000 0.023847 0.175000
v 0.105000 0.028135 0.159000
v 0.065153 0.065153 0.175000
v 0.076865 0.076865 0.159000
v 0.023847 0.089000 0.175000
v 0.028135 0.105000 0.159000
v -0.023847 0.089000 0.175000
v -0.028135 0.105000 0.159000
v -0.065153 0.065153 0.175000
v -0.076865 0.076865 0.159000
v -0.089000 0.023847 0.175000
v -0.105000 0.028135 0.159000
v -0.089000 -0.023847 0.175000
v -0.105000 -0.028135 0.159000
v -0.065153 -0.065153 0.175000
v -0.076865 -0.076865 0.159000
v -0.023847 -0.089000 0.175000
v -0.028135 -0.105000 0.159000
v -0.250000 -0.200672 0.012000
v -0.250000 -0.220000 0.012000
v -0.422000 -0.220000 0.012000
v 0.300463 0.052412 0.012000
v 0.300874 0.050000 0.012000
v 0.249375 0.103500 0.012000
v 0.200000 0.050000 0.012000
v 0.035645 0.267637 0.012000
v 0.056582 0.264005 0.012000
v 0.300874 -0.050000 0.012000
v 0.300463 -0.052412 0.012000
v 0.200000 -0.050000 0.012000
v 0.249375 -0.103500 0.012000
v 0.247211 -0.108568 0.012000
v -0.422000 0.220000 0.012000
v -0.250000 0.220000 0.012000
v -0.250000 0.204377 0.012000
v -0.140000 0.234519 0.012000
v -0.140000 -0.230146 0.012000
v -0.140000 0.291030 0.012000
v -0.140000 -0.291030 0.012000
v 0.035645 -0.267637 0.012000
v 0.214897 0.163459 0.012000
v 0.232678 0.136970 0.012000
v 0.247211 0.108568 0.012000
v 0.116855 -0.243403 0.012000
v 0.087328 -0.255487 0.012000
v 0.056582 -0.264005 0.012000
v 0.087328 0.255487 0.012000
v 0.116855 0.243403 0.012000
v 0.144750 0.227920 0.012000
v 0.170624 0.209254 0.012000
v 0.194116 0.187667 0.012000
v 0.232678 -0.136970 0.012000
v 0.214897 -0.163459 0.012000
v 0.194116 -0.187667 0.012000
v 0.170624 -0.209254 0.012000
v 0.144750 -0.227920 0.012000
v -0.384108 0.045000 0.159964
v -0.380079 -0.206086 0.171035
v -0.380079 0.206086 0.171035
v -0.430965 0.218318 0.031226
v -0.430965 -0.218318 0.031226
v -0.426861 0.015000 0.042502
v -0.426861 -0.030000 0.042502
v -0.384108 0.015000 0.159964
v -0.426861 0.045000 0.042502
v -0.384108 -0.030000 0.159964
v -0.426861 0.090000 0.042502
v -0.384108 0.090000 0.159964
v -0.280000 0.015527 0.180000
v -0.280000 0.205302 0.180000
v -0.285000 0.015527 0.180000
v -0.360853 0.205302 0.180000
v -0.285000 -0.015527 0.180000
v -0.360853 -0.205302 0.180000
v -0.280000 -0.015527 0.180000
v -0.280000 -0.205302 0.180000
v -0.220609 0.208302 0.145710
v -0.268000 0.016748 0.173072
v -0.268000 -0.016748 0.173072
v -0.220609 -0.208302 0.145710
v 0.033788 -0.126100 0.155500
v 0.039082 -0.145856 0.155500
v 0.092312 -0.092312 0.155500
v 0.106774 -0.106774 0.155500
v 0.126100 -0.033788 0.155500
v 0.145856 -0.039082 0.155500
v 0.126100 0.033788 0.155500
v 0.145856 0.039082 0.155500
v 0.092312 0.092312 0.155500
v 0.106774 0.106774 0.155500
v 0.033788 0.126100 0.155500
v 0.039082 0.145856 0.155500
v 0.246704 0.101716 0.048000
v 0.035230 -0.264515 0.048000
v 0.255714 -0.058415 0.100000
v 0.246704 -0.101716 0.048000
v 0.248461 -0.095835 0.054253
v 0.252881 -0.077293 0.075669
v 0.252923 -0.077017 0.076024
v 0.024337 -0.261191 0.096732
v 0.030860 -0.260661 0.097939
v 0.003165 -0.262911 0.092814
v -0.006652 -0.262600 0.091784
v -0.024605 -0.262032 0.089900
v -0.037606 -0.260142 0.089584
v -0.052099 -0.258036 0.089233
v -0.068117 -0.254217 0.089902
v -0.068117 0.254217 0.089902
v -0.052099 0.258036 0.089233
v -0.037606 0.260142 0.089584
v -0.024605 0.262032 0.089900
v -0.006652 0.262600 0.091784
v 0.003165 0.262911 0.092814
v 0.024337 0.261191 0.096732
v 0.030860 0.260661 0.097939
v 0.035230 0.264515 0.048000
v 0.251629 0.083310 0.068443
v 0.252755 0.076993 0.076316
v 0.254976 0.064526 0.091853
v 0.255714 0.058415 0.100000
v 0.258167 0.046385 0.100000
v 0.258255 0.046285 0.099191
v 0.263835 0.040000 0.048000
v 0.258167 -0.046385 0.100000
v 0.258255 -0.046285 0.099191
v 0.266384 0.015766 0.048000
v 0.266384 -0.015766 0.048000
v 0.263835 -0.040000 0.048000
v 0.280000 -0.010681 0.048000
v 0.270750 -0.005340 0.048000
v 0.270750 0.005340 0.048000
v 0.280000 0.010681 0.048000
v 0.300699 0.026344 0.048000
v 0.299188 0.040000 0.048000
v 0.299188 -0.040000 0.048000
v 0.300699 -0.026344 0.048000
v 0.289250 -0.005340 0.048000
v 0.301850 0.000000 0.048000
v 0.289250 0.005340 0.048000
v -0.175703 -0.224736 0.097115
v -0.180000 -0.228033 0.048000
v -0.180000 -0.293180 0.048000
v 0.030862 -0.260691 0.097918
v -0.204660 -0.269250 0.048000
v -0.199319 -0.260000 0.048000
v -0.204660 -0.250750 0.048000
v -0.215340 -0.250750 0.048000
v -0.234276 -0.287724 0.048000
v -0.229226 -0.291438 0.048000
v -0.215340 -0.269250 0.048000
v -0.223619 -0.294241 0.048000
v -0.221734 -0.216850 0.048000
v -0.246850 -0.216850 0.048000
v -0.220681 -0.260000 0.048000
v -0.246850 -0.260000 0.048000
v -0.246317 -0.266246 0.048000
v -0.217618 -0.296054 0.048000
v -0.211397 -0.296824 0.048000
v -0.205135 -0.296528 0.048000
v -0.244733 -0.272311 0.048000
v -0.242144 -0.278020 0.048000
v -0.238624 -0.283208 0.048000
v -0.246317 0.266246 0.048000
v -0.246850 0.260000 0.048000
v -0.220681 0.260000 0.048000
v -0.215340 0.250750 0.048000
v -0.246850 0.216850 0.048000
v -0.221734 0.216850 0.048000
v -0.204660 0.250750 0.048000
v -0.180000 0.228033 0.048000
v -0.199319 0.260000 0.048000
v -0.180000 0.293180 0.048000
v -0.204660 0.269250 0.048000
v -0.205135 0.296528 0.048000
v -0.215340 0.269250 0.048000
v -0.211397 0.296824 0.048000
v -0.217618 0.296054 0.048000
v -0.234276 0.287724 0.048000
v -0.238624 0.283208 0.048000
v -0.242144 0.278020 0.048000
v -0.244733 0.272311 0.048000
v -0.223619 0.294241 0.048000
v -0.229226 0.291438 0.048000
v 0.030862 0.260691 0.097918
v -0.175703 0.224736 0.097115
v -0.204719 -0.299650 0.012000
v -0.250000 -0.260000 0.012000
v -0.211516 -0.299971 0.012000
v -0.218269 -0.299136 0.012000
v -0.224783 -0.297168 0.012000
v -0.230869 -0.294125 0.012000
v -0.236351 -0.290093 0.012000
v -0.241071 -0.285192 0.012000
v -0.244891 -0.279561 0.012000
v -0.247702 -0.273364 0.012000
v -0.249421 -0.266780 0.012000
v -0.204719 0.299650 0.012000
v -0.250000 0.260000 0.012000
v -0.249421 0.266780 0.012000
v -0.247702 0.273364 0.012000
v -0.244891 0.279561 0.012000
v -0.241071 0.285192 0.012000
v -0.236351 0.290093 0.012000
v -0.230869 0.294125 0.012000
v -0.224783 0.297168 0.012000
v -0.218269 0.299136 0.012000
v -0.211516 0.299971 0.012000
v 0.297529 0.050891 0.048000
v 0.297529 -0.050891 0.048000
v 0.303836 -0.026619 0.012000
v 0.304269 -0.016722 0.012000
v 0.301850 0.000000 0.048000
v 0.303836 0.026619 0.012000
v 0.304269 0.016722 0.012000
v 0.305000 0.000000 0.012000
v 0.267744 0.046385 0.100000
v 0.297162 0.041767 0.062392
v 0.267744 -0.046385 0.100000
v 0.297162 -0.041767 0.062392
v 0.089749 -0.089749 0.159000
v 0.032851 -0.122600 0.159000
v -0.032851 -0.122600 0.159000
v -0.089749 -0.089749 0.159000
v -0.122600 -0.032851 0.159000
v -0.122600 0.032851 0.159000
v -0.089749 0.089749 0.159000
v -0.032851 0.122600 0.159000
v 0.032851 0.122600 0.159000
v 0.089749 0.089749 0.159000
v 0.122600 0.032851 0.159000
v 0.122600 -0.032851 0.159000
v -0.268000 0.012000 0.200000
v -0.268000 -0.012000 0.200000
v -0.285000 -0.012000 0.200000
v -0.285000 0.012000 0.200000
v -0.431093 0.090000 0.177065
v -0.431093 0.045000 0.177065
v -0.473846 0.090000 0.059603
v -0.473846 0.045000 0.059603
v -0.431093 0.015000 0.177065
v -0.431093 -0.030000 0.177065
v -0.473846 0.015000 0.059603
v -0.473846 -0.030000 0.059603
v 0.200000 0.050000 0.000000
v 0.200000 -0.050000 0.000000
v 0.300874 0.050000 0.000000
v 0.304541 0.016734 0.000000
v 0.305000 0.000000 0.012000
v 0.304541 -0.016734 0.000000
v 0.300874 -0.050000 0.000000
v 0.280000 0.010681 0.000000
v 0.289250 0.005340 0.000000
v 0.289250 -0.005340 0.000000
v 0.280000 -0.010681 0.000000
v 0.270750 -0.005340 0.000000
v 0.270750 0.005340 0.000000
v -0.204719 -0.299650 0.000000
v -0.211516 -0.299971 0.000000
v -0.218269 -0.299136 0.000000
v -0.224783 -0.297168 0.000000
v -0.230869 -0.294125 0.000000
v -0.236351 -0.290093 0.000000
v -0.241071 -0.285192 0.000000
v -0.244891 -0.279561 0.000000
v -0.247702 -0.273364 0.000000
v -0.249421 -0.266780 0.000000
v -0.250000 -0.260000 0.000000
v -0.250000 -0.200672 0.000000
v -0.140000 -0.230146 0.000000
v -0.140000 -0.291030 0.000000
v -0.215340 -0.269250 0.000000
v -0.220681 -0.260000 0.000000
v -0.215340 -0.250750 0.000000
v -0.204660 -0.250750 0.000000
v -0.199319 -0.260000 0.000000
v -0.204660 -0.269250 0.000000
v -0.250000 0.260000 0.000000
v -0.249421 0.266780 0.000000
v -0.247702 0.273364 0.000000
v -0.244891 0.279561 0.000000
v -0.241071 0.285192 0.000000
v -0.236351 0.290093 0.000000
v -0.230869 0.294125 0.000000
v -0.224783 0.297168 0.000000
v -0.218269 0.299136 0.000000
v -0.211516 0.299971 0.000000
v -0.204719 0.299650 0.000000
v -0.140000 0.291030 0.000000
v -0.140000 0.234519 0.000000
v -0.250000 0.204377 0.000000
v -0.204660 0.269250 0.000000
v -0.199319 0.260000 0.000000
v -0.204660 0.250750 0.000000
v -0.215340 0.250750 0.000000
v -0.215340 0.269250 0.000000
v -0.220681 0.260000 0.000000
v 0.210000 -0.035000 0.163000
v 0.210000 -0.015000 0.163000
v 0.210000 0.015000 0.203000
v 0.210000 -0.015000 0.203000
v 0.240000 -0.035000 0.163000
v 0.240000 -0.015000 0.163000
v 0.240000 -0.015000 0.203000
v 0.240000 0.015000 0.203000
v -0.426861 0.045000 0.042502
v -0.426861 0.045000 0.042502
v -0.473846 0.045000 0.059603
v -0.473846 0.045000 0.059603
v 0.289250 -0.005340 0.048000
v 0.289250 -0.005340 0.048000
v 0.289250 0.005340 0.048000
v 0.289250 0.005340 0.048000
v 0.035645 0.267637 0.012000
v 0.056582 0.264005 0.012000
v -0.122600 0.032851 0.159000
v -0.089749 0.089749 0.159000
v 0.030860 0.260661 0.097939
v 0.030860 0.260661 0.097939
v 0.030862 0.260691 0.097918
v 0.030862 0.260691 0.097918
v 0.266384 0.015766 0.048000
v 0.266384 -0.015766 0.048000
v -0.065153 -0.065153 0.175000
v -0.023847 -0.089000 0.175000
v -0.426861 0.090000 0.042502
v -0.426861 0.090000 0.042502
v -0.384108 0.090000 0.159964
v -0.384108 0.090000 0.159964
v -0.204660 0.250750 0.048000
v -0.204660 0.250750 0.048000
v -0.199319 0.260000 0.048000
v -0.199319 0.260000 0.048000
v 0.092312 -0.092312 0.155500
v 0.126100 -0.033788 0.155500
v 0.270750 -0.005340 0.000000
v 0.270750 -0.005340 0.000000
v 0.270750 0.005340 0.000000
v 0.270750 0.005340 0.000000
v 0.033788 0.126100 0.155500
v 0.033788 0.126100 0.155500
v 0.032851 0.122600 0.159000
v 0.032851 0.122600 0.159000
v 0.032851 0.122600 0.159000
v 0.299188 -0.040000 0.048000
v 0.299188 -0.040000 0.048000
v 0.297162 -0.041767 0.062392
v 0.297162 -0.041767 0.062392
v 0.035230 -0.264515 0.048000
v 0.030862 -0.260691 0.097918
v 0.030862 -0.260691 0.097918
v -0.426861 -0.030000 0.042502
v -0.426861 -0.030000 0.042502
v -0.384108 -0.030000 0.159964
v -0.384108 -0.030000 0.159964
v -0.250000 -0.200672 0.000000
v -0.250000 -0.200672 0.000000
v -0.140000 -0.230146 0.000000
v -0.140000 -0.230146 0.000000
v 0.300874 -0.050000 0.012000
v 0.300874 -0.050000 0.012000
v 0.300874 -0.050000 0.000000
v 0.300874 -0.050000 0.000000
v 0.232678 0.136970 0.012000
v 0.247211 0.108568 0.012000
v 0.210000 0.035000 0.163000
v 0.210000 0.035000 0.163000
v 0.210000 0.015000 0.163000
v 0.210000 0.015000 0.163000
v -0.268000 0.016748 0.173072
v -0.268000 0.016748 0.173072
v -0.268000 -0.016748 0.173072
v -0.268000 -0.016748 0.173072
v 0.240000 0.035000 0.163000
v 0.240000 0.035000 0.163000
v -0.180000 -0.293180 0.048000
v -0.180000 -0.293180 0.048000
v -0.180000 -0.293180 0.048000
v -0.205135 -0.296528 0.048000
v 0.023983 0.257424 0.143000
v -0.006549 0.258456 0.143000
v 0.300874 0.050000 0.000000
v 0.300874 0.050000 0.000000
v 0.304541 0.016734 0.000000
v -0.422000 0.220000 0.012000
v -0.422000 0.220000 0.012000
v -0.430965 0.218318 0.031226
v -0.430965 0.218318 0.031226
v 0.032851 -0.122600 0.143000
v 0.032851 -0.122600 0.143000
v 0.053590 -0.200000 0.143000
v -0.024605 0.262032 0.089900
v -0.006652 0.262600 0.091784
v -0.218269 0.299136 0.000000
v -0.211516 0.299971 0.000000
v -0.036990 -0.255879 0.143000
v -0.066915 -0.249729 0.143000
v 0.122600 0.032851 0.159000
v 0.122600 -0.032851 0.159000
v -0.223619 -0.294241 0.048000
v -0.217618 -0.296054 0.048000
v 0.240000 0.015000 0.163000
v 0.240000 0.015000 0.163000
v 0.240000 0.015000 0.203000
v 0.240000 0.015000 0.203000
v -0.140000 0.291030 0.012000
v -0.140000 0.291030 0.012000
v 0.210000 0.015000 0.203000
v 0.210000 0.015000 0.203000
v 0.210000 -0.015000 0.203000
v 0.210000 -0.015000 0.203000
v 0.105000 0.028135 0.159000
v 0.076865 0.076865 0.159000
v 0.289250 -0.005340 0.000000
v 0.289250 -0.005340 0.000000
v 0.270750 0.005340 0.048000
v 0.270750 0.005340 0.048000
v 0.280000 0.010681 0.048000
v 0.280000 0.010681 0.048000
v -0.431093 0.015000 0.177065
v -0.431093 0.015000 0.177065
v -0.473846 0.015000 0.059603
v -0.473846 0.015000 0.059603
v 0.033788 -0.126100 0.155500
v 0.033788 -0.126100 0.155500
v 0.039082 -0.145856 0.155500
v -0.380079 -0.206086 0.171035
v -0.380079 -0.206086 0.171035
v -0.380079 0.206086 0.171035
v -0.380079 0.206086 0.171035
v -0.215340 -0.269250 0.000000
v -0.215340 -0.269250 0.000000
v -0.220681 -0.260000 0.000000
v -0.220681 -0.260000 0.000000
v 0.087328 0.255487 0.012000
v 0.116855 0.243403 0.012000
v 0.280000 -0.010681 0.048000
v 0.280000 -0.010681 0.048000
v 0.280000 -0.010681 0.000000
v 0.280000 -0.010681 0.000000
v -0.037138 0.138600 0.143000
v -0.037138 0.138600 0.143000
v -0.032851 0.122600 0.159000
v -0.032851 0.122600 0.159000
v -0.032851 0.122600 0.159000
v 0.210000 0.035000 0.143000
v 0.210000 0.035000 0.143000
v 0.210000 -0.035000 0.143000
v 0.210000 -0.035000 0.143000
v -0.140000 0.291030 0.000000
v -0.140000 0.291030 0.000000
v 0.003165 0.262911 0.092814
v -0.138600 -0.037138 0.143000
v -0.138600 0.037138 0.143000
v -0.215340 -0.250750 0.048000
v -0.215340 -0.250750 0.048000
v -0.220681 -0.260000 0.048000
v -0.220681 -0.260000 0.048000
v -0.224783 0.297168 0.000000
v -0.052099 0.258036 0.089233
v -0.037606 0.260142 0.089584
v -0.065153 0.065153 0.175000
v -0.089000 0.023847 0.175000
v 0.163382 0.200372 0.143000
v 0.138606 0.218245 0.143000
v -0.220681 0.260000 0.048000
v -0.220681 0.260000 0.048000
v -0.220681 0.260000 0.000000
v -0.220681 0.260000 0.000000
v -0.246317 0.266246 0.048000
v -0.244733 0.272311 0.048000
v -0.205135 0.296528 0.048000
v -0.211397 0.296824 0.048000
v 0.249375 0.103500 0.012000
v -0.426861 0.015000 0.042502
v -0.426861 0.015000 0.042502
v -0.101462 -0.101462 0.143000
v -0.236351 0.290093 0.000000
v -0.230869 0.294125 0.000000
v 0.163382 -0.200372 0.143000
v 0.185876 -0.179701 0.143000
v -0.250000 -0.200672 0.012000
v -0.250000 -0.200672 0.012000
v -0.250000 -0.220000 0.012000
v -0.250000 -0.220000 0.012000
v -0.211397 -0.296824 0.048000
v -0.280000 0.205302 0.180000
v -0.220609 0.208302 0.145710
v 0.300463 0.052412 0.012000
v 0.300463 0.052412 0.012000
v 0.297529 0.050891 0.048000
v 0.089000 -0.023847 0.175000
v 0.089000 0.023847 0.175000
v -0.028135 0.105000 0.159000
v -0.076865 0.076865 0.159000
v -0.180000 -0.228033 0.048000
v -0.180000 -0.228033 0.048000
v -0.140000 -0.230146 0.012000
v -0.140000 -0.230146 0.012000
v -0.360853 0.205302 0.180000
v -0.101462 0.101462 0.143000
v -0.032851 -0.122600 0.143000
v -0.032851 -0.122600 0.143000
v -0.204719 0.299650 0.000000
v -0.215914 0.209805 0.143000
v 0.111895 0.233071 0.143000
v -0.122600 -0.032851 0.159000
v -0.234276 0.287724 0.048000
v -0.229226 0.291438 0.048000
v 0.210000 -0.015000 0.163000
v 0.210000 -0.015000 0.163000
v -0.180000 0.293180 0.048000
v -0.180000 0.293180 0.048000
v -0.180000 0.293180 0.048000
v -0.422000 -0.220000 0.012000
v -0.422000 -0.220000 0.012000
v 0.240000 -0.035000 0.163000
v 0.240000 -0.035000 0.163000
v 0.240000 -0.015000 0.163000
v 0.240000 -0.015000 0.163000
v -0.241071 0.285192 0.000000
v -0.006549 -0.258456 0.143000
v -0.431093 -0.030000 0.177065
v -0.431093 -0.030000 0.177065
v -0.473846 -0.030000 0.059603
v -0.473846 -0.030000 0.059603
v -0.268000 0.012000 0.200000
v -0.268000 0.012000 0.200000
v 0.263835 -0.040000 0.048000
v 0.263835 -0.040000 0.048000
v -0.068117 0.254217 0.089902
v -0.175703 0.224736 0.097115
v -0.175703 0.224736 0.097115
v 0.252881 -0.077293 0.075669
v 0.252923 -0.077017 0.076024
v 0.255714 -0.058415 0.100000
v 0.255714 -0.058415 0.100000
v -0.384108 0.015000 0.159964
v -0.384108 0.015000 0.159964
v 0.214897 0.163459 0.012000
v -0.249421 -0.266780 0.000000
v -0.250000 -0.260000 0.000000
v -0.204660 -0.269250 0.048000
v -0.204660 -0.269250 0.048000
v -0.215340 -0.269250 0.048000
v -0.215340 -0.269250 0.048000
v 0.030860 -0.260661 0.097939
v 0.030860 -0.260661 0.097939
v -0.180000 0.228033 0.048000
v -0.180000 0.228033 0.048000
v -0.175703 -0.224736 0.097115
v -0.175703 -0.224736 0.097115
v 0.024337 0.261191 0.096732
v -0.032851 0.122600 0.143000
v -0.032851 0.122600 0.143000
v 0.089749 -0.089749 0.159000
v -0.215914 -0.209805 0.143000
v 0.240000 -0.015000 0.203000
v 0.240000 -0.015000 0.203000
v -0.089749 -0.089749 0.159000
v -0.244891 0.279561 0.000000
v 0.065153 0.065153 0.175000
v 0.023847 0.089000 0.175000
v 0.023983 -0.257424 0.143000
v -0.204660 0.269250 0.048000
v -0.204660 0.269250 0.048000
v -0.215340 0.269250 0.048000
v -0.215340 0.269250 0.048000
v 0.200000 0.050000 0.012000
v 0.200000 0.050000 0.012000
v 0.200000 0.050000 0.000000
v 0.200000 0.050000 0.000000
v 0.065153 -0.065153 0.175000
v 0.200000 -0.050000 0.012000
v 0.200000 -0.050000 0.012000
v -0.247702 -0.273364 0.000000
v 0.240000 0.035000 0.143000
v 0.240000 0.035000 0.143000
v 0.210000 -0.035000 0.163000
v 0.210000 -0.035000 0.163000
v -0.140000 0.234519 0.012000
v -0.140000 0.234519 0.012000
v -0.140000 0.234519 0.000000
v -0.140000 0.234519 0.000000
v 0.028135 0.105000 0.159000
v 0.035645 -0.267637 0.012000
v 0.056582 -0.264005 0.012000
v 0.185876 0.179701 0.143000
v 0.258087 -0.015275 0.143000
v 0.254484 -0.045611 0.143000
v 0.076865 -0.076865 0.159000
v 0.105000 -0.028135 0.159000
v 0.300463 -0.052412 0.012000
v 0.300463 -0.052412 0.012000
v 0.297529 -0.050891 0.048000
v -0.199319 -0.260000 0.000000
v -0.199319 -0.260000 0.000000
v -0.204660 -0.269250 0.000000
v -0.204660 -0.269250 0.000000
v -0.244891 -0.279561 0.000000
v -0.204660 0.269250 0.000000
v -0.204660 0.269250 0.000000
v -0.215340 0.269250 0.000000
v -0.215340 0.269250 0.000000
v 0.258167 -0.046385 0.100000
v 0.258167 -0.046385 0.100000
v 0.258255 -0.046285 0.099191
v -0.037138 -0.138600 0.143000
v -0.037138 -0.138600 0.143000
v -0.250000 0.260000 0.000000
v -0.250000 0.204377 0.000000
v -0.250000 0.204377 0.000000
v 0.032851 -0.122600 0.159000
v 0.032851 -0.122600 0.159000
v 0.032851 -0.122600 0.159000
v -0.032851 -0.122600 0.159000
v -0.032851 -0.122600 0.159000
v -0.032851 -0.122600 0.159000
v -0.217618 0.296054 0.048000
v -0.223619 0.294241 0.048000
v 0.126100 0.033788 0.155500
v -0.250000 0.204377 0.012000
v -0.250000 0.204377 0.012000
v -0.023847 0.089000 0.175000
v -0.218269 -0.299136 0.000000
v -0.224783 -0.297168 0.000000
v -0.215340 0.250750 0.048000
v -0.215340 0.250750 0.048000
v -0.215340 0.250750 0.000000
v -0.215340 0.250750 0.000000
v -0.199319 -0.260000 0.048000
v -0.199319 -0.260000 0.048000
v -0.204660 -0.250750 0.048000
v -0.204660 -0.250750 0.048000
v -0.140000 -0.291030 0.012000
v -0.140000 -0.291030 0.012000
v -0.140000 -0.291030 0.000000
v -0.140000 -0.291030 0.000000
v 0.263835 0.040000 0.048000
v 0.263835 0.040000 0.048000
v -0.068117 -0.254217 0.089902
v 0.138606 -0.218245 0.143000
v 0.032851 0.122600 0.143000
v 0.032851 0.122600 0.143000
v -0.280000 0.015527 0.180000
v -0.285000 0.015527 0.180000
v -0.285000 0.015527 0.180000
v 0.116855 -0.243403 0.012000
v 0.144750 -0.227920 0.012000
v 0.236717 0.103959 0.143000
v 0.222802 0.131156 0.143000
v 0.089749 0.089749 0.159000
v 0.232678 -0.136970 0.012000
v 0.214897 -0.163459 0.012000
v 0.023847 -0.089000 0.175000
v -0.249421 0.266780 0.000000
v 0.003165 -0.262911 0.092814
v -0.006652 -0.262600 0.091784
v 0.083621 -0.244642 0.143000
v 0.054180 -0.252798 0.143000
v 0.205775 -0.156521 0.143000
v 0.222802 -0.131156 0.143000
v -0.431093 0.045000 0.177065
v -0.431093 0.045000 0.177065
v 0.200000 -0.050000 0.000000
v 0.200000 -0.050000 0.000000
v 0.270750 -0.005340 0.048000
v 0.270750 -0.005340 0.048000
v 0.039082 0.145856 0.155500
v 0.300874 0.050000 0.012000
v 0.300874 0.050000 0.012000
v 0.252755 0.076993 0.076316
v 0.254976 0.064526 0.091853
v -0.246850 -0.216850 0.048000
v -0.246850 -0.216850 0.048000
v -0.280000 -0.015527 0.180000
v -0.280000 -0.015527 0.180000
v -0.280000 -0.205302 0.180000
v -0.280000 -0.205302 0.180000
v -0.204719 -0.299650 0.000000
v 0.247327 -0.075311 0.143000
v -0.220609 -0.208302 0.145710
v 0.240000 -0.035000 0.143000
v 0.240000 -0.035000 0.143000
v 0.258087 0.015275 0.143000
v 0.254484 0.045611 0.143000
v 0.304541 -0.016734 0.000000
v -0.285000 0.012000 0.200000
v -0.285000 0.012000 0.200000
v 0.194116 -0.187667 0.012000
v -0.246850 0.216850 0.048000
v -0.246850 0.216850 0.048000
v -0.221734 0.216850 0.048000
v 0.054180 0.252798 0.143000
v 0.083621 0.244642 0.143000
v -0.221734 -0.216850 0.048000
v -0.024605 -0.262032 0.089900
v 0.236717 -0.103959 0.143000
v -0.268000 -0.012000 0.200000
v -0.268000 -0.012000 0.200000
v -0.285000 -0.012000 0.200000
v -0.285000 -0.012000 0.200000
v 0.289250 0.005340 0.000000
v 0.289250 0.005340 0.000000
v -0.246850 -0.260000 0.048000
v -0.246317 -0.266246 0.048000
v 0.028135 -0.105000 0.159000
v -0.028135 -0.105000 0.159000
v -0.230869 -0.294125 0.000000
v -0.236351 -0.290093 0.000000
v 0.280000 0.010681 0.000000
v 0.280000 0.010681 0.000000
v -0.244733 -0.272311 0.048000
v -0.242144 -0.278020 0.048000
v -0.199319 0.260000 0.000000
v -0.199319 0.260000 0.000000
v -0.105000 0.028135 0.159000
v 0.247327 0.075311 0.143000
v 0.255714 0.058415 0.100000
v 0.255714 0.058415 0.100000
v -0.250000 0.220000 0.012000
v -0.250000 0.220000 0.012000
v -0.384108 0.045000 0.159964
v -0.384108 0.045000 0.159964
v -0.247702 0.273364 0.000000
v -0.037606 -0.260142 0.089584
v 0.258167 0.046385 0.100000
v 0.258167 0.046385 0.100000
v 0.267744 0.046385 0.100000
v 0.267744 0.046385 0.100000
v -0.473846 0.090000 0.059603
v -0.473846 0.090000 0.059603
v 0.053590 0.200000 0.143000
v 0.170624 0.209254 0.012000
v 0.194116 0.187667 0.012000
v -0.076865 -0.076865 0.159000
v -0.360853 -0.205302 0.180000
v 0.267744 -0.046385 0.100000
v 0.267744 -0.046385 0.100000
v -0.238624 -0.283208 0.048000
v -0.036990 0.255879 0.143000
v 0.170624 -0.209254 0.012000
v -0.204660 0.250750 0.000000
v -0.204660 0.250750 0.000000
v -0.204660 -0.250750 0.000000
v -0.204660 -0.250750 0.000000
v 0.092312 0.092312 0.155500
v -0.241071 -0.285192 0.000000
v -0.215340 -0.250750 0.000000
v -0.215340 -0.250750 0.000000
v -0.431093 0.090000 0.177065
v -0.431093 0.090000 0.177065
v -0.285000 -0.015527 0.180000
v -0.285000 -0.015527 0.180000
v 0.251629 0.083310 0.068443
v 0.297162 0.041767 0.062392
v 0.297162 0.041767 0.062392
v -0.052099 -0.258036 0.089233
v -0.211516 -0.299971 0.000000
v -0.430965 -0.218318 0.031226
v -0.430965 -0.218318 0.031226
v 0.144750 0.227920 0.012000
v 0.300699 0.026344 0.048000
v 0.299188 0.040000 0.048000
v 0.299188 0.040000 0.048000
v -0.229226 -0.291438 0.048000
v -0.234276 -0.287724 0.048000
v -0.089000 -0.023847 0.175000
v 0.258255 0.046285 0.099191
v -0.246850 0.260000 0.048000
v -0.238624 0.283208 0.048000
v -0.242144 0.278020 0.048000
v 0.247211 -0.108568 0.012000
v 0.024337 -0.261191 0.096732
v 0.111895 -0.233071 0.143000
v 0.205775 0.156521 0.143000
v 0.300699 -0.026344 0.048000
v 0.035230 0.264515 0.048000
v -0.105000 -0.028135 0.159000
v -0.066915 0.249729 0.143000
v 0.249375 -0.103500 0.012000
v 0.087328 -0.255487 0.012000
vn -0.0000 -0.0000 1.0000
vn 0.0646 0.0646 0.9958
vn 0.0236 0.0409 0.9989
vn 0.0646 -0.0646 0.9958
vn 0.0236 -0.0409 0.9989
vn 0.0883 0.0237 0.9958
vn 0.2146 -0.0000 0.9767
vn 0.0883 -0.0237 0.9958
vn 0.1798 -0.6711 0.7193
vn 0.4913 -0.4913 0.7193
vn 0.6711 -0.1798 0.7193
vn 0.6711 0.1798 0.7193
vn 0.4913 0.4913 0.7193
vn 0.1798 0.6711 0.7193
vn -0.1798 0.6711 0.7193
vn -0.4913 0.4913 0.7193
vn -0.6711 0.1798 0.7193
vn -0.6711 -0.1798 0.7193
vn -0.4913 -0.4913 0.7193
vn -0.1798 -0.6711 0.7193
vn -0.0000 -0.0000 -1.0000
vn -0.9397 -0.0000 0.3420
vn 0.2514 -0.0000 0.9679
vn 0.2624 -0.0000 0.9650
vn -0.2190 -0.0000 0.9757
vn 0.5000 -0.0000 0.8660
vn 0.0659 -0.1142 0.9913
vn 0.0901 -0.0901 0.9918
vn 0.1231 -0.0330 0.9918
vn 0.1231 0.0330 0.9918
vn 0.0901 0.0901 0.9918
vn 0.0659 0.1142 0.9913
vn 0.8475 0.5118 0.1406
vn 0.8251 0.5579 0.0889
vn 0.9021 0.4227 0.0872
vn 0.1543 -0.9840 0.0889
vn 0.1509 -0.9847 0.0871
vn 0.2183 -0.9720 0.0875
vn 0.9808 -0.1726 0.0913
vn 0.9518 -0.2929 0.0910
vn 0.9681 -0.2343 0.0888
vn 0.8473 -0.5128 0.1386
vn 0.8102 -0.5210 0.2687
vn 0.9120 -0.4007 0.0879
vn 0.9436 -0.3181 0.0915
vn 0.9626 -0.2565 0.0870
vn 0.2079 -0.9743 0.0871
vn 0.0965 -0.9916 0.0865
vn 0.0784 -0.9921 0.0979
vn 0.1130 -0.9870 0.1142
vn 0.0083 -0.9965 0.0837
vn -0.0252 -0.9954 0.0928
vn -0.0400 -0.9959 0.0807
vn -0.0948 -0.9920 0.0833
vn -0.1424 -0.9854 0.0931
vn -0.1453 -0.9861 0.0804
vn -0.1885 -0.9783 0.0859
vn -0.2317 -0.9686 0.0905
vn -0.2423 -0.9663 0.0871
vn -0.2423 0.9663 0.0871
vn -0.2317 0.9686 0.0905
vn -0.1885 0.9783 0.0859
vn -0.1424 0.9854 0.0931
vn -0.1453 0.9861 0.0804
vn -0.0948 0.9920 0.0833
vn -0.0252 0.9954 0.0928
vn -0.0400 0.9959 0.0807
vn 0.0083 0.9965 0.0837
vn 0.0925 0.9914 0.0921
vn 0.0657 0.9945 0.0815
vn 0.1264 0.9881 0.0876
vn 0.2107 0.9734 0.0897
vn 0.1508 0.9847 0.0873
vn 0.9378 0.3339 0.0951
vn 0.9123 0.4002 0.0873
vn 0.9482 0.3020 0.0987
vn 0.9525 0.2915 0.0880
vn 0.9599 0.2665 0.0873
vn 0.9699 0.2207 0.1025
vn 0.9794 0.1798 0.0923
vn 0.9806 0.1757 0.0872
vn 0.9879 0.1253 0.0911
vn 0.9944 0.0587 0.0878
vn 0.9901 0.1088 0.0882
vn 0.9807 -0.1752 0.0872
vn 0.9891 -0.1178 0.0881
vn 0.9945 -0.0589 0.0871
vn 0.9948 0.0522 0.0872
vn 0.9945 -0.0545 0.0898
vn 0.9900 -0.1041 0.0951
vn 0.8251 -0.5579 0.0889
vn 0.9021 -0.4227 0.0872
vn 0.8585 -0.5054 0.0872
vn 0.7929 -0.6031 0.0872
vn 0.7162 -0.6924 0.0872
vn 0.6295 -0.7721 0.0872
vn 0.5341 -0.8409 0.0872
vn 0.4311 -0.8981 0.0872
vn 0.3222 -0.9426 0.0872
vn 0.1509 0.9847 0.0871
vn 0.2184 0.9720 0.0872
vn 0.3222 0.9426 0.0872
vn 0.4311 0.8981 0.0872
vn 0.5341 0.8409 0.0872
vn 0.6295 0.7721 0.0872
vn 0.7162 0.6924 0.0872
vn 0.7929 0.6031 0.0872
vn 0.8585 0.5054 0.0872
vn -0.9962 -0.0000 0.0872
vn 0.9962 0.0009 0.0872
vn 0.9962 -0.0009 0.0872
vn -0.1033 0.5756 0.8112
vn -0.1035 0.5745 0.8119
vn -0.1034 0.5756 0.8111
vn -0.1033 -0.5756 0.8112
vn -0.1034 -0.5756 0.8111
vn -0.1035 -0.5743 0.8121
vn 0.0893 -0.9922 0.0871
vn 0.0897 -0.9950 0.0435
vn 0.1315 -0.9875 0.0872
vn 0.1318 -0.9896 0.0582
vn -0.0000 -0.9962 0.0872
vn -0.1300 -0.9876 0.0879
vn -0.0873 -0.9923 0.0878
vn -0.9953 -0.0425 0.0871
vn -0.9981 -0.0425 0.0435
vn -0.9995 -0.0000 0.0301
vn -0.0379 -0.9983 0.0435
vn -0.0378 -0.9955 0.0872
vn -0.2065 -0.9775 0.0435
vn -0.2059 -0.9747 0.0872
vn -0.3692 -0.9283 0.0435
vn -0.3682 -0.9257 0.0872
vn -0.5212 -0.8523 0.0435
vn -0.5197 -0.8499 0.0872
vn -0.6582 -0.7516 0.0435
vn -0.6563 -0.7495 0.0872
vn -0.7760 -0.6292 0.0435
vn -0.7738 -0.6274 0.0872
vn -0.8714 -0.4886 0.0435
vn -0.8690 -0.4872 0.0872
vn -0.9416 -0.3338 0.0435
vn -0.9390 -0.3328 0.0872
vn -0.9846 -0.1693 0.0435
vn -0.9818 -0.1689 0.0872
vn 0.1318 0.9896 0.0582
vn 0.1315 0.9875 0.0872
vn 0.0893 0.9922 0.0871
vn 0.0897 0.9950 0.0435
vn -0.9981 0.0425 0.0435
vn -0.9953 0.0425 0.0871
vn -0.9846 0.1693 0.0435
vn -0.9818 0.1689 0.0872
vn -0.9416 0.3338 0.0435
vn -0.9390 0.3328 0.0872
vn -0.8714 0.4886 0.0435
vn -0.8690 0.4872 0.0872
vn -0.7760 0.6292 0.0435
vn -0.7738 0.6274 0.0872
vn -0.6582 0.7516 0.0435
vn -0.6563 0.7495 0.0872
vn -0.5212 0.8523 0.0435
vn -0.5197 0.8499 0.0872
vn -0.3692 0.9283 0.0435
vn -0.3682 0.9257 0.0872
vn -0.2065 0.9775 0.0435
vn -0.2059 0.9747 0.0872
vn -0.0379 0.9983 0.0435
vn -0.0378 0.9955 0.0872
vn -0.0000 0.9962 0.0872
vn -0.0873 0.9923 0.0878
vn -0.1300 0.9876 0.0879
vn -0.2578 0.9623 0.0872
vn -0.2578 -0.9622 0.0872
vn -0.2578 -0.9623 0.0872
vn -0.9063 -0.0000 -0.4226
vn -0.4226 -0.0000 0.9063
vn 0.6798 0.6798 0.2753
vn 0.7044 0.7044 0.0872
vn 0.7044 -0.7044 0.0872
vn 0.6798 -0.6798 0.2753
vn 0.9837 -0.1498 0.0995
vn 0.9822 -0.1639 0.0913
vn 0.9866 -0.1339 0.0932
vn 0.9883 -0.1408 0.0595
vn 0.9933 -0.0795 0.0839
vn 0.9953 -0.0891 0.0377
vn 0.9975 -0.0436 0.0549
vn 0.9962 -0.0000 0.0872
vn 0.9821 0.1672 0.0871
vn 0.9836 0.1503 0.1002
vn 0.9892 0.1366 0.0532
vn 0.9860 0.1358 0.0967
vn 0.9953 0.0928 0.0293
vn 0.9933 0.0765 0.0872
vn 0.9975 0.0436 0.0549
vn 0.6409 0.6409 0.4226
vn -0.0000 -0.9926 0.1218
vn -0.0000 -0.9925 0.1219
vn 0.9815 0.1495 0.1198
vn -0.0000 0.9926 0.1218
vn -0.0000 0.9925 0.1219
vn 0.6409 -0.6409 0.4226
vn 0.6409 -0.6408 0.4226
vn 0.9815 -0.1495 0.1198
vn 0.4913 -0.4913 0.7192
vn 0.3536 -0.6124 0.7071
vn -0.3536 -0.6124 0.7071
vn -0.3536 0.6124 0.7071
vn 0.3536 0.6124 0.7071
vn 0.4913 0.4913 0.7192
vn 0.6711 0.1798 0.7192
vn 0.6711 -0.1798 0.7192
vn -0.9659 -0.2588 -0.0000
vn -0.0000 -1.0000 -0.0000
vn 0.9659 -0.2588 -0.0000
vn -0.9659 0.2588 -0.0000
vn -0.0000 1.0000 -0.0000
vn 0.9659 0.2588 -0.0000
vn 1.0000 -0.0000 -0.0000
vn -1.0000 -0.0000 -0.0000
vn -0.0000 0.9848 0.1737
vn -0.0000 0.9848 0.1736
vn -0.0000 -0.9848 0.1736
vn 0.3420 -0.0000 0.9397
vn -0.3420 -0.0000 -0.9397
vn 0.9940 0.1096 -0.0000
vn 0.9984 0.0563 -0.0035
vn 0.9999 -0.0000 -0.0141
vn 0.9986 -0.0535 -0.0047
vn 0.9926 -0.1209 -0.0096
vn 0.0897 -0.9960 -0.0000
vn -0.0379 -0.9993 -0.0000
vn -0.2067 -0.9784 -0.0000
vn -0.3696 -0.9292 -0.0000
vn -0.5217 -0.8531 -0.0000
vn -0.6588 -0.7523 -0.0000
vn -0.7768 -0.6298 -0.0000
vn -0.8723 -0.4890 -0.0000
vn -0.9425 -0.3341 -0.0000
vn -0.9855 -0.1695 -0.0000
vn -0.9991 -0.0426 -0.0000
vn 0.2588 0.9659 -0.0000
vn 0.1320 -0.9912 -0.0000
vn -0.9991 0.0426 -0.0000
vn -0.9855 0.1695 -0.0000
vn -0.9425 0.3341 -0.0000
vn -0.8723 0.4890 -0.0000
vn -0.7768 0.6298 -0.0000
vn -0.6588 0.7523 -0.0000
vn -0.5217 0.8531 -0.0000
vn -0.3696 0.9292 -0.0000
vn -0.2067 0.9784 -0.0000
vn -0.0379 0.9993 -0.0000
vn 0.0897 0.9960 -0.0000
vn 0.1320 0.9912 -0.0000
vn 0.2643 -0.9644 -0.0000
vn -0.8660 0.5000 -0.0000
vn -0.8660 -0.5000 -0.0000
vn 0.8660 -0.5000 -0.0000
vn 0.8660 0.5000 -0.0000
vn 0.5000 0.8660 -0.0000
vn -0.5000 0.8660 -0.0000
vn -0.5000 -0.8660 -0.0000
vn 0.5000 -0.8660 -0.0000
s 0
usemtl colour_abb_orange.003
f 437//1 429//1 466//1
f 466//1 429//1 431//1
s 1
f 5//1 6//1 7//2
s 0
f 504//1 618//1 10//1
s 1
f 11//1 443//1 796//3
f 11//1 796//3 758//1
f 543//1 544//1 17//4
s 0
f 452//1 565//1 671//1
s 1
f 452//1 671//1 454//5
s 0
f 22//1 641//1 24//1
f 24//1 641//1 25//1
f 24//1 25//1 26//1
s 1
f 722//1 28//1 454//5
f 29//6 510//1 641//1
f 540//1 516//1 620//7
f 6//1 527//1 7//2
f 7//2 527//1 528//1
f 7//2 528//1 796//3
f 796//3 528//1 569//1
f 796//3 569//1 758//1
s 0
f 22//1 37//1 641//1
f 641//1 37//1 38//1
s 1
f 641//1 38//1 29//6
f 29//6 38//1 39//1
f 29//6 39//1 7//2
f 7//2 39//1 714//1
f 7//2 714//1 5//1
f 620//7 516//1 41//7
s 0
f 444//1 504//1 443//1
f 443//1 504//1 10//1
s 1
f 443//1 10//1 796//3
f 510//1 29//6 511//1
f 511//1 29//6 44//8
f 511//1 44//8 25//1
f 25//1 44//8 45//1
s 0
f 25//1 45//1 26//1
s 1
f 454//5 28//1 17//4
f 17//4 28//1 705//1
f 17//4 705//1 543//1
f 516//1 517//1 41//7
f 41//7 517//1 564//1
f 41//7 564//1 843//1
s 0
f 843//1 564//1 504//1
f 843//1 504//1 50//1
f 50//1 504//1 444//1
f 51//1 52//1 671//1
f 671//1 52//1 53//1
s 1
f 671//1 53//1 454//5
f 454//5 53//1 54//1
f 454//5 54//1 722//1
f 544//1 724//1 17//4
f 17//4 724//1 725//1
f 17//4 725//1 44//8
f 44//8 725//1 57//1
f 44//8 57//1 45//1
f 540//1 620//7 671//1
f 671//1 620//7 460//1
s 0
f 671//1 460//1 51//1
s 1
f 59//9 770//9 636//10
f 636//10 770//9 654//10
f 636//10 654//10 63//11
f 63//11 654//10 655//11
f 63//11 655//11 556//12
f 556//12 655//11 475//12
f 556//12 475//12 67//13
f 67//13 475//12 476//13
f 67//13 476//13 626//14
f 626//14 476//13 648//14
f 626//14 648//14 71//15
f 71//15 648//14 72//15
f 71//15 72//15 525//16
f 525//16 72//15 558//16
f 525//16 558//16 526//17
f 526//17 558//16 76//17
f 526//17 76//17 831//18
f 831//18 76//17 78//18
f 831//18 78//18 387//19
f 387//19 78//18 799//19
f 387//19 799//19 388//20
f 388//20 799//19 771//20
f 388//20 771//20 59//9
f 59//9 771//20 770//9
s 0
f 545//21 547//21 578//21
f 553//21 87//21 537//21
f 537//21 87//21 632//21
f 632//21 377//21 378//21
f 424//21 93//21 637//21
f 637//21 93//21 95//21
f 637//21 95//21 96//21
f 449//21 784//21 578//21
f 578//21 784//21 685//21
f 578//21 685//21 545//21
f 545//21 685//21 645//21
f 545//21 645//21 561//21
f 469//21 377//21 645//21
f 645//21 377//21 632//21
f 645//21 632//21 561//21
f 561//21 632//21 637//21
f 561//21 637//21 699//21
f 699//21 637//21 649//21
f 603//21 427//21 632//21
f 632//21 427//21 428//21
f 632//21 428//21 537//21
f 108//21 845//21 637//21
f 637//21 845//21 650//21
f 637//21 650//21 649//21
f 378//21 498//21 632//21
f 632//21 498//21 499//21
f 632//21 499//21 113//21
f 113//21 114//21 632//21
f 632//21 114//21 115//21
f 632//21 115//21 603//21
f 96//21 116//21 637//21
f 637//21 116//21 717//21
f 637//21 717//21 753//21
f 753//21 805//21 637//21
f 637//21 805//21 712//21
f 637//21 712//21 108//21
f 786//22 490//22 492//22
f 451//22 823//22 539//22
f 539//22 823//22 416//22
f 539//22 602//22 370//22
f 416//22 823//22 417//22
f 417//22 823//22 490//22
f 417//22 490//22 602//22
f 602//22 490//22 786//22
f 602//22 786//22 370//22
f 539//22 370//22 451//22
f 451//22 370//22 389//22
f 451//22 389//22 492//22
f 492//22 389//22 391//22
f 492//22 391//22 786//22
s 1
f 133//23 550//24 709//1
f 709//1 550//24 136//25
f 709//1 136//25 817//1
f 817//1 136//25 800//25
f 817//1 800//25 740//1
f 740//1 800//25 742//1
f 550//24 133//23 551//26
f 551//26 133//23 433//26
s 0
f 435//26 139//26 140//26
f 140//26 745//26 435//26
s 1
f 435//26 745//26 620//7
f 435//26 620//7 433//26
f 433//26 620//7 41//7
f 433//26 41//7 551//26
f 487//1 489//27 397//1
f 397//1 489//27 148//28
f 397//1 148//28 398//1
f 398//1 148//28 150//29
f 398//1 150//29 684//1
f 684//1 150//29 152//30
f 684//1 152//30 810//1
f 810//1 152//30 154//31
f 810//1 154//31 155//1
f 155//1 154//31 156//32
f 157//33 88//34 107//35
f 158//36 104//37 110//38
f 653//39 744//40 600//41
f 160//42 161//43 761//44
f 761//44 161//43 597//45
f 761//44 597//45 744//40
f 744//40 597//45 598//46
f 744//40 598//46 600//41
f 723//47 627//48 837//49
f 158//36 110//38 610//50
f 837//49 627//48 720//51
f 720//51 627//48 585//52
f 720//51 585//52 167//53
f 167//53 585//52 760//54
f 760//54 585//52 459//55
f 760//54 459//55 789//56
f 789//56 459//55 821//57
f 821//57 459//55 58//58
f 821//57 58//58 704//59
f 594//60 49//61 523//62
f 523//62 49//61 804//63
f 523//62 804//63 524//64
f 524//64 804//63 455//65
f 455//65 804//63 42//66
f 455//65 42//66 456//67
f 456//67 42//66 515//68
f 515//68 42//66 12//69
f 515//68 12//69 178//70
f 178//70 12//69 382//71
f 382//71 12//69 757//72
f 382//71 757//72 841//73
f 181//74 713//75 735//76
f 735//76 713//75 781//77
f 735//76 781//77 736//78
f 736//78 781//77 782//79
f 782//79 781//77 790//80
f 790//80 781//77 749//81
f 790//80 749//81 832//82
f 832//82 749//81 748//83
f 832//82 748//83 703//84
f 600//41 668//85 653//39
f 653//39 668//85 670//86
f 653//39 670//86 652//87
f 703//84 748//83 385//88
f 385//88 748//83 652//87
f 385//88 652//87 386//89
f 386//89 652//87 670//86
f 386//89 670//86 593//90
f 844//91 160//42 836//92
f 836//92 160//42 761//44
f 836//92 761//44 716//93
f 716//93 761//44 56//93
f 716//93 56//93 117//94
f 117//94 56//93 55//94
f 117//94 55//94 118//95
f 118//95 55//94 16//95
f 118//95 16//95 119//96
f 119//96 16//95 15//96
f 119//96 15//96 120//97
f 120//97 15//96 46//97
f 120//97 46//97 711//98
f 711//98 46//97 838//98
f 711//98 838//98 109//99
f 109//99 838//98 27//99
f 109//99 27//99 110//38
f 110//38 27//99 723//47
f 110//38 723//47 610//50
f 610//50 723//47 837//49
f 90//100 841//73 91//101
f 91//101 841//73 757//72
f 91//101 757//72 111//102
f 111//102 757//72 14//102
f 111//102 14//102 112//103
f 112//103 14//102 36//103
f 112//103 36//103 825//104
f 825//104 36//103 35//104
f 825//104 35//104 797//105
f 797//105 35//104 34//105
f 797//105 34//105 798//106
f 798//106 34//105 651//106
f 798//106 651//106 105//107
f 105//107 651//106 839//107
f 105//107 839//107 106//108
f 106//108 839//107 40//108
f 106//108 40//108 107//35
f 107//35 40//108 713//75
f 107//35 713//75 157//33
f 157//33 713//75 181//74
s 0
f 192//1 501//1 191//1
f 191//1 501//1 730//1
f 191//1 730//1 190//1
f 190//1 730//1 479//1
f 190//1 479//1 481//1
f 197//1 828//1 187//1
f 192//1 199//1 501//1
f 501//1 199//1 840//1
f 501//1 840//1 373//1
f 373//1 840//1 202//1
f 373//1 202//1 375//1
f 375//1 202//1 197//1
f 375//1 197//1 481//1
f 481//1 197//1 187//1
f 481//1 187//1 190//1
f 615//109 560//109 441//109
f 412//110 611//110 413//110
f 606//1 440//1 694//1
f 694//1 440//1 559//1
f 694//1 559//1 696//1
f 696//1 559//1 518//1
f 212//1 213//1 608//1
f 608//1 213//1 463//1
f 559//1 216//1 518//1
f 518//1 216//1 738//1
f 518//1 738//1 520//1
f 520//1 738//1 219//1
f 520//1 219//1 220//1
f 463//1 464//1 608//1
f 608//1 464//1 549//1
f 608//1 549//1 606//1
f 606//1 549//1 442//1
f 606//1 442//1 440//1
f 220//1 224//1 520//1
f 520//1 224//1 777//1
f 520//1 777//1 608//1
f 608//1 777//1 803//1
f 608//1 803//1 212//1
f 227//1 228//1 530//1
f 530//1 228//1 230//1
f 228//1 755//1 230//1
f 230//1 755//1 756//1
f 230//1 756//1 393//1
f 393//1 756//1 612//1
f 393//1 612//1 395//1
f 395//1 612//1 577//1
f 395//1 577//1 628//1
f 628//1 577//1 535//1
f 628//1 535//1 630//1
f 630//1 535//1 536//1
f 630//1 536//1 682//1
f 571//1 834//1 630//1
f 630//1 834//1 835//1
f 630//1 835//1 530//1
f 530//1 835//1 534//1
f 530//1 534//1 227//1
f 682//1 246//1 630//1
f 630//1 246//1 572//1
f 630//1 572//1 571//1
f 180//111 383//111 381//111
f 596//109 236//109 613//109
f 173//112 575//112 172//112
f 172//112 575//112 595//112
f 173//112 174//112 575//112
f 575//112 174//112 175//112
f 575//112 175//112 176//112
f 179//113 384//113 616//113
f 616//114 384//114 575//114
f 616//112 575//112 177//112
f 177//112 575//112 176//112
f 166//115 721//115 439//115
f 439//115 721//115 168//115
f 439//115 168//115 169//115
f 169//115 170//115 439//115
f 439//115 170//115 171//115
f 439//115 171//115 204//115
f 166//115 439//115 164//115
f 164//116 439//116 414//116
f 164//117 414//117 165//117
s 1
f 223//118 250//119 206//120
f 206//120 250//119 103//121
f 103//121 104//37 206//120
f 206//120 104//37 158//36
f 206//120 158//36 207//120
s 0
f 138//122 737//122 741//122
s 1
f 741//122 737//122 759//123
f 741//122 759//123 144//124
s 0
f 85//122 548//122 824//122
f 824//122 548//122 737//122
f 824//122 737//122 491//122
f 491//122 737//122 138//122
s 1
f 768//125 217//109 251//126
f 251//126 217//109 84//127
f 250//119 223//118 252//128
f 252//128 223//118 222//129
f 252//128 222//129 253//130
f 253//130 222//129 221//131
f 253//130 221//131 254//132
f 254//132 221//131 215//133
f 254//132 215//133 255//134
f 255//134 215//133 829//135
f 255//134 829//135 256//136
f 256//136 829//135 830//137
f 256//136 830//137 257//138
f 257//138 830//137 226//139
f 257//138 226//139 258//140
f 258//140 226//139 225//141
f 258//140 225//141 259//142
f 259//142 225//141 776//143
f 259//142 776//143 260//144
f 260//144 776//143 769//145
f 260//144 769//145 251//126
f 251//126 769//145 768//125
f 841//73 90//100 470//146
f 248//147 841//73 576//147
f 576//147 841//73 470//146
f 576//147 470//146 238//148
f 238//148 470//146 261//149
f 262//150 833//151 263//152
f 263//152 833//151 533//153
f 263//152 533//153 264//154
f 264//154 533//153 245//155
f 264//154 245//155 265//156
f 265//156 245//155 244//157
f 265//156 244//157 266//158
f 266//158 244//157 243//159
f 266//158 243//159 267//160
f 267//160 243//159 242//161
f 267//160 242//161 268//162
f 268//162 242//161 247//163
f 268//162 247//163 269//164
f 269//164 247//163 683//165
f 269//164 683//165 270//166
f 270//166 683//165 241//167
f 270//166 241//167 271//168
f 271//168 241//167 240//169
f 271//168 240//169 261//149
f 261//149 240//169 238//148
f 231//109 833//151 785//127
f 785//127 833//151 262//150
s 0
f 98//170 448//170 754//170
f 754//170 448//170 450//170
s 1
f 141//171 232//172 134//170
f 134//170 232//172 754//170
s 0
f 134//170 754//170 563//170
f 563//170 754//170 450//170
f 563//170 450//170 493//170
s 1
f 49//61 594//60 568//173
f 568//173 594//60 249//173
s 0
f 249//173 234//173 568//173
s 1
f 568//173 234//173 232//172
f 568//173 232//172 141//171
f 759//123 205//174 614//175
f 144//124 759//123 33//175
f 33//175 759//123 614//175
f 33//175 614//175 58//58
f 58//58 614//175 704//59
s 0
f 97//176 579//176 124//176
f 124//176 579//176 125//176
s 1
f 123//177 122//177 136//25
f 136//25 122//177 800//25
f 272//178 552//179 157//33
f 157//33 552//179 88//34
f 657//180 658//181 844//91
f 844//91 658//181 160//42
f 273//182 656//183 409//184
f 409//184 656//183 423//185
f 409//184 423//185 200//186
f 423//185 274//187 200//186
f 200//186 274//187 275//188
f 200//186 275//188 276//189
f 86//190 554//191 733//192
f 733//192 554//191 827//193
f 733//192 827//193 277//194
f 277//194 827//193 826//195
f 277//194 826//195 278//196
f 278//196 826//195 276//189
f 278//196 276//189 279//189
f 279//189 276//189 275//188
s 0
f 791//1 793//1 783//1
f 184//197 280//197 183//197
f 183//197 280//197 820//197
f 183//197 820//197 182//197
s 1
f 182//197 820//197 272//178
f 182//197 272//178 818//197
f 818//197 272//178 157//33
s 0
f 792//198 185//198 186//198
f 792//199 186//199 819//199
f 819//199 186//199 702//199
f 819//199 702//199 198//199
s 1
f 827//193 554//191 281//200
s 0
f 159//1 802//1 669//1
f 189//201 188//201 801//201
f 189//202 801//202 592//202
f 592//202 801//202 410//202
f 592//202 410//202 408//202
s 1
f 161//43 160//42 658//181
s 0
f 282//203 599//203 411//203
f 411//203 599//203 163//203
s 1
f 411//203 163//204 658//181
f 658//181 163//204 162//204
f 658//181 162//204 161//43
f 273//182 409//184 283//205
f 284//206 677//207 147//206
f 147//206 677//207 145//207
f 681//208 623//19 672//208
f 672//208 623//19 31//19
f 623//19 570//18 31//19
f 31//19 570//18 32//18
f 570//18 379//17 32//18
f 32//18 379//17 47//17
f 379//17 380//16 47//17
f 47//17 380//16 48//16
f 380//16 506//209 48//16
f 48//16 506//209 505//209
f 405//210 715//211 403//210
f 403//210 715//211 153//211
f 715//211 461//212 153//211
f 153//211 461//212 151//212
f 461//212 462//213 151//212
f 151//212 462//213 149//213
f 462//213 284//206 149//213
f 149//213 284//206 147//206
s 0
f 70//1 406//1 557//1
f 557//1 406//1 507//1
f 557//1 507//1 74//1
f 74//1 507//1 290//1
f 74//1 290//1 780//1
f 780//1 290//1 289//1
f 780//1 289//1 842//1
f 842//1 289//1 288//1
f 842//1 288//1 80//1
f 80//1 288//1 287//1
f 80//1 287//1 82//1
f 82//1 287//1 680//1
f 82//1 680//1 60//1
f 60//1 680//1 676//1
f 60//1 676//1 62//1
f 62//1 676//1 619//1
f 62//1 619//1 64//1
f 64//1 619//1 295//1
f 64//1 295//1 66//1
f 66//1 295//1 294//1
f 66//1 294//1 68//1
f 68//1 294//1 293//1
f 68//1 293//1 70//1
f 70//1 293//1 406//1
s 1
f 7//2 796//3 154//31
f 154//31 796//3 156//32
f 29//6 7//2 152//30
f 152//30 7//2 154//31
f 44//8 29//6 150//29
f 150//29 29//6 152//30
f 17//4 44//8 148//28
f 148//28 44//8 150//29
f 454//5 17//4 489//27
f 489//27 17//4 148//28
s 0
f 21//214 146//214 18//214
f 18//214 146//214 488//214
f 18//214 488//214 678//214
f 566//215 453//215 679//215
f 679//215 453//215 285//215
f 20//216 19//216 286//216
f 407//217 404//217 706//217
f 706//217 404//217 732//217
f 706//217 732//217 13//217
f 617//218 508//218 707//218
f 707//218 508//218 292//218
f 9//219 8//219 291//219
f 434//220 591//220 436//220
f 436//220 591//220 297//220
f 765//221 751//221 816//221
f 816//221 751//221 710//221
f 296//1 752//1 763//1
f 763//1 752//1 764//1
f 135//222 299//222 708//222
f 708//223 299//223 590//223
f 708//223 590//223 142//223
f 298//224 137//224 762//224
f 762//224 137//224 739//224
f 762//224 739//224 143//224
f 815//225 727//225 392//225
f 392//225 727//225 787//225
f 795//218 814//218 390//218
f 390//218 814//218 132//218
f 371//226 794//226 369//226
f 369//226 794//226 131//226
f 726//215 372//215 121//215
f 121//215 372//215 129//215
f 302//22 303//22 300//22
f 300//22 303//22 301//22
f 304//225 587//225 601//225
f 601//225 587//225 130//225
f 486//218 483//218 538//218
f 538//218 483//218 128//218
f 307//226 485//226 415//226
f 415//226 485//226 126//226
f 586//215 589//215 418//215
f 418//215 589//215 127//215
f 306//22 588//22 484//22
f 484//22 588//22 305//22
f 308//221 728//221 633//221
f 633//221 728//221 94//221
f 310//218 635//218 734//218
f 734//218 635//218 89//218
s 1
f 445//227 733//192 447//228
f 447//228 733//192 277//194
f 277//194 278//196 447//228
f 447//228 278//196 312//229
f 447//228 312//229 750//230
f 423//185 425//231 274//187
f 274//187 425//231 750//230
f 274//187 750//230 275//188
f 275//188 750//230 312//229
s 0
f 309//215 314//215 638//215
f 638//215 314//215 92//215
f 774//21 446//21 766//21
f 766//21 446//21 311//21
f 766//21 311//21 478//21
f 478//21 311//21 313//21
f 478//21 313//21 503//21
f 503//21 313//21 426//21
f 503//21 426//21 399//21
f 399//21 426//21 729//21
f 399//21 729//21 401//21
f 401//21 729//21 634//21
f 401//21 634//21 774//21
f 774//21 634//21 446//21
s 1
f 321//232 250//119 252//128
f 321//232 252//128 322//233
f 322//233 252//128 253//130
f 322//233 253//130 688//234
f 688//234 253//130 254//132
f 688//234 254//132 324//235
f 324//235 254//132 255//134
f 324//235 255//134 325//236
f 325//236 255//134 256//136
f 325//236 256//136 773//237
f 773//237 256//136 257//138
f 773//237 257//138 327//238
f 327//238 257//138 258//140
f 327//238 258//140 663//239
f 663//239 258//140 259//142
f 663//239 259//142 639//240
f 639//240 259//142 260//144
f 639//240 260//144 604//241
f 604//241 260//144 251//126
f 604//241 251//126 605//242
f 605//242 251//126 332//221
f 332//221 251//126 84//127
f 332//221 84//127 546//221
s 0
f 421//243 419//243 562//243
f 562//243 419//243 83//243
f 700//220 333//220 698//220
f 698//220 333//220 101//220
s 1
f 321//232 701//244 250//119
f 250//119 701//244 103//121
s 0
f 689//21 772//21 494//21
f 329//21 330//21 496//21
f 496//21 330//21 331//21
f 496//21 331//21 812//21
f 812//21 331//21 420//21
f 812//21 420//21 808//21
f 808//21 420//21 422//21
f 808//21 422//21 659//21
f 661//21 743//21 822//21
f 661//21 822//21 494//21
f 494//21 822//21 323//21
f 494//21 323//21 689//21
f 659//21 422//21 661//21
f 661//21 422//21 334//21
f 661//21 334//21 743//21
f 772//21 326//21 494//21
f 494//21 326//21 811//21
f 494//21 811//21 496//21
f 496//21 811//21 328//21
f 496//21 328//21 329//21
s 1
f 673//245 262//150 263//152
f 673//245 263//152 719//246
f 719//246 263//152 264//154
f 719//246 264//154 788//247
f 788//247 264//154 265//156
f 788//247 265//156 344//248
f 344//248 265//156 266//158
f 344//248 266//158 584//249
f 584//249 266//158 267//160
f 584//249 267//160 541//250
f 541//250 267//160 268//162
f 541//250 268//162 542//251
f 542//251 268//162 269//164
f 542//251 269//164 522//252
f 522//252 269//164 270//166
f 522//252 270//166 457//253
f 457//253 270//166 271//168
f 457//253 271//168 458//254
f 458//254 271//168 261//149
f 458//254 261//149 351//255
f 513//256 351//255 470//146
f 470//146 351//255 261//149
s 0
f 647//220 514//220 644//220
f 644//220 514//220 102//220
f 354//257 353//257 686//257
f 686//257 353//257 100//257
s 1
f 262//150 673//245 785//127
f 785//127 673//245 675//221
f 785//127 675//221 99//221
s 0
f 664//21 352//21 779//21
f 779//21 352//21 646//21
f 779//21 646//21 807//21
f 807//21 646//21 674//21
f 807//21 674//21 692//21
f 666//21 347//21 348//21
f 342//21 343//21 531//21
f 348//21 349//21 666//21
f 666//21 349//21 350//21
f 666//21 350//21 664//21
f 664//21 350//21 567//21
f 664//21 567//21 352//21
f 692//21 674//21 531//21
f 531//21 674//21 341//21
f 531//21 341//21 342//21
f 343//21 624//21 531//21
f 531//21 624//21 345//21
f 531//21 345//21 666//21
f 666//21 345//21 346//21
f 666//21 346//21 347//21
f 555//1 65//1 625//1
f 75//1 77//1 79//1
f 73//1 75//1 687//1
f 687//1 75//1 555//1
f 687//1 555//1 69//1
f 69//1 555//1 625//1
f 61//1 555//1 718//1
f 718//1 555//1 75//1
f 718//1 75//1 81//1
f 81//1 75//1 79//1
f 357//218 693//218 394//218
f 394//218 693//218 690//218
f 356//258 806//258 396//258
f 396//258 806//258 233//258
f 355//259 778//259 629//259
f 629//259 778//259 235//259
f 359//215 665//215 631//215
f 631//215 665//215 237//215
f 532//260 667//260 529//260
f 529//260 667//260 239//260
f 358//261 360//261 691//261
f 691//261 360//261 229//261
f 662//218 495//218 607//218
f 607//218 495//218 609//218
f 339//258 340//258 695//258
f 695//258 340//258 208//258
f 338//259 660//259 697//259
f 697//259 660//259 209//259
f 337//215 809//215 519//215
f 519//215 809//215 210//215
f 497//260 813//260 521//260
f 521//260 813//260 211//260
f 335//261 336//261 214//261
f 214//261 336//261 218//261
f 400//262 731//262 502//262
f 502//262 731//262 193//262
f 318//263 500//263 477//263
f 477//263 500//263 374//263
f 317//221 201//221 767//221
f 767//221 201//221 203//221
f 316//264 376//264 775//264
f 775//264 376//264 196//264
f 315//265 482//265 402//265
f 402//265 482//265 195//265
f 320//220 480//220 319//220
f 319//220 480//220 194//220
f 512//221 642//221 509//221
f 509//221 642//221 573//221
f 430//221 509//221 432//221
f 432//221 509//221 573//221
f 432//221 573//221 471//221
f 471//221 573//221 474//221
f 581//215 643//215 747//215
f 747//215 643//215 43//215
f 640//220 438//220 746//220
f 746//220 438//220 465//220
f 580//220 746//220 583//220
f 583//220 746//220 465//220
f 583//220 465//220 621//220
f 621//220 465//220 467//220
f 2//218 1//218 30//218
f 30//218 1//218 23//218
f 361//1 365//1 574//1
f 574//1 365//1 366//1
f 622//215 473//215 582//215
f 582//215 473//215 362//215
f 472//218 368//218 4//218
f 4//218 368//218 3//218
f 367//1 468//1 364//1
f 364//1 468//1 363//1
