# Blender 3.3.21
# www.blender.org
mtllib link_2.mtl
o Link_2
v -0.023500 0.078000 0.507544
v -0.023500 0.078000 0.450456
v -0.023500 0.008500 0.510773
v -0.023500 0.008500 0.447227
v -0.005000 -0.090000 -0.008660
v -0.006428 -0.090000 -0.007660
v 0.003420 -0.090000 0.009397
v 0.005000 -0.090000 -0.008660
v 0.003420 -0.090000 -0.009397
v 0.006428 -0.090000 0.007660
v 0.005000 -0.090000 0.008660
v 0.000000 -0.090000 -0.010000
v -0.001736 -0.090000 -0.009848
v -0.003420 -0.090000 -0.009397
v 0.001736 -0.090000 -0.009848
v -0.007660 -0.090000 -0.006428
v -0.005000 -0.090000 0.008660
v -0.003420 -0.090000 0.009397
v -0.001736 -0.090000 0.009848
v 0.000000 -0.090000 0.010000
v 0.001736 -0.090000 0.009848
v 0.006428 -0.090000 -0.007660
v 0.007660 -0.090000 0.006428
v 0.008660 -0.090000 0.005000
v 0.009397 -0.090000 0.003420
v 0.009848 -0.090000 0.001736
v 0.010000 -0.090000 0.000000
v -0.008660 -0.090000 -0.005000
v -0.009397 -0.090000 -0.003420
v -0.009848 -0.090000 -0.001736
v -0.010000 -0.090000 0.000000
v -0.009848 -0.090000 0.001736
v -0.009397 -0.090000 0.003420
v -0.008660 -0.090000 0.005000
v -0.007660 -0.090000 0.006428
v -0.006428 -0.090000 0.007660
v 0.009848 -0.090000 -0.001736
v 0.009397 -0.090000 -0.003420
v 0.007660 -0.090000 -0.006428
v 0.008660 -0.090000 -0.005000
v -0.027943 0.067500 -0.086000
v 0.000000 0.067500 -0.010000
v -0.001736 0.067500 -0.009848
v -0.001736 0.067500 0.009848
v 0.000000 0.067500 0.010000
v -0.019500 0.067500 0.162333
v -0.007660 0.067500 -0.006428
v -0.008660 0.067500 -0.005000
v -0.073156 0.067500 -0.053151
v 0.008660 0.067500 0.005000
v 0.009397 0.067500 0.003420
v 0.062000 0.067500 0.000000
v 0.009848 0.067500 0.001736
v 0.006428 0.067500 -0.007660
v 0.005000 0.067500 -0.008660
v 0.094325 0.067500 -0.086000
v 0.003420 0.067500 -0.009397
v 0.001736 0.067500 -0.009848
v 0.062000 0.067500 0.162333
v 0.001736 0.067500 0.009848
v 0.003420 0.067500 0.009397
v 0.005000 0.067500 0.008660
v 0.145183 0.067500 -0.016000
v 0.148004 0.067500 0.000000
v -0.009397 0.067500 -0.003420
v -0.009848 0.067500 -0.001736
v -0.115063 0.067500 0.083921
v -0.010000 0.067500 0.000000
v -0.009848 0.067500 0.001736
v 0.006428 0.067500 0.007660
v 0.007660 0.067500 0.006428
v 0.131126 0.067500 -0.059262
v 0.009848 0.067500 -0.001736
v 0.010000 0.067500 0.000000
v 0.009397 0.067500 -0.003420
v 0.008660 0.067500 -0.005000
v 0.007660 0.067500 -0.006428
v -0.003420 0.067500 -0.009397
v -0.005000 0.067500 -0.008660
v -0.006428 0.067500 -0.007660
v -0.009397 0.067500 0.003420
v -0.008660 0.067500 0.005000
v -0.112988 0.067500 0.097458
v -0.007660 0.067500 0.006428
v -0.105246 0.067500 0.108754
v -0.006428 0.067500 0.007660
v -0.005000 0.067500 0.008660
v -0.003420 0.067500 0.009397
v -0.001736 -0.070500 0.714848
v 0.000000 0.070500 0.715000
v 0.000000 -0.070500 0.715000
v 0.001736 0.070500 0.714848
v 0.001736 -0.070500 0.714848
v 0.003420 0.070500 0.714397
v 0.003420 -0.070500 0.714397
v 0.005000 0.070500 0.713660
v 0.005000 -0.070500 0.713660
v 0.006428 0.070500 0.712660
v 0.006428 -0.070500 0.712660
v 0.007660 0.070500 0.711428
v 0.007660 -0.070500 0.711428
v 0.008660 0.070500 0.710000
v 0.008660 -0.070500 0.710000
v 0.009397 0.070500 0.708420
v 0.009397 -0.070500 0.708420
v 0.009848 0.070500 0.706737
v 0.009848 -0.070500 0.706737
v 0.010000 0.070500 0.705000
v 0.010000 -0.070500 0.705000
v 0.009848 0.070500 0.703264
v 0.009848 -0.070500 0.703264
v 0.009397 0.070500 0.701580
v 0.009397 -0.070500 0.701580
v 0.008660 0.070500 0.700000
v 0.008660 -0.070500 0.700000
v 0.007660 0.070500 0.698572
v 0.007660 -0.070500 0.698572
v 0.006428 0.070500 0.697340
v 0.006428 -0.070500 0.697340
v 0.005000 0.070500 0.696340
v 0.005000 -0.070500 0.696340
v 0.003420 0.070500 0.695603
v 0.003420 -0.070500 0.695603
v 0.001736 0.070500 0.695152
v 0.001736 -0.070500 0.695152
v 0.000000 0.070500 0.695000
v 0.000000 -0.070500 0.695000
v -0.001736 0.070500 0.695152
v -0.001736 -0.070500 0.695152
v -0.003420 0.070500 0.695603
v -0.003420 -0.070500 0.695603
v -0.005000 0.070500 0.696340
v -0.005000 -0.070500 0.696340
v -0.006428 0.070500 0.697340
v -0.006428 -0.070500 0.697340
v -0.007660 0.070500 0.698572
v -0.007660 -0.070500 0.698572
v -0.008660 0.070500 0.700000
v -0.008660 -0.070500 0.700000
v -0.009397 0.070500 0.701580
v -0.009397 -0.070500 0.701580
v -0.009848 0.070500 0.703264
v -0.009848 -0.070500 0.703264
v -0.010000 0.070500 0.705000
v -0.010000 -0.070500 0.705000
v -0.009848 0.070500 0.706737
v -0.009848 -0.070500 0.706737
v -0.009397 0.070500 0.708420
v -0.009397 -0.070500 0.708420
v -0.008660 0.070500 0.710000
v -0.008660 -0.070500 0.710000
v -0.007660 0.070500 0.711428
v -0.007660 -0.070500 0.711428
v -0.006428 0.070500 0.712660
v -0.006428 -0.070500 0.712660
v -0.005000 0.070500 0.713660
v -0.005000 -0.070500 0.713660
v -0.003420 0.070500 0.714397
v -0.003420 -0.070500 0.714397
v -0.001736 0.070500 0.714848
v 0.033653 0.070500 0.715345
v 0.033653 -0.070500 0.715345
v 0.038509 0.070500 0.706810
v 0.038509 -0.070500 0.706810
v 0.027388 0.070500 0.722907
v 0.027388 -0.070500 0.722907
v 0.019906 0.070500 0.729267
v 0.019906 -0.070500 0.729267
v 0.011433 0.070500 0.734230
v 0.011433 -0.070500 0.734230
v 0.001840 0.070500 0.736332
v 0.001840 -0.070500 0.736332
v -0.007932 0.070500 0.735368
v -0.007932 -0.070500 0.735368
v -0.016928 0.070500 0.731430
v -0.016928 -0.070500 0.731430
v -0.024267 0.070500 0.724906
v -0.024267 -0.070500 0.724906
v -0.029230 0.070500 0.716433
v -0.029230 -0.070500 0.716433
v -0.031332 0.070500 0.706841
v -0.031332 -0.070500 0.706841
v -0.030368 0.070500 0.697068
v -0.030368 -0.070500 0.697068
v -0.026430 0.070500 0.688072
v -0.026430 -0.070500 0.688072
v -0.019500 -0.070500 0.680277
v -0.019500 0.070500 0.680277
v 0.101508 0.070500 0.523846
v -0.019500 0.070500 0.560842
v -0.019500 0.078000 0.509000
v -0.019500 0.008500 0.512229
v -0.019500 0.008500 0.445771
v -0.019500 0.078000 0.449000
v 0.000000 -0.070000 0.010000
v 0.001736 -0.070000 0.009848
v 0.003420 -0.070000 0.009397
v 0.005000 -0.070000 0.008660
v 0.006428 -0.070000 0.007660
v 0.007660 -0.070000 0.006428
v 0.008660 -0.070000 0.005000
v 0.009397 -0.070000 0.003420
v 0.009848 -0.070000 0.001736
v 0.010000 -0.070000 0.000000
v 0.009848 -0.070000 -0.001736
v 0.009397 -0.070000 -0.003420
v 0.008660 -0.070000 -0.005000
v 0.007660 -0.070000 -0.006428
v 0.006428 -0.070000 -0.007660
v 0.005000 -0.070000 -0.008660
v 0.003420 -0.070000 -0.009397
v 0.001736 -0.070000 -0.009848
v 0.000000 -0.070000 -0.010000
v -0.001736 -0.070000 -0.009848
v -0.003420 -0.070000 -0.009397
v -0.005000 -0.070000 -0.008660
v -0.006428 -0.070000 -0.007660
v -0.007660 -0.070000 -0.006428
v -0.008660 -0.070000 -0.005000
v -0.009397 -0.070000 -0.003420
v -0.009848 -0.070000 -0.001736
v -0.010000 -0.070000 0.000000
v -0.009848 -0.070000 0.001736
v -0.009397 -0.070000 0.003420
v -0.008660 -0.070000 0.005000
v -0.007660 -0.070000 0.006428
v -0.006428 -0.070000 0.007660
v -0.005000 -0.070000 0.008660
v -0.003420 -0.070000 0.009397
v -0.001736 -0.070000 0.009848
v 0.062000 -0.070000 0.162333
v -0.019500 -0.070000 0.162333
v 0.062000 0.038000 0.065000
v 0.062000 -0.034500 0.065000
v 0.062000 -0.070000 0.000000
v 0.148004 -0.070000 0.000000
v 0.144598 -0.034500 0.065000
v 0.144598 0.038000 0.065000
v 0.145183 0.089655 -0.016000
v 0.148004 0.086000 0.000000
v 0.000000 0.090000 0.010000
v 0.001736 0.090000 0.009848
v 0.003420 0.090000 0.009397
v 0.005000 0.090000 0.008660
v 0.006428 0.090000 0.007660
v 0.007660 0.090000 0.006428
v 0.008660 0.090000 0.005000
v 0.009397 0.090000 0.003420
v 0.009848 0.090000 0.001736
v 0.010000 0.090000 0.000000
v 0.009848 0.090000 -0.001736
v 0.009397 0.090000 -0.003420
v 0.008660 0.090000 -0.005000
v 0.007660 0.090000 -0.006428
v 0.006428 0.090000 -0.007660
v 0.005000 0.090000 -0.008660
v 0.003420 0.090000 -0.009397
v 0.001736 0.090000 -0.009848
v 0.000000 0.090000 -0.010000
v -0.001736 0.090000 -0.009848
v -0.003420 0.090000 -0.009397
v -0.005000 0.090000 -0.008660
v -0.006428 0.090000 -0.007660
v -0.007660 0.090000 -0.006428
v -0.008660 0.090000 -0.005000
v -0.009397 0.090000 -0.003420
v -0.009848 0.090000 -0.001736
v -0.010000 0.090000 0.000000
v -0.009848 0.090000 0.001736
v -0.009397 0.090000 0.003420
v -0.008660 0.090000 0.005000
v -0.007660 0.090000 0.006428
v -0.006428 0.090000 0.007660
v -0.005000 0.090000 0.008660
v -0.003420 0.090000 0.009397
v -0.001736 0.090000 0.009848
v 0.105681 0.090000 0.511728
v -0.015500 0.090000 0.548777
v -0.019500 0.086000 0.552224
v -0.015500 0.090000 0.164833
v -0.019500 0.086000 0.162333
v -0.105246 0.090000 0.108754
v -0.112988 0.090000 0.097458
v -0.115063 0.090000 0.083921
v -0.073156 0.090000 -0.053151
v -0.027943 0.090000 -0.086000
v 0.094325 0.090000 -0.086000
v 0.131126 0.090000 -0.059262
v 0.144885 0.090000 -0.016916
v 0.141299 -0.040000 0.518861
v 0.151066 -0.040000 0.490496
v 0.141299 0.040000 0.518861
v 0.151066 0.040000 0.490496
v 0.132156 -0.040000 0.483985
v 0.122389 -0.040000 0.512350
v 0.132156 -0.095000 0.483985
v 0.122389 -0.095000 0.512350
v 0.098117 -0.095000 0.472264
v 0.088350 -0.095000 0.500630
v 0.088350 0.095000 0.500630
v 0.098117 0.095000 0.472264
v 0.088350 0.090000 0.500630
v 0.098117 0.090000 0.472264
v 0.122389 0.095000 0.512350
v 0.132156 0.095000 0.483985
v 0.122389 0.040000 0.512350
v 0.132156 0.040000 0.483985
v 0.105681 -0.090000 0.511728
v 0.101508 -0.070500 0.523846
v -0.019500 -0.070500 0.560842
v -0.019500 -0.070000 0.085812
v -0.019500 -0.086000 0.085812
v -0.019500 -0.086000 0.552224
v 0.094325 -0.070000 -0.086000
v -0.027943 -0.070000 -0.086000
v 0.131126 -0.070000 -0.059262
v 0.145183 -0.070000 -0.016000
v -0.073156 -0.070000 -0.053151
v -0.087853 -0.070000 -0.005078
v -0.029016 -0.070000 0.083079
v -0.073195 -0.070000 0.048852
v 0.148004 -0.086000 0.000000
v 0.145183 -0.089655 -0.016000
v 0.123969 0.086000 0.458615
v 0.123969 -0.086000 0.458615
v 0.119245 0.090000 0.472336
v 0.111354 0.090000 0.513682
v 0.117521 0.090000 0.510674
v 0.118655 0.090000 0.474048
v 0.127428 0.090000 0.482357
v 0.124328 0.090000 0.476001
v 0.014434 -0.140000 0.025000
v -0.014434 -0.140000 0.025000
v 0.028867 -0.140000 0.000000
v -0.028867 -0.140000 0.000000
v 0.014434 -0.140000 -0.025000
v -0.014434 -0.140000 -0.025000
v 0.127428 -0.090000 0.482357
v 0.124328 -0.090000 0.476001
v 0.098117 -0.090000 0.472264
v 0.088350 -0.090000 0.500630
v 0.117521 -0.090000 0.510674
v 0.111354 -0.090000 0.513682
v -0.015500 -0.090000 0.548777
v -0.015500 -0.090000 0.085812
v -0.073156 -0.090000 -0.053151
v -0.087853 -0.090000 -0.005078
v -0.027943 -0.090000 -0.086000
v 0.094325 -0.090000 -0.086000
v 0.131126 -0.090000 -0.059262
v 0.144885 -0.090000 -0.016916
v 0.119245 -0.090000 0.472336
v 0.118655 -0.090000 0.474048
v 0.028867 -0.090000 0.000000
v 0.014434 -0.090000 0.025000
v 0.014434 -0.090000 -0.025000
v -0.014434 -0.090000 -0.025000
v -0.028867 -0.090000 0.000000
v -0.014434 -0.090000 0.025000
v -0.019500 -0.090000 0.085812
v -0.029016 -0.090000 0.083079
v -0.073195 -0.090000 0.048852
v 0.003420 -0.070500 0.714397
v 0.005000 -0.070500 0.713660
v -0.003420 0.090000 -0.009397
v -0.005000 0.090000 -0.008660
v 0.007660 -0.070000 0.006428
v 0.008660 -0.070000 0.005000
v -0.029230 0.070500 0.716433
v -0.031332 0.070500 0.706841
v 0.028867 -0.140000 0.000000
v 0.028867 -0.140000 0.000000
v 0.028867 -0.090000 0.000000
v 0.028867 -0.090000 0.000000
v -0.016928 -0.070500 0.731430
v -0.024267 -0.070500 0.724906
v -0.005000 -0.090000 0.008660
v -0.003420 -0.090000 0.009397
v -0.027943 -0.070000 -0.086000
v -0.027943 -0.070000 -0.086000
v -0.073156 -0.070000 -0.053151
v -0.073156 -0.070000 -0.053151
v -0.010000 0.090000 0.000000
v -0.009848 0.090000 0.001736
v -0.028867 -0.090000 0.000000
v -0.028867 -0.090000 0.000000
v -0.014434 -0.090000 0.025000
v -0.014434 -0.090000 0.025000
v 0.145183 0.089655 -0.016000
v 0.144885 0.090000 -0.016916
v 0.144885 0.090000 -0.016916
v 0.132156 -0.040000 0.483985
v 0.132156 -0.040000 0.483985
v 0.132156 -0.095000 0.483985
v 0.132156 -0.095000 0.483985
v 0.148004 0.086000 0.000000
v -0.009848 -0.070500 0.706737
v -0.009397 -0.070500 0.708420
v 0.003420 0.070500 0.695603
v 0.001736 0.070500 0.695152
v 0.033653 -0.070500 0.715345
v 0.027388 -0.070500 0.722907
v -0.008660 0.067500 0.005000
v -0.007660 0.067500 0.006428
v 0.088350 0.090000 0.500630
v 0.088350 0.090000 0.500630
v 0.117521 0.090000 0.510674
v 0.117521 0.090000 0.510674
v -0.019500 0.070500 0.560842
v -0.019500 0.070500 0.560842
v -0.019500 0.086000 0.552224
v -0.019500 0.086000 0.552224
v 0.005000 0.090000 -0.008660
v 0.003420 0.090000 -0.009397
v -0.014434 -0.140000 0.025000
v -0.014434 -0.140000 0.025000
v -0.028867 -0.140000 0.000000
v -0.028867 -0.140000 0.000000
v 0.003420 -0.070000 -0.009397
v 0.001736 -0.070000 -0.009848
v 0.014434 -0.140000 0.025000
v 0.014434 -0.140000 0.025000
v 0.009848 -0.070500 0.703264
v 0.009397 -0.070500 0.701580
v -0.023500 0.078000 0.450456
v -0.023500 0.078000 0.450456
v -0.023500 0.008500 0.447227
v -0.023500 0.008500 0.447227
v -0.112988 0.090000 0.097458
v -0.115063 0.090000 0.083921
v -0.014434 -0.140000 -0.025000
v -0.014434 -0.140000 -0.025000
v -0.014434 -0.090000 -0.025000
v -0.014434 -0.090000 -0.025000
v -0.023500 0.078000 0.507544
v -0.023500 0.078000 0.507544
v -0.019500 -0.070500 0.680277
v -0.019500 -0.070500 0.680277
v -0.019500 -0.070500 0.560842
v -0.019500 -0.070500 0.560842
v -0.009848 0.090000 -0.001736
v 0.094325 -0.090000 -0.086000
v 0.094325 -0.090000 -0.086000
v 0.131126 -0.090000 -0.059262
v 0.131126 -0.090000 -0.059262
v 0.009848 0.067500 -0.001736
v 0.010000 0.067500 0.000000
v 0.122389 -0.040000 0.512350
v 0.122389 -0.040000 0.512350
v 0.009397 0.070500 0.708420
v 0.009848 0.070500 0.706737
v -0.006428 -0.090000 0.007660
v -0.009848 -0.090000 0.001736
v -0.009397 -0.090000 0.003420
v 0.009397 0.090000 0.003420
v 0.009848 0.090000 0.001736
v -0.003420 -0.070500 0.695603
v -0.005000 -0.070500 0.696340
v 0.006428 0.067500 -0.007660
v 0.007660 0.067500 -0.006428
v 0.117521 -0.090000 0.510674
v 0.117521 -0.090000 0.510674
v -0.009848 0.067500 -0.001736
v -0.010000 0.067500 0.000000
v -0.009848 0.070500 0.706737
v -0.009397 0.070500 0.708420
v -0.015500 0.090000 0.548777
v -0.015500 0.090000 0.548777
v 0.062000 0.038000 0.065000
v 0.062000 0.038000 0.065000
v 0.062000 -0.034500 0.065000
v 0.062000 -0.034500 0.065000
v 0.000000 -0.070000 0.010000
v 0.001736 -0.070000 0.009848
v -0.029016 -0.070000 0.083079
v -0.073195 -0.070000 0.048852
v -0.073195 -0.070000 0.048852
v 0.122389 0.095000 0.512350
v 0.122389 0.095000 0.512350
v 0.122389 0.040000 0.512350
v 0.122389 0.040000 0.512350
v -0.019500 0.067500 0.162333
v -0.019500 0.067500 0.162333
v -0.019500 0.067500 0.162333
v 0.062000 0.067500 0.162333
v 0.062000 0.067500 0.162333
v 0.000000 -0.070500 0.695000
v -0.001736 -0.070500 0.695152
v -0.007660 0.067500 -0.006428
v -0.006428 0.067500 -0.007660
v 0.009397 -0.070000 -0.003420
v 0.008660 -0.070000 -0.005000
v 0.033653 0.070500 0.715345
v 0.038509 0.070500 0.706810
v 0.003420 0.067500 0.009397
v 0.005000 0.067500 0.008660
v -0.001736 -0.070000 0.009848
v -0.023500 0.008500 0.510773
v -0.023500 0.008500 0.510773
v -0.001736 -0.070500 0.714848
v 0.000000 -0.070500 0.715000
v -0.024267 0.070500 0.724906
v -0.027943 -0.090000 -0.086000
v -0.027943 -0.090000 -0.086000
v -0.087853 -0.090000 -0.005078
v -0.087853 -0.090000 -0.005078
v -0.073195 -0.090000 0.048852
v -0.073195 -0.090000 0.048852
v 0.005000 0.070500 0.696340
v 0.009397 0.067500 -0.003420
v -0.008660 -0.090000 0.005000
v -0.007660 -0.090000 0.006428
v -0.027943 0.067500 -0.086000
v -0.027943 0.067500 -0.086000
v 0.094325 0.067500 -0.086000
v 0.094325 0.067500 -0.086000
v -0.019500 -0.070000 0.085812
v -0.019500 -0.070000 0.085812
v -0.019500 -0.070000 0.162333
v -0.019500 -0.070000 0.162333
v -0.003420 0.070500 0.695603
v -0.005000 0.070500 0.696340
v -0.010000 -0.090000 0.000000
v 0.010000 0.090000 0.000000
v -0.073156 -0.090000 -0.053151
v -0.073156 -0.090000 -0.053151
v 0.008660 0.067500 0.005000
v 0.009397 0.067500 0.003420
v -0.010000 -0.070500 0.705000
v 0.038509 -0.070500 0.706810
v 0.000000 0.067500 -0.010000
v 0.001736 0.067500 -0.009848
v -0.009848 -0.070000 -0.001736
v -0.010000 -0.070000 0.000000
v 0.009397 -0.070500 0.708420
v 0.009848 -0.070500 0.706737
v -0.029230 -0.070500 0.716433
v -0.006428 0.090000 -0.007660
v 0.009848 -0.070000 -0.001736
v -0.001736 0.067500 0.009848
v -0.003420 0.067500 0.009397
v 0.101508 0.070500 0.523846
v 0.101508 0.070500 0.523846
v -0.001736 -0.090000 0.009848
v -0.008660 0.070500 0.710000
v -0.006428 0.090000 0.007660
v -0.005000 0.090000 0.008660
v -0.009848 -0.070000 0.001736
v 0.144885 -0.090000 -0.016916
v 0.144885 -0.090000 -0.016916
v 0.119245 -0.090000 0.472336
v 0.119245 -0.090000 0.472336
v 0.131126 0.090000 -0.059262
v 0.131126 0.090000 -0.059262
v 0.132156 0.095000 0.483985
v 0.132156 0.095000 0.483985
v 0.132156 0.040000 0.483985
v 0.132156 0.040000 0.483985
v -0.087853 -0.070000 -0.005078
v -0.087853 -0.070000 -0.005078
v -0.019500 0.078000 0.509000
v -0.019500 0.078000 0.509000
v -0.019500 0.008500 0.512229
v -0.019500 0.008500 0.512229
v 0.005000 -0.070500 0.696340
v 0.003420 -0.070500 0.695603
v 0.127428 -0.090000 0.482357
v 0.127428 -0.090000 0.482357
v 0.098117 -0.090000 0.472264
v 0.098117 -0.090000 0.472264
v 0.027388 0.070500 0.722907
v -0.112988 0.067500 0.097458
v -0.105246 0.067500 0.108754
v -0.009397 -0.070000 -0.003420
v 0.009848 0.070500 0.703264
v 0.009397 0.070500 0.701580
v 0.127428 0.090000 0.482357
v 0.127428 0.090000 0.482357
v 0.124328 0.090000 0.476001
v 0.124328 0.090000 0.476001
v -0.006428 0.070500 0.697340
v 0.001736 0.090000 -0.009848
v 0.001840 -0.070500 0.736332
v -0.007932 -0.070500 0.735368
v 0.010000 -0.070000 0.000000
v -0.016928 0.070500 0.731430
v 0.094325 0.090000 -0.086000
v 0.094325 0.090000 -0.086000
v -0.007660 0.090000 0.006428
v 0.141299 -0.040000 0.518861
v 0.141299 -0.040000 0.518861
v 0.141299 0.040000 0.518861
v 0.141299 0.040000 0.518861
v -0.009848 0.067500 0.001736
v -0.009397 0.067500 0.003420
v -0.003420 0.067500 -0.009397
v -0.005000 0.067500 -0.008660
v -0.007660 -0.090000 -0.006428
v -0.008660 -0.090000 -0.005000
v -0.009397 -0.090000 -0.003420
v -0.009848 -0.090000 -0.001736
v 0.009848 0.090000 -0.001736
v 0.009397 0.090000 -0.003420
v -0.015500 -0.090000 0.548777
v -0.015500 -0.090000 0.548777
v -0.015500 -0.090000 0.085812
v -0.015500 -0.090000 0.085812
v 0.105681 0.090000 0.511728
v 0.105681 0.090000 0.511728
v 0.105681 0.090000 0.511728
v 0.148004 -0.070000 0.000000
v 0.144598 -0.034500 0.065000
v 0.144598 -0.034500 0.065000
v -0.019500 0.008500 0.445771
v -0.019500 0.008500 0.445771
v -0.009848 -0.070500 0.703264
v 0.000000 0.070500 0.695000
v -0.001736 0.070500 0.695152
v -0.006428 -0.090000 -0.007660
v 0.119245 0.090000 0.472336
v 0.119245 0.090000 0.472336
v -0.001736 -0.090000 -0.009848
v -0.003420 -0.090000 -0.009397
v -0.005000 -0.090000 -0.008660
v 0.007660 -0.070000 -0.006428
v -0.019500 0.070500 0.680277
v -0.019500 0.070500 0.680277
v 0.062000 0.067500 0.000000
v 0.006428 -0.070500 0.712660
v 0.007660 -0.070500 0.711428
v 0.000000 -0.090000 0.010000
v 0.001736 -0.090000 0.009848
v -0.008660 0.090000 0.005000
v 0.014434 -0.090000 0.025000
v 0.014434 -0.090000 0.025000
v -0.007660 0.070500 0.711428
v 0.151066 -0.040000 0.490496
v 0.151066 -0.040000 0.490496
v 0.008660 -0.070500 0.700000
v 0.007660 -0.070500 0.698572
v 0.008660 0.090000 -0.005000
v 0.019906 0.070500 0.729267
v 0.003420 -0.090000 0.009397
v 0.005000 -0.090000 0.008660
v 0.123969 -0.086000 0.458615
v 0.148004 -0.086000 0.000000
v 0.098117 -0.095000 0.472264
v 0.098117 -0.095000 0.472264
v 0.144598 0.038000 0.065000
v 0.144598 0.038000 0.065000
v -0.019500 0.078000 0.449000
v -0.019500 0.078000 0.449000
v -0.007660 -0.070000 -0.006428
v -0.008660 -0.070000 -0.005000
v -0.030368 0.070500 0.697068
v 0.003420 0.067500 -0.009397
v 0.118655 0.090000 0.474048
v 0.118655 0.090000 0.474048
v 0.010000 -0.090000 0.000000
v 0.009848 -0.090000 -0.001736
v 0.007660 0.070500 0.711428
v 0.008660 0.070500 0.710000
v -0.115063 0.067500 0.083921
v 0.105681 -0.090000 0.511728
v 0.105681 -0.090000 0.511728
v 0.105681 -0.090000 0.511728
v 0.009397 -0.070000 0.003420
v 0.009848 -0.070000 0.001736
v -0.007660 0.070500 0.698572
v -0.003420 0.090000 0.009397
v -0.009397 -0.070000 0.003420
v 0.007660 0.070500 0.698572
v 0.006428 0.070500 0.697340
v -0.073156 0.090000 -0.053151
v -0.073156 0.090000 -0.053151
v -0.027943 0.090000 -0.086000
v -0.027943 0.090000 -0.086000
v -0.008660 -0.070500 0.710000
v 0.019906 -0.070500 0.729267
v 0.007660 0.090000 -0.006428
v -0.019500 -0.090000 0.085812
v -0.029016 -0.090000 0.083079
v -0.006428 0.067500 0.007660
v 0.009848 0.067500 0.001736
v 0.062000 -0.070000 0.000000
v 0.088350 -0.095000 0.500630
v 0.088350 -0.095000 0.500630
v 0.088350 -0.090000 0.500630
v 0.088350 -0.090000 0.500630
v -0.010000 0.070500 0.705000
v -0.031332 -0.070500 0.706841
v -0.030368 -0.070500 0.697068
v -0.005000 0.067500 0.008660
v 0.006428 -0.070000 -0.007660
v 0.005000 -0.070000 -0.008660
v 0.111354 -0.090000 0.513682
v 0.111354 -0.090000 0.513682
v 0.000000 0.090000 -0.010000
v 0.006428 -0.090000 0.007660
v 0.007660 -0.090000 0.006428
v 0.008660 -0.070500 0.710000
v -0.009397 0.090000 0.003420
v -0.006428 -0.070500 0.697340
v 0.001840 0.070500 0.736332
v -0.007932 0.070500 0.735368
v 0.007660 -0.090000 -0.006428
v 0.008660 -0.090000 -0.005000
v 0.151066 0.040000 0.490496
v 0.151066 0.040000 0.490496
v 0.006428 -0.070500 0.697340
v -0.019500 -0.086000 0.552224
v -0.019500 -0.086000 0.552224
v 0.098117 0.095000 0.472264
v 0.098117 0.095000 0.472264
v 0.098117 0.090000 0.472264
v 0.098117 0.090000 0.472264
v 0.101508 -0.070500 0.523846
v 0.101508 -0.070500 0.523846
v 0.148004 0.067500 0.000000
v 0.006428 0.090000 -0.007660
v 0.011433 -0.070500 0.734230
v 0.008660 0.090000 0.005000
v 0.062000 -0.070000 0.162333
v 0.062000 -0.070000 0.162333
v 0.124328 -0.090000 0.476001
v 0.124328 -0.090000 0.476001
v 0.006428 0.070500 0.712660
v 0.006428 0.067500 0.007660
v 0.145183 0.067500 -0.016000
v 0.131126 0.067500 -0.059262
v 0.131126 0.067500 -0.059262
v 0.009397 -0.090000 0.003420
v 0.009848 -0.090000 0.001736
v -0.006428 -0.070500 0.712660
v -0.005000 -0.070500 0.713660
v 0.008660 0.070500 0.700000
v -0.015500 0.090000 0.164833
v -0.015500 0.090000 0.164833
v -0.105246 0.090000 0.108754
v -0.026430 -0.070500 0.688072
v -0.008660 -0.070500 0.700000
v -0.009397 -0.070500 0.701580
v 0.000000 0.070500 0.715000
v 0.001736 0.070500 0.714848
v -0.001736 0.090000 -0.009848
v 0.008660 -0.090000 0.005000
v -0.001736 0.090000 0.009848
v -0.008660 -0.070000 0.005000
v 0.009397 -0.090000 -0.003420
v -0.026430 0.070500 0.688072
v -0.001736 -0.070000 -0.009848
v -0.003420 -0.070000 -0.009397
v 0.011433 0.070500 0.734230
v -0.006428 0.070500 0.712660
v -0.005000 0.070500 0.713660
v -0.009397 0.067500 -0.003420
v 0.123969 0.086000 0.458615
v 0.000000 0.090000 0.010000
v 0.005000 -0.090000 -0.008660
v 0.003420 -0.090000 -0.009397
v -0.001736 0.067500 -0.009848
v 0.006428 -0.090000 -0.007660
v 0.118655 -0.090000 0.474048
v 0.118655 -0.090000 0.474048
v -0.008660 0.070500 0.700000
v -0.009397 0.070500 0.701580
v -0.007660 -0.070000 0.006428
v -0.019500 -0.086000 0.085812
v -0.019500 -0.086000 0.085812
v 0.001736 0.090000 0.009848
v 0.005000 0.070500 0.713660
v 0.014434 -0.090000 -0.025000
v 0.014434 -0.090000 -0.025000
v 0.005000 0.067500 -0.008660
v 0.122389 -0.095000 0.512350
v 0.122389 -0.095000 0.512350
v 0.005000 -0.070000 0.008660
v 0.006428 -0.070000 0.007660
v -0.007660 -0.070500 0.711428
v 0.111354 0.090000 0.513682
v 0.111354 0.090000 0.513682
v 0.000000 -0.070000 -0.010000
v 0.007660 0.090000 0.006428
v -0.007660 -0.070500 0.698572
v -0.003420 -0.070500 0.714397
v 0.008660 0.067500 -0.005000
v -0.008660 0.090000 -0.005000
v -0.009397 0.090000 -0.003420
v 0.000000 -0.090000 -0.010000
v 0.001736 -0.090000 -0.009848
v 0.145183 -0.070000 -0.016000
v 0.088350 0.095000 0.500630
v 0.088350 0.095000 0.500630
v 0.145183 -0.089655 -0.016000
v -0.003420 0.070500 0.714397
v -0.019500 0.086000 0.162333
v -0.019500 0.086000 0.162333
v 0.003420 -0.070000 0.009397
v -0.009848 0.070500 0.703264
v 0.001736 -0.070500 0.714848
v 0.000000 0.067500 0.010000
v -0.073156 0.067500 -0.053151
v -0.073156 0.067500 -0.053151
v -0.006428 -0.070000 0.007660
v -0.005000 -0.070000 0.008660
v 0.094325 -0.070000 -0.086000
v 0.094325 -0.070000 -0.086000
v 0.131126 -0.070000 -0.059262
v 0.131126 -0.070000 -0.059262
v 0.007660 0.067500 0.006428
v 0.003420 0.090000 0.009397
v 0.005000 0.090000 0.008660
v 0.014434 -0.140000 -0.025000
v 0.014434 -0.140000 -0.025000
v 0.010000 -0.070500 0.705000
v 0.001736 0.067500 0.009848
v -0.005000 -0.070000 -0.008660
v 0.003420 0.070500 0.714397
v -0.007660 0.090000 -0.006428
v -0.003420 -0.070000 0.009397
v 0.001736 -0.070500 0.695152
v 0.006428 0.090000 0.007660
v -0.001736 0.070500 0.714848
v 0.010000 0.070500 0.705000
v -0.006428 -0.070000 -0.007660
v -0.008660 0.067500 -0.005000
vn -1.0000 -0.0000 -0.0000
vn -0.0000 1.0000 -0.0000
vn -0.0000 -1.0000 -0.0000
vn -0.0000 -0.9945 -0.1051
vn -0.0000 -0.9754 -0.2206
vn 0.1736 -0.0000 -0.9848
vn -0.0000 -0.0000 -1.0000
vn -0.1736 -0.0000 -0.9848
vn -0.1737 -0.0000 -0.9848
vn -0.3420 -0.0000 -0.9397
vn -0.3421 -0.0000 -0.9397
vn -0.5000 -0.0000 -0.8660
vn -0.6428 -0.0000 -0.7660
vn -0.6428 -0.0000 -0.7661
vn -0.7661 -0.0000 -0.6428
vn -0.7660 -0.0000 -0.6428
vn -0.8660 -0.0000 -0.5000
vn -0.9397 -0.0000 -0.3420
vn -0.9848 -0.0000 -0.1737
vn -0.9848 -0.0000 0.1736
vn -0.9848 -0.0000 0.1737
vn -0.9397 -0.0000 0.3420
vn -0.9397 -0.0000 0.3421
vn -0.8660 -0.0000 0.5000
vn -0.7661 -0.0000 0.6428
vn -0.7660 -0.0000 0.6428
vn -0.6428 -0.0000 0.7660
vn -0.5000 -0.0000 0.8660
vn -0.3420 -0.0000 0.9397
vn -0.1737 -0.0000 0.9848
vn -0.1736 -0.0000 0.9848
vn -0.0000 -0.0000 1.0000
vn 0.1736 -0.0000 0.9848
vn 0.1737 -0.0000 0.9848
vn 0.3420 -0.0000 0.9397
vn 0.5000 -0.0000 0.8660
vn 0.6428 -0.0000 0.7660
vn 0.7660 -0.0000 0.6428
vn 0.7661 -0.0000 0.6428
vn 0.8660 -0.0000 0.5000
vn 0.9397 -0.0000 0.3421
vn 0.9397 -0.0000 0.3420
vn 0.9848 -0.0000 0.1737
vn 0.9848 -0.0000 0.1736
vn 1.0000 -0.0000 -0.0000
vn 0.9848 -0.0000 -0.1737
vn 0.9397 -0.0000 -0.3420
vn 0.8660 -0.0000 -0.5000
vn 0.7660 -0.0000 -0.6428
vn 0.7661 -0.0000 -0.6428
vn 0.6428 -0.0000 -0.7661
vn 0.6428 -0.0000 -0.7660
vn 0.5000 -0.0000 -0.8660
vn 0.3421 -0.0000 -0.9397
vn 0.3420 -0.0000 -0.9397
vn 0.1737 -0.0000 -0.9848
vn 0.8228 -0.0000 0.5684
vn 0.9113 -0.0000 0.4118
vn 0.7116 -0.0000 0.7026
vn 0.5787 -0.0000 0.8155
vn 0.3642 -0.0000 0.9313
vn 0.3643 -0.0000 0.9313
vn 0.0586 -0.0000 0.9983
vn -0.2527 -0.0000 0.9675
vn -0.5393 -0.0000 0.8421
vn -0.7732 -0.0000 0.6342
vn -0.9313 -0.0000 0.3643
vn -0.9983 -0.0000 0.0586
vn -0.9675 -0.0000 -0.2527
vn -0.8421 -0.0000 -0.5393
vn -0.7474 -0.0000 -0.6644
vn -0.3417 0.0436 0.9388
vn -0.3417 0.0436 -0.9388
vn -0.0000 0.9661 -0.2582
vn -0.0000 0.9924 -0.1227
vn -0.0000 0.8776 -0.4793
vn -0.0000 -0.9106 -0.4133
vn 0.9703 -0.0000 -0.2419
vn 0.9673 -0.0000 -0.2537
vn 0.9989 -0.0000 -0.0475
vn 0.9976 -0.0000 -0.0685
vn 0.2581 0.4695 0.8444
vn -0.7071 0.7071 -0.0000
vn -0.6920 -0.0000 0.7219
vn -0.5299 -0.0000 0.8480
vn -0.9300 -0.0000 0.3677
vn -0.9974 -0.0000 -0.0722
vn -0.9563 -0.0000 -0.2924
vn -0.5878 -0.0000 -0.8090
vn 0.5878 -0.0000 -0.8090
vn 0.9510 -0.0000 -0.3091
vn 0.9511 -0.0000 -0.3090
vn 0.9455 -0.0000 0.3256
vn -0.9455 -0.0000 -0.3256
vn 0.9990 -0.0000 -0.0454
vn 0.9986 -0.0000 0.0523
vn 0.9795 -0.0000 0.2017
vn 0.7061 0.7071 0.0370
vn 0.7060 0.7072 0.0370
vn 0.8988 -0.0000 -0.4384
vn 0.3256 -0.0000 -0.9455
vn -0.3256 -0.0000 0.9455
vn 0.4384 -0.0000 0.8988
vn 0.2582 -0.4695 0.8444
vn 0.2581 -0.4695 0.8444
vn -0.7071 -0.7071 -0.0000
vn 0.7061 -0.7071 0.0370
vn 0.7060 -0.7072 0.0370
vn 0.9455 -0.0000 0.3255
vn -0.2761 -0.0000 0.9611
vn -0.4524 -0.0000 0.8918
vn -0.2223 -0.0000 0.9750
vn -0.1394 -0.0000 0.9902
vn -0.6124 -0.0000 0.7905
vn -0.9650 -0.0000 0.2623
s 0
usemtl colour_abb_orange
f 435//1 425//1 498//1
f 498//1 425//1 427//1
f 624//2 6//2 643//2
f 8//2 9//2 699//2
f 699//2 9//2 644//2
f 12//2 13//2 643//2
f 643//2 13//2 623//2
f 643//2 623//2 624//2
f 644//2 9//2 643//2
f 643//2 9//2 790//2
f 643//2 790//2 12//2
f 598//2 377//2 6//2
f 6//2 377//2 378//2
f 6//2 378//2 544//2
f 544//2 631//2 6//2
f 6//2 631//2 21//2
f 6//2 21//2 643//2
f 8//2 699//2 762//2
f 762//2 699//2 700//2
f 762//2 700//2 24//2
f 24//2 732//2 762//2
f 762//2 732//2 733//2
f 762//2 733//2 659//2
f 598//2 28//2 377//2
f 377//2 28//2 600//2
f 377//2 600//2 601//2
f 601//2 523//2 377//2
f 377//2 523//2 453//2
f 377//2 453//2 454//2
f 454//2 511//2 377//2
f 377//2 511//2 512//2
f 377//2 512//2 452//2
f 659//2 660//2 762//2
f 762//2 660//2 749//2
f 762//2 749//2 39//2
f 39//2 749//2 40//2
f 513//3 531//3 761//3
f 540//3 801//3 482//3
f 47//3 826//3 802//3
s 1
f 527//3 528//3 628//4
f 628//4 528//3 684//3
s 0
f 459//3 55//3 515//3
f 515//3 55//3 656//3
f 515//3 656//3 513//3
f 513//3 656//3 532//3
f 513//3 532//3 531//3
f 482//3 801//3 485//3
f 485//3 801//3 60//3
s 1
f 485//3 60//3 628//4
f 628//4 60//3 61//3
f 628//4 61//3 496//3
f 63//3 64//5 628//4
s 0
f 826//3 756//3 802//3
f 802//3 756//3 463//3
f 802//3 463//3 67//3
f 67//3 463//3 464//3
f 67//3 464//3 69//3
s 1
f 496//3 728//3 628//4
f 628//4 728//3 71//3
f 628//4 71//3 527//3
s 0
f 731//3 63//3 446//3
s 1
f 446//3 63//3 628//4
f 446//3 628//4 447//3
f 447//3 628//4 684//3
s 0
f 446//3 75//3 731//3
f 731//3 75//3 786//3
f 731//3 786//3 515//3
f 515//3 786//3 460//3
f 515//3 460//3 459//3
f 761//3 596//3 513//3
f 513//3 596//3 79//3
f 513//3 79//3 802//3
f 802//3 79//3 490//3
f 802//3 490//3 47//3
f 69//3 595//3 67//3
f 67//3 595//3 403//3
f 67//3 403//3 83//3
f 83//3 403//3 404//3
f 83//3 404//3 85//3
f 404//3 86//3 85//3
f 85//3 86//3 87//3
f 85//3 87//3 482//3
f 482//3 87//3 88//3
f 482//3 88//3 540//3
s 1
f 500//6 743//7 501//7
f 501//7 743//7 744//8
f 501//7 744//8 93//9
f 93//9 744//8 818//10
f 93//9 818//10 363//11
f 363//11 818//10 96//12
f 363//11 96//12 364//12
f 364//12 96//12 98//13
f 364//12 98//13 629//14
f 629//14 98//13 661//15
f 629//14 661//15 101//16
f 101//16 661//15 102//17
f 101//16 102//17 103//17
f 103//17 102//17 450//18
f 103//17 450//18 535//18
f 535//18 450//18 451//19
f 535//18 451//19 536//19
f 536//19 451//19 108//1
f 536//19 108//1 109//1
f 109//1 108//1 110//20
f 109//1 110//20 423//21
f 423//21 110//20 576//22
f 423//21 576//22 424//23
f 424//23 576//22 114//24
f 424//23 114//24 639//24
f 639//24 114//24 116//25
f 639//24 116//25 117//26
f 117//26 116//25 673//27
f 117//26 673//27 119//27
f 119//27 673//27 509//28
f 119//27 509//28 565//28
f 565//28 509//28 399//29
f 565//28 399//29 566//29
f 566//29 399//29 400//30
f 566//29 400//30 821//31
f 821//31 400//30 617//32
f 821//31 617//32 487//32
f 487//32 617//32 618//33
f 487//32 618//33 488//34
f 488//34 618//33 521//35
f 488//34 521//35 457//35
f 457//35 521//35 522//36
f 457//35 522//36 133//36
f 133//36 522//36 134//37
f 133//36 134//37 703//37
f 703//37 134//37 669//38
f 703//37 669//38 137//39
f 137//39 669//38 765//40
f 137//39 765//40 139//40
f 139//40 765//40 140//41
f 139//40 140//41 141//42
f 141//42 140//41 799//43
f 141//42 799//43 616//44
f 616//44 799//43 690//45
f 616//44 690//45 529//45
f 529//45 690//45 465//46
f 529//45 465//46 397//46
f 397//46 465//46 148//47
f 397//46 148//47 398//47
f 398//47 148//47 545//48
f 398//47 545//48 151//48
f 151//48 545//48 152//49
f 151//48 152//49 153//50
f 153//50 152//49 154//51
f 153//50 154//51 734//52
f 734//52 154//51 755//53
f 734//52 755//53 157//53
f 157//53 755//53 795//54
f 157//53 795//54 785//55
f 785//55 795//54 823//56
f 785//55 823//56 500//6
f 500//6 823//56 743//7
f 493//57 401//57 163//58
f 163//58 401//57 164//58
f 165//59 402//59 493//57
f 493//57 402//59 401//57
f 167//60 168//60 165//59
f 165//59 168//60 402//59
f 169//61 721//62 167//60
f 167//60 721//62 168//60
f 171//63 172//63 169//61
f 169//61 172//63 721//62
f 173//64 584//64 171//63
f 171//63 584//64 172//63
f 586//65 375//65 173//64
f 173//64 375//65 584//64
f 502//66 376//66 586//65
f 586//65 376//66 375//65
f 369//67 537//67 502//66
f 502//66 537//67 376//66
f 370//68 182//68 369//67
f 369//67 182//68 537//67
f 183//69 184//69 370//68
f 370//68 184//69 182//68
f 185//70 186//70 183//69
f 183//69 186//70 184//69
f 186//70 185//70 438//71
f 438//71 185//70 627//71
s 0
f 542//2 190//2 494//2
f 494//2 190//2 626//2
f 626//2 132//2 130//2
f 130//2 128//2 626//2
f 626//2 128//2 126//2
f 626//2 126//2 124//2
f 655//2 181//2 144//2
f 750//2 136//2 626//2
f 626//2 136//2 581//2
f 626//2 581//2 132//2
f 175//2 705//2 158//2
f 144//2 142//2 655//2
f 655//2 142//2 766//2
f 655//2 766//2 750//2
f 750//2 766//2 138//2
f 750//2 138//2 136//2
f 704//2 90//2 705//2
f 705//2 90//2 160//2
f 705//2 160//2 158//2
f 158//2 156//2 175//2
f 175//2 156//2 754//2
f 175//2 754//2 177//2
f 177//2 754//2 636//2
f 177//2 636//2 179//2
f 636//2 150//2 179//2
f 179//2 150//2 466//2
f 179//2 466//2 181//2
f 181//2 466//2 146//2
f 181//2 146//2 144//2
f 124//2 122//2 626//2
f 626//2 122//2 120//2
f 626//2 120//2 494//2
f 494//2 120//2 118//2
f 494//2 118//2 672//2
f 753//2 94//2 704//2
f 704//2 94//2 92//2
f 704//2 92//2 90//2
f 571//2 100//2 642//2
f 642//2 100//2 727//2
f 642//2 727//2 753//2
f 753//2 727//2 771//2
f 753//2 771//2 94//2
f 672//2 736//2 494//2
f 494//2 736//2 112//2
f 494//2 112//2 575//2
f 575//2 824//2 494//2
f 494//2 824//2 106//2
f 494//2 106//2 161//2
f 161//2 106//2 104//2
f 161//2 104//2 571//2
f 571//2 104//2 662//2
f 571//2 662//2 100//2
f 562//72 436//72 563//72
f 563//72 436//72 499//72
f 615//3 564//3 428//3
f 428//3 564//3 3//3
f 426//73 194//73 4//73
f 4//73 194//73 193//73
f 1//2 191//2 2//2
f 2//2 191//2 652//2
s 1
f 19//56 473//7 20//7
f 20//7 473//7 474//9
f 20//7 474//9 632//9
f 632//9 474//9 798//10
f 632//9 798//10 7//10
f 7//10 798//10 777//12
f 7//10 777//12 11//12
f 11//12 777//12 199//13
f 11//12 199//13 10//13
f 10//13 199//13 367//16
f 10//13 367//16 23//16
f 23//16 367//16 368//17
f 23//16 368//17 746//17
f 746//17 368//17 202//18
f 746//17 202//18 25//18
f 25//18 202//18 203//19
f 25//18 203//19 26//19
f 26//19 203//19 585//1
f 26//19 585//1 27//1
f 27//1 585//1 539//20
f 27//1 539//20 37//20
f 37//20 539//20 491//22
f 37//20 491//22 38//22
f 38//22 491//22 492//24
f 38//22 492//24 707//24
f 707//24 492//24 208//26
f 707//24 208//26 706//26
f 706//26 208//26 694//27
f 706//26 694//27 22//27
f 22//27 694//27 695//28
f 22//27 695//28 759//28
f 759//28 695//28 419//29
f 759//28 419//29 760//29
f 760//29 419//29 420//30
f 760//29 420//30 15//30
f 15//30 420//30 782//32
f 15//30 782//32 789//32
f 789//32 782//32 751//34
f 789//32 751//34 622//34
f 622//34 751//34 215//35
f 622//34 215//35 14//35
f 14//35 215//35 216//36
f 14//35 216//36 5//36
f 5//36 216//36 217//37
f 5//36 217//37 619//37
f 619//37 217//37 653//38
f 619//37 653//38 16//38
f 16//38 653//38 654//40
f 16//38 654//40 599//40
f 599//40 654//40 574//42
f 599//40 574//42 29//42
f 29//42 574//42 533//44
f 29//42 533//44 30//44
f 30//44 533//44 222//45
f 30//44 222//45 31//45
f 31//45 222//45 223//46
f 31//45 223//46 32//46
f 32//46 223//46 671//47
f 32//46 671//47 33//47
f 33//47 671//47 748//48
f 33//47 748//48 34//48
f 34//48 748//48 767//49
f 34//48 767//49 35//49
f 35//49 767//49 227//52
f 35//49 227//52 36//52
f 36//52 227//52 228//53
f 36//52 228//53 17//53
f 17//53 228//53 229//55
f 17//53 229//55 18//55
f 18//55 229//55 230//56
f 18//55 230//56 19//56
f 19//56 230//56 473//7
s 0
f 724//7 519//7 59//7
f 59//7 519//7 483//7
f 486//1 52//1 469//1
f 486//1 469//1 231//1
f 231//1 469//1 471//1
f 231//1 471//1 235//1
s 1
f 236//74 685//75 613//76
f 613//76 685//75 234//76
s 0
f 237//7 472//7 650//7
f 650//7 472//7 233//7
s 1
f 238//77 470//77 64//5
f 64//5 470//77 628//4
f 729//78 389//79 719//80
f 719//80 389//79 396//81
f 44//56 241//7 45//7
f 45//7 241//7 242//9
f 45//7 242//9 816//9
f 816//9 242//9 811//10
f 816//9 811//10 495//10
f 495//10 811//10 812//12
f 495//10 812//12 62//12
f 62//12 812//12 822//13
f 62//12 822//13 70//13
f 70//13 822//13 783//16
f 70//13 783//16 810//16
f 810//16 783//16 247//17
f 810//16 247//17 50//17
f 50//17 247//17 455//18
f 50//17 455//18 51//18
f 51//18 455//18 456//19
f 51//18 456//19 53//19
f 53//19 456//19 524//1
f 53//19 524//1 74//1
f 74//1 524//1 602//20
f 74//1 602//20 73//20
f 73//20 602//20 603//22
f 73//20 603//22 510//22
f 510//22 603//22 641//24
f 510//22 641//24 76//24
f 76//24 641//24 680//26
f 76//24 680//26 77//26
f 77//26 680//26 720//27
f 77//26 720//27 54//27
f 54//27 720//27 413//28
f 54//27 413//28 774//28
f 774//28 413//28 414//29
f 774//28 414//29 57//29
f 57//29 414//29 258//30
f 57//29 258//30 58//30
f 58//30 258//30 698//32
f 58//30 698//32 42//32
f 42//32 698//32 745//34
f 42//32 745//34 43//34
f 43//34 745//34 365//35
f 43//34 365//35 78//35
f 78//35 365//35 366//36
f 78//35 366//36 597//36
f 597//36 366//36 538//37
f 597//36 538//37 80//37
f 80//37 538//37 819//38
f 80//37 819//38 489//38
f 489//38 819//38 787//40
f 489//38 787//40 48//40
f 48//40 787//40 788//42
f 48//40 788//42 65//42
f 65//42 788//42 441//44
f 65//42 441//44 66//44
f 66//44 441//44 383//45
f 66//44 383//45 68//45
f 68//45 383//45 384//46
f 68//45 384//46 594//46
f 594//46 384//46 270//47
f 594//46 270//47 81//47
f 81//47 270//47 633//48
f 81//47 633//48 82//48
f 82//48 633//48 589//49
f 82//48 589//49 84//49
f 84//49 589//49 546//52
f 84//49 546//52 683//52
f 683//52 546//52 547//53
f 683//52 547//53 693//53
f 693//53 547//53 670//55
f 693//53 670//55 541//55
f 541//55 670//55 276//56
f 541//55 276//56 44//56
f 44//56 276//56 241//7
s 0
f 608//82 467//82 189//82
f 189//82 467//82 411//82
f 189//82 411//82 410//82
f 280//83 281//83 278//83
f 278//83 281//83 279//83
s 1
f 573//84 484//85 739//84
f 739//84 484//85 797//85
f 739//84 797//85 738//85
f 429//86 572//86 739//84
f 739//84 572//86 573//84
f 430//87 663//87 429//86
f 429//86 663//87 572//86
f 285//88 803//88 430//87
f 430//87 803//88 663//87
s 0
f 286//89 514//89 675//89
f 675//89 514//89 49//89
f 588//7 516//7 677//7
f 677//7 516//7 41//7
f 554//90 72//90 287//90
f 287//90 72//90 56//90
s 1
f 389//79 729//78 390//91
f 390//91 729//78 730//92
s 0
f 390//92 730//92 553//92
f 591//93 637//93 592//93
f 592//93 637//93 709//93
f 291//3 590//3 393//3
f 393//3 590//3 448//3
f 392//93 295//93 394//93
f 394//93 295//93 297//93
f 296//3 776//3 298//3
f 298//3 776//3 299//3
f 793//94 714//94 406//94
f 406//94 714//94 716//94
f 479//2 556//2 792//2
f 792//2 556//2 301//2
f 480//93 557//93 478//93
f 478//93 557//93 555//93
f 292//2 708//2 306//2
f 306//2 708//2 307//2
f 664//93 610//93 543//93
s 1
f 163//58 164//58 543//93
f 543//93 164//58 309//93
s 0
f 543//93 309//93 664//93
f 439//3 718//3 437//3
f 437//3 718//3 530//3
f 123//3 125//3 437//3
f 170//3 583//3 800//3
f 123//3 437//3 121//3
f 121//3 437//3 530//3
f 121//3 530//3 710//3
f 125//3 127//3 437//3
f 437//3 127//3 129//3
f 437//3 129//3 131//3
f 815//3 111//3 530//3
f 530//3 111//3 113//3
f 174//3 176//3 735//3
f 800//3 95//3 170//3
f 170//3 95//3 97//3
f 170//3 97//3 679//3
f 679//3 97//3 99//3
f 679//3 99//3 166//3
f 113//3 115//3 530//3
f 530//3 115//3 640//3
f 530//3 640//3 710//3
f 735//3 159//3 174//3
f 174//3 159//3 89//3
f 174//3 89//3 583//3
f 583//3 89//3 91//3
f 583//3 91//3 800//3
f 131//3 458//3 437//3
f 437//3 458//3 135//3
f 437//3 135//3 740//3
f 99//3 630//3 166//3
f 166//3 630//3 701//3
f 166//3 701//3 162//3
f 162//3 701//3 105//3
f 162//3 105//3 530//3
f 530//3 105//3 107//3
f 530//3 107//3 815//3
f 691//3 692//3 143//3
f 143//3 145//3 691//3
f 691//3 145//3 147//3
f 691//3 147//3 180//3
f 135//3 784//3 740//3
f 740//3 784//3 741//3
f 740//3 741//3 692//3
f 692//3 741//3 742//3
f 692//3 742//3 143//3
f 147//3 149//3 180//3
f 180//3 149//3 678//3
f 180//3 678//3 178//3
f 178//3 678//3 779//3
f 178//3 779//3 176//3
f 176//3 779//3 155//3
f 176//3 155//3 735//3
f 520//1 518//1 768//1
f 614//1 712//1 192//1
f 192//1 712//1 440//1
f 192//1 440//1 187//1
f 187//1 188//1 192//1
f 192//1 188//1 409//1
f 192//1 409//1 561//1
f 561//1 409//1 412//1
f 561//1 412//1 651//1
f 768//1 712//1 520//1
f 520//1 712//1 614//1
f 520//1 614//1 46//1
f 46//1 614//1 651//1
f 46//1 651//1 796//1
f 796//1 651//1 412//1
f 807//2 379//2 808//2
s 1
f 808//2 379//2 685//75
f 808//2 685//75 317//2
f 317//2 685//75 236//74
s 0
f 778//2 198//2 723//2
f 381//2 220//2 219//2
f 752//2 214//2 379//2
f 379//2 214//2 213//2
f 379//2 213//2 212//2
f 220//2 381//2 221//2
f 221//2 381//2 559//2
f 221//2 559//2 534//2
s 1
f 207//2 206//2 685//75
s 0
f 475//2 805//2 476//2
f 476//2 805//2 804//2
f 476//2 804//2 226//2
f 226//2 225//2 476//2
f 476//2 225//2 224//2
f 476//2 224//2 559//2
f 559//2 224//2 548//2
f 559//2 548//2 534//2
s 1
f 207//2 685//75 625//2
f 206//2 205//2 685//75
f 685//75 205//2 204//2
f 685//75 204//2 668//2
s 0
f 198//2 197//2 723//2
f 723//2 197//2 196//2
f 723//2 196//2 232//2
f 232//2 196//2 195//2
f 232//2 195//2 517//2
f 517//2 195//2 497//2
f 517//2 497//2 475//2
f 475//2 497//2 820//2
f 475//2 820//2 805//2
f 219//2 218//2 381//2
f 381//2 218//2 825//2
f 381//2 825//2 379//2
f 379//2 825//2 817//2
f 379//2 817//2 752//2
s 1
f 668//2 667//2 685//75
f 685//75 667//2 201//2
f 685//75 201//2 723//2
s 0
f 723//2 201//2 200//2
f 723//2 200//2 778//2
f 212//2 211//2 379//2
f 379//2 211//2 210//2
s 1
f 379//2 210//2 685//75
f 685//75 210//2 209//2
f 685//75 209//2 625//2
f 611//95 646//81 791//78
f 791//78 646//81 794//79
f 719//80 396//81 649//96
f 649//96 396//81 757//97
f 649//96 757//97 612//96
f 612//96 757//97 645//97
f 612//96 645//97 611//95
f 611//95 645//97 646//81
s 0
f 324//98 240//98 326//98
f 326//98 240//98 239//98
f 326//99 239//99 289//99
f 780//2 407//2 609//2
f 609//2 407//2 405//2
f 715//2 737//2 405//2
f 405//2 737//2 468//2
f 405//2 468//2 609//2
f 391//2 737//2 621//2
f 621//2 737//2 715//2
f 621//2 715//2 657//2
f 657//2 715//2 578//2
f 657//2 578//2 579//2
f 674//2 266//2 265//2
f 261//2 260//2 676//2
f 702//2 269//2 284//2
f 284//2 269//2 268//2
f 284//2 268//2 674//2
f 674//2 268//2 267//2
f 674//2 267//2 266//2
f 265//2 264//2 674//2
f 674//2 264//2 263//2
f 674//2 263//2 676//2
f 676//2 263//2 262//2
f 676//2 262//2 261//2
f 260//2 259//2 676//2
f 676//2 259//2 582//2
f 676//2 582//2 587//2
f 587//2 582//2 257//2
f 587//2 257//2 256//2
f 244//2 243//2 737//2
f 737//2 243//2 770//2
f 737//2 770//2 758//2
f 250//2 249//2 391//2
f 391//2 249//2 248//2
f 248//2 722//2 391//2
f 391//2 722//2 246//2
f 391//2 246//2 737//2
f 737//2 246//2 245//2
f 737//2 245//2 244//2
f 256//2 255//2 587//2
f 587//2 255//2 254//2
f 587//2 254//2 288//2
f 254//2 253//2 288//2
f 288//2 253//2 252//2
f 288//2 252//2 391//2
f 391//2 252//2 251//2
f 391//2 251//2 250//2
f 282//2 273//2 283//2
f 283//2 273//2 272//2
f 283//2 272//2 284//2
f 284//2 272//2 271//2
f 284//2 271//2 702//2
f 758//2 747//2 737//2
f 737//2 747//2 275//2
f 737//2 275//2 282//2
f 282//2 275//2 274//2
f 282//2 274//2 273//2
f 421//3 415//3 372//3
f 372//3 415//3 417//3
f 372//3 417//3 813//3
f 813//3 417//3 337//3
f 330//100 568//100 580//100
f 580//100 568//100 725//100
f 577//101 303//101 713//101
f 713//101 305//101 577//101
f 577//101 305//101 558//101
f 577//101 558//101 567//101
f 648//101 569//101 395//101
f 395//101 569//101 567//101
f 395//101 567//101 294//101
f 294//101 567//101 558//101
f 294//101 558//101 638//101
f 638//101 558//101 293//101
f 686//94 688//94 647//94
f 647//94 688//94 340//94
f 449//102 290//102 593//102
f 461//102 689//102 687//102
f 300//102 302//102 304//102
f 304//102 302//102 408//102
f 304//102 408//102 481//102
f 481//102 408//102 461//102
f 593//102 481//102 449//102
f 449//102 481//102 461//102
f 449//102 461//102 775//102
f 775//102 461//102 687//102
f 781//103 696//103 328//103
f 328//103 696//103 342//103
f 666//102 697//102 277//102
f 277//102 697//102 327//102
f 605//104 665//104 711//104
f 711//105 665//105 717//105
f 711//105 717//105 310//105
f 604//106 313//106 607//106
f 607//106 313//106 312//106
f 318//88 525//88 319//88
f 319//88 525//88 506//88
f 346//89 382//89 504//89
f 504//89 382//89 380//89
f 315//7 314//7 503//7
f 503//7 314//7 443//7
f 442//90 806//90 444//90
f 444//90 806//90 316//90
f 350//92 809//92 550//92
s 1
f 550//91 809//92 791//78
f 550//91 791//78 794//79
s 0
f 322//107 325//107 323//107
f 323//107 325//107 551//107
f 323//108 551//108 351//108
s 1
f 645//97 757//97 352//109
f 352//109 757//97 620//93
s 0
f 352//109 620//109 763//109
f 763//109 620//109 658//109
f 329//101 331//101 353//101
f 353//101 331//101 726//101
f 371//40 373//40 422//40
f 422//40 373//40 355//40
f 814//48 772//48 334//48
f 334//48 772//48 354//48
f 431//7 433//7 336//7
f 336//7 433//7 356//7
f 335//17 386//17 432//17
f 432//17 386//17 357//17
f 333//24 387//24 418//24
f 418//24 387//24 385//24
f 332//32 635//32 416//32
f 416//32 635//32 388//32
f 359//3 634//3 606//3
f 606//3 634//3 570//3
f 606//3 570//3 344//3
f 344//3 570//3 341//3
f 344//3 341//3 308//3
f 308//3 341//3 462//3
f 308//3 462//3 343//3
f 359//3 606//3 358//3
f 358//3 606//3 681//3
f 358//3 681//3 682//3
f 339//3 338//3 764//3
f 764//3 338//3 570//3
f 764//3 570//3 552//3
f 552//3 570//3 634//3
f 552//3 634//3 549//3
f 549//3 634//3 374//3
f 549//3 374//3 445//3
f 445//3 374//3 773//3
f 445//3 773//3 349//3
f 349//3 773//3 348//3
f 348//3 773//3 434//3
f 348//3 434//3 526//3
f 526//3 434//3 358//3
f 526//3 358//3 505//3
f 505//3 358//3 682//3
f 505//3 682//3 507//3
s 1
f 311//110 320//111 769//112
f 769//112 320//111 361//111
f 769//112 361//111 360//113
f 320//111 477//114 361//111
f 361//111 477//114 508//114
s 0
f 321//115 560//115 362//115
f 362//115 560//115 347//115
s 1
f 769//112 360//113 345//32
