# Blender 3.3.21
# www.blender.org
mtllib link_4.mtl
o Link_4
v 0.561000 -0.033500 0.006000
v 0.561000 -0.058500 0.006000
v 0.561000 -0.033500 -0.006000
v 0.561000 -0.058500 -0.006000
v 0.571000 0.058500 -0.006000
v 0.571000 0.058500 0.006000
v 0.573000 0.058500 -0.006000
v 0.573000 0.058500 0.006000
v 0.573000 0.033500 -0.006000
v 0.573000 0.033500 0.006000
v 0.531014 0.067000 -0.066756
v 0.508721 0.067000 -0.074000
v 0.507572 0.077500 -0.020749
v 0.500643 0.077500 -0.023000
v 0.549978 0.067000 -0.052978
v 0.513466 0.077500 -0.016466
v 0.563756 0.067000 -0.034014
v 0.517749 0.077500 -0.010572
v 0.571000 0.067000 -0.011720
v 0.520000 0.077500 -0.003643
v 0.571000 0.067000 0.011720
v 0.520000 0.077500 0.003643
v 0.563756 0.067000 0.034014
v 0.517749 0.077500 0.010572
v 0.549978 0.067000 0.052978
v 0.513466 0.077500 0.016466
v 0.531014 0.067000 0.066756
v 0.507572 0.077500 0.020749
v 0.508721 0.067000 0.074000
v 0.500643 0.077500 0.023000
v 0.533500 -0.087500 0.005781
v 0.533500 -0.087500 0.004326
v 0.537641 -0.072046 0.006437
v 0.537641 -0.072046 0.004880
v 0.557000 -0.065000 0.005211
v 0.533500 -0.087500 -0.004326
v 0.537641 -0.072046 -0.004880
v 0.557000 -0.065000 -0.005211
v 0.537641 -0.072046 -0.006437
v 0.533500 -0.087500 -0.005781
v 0.515681 -0.072046 -0.036663
v 0.503437 -0.072046 -0.040641
v 0.524579 -0.065000 -0.054127
v 0.506503 -0.065000 -0.060000
v 0.526096 -0.072046 -0.029096
v 0.539955 -0.065000 -0.042955
v 0.533663 -0.072046 -0.018681
v 0.551127 -0.065000 -0.027579
v 0.557000 -0.065000 -0.009503
v 0.557455 -0.058500 0.006000
v 0.557455 -0.058500 -0.006000
v 0.559203 -0.033500 0.006000
v 0.559203 -0.033500 -0.006000
v 0.557000 -0.065000 0.009503
v 0.533663 -0.072046 0.018680
v 0.551127 -0.065000 0.027579
v 0.526096 -0.072046 0.029096
v 0.539955 -0.065000 0.042955
v 0.515681 -0.072046 0.036662
v 0.524579 -0.065000 0.054127
v 0.503437 -0.072046 0.040641
v 0.506503 -0.065000 0.060000
v 0.490563 -0.072046 0.040641
v 0.487497 -0.065000 0.060000
v 0.490563 -0.072046 -0.040641
v 0.487497 -0.065000 -0.060000
v 0.485280 0.067000 -0.074000
v 0.493357 0.077500 -0.023000
v 0.508721 0.040500 0.074000
v 0.485280 0.040500 0.074000
v 0.485280 0.067000 0.074000
v 0.531014 0.040500 0.066756
v 0.549978 0.040500 0.052978
v 0.563756 0.040500 0.034014
v 0.571000 0.040500 0.011720
v 0.567736 0.033500 0.006000
v 0.567736 0.033500 -0.006000
v 0.571000 0.040500 0.006000
v 0.571000 0.040500 -0.006000
v 0.571000 0.040500 -0.011720
v 0.563756 0.040500 -0.034014
v 0.549978 0.040500 -0.052978
v 0.531014 0.040500 -0.066756
v 0.508721 0.040500 -0.074000
v 0.384000 0.074000 0.010768
v 0.384000 0.074000 0.014232
v 0.387000 0.074000 0.009036
v 0.387000 0.074000 0.015964
v 0.390000 0.074000 0.010768
v 0.390000 0.074000 0.014232
v 0.384000 0.074000 -0.010768
v 0.387000 0.074000 -0.009036
v 0.384000 0.074000 -0.014232
v 0.390000 0.074000 -0.010768
v 0.387000 0.074000 -0.015964
v 0.390000 0.074000 -0.014232
v 0.493357 0.077500 0.023000
v 0.476251 0.077500 0.010572
v 0.480534 0.077500 0.016466
v 0.474000 0.077500 0.003643
v 0.486428 0.077500 0.020749
v 0.480534 0.077500 -0.016466
v 0.486428 0.077500 -0.020749
v 0.476251 0.077500 -0.010572
v 0.474000 0.077500 -0.003643
v 0.478319 -0.072046 0.036662
v 0.469421 -0.065000 0.054127
v 0.478971 0.067000 0.071950
v 0.478971 0.040500 0.071950
v 0.454045 -0.065000 0.042955
v 0.467904 -0.072046 0.029096
v 0.465117 -0.065000 0.051000
v 0.460337 -0.072046 0.018680
v 0.442873 -0.065000 0.027579
v 0.456359 -0.072046 0.006437
v 0.437000 -0.065000 0.009503
v 0.513777 -0.087500 -0.032927
v 0.523131 -0.087500 -0.026131
v 0.502781 -0.087500 -0.036500
v 0.491219 -0.087500 -0.036500
v 0.480223 -0.087500 -0.032927
v 0.478319 -0.072046 -0.036663
v 0.470869 -0.087500 -0.026131
v 0.467904 -0.072046 -0.029096
v 0.464073 -0.087500 -0.016777
v 0.460337 -0.072046 -0.018681
v 0.460500 -0.087500 -0.005781
v 0.456359 -0.072046 -0.006437
v 0.464073 -0.087500 0.016777
v 0.460500 -0.087500 0.005781
v 0.470869 -0.087500 0.026131
v 0.480223 -0.087500 0.032927
v 0.491219 -0.087500 0.036500
v 0.502781 -0.087500 0.036500
v 0.513777 -0.087500 0.032927
v 0.523131 -0.087500 0.026131
v 0.529927 -0.087500 0.016777
v 0.529927 -0.087500 -0.016777
v 0.442873 -0.065000 -0.027579
v 0.437000 -0.065000 -0.009503
v 0.454045 -0.065000 -0.042955
v 0.469421 -0.065000 -0.054127
v 0.465117 -0.065000 -0.051000
v 0.526074 -0.018500 -0.057060
v 0.507018 -0.018500 -0.063252
v 0.542283 -0.018500 -0.045283
v 0.554060 -0.018500 -0.029074
v 0.560252 -0.018500 -0.010018
v 0.560252 -0.018500 0.010018
v 0.554060 -0.018500 0.029073
v 0.542283 -0.018500 0.045283
v 0.526074 -0.018500 0.057060
v 0.507018 -0.018500 0.063251
v 0.486982 -0.018500 0.063251
v 0.486982 -0.018500 -0.063252
v 0.485280 0.040500 -0.074000
v 0.462986 0.067000 -0.066756
v 0.507096 0.018500 0.063741
v 0.486904 0.018500 0.063741
v 0.526299 0.018500 0.057502
v 0.542634 0.018500 0.045634
v 0.554502 0.018500 0.029299
v 0.560741 0.018500 0.010095
v 0.560741 0.018500 -0.010096
v 0.554502 0.018500 -0.029299
v 0.542634 0.018500 -0.045634
v 0.526299 0.018500 -0.057502
v 0.507096 0.018500 -0.063741
v 0.486904 0.018500 -0.063741
v 0.435036 0.018500 0.037543
v 0.435036 -0.018500 0.037543
v 0.428416 0.018500 -0.038122
v 0.428416 -0.018500 -0.038122
v 0.384000 0.079000 0.010768
v 0.384000 0.079000 0.014232
v 0.387000 0.079000 0.009036
v 0.390000 0.079000 0.010768
v 0.390000 0.079000 0.014232
v 0.387000 0.079000 0.015964
v 0.384000 0.079000 -0.014232
v 0.384000 0.079000 -0.010768
v 0.387000 0.079000 -0.015964
v 0.390000 0.079000 -0.014232
v 0.390000 0.079000 -0.010768
v 0.387000 0.079000 -0.009036
v 0.444022 0.067000 -0.052978
v 0.430244 0.067000 -0.034014
v 0.462986 0.067000 0.066756
v 0.444022 0.067000 0.052978
v 0.430244 0.067000 0.034014
v 0.423000 0.067000 0.011720
v 0.423000 0.067000 -0.011720
v 0.444864 0.018500 0.036683
v 0.451366 0.018500 0.045634
v 0.449150 0.025138 0.047850
v 0.467701 0.018500 0.057502
v 0.464043 0.035568 0.064682
v 0.388429 -0.018500 0.041621
v 0.385575 0.018500 0.041871
v 0.379750 -0.012969 0.042380
v 0.379750 0.010259 0.042380
v 0.451975 -0.023655 0.045025
v 0.468327 -0.030948 0.056275
v 0.451717 -0.018500 0.045283
v 0.467926 -0.018500 0.057060
v 0.445433 -0.018500 0.036634
v 0.469314 -0.061663 0.054337
v 0.477915 -0.058646 0.057354
v 0.477632 -0.033066 0.059142
v 0.467356 0.067000 0.070318
v 0.467356 0.038977 0.070318
v 0.456359 -0.072046 0.004517
v 0.460500 -0.087500 0.004000
v 0.437000 -0.065000 0.004674
v 0.433202 -0.065000 0.051000
v 0.433202 -0.065000 0.004657
v 0.456359 -0.072046 -0.004517
v 0.437000 -0.065000 -0.004674
v 0.460500 -0.087500 -0.004000
v 0.433202 -0.065000 -0.051000
v 0.433202 -0.065000 -0.004657
v 0.469314 -0.061663 -0.054337
v 0.445433 -0.018500 -0.036634
v 0.451717 -0.018500 -0.045283
v 0.467926 -0.018500 -0.057060
v 0.451975 -0.023655 -0.045025
v 0.468327 -0.030948 -0.056275
v 0.482400 -0.034151 -0.060612
v 0.482653 -0.056985 -0.059015
v 0.379750 -0.012969 -0.042380
v 0.379750 0.010259 -0.042380
v 0.388429 -0.018500 -0.041621
v 0.385575 0.018500 -0.041871
v 0.478971 0.040500 -0.071950
v 0.457039 0.035298 -0.064824
v 0.457039 0.067000 -0.064824
v 0.467701 0.018500 -0.057502
v 0.464043 0.035568 -0.064682
v 0.449150 0.025138 -0.047850
v 0.451366 0.018500 -0.045634
v 0.444864 0.018500 -0.036683
v 0.440615 0.034471 -0.064824
v 0.440615 0.067000 -0.064824
v 0.397000 0.079000 0.020000
v 0.377000 0.079000 0.020000
v 0.377000 0.079000 -0.020000
v 0.397000 0.079000 -0.020000
v 0.422000 0.061765 0.061000
v 0.422000 0.067000 0.061000
v 0.422000 0.067000 0.055765
v 0.422000 0.067000 -0.051851
v 0.422000 0.067000 -0.061000
v 0.422000 0.057851 -0.061000
v 0.422000 0.031335 0.061000
v 0.374531 0.028946 0.061000
v 0.369000 0.020428 0.061000
v 0.369000 -0.023137 0.061000
v 0.377240 -0.029083 0.061000
v 0.468750 -0.033688 0.061000
v 0.462017 -0.055000 0.061000
v 0.432547 -0.055000 0.061000
v 0.385239 -0.061228 0.061000
v 0.385791 -0.071242 0.051000
v 0.364840 -0.074000 0.004040
v 0.355920 -0.074000 0.004000
v 0.364840 -0.074000 0.047725
v 0.347000 -0.060284 0.061000
v 0.347000 -0.074000 0.047284
v 0.420183 -0.066714 -0.051000
v 0.364840 -0.074000 -0.004040
v 0.364840 -0.074000 -0.037554
v 0.355920 -0.074000 -0.004000
v 0.347000 -0.074000 -0.035569
v 0.347000 -0.048568 -0.061000
v 0.419828 -0.056674 -0.061000
v 0.432547 -0.055000 -0.061000
v 0.467726 -0.055000 -0.061000
v 0.479231 -0.034215 -0.061000
v 0.377240 -0.029083 -0.061000
v 0.369000 -0.023137 -0.061000
v 0.369000 0.020428 -0.061000
v 0.374531 0.028946 -0.061000
v 0.422000 0.031335 -0.061000
v 0.397000 0.074000 0.020000
v 0.397000 0.074000 -0.020000
v 0.377000 0.074000 -0.020000
v 0.377000 0.074000 0.020000
v 0.422000 0.074000 0.048765
v 0.407000 0.074000 0.048765
v 0.407000 0.061765 0.061000
v 0.347000 0.060284 0.061000
v 0.347000 0.074000 0.047284
v 0.347000 0.074000 -0.035569
v 0.407000 0.074000 -0.042247
v 0.347000 0.048568 -0.061000
v 0.407000 0.055247 -0.061000
v 0.422000 0.074000 -0.044851
v 0.318000 0.060284 0.061000
v 0.318000 0.074000 0.047284
v 0.318000 -0.060284 0.061000
v 0.318000 -0.074000 0.047284
v 0.318000 -0.074000 -0.035569
v 0.318000 -0.048568 -0.061000
v 0.318000 0.048568 -0.061000
v 0.318000 0.074000 -0.035569
v 0.318000 -0.020500 -0.035507
v 0.318000 -0.014023 -0.038527
v 0.318000 0.020500 0.035507
v 0.318000 0.014023 0.038527
v 0.318000 -0.014023 0.038527
v 0.318000 -0.020500 0.035507
v 0.318000 0.026354 0.031408
v 0.318000 0.007120 0.040377
v 0.318000 0.000000 0.041000
v 0.318000 -0.007120 0.040377
v 0.318000 -0.026354 0.031408
v 0.318000 -0.031408 0.026354
v 0.318000 -0.035507 0.020500
v 0.318000 -0.026354 -0.031408
v 0.318000 -0.007120 -0.040377
v 0.318000 0.000000 -0.041000
v 0.318000 -0.040377 -0.007120
v 0.318000 -0.038527 -0.014023
v 0.318000 -0.035507 -0.020500
v 0.318000 -0.031408 -0.026354
v 0.318000 0.007120 -0.040377
v 0.318000 0.014023 -0.038527
v 0.318000 0.020500 -0.035507
v 0.318000 -0.038527 0.014023
v 0.318000 -0.040377 0.007120
v 0.318000 -0.041000 0.000000
v 0.318000 0.038527 0.014023
v 0.318000 0.035507 0.020500
v 0.318000 0.026354 -0.031408
v 0.318000 0.031408 -0.026354
v 0.318000 0.035507 -0.020500
v 0.318000 0.038527 -0.014023
v 0.318000 0.031408 0.026354
v 0.318000 0.040377 -0.007120
v 0.318000 0.041000 0.000000
v 0.318000 0.040377 0.007120
v 0.270000 0.000000 0.041000
v 0.318000 0.000000 0.041000
v 0.270000 -0.007120 0.040377
v 0.270000 -0.014023 0.038527
v 0.270000 -0.020500 0.035507
v 0.270000 -0.026354 0.031408
v 0.270000 -0.031408 0.026354
v 0.270000 -0.035507 0.020500
v 0.270000 -0.038527 0.014023
v 0.270000 -0.040377 0.007120
v 0.270000 -0.041000 0.000000
v 0.270000 -0.040377 -0.007120
v 0.270000 -0.038527 -0.014023
v 0.270000 -0.035507 -0.020500
v 0.270000 -0.031408 -0.026354
v 0.270000 -0.026354 -0.031408
v 0.270000 -0.020500 -0.035507
v 0.270000 -0.014023 -0.038527
v 0.270000 -0.007120 -0.040377
v 0.270000 0.000000 -0.041000
v 0.318000 0.000000 -0.041000
v 0.270000 0.007120 -0.040377
v 0.270000 0.014023 -0.038527
v 0.270000 0.020500 -0.035507
v 0.270000 0.026354 -0.031408
v 0.270000 0.031408 -0.026354
v 0.270000 0.035507 -0.020500
v 0.270000 0.038527 -0.014023
v 0.270000 0.040377 -0.007120
v 0.270000 0.041000 0.000000
v 0.270000 0.040377 0.007120
v 0.270000 0.038527 0.014023
v 0.270000 0.035507 0.020500
v 0.270000 0.031408 0.026354
v 0.270000 0.026354 0.031408
v 0.270000 0.020500 0.035507
v 0.270000 0.014023 0.038527
v 0.270000 0.007120 0.040377
v 0.270000 0.034068 -0.040600
v 0.270000 0.040600 -0.034068
v 0.270000 0.045899 -0.026500
v 0.270000 0.049804 -0.018127
v 0.270000 0.052195 -0.009203
v 0.270000 0.053000 0.000000
v 0.270000 0.052195 0.009203
v 0.270000 0.049804 0.018127
v 0.270000 0.045899 0.026500
v 0.270000 0.040600 0.034068
v 0.270000 0.034068 0.040600
v 0.270000 0.026500 0.045899
v 0.270000 0.018127 0.049804
v 0.270000 0.009203 0.052195
v 0.270000 0.000000 0.041000
v 0.270000 0.000000 0.053000
v 0.270000 -0.009203 0.052195
v 0.270000 -0.018127 0.049804
v 0.270000 -0.026500 0.045899
v 0.270000 -0.034068 0.040600
v 0.270000 -0.040600 0.034068
v 0.270000 -0.045899 0.026500
v 0.270000 -0.049804 0.018127
v 0.270000 -0.052195 0.009203
v 0.270000 -0.053000 0.000000
v 0.270000 -0.052195 -0.009203
v 0.270000 -0.049804 -0.018127
v 0.270000 -0.045899 -0.026500
v 0.270000 -0.040600 -0.034068
v 0.270000 -0.034068 -0.040600
v 0.270000 -0.026500 -0.045899
v 0.270000 -0.018127 -0.049804
v 0.270000 -0.009203 -0.052195
v 0.270000 0.000000 -0.041000
v 0.270000 0.000000 -0.053000
v 0.270000 0.009203 -0.052195
v 0.270000 0.018127 -0.049804
v 0.270000 0.026500 -0.045899
v 0.000000 0.045358 -0.067109
v 0.000000 0.033364 -0.073809
v 0.000000 0.050886 0.063021
v 0.000000 0.039503 0.070714
v 0.000000 0.020410 -0.078386
v 0.000000 0.006869 -0.080708
v 0.000000 -0.006869 -0.080708
v 0.000000 -0.068974 0.042469
v 0.000000 -0.045358 -0.067109
v 0.000000 -0.075159 0.030201
v 0.000000 -0.056047 -0.058478
v 0.000000 -0.060804 0.053515
v 0.000000 -0.050886 0.063021
v 0.000000 -0.039503 0.070714
v 0.000000 0.056047 -0.058478
v 0.000000 0.060804 0.053515
v 0.000000 0.068974 0.042469
v 0.000000 -0.020410 -0.078386
v 0.000000 -0.033364 -0.073809
v 0.000000 -0.065124 -0.048165
v 0.000000 -0.072327 -0.036466
v 0.000000 -0.077450 -0.023719
v 0.000000 -0.026984 0.076373
v 0.000000 -0.013689 0.079835
v 0.000000 0.000000 0.081000
v 0.000000 0.013689 0.079835
v 0.000000 0.026984 0.076373
v 0.000000 -0.080344 -0.010288
v 0.000000 -0.080927 0.003438
v 0.000000 -0.079182 0.017065
v 0.000000 0.072327 -0.036466
v 0.000000 0.079182 0.017065
v 0.000000 0.077450 -0.023719
v 0.000000 0.080927 0.003438
v 0.000000 0.080344 -0.010288
v 0.000000 0.075159 0.030201
v 0.000000 0.065124 -0.048165
v 0.240000 0.000000 0.053000
v 0.270000 0.000000 0.053000
v 0.240000 -0.009203 0.052195
v 0.240000 -0.018127 0.049804
v 0.240000 -0.026500 0.045899
v 0.240000 -0.034068 0.040600
v 0.240000 -0.040600 0.034068
v 0.240000 -0.045899 0.026500
v 0.240000 -0.049804 0.018127
v 0.240000 -0.052195 0.009203
v 0.240000 -0.053000 0.000000
v 0.240000 -0.052195 -0.009203
v 0.240000 -0.049804 -0.018127
v 0.240000 -0.045899 -0.026500
v 0.240000 -0.040600 -0.034068
v 0.240000 -0.034068 -0.040600
v 0.240000 -0.026500 -0.045899
v 0.240000 -0.018127 -0.049804
v 0.240000 -0.009203 -0.052195
v 0.240000 0.000000 -0.053000
v 0.270000 0.000000 -0.053000
v 0.240000 0.009203 -0.052195
v 0.240000 0.018127 -0.049804
v 0.240000 0.026500 -0.045899
v 0.240000 0.034068 -0.040600
v 0.240000 0.040600 -0.034068
v 0.240000 0.045899 -0.026500
v 0.240000 0.049804 -0.018127
v 0.240000 0.052195 -0.009203
v 0.240000 0.053000 0.000000
v 0.240000 0.052195 0.009203
v 0.240000 0.049804 0.018127
v 0.240000 0.045899 0.026500
v 0.240000 0.040600 0.034068
v 0.240000 0.034068 0.040600
v 0.240000 0.026500 0.045899
v 0.240000 0.018127 0.049804
v 0.240000 0.009203 0.052195
v 0.007000 0.013689 0.079835
v 0.000000 0.000000 0.081000
v 0.007000 0.000000 0.081000
v 0.007000 -0.013689 0.079835
v 0.007000 -0.026984 0.076373
v 0.007000 -0.039503 0.070714
v 0.007000 -0.050886 0.063021
v 0.007000 -0.060804 0.053515
v 0.007000 -0.068974 0.042469
v 0.007000 -0.075159 0.030201
v 0.007000 -0.079182 0.017065
v 0.007000 -0.080927 0.003438
v 0.007000 -0.080344 -0.010288
v 0.007000 -0.077450 -0.023719
v 0.007000 -0.072327 -0.036466
v 0.007000 -0.065124 -0.048165
v 0.007000 -0.056047 -0.058478
v 0.007000 -0.045358 -0.067109
v 0.007000 -0.033364 -0.073809
v 0.007000 -0.020410 -0.078386
v 0.007000 -0.006869 -0.080708
v 0.007000 0.006869 -0.080708
v 0.007000 0.020410 -0.078386
v 0.007000 0.033364 -0.073809
v 0.007000 0.045358 -0.067109
v 0.007000 0.056047 -0.058478
v 0.007000 0.065124 -0.048165
v 0.007000 0.072327 -0.036466
v 0.007000 0.077450 -0.023719
v 0.007000 0.080344 -0.010288
v 0.007000 0.080927 0.003438
v 0.007000 0.079182 0.017065
v 0.007000 0.075159 0.030201
v 0.007000 0.068974 0.042469
v 0.007000 0.060804 0.053515
v 0.007000 0.050886 0.063021
v 0.007000 0.039503 0.070714
v 0.007000 0.026984 0.076373
v 0.240000 0.046045 -0.016759
v 0.240000 0.042435 -0.024500
v 0.240000 0.037536 -0.031497
v 0.240000 0.031497 -0.037536
v 0.240000 0.024500 -0.042435
v 0.240000 0.016759 -0.046045
v 0.240000 0.008509 -0.048256
v 0.240000 0.000000 -0.049000
v 0.240000 0.000000 -0.053000
v 0.240000 -0.008509 -0.048256
v 0.240000 -0.016759 -0.046045
v 0.240000 -0.024500 -0.042435
v 0.240000 -0.031497 -0.037536
v 0.240000 -0.037536 -0.031497
v 0.240000 -0.042435 -0.024500
v 0.240000 -0.046045 -0.016759
v 0.240000 -0.048256 -0.008509
v 0.240000 -0.049000 0.000000
v 0.240000 -0.048256 0.008509
v 0.240000 -0.046045 0.016759
v 0.240000 -0.042435 0.024500
v 0.240000 -0.037536 0.031497
v 0.240000 -0.031497 0.037536
v 0.240000 -0.024500 0.042435
v 0.240000 -0.016759 0.046045
v 0.240000 -0.008509 0.048256
v 0.240000 0.000000 0.049000
v 0.240000 0.000000 0.053000
v 0.240000 0.008509 0.048256
v 0.240000 0.016759 0.046045
v 0.240000 0.024500 0.042435
v 0.240000 0.031497 0.037536
v 0.240000 0.037536 0.031497
v 0.240000 0.042435 0.024500
v 0.240000 0.046045 0.016759
v 0.240000 0.048256 0.008509
v 0.240000 0.049000 0.000000
v 0.240000 0.048256 -0.008509
v 0.012000 -0.020502 0.056340
v 0.012000 -0.029963 0.051907
v 0.012000 -0.029262 0.052381
v 0.012000 -0.038508 0.045901
v 0.012000 -0.037693 0.046682
v 0.012000 -0.045880 0.038506
v 0.012000 -0.045040 0.039640
v 0.012000 -0.051854 0.029946
v 0.012000 -0.051092 0.031458
v 0.012000 -0.056252 0.020481
v 0.012000 -0.055673 0.022371
v 0.012000 -0.058940 0.010400
v 0.012000 -0.058653 0.012641
v 0.012000 -0.059838 0.000007
v 0.012000 -0.059946 0.002546
v 0.012000 -0.058919 -0.010382
v 0.012000 -0.059514 -0.007621
v 0.012000 -0.056211 -0.020453
v 0.012000 -0.057370 -0.017569
v 0.012000 -0.051798 -0.029899
v 0.012000 -0.053575 -0.027012
v 0.012000 -0.045813 -0.038435
v 0.012000 -0.048240 -0.035678
v 0.012000 -0.038438 -0.045803
v 0.012000 -0.041516 -0.043317
v 0.012000 -0.029898 -0.051778
v 0.012000 -0.033598 -0.049711
v 0.012000 -0.020450 -0.056180
v 0.012000 -0.024714 -0.054674
v 0.012000 -0.010382 -0.058876
v 0.012000 -0.015119 -0.058064
v 0.012000 0.000000 -0.059784
v 0.012000 -0.005088 -0.059784
v 0.012000 0.010382 -0.058876
v 0.012000 0.005088 -0.059784
v 0.012000 0.020450 -0.056180
v 0.012000 0.015119 -0.058064
v 0.012000 0.029898 -0.051778
v 0.012000 0.024714 -0.054674
v 0.012000 0.038438 -0.045803
v 0.012000 0.033598 -0.049711
v 0.012000 0.045813 -0.038435
v 0.012000 0.041516 -0.043317
v 0.012000 0.051798 -0.029899
v 0.012000 0.048240 -0.035678
v 0.012000 0.056211 -0.020453
v 0.012000 0.053575 -0.027012
v 0.012000 0.058919 -0.010382
v 0.012000 0.057370 -0.017569
v 0.012000 0.059838 0.000007
v 0.012000 0.059514 -0.007621
v 0.012000 0.058940 0.010400
v 0.012000 0.059946 0.002546
v 0.012000 0.056252 0.020481
v 0.012000 0.058653 0.012641
v 0.012000 0.051854 0.029946
v 0.012000 0.055673 0.022371
v 0.012000 0.045880 0.038506
v 0.012000 0.051092 0.031458
v 0.012000 0.038508 0.045901
v 0.012000 0.045040 0.039640
v 0.012000 0.029963 0.051907
v 0.012000 0.037693 0.046682
v 0.012000 0.020502 0.056340
v 0.012000 0.029262 0.052381
v 0.012000 0.010413 0.059066
v 0.012000 0.019988 0.056572
v 0.012000 -0.019988 0.056572
v 0.012000 -0.010413 0.059066
v 0.012000 -0.010140 0.059137
v 0.007000 0.000000 0.081000
v 0.012000 0.000000 0.060000
v 0.012000 0.010140 0.059137
v 0.240000 0.000000 0.049000
v 0.240000 0.000000 -0.049000
v 0.240000 -0.048256 0.008509
v 0.240000 -0.046045 0.016759
v 0.428416 -0.018500 -0.038122
v 0.428416 -0.018500 -0.038122
v 0.428416 -0.018500 -0.038122
v 0.388429 -0.018500 -0.041621
v 0.542283 -0.018500 0.045283
v 0.526074 -0.018500 0.057060
v 0.012000 -0.058940 0.010400
v 0.012000 -0.059946 0.002546
v 0.012000 -0.038508 0.045901
v 0.012000 -0.045040 0.039640
v 0.318000 0.040377 -0.007120
v 0.318000 0.041000 0.000000
v 0.397000 0.079000 0.020000
v 0.397000 0.079000 0.020000
v 0.377000 0.079000 0.020000
v 0.377000 0.079000 0.020000
v 0.571000 0.058500 0.006000
v 0.571000 0.058500 0.006000
v 0.571000 0.040500 0.006000
v 0.318000 0.020500 0.035507
v 0.318000 0.014023 0.038527
v 0.456359 -0.072046 0.004517
v 0.456359 -0.072046 0.004517
v 0.437000 -0.065000 0.004674
v 0.012000 0.045880 0.038506
v 0.012000 0.051092 0.031458
v 0.012000 -0.029963 0.051907
v 0.012000 -0.029262 0.052381
v 0.270000 -0.018127 0.049804
v 0.270000 -0.026500 0.045899
v 0.012000 0.051798 -0.029899
v 0.012000 0.053575 -0.027012
v 0.000000 -0.056047 -0.058478
v 0.000000 -0.065124 -0.048165
v 0.384000 0.074000 -0.014232
v 0.384000 0.074000 -0.014232
v 0.387000 0.074000 -0.015964
v 0.387000 0.074000 -0.015964
v 0.240000 0.049804 -0.018127
v 0.240000 0.052195 -0.009203
v 0.420183 -0.066714 -0.051000
v 0.364840 -0.074000 -0.037554
v 0.432547 -0.055000 -0.061000
v 0.467726 -0.055000 -0.061000
v 0.012000 -0.029898 -0.051778
v 0.012000 -0.033598 -0.049711
v 0.422000 0.057851 -0.061000
v 0.422000 0.057851 -0.061000
v 0.407000 0.055247 -0.061000
v 0.007000 0.065124 -0.048165
v 0.007000 0.072327 -0.036466
v 0.007000 -0.056047 -0.058478
v 0.007000 -0.045358 -0.067109
v 0.422000 0.061765 0.061000
v 0.422000 0.061765 0.061000
v 0.407000 0.061765 0.061000
v 0.533500 -0.087500 0.004326
v 0.533500 -0.087500 0.004326
v 0.533500 -0.087500 0.004326
v 0.537641 -0.072046 0.004880
v 0.537641 -0.072046 0.004880
v 0.561000 -0.058500 0.006000
v 0.561000 -0.058500 0.006000
v 0.561000 -0.058500 -0.006000
v 0.561000 -0.058500 -0.006000
v 0.537641 -0.072046 -0.006437
v 0.533663 -0.072046 -0.018681
v 0.561000 -0.033500 0.006000
v 0.561000 -0.033500 0.006000
v 0.464073 -0.087500 -0.016777
v 0.460500 -0.087500 -0.005781
v 0.000000 0.077450 -0.023719
v 0.000000 0.080344 -0.010288
v 0.000000 0.050886 0.063021
v 0.000000 0.039503 0.070714
v 0.318000 0.026354 -0.031408
v 0.318000 0.031408 -0.026354
v 0.377000 0.079000 -0.020000
v 0.377000 0.079000 -0.020000
v 0.387000 0.074000 -0.009036
v 0.387000 0.074000 -0.009036
v 0.390000 0.074000 -0.010768
v 0.390000 0.074000 -0.010768
v 0.240000 -0.009203 0.052195
v 0.240000 -0.018127 0.049804
v 0.390000 0.074000 -0.014232
v 0.390000 0.074000 -0.014232
v 0.419828 -0.056674 -0.061000
v 0.007000 -0.077450 -0.023719
v 0.007000 -0.072327 -0.036466
v 0.384000 0.079000 -0.014232
v 0.384000 0.079000 -0.014232
v 0.387000 0.079000 -0.015964
v 0.387000 0.079000 -0.015964
v 0.385575 0.018500 0.041871
v 0.385575 0.018500 0.041871
v 0.374531 0.028946 0.061000
v 0.374531 0.028946 0.061000
v 0.270000 0.045899 0.026500
v 0.270000 0.040600 0.034068
v 0.270000 0.026354 -0.031408
v 0.270000 0.031408 -0.026354
v 0.561000 -0.033500 -0.006000
v 0.561000 -0.033500 -0.006000
v 0.000000 0.033364 -0.073809
v 0.000000 0.020410 -0.078386
v 0.478319 -0.072046 -0.036663
v 0.467904 -0.072046 -0.029096
v 0.397000 0.079000 -0.020000
v 0.397000 0.079000 -0.020000
v 0.507096 0.018500 0.063741
v 0.526299 0.018500 0.057502
v 0.533500 -0.087500 -0.004326
v 0.533500 -0.087500 -0.004326
v 0.533500 -0.087500 -0.004326
v 0.533500 -0.087500 -0.005781
v 0.318000 -0.074000 -0.035569
v 0.318000 -0.074000 -0.035569
v 0.318000 -0.048568 -0.061000
v 0.318000 -0.048568 -0.061000
v 0.012000 0.051854 0.029946
v 0.012000 0.055673 0.022371
v 0.012000 -0.037693 0.046682
v 0.318000 0.038527 0.014023
v 0.318000 0.040377 0.007120
v 0.240000 0.040600 0.034068
v 0.240000 0.034068 0.040600
v 0.012000 0.010382 -0.058876
v 0.012000 0.015119 -0.058064
v 0.456359 -0.072046 -0.004517
v 0.456359 -0.072046 -0.004517
v 0.437000 -0.065000 -0.004674
v 0.012000 -0.038438 -0.045803
v 0.012000 -0.041516 -0.043317
v 0.007000 0.045358 -0.067109
v 0.007000 0.056047 -0.058478
v 0.422000 0.067000 0.055765
v 0.422000 0.067000 0.055765
v 0.422000 0.067000 0.055765
v 0.533500 -0.087500 0.005781
v 0.270000 0.049804 0.018127
v 0.270000 0.041000 0.000000
v 0.270000 0.040377 0.007120
v 0.384000 0.079000 -0.010768
v 0.384000 0.079000 -0.010768
v 0.482653 -0.056985 -0.059015
v 0.240000 -0.008509 -0.048256
v 0.240000 -0.016759 -0.046045
v 0.560252 -0.018500 -0.010018
v 0.560252 -0.018500 0.010018
v 0.000000 -0.050886 0.063021
v 0.000000 -0.039503 0.070714
v 0.000000 0.080927 0.003438
v 0.571000 0.058500 -0.006000
v 0.571000 0.058500 -0.006000
v 0.571000 0.040500 -0.006000
v 0.347000 0.048568 -0.061000
v 0.557000 -0.065000 0.005211
v 0.557000 -0.065000 0.005211
v 0.557000 -0.065000 0.005211
v 0.270000 -0.034068 0.040600
v 0.390000 0.074000 0.010768
v 0.390000 0.074000 0.010768
v 0.390000 0.074000 0.014232
v 0.390000 0.074000 0.014232
v 0.240000 0.026500 0.045899
v 0.369000 0.020428 -0.061000
v 0.374531 0.028946 -0.061000
v 0.374531 0.028946 -0.061000
v 0.422000 0.067000 -0.051851
v 0.422000 0.067000 -0.051851
v 0.422000 0.067000 -0.051851
v 0.422000 0.074000 -0.044851
v 0.422000 0.074000 -0.044851
v 0.460500 -0.087500 -0.004000
v 0.460500 -0.087500 -0.004000
v 0.318000 -0.035507 -0.020500
v 0.318000 -0.031408 -0.026354
v 0.240000 0.024500 0.042435
v 0.240000 0.031497 0.037536
v 0.007000 0.013689 0.079835
v 0.007000 0.026984 0.076373
v 0.270000 -0.031408 -0.026354
v 0.270000 -0.026354 -0.031408
v 0.557000 -0.065000 -0.005211
v 0.557000 -0.065000 -0.005211
v 0.557000 -0.065000 -0.005211
v 0.554060 -0.018500 -0.029074
v 0.377000 0.074000 -0.020000
v 0.377000 0.074000 -0.020000
v 0.422000 0.067000 0.061000
v 0.422000 0.067000 0.061000
v 0.384000 0.074000 0.014232
v 0.384000 0.074000 0.014232
v 0.384000 0.079000 0.014232
v 0.384000 0.079000 0.014232
v 0.435036 -0.018500 0.037543
v 0.435036 -0.018500 0.037543
v 0.388429 -0.018500 0.041621
v 0.012000 -0.059838 0.000007
v 0.270000 -0.045899 0.026500
v 0.270000 -0.049804 0.018127
v 0.240000 0.026500 -0.045899
v 0.240000 0.034068 -0.040600
v 0.012000 0.056211 -0.020453
v 0.318000 0.014023 -0.038527
v 0.318000 0.020500 -0.035507
v 0.270000 -0.020500 -0.035507
v 0.364840 -0.074000 0.004040
v 0.355920 -0.074000 0.004000
v 0.387000 0.074000 0.015964
v 0.387000 0.074000 0.015964
v 0.557000 -0.065000 -0.009503
v 0.240000 -0.042435 0.024500
v 0.480223 -0.087500 -0.032927
v 0.470869 -0.087500 -0.026131
v 0.491219 -0.087500 -0.036500
v 0.486904 0.018500 0.063741
v 0.347000 0.074000 -0.035569
v 0.407000 0.074000 -0.042247
v 0.435036 0.018500 0.037543
v 0.435036 0.018500 0.037543
v 0.435036 0.018500 0.037543
v 0.537641 -0.072046 -0.004880
v 0.537641 -0.072046 -0.004880
v 0.270000 -0.040600 0.034068
v 0.240000 0.018127 -0.049804
v 0.503437 -0.072046 0.040641
v 0.490563 -0.072046 0.040641
v 0.240000 0.008509 0.048256
v 0.240000 0.016759 0.046045
v 0.270000 0.040377 -0.007120
v 0.347000 -0.074000 -0.035569
v 0.478971 0.040500 0.071950
v 0.464043 0.035568 0.064682
v 0.460337 -0.072046 -0.018681
v 0.456359 -0.072046 -0.006437
v 0.385575 0.018500 -0.041871
v 0.385575 0.018500 -0.041871
v 0.464043 0.035568 -0.064682
v 0.449150 0.025138 -0.047850
v 0.007000 0.039503 0.070714
v 0.012000 0.056252 0.020481
v 0.397000 0.074000 0.020000
v 0.397000 0.074000 0.020000
v 0.377000 0.074000 0.020000
v 0.377000 0.074000 0.020000
v 0.012000 0.058940 0.010400
v 0.012000 0.059946 0.002546
v 0.506503 -0.065000 0.060000
v 0.487497 -0.065000 0.060000
v 0.240000 0.009203 -0.052195
v 0.422000 0.031335 -0.061000
v 0.573000 0.058500 0.006000
v 0.573000 0.058500 0.006000
v 0.573000 0.033500 0.006000
v 0.573000 0.033500 0.006000
v 0.012000 -0.045813 -0.038435
v 0.012000 -0.051798 -0.029899
v 0.012000 -0.053575 -0.027012
v 0.465117 -0.065000 0.051000
v 0.465117 -0.065000 0.051000
v 0.469314 -0.061663 0.054337
v 0.240000 -0.049804 0.018127
v 0.240000 -0.052195 0.009203
v 0.270000 -0.014023 -0.038527
v 0.270000 -0.007120 -0.040377
v 0.387000 0.079000 0.009036
v 0.387000 0.079000 0.009036
v 0.390000 0.079000 0.010768
v 0.390000 0.079000 0.010768
v 0.526074 -0.018500 -0.057060
v 0.507018 -0.018500 -0.063252
v 0.318000 0.038527 -0.014023
v 0.318000 0.035507 -0.020500
v 0.422000 0.067000 -0.061000
v 0.422000 0.067000 -0.061000
v 0.387000 0.074000 0.009036
v 0.387000 0.074000 0.009036
v 0.000000 -0.080344 -0.010288
v 0.000000 -0.080927 0.003438
v 0.240000 0.046045 -0.016759
v 0.240000 0.048256 -0.008509
v 0.270000 -0.052195 0.009203
v 0.445433 -0.018500 -0.036634
v 0.445433 -0.018500 -0.036634
v 0.270000 0.035507 -0.020500
v 0.270000 0.038527 -0.014023
v 0.007000 0.050886 0.063021
v 0.432547 -0.055000 0.061000
v 0.385239 -0.061228 0.061000
v 0.485280 0.067000 0.074000
v 0.478971 0.067000 0.071950
v 0.012000 0.058653 0.012641
v 0.270000 -0.026354 0.031408
v 0.270000 -0.031408 0.026354
v 0.433202 -0.065000 0.004657
v 0.318000 -0.026354 0.031408
v 0.318000 -0.031408 0.026354
v 0.460500 -0.087500 0.005781
v 0.460500 -0.087500 0.004000
v 0.460500 -0.087500 0.004000
v 0.012000 0.059838 0.000007
v 0.012000 0.059514 -0.007621
v 0.012000 -0.048240 -0.035678
v 0.523131 -0.087500 -0.026131
v 0.529927 -0.087500 -0.016777
v 0.397000 0.074000 -0.020000
v 0.397000 0.074000 -0.020000
v 0.477915 -0.058646 0.057354
v 0.477915 -0.058646 0.057354
v 0.012000 -0.056211 -0.020453
v 0.012000 -0.057370 -0.017569
v 0.240000 -0.053000 0.000000
v 0.240000 -0.052195 -0.009203
v 0.270000 0.034068 0.040600
v 0.347000 -0.048568 -0.061000
v 0.007000 0.060804 0.053515
v 0.390000 0.079000 0.014232
v 0.390000 0.079000 0.014232
v 0.387000 0.079000 0.015964
v 0.387000 0.079000 0.015964
v 0.506503 -0.065000 -0.060000
v 0.487497 -0.065000 -0.060000
v 0.240000 0.037536 0.031497
v 0.542283 -0.018500 -0.045283
v 0.000000 0.013689 0.079835
v 0.000000 0.026984 0.076373
v 0.508721 0.067000 -0.074000
v 0.485280 0.067000 -0.074000
v 0.240000 0.045899 0.026500
v 0.000000 0.045358 -0.067109
v 0.000000 0.056047 -0.058478
v 0.526096 -0.072046 0.029096
v 0.515681 -0.072046 0.036662
v 0.318000 0.007120 -0.040377
v 0.549978 0.067000 0.052978
v 0.531014 0.067000 0.066756
v 0.347000 0.074000 0.047284
v 0.318000 0.074000 0.047284
v 0.318000 0.074000 0.047284
v 0.379750 -0.012969 0.042380
v 0.379750 -0.012969 0.042380
v 0.369000 -0.023137 0.061000
v 0.369000 -0.023137 0.061000
v 0.012000 -0.024714 -0.054674
v 0.444864 0.018500 0.036683
v 0.444864 0.018500 0.036683
v 0.240000 0.042435 0.024500
v 0.000000 0.060804 0.053515
v 0.000000 0.068974 0.042469
v 0.270000 -0.018127 -0.049804
v 0.270000 -0.009203 -0.052195
v 0.444864 0.018500 -0.036683
v 0.444864 0.018500 -0.036683
v 0.491219 -0.087500 0.036500
v 0.502781 -0.087500 0.036500
v 0.012000 0.058919 -0.010382
v 0.012000 0.057370 -0.017569
v 0.539955 -0.065000 0.042955
v 0.524579 -0.065000 0.054127
v 0.007000 -0.013689 0.079835
v 0.007000 -0.026984 0.076373
v 0.012000 0.045040 0.039640
v 0.012000 -0.058919 -0.010382
v 0.012000 -0.059514 -0.007621
v 0.387000 0.079000 -0.009036
v 0.387000 0.079000 -0.009036
v 0.318000 0.048568 -0.061000
v 0.318000 0.048568 -0.061000
v 0.270000 -0.035507 0.020500
v 0.270000 -0.038527 0.014023
v 0.007000 0.075159 0.030201
v 0.007000 0.068974 0.042469
v 0.573000 0.058500 -0.006000
v 0.573000 0.058500 -0.006000
v 0.240000 0.046045 0.016759
v 0.000000 0.006869 -0.080708
v 0.407000 0.074000 0.048765
v 0.240000 0.042435 -0.024500
v 0.240000 0.037536 -0.031497
v 0.007000 -0.039503 0.070714
v 0.433202 -0.065000 -0.004657
v 0.477632 -0.033066 0.059142
v 0.477632 -0.033066 0.059142
v 0.456359 -0.072046 0.006437
v 0.240000 -0.031497 0.037536
v 0.240000 -0.024500 0.042435
v 0.270000 0.026500 0.045899
v 0.377240 -0.029083 0.061000
v 0.573000 0.033500 -0.006000
v 0.573000 0.033500 -0.006000
v 0.451366 0.018500 -0.045634
v 0.318000 0.026354 0.031408
v 0.318000 0.031408 0.026354
v 0.422000 0.074000 0.048765
v 0.422000 0.074000 0.048765
v 0.270000 -0.034068 -0.040600
v 0.270000 -0.026500 -0.045899
v 0.000000 -0.075159 0.030201
v 0.000000 -0.079182 0.017065
v 0.240000 0.049804 0.018127
v 0.469421 -0.065000 -0.054127
v 0.318000 -0.035507 0.020500
v 0.503437 -0.072046 -0.040641
v 0.490563 -0.072046 -0.040641
v 0.542634 0.018500 -0.045634
v 0.526299 0.018500 -0.057502
v 0.240000 -0.040600 -0.034068
v 0.240000 -0.034068 -0.040600
v 0.270000 -0.040377 0.007120
v 0.270000 -0.041000 0.000000
v 0.347000 0.060284 0.061000
v 0.318000 0.060284 0.061000
v 0.318000 0.060284 0.061000
v 0.460337 -0.072046 0.018680
v 0.379750 -0.012969 -0.042380
v 0.379750 -0.012969 -0.042380
v 0.000000 -0.026984 0.076373
v 0.000000 -0.013689 0.079835
v 0.270000 -0.020500 0.035507
v 0.433202 -0.065000 0.051000
v 0.385791 -0.071242 0.051000
v 0.384000 0.074000 0.010768
v 0.384000 0.074000 0.010768
v 0.384000 0.079000 0.010768
v 0.384000 0.079000 0.010768
v 0.557455 -0.058500 0.006000
v 0.557455 -0.058500 0.006000
v 0.513777 -0.087500 0.032927
v 0.270000 -0.040600 -0.034068
v 0.318000 -0.040377 -0.007120
v 0.318000 -0.041000 0.000000
v 0.384000 0.074000 -0.010768
v 0.384000 0.074000 -0.010768
v 0.007000 -0.050886 0.063021
v 0.007000 -0.060804 0.053515
v 0.390000 0.079000 -0.010768
v 0.390000 0.079000 -0.010768
v 0.507096 0.018500 -0.063741
v 0.240000 -0.045899 -0.026500
v 0.270000 0.034068 -0.040600
v 0.270000 0.040600 -0.034068
v 0.270000 0.014023 0.038527
v 0.270000 0.007120 0.040377
v 0.012000 -0.010382 -0.058876
v 0.012000 -0.005088 -0.059784
v 0.012000 -0.020450 -0.056180
v 0.240000 0.049000 0.000000
v 0.000000 -0.072327 -0.036466
v 0.270000 -0.014023 0.038527
v 0.379750 0.010259 -0.042380
v 0.347000 -0.060284 0.061000
v 0.270000 -0.045899 -0.026500
v 0.007000 -0.068974 0.042469
v 0.270000 0.026500 -0.045899
v 0.012000 0.029963 0.051907
v 0.012000 0.029262 0.052381
v 0.012000 0.038508 0.045901
v 0.486904 0.018500 -0.063741
v 0.240000 -0.026500 -0.045899
v 0.240000 -0.018127 -0.049804
v 0.270000 0.045899 -0.026500
v 0.486982 -0.018500 -0.063252
v 0.007000 0.077450 -0.023719
v 0.007000 0.080344 -0.010288
v 0.468750 -0.033688 0.061000
v 0.467701 0.018500 -0.057502
v 0.270000 -0.007120 0.040377
v 0.468327 -0.030948 -0.056275
v 0.482400 -0.034151 -0.060612
v 0.240000 0.016759 -0.046045
v 0.240000 0.008509 -0.048256
v 0.364840 -0.074000 0.047725
v 0.523131 -0.087500 0.026131
v 0.529927 -0.087500 0.016777
v 0.007000 -0.075159 0.030201
v 0.428416 0.018500 -0.038122
v 0.428416 0.018500 -0.038122
v 0.428416 0.018500 -0.038122
v 0.508721 0.067000 0.074000
v 0.012000 -0.015119 -0.058064
v 0.240000 -0.049804 -0.018127
v 0.270000 0.026354 0.031408
v 0.270000 0.020500 0.035507
v 0.554502 0.018500 -0.029299
v 0.369000 0.020428 0.061000
v 0.390000 0.079000 -0.014232
v 0.390000 0.079000 -0.014232
v 0.240000 0.048256 0.008509
v 0.467356 0.038977 0.070318
v 0.486982 -0.018500 0.063251
v 0.467926 -0.018500 0.057060
v 0.000000 -0.020410 -0.078386
v 0.000000 -0.033364 -0.073809
v 0.457039 0.035298 -0.064824
v 0.440615 0.034471 -0.064824
v 0.240000 0.024500 -0.042435
v 0.012000 -0.056252 0.020481
v 0.012000 -0.055673 0.022371
v 0.012000 0.037693 0.046682
v 0.012000 0.045813 -0.038435
v 0.012000 0.041516 -0.043317
v 0.318000 -0.038527 -0.014023
v 0.567736 0.033500 -0.006000
v 0.567736 0.033500 -0.006000
v 0.567736 0.033500 0.006000
v 0.567736 0.033500 0.006000
v 0.240000 -0.016759 0.046045
v 0.270000 0.049804 -0.018127
v 0.270000 0.052195 -0.009203
v 0.462017 -0.055000 0.061000
v 0.012000 0.000000 0.060000
v 0.012000 0.010140 0.059137
v 0.465117 -0.065000 -0.051000
v 0.465117 -0.065000 -0.051000
v 0.433202 -0.065000 -0.051000
v 0.462986 0.067000 -0.066756
v 0.559203 -0.033500 0.006000
v 0.559203 -0.033500 0.006000
v 0.551127 -0.065000 -0.027579
v 0.270000 -0.053000 0.000000
v 0.270000 -0.052195 -0.009203
v 0.468327 -0.030948 0.056275
v 0.318000 0.074000 -0.035569
v 0.318000 0.074000 -0.035569
v 0.563756 0.067000 -0.034014
v 0.571000 0.067000 -0.011720
v 0.379750 0.010259 0.042380
v 0.240000 -0.008509 0.048256
v 0.240000 -0.009203 -0.052195
v 0.007000 0.080927 0.003438
v 0.560741 0.018500 0.010095
v 0.560741 0.018500 -0.010096
v 0.451975 -0.023655 -0.045025
v 0.240000 0.031497 -0.037536
v 0.007000 -0.080927 0.003438
v 0.007000 -0.080344 -0.010288
v 0.012000 0.038438 -0.045803
v 0.012000 0.033598 -0.049711
v 0.000000 -0.077450 -0.023719
v 0.270000 -0.035507 -0.020500
v 0.467904 -0.072046 0.029096
v 0.318000 -0.014023 -0.038527
v 0.318000 -0.007120 -0.040377
v 0.451366 0.018500 0.045634
v 0.467701 0.018500 0.057502
v 0.422000 0.031335 0.061000
v 0.469314 -0.061663 -0.054337
v 0.467356 0.067000 0.070318
v 0.557455 -0.058500 -0.006000
v 0.557455 -0.058500 -0.006000
v 0.480223 -0.087500 0.032927
v 0.347000 -0.074000 0.047284
v 0.007000 -0.020410 -0.078386
v 0.007000 -0.006869 -0.080708
v 0.270000 0.038527 0.014023
v 0.007000 0.079182 0.017065
v 0.549978 0.067000 -0.052978
v 0.240000 -0.042435 -0.024500
v 0.240000 -0.046045 -0.016759
v 0.240000 -0.045899 0.026500
v 0.369000 -0.023137 -0.061000
v 0.369000 -0.023137 -0.061000
v 0.470869 -0.087500 0.026131
v 0.012000 -0.051854 0.029946
v 0.537641 -0.072046 0.006437
v 0.533663 -0.072046 0.018680
v 0.270000 0.053000 0.000000
v 0.270000 0.052195 0.009203
v 0.270000 0.035507 0.020500
v 0.318000 -0.060284 0.061000
v 0.318000 -0.060284 0.061000
v 0.000000 -0.045358 -0.067109
v 0.270000 0.018127 -0.049804
v 0.457039 0.067000 -0.064824
v 0.440615 0.067000 -0.064824
v 0.240000 0.018127 0.049804
v 0.240000 0.009203 0.052195
v 0.012000 -0.019988 0.056572
v 0.012000 -0.010413 0.059066
v 0.000000 0.072327 -0.036466
v 0.526096 -0.072046 -0.029096
v 0.240000 -0.040600 0.034068
v 0.377240 -0.029083 -0.061000
v 0.559203 -0.033500 -0.006000
v 0.559203 -0.033500 -0.006000
v 0.000000 0.075159 0.030201
v 0.557000 -0.065000 0.009503
v 0.318000 -0.026354 -0.031408
v 0.270000 -0.038527 -0.014023
v 0.000000 -0.060804 0.053515
v 0.449150 0.025138 0.047850
v 0.270000 0.009203 -0.052195
v 0.539955 -0.065000 -0.042955
v 0.012000 -0.010140 0.059137
v 0.515681 -0.072046 -0.036663
v 0.240000 -0.034068 0.040600
v 0.464073 -0.087500 0.016777
v 0.012000 -0.051092 0.031458
v 0.012000 0.029898 -0.051778
v 0.012000 0.020450 -0.056180
v 0.270000 0.031408 0.026354
v 0.007000 0.006869 -0.080708
v 0.542634 0.018500 0.045634
v 0.240000 -0.037536 -0.031497
v 0.012000 0.010413 0.059066
v 0.012000 0.019988 0.056572
v 0.240000 0.040600 -0.034068
v 0.318000 -0.074000 0.047284
v 0.318000 -0.074000 0.047284
v 0.571000 0.067000 0.011720
v 0.451717 -0.018500 0.045283
v 0.318000 -0.038527 0.014023
v 0.270000 -0.040377 -0.007120
v 0.551127 -0.065000 0.027579
v 0.000000 0.079182 0.017065
v 0.240000 -0.031497 -0.037536
v 0.478319 -0.072046 0.036662
v 0.270000 -0.049804 -0.018127
v 0.240000 -0.026500 0.045899
v 0.445433 -0.018500 0.036634
v 0.012000 0.024714 -0.054674
v 0.012000 0.005088 -0.059784
v 0.000000 0.065124 -0.048165
v 0.554502 0.018500 0.029299
v 0.513777 -0.087500 -0.032927
v 0.502781 -0.087500 -0.036500
v 0.451717 -0.018500 -0.045283
v 0.240000 -0.048256 -0.008509
v 0.012000 0.020502 0.056340
v 0.469421 -0.065000 0.054127
v 0.364840 -0.074000 -0.004040
v 0.007000 -0.079182 0.017065
v 0.531014 0.067000 -0.066756
v 0.451975 -0.023655 0.045025
v 0.007000 0.020410 -0.078386
v 0.318000 -0.020500 -0.035507
v 0.478971 0.040500 -0.071950
v 0.270000 -0.009203 0.052195
v 0.554060 -0.018500 0.029073
v 0.318000 0.007120 0.040377
v 0.240000 -0.049000 0.000000
v 0.240000 -0.024500 -0.042435
v 0.000000 -0.006869 -0.080708
v 0.318000 -0.014023 0.038527
v 0.318000 -0.020500 0.035507
v 0.240000 0.045899 -0.026500
v 0.479231 -0.034215 -0.061000
v 0.012000 -0.058653 0.012641
v 0.012000 -0.045880 0.038506
v 0.012000 0.048240 -0.035678
v 0.012000 0.000000 -0.059784
v 0.007000 -0.033364 -0.073809
v 0.270000 0.007120 -0.040377
v 0.270000 0.014023 -0.038527
v 0.012000 -0.020502 0.056340
v 0.355920 -0.074000 -0.004000
v 0.318000 0.035507 0.020500
v 0.563756 0.067000 0.034014
v 0.007000 0.033364 -0.073809
v 0.270000 0.020500 -0.035507
v 0.467926 -0.018500 -0.057060
v 0.524579 -0.065000 -0.054127
v 0.000000 -0.068974 0.042469
v 0.240000 0.053000 0.000000
v 0.318000 -0.040377 0.007120
v 0.270000 0.018127 0.049804
v 0.270000 0.009203 0.052195
v 0.318000 -0.007120 0.040377
v 0.240000 -0.037536 0.031497
v 0.507018 -0.018500 0.063251
v 0.240000 0.052195 0.009203
v 0.007000 -0.065124 -0.048165
vn 1.0000 -0.0000 -0.0000
vn -0.0000 1.0000 -0.0000
vn 0.0905 0.9799 -0.1776
vn 0.0312 0.9799 -0.1968
vn 0.0500 0.9939 -0.0980
vn 0.0172 0.9939 -0.1087
vn 0.1409 0.9799 -0.1409
vn 0.0778 0.9939 -0.0778
vn 0.1776 0.9799 -0.0905
vn 0.0980 0.9939 -0.0500
vn 0.1968 0.9799 -0.0312
vn 0.1087 0.9939 -0.0172
vn 0.1968 0.9799 0.0312
vn 0.1087 0.9939 0.0172
vn 0.1776 0.9799 0.0905
vn 0.0980 0.9939 0.0500
vn 0.1409 0.9799 0.1409
vn 0.0778 0.9939 0.0778
vn 0.0905 0.9799 0.1776
vn 0.0500 0.9939 0.0980
vn 0.0312 0.9799 0.1968
vn 0.0172 0.9939 0.1087
vn 0.9532 -0.2618 0.1510
vn 0.9659 -0.2588 -0.0000
vn -0.0045 -0.0346 0.9994
vn -0.0045 -0.0346 -0.9994
vn 0.9532 -0.2618 -0.1510
vn 0.1536 -0.9410 -0.3014
vn 0.0529 -0.9410 -0.3341
vn 0.2392 -0.9410 -0.2392
vn 0.3014 -0.9410 -0.1536
vn 0.3341 -0.9410 -0.0529
vn -0.0000 -1.0000 -0.0000
vn -0.0000 -0.0000 1.0000
vn -0.0000 -0.0000 -1.0000
vn 0.3420 -0.9397 -0.0000
vn 0.3341 -0.9410 0.0529
vn 0.3014 -0.9410 0.1536
vn 0.2392 -0.9410 0.2392
vn 0.1536 -0.9410 0.3014
vn 0.0529 -0.9410 0.3341
vn -0.0529 -0.9410 0.3341
vn -0.0529 -0.9410 -0.3341
vn -0.0312 0.9799 -0.1968
vn -0.0172 0.9939 -0.1087
vn 0.1528 -0.2143 0.9648
vn 0.1564 -0.0000 0.9877
vn -0.1528 -0.2143 0.9648
vn -0.1564 -0.0000 0.9877
vn 0.4434 -0.2143 0.8703
vn 0.4540 -0.0000 0.8910
vn 0.6907 -0.2143 0.6907
vn 0.7071 -0.0000 0.7071
vn 0.8703 -0.2142 0.4434
vn 0.8910 -0.0000 0.4540
vn 0.9648 -0.2142 0.1528
vn 0.9877 -0.0000 0.1564
vn 0.9763 -0.2164 -0.0000
vn 0.9648 -0.2142 -0.1528
vn 0.9877 -0.0000 -0.1564
vn 0.8703 -0.2143 -0.4434
vn 0.8910 -0.0000 -0.4540
vn 0.6907 -0.2143 -0.6907
vn 0.7071 -0.0000 -0.7071
vn 0.4435 -0.2143 -0.8703
vn 0.4540 -0.0000 -0.8910
vn 0.1528 -0.2142 -0.9648
vn 0.1564 -0.0000 -0.9877
vn -0.0312 0.9799 0.1968
vn -0.0172 0.9939 0.1087
vn -0.0980 0.9939 0.0500
vn -0.0778 0.9939 0.0778
vn -0.1087 0.9939 0.0172
vn -0.0500 0.9939 0.0980
vn -0.0778 0.9939 -0.0778
vn -0.0500 0.9939 -0.0980
vn -0.0980 0.9939 -0.0500
vn -0.1087 0.9939 -0.0172
vn -0.1536 -0.9410 0.3014
vn -0.2250 -0.0000 0.9744
vn -0.2550 -0.2011 0.9458
vn -0.1096 -0.9879 0.1096
vn -0.2392 -0.9410 0.2392
vn -0.1689 -0.9578 0.2325
vn -0.3014 -0.9410 0.1536
vn -0.1381 -0.9879 0.0703
vn -0.3341 -0.9410 0.0529
vn -0.1530 -0.9879 0.0242
vn 0.4382 -0.2618 -0.8599
vn 0.6824 -0.2618 -0.6824
vn 0.1510 -0.2618 -0.9532
vn -0.1510 -0.2618 -0.9532
vn -0.4382 -0.2618 -0.8599
vn -0.6824 -0.2618 -0.6824
vn -0.8599 -0.2618 -0.4381
vn -0.8599 -0.2618 -0.4382
vn -0.9532 -0.2618 -0.1510
vn -0.8599 -0.2618 0.4381
vn -0.8599 -0.2618 0.4382
vn -0.9532 -0.2618 0.1510
vn -0.6824 -0.2618 0.6824
vn -0.4382 -0.2618 0.8599
vn -0.1510 -0.2618 0.9532
vn 0.1510 -0.2618 0.9532
vn 0.4382 -0.2618 0.8599
vn 0.6824 -0.2618 0.6824
vn 0.8599 -0.2618 0.4382
vn 0.6916 -0.7223 -0.0000
vn 0.8599 -0.2618 -0.4382
vn -0.3014 -0.9410 -0.1536
vn -0.3341 -0.9410 -0.0529
vn -0.1381 -0.9879 -0.0703
vn -0.1530 -0.9879 -0.0242
vn -0.2392 -0.9410 -0.2392
vn -0.1096 -0.9879 -0.1096
vn -0.1536 -0.9410 -0.3014
vn -0.1690 -0.9578 -0.2325
vn 0.4529 -0.0706 -0.8888
vn 0.1560 -0.0706 -0.9852
vn 0.7053 -0.0706 -0.7053
vn 0.8888 -0.0706 -0.4529
vn 0.9852 -0.0706 -0.1560
vn 0.9976 -0.0697 -0.0000
vn 0.9976 -0.0698 -0.0000
vn 0.9852 -0.0706 0.1560
vn 0.8888 -0.0706 0.4529
vn 0.7053 -0.0706 0.7053
vn 0.4529 -0.0706 0.8888
vn 0.1560 -0.0706 0.9852
vn -0.1560 -0.0706 0.9852
vn -0.1560 -0.0706 -0.9852
vn -0.1528 -0.2143 -0.9648
vn -0.1564 -0.0000 -0.9877
vn -0.0816 0.9837 -0.1601
vn 0.1415 -0.4269 0.8932
vn -0.1415 -0.4269 0.8932
vn 0.4105 -0.4269 0.8057
vn 0.6394 -0.4269 0.6394
vn 0.8057 -0.4269 0.4105
vn 0.8932 -0.4269 0.1415
vn 0.9063 -0.4226 -0.0000
vn 0.8932 -0.4269 -0.1415
vn 0.8057 -0.4269 -0.4105
vn 0.6394 -0.4269 -0.6394
vn 0.4105 -0.4269 -0.8057
vn 0.1415 -0.4269 -0.8932
vn -0.1415 -0.4269 -0.8932
vn 0.9962 -0.0000 -0.0872
vn 0.5000 -0.0000 0.8660
vn -0.5000 -0.0000 0.8660
vn -1.0000 -0.0000 -0.0000
vn -0.5000 -0.0000 -0.8660
vn 0.5000 -0.0000 -0.8660
vn 0.5000 -0.0000 -0.8661
vn -0.0638 0.9959 -0.0638
vn -0.0804 0.9959 -0.0410
vn -0.0591 0.9815 0.1819
vn -0.0410 0.9959 0.0804
vn -0.0638 0.9959 0.0638
vn -0.0804 0.9959 0.0410
vn -0.0891 0.9959 0.0141
vn -0.0891 0.9959 -0.0141
vn -0.7332 -0.4226 0.5327
vn -0.6394 -0.4269 0.6394
vn -0.6024 -0.4264 0.6748
vn -0.4105 -0.4269 0.8057
vn -0.3742 -0.4266 0.8234
vn 0.0872 -0.0000 0.9962
vn -0.6754 -0.0705 0.7341
vn -0.4263 -0.0706 0.9018
vn -0.7053 -0.0706 0.7053
vn -0.4529 -0.0706 0.8888
vn -0.8070 -0.0697 0.5864
vn -0.4094 -0.0706 0.9096
vn -0.5863 -0.0698 0.8070
vn -0.3083 -0.0698 0.9487
vn -0.1703 -0.0000 0.9854
vn -0.1731 -0.0000 0.9849
vn -0.9659 -0.2588 -0.0000
vn -0.1738 -0.9848 -0.0000
vn -0.3420 -0.9397 -0.0000
vn 0.0654 -0.9979 -0.0000
vn 0.0657 -0.9978 -0.0000
vn -0.0428 -0.9991 -0.0000
vn -0.4529 -0.0706 -0.8888
vn -0.5864 -0.0698 -0.8070
vn -0.4095 -0.0706 -0.9096
vn 0.0300 0.9391 0.3424
vn 0.0150 0.9852 0.1710
vn -0.8070 -0.0697 -0.5864
vn -0.7053 -0.0706 -0.7053
vn -0.6754 -0.0705 -0.7341
vn -0.4263 -0.0706 -0.9018
vn -0.2006 -0.0705 -0.9771
vn -0.2064 -0.0705 -0.9759
vn 0.0872 -0.0000 -0.9962
vn -0.3029 -0.1975 -0.9323
vn -0.3090 -0.0000 -0.9511
vn -0.1421 -0.0000 -0.9899
vn -0.4105 -0.4269 -0.8057
vn -0.3742 -0.4266 -0.8234
vn -0.6024 -0.4264 -0.6748
vn -0.6394 -0.4269 -0.6394
vn -0.7332 -0.4226 -0.5327
vn -0.1078 -0.0000 -0.9942
vn -0.1011 -0.0000 -0.9949
vn 0.0436 -0.8660 0.4981
vn 0.7656 -0.2645 0.5865
vn 0.8016 -0.1904 0.5668
vn 0.6608 -0.4291 0.6158
vn 0.6608 -0.4290 0.6158
vn 0.8660 -0.0000 0.5000
vn 0.3029 0.7520 0.5855
vn 0.2132 0.8004 0.5602
vn 0.4612 0.6392 0.6154
vn 0.0436 0.8660 0.4981
vn 0.2087 -0.0659 0.9758
vn 0.0930 -0.0294 0.9952
vn 0.1250 -0.0395 0.9914
vn -0.0000 -0.7071 0.7071
vn 0.0462 -0.7048 0.7079
vn 0.0374 -0.7051 0.7081
vn 0.0338 -0.7053 0.7081
vn -0.0940 -0.0000 0.9956
vn -0.1348 -0.0000 0.9909
vn -0.2012 -0.0000 0.9795
vn -0.0045 -0.0347 0.9994
vn 0.0690 -0.9976 -0.0000
vn 0.0651 -0.9979 -0.0000
vn 0.1305 -0.9914 -0.0000
vn -0.0175 -0.7070 0.7070
vn -0.0087 -0.7071 0.7071
vn 0.0724 -0.9974 -0.0000
vn -0.0321 -0.9995 -0.0000
vn -0.0383 -0.7066 -0.7066
vn -0.0785 -0.7049 -0.7049
vn 0.0060 -0.7056 -0.7086
vn -0.0008 -0.7057 -0.7085
vn 0.0462 -0.7048 -0.7079
vn -0.0000 -0.7071 -0.7071
vn 0.0450 -0.0249 -0.9987
vn 0.0802 -0.0444 -0.9958
vn 0.0436 0.8660 -0.4981
vn 0.0435 0.8660 -0.4982
vn 0.3029 0.7520 -0.5855
vn 0.2132 0.8004 -0.5602
vn 0.4612 0.6392 -0.6154
vn 0.7656 -0.2645 -0.5865
vn 0.8016 -0.1904 -0.5668
vn 0.8660 -0.0000 -0.5000
vn 0.6608 -0.4290 -0.6158
vn 0.0436 -0.8660 -0.4981
vn -0.2012 -0.0000 -0.9795
vn -0.1398 -0.0000 -0.9902
vn -0.0940 -0.0000 -0.9956
vn -0.0000 0.7071 0.7071
vn -0.0088 0.7071 0.7071
vn -0.0175 0.7070 0.7070
vn -0.0383 0.7066 -0.7066
vn -0.0988 0.7036 -0.7037
vn -0.1219 0.7018 -0.7018
vn -0.0087 0.7071 0.7071
vn -0.0000 0.7071 -0.7071
vn -0.0000 0.1737 0.9848
vn -0.0000 -0.1737 0.9848
vn -0.0000 -0.3420 0.9397
vn -0.0000 -0.5000 0.8660
vn -0.0000 -0.6428 0.7660
vn -0.0000 -0.7660 0.6428
vn -0.0000 -0.8660 0.5000
vn -0.0000 -0.9397 0.3420
vn -0.0000 -0.9848 0.1736
vn -0.0000 -0.9848 -0.1736
vn -0.0000 -0.9397 -0.3420
vn -0.0000 -0.8660 -0.5000
vn -0.0000 -0.7660 -0.6428
vn -0.0000 -0.6428 -0.7660
vn -0.0000 -0.5000 -0.8660
vn -0.0000 -0.3420 -0.9397
vn -0.0000 -0.1736 -0.9848
vn -0.0000 0.1736 -0.9848
vn -0.0000 0.3420 -0.9397
vn -0.0000 0.5000 -0.8660
vn -0.0000 0.6428 -0.7660
vn -0.0000 0.7660 -0.6428
vn -0.0000 0.8660 -0.5000
vn -0.0000 0.9397 -0.3420
vn -0.0000 0.9848 -0.1736
vn -0.0000 0.9848 0.1736
vn -0.0000 0.9397 0.3420
vn -0.0000 0.8660 0.5000
vn -0.0000 0.7660 0.6428
vn -0.0000 0.6428 0.7660
vn -0.0000 0.5000 0.8660
vn -0.0000 0.3420 0.9397
vn -0.0000 -0.1737 -0.9848
vn -0.0000 0.1737 -0.9848
vn -0.0000 0.1690 0.9856
vn -0.0000 -0.1690 0.9856
vn -0.0000 -0.3331 0.9429
vn -0.0000 -0.4877 0.8730
vn -0.0000 -0.6282 0.7780
vn -0.0000 -0.7507 0.6607
vn -0.0000 -0.8515 0.5243
vn -0.0000 -0.9279 0.3729
vn -0.0000 -0.9776 0.2107
vn -0.0000 -0.9991 0.0424
vn -0.0000 -0.9919 -0.1270
vn -0.0000 -0.9562 -0.2928
vn -0.0000 -0.8929 -0.4502
vn -0.0000 -0.8040 -0.5946
vn -0.0000 -0.6919 -0.7220
vn -0.0000 -0.5600 -0.8285
vn -0.0000 -0.4119 -0.9112
vn -0.0000 -0.2520 -0.9677
vn -0.0000 -0.0848 -0.9964
vn -0.0000 0.0848 -0.9964
vn -0.0000 0.2520 -0.9677
vn -0.0000 0.4119 -0.9112
vn -0.0000 0.5600 -0.8285
vn -0.0000 0.6919 -0.7220
vn -0.0000 0.8040 -0.5946
vn -0.0000 0.8929 -0.4502
vn -0.0000 0.9562 -0.2928
vn -0.0000 0.9919 -0.1270
vn -0.0000 0.9991 0.0424
vn -0.0000 0.9776 0.2107
vn -0.0000 0.9279 0.3729
vn -0.0000 0.8515 0.5243
vn -0.0000 0.7507 0.6607
vn -0.0000 0.6282 0.7780
vn -0.0000 0.4877 0.8730
vn -0.0000 0.3331 0.9429
vn 0.9726 -0.0957 0.2118
vn 0.9728 -0.0772 0.2184
vn 0.9728 -0.1130 0.2022
vn 0.9728 -0.1455 0.1802
vn 0.9726 -0.1301 0.1926
vn 0.9728 -0.1129 0.2022
vn 0.9728 -0.1739 0.1530
vn 0.9726 -0.1608 0.1678
vn 0.9728 -0.1972 0.1214
vn 0.9726 -0.1868 0.1382
vn 0.9728 -0.2149 0.0864
vn 0.9726 -0.2075 0.1046
vn 0.9728 -0.2264 0.0488
vn 0.9726 -0.2222 0.0681
vn 0.9728 -0.2314 0.0098
vn 0.9726 -0.2305 0.0295
vn 0.9728 -0.2297 -0.0294
vn 0.9726 -0.2322 -0.0099
vn 0.9728 -0.2215 -0.0678
vn 0.9726 -0.2272 -0.0490
vn 0.9728 -0.2068 -0.1043
vn 0.9726 -0.2157 -0.0867
vn 0.9728 -0.1862 -0.1377
vn 0.9726 -0.1979 -0.1219
vn 0.9728 -0.1603 -0.1672
vn 0.9726 -0.1745 -0.1535
vn 0.9728 -0.1297 -0.1919
vn 0.9726 -0.1460 -0.1808
vn 0.9728 -0.0954 -0.2111
vn 0.9726 -0.1133 -0.2029
vn 0.9728 -0.0584 -0.2241
vn 0.9726 -0.0774 -0.2191
vn 0.9728 -0.0196 -0.2308
vn 0.9726 -0.0393 -0.2291
vn 0.9728 0.0196 -0.2308
vn 0.9726 -0.0000 -0.2324
vn 0.9728 0.0584 -0.2241
vn 0.9726 0.0393 -0.2291
vn 0.9728 0.0954 -0.2111
vn 0.9726 0.0774 -0.2191
vn 0.9728 0.1297 -0.1919
vn 0.9726 0.1133 -0.2029
vn 0.9728 0.1603 -0.1672
vn 0.9726 0.1460 -0.1808
vn 0.9728 0.1862 -0.1377
vn 0.9726 0.1745 -0.1535
vn 0.9728 0.2068 -0.1043
vn 0.9726 0.1979 -0.1219
vn 0.9728 0.2215 -0.0678
vn 0.9726 0.2157 -0.0867
vn 0.9728 0.2297 -0.0294
vn 0.9726 0.2272 -0.0490
vn 0.9728 0.2314 0.0098
vn 0.9726 0.2322 -0.0099
vn 0.9728 0.2264 0.0488
vn 0.9726 0.2305 0.0295
vn 0.9728 0.2149 0.0864
vn 0.9726 0.2222 0.0681
vn 0.9728 0.1972 0.1214
vn 0.9726 0.2075 0.1046
vn 0.9728 0.1739 0.1530
vn 0.9726 0.1868 0.1382
vn 0.9728 0.1455 0.1802
vn 0.9726 0.1608 0.1678
vn 0.9728 0.1130 0.2022
vn 0.9726 0.1301 0.1926
vn 0.9728 0.0772 0.2184
vn 0.9726 0.0957 0.2118
vn 0.9728 0.1129 0.2022
vn 0.9728 0.0391 0.2283
vn 0.9726 0.0586 0.2249
vn 0.9728 0.0771 0.2184
vn 0.9728 -0.0771 0.2184
vn 0.9726 -0.0586 0.2249
vn 0.9728 -0.0391 0.2283
vn 0.9728 -0.0000 0.2316
vn 0.0481 -0.1687 0.9845
vn 0.0483 -0.1734 0.9837
vn 0.0483 -0.0000 0.9988
vn 0.0479 -0.2516 0.9666
vn 0.0481 -0.3327 0.9418
vn 0.0484 -0.3416 0.9386
vn 0.0479 -0.4114 0.9102
vn 0.0480 -0.4870 0.8721
vn 0.0485 -0.4994 0.8650
vn 0.0478 -0.5593 0.8276
vn 0.0479 -0.6275 0.7771
vn 0.0486 -0.6420 0.7652
vn 0.0477 -0.6912 0.7211
vn 0.0479 -0.7498 0.6600
vn 0.0487 -0.7651 0.6420
vn 0.0476 -0.8030 0.5940
vn 0.0478 -0.8505 0.5237
vn 0.0488 -0.8650 0.4994
vn 0.0476 -0.8919 0.4497
vn 0.0477 -0.9268 0.3724
vn 0.0488 -0.9386 0.3416
vn 0.0475 -0.9551 0.2925
vn 0.0477 -0.9764 0.2105
vn 0.0489 -0.9836 0.1735
vn 0.0475 -0.9908 0.1269
vn 0.0476 -0.9980 0.0424
vn 0.0489 -0.9988 -0.0000
vn 0.0474 -0.9980 -0.0424
vn 0.0476 -0.9908 -0.1268
vn 0.0490 -0.9836 -0.1734
vn 0.0474 -0.9765 -0.2104
vn 0.0476 -0.9551 -0.2925
vn 0.0490 -0.9386 -0.3416
vn 0.0474 -0.9268 -0.3724
vn 0.0475 -0.8919 -0.4497
vn 0.0491 -0.8650 -0.4994
vn 0.0473 -0.8506 -0.5237
vn 0.0475 -0.8031 -0.5939
vn 0.0491 -0.7651 -0.6420
vn 0.0473 -0.7498 -0.6599
vn 0.0475 -0.6912 -0.7211
vn 0.0491 -0.6420 -0.7651
vn 0.0473 -0.6275 -0.7772
vn 0.0475 -0.5593 -0.8276
vn 0.0491 -0.4994 -0.8650
vn 0.0473 -0.4871 -0.8720
vn 0.0474 -0.4114 -0.9102
vn 0.0492 -0.3416 -0.9386
vn 0.0473 -0.3328 -0.9418
vn 0.0474 -0.2517 -0.9666
vn 0.0492 -0.1734 -0.9836
vn 0.0472 -0.1688 -0.9845
vn 0.0474 -0.0847 -0.9953
vn 0.0492 -0.0000 -0.9988
vn 0.0472 -0.0000 -0.9989
vn 0.0474 0.0847 -0.9953
vn 0.0492 0.1734 -0.9836
vn 0.0472 0.1688 -0.9845
vn 0.0474 0.2517 -0.9666
vn 0.0492 0.3416 -0.9386
vn 0.0473 0.3328 -0.9418
vn 0.0474 0.4114 -0.9102
vn 0.0491 0.4994 -0.8650
vn 0.0473 0.4871 -0.8720
vn 0.0475 0.5593 -0.8276
vn 0.0491 0.6420 -0.7651
vn 0.0473 0.6275 -0.7772
vn 0.0475 0.6912 -0.7211
vn 0.0491 0.7651 -0.6420
vn 0.0473 0.7498 -0.6599
vn 0.0475 0.8031 -0.5939
vn 0.0491 0.8650 -0.4994
vn 0.0473 0.8506 -0.5237
vn 0.0475 0.8919 -0.4497
vn 0.0490 0.9386 -0.3416
vn 0.0474 0.9268 -0.3724
vn 0.0476 0.9551 -0.2925
vn 0.0490 0.9836 -0.1734
vn 0.0474 0.9765 -0.2104
vn 0.0476 0.9908 -0.1268
vn 0.0489 0.9988 -0.0000
vn 0.0474 0.9980 -0.0424
vn 0.0476 0.9980 0.0424
vn 0.0489 0.9836 0.1735
vn 0.0475 0.9908 0.1269
vn 0.0477 0.9764 0.2105
vn 0.0488 0.9386 0.3416
vn 0.0475 0.9551 0.2925
vn 0.0477 0.9268 0.3724
vn 0.0488 0.8650 0.4994
vn 0.0476 0.8919 0.4497
vn 0.0478 0.8505 0.5237
vn 0.0487 0.7651 0.6420
vn 0.0476 0.8030 0.5940
vn 0.0479 0.7498 0.6600
vn 0.0486 0.6420 0.7652
vn 0.0477 0.6912 0.7211
vn 0.0479 0.6275 0.7771
vn 0.0485 0.4994 0.8650
vn 0.0478 0.5593 0.8276
vn 0.0480 0.4870 0.8721
vn 0.0484 0.3416 0.9386
vn 0.0479 0.4114 0.9102
vn 0.0481 0.3327 0.9418
vn 0.0483 0.1734 0.9837
vn 0.0479 0.2516 0.9666
vn 0.0481 0.1687 0.9845
vn 0.0482 -0.0000 0.9988
s 0
usemtl colour_abb_orange_001
f 713//1 707//1 748//1
f 748//1 707//1 709//1
f 800//2 663//2 1021//2
f 1021//2 663//2 8//2
f 7//1 900//1 1036//1
f 1036//1 900//1 901//1
s 1
f 11//3 12//4 13//5
f 13//5 12//4 14//6
f 1204//7 11//3 16//8
f 16//8 11//3 13//5
f 17//9 1204//7 18//10
f 18//10 1204//7 16//8
f 19//11 17//9 20//12
f 20//12 17//9 18//10
f 21//13 19//11 22//14
f 22//14 19//11 20//12
f 23//15 21//13 24//16
f 24//16 21//13 22//14
f 982//17 23//15 26//18
f 26//18 23//15 24//16
f 983//19 982//17 28//20
f 28//20 982//17 26//18
f 1126//21 983//19 30//22
f 30//22 983//19 28//20
f 785//23 702//24 33//23
f 33//23 702//24 705//24
s 0
f 706//25 704//25 804//25
f 759//26 869//26 831//26
s 1
f 870//24 758//24 39//27
f 39//27 758//24 761//27
f 41//28 42//29 43//28
f 43//28 42//29 968//29
f 45//30 41//28 1240//30
f 1240//30 41//28 43//28
f 712//31 45//30 48//31
f 48//31 45//30 1240//30
f 711//32 712//31 858//32
f 858//32 712//31 48//31
s 0
f 1074//33 1197//33 708//33
f 708//33 1197//33 4//33
f 1165//34 50//34 714//34
f 714//34 50//34 2//34
f 53//2 52//2 749//2
f 749//2 52//2 1//2
f 51//35 1232//35 710//35
f 710//35 1232//35 3//35
s 1
f 34//36 803//36 1212//37
f 1212//37 803//36 54//37
f 858//32 832//36 711//32
f 711//32 832//36 37//36
f 55//38 1212//37 1261//38
f 1261//38 1212//37 54//37
f 979//39 55//38 58//39
f 58//39 55//38 1261//38
f 980//40 979//39 60//40
f 60//40 979//39 58//39
f 873//41 980//40 895//41
f 895//41 980//40 60//40
f 874//42 873//41 896//42
f 896//42 873//41 895//41
f 42//29 1051//43 968//29
f 968//29 1051//43 969//43
f 12//4 975//44 14//6
f 14//6 975//44 68//45
f 69//46 29//47 70//48
f 70//48 29//47 937//49
f 72//50 27//51 69//46
f 69//46 27//51 29//47
f 73//52 25//53 72//50
f 72//50 25//53 27//51
f 74//54 1305//55 73//52
f 73//52 1305//55 25//53
f 75//56 1257//57 74//54
f 74//54 1257//57 1305//55
s 0
f 1153//33 77//33 10//33
f 10//33 77//33 1037//33
f 76//34 902//34 664//34
f 664//34 902//34 899//34
f 664//34 899//34 662//34
s 1
f 801//58 80//59 799//1
f 799//1 80//59 1173//60
f 799//1 1173//60 6//1
f 6//1 1173//60 1257//57
f 6//1 1257//57 78//58
f 78//58 1257//57 75//56
s 0
f 5//35 1020//35 79//35
f 79//35 1020//35 9//35
f 79//35 9//35 1151//35
s 1
f 81//61 1172//62 80//59
f 80//59 1172//62 1173//60
f 82//63 15//64 81//61
f 81//61 15//64 1172//62
f 83//65 1280//66 82//63
f 82//63 1280//66 15//64
f 84//67 974//68 83//65
f 83//65 974//68 1280//66
s 0
f 85//2 839//2 87//2
f 87//2 839//2 856//2
f 87//2 856//2 807//2
f 807//2 856//2 809//2
f 1079//2 725//2 680//2
f 680//2 725//2 727//2
f 680//2 727//2 682//2
f 682//2 727//2 731//2
s 1
f 71//69 1126//21 97//70
f 97//70 1126//21 30//22
f 98//71 99//72 16//8
f 26//18 24//16 22//14
f 98//71 16//8 100//73
f 100//73 16//8 13//5
f 100//73 13//5 14//6
f 26//18 22//14 28//20
f 99//72 101//74 16//8
f 16//8 101//74 97//70
f 16//8 97//70 18//10
f 18//10 97//70 20//12
f 20//12 97//70 22//14
f 22//14 97//70 30//22
f 22//14 30//22 28//20
f 102//75 14//6 103//76
f 103//76 14//6 68//45
f 102//75 104//77 14//6
f 14//6 104//77 105//78
f 14//6 105//78 100//73
f 106//79 874//42 107//79
f 107//79 874//42 896//42
f 937//49 108//80 70//48
f 70//48 108//80 879//81
f 110//82 111//83 907//84
f 907//84 111//83 106//79
f 907//84 106//79 107//79
f 1061//85 111//83 114//86
f 114//86 111//83 110//82
f 1031//87 1061//85 116//88
f 116//88 1061//85 114//86
f 1272//89 1242//89 951//90
f 951//90 1242//89 1228//90
f 1273//91 1050//91 1272//89
f 1272//89 1050//91 1242//89
f 862//92 65//92 1273//91
f 1273//91 65//92 1050//91
f 860//93 752//93 862//92
f 862//92 752//93 65//92
f 861//94 753//94 860//93
f 860//93 753//94 752//93
f 715//95 881//96 861//94
f 861//94 881//96 753//94
f 716//97 882//97 715//95
f 715//95 882//97 881//96
f 1244//98 113//99 130//100
f 130//100 113//99 115//100
f 1210//101 1188//101 1244//98
f 1244//98 1188//101 113//99
f 1198//102 1264//102 1210//101
f 1210//101 1264//102 1188//101
f 1001//103 63//103 1198//102
f 1198//102 63//103 1264//102
f 134//104 61//104 1001//103
f 1001//103 61//104 63//103
f 1075//105 59//105 134//104
f 134//104 59//105 61//104
f 136//106 57//106 1075//105
f 1075//105 57//106 59//105
f 1121//107 1213//107 136//106
f 136//106 1213//107 57//106
f 785//23 33//23 1121//107
f 1121//107 33//23 1213//107
s 0
f 32//108 760//108 805//108
f 805//108 760//108 38//108
s 1
f 138//109 47//109 761//27
f 761//27 47//109 39//27
f 951//90 1228//90 138//109
f 138//109 1228//90 47//109
f 126//110 128//111 139//112
f 139//112 128//111 140//113
f 124//114 126//110 141//115
f 141//115 126//110 139//112
f 142//116 122//116 1161//117
f 1161//117 122//116 124//114
f 1161//117 124//114 141//115
f 1309//118 44//119 917//118
f 917//118 44//119 918//119
f 46//120 1309//118 971//120
f 971//120 1309//118 917//118
f 1166//121 46//120 833//121
f 833//121 46//120 971//120
f 49//122 1166//121 794//122
f 794//122 1166//121 833//121
s 0
f 1073//123 830//123 1196//123
s 1
f 1196//124 830//123 49//122
f 1196//124 49//122 1231//124
f 49//122 794//122 1231//124
f 1231//124 794//122 795//125
f 1231//124 795//125 1164//124
f 1164//124 795//125 1234//125
f 1164//124 1234//125 1073//124
f 1073//124 1234//125 35//123
s 0
f 1073//123 35//123 830//123
s 1
f 56//126 1234//125 150//126
f 150//126 1234//125 795//125
f 1005//127 56//126 650//127
f 650//127 56//126 150//126
f 1006//128 1005//127 651//128
f 651//128 1005//127 650//127
f 62//129 1006//128 1317//129
f 1317//129 1006//128 651//128
f 1137//130 64//130 1317//129
f 1317//129 64//130 62//129
f 44//119 66//131 918//119
f 918//119 66//131 1109//131
f 1051//43 122//116 969//43
f 969//43 122//116 142//116
f 156//132 67//133 84//67
f 84//67 67//133 974//68
f 975//44 1163//134 68//45
f 68//45 1163//134 103//76
f 69//46 70//48 756//135
f 756//135 70//48 159//136
f 72//50 69//46 757//137
f 757//137 69//46 756//135
f 73//52 72//50 161//138
f 161//138 72//50 757//137
f 74//54 73//52 162//139
f 162//139 73//52 161//138
f 75//56 74//54 1178//140
f 1178//140 74//54 162//139
f 80//59 801//58 1150//141
f 78//58 75//56 1152//141
f 1152//141 75//56 1178//140
f 1152//141 1178//140 1150//141
f 1150//141 1178//140 1179//142
f 1150//141 1179//142 80//59
f 81//61 80//59 1131//143
f 1131//143 80//59 1179//142
f 82//63 81//61 1052//144
f 1052//144 81//61 1131//143
f 83//65 82//63 1053//145
f 1053//145 82//63 1052//144
f 84//67 83//65 1085//146
f 1085//146 83//65 1053//145
f 156//132 84//67 1105//147
f 1105//147 84//67 1085//146
s 0
f 170//148 171//148 1124//148
f 1124//148 171//148 173//148
f 1070//1 1072//1 838//1
f 838//1 1072//1 840//1
f 924//149 913//149 1069//149
f 1069//149 913//149 174//149
f 808//150 915//150 923//150
f 923//150 915//150 914//150
f 90//151 178//151 89//151
f 89//151 178//151 177//151
f 88//152 967//152 810//152
f 810//152 967//152 964//152
f 86//153 841//153 857//153
f 857//153 841//153 179//153
f 93//1 737//1 1080//1
f 1080//1 737//1 789//1
f 95//149 739//149 681//149
f 681//149 739//149 736//149
f 732//150 1133//150 683//150
f 683//150 1133//150 182//150
f 728//151 1083//151 96//151
f 96//151 1083//151 183//151
f 726//152 1013//152 94//152
f 94//152 1013//152 184//152
f 91//154 181//154 92//154
f 92//154 181//154 185//154
s 1
f 186//155 187//156 102//75
f 102//75 187//156 104//77
f 1163//134 186//155 103//76
f 103//76 186//155 102//75
f 71//69 97//70 938//157
f 938//157 97//70 101//74
f 938//157 101//74 188//158
f 189//159 188//158 99//72
f 99//72 188//158 101//74
f 190//160 189//159 98//71
f 98//71 189//159 99//72
f 191//161 190//160 100//73
f 100//73 190//160 98//71
f 192//162 191//161 105//78
f 105//78 191//161 100//73
f 187//156 192//162 104//77
f 104//77 192//162 105//78
f 993//163 1191//164 195//165
f 196//166 197//167 1191//164
f 1191//164 197//167 195//165
f 197//167 196//166 879//81
f 879//81 196//166 159//136
f 879//81 159//136 70//48
s 0
f 842//168 866//168 844//168
f 844//168 866//168 741//168
f 844//168 741//168 988//168
f 988//168 741//168 1174//168
s 1
f 202//169 203//170 204//171
f 204//171 203//170 205//172
f 204//171 206//173 202//169
f 1277//172 908//174 906//175
f 908//174 1277//172 955//176
f 955//176 1277//172 64//130
f 955//176 64//130 1029//176
f 1029//176 64//130 1137//130
f 1029//176 1137//130 203//170
f 203//170 1137//130 205//172
f 1195//177 1136//178 108//80
f 108//80 1136//178 879//81
f 115//100 668//179 130//100
f 130//100 668//179 946//179
f 669//180 667//181 116//88
f 116//88 667//181 1031//87
f 907//84 1067//182 110//82
f 110//82 1067//182 114//86
f 114//86 1067//182 116//88
f 116//88 1067//182 942//183
f 116//88 942//183 669//180
f 128//111 776//181 140//113
f 140//113 776//181 777//180
f 821//179 217//179 716//97
f 716//97 217//179 882//97
f 31//33 137//33 947//184
f 119//33 820//184 127//33
f 119//33 117//33 820//184
f 820//184 117//33 118//33
f 820//184 118//33 952//33
f 952//33 40//33 820//184
f 820//184 40//33 36//33
f 820//184 36//33 947//184
f 947//184 36//33 703//33
f 947//184 703//33 31//33
s 0
f 132//33 131//33 137//33
f 1120//33 135//33 1002//33
f 127//33 125//33 123//33
f 131//33 129//33 137//33
f 137//33 129//33 945//33
s 1
f 137//33 945//33 947//184
s 0
f 123//33 121//33 127//33
f 127//33 121//33 120//33
f 127//33 120//33 119//33
f 1120//33 1002//33 137//33
f 137//33 1002//33 133//33
f 137//33 133//33 132//33
s 1
f 1161//117 141//115 1162//182
f 1162//182 141//115 139//112
f 1162//182 139//112 221//183
f 221//183 139//112 140//113
f 221//183 140//113 777//180
f 1048//185 143//186 1194//187
f 648//2 843//188 930//2
f 930//2 843//188 1267//189
f 930//2 1267//189 1258//2
s 0
f 152//2 151//2 1274//2
f 1274//2 151//2 1286//2
f 1258//2 1138//2 930//2
f 930//2 1138//2 154//2
f 930//2 154//2 1274//2
f 1274//2 154//2 153//2
f 1274//2 153//2 152//2
f 145//2 155//2 144//2
f 144//2 155//2 1308//2
f 144//2 1308//2 146//2
f 1286//2 149//2 1274//2
f 1274//2 149//2 148//2
f 1274//2 148//2 1308//2
f 1308//2 148//2 147//2
f 1308//2 147//2 146//2
s 1
f 931//190 224//191 226//192
f 225//185 227//193 224//191
f 224//191 227//193 226//192
f 1116//194 227//193 225//185
f 66//131 1048//185 1194//187
f 1194//187 791//195 66//131
f 66//131 791//195 1116//194
f 66//131 1116//194 1109//131
f 1109//131 1116//194 225//185
s 0
f 1062//196 1097//196 649//196
f 649//196 1097//196 884//196
f 649//196 884//196 646//196
f 646//196 884//196 172//196
s 1
f 67//133 156//132 1284//197
f 67//133 1284//197 157//198
f 157//198 1284//197 1141//199
f 157//198 1141//199 236//133
f 156//132 1105//147 1284//197
f 1284//197 1105//147 237//200
f 1284//197 237//200 885//201
f 886//202 885//201 1038//203
f 1038//203 885//201 237//200
f 1038//203 1000//204 886//202
s 0
f 868//33 1125//33 992//33
f 992//33 1125//33 999//33
f 992//33 999//33 194//33
f 194//33 999//33 1192//33
f 1113//33 169//33 863//33
f 863//33 169//33 168//33
f 1250//33 160//33 158//33
f 1192//33 999//33 863//33
f 863//33 999//33 240//33
f 863//33 240//33 1113//33
f 168//33 167//33 863//33
f 863//33 167//33 166//33
f 863//33 166//33 165//33
f 165//33 164//33 863//33
f 863//33 164//33 163//33
f 863//33 163//33 158//33
f 158//33 163//33 1271//33
f 158//33 1271//33 1250//33
s 1
f 1142//205 1222//206 1141//199
f 1141//199 1222//206 236//133
s 0
f 916//2 965//2 658//2
f 658//2 965//2 966//2
f 658//2 966//2 660//2
f 660//2 966//2 175//2
f 660//2 175//2 1071//2
f 790//2 180//2 723//2
f 723//2 180//2 738//2
f 723//2 738//2 755//2
f 755//2 738//2 1134//2
f 755//2 1134//2 1084//2
f 658//2 755//2 916//2
f 916//2 755//2 1084//2
f 916//2 1084//2 176//2
f 176//2 1084//2 1012//2
f 176//2 1012//2 1071//2
f 1071//2 1012//2 790//2
f 1071//2 790//2 660//2
f 660//2 790//2 723//2
f 700//151 836//151 782//151
f 816//151 922//151 693//151
s 1
f 186//155 1163//134 1221//2
f 190//160 191//161 784//2
f 784//2 191//161 817//2
f 190//160 784//2 189//159
f 189//159 784//2 837//2
f 189//159 837//2 188//158
f 188//158 837//2 210//2
f 188//158 210//2 938//157
f 191//161 192//162 817//2
f 817//2 192//162 187//156
f 817//2 187//156 921//2
f 921//2 187//156 186//155
f 921//2 186//155 243//2
f 243//2 186//155 1221//2
s 0
f 1193//207 742//207 740//207
f 880//207 109//207 211//207
f 211//207 1193//207 880//207
f 880//207 1193//207 740//207
f 880//207 740//207 1238//207
f 1238//207 740//207 867//207
f 1238//207 867//207 193//207
s 1
f 1132//208 201//209 255//210
f 255//210 201//209 199//211
f 257//212 987//212 1132//208
f 1132//208 987//212 201//209
f 1035//213 198//214 990//215
f 990//215 198//214 200//215
f 843//188 198//214 1035//213
f 1267//189 843//188 1281//216
f 1281//216 843//188 1035//213
f 1281//216 1035//213 1169//216
f 1169//216 1035//213 1112//216
s 0
f 1169//216 1112//216 209//216
s 1
f 956//217 1030//217 260//218
f 260//218 1030//217 259//219
s 0
f 207//220 208//220 1157//220
f 207//220 1157//220 112//220
s 1
f 112//220 1157//220 935//221
f 112//220 935//221 215//221
f 935//221 936//222 215//221
f 215//221 936//222 263//223
f 254//224 1136//178 248//225
f 248//225 1136//178 1195//177
f 248//225 1195//177 249//226
s 0
f 854//227 265//227 213//227
f 212//25 214//25 213//25
f 213//25 214//25 216//25
f 213//25 216//25 854//25
s 1
f 266//228 264//229 1068//230
f 1068//230 264//229 942//183
f 1068//230 942//183 1067//182
f 263//223 936//222 1119//231
f 1119//231 936//222 267//232
f 1119//231 267//232 1199//232
f 1162//182 221//183 686//230
f 686//230 221//183 1278//229
f 686//230 1278//229 687//233
s 0
f 218//26 775//26 1028//26
f 1028//26 775//26 219//26
f 1028//26 219//26 270//26
f 270//26 219//26 272//26
s 1
f 1303//234 820//184 855//234
f 855//234 820//184 947//184
f 273//235 274//235 271//236
f 271//236 274//235 733//237
f 271//236 733//237 269//238
f 220//239 269//238 688//239
f 688//239 269//238 733//237
f 220//239 688//239 1160//240
f 1160//240 688//239 689//240
s 0
f 1160//240 689//240 222//240
f 222//240 689//240 229//240
s 1
f 277//241 1294//242 791//195
f 791//195 1294//242 1116//194
s 0
f 647//243 223//243 1180//243
f 228//244 278//244 1115//244
s 1
f 1115//243 278//244 279//245
f 1115//243 279//245 1180//243
f 1180//243 279//245 232//246
f 1180//243 232//246 647//243
f 232//246 279//245 1063//247
f 1063//247 279//245 280//247
f 812//248 231//249 1209//250
f 1209//250 231//249 230//250
f 231//249 812//248 883//251
f 883//251 812//248 814//251
s 0
f 234//252 238//252 235//252
f 235//252 238//252 239//252
f 235//252 239//252 242//252
f 242//252 239//252 898//252
f 233//252 282//252 1123//252
f 1123//252 282//252 898//252
f 1123//252 898//252 241//252
f 241//252 898//252 239//252
s 1
f 252//253 1222//206 253//254
f 253//254 1222//206 1142//205
f 253//254 1142//205 283//255
s 0
f 244//1 889//1 754//1
f 754//1 889//1 954//1
f 247//35 953//35 724//35
f 724//35 953//35 834//35
f 246//151 835//151 661//151
f 661//151 835//151 892//151
f 245//34 891//34 659//34
f 659//34 891//34 284//34
s 1
f 1042//256 289//257 250//256
f 250//256 289//257 701//257
f 250//256 701//257 699//256
s 0
f 1058//258 701//258 292//258
f 292//258 701//258 289//258
s 1
f 864//259 865//260 295//259
f 295//259 865//260 694//260
f 692//261 694//260 815//261
f 815//261 694//260 865//260
f 815//261 865//260 818//261
s 0
f 251//1 819//1 783//1
f 783//1 819//1 288//1
s 1
f 1060//256 1058//262 985//256
f 985//256 1058//262 292//262
f 260//218 259//219 261//34
f 261//34 259//219 258//34
s 0
f 261//34 258//34 262//34
f 262//34 258//34 1098//34
f 1098//34 258//34 1217//34
f 1217//34 258//34 989//34
f 1217//34 989//34 298//34
f 298//34 989//34 256//34
f 298//34 256//34 291//34
f 291//34 256//34 743//34
f 291//34 743//34 290//34
s 1
f 290//34 743//34 254//224
f 290//34 254//224 248//225
f 301//220 1199//232 300//220
f 300//220 1199//232 267//232
f 687//233 1278//229 878//33
f 878//33 1278//229 1303//234
f 855//234 264//229 266//228
f 266//228 268//33 855//234
f 855//234 268//33 1256//33
f 855//234 1256//33 1303//234
f 1303//234 1256//33 762//33
f 1303//234 762//33 878//33
f 764//240 274//235 763//240
f 763//240 274//235 273//235
f 1294//242 277//241 1230//35
f 1230//35 277//241 276//35
s 0
f 276//35 275//35 1230//35
f 1230//35 275//35 962//35
f 1230//35 962//35 1208//35
f 1208//35 962//35 303//35
f 1208//35 303//35 281//35
f 281//35 303//35 1015//35
f 281//35 1015//35 813//35
f 813//35 1015//35 802//35
s 1
f 813//35 802//35 283//255
f 283//255 802//35 296//35
f 283//255 296//35 253//254
f 1171//263 864//259 304//263
f 304//263 864//259 295//259
s 0
f 285//2 890//2 1041//2
f 293//2 305//2 986//2
f 984//2 287//2 286//2
f 287//2 984//2 890//2
f 890//2 984//2 1024//2
f 890//2 1024//2 1041//2
f 986//2 984//2 293//2
f 293//2 984//2 286//2
f 293//2 286//2 294//2
f 294//2 286//2 285//2
f 294//2 285//2 297//2
f 297//2 285//2 1041//2
f 306//151 1189//151 765//151
f 665//151 666//151 1059//151
f 1218//151 1291//151 1292//151
f 665//151 1059//151 1039//151
f 666//151 313//151 1059//151
f 1059//151 313//151 314//151
f 1059//151 314//151 1218//151
f 1218//151 314//151 1315//151
f 1218//151 1315//151 1291//151
f 1292//151 943//151 1218//151
f 1218//151 943//151 944//151
f 1218//151 944//151 1255//151
f 1255//151 944//151 318//151
f 306//151 765//151 1235//151
f 1189//151 1190//151 765//151
f 765//151 1190//151 321//151
f 765//151 321//151 1014//151
f 1077//151 1149//151 302//151
f 302//151 1149//151 324//151
f 302//151 324//151 765//151
f 765//151 324//151 823//151
f 765//151 823//151 1235//151
f 321//151 326//151 1014//151
f 1014//151 326//151 327//151
f 1014//151 327//151 852//151
f 318//151 329//151 1255//151
f 1255//151 329//151 330//151
f 1255//151 330//151 302//151
f 302//151 330//151 331//151
f 302//151 331//151 1077//151
f 299//151 332//151 333//151
f 852//151 334//151 1014//151
f 1014//151 334//151 722//151
f 1014//151 722//151 1170//151
f 1170//151 722//151 336//151
f 1170//151 336//151 919//151
f 299//151 333//151 1059//151
f 1059//151 333//151 338//151
f 1059//151 338//151 1039//151
f 919//151 656//151 1170//151
f 1170//151 656//151 657//151
f 1170//151 657//151 299//151
f 299//151 657//151 770//151
f 299//151 770//151 332//151
s 1
f 1287//264 342//34 343//34
f 343//34 342//34 1114//265
f 343//34 1114//265 315//265
f 315//265 1114//265 1096//266
f 315//265 1096//266 310//266
f 310//266 1096//266 1066//267
f 310//266 1066//267 311//267
f 311//267 1066//267 940//268
f 311//267 940//268 316//268
f 316//268 940//268 941//269
f 316//268 941//269 317//269
f 317//269 941//269 1016//270
f 317//269 1016//270 1049//270
f 1049//270 1016//270 350//271
f 1049//270 350//271 1259//271
f 1259//271 350//271 1056//272
f 1259//271 1056//272 1312//272
f 1312//272 1056//272 1057//33
f 1312//272 1057//33 1078//33
f 1078//33 1057//33 1260//273
f 1078//33 1260//273 322//273
f 322//273 1260//273 354//274
f 322//273 354//274 323//274
f 323//274 354//274 1187//275
f 323//274 1187//275 822//275
f 822//275 1187//275 828//276
f 822//275 828//276 325//276
f 325//276 828//276 829//277
f 325//276 829//277 319//277
f 319//277 829//277 853//278
f 319//277 853//278 1283//278
f 1283//278 853//278 911//279
f 1283//278 911//279 307//279
f 307//279 911//279 912//280
f 307//279 912//280 320//280
f 320//280 912//280 361//35
f 320//280 361//35 362//35
f 362//35 361//35 1300//281
f 362//35 1300//281 981//281
f 981//281 1300//281 1301//282
f 981//281 1301//282 851//282
f 851//282 1301//282 365//283
f 851//282 365//283 328//283
f 328//283 365//283 746//284
f 328//283 746//284 721//284
f 721//284 746//284 747//285
f 721//284 747//285 335//285
f 335//285 747//285 932//286
f 335//285 932//286 920//286
f 920//286 932//286 933//287
f 920//286 933//287 337//287
f 337//287 933//287 877//288
f 337//287 877//288 339//288
f 339//288 877//288 787//2
f 339//288 787//2 340//2
f 340//2 787//2 788//289
f 340//2 788//289 341//289
f 341//289 788//289 373//290
f 341//289 373//290 769//290
f 769//290 373//290 1216//291
f 769//290 1216//291 1304//291
f 1304//291 1216//291 1248//292
f 1304//291 1248//292 1040//292
f 1040//292 1248//292 1129//293
f 1040//292 1129//293 312//293
f 312//293 1129//293 1130//294
f 312//293 1130//294 308//294
f 308//294 1130//294 378//295
f 308//294 378//295 309//295
f 309//295 378//295 1090//264
f 309//295 1090//264 1287//264
f 1287//264 1090//264 342//34
s 0
f 366//1 1087//1 367//1
f 367//1 1087//1 1088//1
f 367//1 1088//1 368//1
f 368//1 1088//1 1108//1
f 368//1 1108//1 369//1
f 369//1 1108//1 383//1
f 369//1 383//1 370//1
f 370//1 383//1 1156//1
f 370//1 1156//1 371//1
f 371//1 1156//1 385//1
f 371//1 385//1 372//1
f 372//1 385//1 1215//1
f 372//1 1215//1 1202//1
f 1202//1 1215//1 786//1
f 1202//1 786//1 374//1
f 374//1 786//1 388//1
f 374//1 388//1 375//1
f 375//1 388//1 745//1
f 375//1 745//1 376//1
f 376//1 745//1 961//1
f 376//1 961//1 377//1
f 377//1 961//1 1034//1
f 377//1 1034//1 1089//1
f 1089//1 1034//1 1313//1
f 1089//1 1313//1 379//1
f 379//1 1313//1 393//1
f 379//1 393//1 394//1
f 394//1 393//1 395//1
f 394//1 395//1 344//1
f 344//1 395//1 396//1
f 344//1 396//1 345//1
f 345//1 396//1 674//1
f 345//1 674//1 346//1
f 346//1 674//1 675//1
f 346//1 675//1 347//1
f 347//1 675//1 806//1
f 347//1 806//1 348//1
f 348//1 806//1 871//1
f 348//1 871//1 349//1
f 349//1 871//1 846//1
f 349//1 846//1 1017//1
f 1017//1 846//1 847//1
f 1017//1 847//1 351//1
f 351//1 847//1 929//1
f 351//1 929//1 352//1
f 352//1 929//1 1167//1
f 352//1 1167//1 353//1
f 353//1 1167//1 1168//1
f 353//1 1168//1 1236//1
f 1236//1 1168//1 1265//1
f 1236//1 1265//1 355//1
f 355//1 1265//1 1099//1
f 355//1 1099//1 356//1
f 356//1 1099//1 1076//1
f 356//1 1076//1 357//1
f 357//1 1076//1 1043//1
f 357//1 1043//1 358//1
f 358//1 1043//1 1044//1
f 358//1 1044//1 359//1
f 359//1 1044//1 411//1
f 359//1 411//1 360//1
f 360//1 411//1 412//1
f 360//1 412//1 413//1
f 413//1 412//1 414//1
f 413//1 414//1 363//1
f 363//1 414//1 415//1
f 363//1 415//1 364//1
f 364//1 415//1 416//1
f 364//1 416//1 1307//1
f 1307//1 416//1 1101//1
f 1307//1 1101//1 366//1
f 366//1 1101//1 1087//1
f 977//151 750//151 719//151
f 719//151 750//151 720//151
f 750//151 751//151 720//151
f 720//151 751//151 423//151
f 720//151 423//151 424//151
f 1310//151 1219//151 427//151
f 427//151 1219//151 678//151
f 1310//151 429//151 1219//151
f 1219//151 429//151 430//151
f 1219//151 430//151 797//151
f 977//151 719//151 978//151
f 978//151 719//151 995//151
f 978//151 995//151 996//151
f 424//151 1139//151 720//151
f 720//151 1139//151 1140//151
f 720//151 1140//151 1219//151
f 678//151 679//151 427//151
f 427//151 679//151 1095//151
f 427//151 1095//151 1186//151
f 797//151 1064//151 1219//151
f 1219//151 1064//151 1065//151
f 1219//151 1065//151 442//151
f 442//151 972//151 1219//151
f 1219//151 972//151 444//151
f 1219//151 444//151 720//151
f 1186//151 925//151 427//151
f 427//151 925//151 926//151
f 427//151 926//151 447//151
f 1227//151 449//151 717//151
f 717//151 449//151 798//151
f 717//151 798//151 718//151
f 996//151 453//151 978//151
f 978//151 453//151 449//151
f 978//151 449//151 454//151
f 454//151 449//151 1227//151
s 1
f 1314//264 455//34 456//34
f 456//34 455//34 729//265
f 456//34 729//265 1285//265
f 1285//265 729//265 730//266
f 1285//265 730//266 397//266
f 397//266 730//266 459//267
f 397//266 459//267 398//267
f 398//267 459//267 460//268
f 398//267 460//268 399//268
f 399//268 460//268 461//269
f 399//268 461//269 400//269
f 400//269 461//269 1207//270
f 400//269 1207//270 401//270
f 401//270 1207//270 909//271
f 401//270 909//271 402//271
f 402//271 909//271 910//272
f 402//271 910//272 403//272
f 403//272 910//272 959//33
f 403//272 959//33 404//33
f 404//33 959//33 960//273
f 404//33 960//273 405//273
f 405//273 960//273 1128//274
f 405//273 1128//274 406//274
f 406//274 1128//274 1086//275
f 406//274 1086//275 407//275
f 407//275 1086//275 1054//276
f 407//275 1054//276 408//276
f 408//276 1054//276 1055//277
f 408//276 1055//277 409//277
f 409//277 1055//277 1106//278
f 409//277 1106//278 410//278
f 410//278 1106//278 1107//279
f 410//278 1107//279 997//279
f 997//279 1107//279 1176//296
f 997//279 1176//296 998//296
f 998//296 1176//296 474//35
f 998//296 474//35 475//35
f 475//35 474//35 897//297
f 475//35 897//297 1239//297
f 1239//297 897//297 872//282
f 1239//297 872//282 1220//282
f 1220//282 872//282 848//283
f 1220//282 848//283 417//283
f 417//283 848//283 849//284
f 417//283 849//284 380//284
f 380//284 849//284 480//285
f 380//284 480//285 381//285
f 381//285 480//285 481//286
f 381//285 481//286 382//286
f 382//286 481//286 684//287
f 382//286 684//287 1155//287
f 1155//287 684//287 685//288
f 1155//287 685//288 384//288
f 384//288 685//288 484//2
f 384//288 484//2 1214//2
f 1214//2 484//2 485//289
f 1214//2 485//289 386//289
f 386//289 485//289 1047//290
f 386//289 1047//290 387//290
f 387//290 1047//290 976//291
f 387//290 976//291 744//291
f 744//291 976//291 771//292
f 744//291 771//292 389//292
f 389//292 771//292 772//293
f 389//292 772//293 390//293
f 390//293 772//293 811//294
f 390//293 811//294 391//294
f 391//294 811//294 1223//295
f 391//294 1223//295 392//295
f 392//295 1223//295 1224//264
f 392//295 1224//264 1314//264
f 1314//264 1224//264 455//34
f 826//298 494//34 495//34
f 495//34 494//34 441//299
f 495//34 441//299 496//299
f 496//299 441//299 440//300
f 496//299 440//300 497//300
f 497//300 440//300 431//301
f 497//300 431//301 1027//301
f 1027//301 431//301 796//302
f 1027//301 796//302 1081//302
f 1081//302 796//302 1237//303
f 1081//302 1237//303 1082//303
f 1082//303 1237//303 425//304
f 1082//303 425//304 1100//304
f 1100//304 425//304 1045//305
f 1100//304 1045//305 1122//305
f 1122//305 1045//305 1046//306
f 1122//305 1046//306 503//306
f 503//306 1046//306 446//307
f 503//306 446//307 504//307
f 504//307 446//307 445//308
f 504//307 445//308 505//308
f 505//308 445//308 439//309
f 505//308 439//309 734//309
f 734//309 439//309 438//310
f 734//309 438//310 735//310
f 735//310 438//310 437//311
f 735//310 437//311 1319//311
f 1319//311 437//311 428//312
f 1319//311 428//312 697//312
f 697//312 428//312 426//313
f 697//312 426//313 698//313
f 698//313 426//313 436//314
f 698//313 436//314 511//314
f 511//314 436//314 435//315
f 511//314 435//315 512//315
f 512//315 435//315 1290//316
f 512//315 1290//316 1201//316
f 1201//316 1290//316 1023//317
f 1201//316 1023//317 1249//317
f 1249//317 1023//317 422//318
f 1249//317 422//318 1282//318
f 1282//318 422//318 419//319
f 1282//318 419//319 516//319
f 516//319 419//319 418//320
f 516//319 418//320 780//320
f 780//320 418//320 432//321
f 780//320 432//321 781//321
f 781//321 432//321 1270//322
f 781//321 1270//322 695//322
f 695//322 1270//322 448//323
f 695//322 448//323 696//323
f 696//323 448//323 450//324
f 696//323 450//324 1110//324
f 1110//324 450//324 452//325
f 1110//324 452//325 522//325
f 522//325 452//325 451//326
f 522//325 451//326 523//326
f 523//326 451//326 1262//327
f 523//326 1262//327 524//327
f 524//327 1262//327 1233//328
f 524//327 1233//328 525//328
f 525//328 1233//328 434//329
f 525//328 434//329 526//329
f 526//329 434//329 433//330
f 526//329 433//330 527//330
f 527//330 433//330 420//331
f 527//330 420//331 528//331
f 528//331 420//331 421//332
f 528//331 421//332 887//332
f 887//332 421//332 973//333
f 887//332 973//333 827//333
f 827//333 973//333 443//298
f 827//333 443//298 826//298
f 826//298 443//298 494//34
s 0
f 927//151 482//151 1025//151
f 1025//151 482//151 1293//151
f 1025//151 1293//151 1026//151
f 1026//151 1293//151 1254//151
f 1026//151 1254//151 1181//151
f 1181//151 1254//151 479//151
f 1181//151 479//151 535//151
f 535//151 479//151 478//151
f 535//151 478//151 536//151
f 536//151 478//151 477//151
f 536//151 477//151 1118//151
f 1118//151 477//151 476//151
f 1118//151 476//151 538//151
f 538//151 476//151 539//151
f 538//151 539//151 540//151
f 540//151 539//151 473//151
f 540//151 473//151 541//151
f 541//151 473//151 472//151
f 541//151 472//151 542//151
f 542//151 472//151 471//151
f 542//151 471//151 543//151
f 543//151 471//151 470//151
f 543//151 470//151 544//151
f 544//151 470//151 469//151
f 544//151 469//151 1205//151
f 1205//151 469//151 468//151
f 1205//151 468//151 1206//151
f 1206//151 468//151 467//151
f 1206//151 467//151 547//151
f 547//151 467//151 466//151
f 547//151 466//151 548//151
f 548//151 466//151 465//151
f 548//151 465//151 644//151
f 644//151 465//151 464//151
f 644//151 464//151 645//151
f 645//151 464//151 463//151
f 645//151 463//151 859//151
f 859//151 463//151 462//151
f 859//151 462//151 552//151
f 552//151 462//151 1229//151
f 552//151 1229//151 553//151
f 553//151 1229//151 1243//151
f 553//151 1243//151 554//151
f 554//151 1243//151 1266//151
f 554//151 1266//151 555//151
f 555//151 1266//151 458//151
f 555//151 458//151 556//151
f 556//151 458//151 457//151
f 556//151 457//151 557//151
f 557//151 457//151 558//151
f 557//151 558//151 559//151
f 559//151 558//151 492//151
f 559//151 492//151 560//151
f 560//151 492//151 491//151
f 560//151 491//151 824//151
f 824//151 491//151 490//151
f 824//151 490//151 562//151
f 562//151 490//151 489//151
f 562//151 489//151 563//151
f 563//151 489//151 488//151
f 563//151 488//151 564//151
f 564//151 488//151 487//151
f 564//151 487//151 1022//151
f 1022//151 487//151 486//151
f 1022//151 486//151 566//151
f 566//151 486//151 1318//151
f 566//151 1318//151 567//151
f 567//151 1318//151 1311//151
f 567//151 1311//151 568//151
f 568//151 1311//151 483//151
f 568//151 483//151 927//151
f 927//151 483//151 482//151
s 1
f 1302//334 1008//335 498//336
f 499//337 672//338 498//336
f 498//336 672//338 673//339
f 498//336 673//339 1302//334
f 500//340 654//341 499//337
f 499//337 654//341 573//337
f 499//337 573//337 672//338
f 501//342 574//343 500//340
f 500//340 574//343 655//340
f 500//340 655//340 654//341
f 502//344 576//345 501//342
f 501//342 576//345 577//342
f 501//342 577//342 574//343
f 1279//346 578//347 502//344
f 502//344 578//347 579//344
f 502//344 579//344 576//345
f 1182//348 652//349 1279//346
f 1279//346 652//349 1295//346
f 1279//346 1295//346 578//347
f 1183//350 845//351 1182//348
f 1182//348 845//351 653//348
f 1182//348 653//348 652//349
f 506//352 1010//353 1183//350
f 1183//350 1010//353 1011//350
f 1183//350 1011//350 845//351
f 507//354 957//355 506//352
f 506//352 957//355 958//352
f 506//352 958//352 1010//353
f 508//356 904//357 507//354
f 507//354 904//357 905//354
f 507//354 905//354 957//355
f 509//358 903//359 508//356
f 508//356 903//359 950//356
f 508//356 950//356 904//357
f 510//360 778//361 509//358
f 509//358 778//361 779//358
f 509//358 779//358 903//359
f 1299//362 690//363 510//360
f 510//360 690//363 691//360
f 510//360 691//360 778//361
f 1200//364 1093//365 1299//362
f 1299//362 1093//365 597//362
f 1299//362 597//362 690//363
f 513//366 1091//367 1200//364
f 1200//364 1091//367 599//364
f 1200//364 599//364 1093//365
f 514//368 600//369 513//366
f 513//366 600//369 601//366
f 513//366 601//366 1091//367
f 515//370 773//371 514//368
f 514//368 773//371 1269//368
f 514//368 1269//368 600//369
f 1306//372 604//373 515//370
f 515//370 604//373 774//370
f 515//370 774//370 773//371
f 517//374 1246//375 1306//372
f 1306//372 1246//375 607//372
f 1306//372 607//372 604//373
f 518//376 1184//377 517//374
f 517//374 1184//377 609//374
f 517//374 609//374 1246//375
f 519//378 1147//379 518//376
f 518//376 1147//379 611//376
f 518//376 611//376 1184//377
f 520//380 676//381 519//378
f 519//378 676//381 1297//378
f 519//378 1297//378 1147//379
f 521//382 850//383 520//380
f 520//380 850//383 677//380
f 520//380 677//380 676//381
f 1111//384 616//385 521//382
f 521//382 616//385 617//382
f 521//382 617//382 850//383
f 1177//386 948//387 1111//384
f 1111//384 948//387 619//384
f 1111//384 619//384 616//385
f 1203//388 620//389 1177//386
f 1177//386 620//389 894//386
f 1177//386 894//386 948//387
f 1018//390 888//391 1203//388
f 1203//388 888//391 939//388
f 1203//388 939//388 620//389
f 1019//392 624//393 1018//390
f 1018//390 624//393 625//390
f 1018//390 625//390 888//391
f 963//394 670//395 1019//392
f 1019//392 670//395 671//392
f 1019//392 671//392 624//393
f 934//396 628//397 963//394
f 963//394 628//397 1009//394
f 963//394 1009//394 670//395
f 529//398 1102//399 934//396
f 934//396 1102//399 1146//396
f 934//396 1146//396 628//397
f 530//400 632//401 529//398
f 529//398 632//401 633//402
f 529//398 633//402 1102//399
f 493//403 1252//404 530//400
f 530//400 1252//404 635//405
f 530//400 635//405 632//401
f 1302//334 1225//406 1008//335
f 1008//335 1225//406 1226//407
f 1008//335 1226//407 1007//408
f 1007//408 1226//407 1241//408
f 1007//408 1241//408 639//409
f 639//409 1241//408 1158//409
f 639//409 1158//409 493//403
f 493//403 1158//409 1159//403
f 493//403 1159//403 1252//404
f 638//410 1175//411 642//412
f 638//410 637//413 1175//411
f 1175//411 637//413 636//414
f 1175//411 636//414 1154//415
f 636//414 569//416 1154//415
f 1154//415 569//416 571//417
f 1154//415 571//417 1033//418
f 571//417 570//419 1033//418
f 1033//418 570//419 768//420
f 1033//418 768//420 1032//421
f 768//420 572//422 1032//421
f 1032//421 572//422 575//423
f 1032//421 575//423 1316//424
f 575//423 1296//425 1316//424
f 1316//424 1296//425 1245//426
f 1316//424 1245//426 551//427
f 1245//426 1211//428 551//427
f 551//427 1211//428 1145//429
f 551//427 1145//429 550//430
f 1145//429 1144//431 550//430
f 550//430 1144//431 581//432
f 550//430 581//432 549//433
f 581//432 580//434 549//433
f 549//433 580//434 583//435
f 549//433 583//435 1288//436
f 583//435 582//437 1288//436
f 1288//436 582//437 585//438
f 1288//436 585//438 1275//439
f 585//438 584//440 1275//439
f 1275//439 584//440 587//441
f 1275//439 587//441 546//442
f 587//441 586//443 546//442
f 546//442 586//443 589//444
f 546//442 589//444 545//445
f 589//444 588//446 545//445
f 545//445 588//446 591//447
f 545//445 591//447 1251//448
f 591//447 590//449 1251//448
f 1251//448 590//449 593//450
f 1251//448 593//450 1263//451
f 593//450 592//452 1263//451
f 1263//451 592//452 595//453
f 1263//451 595//453 1289//454
f 595//453 594//455 1289//454
f 1289//454 594//455 991//456
f 1289//454 991//456 793//457
f 991//456 596//458 793//457
f 793//457 596//458 1127//459
f 793//457 1127//459 792//460
f 1127//459 598//461 792//460
f 792//460 598//461 1092//462
f 792//460 1092//462 643//463
f 1092//462 1298//464 643//463
f 643//463 1298//464 603//465
f 643//463 603//465 537//466
f 603//465 602//467 537//466
f 537//466 602//467 605//468
f 537//466 605//468 1117//469
f 605//468 1247//470 1117//469
f 1117//469 1247//470 1268//471
f 1117//469 1268//471 1143//472
f 1268//471 606//473 1143//472
f 1143//472 606//473 1185//474
f 1143//472 1185//474 534//475
f 1185//474 608//476 534//475
f 534//475 608//476 1148//477
f 534//475 1148//477 533//478
f 1148//477 610//479 533//478
f 533//478 610//479 613//480
f 533//478 613//480 532//481
f 613//480 612//482 532//481
f 532//481 612//482 615//483
f 532//481 615//483 531//484
f 615//483 614//485 531//484
f 531//484 614//485 1004//486
f 531//484 1004//486 928//487
f 1004//486 1003//488 928//487
f 928//487 1003//488 949//489
f 928//487 949//489 1094//490
f 949//489 618//491 1094//490
f 1094//490 618//491 621//492
f 1094//490 621//492 1135//493
f 621//492 893//494 1135//493
f 1135//493 893//494 623//495
f 1135//493 623//495 565//496
f 623//495 622//497 565//496
f 565//496 622//497 767//498
f 565//496 767//498 994//499
f 767//498 766//500 994//499
f 994//499 766//500 627//501
f 994//499 627//501 970//502
f 627//501 626//503 970//502
f 970//502 626//503 629//504
f 970//502 629//504 825//505
f 629//504 1104//506 825//505
f 825//505 1104//506 631//507
f 825//505 631//507 561//508
f 631//507 630//509 561//508
f 561//508 630//509 1103//510
f 561//508 1103//510 876//511
f 1103//510 1276//512 876//511
f 876//511 1276//512 1253//513
f 876//511 1253//513 875//514
f 1253//513 634//515 875//514
f 875//514 634//515 641//516
f 875//514 641//516 642//412
f 642//412 641//516 640//517
f 642//412 640//517 638//410
