# Blender 3.3.21
# www.blender.org
mtllib link_5.mtl
o Link_5
v -0.015000 -0.015000 0.055000
v -0.027579 -0.015000 0.054127
v -0.009503 -0.015000 0.060000
v 0.015000 -0.015000 0.044545
v 0.015000 -0.015000 0.055000
v 0.021604 -0.015000 0.042399
v 0.027579 -0.015000 0.054127
v 0.033648 -0.015000 0.033648
v 0.037000 -0.015000 0.047282
v 0.037000 -0.015000 0.029035
v 0.009503 -0.015000 0.060000
v 0.035572 -0.015000 -0.031000
v 0.051641 -0.015000 -0.031000
v 0.033648 -0.015000 -0.033648
v 0.042955 -0.015000 -0.042955
v 0.021604 -0.015000 -0.042399
v 0.027579 -0.015000 -0.054127
v 0.007444 -0.015000 -0.047000
v 0.009503 -0.015000 -0.060000
v -0.007444 -0.015000 -0.047000
v -0.009503 -0.015000 -0.060000
v -0.021603 -0.015000 -0.042399
v -0.027579 -0.015000 -0.054127
v -0.033648 -0.015000 -0.033648
v -0.042955 -0.015000 -0.042955
v -0.042399 -0.015000 -0.021604
v -0.054127 -0.015000 -0.027579
v -0.047000 -0.015000 -0.007444
v -0.060000 -0.015000 -0.009503
v -0.047000 -0.015000 0.007444
v -0.060000 -0.015000 0.009503
v -0.042399 -0.015000 0.021603
v -0.054127 -0.015000 0.027579
v -0.033648 -0.015000 0.033648
v -0.042955 -0.015000 0.042955
v -0.021603 -0.015000 0.042399
v -0.015000 -0.015000 0.044545
v -0.009503 0.015000 0.060000
v -0.027579 0.015000 0.054127
v -0.015000 0.015000 0.055000
v 0.009503 0.015000 0.060000
v 0.015000 0.015000 0.055000
v 0.027579 0.015000 0.054127
v 0.015000 0.015000 0.044545
v 0.021604 0.015000 0.042399
v 0.037000 0.015000 0.047282
v 0.033648 0.015000 0.033648
v 0.037000 0.015000 0.029035
v -0.015000 0.015000 0.044545
v -0.021603 0.015000 0.042399
v -0.033648 0.015000 0.033648
v -0.042955 0.015000 0.042955
v -0.042399 0.015000 0.021603
v -0.054127 0.015000 0.027579
v -0.047000 0.015000 0.007444
v -0.060000 0.015000 0.009503
v -0.047000 0.015000 -0.007444
v -0.060000 0.015000 -0.009503
v -0.042399 0.015000 -0.021604
v -0.054127 0.015000 -0.027579
v -0.033648 0.015000 -0.033648
v -0.042955 0.015000 -0.042955
v -0.021603 0.015000 -0.042399
v -0.027579 0.015000 -0.054127
v -0.007444 0.015000 -0.047000
v -0.009503 0.015000 -0.060000
v 0.007444 0.015000 -0.047000
v 0.009503 0.015000 -0.060000
v 0.021604 0.015000 -0.042399
v 0.027579 0.015000 -0.054127
v 0.033648 0.015000 -0.033648
v 0.042955 0.015000 -0.042955
v 0.035572 0.015000 -0.031000
v 0.051641 0.015000 -0.031000
v 0.037000 -0.017000 0.047282
v 0.027579 -0.021000 0.054127
v 0.042955 -0.017000 0.042955
v 0.042955 -0.021000 0.042955
v 0.053094 -0.017000 0.029000
v 0.054127 -0.021000 0.027579
v 0.053094 0.017000 0.029000
v 0.054127 0.021000 0.027579
v 0.042955 0.017000 0.042955
v 0.042955 0.021000 0.042955
v 0.037000 0.017000 0.047282
v 0.027579 0.021000 0.054127
v 0.044443 0.008500 0.029000
v 0.045887 0.011000 0.029000
v 0.044443 0.013500 0.029000
v 0.037000 -0.017000 0.029000
v 0.044443 -0.013500 0.029000
v 0.041557 0.013500 0.029000
v 0.037000 0.017000 0.029000
v 0.040113 0.011000 0.029000
v 0.041557 0.008500 0.029000
v 0.041557 -0.013500 0.029000
v 0.040113 -0.011000 0.029000
v 0.041557 -0.008500 0.029000
v 0.044443 -0.008500 0.029000
v 0.045887 -0.011000 0.029000
v 0.059391 0.013556 -0.011378
v 0.060000 0.014992 -0.009503
v 0.030000 0.013597 -0.011409
v 0.030000 0.015372 -0.008875
v 0.030000 0.011409 -0.013597
v 0.058682 0.011376 -0.013560
v 0.059190 0.013084 -0.011995
v 0.030000 0.008875 -0.015372
v 0.030000 0.006071 -0.016680
v 0.057680 0.006055 -0.016642
v 0.057982 0.008255 -0.015714
v 0.058106 0.008850 -0.015333
v 0.058513 0.010810 -0.014079
v 0.030000 0.003082 -0.017480
v 0.030000 0.000000 -0.017750
v 0.057328 -0.000002 -0.017726
v 0.057384 0.002619 -0.017556
v 0.057418 0.003075 -0.017448
v 0.057604 0.005500 -0.016876
v 0.030000 -0.006071 -0.016680
v 0.057418 -0.003251 -0.017450
v 0.030000 -0.003082 -0.017480
v 0.057412 -0.003081 -0.017467
v 0.057321 -0.000319 -0.017747
v 0.058094 -0.008872 -0.015368
v 0.058084 -0.008829 -0.015399
v 0.030000 -0.008875 -0.015372
v 0.057673 -0.006111 -0.016665
v 0.057669 -0.006070 -0.016676
v 0.030000 -0.011409 -0.013597
v 0.058672 -0.011403 -0.013591
v 0.058648 -0.011330 -0.013664
v 0.059391 -0.013556 0.011378
v 0.060000 -0.014992 0.009503
v 0.030000 -0.013597 0.011409
v 0.030000 -0.015372 0.008875
v 0.030000 -0.011409 0.013597
v 0.058682 -0.011376 0.013560
v 0.059190 -0.013084 0.011995
v 0.030000 -0.008875 0.015372
v 0.030000 -0.006071 0.016680
v 0.057680 -0.006055 0.016642
v 0.057982 -0.008255 0.015713
v 0.058106 -0.008850 0.015333
v 0.058513 -0.010810 0.014078
v 0.030000 -0.003082 0.017480
v 0.030000 0.000000 0.017750
v 0.057328 0.000002 0.017726
v 0.057384 -0.002619 0.017556
v 0.057418 -0.003075 0.017448
v 0.057604 -0.005500 0.016876
v 0.030000 0.006071 0.016680
v 0.057418 0.003251 0.017450
v 0.030000 0.003082 0.017480
v 0.057412 0.003081 0.017467
v 0.057321 0.000319 0.017747
v 0.058094 0.008872 0.015368
v 0.058084 0.008829 0.015399
v 0.030000 0.008875 0.015372
v 0.057673 0.006111 0.016665
v 0.057669 0.006070 0.016676
v 0.030000 0.011409 0.013597
v 0.058672 0.011403 0.013591
v 0.058648 0.011330 0.013664
v 0.060000 0.015372 -0.008875
v 0.060000 0.016680 -0.006071
v 0.030000 0.016680 -0.006071
v 0.060000 0.017480 -0.003082
v 0.030000 0.017480 -0.003082
v 0.060000 0.017750 0.000000
v 0.030000 0.017750 0.000000
v 0.060000 0.017480 0.003082
v 0.030000 0.017480 0.003082
v 0.060000 0.016680 0.006071
v 0.030000 0.016680 0.006071
v 0.060000 0.015372 0.008875
v 0.030000 0.015372 0.008875
v 0.060000 0.014992 0.009503
v 0.030000 0.013597 0.011409
v 0.059382 0.013592 0.011405
v 0.059355 0.013532 0.011487
v 0.060000 -0.015372 0.008875
v 0.060000 -0.016680 0.006071
v 0.030000 -0.016680 0.006071
v 0.060000 -0.017480 0.003082
v 0.030000 -0.017480 0.003082
v 0.060000 -0.017750 0.000000
v 0.030000 -0.017750 0.000000
v 0.060000 -0.017480 -0.003082
v 0.030000 -0.017480 -0.003082
v 0.060000 -0.016680 -0.006071
v 0.030000 -0.016680 -0.006071
v 0.060000 -0.015372 -0.008875
v 0.030000 -0.015372 -0.008875
v 0.060000 -0.014992 -0.009503
v 0.030000 -0.013597 -0.011409
v 0.059382 -0.013592 -0.011405
v 0.059355 -0.013532 -0.011487
v 0.054127 0.021000 -0.027579
v 0.054127 -0.021000 -0.027579
v 0.060000 0.021000 -0.009503
v 0.060000 -0.021000 -0.009503
v 0.060000 -0.021000 0.009503
v 0.060000 0.021000 0.009503
v 0.042955 -0.021000 -0.042955
v 0.027579 -0.021000 -0.054127
v 0.009503 -0.021000 -0.060000
v -0.009503 -0.021000 -0.060000
v -0.027579 -0.021000 -0.054127
v -0.042955 -0.021000 -0.042955
v -0.054127 -0.021000 -0.027579
v -0.060000 -0.021000 -0.009503
v -0.060000 -0.021000 0.009503
v -0.054127 -0.021000 0.027579
v -0.042955 -0.021000 0.042955
v -0.027579 -0.021000 0.054127
v -0.009503 -0.021000 0.060000
v 0.009503 -0.021000 0.060000
v 0.042955 0.021000 -0.042955
v 0.027579 0.021000 -0.054127
v -0.042955 0.021000 0.042955
v 0.009503 0.021000 -0.060000
v -0.009503 0.021000 -0.060000
v -0.054127 0.021000 -0.027579
v -0.060000 0.021000 -0.009503
v -0.060000 0.021000 0.009503
v -0.054127 0.021000 0.027579
v -0.027579 0.021000 0.054127
v -0.009503 0.021000 0.060000
v 0.009503 0.021000 0.060000
v -0.027579 0.021000 -0.054127
v -0.042955 0.021000 -0.042955
v 0.030000 0.000000 0.017750
v 0.044443 0.008500 0.024000
v 0.041557 0.008500 0.024000
v 0.040113 0.011000 0.024000
v 0.041557 0.013500 0.024000
v 0.044443 0.013500 0.024000
v 0.045887 0.011000 0.024000
v 0.044443 -0.013500 0.024000
v 0.041557 -0.013500 0.024000
v 0.040113 -0.011000 0.024000
v 0.041557 -0.008500 0.024000
v 0.044443 -0.008500 0.024000
v 0.045887 -0.011000 0.024000
v -0.015000 0.015000 0.055000
v -0.015000 0.015000 0.055000
v -0.015000 0.015000 0.044545
v -0.015000 0.015000 0.044545
v 0.007444 -0.015000 -0.047000
v -0.007444 -0.015000 -0.047000
v 0.060000 0.015372 0.008875
v 0.060000 0.014992 0.009503
v 0.030000 0.000000 -0.017750
v 0.030000 -0.003082 -0.017480
v -0.054127 -0.015000 0.027579
v -0.042955 -0.015000 0.042955
v 0.053094 -0.017000 0.029000
v 0.053094 -0.017000 0.029000
v 0.053094 0.017000 0.029000
v 0.053094 0.017000 0.029000
v -0.042399 -0.015000 0.021603
v -0.033648 -0.015000 0.033648
v 0.058672 -0.011403 -0.013591
v 0.058648 -0.011330 -0.013664
v 0.054127 -0.021000 -0.027579
v 0.060000 -0.021000 -0.009503
v 0.054127 0.021000 0.027579
v 0.042955 0.021000 0.042955
v 0.058094 -0.008872 -0.015368
v 0.058084 -0.008829 -0.015399
v -0.054127 -0.021000 -0.027579
v -0.060000 -0.021000 -0.009503
v 0.030000 -0.008875 -0.015372
v 0.030000 -0.011409 -0.013597
v 0.058682 0.011376 -0.013560
v 0.059190 0.013084 -0.011995
v 0.057680 -0.006055 0.016642
v 0.057982 -0.008255 0.015713
v 0.027579 -0.015000 -0.054127
v 0.009503 -0.015000 -0.060000
v -0.021603 -0.015000 0.042399
v 0.035572 0.015000 -0.031000
v 0.035572 0.015000 -0.031000
v 0.051641 0.015000 -0.031000
v 0.051641 0.015000 -0.031000
v 0.044443 0.008500 0.029000
v 0.044443 0.008500 0.029000
v 0.041557 0.008500 0.029000
v 0.041557 0.008500 0.029000
v -0.009503 0.015000 -0.060000
v 0.009503 0.015000 -0.060000
v 0.027579 -0.021000 -0.054127
v 0.009503 -0.021000 -0.060000
v 0.057673 0.006111 0.016665
v 0.057669 0.006070 0.016676
v 0.030000 0.011409 -0.013597
v 0.030000 0.008875 -0.015372
v 0.057982 0.008255 -0.015714
v 0.058106 0.008850 -0.015333
v -0.021603 -0.015000 -0.042399
v 0.045887 0.011000 0.029000
v 0.045887 0.011000 0.029000
v 0.044443 0.013500 0.029000
v 0.044443 0.013500 0.029000
v 0.030000 0.015372 0.008875
v 0.030000 0.013597 0.011409
v 0.054127 -0.021000 0.027579
v 0.060000 -0.021000 0.009503
v 0.035572 -0.015000 -0.031000
v 0.035572 -0.015000 -0.031000
v 0.030000 -0.006071 -0.016680
v -0.015000 -0.015000 0.055000
v -0.015000 -0.015000 0.055000
v -0.015000 -0.015000 0.044545
v -0.015000 -0.015000 0.044545
v 0.060000 0.014992 -0.009503
v 0.060000 0.015372 -0.008875
v -0.027579 -0.015000 0.054127
v -0.021603 0.015000 0.042399
v -0.033648 0.015000 0.033648
v 0.060000 -0.014992 -0.009503
v 0.059382 -0.013592 -0.011405
v 0.058106 -0.008850 0.015333
v 0.058513 -0.010810 0.014078
v 0.015000 -0.015000 0.044545
v 0.015000 -0.015000 0.044545
v 0.021604 -0.015000 0.042399
v 0.059391 -0.013556 0.011378
v 0.059190 -0.013084 0.011995
v -0.021603 0.015000 -0.042399
v -0.007444 0.015000 -0.047000
v 0.042955 0.015000 -0.042955
v 0.030000 0.008875 0.015372
v 0.030000 0.011409 0.013597
v 0.059382 0.013592 0.011405
v 0.030000 0.006071 -0.016680
v 0.030000 0.003082 -0.017480
v 0.042955 -0.021000 -0.042955
v 0.009503 0.021000 -0.060000
v -0.009503 0.021000 -0.060000
v 0.030000 -0.013597 -0.011409
v -0.042955 0.015000 0.042955
v -0.054127 0.015000 0.027579
v -0.060000 -0.015000 0.009503
v 0.044443 0.013500 0.024000
v 0.044443 0.013500 0.024000
v 0.045887 0.011000 0.024000
v 0.045887 0.011000 0.024000
v 0.041557 0.008500 0.024000
v 0.041557 0.008500 0.024000
v 0.040113 0.011000 0.024000
v 0.040113 0.011000 0.024000
v 0.030000 -0.016680 -0.006071
v 0.030000 -0.015372 -0.008875
v 0.042955 -0.015000 -0.042955
v 0.057418 -0.003251 -0.017450
v 0.057412 -0.003081 -0.017467
v 0.042955 0.017000 0.042955
v 0.037000 0.017000 0.047282
v 0.037000 0.017000 0.047282
v 0.015000 -0.015000 0.055000
v 0.015000 -0.015000 0.055000
v 0.021604 0.015000 0.042399
v 0.033648 0.015000 0.033648
v -0.009503 -0.015000 0.060000
v 0.060000 0.017480 0.003082
v 0.060000 0.016680 0.006071
v 0.040113 0.011000 0.029000
v 0.040113 0.011000 0.029000
v 0.030000 0.016680 0.006071
v -0.047000 -0.015000 0.007444
v 0.030000 0.006071 0.016680
v 0.027579 0.021000 -0.054127
v 0.007444 0.015000 -0.047000
v 0.021604 0.015000 -0.042399
v 0.044443 -0.013500 0.024000
v 0.044443 -0.013500 0.024000
v 0.045887 -0.011000 0.024000
v 0.045887 -0.011000 0.024000
v 0.033648 -0.015000 -0.033648
v 0.021604 -0.015000 -0.042399
v 0.041557 0.013500 0.024000
v 0.041557 0.013500 0.024000
v 0.057673 -0.006111 -0.016665
v -0.009503 -0.021000 -0.060000
v -0.033648 0.015000 -0.033648
v 0.030000 -0.017750 0.000000
v 0.030000 -0.017480 -0.003082
v 0.057680 0.006055 -0.016642
v 0.045887 -0.011000 0.029000
v 0.045887 -0.011000 0.029000
v 0.037000 -0.017000 0.029000
v 0.037000 -0.017000 0.029000
v 0.037000 0.015000 0.047282
v 0.037000 0.015000 0.047282
v 0.037000 0.015000 0.029035
v 0.037000 0.015000 0.029035
v 0.057328 0.000002 0.017726
v 0.057321 0.000319 0.017747
v 0.044443 -0.013500 0.029000
v 0.044443 -0.013500 0.029000
v 0.057384 -0.002619 0.017556
v 0.057418 -0.003075 0.017448
v -0.060000 -0.015000 -0.009503
v 0.027579 0.015000 -0.054127
v 0.027579 -0.015000 0.054127
v 0.009503 -0.015000 0.060000
v -0.033648 -0.015000 -0.033648
v -0.042399 -0.015000 -0.021604
v 0.051641 -0.015000 -0.031000
v 0.051641 -0.015000 -0.031000
v -0.042955 0.015000 -0.042955
v -0.027579 0.015000 -0.054127
v 0.060000 -0.014992 0.009503
v -0.054127 0.021000 -0.027579
v -0.042955 0.021000 -0.042955
v 0.060000 0.016680 -0.006071
v 0.060000 0.017480 -0.003082
v 0.044443 -0.008500 0.029000
v 0.044443 -0.008500 0.029000
v 0.033648 -0.015000 0.033648
v 0.037000 -0.015000 0.029035
v 0.037000 -0.015000 0.029035
v 0.027579 0.021000 0.054127
v 0.037000 -0.015000 0.047282
v 0.037000 -0.015000 0.047282
v 0.037000 -0.017000 0.047282
v 0.037000 -0.017000 0.047282
v -0.042399 0.015000 0.021603
v 0.033648 0.015000 -0.033648
v 0.060000 -0.016680 -0.006071
v 0.060000 -0.015372 -0.008875
v 0.044443 0.008500 0.024000
v 0.044443 0.008500 0.024000
v 0.058513 0.010810 -0.014079
v 0.058682 -0.011376 0.013560
v -0.027579 -0.021000 -0.054127
v -0.042955 -0.021000 -0.042955
v 0.015000 0.015000 0.055000
v 0.015000 0.015000 0.055000
v 0.041557 -0.013500 0.029000
v 0.041557 -0.013500 0.029000
v 0.030000 -0.008875 0.015372
v 0.030000 -0.006071 0.016680
v 0.041557 0.013500 0.029000
v 0.041557 0.013500 0.029000
v -0.060000 0.015000 0.009503
v -0.060000 0.015000 -0.009503
v -0.009503 -0.015000 -0.060000
v 0.030000 0.017750 0.000000
v 0.030000 0.017480 0.003082
v -0.027579 0.021000 -0.054127
v 0.037000 0.017000 0.029000
v 0.037000 0.017000 0.029000
v 0.057328 -0.000002 -0.017726
v 0.057384 0.002619 -0.017556
v 0.057669 -0.006070 -0.016676
v 0.057412 0.003081 0.017467
v 0.060000 -0.015372 0.008875
v 0.060000 -0.016680 0.006071
v 0.041557 -0.013500 0.024000
v 0.041557 -0.013500 0.024000
v 0.009503 0.015000 0.060000
v 0.027579 0.015000 0.054127
v 0.060000 -0.017750 0.000000
v 0.060000 -0.017480 -0.003082
v 0.060000 0.017750 0.000000
v 0.059391 0.013556 -0.011378
v -0.047000 -0.015000 -0.007444
v 0.057604 -0.005500 0.016876
v 0.057418 0.003251 0.017450
v 0.057418 0.003075 -0.017448
v 0.042955 0.021000 -0.042955
v -0.047000 0.015000 -0.007444
v -0.042399 0.015000 -0.021604
v 0.030000 -0.016680 0.006071
v 0.030000 -0.017480 0.003082
v 0.015000 0.015000 0.044545
v 0.015000 0.015000 0.044545
v 0.030000 0.013597 -0.011409
v -0.060000 0.021000 -0.009503
v 0.027579 -0.021000 0.054127
v 0.009503 -0.021000 0.060000
v 0.030000 -0.003082 0.017480
v -0.042955 -0.015000 -0.042955
v -0.054127 -0.015000 -0.027579
v 0.041557 -0.008500 0.029000
v 0.041557 -0.008500 0.029000
v -0.054127 -0.021000 0.027579
v -0.042955 -0.021000 0.042955
v 0.030000 0.017480 -0.003082
v -0.054127 0.015000 -0.027579
v 0.040113 -0.011000 0.029000
v 0.040113 -0.011000 0.029000
v 0.040113 -0.011000 0.024000
v 0.040113 -0.011000 0.024000
v 0.058094 0.008872 0.015368
v 0.058648 0.011330 0.013664
v 0.030000 0.015372 -0.008875
v -0.060000 0.021000 0.009503
v 0.060000 -0.017480 0.003082
v -0.027579 0.015000 0.054127
v -0.047000 0.015000 0.007444
v -0.060000 -0.021000 0.009503
v -0.027579 -0.015000 -0.054127
v 0.030000 0.016680 -0.006071
v 0.054127 0.021000 -0.027579
v 0.044443 -0.008500 0.024000
v 0.044443 -0.008500 0.024000
v 0.059355 -0.013532 -0.011487
v 0.030000 -0.011409 0.013597
v 0.057321 -0.000319 -0.017747
v 0.030000 -0.013597 0.011409
v 0.030000 -0.015372 0.008875
v -0.009503 0.015000 0.060000
v 0.042955 -0.017000 0.042955
v 0.057604 0.005500 -0.016876
v 0.041557 -0.008500 0.024000
v 0.041557 -0.008500 0.024000
v -0.027579 -0.021000 0.054127
v 0.058672 0.011403 0.013591
v 0.060000 0.021000 -0.009503
v 0.060000 0.021000 0.009503
v -0.027579 0.021000 0.054127
v -0.009503 0.021000 0.060000
v 0.042955 -0.021000 0.042955
v 0.058084 0.008829 0.015399
v -0.042955 0.021000 0.042955
v -0.054127 0.021000 0.027579
v 0.059355 0.013532 0.011487
v 0.009503 0.021000 0.060000
v -0.009503 -0.021000 0.060000
v 0.030000 0.003082 0.017480
vn -0.0000 1.0000 -0.0000
vn -0.0000 -1.0000 -0.0000
vn 0.5878 -0.0000 0.8090
vn 0.4540 -0.0000 0.8910
vn 0.7071 -0.0000 0.7071
vn 0.8090 -0.0000 0.5878
vn 0.8910 -0.0000 0.4540
vn -0.0000 -0.0000 1.0000
vn -0.0000 -0.0000 -1.0000
vn -0.0018 -0.7937 0.6083
vn -0.0007 -0.8289 0.5594
vn -0.0000 -0.7654 0.6436
vn 0.0008 -0.8663 0.4996
vn -0.0016 -0.6428 0.7660
vn 0.0007 -0.6769 0.7361
vn 0.0003 -0.7453 0.6667
vn -0.0015 -0.5001 0.8660
vn -0.0012 -0.3421 0.9397
vn 0.0006 -0.3901 0.9208
vn 0.0003 -0.4715 0.8819
vn 0.0007 -0.5404 0.8414
vn 0.0003 -0.6168 0.7871
vn -0.0010 -0.1737 0.9848
vn -0.0006 -0.0001 1.0000
vn 0.0003 -0.0659 0.9978
vn 0.0002 -0.1494 0.9888
vn 0.0005 -0.2306 0.9730
vn 0.0003 -0.3141 0.9494
vn 0.0003 0.3421 0.9397
vn -0.0003 0.1866 0.9824
vn -0.0000 0.1733 0.9849
vn 0.0002 0.1005 0.9949
vn 0.0001 0.0189 0.9998
vn -0.0002 0.5700 0.8216
vn -0.0000 0.5054 0.8629
vn -0.0001 0.5001 0.8660
vn -0.0000 0.3504 0.9366
vn -0.0001 0.2648 0.9643
vn -0.0003 0.6428 0.7661
vn 0.0070 0.7001 0.7140
vn 0.0109 0.6537 0.7567
vn -0.0018 0.7937 -0.6083
vn -0.0007 0.8289 -0.5595
vn -0.0000 0.7654 -0.6436
vn 0.0008 0.8663 -0.4996
vn -0.0016 0.6428 -0.7660
vn 0.0007 0.6769 -0.7361
vn 0.0003 0.7454 -0.6667
vn -0.0015 0.5001 -0.8660
vn -0.0012 0.3421 -0.9397
vn 0.0006 0.3901 -0.9208
vn 0.0003 0.4715 -0.8819
vn 0.0007 0.5404 -0.8414
vn 0.0003 0.6168 -0.7871
vn -0.0010 0.1737 -0.9848
vn -0.0006 0.0001 -1.0000
vn 0.0003 0.0657 -0.9978
vn 0.0002 0.1493 -0.9888
vn 0.0005 0.2305 -0.9731
vn 0.0003 0.3141 -0.9494
vn 0.0003 -0.3421 -0.9397
vn -0.0003 -0.1866 -0.9824
vn -0.0000 -0.1733 -0.9849
vn 0.0002 -0.1005 -0.9949
vn 0.0001 -0.0191 -0.9998
vn -0.0002 -0.5700 -0.8216
vn -0.0000 -0.5054 -0.8629
vn -0.0001 -0.5001 -0.8660
vn -0.0000 -0.3504 -0.9366
vn -0.0001 -0.2647 -0.9643
vn -0.0002 -0.6428 -0.7661
vn 0.0070 -0.6999 -0.7142
vn 0.0108 -0.6533 -0.7570
vn -0.0000 -0.8822 0.4709
vn -0.0000 -0.9397 0.3420
vn -0.0000 -0.9848 0.1736
vn -0.0000 -0.9848 -0.1736
vn -0.0000 -0.9397 -0.3420
vn -0.0000 -0.8822 -0.4709
vn 0.0008 -0.8663 -0.4996
vn -0.0000 -0.8335 -0.5525
vn 0.0007 -0.7657 -0.6432
vn 0.0060 -0.8033 -0.5956
vn 0.0096 -0.7689 -0.6393
vn -0.0000 0.8822 -0.4709
vn -0.0000 0.9397 -0.3420
vn -0.0000 0.9848 -0.1736
vn -0.0000 0.9848 0.1736
vn -0.0000 0.9397 0.3420
vn -0.0000 0.8822 0.4709
vn 0.0008 0.8663 0.4996
vn -0.0000 0.8336 0.5524
vn 0.0007 0.7657 0.6432
vn 0.0061 0.8034 0.5954
vn 0.0097 0.7692 0.6390
vn 1.0000 -0.0000 -0.0000
vn -1.0000 -0.0000 -0.0000
vn 0.9511 -0.0000 -0.3090
vn 0.8910 -0.0000 -0.4540
vn 0.9510 -0.0000 -0.3091
vn 0.9511 -0.0001 -0.3089
vn 0.9511 -0.0001 -0.3090
vn 0.9877 -0.0000 -0.1564
vn 0.9771 -0.0000 -0.2130
vn 0.9511 -0.0000 -0.3089
vn 0.9512 0.0001 -0.3086
vn 0.9772 -0.0000 -0.2124
vn 0.9877 -0.0000 0.1564
vn 0.9771 -0.0000 0.2130
vn 0.9772 -0.0000 0.2124
vn 0.9511 -0.0000 0.3090
vn 0.9510 -0.0000 0.3090
vn 0.9511 0.0001 0.3089
vn 0.9511 -0.0000 0.3089
vn 0.9510 -0.0000 0.3091
vn 0.9510 -0.0001 0.3091
vn 0.7071 -0.0000 -0.7071
vn 0.4540 -0.0000 -0.8910
vn 0.1564 -0.0000 -0.9877
vn -0.1564 -0.0000 -0.9877
vn -0.4540 -0.0000 -0.8910
vn -0.7071 -0.0000 -0.7071
vn -0.8910 -0.0000 -0.4540
vn -0.9877 -0.0000 -0.1564
vn -0.9877 -0.0000 0.1564
vn -0.8910 -0.0000 0.4540
vn -0.7071 -0.0000 0.7071
vn -0.4540 -0.0000 0.8910
vn -0.1564 -0.0000 0.9877
vn 0.1564 -0.0000 0.9877
vn 0.8090 -0.0000 -0.5878
vn -0.3090 -0.0000 0.9511
vn 0.3090 -0.0000 0.9511
vn 0.8660 0.5000 -0.0000
vn 0.8660 -0.5000 -0.0000
vn -0.8660 -0.5000 -0.0000
vn -0.8660 0.5000 -0.0000
s 0
usemtl colour_abb_orange.002
f 313//1 319//1 3//1
f 327//1 362//1 328//1
f 328//1 362//1 7//1
f 328//1 7//1 8//1
f 8//1 7//1 427//1
f 8//1 427//1 424//1
f 313//1 3//1 362//1
f 362//1 3//1 408//1
f 362//1 408//1 7//1
f 311//1 411//1 381//1
f 381//1 411//1 356//1
f 381//1 356//1 382//1
f 382//1 356//1 280//1
f 382//1 280//1 250//1
f 250//1 280//1 281//1
f 250//1 281//1 251//1
f 251//1 281//1 450//1
f 251//1 450//1 301//1
f 301//1 450//1 23//1
f 301//1 23//1 24//1
f 24//1 23//1 25//1
f 24//1 25//1 410//1
f 410//1 25//1 487//1
f 410//1 487//1 28//1
f 28//1 487//1 29//1
f 28//1 29//1 372//1
f 372//1 29//1 345//1
f 372//1 345//1 262//1
f 262//1 345//1 256//1
f 262//1 256//1 263//1
f 263//1 256//1 257//1
f 263//1 257//1 282//1
f 282//1 257//1 319//1
f 282//1 319//1 315//1
f 315//1 319//1 313//1
f 38//2 503//2 246//2
f 38//2 246//2 41//2
f 41//2 246//2 441//2
f 41//2 441//2 43//2
f 441//2 480//2 43//2
f 43//2 480//2 364//2
f 43//2 364//2 395//2
f 395//2 364//2 47//2
f 395//2 47//2 398//2
f 248//2 246//2 320//2
f 320//2 246//2 503//2
f 320//2 503//2 51//2
f 51//2 503//2 343//2
f 51//2 343//2 430//2
f 430//2 343//2 344//2
f 430//2 344//2 504//2
f 504//2 344//2 56//2
f 504//2 56//2 57//2
f 57//2 56//2 449//2
f 57//2 449//2 476//2
f 476//2 449//2 493//2
f 476//2 493//2 387//2
f 387//2 493//2 62//2
f 387//2 62//2 63//2
f 63//2 62//2 414//2
f 63//2 414//2 332//2
f 332//2 414//2 291//2
f 332//2 291//2 375//2
f 375//2 291//2 292//2
f 375//2 292//2 69//2
f 69//2 292//2 406//2
f 69//2 406//2 431//2
f 431//2 406//2 72//2
f 431//2 72//2 283//2
f 283//2 72//2 285//2
s 1
f 426//3 407//4 429//3
f 429//3 407//4 483//4
f 429//3 483//4 77//5
f 77//5 483//4 78//5
f 77//5 78//5 258//6
f 258//6 78//5 308//7
f 258//6 308//7 260//6
f 260//6 308//7 268//7
f 260//6 268//7 359//5
f 359//5 268//7 269//5
f 359//5 269//5 360//3
f 360//3 269//5 425//4
f 360//3 425//4 46//3
f 46//3 425//4 465//4
f 365//5 422//5 397//6
f 397//6 422//5 10//6
s 0
f 287//8 259//8 302//8
f 302//8 259//8 261//8
f 302//8 261//8 304//8
f 393//8 259//8 401//8
f 304//8 261//8 446//8
f 446//8 261//8 455//8
f 446//8 455//8 369//8
f 369//8 455//8 393//8
f 369//8 393//8 289//8
f 401//8 442//8 393//8
f 393//8 442//8 494//8
f 393//8 494//8 289//8
f 289//8 494//8 488//8
f 289//8 488//8 287//8
f 287//8 488//8 420//8
f 287//8 420//8 259//8
f 259//8 420//8 392//8
f 259//8 392//8 401//8
f 74//9 13//9 284//9
f 284//9 13//9 310//9
s 1
f 101//10 102//11 103//12
f 103//12 102//11 104//13
f 297//14 276//15 103//12
f 103//12 276//15 277//16
f 103//12 277//16 101//10
f 298//17 337//18 110//19
f 110//19 299//20 298//17
f 298//17 299//20 300//21
f 298//17 300//21 297//14
f 297//14 300//21 436//22
f 297//14 436//22 276//15
f 338//23 254//24 116//25
f 116//25 117//26 338//23
f 338//23 117//26 118//27
f 338//23 118//27 337//18
f 337//18 118//27 518//28
f 337//18 518//28 110//19
f 312//29 121//30 255//31
f 255//31 121//30 358//32
f 255//31 358//32 254//24
f 254//24 358//32 124//33
f 254//24 124//33 116//25
f 270//34 271//35 274//36
f 274//36 271//35 385//37
f 274//36 385//37 312//29
f 312//29 385//37 458//38
f 312//29 458//38 121//30
f 275//39 264//40 274//36
f 274//36 264//40 265//41
f 274//36 265//41 270//34
f 329//42 134//43 135//44
f 135//44 134//43 136//45
f 512//46 138//47 135//44
f 135//44 138//47 330//48
f 135//44 330//48 329//42
f 140//49 445//50 278//51
f 278//51 279//52 140//49
f 140//49 279//52 324//53
f 140//49 324//53 512//46
f 512//46 324//53 325//54
f 512//46 325//54 138//47
f 485//55 147//56 399//57
f 399//57 403//58 485//55
f 485//55 403//58 404//59
f 485//55 404//59 445//50
f 445//50 404//59 151//60
f 445//50 151//60 278//51
f 373//61 153//62 534//63
f 534//63 153//62 155//64
f 534//63 155//64 147//56
f 147//56 155//64 156//65
f 147//56 156//65 399//57
f 157//66 528//67 334//68
f 334//68 528//67 295//69
f 334//68 295//69 373//61
f 373//61 295//69 296//70
f 373//61 296//70 153//62
f 335//71 522//72 334//68
f 334//68 522//72 499//73
f 334//68 499//73 157//66
f 102//11 318//74 104//13
f 104//13 318//74 418//75
f 104//13 418//75 167//75
f 167//75 418//75 419//76
f 167//75 419//76 169//76
f 169//76 419//76 468//2
f 169//76 468//2 451//2
f 451//2 468//2 367//77
f 451//2 367//77 452//77
f 452//77 367//77 368//78
f 452//77 368//78 175//78
f 175//78 368//78 252//79
f 175//78 252//79 306//80
f 306//80 252//79 253//81
f 306//80 253//81 179//82
f 179//82 253//81 336//83
f 179//82 336//83 335//71
f 335//71 336//83 531//84
f 335//71 531//84 522//72
f 134//43 182//85 136//45
f 136//45 182//85 461//86
f 136//45 461//86 184//86
f 184//86 461//86 502//87
f 184//86 502//87 186//87
f 186//87 502//87 187//1
f 186//87 187//1 388//1
f 388//1 187//1 467//88
f 388//1 467//88 389//88
f 389//88 467//88 432//89
f 389//88 432//89 192//89
f 192//89 432//89 433//90
f 192//89 433//90 194//91
f 194//91 433//90 322//92
f 194//91 322//92 342//93
f 342//93 322//92 323//94
f 342//93 323//94 275//39
f 275//39 323//94 511//95
f 275//39 511//95 264//40
s 0
f 44//96 440//96 326//96
f 326//96 440//96 363//96
f 37//97 314//97 249//97
f 249//97 314//97 247//97
s 1
f 112//98 111//98 508//99
f 473//98 457//98 508//99
f 508//99 457//98 456//98
f 508//99 456//98 266//99
f 266//99 456//98 513//100
f 266//99 513//100 123//98
f 123//98 357//101 266//99
f 266//99 357//101 129//98
f 266//99 129//98 128//101
f 111//98 390//100 508//99
f 508//99 390//100 119//98
f 508//99 119//98 473//98
f 128//101 126//98 266//99
f 266//99 126//98 125//98
f 266//99 125//98 132//102
f 107//98 106//98 508//99
f 508//99 106//98 113//98
f 508//99 113//98 112//98
f 523//103 317//104 508//99
f 508//99 317//104 469//98
f 508//99 469//98 107//98
f 132//102 131//98 266//99
f 266//99 131//98 198//105
f 266//99 198//105 267//103
f 267//103 198//105 197//106
f 267//103 197//106 195//107
f 191//96 267//103 193//96
f 193//96 267//103 195//107
f 185//96 309//108 466//96
f 466//96 309//108 267//103
f 466//96 267//103 189//96
f 189//96 267//103 191//96
f 185//96 183//96 309//108
f 309//108 183//96 460//96
f 309//108 460//96 415//109
f 168//96 523//103 170//96
f 170//96 523//103 524//108
f 170//96 524//108 172//96
f 178//110 176//96 524//108
f 524//108 176//96 174//96
f 524//108 174//96 172//96
f 168//96 166//96 523//103
f 523//103 166//96 165//96
f 523//103 165//96 317//104
f 144//111 143//111 308//7
f 150//112 149//111 308//7
f 308//7 149//111 148//111
f 308//7 148//111 268//7
f 268//7 148//111 400//113
f 268//7 400//113 459//111
f 459//111 472//113 268//7
f 268//7 472//113 161//111
f 268//7 161//111 160//114
f 143//111 142//115 308//7
f 308//7 142//115 471//111
f 308//7 471//111 150//112
f 160//114 158//111 268//7
f 268//7 158//111 498//111
f 268//7 498//111 164//116
f 139//111 437//111 308//7
f 308//7 437//111 145//111
f 308//7 145//111 144//111
f 309//108 415//109 308//7
f 308//7 415//109 133//111
f 308//7 133//111 139//111
f 164//116 163//116 268//7
f 268//7 163//116 181//111
f 268//7 181//111 524//108
f 524//108 181//111 180//111
f 524//108 180//111 178//110
f 15//117 339//117 17//118
f 17//118 339//117 293//118
f 17//118 293//118 19//119
f 19//119 293//118 294//119
f 19//119 294//119 21//120
f 21//120 294//119 386//120
f 21//120 386//120 506//121
f 506//121 386//120 438//121
f 506//121 438//121 486//122
f 486//122 438//121 210//122
f 486//122 210//122 27//123
f 27//123 210//122 272//123
f 27//123 272//123 405//124
f 405//124 272//123 273//124
f 405//124 273//124 31//125
f 31//125 273//124 213//125
f 31//125 213//125 33//126
f 33//126 213//125 214//126
f 33//126 214//126 35//127
f 35//127 214//126 215//127
f 35//127 215//127 2//128
f 2//128 215//127 521//128
f 2//128 521//128 366//129
f 366//129 521//128 533//129
f 366//129 533//129 11//130
f 11//130 533//129 484//130
f 11//130 484//130 407//4
f 407//4 484//130 483//4
s 0
f 212//2 200//2 505//2
f 505//2 200//2 490//2
f 212//2 211//2 200//2
f 200//2 211//2 439//2
f 200//2 439//2 205//2
f 205//2 439//2 206//2
f 209//2 208//2 439//2
f 439//2 208//2 207//2
f 439//2 207//2 206//2
f 490//2 200//2 491//2
f 491//2 200//2 202//2
f 491//2 202//2 203//2
f 203//2 80//2 491//2
f 491//2 80//2 527//2
f 491//2 527//2 76//2
f 76//2 218//2 491//2
f 491//2 218//2 217//2
f 491//2 217//2 216//2
f 219//1 220//1 529//1
f 529//1 220//1 340//1
f 529//1 340//1 223//1
f 416//1 482//1 529//1
f 529//1 482//1 501//1
f 529//1 501//1 227//1
f 228//1 229//1 529//1
f 529//1 229//1 230//1
f 529//1 230//1 86//1
f 86//1 84//1 529//1
f 529//1 84//1 82//1
f 529//1 82//1 204//1
f 223//1 453//1 529//1
f 529//1 453//1 232//1
f 529//1 232//1 416//1
f 204//1 201//1 529//1
f 529//1 201//1 199//1
f 529//1 199//1 219//1
s 1
f 333//117 474//117 286//131
f 286//131 474//117 508//99
f 286//131 508//99 412//131
f 412//131 508//99 266//99
f 412//131 266//99 15//117
f 15//117 266//99 339//117
f 465//4 425//4 464//130
f 464//130 425//4 532//130
f 464//130 532//130 516//129
f 516//129 532//130 526//129
f 516//129 526//129 39//128
f 39//128 526//129 525//128
f 39//128 525//128 52//127
f 52//127 525//128 221//127
f 52//127 221//127 54//126
f 54//126 221//127 530//126
f 54//126 530//126 448//125
f 448//125 530//126 226//125
f 448//125 226//125 58//124
f 58//124 226//125 225//124
f 58//124 225//124 60//123
f 60//123 225//124 224//123
f 60//123 224//123 413//122
f 413//122 224//123 417//122
f 413//122 417//122 64//121
f 64//121 417//122 231//121
f 64//121 231//121 66//120
f 66//120 231//121 341//120
f 66//120 341//120 68//119
f 68//119 341//120 222//119
f 68//119 222//119 70//118
f 70//118 222//119 374//118
f 70//118 374//118 333//117
f 333//117 374//118 474//117
s 0
f 5//8 42//8 1//8
f 1//8 42//8 40//8
s 1
f 71//117 73//131 14//117
f 14//117 73//131 12//131
f 475//124 59//123 470//124
f 470//124 59//123 26//123
f 59//123 61//122 26//123
f 26//123 61//122 409//122
f 61//122 331//121 409//122
f 409//122 331//121 22//121
f 331//121 65//120 22//121
f 22//121 65//120 20//120
f 65//120 67//119 20//120
f 20//120 67//119 18//119
f 67//119 376//118 18//119
f 18//119 376//118 16//118
f 376//118 71//117 16//118
f 16//118 71//117 14//117
f 49//132 50//128 316//132
f 316//132 50//128 36//128
f 50//128 321//127 36//128
f 36//128 321//127 34//127
f 321//127 53//126 34//127
f 34//127 53//126 32//126
f 53//126 55//125 32//126
f 32//126 55//125 30//125
f 55//125 475//124 30//125
f 30//125 475//124 470//124
f 45//4 479//133 6//4
f 6//4 479//133 4//133
f 365//5 45//4 422//5
f 422//5 45//4 6//4
s 0
f 114//96 233//96 115//96
f 115//96 233//96 146//96
f 444//96 127//96 120//96
f 152//96 108//96 159//96
f 159//96 108//96 105//96
f 159//96 105//96 481//96
f 114//96 109//96 233//96
f 233//96 109//96 108//96
f 233//96 108//96 154//96
f 154//96 108//96 152//96
f 355//96 196//96 514//96
f 146//96 141//96 115//96
f 115//96 141//96 444//96
f 115//96 444//96 122//96
f 122//96 444//96 120//96
f 444//96 137//96 127//96
f 127//96 137//96 514//96
f 127//96 514//96 130//96
f 130//96 514//96 196//96
f 188//96 190//96 354//96
f 514//96 515//96 355//96
f 355//96 515//96 477//96
f 355//96 477//96 354//96
f 354//96 477//96 478//96
f 354//96 478//96 188//96
f 171//96 173//96 492//96
f 492//96 173//96 371//96
f 492//96 371//96 507//96
f 507//96 371//96 177//96
f 507//96 177//96 500//96
f 500//96 177//96 307//96
f 500//96 307//96 481//96
f 481//96 307//96 162//96
f 481//96 162//96 159//96
f 435//1 351//1 288//1
f 288//1 351//1 290//1
f 350//134 352//134 95//134
f 95//134 352//134 94//134
f 353//135 384//135 370//135
f 370//135 384//135 447//135
f 237//2 347//2 92//2
f 92//2 347//2 89//2
f 346//136 348//136 305//136
f 305//136 348//136 303//136
f 239//137 234//137 88//137
f 88//137 234//137 87//137
f 238//8 383//8 349//8
f 349//8 383//8 236//8
f 349//8 236//8 434//8
f 434//8 236//8 235//8
f 240//1 462//1 402//1
f 402//1 462//1 443//1
f 463//134 497//134 96//134
f 96//134 497//134 97//134
f 242//135 520//135 495//135
f 495//135 520//135 98//135
f 243//2 509//2 489//2
f 489//2 509//2 99//2
f 510//136 245//136 421//136
f 421//136 245//136 391//136
f 380//137 377//137 100//137
f 100//137 377//137 91//137
f 244//8 519//8 379//8
f 379//8 519//8 496//8
f 379//8 496//8 378//8
f 378//8 496//8 241//8
f 9//96 428//96 423//96
f 423//96 428//96 394//96
f 423//96 394//96 48//96
f 48//96 394//96 454//96
f 48//96 454//96 396//96
f 396//96 454//96 361//96
f 79//1 90//1 517//1
f 517//1 90//1 75//1
f 85//2 93//2 83//2
f 83//2 93//2 81//2
