mtllib material.mtl
usemtl Material-Plastic.010
v 0.37019900 -0.01702400 0.05301400
v 0.36371200 0.01852700 0.05298900
v 0.36368900 -0.01785100 0.05299600
v 0.37019800 0.01815500 0.05297200
v 0.35677200 0.02049200 0.03921900
v 0.35670000 0.02150000 0.02450000
v 0.35670000 0.01350000 0.02450000
v 0.35681100 0.01335400 0.03415800
v 0.35674000 -0.02148800 0.02449400
v 0.35667900 -0.01349600 0.03383800
v 0.35677100 -0.01348200 0.02450300
v 0.35681900 -0.02046400 0.03952700
v 0.35678800 -0.00599800 0.03654100
v 0.35660600 0.00493200 0.03685000
v 0.37010300 0.01349800 0.02451800
v 0.37017800 0.02150900 0.02451500
v 0.36382800 0.01342300 0.04299900
v 0.36384200 0.02148900 0.04897600
v 0.36386400 0.00608700 0.04731300
v 0.36374800 0.00280500 0.04447200
v 0.36383200 -0.00574800 0.04608500
v 0.37019900 0.02152100 0.04896500
v 0.37017600 -0.00547900 0.04550400
v 0.37021400 0.00603600 0.04587800
v 0.37020300 0.01348700 0.04380200
v 0.37019900 -0.02149400 0.04992800
v 0.37020000 -0.02150000 0.02450000
v 0.37017700 -0.01348300 0.02452700
v 0.37019500 -0.01337700 0.04292500
v 0.36369200 -0.01343700 0.04383600
v 0.36369400 -0.02145800 0.04963400
vn 0.65810000 -0.20700000 0.72390000
vn -0.44510000 0.38000000 0.81080000
vn -0.45730000 -0.29970000 0.83730000
vn 0.63290000 0.31770000 0.70610000
vn -0.80110000 0.56320000 0.20280000
vn -0.58200000 0.57880000 -0.57130000
vn -0.58150000 -0.57190000 -0.57870000
vn -0.74980000 -0.63470000 -0.18670000
vn -0.57900000 -0.57970000 -0.57340000
vn -0.76390000 0.62750000 -0.15070000
vn -0.57270000 0.57970000 -0.57960000
vn -0.80170000 -0.56020000 0.20860000
vn -0.32660000 0.10690000 -0.93910000
vn -0.40350000 -0.06980000 -0.91230000
vn 0.57450000 -0.57770000 -0.57990000
vn 0.57890000 0.57570000 -0.57750000
vn 0.31210000 -0.77500000 -0.54960000
vn -0.29000000 0.88970000 0.35260000
vn 0.29180000 0.07410000 -0.95360000
vn 0.48480000 0.23360000 -0.84290000
vn 0.37980000 0.04520000 -0.92400000
vn 0.64100000 0.72490000 0.25240000
vn 0.72740000 0.06590000 -0.68300000
vn 0.75290000 -0.05200000 -0.65600000
vn 0.88770000 -0.35580000 -0.29210000
vn 0.61880000 -0.70250000 0.35140000
vn 0.57780000 -0.57670000 -0.57760000
vn 0.57650000 0.57840000 -0.57720000
vn 0.84660000 0.44360000 -0.29430000
vn 0.30960000 0.70490000 -0.63820000
vn -0.34650000 -0.83500000 0.42750000
vt 0.00000000 0.00000000
vt 0.00000000 0.00000000
vt 0.00000000 0.00000000
vt 0.00000000 0.00000000
vt 0.00000000 0.00000000
vt 0.00000000 0.00000000
vt 0.00000000 0.00000000
vt 0.00000000 0.00000000
vt 0.00000000 0.00000000
vt 0.00000000 0.00000000
vt 0.00000000 0.00000000
vt 0.00000000 0.00000000
vt 0.00000000 0.00000000
vt 0.00000000 0.00000000
vt 0.00000000 0.00000000
vt 0.00000000 0.00000000
vt 0.00000000 0.00000000
vt 0.00000000 0.00000000
vt 0.00000000 0.00000000
vt 0.00000000 0.00000000
vt 0.00000000 0.00000000
vt 0.00000000 0.00000000
vt 0.00000000 0.00000000
vt 0.00000000 0.00000000
vt 0.00000000 0.00000000
vt 0.00000000 0.00000000
vt 0.00000000 0.00000000
vt 0.00000000 0.00000000
vt 0.00000000 0.00000000
vt 0.00000000 0.00000000
vt 0.00000000 0.00000000
f 1/1/1 2/2/2 3/3/3
f 1/1/1 4/4/4 2/2/2
f 7/7/7 8/8/8 6/6/6
f 9/9/9 10/10/10 11/11/11
f 12/12/12 10/10/10 9/9/9
f 12/12/12 13/13/13 10/10/10
f 14/14/14 5/5/5 8/8/8
f 13/13/13 12/12/12 14/14/14
f 12/12/12 5/5/5 14/14/14
f 6/6/6 16/16/16 15/15/15
f 15/15/15 8/8/8 7/7/7
f 15/15/15 25/25/25 8/8/8
f 18/18/18 16/16/16 6/6/6
f 5/5/5 18/18/18 6/6/6
f 2/2/2 18/18/18 5/5/5
f 12/12/12 3/3/3 5/5/5
f 19/19/19 14/14/14 8/8/8
f 17/17/17 19/19/19 8/8/8
f 19/19/19 20/20/20 14/14/14
f 20/20/20 13/13/13 14/14/14
f 20/20/20 21/21/21 13/13/13
f 18/18/18 22/22/22 16/16/16
f 2/2/2 4/4/4 22/22/22
f 20/20/20 23/23/23 21/21/21
f 24/24/24 23/23/23 20/20/20
f 19/19/19 24/24/24 20/20/20
f 24/24/24 19/19/19 17/17/17
f 25/25/25 24/24/24 17/17/17
f 16/16/16 25/25/25 15/15/15
f 22/22/22 25/25/25 16/16/16
f 28/28/28 29/29/29 27/27/27
f 22/22/22 4/4/4 25/25/25
f 1/1/1 26/26/26 29/29/29
f 4/4/4 24/24/24 25/25/25
f 23/23/23 1/1/1 29/29/29
f 4/4/4 23/23/23 24/24/24
f 4/4/4 1/1/1 23/23/23
f 11/11/11 28/28/28 27/27/27
f 10/10/10 28/28/28 11/11/11
f 30/30/30 29/29/29 10/10/10
f 13/13/13 21/21/21 30/30/30
f 9/9/9 31/31/31 12/12/12
f 31/31/31 3/3/3 12/12/12
f 9/9/9 27/27/27 31/31/31
f 27/27/27 26/26/26 31/31/31
f 26/26/26 3/3/3 31/31/31
f 26/26/26 1/1/1 3/3/3
f 29/29/29 30/30/30 23/23/23
f 8/8/8 5/5/5 6/6/6
f 6/6/6 15/15/15 7/7/7
f 25/25/25 17/17/17 8/8/8
f 3/3/3 2/2/2 5/5/5
f 2/2/2 22/22/22 18/18/18
f 29/29/29 26/26/26 27/27/27
f 11/11/11 27/27/27 9/9/9
f 29/29/29 28/28/28 10/10/10
f 13/13/13 30/30/30 10/10/10
f 30/30/30 21/21/21 23/23/23

