mtllib material.mtl
usemtl Material-Metal.024
v 0.39132600 0.00362200 0.03000800
v 0.42487000 -0.01678900 0.03000300
v 0.40188100 0.01878500 0.03000500
v 0.41675500 0.02184700 0.03000500
v 0.42366900 0.01953300 0.03001100
v 0.39312100 -0.00910000 0.02999100
v 0.42948600 -0.01542200 0.02999600
v 0.43485800 -0.00553200 0.03000500
v 0.43469100 0.00686600 0.02994100
v 0.42915900 0.01544600 0.02987500
v 0.40107400 -0.01829400 0.03001800
v 0.42079100 -0.02122900 0.02989300
v 0.41717300 0.01230100 0.01304900
v 0.42565500 0.00250700 0.01300300
v 0.40521700 0.00971100 0.01301100
v 0.40088200 0.00244500 0.01299700
v 0.42370200 0.00753400 0.01312100
v 0.40624200 -0.01041600 0.01300600
v 0.41467500 -0.01289800 0.01305200
v 0.42223900 -0.00899000 0.01304400
v 0.42562800 -0.00371300 0.01315300
v 0.40235800 0.00697100 0.01992200
v 0.40744600 0.01220500 0.02214200
v 0.41065500 0.01229600 0.01320800
v 0.41661300 0.01317000 0.02192600
v 0.40056800 0.00052100 0.01985500
v 0.40201800 -0.00581600 0.01314900
v 0.40242300 -0.00650800 0.01995700
v 0.42350300 0.00833400 0.02001600
v 0.40742800 -0.01108000 0.02000100
v 0.42650300 -0.00003700 0.01993800
v 0.41579600 -0.01262100 0.02000300
v 0.42221300 -0.00898700 0.01999000
v 0.40066200 -0.00999300 0.02261900
v 0.40994600 -0.01464600 0.02126800
v 0.42035600 -0.01306800 0.02146900
v 0.42566700 -0.00689900 0.02013100
v 0.39862400 0.00362600 0.02248000
v 0.42069900 0.01410800 0.02267800
v 0.42905200 -0.00039600 0.02271100
v 0.40973700 0.01588700 0.02252600
v 0.40165100 0.01101700 0.02256600
v 0.42704400 0.00874400 0.02261000
v 0.42628600 -0.01016000 0.02261400
v 0.40602200 0.01434300 0.02500200
v 0.39886200 0.00751900 0.02500000
v 0.41492600 0.01624300 0.02500900
v 0.39728200 -0.00225900 0.02255200
v 0.39778100 -0.00539500 0.02497700
v 0.42557700 0.01104900 0.02500600
v 0.40630900 -0.01457500 0.02499800
v 0.42961400 0.00086900 0.02499800
v 0.41749700 -0.01592400 0.02502200
v 0.42701300 -0.00937800 0.02497700
v 0.40951500 0.02175500 0.02500300
v 0.39657700 0.01431100 0.02501200
v 0.39173500 0.00477200 0.02501000
v 0.42125800 0.02084900 0.02501600
v 0.39206500 -0.00552900 0.02498900
v 0.43147900 0.01288200 0.02500300
v 0.39674700 -0.01485700 0.02503400
v 0.43532000 0.00227400 0.02500400
v 0.40747000 -0.02140300 0.02501900
v 0.42018200 -0.02139900 0.02500500
v 0.42514300 -0.01626100 0.02498000
v 0.43433100 -0.00727400 0.02507100
v 0.40239300 0.01916100 0.02552200
v 0.39556500 0.01329800 0.02934900
v 0.40880200 0.02163100 0.02945600
v 0.40840300 -0.02164700 0.02944400
v 0.42917400 -0.01555500 0.02550200
vn -0.75660000 0.10980000 0.64460000
vn 0.35540000 -0.55270000 0.75380000
vn -0.39060000 0.62170000 0.67890000
vn 0.08870000 0.75170000 0.65350000
vn 0.37810000 0.64170000 0.66730000
vn -0.69610000 -0.30980000 0.64760000
vn 0.47620000 -0.62380000 0.61980000
vn 0.73020000 -0.17490000 0.66040000
vn 0.74720000 0.23640000 0.62110000
vn 0.54390000 0.56120000 0.62390000
vn -0.42170000 -0.62850000 0.65350000
vn 0.34040000 -0.71280000 0.61330000
vn 0.23500000 0.70350000 -0.67080000
vn 0.71060000 0.15640000 -0.68600000
vn -0.48530000 0.53970000 -0.68790000
vn -0.73270000 0.13600000 -0.66680000
vn 0.61270000 0.45690000 -0.64490000
vn -0.40510000 -0.63600000 -0.65680000
vn 0.07020000 -0.77290000 -0.63060000
vn 0.51490000 -0.55360000 -0.65450000
vn 0.74470000 -0.25460000 -0.61690000
vn -0.80150000 0.58050000 -0.14330000
vn -0.30370000 0.60080000 -0.73940000
vn -0.15450000 0.74600000 -0.64780000
vn 0.14730000 0.73350000 -0.66350000
vn -0.94510000 -0.02660000 -0.32560000
vn -0.70160000 -0.33830000 -0.62720000
vn -0.78130000 -0.44440000 -0.43830000
vn 0.78890000 0.58240000 -0.19590000
vn -0.48400000 -0.78100000 -0.39470000
vn 0.90590000 0.04400000 -0.42130000
vn 0.16730000 -0.88500000 -0.43440000
vn 0.54630000 -0.62480000 -0.55790000
vn -0.72240000 -0.61710000 -0.31200000
vn -0.16280000 -0.78640000 -0.59590000
vn 0.35340000 -0.69090000 -0.63070000
vn 0.70940000 -0.48040000 -0.51570000
vn -0.82350000 0.21450000 -0.52520000
vn 0.38100000 0.81670000 -0.43340000
vn 0.89480000 -0.03900000 -0.44480000
vn -0.18300000 0.81930000 -0.54340000
vn -0.59190000 0.56200000 -0.57770000
vn 0.68780000 0.35330000 -0.63410000
vn 0.64740000 -0.51430000 -0.56250000
vn -0.29940000 0.53100000 -0.79270000
vn -0.46560000 0.20850000 -0.86010000
vn 0.07560000 0.51370000 -0.85470000
vn -0.81050000 -0.01650000 -0.58540000
vn -0.53060000 -0.19640000 -0.82460000
vn 0.39560000 0.39620000 -0.82860000
vn -0.22150000 -0.46520000 -0.85700000
vn 0.54360000 0.03430000 -0.83860000
vn 0.09590000 -0.43960000 -0.89310000
vn 0.50150000 -0.29140000 -0.81460000
vn -0.11530000 0.73070000 -0.67290000
vn -0.55940000 0.47940000 -0.67620000
vn -0.72220000 0.17150000 -0.67010000
vn 0.27270000 0.70440000 -0.65530000
vn -0.73500000 -0.16460000 -0.65780000
vn 0.61070000 0.44600000 -0.65430000
vn -0.57970000 -0.52630000 -0.62210000
vn 0.75040000 0.05800000 -0.65850000
vn -0.19660000 -0.72270000 -0.66260000
vn 0.28700000 -0.71480000 -0.63770000
vn 0.30560000 -0.52320000 -0.79550000
vn 0.70910000 -0.26430000 -0.65370000
vn -0.42670000 0.74200000 -0.51710000
vn -0.69720000 0.49340000 0.52000000
vn -0.17840000 0.83580000 0.51930000
vn -0.14240000 -0.81280000 0.56480000
vn 0.47060000 -0.69480000 -0.54390000
vt 0.00000000 0.00000000
vt 0.00000000 0.00000000
vt 0.00000000 0.00000000
vt 0.00000000 0.00000000
vt 0.00000000 0.00000000
vt 0.00000000 0.00000000
vt 0.00000000 0.00000000
vt 0.00000000 0.00000000
vt 0.00000000 0.00000000
vt 0.00000000 0.00000000
vt 0.00000000 0.00000000
vt 0.00000000 0.00000000
vt 0.00000000 0.00000000
vt 0.00000000 0.00000000
vt 0.00000000 0.00000000
vt 0.00000000 0.00000000
vt 0.00000000 0.00000000
vt 0.00000000 0.00000000
vt 0.00000000 0.00000000
vt 0.00000000 0.00000000
vt 0.00000000 0.00000000
vt 0.00000000 0.00000000
vt 0.00000000 0.00000000
vt 0.00000000 0.00000000
vt 0.00000000 0.00000000
vt 0.00000000 0.00000000
vt 0.00000000 0.00000000
vt 0.00000000 0.00000000
vt 0.00000000 0.00000000
vt 0.00000000 0.00000000
vt 0.00000000 0.00000000
vt 0.00000000 0.00000000
vt 0.00000000 0.00000000
vt 0.00000000 0.00000000
vt 0.00000000 0.00000000
vt 0.00000000 0.00000000
vt 0.00000000 0.00000000
vt 0.00000000 0.00000000
vt 0.00000000 0.00000000
vt 0.00000000 0.00000000
vt 0.00000000 0.00000000
vt 0.00000000 0.00000000
vt 0.00000000 0.00000000
vt 0.00000000 0.00000000
vt 0.00000000 0.00000000
vt 0.00000000 0.00000000
vt 0.00000000 0.00000000
vt 0.00000000 0.00000000
vt 0.00000000 0.00000000
vt 0.00000000 0.00000000
vt 0.00000000 0.00000000
vt 0.00000000 0.00000000
vt 0.00000000 0.00000000
vt 0.00000000 0.00000000
vt 0.00000000 0.00000000
vt 0.00000000 0.00000000
vt 0.00000000 0.00000000
vt 0.00000000 0.00000000
vt 0.00000000 0.00000000
vt 0.00000000 0.00000000
vt 0.00000000 0.00000000
vt 0.00000000 0.00000000
vt 0.00000000 0.00000000
vt 0.00000000 0.00000000
vt 0.00000000 0.00000000
vt 0.00000000 0.00000000
vt 0.00000000 0.00000000
vt 0.00000000 0.00000000
vt 0.00000000 0.00000000
vt 0.00000000 0.00000000
vt 0.00000000 0.00000000
f 2/2/2 4/4/4 1/1/1
f 2/2/2 5/5/5 4/4/4
f 6/6/6 2/2/2 1/1/1
f 2/2/2 7/7/7 5/5/5
f 8/8/8 9/9/9 5/5/5
f 9/9/9 10/10/10 5/5/5
f 7/7/7 8/8/8 5/5/5
f 11/11/11 2/2/2 6/6/6
f 12/12/12 2/2/2 11/11/11
f 13/13/13 14/14/14 15/15/15
f 14/14/14 18/18/18 15/15/15
f 17/17/17 14/14/14 13/13/13
f 19/19/19 18/18/18 14/14/14
f 20/20/20 19/19/19 14/14/14
f 21/21/21 20/20/20 14/14/14
f 15/15/15 22/22/22 23/23/23
f 23/23/23 24/24/24 15/15/15
f 15/15/15 16/16/16 22/22/22
f 25/25/25 24/24/24 23/23/23
f 25/25/25 13/13/13 24/24/24
f 16/16/16 26/26/26 22/22/22
f 16/16/16 27/27/27 26/26/26
f 27/27/27 28/28/28 26/26/26
f 29/29/29 17/17/17 13/13/13
f 27/27/27 18/18/18 28/28/28
f 18/18/18 30/30/30 28/28/28
f 31/31/31 14/14/14 29/29/29
f 31/31/31 21/21/21 14/14/14
f 18/18/18 19/19/19 30/30/30
f 19/19/19 32/32/32 30/30/30
f 33/33/33 21/21/21 31/31/31
f 33/33/33 20/20/20 21/21/21
f 20/20/20 33/33/33 32/32/32
f 28/28/28 34/34/34 26/26/26
f 30/30/30 35/35/35 28/28/28
f 35/35/35 34/34/34 28/28/28
f 32/32/32 35/35/35 30/30/30
f 36/36/36 35/35/35 32/32/32
f 37/37/37 33/33/33 31/31/31
f 33/33/33 36/36/36 32/32/32
f 37/37/37 36/36/36 33/33/33
f 22/22/22 38/38/38 23/23/23
f 22/22/22 26/26/26 38/38/38
f 39/39/39 29/29/29 25/25/25
f 26/26/26 34/34/34 38/38/38
f 40/40/40 29/29/29 39/39/39
f 40/40/40 31/31/31 29/29/29
f 40/40/40 37/37/37 31/31/31
f 36/36/36 37/37/37 40/40/40
f 41/41/41 23/23/23 42/42/42
f 23/23/23 38/38/38 42/42/42
f 25/25/25 23/23/23 41/41/41
f 39/39/39 25/25/25 41/41/41
f 43/43/43 40/40/40 39/39/39
f 44/44/44 36/36/36 40/40/40
f 41/41/41 42/42/42 45/45/45
f 42/42/42 46/46/46 45/45/45
f 47/47/47 41/41/41 45/45/45
f 42/42/42 38/38/38 46/46/46
f 47/47/47 39/39/39 41/41/41
f 38/38/38 48/48/48 46/46/46
f 48/48/48 49/49/49 46/46/46
f 50/50/50 39/39/39 47/47/47
f 50/50/50 43/43/43 39/39/39
f 48/48/48 34/34/34 49/49/49
f 34/34/34 51/51/51 49/49/49
f 52/52/52 43/43/43 50/50/50
f 52/52/52 40/40/40 43/43/43
f 34/34/34 35/35/35 51/51/51
f 35/35/35 53/53/53 51/51/51
f 54/54/54 40/40/40 52/52/52
f 54/54/54 44/44/44 40/40/40
f 35/35/35 36/36/36 53/53/53
f 36/36/36 44/44/44 53/53/53
f 44/44/44 54/54/54 53/53/53
f 55/55/55 45/45/45 56/56/56
f 45/45/45 46/46/46 56/56/56
f 46/46/46 57/57/57 56/56/56
f 47/47/47 45/45/45 55/55/55
f 58/58/58 47/47/47 55/55/55
f 46/46/46 49/49/49 57/57/57
f 49/49/49 59/59/59 57/57/57
f 50/50/50 47/47/47 58/58/58
f 60/60/60 50/50/50 58/58/58
f 49/49/49 61/61/61 59/59/59
f 51/51/51 61/61/61 49/49/49
f 60/60/60 62/62/62 52/52/52
f 63/63/63 61/61/61 51/51/51
f 53/53/53 63/63/63 51/51/51
f 62/62/62 66/66/66 52/52/52
f 64/64/64 63/63/63 53/53/53
f 65/65/65 64/64/64 53/53/53
f 66/66/66 65/65/65 54/54/54
f 54/54/54 65/65/65 53/53/53
f 56/56/56 68/68/68 3/3/3
f 69/69/69 55/55/55 67/67/67
f 56/56/56 57/57/57 68/68/68
f 57/57/57 1/1/1 68/68/68
f 4/4/4 55/55/55 69/69/69
f 4/4/4 58/58/58 55/55/55
f 5/5/5 58/58/58 4/4/4
f 57/57/57 59/59/59 1/1/1
f 59/59/59 6/6/6 1/1/1
f 10/10/10 58/58/58 5/5/5
f 10/10/10 60/60/60 58/58/58
f 59/59/59 61/61/61 6/6/6
f 9/9/9 60/60/60 10/10/10
f 61/61/61 11/11/11 6/6/6
f 9/9/9 62/62/62 60/60/60
f 61/61/61 63/63/63 11/11/11
f 63/63/63 70/70/70 11/11/11
f 8/8/8 62/62/62 9/9/9
f 8/8/8 66/66/66 62/62/62
f 63/63/63 64/64/64 70/70/70
f 64/64/64 12/12/12 70/70/70
f 7/7/7 66/66/66 8/8/8
f 7/7/7 71/71/71 66/66/66
f 12/12/12 64/64/64 65/65/65
f 65/65/65 7/7/7 2/2/2
f 71/71/71 7/7/7 65/65/65
f 68/68/68 1/1/1 3/3/3
f 3/3/3 4/4/4 69/69/69
f 70/70/70 12/12/12 11/11/11
f 55/55/55 56/56/56 67/67/67
f 71/71/71 65/65/65 66/66/66
f 38/38/38 34/34/34 48/48/48
f 24/24/24 13/13/13 15/15/15
f 16/16/16 18/18/18 27/27/27
f 4/4/4 3/3/3 1/1/1
f 18/18/18 16/16/16 15/15/15
f 29/29/29 13/13/13 25/25/25
f 14/14/14 17/17/17 29/29/29
f 20/20/20 32/32/32 19/19/19
f 60/60/60 52/52/52 50/50/50
f 66/66/66 54/54/54 52/52/52
f 56/56/56 3/3/3 67/67/67
f 69/69/69 67/67/67 3/3/3
f 12/12/12 65/65/65 2/2/2

