mtllib material.mtl
usemtl Material-Metal.019
v 0.07999400 -0.00948500 0.01549300
v 0.07998400 -0.02600900 0.02183400
v 0.07999900 -0.03032100 0.01492300
v 0.08004100 -0.01249800 0.02783000
v 0.08002100 -0.01665000 0.02987600
v 0.08000000 0.03041900 0.01501400
v 0.08000400 0.02186400 0.02638900
v 0.08003600 0.00943100 0.01594800
v 0.07994500 0.01366400 0.02942300
v 0.05350000 -0.03500000 -0.01500000
v 0.04400100 -0.03486200 -0.01492100
v 0.04400000 -0.03494600 -0.01948400
v 0.05297400 -0.03491100 -0.01997800
v 0.05298900 -0.03495900 0.02002600
v 0.04446700 -0.03482800 0.02000300
v 0.04400800 -0.03493600 0.01494300
v 0.05350000 -0.03500000 0.01500000
v 0.05339300 -0.03480300 -0.02440700
v 0.05619300 -0.03509700 -0.02364300
v 0.05599900 -0.03500100 0.02414500
v 0.05304100 -0.03498500 0.02384800
v 0.05599800 0.03500500 -0.02413100
v 0.05383300 0.03398000 -0.02451800
v 0.05350900 0.03468000 -0.02408800
v 0.05702700 0.03513400 -0.02450600
v 0.05752800 -0.03436900 -0.02448000
v 0.04400600 0.03495000 -0.01497300
v 0.05303800 0.03500000 -0.01950000
v 0.04400100 0.03487900 -0.01953500
v 0.05350000 0.03500000 -0.01500000
v 0.04400000 0.03494600 0.01948400
v 0.05318100 0.03491900 0.01456400
v 0.04400100 0.03486500 0.01492400
v 0.05299100 0.03492100 0.01996400
v 0.05339400 0.03479400 0.02442100
v 0.05621600 0.03509800 0.02376800
v 0.07095600 0.01798600 -0.03202300
v 0.08013600 0.01009000 -0.02670700
v 0.06793300 0.02441600 -0.02612300
v 0.07981300 0.00598900 -0.03353500
v 0.07218600 0.01138700 -0.03501400
v 0.08049000 -0.00098800 -0.03509800
v 0.07204200 -0.01085100 -0.03503700
v 0.07997600 -0.01015700 -0.02563900
v 0.07091500 -0.01928800 -0.03037700
v 0.06765900 -0.02451600 -0.02619200
v 0.08003900 -0.00851900 -0.03060000
v 0.07109000 -0.01601300 -0.03344000
v 0.08000000 -0.00539100 -0.03348100
v 0.05686400 -0.03652000 0.02230100
v 0.05702100 -0.03961000 -0.02391600
v 0.05707300 -0.03962200 0.02383300
v 0.05701600 -0.03512500 0.02450700
v 0.08001500 0.00824600 -0.01913700
v 0.07999000 -0.00406000 -0.01569700
v 0.07998800 -0.00830400 -0.01922700
v 0.07998800 0.00256000 -0.01495700
v 0.08640600 0.01022200 -0.02486900
v 0.07878900 0.00967200 -0.02262100
v 0.08695300 0.00817300 -0.01865400
v 0.08650000 -0.00950500 -0.02173700
v 0.07867000 -0.00940100 -0.02244800
v 0.08648100 -0.01000000 -0.02678200
v 0.08691600 -0.00635600 -0.03329600
v 0.08657000 -0.00676900 -0.01747400
v 0.08673800 -0.00196100 -0.01509000
v 0.08693100 -0.00020200 -0.03563700
v 0.08666900 0.00282800 -0.01523500
v 0.08699100 0.00521900 -0.03393000
v 0.08650000 0.00883900 -0.02978300
v 0.08680900 -0.00031300 -0.01386800
v 0.08093100 0.00300100 -0.01449000
v 0.08084200 -0.00323000 -0.01442700
v 0.08695700 -0.01112900 -0.02758400
v 0.08698500 -0.01012300 -0.02014100
v 0.08134100 -0.01044300 -0.02094800
v 0.08173500 -0.00740800 -0.01681200
v 0.08694500 -0.00623100 -0.01582400
v 0.08680400 0.00578100 -0.01542700
v 0.08131400 0.00725800 -0.01658700
v 0.08687600 0.01034000 -0.02066400
v 0.08150400 0.01058100 -0.02144000
v 0.08705100 0.01118200 -0.02807600
v 0.08257100 0.01112600 -0.02740800
v 0.05442600 -0.02314300 -0.02000000
v 0.04450000 -0.03450000 -0.02000000
v 0.04450000 0.03450000 -0.02000000
v 0.05562400 0.00229800 -0.02000200
v 0.05338700 0.03423600 -0.01999700
v 0.05300000 -0.03450000 -0.01450000
v 0.05309800 -0.03048400 -0.01408000
v 0.04450000 -0.03450000 -0.01450000
v 0.05350000 -0.02800000 -0.01450000
v 0.04450000 0.03450000 -0.01450000
v 0.05291000 0.02888900 -0.01450000
v 0.05300000 0.03450000 -0.01450000
v 0.07950000 -0.02800000 -0.01450000
v 0.07950400 -0.00759800 -0.01450000
v 0.07954300 0.00680300 -0.01450100
v 0.07948800 0.02926000 -0.01445100
v 0.05327700 0.03298900 -0.01056500
v 0.05320600 0.03298400 0.01055700
v 0.05309200 0.03045800 0.01409000
v 0.05328500 -0.03299600 -0.01052700
v 0.05300000 -0.03450000 0.01450000
v 0.05319600 -0.03297200 0.01059200
v 0.05290700 -0.02890000 0.01450000
v 0.05462600 -0.02316100 -0.02450000
v 0.06241100 -0.01032100 -0.02450500
v 0.05579700 -0.00253400 -0.02449900
v 0.06256000 0.01041600 -0.02450400
v 0.06445400 -0.03827800 -0.02484900
v 0.06263400 0.02887600 -0.02451600
v 0.06446200 0.03885200 -0.02485800
v 0.05704700 0.03967300 -0.02399200
v 0.07784100 -0.01050800 -0.02448800
v 0.07834200 0.01048700 -0.02449600
v 0.05350000 0.03153600 -0.01303600
v 0.07961800 0.03142500 -0.01320100
v 0.07971900 0.03299200 -0.01048300
v 0.07962200 0.03297900 0.01049000
v 0.08002200 -0.03299500 -0.01078300
v 0.07956600 -0.03114600 -0.01357300
v 0.08008300 -0.03300700 0.01085600
v 0.06704400 -0.03868200 -0.01870200
v 0.06688600 -0.04000400 0.00035000
v 0.06381500 -0.03988500 -0.02351600
v 0.07184900 -0.03984300 -0.00366700
v 0.06597400 0.04002000 -0.00748900
v 0.06722900 0.03760800 -0.02233700
v 0.06385100 0.03990600 -0.02280900
v 0.06856700 -0.03400900 -0.02729500
v 0.07193100 0.03957800 -0.00612800
v 0.06788900 0.03476600 -0.02717900
v 0.07201500 -0.03651200 -0.01693400
v 0.07199000 0.03590700 -0.01791700
v 0.07198200 0.02961400 -0.02720000
v 0.07059900 0.02761600 -0.03127800
v 0.07198200 -0.02842000 -0.02838000
v 0.07049400 -0.02760000 -0.03090200
v 0.07200900 0.01961800 -0.03498500
v 0.07114100 0.01603600 -0.03712600
v 0.07201200 -0.01659000 -0.03678200
v 0.07108900 -0.01378500 -0.03810700
v 0.07182400 0.00255200 -0.04083000
v 0.05686900 0.03652800 -0.02228600
v 0.05699900 0.03977700 0.02269000
v 0.05702900 0.03723100 0.02452500
v 0.05721600 -0.03998600 0.02201200
v 0.05721400 -0.03996700 -0.02308500
v 0.06489400 -0.03989800 0.01234200
v 0.06375400 -0.03994400 0.02261900
v 0.05721900 0.03997700 0.02310500
v 0.05721900 0.03998800 -0.02216500
v 0.06373300 0.03991700 0.02349000
v 0.07200900 -0.03792500 -0.00011100
v 0.07175900 -0.03919500 0.00752200
v 0.07202200 -0.03733000 -0.00669900
v 0.07201300 -0.03736400 0.00649300
v 0.07203800 -0.03563000 -0.01298300
v 0.07203500 -0.03569900 0.01280600
v 0.07199300 -0.03590900 0.01793400
v 0.07205900 -0.03279900 -0.01903100
v 0.07204600 -0.03290000 0.01885800
v 0.07200900 -0.02898600 -0.02445900
v 0.07197000 -0.02958300 0.02716500
v 0.07202700 -0.02688200 0.02699100
v 0.07201900 -0.02430600 -0.02910900
v 0.07203700 -0.01892700 -0.03286000
v 0.07204900 -0.01774700 0.03609500
v 0.07205500 -0.01900400 0.03281400
v 0.07205700 -0.01283500 -0.03568600
v 0.07203400 -0.01298400 0.03563000
v 0.07202700 -0.00640800 -0.03738300
v 0.07205000 -0.00664800 0.03733600
v 0.07200500 -0.00247000 0.04016000
v 0.07202900 0.00010600 -0.03792600
v 0.07201800 -0.00008600 0.03792600
v 0.07201800 0.01199700 0.03851200
v 0.07204800 0.00642300 0.03737900
v 0.07202800 0.00662200 -0.03734100
v 0.07208100 0.01558900 -0.03472100
v 0.07209700 0.01658300 0.03425000
v 0.07196100 0.02744800 0.02971500
v 0.07203000 0.02449200 -0.02895400
v 0.07203800 0.02435000 0.02907100
v 0.07202800 0.02911600 -0.02430200
v 0.07202300 0.02898300 0.02446100
v 0.07209800 0.03450100 -0.01610700
v 0.07206200 0.03275000 0.01912800
v 0.07189700 0.03618100 0.01730700
v 0.07205500 0.03680900 0.00978500
v 0.07201500 0.03736800 -0.00647300
v 0.07190200 0.03955600 0.00609400
v 0.07201000 0.03792600 0.00010700
v 0.07999700 -0.01225500 -0.02105100
v 0.08002400 -0.00776400 -0.01530900
v 0.08000000 -0.03040300 -0.01501500
v 0.07998600 -0.01806800 -0.02972300
v 0.08001200 -0.01265000 -0.02774300
v 0.08147800 -0.01199500 -0.02948800
v 0.08707400 -0.01402900 -0.03146600
v 0.08697500 0.01405000 -0.03137200
v 0.08003600 0.01232600 -0.02747200
v 0.07999900 0.02701200 -0.02145600
v 0.07998800 0.00958800 -0.01554800
v 0.07999900 0.03032200 -0.01492200
v 0.08005700 0.01721600 -0.03000900
v 0.09700000 -0.03508800 0.00968400
v 0.08204400 -0.03506200 0.00640700
v 0.08142100 -0.03125000 0.01755200
v 0.09700000 -0.03508800 -0.00968400
v 0.08191100 -0.03211500 -0.01543100
v 0.08189600 -0.03460200 -0.00857700
v 0.09714300 0.03316500 -0.01527500
v 0.08197800 0.03508800 -0.00632700
v 0.08078600 0.03359000 -0.01180000
v 0.09691100 0.03640800 0.00315300
v 0.09700000 0.03407900 0.01279000
v 0.08089500 0.03396400 0.01067900
v 0.09699200 -0.03130800 0.01875900
v 0.09700000 0.03581500 -0.00649900
v 0.09701400 -0.03659000 -0.00026300
v 0.08118800 -0.03556700 -0.00098400
v 0.09700000 -0.03279500 -0.01579300
v 0.08133700 -0.02722300 -0.02322100
v 0.09699100 -0.02711900 -0.02452100
v 0.09700000 -0.02515500 0.02631000
v 0.08115000 -0.02479200 0.02555800
v 0.08165300 -0.01792700 -0.03097900
v 0.08163000 -0.01792500 0.03086200
v 0.09700000 -0.02005300 0.03037800
v 0.09700000 -0.02005300 -0.03037800
v 0.08842100 -0.01764400 -0.03141100
v 0.08756300 -0.01635400 0.03171400
v 0.08175700 0.01748600 -0.03098200
v 0.09700600 0.02013900 -0.03048500
v 0.08177600 0.02440200 -0.02599800
v 0.09700000 0.02269500 0.02845900
v 0.08795200 0.01695300 0.03170600
v 0.08169200 0.02256000 0.02757000
v 0.08139200 0.01719800 0.03098400
v 0.09706100 0.02940200 0.02169600
v 0.08117300 0.02951900 0.02008000
v 0.09700000 0.02741200 -0.02394900
v 0.08167400 0.03029900 -0.01873300
v 0.08121200 0.03560200 0.00119100
v 0.08851200 0.01761100 -0.03138500
v 0.08882700 0.00791700 0.03538900
v 0.09700000 -0.00163300 0.03636300
v 0.08701400 -0.00084900 0.03560500
v 0.09700000 -0.00163300 -0.03636300
v 0.08861400 0.00846800 -0.03513200
v 0.09702500 0.00804800 0.03563000
v 0.08865300 -0.00791900 -0.03514600
v 0.09691200 0.00856300 -0.03554400
v 0.09702000 -0.01122000 -0.03473500
v 0.08872400 -0.00993400 0.03469200
v 0.09697600 -0.01113400 0.03486200
v 0.09700000 0.01724900 0.03205400
v 0.09699700 -0.03607100 -0.00983200
v 0.09664700 -0.03743400 0.00575800
v 0.09650000 -0.03559700 0.01274000
v 0.09665100 -0.02934000 -0.02398700
v 0.09669800 -0.03254400 0.01941700
v 0.09649500 -0.02421600 -0.02905200
v 0.09666100 -0.01993800 0.03221100
v 0.09663600 -0.01839200 -0.03310500
v 0.09649200 -0.01232400 0.03581500
v 0.09665400 -0.00625300 -0.03725000
v 0.09660100 0.00035600 0.03782000
v 0.09672400 0.00139600 -0.03784900
v 0.09658000 0.01209900 0.03590100
v 0.09667200 0.01848100 -0.03308400
v 0.09651100 0.01922500 0.03259800
v 0.09662600 0.02476500 0.02863800
v 0.09650100 0.02434100 -0.02895200
v 0.09665900 0.02968600 -0.02352600
v 0.09693100 0.03320500 0.01819000
v 0.09664400 0.03708200 -0.00768900
v 0.09665700 0.03786400 0.00127800
v 0.09625000 -0.03790000 0.00000000
v 0.09625000 -0.03732400 -0.00658100
v 0.09625000 -0.03561400 -0.01296300
v 0.09625000 -0.03282200 -0.01895000
v 0.09614300 -0.02750500 0.02622000
v 0.09625000 -0.01296300 -0.03561400
v 0.09625000 -0.00658100 0.03732400
v 0.09625000 0.00658100 0.03732400
v 0.09622600 0.00993200 -0.03658900
v 0.09625000 0.02903300 0.02436200
v 0.09612700 0.03479600 -0.01530300
v 0.09610300 0.03644400 0.01075900
v 0.06515200 -0.00854600 -0.02152900
v 0.07897300 -0.00608300 -0.02003600
v 0.06506400 -0.00625700 -0.02003000
v 0.07897400 0.00608200 -0.02001500
v 0.06500100 0.00666700 -0.02009700
v 0.06467100 0.00929100 -0.02255000
v 0.07997900 0.00823000 0.01942900
v 0.07997600 -0.00851600 0.01935100
v 0.08000800 -0.00283500 0.01492900
v 0.08002100 0.00527600 0.01622200
v 0.08683900 0.01020800 0.02457600
v 0.07993500 0.01017600 0.02571900
v 0.07861400 0.00955700 0.02261500
v 0.08695400 -0.00995400 0.02293500
v 0.07991500 -0.01017900 0.02587700
v 0.08669100 0.00881600 0.02004100
v 0.08001500 -0.00852600 0.03058400
v 0.08671000 -0.00922400 0.02932400
v 0.08687300 -0.00788700 0.01873800
v 0.08691500 -0.00545400 0.03381400
v 0.07993700 -0.00436800 0.03416000
v 0.08691300 -0.00409400 0.01570800
v 0.08004200 0.00029200 0.03506700
v 0.08662800 0.00074000 0.01493100
v 0.07998800 0.00500400 0.03396700
v 0.08703200 0.00506600 0.03416600
v 0.08679000 0.00551300 0.01633300
v 0.08000300 0.00881800 0.03004100
v 0.08691000 0.00879400 0.02988000
v 0.08679200 0.00027000 0.01385100
v 0.08090000 -0.00302300 0.01449600
v 0.08081700 0.00313800 0.01441100
v 0.08116600 -0.01060200 0.02133000
v 0.08695300 -0.01145400 0.02891500
v 0.08260100 -0.01112600 0.02743500
v 0.08679600 -0.01021100 0.02046400
v 0.08130500 -0.00725200 0.01656000
v 0.08676100 -0.00599800 0.01555300
v 0.08686200 0.00678600 0.01604500
v 0.08149000 0.00931600 0.01856200
v 0.08679200 0.01032400 0.02100900
v 0.08180400 0.01127500 0.02719900
v 0.08688300 0.01117300 0.02750300
v 0.05442600 -0.02314300 0.02000000
v 0.05562600 -0.00222900 0.02000200
v 0.04450000 0.03450000 0.02000000
v 0.05442600 0.02314300 0.02000000
v 0.04400000 -0.03450000 0.01950000
v 0.04450000 -0.03450000 0.01450000
v 0.04450000 0.03450000 0.01450000
v 0.05350000 0.02800000 0.01450000
v 0.07954300 -0.00680300 0.01450100
v 0.07948800 -0.02926000 0.01445100
v 0.07950000 0.02800000 0.01450000
v 0.07950400 0.00759800 0.01450000
v 0.06948100 0.02160800 0.02901300
v 0.06558000 0.02689300 0.02542200
v 0.07117200 0.01587000 0.03353300
v 0.07246400 0.00961700 0.03504700
v 0.07206600 -0.01093900 0.03504700
v 0.07078000 -0.01967000 0.02999100
v 0.06769800 -0.02443300 0.02614000
v 0.07110700 -0.01636600 0.03319200
v 0.05462600 0.02316100 0.02450000
v 0.06247900 -0.01032100 0.02450500
v 0.05385700 -0.03395700 0.02452100
v 0.05579900 0.00227600 0.02450000
v 0.06246800 0.01033100 0.02450200
v 0.06439900 -0.03895800 0.02485300
v 0.06292700 -0.02884300 0.02451800
v 0.06163500 0.02953700 0.02449200
v 0.06430800 0.03846200 0.02481900
v 0.07825300 -0.01038100 0.02449800
v 0.07780000 0.01056500 0.02448100
v 0.07956500 0.03114600 0.01357300
v 0.05350000 -0.03153600 0.01303600
v 0.07961600 -0.03142600 0.01320100
v 0.06783400 -0.03771000 0.02091500
v 0.06605100 0.03953700 0.01458700
v 0.06778300 -0.03515300 0.02666900
v 0.06881000 0.03383700 0.02709700
v 0.06994700 -0.03057000 0.02936300
v 0.07090400 0.02484500 0.03284500
v 0.07103700 0.01098500 0.03891200
v 0.07097700 -0.00190900 0.03997900
v 0.07100800 -0.01421100 0.03807000
v 0.08699700 0.01314100 0.03084700
v 0.07897300 -0.00908600 0.02188400
v 0.06513200 -0.00867800 0.02175600
v 0.06500900 -0.00622400 0.02003700
v 0.07898900 -0.00571500 0.02000300
v 0.06508200 0.00627900 0.02003800
v 0.07896300 0.00604500 0.02003200
v 0.06513800 0.00855800 0.02155100
v 0.07093500 -0.02401800 0.03293500
v 0.07100800 -0.01065700 0.03614600
v 0.07103200 0.01159800 0.03579400
v 0.07099700 -0.01140400 -0.03610600
v 0.07101400 0.01227300 -0.03587400
v 0.07100200 0.00293700 -0.03995100
v 0.06448500 -0.02756800 -0.02494200
v 0.06821800 -0.03369900 -0.02754000
v 0.06879200 -0.02391500 -0.02804200
v 0.06769100 0.02580900 -0.02685500
v 0.06906900 0.03207900 0.02824700
v 0.06871300 -0.02427800 0.02765900
v 0.08164800 0.01327300 0.03037300
v 0.08173500 -0.01340100 0.03047600
v 0.08182700 0.01338400 -0.03053900
v 0.05561100 -0.00100300 -0.02431900
v 0.05442600 -0.02314300 0.02430000
v 0.05561000 0.00099300 0.02432000
v 0.07997900 0.03375800 0.00170100
v 0.07999400 -0.03371700 -0.00270900
vn 0.92490000 -0.14430000 -0.35190000
vn 0.93280000 0.28200000 -0.22420000
vn 0.88410000 0.33220000 -0.32870000
vn 0.80680000 -0.51160000 -0.29550000
vn 0.84960000 0.03700000 -0.52620000
vn 0.88740000 -0.34340000 -0.30760000
vn 0.89220000 -0.28700000 -0.34870000
vn 0.93050000 0.15660000 -0.33120000
vn 0.82630000 0.33340000 -0.45400000
vn -0.13520000 -0.98540000 0.10310000
vn -0.65820000 -0.63740000 0.40060000
vn -0.66040000 -0.65560000 -0.36600000
vn -0.34140000 -0.86440000 -0.36920000
vn -0.32270000 -0.88350000 0.33950000
vn -0.37340000 -0.63140000 0.67970000
vn -0.65250000 -0.64830000 -0.39240000
vn -0.11690000 -0.98750000 -0.10590000
vn -0.60020000 -0.52300000 -0.60530000
vn -0.45800000 -0.72150000 -0.51920000
vn -0.30310000 -0.85570000 0.41940000
vn -0.67690000 -0.60620000 0.41750000
vn -0.32000000 0.85990000 -0.39770000
vn -0.43340000 0.14760000 -0.88900000
vn -0.67940000 0.57570000 -0.45480000
vn -0.26980000 0.25550000 -0.92840000
vn -0.11710000 -0.10340000 -0.98770000
vn -0.65410000 0.64920000 0.38820000
vn -0.15990000 0.94050000 -0.29990000
vn -0.66420000 0.63900000 -0.38800000
vn -0.11560000 0.98750000 0.10750000
vn -0.66070000 0.65510000 0.36650000
vn -0.31060000 0.90630000 -0.28670000
vn -0.66160000 0.63660000 -0.39630000
vn -0.33300000 0.87150000 0.36000000
vn -0.64530000 0.49130000 0.58500000
vn -0.60240000 0.71340000 -0.35800000
vn -0.92060000 -0.33920000 0.19350000
vn -0.37480000 -0.91710000 0.13610000
vn -0.77640000 -0.48400000 -0.40380000
vn -0.26350000 -0.49700000 0.82680000
vn -0.52370000 -0.24480000 0.81600000
vn -0.03680000 0.06850000 0.99700000
vn -0.54880000 0.20640000 0.81010000
vn -0.33050000 0.94030000 -0.08120000
vn -0.69570000 0.59550000 0.40180000
vn -0.75150000 0.61510000 -0.23840000
vn -0.38230000 0.76250000 0.52190000
vn -0.89780000 0.29640000 0.32580000
vn -0.23900000 0.47300000 0.84800000
vn -0.95950000 -0.27530000 0.05900000
vn -0.56320000 -0.56130000 -0.60640000
vn -0.60790000 -0.57520000 0.54740000
vn -0.26470000 -0.26350000 0.92760000
vn 0.48360000 -0.62650000 -0.61120000
vn 0.65800000 0.29550000 -0.69260000
vn 0.47780000 0.65070000 -0.59020000
vn 0.64140000 -0.20070000 -0.74050000
vn 0.47090000 -0.88110000 -0.04480000
vn 0.04280000 -0.87900000 -0.47490000
vn 0.88140000 -0.37950000 -0.28130000
vn 0.54260000 0.80510000 -0.23970000
vn 0.06870000 0.85670000 -0.51120000
vn 0.59310000 0.79280000 0.14040000
vn 0.55940000 0.42810000 0.70980000
vn 0.50130000 0.62160000 -0.60190000
vn 0.69900000 0.16920000 -0.69490000
vn 0.14540000 0.01560000 0.98920000
vn 0.67720000 -0.21890000 -0.70250000
vn 0.52850000 -0.37970000 0.75930000
vn 0.39670000 -0.75210000 0.52620000
vn 0.67660000 -0.01130000 0.73630000
vn 0.04770000 0.13790000 0.98930000
vn 0.06110000 -0.14560000 0.98740000
vn 0.82140000 -0.48310000 0.30330000
vn 0.75400000 -0.60490000 0.25580000
vn 0.43930000 -0.82700000 0.35090000
vn 0.30190000 -0.64540000 0.70170000
vn 0.75130000 -0.37700000 0.54160000
vn 0.65680000 0.37230000 0.65570000
vn 0.50460000 0.52480000 0.68560000
vn 0.68810000 0.67940000 0.25500000
vn 0.19310000 0.93940000 0.28340000
vn 0.83900000 0.42610000 0.33850000
vn 0.20020000 0.92410000 0.32540000
vn -0.72680000 0.05130000 -0.68490000
vn -0.31420000 -0.31570000 -0.89530000
vn -0.28250000 0.34340000 -0.89570000
vn -0.72700000 -0.02070000 -0.68640000
vn -0.77510000 -0.05040000 -0.62980000
vn -0.55650000 -0.58590000 0.58900000
vn -0.22350000 0.29820000 0.92800000
vn -0.26490000 -0.33990000 0.90240000
vn -0.01720000 0.06960000 0.99740000
vn -0.29020000 0.31160000 0.90480000
vn -0.08130000 -0.12210000 0.98920000
vn -0.57950000 0.56260000 0.58970000
vn 0.43010000 0.08560000 0.89870000
vn 0.43610000 -0.07880000 0.89640000
vn 0.30200000 0.09040000 0.94900000
vn 0.45420000 -0.19180000 0.87000000
vn -0.70880000 -0.68160000 0.18190000
vn -0.77320000 -0.60500000 -0.19020000
vn -0.22220000 -0.29080000 -0.93060000
vn -0.71500000 0.67300000 0.18930000
vn -0.57730000 -0.56770000 -0.58690000
vn -0.73000000 0.65830000 -0.18370000
vn -0.08210000 0.12400000 -0.98890000
vn -0.07970000 0.00370000 -0.99680000
vn 0.14090000 0.12400000 -0.98220000
vn -0.27210000 0.01660000 -0.96210000
vn 0.13650000 -0.11800000 -0.98360000
vn 0.03810000 -0.46640000 -0.88380000
vn -0.17650000 -0.03140000 -0.98380000
vn 0.19510000 0.63680000 -0.74590000
vn -0.58170000 0.59570000 -0.55390000
vn -0.26760000 0.66700000 -0.69530000
vn -0.40710000 -0.75850000 -0.50890000
vn 0.45250000 -0.63850000 0.62250000
vn 0.36840000 -0.68980000 0.62330000
vn 0.34620000 -0.91660000 0.20030000
vn 0.35280000 -0.89840000 -0.26150000
vn 0.28150000 0.91310000 0.29500000
vn 0.24680000 0.69670000 0.67350000
vn 0.23970000 0.92700000 -0.28840000
vn 0.46620000 -0.86370000 -0.19140000
vn 0.04330000 -0.99900000 0.00780000
vn 0.23700000 -0.87930000 -0.41310000
vn 0.66800000 -0.74320000 -0.03730000
vn 0.06890000 0.99670000 -0.04290000
vn 0.56120000 0.78790000 -0.25350000
vn 0.24640000 0.94160000 -0.22940000
vn 0.45480000 -0.62830000 -0.63120000
vn 0.70830000 0.70380000 -0.05460000
vn 0.08820000 0.50110000 -0.86090000
vn 0.84010000 -0.51170000 -0.17990000
vn 0.85890000 0.47620000 -0.18860000
vn 0.90980000 0.31330000 -0.27230000
vn -0.02050000 0.40570000 -0.91380000
vn 0.90530000 -0.29520000 -0.30550000
vn -0.10350000 -0.40230000 -0.90960000
vn 0.79120000 0.28330000 -0.54190000
vn -0.32780000 0.28550000 -0.90060000
vn 0.65940000 -0.33150000 -0.67470000
vn -0.42220000 -0.21100000 -0.88160000
vn 0.30850000 0.02290000 -0.95090000
vn -0.96120000 0.26970000 -0.05710000
vn -0.88650000 0.44980000 0.10850000
vn -0.49640000 0.28250000 0.82080000
vn -0.53930000 -0.84000000 0.05970000
vn -0.44010000 -0.88260000 -0.16550000
vn 0.13170000 -0.98930000 0.06300000
vn 0.24090000 -0.95320000 0.18280000
vn -0.46230000 0.76270000 0.45230000
vn -0.47220000 0.87860000 -0.07130000
vn 0.21730000 0.89130000 0.39790000
vn 0.68860000 -0.72510000 0.00570000
vn 0.70270000 -0.70800000 0.07020000
vn 0.69220000 -0.71000000 -0.12960000
vn 0.67980000 -0.72300000 0.12290000
vn 0.71490000 -0.65970000 -0.23160000
vn 0.70000000 -0.67660000 0.22860000
vn 0.86470000 -0.46830000 0.18170000
vn 0.71380000 -0.60290000 -0.35630000
vn 0.72100000 -0.59610000 0.35340000
vn 0.72470000 -0.52570000 -0.44540000
vn 0.91420000 -0.30210000 0.27030000
vn 0.73260000 -0.48220000 0.48040000
vn 0.72330000 -0.44350000 -0.52920000
vn 0.72190000 -0.34770000 -0.59830000
vn 0.72990000 -0.31570000 0.60630000
vn 0.72800000 -0.35060000 0.58920000
vn 0.71750000 -0.23300000 -0.65640000
vn 0.72880000 -0.23390000 0.64360000
vn 0.70280000 -0.11540000 -0.70190000
vn 0.71540000 -0.12530000 0.68740000
vn 0.59700000 -0.05720000 0.80020000
vn 0.70080000 -0.00160000 -0.71330000
vn 0.72600000 -0.00120000 0.68770000
vn 0.68130000 0.24510000 0.68980000
vn 0.71870000 0.12410000 0.68410000
vn 0.70030000 0.13150000 -0.70160000
vn 0.71500000 0.28300000 -0.63930000
vn 0.71570000 0.30500000 0.62820000
vn 0.87540000 0.32300000 0.35970000
vn 0.72440000 0.43750000 -0.53280000
vn 0.71980000 0.44270000 0.53480000
vn 0.72330000 0.53520000 -0.43630000
vn 0.71110000 0.54000000 0.45020000
vn 0.71930000 0.63080000 -0.29090000
vn 0.69380000 0.62320000 0.36090000
vn 0.83580000 0.52190000 0.17040000
vn 0.70710000 0.68270000 0.18430000
vn 0.71830000 0.68450000 -0.12410000
vn 0.69370000 0.71840000 0.05200000
vn 0.71210000 0.70200000 0.00880000
vn 0.96270000 -0.25830000 0.08100000
vn 0.82230000 -0.23520000 0.51810000
vn 0.87140000 0.35970000 0.33350000
vn 0.83400000 0.16290000 0.52730000
vn 0.87390000 -0.42390000 0.23800000
vn 0.41260000 -0.67070000 0.61640000
vn 0.56190000 -0.05960000 0.82500000
vn 0.54400000 0.06880000 0.83630000
vn 0.80730000 0.52180000 0.27570000
vn 0.84700000 -0.41100000 0.33720000
vn 0.92650000 0.14670000 0.34650000
vn 0.90690000 -0.30040000 0.29560000
vn 0.82240000 -0.11590000 0.55700000
vn 0.85010000 0.51010000 -0.13060000
vn 0.29480000 0.93900000 -0.17690000
vn 0.45410000 0.77370000 -0.44190000
vn 0.74750000 0.64190000 0.17080000
vn 0.32590000 0.84350000 0.42690000
vn 0.27380000 0.93620000 0.22040000
vn 0.97400000 -0.20430000 0.09800000
vn 0.27630000 -0.94980000 0.14700000
vn 0.41740000 -0.85160000 0.31700000
vn 0.82940000 -0.55750000 -0.03650000
vn 0.82720000 -0.51460000 -0.22580000
vn 0.36940000 -0.88790000 -0.27420000
vn 0.82580000 0.47870000 -0.29820000
vn 0.83090000 -0.54430000 0.11580000
vn 0.92380000 0.38220000 -0.02230000
vn 0.49300000 0.87000000 0.01280000
vn 0.85690000 0.46580000 0.22070000
vn 0.51700000 0.65040000 0.55650000
vn 0.85180000 0.40160000 0.33640000
vn 0.92130000 0.26870000 -0.28090000
vn 0.49650000 0.60010000 -0.62720000
vn 0.34250000 0.22630000 0.91180000
vn 0.36370000 0.29720000 -0.88290000
vn 0.82440000 0.29930000 -0.48030000
vn 0.84350000 0.28610000 0.45460000
vn 0.09830000 0.37150000 0.92320000
vn 0.19710000 0.22060000 -0.95520000
vn 0.29930000 -0.25270000 0.92010000
vn 0.85430000 -0.26560000 0.44680000
vn 0.36950000 -0.63100000 0.68210000
vn 0.83590000 -0.36050000 -0.41400000
vn 0.16540000 -0.34660000 -0.92330000
vn 0.34410000 -0.59980000 -0.72240000
vn 0.47450000 -0.19950000 -0.85740000
vn 0.85030000 -0.43870000 -0.29080000
vn 0.51100000 -0.70590000 -0.49050000
vn 0.83470000 -0.43080000 0.34320000
vn 0.34000000 -0.79480000 0.50280000
vn 0.48210000 -0.87590000 -0.02050000
vn 0.10850000 -0.38080000 0.91820000
vn 0.37940000 -0.21480000 -0.90000000
vn 0.85520000 0.00440000 -0.51830000
vn 0.13370000 0.04650000 -0.98990000
vn 0.82670000 0.01030000 0.56260000
vn 0.41620000 -0.22440000 0.88110000
vn 0.92240000 -0.16340000 -0.34990000
vn 0.42190000 0.21670000 0.88040000
vn 0.92310000 -0.07160000 0.37790000
vn 0.88270000 0.14130000 0.44820000
vn 0.39160000 0.24210000 -0.88770000
vn 0.87580000 0.17150000 -0.45120000
vn 0.85920000 -0.25230000 -0.44510000
vn 0.84850000 -0.51100000 -0.13740000
vn 0.61160000 -0.78070000 0.12840000
vn 0.57670000 -0.76710000 0.28100000
vn 0.60740000 -0.61510000 -0.50270000
vn 0.61540000 -0.67990000 0.39890000
vn 0.57480000 -0.52340000 -0.62900000
vn 0.60700000 -0.41680000 0.67660000
vn 0.60850000 -0.38950000 -0.69140000
vn 0.55550000 -0.27690000 0.78410000
vn 0.61170000 -0.12790000 -0.78070000
vn 0.61060000 0.01530000 0.79180000
vn 0.63170000 0.03390000 -0.77450000
vn 0.61140000 0.27120000 0.74340000
vn 0.61800000 0.37200000 -0.69260000
vn 0.57310000 0.41510000 0.70660000
vn 0.60160000 0.51930000 0.60690000
vn 0.57630000 0.53160000 -0.62080000
vn 0.60370000 0.62600000 -0.49370000
vn 0.66720000 0.65580000 0.35330000
vn 0.59890000 0.78600000 -0.15370000
vn 0.62690000 0.77880000 0.01920000
vn 0.53540000 -0.84440000 -0.01970000
vn 0.44060000 -0.88890000 -0.12540000
vn 0.40420000 -0.85100000 -0.33520000
vn 0.48810000 -0.76160000 -0.42620000
vn 0.50890000 -0.61810000 0.59920000
vn 0.45640000 -0.29350000 -0.84000000
vn 0.50470000 -0.14450000 0.85110000
vn 0.45040000 0.14760000 0.88050000
vn 0.52050000 0.22690000 -0.82310000
vn 0.40500000 0.70130000 0.58660000
vn 0.50780000 0.78520000 -0.35440000
vn 0.45510000 0.85770000 0.23940000
vn 0.40390000 0.53600000 -0.74130000
vn 0.42520000 0.18960000 -0.88500000
vn 0.66480000 0.22400000 -0.71270000
vn 0.43400000 -0.19340000 -0.87990000
vn 0.59610000 -0.27060000 -0.75590000
vn 0.40180000 -0.56500000 -0.72070000
vn 0.48050000 -0.64920000 0.58960000
vn 0.48120000 0.66800000 0.56760000
vn 0.63110000 0.20400000 0.74840000
vn 0.64500000 -0.37170000 0.66770000
vn 0.76920000 -0.63890000 0.00770000
vn -0.34010000 -0.93840000 0.06110000
vn 0.05000000 -0.85700000 0.51280000
vn 0.82410000 0.55870000 0.09300000
vn -0.36420000 0.92920000 0.06240000
vn 0.70030000 -0.61680000 0.35940000
vn -0.37350000 0.74830000 -0.54820000
vn 0.69240000 0.64860000 -0.31610000
vn 0.80100000 0.46340000 0.37900000
vn 0.52240000 0.41270000 -0.74610000
vn -0.16890000 0.37750000 -0.91050000
vn 0.82690000 0.26000000 0.49870000
vn -0.02240000 -0.02770000 -0.99940000
vn 0.68260000 -0.07260000 0.72710000
vn -0.20530000 -0.42630000 -0.88090000
vn 0.50260000 -0.35260000 -0.78930000
vn 0.74500000 -0.35390000 0.56550000
vn -0.40190000 -0.77200000 -0.49240000
vn 0.74780000 -0.57190000 -0.33720000
vn 0.68310000 0.03060000 -0.72970000
vn 0.04860000 -0.13840000 -0.98920000
vn 0.06220000 0.15630000 -0.98580000
vn 0.20890000 -0.93290000 -0.29330000
vn 0.82440000 -0.42430000 -0.37460000
vn 0.19030000 -0.93430000 -0.30130000
vn 0.62340000 -0.70700000 -0.33390000
vn 0.49890000 -0.53250000 -0.68380000
vn 0.61280000 -0.42360000 -0.66710000
vn 0.67410000 0.43380000 -0.59790000
vn 0.36360000 0.80230000 -0.47330000
vn 0.67600000 0.69010000 -0.25860000
vn 0.33220000 0.88850000 -0.31670000
vn 0.76800000 0.59730000 -0.23110000
vn -0.71070000 0.06250000 0.70070000
vn -0.72410000 0.01530000 0.68950000
vn -0.31390000 0.31570000 0.89540000
vn -0.72680000 -0.05090000 0.68490000
vn -0.89060000 -0.34090000 0.30110000
vn -0.27730000 -0.30630000 -0.91060000
vn -0.27640000 0.32340000 -0.90500000
vn -0.01690000 -0.06880000 -0.99750000
vn 0.29740000 -0.08650000 -0.95080000
vn 0.45330000 0.19080000 -0.87070000
vn 0.42960000 -0.08550000 -0.89900000
vn 0.44250000 0.10830000 -0.89020000
vn -0.92090000 -0.37030000 0.12200000
vn -0.55120000 -0.21790000 0.80540000
vn -0.90600000 -0.29180000 -0.30660000
vn -0.38270000 -0.14440000 -0.91250000
vn -0.50950000 0.24620000 -0.82450000
vn -0.72370000 0.59130000 -0.35590000
vn -0.73460000 0.56770000 0.37150000
vn -0.90500000 0.29630000 -0.30530000
vn -0.06880000 -0.00410000 0.99760000
vn 0.14060000 0.12510000 0.98210000
vn -0.32590000 -0.15470000 0.93270000
vn -0.28230000 -0.01680000 0.95920000
vn 0.14280000 -0.12750000 0.98150000
vn 0.19210000 -0.65080000 0.73450000
vn -0.20660000 0.03560000 0.97780000
vn -0.08780000 -0.01510000 0.99600000
vn 0.09940000 0.49580000 0.86280000
vn -0.32940000 0.71890000 0.61220000
vn -0.28030000 -0.67850000 0.67900000
vn 0.35250000 -0.66190000 -0.66150000
vn 0.43210000 0.64180000 -0.63360000
vn 0.10840000 0.75410000 -0.64770000
vn 0.52540000 -0.81860000 0.23200000
vn 0.30650000 0.94750000 0.09140000
vn 0.48490000 -0.64140000 0.59450000
vn 0.49260000 0.61950000 0.61120000
vn 0.06060000 -0.42120000 0.90490000
vn -0.14600000 0.36710000 0.91860000
vn -0.59540000 0.15270000 0.78880000
vn -0.74590000 0.00180000 0.66600000
vn -0.39460000 -0.25910000 0.88160000
vn 0.73620000 0.22250000 -0.63910000
vn 0.13150000 0.84500000 0.51830000
vn 0.40040000 0.54440000 0.73710000
vn 0.67320000 0.23110000 0.70240000
vn 0.36330000 0.15190000 0.91920000
vn 0.65570000 -0.22740000 0.72000000
vn 0.36260000 -0.18980000 0.91240000
vn 0.40510000 -0.53500000 0.74140000
vn -0.76650000 0.40720000 -0.49660000
vn -0.94130000 0.05690000 -0.33270000
vn -0.94180000 -0.09300000 -0.32320000
vn -0.95890000 0.07110000 0.27480000
vn -0.95230000 -0.10940000 0.28480000
vn -0.91140000 0.03960000 -0.40950000
vn -0.44360000 0.19620000 -0.87450000
vn -0.25570000 -0.32470000 -0.91060000
vn -0.85710000 0.11580000 -0.50200000
vn -0.75990000 -0.18340000 -0.62370000
vn -0.27190000 0.34700000 0.89760000
vn -0.84080000 0.10730000 0.53070000
vn 0.28500000 0.53580000 -0.79480000
vn 0.36190000 -0.47260000 -0.80350000
vn 0.38510000 0.48540000 0.78490000
vn -0.96050000 -0.01300000 -0.27810000
vn -0.99500000 0.06750000 -0.07410000
vn -0.95080000 0.01020000 0.30960000
vn 0.87220000 -0.48900000 -0.00620000
vn 0.96200000 0.27270000 0.01450000
vt 0.00000000 0.00000000
vt 0.00000000 0.00000000
vt 0.00000000 0.00000000
vt 0.00000000 0.00000000
vt 0.00000000 0.00000000
vt 0.00000000 0.00000000
vt 0.00000000 0.00000000
vt 0.00000000 0.00000000
vt 0.00000000 0.00000000
vt 0.00000000 0.00000000
vt 0.00000000 0.00000000
vt 0.00000000 0.00000000
vt 0.00000000 0.00000000
vt 0.00000000 0.00000000
vt 0.00000000 0.00000000
vt 0.00000000 0.00000000
vt 0.00000000 0.00000000
vt 0.00000000 0.00000000
vt 0.00000000 0.00000000
vt 0.00000000 0.00000000
vt 0.00000000 0.00000000
vt 0.00000000 0.00000000
vt 0.00000000 0.00000000
vt 0.00000000 0.00000000
vt 0.00000000 0.00000000
vt 0.00000000 0.00000000
vt 0.00000000 0.00000000
vt 0.00000000 0.00000000
vt 0.00000000 0.00000000
vt 0.00000000 0.00000000
vt 0.00000000 0.00000000
vt 0.00000000 0.00000000
vt 0.00000000 0.00000000
vt 0.00000000 0.00000000
vt 0.00000000 0.00000000
vt 0.00000000 0.00000000
vt 0.00000000 0.00000000
vt 0.00000000 0.00000000
vt 0.00000000 0.00000000
vt 0.00000000 0.00000000
vt 0.00000000 0.00000000
vt 0.00000000 0.00000000
vt 0.00000000 0.00000000
vt 0.00000000 0.00000000
vt 0.00000000 0.00000000
vt 0.00000000 0.00000000
vt 0.00000000 0.00000000
vt 0.00000000 0.00000000
vt 0.00000000 0.00000000
vt 0.00000000 0.00000000
vt 0.00000000 0.00000000
vt 0.00000000 0.00000000
vt 0.00000000 0.00000000
vt 0.00000000 0.00000000
vt 0.00000000 0.00000000
vt 0.00000000 0.00000000
vt 0.00000000 0.00000000
vt 0.00000000 0.00000000
vt 0.00000000 0.00000000
vt 0.00000000 0.00000000
vt 0.00000000 0.00000000
vt 0.00000000 0.00000000
vt 0.00000000 0.00000000
vt 0.00000000 0.00000000
vt 0.00000000 0.00000000
vt 0.00000000 0.00000000
vt 0.00000000 0.00000000
vt 0.00000000 0.00000000
vt 0.00000000 0.00000000
vt 0.00000000 0.00000000
vt 0.00000000 0.00000000
vt 0.00000000 0.00000000
vt 0.00000000 0.00000000
vt 0.00000000 0.00000000
vt 0.00000000 0.00000000
vt 0.00000000 0.00000000
vt 0.00000000 0.00000000
vt 0.00000000 0.00000000
vt 0.00000000 0.00000000
vt 0.00000000 0.00000000
vt 0.00000000 0.00000000
vt 0.00000000 0.00000000
vt 0.00000000 0.00000000
vt 0.00000000 0.00000000
vt 0.00000000 0.00000000
vt 0.00000000 0.00000000
vt 0.00000000 0.00000000
vt 0.00000000 0.00000000
vt 0.00000000 0.00000000
vt 0.00000000 0.00000000
vt 0.00000000 0.00000000
vt 0.00000000 0.00000000
vt 0.00000000 0.00000000
vt 0.00000000 0.00000000
vt 0.00000000 0.00000000
vt 0.00000000 0.00000000
vt 0.00000000 0.00000000
vt 0.00000000 0.00000000
vt 0.00000000 0.00000000
vt 0.00000000 0.00000000
vt 0.00000000 0.00000000
vt 0.00000000 0.00000000
vt 0.00000000 0.00000000
vt 0.00000000 0.00000000
vt 0.00000000 0.00000000
vt 0.00000000 0.00000000
vt 0.00000000 0.00000000
vt 0.00000000 0.00000000
vt 0.00000000 0.00000000
vt 0.00000000 0.00000000
vt 0.00000000 0.00000000
vt 0.00000000 0.00000000
vt 0.00000000 0.00000000
vt 0.00000000 0.00000000
vt 0.00000000 0.00000000
vt 0.00000000 0.00000000
vt 0.00000000 0.00000000
vt 0.00000000 0.00000000
vt 0.00000000 0.00000000
vt 0.00000000 0.00000000
vt 0.00000000 0.00000000
vt 0.00000000 0.00000000
vt 0.00000000 0.00000000
vt 0.00000000 0.00000000
vt 0.00000000 0.00000000
vt 0.00000000 0.00000000
vt 0.00000000 0.00000000
vt 0.00000000 0.00000000
vt 0.00000000 0.00000000
vt 0.00000000 0.00000000
vt 0.00000000 0.00000000
vt 0.00000000 0.00000000
vt 0.00000000 0.00000000
vt 0.00000000 0.00000000
vt 0.00000000 0.00000000
vt 0.00000000 0.00000000
vt 0.00000000 0.00000000
vt 0.00000000 0.00000000
vt 0.00000000 0.00000000
vt 0.00000000 0.00000000
vt 0.00000000 0.00000000
vt 0.00000000 0.00000000
vt 0.00000000 0.00000000
vt 0.00000000 0.00000000
vt 0.00000000 0.00000000
vt 0.00000000 0.00000000
vt 0.00000000 0.00000000
vt 0.00000000 0.00000000
vt 0.00000000 0.00000000
vt 0.00000000 0.00000000
vt 0.00000000 0.00000000
vt 0.00000000 0.00000000
vt 0.00000000 0.00000000
vt 0.00000000 0.00000000
vt 0.00000000 0.00000000
vt 0.00000000 0.00000000
vt 0.00000000 0.00000000
vt 0.00000000 0.00000000
vt 0.00000000 0.00000000
vt 0.00000000 0.00000000
vt 0.00000000 0.00000000
vt 0.00000000 0.00000000
vt 0.00000000 0.00000000
vt 0.00000000 0.00000000
vt 0.00000000 0.00000000
vt 0.00000000 0.00000000
vt 0.00000000 0.00000000
vt 0.00000000 0.00000000
vt 0.00000000 0.00000000
vt 0.00000000 0.00000000
vt 0.00000000 0.00000000
vt 0.00000000 0.00000000
vt 0.00000000 0.00000000
vt 0.00000000 0.00000000
vt 0.00000000 0.00000000
vt 0.00000000 0.00000000
vt 0.00000000 0.00000000
vt 0.00000000 0.00000000
vt 0.00000000 0.00000000
vt 0.00000000 0.00000000
vt 0.00000000 0.00000000
vt 0.00000000 0.00000000
vt 0.00000000 0.00000000
vt 0.00000000 0.00000000
vt 0.00000000 0.00000000
vt 0.00000000 0.00000000
vt 0.00000000 0.00000000
vt 0.00000000 0.00000000
vt 0.00000000 0.00000000
vt 0.00000000 0.00000000
vt 0.00000000 0.00000000
vt 0.00000000 0.00000000
vt 0.00000000 0.00000000
vt 0.00000000 0.00000000
vt 0.00000000 0.00000000
vt 0.00000000 0.00000000
vt 0.00000000 0.00000000
vt 0.00000000 0.00000000
vt 0.00000000 0.00000000
vt 0.00000000 0.00000000
vt 0.00000000 0.00000000
vt 0.00000000 0.00000000
vt 0.00000000 0.00000000
vt 0.00000000 0.00000000
vt 0.00000000 0.00000000
vt 0.00000000 0.00000000
vt 0.00000000 0.00000000
vt 0.00000000 0.00000000
vt 0.00000000 0.00000000
vt 0.00000000 0.00000000
vt 0.00000000 0.00000000
vt 0.00000000 0.00000000
vt 0.00000000 0.00000000
vt 0.00000000 0.00000000
vt 0.00000000 0.00000000
vt 0.00000000 0.00000000
vt 0.00000000 0.00000000
vt 0.00000000 0.00000000
vt 0.00000000 0.00000000
vt 0.00000000 0.00000000
vt 0.00000000 0.00000000
vt 0.00000000 0.00000000
vt 0.00000000 0.00000000
vt 0.00000000 0.00000000
vt 0.00000000 0.00000000
vt 0.00000000 0.00000000
vt 0.00000000 0.00000000
vt 0.00000000 0.00000000
vt 0.00000000 0.00000000
vt 0.00000000 0.00000000
vt 0.00000000 0.00000000
vt 0.00000000 0.00000000
vt 0.00000000 0.00000000
vt 0.00000000 0.00000000
vt 0.00000000 0.00000000
vt 0.00000000 0.00000000
vt 0.00000000 0.00000000
vt 0.00000000 0.00000000
vt 0.00000000 0.00000000
vt 0.00000000 0.00000000
vt 0.00000000 0.00000000
vt 0.00000000 0.00000000
vt 0.00000000 0.00000000
vt 0.00000000 0.00000000
vt 0.00000000 0.00000000
vt 0.00000000 0.00000000
vt 0.00000000 0.00000000
vt 0.00000000 0.00000000
vt 0.00000000 0.00000000
vt 0.00000000 0.00000000
vt 0.00000000 0.00000000
vt 0.00000000 0.00000000
vt 0.00000000 0.00000000
vt 0.00000000 0.00000000
vt 0.00000000 0.00000000
vt 0.00000000 0.00000000
vt 0.00000000 0.00000000
vt 0.00000000 0.00000000
vt 0.00000000 0.00000000
vt 0.00000000 0.00000000
vt 0.00000000 0.00000000
vt 0.00000000 0.00000000
vt 0.00000000 0.00000000
vt 0.00000000 0.00000000
vt 0.00000000 0.00000000
vt 0.00000000 0.00000000
vt 0.00000000 0.00000000
vt 0.00000000 0.00000000
vt 0.00000000 0.00000000
vt 0.00000000 0.00000000
vt 0.00000000 0.00000000
vt 0.00000000 0.00000000
vt 0.00000000 0.00000000
vt 0.00000000 0.00000000
vt 0.00000000 0.00000000
vt 0.00000000 0.00000000
vt 0.00000000 0.00000000
vt 0.00000000 0.00000000
vt 0.00000000 0.00000000
vt 0.00000000 0.00000000
vt 0.00000000 0.00000000
vt 0.00000000 0.00000000
vt 0.00000000 0.00000000
vt 0.00000000 0.00000000
vt 0.00000000 0.00000000
vt 0.00000000 0.00000000
vt 0.00000000 0.00000000
vt 0.00000000 0.00000000
vt 0.00000000 0.00000000
vt 0.00000000 0.00000000
vt 0.00000000 0.00000000
vt 0.00000000 0.00000000
vt 0.00000000 0.00000000
vt 0.00000000 0.00000000
vt 0.00000000 0.00000000
vt 0.00000000 0.00000000
vt 0.00000000 0.00000000
vt 0.00000000 0.00000000
vt 0.00000000 0.00000000
vt 0.00000000 0.00000000
vt 0.00000000 0.00000000
vt 0.00000000 0.00000000
vt 0.00000000 0.00000000
vt 0.00000000 0.00000000
vt 0.00000000 0.00000000
vt 0.00000000 0.00000000
vt 0.00000000 0.00000000
vt 0.00000000 0.00000000
vt 0.00000000 0.00000000
vt 0.00000000 0.00000000
vt 0.00000000 0.00000000
vt 0.00000000 0.00000000
vt 0.00000000 0.00000000
vt 0.00000000 0.00000000
vt 0.00000000 0.00000000
vt 0.00000000 0.00000000
vt 0.00000000 0.00000000
vt 0.00000000 0.00000000
vt 0.00000000 0.00000000
vt 0.00000000 0.00000000
vt 0.00000000 0.00000000
vt 0.00000000 0.00000000
vt 0.00000000 0.00000000
vt 0.00000000 0.00000000
vt 0.00000000 0.00000000
vt 0.00000000 0.00000000
vt 0.00000000 0.00000000
vt 0.00000000 0.00000000
vt 0.00000000 0.00000000
vt 0.00000000 0.00000000
vt 0.00000000 0.00000000
vt 0.00000000 0.00000000
vt 0.00000000 0.00000000
vt 0.00000000 0.00000000
vt 0.00000000 0.00000000
vt 0.00000000 0.00000000
vt 0.00000000 0.00000000
vt 0.00000000 0.00000000
vt 0.00000000 0.00000000
vt 0.00000000 0.00000000
vt 0.00000000 0.00000000
vt 0.00000000 0.00000000
vt 0.00000000 0.00000000
vt 0.00000000 0.00000000
vt 0.00000000 0.00000000
vt 0.00000000 0.00000000
vt 0.00000000 0.00000000
vt 0.00000000 0.00000000
vt 0.00000000 0.00000000
vt 0.00000000 0.00000000
vt 0.00000000 0.00000000
vt 0.00000000 0.00000000
vt 0.00000000 0.00000000
vt 0.00000000 0.00000000
vt 0.00000000 0.00000000
vt 0.00000000 0.00000000
vt 0.00000000 0.00000000
vt 0.00000000 0.00000000
vt 0.00000000 0.00000000
vt 0.00000000 0.00000000
vt 0.00000000 0.00000000
vt 0.00000000 0.00000000
vt 0.00000000 0.00000000
vt 0.00000000 0.00000000
vt 0.00000000 0.00000000
vt 0.00000000 0.00000000
vt 0.00000000 0.00000000
vt 0.00000000 0.00000000
vt 0.00000000 0.00000000
vt 0.00000000 0.00000000
vt 0.00000000 0.00000000
vt 0.00000000 0.00000000
vt 0.00000000 0.00000000
vt 0.00000000 0.00000000
vt 0.00000000 0.00000000
vt 0.00000000 0.00000000
vt 0.00000000 0.00000000
vt 0.00000000 0.00000000
vt 0.00000000 0.00000000
vt 0.00000000 0.00000000
vt 0.00000000 0.00000000
vt 0.00000000 0.00000000
vt 0.00000000 0.00000000
vt 0.00000000 0.00000000
vt 0.00000000 0.00000000
vt 0.00000000 0.00000000
vt 0.00000000 0.00000000
vt 0.00000000 0.00000000
vt 0.00000000 0.00000000
vt 0.00000000 0.00000000
vt 0.00000000 0.00000000
vt 0.00000000 0.00000000
vt 0.00000000 0.00000000
vt 0.00000000 0.00000000
vt 0.00000000 0.00000000
vt 0.00000000 0.00000000
vt 0.00000000 0.00000000
vt 0.00000000 0.00000000
vt 0.00000000 0.00000000
vt 0.00000000 0.00000000
vt 0.00000000 0.00000000
vt 0.00000000 0.00000000
vt 0.00000000 0.00000000
vt 0.00000000 0.00000000
vt 0.00000000 0.00000000
vt 0.00000000 0.00000000
vt 0.00000000 0.00000000
f 1/1/1 2/2/2 3/3/3
f 1/1/1 4/4/4 2/2/2
f 4/4/4 5/5/5 2/2/2
f 6/6/6 7/7/7 8/8/8
f 7/7/7 9/9/9 8/8/8
f 12/12/12 13/13/13 11/11/11
f 16/16/16 17/17/17 14/14/14
f 18/18/18 19/19/19 13/13/13
f 19/19/19 10/10/10 13/13/13
f 20/20/20 21/21/21 14/14/14
f 17/17/17 20/20/20 14/14/14
f 19/19/19 17/17/17 10/10/10
f 19/19/19 20/20/20 17/17/17
f 22/22/22 23/23/23 24/24/24
f 22/22/22 25/25/25 23/23/23
f 26/26/26 19/19/19 18/18/18
f 27/27/27 30/30/30 28/28/28
f 31/31/31 34/34/34 33/33/33
f 28/28/28 22/22/22 24/24/24
f 30/30/30 22/22/22 28/28/28
f 35/35/35 36/36/36 34/34/34
f 36/36/36 32/32/32 34/34/34
f 36/36/36 22/22/22 30/30/30
f 32/32/32 36/36/36 30/30/30
f 37/37/37 38/38/38 39/39/39
f 40/40/40 38/38/38 37/37/37
f 41/41/41 40/40/40 37/37/37
f 42/42/42 40/40/40 41/41/41
f 42/42/42 41/41/41 43/43/43
f 44/44/44 45/45/45 46/46/46
f 44/44/44 47/47/47 45/45/45
f 47/47/47 48/48/48 45/45/45
f 47/47/47 49/49/49 48/48/48
f 49/49/49 43/43/43 48/48/48
f 49/49/49 42/42/42 43/43/43
f 50/50/50 19/19/19 51/51/51
f 52/52/52 50/50/50 51/51/51
f 53/53/53 50/50/50 52/52/52
f 19/19/19 26/26/26 51/51/51
f 54/54/54 55/55/55 56/56/56
f 54/54/54 57/57/57 55/55/55
f 38/38/38 58/58/58 59/59/59
f 60/60/60 54/54/54 59/59/59
f 58/58/58 60/60/60 59/59/59
f 56/56/56 61/61/61 62/62/62
f 61/61/61 44/44/44 62/62/62
f 63/63/63 47/47/47 44/44/44
f 63/63/63 64/64/64 47/47/47
f 65/65/65 61/61/61 56/56/56
f 55/55/55 65/65/65 56/56/56
f 64/64/64 49/49/49 47/47/47
f 66/66/66 65/65/65 55/55/55
f 64/64/64 67/67/67 42/42/42
f 57/57/57 66/66/66 55/55/55
f 68/68/68 66/66/66 57/57/57
f 67/67/67 40/40/40 42/42/42
f 67/67/67 69/69/69 40/40/40
f 54/54/54 60/60/60 57/57/57
f 60/60/60 68/68/68 57/57/57
f 69/69/69 70/70/70 40/40/40
f 70/70/70 38/38/38 40/40/40
f 70/70/70 58/58/58 38/38/38
f 61/61/61 63/63/63 44/44/44
f 71/71/71 72/72/72 73/73/73
f 76/76/76 201/201/201 74/74/74
f 75/75/75 77/77/77 76/76/76
f 78/78/78 73/73/73 77/77/77
f 75/75/75 78/78/78 77/77/77
f 78/78/78 71/71/71 73/73/73
f 71/71/71 79/79/79 72/72/72
f 79/79/79 80/80/80 72/72/72
f 79/79/79 81/81/81 80/80/80
f 81/81/81 82/82/82 80/80/80
f 83/83/83 84/84/84 81/81/81
f 85/85/85 13/13/13 86/86/86
f 87/87/87 88/88/88 86/86/86
f 88/88/88 85/85/85 86/86/86
f 89/89/89 88/88/88 87/87/87
f 11/11/11 27/27/27 29/29/29
f 90/90/90 91/91/91 92/92/92
f 91/91/91 93/93/93 92/92/92
f 93/93/93 94/94/94 92/92/92
f 95/95/95 96/96/96 94/94/94
f 93/93/93 72/72/72 94/94/94
f 72/72/72 95/95/95 94/94/94
f 73/73/73 72/72/72 93/93/93
f 97/97/97 98/98/98 93/93/93
f 98/98/98 73/73/73 93/93/93
f 99/99/99 100/100/100 95/95/95
f 72/72/72 99/99/99 95/95/95
f 50/50/50 20/20/20 19/19/19
f 53/53/53 20/20/20 50/50/50
f 101/101/101 96/96/96 95/95/95
f 32/32/32 102/102/102 103/103/103
f 102/102/102 96/96/96 101/101/101
f 32/32/32 96/96/96 102/102/102
f 104/104/104 91/91/91 90/90/90
f 105/105/105 106/106/106 90/90/90
f 106/106/106 104/104/104 90/90/90
f 107/107/107 106/106/106 105/105/105
f 108/108/108 26/26/26 18/18/18
f 109/109/109 26/26/26 108/108/108
f 110/110/110 109/109/109 108/108/108
f 25/25/25 111/111/111 23/23/23
f 111/111/111 110/110/110 23/23/23
f 111/111/111 109/109/109 110/110/110
f 26/26/26 112/112/112 51/51/51
f 113/113/113 111/111/111 25/25/25
f 114/114/114 113/113/113 25/25/25
f 115/115/115 114/114/114 25/25/25
f 109/109/109 116/116/116 26/26/26
f 117/117/117 111/111/111 113/113/113
f 100/100/100 118/118/118 95/95/95
f 100/100/100 119/119/119 118/118/118
f 119/119/119 120/120/120 118/118/118
f 120/120/120 121/121/121 101/101/101
f 122/122/122 123/123/123 104/104/104
f 123/123/123 91/91/91 104/104/104
f 97/97/97 93/93/93 91/91/91
f 123/123/123 97/97/97 91/91/91
f 124/124/124 122/122/122 104/104/104
f 125/125/125 126/126/126 127/127/127
f 125/125/125 128/128/128 126/126/126
f 129/129/129 130/130/130 131/131/131
f 130/130/130 114/114/114 131/131/131
f 132/132/132 125/125/125 127/127/127
f 133/133/133 130/130/130 129/129/129
f 130/130/130 134/134/134 114/114/114
f 135/135/135 128/128/128 125/125/125
f 132/132/132 135/135/135 125/125/125
f 136/136/136 137/137/137 134/134/134
f 130/130/130 136/136/136 134/134/134
f 133/133/133 136/136/136 130/130/130
f 137/137/137 138/138/138 134/134/134
f 139/139/139 135/135/135 132/132/132
f 140/140/140 139/139/139 132/132/132
f 137/137/137 141/141/141 138/138/138
f 141/141/141 142/142/142 138/138/138
f 143/143/143 144/144/144 145/145/145
f 143/143/143 139/139/139 140/140/140
f 141/141/141 145/145/145 142/142/142
f 143/143/143 140/140/140 144/144/144
f 146/146/146 115/115/115 25/25/25
f 36/36/36 147/147/147 146/146/146
f 147/147/147 115/115/115 146/146/146
f 148/148/148 147/147/147 36/36/36
f 126/126/126 149/149/149 150/150/150
f 127/127/127 126/126/126 150/150/150
f 126/126/126 151/151/151 149/149/149
f 151/151/151 152/152/152 149/149/149
f 153/153/153 129/129/129 154/154/154
f 129/129/129 131/131/131 154/154/154
f 155/155/155 129/129/129 153/153/153
f 156/156/156 157/157/157 128/128/128
f 158/158/158 156/156/156 128/128/128
f 156/156/156 159/159/159 157/157/157
f 135/135/135 160/160/160 128/128/128
f 160/160/160 158/158/158 128/128/128
f 159/159/159 161/161/161 157/157/157
f 161/161/161 162/162/162 157/157/157
f 163/163/163 160/160/160 135/135/135
f 161/161/161 164/164/164 162/162/162
f 165/165/165 163/163/163 135/135/135
f 139/139/139 165/165/165 135/135/135
f 164/164/164 166/166/166 162/162/162
f 167/167/167 166/166/166 164/164/164
f 168/168/168 165/165/165 139/139/139
f 169/169/169 168/168/168 139/139/139
f 143/143/143 169/169/169 139/139/139
f 167/167/167 170/170/170 166/166/166
f 171/171/171 170/170/170 167/167/167
f 143/143/143 172/172/172 169/169/169
f 173/173/173 170/170/170 171/171/171
f 143/143/143 174/174/174 172/172/172
f 175/175/175 176/176/176 173/173/173
f 176/176/176 170/170/170 173/173/173
f 145/145/145 174/174/174 143/143/143
f 145/145/145 177/177/177 174/174/174
f 178/178/178 176/176/176 175/175/175
f 179/179/179 176/176/176 178/178/178
f 180/180/180 179/179/179 178/178/178
f 145/145/145 181/181/181 177/177/177
f 145/145/145 182/182/182 181/181/181
f 183/183/183 179/179/179 180/180/180
f 145/145/145 141/141/141 182/182/182
f 183/183/183 184/184/184 179/179/179
f 141/141/141 185/185/185 182/182/182
f 186/186/186 184/184/184 183/183/183
f 137/137/137 185/185/185 141/141/141
f 137/137/137 187/187/187 185/185/185
f 188/188/188 184/184/184 186/186/186
f 137/137/137 136/136/136 187/187/187
f 190/190/190 191/191/191 188/188/188
f 191/191/191 184/184/184 188/188/188
f 192/192/192 191/191/191 190/190/190
f 136/136/136 133/133/133 189/189/189
f 133/133/133 193/193/193 189/189/189
f 194/194/194 191/191/191 192/192/192
f 133/133/133 195/195/195 193/193/193
f 195/195/195 133/133/133 192/192/192
f 133/133/133 194/194/194 192/192/192
f 196/196/196 197/197/197 198/198/198
f 199/199/199 196/196/196 198/198/198
f 200/200/200 196/196/196 199/199/199
f 202/202/202 64/64/64 74/74/74
f 203/203/203 83/83/83 69/69/69
f 204/204/204 205/205/205 206/206/206
f 205/205/205 207/207/207 206/206/206
f 208/208/208 205/205/205 204/204/204
f 211/211/211 221/221/221 209/209/209
f 212/212/212 225/225/225 213/213/213
f 215/215/215 222/222/222 217/217/217
f 220/220/220 247/247/247 218/218/218
f 210/210/210 209/209/209 223/223/223
f 223/223/223 212/212/212 214/214/214
f 225/225/225 227/227/227 226/226/226
f 211/211/211 229/229/229 221/221/221
f 227/227/227 233/233/233 226/226/226
f 232/232/232 228/228/228 229/229/229
f 233/233/233 234/234/234 230/230/230
f 235/235/235 232/232/232 231/231/231
f 236/236/236 237/237/237 238/238/238
f 239/239/239 240/240/240 241/241/241
f 240/240/240 242/242/242 241/241/241
f 241/241/241 244/244/244 243/243/243
f 237/237/237 245/245/245 238/238/238
f 245/245/245 246/246/246 238/238/238
f 245/245/245 215/215/215 246/246/246
f 215/215/215 217/217/217 246/246/246
f 244/244/244 220/220/220 219/219/219
f 222/222/222 218/218/218 247/247/247
f 248/248/248 237/237/237 236/236/236
f 249/249/249 254/254/254 250/250/250
f 252/252/252 256/256/256 253/253/253
f 255/255/255 252/252/252 67/67/67
f 257/257/257 252/252/252 255/255/255
f 250/250/250 259/259/259 258/258/258
f 235/235/235 258/258/258 259/259/259
f 233/233/233 257/257/257 234/234/234
f 257/257/257 255/255/255 234/234/234
f 256/256/256 237/237/237 248/248/248
f 249/249/249 240/240/240 260/260/260
f 239/239/239 260/260/260 240/240/240
f 261/261/261 223/223/223 262/262/262
f 212/212/212 223/223/223 261/261/261
f 223/223/223 209/209/209 262/262/262
f 209/209/209 263/263/263 262/262/262
f 261/261/261 225/225/225 212/212/212
f 221/221/221 263/263/263 209/209/209
f 264/264/264 225/225/225 261/261/261
f 221/221/221 265/265/265 263/263/263
f 264/264/264 227/227/227 225/225/225
f 228/228/228 265/265/265 221/221/221
f 266/266/266 227/227/227 264/264/264
f 228/228/228 267/267/267 265/265/265
f 266/266/266 233/233/233 227/227/227
f 232/232/232 267/267/267 228/228/228
f 268/268/268 233/233/233 266/266/266
f 268/268/268 257/257/257 233/233/233
f 259/259/259 267/267/267 232/232/232
f 259/259/259 269/269/269 267/267/267
f 270/270/270 257/257/257 268/268/268
f 270/270/270 252/252/252 257/257/257
f 271/271/271 269/269/269 259/259/259
f 250/250/250 271/271/271 259/259/259
f 272/272/272 252/252/252 270/270/270
f 272/272/272 256/256/256 252/252/252
f 273/273/273 271/271/271 250/250/250
f 254/254/254 273/273/273 250/250/250
f 274/274/274 256/256/256 272/272/272
f 274/274/274 237/237/237 256/256/256
f 275/275/275 273/273/273 254/254/254
f 260/260/260 275/275/275 254/254/254
f 260/260/260 239/239/239 275/275/275
f 277/277/277 237/237/237 274/274/274
f 277/277/277 245/245/245 237/237/237
f 243/243/243 276/276/276 239/239/239
f 278/278/278 245/245/245 277/277/277
f 278/278/278 215/215/215 245/245/245
f 279/279/279 276/276/276 243/243/243
f 219/219/219 279/279/279 243/243/243
f 280/280/280 215/215/215 278/278/278
f 280/280/280 222/222/222 215/215/215
f 281/281/281 279/279/279 219/219/219
f 218/218/218 281/281/281 219/219/219
f 280/280/280 218/218/218 222/222/222
f 280/280/280 281/281/281 218/218/218
f 156/156/156 282/282/282 159/159/159
f 158/158/158 283/283/283 156/156/156
f 160/160/160 284/284/284 158/158/158
f 263/263/263 161/161/161 159/159/159
f 163/163/163 285/285/285 160/160/160
f 265/265/265 164/164/164 263/263/263
f 165/165/165 264/264/264 285/285/285
f 286/286/286 167/167/167 164/164/164
f 168/168/168 266/266/266 165/165/165
f 169/169/169 268/268/268 266/266/266
f 267/267/267 171/171/171 167/167/167
f 172/172/172 287/287/287 169/169/169
f 269/269/269 173/173/173 171/171/171
f 174/174/174 270/270/270 287/287/287
f 288/288/288 175/175/175 173/173/173
f 177/177/177 272/272/272 270/270/270
f 271/271/271 178/178/178 288/288/288
f 289/289/289 180/180/180 178/178/178
f 181/181/181 290/290/290 272/272/272
f 182/182/182 290/290/290 181/181/181
f 273/273/273 183/183/183 180/180/180
f 273/273/273 275/275/275 183/183/183
f 185/185/185 277/277/277 274/274/274
f 274/274/274 290/290/290 182/182/182
f 276/276/276 186/186/186 275/275/275
f 187/187/187 278/278/278 277/277/277
f 291/291/291 188/188/188 186/186/186
f 189/189/189 292/292/292 278/278/278
f 279/279/279 190/190/190 291/291/291
f 293/293/293 192/192/192 190/190/190
f 193/193/193 280/280/280 292/292/292
f 195/195/195 281/281/281 193/193/193
f 281/281/281 195/195/195 192/192/192
f 146/146/146 25/25/25 22/22/22
f 36/36/36 146/146/146 22/22/22
f 62/62/62 116/116/116 294/294/294
f 294/294/294 296/296/296 295/295/295
f 296/296/296 298/298/298 297/297/297
f 299/299/299 59/59/59 298/298/298
f 59/59/59 297/297/297 298/298/298
f 298/298/298 296/296/296 294/294/294
f 299/299/299 298/298/298 294/294/294
f 300/300/300 301/301/301 302/302/302
f 303/303/303 300/300/300 302/302/302
f 304/304/304 305/305/305 306/306/306
f 307/307/307 301/301/301 308/308/308
f 309/309/309 304/304/304 306/306/306
f 300/300/300 309/309/309 306/306/306
f 310/310/310 311/311/311 308/308/308
f 312/312/312 315/315/315 301/301/301
f 307/307/307 312/312/312 301/301/301
f 313/313/313 311/311/311 310/310/310
f 314/314/314 313/313/313 310/310/310
f 251/251/251 313/313/313 314/314/314
f 316/316/316 251/251/251 314/314/314
f 315/315/315 317/317/317 302/302/302
f 318/318/318 319/319/319 316/316/316
f 317/317/317 303/303/303 302/302/302
f 317/317/317 320/320/320 303/303/303
f 320/320/320 309/309/309 300/300/300
f 321/321/321 322/322/322 318/318/318
f 305/305/305 304/304/304 322/322/322
f 311/311/311 307/307/307 308/308/308
f 323/323/323 324/324/324 325/325/325
f 326/326/326 327/327/327 328/328/328
f 329/329/329 327/327/327 326/326/326
f 330/330/330 329/329/329 326/326/326
f 331/331/331 329/329/329 330/330/330
f 324/324/324 331/331/331 330/330/330
f 323/323/323 331/331/331 324/324/324
f 332/332/332 323/323/323 325/325/325
f 333/333/333 332/332/332 325/325/325
f 334/334/334 332/332/332 333/333/333
f 335/335/335 334/334/334 333/333/333
f 336/336/336 334/334/334 335/335/335
f 14/14/14 337/337/337 15/15/15
f 337/337/337 338/338/338 15/15/15
f 338/338/338 339/339/339 15/15/15
f 340/340/340 34/34/34 339/339/339
f 338/338/338 340/340/340 339/339/339
f 341/341/341 33/33/33 16/16/16
f 31/31/31 33/33/33 341/341/341
f 107/107/107 105/105/105 342/342/342
f 343/343/343 344/344/344 342/342/342
f 344/344/344 324/324/324 342/342/342
f 324/324/324 107/107/107 342/342/342
f 32/32/32 103/103/103 343/343/343
f 103/103/103 344/344/344 343/343/343
f 345/345/345 346/346/346 107/107/107
f 324/324/324 345/345/345 107/107/107
f 325/325/325 324/324/324 344/344/344
f 347/347/347 348/348/348 344/344/344
f 348/348/348 325/325/325 344/344/344
f 148/148/148 36/36/36 35/35/35
f 305/305/305 349/349/349 350/350/350
f 305/305/305 321/321/321 349/349/349
f 321/321/321 351/351/351 349/349/349
f 321/321/321 318/318/318 351/351/351
f 318/318/318 352/352/352 351/351/351
f 318/318/318 316/316/316 352/352/352
f 352/352/352 316/316/316 353/353/353
f 354/354/354 308/308/308 355/355/355
f 310/310/310 308/308/308 354/354/354
f 356/356/356 310/310/310 354/354/354
f 314/314/314 310/310/310 356/356/356
f 353/353/353 314/314/314 356/356/356
f 316/316/316 314/314/314 353/353/353
f 357/357/357 148/148/148 35/35/35
f 53/53/53 358/358/358 359/359/359
f 358/358/358 360/360/360 359/359/359
f 361/361/361 148/148/148 357/357/357
f 360/360/360 361/361/361 357/357/357
f 358/358/358 361/361/361 360/360/360
f 362/362/362 53/53/53 52/52/52
f 363/363/363 358/358/358 53/53/53
f 362/362/362 363/363/363 53/53/53
f 361/361/361 364/364/364 148/148/148
f 364/364/364 365/365/365 148/148/148
f 366/366/366 358/358/358 363/363/363
f 361/361/361 367/367/367 364/364/364
f 20/20/20 359/359/359 21/21/21
f 20/20/20 53/53/53 359/359/359
f 103/103/103 347/347/347 344/344/344
f 368/368/368 347/347/347 103/103/103
f 102/102/102 121/121/121 368/368/368
f 369/369/369 370/370/370 106/106/106
f 370/370/370 124/124/124 106/106/106
f 346/346/346 370/370/370 369/369/369
f 107/107/107 346/346/346 369/369/369
f 126/126/126 157/157/157 151/151/151
f 151/151/151 371/371/371 152/152/152
f 155/155/155 372/372/372 129/129/129
f 191/191/191 372/372/372 155/155/155
f 371/371/371 362/362/362 152/152/152
f 371/371/371 373/373/373 362/362/362
f 374/374/374 191/191/191 155/155/155
f 157/157/157 371/371/371 151/151/151
f 166/166/166 375/375/375 373/373/373
f 128/128/128 157/157/157 126/126/126
f 157/157/157 162/162/162 371/371/371
f 162/162/162 373/373/373 371/371/371
f 162/162/162 166/166/166 373/373/373
f 184/184/184 191/191/191 374/374/374
f 191/191/191 194/194/194 372/372/372
f 194/194/194 129/129/129 372/372/372
f 194/194/194 133/133/133 129/129/129
f 376/376/376 184/184/184 374/374/374
f 166/166/166 170/170/170 375/375/375
f 176/176/176 377/377/377 378/378/378
f 176/176/176 179/179/179 377/377/377
f 379/379/379 176/176/176 378/378/378
f 170/170/170 176/176/176 379/379/379
f 170/170/170 379/379/379 375/375/375
f 179/179/179 376/376/376 377/377/377
f 179/179/179 184/184/184 376/376/376
f 313/313/313 235/235/235 327/327/327
f 311/311/311 313/313/313 327/327/327
f 307/307/307 311/311/311 327/327/327
f 322/322/322 380/380/380 319/319/319
f 336/336/336 380/380/380 322/322/322
f 304/304/304 336/336/336 322/322/322
f 366/366/366 381/381/381 358/358/358
f 381/381/381 382/382/382 358/358/358
f 381/381/381 383/383/383 382/382/382
f 381/381/381 384/384/384 383/383/383
f 308/308/308 381/381/381 366/366/366
f 384/384/384 386/386/386 385/385/385
f 386/386/386 306/306/306 387/387/387
f 306/306/306 367/367/367 387/387/387
f 383/383/383 387/387/387 382/382/382
f 385/385/385 387/387/387 383/383/383
f 379/379/379 356/356/356 388/388/388
f 389/389/389 356/356/356 379/379/379
f 378/378/378 389/389/389 379/379/379
f 378/378/378 390/390/390 389/389/389
f 377/377/377 390/390/390 378/378/378
f 377/377/377 351/351/351 390/390/390
f 377/377/377 376/376/376 351/351/351
f 391/391/391 144/144/144 48/48/48
f 392/392/392 393/393/393 391/391/391
f 393/393/393 144/144/144 391/391/391
f 392/392/392 142/142/142 393/393/393
f 138/138/138 142/142/142 392/392/392
f 308/308/308 366/366/366 363/363/363
f 355/355/355 308/308/308 363/363/363
f 367/367/367 350/350/350 364/364/364
f 367/367/367 305/305/305 350/350/350
f 116/116/116 394/394/394 26/26/26
f 116/116/116 44/44/44 394/394/394
f 44/44/44 46/46/46 394/394/394
f 39/39/39 117/117/117 113/113/113
f 38/38/38 117/117/117 39/39/39
f 394/394/394 112/112/112 26/26/26
f 395/395/395 112/112/112 394/394/394
f 396/396/396 395/395/395 394/394/394
f 140/140/140 395/395/395 396/396/396
f 48/48/48 140/140/140 396/396/396
f 144/144/144 140/140/140 48/48/48
f 114/114/114 397/397/397 113/113/113
f 134/134/134 397/397/397 114/114/114
f 138/138/138 397/397/397 134/134/134
f 138/138/138 37/37/37 397/397/397
f 138/138/138 392/392/392 37/37/37
f 350/350/350 365/365/365 364/364/364
f 398/398/398 365/365/365 350/350/350
f 349/349/349 398/398/398 350/350/350
f 376/376/376 398/398/398 349/349/349
f 351/351/351 376/376/376 349/349/349
f 362/362/362 399/399/399 363/363/363
f 362/362/362 375/375/375 399/399/399
f 388/388/388 356/356/356 399/399/399
f 375/375/375 388/388/388 399/399/399
f 393/393/393 145/145/145 144/144/144
f 142/142/142 145/145/145 393/393/393
f 112/112/112 132/132/132 127/127/127
f 395/395/395 132/132/132 112/112/112
f 140/140/140 132/132/132 395/395/395
f 365/365/365 374/374/374 155/155/155
f 398/398/398 374/374/374 365/365/365
f 376/376/376 374/374/374 398/398/398
f 373/373/373 375/375/375 362/362/362
f 375/375/375 379/379/379 388/388/388
f 240/240/240 380/380/380 242/242/242
f 380/380/380 336/336/336 400/400/400
f 401/401/401 235/235/235 231/231/231
f 327/327/327 235/235/235 401/401/401
f 328/328/328 327/327/327 401/401/401
f 203/203/203 248/248/248 236/236/236
f 402/402/402 203/203/203 236/236/236
f 84/84/84 83/83/83 402/402/402
f 83/83/83 203/203/203 402/402/402
f 234/234/234 202/202/202 230/230/230
f 202/202/202 201/201/201 230/230/230
f 202/202/202 74/74/74 201/201/201
f 13/13/13 85/85/85 18/18/18
f 89/89/89 28/28/28 24/24/24
f 85/85/85 403/403/403 18/18/18
f 88/88/88 403/403/403 85/85/85
f 403/403/403 88/88/88 24/24/24
f 88/88/88 89/89/89 24/24/24
f 359/359/359 404/404/404 21/21/21
f 337/337/337 14/14/14 21/21/21
f 34/34/34 340/340/340 35/35/35
f 404/404/404 338/338/338 337/337/337
f 405/405/405 338/338/338 404/404/404
f 405/405/405 35/35/35 340/340/340
f 338/338/338 405/405/405 340/340/340
f 51/51/51 112/112/112 150/150/150
f 112/112/112 127/127/127 150/150/150
f 152/152/152 362/362/362 52/52/52
f 152/152/152 52/52/52 149/149/149
f 365/365/365 153/153/153 148/148/148
f 365/365/365 155/155/155 153/153/153
f 154/154/154 114/114/114 115/115/115
f 131/131/131 114/114/114 154/154/154
f 33/33/33 32/32/32 343/343/343
f 32/32/32 30/30/30 96/96/96
f 15/15/15 339/339/339 341/341/341
f 339/339/339 31/31/31 341/341/341
f 30/30/30 27/27/27 94/94/94
f 96/96/96 30/30/30 94/94/94
f 343/343/343 342/342/342 16/16/16
f 33/33/33 343/343/343 16/16/16
f 15/15/15 341/341/341 16/16/16
f 29/29/29 86/86/86 12/12/12
f 87/87/87 86/86/86 29/29/29
f 92/92/92 27/27/27 11/11/11
f 92/92/92 94/94/94 27/27/27
f 342/342/342 17/17/17 16/16/16
f 105/105/105 17/17/17 342/342/342
f 10/10/10 105/105/105 90/90/90
f 10/10/10 17/17/17 105/105/105
f 10/10/10 90/90/90 11/11/11
f 90/90/90 92/92/92 11/11/11
f 359/359/359 405/405/405 404/404/404
f 405/405/405 360/360/360 35/35/35
f 360/360/360 357/357/357 35/35/35
f 360/360/360 405/405/405 359/359/359
f 403/403/403 110/110/110 18/18/18
f 110/110/110 108/108/108 18/18/18
f 23/23/23 403/403/403 24/24/24
f 110/110/110 403/403/403 23/23/23
f 150/150/150 52/52/52 51/51/51
f 150/150/150 149/149/149 52/52/52
f 147/147/147 153/153/153 115/115/115
f 153/153/153 154/154/154 115/115/115
f 153/153/153 147/147/147 148/148/148
f 397/397/397 39/39/39 113/113/113
f 397/397/397 37/37/37 39/39/39
f 41/41/41 37/37/37 392/392/392
f 43/43/43 392/392/392 391/391/391
f 41/41/41 392/392/392 43/43/43
f 43/43/43 391/391/391 48/48/48
f 45/45/45 396/396/396 46/46/46
f 45/45/45 48/48/48 396/396/396
f 46/46/46 396/396/396 394/394/394
f 351/351/351 352/352/352 390/390/390
f 390/390/390 353/353/353 389/389/389
f 390/390/390 352/352/352 353/353/353
f 353/353/353 356/356/356 389/389/389
f 399/399/399 354/354/354 355/355/355
f 356/356/356 354/354/354 399/399/399
f 399/399/399 355/355/355 363/363/363
f 61/61/61 75/75/75 63/63/63
f 75/75/75 74/74/74 63/63/63
f 74/74/74 64/64/64 63/63/63
f 65/65/65 78/78/78 61/61/61
f 78/78/78 75/75/75 61/61/61
f 66/66/66 78/78/78 65/65/65
f 69/69/69 83/83/83 70/70/70
f 83/83/83 58/58/58 70/70/70
f 58/58/58 81/81/81 60/60/60
f 83/83/83 81/81/81 58/58/58
f 9/9/9 333/333/333 8/8/8
f 333/333/333 325/325/325 8/8/8
f 9/9/9 335/335/335 333/333/333
f 242/242/242 400/400/400 9/9/9
f 400/400/400 335/335/335 9/9/9
f 6/6/6 244/244/244 7/7/7
f 220/220/220 244/244/244 6/6/6
f 7/7/7 242/242/242 9/9/9
f 7/7/7 241/241/241 242/242/242
f 244/244/244 241/241/241 7/7/7
f 247/247/247 220/220/220 406/406/406
f 247/247/247 406/406/406 217/217/217
f 216/216/216 247/247/247 217/217/217
f 205/205/205 217/217/217 207/207/207
f 208/208/208 238/238/238 205/205/205
f 238/238/238 246/246/246 205/205/205
f 246/246/246 217/217/217 205/205/205
f 238/238/238 208/208/208 236/236/236
f 402/402/402 236/236/236 208/208/208
f 204/204/204 402/402/402 208/208/208
f 84/84/84 402/402/402 204/204/204
f 80/80/80 82/82/82 206/206/206
f 82/82/82 204/204/204 206/206/206
f 72/72/72 80/80/80 206/206/206
f 82/82/82 84/84/84 204/204/204
f 200/200/200 76/76/76 196/196/196
f 76/76/76 197/197/197 196/196/196
f 201/201/201 76/76/76 200/200/200
f 77/77/77 197/197/197 76/76/76
f 77/77/77 73/73/73 197/197/197
f 230/230/230 201/201/201 199/199/199
f 201/201/201 200/200/200 199/199/199
f 226/226/226 199/199/199 198/198/198
f 122/122/122 226/226/226 198/198/198
f 226/226/226 230/230/230 199/199/199
f 213/213/213 226/226/226 122/122/122
f 214/214/214 213/213/213 122/122/122
f 224/224/224 214/214/214 122/122/122
f 124/124/124 224/224/224 407/407/407
f 224/224/224 122/122/122 407/407/407
f 124/124/124 210/210/210 224/224/224
f 211/211/211 210/210/210 124/124/124
f 2/2/2 211/211/211 3/3/3
f 211/211/211 124/124/124 3/3/3
f 229/229/229 211/211/211 2/2/2
f 5/5/5 229/229/229 2/2/2
f 5/5/5 231/231/231 229/229/229
f 401/401/401 231/231/231 5/5/5
f 4/4/4 401/401/401 5/5/5
f 328/328/328 401/401/401 4/4/4
f 1/1/1 326/326/326 4/4/4
f 330/330/330 326/326/326 1/1/1
f 324/324/324 330/330/330 1/1/1
f 326/326/326 328/328/328 4/4/4
f 253/253/253 203/203/203 69/69/69
f 253/253/253 248/248/248 203/203/203
f 67/67/67 253/253/253 69/69/69
f 255/255/255 67/67/67 64/64/64
f 234/234/234 255/255/255 202/202/202
f 255/255/255 64/64/64 202/202/202
f 240/240/240 319/319/319 380/380/380
f 240/240/240 249/249/249 319/319/319
f 251/251/251 258/258/258 313/313/313
f 249/249/249 251/251/251 319/319/319
f 313/313/313 258/258/258 235/235/235
f 299/299/299 109/109/109 111/111/111
f 299/299/299 294/294/294 109/109/109
f 382/382/382 361/361/361 358/358/358
f 382/382/382 387/387/387 361/361/361
f 283/283/283 262/262/262 282/282/282
f 284/284/284 261/261/261 283/283/283
f 261/261/261 262/262/262 283/283/283
f 285/285/285 261/261/261 284/284/284
f 264/264/264 261/261/261 285/285/285
f 265/265/265 267/267/267 286/286/286
f 270/270/270 268/268/268 287/287/287
f 269/269/269 271/271/271 288/288/288
f 273/273/273 289/289/289 271/271/271
f 274/274/274 272/272/272 290/290/290
f 276/276/276 279/279/279 291/291/291
f 280/280/280 278/278/278 292/292/292
f 279/279/279 281/281/281 293/293/293
f 324/324/324 1/1/1 345/345/345
f 1/1/1 3/3/3 346/346/346
f 345/345/345 1/1/1 346/346/346
f 3/3/3 370/370/370 346/346/346
f 3/3/3 124/124/124 370/370/370
f 124/124/124 407/407/407 122/122/122
f 122/122/122 198/198/198 123/123/123
f 198/198/198 97/97/97 123/123/123
f 198/198/198 98/98/98 97/97/97
f 198/198/198 197/197/197 98/98/98
f 197/197/197 73/73/73 98/98/98
f 8/8/8 325/325/325 348/348/348
f 347/347/347 6/6/6 348/348/348
f 6/6/6 8/8/8 348/348/348
f 368/368/368 6/6/6 347/347/347
f 121/121/121 220/220/220 368/368/368
f 220/220/220 6/6/6 368/368/368
f 406/406/406 220/220/220 121/121/121
f 406/406/406 121/121/121 120/120/120
f 217/217/217 406/406/406 120/120/120
f 207/207/207 217/217/217 119/119/119
f 217/217/217 120/120/120 119/119/119
f 207/207/207 119/119/119 100/100/100
f 206/206/206 100/100/100 99/99/99
f 206/206/206 207/207/207 100/100/100
f 72/72/72 206/206/206 99/99/99
f 66/66/66 71/71/71 78/78/78
f 68/68/68 79/79/79 71/71/71
f 66/66/66 68/68/68 71/71/71
f 68/68/68 60/60/60 79/79/79
f 60/60/60 81/81/81 79/79/79
f 329/329/329 307/307/307 327/327/327
f 312/312/312 307/307/307 329/329/329
f 331/331/331 312/312/312 329/329/329
f 315/315/315 312/312/312 331/331/331
f 323/323/323 315/315/315 331/331/331
f 317/317/317 315/315/315 323/323/323
f 320/320/320 317/317/317 323/323/323
f 332/332/332 320/320/320 323/323/323
f 309/309/309 320/320/320 332/332/332
f 334/334/334 309/309/309 332/332/332
f 304/304/304 309/309/309 334/334/334
f 336/336/336 304/304/304 334/334/334
f 308/308/308 301/301/301 381/381/381
f 301/301/301 384/384/384 381/381/381
f 301/301/301 386/386/386 384/384/384
f 301/301/301 300/300/300 386/386/386
f 300/300/300 306/306/306 386/386/386
f 295/295/295 56/56/56 62/62/62
f 297/297/297 54/54/54 295/295/295
f 54/54/54 56/56/56 295/295/295
f 59/59/59 54/54/54 297/297/297
f 306/306/306 305/305/305 367/367/367
f 38/38/38 59/59/59 117/117/117
f 111/111/111 59/59/59 299/299/299
f 117/117/117 59/59/59 111/111/111
f 44/44/44 116/116/116 62/62/62
f 86/86/86 13/13/13 12/12/12
f 29/29/29 28/28/28 87/87/87
f 28/28/28 89/89/89 87/87/87
f 34/34/34 31/31/31 339/339/339
f 107/107/107 369/369/369 106/106/106
f 118/118/118 101/101/101 95/95/95
f 13/13/13 10/10/10 11/11/11
f 16/16/16 14/14/14 15/15/15
f 27/27/27 28/28/28 29/29/29
f 34/34/34 32/32/32 33/33/33
f 64/64/64 42/42/42 49/49/49
f 76/76/76 74/74/74 75/75/75
f 84/84/84 82/82/82 81/81/81
f 11/11/11 29/29/29 12/12/12
f 120/120/120 101/101/101 118/118/118
f 121/121/121 102/102/102 101/101/101
f 124/124/124 104/104/104 106/106/106
f 136/136/136 189/189/189 187/187/187
f 211/211/211 209/209/209 210/210/210
f 212/212/212 213/213/213 214/214/214
f 222/222/222 216/216/216 217/217/217
f 220/220/220 218/218/218 219/219/219
f 210/210/210 223/223/223 224/224/224
f 223/223/223 214/214/214 224/224/224
f 225/225/225 226/226/226 213/213/213
f 229/229/229 228/228/228 221/221/221
f 233/233/233 230/230/230 226/226/226
f 232/232/232 229/229/229 231/231/231
f 241/241/241 243/243/243 239/239/239
f 244/244/244 219/219/219 243/243/243
f 222/222/222 247/247/247 216/216/216
f 249/249/249 250/250/250 251/251/251
f 252/252/252 253/253/253 67/67/67
f 250/250/250 258/258/258 251/251/251
f 235/235/235 259/259/259 232/232/232
f 256/256/256 248/248/248 253/253/253
f 249/249/249 260/260/260 254/254/254
f 239/239/239 276/276/276 275/275/275
f 282/282/282 262/262/262 159/159/159
f 283/283/283 282/282/282 156/156/156
f 284/284/284 283/283/283 158/158/158
f 263/263/263 159/159/159 262/262/262
f 285/285/285 284/284/284 160/160/160
f 164/164/164 161/161/161 263/263/263
f 165/165/165 285/285/285 163/163/163
f 286/286/286 164/164/164 265/265/265
f 266/266/266 264/264/264 165/165/165
f 169/169/169 266/266/266 168/168/168
f 267/267/267 167/167/167 286/286/286
f 287/287/287 268/268/268 169/169/169
f 269/269/269 171/171/171 267/267/267
f 174/174/174 287/287/287 172/172/172
f 288/288/288 173/173/173 269/269/269
f 177/177/177 270/270/270 174/174/174
f 178/178/178 175/175/175 288/288/288
f 289/289/289 178/178/178 271/271/271
f 181/181/181 272/272/272 177/177/177
f 273/273/273 180/180/180 289/289/289
f 185/185/185 274/274/274 182/182/182
f 186/186/186 183/183/183 275/275/275
f 187/187/187 277/277/277 185/185/185
f 291/291/291 186/186/186 276/276/276
f 189/189/189 278/278/278 187/187/187
f 190/190/190 188/188/188 291/291/291
f 293/293/293 190/190/190 279/279/279
f 193/193/193 292/292/292 189/189/189
f 281/281/281 280/280/280 193/193/193
f 281/281/281 192/192/192 293/293/293
f 116/116/116 109/109/109 294/294/294
f 294/294/294 295/295/295 62/62/62
f 296/296/296 297/297/297 295/295/295
f 315/315/315 302/302/302 301/301/301
f 319/319/319 251/251/251 316/316/316
f 320/320/320 300/300/300 303/303/303
f 322/322/322 319/319/319 318/318/318
f 305/305/305 322/322/322 321/321/321
f 102/102/102 368/368/368 103/103/103
f 384/384/384 385/385/385 383/383/383
f 386/386/386 387/387/387 385/385/385
f 367/367/367 361/361/361 387/387/387
f 380/380/380 400/400/400 242/242/242
f 336/336/336 335/335/335 400/400/400
f 337/337/337 21/21/21 404/404/404

