mtllib material.mtl
usemtl Material-Metal.020
v 0.40573400 -0.00185700 0.02890500
v 0.41072200 0.00773400 0.02897300
v 0.40615200 0.00348300 0.02875400
v 0.42135500 0.00005900 0.02895100
v 0.41821100 0.00691800 0.02859700
v 0.41457200 -0.00794800 0.02895300
v 0.40869200 0.00835700 -0.01302800
v 0.40599900 0.00595600 -0.01300000
v 0.40659500 0.00675800 0.01291800
v 0.40405800 0.00238600 -0.01299000
v 0.40416800 0.00244600 0.01275700
v 0.40978400 0.00821600 0.01313000
v 0.41002400 0.00890800 0.01062200
v 0.40994700 0.00868300 -0.00998300
v 0.40391100 -0.00138300 0.01309200
v 0.40465100 -0.00412600 -0.01293700
v 0.41379600 0.00954700 -0.01058800
v 0.41385800 0.00949900 0.01029400
v 0.40483500 -0.00413800 0.01267500
v 0.41701000 0.00896800 0.01297700
v 0.41738400 0.00875600 -0.01299700
v 0.40507400 -0.00422400 0.00976200
v 0.40721700 -0.00728700 0.01060200
v 0.40745700 -0.00737100 -0.01000400
v 0.40501100 -0.00439000 -0.01027400
v 0.40966700 -0.00894800 0.01302400
v 0.42116200 0.00570900 0.01277100
v 0.40926400 -0.00869800 -0.01299800
v 0.42142700 0.00523900 -0.01299800
v 0.41484200 -0.00948100 -0.01300000
v 0.41524000 -0.00946200 0.01280200
v 0.42288500 0.00150200 0.01305600
v 0.42274800 0.00169400 -0.01300000
v 0.42284600 -0.00100900 -0.01300000
v 0.42288500 -0.00108100 0.01274400
v 0.42031200 -0.00681800 -0.01300700
v 0.41891100 -0.00773200 0.01304400
v 0.42108000 -0.00080900 0.00982100
v 0.42266000 -0.00142000 -0.01005600
v 0.42144700 -0.00504200 -0.01059200
v 0.42056000 -0.00597400 0.01286800
v 0.42139000 -0.00505500 0.01058300
v 0.40720000 0.01251300 -0.02500100
v 0.40063800 0.00477200 -0.02500300
v 0.40357900 0.00881000 -0.02006200
v 0.40096800 0.00183200 -0.01377600
v 0.40902300 0.01288800 -0.02014800
v 0.40046000 -0.00481400 -0.02497400
v 0.41441700 0.01305400 -0.02010600
v 0.41622400 0.01340900 -0.02499800
v 0.40702800 -0.01235200 -0.02499100
v 0.40730700 -0.01160200 -0.02000800
v 0.42207900 0.00993700 -0.01992700
v 0.42219500 0.01035500 -0.02500000
v 0.41253600 -0.01374000 -0.02008800
v 0.42580600 0.00562800 -0.02014600
v 0.42605200 0.00524100 -0.02499800
v 0.41708500 -0.01316500 -0.02500300
v 0.42633900 0.00071500 -0.02002600
v 0.42691800 -0.00135600 -0.02500000
v 0.41878900 -0.01205700 -0.02001300
v 0.42419400 -0.00849000 -0.02499800
v 0.42499800 -0.00617100 -0.02007000
v 0.40314500 0.00733600 -0.01303500
v 0.40905800 0.01200500 -0.01306100
v 0.40173300 -0.00529300 -0.01306700
v 0.41664200 0.01206300 -0.01304300
v 0.42211300 0.00938800 -0.01315900
v 0.40837800 -0.01193300 -0.01315500
v 0.42581000 0.00244400 -0.01308300
v 0.41647300 -0.01218200 -0.01309400
v 0.42120200 -0.00996400 -0.01288700
v 0.42542900 -0.00379100 -0.01306100
v 0.40381300 -0.00160500 0.02278500
v 0.40647600 0.00418700 0.02290100
v 0.40716900 0.00746800 0.02270500
v 0.41129800 0.00803000 0.02300200
v 0.41682100 0.00912800 0.02268100
v 0.40519000 -0.00179600 0.02289900
v 0.41027700 -0.00891200 0.02279400
v 0.41751900 0.00698600 0.02287700
v 0.42159700 0.00179200 0.02288900
v 0.42299100 0.00164900 0.02278400
v 0.41960500 -0.00747200 0.02270900
v 0.41403700 -0.00805100 0.02289600
v 0.41974000 -0.00551200 0.02294500
v 0.40851100 -0.00679000 0.02809100
v 0.42008900 -0.00493800 0.02804100
v 0.41057700 0.02188200 -0.03001400
v 0.41340000 0.00000000 -0.03000000
v 0.39518800 0.01251200 -0.03001000
v 0.39143100 -0.00205400 -0.03000000
v 0.42198400 0.02058700 -0.02998100
v 0.39941700 -0.01689700 -0.03000600
v 0.43162100 0.01281400 -0.03001700
v 0.40788600 -0.02157300 -0.03000200
v 0.41839000 -0.02146500 -0.03000300
v 0.43204200 -0.01156400 -0.03001000
v 0.43504200 -0.00423500 -0.03000300
v 0.40169700 0.01898700 -0.02942400
v 0.39605500 0.01376300 -0.02548900
v 0.39225700 0.00659000 -0.02953700
v 0.39232400 0.00704800 -0.02499500
v 0.40314500 0.01947900 -0.02499400
v 0.39152700 -0.00231700 -0.02501900
v 0.41226800 0.02224300 -0.02503800
v 0.39394700 -0.01080500 -0.02945000
v 0.39466000 -0.01194600 -0.02500200
v 0.42312800 0.01982400 -0.02500500
v 0.40101800 -0.01806600 -0.02500400
v 0.43102300 0.01365000 -0.02505700
v 0.40960300 -0.02181800 -0.02502100
v 0.43520900 0.00353100 -0.02500200
v 0.43528000 0.00322300 -0.02946300
v 0.42068400 -0.02096000 -0.02502200
v 0.43510400 -0.00423900 -0.02557600
v 0.42683200 -0.01773600 -0.02945600
v 0.43153600 -0.01294500 -0.02498100
v 0.41933900 -0.00427100 -0.01050900
v 0.42064700 -0.00063900 -0.00968500
v 0.41935000 -0.00413600 0.01049300
v 0.40907000 -0.00586600 -0.01021600
v 0.40671300 -0.00287700 -0.00949500
v 0.40686800 -0.00308200 0.01024700
v 0.40923300 -0.00596900 0.00949500
v 0.41413300 0.00724600 -0.01067300
v 0.41403500 0.00725700 0.01024600
v 0.41030900 0.00659100 0.00900000
v 0.41030900 0.00659100 -0.00900000
vn -0.71240000 -0.17700000 0.67910000
vn -0.24460000 0.72670000 0.64190000
vn -0.70980000 0.34610000 0.61350000
vn 0.74910000 0.01330000 0.66230000
vn 0.46570000 0.67200000 0.57580000
vn 0.11350000 -0.74810000 0.65390000
vn -0.27760000 0.57950000 0.76630000
vn -0.52430000 0.41720000 0.74230000
vn -0.73120000 0.68030000 0.04940000
vn -0.63180000 0.13220000 0.76370000
vn -0.79260000 0.24980000 0.55620000
vn -0.27090000 0.95620000 0.11070000
vn -0.11390000 0.98150000 -0.15360000
vn 0.09920000 0.95580000 0.27680000
vn -0.98500000 -0.14530000 0.09300000
vn -0.58280000 -0.26720000 0.76750000
vn -0.24680000 0.95630000 0.15710000
vn -0.32830000 0.92800000 -0.17600000
vn -0.73640000 -0.44930000 0.50570000
vn 0.36980000 0.92610000 0.07460000
vn 0.26810000 0.58950000 0.76200000
vn -0.08370000 -0.96090000 -0.26390000
vn -0.80680000 -0.55050000 -0.21450000
vn -0.85470000 -0.43570000 0.28230000
vn -0.45070000 -0.84250000 0.29520000
vn -0.37750000 -0.92170000 0.08970000
vn 0.64980000 0.49690000 0.57520000
vn -0.27030000 -0.59510000 0.75690000
vn 0.54390000 0.37770000 0.74930000
vn 0.09490000 -0.63740000 0.76470000
vn 0.13660000 -0.80660000 0.57510000
vn 0.97940000 0.18090000 0.08990000
vn 0.66450000 0.13340000 0.73530000
vn 0.65800000 -0.10750000 0.74530000
vn 0.84890000 -0.24910000 0.46620000
vn 0.44970000 -0.46400000 0.76320000
vn 0.51450000 -0.85630000 0.04590000
vn 0.50100000 -0.81750000 -0.28410000
vn 0.70490000 -0.64190000 0.30190000
vn 0.94340000 -0.20280000 0.26250000
vn 0.83640000 -0.54580000 0.05140000
vn 0.93510000 -0.25270000 -0.24850000
vn -0.26600000 0.52290000 0.80980000
vn -0.56300000 0.19940000 0.80200000
vn -0.73670000 0.67110000 0.08300000
vn -0.85100000 0.12130000 0.51100000
vn -0.20200000 0.74090000 0.64050000
vn -0.53880000 -0.20690000 0.81660000
vn 0.07790000 0.99100000 0.10900000
vn 0.12210000 0.57630000 0.80810000
vn -0.29580000 -0.49190000 0.81890000
vn -0.50670000 -0.85080000 0.13900000
vn 0.63470000 0.76360000 0.11910000
vn 0.39410000 0.48820000 0.77860000
vn -0.04720000 -0.79000000 0.61120000
vn 0.72380000 0.30890000 0.61700000
vn 0.58830000 0.22850000 0.77570000
vn 0.18000000 -0.59600000 0.78250000
vn 0.99220000 0.05380000 0.11230000
vn 0.60120000 -0.06770000 0.79620000
vn 0.41700000 -0.90300000 0.10350000
vn 0.45130000 -0.37170000 0.81130000
vn 0.87840000 -0.46950000 0.09000000
vn -0.61050000 0.41340000 0.67550000
vn -0.26010000 0.72420000 0.63870000
vn -0.67770000 -0.32460000 0.65980000
vn 0.19950000 0.71070000 0.67460000
vn 0.53010000 0.55530000 0.64080000
vn -0.28310000 -0.73120000 0.62060000
vn 0.73520000 0.17960000 0.65360000
vn 0.11120000 -0.74310000 0.65980000
vn 0.44310000 -0.52990000 0.72310000
vn 0.70020000 -0.22480000 0.67760000
vn -0.79790000 -0.14520000 0.58500000
vn -0.64130000 0.36610000 0.67430000
vn -0.52780000 0.62750000 0.57240000
vn -0.19400000 0.91200000 0.36150000
vn 0.29440000 0.76880000 0.56760000
vn -0.61360000 -0.14470000 0.77620000
vn -0.28320000 -0.94100000 0.18540000
vn 0.38670000 0.59670000 0.70320000
vn 0.59800000 0.14720000 0.78790000
vn 0.79650000 0.14410000 0.58720000
vn 0.51030000 -0.64620000 0.56750000
vn 0.14940000 -0.78190000 0.60520000
vn 0.57840000 -0.43120000 0.69250000
vn -0.50890000 -0.68420000 0.52230000
vn 0.71140000 -0.52450000 0.46770000
vn -0.10360000 0.73070000 -0.67480000
vn -0.00000000 -0.00000000 -1.00000000
vn -0.61450000 0.41430000 -0.67140000
vn -0.74600000 -0.06580000 -0.66260000
vn 0.29540000 0.70920000 -0.64010000
vn -0.46890000 -0.57150000 -0.67350000
vn 0.62030000 0.43210000 -0.65460000
vn -0.19720000 -0.73510000 -0.64870000
vn 0.14350000 -0.73030000 -0.66790000
vn 0.62500000 -0.36200000 -0.69160000
vn 0.72280000 -0.15010000 -0.67460000
vn -0.44360000 0.72120000 -0.53210000
vn -0.64750000 0.53280000 0.54490000
vn -0.81410000 0.22690000 -0.53450000
vn -0.71690000 0.23070000 0.65790000
vn -0.32230000 0.65270000 0.68570000
vn -0.73710000 -0.07780000 0.67120000
vn -0.02460000 0.76690000 0.64140000
vn -0.74430000 -0.38930000 -0.54270000
vn -0.62870000 -0.40740000 0.66240000
vn 0.34720000 0.65650000 0.66960000
vn -0.40880000 -0.61540000 0.67390000
vn 0.59220000 0.48150000 0.64620000
vn -0.10760000 -0.74050000 0.66340000
vn 0.73090000 0.13620000 0.66880000
vn 0.82900000 0.14180000 -0.54100000
vn 0.24880000 -0.71360000 0.65490000
vn 0.83460000 -0.17660000 0.52180000
vn 0.51510000 -0.69550000 -0.50090000
vn 0.62010000 -0.43970000 0.64970000
vn 0.73050000 0.30150000 0.61270000
vn 0.36470000 -0.81250000 0.45470000
vn 0.74990000 0.22880000 -0.62070000
vn -0.78980000 0.05400000 0.61100000
vn -0.09500000 -0.90530000 0.41400000
vn -0.10770000 -0.78180000 -0.61410000
vn -0.91760000 0.11640000 -0.38010000
vn -0.58540000 0.48670000 0.64840000
vn -0.62440000 0.53030000 -0.57350000
vn 0.54940000 0.78300000 -0.29150000
vn 0.54540000 0.77670000 0.31510000
vt 0.00000000 0.00000000
vt 0.00000000 0.00000000
vt 0.00000000 0.00000000
vt 0.00000000 0.00000000
vt 0.00000000 0.00000000
vt 0.00000000 0.00000000
vt 0.00000000 0.00000000
vt 0.00000000 0.00000000
vt 0.00000000 0.00000000
vt 0.00000000 0.00000000
vt 0.00000000 0.00000000
vt 0.00000000 0.00000000
vt 0.00000000 0.00000000
vt 0.00000000 0.00000000
vt 0.00000000 0.00000000
vt 0.00000000 0.00000000
vt 0.00000000 0.00000000
vt 0.00000000 0.00000000
vt 0.00000000 0.00000000
vt 0.00000000 0.00000000
vt 0.00000000 0.00000000
vt 0.00000000 0.00000000
vt 0.00000000 0.00000000
vt 0.00000000 0.00000000
vt 0.00000000 0.00000000
vt 0.00000000 0.00000000
vt 0.00000000 0.00000000
vt 0.00000000 0.00000000
vt 0.00000000 0.00000000
vt 0.00000000 0.00000000
vt 0.00000000 0.00000000
vt 0.00000000 0.00000000
vt 0.00000000 0.00000000
vt 0.00000000 0.00000000
vt 0.00000000 0.00000000
vt 0.00000000 0.00000000
vt 0.00000000 0.00000000
vt 0.00000000 0.00000000
vt 0.00000000 0.00000000
vt 0.00000000 0.00000000
vt 0.00000000 0.00000000
vt 0.00000000 0.00000000
vt 0.00000000 0.00000000
vt 0.00000000 0.00000000
vt 0.00000000 0.00000000
vt 0.00000000 0.00000000
vt 0.00000000 0.00000000
vt 0.00000000 0.00000000
vt 0.00000000 0.00000000
vt 0.00000000 0.00000000
vt 0.00000000 0.00000000
vt 0.00000000 0.00000000
vt 0.00000000 0.00000000
vt 0.00000000 0.00000000
vt 0.00000000 0.00000000
vt 0.00000000 0.00000000
vt 0.00000000 0.00000000
vt 0.00000000 0.00000000
vt 0.00000000 0.00000000
vt 0.00000000 0.00000000
vt 0.00000000 0.00000000
vt 0.00000000 0.00000000
vt 0.00000000 0.00000000
vt 0.00000000 0.00000000
vt 0.00000000 0.00000000
vt 0.00000000 0.00000000
vt 0.00000000 0.00000000
vt 0.00000000 0.00000000
vt 0.00000000 0.00000000
vt 0.00000000 0.00000000
vt 0.00000000 0.00000000
vt 0.00000000 0.00000000
vt 0.00000000 0.00000000
vt 0.00000000 0.00000000
vt 0.00000000 0.00000000
vt 0.00000000 0.00000000
vt 0.00000000 0.00000000
vt 0.00000000 0.00000000
vt 0.00000000 0.00000000
vt 0.00000000 0.00000000
vt 0.00000000 0.00000000
vt 0.00000000 0.00000000
vt 0.00000000 0.00000000
vt 0.00000000 0.00000000
vt 0.00000000 0.00000000
vt 0.00000000 0.00000000
vt 0.00000000 0.00000000
vt 0.00000000 0.00000000
vt 0.00000000 0.00000000
vt 0.00000000 0.00000000
vt 0.00000000 0.00000000
vt 0.00000000 0.00000000
vt 0.00000000 0.00000000
vt 0.00000000 0.00000000
vt 0.00000000 0.00000000
vt 0.00000000 0.00000000
vt 0.00000000 0.00000000
vt 0.00000000 0.00000000
vt 0.00000000 0.00000000
vt 0.00000000 0.00000000
vt 0.00000000 0.00000000
vt 0.00000000 0.00000000
vt 0.00000000 0.00000000
vt 0.00000000 0.00000000
vt 0.00000000 0.00000000
vt 0.00000000 0.00000000
vt 0.00000000 0.00000000
vt 0.00000000 0.00000000
vt 0.00000000 0.00000000
vt 0.00000000 0.00000000
vt 0.00000000 0.00000000
vt 0.00000000 0.00000000
vt 0.00000000 0.00000000
vt 0.00000000 0.00000000
vt 0.00000000 0.00000000
vt 0.00000000 0.00000000
vt 0.00000000 0.00000000
vt 0.00000000 0.00000000
vt 0.00000000 0.00000000
vt 0.00000000 0.00000000
vt 0.00000000 0.00000000
vt 0.00000000 0.00000000
vt 0.00000000 0.00000000
vt 0.00000000 0.00000000
vt 0.00000000 0.00000000
vt 0.00000000 0.00000000
vt 0.00000000 0.00000000
vt 0.00000000 0.00000000
vt 0.00000000 0.00000000
f 1/1/1 2/2/2 3/3/3
f 4/4/4 5/5/5 2/2/2
f 2/2/2 1/1/1 4/4/4
f 7/7/7 8/8/8 9/9/9
f 10/10/10 11/11/11 8/8/8
f 12/12/12 13/13/13 9/9/9
f 13/13/13 7/7/7 9/9/9
f 13/13/13 14/14/14 7/7/7
f 10/10/10 15/15/15 11/11/11
f 16/16/16 15/15/15 10/10/10
f 14/14/14 17/17/17 7/7/7
f 12/12/12 18/18/18 13/13/13
f 16/16/16 19/19/19 15/15/15
f 20/20/20 18/18/18 12/12/12
f 17/17/17 21/21/21 7/7/7
f 20/20/20 17/17/17 18/18/18
f 20/20/20 21/21/21 17/17/17
f 22/22/22 23/23/23 19/19/19
f 16/16/16 24/24/24 25/25/25
f 23/23/23 26/26/26 19/19/19
f 27/27/27 29/29/29 21/21/21
f 28/28/28 24/24/24 16/16/16
f 24/24/24 26/26/26 23/23/23
f 28/28/28 26/26/26 24/24/24
f 30/30/30 31/31/31 28/28/28
f 32/32/32 33/33/33 27/27/27
f 32/32/32 35/35/35 33/33/33
f 36/36/36 37/37/37 30/30/30
f 38/38/38 39/39/39 35/35/35
f 39/39/39 34/34/34 35/35/35
f 39/39/39 40/40/40 34/34/34
f 40/40/40 36/36/36 34/34/34
f 41/41/41 42/42/42 35/35/35
f 42/42/42 38/38/38 35/35/35
f 36/36/36 41/41/41 37/37/37
f 41/41/41 40/40/40 42/42/42
f 41/41/41 36/36/36 40/40/40
f 32/32/32 27/27/27 20/20/20
f 11/11/11 15/15/15 9/9/9
f 19/19/19 26/26/26 15/15/15
f 31/31/31 37/37/37 26/26/26
f 43/43/43 44/44/44 45/45/45
f 44/44/44 46/46/46 45/45/45
f 47/47/47 43/43/43 45/45/45
f 44/44/44 48/48/48 46/46/46
f 49/49/49 43/43/43 47/47/47
f 49/49/49 50/50/50 43/43/43
f 51/51/51 52/52/52 48/48/48
f 53/53/53 50/50/50 49/49/49
f 53/53/53 54/54/54 50/50/50
f 51/51/51 55/55/55 52/52/52
f 56/56/56 54/54/54 53/53/53
f 56/56/56 57/57/57 54/54/54
f 51/51/51 58/58/58 55/55/55
f 59/59/59 60/60/60 57/57/57
f 58/58/58 61/61/61 55/55/55
f 58/58/58 62/62/62 61/61/61
f 63/63/63 60/60/60 59/59/59
f 63/63/63 62/62/62 60/60/60
f 62/62/62 63/63/63 61/61/61
f 49/49/49 47/47/47 45/45/45
f 59/59/59 56/56/56 53/53/53
f 55/55/55 61/61/61 52/52/52
f 45/45/45 46/46/46 64/64/64
f 65/65/65 45/45/45 64/64/64
f 65/65/65 49/49/49 45/45/45
f 48/48/48 66/66/66 46/46/46
f 67/67/67 49/49/49 65/65/65
f 68/68/68 49/49/49 67/67/67
f 68/68/68 53/53/53 49/49/49
f 52/52/52 69/69/69 66/66/66
f 48/48/48 52/52/52 66/66/66
f 70/70/70 53/53/53 68/68/68
f 70/70/70 59/59/59 53/53/53
f 69/69/69 52/52/52 71/71/71
f 61/61/61 72/72/72 71/71/71
f 73/73/73 59/59/59 70/70/70
f 73/73/73 63/63/63 59/59/59
f 61/61/61 63/63/63 72/72/72
f 72/72/72 63/63/63 73/73/73
f 10/10/10 8/8/8 64/64/64
f 8/8/8 65/65/65 64/64/64
f 66/66/66 10/10/10 64/64/64
f 8/8/8 7/7/7 65/65/65
f 16/16/16 10/10/10 66/66/66
f 7/7/7 21/21/21 67/67/67
f 28/28/28 16/16/16 66/66/66
f 69/69/69 28/28/28 66/66/66
f 21/21/21 68/68/68 67/67/67
f 29/29/29 68/68/68 21/21/21
f 29/29/29 70/70/70 68/68/68
f 69/69/69 30/30/30 28/28/28
f 33/33/33 70/70/70 29/29/29
f 69/69/69 71/71/71 30/30/30
f 34/34/34 73/73/73 33/33/33
f 73/73/73 70/70/70 33/33/33
f 71/71/71 36/36/36 30/30/30
f 36/36/36 73/73/73 34/34/34
f 71/71/71 73/73/73 36/36/36
f 41/41/41 35/35/35 32/32/32
f 74/74/74 75/75/75 76/76/76
f 77/77/77 78/78/78 76/76/76
f 75/75/75 77/77/77 76/76/76
f 74/74/74 79/79/79 75/75/75
f 80/80/80 79/79/79 74/74/74
f 81/81/81 78/78/78 77/77/77
f 81/81/81 82/82/82 78/78/78
f 82/82/82 83/83/83 78/78/78
f 84/84/84 85/85/85 80/80/80
f 84/84/84 86/86/86 85/85/85
f 86/86/86 83/83/83 82/82/82
f 86/86/86 84/84/84 83/83/83
f 2/2/2 75/75/75 3/3/3
f 2/2/2 77/77/77 75/75/75
f 75/75/75 79/79/79 3/3/3
f 79/79/79 1/1/1 3/3/3
f 79/79/79 87/87/87 1/1/1
f 5/5/5 77/77/77 2/2/2
f 5/5/5 81/81/81 77/77/77
f 79/79/79 80/80/80 87/87/87
f 5/5/5 82/82/82 81/81/81
f 80/80/80 85/85/85 87/87/87
f 85/85/85 6/6/6 87/87/87
f 4/4/4 82/82/82 5/5/5
f 85/85/85 86/86/86 6/6/6
f 86/86/86 88/88/88 6/6/6
f 88/88/88 86/86/86 4/4/4
f 90/90/90 92/92/92 91/91/91
f 93/93/93 95/95/95 90/90/90
f 90/90/90 94/94/94 92/92/92
f 90/90/90 97/97/97 94/94/94
f 98/98/98 97/97/97 90/90/90
f 99/99/99 98/98/98 90/90/90
f 95/95/95 99/99/99 90/90/90
f 100/100/100 91/91/91 101/101/101
f 91/91/91 102/102/102 101/101/101
f 102/102/102 103/103/103 101/101/101
f 104/104/104 100/100/100 101/101/101
f 92/92/92 105/105/105 102/102/102
f 106/106/106 89/89/89 104/104/104
f 92/92/92 107/107/107 105/105/105
f 107/107/107 108/108/108 105/105/105
f 106/106/106 93/93/93 89/89/89
f 109/109/109 93/93/93 106/106/106
f 107/107/107 94/94/94 108/108/108
f 94/94/94 110/110/110 108/108/108
f 111/111/111 95/95/95 109/109/109
f 94/94/94 96/96/96 110/110/110
f 96/96/96 112/112/112 110/110/110
f 113/113/113 114/114/114 95/95/95
f 96/96/96 97/97/97 112/112/112
f 97/97/97 115/115/115 112/112/112
f 116/116/116 99/99/99 114/114/114
f 97/97/97 117/117/117 115/115/115
f 117/117/117 118/118/118 115/115/115
f 118/118/118 98/98/98 116/116/116
f 118/118/118 117/117/117 98/98/98
f 44/44/44 43/43/43 103/103/103
f 43/43/43 104/104/104 103/103/103
f 103/103/103 105/105/105 44/44/44
f 43/43/43 50/50/50 106/106/106
f 108/108/108 48/48/48 105/105/105
f 50/50/50 109/109/109 106/106/106
f 108/108/108 110/110/110 51/51/51
f 54/54/54 109/109/109 50/50/50
f 54/54/54 111/111/111 109/109/109
f 57/57/57 111/111/111 54/54/54
f 110/110/110 112/112/112 51/51/51
f 113/113/113 111/111/111 57/57/57
f 112/112/112 115/115/115 58/58/58
f 60/60/60 113/113/113 57/57/57
f 115/115/115 62/62/62 58/58/58
f 62/62/62 118/118/118 60/60/60
f 118/118/118 113/113/113 60/60/60
f 115/115/115 118/118/118 62/62/62
f 83/83/83 32/32/32 20/20/20
f 78/78/78 20/20/20 12/12/12
f 15/15/15 74/74/74 9/9/9
f 15/15/15 26/26/26 74/74/74
f 26/26/26 80/80/80 74/74/74
f 37/37/37 84/84/84 80/80/80
f 84/84/84 41/41/41 83/83/83
f 119/119/119 39/39/39 120/120/120
f 40/40/40 39/39/39 119/119/119
f 42/42/42 40/40/40 119/119/119
f 38/38/38 42/42/42 121/121/121
f 120/120/120 39/39/39 38/38/38
f 121/121/121 120/120/120 38/38/38
f 121/121/121 119/119/119 120/120/120
f 122/122/122 123/123/123 25/25/25
f 25/25/25 123/123/123 22/22/22
f 123/123/123 124/124/124 22/22/22
f 124/124/124 23/23/23 22/22/22
f 125/125/125 23/23/23 124/124/124
f 125/125/125 24/24/24 23/23/23
f 125/125/125 122/122/122 24/24/24
f 124/124/124 123/123/123 125/125/125
f 126/126/126 17/17/17 14/14/14
f 126/126/126 127/127/127 17/17/17
f 127/127/127 128/128/128 13/13/13
f 128/128/128 14/14/14 13/13/13
f 128/128/128 129/129/129 14/14/14
f 127/127/127 129/129/129 128/128/128
f 126/126/126 14/14/14 129/129/129
f 127/127/127 126/126/126 129/129/129
f 103/103/103 104/104/104 101/101/101
f 118/118/118 116/116/116 113/113/113
f 100/100/100 89/89/89 91/91/91
f 91/91/91 92/92/92 102/102/102
f 92/92/92 94/94/94 107/107/107
f 114/114/114 99/99/99 95/95/95
f 98/98/98 117/117/117 97/97/97
f 87/87/87 6/6/6 1/1/1
f 88/88/88 4/4/4 6/6/6
f 12/12/12 9/9/9 76/76/76
f 37/37/37 41/41/41 84/84/84
f 46/46/46 66/66/66 64/64/64
f 72/72/72 73/73/73 71/71/71
f 18/18/18 127/127/127 13/13/13
f 25/25/25 22/22/22 19/19/19
f 16/16/16 25/25/25 19/19/19
f 24/24/24 122/122/122 25/25/25
f 1/1/1 6/6/6 4/4/4
f 11/11/11 9/9/9 8/8/8
f 27/27/27 21/21/21 20/20/20
f 31/31/31 26/26/26 28/28/28
f 33/33/33 29/29/29 27/27/27
f 35/35/35 34/34/34 33/33/33
f 37/37/37 31/31/31 30/30/30
f 59/59/59 57/57/57 56/56/56
f 52/52/52 61/61/61 71/71/71
f 7/7/7 67/67/67 65/65/65
f 86/86/86 82/82/82 4/4/4
f 90/90/90 91/91/91 89/89/89
f 93/93/93 90/90/90 89/89/89
f 97/97/97 96/96/96 94/94/94
f 105/105/105 103/103/103 102/102/102
f 89/89/89 100/100/100 104/104/104
f 95/95/95 93/93/93 109/109/109
f 113/113/113 95/95/95 111/111/111
f 116/116/116 114/114/114 113/113/113
f 98/98/98 99/99/99 116/116/116
f 105/105/105 48/48/48 44/44/44
f 43/43/43 106/106/106 104/104/104
f 108/108/108 51/51/51 48/48/48
f 112/112/112 58/58/58 51/51/51
f 83/83/83 20/20/20 78/78/78
f 78/78/78 12/12/12 76/76/76
f 74/74/74 76/76/76 9/9/9
f 37/37/37 80/80/80 26/26/26
f 41/41/41 32/32/32 83/83/83
f 42/42/42 119/119/119 121/121/121
f 123/123/123 122/122/122 125/125/125
f 127/127/127 18/18/18 17/17/17

