mtllib material.mtl
usemtl Material-Metal.018
v 0.03375200 -0.00210400 0.02452900
v 0.01867200 -0.02546900 0.02450800
v 0.05357200 -0.03491100 0.02453200
v -0.00389900 -0.03482300 0.02446200
v 0.05545800 0.01050700 0.02452300
v -0.03082100 0.01691500 0.02489000
v -0.03546600 -0.00114500 0.02449900
v -0.02999900 -0.01857600 0.02485600
v 0.01813900 0.02701400 0.02449900
v 0.05288700 0.03497200 0.02453300
v -0.00494100 0.03497000 0.02489500
v -0.01986200 0.02905800 0.02450000
v -0.00975200 -0.03376800 0.02000100
v 0.00076700 -0.03487700 0.01917000
v -0.01677800 -0.03096700 0.02485600
v -0.02370300 -0.02626400 0.01995400
v -0.03240200 -0.01362300 0.01997400
v -0.03541600 0.00332100 0.02001800
v -0.02891200 0.02018300 0.01997600
v -0.01511000 0.03187700 0.01996100
v 0.00042600 0.03498900 0.02003300
v -0.03017200 -0.00031900 0.01700200
v 0.00201900 0.03156100 0.01699500
v 0.00052400 -0.03137300 0.01699800
v 0.02424900 0.01874500 0.01700400
v 0.03090100 -0.00308100 0.01700300
v -0.02680000 -0.01454600 0.01703300
v -0.01615100 -0.02573500 0.01715600
v 0.02010300 -0.02274500 0.01703100
v -0.02719900 0.01387500 0.01701400
v -0.01526900 0.02626700 0.01704400
v 0.04401000 -0.03497000 0.01996700
v 0.05553400 -0.00981900 0.01996500
v 0.05297800 -0.03494500 0.01998100
v 0.04400000 0.03460000 0.02000000
v 0.05338000 0.03472700 0.01994700
v 0.04366100 0.03499600 0.02018700
v 0.00232800 -0.03480100 0.01446800
v 0.04395400 -0.03495700 0.01450600
v 0.00178600 0.03485500 0.01442300
v 0.04399800 0.03497400 0.01470400
v 0.02045000 -0.02480500 0.02503500
v 0.02766900 0.01606100 0.02500900
v 0.01862500 -0.02731500 0.01451100
v 0.03300200 -0.00713100 0.01452700
v 0.04380000 0.03480000 0.01450000
v 0.02795500 0.01793600 0.01452200
v 0.01369700 0.02976000 0.01450100
v -0.01513500 -0.02631600 0.01997200
v -0.02608100 -0.01559600 0.02001100
v -0.03055500 0.00117700 0.01998400
v -0.02180500 0.02160600 0.02013000
v -0.00328100 0.03011900 0.01998700
vn 0.02550000 -0.00270000 0.99970000
vn 0.32120000 -0.67420000 0.66500000
vn 0.58620000 -0.59280000 0.55220000
vn -0.07990000 -0.76240000 0.64220000
vn 0.77220000 0.03510000 0.63450000
vn -0.67750000 0.33810000 0.65320000
vn -0.79530000 -0.06270000 0.60300000
vn -0.65090000 -0.40940000 0.63930000
vn 0.02710000 0.02610000 0.99930000
vn 0.51360000 0.61750000 0.59580000
vn -0.13610000 0.76840000 0.62540000
vn -0.48550000 0.64880000 0.58600000
vn -0.25350000 -0.74670000 -0.61500000
vn -0.25710000 -0.91940000 -0.29750000
vn -0.36670000 -0.67750000 0.63760000
vn -0.53550000 -0.58510000 -0.60900000
vn -0.71800000 -0.26840000 -0.64220000
vn -0.78240000 0.11930000 -0.61130000
vn -0.60850000 0.46130000 -0.64570000
vn -0.32040000 0.69840000 -0.64000000
vn -0.25110000 0.94390000 -0.21460000
vn -0.71860000 -0.05670000 -0.69310000
vn -0.20150000 -0.32390000 -0.92440000
vn -0.35170000 -0.10810000 -0.92980000
vn -0.34480000 -0.31610000 -0.88390000
vn -0.52250000 -0.03540000 -0.85190000
vn -0.70050000 -0.33670000 -0.62920000
vn -0.44170000 -0.63560000 -0.63310000
vn -0.37800000 0.32890000 -0.86540000
vn -0.79550000 0.36370000 -0.48460000
vn -0.38330000 0.76070000 -0.52390000
vn 0.30060000 -0.90650000 -0.29630000
vn 0.77300000 -0.02960000 -0.63370000
vn 0.50450000 -0.61010000 -0.61090000
vn 0.59510000 0.41390000 -0.68890000
vn 0.58560000 0.57360000 -0.57280000
vn 0.15060000 0.98060000 -0.12580000
vn -0.43280000 -0.47890000 -0.76380000
vn 0.57330000 -0.57810000 -0.58060000
vn -0.42100000 0.43530000 -0.79570000
vn 0.65850000 0.65190000 -0.37620000
vn 0.75140000 -0.62370000 0.21540000
vn 0.87460000 0.47840000 0.07830000
vn -0.15070000 0.24160000 -0.95860000
vn -0.24680000 0.07620000 -0.96610000
vn 0.30240000 0.33380000 -0.89280000
vn -0.25540000 -0.13400000 -0.95750000
vn -0.12920000 -0.23060000 -0.96440000
vn -0.31680000 -0.56350000 -0.76300000
vn -0.53780000 -0.34940000 -0.76730000
vn -0.59240000 0.03750000 -0.80480000
vn -0.36220000 0.35300000 -0.86270000
vn -0.33270000 0.61060000 -0.71870000
vt 0.00000000 0.00000000
vt 0.00000000 0.00000000
vt 0.00000000 0.00000000
vt 0.00000000 0.00000000
vt 0.00000000 0.00000000
vt 0.00000000 0.00000000
vt 0.00000000 0.00000000
vt 0.00000000 0.00000000
vt 0.00000000 0.00000000
vt 0.00000000 0.00000000
vt 0.00000000 0.00000000
vt 0.00000000 0.00000000
vt 0.00000000 0.00000000
vt 0.00000000 0.00000000
vt 0.00000000 0.00000000
vt 0.00000000 0.00000000
vt 0.00000000 0.00000000
vt 0.00000000 0.00000000
vt 0.00000000 0.00000000
vt 0.00000000 0.00000000
vt 0.00000000 0.00000000
vt 0.00000000 0.00000000
vt 0.00000000 0.00000000
vt 0.00000000 0.00000000
vt 0.00000000 0.00000000
vt 0.00000000 0.00000000
vt 0.00000000 0.00000000
vt 0.00000000 0.00000000
vt 0.00000000 0.00000000
vt 0.00000000 0.00000000
vt 0.00000000 0.00000000
vt 0.00000000 0.00000000
vt 0.00000000 0.00000000
vt 0.00000000 0.00000000
vt 0.00000000 0.00000000
vt 0.00000000 0.00000000
vt 0.00000000 0.00000000
vt 0.00000000 0.00000000
vt 0.00000000 0.00000000
vt 0.00000000 0.00000000
vt 0.00000000 0.00000000
vt 0.00000000 0.00000000
vt 0.00000000 0.00000000
vt 0.00000000 0.00000000
vt 0.00000000 0.00000000
vt 0.00000000 0.00000000
vt 0.00000000 0.00000000
vt 0.00000000 0.00000000
vt 0.00000000 0.00000000
vt 0.00000000 0.00000000
vt 0.00000000 0.00000000
vt 0.00000000 0.00000000
vt 0.00000000 0.00000000
f 1/1/1 2/2/2 3/3/3
f 2/2/2 4/4/4 3/3/3
f 5/5/5 1/1/1 3/3/3
f 6/6/6 7/7/7 8/8/8
f 5/5/5 10/10/10 9/9/9
f 11/11/11 12/12/12 6/6/6
f 10/10/10 11/11/11 9/9/9
f 4/4/4 13/13/13 14/14/14
f 15/15/15 13/13/13 4/4/4
f 15/15/15 16/16/16 13/13/13
f 8/8/8 16/16/16 15/15/15
f 8/8/8 17/17/17 16/16/16
f 7/7/7 17/17/17 8/8/8
f 7/7/7 18/18/18 17/17/17
f 6/6/6 18/18/18 7/7/7
f 6/6/6 19/19/19 18/18/18
f 12/12/12 19/19/19 6/6/6
f 12/12/12 20/20/20 19/19/19
f 11/11/11 20/20/20 12/12/12
f 11/11/11 21/21/21 20/20/20
f 23/23/23 25/25/25 22/22/22
f 25/25/25 26/26/26 24/24/24
f 27/27/27 22/22/22 24/24/24
f 28/28/28 27/27/27 24/24/24
f 26/26/26 29/29/29 24/24/24
f 30/30/30 31/31/31 22/22/22
f 31/31/31 23/23/23 22/22/22
f 32/32/32 33/33/33 34/34/34
f 35/35/35 33/33/33 32/32/32
f 35/35/35 36/36/36 33/33/33
f 37/37/37 36/36/36 35/35/35
f 14/14/14 3/3/3 4/4/4
f 32/32/32 3/3/3 14/14/14
f 39/39/39 32/32/32 38/38/38
f 34/34/34 3/3/3 32/32/32
f 10/10/10 21/21/21 11/11/11
f 10/10/10 37/37/37 21/21/21
f 37/37/37 40/40/40 21/21/21
f 37/37/37 41/41/41 40/40/40
f 10/10/10 36/36/36 37/37/37
f 32/32/32 39/39/39 35/35/35
f 42/42/42 8/8/8 15/15/15
f 42/42/42 11/11/11 8/8/8
f 1/1/1 43/43/43 42/42/42
f 43/43/43 11/11/11 42/42/42
f 38/38/38 44/44/44 39/39/39
f 44/44/44 45/45/45 39/39/39
f 45/45/45 46/46/46 39/39/39
f 47/47/47 46/46/46 45/45/45
f 48/48/48 46/46/46 47/47/47
f 40/40/40 46/46/46 48/48/48
f 49/49/49 24/24/24 14/14/14
f 49/49/49 28/28/28 24/24/24
f 50/50/50 28/28/28 49/49/49
f 50/50/50 27/27/27 28/28/28
f 51/51/51 27/27/27 50/50/50
f 51/51/51 22/22/22 27/27/27
f 51/51/51 30/30/30 22/22/22
f 52/52/52 30/30/30 51/51/51
f 52/52/52 31/31/31 30/30/30
f 53/53/53 31/31/31 52/52/52
f 53/53/53 23/23/23 31/31/31
f 49/49/49 14/14/14 13/13/13
f 16/16/16 49/49/49 13/13/13
f 50/50/50 49/49/49 16/16/16
f 17/17/17 50/50/50 16/16/16
f 51/51/51 50/50/50 17/17/17
f 18/18/18 51/51/51 17/17/17
f 19/19/19 51/51/51 18/18/18
f 19/19/19 52/52/52 51/51/51
f 20/20/20 52/52/52 19/19/19
f 20/20/20 53/53/53 52/52/52
f 20/20/20 21/21/21 53/53/53
f 40/40/40 23/23/23 53/53/53
f 21/21/21 40/40/40 53/53/53
f 24/24/24 38/38/38 14/14/14
f 34/34/34 33/33/33 3/3/3
f 33/33/33 5/5/5 3/3/3
f 33/33/33 36/36/36 5/5/5
f 36/36/36 10/10/10 5/5/5
f 24/24/24 44/44/44 38/38/38
f 29/29/29 44/44/44 24/24/24
f 29/29/29 45/45/45 44/44/44
f 26/26/26 45/45/45 29/29/29
f 25/25/25 47/47/47 26/26/26
f 47/47/47 45/45/45 26/26/26
f 23/23/23 48/48/48 25/25/25
f 48/48/48 47/47/47 25/25/25
f 40/40/40 48/48/48 23/23/23
f 42/42/42 15/15/15 4/4/4
f 2/2/2 42/42/42 4/4/4
f 1/1/1 42/42/42 2/2/2
f 1/1/1 9/9/9 43/43/43
f 9/9/9 11/11/11 43/43/43
f 41/41/41 46/46/46 40/40/40
f 46/46/46 41/41/41 39/39/39
f 41/41/41 37/37/37 35/35/35
f 5/5/5 9/9/9 1/1/1
f 25/25/25 24/24/24 22/22/22
f 32/32/32 14/14/14 38/38/38
f 39/39/39 41/41/41 35/35/35
f 11/11/11 6/6/6 8/8/8

