mtllib material.mtl
usemtl Material-Metal.017
v -0.02111900 -0.02915800 -0.02454100
v 0.00589000 -0.03151000 -0.02451000
v -0.00004500 -0.03504200 -0.02437700
v 0.02595800 -0.01794400 -0.02449700
v 0.05298400 -0.03495700 -0.02452600
v 0.05561900 -0.00981300 -0.02450200
v -0.01572800 -0.02725400 -0.02452000
v -0.03087600 -0.00972100 -0.02424800
v -0.03334000 -0.01193800 -0.02448200
v -0.03529500 0.00050600 -0.02425500
v 0.03152000 -0.00126000 -0.02449900
v -0.02823900 0.01475300 -0.02438400
v -0.03214200 0.01444100 -0.02452100
v 0.05370800 0.03492800 -0.02453000
v 0.02613000 0.01761600 -0.02450900
v -0.02043400 0.02914500 -0.02448700
v -0.00941100 0.03055600 -0.02454600
v 0.01168100 0.02895500 -0.02449900
v -0.00627300 0.03489200 -0.02425600
v 0.05302800 -0.03496600 -0.01998900
v 0.05555500 -0.00752200 -0.01998500
v 0.04400100 -0.03500100 -0.01995900
v 0.04400700 0.03499600 -0.01995300
v 0.05354800 0.03469500 -0.01999700
v 0.04390600 0.03492300 -0.01450500
v 0.04395600 -0.03491800 -0.01450100
v -0.01898600 -0.02822800 -0.01551000
v 0.00219600 -0.03493400 -0.01477700
v -0.01198600 -0.03254900 -0.01993700
v -0.02896800 -0.01898300 -0.01942900
v -0.03280500 -0.00637200 -0.01549100
v -0.03117500 0.01178600 -0.01561100
v 0.00235600 0.03488600 -0.01494300
v -0.02089300 0.02663400 -0.01579900
v 0.00868800 -0.02127900 -0.01462600
v -0.01069000 -0.01974500 -0.01550500
v -0.02174900 -0.00693100 -0.01546800
v -0.01702800 0.01606000 -0.01565900
v 0.00438600 0.02193400 -0.01462600
v -0.00682700 -0.01884900 -0.01299100
v 0.01554500 -0.01287800 -0.01290300
v -0.02098300 -0.00313600 -0.01294500
v 0.02282800 0.00247100 -0.01451600
v 0.01478000 0.01384100 -0.01297800
v -0.00742000 0.01897400 -0.01296000
v -0.01444700 -0.02809600 -0.01952700
v 0.00966700 -0.03092500 -0.01964600
v -0.02974900 -0.01215000 -0.01947200
v 0.02713300 -0.01593400 -0.01949700
v 0.03125900 0.00607000 -0.01947300
v -0.02901900 0.01285700 -0.01949900
v 0.02046200 0.02353300 -0.01950300
v -0.01505700 0.02770100 -0.01950100
v 0.00427200 0.03119000 -0.01947400
v -0.01866600 -0.00856000 -0.02063900
v 0.00916200 -0.01757800 -0.02100800
v -0.00123900 -0.02249300 -0.01967200
v 0.02088100 0.00625800 -0.02059700
v 0.00085800 0.02028500 -0.02040000
v -0.01919400 0.00945400 -0.01998700
v 0.01825200 -0.01082500 -0.01946800
v 0.01854600 -0.00196600 -0.02081600
v -0.00682600 0.01620700 -0.02073100
v -0.00080000 -0.02113400 -0.02075100
v -0.01784100 0.00585500 -0.02025600
v 0.01372800 0.01246000 -0.02036500
v 0.01587500 -0.00957900 -0.02013400
v 0.01922500 -0.00343500 -0.01349700
v 0.00764100 -0.01728700 -0.01349600
v -0.00716800 -0.01787500 -0.01349600
v -0.01744600 -0.00691600 -0.01350300
v -0.01851400 0.00426500 -0.01351800
v 0.00426300 0.01817200 -0.01350300
v 0.01432800 0.01263900 -0.01352200
v -0.01005300 0.01637900 -0.01349400
v 0.00643800 -0.01787800 -0.01998300
v -0.00904400 -0.01717300 -0.01996500
v 0.01878300 -0.00589400 -0.01999200
v -0.01764800 -0.00623300 -0.02000100
v -0.01807900 0.00550700 -0.02000400
v 0.01509100 0.01160000 -0.02000500
v -0.00839700 0.01749000 -0.01995500
v 0.00484700 0.01797800 -0.02000000
vn -0.52280000 -0.70070000 -0.48550000
vn -0.05350000 0.57450000 -0.81670000
vn -0.11860000 -0.75510000 -0.64480000
vn -0.47730000 0.38160000 -0.79150000
vn 0.54150000 -0.60210000 -0.58680000
vn 0.73350000 -0.03320000 -0.67890000
vn 0.33450000 0.52830000 -0.78040000
vn 0.57280000 0.14260000 -0.80720000
vn -0.83660000 -0.20120000 -0.50950000
vn -0.82870000 0.00870000 -0.55970000
vn -0.57300000 0.06170000 -0.81720000
vn 0.53260000 -0.31120000 -0.78700000
vn -0.72140000 0.34510000 -0.60050000
vn 0.57560000 0.59550000 -0.56030000
vn -0.47670000 -0.31470000 -0.82080000
vn -0.47080000 0.66710000 -0.57730000
vn 0.14290000 -0.50140000 -0.85330000
vn -0.24660000 -0.54990000 -0.79800000
vn -0.20330000 0.80540000 -0.55670000
vn 0.54890000 -0.60250000 0.57940000
vn 0.71680000 -0.00320000 0.69720000
vn 0.30100000 -0.90360000 0.30490000
vn 0.30330000 0.90380000 0.30200000
vn 0.56290000 0.56540000 0.60290000
vn 0.56950000 0.57490000 0.58750000
vn 0.57450000 -0.57300000 0.58460000
vn -0.46870000 -0.63420000 0.61500000
vn -0.11110000 -0.71250000 0.69290000
vn -0.13160000 -0.89690000 0.42210000
vn -0.79740000 -0.52050000 0.30530000
vn -0.68630000 -0.15010000 0.71170000
vn -0.62690000 0.24200000 0.74050000
vn -0.07810000 0.71170000 0.69820000
vn -0.44980000 0.53970000 0.71170000
vn 0.02840000 -0.11980000 0.99240000
vn -0.16570000 -0.21120000 0.96330000
vn -0.26750000 -0.12670000 0.95520000
vn -0.14620000 0.10560000 0.98360000
vn 0.02740000 0.15480000 0.98760000
vn -0.13220000 -0.50950000 0.85030000
vn 0.77510000 -0.48900000 0.40020000
vn -0.70500000 0.03030000 0.70860000
vn 0.09070000 0.00900000 0.99580000
vn 0.68860000 0.64310000 0.33500000
vn -0.22320000 0.71010000 0.66780000
vn 0.33000000 0.68890000 -0.64540000
vn -0.31100000 0.76340000 -0.56610000
vn 0.67120000 0.34740000 -0.65480000
vn -0.66480000 0.36890000 -0.64960000
vn -0.77600000 -0.19050000 -0.60130000
vn 0.71570000 -0.25650000 -0.64960000
vn -0.49130000 -0.58440000 -0.64580000
vn 0.44180000 -0.65320000 -0.61490000
vn -0.08970000 -0.78760000 -0.60960000
vn -0.06080000 -0.01550000 -0.99800000
vn 0.44900000 -0.77130000 -0.45110000
vn -0.00770000 -0.07500000 -0.99720000
vn 0.07430000 0.00370000 -0.99720000
vn -0.00300000 0.05310000 -0.99860000
vn -0.04720000 0.02690000 -0.99850000
vn 0.10890000 -0.05900000 -0.99230000
vn -0.99340000 -0.06400000 0.09510000
vn 0.41040000 -0.91130000 0.03410000
vn 0.50160000 0.86500000 0.01230000
vn 0.99440000 0.10430000 -0.01760000
vn -0.59760000 -0.80140000 -0.02480000
vn -0.70760000 0.69770000 -0.11190000
vn -0.78140000 0.10260000 -0.61560000
vn -0.34560000 0.68990000 -0.63600000
vn 0.26390000 0.72870000 -0.63200000
vn 0.70030000 0.30660000 -0.64460000
vn 0.75210000 -0.18070000 -0.63370000
vn -0.15450000 -0.74560000 -0.64830000
vn -0.59020000 -0.50510000 -0.62970000
vn 0.43010000 -0.64320000 -0.63350000
vn -0.26410000 0.73190000 0.62810000
vn 0.38850000 0.68730000 0.61380000
vn -0.75150000 0.28110000 0.59690000
vn 0.71140000 0.26070000 0.65260000
vn 0.72090000 -0.25340000 0.64510000
vn -0.63750000 -0.43580000 0.63540000
vn 0.32520000 -0.71970000 0.61350000
vn -0.19160000 -0.73030000 0.65570000
vt 0.00000000 0.00000000
vt 0.00000000 0.00000000
vt 0.00000000 0.00000000
vt 0.00000000 0.00000000
vt 0.00000000 0.00000000
vt 0.00000000 0.00000000
vt 0.00000000 0.00000000
vt 0.00000000 0.00000000
vt 0.00000000 0.00000000
vt 0.00000000 0.00000000
vt 0.00000000 0.00000000
vt 0.00000000 0.00000000
vt 0.00000000 0.00000000
vt 0.00000000 0.00000000
vt 0.00000000 0.00000000
vt 0.00000000 0.00000000
vt 0.00000000 0.00000000
vt 0.00000000 0.00000000
vt 0.00000000 0.00000000
vt 0.00000000 0.00000000
vt 0.00000000 0.00000000
vt 0.00000000 0.00000000
vt 0.00000000 0.00000000
vt 0.00000000 0.00000000
vt 0.00000000 0.00000000
vt 0.00000000 0.00000000
vt 0.00000000 0.00000000
vt 0.00000000 0.00000000
vt 0.00000000 0.00000000
vt 0.00000000 0.00000000
vt 0.00000000 0.00000000
vt 0.00000000 0.00000000
vt 0.00000000 0.00000000
vt 0.00000000 0.00000000
vt 0.00000000 0.00000000
vt 0.00000000 0.00000000
vt 0.00000000 0.00000000
vt 0.00000000 0.00000000
vt 0.00000000 0.00000000
vt 0.00000000 0.00000000
vt 0.00000000 0.00000000
vt 0.00000000 0.00000000
vt 0.00000000 0.00000000
vt 0.00000000 0.00000000
vt 0.00000000 0.00000000
vt 0.00000000 0.00000000
vt 0.00000000 0.00000000
vt 0.00000000 0.00000000
vt 0.00000000 0.00000000
vt 0.00000000 0.00000000
vt 0.00000000 0.00000000
vt 0.00000000 0.00000000
vt 0.00000000 0.00000000
vt 0.00000000 0.00000000
vt 0.00000000 0.00000000
vt 0.00000000 0.00000000
vt 0.00000000 0.00000000
vt 0.00000000 0.00000000
vt 0.00000000 0.00000000
vt 0.00000000 0.00000000
vt 0.00000000 0.00000000
vt 0.00000000 0.00000000
vt 0.00000000 0.00000000
vt 0.00000000 0.00000000
vt 0.00000000 0.00000000
vt 0.00000000 0.00000000
vt 0.00000000 0.00000000
vt 0.00000000 0.00000000
vt 0.00000000 0.00000000
vt 0.00000000 0.00000000
vt 0.00000000 0.00000000
vt 0.00000000 0.00000000
vt 0.00000000 0.00000000
vt 0.00000000 0.00000000
vt 0.00000000 0.00000000
vt 0.00000000 0.00000000
vt 0.00000000 0.00000000
vt 0.00000000 0.00000000
vt 0.00000000 0.00000000
vt 0.00000000 0.00000000
vt 0.00000000 0.00000000
vt 0.00000000 0.00000000
vt 0.00000000 0.00000000
f 1/1/1 7/7/7 3/3/3
f 2/2/2 4/4/4 5/5/5
f 4/4/4 6/6/6 5/5/5
f 8/8/8 7/7/7 1/1/1
f 9/9/9 8/8/8 1/1/1
f 10/10/10 8/8/8 9/9/9
f 11/11/11 6/6/6 4/4/4
f 10/10/10 12/12/12 8/8/8
f 13/13/13 12/12/12 10/10/10
f 14/14/14 6/6/6 11/11/11
f 15/15/15 14/14/14 11/11/11
f 16/16/16 12/12/12 13/13/13
f 16/16/16 17/17/17 12/12/12
f 18/18/18 14/14/14 15/15/15
f 19/19/19 14/14/14 18/18/18
f 17/17/17 19/19/19 18/18/18
f 16/16/16 19/19/19 17/17/17
f 20/20/20 21/21/21 22/22/22
f 21/21/21 23/23/23 22/22/22
f 24/24/24 23/23/23 21/21/21
f 26/26/26 22/22/22 23/23/23
f 27/27/27 3/3/3 28/28/28
f 27/27/27 29/29/29 3/3/3
f 27/27/27 30/30/30 29/29/29
f 31/31/31 30/30/30 27/27/27
f 31/31/31 10/10/10 30/30/30
f 32/32/32 10/10/10 31/31/31
f 33/33/33 19/19/19 34/34/34
f 35/35/35 36/36/36 28/28/28
f 36/36/36 37/37/37 27/27/27
f 37/37/37 31/31/31 27/27/27
f 37/37/37 32/32/32 31/31/31
f 38/38/38 32/32/32 37/37/37
f 34/34/34 32/32/32 38/38/38
f 33/33/33 34/34/34 39/39/39
f 40/40/40 36/36/36 35/35/35
f 41/41/41 40/40/40 35/35/35
f 40/40/40 42/42/42 36/36/36
f 42/42/42 37/37/37 36/36/36
f 43/43/43 41/41/41 35/35/35
f 42/42/42 38/38/38 37/37/37
f 43/43/43 44/44/44 41/41/41
f 45/45/45 38/38/38 42/42/42
f 43/43/43 39/39/39 44/44/44
f 39/39/39 45/45/45 44/44/44
f 39/39/39 38/38/38 45/45/45
f 29/29/29 1/1/1 3/3/3
f 30/30/30 1/1/1 29/29/29
f 30/30/30 9/9/9 1/1/1
f 10/10/10 9/9/9 30/30/30
f 32/32/32 13/13/13 10/10/10
f 34/34/34 13/13/13 32/32/32
f 34/34/34 16/16/16 13/13/13
f 19/19/19 16/16/16 34/34/34
f 2/2/2 46/46/46 47/47/47
f 7/7/7 46/46/46 2/2/2
f 7/7/7 48/48/48 46/46/46
f 8/8/8 48/48/48 7/7/7
f 4/4/4 2/2/2 47/47/47
f 49/49/49 4/4/4 47/47/47
f 11/11/11 4/4/4 49/49/49
f 50/50/50 11/11/11 49/49/49
f 8/8/8 51/51/51 48/48/48
f 12/12/12 51/51/51 8/8/8
f 15/15/15 11/11/11 50/50/50
f 52/52/52 15/15/15 50/50/50
f 12/12/12 53/53/53 51/51/51
f 17/17/17 53/53/53 12/12/12
f 18/18/18 15/15/15 52/52/52
f 54/54/54 18/18/18 52/52/52
f 17/17/17 54/54/54 53/53/53
f 17/17/17 18/18/18 54/54/54
f 55/55/55 56/56/56 57/57/57
f 55/55/55 59/59/59 56/56/56
f 60/60/60 59/59/59 55/55/55
f 56/56/56 61/61/61 57/57/57
f 56/56/56 58/58/58 61/61/61
f 46/46/46 57/57/57 47/47/47
f 55/55/55 57/57/57 46/46/46
f 48/48/48 55/55/55 46/46/46
f 61/61/61 49/49/49 47/47/47
f 57/57/57 61/61/61 47/47/47
f 61/61/61 50/50/50 49/49/49
f 60/60/60 55/55/55 48/48/48
f 58/58/58 50/50/50 61/61/61
f 51/51/51 60/60/60 48/48/48
f 59/59/59 52/52/52 58/58/58
f 52/52/52 50/50/50 58/58/58
f 51/51/51 53/53/53 60/60/60
f 53/53/53 59/59/59 60/60/60
f 54/54/54 52/52/52 59/59/59
f 53/53/53 54/54/54 59/59/59
f 41/41/41 42/42/42 40/40/40
f 42/42/42 41/41/41 45/45/45
f 5/5/5 22/22/22 3/3/3
f 22/22/22 28/28/28 3/3/3
f 22/22/22 26/26/26 28/28/28
f 5/5/5 20/20/20 22/22/22
f 33/33/33 23/23/23 19/19/19
f 23/23/23 14/14/14 19/19/19
f 25/25/25 23/23/23 33/33/33
f 24/24/24 14/14/14 23/23/23
f 26/26/26 35/35/35 28/28/28
f 25/25/25 43/43/43 26/26/26
f 43/43/43 35/35/35 26/26/26
f 25/25/25 33/33/33 43/43/43
f 5/5/5 6/6/6 20/20/20
f 6/6/6 21/21/21 20/20/20
f 6/6/6 14/14/14 21/21/21
f 14/14/14 24/24/24 21/21/21
f 63/63/63 65/65/65 62/62/62
f 62/62/62 66/66/66 63/63/63
f 65/65/65 66/66/66 64/64/64
f 63/63/63 66/66/66 65/65/65
f 62/62/62 64/64/64 67/67/67
f 66/66/66 62/62/62 67/67/67
f 68/68/68 69/69/69 70/70/70
f 71/71/71 68/68/68 70/70/70
f 72/72/72 75/75/75 71/71/71
f 73/73/73 74/74/74 68/68/68
f 75/75/75 73/73/73 68/68/68
f 76/76/76 77/77/77 70/70/70
f 69/69/69 76/76/76 70/70/70
f 78/78/78 76/76/76 69/69/69
f 68/68/68 78/78/78 69/69/69
f 77/77/77 71/71/71 70/70/70
f 79/79/79 71/71/71 77/77/77
f 79/79/79 72/72/72 71/71/71
f 80/80/80 72/72/72 79/79/79
f 81/81/81 78/78/78 68/68/68
f 74/74/74 81/81/81 68/68/68
f 80/80/80 75/75/75 72/72/72
f 82/82/82 75/75/75 80/80/80
f 83/83/83 81/81/81 74/74/74
f 73/73/73 83/83/83 74/74/74
f 82/82/82 73/73/73 75/75/75
f 83/83/83 73/73/73 82/82/82
f 76/76/76 78/78/78 77/77/77
f 78/78/78 79/79/79 77/77/77
f 78/78/78 82/82/82 79/79/79
f 81/81/81 83/83/83 78/78/78
f 83/83/83 82/82/82 78/78/78
f 2/2/2 5/5/5 3/3/3
f 7/7/7 2/2/2 3/3/3
f 26/26/26 23/23/23 25/25/25
f 36/36/36 27/27/27 28/28/28
f 34/34/34 38/38/38 39/39/39
f 59/59/59 58/58/58 56/56/56
f 41/41/41 44/44/44 45/45/45
f 33/33/33 39/39/39 43/43/43
f 65/65/65 64/64/64 62/62/62
f 66/66/66 67/67/67 64/64/64
f 75/75/75 68/68/68 71/71/71
f 82/82/82 80/80/80 79/79/79

