mtllib material.mtl
usemtl Material-Plastic.008
v 0.00000000 0.03650000 -0.02450000
v 0.00000000 0.03650000 0.02450000
v 0.05100000 0.03650000 -0.02450000
v 0.05100000 0.03650000 0.02450000
v 0.05291300 0.03650000 -0.02411900
v 0.05291300 0.03650000 0.02411900
v 0.05453600 0.03650000 -0.02303600
v 0.05453600 0.03650000 0.02303600
v 0.05561900 0.03650000 -0.02141300
v 0.05561900 0.03650000 0.02141300
v 0.05600000 0.03650000 -0.01950000
v 0.05600000 0.03650000 0.01950000
v -0.00633800 0.03594500 -0.02450000
v -0.00633800 0.03594500 0.02450000
v 0.00000000 0.03500000 -0.02450000
v 0.00000000 0.03500000 0.02450000
v 0.05100000 0.03500000 -0.02450000
v 0.05100000 0.03500000 0.02450000
v 0.05291300 0.03500000 -0.02411900
v 0.05291300 0.03500000 0.02411900
v 0.05453600 0.03500000 -0.02303600
v 0.05453600 0.03500000 0.02303600
v 0.05561900 0.03500000 -0.02141300
v 0.05561900 0.03500000 0.02141300
v 0.05600000 0.03500000 -0.01950000
v 0.05600000 0.03500000 0.01950000
v -0.00643100 0.03440400 -0.02450000
v -0.00643100 0.03440400 0.02450000
v -0.01248400 0.03429900 -0.02450000
v -0.01248400 0.03429900 0.02450000
v -0.01264300 0.03263700 -0.02450000
v -0.01264300 0.03263700 0.02450000
v -0.01825000 0.03161000 -0.02450000
v -0.01825000 0.03161000 0.02450000
v -0.01842500 0.02975800 -0.02450000
v -0.01842500 0.02975800 0.02450000
v -0.02346200 0.02796100 -0.02450000
v -0.02346200 0.02796100 0.02450000
v -0.02357900 0.02586500 -0.02450000
v -0.02357900 0.02586500 0.02450000
v -0.02796100 0.02346200 -0.02450000
v -0.02796100 0.02346200 0.02450000
v -0.02793100 0.02109200 -0.02450000
v -0.02793100 0.02109200 0.02450000
v -0.03161000 0.01825000 -0.02450000
v -0.03161000 0.01825000 0.02450000
v -0.03133100 0.01560100 -0.02450000
v -0.03133100 0.01560100 0.02450000
v -0.03429900 0.01248400 -0.02450000
v -0.03429900 0.01248400 0.02450000
v -0.03366400 0.00957800 -0.02450000
v -0.03366400 0.00957800 0.02450000
v -0.03594500 0.00633800 -0.02450000
v -0.03594500 0.00633800 0.02450000
v -0.03485100 0.00322900 -0.02450000
v -0.03485100 0.00322900 0.02450000
v -0.03650000 0.00000000 -0.02450000
v -0.03650000 0.00000000 0.02450000
v -0.03485100 -0.00322900 -0.02450000
v -0.03485100 -0.00322900 0.02450000
v -0.03594500 -0.00633800 -0.02450000
v -0.03594500 -0.00633800 0.02450000
v -0.03366400 -0.00957800 -0.02450000
v -0.03366400 -0.00957800 0.02450000
v -0.03429900 -0.01248400 -0.02450000
v -0.03429900 -0.01248400 0.02450000
v -0.03133100 -0.01560100 -0.02450000
v -0.03133100 -0.01560100 0.02450000
v -0.03161000 -0.01825000 -0.02450000
v -0.03161000 -0.01825000 0.02450000
v -0.02793100 -0.02109200 -0.02450000
v -0.02793100 -0.02109200 0.02450000
v -0.02796100 -0.02346200 -0.02450000
v -0.02796100 -0.02346200 0.02450000
v -0.02357900 -0.02586500 -0.02450000
v -0.02357900 -0.02586500 0.02450000
v -0.02346200 -0.02796100 -0.02450000
v -0.02346200 -0.02796100 0.02450000
v -0.01842500 -0.02975800 -0.02450000
v -0.01842500 -0.02975800 0.02450000
v -0.01825000 -0.03161000 -0.02450000
v -0.01825000 -0.03161000 0.02450000
v -0.01264300 -0.03263700 -0.02450000
v -0.01264300 -0.03263700 0.02450000
v -0.01248400 -0.03429900 -0.02450000
v -0.01248400 -0.03429900 0.02450000
v -0.00643100 -0.03440400 -0.02450000
v -0.00643100 -0.03440400 0.02450000
v 0.00000000 -0.03500000 -0.02450000
v 0.00000000 -0.03500000 0.02450000
v 0.05100000 -0.03500000 -0.02450000
v 0.05100000 -0.03500000 0.02450000
v 0.05291300 -0.03500000 -0.02411900
v 0.05291300 -0.03500000 0.02411900
v 0.05453600 -0.03500000 -0.02303600
v 0.05453600 -0.03500000 0.02303600
v 0.05561900 -0.03500000 -0.02141300
v 0.05561900 -0.03500000 0.02141300
v 0.05600000 -0.03500000 -0.01950000
v 0.05600000 -0.03500000 0.01950000
v -0.00633800 -0.03594500 -0.02450000
v -0.00633800 -0.03594500 0.02450000
v 0.00000000 -0.03650000 -0.02450000
v 0.00000000 -0.03650000 0.02450000
v 0.05100000 -0.03650000 -0.02450000
v 0.05100000 -0.03650000 0.02450000
v 0.05291300 -0.03650000 -0.02411900
v 0.05291300 -0.03650000 0.02411900
v 0.05453600 -0.03650000 -0.02303600
v 0.05453600 -0.03650000 0.02303600
v 0.05561900 -0.03650000 -0.02141300
v 0.05561900 -0.03650000 0.02141300
v 0.05600000 -0.03650000 -0.01950000
v 0.05600000 -0.03650000 0.01950000
vn -0.03130000 0.71600000 -0.69740000
vn -0.03130000 0.71600000 0.69740000
vn 0.07130000 0.68570000 -0.72440000
vn 0.07130000 0.68570000 0.72440000
vn 0.28560000 0.66570000 -0.68940000
vn 0.28560000 0.66570000 0.68940000
vn 0.52760000 0.66570000 -0.52760000
vn 0.52760000 0.66570000 0.52760000
vn 0.68940000 0.66570000 -0.28560000
vn 0.68940000 0.66570000 0.28560000
vn 0.72440000 0.68570000 -0.07130000
vn 0.72440000 0.68570000 0.07130000
vn -0.12600000 0.71470000 -0.68800000
vn -0.12600000 0.71470000 0.68800000
vn 0.03220000 -0.69570000 -0.71770000
vn 0.03220000 -0.69570000 0.71770000
vn 0.07130000 -0.68570000 -0.72440000
vn 0.07130000 -0.68570000 0.72440000
vn 0.28560000 -0.66570000 -0.68940000
vn 0.28560000 -0.66570000 0.68940000
vn 0.52760000 -0.66570000 -0.52760000
vn 0.52760000 -0.66570000 0.52760000
vn 0.68940000 -0.66570000 -0.28560000
vn 0.68940000 -0.66570000 0.28560000
vn 0.72440000 -0.68570000 -0.07130000
vn 0.72440000 -0.68570000 0.07130000
vn 0.12590000 -0.67340000 -0.72850000
vn 0.12590000 -0.67340000 0.72850000
vn -0.24820000 0.68190000 -0.68800000
vn -0.24820000 0.68190000 0.68800000
vn 0.24750000 -0.63880000 -0.72850000
vn 0.24750000 -0.63880000 0.72850000
vn -0.36290000 0.62850000 -0.68800000
vn -0.36290000 0.62850000 0.68800000
vn 0.36060000 -0.58250000 -0.72850000
vn 0.36060000 -0.58250000 0.72850000
vn -0.46650000 0.55590000 -0.68800000
vn -0.46650000 0.55590000 0.68800000
vn 0.46150000 -0.50630000 -0.72850000
vn 0.46150000 -0.50630000 0.72850000
vn -0.55590000 0.46650000 -0.68800000
vn -0.55590000 0.46650000 0.68800000
vn 0.54670000 -0.41280000 -0.72850000
vn 0.54670000 -0.41280000 0.72850000
vn -0.62850000 0.36290000 -0.68800000
vn -0.62850000 0.36290000 0.68800000
vn 0.61330000 -0.30540000 -0.72850000
vn 0.61330000 -0.30540000 0.72850000
vn -0.68190000 0.24820000 -0.68800000
vn -0.68190000 0.24820000 0.68800000
vn 0.65890000 -0.18750000 -0.72850000
vn 0.65890000 -0.18750000 0.72850000
vn -0.71470000 0.12600000 -0.68800000
vn -0.71470000 0.12600000 0.68800000
vn 0.68210000 -0.06320000 -0.72850000
vn 0.68210000 -0.06320000 0.72850000
vn -0.72570000 -0.00000000 -0.68800000
vn -0.72570000 -0.00000000 0.68800000
vn 0.68210000 0.06320000 -0.72850000
vn 0.68210000 0.06320000 0.72850000
vn -0.71470000 -0.12600000 -0.68800000
vn -0.71470000 -0.12600000 0.68800000
vn 0.65890000 0.18750000 -0.72850000
vn 0.65890000 0.18750000 0.72850000
vn -0.68190000 -0.24820000 -0.68800000
vn -0.68190000 -0.24820000 0.68800000
vn 0.61330000 0.30540000 -0.72850000
vn 0.61330000 0.30540000 0.72850000
vn -0.62850000 -0.36290000 -0.68800000
vn -0.62850000 -0.36290000 0.68800000
vn 0.54670000 0.41280000 -0.72850000
vn 0.54670000 0.41280000 0.72850000
vn -0.55590000 -0.46650000 -0.68800000
vn -0.55590000 -0.46650000 0.68800000
vn 0.46150000 0.50630000 -0.72850000
vn 0.46150000 0.50630000 0.72850000
vn -0.46650000 -0.55590000 -0.68800000
vn -0.46650000 -0.55590000 0.68800000
vn 0.36060000 0.58250000 -0.72850000
vn 0.36060000 0.58250000 0.72850000
vn -0.36290000 -0.62850000 -0.68800000
vn -0.36290000 -0.62850000 0.68800000
vn 0.24750000 0.63880000 -0.72850000
vn 0.24750000 0.63880000 0.72850000
vn -0.24820000 -0.68190000 -0.68800000
vn -0.24820000 -0.68190000 0.68800000
vn 0.12590000 0.67340000 -0.72850000
vn 0.12590000 0.67340000 0.72850000
vn 0.03220000 0.69570000 -0.71770000
vn 0.03220000 0.69570000 0.71770000
vn 0.07130000 0.68570000 -0.72440000
vn 0.07130000 0.68570000 0.72440000
vn 0.28560000 0.66570000 -0.68940000
vn 0.28560000 0.66570000 0.68940000
vn 0.52760000 0.66570000 -0.52760000
vn 0.52760000 0.66570000 0.52760000
vn 0.68940000 0.66570000 -0.28560000
vn 0.68940000 0.66570000 0.28560000
vn 0.72440000 0.68570000 -0.07130000
vn 0.72440000 0.68570000 0.07130000
vn -0.12600000 -0.71470000 -0.68800000
vn -0.12600000 -0.71470000 0.68800000
vn -0.03130000 -0.71600000 -0.69740000
vn -0.03130000 -0.71600000 0.69740000
vn 0.07130000 -0.68570000 -0.72440000
vn 0.07130000 -0.68570000 0.72440000
vn 0.28560000 -0.66570000 -0.68940000
vn 0.28560000 -0.66570000 0.68940000
vn 0.52760000 -0.66570000 -0.52760000
vn 0.52760000 -0.66570000 0.52760000
vn 0.68940000 -0.66570000 -0.28560000
vn 0.68940000 -0.66570000 0.28560000
vn 0.72440000 -0.68570000 -0.07130000
vn 0.72440000 -0.68570000 0.07130000
vt 0.00000000 0.00000000
vt 0.00000000 0.00000000
vt 0.00000000 0.00000000
vt 0.00000000 0.00000000
vt 0.00000000 0.00000000
vt 0.00000000 0.00000000
vt 0.00000000 0.00000000
vt 0.00000000 0.00000000
vt 0.00000000 0.00000000
vt 0.00000000 0.00000000
vt 0.00000000 0.00000000
vt 0.00000000 0.00000000
vt 0.00000000 0.00000000
vt 0.00000000 0.00000000
vt 0.00000000 0.00000000
vt 0.00000000 0.00000000
vt 0.00000000 0.00000000
vt 0.00000000 0.00000000
vt 0.00000000 0.00000000
vt 0.00000000 0.00000000
vt 0.00000000 0.00000000
vt 0.00000000 0.00000000
vt 0.00000000 0.00000000
vt 0.00000000 0.00000000
vt 0.00000000 0.00000000
vt 0.00000000 0.00000000
vt 0.00000000 0.00000000
vt 0.00000000 0.00000000
vt 0.00000000 0.00000000
vt 0.00000000 0.00000000
vt 0.00000000 0.00000000
vt 0.00000000 0.00000000
vt 0.00000000 0.00000000
vt 0.00000000 0.00000000
vt 0.00000000 0.00000000
vt 0.00000000 0.00000000
vt 0.00000000 0.00000000
vt 0.00000000 0.00000000
vt 0.00000000 0.00000000
vt 0.00000000 0.00000000
vt 0.00000000 0.00000000
vt 0.00000000 0.00000000
vt 0.00000000 0.00000000
vt 0.00000000 0.00000000
vt 0.00000000 0.00000000
vt 0.00000000 0.00000000
vt 0.00000000 0.00000000
vt 0.00000000 0.00000000
vt 0.00000000 0.00000000
vt 0.00000000 0.00000000
vt 0.00000000 0.00000000
vt 0.00000000 0.00000000
vt 0.00000000 0.00000000
vt 0.00000000 0.00000000
vt 0.00000000 0.00000000
vt 0.00000000 0.00000000
vt 0.00000000 0.00000000
vt 0.00000000 0.00000000
vt 0.00000000 0.00000000
vt 0.00000000 0.00000000
vt 0.00000000 0.00000000
vt 0.00000000 0.00000000
vt 0.00000000 0.00000000
vt 0.00000000 0.00000000
vt 0.00000000 0.00000000
vt 0.00000000 0.00000000
vt 0.00000000 0.00000000
vt 0.00000000 0.00000000
vt 0.00000000 0.00000000
vt 0.00000000 0.00000000
vt 0.00000000 0.00000000
vt 0.00000000 0.00000000
vt 0.00000000 0.00000000
vt 0.00000000 0.00000000
vt 0.00000000 0.00000000
vt 0.00000000 0.00000000
vt 0.00000000 0.00000000
vt 0.00000000 0.00000000
vt 0.00000000 0.00000000
vt 0.00000000 0.00000000
vt 0.00000000 0.00000000
vt 0.00000000 0.00000000
vt 0.00000000 0.00000000
vt 0.00000000 0.00000000
vt 0.00000000 0.00000000
vt 0.00000000 0.00000000
vt 0.00000000 0.00000000
vt 0.00000000 0.00000000
vt 0.00000000 0.00000000
vt 0.00000000 0.00000000
vt 0.00000000 0.00000000
vt 0.00000000 0.00000000
vt 0.00000000 0.00000000
vt 0.00000000 0.00000000
vt 0.00000000 0.00000000
vt 0.00000000 0.00000000
vt 0.00000000 0.00000000
vt 0.00000000 0.00000000
vt 0.00000000 0.00000000
vt 0.00000000 0.00000000
vt 0.00000000 0.00000000
vt 0.00000000 0.00000000
vt 0.00000000 0.00000000
vt 0.00000000 0.00000000
vt 0.00000000 0.00000000
vt 0.00000000 0.00000000
vt 0.00000000 0.00000000
vt 0.00000000 0.00000000
vt 0.00000000 0.00000000
vt 0.00000000 0.00000000
vt 0.00000000 0.00000000
vt 0.00000000 0.00000000
vt 0.00000000 0.00000000
vt 0.00000000 0.00000000
f 28/28/28 27/27/27 16/16/16
f 28/28/28 31/31/31 27/27/27
f 32/32/32 31/31/31 28/28/28
f 32/32/32 35/35/35 31/31/31
f 36/36/36 35/35/35 32/32/32
f 36/36/36 39/39/39 35/35/35
f 40/40/40 39/39/39 36/36/36
f 40/40/40 43/43/43 39/39/39
f 44/44/44 43/43/43 40/40/40
f 44/44/44 47/47/47 43/43/43
f 48/48/48 47/47/47 44/44/44
f 48/48/48 51/51/51 47/47/47
f 52/52/52 51/51/51 48/48/48
f 52/52/52 55/55/55 51/51/51
f 56/56/56 55/55/55 52/52/52
f 56/56/56 59/59/59 55/55/55
f 60/60/60 59/59/59 56/56/56
f 60/60/60 63/63/63 59/59/59
f 64/64/64 63/63/63 60/60/60
f 64/64/64 67/67/67 63/63/63
f 68/68/68 67/67/67 64/64/64
f 68/68/68 71/71/71 67/67/67
f 72/72/72 71/71/71 68/68/68
f 72/72/72 75/75/75 71/71/71
f 76/76/76 75/75/75 72/72/72
f 76/76/76 79/79/79 75/75/75
f 80/80/80 79/79/79 76/76/76
f 80/80/80 83/83/83 79/79/79
f 84/84/84 83/83/83 80/80/80
f 84/84/84 87/87/87 83/83/83
f 88/88/88 87/87/87 84/84/84
f 88/88/88 89/89/89 87/87/87
f 90/90/90 89/89/89 88/88/88
f 90/90/90 100/100/100 89/89/89
f 100/100/100 99/99/99 89/89/89
f 99/99/99 91/91/91 89/89/89
f 92/92/92 100/100/100 90/90/90
f 99/99/99 93/93/93 91/91/91
f 94/94/94 100/100/100 92/92/92
f 99/99/99 95/95/95 93/93/93
f 96/96/96 100/100/100 94/94/94
f 99/99/99 97/97/97 95/95/95
f 98/98/98 100/100/100 96/96/96
f 100/100/100 113/113/113 99/99/99
f 114/114/114 113/113/113 100/100/100
f 105/105/105 114/114/114 103/103/103
f 114/114/114 104/104/104 103/103/103
f 114/114/114 106/106/106 104/104/104
f 107/107/107 113/113/113 105/105/105
f 113/113/113 114/114/114 105/105/105
f 110/110/110 108/108/108 106/106/106
f 114/114/114 110/110/110 106/106/106
f 109/109/109 111/111/111 107/107/107
f 111/111/111 113/113/113 107/107/107
f 114/114/114 112/112/112 110/110/110
f 13/13/13 2/2/2 1/1/1
f 13/13/13 14/14/14 2/2/2
f 29/29/29 14/14/14 13/13/13
f 29/29/29 30/30/30 14/14/14
f 33/33/33 30/30/30 29/29/29
f 33/33/33 34/34/34 30/30/30
f 37/37/37 34/34/34 33/33/33
f 37/37/37 38/38/38 34/34/34
f 41/41/41 38/38/38 37/37/37
f 41/41/41 42/42/42 38/38/38
f 45/45/45 42/42/42 41/41/41
f 45/45/45 46/46/46 42/42/42
f 49/49/49 46/46/46 45/45/45
f 49/49/49 50/50/50 46/46/46
f 53/53/53 50/50/50 49/49/49
f 53/53/53 54/54/54 50/50/50
f 57/57/57 54/54/54 53/53/53
f 57/57/57 58/58/58 54/54/54
f 61/61/61 58/58/58 57/57/57
f 61/61/61 62/62/62 58/58/58
f 65/65/65 62/62/62 61/61/61
f 65/65/65 66/66/66 62/62/62
f 69/69/69 66/66/66 65/65/65
f 69/69/69 70/70/70 66/66/66
f 73/73/73 70/70/70 69/69/69
f 73/73/73 74/74/74 70/70/70
f 77/77/77 74/74/74 73/73/73
f 77/77/77 78/78/78 74/74/74
f 81/81/81 78/78/78 77/77/77
f 81/81/81 82/82/82 78/78/78
f 85/85/85 82/82/82 81/81/81
f 85/85/85 86/86/86 82/82/82
f 101/101/101 86/86/86 85/85/85
f 101/101/101 102/102/102 86/86/86
f 103/103/103 102/102/102 101/101/101
f 103/103/103 104/104/104 102/102/102
f 2/2/2 12/12/12 1/1/1
f 12/12/12 11/11/11 1/1/1
f 11/11/11 3/3/3 1/1/1
f 4/4/4 12/12/12 2/2/2
f 11/11/11 5/5/5 3/3/3
f 6/6/6 12/12/12 4/4/4
f 11/11/11 7/7/7 5/5/5
f 8/8/8 12/12/12 6/6/6
f 11/11/11 9/9/9 7/7/7
f 10/10/10 12/12/12 8/8/8
f 12/12/12 25/25/25 11/11/11
f 26/26/26 25/25/25 12/12/12
f 17/17/17 26/26/26 15/15/15
f 26/26/26 16/16/16 15/15/15
f 26/26/26 18/18/18 16/16/16
f 19/19/19 25/25/25 17/17/17
f 25/25/25 26/26/26 17/17/17
f 22/22/22 20/20/20 18/18/18
f 26/26/26 22/22/22 18/18/18
f 21/21/21 23/23/23 19/19/19
f 23/23/23 25/25/25 19/19/19
f 26/26/26 24/24/24 22/22/22
f 3/3/3 17/17/17 1/1/1
f 17/17/17 15/15/15 1/1/1
f 15/15/15 13/13/13 1/1/1
f 15/15/15 27/27/27 13/13/13
f 27/27/27 29/29/29 13/13/13
f 31/31/31 29/29/29 27/27/27
f 31/31/31 33/33/33 29/29/29
f 35/35/35 33/33/33 31/31/31
f 35/35/35 37/37/37 33/33/33
f 39/39/39 37/37/37 35/35/35
f 39/39/39 41/41/41 37/37/37
f 43/43/43 41/41/41 39/39/39
f 43/43/43 45/45/45 41/41/41
f 47/47/47 45/45/45 43/43/43
f 47/47/47 49/49/49 45/45/45
f 51/51/51 49/49/49 47/47/47
f 51/51/51 53/53/53 49/49/49
f 55/55/55 53/53/53 51/51/51
f 55/55/55 57/57/57 53/53/53
f 59/59/59 57/57/57 55/55/55
f 59/59/59 61/61/61 57/57/57
f 63/63/63 65/65/65 59/59/59
f 65/65/65 61/61/61 59/59/59
f 67/67/67 69/69/69 63/63/63
f 69/69/69 65/65/65 63/63/63
f 71/71/71 73/73/73 67/67/67
f 73/73/73 69/69/69 67/67/67
f 75/75/75 77/77/77 71/71/71
f 77/77/77 73/73/73 71/71/71
f 79/79/79 81/81/81 75/75/75
f 81/81/81 77/77/77 75/75/75
f 83/83/83 85/85/85 79/79/79
f 85/85/85 81/81/81 79/79/79
f 87/87/87 101/101/101 83/83/83
f 101/101/101 85/85/85 83/83/83
f 89/89/89 103/103/103 87/87/87
f 103/103/103 101/101/101 87/87/87
f 91/91/91 105/105/105 89/89/89
f 105/105/105 103/103/103 89/89/89
f 16/16/16 4/4/4 2/2/2
f 28/28/28 16/16/16 2/2/2
f 14/14/14 28/28/28 2/2/2
f 16/16/16 18/18/18 4/4/4
f 32/32/32 28/28/28 14/14/14
f 30/30/30 32/32/32 14/14/14
f 36/36/36 32/32/32 30/30/30
f 34/34/34 36/36/36 30/30/30
f 40/40/40 36/36/36 34/34/34
f 38/38/38 40/40/40 34/34/34
f 44/44/44 40/40/40 38/38/38
f 42/42/42 44/44/44 38/38/38
f 48/48/48 44/44/44 42/42/42
f 46/46/46 48/48/48 42/42/42
f 52/52/52 48/48/48 46/46/46
f 50/50/50 52/52/52 46/46/46
f 56/56/56 52/52/52 50/50/50
f 54/54/54 56/56/56 50/50/50
f 60/60/60 56/56/56 54/54/54
f 58/58/58 60/60/60 54/54/54
f 62/62/62 60/60/60 58/58/58
f 62/62/62 64/64/64 60/60/60
f 66/66/66 64/64/64 62/62/62
f 66/66/66 68/68/68 64/64/64
f 70/70/70 68/68/68 66/66/66
f 70/70/70 72/72/72 68/68/68
f 74/74/74 72/72/72 70/70/70
f 74/74/74 76/76/76 72/72/72
f 78/78/78 76/76/76 74/74/74
f 78/78/78 80/80/80 76/76/76
f 82/82/82 80/80/80 78/78/78
f 82/82/82 84/84/84 80/80/80
f 86/86/86 84/84/84 82/82/82
f 86/86/86 88/88/88 84/84/84
f 102/102/102 88/88/88 86/86/86
f 102/102/102 90/90/90 88/88/88
f 104/104/104 92/92/92 90/90/90
f 102/102/102 104/104/104 90/90/90
f 104/104/104 106/106/106 92/92/92
f 93/93/93 105/105/105 91/91/91
f 95/95/95 107/107/107 93/93/93
f 107/107/107 105/105/105 93/93/93
f 97/97/97 109/109/109 95/95/95
f 109/109/109 107/107/107 95/95/95
f 99/99/99 111/111/111 97/97/97
f 111/111/111 109/109/109 97/97/97
f 113/113/113 111/111/111 99/99/99
f 108/108/108 94/94/94 92/92/92
f 106/106/106 108/108/108 92/92/92
f 110/110/110 96/96/96 94/94/94
f 108/108/108 110/110/110 94/94/94
f 112/112/112 98/98/98 96/96/96
f 110/110/110 112/112/112 96/96/96
f 114/114/114 100/100/100 98/98/98
f 112/112/112 114/114/114 98/98/98
f 20/20/20 6/6/6 4/4/4
f 18/18/18 20/20/20 4/4/4
f 22/22/22 8/8/8 6/6/6
f 20/20/20 22/22/22 6/6/6
f 24/24/24 10/10/10 8/8/8
f 22/22/22 24/24/24 8/8/8
f 26/26/26 12/12/12 10/10/10
f 24/24/24 26/26/26 10/10/10
f 5/5/5 17/17/17 3/3/3
f 7/7/7 19/19/19 5/5/5
f 19/19/19 17/17/17 5/5/5
f 9/9/9 21/21/21 7/7/7
f 21/21/21 19/19/19 7/7/7
f 11/11/11 23/23/23 9/9/9
f 23/23/23 21/21/21 9/9/9
f 25/25/25 23/23/23 11/11/11
f 16/16/16 27/27/27 15/15/15

