mtllib material.mtl
usemtl Material-Metal.021
v 0.40840500 -0.03502800 0.02009400
v 0.40983000 -0.03068200 0.02006000
v 0.42388500 -0.03367400 0.02009900
v 0.40562000 -0.02453000 0.02004200
v 0.43384500 -0.01653900 0.02002500
v 0.43843500 -0.02503300 0.02010000
v 0.44739500 -0.00987800 0.02002600
v 0.44313200 -0.00926300 0.02006300
v 0.43107500 -0.00282300 0.02002300
v 0.44329300 0.00600500 0.02009800
v 0.44252800 0.00947800 0.02009300
v 0.42775400 0.01156000 0.02003700
v 0.43144100 0.01501300 0.02002000
v 0.43990700 0.02345400 0.02005600
v 0.44743300 0.00937500 0.01997300
v 0.42776500 0.03208100 0.02008100
v 0.42927700 0.02383400 0.02006900
v 0.40526600 0.02445600 0.02004700
v 0.40942500 0.02961500 0.02006900
v 0.40872000 0.03496100 0.02001900
v 0.41586300 0.03502100 0.02015600
v 0.38838000 -0.02424500 0.02003700
v 0.38546400 -0.02022400 0.01999400
v 0.38864300 -0.01407500 0.01999800
v 0.38470700 -0.00316100 0.01999600
v 0.38514300 0.00400900 0.02000000
v 0.38843500 0.01320600 0.02000100
v 0.38569000 0.01989500 0.02000000
v 0.38825900 0.02414900 0.02002800
v 0.41991800 -0.02334100 0.02450100
v 0.37142800 -0.03495300 0.02452800
v 0.41765700 -0.03491900 0.02452500
v 0.40256800 -0.02336000 0.02450100
v 0.39251400 -0.02365200 0.02450400
v 0.36948500 -0.01842700 0.02450800
v 0.43098900 -0.02315700 0.02450600
v 0.43235900 -0.02987900 0.02458500
v 0.44353200 -0.01814100 0.02447300
v 0.40307400 -0.01763900 0.02449200
v 0.39155400 -0.01779900 0.02450100
v 0.43037900 -0.01739100 0.02450400
v 0.42012600 -0.01747800 0.02450100
v 0.44803200 -0.00536400 0.02450300
v 0.40345800 0.01814700 0.02449900
v 0.36919800 0.00699100 0.02450000
v 0.39160000 0.01762500 0.02450000
v 0.43132700 0.01800800 0.02450200
v 0.42063000 0.01749000 0.02450600
v 0.44218300 0.02082100 0.02450700
v 0.37136500 0.03478700 0.02450200
v 0.41966200 0.02317700 0.02450000
v 0.43007300 0.02361300 0.02452100
v 0.40233100 0.02359300 0.02450700
v 0.39243300 0.02354700 0.02450700
v 0.41655700 0.03491400 0.02451900
v 0.42871300 0.03193600 0.02451500
v 0.37135300 -0.03494600 0.02000600
v 0.36918100 -0.01393700 0.01997700
v 0.38040000 -0.03480000 0.02000000
v 0.38040000 0.03480000 0.02000000
v 0.36927700 0.01603500 0.01997800
v 0.37139300 0.03497000 0.01997200
v 0.38060000 -0.03500000 0.02020000
v 0.40534900 -0.03487300 0.01501600
v 0.38038400 -0.03499500 0.01506300
v 0.44838800 -0.00492500 0.02403000
v 0.44767500 -0.00841300 0.01234000
v 0.44792900 0.00777400 0.01207000
v 0.44732900 0.00859200 0.02430000
v 0.37136100 0.03499300 0.02432300
v 0.38060000 0.03500000 0.02020000
v 0.40452500 0.03499600 0.01501400
v 0.38040400 0.03500800 0.01503100
v 0.44321100 0.00830800 0.01235300
v 0.44309200 -0.00780300 0.01212800
v 0.38721400 -0.02777100 0.01500400
v 0.40377000 -0.02805100 0.01499100
v 0.38207800 -0.02100900 0.01504300
v 0.38131800 -0.00375600 0.01500900
v 0.38494200 -0.01383100 0.01496100
v 0.38217300 0.02143500 0.01508300
v 0.38425700 0.01396300 0.01490500
v 0.38761900 0.02787100 0.01501100
v 0.40533800 0.02877200 0.01490900
v 0.36905600 0.01164400 0.02431900
v 0.40332600 -0.01820900 0.02199700
v 0.39172800 -0.02300200 0.02201600
v 0.40174400 -0.02359900 0.02200700
v 0.39292200 -0.01735600 0.02202500
v 0.43123500 -0.01801200 0.02201800
v 0.41942900 -0.02295400 0.02205000
v 0.42974900 -0.02362100 0.02202000
v 0.42104600 -0.01739500 0.02202900
v 0.43102600 0.02299100 0.02200600
v 0.41969800 0.01800600 0.02200000
v 0.42984100 0.01734800 0.02203800
v 0.42105100 0.02362400 0.02202000
v 0.40235600 0.02338600 0.02203400
v 0.39279000 0.01744000 0.02202200
v 0.40273500 0.01766500 0.02203700
v 0.39183500 0.02340200 0.02199800
vn 0.27160000 -0.88040000 -0.38880000
vn 0.31410000 0.04690000 -0.94820000
vn 0.23760000 -0.73700000 -0.63280000
vn 0.15130000 0.27820000 -0.94850000
vn 0.00220000 -0.00300000 -1.00000000
vn 0.56510000 -0.55150000 -0.61360000
vn 0.79330000 -0.56000000 -0.23890000
vn -0.30190000 -0.28090000 -0.91100000
vn 0.00250000 0.00110000 -1.00000000
vn -0.72140000 -0.05990000 -0.68990000
vn -0.24910000 0.20250000 -0.94710000
vn 0.00170000 -0.00260000 -1.00000000
vn 0.00210000 -0.00130000 -1.00000000
vn 0.54320000 0.53250000 -0.64920000
vn 0.83810000 0.49920000 -0.22000000
vn 0.28550000 0.66900000 -0.68630000
vn -0.00000000 0.00350000 -1.00000000
vn 0.12800000 -0.30430000 -0.94390000
vn 0.34330000 -0.07270000 -0.93640000
vn 0.23710000 0.71750000 -0.65490000
vn 0.08210000 0.73660000 -0.67130000
vn 0.26400000 0.47260000 -0.84080000
vn 0.56160000 0.03850000 -0.82650000
vn 0.34730000 -0.02250000 -0.93750000
vn 0.50490000 0.07180000 -0.86020000
vn 0.52150000 -0.09320000 -0.84820000
vn 0.34010000 -0.00060000 -0.94040000
vn 0.53540000 -0.02170000 -0.84430000
vn 0.28110000 -0.45950000 -0.84250000
vn 0.28610000 0.33190000 0.89890000
vn -0.53510000 -0.60600000 0.58850000
vn 0.09190000 -0.75680000 0.64710000
vn -0.31140000 0.30780000 0.89900000
vn 0.25150000 0.39110000 0.88530000
vn -0.71900000 -0.05850000 0.69250000
vn -0.30560000 0.25760000 0.91670000
vn 0.41240000 -0.66580000 0.62180000
vn 0.66540000 -0.39980000 0.63050000
vn -0.27180000 -0.28460000 0.91930000
vn 0.29110000 -0.22130000 0.93070000
vn -0.25700000 -0.38490000 0.88640000
vn 0.28820000 -0.28720000 0.91350000
vn 0.55090000 -0.13360000 0.82380000
vn -0.31510000 0.20120000 0.92750000
vn -0.52660000 -0.00520000 0.85010000
vn 0.26940000 0.22380000 0.93670000
vn -0.30480000 0.20750000 0.92950000
vn 0.26230000 0.41610000 0.87060000
vn 0.64090000 0.43230000 0.63430000
vn -0.58030000 0.29980000 0.75720000
vn 0.29790000 -0.22730000 0.92720000
vn -0.24820000 -0.41970000 0.87310000
vn -0.27680000 -0.36000000 0.89090000
vn 0.28550000 -0.40130000 0.87030000
vn 0.09770000 0.72420000 0.68270000
vn 0.33970000 0.68580000 0.64360000
vn -0.54700000 -0.60360000 -0.58000000
vn -0.72650000 -0.02590000 -0.68670000
vn -0.58990000 -0.56670000 -0.57520000
vn -0.58730000 0.56570000 -0.57890000
vn -0.72360000 0.05520000 -0.68800000
vn -0.53920000 0.60280000 -0.58810000
vn -0.10620000 -0.98930000 -0.09990000
vn 0.36190000 -0.59120000 -0.72080000
vn -0.57840000 -0.57940000 -0.57430000
vn 0.95040000 -0.07660000 0.30150000
vn 0.54740000 -0.57270000 -0.61010000
vn 0.59970000 0.48590000 -0.63580000
vn 0.72860000 0.16410000 0.66500000
vn -0.59390000 0.73350000 0.33060000
vn -0.10710000 0.98870000 -0.10460000
vn 0.29990000 0.64920000 -0.69900000
vn -0.57750000 0.57790000 -0.57660000
vn -0.57460000 0.55430000 -0.60210000
vn -0.61010000 -0.47630000 -0.63320000
vn 0.14280000 0.30220000 -0.94250000
vn 0.29070000 0.43190000 -0.85380000
vn 0.32680000 0.04500000 -0.94400000
vn 0.38840000 0.05080000 -0.92010000
vn 0.52600000 -0.02370000 -0.85020000
vn 0.34350000 -0.06850000 -0.93670000
vn 0.47570000 0.03410000 -0.87900000
vn 0.13900000 -0.31980000 -0.93720000
vn 0.41240000 -0.34210000 -0.84430000
vn -0.83270000 0.03190000 0.55270000
vn -0.67690000 -0.42580000 0.60040000
vn 0.66430000 0.48470000 0.56900000
vn -0.39100000 0.67290000 0.62790000
vn 0.35430000 -0.69910000 0.62110000
vn -0.69120000 -0.46860000 0.55020000
vn 0.68620000 0.46490000 0.55950000
vn -0.35510000 0.70490000 0.61410000
vn 0.37490000 -0.65930000 0.65180000
vn -0.66480000 -0.49690000 0.55780000
vn 0.67740000 0.49420000 0.54490000
vn -0.35820000 0.71480000 0.60070000
vn 0.35370000 -0.69340000 0.62780000
vn -0.52430000 -0.59060000 0.61340000
vn 0.37320000 0.66790000 0.64390000
vn -0.51160000 0.62820000 0.58610000
vn 0.62240000 -0.55910000 0.54770000
vt 0.00000000 0.00000000
vt 0.00000000 0.00000000
vt 0.00000000 0.00000000
vt 0.00000000 0.00000000
vt 0.00000000 0.00000000
vt 0.00000000 0.00000000
vt 0.00000000 0.00000000
vt 0.00000000 0.00000000
vt 0.00000000 0.00000000
vt 0.00000000 0.00000000
vt 0.00000000 0.00000000
vt 0.00000000 0.00000000
vt 0.00000000 0.00000000
vt 0.00000000 0.00000000
vt 0.00000000 0.00000000
vt 0.00000000 0.00000000
vt 0.00000000 0.00000000
vt 0.00000000 0.00000000
vt 0.00000000 0.00000000
vt 0.00000000 0.00000000
vt 0.00000000 0.00000000
vt 0.00000000 0.00000000
vt 0.00000000 0.00000000
vt 0.00000000 0.00000000
vt 0.00000000 0.00000000
vt 0.00000000 0.00000000
vt 0.00000000 0.00000000
vt 0.00000000 0.00000000
vt 0.00000000 0.00000000
vt 0.00000000 0.00000000
vt 0.00000000 0.00000000
vt 0.00000000 0.00000000
vt 0.00000000 0.00000000
vt 0.00000000 0.00000000
vt 0.00000000 0.00000000
vt 0.00000000 0.00000000
vt 0.00000000 0.00000000
vt 0.00000000 0.00000000
vt 0.00000000 0.00000000
vt 0.00000000 0.00000000
vt 0.00000000 0.00000000
vt 0.00000000 0.00000000
vt 0.00000000 0.00000000
vt 0.00000000 0.00000000
vt 0.00000000 0.00000000
vt 0.00000000 0.00000000
vt 0.00000000 0.00000000
vt 0.00000000 0.00000000
vt 0.00000000 0.00000000
vt 0.00000000 0.00000000
vt 0.00000000 0.00000000
vt 0.00000000 0.00000000
vt 0.00000000 0.00000000
vt 0.00000000 0.00000000
vt 0.00000000 0.00000000
vt 0.00000000 0.00000000
vt 0.00000000 0.00000000
vt 0.00000000 0.00000000
vt 0.00000000 0.00000000
vt 0.00000000 0.00000000
vt 0.00000000 0.00000000
vt 0.00000000 0.00000000
vt 0.00000000 0.00000000
vt 0.00000000 0.00000000
vt 0.00000000 0.00000000
vt 0.00000000 0.00000000
vt 0.00000000 0.00000000
vt 0.00000000 0.00000000
vt 0.00000000 0.00000000
vt 0.00000000 0.00000000
vt 0.00000000 0.00000000
vt 0.00000000 0.00000000
vt 0.00000000 0.00000000
vt 0.00000000 0.00000000
vt 0.00000000 0.00000000
vt 0.00000000 0.00000000
vt 0.00000000 0.00000000
vt 0.00000000 0.00000000
vt 0.00000000 0.00000000
vt 0.00000000 0.00000000
vt 0.00000000 0.00000000
vt 0.00000000 0.00000000
vt 0.00000000 0.00000000
vt 0.00000000 0.00000000
vt 0.00000000 0.00000000
vt 0.00000000 0.00000000
vt 0.00000000 0.00000000
vt 0.00000000 0.00000000
vt 0.00000000 0.00000000
vt 0.00000000 0.00000000
vt 0.00000000 0.00000000
vt 0.00000000 0.00000000
vt 0.00000000 0.00000000
vt 0.00000000 0.00000000
vt 0.00000000 0.00000000
vt 0.00000000 0.00000000
vt 0.00000000 0.00000000
vt 0.00000000 0.00000000
vt 0.00000000 0.00000000
vt 0.00000000 0.00000000
vt 0.00000000 0.00000000
f 1/1/1 2/2/2 3/3/3
f 4/4/4 5/5/5 3/3/3
f 2/2/2 4/4/4 3/3/3
f 5/5/5 6/6/6 3/3/3
f 7/7/7 6/6/6 5/5/5
f 8/8/8 7/7/7 5/5/5
f 9/9/9 8/8/8 5/5/5
f 9/9/9 10/10/10 8/8/8
f 9/9/9 12/12/12 10/10/10
f 12/12/12 13/13/13 11/11/11
f 14/14/14 15/15/15 11/11/11
f 13/13/13 14/14/14 11/11/11
f 13/13/13 17/17/17 14/14/14
f 18/18/18 16/16/16 17/17/17
f 19/19/19 16/16/16 18/18/18
f 20/20/20 21/21/21 19/19/19
f 21/21/21 16/16/16 19/19/19
f 22/22/22 5/5/5 4/4/4
f 23/23/23 5/5/5 22/22/22
f 24/24/24 5/5/5 23/23/23
f 24/24/24 25/25/25 5/5/5
f 26/26/26 9/9/9 25/25/25
f 13/13/13 12/12/12 27/27/27
f 12/12/12 9/9/9 26/26/26
f 27/27/27 28/28/28 13/13/13
f 28/28/28 29/29/29 13/13/13
f 29/29/29 18/18/18 13/13/13
f 18/18/18 17/17/17 13/13/13
f 30/30/30 31/31/31 32/32/32
f 30/30/30 33/33/33 31/31/31
f 33/33/33 34/34/34 31/31/31
f 34/34/34 35/35/35 31/31/31
f 32/32/32 37/37/37 30/30/30
f 38/38/38 36/36/36 37/37/37
f 30/30/30 42/42/42 39/39/39
f 40/40/40 35/35/35 34/34/34
f 38/38/38 41/41/41 36/36/36
f 38/38/38 43/43/43 41/41/41
f 44/44/44 39/39/39 42/42/42
f 45/45/45 35/35/35 40/40/40
f 46/46/46 45/45/45 40/40/40
f 44/44/44 42/42/42 41/41/41
f 43/43/43 48/48/48 41/41/41
f 44/44/44 46/46/46 39/39/39
f 47/47/47 48/48/48 43/43/43
f 49/49/49 47/47/47 43/43/43
f 46/46/46 50/50/50 45/45/45
f 51/51/51 44/44/44 48/48/48
f 52/52/52 47/47/47 49/49/49
f 53/53/53 44/44/44 51/51/51
f 54/54/54 50/50/50 46/46/46
f 55/55/55 53/53/53 51/51/51
f 56/56/56 55/55/55 51/51/51
f 49/49/49 56/56/56 52/52/52
f 55/55/55 54/54/54 53/53/53
f 55/55/55 50/50/50 54/54/54
f 57/57/57 58/58/58 59/59/59
f 58/58/58 60/60/60 59/59/59
f 61/61/61 60/60/60 58/58/58
f 62/62/62 60/60/60 61/61/61
f 32/32/32 1/1/1 3/3/3
f 31/31/31 63/63/63 32/32/32
f 63/63/63 1/1/1 32/32/32
f 63/63/63 64/64/64 1/1/1
f 63/63/63 65/65/65 64/64/64
f 31/31/31 57/57/57 63/63/63
f 3/3/3 37/37/37 32/32/32
f 6/6/6 37/37/37 3/3/3
f 6/6/6 38/38/38 37/37/37
f 7/7/7 38/38/38 6/6/6
f 66/66/66 38/38/38 7/7/7
f 67/67/67 66/66/66 7/7/7
f 68/68/68 66/66/66 67/67/67
f 68/68/68 69/69/69 66/66/66
f 15/15/15 49/49/49 69/69/69
f 68/68/68 15/15/15 69/69/69
f 14/14/14 49/49/49 15/15/15
f 14/14/14 56/56/56 49/49/49
f 16/16/16 56/56/56 14/14/14
f 21/21/21 55/55/55 16/16/16
f 21/21/21 70/70/70 55/55/55
f 71/71/71 21/21/21 20/20/20
f 72/72/72 71/71/71 20/20/20
f 71/71/71 70/70/70 21/21/21
f 73/73/73 71/71/71 72/72/72
f 62/62/62 70/70/70 71/71/71
f 8/8/8 10/10/10 75/75/75
f 75/75/75 68/68/68 67/67/67
f 74/74/74 68/68/68 75/75/75
f 60/60/60 73/73/73 65/65/65
f 59/59/59 60/60/60 65/65/65
f 65/65/65 76/76/76 64/64/64
f 76/76/76 77/77/77 64/64/64
f 78/78/78 76/76/76 65/65/65
f 79/79/79 78/78/78 65/65/65
f 73/73/73 79/79/79 65/65/65
f 79/79/79 80/80/80 78/78/78
f 73/73/73 81/81/81 79/79/79
f 81/81/81 82/82/82 79/79/79
f 73/73/73 83/83/83 81/81/81
f 73/73/73 72/72/72 83/83/83
f 31/31/31 35/35/35 57/57/57
f 35/35/35 58/58/58 57/57/57
f 35/35/35 85/85/85 58/58/58
f 85/85/85 61/61/61 58/58/58
f 85/85/85 50/50/50 61/61/61
f 70/70/70 62/62/62 61/61/61
f 86/86/86 89/89/89 88/88/88
f 33/33/33 86/86/86 88/88/88
f 39/39/39 86/86/86 33/33/33
f 40/40/40 34/34/34 87/87/87
f 89/89/89 40/40/40 87/87/87
f 39/39/39 89/89/89 86/86/86
f 40/40/40 89/89/89 39/39/39
f 87/87/87 34/34/34 88/88/88
f 34/34/34 33/33/33 88/88/88
f 90/90/90 93/93/93 92/92/92
f 36/36/36 90/90/90 92/92/92
f 41/41/41 90/90/90 36/36/36
f 93/93/93 42/42/42 91/91/91
f 42/42/42 30/30/30 91/91/91
f 41/41/41 93/93/93 90/90/90
f 42/42/42 93/93/93 41/41/41
f 91/91/91 30/30/30 92/92/92
f 30/30/30 36/36/36 92/92/92
f 94/94/94 97/97/97 96/96/96
f 47/47/47 94/94/94 96/96/96
f 52/52/52 94/94/94 47/47/47
f 51/51/51 48/48/48 95/95/95
f 97/97/97 51/51/51 95/95/95
f 52/52/52 97/97/97 94/94/94
f 51/51/51 97/97/97 52/52/52
f 95/95/95 48/48/48 96/96/96
f 48/48/48 47/47/47 96/96/96
f 98/98/98 101/101/101 99/99/99
f 44/44/44 98/98/98 100/100/100
f 53/53/53 98/98/98 44/44/44
f 101/101/101 46/46/46 99/99/99
f 54/54/54 46/46/46 101/101/101
f 53/53/53 54/54/54 98/98/98
f 99/99/99 46/46/46 100/100/100
f 46/46/46 44/44/44 100/100/100
f 84/84/84 19/19/19 18/18/18
f 84/84/84 72/72/72 20/20/20
f 83/83/83 84/84/84 29/29/29
f 81/81/81 28/28/28 82/82/82
f 81/81/81 29/29/29 28/28/28
f 81/81/81 83/83/83 29/29/29
f 28/28/28 27/27/27 82/82/82
f 80/80/80 79/79/79 25/25/25
f 79/79/79 26/26/26 25/25/25
f 82/82/82 26/26/26 79/79/79
f 82/82/82 27/27/27 26/26/26
f 80/80/80 24/24/24 23/23/23
f 76/76/76 78/78/78 22/22/22
f 78/78/78 80/80/80 23/23/23
f 22/22/22 4/4/4 77/77/77
f 76/76/76 22/22/22 77/77/77
f 64/64/64 2/2/2 1/1/1
f 77/77/77 2/2/2 64/64/64
f 4/4/4 2/2/2 77/77/77
f 67/67/67 7/7/7 8/8/8
f 74/74/74 15/15/15 68/68/68
f 74/74/74 11/11/11 15/15/15
f 11/11/11 74/74/74 10/10/10
f 62/62/62 71/71/71 60/60/60
f 60/60/60 71/71/71 73/73/73
f 57/57/57 59/59/59 63/63/63
f 63/63/63 59/59/59 65/65/65
f 66/66/66 43/43/43 38/38/38
f 66/66/66 69/69/69 43/43/43
f 69/69/69 49/49/49 43/43/43
f 45/45/45 85/85/85 35/35/35
f 50/50/50 85/85/85 45/45/45
f 70/70/70 50/50/50 55/55/55
f 12/12/12 11/11/11 10/10/10
f 17/17/17 16/16/16 14/14/14
f 9/9/9 5/5/5 25/25/25
f 12/12/12 26/26/26 27/27/27
f 37/37/37 36/36/36 30/30/30
f 30/30/30 39/39/39 33/33/33
f 48/48/48 44/44/44 41/41/41
f 46/46/46 40/40/40 39/39/39
f 56/56/56 51/51/51 52/52/52
f 55/55/55 56/56/56 16/16/16
f 10/10/10 74/74/74 75/75/75
f 72/72/72 84/84/84 83/83/83
f 50/50/50 70/70/70 61/61/61
f 89/89/89 87/87/87 88/88/88
f 93/93/93 91/91/91 92/92/92
f 97/97/97 95/95/95 96/96/96
f 98/98/98 99/99/99 100/100/100
f 54/54/54 101/101/101 98/98/98
f 84/84/84 20/20/20 19/19/19
f 84/84/84 18/18/18 29/29/29
f 80/80/80 25/25/25 24/24/24
f 78/78/78 23/23/23 22/22/22
f 67/67/67 8/8/8 75/75/75

