mtllib material.mtl
usemtl Material-Plastic.009
v 0.35239000 0.03583100 0.01870400
v 0.35239000 0.03583100 0.01870400
v 0.35234500 0.01786100 0.03703300
v 0.35239900 -0.00304400 0.03988400
v 0.35239900 -0.00304400 0.03988400
v 0.35239900 -0.00304400 0.03988400
v 0.35239900 -0.00304400 0.03988400
v 0.35239900 -0.00304400 0.03988400
v 0.35239900 -0.00304400 0.03988400
v 0.35239900 -0.00304400 0.03988400
v 0.35239900 -0.00304400 0.03988400
v 0.35239900 -0.00304400 0.03988400
v 0.35239900 -0.00304400 0.03988400
v 0.35239900 -0.00304400 0.03988400
v 0.35240000 0.03988400 0.00304400
v 0.35240000 0.03988400 0.00304400
v 0.07199000 0.02047900 0.03535800
v 0.07200000 0.03637300 0.01735900
v 0.07200000 0.03637300 0.01735900
v 0.07200700 -0.00304400 0.03988400
v 0.07200700 -0.00304400 0.03988400
v 0.07200700 -0.00304400 0.03988400
v 0.07200700 -0.00304400 0.03988400
v 0.07200700 -0.00304400 0.03988400
v 0.07200700 -0.00304400 0.03988400
v 0.07200700 -0.00304400 0.03988400
v 0.07200700 -0.00304400 0.03988400
v 0.07200700 -0.00304400 0.03988400
v 0.35234500 0.03703300 -0.01786100
v 0.35234500 0.03703300 -0.01786100
v 0.35240000 -0.03301800 -0.02257800
v 0.07200000 -0.03301800 -0.02257800
v 0.07200000 -0.02605000 -0.03035500
v 0.35240000 -0.02605000 -0.03035500
v 0.35239100 -0.03975300 -0.00792600
v 0.07199900 -0.03989300 -0.00639400
v 0.35239000 0.01870400 -0.03583100
v 0.35239000 0.01870400 -0.03583100
v 0.35240000 0.00304400 -0.03988400
v 0.35240000 0.00304400 -0.03988400
v 0.35239000 -0.01211100 -0.03856200
v 0.35239000 -0.01211100 -0.03856200
v 0.35240000 -0.02605000 -0.03035500
v 0.35240000 -0.02605000 -0.03035500
v 0.35240000 -0.03301800 -0.02257800
v 0.35240000 -0.03301800 -0.02257800
v 0.07200000 0.03988400 0.00304400
v 0.07200000 0.03988400 0.00304400
v 0.07199000 0.03535800 -0.02047900
v 0.07199000 0.03535800 -0.02047900
v 0.07200000 0.01735900 -0.03637300
v 0.07200000 0.01735900 -0.03637300
v 0.35239000 -0.03856200 0.01211100
v 0.07200000 -0.03799500 0.01344500
v 0.35240300 -0.02524500 0.03219700
v 0.35239000 -0.03856200 0.01211100
v 0.35239000 -0.03856200 0.01211100
v 0.07200000 0.00304400 -0.03988400
v 0.07200000 -0.03799500 0.01344500
v 0.07200000 -0.03799500 0.01344500
v 0.07205700 -0.02322200 0.03381100
v 0.35240300 -0.02524500 0.03219700
v 0.07205700 -0.02322200 0.03381100
v 0.35239100 -0.03975300 -0.00792600
v 0.35239100 -0.03975300 -0.00792600
v 0.07200000 -0.01344500 -0.03799500
v 0.07199900 -0.03989300 -0.00639400
v 0.07199900 -0.03989300 -0.00639400
v 0.07200000 -0.02605000 -0.03035500
v 0.07200000 -0.02605000 -0.03035500
v 0.07200000 -0.03301800 -0.02257800
v 0.07200000 -0.03301800 -0.02257800
v 0.35239900 -0.00304400 0.03988400
v 0.07200700 -0.00304400 0.03988400
v 0.35234500 0.01786100 0.03703300
v 0.07199000 0.02047900 0.03535800
v 0.35239000 0.03583100 0.01870400
v 0.07200000 0.03637300 0.01735900
v 0.35240000 0.03988400 0.00304400
v 0.07200000 0.03988400 0.00304400
v 0.35234500 0.03703300 -0.01786100
v 0.07199000 0.03535800 -0.02047900
v 0.35239000 0.01870400 -0.03583100
v 0.07200000 0.01735900 -0.03637300
v 0.35240000 0.00304400 -0.03988400
v 0.07200000 0.00304400 -0.03988400
v 0.35239000 -0.01211100 -0.03856200
v 0.07200000 -0.01344500 -0.03799500
vn 1.00000000 0.00340000 0.00580000
vn 1.00000000 0.00070000 0.00080000
vn 1.00000000 0.00340000 0.00580000
vn 1.00000000 0.00340000 0.00580000
vn 1.00000000 0.00070000 0.00080000
vn 1.00000000 -0.00200000 -0.00240000
vn 1.00000000 0.00060000 0.00010000
vn 1.00000000 0.00200000 0.00050000
vn 1.00000000 -0.00070000 -0.00000000
vn 1.00000000 0.00060000 -0.00020000
vn 1.00000000 -0.00000000 -0.00000000
vn 1.00000000 0.00050000 -0.00090000
vn 1.00000000 -0.00060000 0.00030000
vn 1.00000000 -0.00030000 0.00010000
vn 1.00000000 0.00070000 0.00080000
vn 1.00000000 -0.00200000 -0.00240000
vn -1.00000000 -0.00100000 -0.00140000
vn -1.00000000 -0.00020000 -0.00000000
vn -1.00000000 -0.00100000 -0.00140000
vn -1.00000000 -0.00000000 0.00010000
vn -1.00000000 -0.00020000 -0.00000000
vn -1.00000000 -0.00050000 -0.00000000
vn -1.00000000 0.00020000 0.00040000
vn -1.00000000 0.00020000 0.00010000
vn -1.00000000 -0.00430000 0.00590000
vn -1.00000000 -0.00100000 -0.00140000
vn -1.00000000 0.00010000 0.00010000
vn -1.00000000 0.00020000 -0.00000000
vn 1.00000000 -0.00200000 -0.00240000
vn 1.00000000 0.00200000 0.00050000
vn -0.00000000 -0.83600000 -0.54870000
vn -0.00080000 -0.84370000 -0.53690000
vn -0.00000000 -0.63850000 -0.76960000
vn 0.00030000 -0.63370000 -0.77350000
vn 0.00040000 -0.98270000 -0.18500000
vn -0.00160000 -0.98830000 -0.15250000
vn 1.00000000 0.00060000 0.00010000
vn 1.00000000 0.00200000 0.00050000
vn 1.00000000 -0.00070000 -0.00000000
vn 1.00000000 0.00060000 0.00010000
vn 1.00000000 0.00060000 -0.00020000
vn 1.00000000 -0.00070000 -0.00000000
vn 1.00000000 -0.00000000 -0.00000000
vn 1.00000000 0.00060000 -0.00020000
vn 1.00000000 -0.00000000 -0.00000000
vn 1.00000000 -0.00060000 0.00030000
vn -1.00000000 0.00020000 0.00040000
vn -1.00000000 -0.00020000 -0.00000000
vn -1.00000000 -0.00050000 -0.00000000
vn -1.00000000 0.00020000 0.00040000
vn -1.00000000 -0.00000000 0.00010000
vn -1.00000000 -0.00050000 -0.00000000
vn 0.00090000 -0.94850000 0.31680000
vn -0.00200000 -0.93550000 0.35320000
vn 1.00000000 0.00050000 -0.00090000
vn 1.00000000 0.00050000 -0.00090000
vn 1.00000000 -0.00030000 0.00010000
vn -1.00000000 -0.00000000 0.00010000
vn -1.00000000 0.00020000 0.00010000
vn -1.00000000 -0.00430000 0.00590000
vn -1.00000000 -0.00430000 0.00590000
vn 0.00200000 -0.61310000 0.79000000
vn -0.00120000 -0.57860000 0.81560000
vn 1.00000000 -0.00030000 0.00010000
vn 1.00000000 -0.00060000 0.00030000
vn -1.00000000 -0.00000000 0.00010000
vn -1.00000000 0.00020000 -0.00000000
vn -1.00000000 0.00020000 0.00010000
vn -1.00000000 -0.00000000 0.00010000
vn -1.00000000 0.00010000 0.00010000
vn -1.00000000 0.00020000 -0.00000000
vn -1.00000000 0.00010000 0.00010000
vn 0.00150000 -0.09800000 0.99520000
vn -0.00200000 -0.05220000 0.99860000
vn 0.00120000 0.44800000 0.89400000
vn -0.00290000 0.49650000 0.86800000
vn 0.00150000 0.87100000 0.49130000
vn -0.00090000 0.88630000 0.46300000
vn 0.00030000 0.99830000 0.05870000
vn -0.00200000 0.99960000 0.02650000
vn 0.00120000 0.89400000 -0.44800000
vn -0.00290000 0.86810000 -0.49650000
vn 0.00150000 0.49130000 -0.87100000
vn -0.00090000 0.46300000 -0.88630000
vn 0.00030000 0.08280000 -0.99660000
vn -0.00070000 0.06360000 -0.99800000
vn 0.00030000 -0.30440000 -0.95250000
vn -0.00070000 -0.32400000 -0.94610000
vt 20.37665000 21.74711000
vt 20.37665000 21.74711000
vt 20.56402000 20.69200900
vt 21.21727900 20.10116000
vt 21.21727900 20.10116000
vt 21.21727900 20.10116000
vt 21.21727900 20.10116000
vt 21.21727900 20.10116000
vt 21.21727900 20.10116000
vt 21.21727900 20.10116000
vt 21.21727900 20.10116000
vt 21.21727900 20.10116000
vt 21.21727900 20.10116000
vt 21.21727900 20.10116000
vt 20.60610000 22.38220000
vt 20.60610000 22.38220000
vt 20.51329000 22.30839000
vt 20.38966900 21.31363900
vt 20.38966900 21.31363900
vt 21.21727900 23.01865000
vt 21.21727900 23.01865000
vt 21.21727900 23.01865000
vt 21.21727900 23.01865000
vt 21.21727900 23.01865000
vt 21.21727900 23.01865000
vt 21.21727900 23.01865000
vt 21.21727900 23.01865000
vt 21.21727900 23.01865000
vt 21.19690900 23.03547900
vt 21.19690900 23.03547900
vt 20.87329900 16.67470000
vt 20.87329900 28.38049900
vt 30.92820000 28.38049900
vt 30.92820000 16.67470000
vt 21.54697000 16.67510000
vt 21.60903900 28.38056000
vt 22.25201000 23.22284900
vt 22.25201000 23.22284900
vt 22.88710000 22.99339900
vt 22.88710000 22.99339900
vt 23.37822000 22.59079000
vt 23.37822000 22.59079000
vt 23.66519900 21.97950000
vt 23.66519900 21.97950000
vt 23.72209900 21.54730000
vt 23.72209900 21.54730000
vt 20.60610000 20.73760000
vt 20.60610000 20.73760000
vt 21.31631900 20.03367000
vt 21.31631900 20.03367000
vt 22.31112900 19.91008000
vt 22.31112900 19.91008000
vt 22.38361900 16.67514000
vt 22.44257000 28.38049900
vt 22.16345000 19.84285900
vt 23.09569000 20.22127900
vt 23.09569000 20.22127900
vt 22.88710000 20.12640000
vt 23.04467000 22.93117000
vt 23.04467000 22.93117000
vt 22.05568900 23.28488000
vt 23.38884000 16.67458900
vt 23.49165000 28.37786900
vt 23.60882000 20.88369000
vt 23.60882000 20.88369000
vt 23.41082000 20.58008000
vt 23.57758900 22.29225900
vt 23.57758900 22.29225900
vt 23.66519900 21.14040000
vt 23.66519900 21.14040000
vt 23.72209900 21.57250000
vt 23.72209900 21.57250000
vt 24.37060000 16.67474900
vt 24.37060000 28.38020900
vt 25.24988900 16.67724000
vt 25.37319000 28.38095900
vt 26.31816900 16.67514000
vt 26.37715000 28.38049900
vt 26.99359900 16.67470000
vt 26.99359900 28.38049900
vt 27.87288900 16.67724000
vt 27.99618900 28.38095900
vt 28.94117000 16.67514000
vt 29.00014900 28.38049900
vt 29.61660000 16.67470000
vt 29.61660000 28.38049900
vt 30.25265900 16.67514000
vt 30.31164000 28.38049900
f 1/1/1 3/3/3 4/4/4
f 2/2/2 5/5/5 15/15/15
f 17/17/17 19/19/19 26/26/26
f 16/16/16 6/6/6 29/29/29
f 33/33/33 34/34/34 31/31/31
f 35/35/35 36/36/36 32/32/32
f 30/30/30 8/8/8 38/38/38
f 7/7/7 40/40/40 37/37/37
f 9/9/9 42/42/42 39/39/39
f 10/10/10 44/44/44 41/41/41
f 11/11/11 45/45/45 43/43/43
f 21/21/21 18/18/18 48/48/48
f 23/23/23 47/47/47 50/50/50
f 22/22/22 49/49/49 52/52/52
f 53/53/53 54/54/54 36/36/36
f 55/55/55 56/56/56 12/12/12
f 58/58/58 20/20/20 51/51/51
f 60/60/60 61/61/61 25/25/25
f 62/62/62 63/63/63 54/54/54
f 57/57/57 64/64/64 14/14/14
f 66/66/66 20/20/20 58/58/58
f 68/68/68 59/59/59 24/24/24
f 65/65/65 46/46/46 13/13/13
f 69/69/69 20/20/20 66/66/66
f 67/67/67 28/28/28 71/71/71
f 72/72/72 27/27/27 70/70/70
f 73/73/73 74/74/74 63/63/63
f 75/75/75 76/76/76 74/74/74
f 77/77/77 78/78/78 76/76/76
f 79/79/79 80/80/80 78/78/78
f 81/81/81 82/82/82 80/80/80
f 83/83/83 84/84/84 82/82/82
f 85/85/85 86/86/86 84/84/84
f 87/87/87 88/88/88 86/86/86
f 34/34/34 33/33/33 88/88/88
f 33/33/33 31/31/31 32/32/32
f 35/35/35 32/32/32 31/31/31
f 53/53/53 36/36/36 35/35/35
f 62/62/62 54/54/54 53/53/53
f 73/73/73 63/63/63 62/62/62
f 75/75/75 74/74/74 73/73/73
f 77/77/77 76/76/76 75/75/75
f 79/79/79 78/78/78 77/77/77
f 81/81/81 80/80/80 79/79/79
f 83/83/83 82/82/82 81/81/81
f 85/85/85 84/84/84 83/83/83
f 87/87/87 86/86/86 85/85/85
f 34/34/34 88/88/88 87/87/87

