mtllib material.mtl
usemtl Material-Metal.012
v -0.03741500 0.02503800 0.42743900
v -0.03744100 0.02590700 0.42772000
v -0.03907500 0.02312500 0.42812300
v -0.04447000 0.02629200 0.42766000
v -0.04355300 0.02381600 0.42777500
v -0.04222400 0.02278900 0.42822500
v -0.04452400 0.02660900 0.42724000
v -0.03771600 0.02726400 0.42718600
v -0.03941000 0.02929300 0.42705900
v -0.04251900 0.02935000 0.42712500
v -0.04271200 0.02902700 0.42688500
v -0.04366900 0.02764600 0.41950200
v -0.04464000 0.02783200 0.41946300
v -0.04503300 0.02517500 0.41994700
v -0.04095000 0.01897400 0.38721700
v -0.03817100 0.01579000 0.38777700
v -0.04195800 0.01479200 0.38794300
v -0.04470000 0.01703800 0.38755700
v -0.03653900 0.01938500 0.38713200
v -0.04493400 0.02075200 0.38691400
v -0.03933500 0.02297300 0.38652700
v -0.04263900 0.02282700 0.38655100
v -0.04462200 0.02220300 0.38901300
v -0.04580300 0.01949700 0.38953700
v -0.04250400 0.01499000 0.39027400
v -0.03937000 0.01490000 0.39035400
v -0.04247000 0.02388600 0.38890200
v -0.04461200 0.01644300 0.39005800
v -0.03714300 0.01668700 0.38996800
v -0.03940400 0.02374700 0.38878500
v -0.03728700 0.02233000 0.38898200
v -0.03616700 0.01939200 0.38952500
v -0.03842200 0.01545300 0.39020500
v -0.04226000 0.01485600 0.39049400
v -0.04484600 0.01680300 0.39002900
v -0.03669600 0.01761500 0.38991000
v -0.04534000 0.01948200 0.38926700
v -0.03660700 0.01973300 0.38925400
v -0.04459300 0.02171100 0.38931800
v -0.03691400 0.02185500 0.38915800
v -0.03960600 0.02389400 0.38890300
v -0.04160500 0.01515300 0.39032600
v -0.03780900 0.01632100 0.39014500
v -0.04435300 0.01680800 0.39004800
v -0.03794800 0.02237000 0.38904800
v -0.04251900 0.02337000 0.38888000
v -0.03980200 0.02339200 0.38887400
v -0.04041600 0.01618700 0.39604900
v -0.04008600 0.01758200 0.40554200
v -0.04243300 0.01776900 0.40579800
v -0.03789100 0.01852000 0.40439600
v -0.03649600 0.02279400 0.40372500
v -0.03770800 0.02311600 0.39474400
v -0.03690300 0.02443500 0.40465000
v -0.03841300 0.02593900 0.40429700
v -0.04030100 0.02674800 0.40420000
v -0.03990300 0.02447500 0.39442200
v -0.04330900 0.01684800 0.39567100
v -0.04480000 0.01954600 0.40536400
v -0.03783800 0.01744000 0.39552700
v -0.04488900 0.01875100 0.39526800
v -0.03654800 0.02081900 0.40403200
v -0.04544400 0.02147100 0.40393700
v -0.03679700 0.01944500 0.39531000
v -0.04516400 0.02086400 0.39485200
v -0.04507500 0.02388200 0.40353500
v -0.03680700 0.02123100 0.39485900
v -0.04436600 0.02286000 0.39445600
v -0.04337800 0.02569500 0.40319800
v -0.04246600 0.02424600 0.39427000
v -0.04131000 0.01761400 0.40647700
v -0.04342600 0.01835000 0.40676400
v -0.04531000 0.02051700 0.40561400
v -0.03810100 0.01836500 0.40498700
v -0.03828500 0.02627800 0.40529900
v -0.04547900 0.02282300 0.40396200
v -0.04193300 0.02664900 0.40444500
v -0.03632900 0.02249300 0.40459200
v -0.03669900 0.02047700 0.40425800
v -0.04419900 0.02512600 0.40349200
v -0.04062400 0.02061300 0.41332600
v -0.04318400 0.02143600 0.41317200
v -0.04287300 0.01898300 0.41362300
v -0.03756800 0.02018500 0.41340300
v -0.03812800 0.02221500 0.41304500
v -0.04574700 0.02337300 0.41285100
v -0.03631400 0.02253000 0.41278800
v -0.04366700 0.02496000 0.41254800
v -0.03735000 0.02652000 0.41229000
v -0.03885500 0.02559400 0.41245100
v -0.04367300 0.02732600 0.41214600
v -0.04088500 0.02634900 0.41231500
v -0.04003300 0.02796900 0.41182600
v -0.04231400 0.01895000 0.41297700
v -0.03995000 0.01890600 0.41302500
v -0.04398900 0.01993500 0.41281700
v -0.03787100 0.01986300 0.41282600
v -0.04553900 0.02214200 0.41242300
v -0.04321600 0.01884300 0.41126500
v -0.04127700 0.01781700 0.40768600
v -0.03871800 0.01827400 0.40746800
v -0.04357100 0.01913800 0.41134000
v -0.04523200 0.02533000 0.41188200
v -0.04518300 0.02026900 0.40713200
v -0.04396600 0.01906700 0.40906800
v -0.03673500 0.02033400 0.40725200
v -0.03651700 0.02483000 0.41193100
v -0.04565200 0.02288300 0.40682000
v -0.04298300 0.02763200 0.41143800
v -0.03619400 0.02265600 0.40685400
v -0.03785000 0.02690900 0.41155000
v -0.04481700 0.02514200 0.40632500
v -0.03703300 0.02505100 0.40643800
v -0.04213000 0.02704000 0.40596400
v -0.03901400 0.02668800 0.40613400
v -0.04245900 0.01822600 0.40952600
v -0.04095000 0.02611100 0.42769300
v -0.04112300 0.02180100 0.42557900
v -0.04375400 0.02367200 0.42558300
v -0.04492100 0.02576800 0.42489100
v -0.03729300 0.02677400 0.42459700
v -0.04239300 0.02919900 0.42429500
v -0.03973600 0.02925800 0.42449300
v -0.04380800 0.02260800 0.42513500
v -0.04376400 0.02833400 0.42424100
v -0.03844200 0.02871700 0.42410900
v -0.03702800 0.02575900 0.41983700
v -0.03714200 0.02371600 0.42017900
v -0.03828500 0.02778100 0.41948900
v -0.04105200 0.02881400 0.41929100
v -0.03786000 0.02098500 0.42068800
v -0.04119800 0.02077000 0.42071800
v -0.04219100 0.02017300 0.42082000
v -0.03847000 0.02148900 0.42058200
v -0.04409600 0.02207600 0.42052800
v -0.04539600 0.02271600 0.42037500
v -0.03594900 0.02435700 0.41993200
v -0.03642400 0.02692100 0.41949900
v -0.04023700 0.02953800 0.41917300
v -0.03990700 0.01977900 0.42056300
v -0.04338800 0.02032100 0.42049600
v -0.03694600 0.02162000 0.42026100
v -0.04542800 0.02234300 0.42013500
v -0.04596600 0.02513500 0.41962600
v -0.04509100 0.02755500 0.41921600
v -0.03852000 0.02911500 0.41894900
v -0.04214000 0.02959600 0.41887600
v -0.04082300 0.01871700 0.41522400
v -0.03722100 0.02120500 0.41720400
v -0.03923700 0.01977800 0.41747600
v -0.03645700 0.02132300 0.41473800
v -0.03672100 0.02141200 0.41724100
v -0.04401900 0.02064000 0.41742600
v -0.04531100 0.02111300 0.41480100
v -0.04110800 0.01916900 0.41743800
v -0.04548600 0.02571500 0.41641400
v -0.04547300 0.02607900 0.41395500
v -0.04537600 0.02169900 0.41704100
v -0.04556100 0.02625600 0.41644000
v -0.04088600 0.02920000 0.41575800
v -0.04109700 0.02878500 0.41341900
v -0.04457600 0.02725100 0.41618200
v -0.03627100 0.02317400 0.41679800
v -0.03660900 0.02639500 0.41389600
v -0.03661200 0.02674000 0.41615400
v -0.03673000 0.02621100 0.41365800
v -0.04111000 0.02850300 0.41325900
v -0.03668900 0.02138600 0.41451900
v -0.04089900 0.01888800 0.41495100
v -0.04525700 0.02603700 0.41369700
v -0.04517600 0.02127900 0.41452600
v -0.04270500 0.02135600 0.41452800
v -0.03940300 0.02116300 0.41455200
v -0.04394600 0.02423200 0.41402900
v -0.03799200 0.02386100 0.41407600
v -0.03897200 0.02598700 0.41369600
v -0.04173500 0.02652500 0.41361800
v -0.03860600 0.01978200 0.41753600
v -0.04338400 0.01982900 0.41753900
v -0.04590900 0.02374300 0.41687100
v -0.03588000 0.02456300 0.41667800
v -0.03724300 0.02757500 0.41615400
v -0.04372200 0.02838900 0.41601600
v -0.04018400 0.02912100 0.41586300
vn 0.88650000 -0.25190000 0.38830000
vn 0.77230000 0.15530000 0.61600000
vn 0.38510000 -0.51430000 0.76630000
vn -0.77170000 0.01030000 0.63590000
vn -0.72610000 -0.43430000 0.53300000
vn -0.27870000 -0.58720000 0.75990000
vn -0.94330000 0.26720000 0.19710000
vn 0.78240000 0.47360000 0.40440000
vn 0.34100000 0.78900000 0.51110000
vn -0.26530000 0.93830000 0.22190000
vn -0.59390000 0.77740000 -0.20740000
vn -0.42670000 0.58670000 0.68820000
vn -0.41050000 0.59430000 0.69160000
vn -0.98090000 0.14820000 0.12590000
vn -0.00110000 -0.17120000 -0.98520000
vn 0.45970000 -0.63450000 -0.62130000
vn -0.16400000 -0.80100000 -0.57570000
vn -0.61070000 -0.44110000 -0.65760000
vn 0.71300000 -0.05000000 -0.69940000
vn -0.64380000 0.17970000 -0.74380000
vn 0.27040000 0.52900000 -0.80440000
vn -0.29300000 0.50760000 -0.81020000
vn -0.70200000 0.66720000 0.24910000
vn -0.72750000 0.06810000 0.68270000
vn -0.41010000 -0.91200000 -0.00620000
vn 0.29250000 -0.68360000 0.66870000
vn -0.25070000 0.83300000 0.49320000
vn -0.68600000 -0.51760000 0.51130000
vn 0.73860000 -0.44040000 0.51040000
vn 0.38530000 0.88180000 -0.27210000
vn 0.71440000 0.68020000 0.16430000
vn 0.71420000 0.14450000 0.68490000
vn -0.97480000 -0.20490000 0.08830000
vn -0.08200000 -0.76940000 0.63350000
vn -0.95890000 -0.18920000 0.21140000
vn 0.88590000 -0.12610000 0.44640000
vn -0.32510000 0.06570000 0.94340000
vn 0.32640000 0.13580000 0.93540000
vn -0.73960000 0.53380000 0.40990000
vn 0.94510000 0.21150000 0.24910000
vn 0.07660000 0.94100000 0.32970000
vn -0.08030000 -0.26440000 0.96100000
vn 0.62530000 -0.49550000 0.60290000
vn -0.52090000 -0.26400000 0.81180000
vn 0.42160000 0.46530000 0.77830000
vn -0.08840000 0.60690000 0.78990000
vn 0.13400000 0.65740000 0.74150000
vn 0.12280000 -0.98030000 0.15470000
vn 0.27420000 -0.90610000 0.32230000
vn -0.34380000 -0.93150000 0.11900000
vn 0.70270000 -0.70580000 0.08990000
vn 0.98130000 0.16170000 -0.10440000
vn 0.74960000 0.64830000 -0.13330000
vn 0.84670000 0.41550000 0.33220000
vn 0.55540000 0.78850000 -0.26420000
vn 0.08200000 0.99660000 -0.00730000
vn 0.24320000 0.95080000 -0.19200000
vn -0.53860000 -0.83170000 0.13530000
vn -0.80640000 -0.57700000 0.12940000
vn 0.71010000 -0.69380000 0.11990000
vn -0.91990000 -0.38780000 0.05850000
vn 0.96280000 -0.25750000 0.08190000
vn -0.99470000 -0.10110000 -0.02020000
vn 0.97100000 -0.23670000 0.03270000
vn -0.99220000 0.12140000 -0.02940000
vn -0.86230000 0.47580000 0.17340000
vn 0.97200000 0.22890000 -0.05230000
vn -0.79180000 0.59870000 -0.12090000
vn -0.51280000 0.84510000 -0.15110000
vn -0.34290000 0.92080000 -0.18610000
vn -0.04340000 -0.99330000 0.10700000
vn -0.54820000 -0.83490000 0.04810000
vn -0.95170000 -0.30690000 0.01360000
vn 0.57630000 -0.81680000 0.02650000
vn 0.55680000 0.81950000 -0.13570000
vn -0.93390000 0.11510000 -0.33850000
vn -0.18270000 0.93430000 -0.30620000
vn 0.99330000 0.07660000 -0.08640000
vn 0.90050000 -0.42940000 -0.06910000
vn -0.67690000 0.58180000 -0.45090000
vn 0.03450000 -0.40170000 0.91510000
vn -0.40600000 -0.17930000 0.89610000
vn -0.35540000 -0.69150000 0.62890000
vn 0.61060000 -0.41200000 0.67640000
vn 0.50370000 -0.04640000 0.86260000
vn -0.84790000 0.10780000 0.51910000
vn 0.77770000 -0.04900000 0.62670000
vn -0.42590000 0.40630000 0.80840000
vn 0.62200000 0.57670000 0.52960000
vn 0.43950000 0.53710000 0.72000000
vn -0.50940000 0.72020000 0.47100000
vn 0.01810000 0.76230000 0.64690000
vn 0.13170000 0.87270000 0.47020000
vn -0.20240000 -0.97640000 0.07490000
vn 0.20020000 -0.84420000 0.49720000
vn -0.73380000 -0.60470000 0.30960000
vn 0.63750000 -0.75630000 0.14670000
vn -0.91680000 -0.28670000 0.27790000
vn -0.43850000 -0.87420000 0.20850000
vn -0.03230000 -0.98870000 0.14670000
vn 0.45950000 -0.88040000 0.11710000
vn -0.64100000 -0.73910000 0.20710000
vn -0.87080000 0.45510000 0.18600000
vn -0.89060000 -0.45450000 0.01820000
vn -0.68150000 -0.72240000 0.11750000
vn 0.88380000 -0.46480000 0.05350000
vn 0.92530000 0.32090000 0.20230000
vn -0.99660000 0.06860000 -0.04500000
vn -0.37180000 0.92820000 -0.01300000
vn 0.99830000 0.04570000 -0.03550000
vn 0.61680000 0.78600000 -0.04100000
vn -0.80110000 0.58490000 -0.12680000
vn 0.83320000 0.52670000 -0.16830000
vn -0.23330000 0.94870000 -0.21330000
vn 0.33870000 0.91990000 -0.19760000
vn -0.00570000 -0.94910000 0.31490000
vn 0.00620000 0.16790000 0.98580000
vn -0.05110000 -0.95910000 0.27840000
vn -0.76090000 -0.45400000 0.46360000
vn -0.98780000 0.06020000 0.14380000
vn 0.94220000 0.33080000 0.05270000
vn -0.35850000 0.93350000 0.00460000
vn 0.28810000 0.95760000 -0.00320000
vn -0.62630000 -0.60160000 0.49580000
vn -0.64590000 0.63640000 0.42170000
vn 0.61260000 0.73770000 0.28370000
vn 0.65760000 0.27870000 0.70000000
vn 0.65100000 -0.05040000 0.75740000
vn 0.45720000 0.64420000 0.61320000
vn -0.01500000 0.71700000 0.69690000
vn 0.45280000 -0.55040000 0.70140000
vn -0.03900000 -0.45890000 0.88760000
vn -0.12830000 -0.58510000 0.80070000
vn 0.34850000 -0.29760000 0.88880000
vn -0.47830000 -0.28190000 0.83170000
vn -0.57930000 -0.05770000 0.81310000
vn 0.78350000 0.02980000 0.62070000
vn 0.70550000 0.45510000 0.54330000
vn 0.11470000 0.91960000 0.37570000
vn 0.17270000 -0.76270000 0.62330000
vn -0.44700000 -0.67710000 0.58470000
vn 0.73370000 -0.44100000 0.51690000
vn -0.82260000 -0.43170000 0.37010000
vn -0.84640000 0.16390000 0.50680000
vn -0.77250000 0.56830000 0.28310000
vn 0.42740000 0.82820000 0.36250000
vn -0.22110000 0.90980000 0.35140000
vn 0.03960000 -0.98250000 -0.18210000
vn 0.43630000 -0.82250000 -0.36480000
vn 0.36640000 -0.68100000 -0.63400000
vn 0.80720000 -0.50110000 -0.31200000
vn 0.79460000 -0.60650000 0.02680000
vn -0.12400000 -0.59980000 -0.79040000
vn -0.78770000 -0.55860000 -0.25970000
vn -0.07790000 -0.98800000 0.13330000
vn -0.90020000 -0.07700000 -0.42860000
vn -0.85880000 0.35420000 -0.37010000
vn -0.88510000 -0.46410000 0.03390000
vn -0.93180000 0.33780000 -0.13240000
vn -0.01330000 0.95910000 0.28270000
vn -0.02710000 0.84070000 -0.54080000
vn -0.56160000 0.53170000 -0.63390000
vn 0.97410000 -0.15870000 -0.16090000
vn 0.81390000 0.46330000 -0.35060000
vn 0.81010000 0.51080000 0.28780000
vn 0.51660000 0.12140000 -0.84760000
vn -0.02590000 0.26410000 -0.96410000
vn 0.36490000 -0.37710000 -0.85120000
vn -0.04770000 -0.65370000 -0.75520000
vn -0.46700000 0.18700000 -0.86430000
vn -0.48070000 -0.34400000 -0.80660000
vn -0.32120000 -0.61450000 -0.72060000
vn 0.27050000 -0.61370000 -0.74180000
vn -0.52040000 -0.09790000 -0.84830000
vn 0.54940000 -0.10180000 -0.82930000
vn 0.36230000 0.29590000 -0.88380000
vn -0.17180000 0.37680000 -0.91020000
vn 0.39060000 -0.79010000 -0.47240000
vn -0.42100000 -0.76020000 -0.49480000
vn -0.83190000 -0.14150000 -0.53660000
vn 0.83340000 -0.03640000 -0.55150000
vn 0.59330000 0.51450000 -0.61910000
vn -0.42700000 0.55580000 -0.71330000
vn 0.18280000 0.73720000 -0.65050000
vt 0.00000000 0.00000000
vt 0.00000000 0.00000000
vt 0.00000000 0.00000000
vt 0.00000000 0.00000000
vt 0.00000000 0.00000000
vt 0.00000000 0.00000000
vt 0.00000000 0.00000000
vt 0.00000000 0.00000000
vt 0.00000000 0.00000000
vt 0.00000000 0.00000000
vt 0.00000000 0.00000000
vt 0.00000000 0.00000000
vt 0.00000000 0.00000000
vt 0.00000000 0.00000000
vt 0.00000000 0.00000000
vt 0.00000000 0.00000000
vt 0.00000000 0.00000000
vt 0.00000000 0.00000000
vt 0.00000000 0.00000000
vt 0.00000000 0.00000000
vt 0.00000000 0.00000000
vt 0.00000000 0.00000000
vt 0.00000000 0.00000000
vt 0.00000000 0.00000000
vt 0.00000000 0.00000000
vt 0.00000000 0.00000000
vt 0.00000000 0.00000000
vt 0.00000000 0.00000000
vt 0.00000000 0.00000000
vt 0.00000000 0.00000000
vt 0.00000000 0.00000000
vt 0.00000000 0.00000000
vt 0.00000000 0.00000000
vt 0.00000000 0.00000000
vt 0.00000000 0.00000000
vt 0.00000000 0.00000000
vt 0.00000000 0.00000000
vt 0.00000000 0.00000000
vt 0.00000000 0.00000000
vt 0.00000000 0.00000000
vt 0.00000000 0.00000000
vt 0.00000000 0.00000000
vt 0.00000000 0.00000000
vt 0.00000000 0.00000000
vt 0.00000000 0.00000000
vt 0.00000000 0.00000000
vt 0.00000000 0.00000000
vt 0.00000000 0.00000000
vt 0.00000000 0.00000000
vt 0.00000000 0.00000000
vt 0.00000000 0.00000000
vt 0.00000000 0.00000000
vt 0.00000000 0.00000000
vt 0.00000000 0.00000000
vt 0.00000000 0.00000000
vt 0.00000000 0.00000000
vt 0.00000000 0.00000000
vt 0.00000000 0.00000000
vt 0.00000000 0.00000000
vt 0.00000000 0.00000000
vt 0.00000000 0.00000000
vt 0.00000000 0.00000000
vt 0.00000000 0.00000000
vt 0.00000000 0.00000000
vt 0.00000000 0.00000000
vt 0.00000000 0.00000000
vt 0.00000000 0.00000000
vt 0.00000000 0.00000000
vt 0.00000000 0.00000000
vt 0.00000000 0.00000000
vt 0.00000000 0.00000000
vt 0.00000000 0.00000000
vt 0.00000000 0.00000000
vt 0.00000000 0.00000000
vt 0.00000000 0.00000000
vt 0.00000000 0.00000000
vt 0.00000000 0.00000000
vt 0.00000000 0.00000000
vt 0.00000000 0.00000000
vt 0.00000000 0.00000000
vt 0.00000000 0.00000000
vt 0.00000000 0.00000000
vt 0.00000000 0.00000000
vt 0.00000000 0.00000000
vt 0.00000000 0.00000000
vt 0.00000000 0.00000000
vt 0.00000000 0.00000000
vt 0.00000000 0.00000000
vt 0.00000000 0.00000000
vt 0.00000000 0.00000000
vt 0.00000000 0.00000000
vt 0.00000000 0.00000000
vt 0.00000000 0.00000000
vt 0.00000000 0.00000000
vt 0.00000000 0.00000000
vt 0.00000000 0.00000000
vt 0.00000000 0.00000000
vt 0.00000000 0.00000000
vt 0.00000000 0.00000000
vt 0.00000000 0.00000000
vt 0.00000000 0.00000000
vt 0.00000000 0.00000000
vt 0.00000000 0.00000000
vt 0.00000000 0.00000000
vt 0.00000000 0.00000000
vt 0.00000000 0.00000000
vt 0.00000000 0.00000000
vt 0.00000000 0.00000000
vt 0.00000000 0.00000000
vt 0.00000000 0.00000000
vt 0.00000000 0.00000000
vt 0.00000000 0.00000000
vt 0.00000000 0.00000000
vt 0.00000000 0.00000000
vt 0.00000000 0.00000000
vt 0.00000000 0.00000000
vt 0.00000000 0.00000000
vt 0.00000000 0.00000000
vt 0.00000000 0.00000000
vt 0.00000000 0.00000000
vt 0.00000000 0.00000000
vt 0.00000000 0.00000000
vt 0.00000000 0.00000000
vt 0.00000000 0.00000000
vt 0.00000000 0.00000000
vt 0.00000000 0.00000000
vt 0.00000000 0.00000000
vt 0.00000000 0.00000000
vt 0.00000000 0.00000000
vt 0.00000000 0.00000000
vt 0.00000000 0.00000000
vt 0.00000000 0.00000000
vt 0.00000000 0.00000000
vt 0.00000000 0.00000000
vt 0.00000000 0.00000000
vt 0.00000000 0.00000000
vt 0.00000000 0.00000000
vt 0.00000000 0.00000000
vt 0.00000000 0.00000000
vt 0.00000000 0.00000000
vt 0.00000000 0.00000000
vt 0.00000000 0.00000000
vt 0.00000000 0.00000000
vt 0.00000000 0.00000000
vt 0.00000000 0.00000000
vt 0.00000000 0.00000000
vt 0.00000000 0.00000000
vt 0.00000000 0.00000000
vt 0.00000000 0.00000000
vt 0.00000000 0.00000000
vt 0.00000000 0.00000000
vt 0.00000000 0.00000000
vt 0.00000000 0.00000000
vt 0.00000000 0.00000000
vt 0.00000000 0.00000000
vt 0.00000000 0.00000000
vt 0.00000000 0.00000000
vt 0.00000000 0.00000000
vt 0.00000000 0.00000000
vt 0.00000000 0.00000000
vt 0.00000000 0.00000000
vt 0.00000000 0.00000000
vt 0.00000000 0.00000000
vt 0.00000000 0.00000000
vt 0.00000000 0.00000000
vt 0.00000000 0.00000000
vt 0.00000000 0.00000000
vt 0.00000000 0.00000000
vt 0.00000000 0.00000000
vt 0.00000000 0.00000000
vt 0.00000000 0.00000000
vt 0.00000000 0.00000000
vt 0.00000000 0.00000000
vt 0.00000000 0.00000000
vt 0.00000000 0.00000000
vt 0.00000000 0.00000000
vt 0.00000000 0.00000000
vt 0.00000000 0.00000000
vt 0.00000000 0.00000000
vt 0.00000000 0.00000000
vt 0.00000000 0.00000000
vt 0.00000000 0.00000000
vt 0.00000000 0.00000000
vt 0.00000000 0.00000000
f 1/1/1 2/2/2 3/3/3
f 4/4/4 5/5/5 6/6/6
f 7/7/7 5/5/5 4/4/4
f 1/1/1 8/8/8 2/2/2
f 8/8/8 9/9/9 2/2/2
f 10/10/10 7/7/7 4/4/4
f 11/11/11 7/7/7 10/10/10
f 9/9/9 11/11/11 10/10/10
f 12/12/12 13/13/13 14/14/14
f 17/17/17 18/18/18 15/15/15
f 15/15/15 19/19/19 16/16/16
f 20/20/20 22/22/22 15/15/15
f 21/21/21 19/19/19 15/15/15
f 22/22/22 21/21/21 15/15/15
f 23/23/23 20/20/20 24/24/24
f 25/25/25 17/17/17 26/26/26
f 17/17/17 16/16/16 26/26/26
f 27/27/27 20/20/20 23/23/23
f 28/28/28 17/17/17 25/25/25
f 16/16/16 29/29/29 26/26/26
f 18/18/18 17/17/17 28/28/28
f 22/22/22 20/20/20 27/27/27
f 21/21/21 30/30/30 31/31/31
f 24/24/24 18/18/18 28/28/28
f 19/19/19 32/32/32 29/29/29
f 16/16/16 19/19/19 29/29/29
f 21/21/21 27/27/27 30/30/30
f 21/21/21 22/22/22 27/27/27
f 20/20/20 18/18/18 24/24/24
f 19/19/19 31/31/31 32/32/32
f 19/19/19 21/21/21 31/31/31
f 26/26/26 33/33/33 34/34/34
f 34/34/34 25/25/25 26/26/26
f 34/34/34 28/28/28 25/25/25
f 35/35/35 28/28/28 34/34/34
f 26/26/26 29/29/29 33/33/33
f 29/29/29 36/36/36 33/33/33
f 35/35/35 24/24/24 28/28/28
f 29/29/29 32/32/32 36/36/36
f 37/37/37 24/24/24 35/35/35
f 32/32/32 38/38/38 36/36/36
f 39/39/39 24/24/24 37/37/37
f 32/32/32 40/40/40 38/38/38
f 39/39/39 23/23/23 24/24/24
f 32/32/32 31/31/31 40/40/40
f 39/39/39 27/27/27 23/23/23
f 31/31/31 41/41/41 40/40/40
f 31/31/31 30/30/30 41/41/41
f 30/30/30 27/27/27 41/41/41
f 33/33/33 42/42/42 34/34/34
f 43/43/43 42/42/42 33/33/33
f 42/42/42 35/35/35 34/34/34
f 44/44/44 35/35/35 42/42/42
f 36/36/36 43/43/43 33/33/33
f 37/37/37 35/35/35 44/44/44
f 36/36/36 38/38/38 43/43/43
f 40/40/40 45/45/45 38/38/38
f 41/41/41 45/45/45 40/40/40
f 27/27/27 39/39/39 46/46/46
f 41/41/41 47/47/47 45/45/45
f 46/46/46 47/47/47 27/27/27
f 48/48/48 49/49/49 50/50/50
f 48/48/48 51/51/51 49/49/49
f 52/52/52 53/53/53 54/54/54
f 53/53/53 55/55/55 54/54/54
f 53/53/53 56/56/56 55/55/55
f 53/53/53 57/57/57 56/56/56
f 50/50/50 58/58/58 48/48/48
f 59/59/59 58/58/58 50/50/50
f 48/48/48 60/60/60 51/51/51
f 61/61/61 58/58/58 59/59/59
f 60/60/60 64/64/64 51/51/51
f 63/63/63 61/61/61 59/59/59
f 65/65/65 61/61/61 63/63/63
f 64/64/64 67/67/67 52/52/52
f 66/66/66 65/65/65 63/63/63
f 68/68/68 65/65/65 66/66/66
f 67/67/67 53/53/53 52/52/52
f 69/69/69 68/68/68 66/66/66
f 70/70/70 68/68/68 69/69/69
f 56/56/56 70/70/70 69/69/69
f 57/57/57 70/70/70 56/56/56
f 58/58/58 42/42/42 48/48/48
f 42/42/42 43/43/43 48/48/48
f 43/43/43 60/60/60 48/48/48
f 44/44/44 42/42/42 58/58/58
f 61/61/61 44/44/44 58/58/58
f 43/43/43 64/64/64 60/60/60
f 37/37/37 44/44/44 61/61/61
f 65/65/65 37/37/37 61/61/61
f 43/43/43 38/38/38 64/64/64
f 38/38/38 67/67/67 64/64/64
f 68/68/68 39/39/39 65/65/65
f 39/39/39 37/37/37 65/65/65
f 38/38/38 45/45/45 67/67/67
f 68/68/68 70/70/70 46/46/46
f 45/45/45 47/47/47 57/57/57
f 57/57/57 47/47/47 70/70/70
f 50/50/50 71/71/71 72/72/72
f 59/59/59 50/50/50 72/72/72
f 50/50/50 49/49/49 71/71/71
f 73/73/73 59/59/59 72/72/72
f 49/49/49 74/74/74 71/71/71
f 63/63/63 59/59/59 73/73/73
f 55/55/55 56/56/56 75/75/75
f 54/54/54 55/55/55 75/75/75
f 49/49/49 51/51/51 74/74/74
f 76/76/76 63/63/63 73/73/73
f 56/56/56 77/77/77 75/75/75
f 78/78/78 54/54/54 75/75/75
f 52/52/52 54/54/54 78/78/78
f 62/62/62 52/52/52 78/78/78
f 51/51/51 79/79/79 74/74/74
f 79/79/79 62/62/62 78/78/78
f 51/51/51 62/62/62 79/79/79
f 66/66/66 63/63/63 76/76/76
f 56/56/56 69/69/69 77/77/77
f 69/69/69 80/80/80 77/77/77
f 80/80/80 66/66/66 76/76/76
f 69/69/69 66/66/66 80/80/80
f 81/81/81 82/82/82 83/83/83
f 84/84/84 81/81/81 83/83/83
f 85/85/85 81/81/81 84/84/84
f 82/82/82 86/86/86 83/83/83
f 87/87/87 85/85/85 84/84/84
f 88/88/88 86/86/86 82/82/82
f 89/89/89 90/90/90 85/85/85
f 87/87/87 89/89/89 85/85/85
f 91/91/91 86/86/86 88/88/88
f 89/89/89 92/92/92 90/90/90
f 92/92/92 91/91/91 88/88/88
f 89/89/89 93/93/93 92/92/92
f 93/93/93 91/91/91 92/92/92
f 94/94/94 95/95/95 83/83/83
f 95/95/95 84/84/84 83/83/83
f 96/96/96 94/94/94 83/83/83
f 95/95/95 97/97/97 84/84/84
f 98/98/98 96/96/96 83/83/83
f 86/86/86 98/98/98 83/83/83
f 97/97/97 87/87/87 84/84/84
f 99/99/99 100/100/100 94/94/94
f 100/100/100 95/95/95 94/94/94
f 100/100/100 101/101/101 95/95/95
f 102/102/102 99/99/99 94/94/94
f 101/101/101 97/97/97 95/95/95
f 96/96/96 102/102/102 94/94/94
f 103/103/103 98/98/98 86/86/86
f 104/104/104 105/105/105 98/98/98
f 105/105/105 102/102/102 96/96/96
f 101/101/101 106/106/106 97/97/97
f 106/106/106 87/87/87 97/97/97
f 107/107/107 89/89/89 87/87/87
f 91/91/91 103/103/103 86/86/86
f 108/108/108 104/104/104 98/98/98
f 109/109/109 103/103/103 91/91/91
f 106/106/106 110/110/110 87/87/87
f 107/107/107 111/111/111 89/89/89
f 103/103/103 108/108/108 98/98/98
f 110/110/110 107/107/107 87/87/87
f 111/111/111 93/93/93 89/89/89
f 93/93/93 109/109/109 91/91/91
f 112/112/112 108/108/108 103/103/103
f 110/110/110 113/113/113 107/107/107
f 113/113/113 111/111/111 107/107/107
f 109/109/109 112/112/112 103/103/103
f 114/114/114 112/112/112 109/109/109
f 115/115/115 93/93/93 111/111/111
f 93/93/93 114/114/114 109/109/109
f 115/115/115 114/114/114 93/93/93
f 116/116/116 100/100/100 99/99/99
f 72/72/72 100/100/100 116/116/116
f 105/105/105 72/72/72 116/116/116
f 104/104/104 72/72/72 105/105/105
f 113/113/113 115/115/115 111/111/111
f 71/71/71 101/101/101 100/100/100
f 72/72/72 71/71/71 100/100/100
f 71/71/71 74/74/74 101/101/101
f 74/74/74 106/106/106 101/101/101
f 73/73/73 72/72/72 104/104/104
f 79/79/79 78/78/78 110/110/110
f 74/74/74 79/79/79 106/106/106
f 108/108/108 76/76/76 104/104/104
f 76/76/76 73/73/73 104/104/104
f 112/112/112 76/76/76 108/108/108
f 78/78/78 113/113/113 110/110/110
f 80/80/80 76/76/76 112/112/112
f 78/78/78 75/75/75 113/113/113
f 114/114/114 80/80/80 112/112/112
f 75/75/75 115/115/115 113/113/113
f 77/77/77 80/80/80 114/114/114
f 75/75/75 114/114/114 115/115/115
f 75/75/75 77/77/77 114/114/114
f 105/105/105 99/99/99 102/102/102
f 105/105/105 116/116/116 99/99/99
f 3/3/3 117/117/117 6/6/6
f 2/2/2 117/117/117 3/3/3
f 117/117/117 4/4/4 6/6/6
f 10/10/10 4/4/4 117/117/117
f 9/9/9 10/10/10 117/117/117
f 2/2/2 9/9/9 117/117/117
f 118/118/118 3/3/3 6/6/6
f 5/5/5 119/119/119 6/6/6
f 7/7/7 119/119/119 5/5/5
f 120/120/120 119/119/119 7/7/7
f 121/121/121 8/8/8 1/1/1
f 122/122/122 120/120/120 11/11/11
f 123/123/123 9/9/9 8/8/8
f 121/121/121 123/123/123 8/8/8
f 123/123/123 122/122/122 11/11/11
f 119/119/119 124/124/124 118/118/118
f 120/120/120 124/124/124 119/119/119
f 122/122/122 125/125/125 120/120/120
f 121/121/121 126/126/126 123/123/123
f 1/1/1 128/128/128 121/121/121
f 121/121/121 127/127/127 129/129/129
f 122/122/122 12/12/12 125/125/125
f 126/126/126 129/129/129 123/123/123
f 130/130/130 12/12/12 122/122/122
f 130/130/130 122/122/122 123/123/123
f 131/131/131 132/132/132 133/133/133
f 134/134/134 132/132/132 131/131/131
f 132/132/132 135/135/135 133/133/133
f 135/135/135 136/136/136 133/133/133
f 128/128/128 134/134/134 131/131/131
f 137/137/137 128/128/128 131/131/131
f 14/14/14 136/136/136 135/135/135
f 127/127/127 128/128/128 137/137/137
f 13/13/13 136/136/136 14/14/14
f 138/138/138 127/127/127 137/137/137
f 129/129/129 127/127/127 138/138/138
f 139/139/139 129/129/129 138/138/138
f 130/130/130 13/13/13 12/12/12
f 139/139/139 130/130/130 129/129/129
f 139/139/139 13/13/13 130/130/130
f 140/140/140 131/131/131 133/133/133
f 141/141/141 140/140/140 133/133/133
f 140/140/140 142/142/142 131/131/131
f 136/136/136 141/141/141 133/133/133
f 143/143/143 141/141/141 136/136/136
f 142/142/142 137/137/137 131/131/131
f 144/144/144 143/143/143 136/136/136
f 13/13/13 144/144/144 136/136/136
f 145/145/145 144/144/144 13/13/13
f 146/146/146 139/139/139 138/138/138
f 147/147/147 145/145/145 13/13/13
f 139/139/139 147/147/147 13/13/13
f 146/146/146 147/147/147 139/139/139
f 148/148/148 149/149/149 150/150/150
f 149/149/149 151/151/151 152/152/152
f 148/148/148 151/151/151 149/149/149
f 154/154/154 148/148/148 153/153/153
f 157/157/157 154/154/154 156/156/156
f 159/159/159 157/157/157 156/156/156
f 160/160/160 161/161/161 162/162/162
f 161/161/161 157/157/157 162/162/162
f 162/162/162 157/157/157 159/159/159
f 158/158/158 154/154/154 153/153/153
f 148/148/148 150/150/150 155/155/155
f 151/151/151 163/163/163 152/152/152
f 164/164/164 161/161/161 160/160/160
f 166/166/166 161/161/161 164/164/164
f 167/167/167 161/161/161 166/166/166
f 151/151/151 165/165/165 163/163/163
f 151/151/151 164/164/164 165/165/165
f 168/168/168 166/166/166 151/151/151
f 166/166/166 164/164/164 151/151/151
f 169/169/169 151/151/151 148/148/148
f 168/168/168 151/151/151 169/169/169
f 161/161/161 170/170/170 157/157/157
f 161/161/161 167/167/167 170/170/170
f 170/170/170 171/171/171 154/154/154
f 157/157/157 170/170/170 154/154/154
f 171/171/171 172/172/172 169/169/169
f 172/172/172 173/173/173 169/169/169
f 173/173/173 168/168/168 169/169/169
f 170/170/170 174/174/174 171/171/171
f 174/174/174 172/172/172 171/171/171
f 173/173/173 175/175/175 168/168/168
f 175/175/175 166/166/166 168/168/168
f 176/176/176 166/166/166 175/175/175
f 170/170/170 177/177/177 174/174/174
f 167/167/167 166/166/166 176/176/176
f 170/170/170 167/167/167 177/177/177
f 177/177/177 167/167/167 176/176/176
f 154/154/154 171/171/171 148/148/148
f 171/171/171 169/169/169 148/148/148
f 134/134/134 3/3/3 118/118/118
f 132/132/132 134/134/134 118/118/118
f 124/124/124 132/132/132 118/118/118
f 135/135/135 132/132/132 124/124/124
f 120/120/120 14/14/14 135/135/135
f 125/125/125 14/14/14 120/120/120
f 12/12/12 14/14/14 125/125/125
f 3/3/3 134/134/134 1/1/1
f 134/134/134 128/128/128 1/1/1
f 141/141/141 155/155/155 140/140/140
f 155/155/155 178/178/178 140/140/140
f 179/179/179 155/155/155 141/141/141
f 178/178/178 142/142/142 140/140/140
f 141/141/141 143/143/143 179/179/179
f 178/178/178 152/152/152 142/142/142
f 152/152/152 137/137/137 142/142/142
f 143/143/143 144/144/144 180/180/180
f 152/152/152 181/181/181 137/137/137
f 181/181/181 138/138/138 137/137/137
f 159/159/159 180/180/180 144/144/144
f 145/145/145 159/159/159 144/144/144
f 181/181/181 182/182/182 138/138/138
f 182/182/182 146/146/146 138/138/138
f 147/147/147 183/183/183 145/145/145
f 183/183/183 159/159/159 145/145/145
f 182/182/182 184/184/184 146/146/146
f 184/184/184 147/147/147 146/146/146
f 184/184/184 183/183/183 147/147/147
f 180/180/180 156/156/156 158/158/158
f 150/150/150 178/178/178 155/155/155
f 153/153/153 155/155/155 179/179/179
f 158/158/158 153/153/153 179/179/179
f 150/150/150 152/152/152 178/178/178
f 149/149/149 152/152/152 150/150/150
f 163/163/163 181/181/181 152/152/152
f 159/159/159 156/156/156 180/180/180
f 165/165/165 181/181/181 163/163/163
f 165/165/165 182/182/182 181/181/181
f 183/183/183 162/162/162 159/159/159
f 160/160/160 184/184/184 182/182/182
f 165/165/165 160/160/160 182/182/182
f 160/160/160 162/162/162 183/183/183
f 184/184/184 160/160/160 183/183/183
f 172/172/172 81/81/81 173/173/173
f 81/81/81 85/85/85 173/173/173
f 82/82/82 81/81/81 172/172/172
f 85/85/85 175/175/175 173/173/173
f 174/174/174 82/82/82 172/172/172
f 88/88/88 82/82/82 174/174/174
f 85/85/85 90/90/90 175/175/175
f 90/90/90 176/176/176 175/175/175
f 177/177/177 88/88/88 174/174/174
f 90/90/90 92/92/92 176/176/176
f 92/92/92 177/177/177 176/176/176
f 92/92/92 88/88/88 177/177/177
f 17/17/17 15/15/15 16/16/16
f 20/20/20 15/15/15 18/18/18
f 47/47/47 41/41/41 27/27/27
f 64/64/64 62/62/62 51/51/51
f 64/64/64 52/52/52 62/62/62
f 45/45/45 53/53/53 67/67/67
f 68/68/68 46/46/46 39/39/39
f 45/45/45 57/57/57 53/53/53
f 47/47/47 46/46/46 70/70/70
f 105/105/105 96/96/96 98/98/98
f 79/79/79 110/110/110 106/106/106
f 119/119/119 118/118/118 6/6/6
f 120/120/120 7/7/7 11/11/11
f 123/123/123 11/11/11 9/9/9
f 128/128/128 127/127/127 121/121/121
f 121/121/121 129/129/129 126/126/126
f 129/129/129 130/130/130 123/123/123
f 148/148/148 155/155/155 153/153/153
f 154/154/154 158/158/158 156/156/156
f 164/164/164 160/160/160 165/165/165
f 120/120/120 135/135/135 124/124/124
f 143/143/143 158/158/158 179/179/179
f 143/143/143 180/180/180 158/158/158

