mtllib material.mtl
usemtl Material-Plastic.002
v 0.02976400 0.00840100 0.37221200
v 0.02976400 0.00840100 0.37221200
v 0.02976400 0.00840100 0.37221200
v -0.01640800 -0.02511500 0.37220100
v -0.01640800 -0.02511500 0.37220100
v -0.01640800 -0.02511500 0.37220100
v -0.01640800 -0.02511500 0.37220100
v -0.01640800 -0.02511500 0.37220100
v -0.01640800 -0.02511500 0.37220100
v -0.01640800 -0.02511500 0.37220100
v 0.02638400 -0.01427800 0.37220000
v 0.02638400 -0.01427800 0.37220000
v 0.01607100 0.02612500 0.37217600
v 0.02638400 0.01427800 0.01500000
v 0.02638400 0.01427800 0.01500000
v 0.03049300 -0.00047700 0.01501900
v 0.03049300 -0.00047700 0.01501900
v -0.02977700 0.00589900 0.01499900
v -0.02977700 0.00589900 0.01499900
v -0.02977700 0.00589900 0.01499900
v -0.02977700 0.00589900 0.01499900
v -0.02977700 0.00589900 0.01499900
v -0.02977700 0.00589900 0.01499900
v -0.02977700 0.00589900 0.01499900
v -0.02977700 0.00589900 0.01499900
v -0.02977700 0.00589900 0.01499900
v 0.01728600 -0.02510000 0.37220300
v 0.01728600 -0.02510000 0.37220300
v 0.01728600 0.02510000 0.01499800
v 0.01728600 0.02510000 0.01499800
v 0.01607100 -0.02612500 0.01502400
v 0.02638400 -0.01427800 0.01500000
v 0.01728600 -0.02510000 0.37220300
v -0.02643100 -0.01517200 0.37220300
v -0.02735600 -0.01387600 0.01502400
v -0.01640800 -0.02511500 0.01500000
v -0.01640800 -0.02511500 0.37220100
v 0.02638400 0.01427800 0.01500000
v 0.01728600 0.02510000 0.01499800
v 0.02976400 0.00840100 0.37221200
v -0.00341900 0.03016300 0.37220000
v -0.00341900 0.03016300 0.37220000
v -0.00341900 0.03016300 0.37220000
v -0.00204400 -0.03042900 0.37218200
v -0.00204400 -0.03042900 0.37218200
v -0.00341900 0.03016300 0.37220000
v -0.01993000 0.02322800 0.01499700
v -0.02125100 0.02226200 0.37216700
v -0.00204400 0.03042900 0.01501900
v 0.03049300 -0.00047700 0.01501900
v -0.00204400 0.03042900 0.01501900
v -0.00204400 0.03042900 0.01501900
v -0.00341900 -0.03016300 0.01500000
v -0.03015600 0.00455000 0.37218200
v -0.02977700 0.00589900 0.01499900
v 0.02638400 -0.01427800 0.01500000
v 0.02638400 -0.01427800 0.01500000
v 0.01607100 -0.02612500 0.01502400
v 0.01607100 -0.02612500 0.01502400
v -0.00341900 -0.03016300 0.01500000
v -0.00341900 -0.03016300 0.01500000
v -0.03015600 0.00455000 0.37218200
v -0.03015600 0.00455000 0.37218200
v -0.02643100 -0.01517200 0.37220300
v 0.01607100 0.02612500 0.37217600
v 0.02638400 -0.01427800 0.37220000
v -0.02125100 0.02226200 0.37216700
v -0.02125100 0.02226200 0.37216700
v -0.01640800 -0.02511500 0.01500000
v -0.01640800 -0.02511500 0.01500000
v -0.01993000 0.02322800 0.01499700
v -0.02735600 -0.01387600 0.01502400
vn 0.00010000 -0.00050000 1.00000000
vn 0.00200000 0.00350000 1.00000000
vn -0.00030000 0.00010000 1.00000000
vn 0.00010000 -0.00050000 1.00000000
vn -0.00010000 -0.00370000 1.00000000
vn -0.00210000 0.00050000 1.00000000
vn 0.00150000 0.00140000 1.00000000
vn -0.00010000 0.00030000 1.00000000
vn 0.00020000 0.00070000 1.00000000
vn -0.00030000 0.00010000 1.00000000
vn 0.00010000 -0.00050000 1.00000000
vn -0.00010000 0.00030000 1.00000000
vn 0.00200000 0.00350000 1.00000000
vn -0.00000000 -0.00020000 -1.00000000
vn 0.00020000 -0.00120000 -1.00000000
vn 0.00020000 -0.00120000 -1.00000000
vn 0.00050000 0.00120000 -1.00000000
vn 0.00110000 0.00080000 -1.00000000
vn 0.00160000 -0.00100000 -1.00000000
vn -0.00050000 -0.00160000 -1.00000000
vn -0.00070000 0.00150000 -1.00000000
vn 0.00050000 0.00120000 -1.00000000
vn -0.00400000 -0.00180000 -1.00000000
vn -0.00000000 -0.00020000 -1.00000000
vn 0.00020000 -0.00120000 -1.00000000
vn -0.00000000 -0.00000000 -1.00000000
vn -0.00010000 -0.00370000 1.00000000
vn -0.00010000 0.00030000 1.00000000
vn -0.00000000 -0.00020000 -1.00000000
vn -0.00070000 0.00150000 -1.00000000
vn 0.50530000 -0.86300000 -0.00110000
vn 0.87630000 -0.48170000 -0.00030000
vn 0.54050000 -0.84140000 0.00100000
vn -0.88290000 -0.46950000 0.00100000
vn -0.90160000 -0.43260000 -0.00110000
vn -0.55160000 -0.83410000 -0.00030000
vn -0.53810000 -0.84290000 0.00030000
vn 0.88360000 0.46820000 -0.00190000
vn 0.54070000 0.84120000 -0.00060000
vn 0.96750000 0.25300000 0.00430000
vn -0.00030000 0.00010000 1.00000000
vn -0.00210000 0.00050000 1.00000000
vn 0.00200000 0.00350000 1.00000000
vn -0.00010000 -0.00370000 1.00000000
vn -0.04300000 -0.99910000 0.00130000
vn -0.10630000 0.99430000 0.00130000
vn -0.65800000 0.75300000 -0.00140000
vn -0.68960000 0.72420000 0.00090000
vn -0.05720000 0.99840000 -0.00130000
vn 0.99990000 -0.01040000 -0.00230000
vn 0.00160000 -0.00100000 -1.00000000
vn -0.00070000 0.00150000 -1.00000000
vn -0.08370000 -0.99650000 -0.00080000
vn -0.99030000 0.13930000 0.00130000
vn -0.98060000 0.19620000 -0.00170000
vn 0.00050000 0.00120000 -1.00000000
vn -0.00050000 -0.00160000 -1.00000000
vn -0.00050000 -0.00160000 -1.00000000
vn 0.00110000 0.00080000 -1.00000000
vn -0.00000000 -0.00000000 -1.00000000
vn 0.00110000 0.00080000 -1.00000000
vn 0.00150000 0.00140000 1.00000000
vn 0.00020000 0.00070000 1.00000000
vn 0.00150000 0.00140000 1.00000000
vn 0.52980000 0.84810000 0.00210000
vn 0.91090000 -0.41260000 0.00290000
vn -0.00210000 0.00050000 1.00000000
vn 0.00020000 0.00070000 1.00000000
vn -0.00400000 -0.00180000 -1.00000000
vn -0.00000000 -0.00000000 -1.00000000
vn 0.00160000 -0.00100000 -1.00000000
vn -0.00400000 -0.00180000 -1.00000000
vt -0.65652500 0.17358000
vt -0.65652500 0.17358000
vt -0.65652500 0.17358000
vt 1.13758500 1.47589700
vt 1.13758500 1.47589700
vt 1.13758500 1.47589700
vt 1.13758500 1.47589700
vt 1.13758500 1.47589700
vt 1.13758500 1.47589700
vt 1.13758500 1.47589700
vt -0.52521500 1.05482000
vt -0.52521500 1.05482000
vt -0.12448200 -0.51513200
vt -0.52521500 1.05482000
vt -0.52521500 1.05482000
vt -0.68488400 0.48148400
vt -0.68488400 0.48148400
vt 1.65705000 0.72920200
vt 1.65705000 0.72920200
vt 1.65705000 0.72920200
vt 1.65705000 0.72920200
vt 1.65705000 0.72920200
vt 1.65705000 0.72920200
vt 1.65705000 0.72920200
vt 1.65705000 0.72920200
vt 1.65705000 0.72920200
vt -0.17166800 1.47529500
vt -0.17166800 1.47529500
vt -0.17166800 1.47529500
vt -0.17166800 1.47529500
vt -0.27726600 7.57879400
vt 1.05482000 7.57977000
vt -0.38102000 -6.30009900
vt -0.30217800 -6.30009900
vt -0.19462500 7.57878900
vt 1.13759000 7.57977000
vt 1.13759000 -6.30001700
vt -0.05481900 7.57977000
vt 1.38102200 7.57986900
vt -0.09879700 -6.30048800
vt 0.63285500 -0.67203000
vt 0.63285500 -0.67203000
vt 0.63285500 -0.67203000
vt 0.57940700 1.68236200
vt 0.57940500 -6.29923700
vt 0.36714500 -6.30000000
vt 0.31922900 7.57988800
vt 0.73795200 -6.29867600
vt 0.42059400 7.57900700
vt 0.51851700 7.57900700
vt 0.57940700 1.68236200
vt 0.57940700 1.68236200
vt 0.63285500 7.57977000
vt 0.67678500 -6.29923700
vt 0.72920000 7.57981500
vt -0.52521500 -0.05481900
vt -0.52521500 -0.05481900
vt -0.12448200 -0.51513200
vt -0.12448200 -0.51513200
vt 0.63285500 -0.67203000
vt 0.63285500 -0.67203000
vt 1.67176500 0.32321200
vt 1.67176500 0.32321200
vt 1.52701300 1.08955200
vt 1.27726700 -6.29902500
vt 1.05482000 -6.30000000
vt 1.32575700 -0.36503200
vt 1.32575700 -0.36503200
vt 1.13759000 -0.47589700
vt 1.13759000 -0.47589700
vt 1.27443500 1.40259000
vt 1.56296200 -0.03918300
f 1/1/1 4/4/4 11/11/11
f 13/13/13 43/43/43 2/2/2
f 15/15/15 16/16/16 25/25/25
f 12/12/12 8/8/8 28/28/28
f 29/29/29 14/14/14 24/24/24
f 32/32/32 66/66/66 33/33/33
f 36/36/36 37/37/37 34/34/34
f 39/39/39 65/65/65 38/38/38
f 27/27/27 5/5/5 44/44/44
f 45/45/45 53/53/53 31/31/31
f 46/46/46 49/49/49 47/47/47
f 50/50/50 38/38/38 40/40/40
f 52/52/52 30/30/30 21/21/21
f 54/54/54 55/55/55 35/35/35
f 22/22/22 17/17/17 56/56/56
f 20/20/20 57/57/57 58/58/58
f 18/18/18 59/59/59 61/61/61
f 7/7/7 62/62/62 64/64/64
f 65/65/65 39/39/39 49/49/49
f 50/50/50 40/40/40 66/66/66
f 42/42/42 67/67/67 6/6/6
f 32/32/32 50/50/50 66/66/66
f 37/37/37 36/36/36 53/53/53
f 70/70/70 26/26/26 60/60/60
f 71/71/71 51/51/51 19/19/19
f 48/48/48 47/47/47 55/55/55
f 72/72/72 23/23/23 69/69/69
f 68/68/68 63/63/63 9/9/9
f 41/41/41 10/10/10 3/3/3
f 32/32/32 33/33/33 31/31/31
f 36/36/36 34/34/34 35/35/35
f 65/65/65 40/40/40 38/38/38
f 45/45/45 31/31/31 33/33/33
f 46/46/46 47/47/47 48/48/48
f 54/54/54 35/35/35 34/34/34
f 65/65/65 49/49/49 46/46/46
f 37/37/37 53/53/53 45/45/45
f 48/48/48 55/55/55 54/54/54

