mtllib material.mtl
usemtl Material-Metal.010
v 0.00690700 -0.02632700 0.34770000
v -0.01739600 -0.02225700 0.34780400
v -0.02615900 -0.01100400 0.34774700
v -0.02636200 0.00935300 0.34769500
v -0.00439500 -0.02804800 0.34807300
v -0.01115100 0.02589300 0.34771100
v 0.02611700 -0.01079300 0.34777800
v 0.01949100 -0.02015000 0.34782400
v 0.02686400 0.00867600 0.34772200
v 0.00900700 0.02658200 0.34769800
v -0.02562000 -0.01210200 0.37221300
v -0.01639200 -0.02293400 0.37211800
v -0.02814900 0.00204700 0.37218700
v -0.02809700 0.00326500 0.34873000
v -0.00329500 -0.02812100 0.37221400
v -0.02446500 0.01371000 0.37219500
v -0.02418700 0.01422700 0.34839900
v 0.00974000 -0.02650100 0.34862800
v 0.01041000 -0.02641200 0.37211100
v -0.01950900 0.01998100 0.37218000
v -0.01958800 0.01986700 0.34840000
v -0.01196300 0.02559700 0.37210100
v 0.01989300 -0.01972600 0.37219100
v -0.00073600 0.02800500 0.37219400
v -0.00018800 0.02802700 0.34836900
v 0.02655700 -0.00982000 0.37214600
v 0.00823400 0.02680900 0.37219200
v 0.02788900 -0.00079000 0.34840000
v 0.02791000 -0.00091300 0.37219100
v 0.01868500 0.02121500 0.37220300
v 0.01965700 0.02038700 0.34861200
v 0.02641100 0.00984300 0.37221300
v -0.01744600 -0.02482100 0.37223000
v -0.02789600 -0.01162300 0.37234000
v -0.03014500 0.00269100 0.37220900
v -0.00291600 -0.03014400 0.37286900
v -0.02181100 0.02191100 0.37225900
v 0.02203000 -0.02088700 0.37222000
v -0.00399300 0.02974600 0.37221800
v 0.01223600 0.02808500 0.37242200
v 0.03016000 0.00381600 0.37234900
v 0.02459000 0.01786700 0.37229700
v -0.02411800 -0.01831400 0.37471600
v -0.02985700 -0.00369400 0.37470500
v -0.01165400 -0.02790900 0.37470800
v -0.02830400 0.01058500 0.37471600
v 0.01420300 -0.02754000 0.37472000
v -0.01919100 0.02327200 0.37470700
v -0.00452100 0.03030000 0.37467600
v 0.02851300 -0.01049300 0.37471300
v 0.01158700 0.02778300 0.37469900
v 0.02973900 0.00506500 0.37470900
v 0.02391200 0.01844000 0.37471100
vn 0.08370000 -0.48970000 -0.86790000
vn -0.46470000 -0.59680000 -0.65410000
vn -0.69800000 -0.29170000 -0.65400000
vn -0.79420000 0.29080000 -0.53350000
vn -0.12330000 -0.77590000 -0.61860000
vn -0.29380000 0.68860000 -0.66300000
vn 0.69270000 -0.28960000 -0.66060000
vn 0.52000000 -0.54580000 -0.65710000
vn 0.71190000 0.23900000 -0.66040000
vn 0.24890000 0.69900000 -0.67040000
vn -0.60580000 -0.28890000 -0.74130000
vn -0.38280000 -0.55650000 -0.73740000
vn -0.65320000 0.03740000 -0.75620000
vn -0.89380000 0.06870000 -0.44320000
vn -0.10750000 -0.76960000 -0.62940000
vn -0.60320000 0.32060000 -0.73040000
vn -0.74350000 0.46420000 -0.48140000
vn 0.32790000 -0.84600000 -0.42050000
vn 0.30100000 -0.86910000 -0.39260000
vn -0.47930000 0.48930000 -0.72860000
vn -0.57890000 0.59650000 -0.55590000
vn -0.30240000 0.66830000 -0.67970000
vn 0.47340000 -0.46590000 -0.74750000
vn -0.01620000 0.68100000 -0.73210000
vn -0.02050000 0.85100000 -0.52480000
vn 0.86870000 -0.31370000 -0.38340000
vn 0.20770000 0.67920000 -0.70390000
vn 0.86610000 -0.02660000 -0.49910000
vn 0.70300000 -0.00780000 -0.71110000
vn 0.45670000 0.52150000 -0.72080000
vn 0.58680000 0.59770000 -0.54630000
vn 0.63880000 0.24160000 -0.73040000
vn -0.49280000 -0.68620000 -0.53510000
vn -0.79420000 -0.31780000 -0.51800000
vn -0.82380000 0.08480000 -0.56050000
vn -0.03010000 -0.98100000 -0.19160000
vn -0.64670000 0.58270000 -0.49220000
vn 0.67150000 -0.58090000 -0.46010000
vn -0.08150000 0.67350000 -0.73470000
vn 0.35340000 0.76750000 -0.53490000
vn 0.80680000 0.05910000 -0.58790000
vn 0.65710000 0.44380000 -0.60930000
vn -0.67160000 -0.51930000 0.52850000
vn -0.79160000 -0.11610000 0.59990000
vn -0.28490000 -0.78070000 0.55620000
vn -0.80130000 0.33090000 0.49840000
vn 0.38310000 -0.84480000 0.37350000
vn -0.38380000 0.61550000 0.68840000
vn -0.14920000 0.81930000 0.55360000
vn 0.85870000 -0.29790000 0.41700000
vn 0.24380000 0.63190000 0.73570000
vn 0.71470000 0.16330000 0.68010000
vn 0.55980000 0.47070000 0.68190000
vt 0.00000000 0.00000000
vt 0.00000000 0.00000000
vt 0.00000000 0.00000000
vt 0.00000000 0.00000000
vt 0.00000000 0.00000000
vt 0.00000000 0.00000000
vt 0.00000000 0.00000000
vt 0.00000000 0.00000000
vt 0.00000000 0.00000000
vt 0.00000000 0.00000000
vt 0.00000000 0.00000000
vt 0.00000000 0.00000000
vt 0.00000000 0.00000000
vt 0.00000000 0.00000000
vt 0.00000000 0.00000000
vt 0.00000000 0.00000000
vt 0.00000000 0.00000000
vt 0.00000000 0.00000000
vt 0.00000000 0.00000000
vt 0.00000000 0.00000000
vt 0.00000000 0.00000000
vt 0.00000000 0.00000000
vt 0.00000000 0.00000000
vt 0.00000000 0.00000000
vt 0.00000000 0.00000000
vt 0.00000000 0.00000000
vt 0.00000000 0.00000000
vt 0.00000000 0.00000000
vt 0.00000000 0.00000000
vt 0.00000000 0.00000000
vt 0.00000000 0.00000000
vt 0.00000000 0.00000000
vt 0.00000000 0.00000000
vt 0.00000000 0.00000000
vt 0.00000000 0.00000000
vt 0.00000000 0.00000000
vt 0.00000000 0.00000000
vt 0.00000000 0.00000000
vt 0.00000000 0.00000000
vt 0.00000000 0.00000000
vt 0.00000000 0.00000000
vt 0.00000000 0.00000000
vt 0.00000000 0.00000000
vt 0.00000000 0.00000000
vt 0.00000000 0.00000000
vt 0.00000000 0.00000000
vt 0.00000000 0.00000000
vt 0.00000000 0.00000000
vt 0.00000000 0.00000000
vt 0.00000000 0.00000000
vt 0.00000000 0.00000000
vt 0.00000000 0.00000000
vt 0.00000000 0.00000000
f 1/1/1 2/2/2 3/3/3
f 4/4/4 1/1/1 3/3/3
f 1/1/1 5/5/5 2/2/2
f 6/6/6 10/10/10 4/4/4
f 7/7/7 8/8/8 1/1/1
f 9/9/9 7/7/7 1/1/1
f 10/10/10 9/9/9 1/1/1
f 2/2/2 12/12/12 11/11/11
f 3/3/3 11/11/11 13/13/13
f 5/5/5 15/15/15 12/12/12
f 14/14/14 13/13/13 16/16/16
f 18/18/18 19/19/19 15/15/15
f 17/17/17 16/16/16 20/20/20
f 21/21/21 20/20/20 22/22/22
f 8/8/8 23/23/23 18/18/18
f 6/6/6 22/22/22 25/25/25
f 7/7/7 26/26/26 23/23/23
f 25/25/25 24/24/24 27/27/27
f 28/28/28 29/29/29 26/26/26
f 10/10/10 27/27/27 30/30/30
f 9/9/9 32/32/32 28/28/28
f 31/31/31 30/30/30 32/32/32
f 11/11/11 33/33/33 34/34/34
f 13/13/13 11/11/11 34/34/34
f 35/35/35 13/13/13 34/34/34
f 11/11/11 12/12/12 33/33/33
f 12/12/12 36/36/36 33/33/33
f 15/15/15 36/36/36 12/12/12
f 16/16/16 13/13/13 35/35/35
f 37/37/37 16/16/16 35/35/35
f 20/20/20 16/16/16 37/37/37
f 15/15/15 19/19/19 36/36/36
f 22/22/22 20/20/20 37/37/37
f 23/23/23 38/38/38 19/19/19
f 39/39/39 22/22/22 37/37/37
f 39/39/39 24/24/24 22/22/22
f 26/26/26 38/38/38 23/23/23
f 40/40/40 24/24/24 39/39/39
f 40/40/40 27/27/27 24/24/24
f 40/40/40 30/30/30 27/27/27
f 32/32/32 41/41/41 29/29/29
f 41/41/41 26/26/26 29/29/29
f 42/42/42 30/30/30 40/40/40
f 42/42/42 32/32/32 30/30/30
f 42/42/42 41/41/41 32/32/32
f 33/33/33 43/43/43 34/34/34
f 44/44/44 35/35/35 34/34/34
f 33/33/33 45/45/45 43/43/43
f 44/44/44 46/46/46 35/35/35
f 46/46/46 37/37/37 35/35/35
f 36/36/36 45/45/45 33/33/33
f 19/19/19 47/47/47 36/36/36
f 38/38/38 47/47/47 19/19/19
f 48/48/48 49/49/49 37/37/37
f 38/38/38 50/50/50 47/47/47
f 49/49/49 40/40/40 39/39/39
f 26/26/26 50/50/50 38/38/38
f 49/49/49 51/51/51 40/40/40
f 41/41/41 50/50/50 26/26/26
f 41/41/41 52/52/52 50/50/50
f 53/53/53 42/42/42 40/40/40
f 51/51/51 53/53/53 40/40/40
f 42/42/42 52/52/52 41/41/41
f 42/42/42 53/53/53 52/52/52
f 51/51/51 44/44/44 43/43/43
f 45/45/45 47/47/47 43/43/43
f 51/51/51 46/46/46 44/44/44
f 51/51/51 48/48/48 46/46/46
f 51/51/51 49/49/49 48/48/48
f 52/52/52 53/53/53 51/51/51
f 50/50/50 52/52/52 51/51/51
f 47/47/47 50/50/50 51/51/51
f 44/44/44 34/34/34 43/43/43
f 36/36/36 47/47/47 45/45/45
f 48/48/48 37/37/37 46/46/46
f 49/49/49 39/39/39 37/37/37
f 14/14/14 4/4/4 3/3/3
f 17/17/17 4/4/4 14/14/14
f 1/1/1 18/18/18 5/5/5
f 21/21/21 4/4/4 17/17/17
f 21/21/21 6/6/6 4/4/4
f 1/1/1 8/8/8 18/18/18
f 25/25/25 10/10/10 6/6/6
f 9/9/9 28/28/28 7/7/7
f 31/31/31 9/9/9 10/10/10
f 10/10/10 1/1/1 4/4/4
f 2/2/2 11/11/11 3/3/3
f 3/3/3 13/13/13 14/14/14
f 5/5/5 12/12/12 2/2/2
f 14/14/14 16/16/16 17/17/17
f 18/18/18 15/15/15 5/5/5
f 17/17/17 20/20/20 21/21/21
f 21/21/21 22/22/22 6/6/6
f 23/23/23 19/19/19 18/18/18
f 22/22/22 24/24/24 25/25/25
f 7/7/7 23/23/23 8/8/8
f 25/25/25 27/27/27 10/10/10
f 28/28/28 26/26/26 7/7/7
f 10/10/10 30/30/30 31/31/31
f 32/32/32 29/29/29 28/28/28
f 31/31/31 32/32/32 9/9/9
f 47/47/47 51/51/51 43/43/43

