mtllib material.mtl
usemtl Material-Metal.011
v -0.03862900 -0.02324400 0.42808900
v -0.04203300 -0.02259900 0.42787200
v -0.04244300 -0.02296700 0.42824700
v -0.04414600 -0.02482900 0.42760100
v -0.04451200 -0.02662200 0.42750000
v -0.03744900 -0.02663300 0.42721100
v -0.03744100 -0.02641500 0.42763800
v -0.03953000 -0.02933600 0.42703800
v -0.03668900 -0.02439200 0.42004800
v -0.03771800 -0.02189200 0.42050000
v -0.03839600 -0.02160800 0.42055800
v -0.03824300 -0.01577100 0.38778200
v -0.04095000 -0.01897400 0.38721700
v -0.04127800 -0.01475400 0.38795700
v -0.04447900 -0.01652700 0.38766000
v -0.03665900 -0.01873000 0.38725000
v -0.04503100 -0.02047500 0.38693900
v -0.04203300 -0.02307000 0.38650700
v -0.03838000 -0.02253300 0.38660000
v -0.04451200 -0.01642100 0.39003200
v -0.04237100 -0.01484500 0.39033100
v -0.04561600 -0.01866500 0.38967000
v -0.04495300 -0.02201400 0.38900700
v -0.03927100 -0.01504400 0.39029800
v -0.03690700 -0.01692500 0.38995400
v -0.03634200 -0.02076300 0.38944900
v -0.03846100 -0.02332100 0.38884000
v -0.04194600 -0.02405300 0.38863400
v -0.04225100 -0.01520300 0.39001600
v -0.03937600 -0.01502600 0.39056700
v -0.04402200 -0.01591900 0.39023800
v -0.03657300 -0.01784800 0.38990500
v -0.04545800 -0.01794600 0.38987800
v -0.04541900 -0.02099300 0.38928400
v -0.04364600 -0.02311000 0.38890700
v -0.03721300 -0.02206400 0.38912700
v -0.03899500 -0.02365000 0.38887400
v -0.04149100 -0.02367000 0.38868200
v -0.03994400 -0.01535200 0.39029100
v -0.03763600 -0.01670200 0.39001400
v -0.04473500 -0.01735800 0.38994900
v -0.03663200 -0.01991400 0.38945600
v -0.04513900 -0.01998700 0.38947300
v -0.04424600 -0.02208500 0.38916300
v -0.03834200 -0.02271300 0.38898300
v -0.04392700 -0.01852700 0.40562100
v -0.04499100 -0.01914400 0.39541400
v -0.04526900 -0.02040000 0.40504900
v -0.04548000 -0.02265800 0.40366500
v -0.04069800 -0.02453900 0.39449100
v -0.03917700 -0.02625800 0.40419700
v -0.04111000 -0.02672600 0.40424400
v -0.04254300 -0.02609900 0.40314200
v -0.03894700 -0.01790000 0.40457500
v -0.03901500 -0.01662300 0.39566500
v -0.04113900 -0.01751900 0.40572200
v -0.04125100 -0.01614300 0.39576700
v -0.04374900 -0.01714100 0.39560400
v -0.03705000 -0.01953700 0.40430000
v -0.03731100 -0.01806700 0.39547100
v -0.03640200 -0.02187100 0.40387100
v -0.03667900 -0.02026500 0.39499500
v -0.04517600 -0.02072500 0.39484700
v -0.03711600 -0.02473600 0.40442500
v -0.03720000 -0.02239200 0.39463600
v -0.04433100 -0.02298600 0.39444700
v -0.04422100 -0.02500200 0.40329400
v -0.03889100 -0.02399500 0.39430000
v -0.04246000 -0.02425600 0.39428200
v -0.04303000 -0.01813200 0.40680300
v -0.04473400 -0.01949000 0.40614200
v -0.04004300 -0.01765300 0.40611600
v -0.04558500 -0.02244800 0.40426600
v -0.03779700 -0.01863700 0.40469800
v -0.03893000 -0.02663200 0.40524300
v -0.03656300 -0.02374200 0.40496800
v -0.04302100 -0.02614300 0.40394800
v -0.03649000 -0.02091700 0.40423000
v -0.04445900 -0.02470900 0.40351100
v -0.04152500 -0.02053300 0.41333200
v -0.03850600 -0.01942400 0.41354700
v -0.04380900 -0.01949300 0.41353300
v -0.03823800 -0.02200200 0.41306900
v -0.04359800 -0.02223500 0.41304000
v -0.03620300 -0.02325200 0.41286400
v -0.04558800 -0.02455900 0.41263200
v -0.04354500 -0.02516900 0.41252400
v -0.03852200 -0.02506000 0.41254200
v -0.03754900 -0.02661500 0.41206500
v -0.04024900 -0.02635400 0.41231700
v -0.04025100 -0.02810300 0.41201100
v -0.04374100 -0.02715800 0.41217500
v -0.03958100 -0.01889200 0.41299600
v -0.04230300 -0.01901600 0.41297900
v -0.04403800 -0.01989000 0.41281100
v -0.03700300 -0.02084100 0.41267400
v -0.04533700 -0.02184400 0.41250700
v -0.03620900 -0.02393700 0.41208900
v -0.04055300 -0.01774400 0.40757700
v -0.04297300 -0.01881200 0.41139800
v -0.04248900 -0.01826100 0.40921100
v -0.03807800 -0.01875200 0.40754900
v -0.04561100 -0.02408400 0.41208100
v -0.04339700 -0.01894100 0.41124800
v -0.03656200 -0.02063900 0.40711900
v -0.04475500 -0.01971400 0.40735100
v -0.04570000 -0.02208200 0.40679700
v -0.04432700 -0.02661200 0.41165500
v -0.03635000 -0.02388800 0.40652000
v -0.03955300 -0.02783800 0.41138700
v -0.04205100 -0.02784800 0.41139900
v -0.04500000 -0.02484200 0.40645700
v -0.03832200 -0.02631000 0.40620000
v -0.04329000 -0.02652600 0.40617200
v -0.04078500 -0.02709700 0.40607700
v -0.04405800 -0.01909800 0.40937300
v -0.04095000 -0.02611100 0.42769300
v -0.04254300 -0.02913300 0.42705900
v -0.03868400 -0.02241400 0.42550300
v -0.04411600 -0.02323500 0.42516000
v -0.03740200 -0.02579000 0.42519900
v -0.04366800 -0.02832100 0.42455900
v -0.03944400 -0.02925800 0.42441700
v -0.03689200 -0.02516300 0.42476600
v -0.03754100 -0.02771100 0.42423500
v -0.04194400 -0.02943200 0.42396300
v -0.03765400 -0.02708400 0.41960400
v -0.04216900 -0.02856200 0.41934300
v -0.04386300 -0.02738300 0.41953200
v -0.03967400 -0.02857700 0.41934800
v -0.04396100 -0.02192700 0.42051100
v -0.04109900 -0.02076200 0.42072300
v -0.04037600 -0.01998500 0.42086300
v -0.04423700 -0.02128900 0.42062400
v -0.04583800 -0.02533600 0.41992100
v -0.04507700 -0.02509400 0.41994600
v -0.03719500 -0.02787300 0.41946300
v -0.04392500 -0.02870700 0.41916500
v -0.04146100 -0.02967700 0.41900600
v -0.04343000 -0.02034400 0.42049200
v -0.03985600 -0.01974200 0.42057900
v -0.04574000 -0.02296100 0.42000200
v -0.03659800 -0.02196800 0.42019600
v -0.04572900 -0.02641000 0.41941600
v -0.03604300 -0.02614300 0.41948600
v -0.03844900 -0.02907800 0.41895400
v -0.04535200 -0.02118600 0.41479200
v -0.04548000 -0.02571300 0.41640900
v -0.04564300 -0.02326800 0.41686100
v -0.04542300 -0.02621200 0.41388100
v -0.04557800 -0.02624300 0.41638900
v -0.04090900 -0.01871600 0.41522900
v -0.04514100 -0.02138900 0.41710600
v -0.04220500 -0.01964500 0.41759600
v -0.03722400 -0.02119600 0.41721500
v -0.03655600 -0.02121100 0.41479800
v -0.04048100 -0.01930900 0.41754300
v -0.03673500 -0.02139800 0.41735300
v -0.03655300 -0.02673800 0.41615300
v -0.03654500 -0.02629100 0.41390300
v -0.03638000 -0.02278300 0.41697100
v -0.04097600 -0.02878800 0.41344600
v -0.03939000 -0.02869200 0.41602700
v -0.04159300 -0.02895100 0.41579700
v -0.04428200 -0.02754200 0.41602600
v -0.03671400 -0.02615600 0.41367000
v -0.04105000 -0.02854500 0.41325200
v -0.04521600 -0.02604200 0.41369700
v -0.04513600 -0.02121100 0.41454200
v -0.03671100 -0.02132100 0.41453000
v -0.04082100 -0.01889000 0.41495000
v -0.04203700 -0.02099400 0.41459100
v -0.03890600 -0.02149900 0.41451000
v -0.04396800 -0.02365600 0.41411300
v -0.03811700 -0.02456000 0.41396400
v -0.04004500 -0.02656900 0.41359400
v -0.04237200 -0.02627100 0.41365100
v -0.04251400 -0.01941400 0.41775600
v -0.03909300 -0.01956200 0.41760700
v -0.04598100 -0.02380500 0.41682700
v -0.03586200 -0.02412000 0.41677300
v -0.03660900 -0.02674400 0.41633600
v -0.04331700 -0.02861200 0.41595900
v -0.03912300 -0.02896200 0.41579000
vn 0.51260000 0.46540000 0.72160000
vn -0.21420000 0.86650000 0.45080000
vn -0.45460000 0.51490000 0.72680000
vn -0.76410000 0.25590000 0.59220000
vn -0.73960000 -0.24080000 0.62850000
vn 0.96350000 -0.25810000 0.07150000
vn 0.80260000 -0.05640000 0.59390000
vn 0.31410000 -0.78700000 0.53110000
vn 0.77940000 -0.01380000 0.62640000
vn 0.16750000 0.01560000 0.98570000
vn 0.38260000 0.31970000 0.86680000
vn 0.44240000 0.64650000 -0.62160000
vn -0.00030000 0.17290000 -0.98490000
vn -0.05300000 0.80630000 -0.58910000
vn -0.57890000 0.52000000 -0.62810000
vn 0.71020000 0.15730000 -0.68620000
vn -0.66500000 -0.11350000 -0.73820000
vn -0.18670000 -0.53230000 -0.82570000
vn 0.42560000 -0.46340000 -0.77720000
vn -0.76460000 0.56570000 0.30890000
vn -0.26610000 0.53110000 0.80440000
vn -0.91810000 0.01910000 0.39600000
vn -0.73430000 -0.60360000 0.31040000
vn 0.40010000 0.91540000 0.04460000
vn 0.78000000 0.40650000 0.47580000
vn 0.73030000 -0.32730000 0.59960000
vn 0.53700000 -0.82440000 0.17880000
vn -0.14820000 -0.91270000 0.38090000
vn -0.14810000 0.12200000 0.98140000
vn 0.14720000 0.53580000 0.83140000
vn -0.39480000 0.71200000 0.58070000
vn 0.97240000 -0.09130000 0.21470000
vn -0.88610000 0.33900000 0.31610000
vn -0.97920000 -0.18550000 0.08180000
vn -0.48870000 -0.86490000 0.11450000
vn -0.63950000 0.75090000 0.16470000
vn 0.19020000 -0.97300000 0.13070000
vn -0.09980000 -0.66590000 0.73940000
vn 0.09190000 0.33200000 0.93880000
vn 0.36040000 -0.89650000 -0.25770000
vn -0.49670000 0.11850000 0.85980000
vn 0.36140000 -0.24750000 0.89900000
vn -0.62330000 -0.22210000 0.74980000
vn -0.56730000 -0.59800000 0.56620000
vn 0.33470000 -0.57600000 0.74580000
vn -0.61490000 0.78130000 0.10730000
vn -0.94850000 0.31490000 0.03530000
vn -0.95010000 0.23350000 0.20670000
vn -0.97560000 -0.20930000 -0.06600000
vn 0.07220000 -0.97970000 -0.18700000
vn 0.40360000 -0.86750000 -0.29090000
vn -0.14600000 -0.96180000 0.23170000
vn -0.37340000 -0.89790000 -0.23290000
vn 0.44510000 0.88750000 0.11910000
vn 0.44670000 0.88290000 0.14480000
vn -0.07380000 0.97640000 0.20320000
vn -0.07960000 0.98190000 0.17170000
vn -0.64450000 0.75380000 0.12800000
vn 0.83040000 0.44130000 0.34010000
vn 0.84650000 0.52750000 0.07140000
vn 1.00000000 -0.00740000 -0.00000000
vn 0.99940000 0.03310000 -0.01040000
vn -0.99370000 -0.10390000 -0.04230000
vn 0.80930000 -0.58740000 -0.00650000
vn 0.86890000 -0.48490000 -0.09930000
vn -0.78640000 -0.60450000 -0.12680000
vn -0.73480000 -0.67370000 -0.07940000
vn 0.48910000 -0.85530000 -0.17110000
vn -0.36720000 -0.91450000 -0.16970000
vn -0.41150000 0.90810000 0.07800000
vn -0.82820000 0.55840000 0.04800000
vn 0.25140000 0.95820000 0.13650000
vn -0.99140000 -0.03910000 -0.12470000
vn 0.64460000 0.74150000 -0.18640000
vn 0.42010000 -0.89030000 -0.17570000
vn 0.92600000 -0.33320000 -0.17730000
vn -0.45030000 -0.86360000 -0.22700000
vn 0.91500000 0.28360000 -0.28700000
vn -0.82580000 -0.51210000 -0.23620000
vn -0.06570000 0.36460000 0.92880000
vn 0.46340000 0.60740000 0.64520000
vn -0.48130000 0.62290000 0.61680000
vn 0.44670000 0.06920000 0.89200000
vn -0.48720000 0.11670000 0.86550000
vn 0.80210000 -0.00480000 0.59710000
vn -0.76970000 -0.31120000 0.55740000
vn -0.41510000 -0.42760000 0.80300000
vn 0.53170000 -0.48280000 0.69580000
vn 0.58940000 -0.62300000 0.51430000
vn 0.11050000 -0.71690000 0.68840000
vn 0.08430000 -0.87600000 0.47500000
vn -0.42370000 -0.74300000 0.51810000
vn 0.20620000 0.89920000 0.38590000
vn -0.16110000 0.91710000 0.36460000
vn -0.71880000 0.69480000 0.02520000
vn 0.81450000 0.46410000 0.34810000
vn -0.88410000 0.25280000 0.39290000
vn 0.97400000 -0.19420000 0.11640000
vn 0.09080000 0.98950000 0.11240000
vn -0.30740000 0.92100000 0.23930000
vn -0.25870000 0.95290000 0.15840000
vn 0.59270000 0.79820000 0.10750000
vn -0.99230000 -0.12320000 -0.01090000
vn -0.52760000 0.82560000 0.20010000
vn 0.93200000 0.36030000 0.03950000
vn -0.82950000 0.55420000 0.06930000
vn -0.99600000 0.08640000 -0.02280000
vn -0.73790000 -0.67490000 -0.00400000
vn 0.94750000 -0.30420000 -0.09890000
vn 0.33490000 -0.93980000 -0.06810000
vn -0.24810000 -0.96870000 0.01240000
vn -0.86460000 -0.48920000 -0.11460000
vn 0.61770000 -0.76760000 -0.17130000
vn -0.48670000 -0.85550000 -0.17670000
vn 0.02230000 -0.96890000 -0.24630000
vn -0.83570000 0.49630000 0.23510000
vn -0.00480000 -0.17970000 0.98370000
vn -0.32440000 -0.78510000 0.52760000
vn 0.57390000 0.78090000 0.24650000
vn -0.81280000 0.54600000 0.20290000
vn 0.90930000 -0.13000000 0.39530000
vn -0.69720000 -0.71690000 0.00150000
vn 0.38320000 -0.92370000 0.00060000
vn 0.90590000 0.09110000 0.41370000
vn 0.75960000 -0.56240000 0.32670000
vn -0.22640000 -0.93080000 0.28700000
vn 0.50900000 -0.50020000 0.70050000
vn -0.22200000 -0.76960000 0.59860000
vn -0.50830000 -0.57610000 0.64000000
vn 0.21940000 -0.78670000 0.57710000
vn -0.41530000 0.25010000 0.87460000
vn -0.02720000 0.44860000 0.89330000
vn -0.01120000 0.43810000 0.89890000
vn -0.53370000 0.35920000 0.76560000
vn -0.80290000 -0.13440000 0.58080000
vn -0.56250000 -0.19260000 0.80400000
vn 0.67710000 -0.62500000 0.38850000
vn -0.48190000 -0.72010000 0.49920000
vn -0.07530000 -0.88540000 0.45870000
vn -0.41710000 0.69190000 0.58930000
vn 0.25690000 0.80020000 0.54200000
vn -0.82030000 0.22190000 0.52720000
vn 0.72050000 0.34990000 0.59870000
vn -0.83350000 -0.41370000 0.36620000
vn 0.81910000 -0.30320000 0.48700000
vn 0.42140000 -0.82480000 0.37710000
vn -0.81270000 0.52130000 -0.26010000
vn -0.86510000 0.11310000 -0.48860000
vn -0.69830000 0.14200000 -0.70150000
vn -0.80490000 -0.37490000 -0.45990000
vn -0.93190000 -0.33490000 -0.13940000
vn -0.00620000 0.98580000 -0.16770000
vn -0.79620000 0.60100000 0.07040000
vn -0.25160000 0.85280000 -0.45770000
vn 0.47090000 0.84780000 -0.24400000
vn 0.80470000 0.54120000 -0.24400000
vn 0.13830000 0.75960000 0.63550000
vn 0.78270000 0.62180000 0.02590000
vn 0.83880000 -0.54430000 0.00550000
vn 0.82360000 -0.41990000 -0.38120000
vn 0.88050000 0.23880000 -0.40950000
vn 0.01110000 -0.87280000 -0.48800000
vn 0.25370000 -0.13510000 -0.95780000
vn -0.16870000 -0.90330000 0.39450000
vn -0.63120000 -0.71030000 -0.31150000
vn 0.47080000 -0.12520000 -0.87330000
vn -0.06270000 -0.36540000 -0.92870000
vn -0.39040000 -0.04130000 -0.91970000
vn -0.41450000 0.44120000 -0.79600000
vn 0.47050000 0.36790000 -0.80200000
vn 0.07350000 0.65770000 -0.74970000
vn -0.23410000 0.66230000 -0.71170000
vn 0.32180000 0.55580000 -0.76650000
vn -0.54580000 0.16770000 -0.82100000
vn 0.53900000 0.01000000 -0.84220000
vn 0.18490000 -0.39500000 -0.89990000
vn -0.25210000 -0.33910000 -0.90630000
vn -0.25490000 0.89470000 -0.36690000
vn 0.32330000 0.84190000 -0.43200000
vn -0.79680000 0.14500000 -0.58650000
vn 0.80750000 0.13820000 -0.57350000
vn 0.81920000 -0.57200000 0.04180000
vn -0.37710000 -0.63250000 -0.67660000
vn 0.19670000 -0.46580000 -0.86280000
vt 0.00000000 0.00000000
vt 0.00000000 0.00000000
vt 0.00000000 0.00000000
vt 0.00000000 0.00000000
vt 0.00000000 0.00000000
vt 0.00000000 0.00000000
vt 0.00000000 0.00000000
vt 0.00000000 0.00000000
vt 0.00000000 0.00000000
vt 0.00000000 0.00000000
vt 0.00000000 0.00000000
vt 0.00000000 0.00000000
vt 0.00000000 0.00000000
vt 0.00000000 0.00000000
vt 0.00000000 0.00000000
vt 0.00000000 0.00000000
vt 0.00000000 0.00000000
vt 0.00000000 0.00000000
vt 0.00000000 0.00000000
vt 0.00000000 0.00000000
vt 0.00000000 0.00000000
vt 0.00000000 0.00000000
vt 0.00000000 0.00000000
vt 0.00000000 0.00000000
vt 0.00000000 0.00000000
vt 0.00000000 0.00000000
vt 0.00000000 0.00000000
vt 0.00000000 0.00000000
vt 0.00000000 0.00000000
vt 0.00000000 0.00000000
vt 0.00000000 0.00000000
vt 0.00000000 0.00000000
vt 0.00000000 0.00000000
vt 0.00000000 0.00000000
vt 0.00000000 0.00000000
vt 0.00000000 0.00000000
vt 0.00000000 0.00000000
vt 0.00000000 0.00000000
vt 0.00000000 0.00000000
vt 0.00000000 0.00000000
vt 0.00000000 0.00000000
vt 0.00000000 0.00000000
vt 0.00000000 0.00000000
vt 0.00000000 0.00000000
vt 0.00000000 0.00000000
vt 0.00000000 0.00000000
vt 0.00000000 0.00000000
vt 0.00000000 0.00000000
vt 0.00000000 0.00000000
vt 0.00000000 0.00000000
vt 0.00000000 0.00000000
vt 0.00000000 0.00000000
vt 0.00000000 0.00000000
vt 0.00000000 0.00000000
vt 0.00000000 0.00000000
vt 0.00000000 0.00000000
vt 0.00000000 0.00000000
vt 0.00000000 0.00000000
vt 0.00000000 0.00000000
vt 0.00000000 0.00000000
vt 0.00000000 0.00000000
vt 0.00000000 0.00000000
vt 0.00000000 0.00000000
vt 0.00000000 0.00000000
vt 0.00000000 0.00000000
vt 0.00000000 0.00000000
vt 0.00000000 0.00000000
vt 0.00000000 0.00000000
vt 0.00000000 0.00000000
vt 0.00000000 0.00000000
vt 0.00000000 0.00000000
vt 0.00000000 0.00000000
vt 0.00000000 0.00000000
vt 0.00000000 0.00000000
vt 0.00000000 0.00000000
vt 0.00000000 0.00000000
vt 0.00000000 0.00000000
vt 0.00000000 0.00000000
vt 0.00000000 0.00000000
vt 0.00000000 0.00000000
vt 0.00000000 0.00000000
vt 0.00000000 0.00000000
vt 0.00000000 0.00000000
vt 0.00000000 0.00000000
vt 0.00000000 0.00000000
vt 0.00000000 0.00000000
vt 0.00000000 0.00000000
vt 0.00000000 0.00000000
vt 0.00000000 0.00000000
vt 0.00000000 0.00000000
vt 0.00000000 0.00000000
vt 0.00000000 0.00000000
vt 0.00000000 0.00000000
vt 0.00000000 0.00000000
vt 0.00000000 0.00000000
vt 0.00000000 0.00000000
vt 0.00000000 0.00000000
vt 0.00000000 0.00000000
vt 0.00000000 0.00000000
vt 0.00000000 0.00000000
vt 0.00000000 0.00000000
vt 0.00000000 0.00000000
vt 0.00000000 0.00000000
vt 0.00000000 0.00000000
vt 0.00000000 0.00000000
vt 0.00000000 0.00000000
vt 0.00000000 0.00000000
vt 0.00000000 0.00000000
vt 0.00000000 0.00000000
vt 0.00000000 0.00000000
vt 0.00000000 0.00000000
vt 0.00000000 0.00000000
vt 0.00000000 0.00000000
vt 0.00000000 0.00000000
vt 0.00000000 0.00000000
vt 0.00000000 0.00000000
vt 0.00000000 0.00000000
vt 0.00000000 0.00000000
vt 0.00000000 0.00000000
vt 0.00000000 0.00000000
vt 0.00000000 0.00000000
vt 0.00000000 0.00000000
vt 0.00000000 0.00000000
vt 0.00000000 0.00000000
vt 0.00000000 0.00000000
vt 0.00000000 0.00000000
vt 0.00000000 0.00000000
vt 0.00000000 0.00000000
vt 0.00000000 0.00000000
vt 0.00000000 0.00000000
vt 0.00000000 0.00000000
vt 0.00000000 0.00000000
vt 0.00000000 0.00000000
vt 0.00000000 0.00000000
vt 0.00000000 0.00000000
vt 0.00000000 0.00000000
vt 0.00000000 0.00000000
vt 0.00000000 0.00000000
vt 0.00000000 0.00000000
vt 0.00000000 0.00000000
vt 0.00000000 0.00000000
vt 0.00000000 0.00000000
vt 0.00000000 0.00000000
vt 0.00000000 0.00000000
vt 0.00000000 0.00000000
vt 0.00000000 0.00000000
vt 0.00000000 0.00000000
vt 0.00000000 0.00000000
vt 0.00000000 0.00000000
vt 0.00000000 0.00000000
vt 0.00000000 0.00000000
vt 0.00000000 0.00000000
vt 0.00000000 0.00000000
vt 0.00000000 0.00000000
vt 0.00000000 0.00000000
vt 0.00000000 0.00000000
vt 0.00000000 0.00000000
vt 0.00000000 0.00000000
vt 0.00000000 0.00000000
vt 0.00000000 0.00000000
vt 0.00000000 0.00000000
vt 0.00000000 0.00000000
vt 0.00000000 0.00000000
vt 0.00000000 0.00000000
vt 0.00000000 0.00000000
vt 0.00000000 0.00000000
vt 0.00000000 0.00000000
vt 0.00000000 0.00000000
vt 0.00000000 0.00000000
vt 0.00000000 0.00000000
vt 0.00000000 0.00000000
vt 0.00000000 0.00000000
vt 0.00000000 0.00000000
vt 0.00000000 0.00000000
vt 0.00000000 0.00000000
vt 0.00000000 0.00000000
vt 0.00000000 0.00000000
vt 0.00000000 0.00000000
vt 0.00000000 0.00000000
vt 0.00000000 0.00000000
vt 0.00000000 0.00000000
vt 0.00000000 0.00000000
vt 0.00000000 0.00000000
vt 0.00000000 0.00000000
f 1/1/1 2/2/2 3/3/3
f 2/2/2 4/4/4 3/3/3
f 4/4/4 5/5/5 3/3/3
f 6/6/6 1/1/1 7/7/7
f 8/8/8 6/6/6 7/7/7
f 9/9/9 10/10/10 11/11/11
f 12/12/12 13/13/13 14/14/14
f 13/13/13 15/15/15 14/14/14
f 16/16/16 13/13/13 12/12/12
f 13/13/13 18/18/18 17/17/17
f 13/13/13 16/16/16 19/19/19
f 15/15/15 20/20/20 21/21/21
f 15/15/15 22/22/22 20/20/20
f 15/15/15 17/17/17 22/22/22
f 17/17/17 23/23/23 22/22/22
f 24/24/24 14/14/14 21/21/21
f 14/14/14 15/15/15 21/21/21
f 12/12/12 14/14/14 24/24/24
f 25/25/25 12/12/12 24/24/24
f 19/19/19 26/26/26 27/27/27
f 18/18/18 28/28/28 23/23/23
f 28/28/28 19/19/19 27/27/27
f 16/16/16 12/12/12 25/25/25
f 18/18/18 19/19/19 28/28/28
f 26/26/26 16/16/16 25/25/25
f 19/19/19 16/16/16 26/26/26
f 17/17/17 18/18/18 23/23/23
f 21/21/21 29/29/29 30/30/30
f 30/30/30 24/24/24 21/21/21
f 21/21/21 31/31/31 29/29/29
f 30/30/30 25/25/25 24/24/24
f 21/21/21 20/20/20 31/31/31
f 32/32/32 25/25/25 30/30/30
f 20/20/20 33/33/33 31/31/31
f 20/20/20 22/22/22 33/33/33
f 32/32/32 26/26/26 25/25/25
f 22/22/22 34/34/34 33/33/33
f 22/22/22 23/23/23 34/34/34
f 23/23/23 35/35/35 34/34/34
f 36/36/36 27/27/27 26/26/26
f 37/37/37 27/27/27 36/36/36
f 23/23/23 28/28/28 35/35/35
f 28/28/28 38/38/38 35/35/35
f 37/37/37 28/28/28 27/27/27
f 28/28/28 37/37/37 38/38/38
f 29/29/29 39/39/39 30/30/30
f 40/40/40 30/30/30 39/39/39
f 41/41/41 29/29/29 31/31/31
f 40/40/40 32/32/32 30/30/30
f 33/33/33 41/41/41 31/31/31
f 42/42/42 32/32/32 40/40/40
f 33/33/33 43/43/43 41/41/41
f 34/34/34 43/43/43 33/33/33
f 26/26/26 32/32/32 42/42/42
f 34/34/34 44/44/44 43/43/43
f 36/36/36 26/26/26 42/42/42
f 45/45/45 36/36/36 42/42/42
f 35/35/35 44/44/44 34/34/34
f 37/37/37 36/36/36 45/45/45
f 35/35/35 38/38/38 44/44/44
f 38/38/38 37/37/37 45/45/45
f 46/46/46 58/58/58 48/48/48
f 47/47/47 49/49/49 48/48/48
f 50/50/50 51/51/51 52/52/52
f 53/53/53 50/50/50 52/52/52
f 55/55/55 57/57/57 54/54/54
f 57/57/57 58/58/58 56/56/56
f 60/60/60 55/55/55 54/54/54
f 62/62/62 60/60/60 61/61/61
f 47/47/47 63/63/63 49/49/49
f 64/64/64 65/65/65 61/61/61
f 65/65/65 62/62/62 61/61/61
f 63/63/63 66/66/66 49/49/49
f 66/66/66 67/67/67 49/49/49
f 68/68/68 65/65/65 64/64/64
f 66/66/66 69/69/69 67/67/67
f 51/51/51 68/68/68 64/64/64
f 50/50/50 68/68/68 51/51/51
f 69/69/69 50/50/50 53/53/53
f 39/39/39 29/29/29 57/57/57
f 55/55/55 39/39/39 57/57/57
f 29/29/29 58/58/58 57/57/57
f 40/40/40 39/39/39 55/55/55
f 60/60/60 40/40/40 55/55/55
f 29/29/29 41/41/41 58/58/58
f 41/41/41 47/47/47 58/58/58
f 42/42/42 40/40/40 62/62/62
f 41/41/41 43/43/43 63/63/63
f 65/65/65 42/42/42 62/62/62
f 43/43/43 44/44/44 66/66/66
f 45/45/45 42/42/42 65/65/65
f 68/68/68 45/45/45 65/65/65
f 44/44/44 38/38/38 69/69/69
f 38/38/38 45/45/45 68/68/68
f 38/38/38 50/50/50 69/69/69
f 56/56/56 46/46/46 70/70/70
f 46/46/46 71/71/71 70/70/70
f 72/72/72 56/56/56 70/70/70
f 46/46/46 48/48/48 71/71/71
f 54/54/54 56/56/56 72/72/72
f 48/48/48 73/73/73 71/71/71
f 74/74/74 54/54/54 72/72/72
f 51/51/51 64/64/64 75/75/75
f 64/64/64 76/76/76 75/75/75
f 52/52/52 51/51/51 75/75/75
f 59/59/59 54/54/54 74/74/74
f 64/64/64 61/61/61 76/76/76
f 48/48/48 49/49/49 73/73/73
f 77/77/77 52/52/52 75/75/75
f 61/61/61 78/78/78 76/76/76
f 78/78/78 59/59/59 74/74/74
f 61/61/61 59/59/59 78/78/78
f 53/53/53 52/52/52 77/77/77
f 67/67/67 53/53/53 77/77/77
f 49/49/49 79/79/79 73/73/73
f 79/79/79 67/67/67 77/77/77
f 49/49/49 67/67/67 79/79/79
f 80/80/80 81/81/81 82/82/82
f 80/80/80 83/83/83 81/81/81
f 84/84/84 80/80/80 82/82/82
f 83/83/83 85/85/85 81/81/81
f 86/86/86 84/84/84 82/82/82
f 86/86/86 87/87/87 84/84/84
f 88/88/88 85/85/85 83/83/83
f 88/88/88 89/89/89 85/85/85
f 90/90/90 91/91/91 88/88/88
f 91/91/91 89/89/89 88/88/88
f 86/86/86 92/92/92 87/87/87
f 87/87/87 92/92/92 90/90/90
f 81/81/81 93/93/93 82/82/82
f 93/93/93 94/94/94 82/82/82
f 94/94/94 95/95/95 82/82/82
f 96/96/96 93/93/93 81/81/81
f 85/85/85 96/96/96 81/81/81
f 95/95/95 97/97/97 82/82/82
f 98/98/98 96/96/96 85/85/85
f 99/99/99 101/101/101 93/93/93
f 97/97/97 86/86/86 82/82/82
f 100/100/100 95/95/95 94/94/94
f 101/101/101 100/100/100 94/94/94
f 102/102/102 99/99/99 93/93/93
f 96/96/96 102/102/102 93/93/93
f 97/97/97 103/103/103 86/86/86
f 100/100/100 104/104/104 95/95/95
f 105/105/105 102/102/102 96/96/96
f 104/104/104 106/106/106 95/95/95
f 106/106/106 97/97/97 95/95/95
f 89/89/89 98/98/98 85/85/85
f 106/106/106 107/107/107 97/97/97
f 98/98/98 105/105/105 96/96/96
f 107/107/107 103/103/103 97/97/97
f 108/108/108 92/92/92 86/86/86
f 103/103/103 108/108/108 86/86/86
f 109/109/109 105/105/105 98/98/98
f 91/91/91 110/110/110 89/89/89
f 111/111/111 91/91/91 92/92/92
f 108/108/108 111/111/111 92/92/92
f 111/111/111 110/110/110 91/91/91
f 107/107/107 112/112/112 103/103/103
f 112/112/112 108/108/108 103/103/103
f 89/89/89 109/109/109 98/98/98
f 113/113/113 109/109/109 89/89/89
f 112/112/112 114/114/114 108/108/108
f 110/110/110 113/113/113 89/89/89
f 114/114/114 111/111/111 108/108/108
f 114/114/114 115/115/115 111/111/111
f 115/115/115 110/110/110 111/111/111
f 99/99/99 70/70/70 101/101/101
f 70/70/70 116/116/116 101/101/101
f 116/116/116 106/106/106 104/104/104
f 70/70/70 106/106/106 116/116/116
f 110/110/110 115/115/115 113/113/113
f 72/72/72 70/70/70 99/99/99
f 102/102/102 74/74/74 99/99/99
f 74/74/74 72/72/72 99/99/99
f 71/71/71 106/106/106 70/70/70
f 105/105/105 74/74/74 102/102/102
f 71/71/71 107/107/107 106/106/106
f 78/78/78 74/74/74 105/105/105
f 71/71/71 73/73/73 107/107/107
f 109/109/109 78/78/78 105/105/105
f 76/76/76 78/78/78 109/109/109
f 73/73/73 112/112/112 107/107/107
f 79/79/79 77/77/77 114/114/114
f 73/73/73 79/79/79 112/112/112
f 75/75/75 76/76/76 109/109/109
f 113/113/113 75/75/75 109/109/109
f 115/115/115 75/75/75 113/113/113
f 77/77/77 115/115/115 114/114/114
f 77/77/77 75/75/75 115/115/115
f 101/101/101 104/104/104 100/100/100
f 101/101/101 116/116/116 104/104/104
f 117/117/117 1/1/1 3/3/3
f 5/5/5 117/117/117 3/3/3
f 117/117/117 7/7/7 1/1/1
f 5/5/5 118/118/118 117/117/117
f 8/8/8 7/7/7 117/117/117
f 118/118/118 8/8/8 117/117/117
f 119/119/119 2/2/2 1/1/1
f 120/120/120 4/4/4 2/2/2
f 121/121/121 119/119/119 1/1/1
f 120/120/120 5/5/5 4/4/4
f 122/122/122 118/118/118 5/5/5
f 8/8/8 123/123/123 6/6/6
f 123/123/123 121/121/121 6/6/6
f 123/123/123 8/8/8 118/118/118
f 122/122/122 123/123/123 118/118/118
f 121/121/121 124/124/124 119/119/119
f 125/125/125 124/124/124 121/121/121
f 123/123/123 125/125/125 121/121/121
f 126/126/126 123/123/123 122/122/122
f 125/125/125 9/9/9 124/124/124
f 127/127/127 9/9/9 125/125/125
f 123/123/123 130/130/130 125/125/125
f 122/122/122 129/129/129 126/126/126
f 126/126/126 130/130/130 123/123/123
f 128/128/128 130/130/130 126/126/126
f 133/133/133 134/134/134 132/132/132
f 11/11/11 10/10/10 133/133/133
f 132/132/132 11/11/11 133/133/133
f 135/135/135 131/131/131 134/134/134
f 135/135/135 136/136/136 131/131/131
f 127/127/127 137/137/137 9/9/9
f 135/135/135 129/129/129 136/136/136
f 138/138/138 129/129/129 135/135/135
f 130/130/130 137/137/137 127/127/127
f 138/138/138 128/128/128 129/129/129
f 139/139/139 137/137/137 130/130/130
f 128/128/128 139/139/139 130/130/130
f 138/138/138 139/139/139 128/128/128
f 140/140/140 134/134/134 133/133/133
f 141/141/141 140/140/140 133/133/133
f 10/10/10 141/141/141 133/133/133
f 140/140/140 142/142/142 134/134/134
f 143/143/143 141/141/141 10/10/10
f 142/142/142 135/135/135 134/134/134
f 9/9/9 143/143/143 10/10/10
f 142/142/142 144/144/144 135/135/135
f 145/145/145 143/143/143 9/9/9
f 137/137/137 145/145/145 9/9/9
f 144/144/144 138/138/138 135/135/135
f 146/146/146 145/145/145 137/137/137
f 139/139/139 146/146/146 137/137/137
f 147/147/147 148/148/148 149/149/149
f 147/147/147 150/150/150 148/148/148
f 150/150/150 151/151/151 148/148/148
f 152/152/152 147/147/147 154/154/154
f 156/156/156 152/152/152 155/155/155
f 156/156/156 155/155/155 158/158/158
f 159/159/159 160/160/160 161/161/161
f 160/160/160 156/156/156 161/161/161
f 161/161/161 156/156/156 158/158/158
f 152/152/152 154/154/154 157/157/157
f 162/162/162 163/163/163 164/164/164
f 147/147/147 149/149/149 153/153/153
f 150/150/150 165/165/165 151/151/151
f 162/162/162 160/160/160 159/159/159
f 163/163/163 162/162/162 159/159/159
f 162/162/162 166/166/166 160/160/160
f 162/162/162 167/167/167 166/166/166
f 150/150/150 164/164/164 165/165/165
f 150/150/150 162/162/162 164/164/164
f 168/168/168 167/167/167 150/150/150
f 167/167/167 162/162/162 150/150/150
f 169/169/169 150/150/150 147/147/147
f 168/168/168 150/150/150 169/169/169
f 160/160/160 166/166/166 156/156/156
f 166/166/166 170/170/170 156/156/156
f 156/156/156 170/170/170 152/152/152
f 170/170/170 171/171/171 152/152/152
f 172/172/172 169/169/169 171/171/171
f 170/170/170 173/173/173 171/171/171
f 173/173/173 172/172/172 171/171/171
f 172/172/172 174/174/174 169/169/169
f 174/174/174 168/168/168 169/169/169
f 166/166/166 175/175/175 170/170/170
f 175/175/175 173/173/173 170/170/170
f 166/166/166 176/176/176 175/175/175
f 177/177/177 168/168/168 174/174/174
f 167/167/167 168/168/168 177/177/177
f 166/166/166 167/167/167 176/176/176
f 176/176/176 167/167/167 177/177/177
f 171/171/171 147/147/147 152/152/152
f 169/169/169 147/147/147 171/171/171
f 119/119/119 132/132/132 2/2/2
f 131/131/131 120/120/120 2/2/2
f 132/132/132 131/131/131 2/2/2
f 11/11/11 132/132/132 119/119/119
f 136/136/136 5/5/5 120/120/120
f 131/131/131 136/136/136 120/120/120
f 124/124/124 9/9/9 11/11/11
f 5/5/5 136/136/136 122/122/122
f 136/136/136 129/129/129 122/122/122
f 178/178/178 140/140/140 141/141/141
f 179/179/179 178/178/178 141/141/141
f 143/143/143 158/158/158 179/179/179
f 153/153/153 142/142/142 140/140/140
f 178/178/178 153/153/153 140/140/140
f 153/153/153 180/180/180 142/142/142
f 145/145/145 181/181/181 143/143/143
f 181/181/181 158/158/158 143/143/143
f 180/180/180 144/144/144 142/142/142
f 180/180/180 151/151/151 144/144/144
f 182/182/182 181/181/181 145/145/145
f 151/151/151 138/138/138 144/144/144
f 146/146/146 182/182/182 145/145/145
f 151/151/151 183/183/183 138/138/138
f 184/184/184 182/182/182 146/146/146
f 183/183/183 139/139/139 138/138/138
f 139/139/139 184/184/184 146/146/146
f 183/183/183 184/184/184 139/139/139
f 179/179/179 155/155/155 157/157/157
f 179/179/179 154/154/154 178/178/178
f 157/157/157 154/154/154 179/179/179
f 154/154/154 153/153/153 178/178/178
f 158/158/158 155/155/155 179/179/179
f 149/149/149 180/180/180 153/153/153
f 181/181/181 161/161/161 158/158/158
f 159/159/159 161/161/161 181/181/181
f 149/149/149 151/151/151 180/180/180
f 182/182/182 159/159/159 181/181/181
f 148/148/148 151/151/151 149/149/149
f 165/165/165 183/183/183 151/151/151
f 184/184/184 163/163/163 182/182/182
f 163/163/163 159/159/159 182/182/182
f 165/165/165 164/164/164 183/183/183
f 164/164/164 184/184/184 183/183/183
f 164/164/164 163/163/163 184/184/184
f 173/173/173 80/80/80 172/172/172
f 83/83/83 80/80/80 173/173/173
f 80/80/80 84/84/84 172/172/172
f 84/84/84 174/174/174 172/172/172
f 175/175/175 83/83/83 173/173/173
f 84/84/84 87/87/87 174/174/174
f 176/176/176 88/88/88 175/175/175
f 88/88/88 83/83/83 175/175/175
f 87/87/87 177/177/177 174/174/174
f 90/90/90 88/88/88 176/176/176
f 87/87/87 90/90/90 177/177/177
f 90/90/90 176/176/176 177/177/177
f 13/13/13 17/17/17 15/15/15
f 13/13/13 19/19/19 18/18/18
f 58/58/58 47/47/47 48/48/48
f 57/57/57 56/56/56 54/54/54
f 58/58/58 46/46/46 56/56/56
f 60/60/60 54/54/54 59/59/59
f 60/60/60 59/59/59 61/61/61
f 69/69/69 53/53/53 67/67/67
f 40/40/40 60/60/60 62/62/62
f 41/41/41 63/63/63 47/47/47
f 43/43/43 66/66/66 63/63/63
f 44/44/44 69/69/69 66/66/66
f 38/38/38 68/68/68 50/50/50
f 92/92/92 91/91/91 90/90/90
f 101/101/101 94/94/94 93/93/93
f 79/79/79 114/114/114 112/112/112
f 121/121/121 1/1/1 6/6/6
f 130/130/130 127/127/127 125/125/125
f 129/129/129 128/128/128 126/126/126
f 134/134/134 131/131/131 132/132/132
f 147/147/147 153/153/153 154/154/154
f 152/152/152 157/157/157 155/155/155
f 124/124/124 11/11/11 119/119/119
f 143/143/143 179/179/179 141/141/141

