mtllib material.mtl
usemtl Material-Metal.013
v 0.01635400 -0.00531500 0.38912400
v 0.02277200 -0.00139300 0.38871700
v 0.01607700 0.00102200 0.38870300
v 0.02300100 0.00196200 0.38876000
v 0.02670500 0.00594800 0.38936400
v 0.01916600 0.00620900 0.38938200
v 0.01631500 0.00622100 0.38922500
v 0.02666700 -0.00615800 0.38942300
v 0.01608600 -0.01460200 0.39206300
v 0.01903000 -0.01108800 0.39063600
v 0.01898100 0.01094100 0.39062300
v 0.01629500 0.01501300 0.39244100
v 0.01892300 0.01405800 0.39278100
v 0.01901000 0.01628800 0.39329300
v 0.01634800 0.02147100 0.39689400
v 0.01906400 -0.01573200 0.39277500
v 0.01625600 -0.02125700 0.39669300
v 0.01918600 0.01863200 0.39571100
v 0.01897200 -0.01990600 0.39568600
v 0.02590200 -0.01117500 0.39069200
v 0.02801500 -0.01029900 0.39012700
v 0.02712100 -0.01600100 0.39294000
v 0.02790500 0.01546500 0.39266800
v 0.02796500 0.02142400 0.39683900
v 0.02605100 0.01949100 0.39571500
v 0.02792400 -0.02166900 0.39702400
v 0.02621900 -0.01956700 0.39567800
v 0.02786700 0.02161500 0.39268200
v 0.02800400 0.01359700 0.38601100
v 0.02808200 0.01056300 0.38785200
v 0.02747500 0.01051700 0.39043900
v 0.02806000 -0.01045100 0.38784700
v 0.02782300 -0.01419600 0.38534800
v 0.02780500 -0.02454400 0.39450000
v 0.02278700 0.00143800 0.38634000
v 0.01600000 -0.00507400 0.38677700
v 0.01601400 0.00249500 0.38639300
v 0.01600000 0.00992100 0.38779500
v 0.02658700 0.00569200 0.38683900
v 0.02308200 -0.00205900 0.38645100
v 0.02663800 -0.00557100 0.38683300
v 0.01600000 -0.00963500 0.38776000
v 0.01602300 0.01323800 0.38425000
v 0.01603400 0.02153000 0.39652100
v 0.01600500 0.02048000 0.38229300
v 0.01604300 -0.02137700 0.38250000
v 0.01599700 -0.01319700 0.38378900
v 0.01575000 -0.01255600 0.38185500
v 0.01599800 -0.01238400 0.38686200
v 0.01601400 -0.02188200 0.39691400
v 0.01599400 0.01242600 0.38678600
v 0.01600000 0.01136900 0.39030400
v 0.01599800 -0.00725600 0.38910000
v 0.01870300 0.02356100 0.38758900
v 0.01631200 0.02274200 0.38228000
v 0.01635800 0.02270200 0.39187800
v 0.01848800 0.02369100 0.38098500
v 0.01901500 -0.02340300 0.38734100
v 0.01663300 -0.02314100 0.39147400
v 0.01688400 -0.02321000 0.38253300
v 0.01818300 -0.02397400 0.38060700
v 0.01681900 0.02618600 0.39370300
v 0.01893400 0.02436100 0.38990100
v 0.02289200 0.02818300 0.39183000
v 0.02200800 0.02364000 0.38823300
v 0.01648800 -0.02553700 0.39442200
v 0.02081300 -0.02805100 0.39170500
v 0.01980500 -0.02453200 0.38949700
v 0.02466900 -0.01964900 0.38582400
v 0.02790700 -0.02293800 0.39710300
v 0.01624600 -0.02272600 0.39725000
v 0.02776000 0.02289300 0.39712400
v 0.01610200 0.02298000 0.39703200
v -0.01593000 0.02545100 0.37800000
v -0.00932600 0.02853500 0.37865300
v -0.01574100 0.02569000 0.37472000
v -0.01560600 -0.02588300 0.37473000
v -0.00943900 -0.02845100 0.37851200
v -0.01590600 -0.02512200 0.37870800
v -0.00657800 0.02927000 0.37510000
v -0.00657800 -0.02927000 0.37510000
v -0.00749100 -0.02881500 0.38030900
v -0.00751100 0.02869900 0.38045500
v -0.00650400 0.02932700 0.38890700
v -0.00679500 -0.02928600 0.38939100
v -0.00198400 0.03000000 0.38721900
v 0.00112100 0.03010000 0.37511800
v -0.00151200 -0.02996200 0.37510000
v -0.00291000 -0.02993000 0.38716400
v 0.00305700 0.03014800 0.38060200
v 0.00262400 -0.02990100 0.38062300
v 0.00677900 -0.02933500 0.37512900
v 0.00225000 -0.02995200 0.38913700
v 0.00227100 0.02994000 0.38971000
v 0.01102600 0.02799500 0.37512000
v 0.00977700 -0.02852300 0.38033400
v 0.01256600 0.02730400 0.38038800
v 0.01576500 -0.02562200 0.37510800
v 0.01996100 0.02263300 0.37511600
v 0.02158000 -0.02084000 0.37510000
v 0.02269300 -0.01972900 0.38429500
v 0.02350600 0.01877500 0.38349100
v 0.02643000 0.01445400 0.37510800
v 0.02624300 -0.01468900 0.37513400
v 0.02680800 -0.01400500 0.38168100
v 0.02719400 0.01275900 0.37991800
v 0.02846300 0.00951100 0.37776400
v 0.02973400 0.00480300 0.37505200
v 0.02865500 -0.00901300 0.37772400
v 0.02975500 -0.00452000 0.37510600
v 0.03000600 0.00019500 0.37764600
v -0.01630100 0.01833200 0.37848600
v -0.01561100 0.01919100 0.37829400
v -0.01720400 0.02229200 0.37868900
v -0.01582800 0.02351200 0.37840400
v -0.01455700 0.02522600 0.37883400
v -0.00861100 0.02343100 0.37878700
v -0.00724600 0.03211400 0.40158100
v -0.00421400 0.03450300 0.40011800
v -0.00726700 0.03568000 0.39950900
v 0.00220500 0.03228700 0.40148200
v -0.00274100 0.03331700 0.40078300
v -0.00404100 0.03842500 0.39791800
v -0.00173500 0.03615800 0.39908000
v -0.00002100 0.03787300 0.39821600
v -0.00089800 0.03435300 0.40023900
v 0.00223400 0.03590700 0.39906400
v 0.00239000 0.00247100 0.38418300
v -0.00640500 0.00951900 0.38530800
v -0.00724700 0.00228700 0.38411300
v 0.00236800 0.01026200 0.38552900
v -0.00687800 0.01609300 0.38784400
v 0.00219900 0.01602300 0.38778800
v 0.00219300 0.02042900 0.39027800
v -0.00637600 0.02618700 0.39503200
v -0.00676800 0.02048800 0.39042600
v 0.00228200 0.02705000 0.39594600
v -0.00700200 0.03100400 0.40115700
v 0.00245900 0.03122900 0.40155000
v 0.00228600 -0.02566700 0.39451600
v 0.00224700 -0.01964800 0.38999600
v -0.00701400 -0.02042400 0.39025300
v -0.00635700 -0.02650300 0.39536300
v 0.00220500 -0.03094100 0.40115000
v -0.00680800 -0.03110900 0.40146000
v 0.00236700 -0.00875600 0.38511100
v 0.00240000 -0.00162500 0.38435300
v -0.00695800 -0.00202400 0.38417100
v -0.00636800 -0.00964700 0.38534500
v 0.00219100 -0.01603100 0.38779600
v -0.00675300 -0.01606800 0.38782200
v -0.00741800 -0.00973800 0.38589400
v -0.00747900 -0.01719600 0.38820600
v 0.00443400 0.01956100 0.38068800
v 0.00877400 0.02061300 0.38067400
v 0.00393000 0.02962000 0.38069100
v 0.01000000 0.01732100 0.38070000
v 0.01148900 0.01807100 0.38065800
v 0.01232400 0.02687700 0.38071100
v 0.01424300 0.01416000 0.38067400
v 0.01457600 0.01848100 0.38066000
v 0.00451000 -0.02951300 0.38068200
v 0.00865400 -0.02230500 0.38065700
v 0.00478600 -0.01952500 0.38068900
v 0.01010500 -0.01874900 0.38064700
v 0.01293600 -0.01549500 0.38066000
v 0.01285000 -0.02653700 0.38073500
v 0.01472900 -0.01839700 0.38079000
v -0.00521700 0.01950900 0.37514200
v -0.01172400 0.01671200 0.37809100
v -0.01140300 0.01674500 0.37510600
v -0.00707200 -0.01867700 0.37879000
v -0.00543000 -0.01935600 0.37507200
v -0.01079300 -0.01704000 0.37474600
v -0.00682000 0.01882700 0.37921600
v -0.00591000 0.01929500 0.38493300
v -0.00625300 -0.01890900 0.38546900
v -0.00218800 -0.01996000 0.38485900
v 0.00207000 0.01991600 0.38620300
v 0.00209100 0.01989000 0.37510000
v 0.00209100 -0.01989000 0.37510000
v 0.00170000 -0.01989300 0.38622100
v 0.00251300 0.01995600 0.38204300
v 0.00618000 0.01902100 0.37510000
v 0.00256100 -0.01987600 0.38176100
v 0.00782900 -0.01848400 0.37473400
v 0.00251800 -0.01831600 0.38713800
v 0.01207900 0.01602400 0.37474600
v 0.01309600 -0.01507300 0.37472800
v 0.01701600 0.01089600 0.37515800
v 0.01618000 -0.01175600 0.37510000
v 0.01566700 0.01238900 0.38158500
v 0.01633700 0.01152100 0.37948100
v 0.01813600 0.00854800 0.37768700
v 0.01679100 -0.01087800 0.37877100
v 0.01812200 -0.00856400 0.37767500
v 0.01910400 -0.00626600 0.37510000
v 0.01993400 0.00278800 0.37769600
v 0.02001100 0.00178000 0.37513000
v 0.01956300 -0.00415800 0.37770000
v 0.02120500 0.02390700 0.39598000
v 0.02052200 0.02574600 0.39417100
v 0.02367800 0.02538500 0.39455500
v 0.02760200 0.02551700 0.39438900
v 0.02082900 -0.02409600 0.39585700
v 0.02042600 -0.02543200 0.39445700
v 0.02225100 -0.02623000 0.39368200
v 0.02614400 -0.02658800 0.39341600
v 0.02372300 -0.02482900 0.39503300
v -0.01096800 -0.02522800 0.37855300
v -0.01561600 -0.02409900 0.37829200
v -0.00226900 -0.03331400 0.40078800
v 0.00250700 -0.03179300 0.40161100
v -0.00731100 -0.03227900 0.40148900
v -0.00410800 -0.03430200 0.40025300
v -0.00577800 -0.03751900 0.39836200
v -0.00239000 -0.03738500 0.39859600
v -0.00082400 -0.03446100 0.40014700
v 0.00192500 -0.03646600 0.39892000
v 0.00249700 0.00079900 0.38250900
v 0.00253000 0.01080700 0.38405000
v 0.00250000 -0.00772700 0.38339200
v 0.00251100 0.01987400 0.38981900
v 0.00250200 0.02964000 0.38248200
v 0.00249500 0.02636800 0.39470300
v 0.00237900 0.03054400 0.39154900
v 0.00250400 -0.02961400 0.38208900
v 0.00251300 -0.01705300 0.38829200
v 0.00252900 -0.03027900 0.39285800
v 0.00250000 -0.01269500 0.38477700
v 0.00236000 0.00081500 0.38497700
v 0.00252300 0.01689800 0.38710700
v 0.00249800 -0.02623400 0.39464000
v -0.00753200 0.01927300 0.38631300
v -0.00750200 0.02009900 0.38958500
v -0.00751200 0.02021700 0.38051800
v -0.00748800 0.02879200 0.39093800
v -0.00745000 -0.01947600 0.38548100
v -0.00750000 -0.02853300 0.38979000
v -0.00708700 0.00972900 0.38379600
v -0.00758600 -0.00127100 0.38340300
v -0.00732700 0.00030100 0.38521400
v -0.00682100 -0.01656900 0.38642000
v -0.00717900 -0.00946100 0.38376500
v -0.00756100 0.01651400 0.38730200
v -0.00740400 0.01721500 0.38937800
v -0.00750300 -0.03153900 0.40112100
v -0.00756500 -0.03408600 0.39981100
v -0.00736700 0.03372300 0.39619700
v -0.00750200 0.03133400 0.40123300
v -0.01514700 0.01721900 0.37471900
v -0.01777500 0.02158200 0.37482300
v -0.01440100 -0.01693200 0.37475000
v -0.01474400 -0.02082800 0.37469000
v -0.01759500 -0.02083900 0.37474100
v -0.01188800 0.02366500 0.37468500
v -0.01472200 0.02137500 0.37477500
v -0.01230900 0.01941700 0.37469700
v -0.00617500 0.02540000 0.37470000
v -0.00667300 0.02886600 0.37469300
v -0.01329300 -0.02374200 0.37469000
v -0.00617500 -0.02540000 0.37470000
v -0.01133000 -0.02001800 0.37469300
v -0.00669200 0.01934600 0.37464300
v -0.01089500 -0.02327300 0.37469200
v -0.01033800 0.02099400 0.37469900
v -0.00338000 -0.02974300 0.37469000
v -0.00083300 -0.02047600 0.37470800
v 0.00256500 0.02959700 0.37471100
v 0.00005600 0.02717700 0.37471100
v -0.00204200 0.02544500 0.37470300
v -0.00186300 -0.02620500 0.37437600
v -0.00104200 0.02315400 0.37471700
v 0.00534400 0.02052300 0.37468700
v -0.00121500 -0.02330400 0.37469600
v 0.00177200 -0.02372700 0.37425800
v 0.00173100 -0.02637300 0.37469800
v 0.00214300 0.02485400 0.37457000
v 0.01165600 -0.02747300 0.37467900
v 0.01204400 0.02719500 0.37469900
v 0.00617500 0.02540000 0.37470000
v 0.00617500 -0.02540000 0.37470000
v 0.01029900 -0.02097000 0.37470400
v 0.01240800 0.02379300 0.37468800
v 0.00979400 0.02120800 0.37470800
v 0.01200400 -0.02388200 0.37466800
v 0.01280900 -0.01933000 0.37469700
v 0.01301700 0.01944800 0.37470300
v 0.01650400 0.01199100 0.37470000
v 0.01908300 0.02249900 0.37469500
v 0.01483100 0.02186000 0.37467700
v 0.01749100 -0.02387900 0.37470000
v 0.01715000 -0.01700000 0.37470000
v 0.01478500 -0.02200100 0.37469500
v 0.01774900 -0.01021600 0.37471100
v 0.01982200 0.01357000 0.37470200
v 0.02017700 0.01102200 0.37470100
v 0.01986700 0.00500400 0.37469800
v 0.01967500 -0.01194200 0.37473500
v 0.02330400 -0.01846400 0.37470500
v 0.02108500 -0.01449600 0.37470100
v 0.02027200 -0.00344300 0.37469300
v 0.02225800 -0.01052700 0.37470100
v 0.02274000 0.01054400 0.37469800
v 0.02570000 0.00662500 0.37470000
v 0.02382900 0.00204000 0.37469900
v 0.02267000 -0.00028100 0.37470600
v 0.02570000 -0.00662500 0.37470000
v 0.02428500 -0.00231800 0.37471000
v 0.02300700 0.01401500 0.37473500
v 0.02633600 0.01391300 0.37470800
v 0.02369600 -0.01301700 0.37471600
v 0.02725500 -0.01171200 0.37469500
v 0.02693400 0.00142000 0.37473700
v 0.02698200 -0.00158000 0.37469600
v 0.02977500 0.00155600 0.37467200
v 0.02599600 0.00873300 0.39106700
v 0.01898400 0.00790000 0.39092300
v 0.02618200 -0.01727800 0.39490000
v 0.01904600 -0.01769600 0.39570300
v 0.02595000 0.01244500 0.39238700
v 0.02590500 0.01697000 0.39461800
v 0.02594800 -0.01379600 0.39297500
v 0.01902200 -0.01275700 0.39277500
v 0.02594900 -0.00864900 0.39101700
v 0.01906100 -0.00827700 0.39108300
v 0.01900000 -0.00640700 0.38955200
v -0.00091300 0.03519900 0.39356900
v -0.00396400 0.03512800 0.39332700
v 0.00023000 -0.03087000 0.38941300
v -0.00319900 -0.03490200 0.39260100
v 0.00052800 -0.03516500 0.39475200
v -0.00197100 -0.03829300 0.39768700
v -0.00652000 -0.03440800 0.39536100
v 0.02789400 -0.01326400 0.38547800
v 0.02789800 0.01330000 0.38537400
v 0.02678800 -0.01230700 0.38124000
v 0.02732700 -0.01080600 0.37868900
v 0.02670800 0.01203000 0.38058400
v 0.02317400 0.00161500 0.37769900
v 0.02439200 -0.00230200 0.37770000
v 0.02281400 -0.00077200 0.37769900
v 0.02653400 0.00193400 0.37768000
v 0.02679500 -0.00148600 0.37769800
v 0.02058800 -0.01069500 0.37293100
v 0.02090100 -0.01446700 0.37280300
v 0.02361000 -0.01169900 0.37285400
v 0.02136600 0.01470400 0.37295600
v 0.02050900 0.01092800 0.37272100
v 0.02365600 0.01262200 0.37278300
v -0.00074200 0.02690200 0.37279200
v -0.00063600 0.02341700 0.37270800
v -0.00082500 -0.02320700 0.37283300
v 0.00087700 -0.02685600 0.37290500
v 0.02643200 0.01572600 0.38393200
v 0.02614700 0.02432800 0.39099200
v 0.02548100 -0.02684400 0.39230300
v -0.00681000 -0.00029300 0.38251500
v -0.00639300 0.01697000 0.38649400
v 0.00077000 0.01768300 0.38691300
v 0.00081900 -0.01776800 0.38692400
v 0.00214400 -0.01713200 0.38929100
v -0.00721100 -0.01783200 0.38982700
v 0.00220700 0.01784000 0.38984200
v -0.00720600 0.01897600 0.39011300
v -0.00379900 0.02902000 0.39217700
v -0.00126700 0.03138100 0.39140500
v -0.00366000 0.03138100 0.39147200
v -0.00117000 0.02924500 0.39266700
v -0.00376800 0.03565300 0.39900500
v 0.02076600 0.01767600 0.38933600
v 0.02328400 0.01902300 0.38726200
v 0.02067100 0.01944700 0.38760000
v 0.02315900 0.01773900 0.38935400
v 0.02251600 0.02600300 0.39344300
v 0.02326900 0.02394600 0.39545100
v -0.01163900 0.02496100 0.37573900
v -0.01581700 0.02042500 0.37575500
v -0.01251200 0.01833100 0.37575700
v -0.00909000 0.02200500 0.37574700
v -0.01554000 0.02384600 0.37580600
v -0.00978700 0.01902700 0.37580300
v -0.01276700 0.02554200 0.37829100
v -0.01177700 0.01798600 0.37842600
v -0.00902900 0.01953700 0.37889900
v -0.01158400 -0.01824400 0.37568600
v -0.01571400 -0.02248500 0.37576300
v -0.01367000 -0.02495700 0.37573700
v -0.00904100 -0.02147400 0.37576500
v -0.01552500 -0.01944700 0.37580000
v -0.00990700 -0.02445900 0.37577900
v -0.01599300 -0.01970200 0.37885500
v -0.01261100 -0.01770400 0.37833200
v -0.00792200 -0.02024100 0.37951400
v 0.00952000 -0.02287600 0.37722200
v 0.01256700 -0.01833800 0.37719900
v 0.01217000 -0.02482600 0.37724300
v 0.01547100 -0.02037000 0.37725800
v 0.00947000 -0.01944300 0.37730000
v 0.01584200 -0.02361700 0.37731000
v 0.01062600 -0.02498000 0.38040600
v 0.01526700 -0.02455900 0.38038000
v 0.01331200 0.02482600 0.37716900
v 0.00935000 0.02150000 0.37720300
v 0.01197000 0.01949900 0.37705100
v 0.01458300 0.02065800 0.37699200
v 0.01022000 0.02469500 0.37726600
v 0.01505000 0.01896800 0.37730000
v 0.01619400 0.02157900 0.37730900
v 0.01112100 0.01807200 0.37725700
v 0.00922200 0.02386000 0.38049200
v 0.01435900 0.02521700 0.38029800
v -0.01763600 -0.02215300 0.37796600
v -0.01621000 -0.01802500 0.37803300
v -0.01229800 -0.01676800 0.37853100
v -0.00373300 -0.03138100 0.39140500
v -0.00119400 -0.02901100 0.39219500
v -0.00383000 -0.02924500 0.39266700
v -0.00134000 -0.03138100 0.39147200
v -0.00351600 -0.03590300 0.39876100
v -0.00123200 -0.03565300 0.39900500
v 0.02066500 -0.01912500 0.38723400
v 0.02310000 -0.01761800 0.38928200
v 0.02084100 -0.01773900 0.38935400
v 0.02332600 -0.01945200 0.38759800
v 0.02243200 -0.02368600 0.39582900
vn -0.20270000 0.12480000 0.97130000
vn 0.58710000 0.23850000 0.77360000
vn -0.71230000 -0.01500000 0.70170000
vn 0.54160000 -0.33910000 0.76920000
vn 0.67450000 -0.51970000 0.52440000
vn -0.11610000 -0.71410000 0.69040000
vn 0.34760000 -0.17400000 0.92130000
vn 0.65810000 0.49830000 0.56440000
vn -0.72630000 0.31570000 0.61060000
vn -0.12040000 0.33590000 0.93420000
vn -0.07590000 -0.32310000 0.94330000
vn 0.04520000 -0.48410000 0.87390000
vn -0.13890000 -0.39410000 0.90850000
vn -0.06630000 -0.49680000 0.86530000
vn -0.39410000 -0.31680000 0.86270000
vn -0.14310000 0.48470000 0.86290000
vn -0.26090000 0.48460000 0.83490000
vn -0.13850000 -0.56350000 0.81440000
vn -0.09570000 0.45840000 0.88360000
vn 0.16680000 0.33540000 0.92720000
vn 0.79080000 0.26370000 0.55230000
vn -0.14180000 0.50970000 0.84860000
vn 0.78520000 -0.28490000 0.54970000
vn 0.69440000 -0.23390000 0.68050000
vn 0.08320000 -0.49060000 0.86740000
vn 0.66500000 0.23760000 0.70810000
vn 0.09820000 0.48090000 0.87130000
vn 0.96810000 0.15860000 -0.19390000
vn 0.97410000 0.13490000 -0.18170000
vn 0.85460000 -0.27850000 -0.43840000
vn 0.73190000 -0.28480000 0.61910000
vn 0.83290000 0.21930000 -0.50810000
vn 0.95380000 -0.21140000 -0.21370000
vn 0.88560000 -0.46390000 0.02190000
vn 0.56600000 -0.14570000 -0.81140000
vn -0.69710000 -0.09430000 -0.71080000
vn -0.69450000 0.05000000 -0.71780000
vn -0.77600000 -0.05900000 -0.62800000
vn 0.66240000 -0.28690000 -0.69210000
vn 0.56240000 0.21140000 -0.79940000
vn 0.67930000 0.33510000 -0.65280000
vn -0.77130000 0.02290000 -0.63600000
vn -0.76690000 -0.63990000 0.04950000
vn -0.94000000 -0.12530000 0.31730000
vn -0.98390000 0.15740000 0.08520000
vn -0.97150000 -0.18040000 0.15350000
vn -0.76330000 0.64110000 0.08020000
vn -0.58350000 0.70910000 0.39590000
vn -0.82620000 0.41070000 -0.38560000
vn -0.75870000 0.17030000 0.62880000
vn -0.81010000 -0.42740000 -0.40140000
vn -0.98190000 -0.06670000 0.17750000
vn -0.97380000 0.07160000 0.21590000
vn -0.07820000 0.97330000 -0.21570000
vn -0.84150000 0.47880000 0.25010000
vn -0.91450000 0.37420000 -0.15400000
vn 0.37370000 0.91540000 0.14960000
vn 0.12770000 -0.96680000 -0.22140000
vn -0.83140000 -0.51820000 -0.20080000
vn -0.54680000 -0.77090000 0.32660000
vn 0.45970000 -0.87510000 0.15140000
vn -0.63200000 0.76810000 0.10260000
vn -0.43820000 0.75340000 -0.49030000
vn 0.10360000 0.98490000 -0.13870000
vn 0.18490000 0.69540000 -0.69450000
vn -0.68490000 -0.69850000 0.20770000
vn -0.15590000 -0.97370000 -0.16630000
vn -0.27940000 -0.71500000 -0.64090000
vn 0.54230000 -0.60430000 -0.58370000
vn 0.63610000 -0.30710000 0.70780000
vn -0.52590000 -0.23310000 0.81790000
vn 0.57030000 0.28240000 0.77130000
vn -0.65720000 0.30460000 0.68940000
vn -0.66210000 0.63760000 0.39370000
vn -0.44840000 0.75210000 0.48310000
vn -0.52630000 0.56400000 -0.63640000
vn -0.53290000 -0.58500000 -0.61140000
vn -0.46410000 -0.74230000 0.48320000
vn -0.49230000 -0.43050000 0.75650000
vn -0.19860000 0.91090000 -0.36170000
vn -0.23340000 -0.87940000 -0.41500000
vn -0.75230000 -0.63120000 0.18860000
vn -0.77770000 0.59790000 0.19390000
vn -0.49960000 0.83250000 -0.23950000
vn -0.63180000 -0.73170000 -0.25570000
vn -0.03780000 0.96490000 -0.26010000
vn 0.00740000 0.89340000 -0.44910000
vn 0.00320000 -0.94250000 -0.33420000
vn -0.09910000 -0.95650000 -0.27450000
vn 0.23000000 0.96460000 0.12870000
vn 0.12800000 -0.99040000 0.05220000
vn 0.17450000 -0.83020000 -0.52940000
vn -0.04000000 -0.99110000 -0.12720000
vn -0.48990000 0.85550000 -0.16760000
vn 0.30970000 0.86420000 -0.39650000
vn 0.29230000 -0.81600000 0.49860000
vn 0.36560000 0.81830000 0.44360000
vn 0.47320000 -0.77460000 -0.41970000
vn 0.59290000 0.64540000 -0.48160000
vn 0.61160000 -0.61820000 -0.49380000
vn 0.62480000 -0.72980000 -0.27750000
vn 0.71890000 0.65820000 -0.22340000
vn 0.79590000 0.47840000 -0.37100000
vn 0.77920000 -0.44770000 -0.43870000
vn 0.92730000 -0.35100000 -0.13030000
vn 0.97250000 0.21190000 0.09670000
vn 0.82780000 0.06480000 0.55720000
vn 0.87020000 0.16720000 -0.46340000
vn 0.80280000 -0.11160000 0.58570000
vn 0.85820000 -0.13980000 -0.49390000
vn 0.74920000 0.00390000 0.66230000
vn -0.54840000 -0.49130000 0.67670000
vn 0.45800000 0.36110000 0.81230000
vn -0.64300000 0.08030000 0.76160000
vn 0.74740000 -0.50300000 0.43410000
vn -0.09430000 0.06510000 0.99340000
vn -0.79820000 -0.16840000 0.57830000
vn -0.48330000 0.12150000 0.86700000
vn 0.51270000 0.51440000 0.68740000
vn -0.69530000 0.59520000 0.40290000
vn 0.47250000 0.32130000 0.82070000
vn 0.04500000 0.88180000 0.46940000
vn -0.23450000 0.96110000 0.14570000
vn -0.23840000 0.05910000 0.96940000
vn 0.36830000 0.90640000 0.20700000
vn -0.45100000 0.57940000 0.67890000
vn 0.73420000 0.60060000 0.31660000
vn 0.75450000 0.07860000 0.65160000
vn 0.37900000 -0.24950000 0.89110000
vn -0.68900000 0.12350000 0.71410000
vn 0.69100000 -0.19970000 0.69470000
vn -0.36270000 -0.58300000 0.72700000
vn 0.63720000 -0.42500000 0.64290000
vn 0.06510000 -0.50700000 0.85950000
vn 0.46500000 -0.62490000 0.62700000
vn -0.24270000 -0.47340000 0.84670000
vn 0.35900000 -0.71370000 0.60150000
vn -0.12490000 -0.60420000 0.78700000
vn 0.63080000 -0.30010000 0.71560000
vn 0.44560000 0.60550000 0.65950000
vn -0.07890000 0.49440000 0.86570000
vn 0.38440000 0.46590000 0.79700000
vn 0.45390000 0.65110000 0.60840000
vn 0.38050000 0.63530000 0.67200000
vn -0.24970000 0.46900000 0.84720000
vn 0.69850000 0.16620000 0.69600000
vn 0.72990000 -0.05390000 0.68140000
vn -0.42130000 -0.06030000 0.90490000
vn 0.21290000 0.25200000 0.94400000
vn -0.06860000 0.50390000 0.86110000
vn -0.04720000 0.49540000 0.86740000
vn -0.59870000 0.21450000 0.77180000
vn -0.95070000 0.27450000 0.14400000
vn -0.03180000 -0.75040000 0.66030000
vn 0.49930000 0.14840000 0.85360000
vn 0.33670000 0.30340000 0.89140000
vn -0.32460000 -0.58120000 0.74620000
vn 0.17120000 0.57200000 0.80220000
vn 0.12260000 0.21230000 0.96950000
vn -0.68770000 -0.45110000 0.56890000
vn -0.64890000 0.51280000 0.56210000
vn 0.31460000 -0.69200000 0.64970000
vn 0.51450000 0.09090000 0.85270000
vn -0.06450000 0.71530000 0.69580000
vn 0.31620000 -0.45490000 0.83250000
vn -0.53280000 0.49030000 0.68970000
vn 0.18150000 -0.26750000 0.94630000
vn -0.67250000 -0.40580000 0.61890000
vn 0.17770000 -0.98320000 -0.04150000
vn 0.03820000 -0.83730000 0.54540000
vn 0.14290000 -0.83540000 -0.53080000
vn 0.10870000 0.95580000 0.27330000
vn 0.25330000 0.88290000 0.39550000
vn 0.17730000 0.73110000 -0.65880000
vn 0.10540000 -0.96330000 0.24680000
vn 0.00490000 -0.93730000 -0.34850000
vn -0.06950000 0.77040000 -0.63380000
vn 0.12740000 0.97010000 -0.20670000
vn 0.26570000 -0.90880000 -0.32180000
vn -0.02440000 -0.89080000 -0.45370000
vn -0.14530000 0.98640000 0.07620000
vn -0.29820000 0.80240000 -0.51690000
vn 0.54220000 -0.79200000 0.28060000
vn -0.31800000 -0.77160000 -0.55090000
vn 0.42330000 0.85280000 0.30600000
vn -0.26840000 0.61290000 -0.74320000
vn 0.86840000 0.10020000 -0.48570000
vn -0.40670000 -0.54530000 -0.73300000
vn -0.44900000 0.52810000 -0.72070000
vn -0.86490000 -0.49650000 -0.07390000
vn -0.76800000 0.63090000 -0.11000000
vn -0.60270000 -0.71880000 0.34660000
vn -0.58540000 -0.76860000 0.25800000
vn -0.62740000 -0.44170000 0.64130000
vn -0.57480000 0.73890000 0.35160000
vn -0.61500000 0.47580000 0.62880000
vn -0.93000000 0.31460000 -0.19010000
vn -0.63620000 -0.11130000 0.76350000
vn -0.99530000 -0.06720000 -0.06950000
vn -0.65860000 0.10440000 0.74520000
vn 0.21870000 0.91690000 0.33390000
vn 0.37830000 0.46710000 0.79920000
vn -0.50370000 0.51420000 0.69420000
vn 0.69910000 0.69130000 0.18260000
vn 0.32910000 -0.87800000 0.34750000
vn 0.48010000 -0.49050000 0.72730000
vn -0.10350000 -0.30910000 0.94540000
vn 0.51820000 -0.82880000 0.21130000
vn -0.48880000 -0.65260000 0.57890000
vn -0.26250000 0.47650000 0.83910000
vn 0.74060000 0.38400000 0.55140000
vn -0.03800000 -0.87120000 0.48950000
vn 0.64120000 -0.00630000 0.76740000
vn -0.54010000 -0.20110000 0.81720000
vn 0.47260000 -0.58080000 0.66280000
vn -0.50380000 -0.83610000 0.21710000
vn 0.00930000 -0.52200000 0.85290000
vn -0.50500000 -0.53260000 0.67920000
vn 0.66350000 -0.68120000 0.30950000
vn 0.70090000 0.02160000 -0.71290000
vn 0.71600000 0.18980000 -0.67180000
vn 0.71760000 -0.13300000 -0.68360000
vn 0.94510000 -0.10690000 0.30870000
vn 0.93870000 -0.25620000 0.23050000
vn 0.98730000 -0.09780000 0.12530000
vn 0.87420000 0.40510000 -0.26750000
vn 0.96150000 -0.05950000 0.26820000
vn 0.95760000 0.18620000 0.21970000
vn 0.94950000 -0.27210000 -0.15620000
vn 0.70790000 -0.22630000 -0.66910000
vn 0.62070000 0.08930000 0.77900000
vn 0.90040000 0.04340000 -0.43300000
vn 0.96580000 0.19260000 0.17360000
vn -0.94390000 -0.24480000 -0.22160000
vn -0.96070000 -0.07010000 0.26870000
vn -0.92330000 -0.25520000 0.28700000
vn -0.97520000 0.19730000 -0.10010000
vn -0.91540000 0.35100000 -0.19730000
vn -0.95750000 -0.27780000 -0.07800000
vn -0.62410000 0.17690000 -0.76100000
vn -0.97980000 -0.07120000 -0.18700000
vn -0.59430000 0.03850000 0.80330000
vn -0.59720000 -0.00470000 -0.80210000
vn -0.63750000 -0.19620000 -0.74500000
vn -0.97770000 -0.15130000 -0.14560000
vn -0.63740000 -0.48220000 0.60100000
vn -0.86450000 0.22230000 0.45080000
vn -0.88400000 -0.37990000 0.27250000
vn -0.89950000 0.36240000 -0.24400000
vn -0.74920000 -0.27830000 0.60100000
vn -0.40360000 -0.68050000 -0.61150000
vn -0.81900000 -0.01860000 -0.57350000
vn -0.29170000 0.72260000 -0.62670000
vn 0.39350000 -0.27550000 -0.87710000
vn -0.76950000 0.12060000 -0.62720000
vn -0.02680000 -0.76430000 -0.64430000
vn 0.64530000 -0.20770000 -0.73510000
vn -0.15790000 0.72500000 -0.67040000
vn 0.00020000 0.00200000 -1.00000000
vn -0.10520000 0.41580000 -0.90340000
vn 0.33020000 0.78690000 -0.52140000
vn -0.01660000 0.00410000 -0.99990000
vn -0.55460000 -0.66020000 -0.50660000
vn 0.14230000 -0.36350000 -0.92070000
vn -0.37700000 0.41760000 -0.82670000
vn -0.52560000 0.37170000 -0.76520000
vn -0.09980000 -0.74420000 -0.66050000
vn 0.00560000 0.23820000 -0.97120000
vn 0.09490000 0.53580000 -0.83900000
vn 0.06490000 0.36560000 -0.92850000
vn -0.38280000 0.05340000 -0.92230000
vn -0.21120000 -0.14520000 -0.96660000
vn -0.13810000 -0.31560000 -0.93880000
vn -0.03430000 -0.14410000 -0.98900000
vn -0.29560000 0.32510000 -0.89830000
vn 0.29310000 0.23650000 -0.92640000
vn 0.27850000 -0.26120000 -0.92420000
vn 0.18880000 -0.02600000 -0.98170000
vn 0.30710000 -0.74810000 -0.58830000
vn 0.27620000 0.49470000 -0.82400000
vn 0.03440000 -0.08960000 -0.99540000
vn 0.01040000 0.00170000 -0.99990000
vn 0.51640000 -0.18340000 -0.83650000
vn 0.12760000 -0.55190000 -0.82410000
vn 0.40800000 0.05150000 -0.91150000
vn 0.08640000 0.59080000 -0.80220000
vn -0.08890000 -0.61830000 -0.78090000
vn -0.11600000 0.49040000 -0.86370000
vn -0.27370000 -0.26110000 -0.92570000
vn 0.19300000 0.23900000 -0.95160000
vn -0.49440000 -0.04760000 -0.86790000
vn 0.41880000 -0.45680000 -0.78480000
vn -0.00100000 0.00240000 -1.00000000
vn -0.50030000 0.15810000 -0.85130000
vn -0.22740000 0.12570000 -0.96570000
vn -0.32690000 0.17530000 -0.92860000
vn -0.35550000 -0.30480000 -0.88360000
vn -0.22120000 -0.06710000 -0.97290000
vn -0.39100000 0.06950000 -0.91780000
vn 0.51840000 -0.39680000 -0.75750000
vn -0.09930000 -0.41390000 -0.90490000
vn -0.22300000 0.03010000 -0.97430000
vn 0.13290000 0.45090000 -0.88260000
vn 0.19330000 -0.29560000 -0.93560000
vn -0.00210000 -0.00070000 -1.00000000
vn 0.22720000 -0.47140000 -0.85220000
vn 0.55270000 0.06550000 -0.83080000
vn -0.00140000 0.00030000 -1.00000000
vn 0.14810000 0.50200000 -0.85210000
vn 0.31800000 0.32850000 -0.88930000
vn 0.43400000 0.20020000 -0.87840000
vn 0.35520000 -0.14850000 -0.92290000
vn 0.65360000 -0.23150000 -0.72050000
vn -0.40680000 -0.28540000 -0.86780000
vn -0.37590000 0.27640000 -0.88450000
vn 0.73080000 0.00610000 -0.68250000
vn 0.25640000 -0.14370000 0.95580000
vn -0.66980000 -0.25590000 0.69710000
vn 0.41870000 0.52160000 0.74340000
vn -0.59370000 0.38550000 0.70630000
vn 0.15930000 -0.44280000 0.88240000
vn 0.18710000 -0.58480000 0.78930000
vn 0.36940000 0.36210000 0.85580000
vn -0.62680000 0.34760000 0.69730000
vn 0.51000000 0.12640000 0.85080000
vn -0.60620000 0.20290000 0.76900000
vn -0.09480000 0.39490000 0.91380000
vn 0.34010000 0.74980000 -0.56760000
vn -0.31540000 0.74970000 -0.58170000
vn 0.37020000 -0.75480000 -0.54150000
vn -0.13140000 -0.77210000 -0.62170000
vn 0.55180000 -0.66330000 -0.50560000
vn 0.10690000 -0.99360000 0.03640000
vn -0.78180000 -0.49790000 -0.37530000
vn 0.85500000 0.44020000 -0.27440000
vn 0.85950000 -0.33330000 -0.38760000
vn 0.65770000 0.68020000 0.32360000
vn -0.13830000 0.66490000 0.73400000
vn 0.45270000 -0.78000000 0.43210000
vn 0.35650000 -0.36380000 0.86060000
vn 0.11120000 0.52770000 0.84210000
vn 0.54250000 0.19430000 0.81730000
vn -0.27990000 -0.35850000 0.89060000
vn -0.40880000 0.30150000 0.86140000
vn -0.46840000 0.67940000 -0.56480000
vn -0.27310000 -0.73470000 -0.62100000
vn 0.76130000 0.25120000 -0.59770000
vn -0.17740000 0.84380000 -0.50650000
vn -0.45250000 -0.56530000 -0.68970000
vn 0.81670000 -0.01360000 -0.57690000
vn -0.19470000 0.66730000 -0.71890000
vn -0.11730000 -0.64180000 -0.75780000
vn -0.29910000 0.64240000 -0.70560000
vn 0.26550000 -0.71050000 -0.65160000
vn 0.79310000 0.50400000 -0.34200000
vn 0.65970000 0.48780000 -0.57170000
vn 0.49810000 -0.78410000 -0.37010000
vn -0.40670000 0.00980000 -0.91350000
vn -0.31260000 -0.05950000 -0.94800000
vn 0.08020000 -0.01670000 -0.99660000
vn 0.08290000 -0.02620000 -0.99620000
vn 0.49540000 0.48800000 0.71860000
vn -0.60180000 0.35740000 0.71420000
vn 0.55840000 -0.41730000 0.71700000
vn -0.53310000 -0.18460000 0.82570000
vn 0.54910000 0.76170000 0.34390000
vn -0.57180000 -0.24480000 0.78300000
vn 0.57970000 -0.30080000 0.75730000
vn -0.63000000 0.75730000 0.17200000
vn 0.61460000 -0.78750000 -0.04550000
vn 0.57670000 0.81610000 -0.03660000
vn -0.54750000 0.13710000 0.82550000
vn 0.63270000 -0.03210000 0.77370000
vn -0.58120000 0.80830000 -0.09460000
vn -0.20040000 -0.93830000 0.28190000
vn -0.62580000 0.14640000 -0.76610000
vn -0.19760000 -0.82330000 0.53210000
vn 0.80240000 0.28740000 0.52300000
vn 0.07020000 0.85800000 0.50890000
vn -0.84750000 -0.08690000 0.52370000
vn 0.62570000 -0.46940000 0.62300000
vn -0.55880000 0.53080000 0.63720000
vn -0.01960000 -0.95840000 -0.28460000
vn -0.08740000 0.44540000 0.89110000
vn -0.68880000 0.06280000 0.72220000
vn -0.21000000 -0.81610000 0.53840000
vn 0.84620000 0.18500000 0.49970000
vn 0.26960000 0.85460000 0.44390000
vn -0.80830000 -0.06020000 0.58570000
vn 0.61920000 -0.46110000 0.63570000
vn -0.53800000 0.58140000 0.61040000
vn 0.07840000 -0.06880000 0.99450000
vn 0.11790000 -0.66430000 0.73810000
vn -0.87570000 0.18520000 0.44600000
vn 0.86320000 0.34710000 0.36670000
vn 0.00200000 -0.95330000 0.30210000
vn 0.03350000 0.94630000 0.32160000
vn -0.87160000 -0.35150000 0.34180000
vn 0.64220000 -0.46390000 0.61020000
vn -0.68130000 0.39040000 0.61920000
vn 0.51690000 0.80490000 -0.29130000
vn -0.51700000 0.44810000 0.72940000
vn -0.25770000 -0.86810000 0.42420000
vn 0.91810000 0.03840000 0.39440000
vn 0.11540000 0.61480000 0.78020000
vn -0.69560000 0.54810000 0.46440000
vn 0.46800000 -0.66000000 0.58780000
vn -0.50310000 0.58040000 0.64030000
vn -0.79280000 -0.05670000 0.60690000
vn 0.31020000 0.74950000 0.58480000
vn 0.70860000 -0.49420000 -0.50370000
vn -0.39120000 -0.65490000 0.64660000
vn -0.90100000 -0.10110000 0.42180000
vn -0.64380000 0.64290000 0.41500000
vn 0.01900000 0.71240000 0.70160000
vn 0.57020000 0.24490000 0.78410000
vn -0.54990000 -0.76290000 0.34000000
vn 0.63050000 -0.75620000 0.17470000
vn -0.57800000 0.30170000 0.75820000
vn 0.69220000 0.67330000 0.25970000
vn -0.78990000 0.57970000 0.20000000
vn 0.55810000 -0.10640000 0.82290000
vn -0.53830000 -0.84260000 -0.01730000
vn 0.58650000 -0.80460000 -0.09270000
vn -0.64200000 0.02090000 0.76640000
vn -0.27950000 -0.25430000 -0.92590000
vt 0.00000000 0.00000000
vt 0.00000000 0.00000000
vt 0.00000000 0.00000000
vt 0.00000000 0.00000000
vt 0.00000000 0.00000000
vt 0.00000000 0.00000000
vt 0.00000000 0.00000000
vt 0.00000000 0.00000000
vt 0.00000000 0.00000000
vt 0.00000000 0.00000000
vt 0.00000000 0.00000000
vt 0.00000000 0.00000000
vt 0.00000000 0.00000000
vt 0.00000000 0.00000000
vt 0.00000000 0.00000000
vt 0.00000000 0.00000000
vt 0.00000000 0.00000000
vt 0.00000000 0.00000000
vt 0.00000000 0.00000000
vt 0.00000000 0.00000000
vt 0.00000000 0.00000000
vt 0.00000000 0.00000000
vt 0.00000000 0.00000000
vt 0.00000000 0.00000000
vt 0.00000000 0.00000000
vt 0.00000000 0.00000000
vt 0.00000000 0.00000000
vt 0.00000000 0.00000000
vt 0.00000000 0.00000000
vt 0.00000000 0.00000000
vt 0.00000000 0.00000000
vt 0.00000000 0.00000000
vt 0.00000000 0.00000000
vt 0.00000000 0.00000000
vt 0.00000000 0.00000000
vt 0.00000000 0.00000000
vt 0.00000000 0.00000000
vt 0.00000000 0.00000000
vt 0.00000000 0.00000000
vt 0.00000000 0.00000000
vt 0.00000000 0.00000000
vt 0.00000000 0.00000000
vt 0.00000000 0.00000000
vt 0.00000000 0.00000000
vt 0.00000000 0.00000000
vt 0.00000000 0.00000000
vt 0.00000000 0.00000000
vt 0.00000000 0.00000000
vt 0.00000000 0.00000000
vt 0.00000000 0.00000000
vt 0.00000000 0.00000000
vt 0.00000000 0.00000000
vt 0.00000000 0.00000000
vt 0.00000000 0.00000000
vt 0.00000000 0.00000000
vt 0.00000000 0.00000000
vt 0.00000000 0.00000000
vt 0.00000000 0.00000000
vt 0.00000000 0.00000000
vt 0.00000000 0.00000000
vt 0.00000000 0.00000000
vt 0.00000000 0.00000000
vt 0.00000000 0.00000000
vt 0.00000000 0.00000000
vt 0.00000000 0.00000000
vt 0.00000000 0.00000000
vt 0.00000000 0.00000000
vt 0.00000000 0.00000000
vt 0.00000000 0.00000000
vt 0.00000000 0.00000000
vt 0.00000000 0.00000000
vt 0.00000000 0.00000000
vt 0.00000000 0.00000000
vt 0.00000000 0.00000000
vt 0.00000000 0.00000000
vt 0.00000000 0.00000000
vt 0.00000000 0.00000000
vt 0.00000000 0.00000000
vt 0.00000000 0.00000000
vt 0.00000000 0.00000000
vt 0.00000000 0.00000000
vt 0.00000000 0.00000000
vt 0.00000000 0.00000000
vt 0.00000000 0.00000000
vt 0.00000000 0.00000000
vt 0.00000000 0.00000000
vt 0.00000000 0.00000000
vt 0.00000000 0.00000000
vt 0.00000000 0.00000000
vt 0.00000000 0.00000000
vt 0.00000000 0.00000000
vt 0.00000000 0.00000000
vt 0.00000000 0.00000000
vt 0.00000000 0.00000000
vt 0.00000000 0.00000000
vt 0.00000000 0.00000000
vt 0.00000000 0.00000000
vt 0.00000000 0.00000000
vt 0.00000000 0.00000000
vt 0.00000000 0.00000000
vt 0.00000000 0.00000000
vt 0.00000000 0.00000000
vt 0.00000000 0.00000000
vt 0.00000000 0.00000000
vt 0.00000000 0.00000000
vt 0.00000000 0.00000000
vt 0.00000000 0.00000000
vt 0.00000000 0.00000000
vt 0.00000000 0.00000000
vt 0.00000000 0.00000000
vt 0.00000000 0.00000000
vt 0.00000000 0.00000000
vt 0.00000000 0.00000000
vt 0.00000000 0.00000000
vt 0.00000000 0.00000000
vt 0.00000000 0.00000000
vt 0.00000000 0.00000000
vt 0.00000000 0.00000000
vt 0.00000000 0.00000000
vt 0.00000000 0.00000000
vt 0.00000000 0.00000000
vt 0.00000000 0.00000000
vt 0.00000000 0.00000000
vt 0.00000000 0.00000000
vt 0.00000000 0.00000000
vt 0.00000000 0.00000000
vt 0.00000000 0.00000000
vt 0.00000000 0.00000000
vt 0.00000000 0.00000000
vt 0.00000000 0.00000000
vt 0.00000000 0.00000000
vt 0.00000000 0.00000000
vt 0.00000000 0.00000000
vt 0.00000000 0.00000000
vt 0.00000000 0.00000000
vt 0.00000000 0.00000000
vt 0.00000000 0.00000000
vt 0.00000000 0.00000000
vt 0.00000000 0.00000000
vt 0.00000000 0.00000000
vt 0.00000000 0.00000000
vt 0.00000000 0.00000000
vt 0.00000000 0.00000000
vt 0.00000000 0.00000000
vt 0.00000000 0.00000000
vt 0.00000000 0.00000000
vt 0.00000000 0.00000000
vt 0.00000000 0.00000000
vt 0.00000000 0.00000000
vt 0.00000000 0.00000000
vt 0.00000000 0.00000000
vt 0.00000000 0.00000000
vt 0.00000000 0.00000000
vt 0.00000000 0.00000000
vt 0.00000000 0.00000000
vt 0.00000000 0.00000000
vt 0.00000000 0.00000000
vt 0.00000000 0.00000000
vt 0.00000000 0.00000000
vt 0.00000000 0.00000000
vt 0.00000000 0.00000000
vt 0.00000000 0.00000000
vt 0.00000000 0.00000000
vt 0.00000000 0.00000000
vt 0.00000000 0.00000000
vt 0.00000000 0.00000000
vt 0.00000000 0.00000000
vt 0.00000000 0.00000000
vt 0.00000000 0.00000000
vt 0.00000000 0.00000000
vt 0.00000000 0.00000000
vt 0.00000000 0.00000000
vt 0.00000000 0.00000000
vt 0.00000000 0.00000000
vt 0.00000000 0.00000000
vt 0.00000000 0.00000000
vt 0.00000000 0.00000000
vt 0.00000000 0.00000000
vt 0.00000000 0.00000000
vt 0.00000000 0.00000000
vt 0.00000000 0.00000000
vt 0.00000000 0.00000000
vt 0.00000000 0.00000000
vt 0.00000000 0.00000000
vt 0.00000000 0.00000000
vt 0.00000000 0.00000000
vt 0.00000000 0.00000000
vt 0.00000000 0.00000000
vt 0.00000000 0.00000000
vt 0.00000000 0.00000000
vt 0.00000000 0.00000000
vt 0.00000000 0.00000000
vt 0.00000000 0.00000000
vt 0.00000000 0.00000000
vt 0.00000000 0.00000000
vt 0.00000000 0.00000000
vt 0.00000000 0.00000000
vt 0.00000000 0.00000000
vt 0.00000000 0.00000000
vt 0.00000000 0.00000000
vt 0.00000000 0.00000000
vt 0.00000000 0.00000000
vt 0.00000000 0.00000000
vt 0.00000000 0.00000000
vt 0.00000000 0.00000000
vt 0.00000000 0.00000000
vt 0.00000000 0.00000000
vt 0.00000000 0.00000000
vt 0.00000000 0.00000000
vt 0.00000000 0.00000000
vt 0.00000000 0.00000000
vt 0.00000000 0.00000000
vt 0.00000000 0.00000000
vt 0.00000000 0.00000000
vt 0.00000000 0.00000000
vt 0.00000000 0.00000000
vt 0.00000000 0.00000000
vt 0.00000000 0.00000000
vt 0.00000000 0.00000000
vt 0.00000000 0.00000000
vt 0.00000000 0.00000000
vt 0.00000000 0.00000000
vt 0.00000000 0.00000000
vt 0.00000000 0.00000000
vt 0.00000000 0.00000000
vt 0.00000000 0.00000000
vt 0.00000000 0.00000000
vt 0.00000000 0.00000000
vt 0.00000000 0.00000000
vt 0.00000000 0.00000000
vt 0.00000000 0.00000000
vt 0.00000000 0.00000000
vt 0.00000000 0.00000000
vt 0.00000000 0.00000000
vt 0.00000000 0.00000000
vt 0.00000000 0.00000000
vt 0.00000000 0.00000000
vt 0.00000000 0.00000000
vt 0.00000000 0.00000000
vt 0.00000000 0.00000000
vt 0.00000000 0.00000000
vt 0.00000000 0.00000000
vt 0.00000000 0.00000000
vt 0.00000000 0.00000000
vt 0.00000000 0.00000000
vt 0.00000000 0.00000000
vt 0.00000000 0.00000000
vt 0.00000000 0.00000000
vt 0.00000000 0.00000000
vt 0.00000000 0.00000000
vt 0.00000000 0.00000000
vt 0.00000000 0.00000000
vt 0.00000000 0.00000000
vt 0.00000000 0.00000000
vt 0.00000000 0.00000000
vt 0.00000000 0.00000000
vt 0.00000000 0.00000000
vt 0.00000000 0.00000000
vt 0.00000000 0.00000000
vt 0.00000000 0.00000000
vt 0.00000000 0.00000000
vt 0.00000000 0.00000000
vt 0.00000000 0.00000000
vt 0.00000000 0.00000000
vt 0.00000000 0.00000000
vt 0.00000000 0.00000000
vt 0.00000000 0.00000000
vt 0.00000000 0.00000000
vt 0.00000000 0.00000000
vt 0.00000000 0.00000000
vt 0.00000000 0.00000000
vt 0.00000000 0.00000000
vt 0.00000000 0.00000000
vt 0.00000000 0.00000000
vt 0.00000000 0.00000000
vt 0.00000000 0.00000000
vt 0.00000000 0.00000000
vt 0.00000000 0.00000000
vt 0.00000000 0.00000000
vt 0.00000000 0.00000000
vt 0.00000000 0.00000000
vt 0.00000000 0.00000000
vt 0.00000000 0.00000000
vt 0.00000000 0.00000000
vt 0.00000000 0.00000000
vt 0.00000000 0.00000000
vt 0.00000000 0.00000000
vt 0.00000000 0.00000000
vt 0.00000000 0.00000000
vt 0.00000000 0.00000000
vt 0.00000000 0.00000000
vt 0.00000000 0.00000000
vt 0.00000000 0.00000000
vt 0.00000000 0.00000000
vt 0.00000000 0.00000000
vt 0.00000000 0.00000000
vt 0.00000000 0.00000000
vt 0.00000000 0.00000000
vt 0.00000000 0.00000000
vt 0.00000000 0.00000000
vt 0.00000000 0.00000000
vt 0.00000000 0.00000000
vt 0.00000000 0.00000000
vt 0.00000000 0.00000000
vt 0.00000000 0.00000000
vt 0.00000000 0.00000000
vt 0.00000000 0.00000000
vt 0.00000000 0.00000000
vt 0.00000000 0.00000000
vt 0.00000000 0.00000000
vt 0.00000000 0.00000000
vt 0.00000000 0.00000000
vt 0.00000000 0.00000000
vt 0.00000000 0.00000000
vt 0.00000000 0.00000000
vt 0.00000000 0.00000000
vt 0.00000000 0.00000000
vt 0.00000000 0.00000000
vt 0.00000000 0.00000000
vt 0.00000000 0.00000000
vt 0.00000000 0.00000000
vt 0.00000000 0.00000000
vt 0.00000000 0.00000000
vt 0.00000000 0.00000000
vt 0.00000000 0.00000000
vt 0.00000000 0.00000000
vt 0.00000000 0.00000000
vt 0.00000000 0.00000000
vt 0.00000000 0.00000000
vt 0.00000000 0.00000000
vt 0.00000000 0.00000000
vt 0.00000000 0.00000000
vt 0.00000000 0.00000000
vt 0.00000000 0.00000000
vt 0.00000000 0.00000000
vt 0.00000000 0.00000000
vt 0.00000000 0.00000000
vt 0.00000000 0.00000000
vt 0.00000000 0.00000000
vt 0.00000000 0.00000000
vt 0.00000000 0.00000000
vt 0.00000000 0.00000000
vt 0.00000000 0.00000000
vt 0.00000000 0.00000000
vt 0.00000000 0.00000000
vt 0.00000000 0.00000000
vt 0.00000000 0.00000000
vt 0.00000000 0.00000000
vt 0.00000000 0.00000000
vt 0.00000000 0.00000000
vt 0.00000000 0.00000000
vt 0.00000000 0.00000000
vt 0.00000000 0.00000000
vt 0.00000000 0.00000000
vt 0.00000000 0.00000000
vt 0.00000000 0.00000000
vt 0.00000000 0.00000000
vt 0.00000000 0.00000000
vt 0.00000000 0.00000000
vt 0.00000000 0.00000000
vt 0.00000000 0.00000000
vt 0.00000000 0.00000000
vt 0.00000000 0.00000000
vt 0.00000000 0.00000000
vt 0.00000000 0.00000000
vt 0.00000000 0.00000000
vt 0.00000000 0.00000000
vt 0.00000000 0.00000000
vt 0.00000000 0.00000000
vt 0.00000000 0.00000000
vt 0.00000000 0.00000000
vt 0.00000000 0.00000000
vt 0.00000000 0.00000000
vt 0.00000000 0.00000000
vt 0.00000000 0.00000000
vt 0.00000000 0.00000000
vt 0.00000000 0.00000000
vt 0.00000000 0.00000000
vt 0.00000000 0.00000000
vt 0.00000000 0.00000000
vt 0.00000000 0.00000000
vt 0.00000000 0.00000000
vt 0.00000000 0.00000000
vt 0.00000000 0.00000000
vt 0.00000000 0.00000000
vt 0.00000000 0.00000000
vt 0.00000000 0.00000000
vt 0.00000000 0.00000000
vt 0.00000000 0.00000000
vt 0.00000000 0.00000000
vt 0.00000000 0.00000000
vt 0.00000000 0.00000000
vt 0.00000000 0.00000000
vt 0.00000000 0.00000000
vt 0.00000000 0.00000000
vt 0.00000000 0.00000000
vt 0.00000000 0.00000000
vt 0.00000000 0.00000000
vt 0.00000000 0.00000000
vt 0.00000000 0.00000000
vt 0.00000000 0.00000000
vt 0.00000000 0.00000000
vt 0.00000000 0.00000000
vt 0.00000000 0.00000000
vt 0.00000000 0.00000000
vt 0.00000000 0.00000000
vt 0.00000000 0.00000000
vt 0.00000000 0.00000000
vt 0.00000000 0.00000000
vt 0.00000000 0.00000000
vt 0.00000000 0.00000000
vt 0.00000000 0.00000000
vt 0.00000000 0.00000000
vt 0.00000000 0.00000000
vt 0.00000000 0.00000000
vt 0.00000000 0.00000000
vt 0.00000000 0.00000000
vt 0.00000000 0.00000000
vt 0.00000000 0.00000000
vt 0.00000000 0.00000000
vt 0.00000000 0.00000000
vt 0.00000000 0.00000000
vt 0.00000000 0.00000000
vt 0.00000000 0.00000000
vt 0.00000000 0.00000000
vt 0.00000000 0.00000000
f 1/1/1 2/2/2 3/3/3
f 2/2/2 4/4/4 3/3/3
f 5/5/5 6/6/6 7/7/7
f 4/4/4 5/5/5 7/7/7
f 8/8/8 2/2/2 1/1/1
f 9/9/9 10/10/10 1/1/1
f 6/6/6 11/11/11 7/7/7
f 11/11/11 12/12/12 7/7/7
f 11/11/11 13/13/13 12/12/12
f 13/13/13 14/14/14 12/12/12
f 14/14/14 15/15/15 12/12/12
f 16/16/16 10/10/10 9/9/9
f 17/17/17 16/16/16 9/9/9
f 14/14/14 18/18/18 15/15/15
f 19/19/19 16/16/16 17/17/17
f 20/20/20 21/21/21 8/8/8
f 22/22/22 21/21/21 20/20/20
f 23/23/23 24/24/24 25/25/25
f 26/26/26 22/22/22 27/27/27
f 28/28/28 23/23/23 29/29/29
f 23/23/23 30/30/30 29/29/29
f 23/23/23 31/31/31 30/30/30
f 24/24/24 23/23/23 28/28/28
f 32/32/32 21/21/21 33/33/33
f 21/21/21 26/26/26 33/33/33
f 35/35/35 40/40/40 37/37/37
f 38/38/38 39/39/39 37/37/37
f 39/39/39 35/35/35 37/37/37
f 40/40/40 41/41/41 36/36/36
f 41/41/41 42/42/42 36/36/36
f 30/30/30 39/39/39 38/38/38
f 41/41/41 32/32/32 42/42/42
f 43/43/43 51/51/51 45/45/45
f 46/46/46 47/47/47 48/48/48
f 49/49/49 47/47/47 46/46/46
f 50/50/50 49/49/49 46/46/46
f 52/52/52 44/44/44 51/51/51
f 37/37/37 36/36/36 3/3/3
f 3/3/3 38/38/38 37/37/37
f 42/42/42 53/53/53 36/36/36
f 38/38/38 52/52/52 51/51/51
f 9/9/9 42/42/42 49/49/49
f 50/50/50 9/9/9 49/49/49
f 3/3/3 52/52/52 38/38/38
f 9/9/9 53/53/53 42/42/42
f 54/54/54 55/55/55 56/56/56
f 54/54/54 57/57/57 55/55/55
f 58/58/58 59/59/59 60/60/60
f 61/61/61 58/58/58 60/60/60
f 62/62/62 63/63/63 56/56/56
f 64/64/64 63/63/63 62/62/62
f 64/64/64 65/65/65 63/63/63
f 59/59/59 66/66/66 50/50/50
f 67/67/67 66/66/66 59/59/59
f 68/68/68 67/67/67 59/59/59
f 69/69/69 67/67/67 68/68/68
f 63/63/63 54/54/54 56/56/56
f 65/65/65 54/54/54 63/63/63
f 58/58/58 68/68/68 59/59/59
f 69/69/69 68/68/68 58/58/58
f 70/70/70 26/26/26 71/71/71
f 26/26/26 17/17/17 71/71/71
f 15/15/15 72/72/72 73/73/73
f 24/24/24 72/72/72 15/15/15
f 74/74/74 75/75/75 76/76/76
f 77/77/77 78/78/78 79/79/79
f 75/75/75 80/80/80 76/76/76
f 81/81/81 78/78/78 77/77/77
f 81/81/81 82/82/82 78/78/78
f 83/83/83 80/80/80 75/75/75
f 84/84/84 80/80/80 83/83/83
f 81/81/81 85/85/85 82/82/82
f 84/84/84 86/86/86 80/80/80
f 86/86/86 87/87/87 80/80/80
f 88/88/88 89/89/89 81/81/81
f 89/89/89 85/85/85 81/81/81
f 86/86/86 90/90/90 87/87/87
f 91/91/91 89/89/89 88/88/88
f 92/92/92 91/91/91 88/88/88
f 91/91/91 93/93/93 89/89/89
f 94/94/94 90/90/90 86/86/86
f 90/90/90 95/95/95 87/87/87
f 96/96/96 91/91/91 92/92/92
f 90/90/90 97/97/97 95/95/95
f 98/98/98 96/96/96 92/92/92
f 97/97/97 99/99/99 95/95/95
f 61/61/61 96/96/96 98/98/98
f 57/57/57 99/99/99 97/97/97
f 100/100/100 61/61/61 98/98/98
f 54/54/54 99/99/99 57/57/57
f 100/100/100 101/101/101 61/61/61
f 101/101/101 58/58/58 61/61/61
f 102/102/102 99/99/99 54/54/54
f 102/102/102 103/103/103 99/99/99
f 105/105/105 101/101/101 100/100/100
f 102/102/102 106/106/106 103/103/103
f 107/107/107 103/103/103 106/106/106
f 107/107/107 108/108/108 103/103/103
f 109/109/109 105/105/105 104/104/104
f 110/110/110 109/109/109 104/104/104
f 107/107/107 111/111/111 108/108/108
f 110/110/110 111/111/111 109/109/109
f 111/111/111 110/110/110 108/108/108
f 112/112/112 113/113/113 114/114/114
f 115/115/115 116/116/116 114/114/114
f 117/117/117 75/75/75 116/116/116
f 118/118/118 119/119/119 120/120/120
f 121/121/121 122/122/122 118/118/118
f 122/122/122 119/119/119 118/118/118
f 119/119/119 123/123/123 120/120/120
f 119/119/119 124/124/124 123/123/123
f 125/125/125 123/123/123 124/124/124
f 126/126/126 125/125/125 124/124/124
f 121/121/121 126/126/126 122/122/122
f 127/127/127 125/125/125 126/126/126
f 121/121/121 127/127/127 126/126/126
f 128/128/128 131/131/131 129/129/129
f 131/131/131 133/133/133 129/129/129
f 134/134/134 137/137/137 135/135/135
f 137/137/137 139/139/139 138/138/138
f 129/129/129 132/132/132 130/130/130
f 136/136/136 135/135/135 138/138/138
f 142/142/142 143/143/143 140/140/140
f 143/143/143 145/145/145 144/144/144
f 148/148/148 149/149/149 146/146/146
f 149/149/149 151/151/151 150/150/150
f 145/145/145 143/143/143 142/142/142
f 152/152/152 149/149/149 148/148/148
f 151/151/151 149/149/149 152/152/152
f 153/153/153 151/151/151 152/152/152
f 155/155/155 159/159/159 156/156/156
f 157/157/157 158/158/158 154/154/154
f 158/158/158 155/155/155 154/154/154
f 160/160/160 158/158/158 157/157/157
f 160/160/160 161/161/161 158/158/158
f 162/162/162 163/163/163 164/164/164
f 165/165/165 166/166/166 164/164/164
f 163/163/163 165/165/165 164/164/164
f 167/167/167 163/163/163 162/162/162
f 168/168/168 166/166/166 165/165/165
f 169/169/169 175/175/175 171/171/171
f 172/172/172 173/173/173 174/174/174
f 169/169/169 176/176/176 175/175/175
f 177/177/177 173/173/173 172/172/172
f 177/177/177 178/178/178 173/173/173
f 169/169/169 180/180/180 176/176/176
f 178/178/178 181/181/181 173/173/173
f 182/182/182 185/185/185 178/178/178
f 154/154/154 183/183/183 180/180/180
f 183/183/183 179/179/179 180/180/180
f 184/184/184 154/154/154 180/180/180
f 185/185/185 164/164/164 181/181/181
f 164/164/164 186/186/186 181/181/181
f 187/187/187 185/185/185 182/182/182
f 188/188/188 157/157/157 184/184/184
f 157/157/157 154/154/154 184/184/184
f 166/166/166 186/186/186 164/164/164
f 160/160/160 157/157/157 188/188/188
f 166/166/166 189/189/189 186/186/186
f 190/190/190 160/160/160 188/188/188
f 166/166/166 48/48/48 191/191/191
f 190/190/190 192/192/192 160/160/160
f 190/190/190 193/193/193 192/192/192
f 194/194/194 193/193/193 190/190/190
f 48/48/48 195/195/195 191/191/191
f 195/195/195 196/196/196 191/191/191
f 196/196/196 197/197/197 191/191/191
f 198/198/198 194/194/194 190/190/190
f 199/199/199 198/198/198 190/190/190
f 200/200/200 197/197/197 196/196/196
f 200/200/200 199/199/199 197/197/197
f 198/198/198 199/199/199 200/200/200
f 72/72/72 201/201/201 73/73/73
f 202/202/202 62/62/62 201/201/201
f 202/202/202 64/64/64 62/62/62
f 203/203/203 64/64/64 202/202/202
f 72/72/72 203/203/203 201/201/201
f 204/204/204 64/64/64 203/203/203
f 72/72/72 204/204/204 203/203/203
f 205/205/205 71/71/71 66/66/66
f 205/205/205 70/70/70 71/71/71
f 206/206/206 205/205/205 66/66/66
f 67/67/67 206/206/206 66/66/66
f 207/207/207 206/206/206 67/67/67
f 67/67/67 208/208/208 207/207/207
f 209/209/209 70/70/70 205/205/205
f 208/208/208 209/209/209 207/207/207
f 208/208/208 70/70/70 209/209/209
f 210/210/210 211/211/211 79/79/79
f 78/78/78 210/210/210 79/79/79
f 212/212/212 213/213/213 214/214/214
f 215/215/215 212/212/212 214/214/214
f 216/216/216 215/215/215 214/214/214
f 217/217/217 215/215/215 216/216/216
f 218/218/218 213/213/213 212/212/212
f 217/217/217 219/219/219 218/218/218
f 219/219/219 213/213/213 218/218/218
f 128/128/128 231/231/231 220/220/220
f 131/131/131 128/128/128 220/220/220
f 221/221/221 131/131/131 220/220/220
f 147/147/147 222/222/222 220/220/220
f 223/223/223 183/183/183 224/224/224
f 224/224/224 226/226/226 223/223/223
f 187/187/187 227/227/227 185/185/185
f 228/228/228 229/229/229 187/187/187
f 147/147/147 146/146/146 222/222/222
f 146/146/146 230/230/230 222/222/222
f 232/232/232 131/131/131 221/221/221
f 146/146/146 228/228/228 230/230/230
f 223/223/223 179/179/179 183/183/183
f 223/223/223 232/232/232 179/179/179
f 228/228/228 233/233/233 229/229/229
f 127/127/127 139/139/139 226/226/226
f 213/213/213 229/229/229 233/233/233
f 213/213/213 219/219/219 229/229/229
f 234/234/234 235/235/235 236/236/236
f 235/235/235 237/237/237 83/83/83
f 82/82/82 239/239/239 238/238/238
f 130/130/130 240/240/240 241/241/241
f 241/241/241 242/242/242 130/130/130
f 243/243/243 153/153/153 244/244/244
f 152/152/152 241/241/241 244/244/244
f 153/153/153 152/152/152 244/244/244
f 130/130/130 245/245/245 240/240/240
f 234/234/234 245/245/245 246/246/246
f 153/153/153 243/243/243 238/238/238
f 247/247/247 153/153/153 239/239/239
f 248/248/248 247/247/247 239/239/239
f 235/235/235 249/249/249 237/237/237
f 250/250/250 249/249/249 235/235/235
f 250/250/250 120/120/120 249/249/249
f 76/76/76 251/251/251 252/252/252
f 253/253/253 254/254/254 255/255/255
f 254/254/254 77/77/77 255/255/255
f 256/256/256 257/257/257 76/76/76
f 257/257/257 251/251/251 76/76/76
f 257/257/257 258/258/258 251/251/251
f 259/259/259 256/256/256 76/76/76
f 260/260/260 259/259/259 76/76/76
f 261/261/261 262/262/262 77/77/77
f 254/254/254 261/261/261 77/77/77
f 253/253/253 174/174/174 263/263/263
f 264/264/264 251/251/251 258/258/258
f 265/265/265 262/262/262 261/261/261
f 266/266/266 264/264/264 258/258/258
f 262/262/262 267/267/267 77/77/77
f 259/259/259 266/266/266 256/256/256
f 263/263/263 268/268/268 265/265/265
f 268/268/268 262/262/262 265/265/265
f 259/259/259 264/264/264 266/266/266
f 174/174/174 268/268/268 263/263/263
f 269/269/269 270/270/270 260/260/260
f 270/270/270 271/271/271 260/260/260
f 271/271/271 259/259/259 260/260/260
f 262/262/262 272/272/272 267/267/267
f 271/271/271 273/273/273 259/259/259
f 273/273/273 274/274/274 264/264/264
f 268/268/268 275/275/275 262/262/262
f 275/275/275 272/272/272 262/262/262
f 276/276/276 275/275/275 268/268/268
f 272/272/272 277/277/277 267/267/267
f 278/278/278 274/274/274 273/273/273
f 269/269/269 278/278/278 270/270/270
f 279/279/279 267/267/267 277/277/277
f 269/269/269 280/280/280 278/278/278
f 281/281/281 274/274/274 278/278/278
f 282/282/282 277/277/277 276/276/276
f 268/268/268 282/282/282 276/276/276
f 282/282/282 279/279/279 277/277/277
f 280/280/280 281/281/281 278/278/278
f 283/283/283 282/282/282 186/186/186
f 284/284/284 285/285/285 280/280/280
f 285/285/285 274/274/274 281/281/281
f 286/286/286 279/279/279 282/282/282
f 283/283/283 286/286/286 282/282/282
f 285/285/285 188/188/188 274/274/274
f 287/287/287 283/283/283 186/186/186
f 189/189/189 287/287/287 186/186/186
f 288/288/288 188/188/188 285/285/285
f 289/289/289 188/188/188 288/288/288
f 290/290/290 291/291/291 280/280/280
f 291/291/291 284/284/284 280/280/280
f 286/286/286 292/292/292 279/279/279
f 290/290/290 296/296/296 288/288/288
f 291/291/291 290/290/290 288/288/288
f 293/293/293 294/294/294 287/287/287
f 189/189/189 293/293/293 287/287/287
f 294/294/294 292/292/292 286/286/286
f 295/295/295 299/299/299 293/293/293
f 293/293/293 292/292/292 294/294/294
f 296/296/296 297/297/297 289/289/289
f 297/297/297 298/298/298 289/289/289
f 300/300/300 292/292/292 293/293/293
f 299/299/299 301/301/301 293/293/293
f 301/301/301 300/300/300 293/293/293
f 302/302/302 308/308/308 303/303/303
f 303/303/303 299/299/299 295/295/295
f 304/304/304 305/305/305 298/298/298
f 305/305/305 306/306/306 298/298/298
f 306/306/306 307/307/307 298/298/298
f 307/307/307 302/302/302 298/298/298
f 309/309/309 308/308/308 302/302/302
f 307/307/307 309/309/309 302/302/302
f 290/290/290 310/310/310 296/296/296
f 311/311/311 310/310/310 290/290/290
f 312/312/312 300/300/300 301/301/301
f 308/308/308 313/313/313 303/303/303
f 311/311/311 305/305/305 304/304/304
f 310/310/310 311/311/311 304/304/304
f 313/313/313 300/300/300 312/312/312
f 305/305/305 314/314/314 306/306/306
f 315/315/315 308/308/308 309/309/309
f 311/311/311 316/316/316 305/305/305
f 316/316/316 314/314/314 305/305/305
f 315/315/315 313/313/313 308/308/308
f 316/316/316 313/313/313 315/315/315
f 316/316/316 315/315/315 314/314/314
f 5/5/5 317/317/317 318/318/318
f 318/318/318 11/11/11 6/6/6
f 31/31/31 317/317/317 5/5/5
f 27/27/27 319/319/319 320/320/320
f 19/19/19 320/320/320 16/16/16
f 319/319/319 27/27/27 22/22/22
f 321/321/321 13/13/13 11/11/11
f 321/321/321 23/23/23 13/13/13
f 23/23/23 321/321/321 31/31/31
f 322/322/322 18/18/18 14/14/14
f 322/322/322 25/25/25 18/18/18
f 25/25/25 322/322/322 23/23/23
f 323/323/323 20/20/20 324/324/324
f 323/323/323 324/324/324 16/16/16
f 16/16/16 324/324/324 10/10/10
f 323/323/323 22/22/22 20/20/20
f 325/325/325 8/8/8 326/326/326
f 10/10/10 327/327/327 1/1/1
f 10/10/10 326/326/326 327/327/327
f 325/325/325 20/20/20 8/8/8
f 5/5/5 318/318/318 6/6/6
f 31/31/31 321/321/321 11/11/11
f 23/23/23 322/322/322 14/14/14
f 27/27/27 320/320/320 19/19/19
f 26/26/26 27/27/27 19/19/19
f 17/17/17 26/26/26 19/19/19
f 319/319/319 22/22/22 16/16/16
f 320/320/320 319/319/319 16/16/16
f 22/22/22 323/323/323 16/16/16
f 324/324/324 20/20/20 10/10/10
f 20/20/20 325/325/325 10/10/10
f 327/327/327 8/8/8 1/1/1
f 326/326/326 8/8/8 327/327/327
f 318/318/318 317/317/317 11/11/11
f 317/317/317 31/31/31 11/11/11
f 23/23/23 14/14/14 13/13/13
f 25/25/25 15/15/15 18/18/18
f 25/25/25 24/24/24 15/15/15
f 328/328/328 86/86/86 329/329/329
f 123/123/123 328/328/328 329/329/329
f 125/125/125 328/328/328 123/123/123
f 328/328/328 226/226/226 86/86/86
f 125/125/125 127/127/127 328/328/328
f 127/127/127 226/226/226 328/328/328
f 249/249/249 84/84/84 237/237/237
f 123/123/123 249/249/249 120/120/120
f 249/249/249 329/329/329 84/84/84
f 123/123/123 329/329/329 249/249/249
f 329/329/329 86/86/86 84/84/84
f 330/330/330 331/331/331 89/89/89
f 330/330/330 332/332/332 331/331/331
f 332/332/332 333/333/333 331/331/331
f 332/332/332 219/219/219 333/333/333
f 229/229/229 332/332/332 330/330/330
f 229/229/229 219/219/219 332/332/332
f 85/85/85 334/334/334 248/248/248
f 334/334/334 216/216/216 248/248/248
f 331/331/331 334/334/334 85/85/85
f 331/331/331 216/216/216 334/334/334
f 89/89/89 331/331/331 85/85/85
f 331/331/331 333/333/333 216/216/216
f 49/49/49 335/335/335 47/47/47
f 42/42/42 32/32/32 49/49/49
f 32/32/32 335/335/335 49/49/49
f 336/336/336 51/51/51 43/43/43
f 336/336/336 30/30/30 51/51/51
f 30/30/30 38/38/38 51/51/51
f 47/47/47 337/337/337 48/48/48
f 335/335/335 337/337/337 47/47/47
f 337/337/337 195/195/195 48/48/48
f 337/337/337 338/338/338 195/195/195
f 338/338/338 196/196/196 195/195/195
f 338/338/338 109/109/109 196/196/196
f 107/107/107 339/339/339 193/193/193
f 194/194/194 107/107/107 193/193/193
f 193/193/193 339/339/339 192/192/192
f 339/339/339 43/43/43 192/192/192
f 339/339/339 336/336/336 43/43/43
f 198/198/198 340/340/340 194/194/194
f 340/340/340 107/107/107 194/194/194
f 109/109/109 341/341/341 196/196/196
f 341/341/341 200/200/200 196/196/196
f 342/342/342 340/340/340 198/198/198
f 341/341/341 342/342/342 200/200/200
f 342/342/342 198/198/198 200/200/200
f 343/343/343 107/107/107 340/340/340
f 109/109/109 344/344/344 341/341/341
f 111/111/111 107/107/107 343/343/343
f 111/111/111 343/343/343 344/344/344
f 109/109/109 111/111/111 344/344/344
f 299/299/299 345/345/345 346/346/346
f 346/346/346 301/301/301 299/299/299
f 299/299/299 303/303/303 345/345/345
f 303/303/303 347/347/347 345/345/345
f 346/346/346 312/312/312 301/301/301
f 303/303/303 312/312/312 347/347/347
f 347/347/347 312/312/312 346/346/346
f 347/347/347 346/346/346 345/345/345
f 296/296/296 348/348/348 349/349/349
f 349/349/349 297/297/297 296/296/296
f 296/296/296 310/310/310 348/348/348
f 349/349/349 304/304/304 297/297/297
f 310/310/310 350/350/350 348/348/348
f 350/350/350 304/304/304 349/349/349
f 350/350/350 310/310/310 304/304/304
f 350/350/350 349/349/349 348/348/348
f 271/271/271 351/351/351 352/352/352
f 352/352/352 273/273/273 271/271/271
f 271/271/271 270/270/270 351/351/351
f 352/352/352 278/278/278 273/273/273
f 270/270/270 278/278/278 351/351/351
f 275/275/275 353/353/353 272/272/272
f 354/354/354 277/277/277 272/272/272
f 275/275/275 276/276/276 353/353/353
f 276/276/276 277/277/277 354/354/354
f 354/354/354 272/272/272 353/353/353
f 276/276/276 354/354/354 353/353/353
f 278/278/278 352/352/352 351/351/351
f 65/65/65 102/102/102 54/54/54
f 65/65/65 355/355/355 102/102/102
f 355/355/355 106/106/106 102/102/102
f 101/101/101 69/69/69 58/58/58
f 105/105/105 69/69/69 101/101/101
f 356/356/356 355/355/355 65/65/65
f 64/64/64 356/356/356 65/65/65
f 204/204/204 356/356/356 64/64/64
f 28/28/28 355/355/355 356/356/356
f 204/204/204 28/28/28 356/356/356
f 24/24/24 28/28/28 204/204/204
f 29/29/29 336/336/336 355/355/355
f 336/336/336 106/106/106 355/355/355
f 28/28/28 29/29/29 355/355/355
f 69/69/69 357/357/357 67/67/67
f 33/33/33 357/357/357 69/69/69
f 33/33/33 34/34/34 357/357/357
f 33/33/33 69/69/69 105/105/105
f 94/94/94 86/86/86 226/226/226
f 93/93/93 330/330/330 89/89/89
f 93/93/93 229/229/229 330/330/330
f 240/240/240 221/221/221 220/220/220
f 222/222/222 244/244/244 358/358/358
f 222/222/222 230/230/230 244/244/244
f 359/359/359 360/360/360 221/221/221
f 230/230/230 243/243/243 244/244/244
f 230/230/230 361/361/361 243/243/243
f 232/232/232 221/221/221 360/360/360
f 230/230/230 187/187/187 361/361/361
f 179/179/179 359/359/359 176/176/176
f 179/179/179 360/360/360 359/359/359
f 179/179/179 232/232/232 360/360/360
f 182/182/182 178/178/178 177/177/177
f 243/243/243 361/361/361 177/177/177
f 187/187/187 182/182/182 361/361/361
f 139/139/139 118/118/118 138/138/138
f 139/139/139 121/121/121 118/118/118
f 213/213/213 145/145/145 214/214/214
f 213/213/213 144/144/144 145/145/145
f 147/147/147 242/242/242 148/148/148
f 147/147/147 231/231/231 242/242/242
f 141/141/141 362/362/362 363/363/363
f 364/364/364 365/365/365 246/246/246
f 362/362/362 150/150/150 151/151/151
f 363/363/363 362/362/362 151/151/151
f 141/141/141 363/363/363 142/142/142
f 130/130/130 242/242/242 231/231/231
f 133/133/133 246/246/246 132/132/132
f 133/133/133 364/364/364 246/246/246
f 365/365/365 364/364/364 136/136/136
f 366/366/366 367/367/367 368/368/368
f 369/369/369 367/367/367 366/366/366
f 368/368/368 370/370/370 366/366/366
f 370/370/370 119/119/119 366/366/366
f 122/122/122 366/366/366 119/119/119
f 367/367/367 124/124/124 368/368/368
f 124/124/124 370/370/370 368/368/368
f 122/122/122 369/369/369 366/366/366
f 126/126/126 369/369/369 122/122/122
f 369/369/369 126/126/126 367/367/367
f 126/126/126 124/124/124 367/367/367
f 370/370/370 124/124/124 119/119/119
f 371/371/371 372/372/372 373/373/373
f 371/371/371 374/374/374 372/372/372
f 202/202/202 371/371/371 373/373/373
f 201/201/201 371/371/371 202/202/202
f 372/372/372 375/375/375 373/373/373
f 375/375/375 202/202/202 373/373/373
f 201/201/201 374/374/374 371/371/371
f 376/376/376 374/374/374 201/201/201
f 203/203/203 375/375/375 372/372/372
f 376/376/376 372/372/372 374/374/374
f 203/203/203 372/372/372 376/376/376
f 375/375/375 203/203/203 202/202/202
f 203/203/203 376/376/376 201/201/201
f 256/256/256 377/377/377 257/257/257
f 377/377/377 378/378/378 257/257/257
f 379/379/379 258/258/258 257/257/257
f 380/380/380 258/258/258 379/379/379
f 380/380/380 377/377/377 256/256/256
f 380/380/380 266/266/266 258/258/258
f 266/266/266 380/380/380 256/256/256
f 378/378/378 377/377/377 381/381/381
f 382/382/382 380/380/380 379/379/379
f 381/381/381 115/115/115 378/378/378
f 115/115/115 113/113/113 378/378/378
f 377/377/377 383/383/383 381/381/381
f 383/383/383 115/115/115 381/381/381
f 113/113/113 379/379/379 378/378/378
f 384/384/384 379/379/379 113/113/113
f 384/384/384 382/382/382 379/379/379
f 377/377/377 117/117/117 383/383/383
f 384/384/384 385/385/385 382/382/382
f 380/380/380 117/117/117 377/377/377
f 385/385/385 117/117/117 382/382/382
f 117/117/117 380/380/380 382/382/382
f 386/386/386 387/387/387 254/254/254
f 387/387/387 261/261/261 254/254/254
f 388/388/388 261/261/261 387/387/387
f 263/263/263 386/386/386 254/254/254
f 388/388/388 265/265/265 261/261/261
f 389/389/389 265/265/265 388/388/388
f 389/389/389 386/386/386 263/263/263
f 389/389/389 263/263/263 265/265/265
f 387/387/387 386/386/386 390/390/390
f 391/391/391 389/389/389 388/388/388
f 390/390/390 392/392/392 387/387/387
f 392/392/392 211/211/211 387/387/387
f 211/211/211 388/388/388 387/387/387
f 386/386/386 393/393/393 390/390/390
f 393/393/393 392/392/392 390/390/390
f 210/210/210 388/388/388 211/211/211
f 210/210/210 391/391/391 388/388/388
f 386/386/386 394/394/394 393/393/393
f 389/389/389 394/394/394 386/386/386
f 210/210/210 394/394/394 391/391/391
f 394/394/394 389/389/389 391/391/391
f 395/395/395 286/286/286 283/283/283
f 287/287/287 396/396/396 283/283/283
f 396/396/396 395/395/395 283/283/283
f 397/397/397 286/286/286 395/395/395
f 398/398/398 396/396/396 287/287/287
f 294/294/294 398/398/398 287/287/287
f 397/397/397 294/294/294 286/286/286
f 398/398/398 294/294/294 397/397/397
f 395/395/395 396/396/396 399/399/399
f 400/400/400 398/398/398 397/397/397
f 399/399/399 163/163/163 395/395/395
f 165/165/165 163/163/163 399/399/399
f 401/401/401 395/395/395 163/163/163
f 401/401/401 397/397/397 395/395/395
f 396/396/396 165/165/165 399/399/399
f 168/168/168 165/165/165 396/396/396
f 402/402/402 400/400/400 397/397/397
f 401/401/401 402/402/402 397/397/397
f 398/398/398 168/168/168 396/396/396
f 398/398/398 46/46/46 168/168/168
f 400/400/400 46/46/46 398/398/398
f 59/59/59 50/50/50 46/46/46
f 46/46/46 400/400/400 402/402/402
f 306/306/306 340/340/340 307/307/307
f 340/340/340 342/342/342 307/307/307
f 342/342/342 309/309/309 307/307/307
f 341/341/341 309/309/309 342/342/342
f 314/314/314 343/343/343 306/306/306
f 343/343/343 340/340/340 306/306/306
f 341/341/341 344/344/344 309/309/309
f 344/344/344 343/343/343 314/314/314
f 284/284/284 403/403/403 285/285/285
f 403/403/403 404/404/404 285/285/285
f 405/405/405 285/285/285 404/404/404
f 405/405/405 288/288/288 285/285/285
f 406/406/406 288/288/288 405/405/405
f 291/291/291 403/403/403 284/284/284
f 406/406/406 291/291/291 288/288/288
f 406/406/406 403/403/403 291/291/291
f 404/404/404 403/403/403 407/407/407
f 408/408/408 409/409/409 410/410/410
f 155/155/155 410/410/410 404/404/404
f 411/411/411 155/155/155 404/404/404
f 407/407/407 411/411/411 404/404/404
f 158/158/158 410/410/410 155/155/155
f 407/407/407 412/412/412 411/411/411
f 403/403/403 412/412/412 407/407/407
f 161/161/161 408/408/408 410/410/410
f 158/158/158 161/161/161 410/410/410
f 45/45/45 408/408/408 161/161/161
f 409/409/409 412/412/412 403/403/403
f 409/409/409 55/55/55 412/412/412
f 45/45/45 409/409/409 408/408/408
f 44/44/44 409/409/409 45/45/45
f 56/56/56 44/44/44 62/62/62
f 56/56/56 55/55/55 409/409/409
f 44/44/44 56/56/56 409/409/409
f 413/413/413 414/414/414 255/255/255
f 77/77/77 413/413/413 255/255/255
f 77/77/77 79/79/79 413/413/413
f 414/414/414 253/253/253 255/255/255
f 415/415/415 174/174/174 253/253/253
f 414/414/414 415/415/415 253/253/253
f 415/415/415 172/172/172 174/174/174
f 112/112/112 114/114/114 252/252/252
f 74/74/74 76/76/76 252/252/252
f 114/114/114 74/74/74 252/252/252
f 251/251/251 112/112/112 252/252/252
f 251/251/251 170/170/170 112/112/112
f 171/171/171 170/170/170 251/251/251
f 80/80/80 260/260/260 76/76/76
f 267/267/267 81/81/81 77/77/77
f 87/87/87 260/260/260 80/80/80
f 267/267/267 88/88/88 81/81/81
f 87/87/87 269/269/269 260/260/260
f 267/267/267 92/92/92 88/88/88
f 87/87/87 95/95/95 269/269/269
f 95/95/95 280/280/280 269/269/269
f 279/279/279 92/92/92 267/267/267
f 279/279/279 98/98/98 92/92/92
f 95/95/95 99/99/99 280/280/280
f 99/99/99 290/290/290 280/280/280
f 292/292/292 98/98/98 279/279/279
f 300/300/300 98/98/98 292/292/292
f 300/300/300 100/100/100 98/98/98
f 99/99/99 103/103/103 290/290/290
f 103/103/103 311/311/311 290/290/290
f 300/300/300 104/104/104 100/100/100
f 313/313/313 104/104/104 300/300/300
f 103/103/103 108/108/108 311/311/311
f 108/108/108 316/316/316 311/311/311
f 313/313/313 110/110/110 104/104/104
f 316/316/316 110/110/110 313/313/313
f 108/108/108 110/110/110 316/316/316
f 264/264/264 171/171/171 251/251/251
f 169/169/169 171/171/171 264/264/264
f 274/274/274 169/169/169 264/264/264
f 173/173/173 268/268/268 174/174/174
f 180/180/180 169/169/169 274/274/274
f 181/181/181 268/268/268 173/173/173
f 274/274/274 184/184/184 180/180/180
f 186/186/186 268/268/268 181/181/181
f 274/274/274 188/188/188 184/184/184
f 191/191/191 295/295/295 189/189/189
f 289/289/289 190/190/190 188/188/188
f 197/197/197 295/295/295 191/191/191
f 298/298/298 190/190/190 289/289/289
f 298/298/298 199/199/199 190/190/190
f 302/302/302 295/295/295 197/197/197
f 199/199/199 302/302/302 197/197/197
f 302/302/302 199/199/199 298/298/298
f 4/4/4 2/2/2 35/35/35
f 2/2/2 40/40/40 35/35/35
f 8/8/8 40/40/40 2/2/2
f 60/60/60 59/59/59 46/46/46
f 168/168/168 48/48/48 166/166/166
f 46/46/46 48/48/48 168/168/168
f 192/192/192 161/161/161 160/160/160
f 192/192/192 45/45/45 161/161/161
f 43/43/43 45/45/45 192/192/192
f 61/61/61 60/60/60 402/402/402
f 402/402/402 60/60/60 46/46/46
f 57/57/57 412/412/412 55/55/55
f 227/227/227 162/162/162 185/185/185
f 162/162/162 164/164/164 185/185/185
f 156/156/156 224/224/224 183/183/183
f 154/154/154 156/156/156 183/183/183
f 411/411/411 159/159/159 155/155/155
f 412/412/412 159/159/159 411/411/411
f 167/167/167 401/401/401 163/163/163
f 167/167/167 402/402/402 401/401/401
f 79/79/79 211/211/211 392/392/392
f 393/393/393 415/415/415 392/392/392
f 172/172/172 415/415/415 393/393/393
f 394/394/394 172/172/172 393/393/393
f 379/379/379 257/257/257 378/378/378
f 113/113/113 115/115/115 114/114/114
f 383/383/383 116/116/116 115/115/115
f 170/170/170 384/384/384 112/112/112
f 384/384/384 113/113/113 112/112/112
f 117/117/117 116/116/116 383/383/383
f 170/170/170 385/385/385 384/384/384
f 410/410/410 405/405/405 404/404/404
f 410/410/410 406/406/406 405/405/405
f 409/409/409 406/406/406 410/410/410
f 406/406/406 409/409/409 403/403/403
f 78/78/78 394/394/394 210/210/210
f 82/82/82 394/394/394 78/78/78
f 82/82/82 238/238/238 394/394/394
f 385/385/385 236/236/236 117/117/117
f 236/236/236 83/83/83 117/117/117
f 117/117/117 83/83/83 75/75/75
f 85/85/85 248/248/248 239/239/239
f 82/82/82 85/85/85 239/239/239
f 392/392/392 414/414/414 413/413/413
f 79/79/79 392/392/392 413/413/413
f 392/392/392 415/415/415 414/414/414
f 238/238/238 177/177/177 394/394/394
f 177/177/177 172/172/172 394/394/394
f 243/243/243 177/177/177 238/238/238
f 240/240/240 358/358/358 241/241/241
f 358/358/358 244/244/244 241/241/241
f 359/359/359 240/240/240 245/245/245
f 176/176/176 359/359/359 234/234/234
f 234/234/234 359/359/359 245/245/245
f 175/175/175 234/234/234 236/236/236
f 175/175/175 176/176/176 234/234/234
f 170/170/170 175/175/175 385/385/385
f 175/175/175 236/236/236 385/385/385
f 116/116/116 74/74/74 114/114/114
f 116/116/116 75/75/75 74/74/74
f 237/237/237 84/84/84 83/83/83
f 416/416/416 417/417/417 418/418/418
f 416/416/416 419/419/419 417/417/417
f 215/215/215 416/416/416 418/418/418
f 420/420/420 416/416/416 215/215/215
f 417/417/417 212/212/212 418/418/418
f 212/212/212 215/215/215 418/418/418
f 420/420/420 419/419/419 416/416/416
f 421/421/421 419/419/419 420/420/420
f 218/218/218 212/212/212 417/417/417
f 421/421/421 417/417/417 419/419/419
f 218/218/218 417/417/417 421/421/421
f 217/217/217 420/420/420 215/215/215
f 217/217/217 421/421/421 420/420/420
f 218/218/218 421/421/421 217/217/217
f 422/422/422 423/423/423 424/424/424
f 425/425/425 423/423/423 422/422/422
f 424/424/424 205/205/205 422/422/422
f 205/205/205 206/206/206 422/422/422
f 207/207/207 422/422/422 206/206/206
f 423/423/423 426/426/426 424/424/424
f 426/426/426 205/205/205 424/424/424
f 207/207/207 425/425/425 422/422/422
f 209/209/209 426/426/426 423/423/423
f 209/209/209 425/425/425 207/207/207
f 425/425/425 209/209/209 423/423/423
f 209/209/209 205/205/205 426/426/426
f 8/8/8 41/41/41 40/40/40
f 21/21/21 32/32/32 8/8/8
f 35/35/35 39/39/39 4/4/4
f 30/30/30 5/5/5 39/39/39
f 30/30/30 31/31/31 5/5/5
f 159/159/159 90/90/90 156/156/156
f 159/159/159 97/97/97 90/90/90
f 412/412/412 57/57/57 159/159/159
f 57/57/57 97/97/97 159/159/159
f 224/224/224 156/156/156 90/90/90
f 94/94/94 224/224/224 90/90/90
f 94/94/94 226/226/226 224/224/224
f 227/227/227 93/93/93 91/91/91
f 227/227/227 229/229/229 93/93/93
f 91/91/91 162/162/162 227/227/227
f 91/91/91 96/96/96 162/162/162
f 96/96/96 167/167/167 162/162/162
f 61/61/61 402/402/402 167/167/167
f 96/96/96 61/61/61 167/167/167
f 121/121/121 139/139/139 127/127/127
f 250/250/250 118/118/118 120/120/120
f 223/223/223 137/137/137 134/134/134
f 223/223/223 225/225/225 137/137/137
f 225/225/225 139/139/139 137/137/137
f 138/138/138 118/118/118 250/250/250
f 364/364/364 223/223/223 134/134/134
f 232/232/232 364/364/364 133/133/133
f 232/232/232 223/223/223 364/364/364
f 138/138/138 250/250/250 235/235/235
f 136/136/136 138/138/138 235/235/235
f 131/131/131 232/232/232 133/133/133
f 246/246/246 365/365/365 235/235/235
f 365/365/365 136/136/136 235/235/235
f 132/132/132 246/246/246 245/245/245
f 150/150/150 228/228/228 146/146/146
f 362/362/362 228/228/228 150/150/150
f 130/130/130 132/132/132 245/245/245
f 141/141/141 228/228/228 362/362/362
f 140/140/140 233/233/233 141/141/141
f 233/233/233 228/228/228 141/141/141
f 144/144/144 213/213/213 140/140/140
f 213/213/213 233/233/233 140/140/140
f 148/148/148 242/242/242 241/241/241
f 219/219/219 217/217/217 333/333/333
f 152/152/152 148/148/148 241/241/241
f 216/216/216 214/214/214 248/248/248
f 333/333/333 217/217/217 216/216/216
f 214/214/214 247/247/247 248/248/248
f 363/363/363 151/151/151 153/153/153
f 214/214/214 145/145/145 247/247/247
f 142/142/142 363/363/363 153/153/153
f 247/247/247 142/142/142 153/153/153
f 145/145/145 142/142/142 247/247/247
f 73/73/73 62/62/62 44/44/44
f 72/72/72 24/24/24 204/204/204
f 15/15/15 73/73/73 44/44/44
f 53/53/53 1/1/1 3/3/3
f 7/7/7 52/52/52 3/3/3
f 9/9/9 1/1/1 53/53/53
f 12/12/12 44/44/44 52/52/52
f 7/7/7 12/12/12 52/52/52
f 50/50/50 17/17/17 9/9/9
f 12/12/12 15/15/15 44/44/44
f 71/71/71 17/17/17 50/50/50
f 26/26/26 21/21/21 22/22/22
f 66/66/66 71/71/71 50/50/50
f 357/357/357 208/208/208 67/67/67
f 34/34/34 208/208/208 357/357/357
f 34/34/34 70/70/70 208/208/208
f 34/34/34 26/26/26 70/70/70
f 29/29/29 30/30/30 336/336/336
f 32/32/32 33/33/33 335/335/335
f 107/107/107 106/106/106 339/339/339
f 105/105/105 338/338/338 337/337/337
f 105/105/105 109/109/109 338/338/338
f 337/337/337 335/335/335 105/105/105
f 106/106/106 336/336/336 339/339/339
f 4/4/4 7/7/7 3/3/3
f 26/26/26 34/34/34 33/33/33
f 40/40/40 36/36/36 37/37/37
f 51/51/51 44/44/44 45/45/45
f 36/36/36 53/53/53 3/3/3
f 105/105/105 100/100/100 104/104/104
f 128/128/128 129/129/129 130/130/130
f 133/133/133 132/132/132 129/129/129
f 134/134/134 135/135/135 136/136/136
f 137/137/137 138/138/138 135/135/135
f 142/142/142 140/140/140 141/141/141
f 143/143/143 144/144/144 140/140/140
f 148/148/148 146/146/146 147/147/147
f 149/149/149 150/150/150 146/146/146
f 155/155/155 156/156/156 154/154/154
f 175/175/175 170/170/170 171/171/171
f 180/180/180 179/179/179 176/176/176
f 185/185/185 181/181/181 178/178/178
f 166/166/166 191/191/191 189/189/189
f 62/62/62 73/73/73 201/201/201
f 231/231/231 147/147/147 220/220/220
f 226/226/226 225/225/225 223/223/223
f 229/229/229 227/227/227 187/187/187
f 228/228/228 187/187/187 230/230/230
f 139/139/139 225/225/225 226/226/226
f 235/235/235 83/83/83 236/236/236
f 239/239/239 153/153/153 238/238/238
f 234/234/234 246/246/246 235/235/235
f 253/253/253 263/263/263 254/254/254
f 273/273/273 264/264/264 259/259/259
f 282/282/282 268/268/268 186/186/186
f 285/285/285 281/281/281 280/280/280
f 296/296/296 289/289/289 288/288/288
f 295/295/295 293/293/293 189/189/189
f 302/302/302 303/303/303 295/295/295
f 304/304/304 298/298/298 297/297/297
f 313/313/313 312/312/312 303/303/303
f 325/325/325 326/326/326 10/10/10
f 240/240/240 220/220/220 358/358/358
f 222/222/222 358/358/358 220/220/220
f 359/359/359 221/221/221 240/240/240
f 361/361/361 182/182/182 177/177/177
f 130/130/130 231/231/231 128/128/128
f 364/364/364 134/134/134 136/136/136
f 344/344/344 315/315/315 309/309/309
f 344/344/344 314/314/314 315/315/315
f 32/32/32 41/41/41 8/8/8
f 39/39/39 5/5/5 4/4/4
f 335/335/335 33/33/33 105/105/105

