# Blender 3.3.21
# www.blender.org
mtllib link_5.mtl
o Link_5
v 0.026518 0.070000 0.045241
v 0.016010 0.070000 0.049500
v 0.011875 0.070000 0.050545
v 0.021381 0.070000 0.047660
v 0.004822 0.070000 0.051363
v 0.000559 0.070000 0.051480
v 0.010467 0.070000 0.050739
v 0.006243 0.070000 0.051324
v 0.017387 0.070000 0.049152
v 0.022712 0.070000 0.047162
v -0.000857 0.070000 0.051363
v 0.035838 0.070000 0.038791
v 0.032546 0.070000 0.041497
v 0.039909 0.070000 0.034839
v 0.036935 0.070000 0.037890
v 0.031356 0.070000 0.042272
v 0.027786 0.070000 0.044600
v 0.043520 0.070000 0.030464
v 0.040900 0.070000 0.033823
v 0.053356 0.070000 0.004246
v -0.027392 0.070000 0.042274
v -0.030829 0.070000 0.039754
v -0.022553 0.070000 0.045242
v -0.026247 0.070000 0.043114
v 0.046626 0.070000 0.025719
v 0.044392 0.070000 0.029345
v 0.049190 0.070000 0.020662
v 0.047370 0.070000 0.024511
v 0.051182 0.070000 0.015354
v 0.049797 0.070000 0.019380
v 0.052576 0.070000 0.009860
v 0.051643 0.070000 0.014013
v -0.017417 0.070000 0.047661
v -0.021323 0.070000 0.045951
v 0.052887 0.070000 0.008477
v -0.029684 0.070000 -0.040594
v 0.028975 0.070000 -0.043825
v 0.032546 0.070000 -0.041497
v 0.023980 0.070000 -0.046522
v 0.027786 0.070000 -0.044600
v -0.014759 0.070000 -0.048654
v -0.025016 0.070000 -0.043823
v -0.020021 0.070000 -0.046521
v 0.033643 0.070000 -0.040595
v -0.033966 0.070000 -0.036871
v -0.030829 0.070000 -0.039754
v -0.037813 0.070000 -0.032701
v -0.035012 0.070000 -0.035911
v -0.035945 0.070000 0.034841
v -0.038746 0.070000 0.031632
v -0.031874 0.070000 0.038793
v -0.035012 0.070000 0.035911
v -0.012045 0.070000 0.049501
v -0.016115 0.070000 0.048230
v -0.006503 0.070000 0.050740
v -0.010689 0.070000 0.049924
v -0.005108 0.070000 0.051012
v 0.018718 0.070000 -0.048655
v 0.022712 0.070000 -0.047162
v -0.010689 0.070000 -0.049924
v -0.021323 0.070000 -0.045951
v -0.041177 0.070000 -0.028134
v -0.038746 0.070000 -0.031632
v -0.044016 0.070000 -0.023226
v -0.041986 0.070000 -0.026969
v -0.046298 0.070000 -0.018036
v -0.044693 0.070000 -0.021979
v -0.049394 0.070000 0.004250
v 0.041773 0.070000 -0.032704
v 0.044392 0.070000 -0.029345
v 0.037926 0.070000 -0.036873
v 0.040900 0.070000 -0.033823
v 0.013252 0.070000 -0.050197
v 0.017387 0.070000 -0.049152
v 0.007650 0.070000 -0.051129
v 0.011875 0.070000 -0.050545
v 0.001979 0.070000 -0.051441
v 0.006243 0.070000 -0.051324
v -0.003692 0.070000 -0.051129
v 0.000559 0.070000 -0.051480
v -0.009294 0.070000 -0.050196
v -0.005108 0.070000 -0.051012
v -0.016115 0.070000 -0.048230
v -0.026247 0.070000 -0.043114
v -0.047993 0.070000 -0.012627
v -0.046832 0.070000 -0.016722
v -0.049082 0.070000 -0.007064
v -0.048380 0.070000 -0.011262
v -0.039556 0.070000 0.030467
v 0.053512 0.070000 -0.001419
v 0.053512 0.070000 0.002837
v 0.053043 0.070000 -0.007067
v 0.053512 0.070000 -0.002837
v 0.050258 0.070000 -0.018039
v 0.051643 0.070000 -0.014013
v 0.047977 0.070000 -0.023229
v 0.049797 0.070000 -0.019380
v 0.045137 0.070000 -0.028137
v 0.047370 0.070000 -0.024511
v -0.049551 0.070000 -0.001416
v -0.049316 0.070000 -0.005665
v -0.049629 0.070000 0.000000
v -0.047219 0.070000 0.015358
v -0.048380 0.070000 0.011262
v -0.045227 0.070000 0.020665
v -0.046832 0.070000 0.016722
v -0.042663 0.070000 0.025722
v -0.044693 0.070000 0.021979
v -0.041986 0.070000 0.026969
v 0.051954 0.070000 -0.012630
v 0.052887 0.070000 -0.008477
v 0.036935 0.070000 -0.037890
v -0.048614 0.070000 0.009863
v -0.049316 0.070000 0.005665
v -0.003697 0.074144 -0.051187
v 0.001981 0.074144 -0.051500
v -0.009305 0.074144 -0.050254
v -0.014777 0.074144 -0.048710
v -0.020045 0.074144 -0.046574
v -0.025046 0.074144 -0.043874
v -0.029718 0.074144 -0.040641
v -0.034006 0.074144 -0.036914
v -0.037858 0.074144 -0.032740
v -0.041225 0.074144 -0.028168
v -0.044068 0.074144 -0.023254
v -0.046352 0.074144 -0.018058
v -0.048050 0.074144 -0.012642
v -0.049140 0.074144 -0.007074
v -0.049609 0.074144 -0.001419
v -0.049453 0.074144 0.004253
v -0.048672 0.074144 0.009873
v -0.047276 0.074144 0.015374
v -0.045282 0.074144 0.020687
v -0.042714 0.074144 0.025750
v -0.039604 0.074144 0.030500
v -0.035990 0.074144 0.034880
v -0.031914 0.074144 0.038837
v -0.027427 0.074144 0.042322
v -0.022583 0.074144 0.045293
v -0.017440 0.074144 0.047714
v -0.012062 0.074144 0.049557
v -0.006514 0.074144 0.050798
v -0.000862 0.074144 0.051422
v 0.004824 0.074144 0.051422
v 0.010476 0.074144 0.050798
v 0.016024 0.074144 0.049557
v 0.021402 0.074144 0.047714
v 0.026544 0.074144 0.045293
v 0.031388 0.074144 0.042322
v 0.035876 0.074144 0.038837
v 0.039951 0.074144 0.034880
v 0.043566 0.074144 0.030500
v 0.046676 0.074144 0.025750
v 0.049244 0.074144 0.020687
v 0.051237 0.074144 0.015374
v 0.052633 0.074144 0.009873
v 0.053414 0.074144 0.004253
v 0.053591 0.074144 0.000000
v 0.053571 0.074144 -0.001419
v 0.053101 0.074144 -0.007074
v 0.052011 0.074144 -0.012642
v 0.050314 0.074144 -0.018058
v 0.048030 0.074144 -0.023254
v 0.045187 0.074144 -0.028168
v 0.041819 0.074144 -0.032740
v 0.037968 0.074144 -0.036914
v 0.033680 0.074144 -0.040641
v 0.029007 0.074144 -0.043874
v 0.024007 0.074144 -0.046574
v 0.018739 0.074144 -0.048710
v 0.013267 0.074144 -0.050254
v 0.007658 0.074144 -0.051187
v -0.014614 0.074144 0.059997
v 0.056903 0.074144 0.042833
v 0.037996 0.074144 0.051603
v 0.019102 0.074144 0.059997
v -0.031722 0.074144 0.052926
v -0.051622 0.074144 0.033068
v -0.058708 0.074144 0.015997
v -0.058708 0.074144 -0.016003
v -0.051622 0.074144 -0.033074
v -0.031722 0.074144 -0.052932
v 0.037996 0.074144 -0.051609
v 0.056903 0.074144 -0.042839
v 0.019102 0.074144 -0.060003
v -0.014614 0.074144 -0.060003
v 0.063929 0.074144 -0.046108
v 0.063929 0.074144 0.046102
v -0.014614 0.094603 0.059997
v -0.031722 0.094603 0.052926
v -0.047173 0.099421 0.037508
v -0.051622 0.097805 0.033068
v -0.058708 0.095231 -0.016003
v -0.051622 0.097805 -0.033074
v -0.058708 0.095231 0.015997
v -0.047173 0.099421 -0.037514
v -0.031722 0.094603 -0.052932
v -0.014614 0.094603 -0.060003
v -0.028644 0.106150 0.032550
v -0.028644 0.106150 -0.032556
v -0.010628 0.106150 0.039997
v 0.019102 0.094603 0.059997
v -0.010628 0.106150 -0.040003
v 0.019102 0.094603 -0.060003
v 0.014842 0.106150 -0.040003
v 0.037996 0.094603 -0.051609
v 0.031444 0.106150 -0.032627
v 0.068383 0.090882 -0.045164
v 0.014842 0.106150 0.039997
v 0.031444 0.106150 0.032621
v 0.037996 0.094603 0.051603
v 0.068383 0.090882 0.045158
v 0.086384 0.044579 -0.041346
v 0.081763 0.044579 -0.039196
v 0.081763 0.044579 0.039189
v 0.086384 0.044579 0.041339
v 0.077352 0.024723 -0.037143
v 0.077352 0.024723 0.037137
v 0.048736 -0.013867 -0.023828
v 0.048736 -0.013867 0.023821
v 0.043008 -0.039651 -0.021162
v 0.043008 -0.039651 0.021156
v 0.086384 -0.049000 -0.041346
v 0.043008 -0.049000 -0.021162
v 0.086384 -0.049000 0.041339
v 0.043008 -0.049000 0.021156
v 0.087618 -0.049000 0.041078
v 0.087618 0.075095 0.041078
v 0.074212 0.088472 0.043921
v 0.074212 0.088472 -0.043927
v 0.087618 0.075095 -0.041084
v 0.087618 -0.049000 -0.041084
v 0.079696 0.083000 -0.034000
v 0.079696 0.083000 0.011000
v 0.113618 0.049150 0.046121
v 0.113618 0.049150 -0.046127
v 0.074212 0.088472 -0.034000
v 0.074212 0.088472 0.011000
v 0.113618 0.047017 -0.006763
v 0.113618 0.045939 -0.012079
v 0.113618 0.040677 0.024526
v 0.113618 0.043208 0.019729
v 0.113618 0.039210 -0.026814
v 0.113618 0.035898 -0.031109
v 0.113618 0.044264 -0.017236
v 0.113618 0.047326 0.004062
v 0.113618 0.047481 -0.001360
v 0.113618 0.045175 0.014675
v 0.113618 0.034064 0.033101
v 0.113618 0.037615 0.029003
v 0.113618 0.032118 -0.034998
v 0.113618 0.027920 -0.038431
v 0.113618 0.042011 -0.022170
v 0.113618 0.046554 0.009430
v 0.113618 0.018490 -0.043756
v 0.113618 0.013382 -0.045579
v 0.113618 0.023357 -0.041364
v 0.113618 0.025680 0.039956
v 0.113618 0.030068 0.036769
v 0.113618 0.011350 0.046121
v 0.113618 0.015962 0.044734
v 0.113618 0.020958 0.042623
v 0.113618 0.011350 -0.046127
v 0.067119 0.083000 -0.034000
v 0.067119 0.091404 -0.034000
v 0.067119 0.083000 0.011000
v 0.067119 0.091404 0.011000
v 0.064113 0.092647 -0.031000
v 0.064113 0.092647 0.008000
v 0.064113 0.083000 0.008000
v 0.064113 0.083000 -0.031000
v 0.070354 0.083000 -0.024122
v 0.070354 0.083000 0.001122
v 0.071128 0.083000 0.001000
v 0.071902 0.083000 0.001122
v 0.071902 0.083000 -0.024122
v 0.071128 0.083000 -0.024000
v 0.068745 0.083000 0.002727
v 0.069655 0.083000 0.005523
v 0.071902 0.083000 0.005878
v 0.071128 0.083000 0.006000
v 0.068745 0.083000 -0.025727
v 0.072600 0.083000 -0.024477
v 0.069101 0.083000 0.002031
v 0.069655 0.083000 0.001477
v 0.068623 0.083000 0.003500
v 0.069101 0.083000 0.004969
v 0.068745 0.083000 0.004273
v 0.070354 0.083000 0.005878
v 0.069101 0.083000 -0.025031
v 0.069655 0.083000 -0.024477
v 0.071128 0.083000 -0.029000
v 0.069101 0.083000 -0.027969
v 0.069655 0.083000 -0.028523
v 0.072600 0.083000 0.005523
v 0.073511 0.083000 0.002727
v 0.073633 0.083000 0.003500
v 0.073633 0.083000 -0.026500
v 0.073511 0.083000 -0.025727
v 0.070354 0.083000 -0.028878
v 0.068623 0.083000 -0.026500
v 0.068745 0.083000 -0.027273
v 0.073511 0.083000 0.004273
v 0.073155 0.083000 -0.025031
v 0.073155 0.083000 0.002031
v 0.072600 0.083000 0.001477
v 0.073511 0.083000 -0.027273
v 0.071902 0.083000 -0.028878
v 0.073155 0.083000 0.004969
v 0.073155 0.083000 -0.027969
v 0.072600 0.083000 -0.028523
v 0.073511 0.073000 -0.027273
v 0.073633 0.073000 -0.026500
v 0.073155 0.073000 -0.027969
v 0.072600 0.073000 -0.028523
v 0.071902 0.073000 -0.028878
v 0.071128 0.073000 -0.029000
v 0.070354 0.073000 -0.028878
v 0.069655 0.073000 -0.028523
v 0.069101 0.073000 -0.027969
v 0.068745 0.073000 -0.027273
v 0.068623 0.073000 -0.026500
v 0.068745 0.073000 -0.025727
v 0.069101 0.073000 -0.025031
v 0.069655 0.073000 -0.024477
v 0.070354 0.073000 -0.024122
v 0.071128 0.073000 -0.024000
v 0.071902 0.073000 -0.024122
v 0.072600 0.073000 -0.024477
v 0.073155 0.073000 -0.025031
v 0.073511 0.073000 -0.025727
v 0.073511 0.073000 0.002727
v 0.073633 0.073000 0.003500
v 0.073155 0.073000 0.002031
v 0.072600 0.073000 0.001477
v 0.071902 0.073000 0.001122
v 0.071128 0.073000 0.001000
v 0.070354 0.073000 0.001122
v 0.069655 0.073000 0.001477
v 0.069101 0.073000 0.002031
v 0.068745 0.073000 0.002727
v 0.068623 0.073000 0.003500
v 0.068745 0.073000 0.004273
v 0.069101 0.073000 0.004969
v 0.069655 0.073000 0.005523
v 0.070354 0.073000 0.005878
v 0.071128 0.073000 0.006000
v 0.071902 0.073000 0.005878
v 0.072600 0.073000 0.005523
v 0.073155 0.073000 0.004969
v 0.073511 0.073000 0.004273
v 0.098564 -0.049000 0.043201
v 0.113618 -0.011350 0.046121
v 0.113618 -0.049500 0.046121
v 0.098564 -0.049500 0.043201
v 0.113618 -0.005415 0.047187
v 0.113618 0.000000 0.047497
v 0.113618 0.005415 0.047187
v 0.113618 0.010759 0.046262
v 0.113618 -0.010759 0.046262
v 0.102512 -0.049500 0.041569
v 0.113618 -0.049500 0.030486
v 0.082889 -0.049000 0.049680
v 0.082889 -0.071000 0.049680
v 0.102512 -0.071000 0.041569
v 0.034690 -0.049000 0.059247
v 0.034690 -0.071000 0.059247
v -0.014414 -0.049000 0.059247
v -0.014414 -0.071000 0.059247
v -0.031522 -0.049000 0.052176
v -0.031522 -0.071000 0.052176
v -0.050420 -0.049000 0.033318
v -0.050420 -0.071000 0.033318
v -0.057506 -0.049000 0.016247
v -0.057506 -0.071000 0.016247
v -0.057506 -0.049000 -0.016253
v -0.057506 -0.071000 -0.016253
v -0.050420 -0.049000 -0.033324
v -0.050420 -0.071000 -0.033324
v -0.031522 -0.071000 -0.052182
v -0.031522 -0.049000 -0.052182
v -0.014414 -0.049000 -0.059253
v -0.014414 -0.071000 -0.059253
v 0.034690 -0.049000 -0.059253
v 0.034690 -0.071000 -0.059253
v 0.082889 -0.049000 -0.049686
v 0.082889 -0.071000 -0.049686
v -0.032419 -0.049000 0.003453
v -0.032573 -0.049000 -0.001153
v 0.026833 -0.049000 0.023984
v 0.023408 -0.049000 0.027076
v -0.024421 -0.049000 -0.022274
v -0.021211 -0.049000 -0.025587
v -0.031040 -0.049000 -0.010222
v -0.029380 -0.049000 -0.014522
v -0.031651 -0.049000 0.007998
v -0.028338 -0.049000 0.016580
v -0.030282 -0.049000 0.012400
v 0.029815 -0.049000 0.020465
v 0.028383 -0.049000 -0.022274
v 0.031123 -0.049000 -0.018564
v -0.013612 -0.049000 -0.030792
v -0.027161 -0.049000 -0.018564
v -0.032111 -0.049000 -0.005738
v 0.019600 -0.049000 0.029684
v 0.032300 -0.049000 0.016580
v 0.033342 -0.049000 -0.014522
v 0.035002 -0.049000 -0.010222
v 0.025172 -0.049000 -0.025587
v 0.017574 -0.049000 -0.030792
v -0.017586 -0.049000 -0.028443
v -0.019446 -0.049000 0.027076
v -0.022871 -0.049000 0.023984
v 0.035613 -0.049000 0.007998
v 0.034244 -0.049000 0.012400
v 0.013322 -0.049000 -0.032591
v -0.015638 -0.049000 0.029684
v -0.011516 -0.049000 0.031762
v -0.002627 -0.049000 0.034192
v -0.007153 -0.049000 0.033274
v 0.015478 -0.049000 0.031762
v 0.011115 -0.049000 0.033274
v 0.021548 -0.049000 -0.028443
v 0.008868 -0.049000 -0.033809
v -0.000328 -0.049000 -0.034423
v 0.004290 -0.049000 -0.034423
v -0.009360 -0.049000 -0.032591
v -0.004906 -0.049000 -0.033809
v -0.025853 -0.049000 0.020465
v 0.001981 -0.049000 0.034500
v 0.036535 -0.049000 -0.001153
v 0.036381 -0.049000 0.003453
v 0.036073 -0.049000 -0.005738
v 0.006589 -0.049000 0.034192
v 0.098564 -0.049000 -0.043207
v 0.001983 -0.046500 0.034442
v -0.001480 -0.046500 0.034327
v -0.002618 -0.046500 0.034135
v -0.006034 -0.046500 0.033560
v -0.007136 -0.046500 0.033219
v -0.010445 -0.046500 0.032195
v -0.011492 -0.046500 0.031710
v -0.014635 -0.046500 0.030255
v -0.015607 -0.046500 0.029635
v -0.018527 -0.046500 0.027775
v -0.019409 -0.046500 0.027031
v -0.022054 -0.046500 0.024799
v -0.022829 -0.046500 0.023945
v -0.025152 -0.046500 0.021381
v -0.025805 -0.046500 0.020432
v -0.027766 -0.046500 0.017582
v -0.028287 -0.046500 0.016554
v -0.029849 -0.046500 0.013468
v -0.030228 -0.046500 0.012381
v -0.031364 -0.046500 0.009115
v -0.031594 -0.046500 0.007986
v -0.032284 -0.046500 0.004598
v -0.032361 -0.046500 0.003449
v -0.032593 -0.046500 0.000000
v -0.032516 -0.046500 -0.001149
v -0.032284 -0.046500 -0.004598
v -0.032054 -0.046500 -0.005727
v -0.031364 -0.046500 -0.009115
v -0.030986 -0.046500 -0.010203
v -0.029849 -0.046500 -0.013468
v -0.029329 -0.046500 -0.014496
v -0.027766 -0.046500 -0.017582
v -0.027113 -0.046500 -0.018531
v -0.025152 -0.046500 -0.021381
v -0.024378 -0.046500 -0.022235
v -0.022054 -0.046500 -0.024799
v -0.021173 -0.046500 -0.025543
v -0.018527 -0.046500 -0.027775
v -0.017555 -0.046500 -0.028395
v -0.014635 -0.046500 -0.030255
v -0.013588 -0.046500 -0.030740
v -0.010445 -0.046500 -0.032195
v -0.009343 -0.046500 -0.032536
v -0.006034 -0.046500 -0.033560
v -0.004896 -0.046500 -0.033752
v -0.001480 -0.046500 -0.034327
v -0.000326 -0.046500 -0.034365
v 0.003136 -0.046500 -0.034481
v 0.004284 -0.046500 -0.034365
v 0.007731 -0.046500 -0.034019
v 0.008854 -0.046500 -0.033752
v 0.012224 -0.046500 -0.032951
v 0.013301 -0.046500 -0.032537
v 0.016534 -0.046500 -0.031295
v 0.017546 -0.046500 -0.030741
v 0.020584 -0.046500 -0.029080
v 0.021513 -0.046500 -0.028397
v 0.024302 -0.046500 -0.026346
v 0.025132 -0.046500 -0.025545
v 0.027622 -0.046500 -0.023142
v 0.028338 -0.046500 -0.022238
v 0.030485 -0.046500 -0.019525
v 0.031073 -0.046500 -0.018534
v 0.032838 -0.046500 -0.015560
v 0.033289 -0.046500 -0.014500
v 0.034641 -0.046500 -0.011317
v 0.034946 -0.046500 -0.010206
v 0.035862 -0.046500 -0.006872
v 0.036015 -0.046500 -0.005731
v 0.036477 -0.046500 -0.002304
v 0.036477 -0.046500 -0.001153
v 0.036477 -0.046500 0.002304
v 0.036323 -0.046500 0.003446
v 0.035862 -0.046500 0.006872
v 0.035557 -0.046500 0.007983
v 0.034641 -0.046500 0.011317
v 0.034191 -0.046500 0.012377
v 0.032838 -0.046500 0.015560
v 0.032250 -0.046500 0.016551
v 0.030485 -0.046500 0.019525
v 0.029769 -0.046500 0.020429
v 0.027622 -0.046500 0.023142
v 0.026793 -0.046500 0.023943
v 0.024302 -0.046500 0.026346
v 0.023373 -0.046500 0.027029
v 0.020584 -0.046500 0.029080
v 0.019572 -0.046500 0.029633
v 0.016534 -0.046500 0.031295
v 0.015457 -0.046500 0.031708
v 0.012224 -0.046500 0.032951
v 0.011102 -0.046500 0.033218
v 0.007731 -0.046500 0.034019
v 0.006583 -0.046500 0.034135
v 0.003136 -0.046500 0.034481
v 0.113618 -0.011350 -0.046127
v 0.113618 -0.049500 -0.046127
v 0.098564 -0.049500 -0.043207
v 0.113618 -0.008100 -0.046808
v 0.113618 0.008100 -0.046808
v 0.113618 0.002712 -0.047426
v 0.113618 -0.002712 -0.047426
v 0.102512 -0.071000 -0.041575
v 0.102512 -0.049500 -0.041575
v 0.113618 -0.049500 -0.030493
v 0.113618 -0.049000 0.030486
v 0.113618 -0.040677 0.024526
v 0.113618 -0.037615 0.029003
v 0.113618 -0.049000 -0.030493
v 0.113618 -0.045939 -0.012079
v 0.113618 -0.047017 -0.006763
v 0.113618 -0.043208 0.019729
v 0.113618 -0.047326 0.004062
v 0.113618 -0.046554 0.009430
v 0.113618 -0.047481 -0.001360
v 0.113618 -0.044264 -0.017236
v 0.113618 -0.045175 0.014675
v 0.113618 -0.042011 -0.022170
v 0.113618 -0.035898 -0.031109
v 0.113618 -0.039210 -0.026814
v 0.113618 -0.018490 -0.043756
v 0.113618 -0.023357 -0.041364
v 0.113618 -0.027920 -0.038431
v 0.113618 -0.032118 -0.034998
v 0.113618 -0.034064 0.033101
v 0.113618 -0.030068 0.036769
v 0.113618 -0.013382 -0.045579
v 0.113618 -0.025680 0.039956
v 0.113618 -0.020958 0.042623
v 0.113618 -0.015962 0.044734
v 0.115791 -0.049000 -0.028324
v 0.115791 -0.071000 -0.028324
v 0.115791 -0.071000 0.028318
v 0.115791 -0.049000 0.028318
v 0.122877 -0.049000 0.011247
v 0.122877 -0.049000 -0.011253
v 0.122877 -0.071000 0.011247
v 0.122877 -0.071000 -0.011253
v 0.124642 -0.005415 0.047187
v 0.124642 0.000000 0.047497
v 0.124642 -0.010759 0.046262
v 0.124642 -0.015962 0.044734
v 0.124642 -0.020958 0.042623
v 0.124642 -0.025680 0.039956
v 0.124642 -0.030068 0.036769
v 0.124642 -0.034064 0.033101
v 0.124642 -0.037615 0.029003
v 0.124642 -0.040677 0.024526
v 0.124642 -0.043208 0.019729
v 0.124642 -0.045175 0.014675
v 0.124642 -0.046554 0.009430
v 0.124642 -0.047326 0.004062
v 0.124642 -0.047481 -0.001360
v 0.124642 -0.047017 -0.006763
v 0.124642 -0.045939 -0.012079
v 0.124642 -0.044264 -0.017236
v 0.124642 -0.042011 -0.022170
v 0.124642 -0.039210 -0.026814
v 0.124642 -0.035898 -0.031109
v 0.124642 -0.032118 -0.034998
v 0.124642 -0.027920 -0.038431
v 0.124642 -0.023357 -0.041364
v 0.124642 -0.018490 -0.043756
v 0.124642 -0.013382 -0.045579
v 0.124642 -0.008100 -0.046808
v 0.124642 -0.002712 -0.047426
v 0.124642 0.002712 -0.047426
v 0.124642 0.008100 -0.046808
v 0.124642 0.013382 -0.045579
v 0.124642 0.018490 -0.043756
v 0.124642 0.023357 -0.041364
v 0.124642 0.027920 -0.038431
v 0.124642 0.032118 -0.034998
v 0.124642 0.035898 -0.031109
v 0.124642 0.039210 -0.026814
v 0.124642 0.042011 -0.022170
v 0.124642 0.044264 -0.017236
v 0.124642 0.045939 -0.012079
v 0.124642 0.047017 -0.006763
v 0.124642 0.047481 -0.001360
v 0.124642 0.047326 0.004062
v 0.124642 0.046554 0.009430
v 0.124642 0.045175 0.014675
v 0.124642 0.043208 0.019729
v 0.124642 0.040677 0.024526
v 0.124642 0.037615 0.029003
v 0.124642 0.034064 0.033101
v 0.124642 0.030068 0.036769
v 0.124642 0.025680 0.039956
v 0.124642 0.020958 0.042623
v 0.124642 0.015962 0.044734
v 0.124642 0.010759 0.046262
v 0.124642 0.005415 0.047187
v 0.124642 -0.037327 -0.003604
v 0.124642 0.035193 -0.012954
v 0.124642 0.033247 -0.017348
v 0.124642 0.036560 -0.008348
v 0.124642 -0.014073 0.034756
v 0.124642 -0.009512 0.036270
v 0.124642 -0.018402 0.032671
v 0.124642 -0.037481 0.001199
v 0.124642 -0.036560 -0.008348
v 0.124642 0.037327 -0.003604
v 0.124642 0.037481 0.001199
v 0.124642 0.037019 0.005982
v 0.124642 0.035950 0.010667
v 0.124642 0.034290 0.015176
v 0.124642 0.032068 0.019437
v 0.124642 0.014073 0.034756
v 0.124642 0.009512 0.036270
v 0.124642 0.000000 0.037497
v 0.124642 -0.004795 0.037189
v 0.124642 -0.035193 -0.012954
v 0.124642 -0.033247 -0.017348
v 0.124642 -0.030756 -0.021458
v 0.124642 0.018402 0.032671
v 0.124642 0.022429 0.030050
v 0.124642 0.004795 0.037189
v 0.124642 -0.029319 0.023378
v 0.124642 -0.032068 0.019437
v 0.124642 -0.034290 0.015176
v 0.124642 -0.035950 0.010667
v 0.124642 -0.037019 0.005982
v 0.124642 -0.016271 -0.033789
v 0.124642 0.020458 -0.031431
v 0.124642 0.016271 -0.033789
v 0.124642 0.029319 0.023378
v 0.124642 0.026088 0.026935
v 0.124642 -0.022429 0.030050
v 0.124642 -0.027760 -0.025214
v 0.124642 -0.024309 -0.028557
v 0.124642 -0.020458 -0.031431
v 0.124642 0.024309 -0.028557
v 0.124642 0.030756 -0.021458
v 0.124642 -0.026088 0.026935
v 0.124642 0.027760 -0.025214
v 0.124642 -0.011817 -0.035593
v 0.124642 -0.007168 -0.036812
v 0.124642 0.011817 -0.035593
v 0.124642 0.007168 -0.036812
v 0.124642 -0.002403 -0.037426
v 0.124642 0.000000 -0.037503
v 0.124642 0.002403 -0.037426
v 0.148292 -0.004795 0.037189
v 0.148292 0.000000 0.037497
v 0.148292 -0.009512 0.036270
v 0.148292 -0.014073 0.034756
v 0.148292 -0.018402 0.032671
v 0.148292 -0.022429 0.030050
v 0.148292 -0.026088 0.026935
v 0.148292 -0.029319 0.023378
v 0.148292 -0.032068 0.019437
v 0.148292 -0.034290 0.015176
v 0.148292 -0.035950 0.010667
v 0.148292 -0.037019 0.005982
v 0.148292 -0.037481 0.001199
v 0.148292 -0.037327 -0.003604
v 0.148292 -0.036560 -0.008348
v 0.148292 -0.035193 -0.012954
v 0.148292 -0.033247 -0.017348
v 0.148292 -0.030756 -0.021458
v 0.148292 -0.027760 -0.025214
v 0.148292 -0.024309 -0.028557
v 0.148292 -0.020458 -0.031431
v 0.148292 -0.016271 -0.033789
v 0.148292 -0.011817 -0.035593
v 0.148292 -0.007168 -0.036812
v 0.148292 -0.002403 -0.037426
v 0.148292 0.002403 -0.037426
v 0.148292 0.000000 -0.037503
v 0.148292 0.007168 -0.036812
v 0.148292 0.011817 -0.035593
v 0.148292 0.016271 -0.033789
v 0.148292 0.020458 -0.031431
v 0.148292 0.024309 -0.028557
v 0.148292 0.027760 -0.025214
v 0.148292 0.030756 -0.021458
v 0.148292 0.033247 -0.017348
v 0.148292 0.035193 -0.012954
v 0.148292 0.036560 -0.008348
v 0.148292 0.037327 -0.003604
v 0.148292 0.037481 0.001199
v 0.148292 0.037019 0.005982
v 0.148292 0.035950 0.010667
v 0.148292 0.034290 0.015176
v 0.148292 0.032068 0.019437
v 0.148292 0.029319 0.023378
v 0.148292 0.026088 0.026935
v 0.148292 0.022429 0.030050
v 0.148292 0.018402 0.032671
v 0.148292 0.014073 0.034756
v 0.148292 0.009512 0.036270
v 0.148292 0.004795 0.037189
v 0.101209 -0.071000 0.040159
v 0.081586 -0.071000 0.048269
v 0.033387 -0.071000 0.057836
v -0.012711 -0.071000 0.057836
v -0.029818 -0.071000 0.050765
v -0.048716 -0.071000 0.031907
v 0.081586 -0.071000 -0.048097
v 0.033387 -0.071000 -0.057664
v 0.101209 -0.071000 -0.039986
v 0.121574 -0.071000 -0.009664
v 0.114488 -0.071000 -0.026735
v 0.121574 -0.071000 0.009836
v -0.055803 -0.071000 -0.014664
v -0.048716 -0.071000 -0.031735
v 0.114488 -0.071000 0.026907
v -0.055803 -0.071000 0.014836
v -0.012711 -0.071000 -0.057664
v -0.029818 -0.071000 -0.050593
v -0.055803 -0.084622 -0.014664
v -0.055803 -0.084622 0.014836
v 0.121574 -0.083282 0.009836
v 0.121574 -0.083282 -0.009664
v 0.114488 -0.085177 0.026907
v 0.114488 -0.085177 -0.026735
v 0.101209 -0.083419 -0.039986
v 0.081586 -0.081245 -0.048097
v 0.033387 -0.081608 -0.057664
v 0.113798 -0.085361 -0.027423
v 0.102126 -0.083815 -0.039071
v 0.055550 -0.089934 -0.037839
v 0.007586 -0.084622 -0.057664
v -0.012711 -0.084622 -0.057664
v 0.081586 -0.081245 0.048269
v 0.101209 -0.083419 0.040159
v 0.033387 -0.081608 0.057836
v 0.102126 -0.083815 0.039244
v 0.113798 -0.085361 0.027595
v 0.100849 -0.088824 0.020414
v 0.100849 -0.088824 -0.020241
v 0.055550 -0.089934 0.038011
v 0.007586 -0.084622 0.057836
v -0.012711 -0.084622 0.057836
v 0.077957 -0.091831 -0.019635
v 0.054920 -0.091954 -0.030301
v 0.077957 -0.091831 0.019808
v 0.054920 -0.091954 0.030473
v 0.061447 -0.094000 0.011713
v 0.061447 -0.094000 -0.011540
v 0.039343 -0.094000 -0.022664
v 0.039343 -0.094000 0.022836
v -0.005734 -0.094000 -0.022664
v -0.029818 -0.084622 -0.050593
v -0.005734 -0.094000 0.022836
v -0.029818 -0.084622 0.050765
v -0.048716 -0.084622 -0.031735
v -0.009950 -0.094000 -0.020921
v -0.048716 -0.084622 0.031907
v -0.009950 -0.094000 0.021094
v -0.020728 -0.094000 0.007874
v -0.018982 -0.094000 0.012081
v -0.020728 -0.094000 -0.007702
v -0.018982 -0.094000 -0.011909
vn -0.0000 -1.0000 -0.0000
vn -0.0550 0.0141 -0.9984
vn 0.0275 -0.0143 -0.9995
vn -0.1641 0.0142 -0.9863
vn -0.0824 -0.0140 -0.9965
vn -0.2715 0.0140 -0.9623
vn -0.1914 -0.0143 -0.9814
vn -0.3757 0.0140 -0.9266
vn -0.2983 -0.0142 -0.9544
vn -0.4751 0.0142 -0.8798
vn -0.4012 -0.0140 -0.9159
vn -0.5689 0.0141 -0.8223
vn -0.4991 -0.0142 -0.8664
vn -0.6559 0.0142 -0.7547
vn -0.5914 -0.0141 -0.8062
vn -0.7349 0.0142 -0.6780
vn -0.6763 -0.0142 -0.7365
vn -0.8051 0.0141 -0.5930
vn -0.7532 -0.0143 -0.6577
vn -0.8655 0.0141 -0.5007
vn -0.8210 -0.0143 -0.5708
vn -0.9154 0.0142 -0.4024
vn -0.8790 -0.0141 -0.4767
vn -0.9541 0.0142 -0.2990
vn -0.9261 -0.0142 -0.3770
vn -0.9813 0.0142 -0.1921
vn -0.9621 -0.0141 -0.2725
vn -0.9965 0.0142 -0.0828
vn -0.9862 -0.0142 -0.1649
vn -0.9995 0.0141 0.0276
vn -0.9984 -0.0142 -0.0552
vn -0.9904 0.0142 0.1376
vn -0.9984 -0.0141 0.0553
vn -0.9692 0.0142 0.2459
vn -0.9862 -0.0142 0.1649
vn -0.9362 0.0141 0.3513
vn -0.9620 -0.0142 0.2726
vn -0.8918 0.0142 0.4522
vn -0.9262 -0.0141 0.3769
vn -0.8366 0.0142 0.5477
vn -0.8789 -0.0142 0.4767
vn -0.7712 0.0142 0.6365
vn -0.8211 -0.0141 0.5706
vn -0.6965 0.0142 0.7174
vn -0.7535 -0.0142 0.6573
vn -0.6134 0.0141 0.7897
vn -0.6766 -0.0143 0.7362
vn -0.5228 0.0141 0.8523
vn -0.5914 -0.0143 0.8062
vn -0.4259 0.0141 0.9047
vn -0.4991 -0.0142 0.8664
vn -0.3241 0.0141 0.9459
vn -0.4007 -0.0140 0.9161
vn -0.2183 0.0141 0.9758
vn -0.2976 -0.0141 0.9546
vn -0.1097 0.0141 0.9939
vn -0.1914 -0.0143 0.9814
vn -0.0000 0.0140 0.9999
vn -0.0823 -0.0143 0.9965
vn 0.1097 0.0141 0.9939
vn 0.0275 -0.0143 0.9995
vn 0.2182 0.0141 0.9758
vn 0.1365 -0.0144 0.9905
vn 0.3241 0.0142 0.9459
vn 0.2451 -0.0142 0.9694
vn 0.4259 0.0141 0.9047
vn 0.3504 -0.0140 0.9365
vn 0.5228 0.0140 0.8523
vn 0.4511 -0.0141 0.8923
vn 0.6133 0.0141 0.7897
vn 0.5459 -0.0143 0.8377
vn 0.6965 0.0141 0.7174
vn 0.6345 -0.0143 0.7728
vn 0.7712 0.0142 0.6365
vn 0.7159 -0.0142 0.6981
vn 0.8365 0.0142 0.5477
vn 0.7884 -0.0142 0.6150
vn 0.8918 0.0141 0.4522
vn 0.8514 -0.0142 0.5244
vn 0.9362 0.0142 0.3513
vn 0.9039 -0.0142 0.4275
vn 0.9692 0.0141 0.2459
vn 0.9455 -0.0143 0.3253
vn 0.9904 0.0142 0.1376
vn 0.9756 -0.0142 0.2192
vn 0.9991 0.0095 0.0414
vn 0.9938 -0.0142 0.1103
vn 0.9998 -0.0142 -0.0138
vn 0.9965 0.0141 -0.0827
vn 0.9999 -0.0142 -0.0000
vn 0.9813 0.0142 -0.1921
vn 0.9938 -0.0142 -0.1102
vn 0.9541 0.0142 -0.2990
vn 0.9756 -0.0142 -0.2192
vn 0.9154 0.0142 -0.4024
vn 0.9455 -0.0142 -0.3253
vn 0.8655 0.0141 -0.5007
vn 0.9039 -0.0142 -0.4276
vn 0.8051 0.0141 -0.5930
vn 0.8513 -0.0143 -0.5245
vn 0.7349 0.0142 -0.6781
vn 0.7885 -0.0142 -0.6149
vn 0.6560 0.0142 -0.7546
vn 0.7162 -0.0142 -0.6977
vn 0.5689 0.0141 -0.8223
vn 0.6351 -0.0143 -0.7723
vn 0.4750 0.0141 -0.8798
vn 0.5458 -0.0141 -0.8378
vn 0.3757 0.0141 -0.9266
vn 0.4505 -0.0141 -0.8927
vn 0.2715 0.0141 -0.9623
vn 0.3498 -0.0142 -0.9367
vn 0.1641 0.0142 -0.9863
vn 0.2449 -0.0142 -0.9694
vn 0.0551 0.0142 -0.9984
vn 0.1371 -0.0141 -0.9905
vn 0.0274 -0.0143 -0.9995
vn 0.1369 -0.0141 -0.9905
vn 0.2450 -0.0142 -0.9694
vn 0.3501 -0.0142 -0.9366
vn 0.4508 -0.0141 -0.8925
vn 0.5461 -0.0141 -0.8376
vn 0.6347 -0.0143 -0.7726
vn 0.7159 -0.0142 -0.6981
vn 0.8513 -0.0142 -0.5244
vn 0.9039 -0.0142 -0.4275
vn 0.9455 -0.0142 -0.3252
vn 0.9756 -0.0142 -0.2191
vn 0.9998 -0.0189 -0.0000
vn 0.9938 -0.0142 0.1102
vn 0.9756 -0.0142 0.2191
vn 0.8513 -0.0142 0.5244
vn 0.7885 -0.0142 0.6149
vn 0.7160 -0.0142 0.6980
vn 0.6349 -0.0143 0.7725
vn 0.5460 -0.0143 0.8376
vn 0.4506 -0.0141 0.8926
vn 0.3499 -0.0140 0.9367
vn 0.2450 -0.0142 0.9694
vn 0.1371 -0.0144 0.9904
vn 0.0274 -0.0143 0.9995
vn -0.1913 -0.0143 0.9814
vn -0.2980 -0.0141 0.9544
vn -0.4010 -0.0140 0.9160
vn -0.5913 -0.0143 0.8064
vn -0.6764 -0.0143 0.7364
vn -0.7533 -0.0142 0.6575
vn -0.8211 -0.0141 0.5705
vn -0.8790 -0.0142 0.4767
vn -0.9261 -0.0141 0.3770
vn -0.9984 -0.0142 0.0552
vn -0.9620 -0.0141 -0.2727
vn -0.8790 -0.0142 -0.4767
vn -0.8212 -0.0143 -0.5705
vn -0.7534 -0.0142 -0.6574
vn -0.6765 -0.0142 -0.7363
vn -0.5913 -0.0141 -0.8064
vn -0.4992 -0.0142 -0.8664
vn -0.4008 -0.0140 -0.9160
vn -0.2978 -0.0142 -0.9545
vn -0.1913 -0.0143 -0.9814
vn -0.0823 -0.0140 -0.9965
vn -0.3820 -0.0000 0.9242
vn -0.7064 -0.0000 0.7079
vn -0.9236 -0.0000 -0.3834
vn -1.0000 -0.0000 -0.0000
vn -0.9236 -0.0000 0.3834
vn -0.7064 -0.0000 -0.7079
vn -0.7064 -0.0000 -0.7078
vn -0.3820 -0.0000 -0.9242
vn -0.3414 0.9399 -0.0000
vn -0.1910 0.8661 0.4620
vn -0.1909 0.8661 0.4620
vn -0.0000 -0.0000 1.0000
vn -0.1909 0.8661 -0.4620
vn -0.1910 0.8661 -0.4620
vn -0.0000 -0.0000 -1.0000
vn -0.0000 0.8660 -0.5000
vn 0.4060 -0.0000 -0.9139
vn 0.2030 0.8661 -0.4568
vn 0.2029 0.8661 -0.4568
vn -0.0000 1.0000 -0.0000
vn 0.2030 0.8661 0.4568
vn 0.2029 0.8661 0.4568
vn -0.0000 0.8660 0.5000
vn 0.4060 -0.0000 0.9139
vn -0.3823 -0.4227 -0.8217
vn -0.3823 -0.4227 0.8217
vn -0.3823 -0.4227 0.8216
vn -0.7654 -0.6436 -0.0000
vn -0.9762 0.2169 -0.0000
vn -0.8033 0.5956 -0.0000
vn -0.4219 -0.0000 -0.9066
vn -0.4219 -0.0000 -0.9067
vn -0.4219 -0.0000 0.9067
vn -0.4218 -0.0000 0.9067
vn 0.2069 -0.0000 0.9784
vn 0.2075 -0.0000 0.9782
vn 0.2076 -0.0000 0.9782
vn 0.2071 -0.0000 0.9783
vn 0.2075 -0.0000 -0.9782
vn 0.2077 -0.0000 -0.9782
vn 0.2076 -0.0000 -0.9782
vn 0.7064 0.7079 -0.0000
vn 0.7064 0.7078 -0.0000
vn 1.0000 0.0001 -0.0000
vn 1.0000 -0.0000 -0.0000
vn 1.0000 -0.0001 -0.0000
vn 0.3820 0.9242 -0.0000
vn 0.7064 -0.0000 0.7078
vn 0.7063 -0.0000 0.7079
vn 0.7063 -0.0000 -0.7079
vn 0.7064 -0.0000 -0.7078
vn -0.9877 -0.0000 0.1561
vn -0.8904 -0.0000 0.4552
vn -0.7064 -0.0000 0.7078
vn -0.4534 -0.0000 0.8913
vn -0.1558 -0.0000 0.9878
vn 0.1558 -0.0000 0.9878
vn 0.4530 -0.0000 0.8915
vn 0.7069 -0.0000 0.7073
vn 0.8904 -0.0000 0.4552
vn 0.9876 -0.0000 0.1567
vn 0.9876 -0.0000 -0.1567
vn 0.8904 -0.0000 -0.4552
vn 0.7069 -0.0000 -0.7073
vn 0.4532 -0.0000 -0.8914
vn 0.1558 -0.0000 -0.9878
vn -0.1555 -0.0000 -0.9878
vn -0.4532 -0.0000 -0.8914
vn -0.7063 -0.0000 -0.7079
vn -0.8905 -0.0000 -0.4551
vn -0.9877 -0.0000 -0.1561
vn -0.4534 -0.0000 -0.8913
vn -0.1558 -0.0000 -0.9878
vn 0.1555 -0.0000 -0.9878
vn 0.4530 -0.0000 -0.8915
vn 0.8903 -0.0000 0.4553
vn 0.7071 -0.0000 0.7071
vn 0.4532 -0.0000 0.8914
vn -0.4532 -0.0000 0.8914
vn -0.7063 -0.0000 0.7079
vn -0.8905 -0.0000 0.4551
vn -0.9877 -0.0000 0.1562
vn -0.1904 -0.0000 0.9817
vn 0.3820 -0.0000 0.9242
vn 0.1947 -0.0000 0.9809
vn 0.1947 -0.0000 -0.9809
vn -0.0331 0.0232 0.9992
vn -0.0667 -0.0233 0.9975
vn -0.1660 0.0231 0.9859
vn -0.1987 -0.0231 0.9798
vn -0.2956 0.0230 0.9550
vn -0.3274 -0.0233 0.9446
vn -0.4200 0.0230 0.9072
vn -0.4500 -0.0232 0.8927
vn -0.5371 0.0233 0.8432
vn -0.5649 -0.0231 0.8248
vn -0.6446 0.0234 0.7641
vn -0.6699 -0.0230 0.7421
vn -0.7408 0.0232 0.6714
vn -0.7627 -0.0230 0.6463
vn -0.8236 0.0232 0.5667
vn -0.8422 -0.0232 0.5387
vn -0.8919 0.0230 0.4516
vn -0.9065 -0.0230 0.4216
vn -0.9442 0.0232 0.3286
vn -0.9547 -0.0232 0.2968
vn -0.9796 0.0232 0.1995
vn -0.9858 -0.0231 0.1666
vn -0.9975 0.0232 0.0669
vn -0.9992 -0.0232 0.0335
vn -0.9975 0.0231 -0.0669
vn -0.9947 -0.0232 -0.1003
vn -0.9796 0.0231 -0.1995
vn -0.9724 -0.0232 -0.2322
vn -0.9442 0.0231 -0.3286
vn -0.9327 -0.0231 -0.3600
vn -0.8919 0.0232 -0.4516
vn -0.8763 -0.0232 -0.4812
vn -0.8237 0.0232 -0.5666
vn -0.8042 -0.0231 -0.5939
vn -0.7407 0.0231 -0.6714
vn -0.7179 -0.0230 -0.6957
vn -0.6446 0.0231 -0.7642
vn -0.6187 -0.0232 -0.7853
vn -0.5370 0.0229 -0.8433
vn -0.5088 -0.0231 -0.8606
vn -0.4200 0.0230 -0.9073
vn -0.3896 -0.0232 -0.9207
vn -0.2955 0.0230 -0.9551
vn -0.2638 -0.0230 -0.9643
vn -0.1659 0.0231 -0.9859
vn -0.1330 -0.0231 -0.9909
vn -0.0334 0.0232 -0.9992
vn -0.0000 -0.0232 -0.9997
vn 0.0999 0.0233 -0.9947
vn 0.1329 -0.0228 -0.9909
vn 0.2312 0.0234 -0.9726
vn 0.2637 -0.0231 -0.9643
vn 0.3586 0.0231 -0.9332
vn 0.3895 -0.0232 -0.9207
vn 0.4795 0.0233 -0.8772
vn 0.5087 -0.0233 -0.8606
vn 0.5922 0.0229 -0.8055
vn 0.6188 -0.0232 -0.7852
vn 0.6942 0.0232 -0.7194
vn 0.7179 -0.0232 -0.6958
vn 0.7839 0.0232 -0.6204
vn 0.8042 -0.0231 -0.5939
vn 0.8596 0.0232 -0.5104
vn 0.8763 -0.0233 -0.4812
vn 0.9201 0.0230 -0.3910
vn 0.9326 -0.0231 -0.3601
vn 0.9641 0.0233 -0.2647
vn 0.9724 -0.0232 -0.2322
vn 0.9908 0.0230 -0.1335
vn 0.9947 -0.0231 -0.1003
vn 0.9997 0.0231 -0.0000
vn 0.9992 -0.0232 0.0335
vn 0.9908 0.0230 0.1335
vn 0.9858 -0.0232 0.1666
vn 0.9641 0.0231 0.2647
vn 0.9547 -0.0232 0.2967
vn 0.9201 0.0232 0.3910
vn 0.9065 -0.0231 0.4216
vn 0.8597 0.0231 0.5103
vn 0.8422 -0.0230 0.5387
vn 0.7839 0.0231 0.6204
vn 0.7627 -0.0232 0.6463
vn 0.6941 0.0230 0.7195
vn 0.6699 -0.0231 0.7421
vn 0.5923 0.0233 0.8054
vn 0.5649 -0.0231 0.8248
vn 0.4797 0.0232 0.8771
vn 0.4501 -0.0233 0.8927
vn 0.3587 0.0232 0.9332
vn 0.3273 -0.0232 0.9446
vn 0.2311 0.0230 0.9727
vn 0.1987 -0.0230 0.9798
vn 0.0998 0.0229 0.9947
vn 0.0666 -0.0233 0.9975
vn -0.0338 0.0232 0.9992
vn 0.1007 0.0229 0.9947
vn 0.2315 0.0230 0.9726
vn 0.3582 0.0232 0.9334
vn 0.4795 0.0233 0.8773
vn 0.5921 0.0233 0.8055
vn 0.6946 0.0229 0.7190
vn 0.7840 0.0232 0.6203
vn 0.8598 0.0231 0.5102
vn 0.9201 0.0232 0.3909
vn 0.9641 0.0231 0.2646
vn 0.9908 0.0231 0.1335
vn 0.9997 0.0230 -0.0000
vn 0.9908 0.0231 -0.1336
vn 0.9641 0.0232 -0.2645
vn 0.8597 0.0233 -0.5102
vn 0.7842 0.0232 -0.6201
vn 0.6945 0.0233 -0.7192
vn 0.5923 0.0230 -0.8054
vn 0.4800 0.0232 -0.8770
vn 0.3588 0.0231 -0.9331
vn 0.2313 0.0234 -0.9726
vn 0.1003 0.0233 -0.9947
vn -0.0330 0.0232 -0.9992
vn -0.1662 0.0231 -0.9858
vn -0.4204 0.0230 -0.9071
vn -0.5374 0.0229 -0.8430
vn -0.6450 0.0231 -0.7638
vn -0.7408 0.0231 -0.6713
vn -0.8235 0.0232 -0.5669
vn -0.9796 0.0232 0.1994
vn -0.9441 0.0231 0.3288
vn -0.8919 0.0231 0.4516
vn -0.7407 0.0232 0.6715
vn -0.6451 0.0235 0.7638
vn -0.5374 0.0233 0.8430
vn -0.4201 0.0230 0.9072
vn -0.2954 0.0230 0.9551
vn -0.1663 0.0231 0.9858
vn -0.1904 -0.0000 -0.9817
vn 0.3820 -0.0000 -0.9242
vn 0.3821 -0.0000 -0.9241
vn 1.0000 -0.0003 -0.0000
vn 0.7065 -0.0000 -0.7077
vn 0.7064 -0.0000 -0.7079
vn 0.7064 -0.0000 0.7079
vn 0.9236 -0.0000 0.3834
vn 0.9236 -0.0000 -0.3834
vn -0.0000 -0.0572 0.9984
vn -0.0000 -0.1705 0.9854
vn 0.0028 -0.2818 0.9595
vn -0.0000 -0.2319 0.9727
vn -0.0000 -0.3892 0.9211
vn -0.0000 -0.4917 0.8707
vn -0.0000 -0.5877 0.8091
vn -0.0000 -0.6763 0.7367
vn -0.0000 -0.7557 0.6549
vn -0.0000 -0.8255 0.5644
vn -0.0000 -0.8845 0.4666
vn -0.0000 -0.9319 0.3628
vn -0.0000 -0.9671 0.2542
vn -0.0000 -0.9898 0.1423
vn -0.0000 -0.9996 0.0286
vn -0.0000 -0.9963 -0.0856
vn -0.0000 -0.9801 -0.1986
vn -0.0000 -0.9510 -0.3091
vn -0.0000 -0.9097 -0.4154
vn -0.0000 -0.8563 -0.5164
vn -0.0000 -0.7919 -0.6106
vn -0.0000 -0.7171 -0.6970
vn -0.0000 -0.6330 -0.7742
vn -0.0000 -0.5408 -0.8412
vn -0.0000 -0.4411 -0.8975
vn -0.0000 -0.3361 -0.9418
vn 0.0067 -0.2266 -0.9740
vn -0.0000 -0.2603 -0.9655
vn -0.0000 -0.1139 -0.9935
vn -0.0000 0.1139 -0.9935
vn -0.0000 0.2051 -0.9787
vn 0.0066 0.2266 -0.9740
vn -0.0000 0.3361 -0.9418
vn -0.0000 0.4411 -0.8975
vn -0.0000 0.5408 -0.8412
vn -0.0000 0.6330 -0.7742
vn -0.0000 0.7171 -0.6970
vn -0.0000 0.7919 -0.6106
vn -0.0000 0.8563 -0.5164
vn -0.0000 0.9097 -0.4154
vn -0.0000 0.9510 -0.3091
vn -0.0000 0.9801 -0.1986
vn -0.0000 0.9963 -0.0856
vn -0.0000 0.9996 0.0286
vn -0.0000 0.9898 0.1423
vn -0.0000 0.9671 0.2542
vn -0.0000 0.9319 0.3628
vn -0.0000 0.8845 0.4666
vn -0.0000 0.8255 0.5644
vn -0.0000 0.7557 0.6549
vn -0.0000 0.6763 0.7367
vn -0.0000 0.5877 0.8091
vn -0.0000 0.4917 0.8707
vn -0.0000 0.3892 0.9211
vn -0.0000 0.2880 0.9576
vn 0.0028 0.2818 0.9595
vn -0.0000 0.1705 0.9854
vn -0.0000 0.0572 0.9984
vn -0.0000 0.2319 0.9727
vn -0.0000 0.8844 0.4666
vn -0.0000 0.6330 -0.7741
vn -0.0000 0.2603 -0.9655
vn -0.0000 -0.2051 -0.9787
vn -0.0000 -0.5407 -0.8412
vn -0.0000 -0.6330 -0.7741
vn -0.0000 -0.8844 0.4666
vn -0.0000 -0.2880 0.9576
vn -0.0000 -0.0641 0.9979
vn -0.0000 -0.1913 0.9815
vn -0.0000 -0.3151 0.9491
vn -0.0000 -0.4339 0.9010
vn -0.0000 -0.5455 0.8381
vn -0.0000 -0.6482 0.7614
vn -0.0000 -0.7403 0.6723
vn -0.0000 -0.8202 0.5721
vn -0.0000 -0.8866 0.4625
vn -0.0000 -0.9385 0.3454
vn -0.0000 -0.9749 0.2225
vn -0.0000 -0.9954 0.0960
vn -0.0000 -0.9995 -0.0321
vn -0.0000 -0.9872 -0.1596
vn -0.0000 -0.9587 -0.2846
vn -0.0000 -0.9144 -0.4048
vn -0.0000 -0.8552 -0.5183
vn -0.0000 -0.7818 -0.6236
vn -0.0000 -0.6957 -0.7184
vn -0.0000 -0.5981 -0.8014
vn -0.0000 -0.4907 -0.8713
vn -0.0000 -0.3754 -0.9269
vn -0.0000 -0.2537 -0.9673
vn -0.0000 -0.1278 -0.9918
vn -0.0000 0.0320 -0.9995
vn -0.0000 -0.0320 -0.9995
vn -0.0000 0.1278 -0.9918
vn -0.0000 0.2537 -0.9673
vn -0.0000 0.3754 -0.9269
vn -0.0000 0.4907 -0.8713
vn -0.0000 0.5981 -0.8014
vn -0.0000 0.6957 -0.7184
vn -0.0000 0.7818 -0.6236
vn -0.0000 0.8552 -0.5183
vn -0.0000 0.9144 -0.4048
vn -0.0000 0.9587 -0.2846
vn -0.0000 0.9872 -0.1596
vn -0.0000 0.9995 -0.0320
vn -0.0000 0.9954 0.0960
vn -0.0000 0.9749 0.2225
vn -0.0000 0.9385 0.3454
vn -0.0000 0.8866 0.4625
vn -0.0000 0.8202 0.5721
vn -0.0000 0.7403 0.6723
vn -0.0000 0.6482 0.7614
vn -0.0000 0.5455 0.8381
vn -0.0000 0.4339 0.9010
vn -0.0000 0.3151 0.9491
vn -0.0000 0.1913 0.9815
vn -0.0000 0.0641 0.9979
vn -0.0000 0.6482 0.7615
vn -0.0000 0.9995 -0.0321
vn -0.0000 -0.9995 -0.0320
vn -0.0000 -0.6482 0.7615
vn 0.1018 -0.8715 -0.4798
vn 0.7065 -0.0000 0.7077
vn 0.2583 -0.9661 -0.0000
vn 0.1018 -0.8715 0.4797
vn 0.1018 -0.8715 0.4798
vn 0.1198 -0.9614 -0.2476
vn 0.1197 -0.9614 -0.2476
vn 0.1198 -0.9614 0.2476
vn 0.1197 -0.9614 0.2476
vn 0.1303 -0.9915 -0.0000
vn 0.0658 -0.9892 -0.1308
vn 0.0658 -0.9892 0.1308
vn -0.0000 -0.9659 -0.2588
vn -0.0000 -0.9659 0.2588
vn -0.0988 -0.9659 -0.2391
vn -0.0989 -0.9659 -0.2391
vn -0.0988 -0.9659 0.2391
vn -0.2386 -0.9660 0.0991
vn -0.1826 -0.9660 0.1830
vn -0.1826 -0.9660 -0.1830
vn -0.2386 -0.9660 -0.0991
vn -0.2583 -0.9661 -0.0000
s 0
usemtl RAL2003.003
f 1//1 2//1 3//1
f 2//1 1//1 4//1
f 1//1 5//1 6//1
f 1//1 7//1 8//1
f 4//1 9//1 2//1
f 8//1 5//1 1//1
f 1//1 10//1 4//1
f 11//1 12//1 13//1
f 11//1 14//1 15//1
f 3//1 7//1 1//1
f 11//1 16//1 17//1
f 15//1 12//1 11//1
f 11//1 18//1 19//1
f 20//1 21//1 22//1
f 20//1 23//1 24//1
f 17//1 1//1 11//1
f 19//1 14//1 11//1
f 11//1 25//1 26//1
f 11//1 27//1 28//1
f 11//1 29//1 30//1
f 11//1 31//1 32//1
f 24//1 21//1 20//1
f 20//1 33//1 34//1
f 13//1 16//1 11//1
f 28//1 25//1 11//1
f 32//1 29//1 11//1
f 11//1 20//1 35//1
f 36//1 37//1 38//1
f 36//1 39//1 40//1
f 41//1 42//1 43//1
f 44//1 45//1 46//1
f 44//1 47//1 48//1
f 20//1 49//1 50//1
f 20//1 51//1 52//1
f 34//1 23//1 20//1
f 20//1 53//1 54//1
f 20//1 55//1 56//1
f 20//1 11//1 57//1
f 26//1 18//1 11//1
f 35//1 31//1 11//1
f 40//1 37//1 36//1
f 36//1 58//1 59//1
f 42//1 41//1 60//1
f 42//1 61//1 43//1
f 48//1 45//1 44//1
f 44//1 62//1 63//1
f 44//1 64//1 65//1
f 44//1 66//1 67//1
f 52//1 49//1 20//1
f 54//1 33//1 20//1
f 57//1 55//1 20//1
f 30//1 27//1 11//1
f 68//1 69//1 70//1
f 68//1 71//1 72//1
f 59//1 39//1 36//1
f 36//1 73//1 74//1
f 36//1 75//1 76//1
f 36//1 77//1 78//1
f 36//1 79//1 80//1
f 36//1 81//1 82//1
f 43//1 83//1 41//1
f 81//1 36//1 84//1
f 63//1 47//1 44//1
f 67//1 64//1 44//1
f 44//1 85//1 86//1
f 44//1 87//1 88//1
f 22//1 51//1 20//1
f 6//1 11//1 1//1
f 89//1 90//1 91//1
f 89//1 92//1 93//1
f 68//1 94//1 95//1
f 68//1 96//1 97//1
f 68//1 98//1 99//1
f 72//1 69//1 68//1
f 74//1 58//1 36//1
f 78//1 75//1 36//1
f 82//1 79//1 36//1
f 84//1 42//1 81//1
f 65//1 62//1 44//1
f 88//1 85//1 44//1
f 44//1 100//1 101//1
f 44//1 68//1 102//1
f 92//1 103//1 104//1
f 92//1 105//1 106//1
f 92//1 107//1 108//1
f 92//1 89//1 109//1
f 56//1 53//1 20//1
f 93//1 90//1 89//1
f 68//1 110//1 111//1
f 97//1 94//1 68//1
f 70//1 98//1 68//1
f 68//1 44//1 112//1
f 76//1 73//1 36//1
f 60//1 81//1 42//1
f 86//1 66//1 44//1
f 102//1 100//1 44//1
f 92//1 113//1 114//1
f 106//1 103//1 92//1
f 109//1 107//1 92//1
f 91//1 20//1 89//1
f 95//1 110//1 68//1
f 112//1 71//1 68//1
f 80//1 77//1 36//1
f 101//1 87//1 44//1
f 104//1 113//1 92//1
f 50//1 89//1 20//1
f 99//1 96//1 68//1
f 46//1 36//1 44//1
f 108//1 105//1 92//1
f 38//1 44//1 36//1
f 111//1 92//1 68//1
f 114//1 68//1 92//1
f 115//2 116//2 80//2
f 116//3 77//3 80//3
f 117//4 115//4 82//4
f 115//5 79//5 82//5
f 118//6 117//6 60//6
f 117//7 81//7 60//7
f 119//8 118//8 83//8
f 118//9 41//9 83//9
f 120//10 119//10 61//10
f 119//11 43//11 61//11
f 121//12 120//12 84//12
f 120//13 42//13 84//13
f 122//14 121//14 46//14
f 121//15 36//15 46//15
f 123//16 122//16 48//16
f 122//17 45//17 48//17
f 124//18 123//18 63//18
f 123//19 47//19 63//19
f 125//20 124//20 65//20
f 124//21 62//21 65//21
f 126//22 125//22 67//22
f 125//23 64//23 67//23
f 127//24 126//24 86//24
f 126//25 66//25 86//25
f 128//26 127//26 88//26
f 127//27 85//27 88//27
f 129//28 128//28 101//28
f 128//29 87//29 101//29
f 130//30 129//30 102//30
f 129//31 100//31 102//31
f 131//32 130//32 114//32
f 130//33 68//33 114//33
f 132//34 131//34 104//34
f 131//35 113//35 104//35
f 133//36 132//36 106//36
f 132//37 103//37 106//37
f 134//38 133//38 108//38
f 133//39 105//39 108//39
f 135//40 134//40 109//40
f 134//41 107//41 109//41
f 136//42 135//42 50//42
f 135//43 89//43 50//43
f 137//44 136//44 52//44
f 136//45 49//45 52//45
f 138//46 137//46 22//46
f 137//47 51//47 22//47
f 139//48 138//48 24//48
f 138//49 21//49 24//49
f 140//50 139//50 34//50
f 139//51 23//51 34//51
f 141//52 140//52 54//52
f 140//53 33//53 54//53
f 142//54 141//54 56//54
f 141//55 53//55 56//55
f 143//56 142//56 57//56
f 142//57 55//57 57//57
f 144//58 143//58 6//58
f 143//59 11//59 6//59
f 145//60 144//60 8//60
f 144//61 5//61 8//61
f 146//62 145//62 3//62
f 145//63 7//63 3//63
f 147//64 146//64 9//64
f 146//65 2//65 9//65
f 148//66 147//66 10//66
f 147//67 4//67 10//67
f 149//68 148//68 17//68
f 148//69 1//69 17//69
f 150//70 149//70 13//70
f 149//71 16//71 13//71
f 151//72 150//72 15//72
f 150//73 12//73 15//73
f 152//74 151//74 19//74
f 151//75 14//75 19//75
f 153//76 152//76 26//76
f 152//77 18//77 26//77
f 154//78 153//78 28//78
f 153//79 25//79 28//79
f 155//80 154//80 30//80
f 154//81 27//81 30//81
f 156//82 155//82 32//82
f 155//83 29//83 32//83
f 157//84 156//84 35//84
f 156//85 31//85 35//85
f 158//86 157//86 91//86
f 157//87 20//87 91//87
f 90//88 159//88 158//88
f 160//89 159//89 93//89
f 159//90 90//90 93//90
f 161//91 160//91 111//91
f 160//92 92//92 111//92
f 162//93 161//93 95//93
f 161//94 110//94 95//94
f 163//95 162//95 97//95
f 162//96 94//96 97//96
f 164//97 163//97 99//97
f 163//98 96//98 99//98
f 165//99 164//99 70//99
f 164//100 98//100 70//100
f 166//101 165//101 72//101
f 165//102 69//102 72//102
f 167//103 166//103 112//103
f 166//104 71//104 112//104
f 168//105 167//105 38//105
f 167//106 44//106 38//106
f 169//107 168//107 40//107
f 168//108 37//108 40//108
f 170//109 169//109 59//109
f 169//110 39//110 59//110
f 171//111 170//111 74//111
f 170//112 58//112 74//112
f 172//113 171//113 76//113
f 171//114 73//114 76//114
f 116//115 172//115 78//115
f 172//116 75//116 78//116
f 78//117 77//117 116//117
f 76//118 75//118 172//118
f 74//119 73//119 171//119
f 59//120 58//120 170//120
f 40//121 39//121 169//121
f 38//122 37//122 168//122
f 112//123 44//123 167//123
f 72//124 71//124 166//124
f 70//102 69//102 165//102
f 99//125 98//125 164//125
f 97//126 96//126 163//126
f 95//127 94//127 162//127
f 111//128 110//128 161//128
f 93//92 92//92 160//92
f 91//129 90//129 158//129
f 35//130 20//130 157//130
f 32//131 31//131 156//131
f 30//83 29//83 155//83
f 28//81 27//81 154//81
f 26//132 25//132 153//132
f 19//133 18//133 152//133
f 15//134 14//134 151//134
f 13//135 12//135 150//135
f 17//136 16//136 149//136
f 10//137 1//137 148//137
f 9//138 4//138 147//138
f 3//139 2//139 146//139
f 8//140 7//140 145//140
f 6//141 5//141 144//141
f 57//59 11//59 143//59
f 56//142 55//142 142//142
f 54//143 53//143 141//143
f 34//144 33//144 140//144
f 24//51 23//51 139//51
f 22//145 21//145 138//145
f 52//146 51//146 137//146
f 50//147 49//147 136//147
f 109//148 89//148 135//148
f 108//149 107//149 134//149
f 106//150 105//150 133//150
f 104//37 103//37 132//37
f 114//35 113//35 131//35
f 102//151 68//151 130//151
f 101//31 100//31 129//31
f 88//29 87//29 128//29
f 86//152 85//152 127//152
f 67//25 66//25 126//25
f 65//153 64//153 125//153
f 63//154 62//154 124//154
f 48//155 47//155 123//155
f 46//156 45//156 122//156
f 84//157 36//157 121//157
f 61//158 42//158 120//158
f 83//159 43//159 119//159
f 60//160 41//160 118//160
f 82//161 81//161 117//161
f 80//162 79//162 115//162
f 173//1 143//1 144//1
f 174//1 175//1 150//1
f 144//1 176//1 173//1
f 177//1 139//1 140//1
f 177//1 137//1 138//1
f 177//1 178//1 136//1
f 178//1 133//1 134//1
f 179//1 132//1 133//1
f 179//1 130//1 131//1
f 175//1 149//1 150//1
f 175//1 176//1 147//1
f 173//1 142//1 143//1
f 140//1 173//1 177//1
f 136//1 137//1 177//1
f 134//1 135//1 178//1
f 131//1 132//1 179//1
f 179//1 180//1 129//1
f 181//1 125//1 126//1
f 175//1 148//1 149//1
f 176//1 146//1 147//1
f 144//1 145//1 176//1
f 138//1 139//1 177//1
f 133//1 178//1 179//1
f 180//1 128//1 129//1
f 180//1 126//1 127//1
f 181//1 124//1 125//1
f 181//1 182//1 122//1
f 183//1 184//1 166//1
f 147//1 148//1 175//1
f 173//1 141//1 142//1
f 135//1 136//1 178//1
f 127//1 128//1 180//1
f 181//1 123//1 124//1
f 182//1 121//1 122//1
f 185//1 172//1 116//1
f 185//1 170//1 171//1
f 166//1 167//1 183//1
f 184//1 164//1 165//1
f 184//1 162//1 163//1
f 174//1 157//1 158//1
f 145//1 146//1 176//1
f 129//1 130//1 179//1
f 122//1 123//1 181//1
f 182//1 119//1 120//1
f 186//1 115//1 117//1
f 171//1 172//1 185//1
f 185//1 183//1 169//1
f 167//1 168//1 183//1
f 163//1 164//1 184//1
f 174//1 156//1 157//1
f 140//1 141//1 173//1
f 120//1 121//1 182//1
f 186//1 118//1 119//1
f 186//1 116//1 115//1
f 169//1 170//1 185//1
f 165//1 166//1 184//1
f 184//1 160//1 161//1
f 184//1 158//1 159//1
f 174//1 155//1 156//1
f 174//1 152//1 153//1
f 126//1 180//1 181//1
f 117//1 118//1 186//1
f 168//1 169//1 183//1
f 159//1 160//1 184//1
f 174//1 154//1 155//1
f 174//1 151//1 152//1
f 119//1 182//1 186//1
f 161//1 162//1 184//1
f 153//1 154//1 174//1
f 116//1 186//1 185//1
f 150//1 151//1 174//1
f 158//1 184//1 174//1
f 183//1 187//1 184//1
f 174//1 188//1 175//1
f 177//163 173//163 189//163
f 189//163 190//163 177//163
f 178//164 177//164 190//164
f 190//164 191//164 178//164
f 191//164 192//164 178//164
f 181//165 180//165 193//165
f 193//165 194//165 181//165
f 195//166 193//166 180//166
f 180//166 179//166 195//166
f 178//167 192//167 195//167
f 195//167 179//167 178//167
f 181//168 196//168 197//168
f 181//169 194//169 196//169
f 197//168 182//168 181//168
f 186//170 182//170 197//170
f 197//170 198//170 186//170
f 199//171 200//171 193//171
f 193//171 195//171 199//171
f 200//171 194//171 193//171
f 200//171 196//171 194//171
f 195//171 192//171 199//171
f 192//171 191//171 199//171
f 190//172 201//172 199//172
f 199//173 191//173 190//173
f 190//172 189//172 201//172
f 173//174 176//174 202//174
f 202//174 189//174 173//174
f 197//175 196//175 200//175
f 203//176 198//176 197//176
f 200//176 203//176 197//176
f 185//177 186//177 198//177
f 198//177 204//177 185//177
f 198//178 203//178 205//178
f 205//178 204//178 198//178
f 183//179 185//179 204//179
f 204//179 206//179 183//179
f 206//180 204//180 205//180
f 207//181 208//181 206//181
f 205//180 207//180 206//180
f 203//182 200//182 199//182
f 205//182 209//182 210//182
f 199//182 201//182 203//182
f 210//182 207//182 205//182
f 205//182 203//182 209//182
f 201//182 209//182 203//182
f 211//183 210//183 209//183
f 209//183 202//183 211//183
f 211//184 212//184 210//184
f 189//185 202//185 209//185
f 209//185 201//185 189//185
f 176//186 175//186 211//186
f 211//186 202//186 176//186
f 187//187 213//187 214//187
f 214//187 184//187 187//187
f 188//188 174//188 215//188
f 215//189 216//189 188//189
f 174//190 184//190 214//190
f 214//190 215//190 174//190
f 215//191 214//191 217//191
f 217//191 218//191 215//191
f 218//192 217//192 219//192
f 219//192 220//192 218//192
f 220//191 219//191 221//191
f 221//191 222//191 220//191
f 223//193 221//193 219//193
f 213//193 223//193 217//193
f 223//194 224//194 221//194
f 219//194 217//194 223//194
f 217//194 214//194 213//194
f 225//195 218//195 220//195
f 220//195 222//195 225//195
f 216//196 215//196 218//196
f 218//195 225//195 216//195
f 222//195 226//195 225//195
f 224//166 226//166 222//166
f 222//166 221//166 224//166
f 227//197 228//197 216//197
f 188//198 216//198 228//198
f 211//198 175//198 188//198
f 228//198 229//198 188//198
f 188//199 229//199 212//199
f 188//198 212//198 211//198
f 216//200 225//200 227//200
f 206//201 208//201 187//201
f 187//201 230//201 231//201
f 232//202 223//202 213//202
f 187//201 183//201 206//201
f 213//202 231//202 232//202
f 231//201 213//201 187//201
f 208//203 230//203 187//203
f 231//204 233//204 234//204
f 229//204 228//204 234//204
f 235//204 236//204 231//204
f 230//205 237//205 233//205
f 234//205 238//205 229//205
f 233//204 231//204 230//204
f 234//204 235//204 231//204
f 228//204 235//204 234//204
f 236//206 239//206 240//206
f 235//207 241//207 242//207
f 236//207 243//207 244//207
f 240//208 245//208 236//208
f 235//208 246//208 247//208
f 242//207 248//207 235//207
f 235//207 249//207 250//207
f 236//207 251//207 252//207
f 236//207 253//207 243//207
f 236//207 247//207 239//207
f 235//207 254//207 246//207
f 250//207 241//207 235//207
f 236//207 255//207 256//207
f 252//207 257//207 236//207
f 245//207 253//207 236//207
f 248//207 254//207 235//207
f 257//207 255//207 236//207
f 247//207 236//207 235//207
f 244//207 251//207 236//207
f 235//207 258//207 259//207
f 235//207 260//207 261//207
f 259//207 249//207 235//207
f 261//207 262//207 235//207
f 262//207 258//207 235//207
f 256//207 263//207 236//207
f 264//174 233//174 237//174
f 237//174 265//174 264//174
f 266//177 267//177 238//177
f 238//177 234//177 266//177
f 265//209 237//209 230//209
f 207//209 268//209 265//209
f 265//209 208//209 207//209
f 207//209 210//209 269//209
f 210//209 212//209 267//209
f 267//209 212//209 229//209
f 269//209 268//209 207//209
f 229//209 238//209 267//209
f 267//209 269//209 210//209
f 230//209 208//209 265//209
f 270//207 271//207 268//207
f 268//207 269//207 270//207
f 271//210 264//210 265//210
f 265//211 268//211 271//211
f 270//212 269//212 267//212
f 267//213 266//213 270//213
f 272//182 273//182 274//182
f 275//182 276//182 277//182
f 277//182 274//182 275//182
f 272//182 270//182 278//182
f 270//182 266//182 279//182
f 234//182 280//182 281//182
f 271//182 270//182 282//182
f 275//182 283//182 276//182
f 272//182 284//182 285//182
f 270//182 286//182 278//182
f 270//182 287//182 288//182
f 266//182 289//182 279//182
f 281//182 266//182 234//182
f 270//182 290//182 282//182
f 270//182 272//182 291//182
f 274//182 277//182 272//182
f 278//182 284//182 272//182
f 233//182 264//182 292//182
f 271//182 293//182 294//182
f 279//182 287//182 270//182
f 234//182 295//182 280//182
f 234//182 296//182 297//182
f 291//182 290//182 270//182
f 285//182 273//182 272//182
f 233//182 298//182 299//182
f 264//182 300//182 292//182
f 294//182 264//182 271//182
f 271//182 301//182 302//182
f 281//182 289//182 266//182
f 297//182 303//182 234//182
f 304//182 305//182 296//182
f 275//182 306//182 283//182
f 233//182 307//182 298//182
f 292//182 308//182 233//182
f 302//182 293//182 271//182
f 234//182 309//182 295//182
f 296//182 234//182 304//182
f 282//182 301//182 271//182
f 299//182 234//182 233//182
f 294//182 300//182 264//182
f 303//182 309//182 234//182
f 305//182 304//182 283//182
f 233//182 310//182 307//182
f 308//182 311//182 233//182
f 306//182 305//182 283//182
f 311//182 310//182 233//182
f 299//182 304//182 234//182
f 288//182 286//182 270//182
f 312//214 313//214 298//214
f 310//215 314//215 312//215
f 315//216 314//216 310//216
f 308//217 316//217 315//217
f 317//218 316//218 308//218
f 318//219 317//219 292//219
f 294//220 319//220 318//220
f 320//221 319//221 294//221
f 302//222 321//222 320//222
f 322//223 321//223 302//223
f 282//224 323//224 322//224
f 324//225 323//225 282//225
f 291//226 325//226 324//226
f 326//227 325//227 291//227
f 277//228 327//228 326//228
f 276//229 328//229 327//229
f 329//230 328//230 276//230
f 304//231 330//231 329//231
f 331//232 330//232 304//232
f 298//233 313//233 331//233
f 331//233 299//233 298//233
f 304//232 299//232 331//232
f 329//231 283//231 304//231
f 276//234 283//234 329//234
f 327//235 277//235 276//235
f 326//236 272//236 277//236
f 291//237 272//237 326//237
f 324//226 290//226 291//226
f 282//225 290//225 324//225
f 322//224 301//224 282//224
f 302//223 301//223 322//223
f 320//238 293//238 302//238
f 294//239 293//239 320//239
f 318//240 300//240 294//240
f 292//219 300//219 318//219
f 308//218 292//218 317//218
f 315//241 311//241 308//241
f 310//242 311//242 315//242
f 312//243 307//243 310//243
f 298//244 307//244 312//244
f 327//182 312//182 314//182
f 317//182 325//182 326//182
f 317//182 323//182 324//182
f 317//182 319//182 320//182
f 314//182 315//182 327//182
f 331//182 328//182 329//182
f 324//182 325//182 317//182
f 317//182 318//182 319//182
f 315//182 316//182 327//182
f 331//182 327//182 328//182
f 317//182 322//182 323//182
f 320//182 321//182 317//182
f 327//182 313//182 312//182
f 329//182 330//182 331//182
f 321//182 322//182 317//182
f 331//182 313//182 327//182
f 316//182 317//182 327//182
f 326//182 327//182 317//182
f 332//214 333//214 297//214
f 305//215 334//215 332//215
f 335//216 334//216 305//216
f 275//217 336//217 335//217
f 337//218 336//218 275//218
f 338//219 337//219 274//219
f 285//220 339//220 338//220
f 340//221 339//221 285//221
f 278//222 341//222 340//222
f 342//223 341//223 278//223
f 288//224 343//224 342//224
f 344//225 343//225 288//225
f 279//226 345//226 344//226
f 346//227 345//227 279//227
f 281//228 347//228 346//228
f 280//229 348//229 347//229
f 349//230 348//230 280//230
f 309//231 350//231 349//231
f 351//232 350//232 309//232
f 297//233 333//233 351//233
f 351//233 303//233 297//233
f 309//232 303//232 351//232
f 349//231 295//231 309//231
f 280//234 295//234 349//234
f 347//235 281//235 280//235
f 346//236 289//236 281//236
f 279//237 289//237 346//237
f 344//226 287//226 279//226
f 288//225 287//225 344//225
f 342//224 286//224 288//224
f 278//223 286//223 342//223
f 340//238 284//238 278//238
f 285//239 284//239 340//239
f 338//240 273//240 285//240
f 274//219 273//219 338//219
f 275//218 274//218 337//218
f 335//241 306//241 275//241
f 305//242 306//242 335//242
f 332//243 296//243 305//243
f 297//244 296//244 332//244
f 347//182 332//182 334//182
f 337//182 345//182 346//182
f 337//182 343//182 344//182
f 337//182 339//182 340//182
f 334//182 335//182 347//182
f 351//182 348//182 349//182
f 344//182 345//182 337//182
f 337//182 338//182 339//182
f 335//182 336//182 347//182
f 351//182 347//182 348//182
f 337//182 342//182 343//182
f 340//182 341//182 337//182
f 347//182 333//182 332//182
f 349//182 350//182 351//182
f 341//182 342//182 337//182
f 351//182 333//182 347//182
f 336//182 337//182 347//182
f 346//182 347//182 337//182
f 228//245 227//245 260//245
f 227//245 352//245 353//245
f 354//245 353//245 352//245
f 353//245 260//245 227//245
f 260//245 235//245 228//245
f 352//245 355//245 354//245
f 356//166 357//166 358//166
f 359//166 360//166 356//166
f 359//166 353//166 360//166
f 358//166 359//166 356//166
f 359//166 260//166 353//166
f 354//1 355//1 361//1
f 361//1 362//1 354//1
f 363//246 364//246 355//246
f 365//246 361//246 355//246
f 355//246 364//246 365//246
f 355//246 352//246 363//246
f 366//247 367//247 364//247
f 364//247 363//247 366//247
f 368//174 369//174 367//174
f 367//174 366//174 368//174
f 369//163 368//163 370//163
f 370//163 371//163 369//163
f 372//164 373//164 371//164
f 371//164 370//164 372//164
f 374//167 375//167 373//167
f 373//167 372//167 374//167
f 376//166 377//166 375//166
f 375//166 374//166 376//166
f 376//165 378//165 379//165
f 379//165 377//165 376//165
f 380//168 379//168 378//168
f 378//168 381//168 380//168
f 382//170 383//170 380//170
f 380//170 381//170 382//170
f 383//177 382//177 384//177
f 384//177 385//177 383//177
f 385//248 384//248 386//248
f 386//248 387//248 385//248
f 374//182 388//182 389//182
f 226//182 390//182 391//182
f 378//182 392//182 393//182
f 376//182 394//182 395//182
f 374//182 396//182 388//182
f 372//182 397//182 398//182
f 226//182 399//182 390//182
f 224//182 400//182 401//182
f 382//182 381//182 402//182
f 378//182 403//182 392//182
f 376//182 404//182 394//182
f 389//182 376//182 374//182
f 398//182 374//182 372//182
f 368//182 226//182 405//182
f 226//182 406//182 399//182
f 224//182 407//182 408//182
f 224//182 409//182 400//182
f 224//182 382//182 410//182
f 381//182 411//182 402//182
f 393//182 381//182 378//182
f 395//182 378//182 376//182
f 398//182 396//182 374//182
f 370//182 412//182 413//182
f 391//182 405//182 226//182
f 226//182 414//182 415//182
f 401//182 407//182 224//182
f 382//182 416//182 410//182
f 393//182 411//182 381//182
f 389//182 404//182 376//182
f 370//182 417//182 412//182
f 370//182 368//182 418//182
f 368//182 419//182 420//182
f 368//182 421//182 422//182
f 415//182 406//182 226//182
f 224//182 423//182 409//182
f 382//182 424//182 416//182
f 382//182 425//182 426//182
f 382//182 427//182 428//182
f 395//182 403//182 378//182
f 372//182 413//182 429//182
f 418//182 417//182 370//182
f 368//182 430//182 419//182
f 405//182 421//182 368//182
f 226//182 431//182 432//182
f 226//182 408//182 433//182
f 226//182 366//182 363//182
f 410//182 423//182 224//182
f 428//182 425//182 382//182
f 429//182 397//182 372//182
f 420//182 418//182 368//182
f 422//182 434//182 368//182
f 433//182 431//182 226//182
f 226//182 368//182 366//182
f 363//182 352//182 227//182
f 224//182 223//182 386//182
f 426//182 424//182 382//182
f 413//182 372//182 370//182
f 432//182 414//182 226//182
f 227//182 225//182 363//182
f 386//182 223//182 232//182
f 386//182 384//182 224//182
f 402//182 427//182 382//182
f 363//182 225//182 226//182
f 384//182 382//182 224//182
f 434//182 430//182 368//182
f 408//182 226//182 224//182
f 232//182 435//182 386//182
f 430//249 436//249 437//249
f 437//250 419//250 430//250
f 419//251 438//251 439//251
f 439//252 420//252 419//252
f 420//253 440//253 441//253
f 441//254 418//254 420//254
f 418//255 442//255 443//255
f 443//256 417//256 418//256
f 417//257 444//257 445//257
f 445//258 412//258 417//258
f 412//259 446//259 447//259
f 447//260 413//260 412//260
f 413//261 448//261 449//261
f 449//262 429//262 413//262
f 429//263 450//263 451//263
f 451//264 397//264 429//264
f 397//265 452//265 453//265
f 453//266 398//266 397//266
f 398//267 454//267 455//267
f 455//268 396//268 398//268
f 396//269 456//269 457//269
f 457//270 388//270 396//270
f 388//271 458//271 459//271
f 459//272 389//272 388//272
f 389//273 460//273 461//273
f 461//274 404//274 389//274
f 404//275 462//275 463//275
f 463//276 394//276 404//276
f 394//277 464//277 465//277
f 465//278 395//278 394//278
f 395//279 466//279 467//279
f 467//280 403//280 395//280
f 403//281 468//281 469//281
f 469//282 392//282 403//282
f 392//283 470//283 471//283
f 471//284 393//284 392//284
f 393//285 472//285 473//285
f 473//286 411//286 393//286
f 411//287 474//287 475//287
f 475//288 402//288 411//288
f 402//289 476//289 477//289
f 477//290 427//290 402//290
f 427//291 478//291 479//291
f 479//292 428//292 427//292
f 428//293 480//293 481//293
f 481//294 425//294 428//294
f 425//295 482//295 483//295
f 483//296 426//296 425//296
f 426//297 484//297 485//297
f 485//298 424//298 426//298
f 424//299 486//299 487//299
f 487//300 416//300 424//300
f 416//301 488//301 489//301
f 489//302 410//302 416//302
f 410//303 490//303 491//303
f 491//304 423//304 410//304
f 423//305 492//305 493//305
f 493//306 409//306 423//306
f 409//307 494//307 495//307
f 495//308 400//308 409//308
f 400//309 496//309 497//309
f 497//310 401//310 400//310
f 401//311 498//311 499//311
f 499//312 407//312 401//312
f 407//313 500//313 501//313
f 501//314 408//314 407//314
f 408//315 502//315 503//315
f 503//316 433//316 408//316
f 433//317 504//317 505//317
f 505//318 431//318 433//318
f 431//319 506//319 507//319
f 507//320 432//320 431//320
f 432//321 508//321 509//321
f 509//322 414//322 432//322
f 414//323 510//323 511//323
f 511//324 415//324 414//324
f 415//325 512//325 513//325
f 513//326 406//326 415//326
f 406//327 514//327 515//327
f 515//328 399//328 406//328
f 399//329 516//329 517//329
f 517//330 390//330 399//330
f 390//331 518//331 519//331
f 519//332 391//332 390//332
f 391//333 520//333 521//333
f 521//334 405//334 391//334
f 405//335 522//335 523//335
f 523//336 421//336 405//336
f 421//337 524//337 525//337
f 525//338 422//338 421//338
f 422//339 526//339 527//339
f 527//340 434//340 422//340
f 434//341 528//341 529//341
f 529//342 430//342 434//342
f 529//343 436//343 430//343
f 527//344 528//344 434//344
f 525//345 526//345 422//345
f 523//346 524//346 421//346
f 521//347 522//347 405//347
f 519//348 520//348 391//348
f 517//349 518//349 390//349
f 515//350 516//350 399//350
f 513//351 514//351 406//351
f 511//352 512//352 415//352
f 509//353 510//353 414//353
f 507//354 508//354 432//354
f 505//355 506//355 431//355
f 503//356 504//356 433//356
f 501//357 502//357 408//357
f 499//313 500//313 407//313
f 497//358 498//358 401//358
f 495//359 496//359 400//359
f 493//360 494//360 409//360
f 491//361 492//361 423//361
f 489//362 490//362 410//362
f 487//363 488//363 416//363
f 485//364 486//364 424//364
f 483//365 484//365 426//365
f 481//366 482//366 425//366
f 479//367 480//367 428//367
f 477//291 478//291 427//291
f 475//368 476//368 402//368
f 473//369 474//369 411//369
f 471//370 472//370 393//370
f 469//371 470//371 392//371
f 467//372 468//372 403//372
f 465//279 466//279 395//279
f 463//277 464//277 394//277
f 461//275 462//275 404//275
f 459//273 460//273 389//273
f 457//271 458//271 388//271
f 455//373 456//373 396//373
f 453//374 454//374 398//374
f 451//375 452//375 397//375
f 449//263 450//263 429//263
f 447//376 448//376 413//376
f 445//377 446//377 412//377
f 443//378 444//378 417//378
f 441//379 442//379 418//379
f 439//380 440//380 420//380
f 437//381 438//381 419//381
f 436//182 529//182 528//182
f 526//182 438//182 437//182
f 526//182 440//182 439//182
f 526//182 442//182 441//182
f 526//182 444//182 443//182
f 526//182 446//182 445//182
f 494//182 504//182 503//182
f 494//182 506//182 505//182
f 437//182 436//182 526//182
f 441//182 440//182 526//182
f 445//182 444//182 526//182
f 512//182 486//182 485//182
f 512//182 488//182 487//182
f 500//182 499//182 498//182
f 505//182 504//182 494//182
f 494//182 508//182 507//182
f 528//182 526//182 436//182
f 443//182 442//182 526//182
f 487//182 486//182 512//182
f 512//182 490//182 489//182
f 498//182 496//182 500//182
f 496//182 502//182 501//182
f 507//182 506//182 494//182
f 494//182 510//182 509//182
f 439//182 438//182 526//182
f 526//182 448//182 447//182
f 524//182 452//182 451//182
f 524//182 454//182 453//182
f 512//182 480//182 479//182
f 512//182 482//182 481//182
f 512//182 484//182 483//182
f 489//182 488//182 512//182
f 502//182 496//182 495//182
f 501//182 500//182 496//182
f 509//182 508//182 494//182
f 494//182 512//182 511//182
f 448//182 526//182 525//182
f 447//182 446//182 526//182
f 524//182 450//182 449//182
f 453//182 452//182 524//182
f 512//182 474//182 473//182
f 512//182 476//182 475//182
f 481//182 480//182 512//182
f 485//182 484//182 512//182
f 498//182 497//182 496//182
f 511//182 510//182 494//182
f 528//182 527//182 526//182
f 451//182 450//182 524//182
f 516//182 458//182 457//182
f 516//182 460//182 459//182
f 516//182 462//182 461//182
f 516//182 464//182 463//182
f 516//182 466//182 465//182
f 516//182 468//182 467//182
f 512//182 472//182 471//182
f 475//182 474//182 512//182
f 483//182 482//182 512//182
f 512//182 492//182 491//182
f 512//182 494//182 493//182
f 503//182 502//182 494//182
f 454//182 524//182 523//182
f 449//182 448//182 524//182
f 459//182 458//182 516//182
f 463//182 462//182 516//182
f 467//182 466//182 516//182
f 516//182 470//182 469//182
f 473//182 472//182 512//182
f 512//182 478//182 477//182
f 491//182 490//182 512//182
f 495//182 494//182 502//182
f 454//182 518//182 517//182
f 454//182 520//182 519//182
f 454//182 522//182 521//182
f 525//182 524//182 448//182
f 461//182 460//182 516//182
f 469//182 468//182 516//182
f 477//182 476//182 512//182
f 493//182 492//182 512//182
f 470//182 514//182 513//182
f 470//182 516//182 515//182
f 519//182 518//182 454//182
f 523//182 522//182 454//182
f 516//182 456//182 455//182
f 465//182 464//182 516//182
f 479//182 478//182 512//182
f 515//182 514//182 470//182
f 521//182 520//182 454//182
f 457//182 456//182 516//182
f 513//182 512//182 470//182
f 455//182 454//182 516//182
f 517//182 516//182 454//182
f 471//182 470//182 512//182
f 232//382 263//382 530//382
f 231//382 236//382 263//382
f 263//382 232//382 231//382
f 531//382 532//382 435//382
f 435//382 530//382 531//382
f 530//382 435//382 232//382
f 533//166 534//166 535//166
f 535//166 536//166 533//166
f 530//166 263//166 534//166
f 533//166 530//166 534//166
f 537//383 387//383 532//383
f 386//383 435//383 532//383
f 532//383 387//383 386//383
f 532//384 538//384 537//384
f 531//1 539//1 538//1
f 538//1 532//1 531//1
f 540//207 541//207 542//207
f 543//206 544//206 545//206
f 540//207 546//207 541//207
f 540//207 547//207 548//207
f 540//207 543//207 549//207
f 543//207 550//207 544//207
f 540//207 551//207 546//207
f 549//385 547//385 540//385
f 543//207 552//207 550//207
f 543//207 553//207 554//207
f 543//208 555//208 556//208
f 548//208 551//208 540//208
f 554//207 552//207 543//207
f 556//207 557//207 543//207
f 545//207 549//207 543//207
f 557//207 558//207 543//207
f 531//207 555//207 543//207
f 540//207 559//207 560//207
f 558//207 553//207 543//207
f 531//207 561//207 555//207
f 542//207 559//207 540//207
f 354//207 362//207 540//207
f 531//207 530//207 561//207
f 560//207 562//207 540//207
f 540//207 563//207 354//207
f 562//207 563//207 540//207
f 563//207 564//207 354//207
f 564//207 353//207 354//207
f 543//207 539//207 531//207
f 565//386 566//386 539//386
f 537//212 538//212 539//212
f 539//387 566//387 537//387
f 539//386 543//386 565//386
f 365//388 567//388 362//388
f 568//388 540//388 362//388
f 362//388 567//388 568//388
f 362//388 361//388 365//388
f 565//182 568//182 569//182
f 565//182 540//182 568//182
f 569//182 570//182 565//182
f 565//182 543//182 540//182
f 569//207 571//207 572//207
f 572//207 570//207 569//207
f 571//389 569//389 568//389
f 568//389 567//389 571//389
f 570//390 572//390 566//390
f 566//390 565//390 570//390
f 356//391 573//391 574//391
f 360//392 575//392 573//392
f 576//393 575//393 353//393
f 575//394 360//394 353//394
f 563//395 577//395 576//395
f 562//396 578//396 577//396
f 560//397 579//397 578//397
f 559//398 580//398 579//398
f 542//399 581//399 580//399
f 541//400 582//400 581//400
f 546//401 583//401 582//401
f 551//402 584//402 583//402
f 548//403 585//403 584//403
f 547//404 586//404 585//404
f 549//405 587//405 586//405
f 545//406 588//406 587//406
f 544//407 589//407 588//407
f 550//408 590//408 589//408
f 552//409 591//409 590//409
f 554//410 592//410 591//410
f 553//411 593//411 592//411
f 558//412 594//412 593//412
f 557//413 595//413 594//413
f 556//414 596//414 595//414
f 555//415 597//415 596//415
f 561//416 598//416 597//416
f 599//417 598//417 530//417
f 598//418 561//418 530//418
f 536//419 600//419 599//419
f 535//177 601//177 600//177
f 534//420 602//420 601//420
f 602//421 534//421 263//421
f 263//422 603//422 602//422
f 255//423 604//423 603//423
f 257//424 605//424 604//424
f 252//425 606//425 605//425
f 251//426 607//426 606//426
f 244//427 608//427 607//427
f 243//428 609//428 608//428
f 253//429 610//429 609//429
f 245//430 611//430 610//430
f 240//431 612//431 611//431
f 239//432 613//432 612//432
f 247//433 614//433 613//433
f 246//434 615//434 614//434
f 254//435 616//435 615//435
f 248//436 617//436 616//436
f 242//437 618//437 617//437
f 241//438 619//438 618//438
f 250//439 620//439 619//439
f 249//440 621//440 620//440
f 259//441 622//441 621//441
f 258//442 623//442 622//442
f 262//443 624//443 623//443
f 261//444 625//444 624//444
f 625//445 261//445 260//445
f 260//446 626//446 625//446
f 358//447 627//447 626//447
f 357//448 574//448 627//448
f 627//448 358//448 357//448
f 626//447 359//447 358//447
f 260//449 359//449 626//449
f 624//444 262//444 261//444
f 623//443 258//443 262//443
f 622//442 259//442 258//442
f 621//441 249//441 259//441
f 620//440 250//440 249//440
f 619//439 241//439 250//439
f 618//450 242//450 241//450
f 617//437 248//437 242//437
f 616//436 254//436 248//436
f 615//435 246//435 254//435
f 614//434 247//434 246//434
f 613//433 239//433 247//433
f 612//432 240//432 239//432
f 611//431 245//431 240//431
f 610//430 253//430 245//430
f 609//429 243//429 253//429
f 608//428 244//428 243//428
f 607//427 251//427 244//427
f 606//451 252//451 251//451
f 605//425 257//425 252//425
f 604//424 255//424 257//424
f 603//423 256//423 255//423
f 263//452 256//452 603//452
f 601//420 535//420 534//420
f 600//177 536//177 535//177
f 599//419 533//419 536//419
f 530//453 533//453 599//453
f 597//416 555//416 561//416
f 596//415 556//415 555//415
f 595//454 557//454 556//454
f 594//455 558//455 557//455
f 593//412 553//412 558//412
f 592//411 554//411 553//411
f 591//410 552//410 554//410
f 590//409 550//409 552//409
f 589//408 544//408 550//408
f 588//407 545//407 544//407
f 587//406 549//406 545//406
f 586//405 547//405 549//405
f 585//404 548//404 547//404
f 584//403 551//403 548//403
f 583//402 546//402 551//402
f 582//456 541//456 546//456
f 581//400 542//400 541//400
f 580//399 559//399 542//399
f 579//398 560//398 559//398
f 578//397 562//397 560//397
f 577//396 563//396 562//396
f 576//395 564//395 563//395
f 353//457 564//457 576//457
f 573//392 356//392 360//392
f 574//391 357//391 356//391
f 587//207 588//207 628//207
f 611//207 629//207 630//207
f 612//207 631//207 629//207
f 576//207 632//207 633//207
f 577//207 634//207 632//207
f 635//207 586//207 587//207
f 588//207 589//207 636//207
f 629//207 611//207 612//207
f 613//207 637//207 631//207
f 614//207 638//207 637//207
f 615//207 616//207 639//207
f 616//207 617//207 640//207
f 617//207 618//207 641//207
f 618//207 619//207 642//207
f 624//207 625//207 643//207
f 625//207 626//207 644//207
f 627//207 574//207 645//207
f 573//207 646//207 645//207
f 575//207 633//207 646//207
f 632//207 576//207 577//207
f 636//207 628//207 588//207
f 589//207 590//207 647//207
f 590//207 591//207 648//207
f 592//207 649//207 648//207
f 631//207 612//207 613//207
f 637//207 613//207 614//207
f 640//207 639//207 616//207
f 642//207 641//207 618//207
f 623//207 650//207 651//207
f 644//207 643//207 625//207
f 626//207 627//207 652//207
f 645//207 574//207 573//207
f 633//207 575//207 576//207
f 580//207 581//207 653//207
f 581//207 582//207 654//207
f 583//207 655//207 654//207
f 584//207 656//207 655//207
f 585//207 657//207 656//207
f 586//207 635//207 657//207
f 647//207 636//207 589//207
f 648//207 591//207 592//207
f 596//207 597//207 658//207
f 605//207 659//207 660//207
f 614//207 615//207 638//207
f 641//207 640//207 617//207
f 620//207 661//207 642//207
f 621//207 662//207 661//207
f 622//207 651//207 662//207
f 651//207 622//207 623//207
f 652//207 644//207 626//207
f 646//207 573//207 575//207
f 578//207 579//207 663//207
f 654//207 653//207 581//207
f 655//207 583//207 584//207
f 657//207 585//207 586//207
f 648//207 647//207 590//207
f 593//207 664//207 649//207
f 594//207 665//207 664//207
f 595//207 666//207 665//207
f 666//207 595//207 596//207
f 660//207 604//207 605//207
f 606//207 607//207 667//207
f 608//207 609//207 668//207
f 609//207 610//207 630//207
f 639//207 638//207 615//207
f 661//207 620//207 621//207
f 623//207 624//207 650//207
f 645//207 652//207 627//207
f 634//207 577//207 578//207
f 579//207 580//207 669//207
f 654//207 582//207 583//207
f 628//207 635//207 587//207
f 664//207 593//207 594//207
f 658//207 666//207 596//207
f 667//207 659//207 606//207
f 607//207 608//207 670//207
f 630//207 668//207 609//207
f 642//207 619//207 620//207
f 643//207 650//207 624//207
f 669//207 663//207 579//207
f 656//207 584//207 585//207
f 665//207 594//207 595//207
f 670//207 667//207 607//207
f 630//207 610//207 611//207
f 663//207 634//207 578//207
f 649//207 592//207 593//207
f 668//207 670//207 608//207
f 653//207 669//207 580//207
f 597//207 598//207 671//207
f 598//207 599//207 672//207
f 603//207 673//207 674//207
f 604//207 660//207 673//207
f 662//207 621//207 622//207
f 672//207 671//207 598//207
f 673//207 603//207 604//207
f 671//207 658//207 597//207
f 599//207 600//207 675//207
f 600//207 601//207 676//207
f 602//207 674//207 677//207
f 605//207 606//207 659//207
f 676//207 675//207 600//207
f 677//207 601//207 602//207
f 675//207 672//207 599//207
f 674//207 602//207 603//207
f 677//207 676//207 601//207
f 646//458 678//458 679//458
f 633//459 680//459 678//459
f 632//460 681//460 680//460
f 634//461 682//461 681//461
f 663//462 683//462 682//462
f 669//463 684//463 683//463
f 653//464 685//464 684//464
f 654//465 686//465 685//465
f 655//466 687//466 686//466
f 656//467 688//467 687//467
f 657//468 689//468 688//468
f 635//469 690//469 689//469
f 628//470 691//470 690//470
f 636//471 692//471 691//471
f 647//472 693//472 692//472
f 648//473 694//473 693//473
f 649//474 695//474 694//474
f 664//475 696//475 695//475
f 665//476 697//476 696//476
f 666//477 698//477 697//477
f 658//478 699//478 698//478
f 671//479 700//479 699//479
f 672//480 701//480 700//480
f 675//481 702//481 701//481
f 677//482 703//482 704//482
f 702//483 675//483 676//483
f 676//483 704//483 702//483
f 674//484 705//484 703//484
f 673//485 706//485 705//485
f 660//486 707//486 706//486
f 659//487 708//487 707//487
f 667//488 709//488 708//488
f 670//489 710//489 709//489
f 668//490 711//490 710//490
f 630//491 712//491 711//491
f 629//492 713//492 712//492
f 631//493 714//493 713//493
f 637//494 715//494 714//494
f 638//495 716//495 715//495
f 639//496 717//496 716//496
f 640//497 718//497 717//497
f 641//498 719//498 718//498
f 642//499 720//499 719//499
f 661//500 721//500 720//500
f 662//501 722//501 721//501
f 651//502 723//502 722//502
f 650//503 724//503 723//503
f 643//504 725//504 724//504
f 644//505 726//505 725//505
f 652//506 727//506 726//506
f 645//507 679//507 727//507
f 727//507 652//507 645//507
f 726//506 644//506 652//506
f 725//505 643//505 644//505
f 724//504 650//504 643//504
f 723//503 651//503 650//503
f 722//508 662//508 651//508
f 721//501 661//501 662//501
f 720//500 642//500 661//500
f 719//499 641//499 642//499
f 718//498 640//498 641//498
f 717//497 639//497 640//497
f 716//496 638//496 639//496
f 715//509 637//509 638//509
f 714//494 631//494 637//494
f 713//493 629//493 631//493
f 712//492 630//492 629//492
f 711//491 668//491 630//491
f 710//490 670//490 668//490
f 709//489 667//489 670//489
f 708//488 659//488 667//488
f 707//487 660//487 659//487
f 706//486 673//486 660//486
f 705//485 674//485 673//485
f 703//484 677//484 674//484
f 704//482 676//482 677//482
f 701//481 672//481 675//481
f 700//480 671//480 672//480
f 699//479 658//479 671//479
f 698//478 666//478 658//478
f 697//477 665//477 666//477
f 696//476 664//476 665//476
f 695//475 649//475 664//475
f 694//474 648//474 649//474
f 693//473 647//473 648//473
f 692//472 636//472 647//472
f 691//471 628//471 636//471
f 690//510 635//510 628//510
f 689//469 657//469 635//469
f 688//468 656//468 657//468
f 687//467 655//467 656//467
f 686//466 654//466 655//466
f 685//465 653//465 654//465
f 684//464 669//464 653//464
f 683//511 663//511 669//511
f 682//462 634//462 663//462
f 681//461 632//461 634//461
f 680//460 633//460 632//460
f 678//459 646//459 633//459
f 679//458 645//458 646//458
f 717//206 714//206 715//206
f 694//208 691//208 692//208
f 694//208 689//208 690//208
f 711//207 719//207 720//207
f 711//207 717//207 718//207
f 717//208 713//208 714//208
f 717//207 711//207 712//207
f 690//206 691//206 694//206
f 694//206 687//206 688//206
f 718//207 719//207 711//207
f 712//207 713//207 717//207
f 688//207 689//207 694//207
f 694//207 685//207 686//207
f 715//207 716//207 717//207
f 721//207 709//207 710//207
f 685//207 694//207 695//207
f 686//208 687//208 694//208
f 710//207 711//207 721//207
f 692//207 693//207 694//207
f 696//207 683//207 684//207
f 706//207 726//207 727//207
f 708//207 721//207 722//207
f 721//207 708//207 709//207
f 683//207 696//207 697//207
f 684//207 685//207 696//207
f 700//207 679//207 678//207
f 706//207 725//207 726//207
f 706//207 723//207 724//207
f 720//207 721//207 711//207
f 723//207 706//207 707//207
f 683//208 698//208 699//208
f 695//207 696//207 685//207
f 700//207 681//207 682//207
f 678//207 680//207 700//207
f 724//207 725//207 706//207
f 707//206 708//206 723//206
f 697//207 698//207 683//207
f 680//207 681//207 700//207
f 722//208 723//208 708//208
f 679//207 703//207 705//207
f 679//207 700//207 701//207
f 682//207 683//207 700//207
f 705//207 706//207 679//207
f 699//207 700//207 683//207
f 679//207 704//207 703//207
f 701//207 702//207 679//207
f 702//207 704//207 679//207
f 727//207 679//207 706//207
f 728//1 365//1 364//1
f 729//1 364//1 367//1
f 367//1 730//1 729//1
f 367//1 369//1 731//1
f 732//1 731//1 369//1
f 371//1 373//1 733//1
f 734//1 735//1 385//1
f 736//1 734//1 387//1
f 572//1 737//1 738//1
f 571//1 739//1 737//1
f 731//1 730//1 367//1
f 733//1 732//1 371//1
f 375//1 377//1 740//1
f 741//1 740//1 377//1
f 387//1 537//1 736//1
f 736//1 537//1 566//1
f 737//1 572//1 571//1
f 571//1 567//1 742//1
f 728//1 742//1 567//1
f 369//1 371//1 732//1
f 733//1 373//1 375//1
f 377//1 379//1 741//1
f 566//1 738//1 736//1
f 742//1 739//1 571//1
f 364//1 729//1 728//1
f 740//1 743//1 375//1
f 741//1 379//1 380//1
f 383//1 744//1 745//1
f 738//1 566//1 572//1
f 375//1 743//1 733//1
f 745//1 380//1 383//1
f 385//1 735//1 744//1
f 567//1 365//1 728//1
f 744//1 383//1 385//1
f 380//1 745//1 741//1
f 385//1 387//1 734//1
f 743//166 740//166 746//166
f 746//166 747//166 743//166
f 737//207 739//207 748//207
f 748//207 749//207 737//207
f 742//389 750//389 748//389
f 748//389 739//389 742//389
f 738//390 737//390 749//390
f 749//390 751//390 738//390
f 736//383 752//383 753//383
f 753//383 734//383 736//383
f 735//248 734//248 753//248
f 753//248 754//248 735//248
f 738//387 755//387 756//387
f 738//213 751//213 755//213
f 756//387 736//387 738//387
f 756//212 752//212 736//212
f 757//512 753//512 752//512
f 757//512 754//512 753//512
f 757//512 758//512 754//512
f 752//512 756//512 757//512
f 735//177 754//177 758//177
f 758//177 744//177 735//177
f 758//177 759//177 744//177
f 728//246 729//246 760//246
f 760//246 761//246 728//246
f 730//247 762//247 760//247
f 760//247 729//247 730//247
f 742//210 728//210 763//210
f 763//210 764//210 742//210
f 728//513 761//513 763//513
f 764//211 750//211 742//211
f 765//514 766//514 749//514
f 749//514 748//514 765//514
f 766//514 751//514 749//514
f 748//514 750//514 765//514
f 766//514 755//514 751//514
f 750//514 764//514 765//514
f 767//515 763//515 761//515
f 761//516 760//516 767//516
f 760//516 762//516 767//516
f 762//516 768//516 767//516
f 730//174 731//174 768//174
f 731//174 769//174 768//174
f 768//174 762//174 730//174
f 757//517 756//517 770//517
f 756//518 755//518 766//518
f 766//518 770//518 756//518
f 770//517 771//517 757//517
f 763//519 772//519 765//519
f 767//520 773//520 772//520
f 772//519 763//519 767//519
f 765//519 764//519 763//519
f 765//521 772//521 770//521
f 770//521 772//521 774//521
f 774//521 775//521 770//521
f 770//521 766//521 765//521
f 775//522 776//522 771//522
f 771//522 770//522 775//522
f 774//523 772//523 773//523
f 773//523 777//523 774//523
f 758//524 757//524 771//524
f 771//524 776//524 758//524
f 778//524 759//524 758//524
f 776//524 778//524 758//524
f 745//170 744//170 759//170
f 759//170 779//170 745//170
f 768//525 777//525 773//525
f 768//525 780//525 777//525
f 773//525 767//525 768//525
f 768//525 769//525 780//525
f 731//163 732//163 781//163
f 781//163 769//163 731//163
f 745//168 779//168 782//168
f 782//168 741//168 745//168
f 779//526 759//526 778//526
f 778//527 783//527 779//527
f 784//164 781//164 732//164
f 732//164 733//164 784//164
f 781//528 785//528 780//528
f 780//528 769//528 781//528
f 733//167 743//167 747//167
f 747//167 784//167 733//167
f 747//529 786//529 787//529
f 787//529 784//529 747//529
f 781//530 784//530 787//530
f 787//530 785//530 781//530
f 776//1 775//1 774//1
f 785//1 788//1 789//1
f 785//1 787//1 786//1
f 777//1 778//1 776//1
f 786//1 788//1 785//1
f 783//1 777//1 780//1
f 777//1 783//1 778//1
f 780//1 785//1 783//1
f 789//1 783//1 785//1
f 774//1 777//1 776//1
f 746//165 740//165 741//165
f 741//165 782//165 746//165
f 779//531 783//531 789//531
f 789//531 782//531 779//531
f 746//532 782//532 789//532
f 789//532 788//532 746//532
f 747//533 746//533 788//533
f 788//533 786//533 747//533
