mtllib material.mtl
usemtl Material_002
v 0.03366800 -0.03736300 0.05966100
v 0.04208400 -0.03398200 0.04868000
v 0.04062100 -0.03369900 0.05248000
v 0.03889100 -0.04439100 0.03442300
v 0.03507900 0.03456800 0.06269100
v 0.03365600 -0.04043600 0.05296800
v 0.03411100 0.03636500 0.06090900
v 0.03340600 0.03930200 0.05594800
v 0.03453200 -0.04224500 0.04731900
v 0.03714400 0.03371600 0.06004100
v 0.03404800 0.04144100 0.05000300
v 0.03889100 0.03339100 0.05688300
v 0.03640200 -0.04369300 0.04063600
v 0.04036300 0.03361200 0.05321500
v 0.04381200 -0.04126200 0.03103900
v 0.04438100 -0.03921600 0.03382200
v 0.04289900 0.03444100 0.04600900
v 0.03623000 0.04370400 0.04093400
v 0.03835900 0.04433400 0.03555600
v 0.04384700 0.03650700 0.04010200
v 0.04001900 0.04427400 0.03250500
v 0.04129600 0.04381400 0.03097100
v 0.04109900 -0.04390700 0.03116600
v 0.03966400 -0.04433000 0.03307100
v 0.04430400 0.03853000 0.03528900
v 0.04360200 0.04168300 0.03064500
v 0.04317700 -0.04232900 0.03023300
v 0.04268700 -0.04287100 0.03013600
v 0.04235200 -0.04316500 0.03021400
v 0.04226700 0.04323200 0.03024400
v 0.04265100 0.04290400 0.03013900
v 0.04298600 0.04256200 0.03015300
v 0.03741300 -0.03371300 0.05945400
v -0.03830700 0.04432800 0.03566500
v -0.04121600 0.04382300 0.03110600
v -0.04031400 0.04420300 0.00600000
v -0.04164100 0.04365400 0.00600000
v -0.04235100 0.04316500 0.03021500
v -0.04278000 0.04278000 0.00600000
v -0.04268700 0.04287100 0.03013600
v -0.04365400 0.04187900 0.03013500
v -0.04438100 0.03921600 0.03382200
v -0.04432700 0.03805900 0.03613900
v -0.04396000 0.03675700 0.03938600
v -0.04341200 0.03668500 0.00600000
v -0.04341200 0.03668500 0.00600000
v -0.04289400 0.03489300 0.04520000
v -0.04008800 0.03383000 0.00600000
v -0.03975600 0.03354500 0.05468100
v -0.03733800 -0.03383000 0.00600000
v -0.03940200 -0.03343900 0.05566500
v -0.04054100 -0.03603300 0.00600000
v -0.04081200 -0.03373700 0.05198200
v -0.04398000 -0.03859500 0.00600000
v -0.04200900 -0.03436000 0.04816100
v -0.04386700 -0.03681500 0.03948100
v -0.04439100 -0.03885500 0.03449200
v -0.04361100 -0.04194700 0.03009600
v -0.04278000 -0.04278000 0.00600000
v -0.04265100 -0.04290400 0.03013900
v -0.04164100 -0.04365400 0.00600000
v -0.04226700 -0.04323200 0.03024300
v -0.04078400 -0.04397900 0.03162400
v -0.04031400 -0.04420300 0.00600000
v -0.03852400 -0.04436600 0.03517300
v 0.03733800 -0.03383000 0.00600000
v 0.03733800 -0.03383000 0.00600000
v 0.03603300 -0.03724100 0.00600000
v 0.03369200 -0.03904400 0.00600000
v 0.03369200 -0.03904400 0.00600000
v 0.04031400 -0.04420300 0.00600000
v 0.04031400 0.04420300 0.00600000
v 0.03590300 0.04335400 0.00600000
v 0.03383000 0.03871300 0.00600000
v 0.03863000 0.03437000 0.00600000
v -0.03974500 0.04207800 0.00000000
v -0.03889100 0.04219100 0.00000000
v -0.03889100 0.04219100 0.00600000
v -0.03974500 0.04207800 0.00600000
v -0.04054100 0.04174900 0.00600000
v -0.04122400 0.04122400 0.00000000
v -0.04122400 0.04122400 0.00600000
v -0.04174900 0.04054100 0.00000000
v -0.04174900 0.04054100 0.00600000
v -0.04174900 0.04054100 0.00600000
v -0.04207800 0.03974500 0.00000000
v -0.04207800 0.03974500 0.00600000
v -0.04219100 0.03889100 0.00000000
v -0.04207800 0.03803700 0.00000000
v -0.04219100 0.03889100 0.00600000
v -0.04207800 0.03803700 0.00600000
v -0.04174900 0.03724100 0.00000000
v -0.04174900 0.03724100 0.00600000
v -0.04122400 0.03655700 0.00000000
v -0.04122400 0.03655700 0.00600000
v -0.04054100 0.03603300 0.00000000
v -0.04054100 0.03603300 0.00600000
v -0.03974500 0.03570300 0.00000000
v -0.03974500 0.03570300 0.00600000
v -0.03889100 0.03559100 0.00000000
v -0.03889100 0.03559100 0.00600000
v -0.03974500 -0.03570300 0.00000000
v -0.03889100 -0.03559100 0.00000000
v -0.03889100 -0.03559100 0.00600000
v -0.03974500 -0.03570300 0.00600000
v -0.04054100 -0.03603300 0.00000000
v -0.04122400 -0.03655700 0.00000000
v -0.04122400 -0.03655700 0.00600000
v -0.04174900 -0.03724100 0.00000000
v -0.04174900 -0.03724100 0.00600000
v -0.04207800 -0.03803700 0.00000000
v -0.04207800 -0.03803700 0.00600000
v -0.04219100 -0.03889100 0.00000000
v -0.04207800 -0.03974500 0.00000000
v -0.04219100 -0.03889100 0.00600000
v -0.04207800 -0.03974500 0.00600000
v -0.04174900 -0.04054100 0.00000000
v -0.04174900 -0.04054100 0.00600000
v -0.04122400 -0.04122400 0.00000000
v -0.04122400 -0.04122400 0.00600000
v -0.04054100 -0.04174900 0.00000000
v -0.04054100 -0.04174900 0.00600000
v -0.03974500 -0.04207800 0.00000000
v -0.03974500 -0.04207800 0.00600000
v -0.03889100 -0.04219100 0.00000000
v -0.03889100 -0.04219100 0.00000000
v -0.03889100 -0.04219100 0.00600000
v 0.03803700 -0.03570300 0.00000000
v 0.03889100 -0.03559100 0.00000000
v 0.03889100 -0.03559100 0.00600000
v 0.03803700 -0.03570300 0.00600000
v 0.03724100 -0.03603300 0.00000000
v 0.03724100 -0.03603300 0.00600000
v 0.03655700 -0.03655700 0.00000000
v 0.03655700 -0.03655700 0.00000000
v 0.03655700 -0.03655700 0.00600000
v 0.03655700 -0.03655700 0.00600000
v 0.03603300 -0.03724100 0.00000000
v 0.03570300 -0.03803700 0.00000000
v 0.03570300 -0.03803700 0.00600000
v 0.03570300 -0.03803700 0.00600000
v 0.03559100 -0.03889100 0.00000000
v 0.03570300 -0.03974500 0.00000000
v 0.03559100 -0.03889100 0.00600000
v 0.03570300 -0.03974500 0.00600000
v 0.03603300 -0.04054100 0.00000000
v 0.03603300 -0.04054100 0.00600000
v 0.03655700 -0.04122400 0.00000000
v 0.03655700 -0.04122400 0.00600000
v 0.03724100 -0.04174900 0.00000000
v 0.03724100 -0.04174900 0.00600000
v 0.03803700 -0.04207800 0.00000000
v 0.03803700 -0.04207800 0.00600000
v 0.03889100 -0.04219100 0.00600000
v 0.03803700 0.04207800 0.00000000
v 0.03889100 0.04219100 0.00000000
v 0.03889100 0.04219100 0.00600000
v 0.03803700 0.04207800 0.00600000
v 0.03724100 0.04174900 0.00000000
v 0.03724100 0.04174900 0.00600000
v 0.03655700 0.04122400 0.00000000
v 0.03655700 0.04122400 0.00600000
v 0.03603300 0.04054100 0.00000000
v 0.03603300 0.04054100 0.00600000
v 0.03570300 0.03974500 0.00000000
v 0.03570300 0.03974500 0.00600000
v 0.03570300 0.03803700 0.00000000
v 0.03559100 0.03889100 0.00600000
v 0.03570300 0.03803700 0.00600000
v 0.03603300 0.03724100 0.00000000
v 0.03603300 0.03724100 0.00600000
v 0.03655700 0.03655700 0.00000000
v 0.03655700 0.03655700 0.00600000
v 0.03724100 0.03603300 0.00000000
v 0.03724100 0.03603300 0.00600000
v 0.03803700 0.03570300 0.00000000
v 0.03803700 0.03570300 0.00600000
v 0.03889100 0.03559100 0.00600000
v -0.03803700 0.04207800 0.00000000
v -0.03724100 0.04174900 0.00000000
v -0.03655700 0.04122400 0.00000000
v -0.03803700 -0.03570300 0.00000000
v -0.03603300 0.04054100 0.00000000
v 0.03974500 0.04207800 0.00000000
v -0.03724100 -0.03603300 0.00000000
v 0.03974500 -0.03570300 0.00000000
v 0.04054100 0.04174900 0.00000000
v -0.03655700 -0.03655700 0.00000000
v 0.04122400 0.04122400 0.00000000
v 0.04054100 -0.03603300 0.00000000
v 0.04174900 0.04054100 0.00000000
v -0.03570300 0.03974500 0.00000000
v 0.04122400 -0.03655700 0.00000000
v 0.04174900 -0.03724100 0.00000000
v -0.03559100 0.03889100 0.00000000
v 0.04207800 0.03974500 0.00000000
v -0.03570300 -0.03803700 0.00000000
v -0.03803700 0.03570300 0.00000000
v 0.04207800 -0.03803700 0.00000000
v -0.03570300 0.03803700 0.00000000
v -0.03559100 -0.03889100 0.00000000
v -0.03724100 0.03603300 0.00000000
v 0.04207800 0.03803700 0.00000000
v -0.03603300 0.03724100 0.00000000
v 0.03974500 0.03570300 0.00000000
v -0.03570300 -0.03974500 0.00000000
v -0.03655700 0.03655700 0.00000000
v -0.03803700 -0.04207800 0.00000000
v -0.03803700 -0.04207800 0.00000000
v 0.04054100 0.03603300 0.00000000
v -0.03655700 -0.04122400 0.00000000
v 0.04122400 0.03655700 0.00000000
v -0.03724100 -0.04174900 0.00000000
v 0.04219100 -0.03889100 0.00000000
v 0.03974500 -0.04207800 0.00000000
v 0.03974500 -0.04207800 0.00000000
v 0.04174900 -0.04054100 0.00000000
v 0.04207800 -0.03974500 0.00000000
v 0.04054100 -0.04174900 0.00000000
v 0.04122400 -0.04122400 0.00000000
v 0.03974500 0.03570300 0.00600000
v 0.04054100 0.03603300 0.00600000
v 0.04122400 0.03655700 0.00600000
v 0.04174900 0.03724100 0.00600000
v 0.04207800 0.03803700 0.00600000
v 0.04219100 0.03889100 0.00600000
v 0.04207800 0.03974500 0.00600000
v 0.04174900 0.04054100 0.00600000
v 0.04122400 0.04122400 0.00600000
v 0.04122400 0.04122400 0.00600000
v 0.04054100 0.04174900 0.00600000
v 0.03974500 0.04207800 0.00600000
v 0.03974500 0.04207800 0.00600000
v 0.03974500 -0.04207800 0.00600000
v 0.04054100 -0.04174900 0.00600000
v 0.04122400 -0.04122400 0.00600000
v 0.04174900 -0.04054100 0.00600000
v 0.04207800 -0.03974500 0.00600000
v 0.04219100 -0.03889100 0.00600000
v 0.04207800 -0.03803700 0.00600000
v 0.04174900 -0.03724100 0.00600000
v 0.04122400 -0.03655700 0.00600000
v 0.04054100 -0.03603300 0.00600000
v 0.03974500 -0.03570300 0.00600000
v -0.03803700 -0.04207800 0.00600000
v -0.03724100 -0.04174900 0.00600000
v -0.03655700 -0.04122400 0.00600000
v -0.03603300 -0.04054100 0.00600000
v -0.03570300 -0.03974500 0.00600000
v -0.03559100 -0.03889100 0.00600000
v -0.03570300 -0.03803700 0.00600000
v -0.03603300 -0.03724100 0.00600000
v -0.03655700 -0.03655700 0.00600000
v -0.03724100 -0.03603300 0.00600000
v -0.03803700 -0.03570300 0.00600000
v -0.03803700 0.03570300 0.00600000
v -0.03724100 0.03603300 0.00600000
v -0.03655700 0.03655700 0.00600000
v -0.03603300 0.03724100 0.00600000
v -0.03570300 0.03803700 0.00600000
v -0.03559100 0.03889100 0.00600000
v -0.03570300 0.03974500 0.00600000
v -0.03603300 0.04054100 0.00600000
v -0.03655700 0.04122400 0.00600000
v -0.03724100 0.04174900 0.00600000
v -0.03803700 0.04207800 0.00600000
v 0.04395200 0.03769400 0.00600000
v 0.04164100 0.04365400 0.00600000
v 0.04278000 0.04278000 0.00600000
v 0.04278000 -0.04278000 0.00600000
v 0.04267500 -0.03532400 0.00600000
v 0.04267500 -0.03532400 0.00600000
v 0.04164100 -0.04365400 0.00600000
v -0.03434700 -0.04091200 0.00600000
v -0.03383000 0.04008800 0.00600000
v -0.03383000 0.04008800 0.00600000
v -0.03658800 -0.04375800 0.04014600
v -0.03420700 -0.04177400 0.04896800
v -0.03353100 -0.03963600 0.05496900
v -0.03361600 -0.03733300 0.05983900
v -0.03490700 -0.03500500 0.06213700
v -0.03634300 -0.03406100 0.06106600
v -0.03791600 0.03347800 0.05884600
v -0.03638800 0.03401500 0.06106900
v -0.03403400 0.03644900 0.06089000
v -0.03466700 0.03530400 0.06202400
v -0.03343100 0.03918500 0.05615700
v -0.03360100 0.04145700 0.05078300
v -0.03485300 0.04284400 0.04538500
v -0.03674200 0.04395400 0.03942700
v -0.04421500 -0.03324100 0.00000000
v 0.04317700 -0.04232900 0.03023300
v 0.04317700 -0.04232900 0.03023300
v 0.04268700 -0.04287100 0.03013600
v 0.04268700 -0.04287100 0.03013600
v 0.04268700 -0.04287100 0.03013600
v -0.03724100 -0.03603300 0.00000000
v -0.03655700 -0.03655700 0.00000000
v 0.04054100 0.04174900 0.00000000
v 0.04054100 0.04174900 0.00000000
v 0.04122400 0.04122400 0.00000000
v 0.04122400 0.04122400 0.00000000
v 0.04265100 0.04290400 0.03013900
v 0.04265100 0.04290400 0.03013900
v 0.04164100 0.04365400 0.00600000
v 0.04164100 0.04365400 0.00600000
v -0.03570300 0.03803700 0.00000000
v -0.03603300 0.03724100 0.00000000
v -0.03603300 0.03724100 0.00000000
v -0.03655700 -0.04122400 0.00000000
v -0.03655700 -0.04122400 0.00600000
v -0.03655700 -0.04122400 0.00600000
v 0.04174900 -0.04054100 0.00000000
v 0.04174900 -0.04054100 0.00600000
v 0.04174900 -0.04054100 0.00600000
v 0.04207800 -0.03974500 0.00000000
v 0.04207800 -0.03974500 0.00600000
v 0.04207800 -0.03974500 0.00600000
v 0.04207800 -0.03974500 0.00600000
v 0.04219100 0.03889100 0.00000000
v 0.04219100 0.03889100 0.00000000
v 0.04219100 0.03889100 0.00600000
v 0.04219100 0.03889100 0.00600000
v -0.03603300 0.04054100 0.00000000
v -0.03570300 0.03974500 0.00000000
v 0.03974500 0.04207800 0.00000000
v 0.03974500 0.03570300 0.00000000
v 0.03974500 0.03570300 0.00600000
v 0.03974500 0.03570300 0.00600000
v -0.03803700 -0.04207800 0.00000000
v -0.03724100 -0.04174900 0.00000000
v 0.04207800 0.03803700 0.00000000
v 0.04207800 0.03803700 0.00600000
v 0.04207800 0.03803700 0.00600000
v 0.04298600 0.04256200 0.03015300
v 0.04298600 0.04256200 0.03015300
v 0.04278000 0.04278000 0.00600000
v 0.04278000 0.04278000 0.00600000
v 0.04278000 0.04278000 0.00600000
v 0.04278000 0.04278000 0.00600000
v -0.03655700 0.04122400 0.00000000
v -0.03655700 0.04122400 0.00000000
v -0.03803700 0.03570300 0.00000000
v -0.03724100 0.03603300 0.00000000
v -0.03724100 0.03603300 0.00000000
v 0.04054100 -0.04174900 0.00000000
v 0.04054100 -0.04174900 0.00600000
v 0.04054100 -0.04174900 0.00600000
v 0.04054100 -0.04174900 0.00600000
v -0.03559100 0.03889100 0.00000000
v -0.03724100 -0.04174900 0.00600000
v -0.03724100 -0.04174900 0.00600000
v -0.03724100 -0.04174900 0.00600000
v 0.04174900 -0.03724100 0.00000000
v 0.04207800 -0.03803700 0.00000000
v -0.03570300 -0.03803700 0.00000000
v -0.03559100 -0.03889100 0.00000000
v 0.03974500 -0.04207800 0.00000000
v 0.03974500 -0.04207800 0.00600000
v 0.03974500 -0.04207800 0.00600000
v 0.03974500 -0.04207800 0.00600000
v 0.04397300 -0.03711200 0.03869000
v 0.04219100 -0.03889100 0.00000000
v 0.04219100 -0.03889100 0.00600000
v 0.04219100 -0.03889100 0.00600000
v 0.04219100 -0.03889100 0.00600000
v 0.04235200 -0.04316500 0.03021400
v 0.04235200 -0.04316500 0.03021400
v 0.04235200 -0.04316500 0.03021400
v -0.04122400 0.04122400 0.00000000
v -0.04122400 0.04122400 0.00000000
v -0.04174900 0.04054100 0.00000000
v -0.04054100 0.04174900 0.00600000
v -0.04054100 0.04174900 0.00600000
v -0.04054100 0.04174900 0.00600000
v -0.04122400 0.04122400 0.00600000
v -0.04122400 0.04122400 0.00600000
v -0.04054100 0.04174900 0.00000000
v -0.04054100 0.04174900 0.00000000
v -0.04054100 0.04174900 0.00000000
v -0.04207800 0.03974500 0.00000000
v -0.03803700 -0.03570300 0.00000000
v -0.03724100 0.04174900 0.00600000
v -0.03724100 0.04174900 0.00600000
v -0.03724100 0.04174900 0.00600000
v -0.03724100 0.04174900 0.00600000
v -0.03383000 0.04008800 0.00600000
v -0.03383000 0.04008800 0.00600000
v -0.03974500 0.04207800 0.00600000
v -0.03974500 0.04207800 0.00600000
v -0.03974500 0.04207800 0.00600000
v 0.03889100 -0.04219100 0.00600000
v 0.03889100 -0.04219100 0.00600000
v -0.04219100 0.03889100 0.00000000
v -0.04174900 0.04054100 0.00600000
v -0.04174900 0.04054100 0.00600000
v -0.04207800 0.03974500 0.00600000
v -0.04207800 0.03974500 0.00600000
v -0.04207800 0.03974500 0.00600000
v -0.03974500 0.04207800 0.00000000
v -0.03889100 0.04219100 0.00000000
v 0.04278000 -0.04278000 0.00600000
v 0.04278000 -0.04278000 0.00600000
v 0.04278000 -0.04278000 0.00600000
v 0.04278000 -0.04278000 0.00600000
v 0.04278000 -0.04278000 0.00600000
v 0.04278000 -0.04278000 0.00600000
v -0.03570300 -0.03974500 0.00000000
v -0.03570300 -0.03974500 0.00600000
v -0.03570300 -0.03974500 0.00600000
v -0.03889100 0.04219100 0.00600000
v -0.03889100 0.04219100 0.00600000
v -0.03803700 0.04207800 0.00600000
v -0.03803700 0.04207800 0.00600000
v -0.03803700 0.04207800 0.00600000
v -0.03803700 0.04207800 0.00600000
v -0.03803700 0.04207800 0.00600000
v -0.03803700 -0.04207800 0.00600000
v -0.03803700 -0.04207800 0.00600000
v -0.03803700 -0.04207800 0.00600000
v 0.04226700 0.04323200 0.03024400
v 0.04226700 0.04323200 0.03024400
v 0.04226700 0.04323200 0.03024400
v 0.03889100 0.03559100 0.00600000
v 0.03889100 0.03559100 0.00600000
v 0.03889100 0.04219100 0.00600000
v 0.03889100 0.04219100 0.00600000
v 0.03974500 0.04207800 0.00600000
v 0.03974500 0.04207800 0.00600000
v 0.03383000 0.03871300 0.00600000
v 0.03863000 0.03437000 0.00600000
v -0.03603300 -0.04054100 0.00000000
v -0.03603300 -0.04054100 0.00000000
v -0.03603300 -0.04054100 0.00600000
v -0.03603300 -0.04054100 0.00600000
v -0.03655700 0.03655700 0.00000000
v -0.03655700 0.03655700 0.00600000
v -0.03655700 0.03655700 0.00600000
v -0.03655700 0.03655700 0.00600000
v -0.03655700 0.03655700 0.00600000
v -0.03655700 0.03655700 0.00600000
v -0.03655700 0.03655700 0.00600000
v 0.03369200 -0.03904400 0.00600000
v 0.03369200 -0.03904400 0.00600000
v 0.04031400 -0.04420300 0.00600000
v 0.04031400 -0.04420300 0.00600000
v 0.04031400 -0.04420300 0.00600000
v 0.04031400 -0.04420300 0.00600000
v 0.04122400 -0.04122400 0.00000000
v -0.03603300 0.03724100 0.00600000
v -0.03603300 0.03724100 0.00600000
v 0.03590300 0.04335400 0.00600000
v -0.03889100 -0.04219100 0.00000000
v -0.03889100 -0.04219100 0.00000000
v 0.04031400 0.04420300 0.00600000
v 0.04031400 0.04420300 0.00600000
v 0.04031400 0.04420300 0.00600000
v 0.04031400 0.04420300 0.00600000
v -0.03559100 -0.03889100 0.00600000
v -0.03559100 -0.03889100 0.00600000
v 0.04122400 0.03655700 0.00000000
v 0.04122400 0.03655700 0.00600000
v 0.04122400 0.03655700 0.00600000
v 0.04174900 0.03724100 0.00000000
v 0.04174900 0.03724100 0.00000000
v 0.04174900 0.03724100 0.00600000
v 0.04174900 0.03724100 0.00600000
v -0.03724100 0.03603300 0.00600000
v -0.03724100 0.03603300 0.00600000
v 0.04054100 -0.03603300 0.00000000
v 0.04122400 -0.03655700 0.00000000
v 0.04207800 0.03974500 0.00600000
v 0.04207800 0.03974500 0.00600000
v 0.03803700 -0.03570300 0.00000000
v 0.03803700 -0.03570300 0.00600000
v 0.03803700 -0.03570300 0.00600000
v 0.03724100 -0.03603300 0.00000000
v 0.04174900 0.04054100 0.00600000
v 0.04174900 0.04054100 0.00600000
v 0.04174900 0.04054100 0.00600000
v 0.04174900 0.04054100 0.00600000
v 0.03889100 -0.03559100 0.00000000
v 0.04054100 0.04174900 0.00600000
v 0.04054100 0.04174900 0.00600000
v 0.04054100 0.04174900 0.00600000
v 0.04122400 0.04122400 0.00600000
v 0.04122400 0.04122400 0.00600000
v 0.03889100 -0.03559100 0.00600000
v 0.03889100 -0.03559100 0.00600000
v 0.04122400 -0.04122400 0.00600000
v 0.04122400 -0.04122400 0.00600000
v 0.03655700 -0.03655700 0.00000000
v 0.03655700 -0.03655700 0.00600000
v 0.03655700 -0.03655700 0.00600000
v 0.03603300 -0.03724100 0.00000000
v 0.03603300 -0.03724100 0.00000000
v 0.03724100 -0.03603300 0.00600000
v 0.03724100 -0.03603300 0.00600000
v 0.03603300 -0.04054100 0.00000000
v 0.03655700 -0.04122400 0.00000000
v 0.03570300 -0.03974500 0.00600000
v 0.03570300 -0.03974500 0.00600000
v 0.03603300 -0.04054100 0.00600000
v 0.03603300 -0.04054100 0.00600000
v 0.03559100 -0.03889100 0.00600000
v 0.03559100 -0.03889100 0.00600000
v 0.03655700 -0.04122400 0.00600000
v 0.03655700 -0.04122400 0.00600000
v 0.03559100 -0.03889100 0.00000000
v 0.03570300 -0.03974500 0.00000000
v 0.03724100 -0.04174900 0.00600000
v 0.03724100 -0.04174900 0.00600000
v 0.03724100 -0.04174900 0.00600000
v 0.03724100 -0.04174900 0.00000000
v 0.03803700 -0.04207800 0.00600000
v 0.03803700 -0.04207800 0.00600000
v 0.03803700 -0.04207800 0.00600000
v 0.03803700 -0.04207800 0.00000000
v 0.03803700 -0.04207800 0.00000000
v 0.03889100 -0.04219100 0.00000000
v 0.03889100 -0.04219100 0.00000000
v 0.03889100 -0.04219100 0.00000000
v 0.03889100 -0.04219100 0.00000000
v 0.03570300 -0.03803700 0.00600000
v 0.03570300 -0.03803700 0.00600000
v 0.03570300 -0.03803700 0.00600000
v 0.03570300 -0.03803700 0.00000000
v -0.03724100 0.04174900 0.00000000
v -0.03724100 0.04174900 0.00000000
v -0.03889100 -0.03559100 0.00000000
v -0.03889100 0.03559100 0.00000000
v -0.03803700 0.04207800 0.00000000
v -0.04031400 -0.04420300 0.00600000
v -0.04031400 -0.04420300 0.00600000
v -0.04031400 -0.04420300 0.00600000
v -0.04031400 -0.04420300 0.00600000
v -0.03434700 -0.04091200 0.00600000
v 0.03733800 -0.03383000 0.00600000
v 0.04267500 -0.03532400 0.00600000
v 0.04267500 -0.03532400 0.00600000
v 0.04054100 0.03603300 0.00600000
v 0.04054100 0.03603300 0.00600000
v 0.03724100 0.03603300 0.00000000
v 0.03803700 0.03570300 0.00000000
v 0.03603300 -0.03724100 0.00600000
v 0.03603300 -0.03724100 0.00600000
v 0.03603300 -0.03724100 0.00600000
v 0.03603300 -0.03724100 0.00600000
v 0.03603300 -0.03724100 0.00600000
v 0.03603300 -0.03724100 0.00600000
v 0.03724100 0.03603300 0.00600000
v 0.03724100 0.03603300 0.00600000
v 0.03803700 0.03570300 0.00600000
v 0.03803700 0.03570300 0.00600000
v 0.03655700 0.03655700 0.00000000
v 0.03655700 0.03655700 0.00600000
v 0.03655700 0.03655700 0.00600000
v 0.03889100 0.03559100 0.00000000
v 0.03889100 0.03559100 0.00000000
v 0.03559100 0.03889100 0.00600000
v 0.03559100 0.03889100 0.00600000
v 0.03570300 0.03803700 0.00600000
v 0.03570300 0.03803700 0.00600000
v -0.03655700 0.04122400 0.00600000
v -0.03655700 0.04122400 0.00600000
v -0.03655700 0.04122400 0.00600000
v 0.03603300 0.03724100 0.00600000
v 0.03603300 0.03724100 0.00600000
v 0.03603300 0.03724100 0.00000000
v -0.04387300 0.03310500 0.00000000
v -0.03603300 0.04054100 0.00600000
v -0.03603300 0.04054100 0.00600000
v 0.03655700 0.04122400 0.00000000
v 0.03655700 0.04122400 0.00000000
v 0.03603300 0.04054100 0.00000000
v 0.03655700 0.04122400 0.00600000
v 0.03655700 0.04122400 0.00600000
v 0.04395200 0.03769400 0.00600000
v 0.03724100 0.04174900 0.00000000
v 0.03724100 0.04174900 0.00000000
v 0.03724100 0.04174900 0.00600000
v 0.03724100 0.04174900 0.00600000
v 0.03724100 0.04174900 0.00600000
v -0.04031400 0.04420300 0.00600000
v -0.04031400 0.04420300 0.00600000
v -0.04031400 0.04420300 0.00600000
v -0.04031400 0.04420300 0.00600000
v 0.03803700 0.04207800 0.00600000
v 0.03803700 0.04207800 0.00600000
v 0.03803700 0.04207800 0.00600000
v -0.04054100 -0.03603300 0.00600000
v -0.04054100 -0.03603300 0.00600000
v -0.04054100 -0.03603300 0.00600000
v -0.04054100 -0.03603300 0.00600000
v -0.04054100 -0.03603300 0.00600000
v -0.03974500 -0.03570300 0.00600000
v -0.03974500 -0.03570300 0.00600000
v -0.03974500 -0.03570300 0.00600000
v -0.03570300 0.03803700 0.00600000
v -0.03570300 0.03803700 0.00600000
v -0.03559100 0.03889100 0.00600000
v -0.03559100 0.03889100 0.00600000
v -0.04054100 -0.03603300 0.00000000
v -0.03889100 -0.03559100 0.00600000
v -0.03889100 -0.03559100 0.00600000
v -0.03803700 -0.03570300 0.00600000
v -0.03803700 -0.03570300 0.00600000
v -0.04122400 -0.03655700 0.00600000
v -0.04122400 -0.03655700 0.00600000
v -0.04122400 -0.03655700 0.00600000
v -0.03724100 -0.03603300 0.00600000
v -0.03724100 -0.03603300 0.00600000
v 0.03803700 0.04207800 0.00000000
v 0.03889100 0.04219100 0.00000000
v -0.03803700 0.03570300 0.00600000
v -0.03803700 0.03570300 0.00600000
v 0.04164100 -0.04365400 0.00600000
v 0.04164100 -0.04365400 0.00600000
v -0.03889100 0.03559100 0.00600000
v -0.03889100 0.03559100 0.00600000
v -0.03603300 -0.03724100 0.00600000
v -0.03603300 -0.03724100 0.00600000
v -0.03603300 -0.03724100 0.00600000
v -0.03603300 -0.03724100 0.00600000
v -0.03655700 -0.03655700 0.00600000
v -0.03655700 -0.03655700 0.00600000
v -0.03655700 -0.03655700 0.00600000
v 0.04054100 -0.03603300 0.00600000
v 0.04054100 -0.03603300 0.00600000
v 0.03974500 -0.03570300 0.00600000
v 0.03974500 -0.03570300 0.00600000
v 0.04122400 -0.03655700 0.00600000
v 0.04122400 -0.03655700 0.00600000
v -0.03570300 0.03974500 0.00600000
v -0.03570300 0.03974500 0.00600000
v 0.04207800 -0.03803700 0.00600000
v 0.04207800 -0.03803700 0.00600000
v 0.04174900 -0.03724100 0.00600000
v 0.04174900 -0.03724100 0.00600000
v -0.03570300 -0.03803700 0.00600000
v -0.03570300 -0.03803700 0.00600000
v -0.03570300 -0.03803700 0.00600000
v -0.03889100 -0.04219100 0.00600000
v -0.03889100 -0.04219100 0.00600000
v -0.03974500 -0.04207800 0.00600000
v -0.03974500 -0.04207800 0.00600000
v -0.03974500 -0.04207800 0.00600000
v 0.03603300 0.04054100 0.00600000
v 0.03603300 0.04054100 0.00600000
v 0.03570300 0.03974500 0.00000000
v -0.04054100 -0.04174900 0.00600000
v -0.04054100 -0.04174900 0.00600000
v -0.04054100 -0.04174900 0.00600000
v 0.03570300 0.03974500 0.00600000
v 0.03570300 0.03974500 0.00600000
v -0.03974500 -0.04207800 0.00000000
v -0.03974500 -0.04207800 0.00000000
v 0.03559100 0.03889100 0.00000000
v 0.03559100 0.03889100 0.00000000
v 0.03570300 0.03803700 0.00000000
v -0.04122400 -0.04122400 0.00000000
v -0.04122400 -0.04122400 0.00600000
v -0.04122400 -0.04122400 0.00600000
v -0.04054100 -0.04174900 0.00000000
v -0.04207800 -0.03803700 0.00000000
v -0.04207800 -0.03803700 0.00600000
v -0.04207800 -0.03803700 0.00600000
v -0.04207800 -0.03974500 0.00000000
v -0.04174900 -0.04054100 0.00000000
v -0.04219100 -0.03889100 0.00000000
v -0.04219100 -0.03889100 0.00600000
v -0.04219100 -0.03889100 0.00600000
v -0.04207800 -0.03974500 0.00600000
v -0.04207800 -0.03974500 0.00600000
v -0.04174900 -0.03724100 0.00000000
v -0.04174900 -0.03724100 0.00000000
v -0.04174900 -0.03724100 0.00600000
v -0.04174900 -0.03724100 0.00600000
v -0.04122400 -0.03655700 0.00000000
v -0.04122400 -0.03655700 0.00000000
v 0.04174900 0.04054100 0.00000000
v 0.04174900 0.04054100 0.00000000
v -0.04174900 -0.04054100 0.00600000
v -0.04174900 -0.04054100 0.00600000
v -0.04341200 0.03668500 0.00600000
v -0.04008800 0.03383000 0.00600000
v -0.03733800 -0.03383000 0.00600000
v -0.03733800 -0.03383000 0.00600000
v -0.04268700 0.04287100 0.03013600
v -0.04268700 0.04287100 0.03013600
v -0.04365400 0.04187900 0.03013500
v -0.04365400 0.04187900 0.03013500
v -0.04278000 0.04278000 0.00600000
v -0.04278000 0.04278000 0.00600000
v -0.04278000 0.04278000 0.00600000
v -0.04278000 0.04278000 0.00600000
v -0.04235100 0.04316500 0.03021500
v -0.04235100 0.04316500 0.03021500
v -0.04235100 0.04316500 0.03021500
v -0.04164100 0.04365400 0.00600000
v -0.04164100 0.04365400 0.00600000
v -0.04278000 -0.04278000 0.00600000
v -0.04278000 -0.04278000 0.00600000
v -0.04278000 -0.04278000 0.00600000
v -0.04278000 -0.04278000 0.00600000
v -0.04174900 0.03724100 0.00000000
v -0.04174900 0.03724100 0.00000000
v -0.04122400 0.03655700 0.00000000
v -0.04122400 0.03655700 0.00000000
v -0.04226700 -0.04323200 0.03024300
v -0.04226700 -0.04323200 0.03024300
v -0.04226700 -0.04323200 0.03024300
v -0.04361100 -0.04194700 0.03009600
v -0.04361100 -0.04194700 0.03009600
v -0.04265100 -0.04290400 0.03013900
v -0.04265100 -0.04290400 0.03013900
v -0.03603300 -0.03724100 0.00000000
v -0.03603300 -0.03724100 0.00000000
v -0.03603300 -0.03724100 0.00000000
v -0.03603300 -0.03724100 0.00000000
v -0.04174900 0.03724100 0.00600000
v -0.04174900 0.03724100 0.00600000
v 0.04207800 0.03974500 0.00000000
v -0.04207800 0.03803700 0.00600000
v -0.04207800 0.03803700 0.00600000
v -0.04164100 -0.04365400 0.00600000
v -0.04164100 -0.04365400 0.00600000
v -0.04207800 0.03803700 0.00000000
v -0.04219100 0.03889100 0.00600000
v -0.04219100 0.03889100 0.00600000
v 0.03487800 -0.03531500 0.06154400
v 0.04054100 0.03603300 0.00000000
v -0.04122400 0.03655700 0.00600000
v -0.04122400 0.03655700 0.00600000
v -0.04054100 0.03603300 0.00000000
v -0.03974500 0.03570300 0.00000000
v -0.04054100 0.03603300 0.00600000
v -0.04054100 0.03603300 0.00600000
v -0.03974500 0.03570300 0.00600000
v -0.03974500 0.03570300 0.00600000
v -0.03974500 -0.03570300 0.00000000
v -0.03974500 -0.03570300 0.00000000
v 0.03974500 -0.03570300 0.00000000
v -0.04398000 -0.03859500 0.00600000
v -0.04398000 -0.03859500 0.00600000
vn 0.64190000 -0.69520000 0.32340000
vn 0.71560000 -0.61790000 0.32580000
vn 0.71190000 -0.62540000 0.31960000
vn 0.62980000 -0.70160000 0.33340000
vn 0.67170000 0.66460000 0.32720000
vn 0.62620000 -0.71020000 0.32160000
vn 0.64650000 0.68990000 0.32570000
vn 0.63080000 0.70690000 0.31990000
vn 0.62280000 -0.71120000 0.32620000
vn 0.69520000 0.64310000 0.32120000
vn 0.62400000 0.71120000 0.32370000
vn 0.70170000 0.63570000 0.32180000
vn 0.62370000 -0.70810000 0.33110000
vn 0.71060000 0.62680000 0.31970000
vn 0.68630000 -0.64510000 0.33580000
vn 0.70150000 -0.62970000 0.33370000
vn 0.71570000 0.61730000 0.32650000
vn 0.62140000 0.70940000 0.33240000
vn 0.62960000 0.70220000 0.33240000
vn 0.70730000 0.62270000 0.33460000
vn 0.63990000 0.69400000 0.32990000
vn 0.64520000 0.68620000 0.33580000
vn 0.64460000 -0.68690000 0.33560000
vn 0.64010000 -0.69290000 0.33200000
vn 0.70170000 0.63060000 0.33180000
vn 0.68520000 0.64600000 0.33630000
vn -0.74200000 0.67050000 -0.00030000
vn -0.65680000 0.75370000 0.02290000
vn 0.50000000 -0.86600000 -0.00490000
vn 0.68220000 0.73120000 0.00080000
vn -0.38270000 -0.92380000 -0.01270000
vn -0.71460000 -0.69960000 -0.00020000
vn 0.69570000 -0.64280000 0.32080000
vn -0.63000000 0.70210000 0.33180000
vn -0.64490000 0.68650000 0.33580000
vn -0.50000000 0.86600000 -0.00490000
vn 0.60870000 -0.79340000 0.00060000
vn -0.70270000 0.71150000 0.00110000
vn -0.70270000 0.71150000 0.00110000
vn 0.65580000 -0.75460000 0.02280000
vn -0.70270000 0.71150000 0.00110000
vn -0.70080000 0.63070000 0.33340000
vn -0.70490000 0.62920000 0.32760000
vn -0.70670000 0.62350000 0.33440000
vn -0.00000000 -0.00000000 1.00000000
vn -0.00010000 -0.00000000 1.00000000
vn -0.71360000 0.62010000 0.32590000
vn -0.00000000 -0.00000000 1.00000000
vn -0.70790000 0.62980000 0.31970000
vn -0.00000000 -0.00000000 -1.00000000
vn -0.70800000 -0.63020000 0.31870000
vn -0.00240000 0.00320000 1.00000000
vn -0.70970000 -0.62480000 0.32550000
vn -0.00000000 -0.00000000 -1.00000000
vn -0.71170000 -0.62210000 0.32640000
vn -0.70540000 -0.62620000 0.33220000
vn -0.70190000 -0.63040000 0.33160000
vn -0.69120000 -0.72270000 0.00110000
vn -0.50000000 -0.86600000 -0.00560000
vn 0.64640000 0.76270000 0.02150000
vn 0.38260000 0.92380000 -0.01270000
vn -0.50000000 -0.86600000 -0.00560000
vn -0.64370000 -0.68720000 0.33690000
vn -0.50000000 -0.86600000 -0.00560000
vn -0.62970000 -0.70250000 0.33170000
vn -0.00000000 -0.00000000 1.00000000
vn -0.00020000 0.00010000 1.00000000
vn -0.00020000 0.00010000 1.00000000
vn -0.00000000 -0.00000000 1.00000000
vn -0.00000000 0.00010000 1.00000000
vn -0.65680000 0.75370000 0.02290000
vn -0.38270000 -0.92380000 -0.01270000
vn -0.00000000 -0.00000000 1.00000000
vn -0.00000000 -0.00000000 1.00000000
vn -0.00000000 -0.00000000 -1.00000000
vn 0.38240000 -0.92400000 -0.00000000
vn 0.13070000 -0.99140000 -0.00000000
vn -0.00000000 -0.00000000 1.00000000
vn -0.00000000 -0.00000000 1.00000000
vn -0.00000000 -0.00000000 1.00000000
vn 0.79330000 -0.60880000 -0.00000000
vn -0.00000000 -0.00000000 1.00000000
vn 0.79330000 -0.60880000 -0.00000000
vn -0.00010000 -0.00000000 1.00000000
vn -0.00000000 -0.00000000 1.00000000
vn 0.99140000 -0.13070000 -0.00000000
vn 0.99140000 -0.13070000 -0.00000000
vn 0.99140000 -0.13070000 -0.00000000
vn 0.92400000 0.38240000 -0.00000000
vn 0.99140000 -0.13070000 -0.00000000
vn 0.99140000 0.13070000 -0.00000000
vn 0.92400000 0.38240000 -0.00000000
vn 0.92400000 0.38240000 -0.00000000
vn 0.60860000 0.79350000 -0.00000000
vn 0.60860000 0.79350000 -0.00000000
vn 0.38270000 0.92390000 -0.00000000
vn 0.38270000 0.92390000 -0.00000000
vn 0.38270000 0.92390000 -0.00000000
vn 0.13070000 0.99140000 -0.00000000
vn 0.13070000 0.99140000 -0.00000000
vn 0.13070000 0.99140000 -0.00000000
vn 0.13070000 -0.99140000 -0.00000000
vn 0.13070000 -0.99140000 -0.00000000
vn 0.13070000 -0.99140000 -0.00000000
vn 0.13070000 -0.99140000 -0.00000000
vn 0.60860000 -0.79350000 -0.00000000
vn -0.00000000 -0.00000000 -1.00000000
vn 0.79340000 -0.60870000 -0.00000000
vn 0.92400000 -0.38240000 -0.00000000
vn 0.92400000 -0.38240000 -0.00000000
vn 0.99140000 -0.13070000 -0.00000000
vn 0.99140000 -0.13070000 -0.00000000
vn 0.99140000 -0.13070000 -0.00000000
vn 0.99140000 0.13070000 -0.00000000
vn 0.99140000 -0.13070000 -0.00000000
vn 0.92400000 0.38240000 -0.00000000
vn 0.79330000 0.60880000 -0.00000000
vn 0.79330000 0.60880000 -0.00000000
vn 0.60880000 0.79330000 -0.00000000
vn 0.60880000 0.79330000 -0.00000000
vn 0.38240000 0.92400000 -0.00000000
vn 0.60880000 0.79330000 -0.00000000
vn 0.13070000 0.99140000 -0.00000000
vn 0.38270000 0.92390000 -0.00000000
vn -0.13070000 0.99140000 -0.00000000
vn -0.13050000 0.99150000 -0.00000000
vn -0.13050000 0.99150000 -0.00000000
vn 0.38270000 -0.92390000 -0.00000000
vn -0.13070000 -0.99140000 -0.00000000
vn -0.13070000 -0.99140000 -0.00000000
vn 0.38270000 -0.92390000 -0.00000000
vn 0.38270000 -0.92390000 -0.00000000
vn -0.00000000 -0.00000000 1.00000000
vn 0.79360000 -0.60850000 -0.00000000
vn 0.79350000 -0.60850000 -0.00000000
vn -0.00020000 0.00010000 1.00000000
vn -0.00000000 -0.00000000 1.00000000
vn 0.79360000 -0.60850000 -0.00000000
vn 0.99140000 -0.13080000 -0.00000000
vn -0.00000000 0.00010000 1.00000000
vn -0.00000000 -0.00000000 1.00000000
vn 0.99140000 -0.13080000 -0.00000000
vn 0.99140000 0.13070000 -0.00000000
vn -0.00000000 -0.00000000 1.00000000
vn -0.00000000 -0.00000000 1.00000000
vn 0.79350000 0.60860000 -0.00000000
vn -0.00000000 -0.00000000 1.00000000
vn 0.60870000 0.79340000 -0.00000000
vn 0.79350000 0.60860000 -0.00000000
vn 0.38240000 0.92400000 -0.00000000
vn -0.00000000 -0.00000000 1.00000000
vn 0.13070000 0.99140000 -0.00000000
vn -0.00000000 -0.00000000 1.00000000
vn -0.13040000 0.99150000 -0.00000000
vn 0.38240000 -0.92400000 -0.00000000
vn 0.13070000 -0.99140000 -0.00000000
vn -0.00000000 -0.00000000 1.00000000
vn -0.00000000 -0.00000000 1.00000000
vn 0.60870000 -0.79340000 -0.00000000
vn -0.00000000 -0.00000000 1.00000000
vn 0.79350000 -0.60860000 -0.00000000
vn 0.79350000 -0.60860000 -0.00000000
vn 0.92390000 -0.38270000 -0.00000000
vn 0.92390000 -0.38270000 -0.00000000
vn 0.99140000 -0.13070000 -0.00000000
vn 0.99140000 -0.13070000 -0.00000000
vn 0.99140000 0.13080000 -0.00000000
vn 0.99140000 -0.13070000 -0.00000000
vn -0.00000000 -0.00000000 1.00000000
vn 0.79360000 0.60850000 -0.00000000
vn 0.79360000 0.60850000 -0.00000000
vn 0.60850000 0.79360000 -0.00000000
vn -0.00000000 -0.00000000 1.00000000
vn 0.38270000 0.92390000 -0.00000000
vn -0.00000000 -0.00000000 1.00000000
vn 0.38270000 0.92390000 -0.00000000
vn -0.00000000 -0.00000000 1.00000000
vn -0.00000000 -0.00000000 1.00000000
vn -0.13070000 -0.99140000 -0.00000000
vn -0.60870000 -0.79340000 -0.00000000
vn -0.79350000 -0.60860000 -0.00000000
vn -0.13080000 -0.99140000 -0.00000000
vn -0.92390000 -0.38270000 -0.00000000
vn -0.13070000 -0.99140000 -0.00000000
vn -0.38270000 -0.92390000 -0.00000000
vn -0.13070000 -0.99140000 -0.00000000
vn -0.60880000 -0.79330000 -0.00000000
vn -0.79360000 -0.60850000 -0.00000000
vn -0.79330000 -0.60880000 -0.00000000
vn -0.60860000 -0.79350000 -0.00000000
vn -0.92400000 -0.38240000 -0.00000000
vn -0.99140000 -0.13070000 -0.00000000
vn -0.60860000 -0.79350000 -0.00000000
vn -0.79340000 -0.60870000 -0.00000000
vn -0.99140000 -0.13070000 -0.00000000
vn -0.99140000 -0.13070000 -0.00000000
vn -0.99140000 -0.13080000 -0.00000000
vn -0.38270000 0.92390000 -0.00000000
vn -0.92400000 -0.38240000 -0.00000000
vn -0.99140000 0.13080000 -0.00000000
vn -0.99140000 -0.13080000 -0.00000000
vn -0.38270000 0.92390000 -0.00000000
vn -0.99140000 0.13070000 -0.00000000
vn -0.92390000 0.38270000 -0.00000000
vn -0.13070000 0.99140000 -0.00000000
vn -0.99140000 0.13070000 -0.00000000
vn -0.79360000 0.60850000 -0.00000000
vn -0.38270000 0.92390000 -0.00000000
vn -0.38240000 0.92400000 -0.00000000
vn -0.38270000 0.92390000 -0.00000000
vn -0.79350000 0.60860000 -0.00000000
vn -0.79340000 0.60870000 -0.00000000
vn -0.38240000 0.92400000 -0.00000000
vn -0.99140000 0.13070000 -0.00000000
vn -0.38240000 0.92400000 -0.00000000
vn -0.38270000 0.92390000 -0.00000000
vn -0.79330000 0.60880000 -0.00000000
vn -0.99140000 0.13070000 -0.00000000
vn -0.38240000 0.92400000 -0.00000000
vn -0.79330000 0.60880000 -0.00000000
vn -0.38270000 0.92390000 -0.00000000
vn -0.60860000 0.79350000 -0.00000000
vn -0.79340000 0.60870000 -0.00000000
vn -0.00000000 -0.00000000 1.00000000
vn -0.00000000 -0.00000000 1.00000000
vn -0.99140000 0.13070000 -0.00000000
vn -0.99140000 -0.13070000 -0.00000000
vn -0.79330000 -0.60890000 -0.00000000
vn -0.79330000 -0.60890000 -0.00000000
vn -0.79330000 -0.60880000 -0.00000000
vn -0.00000000 -0.00000000 1.00000000
vn -0.38250000 -0.92400000 -0.00000000
vn -0.38240000 -0.92400000 -0.00000000
vn -0.38270000 0.92390000 -0.00000000
vn -0.00000000 -0.00000000 1.00000000
vn -0.00000000 -0.00000000 1.00000000
vn -0.00000000 -0.00000000 1.00000000
vn -0.99140000 0.13070000 -0.00000000
vn -0.99140000 0.13070000 -0.00000000
vn -0.99140000 -0.13070000 -0.00000000
vn -0.79340000 -0.60870000 -0.00000000
vn -0.79340000 -0.60870000 -0.00000000
vn -0.60860000 -0.79350000 -0.00000000
vn -0.13070000 -0.99140000 -0.00000000
vn -0.38270000 0.92390000 -0.00000000
vn -0.60870000 0.79340000 -0.00000000
vn -0.00000000 -0.00000000 1.00000000
vn -0.92390000 0.38270000 -0.00000000
vn -0.00000000 -0.00000000 1.00000000
vn -0.99140000 0.13070000 -0.00000000
vn -0.99140000 -0.13080000 -0.00000000
vn -0.00000000 -0.00000000 1.00000000
vn -0.00000000 -0.00000000 1.00000000
vn -0.00000000 -0.00000000 1.00000000
vn -0.00000000 -0.00000000 1.00000000
vn -0.38270000 0.92390000 -0.00000000
vn -0.00000000 -0.00000000 1.00000000
vn -0.00000000 -0.00000000 1.00000000
vn -0.92390000 0.38270000 -0.00000000
vn -0.99140000 0.13080000 -0.00000000
vn -0.99140000 -0.13070000 -0.00000000
vn -0.99140000 -0.13070000 -0.00000000
vn -0.79350000 -0.60860000 -0.00000000
vn -0.60860000 -0.79340000 -0.00000000
vn -0.38250000 -0.92390000 -0.00000000
vn -0.00000000 -0.00000000 1.00000000
vn -0.00000000 -0.00000000 1.00000000
vn -0.38270000 -0.92380000 -0.01270000
vn -0.00000000 -0.00000000 -1.00000000
vn -0.00000000 -0.00000000 -1.00000000
vn -0.00000000 -0.00010000 -1.00000000
vn -0.00000000 -0.00000000 -1.00000000
vn -0.00000000 -0.00000000 1.00000000
vn -0.00000000 -0.00000000 -1.00000000
vn -0.00000000 -0.00000000 1.00000000
vn 0.00020000 0.00050000 1.00000000
vn -0.62450000 -0.70670000 0.33250000
vn -0.62300000 -0.71210000 0.32380000
vn -0.63010000 -0.70840000 0.31790000
vn -0.64190000 -0.69470000 0.32440000
vn -0.66610000 -0.67030000 0.32710000
vn -0.68910000 -0.64500000 0.33020000
vn -0.69900000 0.64000000 0.31890000
vn -0.68540000 0.64720000 0.33380000
vn -0.64550000 0.69180000 0.32360000
vn -0.66400000 0.67260000 0.32670000
vn -0.63220000 0.70670000 0.31760000
vn -0.61710000 0.71600000 0.32640000
vn -0.62070000 0.71220000 0.32780000
vn -0.62450000 0.70620000 0.33360000
vn -0.00000000 -0.00000000 -1.00000000
vn 0.67340000 -0.65850000 0.33610000
vn 0.71200000 -0.70220000 0.00140000
vn -0.38260000 0.92380000 -0.01340000
vn -0.60880000 0.79330000 0.00060000
vn -0.74200000 0.67050000 -0.00030000
vn -0.60850000 -0.79360000 -0.00000000
vn -0.60850000 -0.79360000 -0.00000000
vn -0.38250000 -0.92400000 -0.00000000
vn -0.38240000 -0.92400000 -0.00000000
vn -0.60880000 -0.79330000 -0.00000000
vn -0.60880000 -0.79340000 -0.00000000
vn -0.71100000 -0.70320000 -0.00020000
vn -0.64640000 -0.76270000 0.02150000
vn -0.60870000 -0.79340000 0.00080000
vn -0.00000000 -0.00000000 1.00000000
vn -0.92390000 0.38270000 -0.00000000
vn -0.79360000 0.60850000 -0.00000000
vn -0.79350000 0.60860000 -0.00000000
vn -0.60870000 0.79340000 -0.00000000
vn -0.60870000 0.79340000 -0.00000000
vn -0.79350000 0.60860000 -0.00000000
vn -0.92400000 0.38240000 -0.00000000
vn -0.79330000 0.60880000 -0.00000000
vn -0.92400000 0.38240000 -0.00000000
vn -0.92400000 0.38240000 -0.00000000
vn 0.00010000 -0.00000000 1.00000000
vn -0.00000000 -0.00000000 1.00000000
vn -0.92400000 0.38240000 -0.00000000
vn -0.99140000 0.13070000 -0.00000000
vn -0.99140000 -0.13070000 -0.00000000
vn -0.99140000 -0.13070000 -0.00000000
vn -0.00000000 -0.00000000 1.00000000
vn -0.79350000 -0.60860000 -0.00000000
vn -0.92390000 -0.38270000 -0.00000000
vn -0.38240000 -0.92400000 -0.00000000
vn -0.38270000 0.92390000 -0.00000000
vn -0.13070000 0.99140000 -0.00000000
vn -0.00000000 -0.00000000 1.00000000
vn -0.13070000 0.99140000 -0.00000000
vn -0.60870000 0.79340000 -0.00000000
vn -0.92400000 0.38240000 -0.00000000
vn -0.99140000 0.13070000 -0.00000000
vn -0.92400000 0.38240000 -0.00000000
vn 0.68220000 0.73120000 0.00080000
vn 0.66880000 0.66220000 0.33790000
vn -0.61010000 -0.79230000 0.00080000
vn 0.68220000 0.73120000 0.00080000
vn 0.50000000 0.86600000 -0.00560000
vn -0.00000000 -0.00000000 1.00000000
vn -0.60860000 -0.79340000 -0.00000000
vn -0.60870000 -0.79340000 -0.00000000
vn -0.13080000 0.99140000 -0.00000000
vn -0.60860000 0.79350000 -0.00000000
vn -0.60850000 0.79360000 -0.00000000
vn -0.60880000 0.79330000 -0.00000000
vn -0.38270000 0.92390000 -0.00000000
vn -0.38240000 0.92400000 -0.00000000
vn -0.60880000 0.79330000 -0.00000000
vn -0.99140000 0.13080000 -0.00000000
vn -0.38240000 0.92400000 -0.00000000
vn -0.38270000 0.92390000 -0.00000000
vn -0.00000000 -0.00000000 1.00000000
vn -0.92400000 -0.38240000 -0.00000000
vn -0.99140000 -0.13070000 -0.00000000
vn -0.92390000 -0.38270000 -0.00000000
vn -0.99140000 0.13070000 -0.00000000
vn -0.13070000 0.99140000 -0.00000000
vn -0.13070000 0.99140000 -0.00000000
vn -0.13040000 0.99150000 -0.00000000
vn -0.00000000 -0.00000000 1.00000000
vn 0.70670000 -0.62430000 0.33300000
vn -0.99140000 -0.13070000 -0.00000000
vn 0.00010000 -0.00000000 1.00000000
vn -0.00000000 -0.00000000 1.00000000
vn -0.99140000 -0.13070000 -0.00000000
vn 0.65860000 -0.67290000 0.33690000
vn 0.71200000 -0.70220000 0.00140000
vn -0.65680000 0.75370000 0.02290000
vn 0.60880000 -0.79330000 -0.00000000
vn 0.60880000 -0.79340000 -0.00000000
vn 0.92400000 -0.38240000 -0.00000000
vn 0.60880000 -0.79330000 -0.00000000
vn 0.60880000 -0.79340000 -0.00000000
vn 0.38250000 -0.92400000 -0.00000000
vn 0.60880000 -0.79340000 -0.00000000
vn 0.79330000 -0.60880000 -0.00000000
vn 0.60880000 -0.79330000 -0.00000000
vn 0.38240000 -0.92400000 -0.00000000
vn 0.38250000 -0.92400000 -0.00000000
vn 0.92400000 -0.38240000 -0.00000000
vn -0.38270000 -0.92390000 -0.00000000
vn -0.00120000 -0.00250000 -1.00000000
vn -0.60860000 -0.79340000 -0.00000000
vn -0.60870000 -0.79340000 -0.00000000
vn 0.00020000 0.00050000 1.00000000
vn -0.00120000 -0.00250000 -1.00000000
vn -0.00000000 -0.00000000 -1.00000000
vn 0.38240000 -0.92400000 -0.00000000
vn 0.38250000 -0.92400000 -0.00000000
vn 0.13070000 -0.99140000 -0.00000000
vn -0.00000000 -0.00000000 1.00000000
vn 0.13050000 0.99150000 -0.00000000
vn 0.99140000 0.13070000 -0.00000000
vn 0.79330000 -0.60880000 -0.00000000
vn 0.92400000 -0.38240000 -0.00000000
vn 0.92400000 -0.38240000 -0.00000000
vn -0.00010000 -0.00000000 1.00000000
vn -0.00000000 -0.00000000 1.00000000
vn 0.13070000 -0.99140000 -0.00000000
vn -0.13070000 -0.99140000 -0.00000000
vn 0.00010000 -0.00000000 1.00000000
vn -0.00000000 -0.00000000 1.00000000
vn 0.71200000 -0.70220000 0.00140000
vn 0.50000000 -0.86600000 -0.00490000
vn -0.60880000 0.79330000 0.00060000
vn -0.74200000 0.67050000 -0.00030000
vn -0.92390000 0.38270000 -0.00000000
vn -0.92390000 0.38270000 -0.00000000
vn -0.99140000 0.13070000 -0.00000000
vn -0.13070000 -0.99140000 -0.00000000
vn 0.13070000 -0.99140000 -0.00000000
vn -0.13070000 -0.99140000 -0.00000000
vn -0.00120000 -0.00250000 -1.00000000
vn -0.00000000 -0.00000000 -1.00000000
vn -0.38250000 -0.92390000 -0.00000000
vn -0.38240000 -0.92400000 -0.00000000
vn -0.13050000 0.99150000 -0.00000000
vn -0.13070000 0.99140000 -0.00000000
vn -0.00000000 -0.00000000 1.00000000
vn 0.50000000 0.86600000 -0.00560000
vn 0.65940000 0.67130000 0.33840000
vn -0.64640000 -0.76270000 0.02150000
vn -0.13070000 0.99140000 -0.00000000
vn 0.13080000 0.99140000 -0.00000000
vn -0.13070000 -0.99140000 -0.00000000
vn 0.13070000 -0.99140000 -0.00000000
vn -0.13070000 -0.99140000 -0.00000000
vn -0.00000000 -0.00000000 1.00000000
vn -0.00000000 -0.00000000 -1.00000000
vn -0.00000000 -0.00000000 1.00000000
vn -0.92390000 0.38270000 -0.00000000
vn -0.79350000 0.60860000 -0.00000000
vn -0.79350000 0.60860000 -0.00000000
vn -0.00000000 -0.00000000 1.00000000
vn -0.60850000 0.79360000 -0.00000000
vn -0.60860000 0.79350000 -0.00000000
vn -0.60850000 0.79360000 -0.00000000
vn -0.79350000 0.60860000 -0.00000000
vn -0.79360000 0.60850000 -0.00000000
vn -0.00000000 -0.00000000 -1.00000000
vn -0.00000000 -0.00000000 1.00000000
vn -0.00000000 -0.00010000 -1.00000000
vn -0.00000000 -0.00000000 -1.00000000
vn -0.00000000 -0.00000000 1.00000000
vn -0.00000000 -0.00000000 -1.00000000
vn -0.38260000 0.92380000 -0.01340000
vn 0.50000000 -0.86600000 -0.00490000
vn -0.60880000 0.79330000 -0.00000000
vn -0.79350000 0.60860000 -0.00000000
vn -0.00000000 -0.00000000 1.00000000
vn -0.00000000 -0.00000000 -1.00000000
vn 0.13070000 0.99140000 -0.00000000
vn 0.13040000 0.99150000 -0.00000000
vn -0.00000000 -0.00000000 1.00000000
vn -0.00000000 -0.00000000 -1.00000000
vn 0.50000000 0.86600000 -0.00560000
vn -0.64640000 -0.76270000 0.02150000
vn -0.00000000 -0.00000000 1.00000000
vn -0.99140000 -0.13080000 -0.00000000
vn -0.60860000 0.79350000 -0.00000000
vn -0.00000000 -0.00000000 1.00000000
vn -0.60860000 0.79350000 -0.00000000
vn -0.92400000 0.38240000 -0.00000000
vn -0.79340000 0.60870000 -0.00000000
vn -0.79340000 0.60870000 -0.00000000
vn -0.92400000 0.38240000 -0.00000000
vn -0.38270000 0.92390000 -0.00000000
vn -0.60860000 0.79350000 -0.00000000
vn -0.38270000 -0.92390000 -0.00000000
vn -0.79340000 -0.60870000 -0.00000000
vn -0.00000000 -0.00000000 1.00000000
vn -0.92400000 -0.38240000 -0.00000000
vn 0.13080000 -0.99140000 -0.00000000
vn 0.13080000 -0.99140000 -0.00000000
vn -0.00000000 -0.00000000 1.00000000
vn 0.60850000 -0.79360000 -0.00000000
vn -0.00000000 -0.00000000 -1.00000000
vn -0.92400000 -0.38240000 -0.00000000
vn -0.00000000 -0.00000000 1.00000000
vn -0.00000000 -0.00000000 1.00000000
vn 0.13080000 -0.99140000 -0.00000000
vn -0.38250000 -0.92400000 -0.00000000
vn -0.60880000 -0.79340000 -0.00000000
vn -0.60880000 -0.79330000 -0.00000000
vn -0.60880000 -0.79340000 -0.00000000
vn -0.00000000 -0.00000000 1.00000000
vn 0.13080000 -0.99140000 -0.00000000
vn -0.00000000 -0.00000000 1.00000000
vn -0.60880000 0.79330000 -0.00000000
vn -0.79330000 0.60880000 -0.00000000
vn 0.60850000 -0.79360000 -0.00000000
vn 0.60850000 -0.79360000 -0.00000000
vn 0.79350000 -0.60850000 -0.00000000
vn 0.92390000 -0.38270000 -0.00000000
vn 0.92390000 -0.38260000 -0.00000000
vn 0.38270000 -0.92390000 -0.00000000
vn 0.60850000 -0.79360000 -0.00000000
vn 0.92390000 0.38270000 -0.00000000
vn 0.79350000 0.60860000 -0.00000000
vn 0.92390000 0.38270000 -0.00000000
vn 0.99140000 0.13070000 -0.00000000
vn 0.92390000 0.38270000 -0.00000000
vn 0.79350000 0.60860000 -0.00000000
vn 0.99140000 0.13070000 -0.00000000
vn 0.99140000 -0.13080000 -0.00000000
vn -0.00000000 -0.00000000 1.00000000
vn 0.60870000 0.79340000 -0.00000000
vn 0.99140000 0.13070000 -0.00000000
vn 0.92390000 0.38270000 -0.00000000
vn 0.60870000 0.79340000 -0.00000000
vn 0.38270000 0.92390000 -0.00000000
vn 0.38240000 0.92400000 -0.00000000
vn 0.60870000 0.79340000 -0.00000000
vn 0.13070000 0.99140000 -0.00000000
vn 0.13050000 0.99150000 -0.00000000
vn 0.38270000 0.92390000 -0.00000000
vn 0.38240000 0.92400000 -0.00000000
vn 0.38270000 0.92390000 -0.00000000
vn -0.13070000 0.99140000 -0.00000000
vn -0.13040000 0.99150000 -0.00000000
vn 0.13050000 0.99150000 -0.00000000
vn 0.13070000 0.99140000 -0.00000000
vn 0.99140000 -0.13080000 -0.00000000
vn 0.92390000 -0.38270000 -0.00000000
vn 0.92390000 -0.38260000 -0.00000000
vn 0.92390000 -0.38270000 -0.00000000
vn -0.38240000 -0.92400000 -0.00000000
vn -0.38250000 -0.92390000 -0.00000000
vn -0.13080000 -0.99140000 -0.00000000
vn -0.13080000 0.99140000 -0.00000000
vn -0.38240000 -0.92400000 -0.00000000
vn -0.00000000 -0.00000000 -1.00000000
vn -0.00000000 -0.00000000 1.00000000
vn 0.64640000 0.76270000 0.02150000
vn 0.38260000 0.92380000 -0.01270000
vn -0.00000000 -0.00000000 1.00000000
vn -0.00000000 -0.00000000 -1.00000000
vn -0.00000000 -0.00000000 1.00000000
vn 0.00010000 -0.00000000 1.00000000
vn -0.38270000 0.92390000 -0.00000000
vn -0.00000000 -0.00000000 1.00000000
vn 0.60850000 0.79360000 -0.00000000
vn 0.13080000 0.99140000 -0.00000000
vn -0.00000000 -0.00000000 -1.00000000
vn -0.00000000 -0.00010000 -1.00000000
vn 0.92390000 -0.38260000 -0.00000000
vn 0.79350000 -0.60850000 -0.00000000
vn 0.79360000 -0.60850000 -0.00000000
vn -0.00000000 0.00010000 1.00000000
vn 0.38270000 0.92390000 -0.00000000
vn 0.60850000 0.79360000 -0.00000000
vn 0.38270000 0.92390000 -0.00000000
vn 0.13080000 0.99140000 -0.00000000
vn 0.79360000 0.60850000 -0.00000000
vn 0.79360000 0.60850000 -0.00000000
vn 0.60850000 0.79360000 -0.00000000
vn -0.13070000 0.99140000 -0.00000000
vn 0.13080000 0.99140000 -0.00000000
vn 0.99140000 0.13080000 -0.00000000
vn -0.00000000 -0.00000000 1.00000000
vn 0.99140000 0.13080000 -0.00000000
vn 0.92390000 0.38270000 -0.00000000
vn 0.00020000 0.00050000 1.00000000
vn -0.00000000 -0.00000000 1.00000000
vn -0.79350000 -0.60860000 -0.00000000
vn 0.92390000 0.38270000 -0.00000000
vn -0.00000000 -0.00000000 1.00000000
vn 0.92390000 0.38270000 -0.00000000
vn -0.00000000 -0.00000000 -1.00000000
vn -0.00000000 -0.00000000 1.00000000
vn -0.92390000 -0.38270000 -0.00000000
vn 0.60870000 -0.79340000 -0.00000000
vn 0.60860000 -0.79350000 -0.00000000
vn 0.79350000 -0.60860000 -0.00000000
vn 0.60860000 -0.79350000 -0.00000000
vn -0.00000000 -0.00000000 1.00000000
vn -0.00000000 -0.00000000 -1.00000000
vn 0.38250000 -0.92400000 -0.00000000
vn 0.38240000 -0.92400000 -0.00000000
vn 0.60870000 -0.79340000 -0.00000000
vn 0.60860000 -0.79350000 -0.00000000
vn 0.38250000 -0.92400000 -0.00000000
vn -0.00000000 -0.00000000 -1.00000000
vn -0.00000000 -0.00000000 1.00000000
vn 0.65580000 -0.75460000 0.02280000
vn 0.38270000 -0.92380000 -0.01340000
vn 0.38250000 -0.92400000 -0.00000000
vn 0.38240000 -0.92400000 -0.00000000
vn 0.13070000 -0.99140000 -0.00000000
vn -0.00000000 -0.00000000 -1.00000000
vn 0.38260000 -0.92390000 -0.00000000
vn 0.38270000 -0.92390000 -0.00000000
vn 0.60860000 -0.79350000 -0.00000000
vn -0.00020000 0.00020000 1.00000000
vn 0.38260000 -0.92390000 -0.00000000
vn -0.00020000 0.00020000 1.00000000
vn -0.00000000 -0.00000000 1.00000000
vn -0.92390000 0.38270000 -0.00000000
vn -0.00000000 -0.00000000 1.00000000
vn -0.00000000 -0.00000000 1.00000000
vn -0.99140000 0.13080000 -0.00000000
vn 0.38270000 -0.92390000 -0.00000000
vn -0.13080000 -0.99140000 -0.00000000
vn -0.00000000 -0.00000000 1.00000000
vn -0.13080000 -0.99140000 -0.00000000
vn -0.38270000 -0.92390000 -0.00000000
vn -0.00000000 -0.00000000 1.00000000
vn -0.00240000 0.00320000 1.00000000
vn 0.60860000 -0.79350000 -0.00000000
vn -0.38270000 -0.92390000 -0.00000000
vn -0.60850000 -0.79360000 -0.00000000
vn 0.13070000 -0.99140000 -0.00000000
vn -0.13070000 -0.99140000 -0.00000000
vn -0.13080000 0.99140000 -0.00000000
vn -0.00000000 -0.00000000 1.00000000
vn -0.38260000 0.92380000 -0.01340000
vn -0.60880000 0.79330000 0.00060000
vn -0.13080000 0.99140000 -0.00000000
vn -0.00000000 -0.00000000 1.00000000
vn -0.79350000 -0.60850000 -0.00000000
vn -0.92390000 -0.38260000 -0.00000000
vn -0.00000000 -0.00000000 -1.00000000
vn -0.00000000 -0.00000000 1.00000000
vn -0.79350000 -0.60850000 -0.00000000
vn -0.79360000 -0.60850000 -0.00000000
vn -0.60850000 -0.79360000 -0.00000000
vn -0.00000000 -0.00000000 1.00000000
vn -0.38270000 -0.92390000 -0.00000000
vn -0.00000000 -0.00000000 1.00000000
vn -0.38270000 -0.92390000 -0.00000000
vn -0.00000000 -0.00000000 1.00000000
vn -0.60860000 -0.79350000 -0.00000000
vn -0.00000000 -0.00000000 1.00000000
vn -0.92390000 -0.38270000 -0.00000000
vn -0.00000000 -0.00000000 1.00000000
vn -0.92400000 -0.38240000 -0.00000000
vn -0.00000000 -0.00000000 1.00000000
vn -0.92400000 -0.38240000 -0.00000000
vn -0.00000000 -0.00000000 1.00000000
vn -0.92390000 -0.38270000 -0.00000000
vn -0.92390000 -0.38260000 -0.00000000
vn -0.00000000 -0.00000000 1.00000000
vn 0.13040000 0.99150000 -0.00000000
vn -0.00000000 -0.00000000 1.00000000
vn 0.13040000 0.99150000 -0.00000000
vn 0.13070000 0.99140000 -0.00000000
vn 0.79350000 -0.60860000 -0.00000000
vn -0.00000000 -0.00000000 1.00000000
vn 0.92390000 -0.38270000 -0.00000000
vn -0.00000000 -0.00000000 1.00000000
vn 0.38240000 0.92400000 -0.00000000
vn 0.38270000 0.92390000 -0.00000000
vn -0.00000000 -0.00000000 1.00000000
vn 0.92390000 -0.38270000 -0.00000000
vn 0.38270000 0.92390000 -0.00000000
vn 0.38240000 0.92400000 -0.00000000
vn 0.99140000 0.13080000 -0.00000000
vn 0.99140000 -0.13070000 -0.00000000
vn 0.92390000 0.38270000 -0.00000000
vn 0.79330000 0.60880000 -0.00000000
vn -0.00000000 -0.00000000 1.00000000
vn 0.79330000 0.60880000 -0.00000000
vn 0.60880000 0.79330000 -0.00000000
vn 0.92400000 -0.38240000 -0.00000000
vn -0.00000000 -0.00000000 1.00000000
vn 0.92400000 -0.38240000 -0.00000000
vn 0.92400000 0.38240000 -0.00000000
vn 0.92400000 0.38240000 -0.00000000
vn 0.99140000 0.13070000 -0.00000000
vn -0.00000000 -0.00000000 1.00000000
vn 0.99140000 0.13070000 -0.00000000
vn -0.00000000 -0.00000000 1.00000000
vn 0.99140000 0.13070000 -0.00000000
vn -0.00000000 -0.00000000 -1.00000000
vn 0.79340000 -0.60870000 -0.00000000
vn -0.00000000 -0.00000000 1.00000000
vn 0.79340000 -0.60870000 -0.00000000
vn 0.60860000 -0.79350000 -0.00000000
vn 0.79340000 -0.60870000 -0.00000000
vn -0.79330000 -0.60880000 -0.00000000
vn -0.79330000 -0.60890000 -0.00000000
vn -0.00000000 -0.00000000 1.00000000
vn 0.92400000 0.38240000 -0.00000000
vn -0.00000000 -0.00000000 -1.00000000
vn -0.00000000 -0.00000000 -1.00000000
vn -0.00020000 0.00020000 1.00000000
vn -0.00000000 -0.00000000 1.00000000
vn 0.71250000 -0.70170000 -0.00010000
vn 0.38270000 -0.92380000 -0.01340000
vn -0.68710000 0.64570000 0.33310000
vn 0.71620000 -0.69790000 -0.00010000
vn -0.00000000 -0.00000000 -1.00000000
vn -0.00000000 -0.00000000 1.00000000
vn 0.61270000 -0.79030000 0.00060000
vn -0.50000000 0.86600000 -0.00490000
vn -0.66000000 0.66870000 0.34230000
vn 0.65580000 -0.75460000 0.02280000
vn -0.50000000 0.86600000 -0.00490000
vn -0.00000000 -0.00000000 1.00000000
vn 0.38270000 -0.92380000 -0.01340000
vn -0.00000000 -0.00000000 1.00000000
vn -0.00000000 -0.00000000 -1.00000000
vn -0.69120000 -0.72270000 0.00110000
vn 0.61240000 0.79060000 0.00080000
vn -0.00000000 -0.00000000 -1.00000000
vn 0.79340000 0.60870000 -0.00000000
vn -0.00000000 -0.00000000 -1.00000000
vn 0.79340000 0.60870000 -0.00000000
vn -0.65930000 -0.67020000 0.34070000
vn -0.69120000 -0.72270000 0.00110000
vn 0.64640000 0.76270000 0.02150000
vn -0.68540000 -0.64670000 0.33450000
vn 0.70600000 0.70820000 -0.00010000
vn 0.70250000 0.71160000 -0.00010000
vn 0.38260000 0.92380000 -0.01270000
vn -0.92390000 -0.38270000 -0.00000000
vn -0.92390000 -0.38260000 -0.00000000
vn -0.79350000 -0.60850000 -0.00000000
vn -0.79360000 -0.60850000 -0.00000000
vn -0.00000000 -0.00000000 1.00000000
vn 0.79340000 0.60870000 -0.00000000
vn -0.92400000 -0.38240000 -0.00000000
vn -0.00000000 -0.00000000 1.00000000
vn 0.92400000 0.38240000 -0.00000000
vn -0.00000000 -0.00000000 1.00000000
vn 0.60880000 0.79330000 0.00080000
vn 0.99140000 0.13070000 -0.00000000
vn -0.00000000 -0.00000000 1.00000000
vn 0.99140000 0.13070000 -0.00000000
vn 0.66990000 -0.67050000 0.31890000
vn -0.60860000 0.79350000 -0.00000000
vn -0.00000000 -0.00000000 1.00000000
vn 0.79340000 0.60870000 -0.00000000
vn 0.60860000 0.79350000 -0.00000000
vn 0.13070000 0.99140000 -0.00000000
vn -0.00000000 -0.00000000 1.00000000
vn 0.60860000 0.79350000 -0.00000000
vn -0.00000000 -0.00000000 1.00000000
vn 0.38270000 0.92390000 -0.00000000
vn 0.38260000 -0.92390000 -0.00000000
vn 0.38270000 -0.92390000 -0.00000000
vn -0.38270000 -0.92390000 -0.00000000
vn -0.00000000 -0.00000000 1.00000000
vn -0.00240000 0.00320000 1.00000000
f 578//578 430//430 478//478
f 430//430 452//452 456//456
f 415//415 685//685 693//693
f 304//304 423//423 458//458
f 61//61 716//716 536//536
f 731//731 1//1 33//33
f 247//247 353//353 534//534
f 272//272 446//446 444//444
f 22//22 26//26 422//422
f 578//578 75//75 430//430
f 339//339 457//457 421//421
f 404//404 293//293 368//368
f 295//295 406//406 618//618
f 478//478 456//456 269//269
f 545//545 538//538 272//272
f 5//5 10//10 7//7
f 35//35 691//691 42//42
f 25//25 21//21 19//19
f 294//294 617//617 447//447
f 44//44 47//47 290//290
f 15//15 367//367 292//292
f 713//713 63//63 65//65
f 361//361 392//392 445//445
f 60//60 712//712 535//535
f 686//686 685//685 388//388
f 54//54 533//533 703//703
f 22//22 21//21 25//25
f 539//539 636//636 365//365
f 516//516 393//393 522//522
f 733//733 721//721 45//45
f 539//539 66//66 630//630
f 588//588 583//583 579//579
f 249//249 435//435 537//537
f 34//34 35//35 42//42
f 646//646 644//644 454//454
f 415//415 388//388 685//685
f 387//387 414//414 383//383
f 12//12 14//14 8//8
f 430//430 456//456 478//478
f 671//671 666//666 744//744
f 267//267 472//472 323//323
f 582//582 576//576 574//574
f 507//507 147//147 69//69
f 133//133 476//476 66//66
f 651//651 662//662 702//702
f 85//85 82//82 694//694
f 257//257 616//616 48//48
f 160//160 158//158 73//73
f 306//306 455//455 429//429
f 353//353 420//420 534//534
f 340//340 487//487 480//480
f 50//50 623//623 591//591
f 173//173 568//568 74//74
f 66//66 476//476 489//489
f 35//35 697//697 691//691
f 415//415 693//693 584//584
f 698//698 40//40 586//586
f 695//695 689//689 692//692
f 696//696 699//699 36//36
f 6//6 9//9 3//3
f 289//289 47//47 49//49
f 388//388 441//441 686//686
f 277//277 278//278 55//55
f 277//277 55//55 56//56
f 278//278 53//53 55//55
f 24//24 23//23 15//15
f 57//57 713//713 65//65
f 591//591 533//533 54//54
f 533//533 591//591 274//274
f 705//705 714//714 715//715
f 705//705 715//715 727//727
f 63//63 713//713 710//710
f 335//335 338//338 30//30
f 7//7 12//12 8//8
f 47//47 289//289 290//290
f 286//286 285//285 284//284
f 6//6 33//33 1//1
f 9//9 13//13 2//2
f 13//13 4//4 362//362
f 26//26 22//22 25//25
f 623//623 274//274 591//591
f 422//422 26//26 336//336
f 19//19 18//18 20//20
f 25//25 19//19 20//20
f 58//58 704//704 711//711
f 4//4 24//24 16//16
f 10//10 12//12 7//7
f 400//400 77//77 412//412
f 400//400 412//412 391//391
f 76//76 389//389 379//379
f 378//378 373//373 370//370
f 83//83 81//81 395//395
f 81//81 377//377 395//395
f 381//381 372//372 397//397
f 88//88 86//86 87//87
f 372//372 396//396 397//397
f 728//728 394//394 730//730
f 88//88 87//87 90//90
f 728//728 730//730 91//91
f 92//92 89//89 93//93
f 709//709 707//707 722//722
f 89//89 725//725 93//93
f 709//709 722//722 734//734
f 735//735 94//94 738//738
f 98//98 96//96 97//97
f 94//94 95//95 738//738
f 98//98 97//97 740//740
f 100//100 736//736 101//101
f 736//736 99//99 101//101
f 102//102 103//103 104//104
f 102//102 104//104 105//105
f 603//603 742//742 593//593
f 741//741 596//596 592//592
f 679//679 106//106 610//610
f 106//106 594//594 610//610
f 676//676 680//680 678//678
f 680//680 108//108 678//678
f 665//665 109//109 667//667
f 113//113 111//111 112//112
f 109//109 110//110 667//667
f 114//114 670//670 672//672
f 113//113 112//112 115//115
f 114//114 672//672 674//674
f 669//669 668//668 684//684
f 661//661 117//117 118//118
f 668//668 116//116 684//684
f 661//661 118//118 663//663
f 664//664 119//119 122//122
f 657//657 121//121 652//652
f 119//119 120//120 122//122
f 656//656 653//653 124//124
f 123//123 647//647 453//453
f 474//474 482//482 488//488
f 474//474 488//488 475//475
f 132//132 128//128 497//497
f 128//128 131//131 497//497
f 492//492 477//477 493//493
f 477//477 498//498 493//493
f 138//138 134//134 549//549
f 135//135 494//494 548//548
f 527//527 495//495 525//525
f 142//142 139//139 524//524
f 496//496 547//547 526//526
f 143//143 509//509 505//505
f 142//142 524//524 506//506
f 143//143 505//505 502//502
f 499//499 510//510 503//503
f 500//500 146//146 504//504
f 510//510 501//501 503//503
f 500//500 504//504 149//149
f 514//514 148//148 511//511
f 518//518 150//150 513//513
f 148//148 508//508 511//511
f 519//519 512//512 517//517
f 152//152 515//515 523//523
f 390//390 375//375 380//380
f 613//613 156//156 427//427
f 613//613 427//427 590//590
f 155//155 589//589 580//580
f 159//159 581//581 573//573
f 374//374 376//376 371//371
f 575//575 161//161 648//648
f 161//161 162//162 648//648
f 650//650 163//163 655//655
f 659//659 165//165 166//166
f 163//163 164//164 655//655
f 167//167 658//658 560//560
f 659//659 166//166 168//168
f 167//167 560//560 562//562
f 569//569 660//660 567//567
f 555//555 170//170 171//171
f 660//660 563//563 567//567
f 555//555 171//171 556//556
f 543//543 172//172 552//552
f 176//176 174//174 551//551
f 172//172 557//557 552//552
f 176//176 551//551 553//553
f 559//559 544//544 425//425
f 544//544 554//554 425//425
f 291//291 107//107 675//675
f 706//706 708//708 570//570
f 558//558 424//424 328//328
f 205//205 558//558 328//328
f 210//210 327//327 541//541
f 327//327 221//221 541//541
f 461//461 732//732 463//463
f 465//465 212//212 223//223
f 732//732 222//222 463//463
f 465//465 223//223 466//466
f 332//332 464//464 334//334
f 320//320 203//203 333//333
f 464//464 467//467 334//334
f 196//196 321//321 322//322
f 320//320 333//333 226//226
f 191//191 723//723 473//473
f 196//196 322//322 227//227
f 191//191 473//473 479//479
f 189//189 681//681 230//230
f 682//682 228//228 229//229
f 187//187 301//301 485//485
f 302//302 486//486 484//484
f 326//326 300//300 233//233
f 614//614 184//184 428//428
f 299//299 483//483 232//232
f 614//614 428//428 426//426
f 521//521 154//154 360//360
f 358//358 520//520 359//359
f 219//219 215//215 348//348
f 216//216 234//234 347//347
f 449//449 346//346 490//490
f 217//217 220//220 491//491
f 346//346 349//349 490//490
f 217//217 491//491 314//314
f 316//316 313//313 319//319
f 214//214 218//218 238//238
f 313//313 315//315 319//319
f 355//355 363//363 366//366
f 214//214 238//238 239//239
f 354//354 199//199 637//637
f 355//355 366//366 240//240
f 354//354 637//637 639//639
f 471//471 194//194 242//242
f 194//194 241//241 242//242
f 190//190 193//193 243//243
f 193//193 633//633 243//243
f 743//743 470//470 631//631
f 129//129 186//186 244//244
f 470//470 629//629 631//631
f 129//129 244//244 130//130
f 126//126 127//127 418//418
f 330//330 125//125 419//419
f 213//213 209//209 351//351
f 208//208 245//245 352//352
f 310//310 331//331 311//311
f 433//433 211//211 312//312
f 331//331 246//246 311//311
f 433//433 312//312 434//434
f 408//408 432//432 409//409
f 357//357 206//206 410//410
f 432//432 248//248 409//409
f 197//197 201//201 460//460
f 357//357 410//410 250//250
f 717//717 356//356 641//641
f 197//197 460//460 251//251
f 718//718 642//642 622//622
f 188//188 720//720 626//626
f 719//719 621//621 625//625
f 297//297 298//298 612//612
f 298//298 627//627 612//612
f 382//382 185//185 607//607
f 530//530 182//182 606//606
f 185//185 611//611 607//607
f 530//530 606//606 604//604
f 531//531 619//619 615//615
f 343//343 531//531 615//615
f 202//202 198//198 468//468
f 198//198 256//256 468//468
f 436//436 345//345 438//438
f 308//308 207//207 440//440
f 344//344 469//469 437//437
f 309//309 439//439 450//450
f 307//307 204//204 599//599
f 350//350 200//200 260//260
f 204//204 259//259 599//599
f 192//192 195//195 261//261
f 350//350 260//260 602//602
f 183//183 325//325 635//635
f 192//192 261//261 262//262
f 183//183 635//635 572//572
f 181//181 324//324 566//566
f 324//324 263//263 566//566
f 180//180 342//342 385//385
f 341//341 264//264 384//384
f 532//532 528//528 417//417
f 401//401 179//179 413//413
f 529//529 265//265 416//416
f 401//401 413//413 411//411
f 158//158 157//157 73//73
f 225//225 267//267 323//323
f 73//73 157//157 455//455
f 231//231 306//306 429//429
f 173//173 431//431 175//175
f 157//157 429//429 455//455
f 431//431 173//173 74//74
f 729//729 399//399 45//45
f 177//177 175//175 431//431
f 472//472 267//267 481//481
f 231//231 487//487 306//306
f 74//74 568//568 169//169
f 306//306 487//487 340//340
f 144//144 141//141 69//69
f 74//74 169//169 561//561
f 329//329 178//178 431//431
f 275//275 634//634 601//601
f 74//74 654//654 649//649
f 329//329 431//431 542//542
f 73//73 74//74 577//577
f 74//74 649//649 577//577
f 224//224 462//462 267//267
f 462//462 431//431 267//267
f 577//577 160//160 73//73
f 225//225 224//224 267//267
f 630//630 66//66 489//489
f 317//317 402//402 364//364
f 402//402 540//540 364//364
f 507//507 445//445 151//151
f 147//147 145//145 69//69
f 445//445 507//507 69//69
f 462//462 542//542 431//431
f 628//628 539//539 630//630
f 153//153 151//151 445//445
f 628//628 632//632 539//539
f 636//636 539//539 638//638
f 632//632 638//638 539//539
f 69//69 145//145 144//144
f 392//392 153//153 445//445
f 420//420 643//643 534//534
f 140//140 550//550 70//70
f 361//361 445//445 273//273
f 361//361 273//273 235//235
f 235//235 273//273 403//403
f 235//235 403//403 236//236
f 236//236 403//403 237//237
f 68//68 136//136 67//67
f 137//137 133//133 66//66
f 318//318 237//237 403//403
f 595//595 597//597 687//687
f 255//255 688//688 605//605
f 726//726 651//651 702//702
f 620//620 739//739 48//48
f 249//249 537//537 459//459
f 744//744 702//702 683//683
f 702//702 662//662 683//683
f 255//255 254//254 688//688
f 726//726 534//534 645//645
f 651//651 726//726 645//645
f 254//254 253//253 688//688
f 744//744 683//683 673//673
f 640//640 537//537 624//624
f 688//688 253//253 252//252
f 744//744 673//673 671//671
f 643//643 645//645 534//534
f 666//666 677//677 744//744
f 537//537 247//247 534//534
f 744//744 677//677 608//608
f 435//435 247//247 537//537
f 745//745 609//609 52//52
f 79//79 78//78 585//585
f 700//700 79//79 585//585
f 600//600 275//275 601//601
f 537//537 640//640 459//459
f 585//585 78//78 266//266
f 45//45 48//48 733//733
f 733//733 48//48 737//737
f 688//688 598//598 605//605
f 571//571 634//634 275//275
f 565//565 571//571 275//275
f 737//737 48//48 739//739
f 45//45 721//721 724//724
f 564//564 276//276 386//386
f 561//561 654//654 74//74
f 45//45 724//724 729//729
f 616//616 620//620 48//48
f 178//178 177//177 431//431
f 258//258 257//257 48//48
f 398//398 84//84 46//46
f 45//45 85//85 694//694
f 694//694 82//82 700//700
f 82//82 80//80 700//700
f 700//700 80//80 79//79
f 600//600 451//451 275//275
f 451//451 442//442 275//275
f 11//11 14//14 17//17
f 20//20 18//18 17//17
f 443//443 546//546 271//271
f 337//337 32//32 303//303
f 337//337 303//303 305//305
f 268//268 31//31 72//72
f 23//23 367//367 15//15
f 690//690 701//701 587//587
f 369//369 28//28 71//71
f 689//689 695//695 37//37
f 407//407 296//296 27//27
f 405//405 29//29 448//448
f 39//39 41//41 38//38
f 9//9 2//2 3//3
f 34//34 43//43 44//44
f 290//290 34//34 44//44
f 13//13 362//362 2//2
f 288//288 289//289 49//49
f 446//446 272//272 270//270
f 33//33 6//6 3//3
f 14//14 11//11 8//8
f 65//65 277//277 56//56
f 18//18 11//11 17//17
f 362//362 4//4 16//16
f 280//280 282//282 279//279
f 278//278 279//279 53//53
f 281//281 282//282 280//280
f 282//282 51//51 279//279
f 279//279 51//51 53//53
f 57//57 65//65 56//56
f 287//287 288//288 49//49
f 284//284 285//285 283//283
f 285//285 287//287 283//283
f 49//49 283//283 287//287
f 59//59 64//64 62//62
f 24//24 15//15 16//16
f 43//43 34//34 42//42

