mtllib material.mtl
usemtl black.002
v -0.04798300 0.04804200 0.19288400
v -0.04542800 0.05034700 0.20101700
v -0.04287300 0.05265200 0.20915100
v -0.04261900 0.05285900 0.19573800
v -0.04145800 0.05390100 0.19925800
v -0.04144900 0.05378100 0.19925800
v -0.04144900 0.05378100 0.19925800
v -0.04046400 0.05463600 0.20218200
v -0.04046400 0.05463600 0.20218200
v -0.04045600 0.05451800 0.20218200
v -0.03946200 0.05525500 0.20510700
v -0.03849700 0.05593200 0.19925800
v -0.03751600 0.05659400 0.20510700
v -0.03543000 0.05792400 0.19925800
v -0.03461100 -0.05841700 0.19913000
v -0.03143700 -0.06008100 0.20609800
v -0.03143500 -0.06007800 0.19601200
v -0.03142900 -0.06008100 0.19600700
v -0.03136900 -0.06011700 0.20616300
v -0.03080400 0.06041300 0.20101700
v -0.02824800 -0.06174500 0.20915100
v -0.02774000 0.06197500 0.19288400
v -0.02600400 -0.06252600 0.19704000
v -0.02600400 -0.06252600 0.20517400
v -0.02242700 0.06389700 0.20517400
v -0.02242700 0.06389700 0.19704000
v -0.02141800 -0.06443400 0.19288400
v -0.02023500 0.06481500 0.20915100
v -0.01968800 -0.06498300 0.19855300
v -0.01968800 -0.06498300 0.19855300
v -0.01942300 -0.06506300 0.19621200
v -0.01774100 0.06554100 0.20119700
v -0.01683400 0.06578900 0.20616300
v -0.01683400 0.06578900 0.20616300
v -0.01682700 0.06568800 0.20616300
v -0.01675500 0.06570600 0.20610000
v -0.01520300 -0.06617600 0.19274400
v -0.01466700 -0.06629700 0.19963000
v -0.01466700 -0.06629700 0.19963000
v -0.01466000 -0.06640100 0.19963000
v -0.01460500 -0.06631100 0.19874500
v -0.01442400 -0.06635000 0.19817700
v -0.01441700 -0.06645400 0.19817700
v -0.01409400 -0.06642100 0.19765000
v -0.01367100 -0.06650900 0.19724800
v -0.01366400 -0.06661300 0.19724800
v -0.01342500 0.06666200 0.20317400
v -0.01341800 0.06656100 0.20317400
v -0.01341800 0.06656100 0.20317400
v -0.01315700 -0.06661300 0.19695700
v -0.01258500 -0.06672300 0.19680100
v -0.01257800 -0.06682700 0.19680100
v -0.01182400 -0.06686300 0.19675700
v -0.01102600 0.06699900 0.20317400
v -0.00928400 -0.06726200 0.19675700
v -0.00672900 -0.06756600 0.19675700
v -0.00672200 -0.06766700 0.19675700
v -0.00586700 -0.06764600 0.19681500
v -0.00586000 -0.06774700 0.19681500
v -0.00558800 -0.06767000 0.19258200
v -0.00529900 -0.06769300 0.19699100
v -0.00529200 -0.06779400 0.19699100
v -0.00477600 -0.06773200 0.19730800
v -0.00439500 -0.06775800 0.19768600
v -0.00408000 -0.06777700 0.19819300
v -0.00395400 -0.06788500 0.19857100
v -0.00389800 -0.06778800 0.19877000
v -0.00383900 -0.06779100 0.19963000
v -0.00383900 -0.06779100 0.19963000
v -0.00383900 -0.06779100 0.20915100
v -0.00348300 -0.06781100 0.19271000
v -0.00201800 -0.06787000 0.19311800
v -0.00134900 0.06788700 0.19855300
v -0.00134900 0.06788700 0.19855300
v -0.00123200 0.06788900 0.19683800
v -0.00080400 -0.06789500 0.19377400
v -0.00052800 -0.06789800 0.19397900
v 0.00052200 0.06789800 0.19398400
v 0.00087300 0.06789400 0.19372700
v 0.00383900 0.06779100 0.19963000
v 0.00383900 0.06779100 0.19963000
v 0.00389300 0.06778800 0.19879400
v 0.00407000 0.06777800 0.19821600
v 0.00437400 0.06785900 0.19770400
v 0.00438100 0.06775900 0.19770400
v 0.00479600 0.06783100 0.19728700
v 0.00480300 0.06773000 0.19728700
v 0.00533200 0.06769000 0.19697600
v 0.00587800 -0.06764500 0.19288400
v 0.00590500 0.06764300 0.19680900
v 0.00672900 0.06756600 0.19675700
v 0.00928400 0.06726200 0.19258200
v 0.00928400 0.06726200 0.19675700
v 0.01102600 -0.06699900 0.19913000
v 0.01102600 -0.06699900 0.20317400
v 0.01182400 0.06686300 0.19675700
v 0.01260100 0.06672100 0.19680200
v 0.01317000 0.06661100 0.19696200
v 0.01367800 0.06661000 0.19725800
v 0.01368500 0.06650700 0.19725800
v 0.01410700 0.06641800 0.19766600
v 0.01442500 0.06645200 0.19819500
v 0.01443200 0.06634800 0.19819500
v 0.01460900 0.06631000 0.19876700
v 0.01466700 0.06629700 0.19963000
v 0.01675400 -0.06570300 0.19601000
v 0.01675800 -0.06570200 0.19600700
v 0.01676500 -0.06580300 0.19600700
v 0.01774100 -0.06554100 0.20119700
v 0.01966700 0.06498900 0.19761600
v 0.01968800 0.06498300 0.19855300
v 0.01968800 0.06498300 0.19855300
v 0.01968800 0.06498300 0.20915100
v 0.02242700 -0.06389700 0.20517400
v 0.02242700 -0.06389700 0.19704000
v 0.02600400 0.06252600 0.19704000
v 0.02600400 0.06252600 0.20517400
v 0.02774000 -0.06197500 0.19288400
v 0.03136900 0.06011700 0.20616300
v 0.03142100 0.06019800 0.19600700
v 0.03142900 0.06008100 0.19600700
v 0.03143500 0.06007800 0.19601200
v 0.03143700 0.06008100 0.20609800
v 0.03415100 -0.05868700 0.19573800
v 0.03461100 0.05841700 0.19913000
v 0.03647300 -0.05725900 0.20218200
v 0.03647300 -0.05725900 0.20218200
v 0.03647300 -0.05725900 0.20218200
v 0.03648100 -0.05737300 0.20218200
v 0.03648100 -0.05737300 0.20218200
v 0.03751600 -0.05659400 0.20510700
v 0.03752400 -0.05670900 0.20510700
v 0.03752400 -0.05670900 0.20510700
v 0.03849700 -0.05593200 0.19573800
v 0.03849700 -0.05593200 0.20510700
v 0.03849700 -0.05593200 0.20510700
v 0.03849700 -0.05593200 0.20510700
v 0.03849700 -0.05593200 0.20915100
v 0.04045600 -0.05451800 0.20218200
v 0.04144900 -0.05378100 0.19925800
v 0.04145800 -0.05390100 0.19925800
v 0.04542800 -0.05034700 0.20101700
v 0.04798300 -0.04804200 0.19288400
v 0.04144900 -0.05378100 0.19925800
v 0.04144900 -0.05378100 0.19925800
v 0.04144900 -0.05378100 0.19925800
v 0.04145800 -0.05390100 0.19925800
v 0.04145800 -0.05390100 0.19925800
v -0.04083000 -0.05425200 0.20915100
v -0.01112100 -0.06698300 0.19258200
v -0.00928400 -0.06726200 0.19258200
v -0.04083000 -0.05425200 0.19288400
v -0.03449000 -0.05848800 0.20317400
v 0.01466700 0.06629700 0.20915100
v 0.01466700 0.06629700 0.20915100
v -0.04355200 0.05209200 0.19288400
v -0.04355200 0.05209200 0.19288400
v -0.04308600 0.05247500 0.19431100
v 0.04144900 -0.05378100 0.19925800
v 0.04144900 -0.05378100 0.19925800
v 0.04144900 -0.05378100 0.19925800
v 0.04144900 -0.05378100 0.19925800
v 0.01102600 -0.06699900 0.19288400
v 0.01460900 0.06631000 0.19876700
v 0.01466700 0.06629700 0.19963000
v 0.01466700 0.06629700 0.19963000
v 0.03136100 0.06023400 0.20616300
v 0.03136100 0.06023400 0.20616300
v 0.04145800 -0.05390100 0.19925800
v -0.03461100 -0.05841700 0.19913000
v 0.02824800 0.06174500 0.19288400
v 0.03142900 0.06008100 0.19600700
v 0.03656300 0.05721500 0.20915100
v 0.03946200 -0.05525500 0.20510700
v 0.03946200 -0.05525500 0.20510700
v 0.03947000 -0.05537200 0.20510700
v 0.03947000 -0.05537200 0.20510700
v -0.02023500 0.06481500 0.19288400
v -0.01675800 0.06570200 0.19600700
v 0.02824800 0.06174500 0.20915100
v 0.03136900 0.06011700 0.20616300
v 0.01460200 0.06641400 0.19876700
v 0.01466000 0.06640100 0.19963000
v 0.02141800 0.06443400 0.20915100
v 0.03751600 -0.05659400 0.20510700
v 0.03751600 -0.05659400 0.20510700
v 0.03849700 -0.05593200 0.20510700
v 0.02141800 0.06443400 0.19288400
v 0.02141800 0.06443400 0.19288400
v -0.03415100 0.05868700 0.19573800
v 0.00030000 -0.06789900 0.19480200
v 0.00089800 -0.06789400 0.19576700
v -0.04799200 0.04817400 0.19288400
v -0.04799200 0.04817400 0.19288400
v -0.04666400 0.04946100 0.19288400
v -0.01675500 0.06570600 0.20610000
v -0.01341800 0.06656100 0.20317400
v -0.01341800 0.06656100 0.20317400
v -0.01772900 -0.06554500 0.19385700
v -0.01657900 -0.06584500 0.19317800
v -0.03059000 -0.06061900 0.20119700
v -0.00586700 -0.06764600 0.19681500
v -0.00529900 -0.06769300 0.19699100
v 0.02023500 -0.06481500 0.19288400
v 0.02023500 -0.06481500 0.19288400
v 0.02024200 -0.06491700 0.19288400
v 0.03386700 -0.05885100 0.20915100
v 0.03621200 -0.05743800 0.20915100
v -0.00030100 0.06789900 0.19480500
v -0.01675400 0.06570300 0.19601000
v -0.01328100 0.06658900 0.19913000
v -0.04661800 0.04941100 0.19725800
v -0.04661800 0.04941100 0.19725800
v -0.04661800 0.04941100 0.19725800
v 0.03080400 -0.06041300 0.20101700
v 0.01410700 0.06641800 0.19766600
v 0.01443200 0.06634800 0.19819500
v 0.01410000 0.06652200 0.19766600
v 0.01368500 0.06650700 0.19725800
v -0.01819200 -0.06541800 0.19425400
v 0.01341800 -0.06656100 0.20317400
v 0.03143500 0.06007800 0.19601200
v 0.03143500 0.06007800 0.19601200
v 0.03143500 0.06007800 0.19601200
v 0.02141800 0.06443400 0.19288400
v 0.02141800 0.06443400 0.19288400
v 0.03656300 0.05721500 0.20317400
v -0.03362600 0.05898600 0.19431100
v 0.02023500 -0.06481500 0.20915100
v -0.01295000 -0.06665400 0.19258200
v 0.03656300 0.05721500 0.19913000
v 0.03143700 0.06008100 0.20609800
v 0.03143700 0.06008100 0.20609800
v 0.02711200 -0.06225200 0.19288400
v -0.01342500 0.06666200 0.20317400
v 0.01181700 0.06696500 0.19675700
v 0.01259300 0.06682400 0.19680200
v 0.03656300 0.05721500 0.19288400
v -0.04058700 0.05443400 0.19573800
v 0.03543000 -0.05792400 0.19925800
v 0.03543000 -0.05792400 0.19925800
v 0.03849700 -0.05593200 0.19925800
v -0.00408000 -0.06777700 0.19819300
v -0.00389800 -0.06778800 0.19877000
v 0.02711200 -0.06225200 0.20915100
v -0.03849700 0.05593200 0.20510700
v 0.01328800 -0.06668900 0.19913000
v -0.00407300 -0.06787800 0.19819300
v -0.04144900 0.05378100 0.19925800
v -0.04144900 0.05378100 0.19925800
v -0.04144900 0.05378100 0.19925800
v -0.04144900 0.05378100 0.19925800
v -0.04144900 0.05378100 0.19925800
v -0.04144900 0.05378100 0.19925800
v 0.01182400 0.06686300 0.19675700
v 0.01260100 0.06672100 0.19680200
v 0.04355200 -0.05209200 0.19288400
v -0.02141800 -0.06443400 0.19288400
v -0.02141800 -0.06443400 0.19288400
v -0.02141800 -0.06443400 0.20915100
v -0.03310200 0.05928500 0.19288400
v 0.00587800 -0.06764500 0.20915100
v 0.01102600 -0.06699900 0.20915100
v 0.04261900 -0.05285900 0.19573800
v 0.04308600 -0.05247500 0.19431100
v -0.03621200 0.05743800 0.20915100
v -0.03386700 0.05885100 0.20915100
v -0.03143500 -0.06007800 0.19601200
v -0.03143500 -0.06007800 0.19601200
v -0.03143500 -0.06007800 0.19601200
v 0.03059000 0.06061900 0.20119700
v 0.00123200 -0.06788900 0.19683800
v 0.00134900 -0.06788700 0.19855300
v 0.00134900 -0.06788700 0.19855300
v 0.01675400 -0.06570300 0.19601000
v 0.01675800 -0.06570200 0.19600700
v 0.04083000 0.05425200 0.19288400
v 0.04083000 0.05425200 0.20915100
v 0.00134900 -0.06788700 0.20915100
v -0.02141800 -0.06443400 0.19288400
v -0.04798300 0.04804200 0.19288400
v -0.04798300 0.04804200 0.19288400
v -0.04798300 0.04804200 0.19288400
v -0.04798300 0.04804200 0.19288400
v -0.04798300 0.04804200 0.19288400
v -0.04542800 0.05034700 0.20101700
v -0.04542800 0.05034700 0.20101700
v -0.04542800 0.05034700 0.20101700
v -0.04542800 0.05034700 0.20101700
v -0.01258500 -0.06672300 0.19680100
v -0.01182400 -0.06686300 0.19675700
v -0.01181700 -0.06696500 0.19675700
v -0.00438800 -0.06785800 0.19768600
v 0.03752400 -0.05670900 0.20510700
v 0.03752400 -0.05670900 0.20510700
v -0.04145800 0.05390100 0.19925800
v -0.04145800 0.05390100 0.19925800
v -0.04145800 0.05390100 0.19925800
v 0.00672900 0.06756600 0.19675700
v 0.00928400 0.06726200 0.19675700
v -0.04543700 0.05047400 0.20101700
v -0.04543700 0.05047400 0.20101700
v -0.02824800 -0.06174500 0.19288400
v -0.01968800 -0.06498300 0.20915100
v -0.04288200 0.05277400 0.20915100
v -0.04288200 0.05277400 0.20915100
v -0.04287300 0.05265200 0.20915100
v 0.01898800 0.06519100 0.19525200
v 0.01943000 0.06506100 0.19623300
v -0.01682700 0.06568800 0.20616300
v -0.00439500 -0.06775800 0.19768600
v -0.01442400 -0.06635000 0.19817700
v -0.01409400 -0.06642100 0.19765000
v 0.03461100 0.05841700 0.19913000
v -0.01897700 -0.06519400 0.19523500
v -0.03849700 0.05593200 0.19573800
v 0.01675500 -0.06570600 0.20610000
v 0.01682700 -0.06568800 0.20616300
v 0.04045600 -0.05451800 0.20218200
v -0.01466700 -0.06629700 0.20915100
v 0.00532500 0.06779100 0.19697600
v 0.00589800 0.06774400 0.19680900
v 0.00210400 0.06786700 0.19308400
v -0.03142100 -0.06019800 0.19600700
v -0.03142900 -0.06008100 0.19600700
v 0.00533200 0.06769000 0.19697600
v 0.00590500 0.06764300 0.19680900
v -0.03946200 0.05525500 0.20510700
v 0.01295000 0.06665400 0.19258200
v 0.04798300 -0.04804200 0.19288400
v 0.04798300 -0.04804200 0.19288400
v -0.01966500 -0.06499000 0.19758400
v 0.01659100 0.06584200 0.19318400
v 0.01773900 0.06554200 0.19386400
v 0.04287300 -0.05265200 0.20915100
v -0.01408700 -0.06652500 0.19765000
v -0.00476900 -0.06783300 0.19730800
v -0.00477600 -0.06773200 0.19730800
v -0.03647300 0.05725900 0.20218200
v 0.01328100 -0.06658900 0.19913000
v 0.01328100 -0.06658900 0.19913000
v -0.01367100 -0.06650900 0.19724800
v 0.03449000 0.05848800 0.20317400
v 0.03449000 0.05848800 0.20317400
v -0.00928400 -0.06726200 0.19675700
v -0.00672900 -0.06756600 0.19675700
v 0.03460200 0.05853800 0.19913000
v -0.04045600 0.05451800 0.20218200
v -0.04045600 0.05451800 0.20218200
v -0.03656300 -0.05721500 0.19288400
v 0.00672200 0.06766700 0.19675700
v 0.01180800 0.06696700 0.19675700
v -0.03656300 -0.05721500 0.19913000
v 0.01521500 0.06617300 0.19274700
v -0.01466700 -0.06629700 0.19963000
v -0.01460500 -0.06631100 0.19874500
v -0.00089900 0.06789400 0.19577100
v -0.00134900 0.06788700 0.20915100
v 0.00383900 0.06779100 0.20915100
v 0.00407000 0.06777800 0.19821600
v 0.00438100 0.06775900 0.19770400
v 0.01316300 0.06671400 0.19696200
v 0.01820600 0.06541400 0.19426800
v -0.02711200 0.06225200 0.20915100
v 0.01317000 0.06661100 0.19696200
v -0.01315000 -0.06671600 0.19695700
v -0.02711200 0.06225200 0.19288400
v -0.01315700 -0.06661300 0.19695700
v -0.01102600 0.06699900 0.19913000
v -0.01459800 -0.06641500 0.19874500
v 0.00480300 0.06773000 0.19728700
v -0.01102600 0.06699900 0.20915100
v -0.01102600 0.06699900 0.19288400
v -0.03656300 -0.05721500 0.20317400
v -0.03656300 -0.05721500 0.20915100
v 0.03647300 -0.05725900 0.20218200
v -0.01102600 0.06699900 0.20317400
v 0.03362600 -0.05898600 0.19431100
v 0.03310200 -0.05928500 0.19288400
v -0.00587800 0.06764500 0.19288400
v -0.00389100 -0.06788900 0.19877000
v -0.00383900 -0.06779100 0.19963000
v -0.00587800 0.06764500 0.20915100
v -0.03849700 0.05593200 0.20915100
v 0.00358300 0.06780500 0.19269500
v 0.00383900 0.06779100 0.19963000
v 0.00406300 0.06787900 0.19821600
v 0.00388600 0.06788900 0.19879400
v -0.03398400 -0.05886000 0.19852300
v 0.00558800 0.06767000 0.19258200
v 0.00389300 0.06778800 0.19879400
vn -0.67560000 0.73680000 0.02640000
vn -0.64660000 0.76280000 -0.00260000
vn -0.61390000 0.78930000 -0.01270000
vn -0.65980000 0.75120000 0.02090000
vn -0.00000000 -0.00000000 1.00000000
vn -0.00000000 -0.00000000 1.00000000
vn -0.00000000 -0.00000000 1.00000000
vn -0.93980000 -0.06460000 0.33560000
vn -0.93980000 -0.06460000 0.33570000
vn -0.64620000 0.76270000 0.02740000
vn -0.60070000 0.79920000 0.02070000
vn -0.56290000 0.82650000 -0.00140000
vn -0.52610000 0.85040000 -0.00360000
vn -0.50070000 0.86560000 0.00450000
vn 0.71370000 0.05300000 0.69850000
vn -0.47690000 -0.87890000 0.00900000
vn -0.43410000 -0.90070000 -0.01800000
vn -0.35590000 -0.92300000 0.14620000
vn -0.43310000 -0.90130000 -0.00010000
vn -0.48170000 0.87630000 -0.00270000
vn -0.39610000 -0.91720000 -0.04340000
vn -0.45820000 0.88880000 0.01060000
vn -0.40620000 -0.91330000 -0.02900000
vn -0.39120000 -0.92010000 -0.01910000
vn -0.32370000 0.94600000 -0.01910000
vn -0.32250000 0.94640000 0.01780000
vn -0.36360000 -0.92360000 0.12170000
vn -0.31810000 0.94710000 -0.04330000
vn -0.25300000 -0.96750000 0.00040000
vn -0.25320000 -0.96740000 -0.00000000
vn -0.25320000 -0.96740000 0.01040000
vn -0.22770000 0.97370000 -0.00010000
vn -0.65200000 -0.04580000 -0.75690000
vn -0.65190000 -0.04620000 -0.75690000
vn -0.65200000 -0.04580000 -0.75690000
vn -0.23180000 0.97270000 0.00880000
vn -0.22050000 -0.97540000 0.00690000
vn -0.25320000 -0.96740000 -0.00000000
vn -0.25300000 -0.96750000 -0.00110000
vn -0.99720000 -0.06680000 -0.03460000
vn -0.25120000 -0.96790000 -0.00750000
vn -0.24370000 -0.96980000 -0.01180000
vn -0.90410000 -0.05960000 -0.42320000
vn -0.78630000 -0.05220000 -0.61570000
vn -0.21370000 -0.97680000 -0.01210000
vn -0.58650000 -0.04040000 -0.80890000
vn -0.00000000 -0.00000000 -1.00000000
vn -0.65200000 -0.04580000 -0.75690000
vn -0.65190000 -0.04620000 -0.75690000
vn -0.20010000 -0.97970000 -0.00880000
vn -0.17980000 -0.01220000 -0.98360000
vn -0.14670000 -0.00990000 -0.98910000
vn -0.16910000 -0.98560000 0.00060000
vn -0.00000000 -0.00000000 -1.00000000
vn -0.13600000 -0.99070000 0.00080000
vn 0.03010000 0.00210000 -0.99950000
vn 0.03780000 0.00260000 -0.99930000
vn 0.17260000 0.01180000 -0.98490000
vn 0.19500000 0.01340000 -0.98070000
vn -0.08730000 -0.99620000 -0.00260000
vn 0.40230000 0.02780000 -0.91510000
vn 0.42140000 0.02910000 -0.90640000
vn 0.61030000 0.04250000 -0.79100000
vn -0.04390000 -0.99900000 -0.01150000
vn 0.90580000 0.06290000 -0.41900000
vn 0.95200000 0.06390000 -0.29930000
vn 0.98010000 0.06690000 -0.18690000
vn -0.01870000 -0.99980000 -0.00100000
vn -0.01850000 -0.99980000 -0.00000000
vn -0.01850000 -0.99980000 -0.00000000
vn -0.05360000 -0.99860000 0.00240000
vn -0.03410000 -0.99940000 0.01050000
vn 0.01870000 0.99980000 0.00110000
vn 0.01850000 0.99980000 -0.00000000
vn 0.01870000 0.99980000 0.00610000
vn -0.02560000 -0.99960000 0.01370000
vn -0.02040000 -0.99970000 0.01650000
vn 0.02040000 0.99970000 0.01620000
vn 0.02610000 0.99960000 0.01320000
vn 0.01850000 0.99980000 -0.00000000
vn 0.01870000 0.99980000 -0.00100000
vn 0.02100000 0.99980000 -0.00530000
vn 0.02910000 0.99950000 -0.00890000
vn -0.78880000 -0.05540000 -0.61210000
vn 0.04400000 0.99900000 -0.01130000
vn -0.61780000 -0.04270000 -0.78520000
vn 0.05880000 0.99820000 -0.00610000
vn -0.38810000 -0.02720000 -0.92120000
vn 0.12450000 -0.99220000 -0.00000000
vn -0.16280000 -0.01120000 -0.98660000
vn -0.02820000 -0.00190000 -0.99960000
vn 0.13820000 0.99040000 -0.00170000
vn 0.13860000 0.99030000 -0.00200000
vn 0.14280000 -0.98970000 0.00020000
vn 0.14310000 -0.98970000 -0.00000000
vn 0.16570000 0.98620000 -0.00470000
vn 0.18490000 0.01400000 -0.98270000
vn 0.20060000 0.97960000 -0.00890000
vn 0.59260000 0.03980000 -0.80450000
vn 0.61960000 0.04160000 -0.78380000
vn 0.79150000 0.05350000 -0.60880000
vn 0.90760000 0.06130000 -0.41540000
vn 0.91500000 0.06190000 -0.39860000
vn 0.98220000 0.06650000 -0.17590000
vn 0.99720000 0.06680000 -0.03280000
vn 0.61770000 0.04480000 0.78510000
vn 0.62430000 0.04290000 0.78000000
vn 0.65940000 0.04780000 0.75030000
vn 0.22770000 -0.97370000 -0.00010000
vn 0.25230000 0.96760000 0.00340000
vn 0.25300000 0.96750000 0.00010000
vn 0.25320000 0.96740000 -0.00000000
vn 0.25320000 0.96740000 -0.00000000
vn 0.32370000 -0.94600000 -0.01910000
vn 0.30810000 -0.95090000 -0.02900000
vn 0.40620000 0.91330000 -0.02900000
vn 0.39120000 0.92010000 -0.01910000
vn 0.45820000 -0.88880000 0.01060000
vn -0.70340000 -0.04800000 -0.70920000
vn -0.71210000 -0.05160000 0.70020000
vn -0.67650000 -0.04750000 0.73490000
vn 0.43410000 0.90070000 -0.01800000
vn 0.47690000 0.87890000 0.00900000
vn 0.47180000 -0.88150000 0.01960000
vn -0.71360000 -0.05310000 0.69860000
vn -0.93490000 -0.06660000 0.34850000
vn -0.93500000 -0.06590000 0.34840000
vn -0.93500000 -0.06660000 0.34850000
vn -0.93500000 -0.06660000 0.34850000
vn -0.93490000 -0.06650000 0.34850000
vn 0.52610000 -0.85040000 -0.00360000
vn -0.00020000 -0.00000000 1.00000000
vn -0.00000000 -0.00000000 1.00000000
vn 0.56460000 -0.82530000 -0.00280000
vn -0.00020000 -0.00000000 1.00000000
vn -0.00010000 -0.00000000 1.00000000
vn -0.00000000 -0.00000000 1.00000000
vn 0.57610000 -0.81740000 0.00130000
vn 0.64620000 -0.76270000 0.02740000
vn -0.00000000 -0.00000000 1.00000000
vn 0.93900000 0.07040000 0.33670000
vn 0.64660000 -0.76280000 -0.00260000
vn 0.23470000 -0.23490000 0.94330000
vn -0.00000000 -0.00000000 1.00000000
vn 0.61280000 -0.79020000 0.00150000
vn -0.00000000 -0.00000000 1.00000000
vn -0.00000000 -0.00000000 1.00000000
vn -0.00000000 -0.00000000 1.00000000
vn -0.57040000 -0.82140000 -0.00000000
vn -0.16310000 -0.98660000 -0.00030000
vn -0.13140000 -0.99130000 -0.00170000
vn -0.57040000 -0.82140000 -0.00000000
vn -0.48650000 -0.87370000 -0.00100000
vn 0.99780000 0.06690000 -0.00000000
vn 0.25320000 0.96740000 -0.00000000
vn -0.00000000 -0.00000000 1.00000000
vn -0.67450000 0.73800000 0.02220000
vn -0.67450000 0.73800000 0.02220000
vn -0.00000000 -0.00000000 1.00000000
vn 0.93900000 0.07050000 0.33670000
vn 0.64970000 -0.76010000 0.01420000
vn -0.00000000 -0.00000000 1.00000000
vn 0.12450000 -0.99220000 -0.00000000
vn 0.25130000 0.96790000 -0.00750000
vn 0.25300000 0.96750000 -0.00110000
vn 0.25320000 0.96740000 -0.00000000
vn -0.70390000 -0.04840000 -0.70870000
vn -0.70340000 -0.04800000 -0.70920000
vn -0.00000000 -0.00000000 1.00000000
vn -0.48900000 -0.87230000 -0.00010000
vn 0.36360000 0.92360000 0.12170000
vn 0.35590000 0.92300000 0.14620000
vn 0.57040000 0.82140000 -0.00000000
vn 0.60070000 -0.79920000 0.02070000
vn -0.00010000 -0.00000000 1.00000000
vn -0.00010000 -0.00000000 1.00000000
vn -0.00000000 -0.00000000 1.00000000
vn -0.31790000 0.94720000 0.04150000
vn -0.29360000 0.95350000 0.06810000
vn 0.39610000 0.91720000 -0.04340000
vn 0.43310000 0.90130000 -0.00010000
vn 0.98080000 0.06640000 -0.18330000
vn 0.99720000 0.06690000 -0.03320000
vn 0.36620000 0.93020000 -0.02400000
vn -0.93500000 -0.06590000 0.34840000
vn -0.00020000 -0.00000000 1.00000000
vn 0.57450000 -0.81840000 0.00860000
vn 0.36360000 0.92360000 0.12170000
vn -0.00000000 -0.00000000 1.00000000
vn -0.47180000 0.88150000 0.01960000
vn -0.01830000 -0.99970000 0.01540000
vn -0.01720000 -0.99980000 0.01280000
vn 0.94670000 0.06450000 -0.31560000
vn -0.00000000 -0.00000000 1.00000000
vn -0.00000000 -0.00000000 1.00000000
vn -0.65200000 -0.04580000 -0.75690000
vn -0.00000000 -0.00000000 -1.00000000
vn -0.22180000 0.97510000 -0.00100000
vn -0.24680000 -0.96900000 0.01530000
vn -0.23710000 -0.97140000 0.01290000
vn -0.48120000 -0.87660000 -0.00010000
vn -0.08710000 -0.99620000 -0.00010000
vn -0.07520000 -0.99720000 -0.00170000
vn 0.66120000 0.04520000 0.74890000
vn 0.34660000 -0.93010000 0.12180000
vn 0.66120000 0.04520000 0.74890000
vn 0.50980000 -0.86010000 -0.02000000
vn 0.52930000 -0.84840000 -0.00630000
vn 0.01810000 0.99970000 0.01520000
vn -0.27850000 0.96040000 0.00720000
vn -0.21900000 0.97570000 -0.00000000
vn 0.94670000 0.06450000 -0.31560000
vn 0.94630000 0.06710000 -0.31630000
vn 0.94630000 0.06690000 -0.31630000
vn 0.48170000 -0.87630000 -0.00270000
vn 0.23010000 0.97310000 -0.01210000
vn 0.24390000 0.96970000 -0.01160000
vn 0.77440000 0.05230000 -0.63050000
vn 0.21450000 0.97670000 -0.01170000
vn -0.25170000 -0.96760000 0.01800000
vn 0.22180000 -0.97510000 -0.00100000
vn -0.69400000 -0.05190000 0.71810000
vn -0.00000000 -0.00000000 1.00000000
vn 0.35470000 0.92290000 0.15000000
vn -0.00000000 -0.00000000 1.00000000
vn 0.40620000 0.91330000 -0.02890000
vn 0.55490000 0.83190000 -0.00000000
vn -0.44840000 0.89360000 0.02230000
vn 0.31810000 -0.94710000 -0.04330000
vn -0.19300000 -0.98120000 0.00030000
vn 0.55510000 0.83180000 0.00020000
vn -0.70340000 -0.04800000 -0.70920000
vn -0.70390000 -0.04840000 -0.70870000
vn 0.32450000 -0.94530000 0.03160000
vn -0.65190000 -0.04620000 -0.75690000
vn 0.02490000 0.00170000 -0.99970000
vn 0.14950000 0.01140000 -0.98870000
vn 0.57040000 0.82140000 -0.00000000
vn -0.59670000 0.80250000 0.00030000
vn 0.50070000 -0.86560000 0.00450000
vn -0.93590000 -0.05790000 0.34740000
vn 0.56420000 -0.82560000 -0.00310000
vn -0.02940000 -0.99950000 -0.00950000
vn -0.02120000 -0.99980000 -0.00590000
vn 0.34910000 -0.93680000 -0.02380000
vn -0.57450000 0.81840000 0.00860000
vn 0.66090000 0.04700000 0.74900000
vn 0.90940000 0.06330000 -0.41100000
vn -0.61510000 0.78840000 0.00890000
vn -0.00000000 -0.00000000 1.00000000
vn -0.00000000 -0.00000000 1.00000000
vn -0.00000000 -0.00000000 1.00000000
vn -0.64970000 0.76010000 0.01420000
vn -0.93900000 -0.07050000 0.33670000
vn 0.03380000 0.00240000 -0.99940000
vn 0.18860000 0.98200000 -0.00340000
vn 0.67450000 -0.73800000 0.02220000
vn -0.00000000 -0.00000000 1.00000000
vn -0.40620000 -0.91330000 -0.02890000
vn -0.36620000 -0.93020000 -0.02400000
vn -0.44830000 0.89360000 0.02270000
vn 0.12450000 -0.99220000 -0.00000000
vn 0.12450000 -0.99220000 -0.00000000
vn 0.65600000 -0.75450000 0.01880000
vn 0.67450000 -0.73800000 0.02220000
vn -0.52930000 0.84840000 -0.00630000
vn -0.50980000 0.86010000 -0.02000000
vn -0.00000000 -0.00000000 1.00000000
vn -0.35470000 -0.92290000 0.15000000
vn 0.69420000 0.05190000 0.71790000
vn 0.48120000 0.87660000 -0.00010000
vn -0.01880000 -0.99980000 0.00610000
vn -0.01850000 -0.99980000 -0.00000000
vn -0.01870000 -0.99980000 0.00110000
vn 0.27850000 -0.96040000 0.00720000
vn 0.30310000 -0.95070000 0.06530000
vn 0.57040000 0.82140000 -0.00000000
vn 0.57040000 0.82140000 -0.00000000
vn -0.01850000 -0.99980000 -0.00000000
vn -0.00000000 -0.00000000 1.00000000
vn 0.94670000 0.06450000 -0.31560000
vn 0.94630000 0.06690000 -0.31630000
vn -0.23470000 0.23490000 0.94330000
vn -0.00000000 -0.00000000 1.00000000
vn -0.65540000 0.75520000 -0.00810000
vn 0.94630000 0.06710000 -0.31620000
vn 0.94630000 0.06710000 -0.31630000
vn 0.94630000 0.06690000 -0.31630000
vn 0.94590000 0.06980000 -0.31690000
vn -0.18870000 -0.98200000 -0.00330000
vn -0.03370000 -0.00230000 -0.99940000
vn -0.02500000 -0.00170000 -0.99970000
vn 0.78620000 0.05520000 -0.61560000
vn -0.93500000 -0.06660000 0.34850000
vn -0.93500000 -0.06590000 0.34840000
vn -0.93900000 -0.07040000 0.33660000
vn -0.00000000 -0.00000000 1.00000000
vn -0.00000000 -0.00000000 1.00000000
vn 0.10530000 0.99440000 -0.00160000
vn -0.00000000 -0.00000000 -1.00000000
vn 0.94630000 0.06710000 -0.31620000
vn 0.94630000 0.06710000 -0.31630000
vn -0.36360000 -0.92360000 0.12170000
vn -0.25320000 -0.96740000 -0.00000000
vn 0.94630000 0.06710000 -0.31620000
vn 0.94590000 0.06980000 -0.31690000
vn 0.94590000 0.06980000 -0.31690000
vn 0.25270000 0.96740000 0.01470000
vn 0.25320000 0.96740000 0.01050000
vn -0.27960000 0.96010000 -0.00020000
vn 0.77850000 0.05470000 -0.62530000
vn -0.91180000 -0.06010000 -0.40630000
vn -0.22930000 -0.97330000 -0.01290000
vn 0.48900000 0.87230000 -0.00010000
vn -0.25270000 -0.96740000 0.01490000
vn -0.55920000 0.82900000 -0.00000000
vn 0.23180000 -0.97270000 0.00880000
vn 0.27960000 -0.96010000 -0.00020000
vn 0.93970000 0.06470000 0.33570000
vn -0.25320000 -0.96740000 -0.00000000
vn -0.40790000 -0.02860000 -0.91260000
vn -0.18420000 -0.01260000 -0.98280000
vn 0.03520000 0.99930000 0.01000000
vn 0.71210000 0.05160000 0.70020000
vn 0.67700000 0.04740000 0.73450000
vn 0.07570000 0.99710000 -0.00160000
vn 0.08710000 0.99620000 -0.00020000
vn -0.93980000 -0.06460000 0.33560000
vn 0.18610000 0.98250000 -0.00030000
vn 0.67560000 -0.73680000 0.02640000
vn 0.65540000 -0.75520000 -0.00810000
vn -0.25220000 -0.96770000 0.00350000
vn 0.23740000 0.97130000 0.01270000
vn 0.24700000 0.96890000 0.01510000
vn 0.61390000 -0.78930000 -0.01270000
vn -0.76890000 -0.05120000 -0.63730000
vn 0.62340000 0.04340000 -0.78070000
vn -0.05790000 -0.99830000 -0.00610000
vn -0.48170000 0.87590000 0.02740000
vn 0.21900000 -0.97570000 -0.00000000
vn 0.66090000 0.04700000 0.74900000
vn -0.61360000 -0.04220000 -0.78850000
vn 0.48650000 0.87370000 -0.00100000
vn -0.70390000 -0.04840000 -0.70870000
vn -0.00000000 -0.00000000 -1.00000000
vn -0.10500000 -0.99450000 -0.00150000
vn -0.71360000 -0.05310000 0.69860000
vn -0.93980000 -0.06460000 0.33560000
vn -0.93980000 -0.06470000 0.33570000
vn -0.57040000 -0.82140000 -0.00000000
vn -0.03540000 -0.00240000 -0.99940000
vn 0.00040000 -0.00000000 -1.00000000
vn -0.55510000 -0.83180000 0.00020000
vn 0.22070000 0.97530000 0.00660000
vn -0.99720000 -0.06680000 -0.03420000
vn -0.98130000 -0.06530000 -0.18120000
vn 0.01710000 0.99980000 0.01280000
vn 0.01850000 0.99980000 -0.00000000
vn 0.01850000 0.99980000 -0.00000000
vn -0.90960000 -0.06290000 -0.41060000
vn -0.78080000 -0.05480000 -0.62240000
vn 0.37390000 0.02560000 -0.92710000
vn 0.25170000 0.96760000 0.01770000
vn -0.34910000 0.93680000 -0.02380000
vn 0.40930000 0.02790000 -0.91200000
vn -0.36710000 -0.02530000 -0.92980000
vn -0.34910000 0.93680000 0.02280000
vn -0.40300000 -0.02780000 -0.91480000
vn -0.14280000 0.98970000 0.00020000
vn -0.97980000 -0.06510000 -0.18900000
vn -0.60390000 -0.04170000 -0.79600000
vn -0.12450000 0.99220000 -0.00000000
vn -0.12450000 0.99220000 -0.00000000
vn -0.55490000 -0.83190000 -0.00000000
vn -0.57040000 -0.82140000 -0.00000000
vn 0.48170000 -0.87590000 0.02740000
vn -0.14310000 0.98970000 -0.00000000
vn 0.44840000 -0.89360000 0.02230000
vn 0.44830000 -0.89360000 0.02270000
vn -0.12450000 0.99220000 -0.00000000
vn 0.98070000 0.06720000 -0.18350000
vn 0.99700000 0.06940000 -0.03420000
vn -0.12450000 0.99220000 -0.00000000
vn -0.57610000 0.81740000 0.00130000
vn 0.05460000 0.99850000 0.00220000
vn -0.99710000 -0.06940000 -0.03220000
vn -0.91300000 -0.06310000 -0.40300000
vn -0.98180000 -0.06780000 -0.17710000
vn 0.71330000 0.05170000 0.69900000
vn 0.08740000 0.99620000 -0.00250000
vn -0.98130000 -0.06780000 -0.18040000
f 125//125 347//347 222//222
f 222//222 347//347 120//120
f 222//222 120//120 121//121
f 167//167 344//344 233//233
f 168//168 232//232 119//119
f 105//105 183//183 154//154
f 183//183 105//105 104//104
f 183//183 104//104 182//182
f 182//182 104//104 103//103
f 182//182 103//103 102//102
f 102//102 103//103 101//101
f 102//102 101//101 218//218
f 218//218 101//101 100//100
f 218//218 100//100 99//99
f 99//99 100//100 365//365
f 99//99 365//365 362//362
f 362//362 365//365 97//97
f 362//362 97//97 237//237
f 237//237 97//97 255//255
f 237//237 255//255 236//236
f 91//91 351//351 300//300
f 300//300 351//351 352//352
f 300//300 352//352 255//255
f 255//255 352//352 236//236
f 351//351 91//91 90//90
f 351//351 90//90 322//322
f 322//322 90//90 88//88
f 322//322 88//88 321//321
f 321//321 88//88 371//371
f 321//321 371//371 86//86
f 86//86 371//371 361//361
f 86//86 361//361 84//84
f 84//84 361//361 360//360
f 84//84 360//360 387//387
f 387//387 360//360 391//391
f 387//387 391//391 388//388
f 388//388 391//391 386//386
f 197//197 47//47 54//54
f 34//34 235//235 49//49
f 48//48 196//196 33//33
f 33//33 196//196 35//35
f 324//324 325//325 270//270
f 324//324 270//270 389//389
f 389//389 270//270 15//15
f 291//291 292//292 52//52
f 291//291 52//52 51//51
f 51//51 52//52 366//366
f 51//51 366//366 368//368
f 368//368 366//366 46//46
f 368//368 46//46 342//342
f 342//342 46//46 336//336
f 342//342 336//336 44//44
f 44//44 336//336 43//43
f 44//44 43//43 312//312
f 312//312 43//43 370//370
f 312//312 370//370 356//356
f 356//356 370//370 40//40
f 356//356 40//40 355//355
f 56//56 57//57 345//345
f 345//345 57//57 292//292
f 345//345 292//292 291//291
f 382//382 381//381 67//67
f 67//67 381//381 66//66
f 67//67 66//66 65//65
f 66//66 248//248 65//65
f 65//65 248//248 293//293
f 65//65 293//293 311//311
f 311//311 293//293 337//337
f 311//311 337//337 63//63
f 63//63 337//337 62//62
f 63//63 62//62 61//61
f 61//61 62//62 59//59
f 61//61 59//59 58//58
f 58//58 59//59 57//57
f 58//58 57//57 56//56
f 341//341 247//247 106//106
f 106//106 247//247 108//108
f 106//106 108//108 107//107
f 107//107 108//108 206//206
f 107//107 206//206 204//204
f 288//288 282//282 214//214
f 212//212 281//281 193//193
f 213//213 302//302 287//287
f 286//286 301//301 305//305
f 289//289 306//306 307//307
f 194//194 284//284 195//195
f 195//195 284//284 156//156
f 227//227 173//173 278//278
f 277//277 238//238 231//231
f 278//278 277//277 227//227
f 227//227 277//277 231//231
f 227//227 231//231 343//343
f 343//343 231//231 314//314
f 343//343 314//314 123//123
f 116//116 271//271 122//122
f 172//172 171//171 188//188
f 172//172 188//188 224//224
f 223//223 189//189 225//225
f 122//122 226//226 116//116
f 314//314 122//122 123//123
f 123//123 122//122 271//271
f 123//123 271//271 181//181
f 181//181 271//271 117//117
f 181//181 117//117 180//180
f 180//180 117//117 184//184
f 329//329 256//256 354//354
f 354//354 256//256 98//98
f 354//354 98//98 333//333
f 333//333 98//98 219//219
f 333//333 219//219 334//334
f 334//334 219//219 216//216
f 217//217 308//308 216//216
f 216//216 308//308 363//363
f 216//216 363//363 334//334
f 155//155 113//113 166//166
f 166//166 113//113 112//112
f 165//165 111//111 164//164
f 164//164 111//111 110//110
f 164//164 110//110 217//217
f 217//217 110//110 309//309
f 217//217 309//309 308//308
f 74//74 358//358 359//359
f 359//359 80//80 74//74
f 73//73 81//81 82//82
f 73//73 82//82 75//75
f 75//75 82//82 83//83
f 75//75 83//83 357//357
f 357//357 83//83 209//209
f 209//209 83//83 85//85
f 209//209 85//85 78//78
f 78//78 85//85 79//79
f 79//79 85//85 87//87
f 79//79 87//87 323//323
f 323//323 87//87 385//385
f 385//385 87//87 326//326
f 385//385 326//326 390//390
f 326//326 327//327 390//390
f 390//390 327//327 299//299
f 390//390 299//299 92//92
f 92//92 299//299 93//93
f 92//92 93//93 329//329
f 329//329 93//93 96//96
f 329//329 96//96 256//256
f 377//377 372//372 383//383
f 210//210 179//179 26//26
f 26//26 179//179 178//178
f 26//26 178//178 367//367
f 364//364 28//28 25//25
f 25//25 28//28 310//310
f 25//25 310//310 32//32
f 32//32 310//310 36//36
f 380//380 373//373 369//369
f 26//26 32//32 210//210
f 210//210 32//32 36//36
f 210//210 36//36 211//211
f 211//211 36//36 198//198
f 211//211 198//198 369//369
f 369//369 198//198 377//377
f 369//369 377//377 380//380
f 380//380 377//377 383//383
f 374//374 375//375 149//149
f 18//18 303//303 27//27
f 18//18 27//27 269//269
f 268//268 280//280 258//258
f 17//17 259//259 23//23
f 16//16 201//201 19//19
f 19//19 201//201 24//24
f 19//19 24//24 21//21
f 21//21 24//24 260//260
f 152//152 350//350 353//353
f 23//23 201//201 17//17
f 17//17 201//201 16//16
f 17//17 16//16 170//170
f 170//170 16//16 153//153
f 170//170 153//153 353//353
f 353//353 153//153 374//374
f 353//353 374//374 152//152
f 152//152 374//374 149//149
f 313//313 42//42 315//315
f 320//320 304//304 38//38
f 38//38 304//304 30//30
f 39//39 29//29 41//41
f 41//41 29//29 332//332
f 41//41 332//332 42//42
f 42//42 332//332 31//31
f 42//42 31//31 315//315
f 273//273 279//279 70//70
f 70//70 69//69 273//273
f 274//274 68//68 244//244
f 274//274 244//244 272//272
f 272//272 244//244 243//243
f 272//272 243//243 192//192
f 192//192 243//243 191//191
f 191//191 243//243 64//64
f 191//191 64//64 77//77
f 77//77 64//64 76//76
f 76//76 64//64 338//338
f 76//76 338//338 72//72
f 72//72 338//338 71//71
f 71//71 338//338 203//203
f 71//71 203//203 60//60
f 315//315 220//220 313//313
f 313//313 220//220 199//199
f 313//313 199//199 45//45
f 45//45 199//199 200//200
f 45//45 200//200 50//50
f 50//50 200//200 37//37
f 50//50 37//37 290//290
f 290//290 37//37 230//230
f 290//290 230//230 53//53
f 53//53 230//230 150//150
f 53//53 150//150 55//55
f 55//55 150//150 151//151
f 55//55 151//151 346//346
f 346//346 151//151 60//60
f 346//346 60//60 202//202
f 202//202 60//60 203//203
f 95//95 263//263 262//262
f 205//205 234//234 276//276
f 276//276 234//234 115//115
f 276//276 115//115 275//275
f 245//245 229//229 114//114
f 114//114 229//229 318//318
f 114//114 318//318 109//109
f 109//109 318//318 317//317
f 89//89 163//163 94//94
f 115//115 109//109 275//275
f 275//275 109//109 317//317
f 275//275 317//317 340//340
f 340//340 317//317 221//221
f 340//340 221//221 94//94
f 94//94 221//221 95//95
f 94//94 95//95 89//89
f 89//89 95//95 262//262
f 144//144 143//143 140//140
f 161//161 331//331 142//142
f 161//161 142//142 139//139
f 379//379 378//378 118//118
f 118//118 378//378 124//124
f 215//215 118//118 240//240
f 240//240 118//118 124//124
f 240//240 124//124 242//242
f 242//242 124//124 134//134
f 242//242 134//134 145//145
f 145//145 134//134 264//264
f 145//145 264//264 330//330
f 330//330 264//264 265//265
f 330//330 265//265 257//257
f 240//240 376//376 215//215
f 215//215 376//376 131//131
f 215//215 131//131 207//207
f 139//139 142//142 174//174
f 174//174 142//142 335//335
f 174//174 335//335 187//187
f 187//187 335//335 138//138
f 187//187 138//138 131//131
f 131//131 138//138 208//208
f 131//131 208//208 207//207
f 22//22 261//261 228//228
f 12//12 14//14 190//190
f 228//228 190//190 22//22
f 22//22 190//190 14//14
f 22//22 14//14 20//20
f 266//266 267//267 13//13
f 13//13 267//267 20//20
f 13//13 20//20 339//339
f 339//339 20//20 14//14
f 266//266 13//13 384//384
f 384//384 13//13 246//246
f 384//384 246//246 3//3
f 3//3 246//246 11//11
f 3//3 11//11 2//2
f 6//6 283//283 7//7
f 253//253 285//285 2//2
f 253//253 2//2 10//10
f 10//10 2//2 11//11
f 190//190 316//316 12//12
f 12//12 316//316 239//239
f 12//12 239//239 249//249
f 249//249 239//239 4//4
f 249//249 4//4 1//1
f 1//1 4//4 158//158
f 1//1 158//158 157//157
f 241//241 130//130 126//126
f 128//128 129//129 294//294
f 127//127 295//295 185//185
f 186//186 132//132 135//135
f 137//137 133//133 177//177
f 136//136 176//176 175//175
f 319//319 141//141 160//160
f 159//159 169//169 147//147
f 162//162 148//148 146//146
f 297//297 250//250 252//252
f 298//298 251//251 5//5
f 296//296 254//254 349//349
f 296//296 349//349 9//9
f 8//8 348//348 328//328

