# Blender 3.3.21
# www.blender.org
mtllib wrist2_mesh.mtl
o wrist2_mesh
v 0.000000 0.000000 0.000000
v -0.014766 0.019088 0.000014
v 0.002163 0.024047 0.000003
v 0.017940 0.016099 0.000016
v -0.023615 0.004598 0.000003
v 0.023159 0.006266 0.000015
v 0.022091 -0.008798 -0.000000
v -0.020038 -0.013220 0.000016
v -0.003986 -0.023800 0.000010
v -0.013227 -0.019925 0.000019
v 0.012655 -0.020292 -0.000004
v -0.006739 0.023126 0.000528
v 0.003419 0.024137 0.002298
v -0.007262 0.023018 0.002297
v 0.011075 0.021387 0.000513
v 0.016138 0.018230 0.002311
v -0.015236 0.018832 0.002296
v -0.020833 0.012095 0.000533
v -0.022781 0.008710 0.002305
v 0.022638 0.008377 0.002297
v -0.023998 -0.003643 0.000566
v 0.024183 -0.000513 0.002303
v 0.024109 -0.002768 0.000594
v -0.023994 -0.004472 0.002289
v 0.021895 -0.009991 0.002303
v 0.018752 -0.015652 0.000487
v -0.019282 -0.014595 0.002297
v 0.017020 -0.017116 0.002297
v -0.012619 -0.020577 0.002297
v 0.009599 -0.022191 0.002303
v 0.007818 -0.023017 0.000527
v -0.001942 -0.024265 0.002294
v -0.013709 0.028743 0.002300
v -0.001834 0.032015 0.002306
v 0.011989 0.029630 0.002295
v -0.021885 0.023179 0.002300
v 0.021092 0.023902 0.002300
v -0.026790 0.017040 0.002300
v 0.027489 0.016075 0.002300
v -0.031509 0.005730 0.002306
v 0.031204 0.006483 0.002302
v -0.031210 -0.006330 0.002300
v 0.031434 -0.006548 0.002305
v -0.027564 -0.015972 0.002303
v -0.020539 -0.024364 0.002301
v 0.025763 -0.018717 0.002300
v -0.008856 -0.030821 0.002305
v 0.018578 -0.025891 0.002302
v 0.006825 -0.031383 0.002304
v -0.005774 0.032177 -0.001000
v 0.002643 0.032653 -0.000923
v -0.013261 0.029962 -0.000926
v 0.012816 0.030271 -0.001013
v -0.022305 0.024130 -0.000969
v 0.019763 0.026041 -0.001000
v 0.025597 0.020554 -0.001105
v -0.027584 0.017545 -0.001000
v -0.031225 0.010132 -0.000967
v 0.029775 0.013496 -0.001000
v 0.032335 0.005947 -0.000985
v -0.032825 0.001695 -0.001226
v -0.032299 -0.005881 -0.000970
v 0.032716 -0.002560 -0.001155
v 0.030968 -0.010950 -0.000972
v -0.029775 -0.013496 -0.001000
v -0.025769 -0.020338 -0.001027
v 0.026034 -0.019981 -0.000947
v -0.016008 -0.028826 -0.001088
v 0.018506 -0.027098 -0.000938
v 0.006003 -0.032494 -0.000841
v -0.004987 -0.032308 -0.001000
v -0.009084 0.032445 -0.000416
v 0.002242 0.033606 -0.000552
v 0.012721 0.031226 -0.000437
v -0.018555 0.028119 -0.000621
v 0.019755 0.027133 -0.000466
v -0.024554 0.022840 -0.000388
v 0.025885 0.021587 -0.000497
v -0.029384 0.016562 -0.000595
v 0.030250 0.014580 -0.000488
v -0.033169 0.005986 -0.000288
v 0.032929 0.007066 -0.000415
v -0.033189 -0.005341 -0.000335
v -0.030871 -0.013256 -0.000595
v 0.032266 -0.009567 -0.000394
v 0.028612 -0.017714 -0.000590
v -0.026895 -0.020151 -0.000331
v -0.020057 -0.027077 -0.000509
v 0.024252 -0.023271 -0.000553
v 0.016222 -0.029552 -0.000464
v -0.011421 -0.031623 -0.000548
v 0.006262 -0.033026 -0.000435
v -0.002787 -0.033495 -0.000593
v -0.003481 0.031570 0.005161
v 0.004178 0.031509 0.005133
v -0.014075 0.028721 0.005009
v 0.013090 0.029010 0.005117
v -0.022347 0.022729 0.004895
v 0.019288 0.025203 0.005095
v -0.027639 0.015761 0.005093
v 0.025046 0.019687 0.005068
v -0.031432 0.006008 0.005112
v 0.028683 0.013688 0.005075
v 0.031361 0.005611 0.005137
v -0.031537 -0.004507 0.005113
v 0.033512 -0.000993 -0.000303
v 0.031698 -0.001989 0.005082
v -0.029399 -0.011988 0.005057
v 0.030252 -0.010016 0.005089
v -0.025817 -0.018698 0.005101
v 0.027227 -0.016407 0.005031
v -0.019112 -0.025478 0.005091
v 0.019964 -0.024923 0.005520
v -0.012173 -0.029411 0.004974
v -0.003826 -0.031658 0.005143
v 0.009599 -0.030452 0.004955
v 0.003905 -0.032046 0.004252
v -0.000936 0.031875 0.008431
v 0.012140 0.029200 0.008426
v -0.013409 0.028615 0.008519
v 0.022230 0.022701 0.008435
v -0.021883 0.022957 0.008490
v -0.028063 0.014616 0.008498
v 0.028690 0.013004 0.008500
v 0.031085 0.005293 0.008994
v -0.031362 0.004402 0.008459
v 0.031185 -0.006117 0.008453
v -0.030515 -0.008995 0.008494
v 0.026579 -0.016906 0.008500
v -0.024546 -0.019933 0.008431
v 0.020063 -0.024662 0.008383
v -0.017699 -0.025860 0.008994
v -0.011953 -0.029244 0.008467
v 0.008291 -0.030532 0.008487
v -0.001859 -0.031620 0.008519
v -0.011685 0.029012 0.009001
v 0.000000 0.000000 0.009000
v 0.003355 0.031225 0.009000
v 0.016010 0.026681 0.009000
v -0.021934 0.022070 0.009000
v 0.025620 0.018129 0.009000
v -0.029372 0.010882 0.009001
v -0.030996 -0.004152 0.009001
v -0.003192 -0.031209 0.009002
v 0.011994 -0.028888 0.009001
v -0.025620 -0.018129 0.009000
v 0.029443 -0.010874 0.009000
v 0.021934 -0.022070 0.009000
vn 0.0255 0.7267 -0.6864
vn 0.6025 0.4628 -0.6502
vn -0.0001 0.0001 -1.0000
vn -0.7836 0.0884 -0.6149
vn -0.4396 0.5871 -0.6798
vn 0.7145 0.1769 -0.6768
vn 0.8352 -0.3478 -0.4260
vn -0.6293 -0.3768 -0.6797
vn 0.5034 -0.7561 -0.4181
vn -0.1689 -0.7291 -0.6632
vn -0.4067 -0.5853 -0.7014
vn -0.2132 0.8068 -0.5510
vn 0.1029 0.5988 -0.7943
vn -0.2028 0.6174 -0.7600
vn 0.3941 0.8135 -0.4277
vn 0.3820 0.4543 -0.8048
vn -0.4153 0.4895 -0.7668
vn -0.7310 0.4928 -0.4721
vn -0.5426 0.2061 -0.8143
vn 0.5590 0.2446 -0.7923
vn -0.8222 -0.0854 -0.5628
vn 0.6372 0.0210 -0.7704
vn 0.8800 -0.1362 -0.4549
vn -0.5949 -0.1295 -0.7933
vn 0.5109 -0.2149 -0.8324
vn 0.6942 -0.5496 -0.4648
vn -0.4773 -0.3903 -0.7873
vn 0.4093 -0.5065 -0.7589
vn -0.3104 -0.5401 -0.7822
vn 0.2991 -0.5548 -0.7763
vn 0.2304 -0.8533 -0.4678
vn -0.0163 -0.5898 -0.8074
vn 0.2782 -0.5750 -0.7694
vn 0.0412 -0.6684 -0.7427
vn -0.2320 -0.6000 -0.7656
vn -0.4249 -0.4840 -0.7650
vn 0.5323 -0.3326 -0.7785
vn 0.4332 -0.4589 -0.7758
vn -0.5550 -0.3209 -0.7675
vn 0.6447 -0.1142 -0.7558
vn -0.6174 -0.1252 -0.7766
vn 0.6180 0.1230 -0.7765
vn -0.6521 0.1314 -0.7467
vn 0.5552 0.3180 -0.7685
vn 0.4325 0.5073 -0.7454
vn -0.5170 0.3635 -0.7750
vn 0.1845 0.6582 -0.7299
vn -0.3717 0.5170 -0.7710
vn -0.1507 0.6341 -0.7585
vn 0.1094 -0.2085 -0.9719
vn -0.0458 -0.3524 -0.9347
vn 0.0961 -0.2345 -0.9674
vn -0.0857 -0.2493 -0.9646
vn 0.1230 -0.1580 -0.9797
vn -0.1638 -0.2650 -0.9502
vn -0.1676 -0.1770 -0.9698
vn 0.3222 -0.1700 -0.9313
vn 0.0998 -0.0666 -0.9928
vn -0.2810 -0.1296 -0.9509
vn -0.2141 -0.0551 -0.9753
vn -0.0321 0.0154 -0.9994
vn 0.2263 0.0067 -0.9740
vn -0.0938 -0.0716 -0.9930
vn -0.1903 0.0879 -0.9778
vn 0.3441 0.1243 -0.9307
vn 0.1431 0.0991 -0.9847
vn -0.2493 0.1937 -0.9489
vn 0.0294 0.0162 -0.9994
vn -0.0973 0.2149 -0.9718
vn -0.0145 0.2255 -0.9741
vn -0.0164 0.3028 -0.9529
vn -0.2514 0.9012 -0.3530
vn 0.0561 0.9138 -0.4022
vn 0.3423 0.8875 -0.3086
vn -0.4915 0.7436 -0.4533
vn 0.5440 0.7663 -0.3417
vn -0.7091 0.6339 -0.3087
vn 0.7205 0.6188 -0.3130
vn -0.8004 0.4366 -0.4108
vn 0.8370 0.4156 -0.3560
vn -0.9458 0.1799 -0.2704
vn 0.9247 0.2169 -0.3128
vn 0.9755 -0.0098 -0.2198
vn -0.9542 -0.1450 -0.2618
vn -0.8473 -0.3547 -0.3953
vn 0.9153 -0.2587 -0.3089
vn 0.7718 -0.4693 -0.4290
vn -0.7753 -0.5790 -0.2525
vn -0.5667 -0.7313 -0.3795
vn 0.6533 -0.6290 -0.4215
vn 0.4165 -0.8115 -0.4098
vn -0.3006 -0.8665 -0.3986
vn 0.1927 -0.9270 -0.3217
vn -0.0620 -0.8968 -0.4380
vn -0.1451 0.9729 0.1803
vn 0.1571 0.9620 0.2231
vn -0.4323 0.8758 0.2148
vn 0.4125 0.8873 0.2063
vn 0.5738 0.7885 0.2213
vn -0.6866 0.7009 0.1930
vn 0.7768 0.5886 0.2238
vn -0.8494 0.4910 0.1935
vn 0.8851 0.4194 0.2018
vn -0.9592 0.1943 0.2053
vn 0.9637 0.1676 0.2077
vn -0.9684 -0.1105 0.2235
vn 0.9720 -0.0373 0.2322
vn 0.9196 -0.3245 0.2212
vn -0.9000 -0.3894 0.1959
vn -0.7987 -0.5642 0.2093
vn 0.8312 -0.5157 0.2078
vn -0.5916 -0.7763 0.2178
vn 0.6149 -0.7683 0.1778
vn -0.3802 -0.9040 0.1953
vn -0.1279 -0.9707 0.2036
vn 0.3141 -0.9245 0.2162
vn 0.0885 -0.8363 0.5412
vn -0.0497 0.8697 0.4911
vn -0.4050 0.7990 0.4445
vn 0.3199 0.8059 0.4981
vn 0.5969 0.6325 0.4936
vn -0.5966 0.6726 0.4379
vn -0.7580 0.4131 0.5048
vn 0.7943 0.3532 0.4943
vn 0.7019 0.1058 0.7044
vn -0.8322 0.0925 0.5467
vn 0.8468 -0.1418 0.5126
vn -0.8119 -0.2562 0.5246
vn 0.7114 -0.4725 0.5202
vn -0.6994 -0.6167 0.3613
vn 0.5454 -0.6919 0.4732
vn -0.3847 -0.5681 0.7275
vn -0.3122 -0.7823 0.5390
vn 0.1914 -0.8352 0.5155
vn 0.0113 -0.9239 0.3824
vn -0.0000 -0.0000 1.0000
vn 0.3724 0.5848 0.7207
vn -0.1863 0.6428 0.7430
vn -0.2989 0.2639 0.9171
vn 0.7138 0.4763 0.5135
vn -0.7308 0.2414 0.6385
vn -0.8096 -0.0576 0.5842
vn 0.7845 -0.3305 0.5247
vn 0.3527 -0.7299 0.5855
vn 0.4210 -0.3678 0.8291
vn 0.1554 0.8110 0.5640
vn -0.6540 -0.3765 0.6561
vn -0.1245 -0.6245 0.7711
s 1
usemtl Material-Metal.031
f 3//1 4//2 1//3
f 1//3 5//4 2//5
f 6//6 1//3 4//2
f 7//7 1//3 6//6
f 8//8 5//4 1//3
f 1//3 11//9 9//10
f 10//11 8//8 1//3
f 7//7 11//9 1//3
f 12//12 13//13 3//1
f 14//14 13//13 12//12
f 13//13 15//15 3//1
f 2//5 14//14 12//12
f 13//13 16//16 15//15
f 17//17 14//14 2//5
f 16//16 4//2 15//15
f 18//18 17//17 2//5
f 19//19 17//17 18//18
f 20//20 6//6 4//2
f 16//16 20//20 4//2
f 5//4 19//19 18//18
f 21//21 19//19 5//4
f 22//22 23//23 6//6
f 20//20 22//22 6//6
f 24//24 19//19 21//21
f 22//22 25//25 23//23
f 8//8 24//24 21//21
f 25//25 26//26 23//23
f 27//27 24//24 8//8
f 25//25 28//28 26//26
f 10//11 27//27 8//8
f 29//29 27//27 10//11
f 30//30 31//31 26//26
f 28//28 30//30 26//26
f 9//10 29//29 10//11
f 32//32 29//29 9//10
f 30//30 32//32 31//31
f 32//32 9//10 31//31
f 14//14 33//33 34//34
f 13//13 14//14 34//34
f 35//35 13//13 34//34
f 16//16 13//13 35//35
f 33//33 14//14 17//17
f 37//36 16//16 35//35
f 17//17 38//37 36//38
f 39//39 16//16 37//36
f 19//19 38//37 17//17
f 19//19 40//40 38//37
f 20//20 16//16 39//39
f 41//41 20//20 39//39
f 22//22 20//20 41//41
f 24//24 40//40 19//19
f 24//24 42//42 40//40
f 43//43 22//22 41//41
f 43//43 25//25 22//22
f 24//24 27//27 44//44
f 45//45 44//44 27//27
f 43//43 46//46 25//25
f 46//46 28//28 25//25
f 29//29 45//45 27//27
f 47//47 45//45 29//29
f 46//46 48//48 28//28
f 48//48 30//30 28//28
f 32//32 47//47 29//29
f 48//48 49//49 30//30
f 49//49 32//32 30//30
f 49//49 47//47 32//32
f 34//34 50//50 51//51
f 34//34 52//52 50//50
f 35//35 34//34 51//51
f 53//53 35//35 51//51
f 34//34 33//33 52//52
f 33//33 54//54 52//52
f 53//53 55//55 35//35
f 33//33 36//38 54//54
f 56//56 37//36 55//55
f 36//38 38//37 57//57
f 39//39 37//36 56//56
f 38//37 58//58 57//57
f 59//59 39//39 56//56
f 38//37 40//40 58//58
f 41//41 39//39 59//59
f 60//60 41//41 59//59
f 40//40 61//61 58//58
f 40//40 62//62 61//61
f 43//43 41//41 60//60
f 63//63 43//43 60//60
f 40//40 42//42 62//62
f 64//64 43//43 63//63
f 42//42 65//65 62//62
f 44//44 66//66 65//65
f 42//42 44//44 65//65
f 46//46 43//43 64//64
f 67//67 46//46 64//64
f 45//45 68//68 66//66
f 44//44 45//45 66//66
f 48//48 46//46 67//67
f 69//69 48//48 67//67
f 45//45 47//47 68//68
f 49//49 48//48 69//69
f 70//70 49//49 69//69
f 47//47 71//71 68//68
f 47//47 70//70 71//71
f 47//47 49//49 70//70
f 50//50 72//72 73//73
f 51//51 50//50 73//73
f 53//53 51//51 73//73
f 74//74 53//53 73//73
f 52//52 72//72 50//50
f 52//52 75//75 72//72
f 55//55 53//53 74//74
f 76//76 55//55 74//74
f 54//54 75//75 52//52
f 54//54 77//77 75//75
f 76//76 78//78 55//55
f 54//54 79//79 77//77
f 57//57 79//79 54//54
f 59//59 56//56 78//78
f 80//80 59//59 78//78
f 58//58 79//79 57//57
f 58//58 81//81 79//79
f 80//80 82//82 59//59
f 58//58 61//61 81//81
f 82//82 106//83 60//60
f 62//62 83//84 61//61
f 62//62 84//85 83//84
f 85//86 64//64 63//63
f 65//65 84//85 62//62
f 86//87 64//64 85//86
f 66//66 84//85 65//65
f 86//87 67//67 64//64
f 66//66 87//88 84//85
f 66//66 88//89 87//88
f 89//90 67//67 86//87
f 68//68 88//89 66//66
f 89//90 69//69 67//67
f 90//91 69//69 89//90
f 68//68 91//92 88//89
f 90//91 70//70 69//69
f 92//93 70//70 90//91
f 71//71 91//92 68//68
f 71//71 93//94 91//92
f 93//94 70//70 92//93
f 70//70 93//94 71//71
f 83//84 81//81 61//61
f 72//72 94//95 73//73
f 94//95 95//96 73//73
f 96//97 94//95 72//72
f 95//96 74//74 73//73
f 75//75 96//97 72//72
f 95//96 97//98 74//74
f 97//98 99//99 76//76
f 77//77 98//100 75//75
f 98//100 96//97 75//75
f 99//99 101//101 78//78
f 100//102 98//100 77//77
f 101//101 103//103 80//80
f 102//104 100//102 79//79
f 103//103 104//105 82//82
f 105//106 102//104 81//81
f 104//105 107//107 106//83
f 107//107 109//108 85//86
f 108//109 105//106 83//84
f 110//110 108//109 84//85
f 109//108 111//111 86//87
f 111//111 89//90 86//87
f 112//112 110//110 87//88
f 111//111 113//113 89//90
f 113//113 90//91 89//90
f 114//114 112//112 88//89
f 93//94 115//115 91//92
f 115//115 114//114 91//92
f 116//116 92//93 90//91
f 113//113 116//116 90//91
f 116//116 117//117 92//93
f 92//93 117//117 93//94
f 117//117 115//115 93//94
f 116//116 115//115 117//117
f 94//95 118//118 95//96
f 96//97 120//119 94//95
f 118//118 119//120 95//96
f 119//120 97//98 95//96
f 98//100 120//119 96//97
f 119//120 121//121 97//98
f 121//121 99//99 97//98
f 122//122 120//119 98//100
f 121//121 101//101 99//99
f 100//102 122//122 98//100
f 123//123 122//122 100//102
f 121//121 124//124 101//101
f 124//124 103//103 101//101
f 102//104 123//123 100//102
f 125//125 104//105 124//124
f 126//126 123//123 102//104
f 105//106 126//126 102//104
f 125//125 127//127 104//105
f 127//127 107//107 104//105
f 128//128 126//126 105//106
f 127//127 109//108 107//107
f 108//109 128//128 105//106
f 110//110 128//128 108//109
f 127//127 129//129 109//108
f 129//129 111//111 109//108
f 130//130 128//128 110//110
f 131//131 113//113 129//129
f 112//112 130//130 110//110
f 114//114 132//132 112//112
f 132//132 130//130 112//112
f 133//133 132//132 114//114
f 134//134 116//116 131//131
f 115//115 133//133 114//114
f 135//135 133//133 115//115
f 134//134 135//135 116//116
f 135//135 115//115 116//116
f 137//136 139//137 136//138
f 140//139 137//136 136//138
f 137//136 141//140 139//137
f 142//141 143//142 140//139
f 137//136 147//143 141//140
f 137//136 132//132 145//144
f 137//136 143//142 132//132
f 148//145 147//143 137//136
f 145//144 148//145 137//136
f 2//5 12//12 3//1
f 15//15 4//2 3//1
f 5//4 18//18 2//5
f 23//23 7//7 6//6
f 8//8 21//21 5//4
f 23//23 26//26 7//7
f 26//26 11//9 7//7
f 26//26 31//31 11//9
f 31//31 9//10 11//9
f 120//119 136//138 118//118
f 136//138 138//146 118//118
f 138//146 119//120 118//118
f 138//146 139//137 119//120
f 122//122 136//138 120//119
f 139//137 121//121 119//120
f 140//139 136//138 122//122
f 139//137 141//140 121//121
f 123//123 140//139 122//122
f 142//141 140//139 123//123
f 141//140 124//124 121//121
f 126//126 142//141 123//123
f 141//140 125//125 124//124
f 128//128 143//142 126//126
f 143//142 142//141 126//126
f 125//125 147//143 127//127
f 130//130 146//147 128//128
f 146//147 143//142 128//128
f 147//143 129//129 127//127
f 147//143 148//145 129//129
f 148//145 131//131 129//129
f 132//132 146//147 130//130
f 148//145 145//144 131//131
f 145//144 134//134 131//131
f 135//135 144//148 133//133
f 144//148 132//132 133//133
f 145//144 144//148 134//134
f 144//148 135//135 134//134
f 106//83 85//86 63//63
f 3//1 1//3 2//5
f 1//3 9//10 10//11
f 33//33 17//17 36//38
f 24//24 44//44 42//42
f 55//55 37//36 35//35
f 36//38 57//57 54//54
f 78//78 56//56 55//55
f 82//82 60//60 59//59
f 106//83 63//63 60//60
f 97//98 76//76 74//74
f 99//99 78//78 76//76
f 100//102 77//77 79//79
f 101//101 80//80 78//78
f 102//104 79//79 81//81
f 103//103 82//82 80//80
f 105//106 81//81 83//84
f 104//105 106//83 82//82
f 107//107 85//86 106//83
f 108//109 83//84 84//85
f 110//110 84//85 87//88
f 109//108 86//87 85//86
f 112//112 87//88 88//89
f 114//114 88//89 91//92
f 120//119 118//118 94//95
f 104//105 103//103 124//124
f 113//113 111//111 129//129
f 116//116 113//113 131//131
f 139//137 138//146 136//138
f 143//142 137//136 140//139
f 147//143 125//125 141//140
f 132//132 144//148 145//144
f 143//142 146//147 132//132
