mtllib material.mtl
usemtl colour_abb_orange.002
v -0.01500000 -0.01500000 0.05500000
v -0.02757900 -0.01500000 0.05412700
v -0.00950300 -0.01500000 0.06000000
v 0.01500000 -0.01500000 0.04454500
v 0.01500000 -0.01500000 0.05500000
v 0.02160400 -0.01500000 0.04239900
v 0.02757900 -0.01500000 0.05412700
v 0.03364800 -0.01500000 0.03364800
v 0.03700000 -0.01500000 0.04728200
v 0.03700000 -0.01500000 0.02903500
v 0.00950300 -0.01500000 0.06000000
v 0.03557200 -0.01500000 -0.03100000
v 0.05164100 -0.01500000 -0.03100000
v 0.03364800 -0.01500000 -0.03364800
v 0.04295500 -0.01500000 -0.04295500
v 0.02160400 -0.01500000 -0.04239900
v 0.02757900 -0.01500000 -0.05412700
v 0.00744400 -0.01500000 -0.04700000
v 0.00950300 -0.01500000 -0.06000000
v -0.00744400 -0.01500000 -0.04700000
v -0.00950300 -0.01500000 -0.06000000
v -0.02160300 -0.01500000 -0.04239900
v -0.02757900 -0.01500000 -0.05412700
v -0.03364800 -0.01500000 -0.03364800
v -0.04295500 -0.01500000 -0.04295500
v -0.04239900 -0.01500000 -0.02160400
v -0.05412700 -0.01500000 -0.02757900
v -0.04700000 -0.01500000 -0.00744400
v -0.06000000 -0.01500000 -0.00950300
v -0.04700000 -0.01500000 0.00744400
v -0.06000000 -0.01500000 0.00950300
v -0.04239900 -0.01500000 0.02160300
v -0.05412700 -0.01500000 0.02757900
v -0.03364800 -0.01500000 0.03364800
v -0.04295500 -0.01500000 0.04295500
v -0.02160300 -0.01500000 0.04239900
v -0.01500000 -0.01500000 0.04454500
v -0.00950300 0.01500000 0.06000000
v -0.02757900 0.01500000 0.05412700
v -0.01500000 0.01500000 0.05500000
v 0.00950300 0.01500000 0.06000000
v 0.01500000 0.01500000 0.05500000
v 0.02757900 0.01500000 0.05412700
v 0.01500000 0.01500000 0.04454500
v 0.02160400 0.01500000 0.04239900
v 0.03700000 0.01500000 0.04728200
v 0.03364800 0.01500000 0.03364800
v 0.03700000 0.01500000 0.02903500
v -0.01500000 0.01500000 0.04454500
v -0.02160300 0.01500000 0.04239900
v -0.03364800 0.01500000 0.03364800
v -0.04295500 0.01500000 0.04295500
v -0.04239900 0.01500000 0.02160300
v -0.05412700 0.01500000 0.02757900
v -0.04700000 0.01500000 0.00744400
v -0.06000000 0.01500000 0.00950300
v -0.04700000 0.01500000 -0.00744400
v -0.06000000 0.01500000 -0.00950300
v -0.04239900 0.01500000 -0.02160400
v -0.05412700 0.01500000 -0.02757900
v -0.03364800 0.01500000 -0.03364800
v -0.04295500 0.01500000 -0.04295500
v -0.02160300 0.01500000 -0.04239900
v -0.02757900 0.01500000 -0.05412700
v -0.00744400 0.01500000 -0.04700000
v -0.00950300 0.01500000 -0.06000000
v 0.00744400 0.01500000 -0.04700000
v 0.00950300 0.01500000 -0.06000000
v 0.02160400 0.01500000 -0.04239900
v 0.02757900 0.01500000 -0.05412700
v 0.03364800 0.01500000 -0.03364800
v 0.04295500 0.01500000 -0.04295500
v 0.03557200 0.01500000 -0.03100000
v 0.05164100 0.01500000 -0.03100000
v 0.03700000 -0.01700000 0.04728200
v 0.02757900 -0.02100000 0.05412700
v 0.04295500 -0.01700000 0.04295500
v 0.04295500 -0.02100000 0.04295500
v 0.05309400 -0.01700000 0.02900000
v 0.05412700 -0.02100000 0.02757900
v 0.05309400 0.01700000 0.02900000
v 0.05412700 0.02100000 0.02757900
v 0.04295500 0.01700000 0.04295500
v 0.04295500 0.02100000 0.04295500
v 0.03700000 0.01700000 0.04728200
v 0.02757900 0.02100000 0.05412700
v 0.04444300 0.00850000 0.02900000
v 0.04588700 0.01100000 0.02900000
v 0.04444300 0.01350000 0.02900000
v 0.03700000 -0.01700000 0.02900000
v 0.04444300 -0.01350000 0.02900000
v 0.04155700 0.01350000 0.02900000
v 0.03700000 0.01700000 0.02900000
v 0.04011300 0.01100000 0.02900000
v 0.04155700 0.00850000 0.02900000
v 0.04155700 -0.01350000 0.02900000
v 0.04011300 -0.01100000 0.02900000
v 0.04155700 -0.00850000 0.02900000
v 0.04444300 -0.00850000 0.02900000
v 0.04588700 -0.01100000 0.02900000
v 0.05939100 0.01355600 -0.01137800
v 0.06000000 0.01499200 -0.00950300
v 0.03000000 0.01359700 -0.01140900
v 0.03000000 0.01537200 -0.00887500
v 0.03000000 0.01140900 -0.01359700
v 0.05868200 0.01137600 -0.01356000
v 0.05919000 0.01308400 -0.01199500
v 0.03000000 0.00887500 -0.01537200
v 0.03000000 0.00607100 -0.01668000
v 0.05768000 0.00605500 -0.01664200
v 0.05798200 0.00825500 -0.01571400
v 0.05810600 0.00885000 -0.01533300
v 0.05851300 0.01081000 -0.01407900
v 0.03000000 0.00308200 -0.01748000
v 0.03000000 0.00000000 -0.01775000
v 0.05732800 -0.00000200 -0.01772600
v 0.05738400 0.00261900 -0.01755600
v 0.05741800 0.00307500 -0.01744800
v 0.05760400 0.00550000 -0.01687600
v 0.03000000 -0.00607100 -0.01668000
v 0.05741800 -0.00325100 -0.01745000
v 0.03000000 -0.00308200 -0.01748000
v 0.05741200 -0.00308100 -0.01746700
v 0.05732100 -0.00031900 -0.01774700
v 0.05809400 -0.00887200 -0.01536800
v 0.05808400 -0.00882900 -0.01539900
v 0.03000000 -0.00887500 -0.01537200
v 0.05767300 -0.00611100 -0.01666500
v 0.05766900 -0.00607000 -0.01667600
v 0.03000000 -0.01140900 -0.01359700
v 0.05867200 -0.01140300 -0.01359100
v 0.05864800 -0.01133000 -0.01366400
v 0.05939100 -0.01355600 0.01137800
v 0.06000000 -0.01499200 0.00950300
v 0.03000000 -0.01359700 0.01140900
v 0.03000000 -0.01537200 0.00887500
v 0.03000000 -0.01140900 0.01359700
v 0.05868200 -0.01137600 0.01356000
v 0.05919000 -0.01308400 0.01199500
v 0.03000000 -0.00887500 0.01537200
v 0.03000000 -0.00607100 0.01668000
v 0.05768000 -0.00605500 0.01664200
v 0.05798200 -0.00825500 0.01571300
v 0.05810600 -0.00885000 0.01533300
v 0.05851300 -0.01081000 0.01407800
v 0.03000000 -0.00308200 0.01748000
v 0.03000000 0.00000000 0.01775000
v 0.05732800 0.00000200 0.01772600
v 0.05738400 -0.00261900 0.01755600
v 0.05741800 -0.00307500 0.01744800
v 0.05760400 -0.00550000 0.01687600
v 0.03000000 0.00607100 0.01668000
v 0.05741800 0.00325100 0.01745000
v 0.03000000 0.00308200 0.01748000
v 0.05741200 0.00308100 0.01746700
v 0.05732100 0.00031900 0.01774700
v 0.05809400 0.00887200 0.01536800
v 0.05808400 0.00882900 0.01539900
v 0.03000000 0.00887500 0.01537200
v 0.05767300 0.00611100 0.01666500
v 0.05766900 0.00607000 0.01667600
v 0.03000000 0.01140900 0.01359700
v 0.05867200 0.01140300 0.01359100
v 0.05864800 0.01133000 0.01366400
v 0.06000000 0.01537200 -0.00887500
v 0.06000000 0.01668000 -0.00607100
v 0.03000000 0.01668000 -0.00607100
v 0.06000000 0.01748000 -0.00308200
v 0.03000000 0.01748000 -0.00308200
v 0.06000000 0.01775000 0.00000000
v 0.03000000 0.01775000 0.00000000
v 0.06000000 0.01748000 0.00308200
v 0.03000000 0.01748000 0.00308200
v 0.06000000 0.01668000 0.00607100
v 0.03000000 0.01668000 0.00607100
v 0.06000000 0.01537200 0.00887500
v 0.03000000 0.01537200 0.00887500
v 0.06000000 0.01499200 0.00950300
v 0.03000000 0.01359700 0.01140900
v 0.05938200 0.01359200 0.01140500
v 0.05935500 0.01353200 0.01148700
v 0.06000000 -0.01537200 0.00887500
v 0.06000000 -0.01668000 0.00607100
v 0.03000000 -0.01668000 0.00607100
v 0.06000000 -0.01748000 0.00308200
v 0.03000000 -0.01748000 0.00308200
v 0.06000000 -0.01775000 0.00000000
v 0.03000000 -0.01775000 0.00000000
v 0.06000000 -0.01748000 -0.00308200
v 0.03000000 -0.01748000 -0.00308200
v 0.06000000 -0.01668000 -0.00607100
v 0.03000000 -0.01668000 -0.00607100
v 0.06000000 -0.01537200 -0.00887500
v 0.03000000 -0.01537200 -0.00887500
v 0.06000000 -0.01499200 -0.00950300
v 0.03000000 -0.01359700 -0.01140900
v 0.05938200 -0.01359200 -0.01140500
v 0.05935500 -0.01353200 -0.01148700
v 0.05412700 0.02100000 -0.02757900
v 0.05412700 -0.02100000 -0.02757900
v 0.06000000 0.02100000 -0.00950300
v 0.06000000 -0.02100000 -0.00950300
v 0.06000000 -0.02100000 0.00950300
v 0.06000000 0.02100000 0.00950300
v 0.04295500 -0.02100000 -0.04295500
v 0.02757900 -0.02100000 -0.05412700
v 0.00950300 -0.02100000 -0.06000000
v -0.00950300 -0.02100000 -0.06000000
v -0.02757900 -0.02100000 -0.05412700
v -0.04295500 -0.02100000 -0.04295500
v -0.05412700 -0.02100000 -0.02757900
v -0.06000000 -0.02100000 -0.00950300
v -0.06000000 -0.02100000 0.00950300
v -0.05412700 -0.02100000 0.02757900
v -0.04295500 -0.02100000 0.04295500
v -0.02757900 -0.02100000 0.05412700
v -0.00950300 -0.02100000 0.06000000
v 0.00950300 -0.02100000 0.06000000
v 0.04295500 0.02100000 -0.04295500
v 0.02757900 0.02100000 -0.05412700
v -0.04295500 0.02100000 0.04295500
v 0.00950300 0.02100000 -0.06000000
v -0.00950300 0.02100000 -0.06000000
v -0.05412700 0.02100000 -0.02757900
v -0.06000000 0.02100000 -0.00950300
v -0.06000000 0.02100000 0.00950300
v -0.05412700 0.02100000 0.02757900
v -0.02757900 0.02100000 0.05412700
v -0.00950300 0.02100000 0.06000000
v 0.00950300 0.02100000 0.06000000
v -0.02757900 0.02100000 -0.05412700
v -0.04295500 0.02100000 -0.04295500
v 0.03000000 0.00000000 0.01775000
v 0.04444300 0.00850000 0.02400000
v 0.04155700 0.00850000 0.02400000
v 0.04011300 0.01100000 0.02400000
v 0.04155700 0.01350000 0.02400000
v 0.04444300 0.01350000 0.02400000
v 0.04588700 0.01100000 0.02400000
v 0.04444300 -0.01350000 0.02400000
v 0.04155700 -0.01350000 0.02400000
v 0.04011300 -0.01100000 0.02400000
v 0.04155700 -0.00850000 0.02400000
v 0.04444300 -0.00850000 0.02400000
v 0.04588700 -0.01100000 0.02400000
v -0.01500000 0.01500000 0.05500000
v -0.01500000 0.01500000 0.05500000
v -0.01500000 0.01500000 0.04454500
v -0.01500000 0.01500000 0.04454500
v 0.00744400 -0.01500000 -0.04700000
v -0.00744400 -0.01500000 -0.04700000
v 0.06000000 0.01537200 0.00887500
v 0.06000000 0.01499200 0.00950300
v 0.03000000 0.00000000 -0.01775000
v 0.03000000 -0.00308200 -0.01748000
v -0.05412700 -0.01500000 0.02757900
v -0.04295500 -0.01500000 0.04295500
v 0.05309400 -0.01700000 0.02900000
v 0.05309400 -0.01700000 0.02900000
v 0.05309400 0.01700000 0.02900000
v 0.05309400 0.01700000 0.02900000
v -0.04239900 -0.01500000 0.02160300
v -0.03364800 -0.01500000 0.03364800
v 0.05867200 -0.01140300 -0.01359100
v 0.05864800 -0.01133000 -0.01366400
v 0.05412700 -0.02100000 -0.02757900
v 0.06000000 -0.02100000 -0.00950300
v 0.05412700 0.02100000 0.02757900
v 0.04295500 0.02100000 0.04295500
v 0.05809400 -0.00887200 -0.01536800
v 0.05808400 -0.00882900 -0.01539900
v -0.05412700 -0.02100000 -0.02757900
v -0.06000000 -0.02100000 -0.00950300
v 0.03000000 -0.00887500 -0.01537200
v 0.03000000 -0.01140900 -0.01359700
v 0.05868200 0.01137600 -0.01356000
v 0.05919000 0.01308400 -0.01199500
v 0.05768000 -0.00605500 0.01664200
v 0.05798200 -0.00825500 0.01571300
v 0.02757900 -0.01500000 -0.05412700
v 0.00950300 -0.01500000 -0.06000000
v -0.02160300 -0.01500000 0.04239900
v 0.03557200 0.01500000 -0.03100000
v 0.03557200 0.01500000 -0.03100000
v 0.05164100 0.01500000 -0.03100000
v 0.05164100 0.01500000 -0.03100000
v 0.04444300 0.00850000 0.02900000
v 0.04444300 0.00850000 0.02900000
v 0.04155700 0.00850000 0.02900000
v 0.04155700 0.00850000 0.02900000
v -0.00950300 0.01500000 -0.06000000
v 0.00950300 0.01500000 -0.06000000
v 0.02757900 -0.02100000 -0.05412700
v 0.00950300 -0.02100000 -0.06000000
v 0.05767300 0.00611100 0.01666500
v 0.05766900 0.00607000 0.01667600
v 0.03000000 0.01140900 -0.01359700
v 0.03000000 0.00887500 -0.01537200
v 0.05798200 0.00825500 -0.01571400
v 0.05810600 0.00885000 -0.01533300
v -0.02160300 -0.01500000 -0.04239900
v 0.04588700 0.01100000 0.02900000
v 0.04588700 0.01100000 0.02900000
v 0.04444300 0.01350000 0.02900000
v 0.04444300 0.01350000 0.02900000
v 0.03000000 0.01537200 0.00887500
v 0.03000000 0.01359700 0.01140900
v 0.05412700 -0.02100000 0.02757900
v 0.06000000 -0.02100000 0.00950300
v 0.03557200 -0.01500000 -0.03100000
v 0.03557200 -0.01500000 -0.03100000
v 0.03000000 -0.00607100 -0.01668000
v -0.01500000 -0.01500000 0.05500000
v -0.01500000 -0.01500000 0.05500000
v -0.01500000 -0.01500000 0.04454500
v -0.01500000 -0.01500000 0.04454500
v 0.06000000 0.01499200 -0.00950300
v 0.06000000 0.01537200 -0.00887500
v -0.02757900 -0.01500000 0.05412700
v -0.02160300 0.01500000 0.04239900
v -0.03364800 0.01500000 0.03364800
v 0.06000000 -0.01499200 -0.00950300
v 0.05938200 -0.01359200 -0.01140500
v 0.05810600 -0.00885000 0.01533300
v 0.05851300 -0.01081000 0.01407800
v 0.01500000 -0.01500000 0.04454500
v 0.01500000 -0.01500000 0.04454500
v 0.02160400 -0.01500000 0.04239900
v 0.05939100 -0.01355600 0.01137800
v 0.05919000 -0.01308400 0.01199500
v -0.02160300 0.01500000 -0.04239900
v -0.00744400 0.01500000 -0.04700000
v 0.04295500 0.01500000 -0.04295500
v 0.03000000 0.00887500 0.01537200
v 0.03000000 0.01140900 0.01359700
v 0.05938200 0.01359200 0.01140500
v 0.03000000 0.00607100 -0.01668000
v 0.03000000 0.00308200 -0.01748000
v 0.04295500 -0.02100000 -0.04295500
v 0.00950300 0.02100000 -0.06000000
v -0.00950300 0.02100000 -0.06000000
v 0.03000000 -0.01359700 -0.01140900
v -0.04295500 0.01500000 0.04295500
v -0.05412700 0.01500000 0.02757900
v -0.06000000 -0.01500000 0.00950300
v 0.04444300 0.01350000 0.02400000
v 0.04444300 0.01350000 0.02400000
v 0.04588700 0.01100000 0.02400000
v 0.04588700 0.01100000 0.02400000
v 0.04155700 0.00850000 0.02400000
v 0.04155700 0.00850000 0.02400000
v 0.04011300 0.01100000 0.02400000
v 0.04011300 0.01100000 0.02400000
v 0.03000000 -0.01668000 -0.00607100
v 0.03000000 -0.01537200 -0.00887500
v 0.04295500 -0.01500000 -0.04295500
v 0.05741800 -0.00325100 -0.01745000
v 0.05741200 -0.00308100 -0.01746700
v 0.04295500 0.01700000 0.04295500
v 0.03700000 0.01700000 0.04728200
v 0.03700000 0.01700000 0.04728200
v 0.01500000 -0.01500000 0.05500000
v 0.01500000 -0.01500000 0.05500000
v 0.02160400 0.01500000 0.04239900
v 0.03364800 0.01500000 0.03364800
v -0.00950300 -0.01500000 0.06000000
v 0.06000000 0.01748000 0.00308200
v 0.06000000 0.01668000 0.00607100
v 0.04011300 0.01100000 0.02900000
v 0.04011300 0.01100000 0.02900000
v 0.03000000 0.01668000 0.00607100
v -0.04700000 -0.01500000 0.00744400
v 0.03000000 0.00607100 0.01668000
v 0.02757900 0.02100000 -0.05412700
v 0.00744400 0.01500000 -0.04700000
v 0.02160400 0.01500000 -0.04239900
v 0.04444300 -0.01350000 0.02400000
v 0.04444300 -0.01350000 0.02400000
v 0.04588700 -0.01100000 0.02400000
v 0.04588700 -0.01100000 0.02400000
v 0.03364800 -0.01500000 -0.03364800
v 0.02160400 -0.01500000 -0.04239900
v 0.04155700 0.01350000 0.02400000
v 0.04155700 0.01350000 0.02400000
v 0.05767300 -0.00611100 -0.01666500
v -0.00950300 -0.02100000 -0.06000000
v -0.03364800 0.01500000 -0.03364800
v 0.03000000 -0.01775000 0.00000000
v 0.03000000 -0.01748000 -0.00308200
v 0.05768000 0.00605500 -0.01664200
v 0.04588700 -0.01100000 0.02900000
v 0.04588700 -0.01100000 0.02900000
v 0.03700000 -0.01700000 0.02900000
v 0.03700000 -0.01700000 0.02900000
v 0.03700000 0.01500000 0.04728200
v 0.03700000 0.01500000 0.04728200
v 0.03700000 0.01500000 0.02903500
v 0.03700000 0.01500000 0.02903500
v 0.05732800 0.00000200 0.01772600
v 0.05732100 0.00031900 0.01774700
v 0.04444300 -0.01350000 0.02900000
v 0.04444300 -0.01350000 0.02900000
v 0.05738400 -0.00261900 0.01755600
v 0.05741800 -0.00307500 0.01744800
v -0.06000000 -0.01500000 -0.00950300
v 0.02757900 0.01500000 -0.05412700
v 0.02757900 -0.01500000 0.05412700
v 0.00950300 -0.01500000 0.06000000
v -0.03364800 -0.01500000 -0.03364800
v -0.04239900 -0.01500000 -0.02160400
v 0.05164100 -0.01500000 -0.03100000
v 0.05164100 -0.01500000 -0.03100000
v -0.04295500 0.01500000 -0.04295500
v -0.02757900 0.01500000 -0.05412700
v 0.06000000 -0.01499200 0.00950300
v -0.05412700 0.02100000 -0.02757900
v -0.04295500 0.02100000 -0.04295500
v 0.06000000 0.01668000 -0.00607100
v 0.06000000 0.01748000 -0.00308200
v 0.04444300 -0.00850000 0.02900000
v 0.04444300 -0.00850000 0.02900000
v 0.03364800 -0.01500000 0.03364800
v 0.03700000 -0.01500000 0.02903500
v 0.03700000 -0.01500000 0.02903500
v 0.02757900 0.02100000 0.05412700
v 0.03700000 -0.01500000 0.04728200
v 0.03700000 -0.01500000 0.04728200
v 0.03700000 -0.01700000 0.04728200
v 0.03700000 -0.01700000 0.04728200
v -0.04239900 0.01500000 0.02160300
v 0.03364800 0.01500000 -0.03364800
v 0.06000000 -0.01668000 -0.00607100
v 0.06000000 -0.01537200 -0.00887500
v 0.04444300 0.00850000 0.02400000
v 0.04444300 0.00850000 0.02400000
v 0.05851300 0.01081000 -0.01407900
v 0.05868200 -0.01137600 0.01356000
v -0.02757900 -0.02100000 -0.05412700
v -0.04295500 -0.02100000 -0.04295500
v 0.01500000 0.01500000 0.05500000
v 0.01500000 0.01500000 0.05500000
v 0.04155700 -0.01350000 0.02900000
v 0.04155700 -0.01350000 0.02900000
v 0.03000000 -0.00887500 0.01537200
v 0.03000000 -0.00607100 0.01668000
v 0.04155700 0.01350000 0.02900000
v 0.04155700 0.01350000 0.02900000
v -0.06000000 0.01500000 0.00950300
v -0.06000000 0.01500000 -0.00950300
v -0.00950300 -0.01500000 -0.06000000
v 0.03000000 0.01775000 0.00000000
v 0.03000000 0.01748000 0.00308200
v -0.02757900 0.02100000 -0.05412700
v 0.03700000 0.01700000 0.02900000
v 0.03700000 0.01700000 0.02900000
v 0.05732800 -0.00000200 -0.01772600
v 0.05738400 0.00261900 -0.01755600
v 0.05766900 -0.00607000 -0.01667600
v 0.05741200 0.00308100 0.01746700
v 0.06000000 -0.01537200 0.00887500
v 0.06000000 -0.01668000 0.00607100
v 0.04155700 -0.01350000 0.02400000
v 0.04155700 -0.01350000 0.02400000
v 0.00950300 0.01500000 0.06000000
v 0.02757900 0.01500000 0.05412700
v 0.06000000 -0.01775000 0.00000000
v 0.06000000 -0.01748000 -0.00308200
v 0.06000000 0.01775000 0.00000000
v 0.05939100 0.01355600 -0.01137800
v -0.04700000 -0.01500000 -0.00744400
v 0.05760400 -0.00550000 0.01687600
v 0.05741800 0.00325100 0.01745000
v 0.05741800 0.00307500 -0.01744800
v 0.04295500 0.02100000 -0.04295500
v -0.04700000 0.01500000 -0.00744400
v -0.04239900 0.01500000 -0.02160400
v 0.03000000 -0.01668000 0.00607100
v 0.03000000 -0.01748000 0.00308200
v 0.01500000 0.01500000 0.04454500
v 0.01500000 0.01500000 0.04454500
v 0.03000000 0.01359700 -0.01140900
v -0.06000000 0.02100000 -0.00950300
v 0.02757900 -0.02100000 0.05412700
v 0.00950300 -0.02100000 0.06000000
v 0.03000000 -0.00308200 0.01748000
v -0.04295500 -0.01500000 -0.04295500
v -0.05412700 -0.01500000 -0.02757900
v 0.04155700 -0.00850000 0.02900000
v 0.04155700 -0.00850000 0.02900000
v -0.05412700 -0.02100000 0.02757900
v -0.04295500 -0.02100000 0.04295500
v 0.03000000 0.01748000 -0.00308200
v -0.05412700 0.01500000 -0.02757900
v 0.04011300 -0.01100000 0.02900000
v 0.04011300 -0.01100000 0.02900000
v 0.04011300 -0.01100000 0.02400000
v 0.04011300 -0.01100000 0.02400000
v 0.05809400 0.00887200 0.01536800
v 0.05864800 0.01133000 0.01366400
v 0.03000000 0.01537200 -0.00887500
v -0.06000000 0.02100000 0.00950300
v 0.06000000 -0.01748000 0.00308200
v -0.02757900 0.01500000 0.05412700
v -0.04700000 0.01500000 0.00744400
v -0.06000000 -0.02100000 0.00950300
v -0.02757900 -0.01500000 -0.05412700
v 0.03000000 0.01668000 -0.00607100
v 0.05412700 0.02100000 -0.02757900
v 0.04444300 -0.00850000 0.02400000
v 0.04444300 -0.00850000 0.02400000
v 0.05935500 -0.01353200 -0.01148700
v 0.03000000 -0.01140900 0.01359700
v 0.05732100 -0.00031900 -0.01774700
v 0.03000000 -0.01359700 0.01140900
v 0.03000000 -0.01537200 0.00887500
v -0.00950300 0.01500000 0.06000000
v 0.04295500 -0.01700000 0.04295500
v 0.05760400 0.00550000 -0.01687600
v 0.04155700 -0.00850000 0.02400000
v 0.04155700 -0.00850000 0.02400000
v -0.02757900 -0.02100000 0.05412700
v 0.05867200 0.01140300 0.01359100
v 0.06000000 0.02100000 -0.00950300
v 0.06000000 0.02100000 0.00950300
v -0.02757900 0.02100000 0.05412700
v -0.00950300 0.02100000 0.06000000
v 0.04295500 -0.02100000 0.04295500
v 0.05808400 0.00882900 0.01539900
v -0.04295500 0.02100000 0.04295500
v -0.05412700 0.02100000 0.02757900
v 0.05935500 0.01353200 0.01148700
v 0.00950300 0.02100000 0.06000000
v -0.00950300 -0.02100000 0.06000000
v 0.03000000 0.00308200 0.01748000
vn -0.00000000 -0.00000000 1.00000000
vn -0.45400000 -0.00000000 0.89100000
vn -0.00000000 1.00000000 -0.00000000
vn 0.30900000 -0.00000000 0.95110000
vn -0.00000000 -0.00000000 1.00000000
vn 0.45400000 -0.00000000 0.89100000
vn -0.00000000 1.00000000 -0.00000000
vn -0.00000000 1.00000000 -0.00000000
vn 1.00000000 -0.00000000 -0.00000000
vn 0.80900000 -0.00000000 0.58780000
vn 0.15640000 -0.00000000 0.98770000
vn 0.80900000 -0.00000000 -0.58780000
vn -0.00000000 -0.00000000 -1.00000000
vn 0.70710000 -0.00000000 -0.70710000
vn 0.70710000 -0.00000000 -0.70710000
vn 0.45400000 -0.00000000 -0.89100000
vn 0.45400000 -0.00000000 -0.89100000
vn 0.15640000 -0.00000000 -0.98770000
vn 0.15640000 -0.00000000 -0.98770000
vn -0.15640000 -0.00000000 -0.98770000
vn -0.15640000 -0.00000000 -0.98770000
vn -0.45400000 -0.00000000 -0.89100000
vn -0.00000000 1.00000000 -0.00000000
vn -0.00000000 1.00000000 -0.00000000
vn -0.00000000 1.00000000 -0.00000000
vn -0.89100000 -0.00000000 -0.45400000
vn -0.89100000 -0.00000000 -0.45400000
vn -0.00000000 1.00000000 -0.00000000
vn -0.00000000 1.00000000 -0.00000000
vn -0.98770000 -0.00000000 0.15640000
vn -0.98770000 -0.00000000 0.15640000
vn -0.89100000 -0.00000000 0.45400000
vn -0.89100000 -0.00000000 0.45400000
vn -0.70710000 -0.00000000 0.70710000
vn -0.70710000 -0.00000000 0.70710000
vn -0.45400000 -0.00000000 0.89100000
vn -1.00000000 -0.00000000 -0.00000000
vn -0.00000000 -1.00000000 -0.00000000
vn -0.45400000 -0.00000000 0.89100000
vn -0.00000000 -0.00000000 1.00000000
vn -0.00000000 -1.00000000 -0.00000000
vn -0.00000000 -0.00000000 1.00000000
vn -0.00000000 -1.00000000 -0.00000000
vn 1.00000000 -0.00000000 -0.00000000
vn 0.45400000 -0.00000000 0.89100000
vn 0.58780000 -0.00000000 0.80900000
vn -0.00000000 -1.00000000 -0.00000000
vn 1.00000000 -0.00000000 -0.00000000
vn -0.30900000 -0.00000000 0.95110000
vn -0.45400000 -0.00000000 0.89100000
vn -0.00000000 -1.00000000 -0.00000000
vn -0.70710000 -0.00000000 0.70710000
vn -0.89100000 -0.00000000 0.45400000
vn -0.89100000 -0.00000000 0.45400000
vn -0.98770000 -0.00000000 0.15640000
vn -0.00000000 -1.00000000 -0.00000000
vn -0.00000000 -1.00000000 -0.00000000
vn -0.98770000 -0.00000000 -0.15640000
vn -0.89100000 -0.00000000 -0.45400000
vn -0.89100000 -0.00000000 -0.45400000
vn -0.70710000 -0.00000000 -0.70710000
vn -0.00000000 -1.00000000 -0.00000000
vn -0.00000000 -1.00000000 -0.00000000
vn -0.45400000 -0.00000000 -0.89100000
vn -0.15640000 -0.00000000 -0.98770000
vn -0.15640000 -0.00000000 -0.98770000
vn 0.15640000 -0.00000000 -0.98770000
vn 0.15640000 -0.00000000 -0.98770000
vn -0.00000000 -1.00000000 -0.00000000
vn 0.45400000 -0.00000000 -0.89100000
vn 0.70710000 -0.00000000 -0.70710000
vn -0.00000000 -1.00000000 -0.00000000
vn 0.80900000 -0.00000000 -0.58780000
vn -0.00000000 -0.00000000 -1.00000000
vn -0.00000000 1.00000000 -0.00000000
vn -0.00000000 -1.00000000 -0.00000000
vn 0.70710000 -0.00000000 0.70710000
vn 0.70710000 -0.00000000 0.70710000
vn -0.00000000 1.00000000 -0.00000000
vn -0.00000000 -1.00000000 -0.00000000
vn -0.00000000 -1.00000000 -0.00000000
vn -0.00000000 1.00000000 -0.00000000
vn -0.00000000 -1.00000000 -0.00000000
vn -0.00000000 1.00000000 -0.00000000
vn -0.00000000 -1.00000000 -0.00000000
vn -0.00000000 1.00000000 -0.00000000
vn -0.86600000 0.50000000 -0.00000000
vn -0.86600000 0.50000000 -0.00000000
vn -0.00000000 -1.00000000 -0.00000000
vn -0.00000000 1.00000000 -0.00000000
vn -0.86600000 0.50000000 -0.00000000
vn -0.00000000 -1.00000000 -0.00000000
vn -0.00000000 -1.00000000 -0.00000000
vn 0.86600000 0.50000000 -0.00000000
vn 0.86600000 0.50000000 -0.00000000
vn 0.86600000 0.50000000 -0.00000000
vn 0.86600000 0.50000000 -0.00000000
vn 0.86600000 -0.50000000 -0.00000000
vn -0.00000000 -1.00000000 -0.00000000
vn -0.86600000 0.50000000 -0.00000000
vn -0.00180000 -0.79370000 0.60830000
vn -0.00070000 -0.82890000 0.55940000
vn -0.00000000 -0.76540000 0.64360000
vn 0.00080000 -0.86630000 0.49960000
vn 1.00000000 -0.00000000 -0.00000000
vn 0.95110000 -0.00000000 -0.30900000
vn 0.95110000 -0.00000000 -0.30900000
vn 1.00000000 -0.00000000 -0.00000000
vn 1.00000000 -0.00000000 -0.00000000
vn 0.00060000 -0.39010000 0.92080000
vn 0.95110000 -0.00000000 -0.30900000
vn 0.95110000 -0.00000000 -0.30900000
vn 0.95110000 -0.00000000 -0.30900000
vn 1.00000000 -0.00000000 -0.00000000
vn 1.00000000 -0.00000000 -0.00000000
vn 0.00030000 -0.06590000 0.99780000
vn 0.00020000 -0.14940000 0.98880000
vn 0.00050000 -0.23060000 0.97300000
vn 0.95110000 -0.00000000 -0.30900000
vn 1.00000000 -0.00000000 -0.00000000
vn -0.00030000 0.18660000 0.98240000
vn 1.00000000 -0.00000000 -0.00000000
vn 0.95110000 -0.00000000 -0.30900000
vn 0.00010000 0.01890000 0.99980000
vn 0.95110000 -0.00000000 -0.30900000
vn 0.95110000 -0.00000000 -0.30900000
vn 1.00000000 -0.00000000 -0.00000000
vn 0.95110000 -0.00010000 -0.30890000
vn 0.95110000 -0.00000000 -0.30900000
vn 1.00000000 -0.00000000 -0.00000000
vn 0.95110000 -0.00000000 -0.30900000
vn 0.95110000 -0.00010000 -0.30900000
vn 0.95110000 -0.00000000 0.30900000
vn -0.00070000 0.82890000 -0.55950000
vn -0.00000000 0.76540000 -0.64360000
vn 0.00080000 0.86630000 -0.49960000
vn 1.00000000 -0.00000000 -0.00000000
vn 0.00070000 0.67690000 -0.73610000
vn 0.95110000 -0.00000000 0.30900000
vn -0.00150000 0.50010000 -0.86600000
vn 1.00000000 -0.00000000 -0.00000000
vn 0.95100000 -0.00000000 0.30910000
vn 0.95110000 -0.00000000 0.30900000
vn 0.95110000 -0.00000000 0.30900000
vn 0.95110000 -0.00000000 0.30900000
vn 1.00000000 -0.00000000 -0.00000000
vn -0.00060000 0.00010000 -1.00000000
vn 0.95110000 -0.00000000 0.30900000
vn 0.95110000 -0.00000000 0.30900000
vn 0.95100000 -0.00000000 0.30900000
vn 0.00030000 0.31410000 -0.94940000
vn 1.00000000 -0.00000000 -0.00000000
vn -0.00030000 -0.18660000 -0.98240000
vn 1.00000000 -0.00000000 -0.00000000
vn 0.00020000 -0.10050000 -0.99490000
vn 0.00010000 -0.01910000 -0.99980000
vn -0.00020000 -0.57000000 -0.82160000
vn 0.95110000 -0.00000000 0.30900000
vn 1.00000000 -0.00000000 -0.00000000
vn 0.95110000 -0.00000000 0.30890000
vn 0.95110000 -0.00000000 0.30900000
vn 1.00000000 -0.00000000 -0.00000000
vn 0.95100000 -0.00010000 0.30910000
vn 0.95100000 -0.00010000 0.30910000
vn 1.00000000 -0.00000000 -0.00000000
vn 1.00000000 -0.00000000 -0.00000000
vn -0.00000000 -0.93970000 0.34200000
vn 1.00000000 -0.00000000 -0.00000000
vn -0.00000000 -0.98480000 0.17360000
vn 1.00000000 -0.00000000 -0.00000000
vn 1.00000000 -0.00000000 -0.00000000
vn 1.00000000 -0.00000000 -0.00000000
vn 1.00000000 -0.00000000 -0.00000000
vn 1.00000000 -0.00000000 -0.00000000
vn -0.00000000 -0.93970000 -0.34200000
vn 1.00000000 -0.00000000 -0.00000000
vn 1.00000000 -0.00000000 -0.00000000
vn 0.97720000 -0.00000000 0.21240000
vn 0.00070000 -0.76570000 -0.64320000
vn 0.95110000 -0.00000000 0.30900000
vn 0.95110000 -0.00000000 0.30900000
vn -0.00000000 0.88220000 -0.47090000
vn 1.00000000 -0.00000000 -0.00000000
vn -0.00000000 0.93970000 -0.34200000
vn 1.00000000 -0.00000000 -0.00000000
vn -0.00000000 0.98480000 -0.17360000
vn -0.00000000 1.00000000 -0.00000000
vn 1.00000000 -0.00000000 -0.00000000
vn 1.00000000 -0.00000000 -0.00000000
vn 1.00000000 -0.00000000 -0.00000000
vn 1.00000000 -0.00000000 -0.00000000
vn -0.00000000 0.93970000 0.34200000
vn 1.00000000 -0.00000000 -0.00000000
vn 0.00080000 0.86630000 0.49960000
vn 0.97720000 -0.00000000 -0.21240000
vn 1.00000000 -0.00000000 -0.00000000
vn 0.95120000 0.00010000 -0.30860000
vn 0.95110000 -0.00000000 -0.30890000
vn -0.00000000 1.00000000 -0.00000000
vn -0.00000000 -1.00000000 -0.00000000
vn -0.00000000 1.00000000 -0.00000000
vn -0.00000000 -1.00000000 -0.00000000
vn -0.00000000 -1.00000000 -0.00000000
vn -0.00000000 1.00000000 -0.00000000
vn -0.00000000 -1.00000000 -0.00000000
vn -0.00000000 -1.00000000 -0.00000000
vn -0.00000000 -1.00000000 -0.00000000
vn -0.00000000 -1.00000000 -0.00000000
vn -0.00000000 -1.00000000 -0.00000000
vn -0.70710000 -0.00000000 -0.70710000
vn -0.00000000 -1.00000000 -0.00000000
vn -0.00000000 -1.00000000 -0.00000000
vn -0.98770000 -0.00000000 0.15640000
vn -0.89100000 -0.00000000 0.45400000
vn -0.70710000 -0.00000000 0.70710000
vn -0.00000000 -1.00000000 -0.00000000
vn -0.00000000 -1.00000000 -0.00000000
vn -0.00000000 -1.00000000 -0.00000000
vn -0.00000000 1.00000000 -0.00000000
vn -0.00000000 1.00000000 -0.00000000
vn -0.70710000 -0.00000000 0.70710000
vn 0.15640000 -0.00000000 -0.98770000
vn -0.00000000 1.00000000 -0.00000000
vn -0.89100000 -0.00000000 -0.45400000
vn -0.98770000 -0.00000000 -0.15640000
vn -0.98770000 -0.00000000 0.15640000
vn -0.00000000 1.00000000 -0.00000000
vn -0.00000000 1.00000000 -0.00000000
vn -0.00000000 1.00000000 -0.00000000
vn -0.00000000 1.00000000 -0.00000000
vn -0.45400000 -0.00000000 -0.89100000
vn -0.00000000 1.00000000 -0.00000000
vn 1.00000000 -0.00000000 -0.00000000
vn -0.86600000 0.50000000 -0.00000000
vn -0.00000000 -0.00000000 1.00000000
vn -0.00000000 -0.00000000 1.00000000
vn -0.00000000 -1.00000000 -0.00000000
vn -0.00000000 -0.00000000 1.00000000
vn -0.86600000 0.50000000 -0.00000000
vn -0.00000000 1.00000000 -0.00000000
vn -0.00000000 -0.00000000 1.00000000
vn 0.86600000 -0.50000000 -0.00000000
vn -0.00000000 -1.00000000 -0.00000000
vn -0.00000000 -0.00000000 1.00000000
vn -0.86600000 -0.50000000 -0.00000000
vn -0.00000000 -1.00000000 -0.00000000
vn -1.00000000 -0.00000000 -0.00000000
vn -0.00000000 -1.00000000 -0.00000000
vn -1.00000000 -0.00000000 -0.00000000
vn -0.00000000 1.00000000 -0.00000000
vn -0.00000000 1.00000000 -0.00000000
vn -0.00000000 -0.88220000 -0.47090000
vn -0.00000000 -0.83350000 -0.55250000
vn -0.00060000 -0.00010000 1.00000000
vn -0.00000000 0.17330000 0.98490000
vn -0.00000000 1.00000000 -0.00000000
vn -0.00000000 1.00000000 -0.00000000
vn 0.80900000 -0.00000000 0.58780000
vn -0.00000000 -0.00000000 1.00000000
vn 0.80900000 -0.00000000 0.58780000
vn -0.00000000 -0.00000000 1.00000000
vn -0.00000000 1.00000000 -0.00000000
vn -0.00000000 1.00000000 -0.00000000
vn 0.00700000 0.70010000 0.71400000
vn 0.01090000 0.65370000 0.75670000
vn 0.89100000 -0.00000000 -0.45400000
vn 0.98770000 -0.00000000 -0.15640000
vn 0.89100000 -0.00000000 0.45400000
vn 0.70710000 -0.00000000 0.70710000
vn -0.00020000 0.57000000 0.82160000
vn -0.00000000 0.50540000 0.86290000
vn -0.89100000 -0.00000000 -0.45400000
vn -0.98770000 -0.00000000 -0.15640000
vn -0.00010000 0.50010000 0.86600000
vn -0.00030000 0.64280000 0.76610000
vn 0.00070000 -0.67690000 0.73610000
vn 0.00030000 -0.74530000 0.66670000
vn 0.00060000 0.39010000 -0.92080000
vn 0.00030000 0.47150000 -0.88190000
vn -0.00000000 1.00000000 -0.00000000
vn -0.00000000 1.00000000 -0.00000000
vn -0.00000000 1.00000000 -0.00000000
vn -0.00000000 -1.00000000 -0.00000000
vn -0.00000000 -0.00000000 -1.00000000
vn -0.00000000 -1.00000000 -0.00000000
vn 0.80900000 -0.00000000 -0.58780000
vn -0.00000000 -0.00000000 1.00000000
vn -0.00000000 1.00000000 -0.00000000
vn -0.00000000 -0.00000000 1.00000000
vn -0.00000000 1.00000000 -0.00000000
vn -0.00000000 -1.00000000 -0.00000000
vn -0.00000000 -1.00000000 -0.00000000
vn 0.45400000 -0.00000000 -0.89100000
vn 0.15640000 -0.00000000 -0.98770000
vn -0.00000000 -0.35040000 -0.93660000
vn -0.00010000 -0.26470000 -0.96430000
vn -0.00160000 -0.64280000 0.76600000
vn -0.00150000 -0.50010000 0.86600000
vn 0.00030000 -0.47150000 0.88190000
vn 0.00070000 -0.54040000 0.84140000
vn -0.00000000 1.00000000 -0.00000000
vn -0.00000000 -0.00000000 1.00000000
vn -0.86600000 -0.50000000 -0.00000000
vn -0.00000000 -0.00000000 1.00000000
vn -0.86600000 -0.50000000 -0.00000000
vn 0.00080000 -0.86630000 -0.49960000
vn 1.00000000 -0.00000000 -0.00000000
vn 0.89100000 -0.00000000 0.45400000
vn 0.98770000 -0.00000000 0.15640000
vn -0.00000000 -0.00000000 -1.00000000
vn -0.00000000 1.00000000 -0.00000000
vn 0.00030000 0.34210000 0.93970000
vn -0.00000000 1.00000000 -0.00000000
vn -1.00000000 -0.00000000 -0.00000000
vn -0.00000000 1.00000000 -0.00000000
vn -0.30900000 -0.00000000 0.95110000
vn 0.97710000 -0.00000000 -0.21300000
vn -0.00000000 -0.88220000 0.47090000
vn -0.00000000 1.00000000 -0.00000000
vn -0.00000000 -1.00000000 -0.00000000
vn -0.70710000 -0.00000000 0.70710000
vn -0.00000000 0.83360000 0.55240000
vn 0.00610000 0.80340000 0.59540000
vn 0.00070000 0.54040000 -0.84140000
vn 0.00030000 0.61680000 -0.78710000
vn 1.00000000 -0.00000000 -0.00000000
vn -0.00000000 1.00000000 -0.00000000
vn -0.00000000 1.00000000 -0.00000000
vn -0.00180000 0.79370000 -0.60830000
vn 0.00030000 0.74540000 -0.66670000
vn -0.45400000 -0.00000000 -0.89100000
vn -0.00000000 -1.00000000 -0.00000000
vn 0.70710000 -0.00000000 -0.70710000
vn -0.00010000 -0.50010000 -0.86600000
vn -0.00020000 -0.64280000 -0.76610000
vn 0.00600000 -0.80330000 -0.59560000
vn -0.00120000 -0.34210000 0.93970000
vn -0.00100000 -0.17370000 0.98480000
vn 0.70710000 -0.00000000 -0.70710000
vn -0.00000000 1.00000000 -0.00000000
vn -0.15640000 -0.00000000 -0.98770000
vn 0.00070000 0.76570000 0.64320000
vn -0.00000000 -1.00000000 -0.00000000
vn -0.00000000 -1.00000000 -0.00000000
vn -0.00000000 1.00000000 -0.00000000
vn -0.86600000 -0.50000000 -0.00000000
vn -0.00000000 -1.00000000 -0.00000000
vn -0.86600000 -0.50000000 -0.00000000
vn -0.00000000 -0.00000000 1.00000000
vn 0.86600000 0.50000000 -0.00000000
vn -0.00000000 1.00000000 -0.00000000
vn 0.86600000 0.50000000 -0.00000000
vn 0.86600000 -0.50000000 -0.00000000
vn 1.00000000 -0.00000000 -0.00000000
vn 1.00000000 -0.00000000 -0.00000000
vn -0.00000000 1.00000000 -0.00000000
vn 0.95110000 -0.00010000 -0.30890000
vn 0.00020000 0.10050000 0.99490000
vn 0.70710000 -0.00000000 0.70710000
vn 0.58780000 -0.00000000 0.80900000
vn 1.00000000 -0.00000000 -0.00000000
vn -0.00000000 1.00000000 -0.00000000
vn 1.00000000 -0.00000000 -0.00000000
vn -0.00000000 -1.00000000 -0.00000000
vn 0.70710000 -0.00000000 0.70710000
vn -0.15640000 -0.00000000 0.98770000
vn -0.00000000 -0.98480000 -0.17360000
vn -0.00000000 -0.93970000 -0.34200000
vn -0.00000000 -0.00000000 1.00000000
vn 0.86600000 -0.50000000 -0.00000000
vn 1.00000000 -0.00000000 -0.00000000
vn -0.00000000 1.00000000 -0.00000000
vn 0.00030000 -0.34210000 -0.93970000
vn 0.45400000 -0.00000000 -0.89100000
vn -0.00000000 -1.00000000 -0.00000000
vn 0.45400000 -0.00000000 -0.89100000
vn -0.86600000 0.50000000 -0.00000000
vn -0.00000000 -0.00000000 1.00000000
vn -0.00000000 -0.00000000 1.00000000
vn -0.86600000 0.50000000 -0.00000000
vn -0.00000000 1.00000000 -0.00000000
vn -0.00000000 1.00000000 -0.00000000
vn -0.00000000 -0.00000000 1.00000000
vn 0.86600000 -0.50000000 -0.00000000
vn -0.00000000 0.35040000 0.93660000
vn -0.15640000 -0.00000000 -0.98770000
vn -0.00000000 -1.00000000 -0.00000000
vn -0.00000000 1.00000000 -0.00000000
vn -0.00000000 0.98480000 0.17360000
vn 0.95100000 -0.00000000 -0.30910000
vn -0.86600000 -0.50000000 -0.00000000
vn -0.00000000 -0.00000000 1.00000000
vn -0.00000000 -0.00000000 1.00000000
vn 1.00000000 -0.00000000 -0.00000000
vn -0.00000000 -1.00000000 -0.00000000
vn 1.00000000 -0.00000000 -0.00000000
vn 0.80900000 -0.00000000 0.58780000
vn -0.00000000 -1.00000000 -0.00000000
vn 0.00030000 0.06570000 -0.99780000
vn 0.95110000 0.00010000 0.30890000
vn -0.00000000 -0.00000000 1.00000000
vn -0.00000000 1.00000000 -0.00000000
vn 0.00020000 0.14930000 -0.98880000
vn 0.00050000 0.23050000 -0.97310000
vn -0.98770000 -0.00000000 -0.15640000
vn -0.00000000 -1.00000000 -0.00000000
vn 0.45400000 -0.00000000 0.89100000
vn -0.00000000 1.00000000 -0.00000000
vn -0.70710000 -0.00000000 -0.70710000
vn -0.00000000 1.00000000 -0.00000000
vn -0.00000000 1.00000000 -0.00000000
vn 0.80900000 -0.00000000 -0.58780000
vn -0.70710000 -0.00000000 -0.70710000
vn -0.00000000 -1.00000000 -0.00000000
vn 0.97710000 -0.00000000 0.21300000
vn -0.00000000 1.00000000 -0.00000000
vn -0.70710000 -0.00000000 -0.70710000
vn -0.00000000 -0.93970000 0.34200000
vn -0.00000000 -0.98480000 0.17360000
vn -0.00000000 -0.00000000 1.00000000
vn -0.86600000 -0.50000000 -0.00000000
vn 0.70710000 -0.00000000 0.70710000
vn 1.00000000 -0.00000000 -0.00000000
vn -0.00000000 1.00000000 -0.00000000
vn 0.45400000 -0.00000000 0.89100000
vn 0.58780000 -0.00000000 0.80900000
vn -0.00000000 1.00000000 -0.00000000
vn 1.00000000 -0.00000000 -0.00000000
vn 0.58780000 -0.00000000 0.80900000
vn -0.00000000 -1.00000000 -0.00000000
vn -0.00000000 -1.00000000 -0.00000000
vn -0.00000000 0.93970000 0.34200000
vn -0.00000000 0.88220000 0.47090000
vn -0.00000000 -0.00000000 1.00000000
vn -0.00000000 1.00000000 -0.00000000
vn 0.00030000 -0.61680000 0.78710000
vn 0.95110000 -0.00000000 0.30900000
vn -0.45400000 -0.00000000 -0.89100000
vn -0.00000000 -1.00000000 -0.00000000
vn 1.00000000 -0.00000000 -0.00000000
vn -0.00000000 -1.00000000 -0.00000000
vn -0.00000000 -0.00000000 1.00000000
vn -0.00000000 1.00000000 -0.00000000
vn 1.00000000 -0.00000000 -0.00000000
vn -0.00120000 0.34210000 -0.93970000
vn -0.00000000 -0.00000000 1.00000000
vn 0.86600000 -0.50000000 -0.00000000
vn -0.98770000 -0.00000000 0.15640000
vn -0.00000000 -1.00000000 -0.00000000
vn -0.00000000 1.00000000 -0.00000000
vn -0.00000000 -1.00000000 -0.00000000
vn -0.00000000 -0.98480000 -0.17360000
vn -0.00000000 1.00000000 -0.00000000
vn 1.00000000 -0.00000000 -0.00000000
vn -0.00000000 -0.00000000 1.00000000
vn 0.95110000 -0.00000000 -0.30900000
vn 0.95110000 -0.00000000 -0.30900000
vn -0.00010000 0.26480000 0.96430000
vn 0.95110000 -0.00000000 0.30900000
vn 1.00000000 -0.00000000 -0.00000000
vn -0.00000000 0.93970000 -0.34200000
vn -0.00000000 1.00000000 -0.00000000
vn 0.86600000 0.50000000 -0.00000000
vn 0.15640000 -0.00000000 0.98770000
vn 0.45400000 -0.00000000 0.89100000
vn 1.00000000 -0.00000000 -0.00000000
vn -0.00000000 0.98480000 0.17360000
vn -0.00000000 -1.00000000 -0.00000000
vn 0.95110000 -0.00000000 -0.30900000
vn -0.98770000 -0.00000000 -0.15640000
vn 0.95110000 -0.00000000 0.30900000
vn 0.95110000 0.00010000 0.30890000
vn 0.95110000 -0.00000000 -0.30900000
vn 0.70710000 -0.00000000 -0.70710000
vn -0.98770000 -0.00000000 -0.15640000
vn -0.00000000 -1.00000000 -0.00000000
vn 1.00000000 -0.00000000 -0.00000000
vn 1.00000000 -0.00000000 -0.00000000
vn 0.30900000 -0.00000000 0.95110000
vn -0.00000000 -1.00000000 -0.00000000
vn 1.00000000 -0.00000000 -0.00000000
vn -0.00000000 1.00000000 -0.00000000
vn 0.45400000 -0.00000000 0.89100000
vn 0.15640000 -0.00000000 0.98770000
vn -0.00100000 0.17370000 -0.98480000
vn -0.70710000 -0.00000000 -0.70710000
vn -0.00000000 1.00000000 -0.00000000
vn -0.00000000 -0.00000000 1.00000000
vn -0.00000000 -1.00000000 -0.00000000
vn -0.00000000 -1.00000000 -0.00000000
vn -0.00000000 -1.00000000 -0.00000000
vn 1.00000000 -0.00000000 -0.00000000
vn -0.00000000 -1.00000000 -0.00000000
vn -0.00000000 -0.00000000 1.00000000
vn 0.86600000 -0.50000000 -0.00000000
vn -0.00000000 -0.00000000 1.00000000
vn 0.86600000 0.50000000 -0.00000000
vn 0.95110000 -0.00000000 0.30900000
vn 0.01080000 -0.65330000 -0.75700000
vn 1.00000000 -0.00000000 -0.00000000
vn -0.00000000 1.00000000 -0.00000000
vn -0.00000000 0.98480000 -0.17360000
vn -0.00000000 -1.00000000 -0.00000000
vn -0.00000000 -1.00000000 -0.00000000
vn -0.00000000 -1.00000000 -0.00000000
vn -0.45400000 -0.00000000 -0.89100000
vn 1.00000000 -0.00000000 -0.00000000
vn 0.89100000 -0.00000000 -0.45400000
vn -0.00000000 -1.00000000 -0.00000000
vn -0.86600000 -0.50000000 -0.00000000
vn 0.00970000 0.76920000 0.63900000
vn -0.00160000 0.64280000 -0.76600000
vn 0.95100000 -0.00000000 -0.30910000
vn 1.00000000 -0.00000000 -0.00000000
vn 1.00000000 -0.00000000 -0.00000000
vn -0.15640000 -0.00000000 0.98770000
vn -0.00000000 1.00000000 -0.00000000
vn 0.00030000 -0.31410000 0.94940000
vn -0.00000000 -0.00000000 1.00000000
vn 0.86600000 -0.50000000 -0.00000000
vn -0.45400000 -0.00000000 0.89100000
vn 0.00700000 -0.69990000 -0.71420000
vn 0.98770000 -0.00000000 -0.15640000
vn 0.98770000 -0.00000000 0.15640000
vn -0.45400000 -0.00000000 0.89100000
vn -0.15640000 -0.00000000 0.98770000
vn -0.00000000 -1.00000000 -0.00000000
vn -0.00000000 -0.50540000 -0.86290000
vn -0.00000000 1.00000000 -0.00000000
vn -0.89100000 -0.00000000 0.45400000
vn 0.00960000 -0.76890000 -0.63930000
vn 0.15640000 -0.00000000 0.98770000
vn -0.15640000 -0.00000000 0.98770000
vn -0.00000000 -0.17330000 -0.98490000
f 313//313 319//319 3//3
f 327//327 362//362 328//328
f 328//328 362//362 7//7
f 328//328 7//7 8//8
f 8//8 7//7 427//427
f 8//8 427//427 424//424
f 313//313 3//3 362//362
f 362//362 3//3 408//408
f 362//362 408//408 7//7
f 311//311 411//411 381//381
f 381//381 411//411 356//356
f 381//381 356//356 382//382
f 382//382 356//356 280//280
f 382//382 280//280 250//250
f 250//250 280//280 281//281
f 250//250 281//281 251//251
f 251//251 281//281 450//450
f 251//251 450//450 301//301
f 301//301 450//450 23//23
f 301//301 23//23 24//24
f 24//24 23//23 25//25
f 24//24 25//25 410//410
f 410//410 25//25 487//487
f 410//410 487//487 28//28
f 28//28 487//487 29//29
f 28//28 29//29 372//372
f 372//372 29//29 345//345
f 372//372 345//345 262//262
f 262//262 345//345 256//256
f 262//262 256//256 263//263
f 263//263 256//256 257//257
f 263//263 257//257 282//282
f 282//282 257//257 319//319
f 282//282 319//319 315//315
f 315//315 319//319 313//313
f 38//38 503//503 246//246
f 38//38 246//246 41//41
f 41//41 246//246 441//441
f 41//41 441//441 43//43
f 441//441 480//480 43//43
f 43//43 480//480 364//364
f 43//43 364//364 395//395
f 395//395 364//364 47//47
f 395//395 47//47 398//398
f 248//248 246//246 320//320
f 320//320 246//246 503//503
f 320//320 503//503 51//51
f 51//51 503//503 343//343
f 51//51 343//343 430//430
f 430//430 343//343 344//344
f 430//430 344//344 504//504
f 504//504 344//344 56//56
f 504//504 56//56 57//57
f 57//57 56//56 449//449
f 57//57 449//449 476//476
f 476//476 449//449 493//493
f 476//476 493//493 387//387
f 387//387 493//493 62//62
f 387//387 62//62 63//63
f 63//63 62//62 414//414
f 63//63 414//414 332//332
f 332//332 414//414 291//291
f 332//332 291//291 375//375
f 375//375 291//291 292//292
f 375//375 292//292 69//69
f 69//69 292//292 406//406
f 69//69 406//406 431//431
f 431//431 406//406 72//72
f 431//431 72//72 283//283
f 283//283 72//72 285//285
f 426//426 407//407 429//429
f 429//429 407//407 483//483
f 429//429 483//483 77//77
f 77//77 483//483 78//78
f 77//77 78//78 258//258
f 258//258 78//78 308//308
f 258//258 308//308 260//260
f 260//260 308//308 268//268
f 260//260 268//268 359//359
f 359//359 268//268 269//269
f 359//359 269//269 360//360
f 360//360 269//269 425//425
f 360//360 425//425 46//46
f 46//46 425//425 465//465
f 365//365 422//422 397//397
f 397//397 422//422 10//10
f 287//287 259//259 302//302
f 302//302 259//259 261//261
f 302//302 261//261 304//304
f 393//393 259//259 401//401
f 304//304 261//261 446//446
f 446//446 261//261 455//455
f 446//446 455//455 369//369
f 369//369 455//455 393//393
f 369//369 393//393 289//289
f 401//401 442//442 393//393
f 393//393 442//442 494//494
f 393//393 494//494 289//289
f 289//289 494//494 488//488
f 289//289 488//488 287//287
f 287//287 488//488 420//420
f 287//287 420//420 259//259
f 259//259 420//420 392//392
f 259//259 392//392 401//401
f 74//74 13//13 284//284
f 284//284 13//13 310//310
f 101//101 102//102 103//103
f 103//103 102//102 104//104
f 297//297 276//276 103//103
f 103//103 276//276 277//277
f 103//103 277//277 101//101
f 298//298 337//337 110//110
f 110//110 299//299 298//298
f 298//298 299//299 300//300
f 298//298 300//300 297//297
f 297//297 300//300 436//436
f 297//297 436//436 276//276
f 338//338 254//254 116//116
f 116//116 117//117 338//338
f 338//338 117//117 118//118
f 338//338 118//118 337//337
f 337//337 118//118 518//518
f 337//337 518//518 110//110
f 312//312 121//121 255//255
f 255//255 121//121 358//358
f 255//255 358//358 254//254
f 254//254 358//358 124//124
f 254//254 124//124 116//116
f 270//270 271//271 274//274
f 274//274 271//271 385//385
f 274//274 385//385 312//312
f 312//312 385//385 458//458
f 312//312 458//458 121//121
f 275//275 264//264 274//274
f 274//274 264//264 265//265
f 274//274 265//265 270//270
f 329//329 134//134 135//135
f 135//135 134//134 136//136
f 512//512 138//138 135//135
f 135//135 138//138 330//330
f 135//135 330//330 329//329
f 140//140 445//445 278//278
f 278//278 279//279 140//140
f 140//140 279//279 324//324
f 140//140 324//324 512//512
f 512//512 324//324 325//325
f 512//512 325//325 138//138
f 485//485 147//147 399//399
f 399//399 403//403 485//485
f 485//485 403//403 404//404
f 485//485 404//404 445//445
f 445//445 404//404 151//151
f 445//445 151//151 278//278
f 373//373 153//153 534//534
f 534//534 153//153 155//155
f 534//534 155//155 147//147
f 147//147 155//155 156//156
f 147//147 156//156 399//399
f 157//157 528//528 334//334
f 334//334 528//528 295//295
f 334//334 295//295 373//373
f 373//373 295//295 296//296
f 373//373 296//296 153//153
f 335//335 522//522 334//334
f 334//334 522//522 499//499
f 334//334 499//499 157//157
f 102//102 318//318 104//104
f 104//104 318//318 418//418
f 104//104 418//418 167//167
f 167//167 418//418 419//419
f 167//167 419//419 169//169
f 169//169 419//419 468//468
f 169//169 468//468 451//451
f 451//451 468//468 367//367
f 451//451 367//367 452//452
f 452//452 367//367 368//368
f 452//452 368//368 175//175
f 175//175 368//368 252//252
f 175//175 252//252 306//306
f 306//306 252//252 253//253
f 306//306 253//253 179//179
f 179//179 253//253 336//336
f 179//179 336//336 335//335
f 335//335 336//336 531//531
f 335//335 531//531 522//522
f 134//134 182//182 136//136
f 136//136 182//182 461//461
f 136//136 461//461 184//184
f 184//184 461//461 502//502
f 184//184 502//502 186//186
f 186//186 502//502 187//187
f 186//186 187//187 388//388
f 388//388 187//187 467//467
f 388//388 467//467 389//389
f 389//389 467//467 432//432
f 389//389 432//432 192//192
f 192//192 432//432 433//433
f 192//192 433//433 194//194
f 194//194 433//433 322//322
f 194//194 322//322 342//342
f 342//342 322//322 323//323
f 342//342 323//323 275//275
f 275//275 323//323 511//511
f 275//275 511//511 264//264
f 44//44 440//440 326//326
f 326//326 440//440 363//363
f 37//37 314//314 249//249
f 249//249 314//314 247//247
f 112//112 111//111 508//508
f 473//473 457//457 508//508
f 508//508 457//457 456//456
f 508//508 456//456 266//266
f 266//266 456//456 513//513
f 266//266 513//513 123//123
f 123//123 357//357 266//266
f 266//266 357//357 129//129
f 266//266 129//129 128//128
f 111//111 390//390 508//508
f 508//508 390//390 119//119
f 508//508 119//119 473//473
f 128//128 126//126 266//266
f 266//266 126//126 125//125
f 266//266 125//125 132//132
f 107//107 106//106 508//508
f 508//508 106//106 113//113
f 508//508 113//113 112//112
f 523//523 317//317 508//508
f 508//508 317//317 469//469
f 508//508 469//469 107//107
f 132//132 131//131 266//266
f 266//266 131//131 198//198
f 266//266 198//198 267//267
f 267//267 198//198 197//197
f 267//267 197//197 195//195
f 191//191 267//267 193//193
f 193//193 267//267 195//195
f 185//185 309//309 466//466
f 466//466 309//309 267//267
f 466//466 267//267 189//189
f 189//189 267//267 191//191
f 185//185 183//183 309//309
f 309//309 183//183 460//460
f 309//309 460//460 415//415
f 168//168 523//523 170//170
f 170//170 523//523 524//524
f 170//170 524//524 172//172
f 178//178 176//176 524//524
f 524//524 176//176 174//174
f 524//524 174//174 172//172
f 168//168 166//166 523//523
f 523//523 166//166 165//165
f 523//523 165//165 317//317
f 144//144 143//143 308//308
f 150//150 149//149 308//308
f 308//308 149//149 148//148
f 308//308 148//148 268//268
f 268//268 148//148 400//400
f 268//268 400//400 459//459
f 459//459 472//472 268//268
f 268//268 472//472 161//161
f 268//268 161//161 160//160
f 143//143 142//142 308//308
f 308//308 142//142 471//471
f 308//308 471//471 150//150
f 160//160 158//158 268//268
f 268//268 158//158 498//498
f 268//268 498//498 164//164
f 139//139 437//437 308//308
f 308//308 437//437 145//145
f 308//308 145//145 144//144
f 309//309 415//415 308//308
f 308//308 415//415 133//133
f 308//308 133//133 139//139
f 164//164 163//163 268//268
f 268//268 163//163 181//181
f 268//268 181//181 524//524
f 524//524 181//181 180//180
f 524//524 180//180 178//178
f 15//15 339//339 17//17
f 17//17 339//339 293//293
f 17//17 293//293 19//19
f 19//19 293//293 294//294
f 19//19 294//294 21//21
f 21//21 294//294 386//386
f 21//21 386//386 506//506
f 506//506 386//386 438//438
f 506//506 438//438 486//486
f 486//486 438//438 210//210
f 486//486 210//210 27//27
f 27//27 210//210 272//272
f 27//27 272//272 405//405
f 405//405 272//272 273//273
f 405//405 273//273 31//31
f 31//31 273//273 213//213
f 31//31 213//213 33//33
f 33//33 213//213 214//214
f 33//33 214//214 35//35
f 35//35 214//214 215//215
f 35//35 215//215 2//2
f 2//2 215//215 521//521
f 2//2 521//521 366//366
f 366//366 521//521 533//533
f 366//366 533//533 11//11
f 11//11 533//533 484//484
f 11//11 484//484 407//407
f 407//407 484//484 483//483
f 212//212 200//200 505//505
f 505//505 200//200 490//490
f 212//212 211//211 200//200
f 200//200 211//211 439//439
f 200//200 439//439 205//205
f 205//205 439//439 206//206
f 209//209 208//208 439//439
f 439//439 208//208 207//207
f 439//439 207//207 206//206
f 490//490 200//200 491//491
f 491//491 200//200 202//202
f 491//491 202//202 203//203
f 203//203 80//80 491//491
f 491//491 80//80 527//527
f 491//491 527//527 76//76
f 76//76 218//218 491//491
f 491//491 218//218 217//217
f 491//491 217//217 216//216
f 219//219 220//220 529//529
f 529//529 220//220 340//340
f 529//529 340//340 223//223
f 416//416 482//482 529//529
f 529//529 482//482 501//501
f 529//529 501//501 227//227
f 228//228 229//229 529//529
f 529//529 229//229 230//230
f 529//529 230//230 86//86
f 86//86 84//84 529//529
f 529//529 84//84 82//82
f 529//529 82//82 204//204
f 223//223 453//453 529//529
f 529//529 453//453 232//232
f 529//529 232//232 416//416
f 204//204 201//201 529//529
f 529//529 201//201 199//199
f 529//529 199//199 219//219
f 333//333 474//474 286//286
f 286//286 474//474 508//508
f 286//286 508//508 412//412
f 412//412 508//508 266//266
f 412//412 266//266 15//15
f 15//15 266//266 339//339
f 465//465 425//425 464//464
f 464//464 425//425 532//532
f 464//464 532//532 516//516
f 516//516 532//532 526//526
f 516//516 526//526 39//39
f 39//39 526//526 525//525
f 39//39 525//525 52//52
f 52//52 525//525 221//221
f 52//52 221//221 54//54
f 54//54 221//221 530//530
f 54//54 530//530 448//448
f 448//448 530//530 226//226
f 448//448 226//226 58//58
f 58//58 226//226 225//225
f 58//58 225//225 60//60
f 60//60 225//225 224//224
f 60//60 224//224 413//413
f 413//413 224//224 417//417
f 413//413 417//417 64//64
f 64//64 417//417 231//231
f 64//64 231//231 66//66
f 66//66 231//231 341//341
f 66//66 341//341 68//68
f 68//68 341//341 222//222
f 68//68 222//222 70//70
f 70//70 222//222 374//374
f 70//70 374//374 333//333
f 333//333 374//374 474//474
f 5//5 42//42 1//1
f 1//1 42//42 40//40
f 71//71 73//73 14//14
f 14//14 73//73 12//12
f 475//475 59//59 470//470
f 470//470 59//59 26//26
f 59//59 61//61 26//26
f 26//26 61//61 409//409
f 61//61 331//331 409//409
f 409//409 331//331 22//22
f 331//331 65//65 22//22
f 22//22 65//65 20//20
f 65//65 67//67 20//20
f 20//20 67//67 18//18
f 67//67 376//376 18//18
f 18//18 376//376 16//16
f 376//376 71//71 16//16
f 16//16 71//71 14//14
f 49//49 50//50 316//316
f 316//316 50//50 36//36
f 50//50 321//321 36//36
f 36//36 321//321 34//34
f 321//321 53//53 34//34
f 34//34 53//53 32//32
f 53//53 55//55 32//32
f 32//32 55//55 30//30
f 55//55 475//475 30//30
f 30//30 475//475 470//470
f 45//45 479//479 6//6
f 6//6 479//479 4//4
f 365//365 45//45 422//422
f 422//422 45//45 6//6
f 114//114 233//233 115//115
f 115//115 233//233 146//146
f 444//444 127//127 120//120
f 152//152 108//108 159//159
f 159//159 108//108 105//105
f 159//159 105//105 481//481
f 114//114 109//109 233//233
f 233//233 109//109 108//108
f 233//233 108//108 154//154
f 154//154 108//108 152//152
f 355//355 196//196 514//514
f 146//146 141//141 115//115
f 115//115 141//141 444//444
f 115//115 444//444 122//122
f 122//122 444//444 120//120
f 444//444 137//137 127//127
f 127//127 137//137 514//514
f 127//127 514//514 130//130
f 130//130 514//514 196//196
f 188//188 190//190 354//354
f 514//514 515//515 355//355
f 355//355 515//515 477//477
f 355//355 477//477 354//354
f 354//354 477//477 478//478
f 354//354 478//478 188//188
f 171//171 173//173 492//492
f 492//492 173//173 371//371
f 492//492 371//371 507//507
f 507//507 371//371 177//177
f 507//507 177//177 500//500
f 500//500 177//177 307//307
f 500//500 307//307 481//481
f 481//481 307//307 162//162
f 481//481 162//162 159//159
f 435//435 351//351 288//288
f 288//288 351//351 290//290
f 350//350 352//352 95//95
f 95//95 352//352 94//94
f 353//353 384//384 370//370
f 370//370 384//384 447//447
f 237//237 347//347 92//92
f 92//92 347//347 89//89
f 346//346 348//348 305//305
f 305//305 348//348 303//303
f 239//239 234//234 88//88
f 88//88 234//234 87//87
f 238//238 383//383 349//349
f 349//349 383//383 236//236
f 349//349 236//236 434//434
f 434//434 236//236 235//235
f 240//240 462//462 402//402
f 402//402 462//462 443//443
f 463//463 497//497 96//96
f 96//96 497//497 97//97
f 242//242 520//520 495//495
f 495//495 520//520 98//98
f 243//243 509//509 489//489
f 489//489 509//509 99//99
f 510//510 245//245 421//421
f 421//421 245//245 391//391
f 380//380 377//377 100//100
f 100//100 377//377 91//91
f 244//244 519//519 379//379
f 379//379 519//519 496//496
f 379//379 496//496 378//378
f 378//378 496//496 241//241
f 9//9 428//428 423//423
f 423//423 428//428 394//394
f 423//423 394//394 48//48
f 48//48 394//394 454//454
f 48//48 454//454 396//396
f 396//396 454//454 361//361
f 79//79 90//90 517//517
f 517//517 90//90 75//75
f 85//85 93//93 83//83
f 83//83 93//93 81//81

