mtllib material.mtl
usemtl Metal_DarkGray_003
v -0.02506600 0.00000000 -0.03751100
v -0.02506600 0.00000000 -0.03751100
v -0.02506000 0.03614300 -0.03707400
v -0.01726700 0.00000000 -0.04167800
v -0.01726700 0.00000000 -0.04167800
v -0.01726100 0.03786900 -0.04122200
v -0.00880200 0.00000000 -0.04424300
v -0.00880200 0.00000000 -0.04424300
v -0.00879600 0.03893600 -0.04377000
v -0.00000200 0.00000000 -0.04511300
v -0.00000200 0.00000000 -0.04511300
v 0.00000400 0.03929600 -0.04463300
v 0.00879900 0.00000000 -0.04424300
v 0.00879900 0.00000000 -0.04424300
v 0.00880500 0.03893600 -0.04377600
v 0.01726300 0.00000000 -0.04167800
v 0.01726300 0.00000000 -0.04167800
v 0.01726900 0.03786900 -0.04122200
v 0.02506200 0.00000000 -0.03751100
v 0.02506200 0.00000000 -0.03751100
v 0.02506800 0.03614900 -0.03707400
v 0.03189600 0.00000000 -0.03190000
v 0.03189600 0.00000000 -0.03190000
v 0.03190200 0.03382300 -0.03149200
v 0.03750800 0.00000000 -0.02506600
v 0.03750800 0.00000000 -0.02506600
v 0.03751400 0.03099300 -0.02469400
v 0.04168000 0.00000000 -0.01726700
v 0.04168000 0.00000000 -0.01726700
v 0.04168000 0.02776200 -0.01693700
v 0.04424600 0.00000000 -0.00880200
v 0.04424600 0.00000000 -0.00880200
v 0.04424600 0.02426100 -0.00852000
v 0.04511500 0.00000000 -0.00000200
v 0.04511500 0.00000000 -0.00000200
v 0.04511500 0.02061600 0.00023200
v 0.04424600 0.00000000 0.00879900
v 0.04424600 0.00000000 0.00879900
v 0.04424600 0.01697700 0.00899000
v 0.04168000 0.00000000 0.01726300
v 0.04168000 0.00000000 0.01726300
v 0.04168000 0.01347000 0.01740700
v 0.03750800 0.00000000 0.02506200
v 0.03750800 0.00000000 0.02506200
v 0.03751400 0.01024500 0.02516400
v 0.03189600 0.00000000 0.03189700
v 0.03189600 0.00000000 0.03189700
v 0.03190200 0.00741000 0.03196200
v 0.02506200 0.00000000 0.03750800
v 0.02506200 0.00000000 0.03750800
v 0.02506200 0.00509000 0.03754400
v 0.01726300 0.00000000 0.04168000
v 0.01726300 0.00000000 0.04168000
v 0.01726300 0.00336300 0.04169200
v 0.00879900 0.00000000 0.04424600
v 0.00879900 0.00000000 0.04424600
v -0.01726700 0.00000000 0.04168000
v -0.01726700 0.00000000 0.04168000
v -0.00880200 0.00000000 0.04424600
v -0.00880200 0.00000000 0.04424600
v -0.00880200 0.00230200 0.04424600
v -0.00000200 0.00194300 0.04510900
v -0.00000200 0.00194300 0.04510900
v -0.00000200 0.00000000 0.04511500
v -0.00000200 0.00000000 0.04511500
v -0.00000200 0.00000000 0.04511500
v 0.00880500 0.00230200 0.04424600
v 0.00879900 0.00446000 0.04428800
v 0.01726300 0.00619300 0.04178200
v 0.02506200 0.00899800 0.03771100
v 0.03189600 0.01278700 0.03223200
v 0.03750800 0.01739700 0.02555400
v 0.04168000 0.02265500 0.01793500
v 0.04424600 0.02836100 0.00966800
v 0.04511500 0.03429600 0.00107100
v 0.04424600 0.04023100 -0.00751900
v 0.04168000 0.04594400 -0.01578600
v 0.03750800 0.05120100 -0.02339900
v 0.03189600 0.05581200 -0.03007800
v 0.02506200 0.05959400 -0.03555700
v 0.01726300 0.06240600 -0.03962700
v 0.00879900 0.06413800 -0.04213300
v -0.00000200 0.06472600 -0.04297800
v -0.00880200 0.06413800 -0.04213300
v -0.01726700 0.06240600 -0.03962700
v -0.02506600 0.05959400 -0.03555700
v -0.03190000 0.05581100 -0.03007800
v -0.03189400 0.03382300 -0.03149200
v -0.03190000 0.00000000 -0.03190000
v -0.03190000 0.00000000 -0.03190000
v -0.00000200 0.00000000 -0.00000200
v -0.02506600 0.00000000 0.03750800
v -0.02506600 0.00000000 0.03750800
v -0.01726100 0.00336300 0.04169200
v -0.00880200 0.00446000 0.04428800
v -0.00000200 0.00387300 0.04513300
v -0.00000200 0.00387300 0.04513300
v 0.00879900 0.00536000 0.04465300
v 0.01726300 0.00739800 0.04221400
v 0.02506200 0.01070700 0.03825100
v 0.03189600 0.01516100 0.03291600
v 0.03750800 0.02058600 0.02641700
v 0.04168000 0.02677900 0.01900800
v 0.04424600 0.03349300 0.01096300
v 0.04511500 0.04047700 0.00260000
v 0.04424600 0.04746700 -0.00576300
v 0.04168000 0.05418100 -0.01380800
v 0.03750800 0.06037400 -0.02121700
v 0.03189600 0.06579900 -0.02771000
v 0.02506200 0.07025300 -0.03304500
v 0.01726300 0.07356200 -0.03700200
v 0.00879900 0.07560000 -0.03944100
v -0.00000200 0.07628400 -0.04026900
v -0.00880200 0.07560000 -0.03944100
v -0.01726700 0.07356200 -0.03700200
v -0.02506600 0.07025300 -0.03304500
v -0.03190000 0.06579900 -0.02771000
v -0.03751100 0.06037300 -0.02121700
v -0.03751100 0.05120100 -0.02339900
v -0.03750500 0.03099300 -0.02469400
v -0.03751100 0.00000000 -0.02506600
v -0.03751100 0.00000000 -0.02506600
v -0.04167700 0.00000000 -0.01726700
v -0.04167700 0.00000000 -0.01726700
v -0.04424300 0.00000000 -0.00880200
v -0.04424300 0.00000000 -0.00880200
v -0.04511200 0.00000000 -0.00000200
v -0.04511200 0.00000000 -0.00000200
v -0.04424300 0.00000000 0.00879900
v -0.04424300 0.00000000 0.00879900
v -0.04167700 0.00000000 0.01726300
v -0.04167700 0.00000000 0.01726300
v -0.03751100 0.00000000 0.02506200
v -0.03751100 0.00000000 0.02506200
v -0.03190000 0.00000000 0.03189700
v -0.03190000 0.00000000 0.03189700
v -0.02506000 0.00509000 0.03754400
v -0.01726700 0.00619300 0.04178200
v -0.00880200 0.00535900 0.04465300
v -0.00000200 0.00467600 0.04548100
v -0.00000200 0.00467600 0.04548100
v -0.00000200 0.00519200 0.04610400
v -0.00000200 0.00519200 0.04610400
v 0.00879900 0.00596500 0.04533700
v 0.01726300 0.00823700 0.04305300
v 0.02506200 0.01193600 0.03934800
v 0.03189600 0.01691100 0.03435400
v 0.03750800 0.02297800 0.02827600
v 0.04168000 0.02989600 0.02134000
v 0.04424600 0.03740800 0.01381600
v 0.04511500 0.04521900 0.00599300
v 0.04424600 0.05302400 -0.00183600
v 0.04168000 0.06053500 -0.00936000
v 0.03750800 0.06745900 -0.01629600
v 0.03189600 0.07352000 -0.02236800
v 0.02506200 0.07850200 -0.02735600
v 0.01726300 0.08220000 -0.03106700
v 0.00879900 0.08447900 -0.03334500
v -0.00000200 0.08524600 -0.03411800
v -0.00880200 0.08447900 -0.03334500
v -0.01726700 0.08220000 -0.03106700
v -0.02506600 0.07850200 -0.02735600
v -0.03190000 0.07352000 -0.02236800
v -0.03751100 0.06745900 -0.01629600
v -0.04167700 0.06053500 -0.00936000
v -0.04167700 0.05418100 -0.01380800
v -0.04167700 0.04594400 -0.01578600
v -0.04167700 0.02776200 -0.01693700
v -0.04424300 0.02426100 -0.00851400
v -0.04511200 0.02061600 0.00023800
v -0.04424300 0.01697100 0.00899000
v -0.04167700 0.01347000 0.01740700
v -0.03750500 0.01023900 0.02516400
v -0.03190000 0.00741000 0.03196200
v -0.02506600 0.00899800 0.03771100
v -0.01726700 0.00739800 0.04221300
v -0.00880200 0.00596500 0.04533700
v -0.00880200 0.00617500 0.04645800
v -0.00000200 0.00535300 0.04714100
v -0.00000200 0.00535300 0.04714100
v 0.00879900 0.00617500 0.04645800
v 0.01726300 0.00860300 0.04443800
v 0.02506200 0.01254700 0.04114600
v 0.03189600 0.01785300 0.03672200
v 0.03750800 0.02432100 0.03133300
v 0.04168000 0.03169500 0.02517600
v 0.04424600 0.03970400 0.01850400
v 0.04511500 0.04802400 0.01156200
v 0.04424600 0.05635100 0.00462000
v 0.04168000 0.06435400 -0.00205200
v 0.03750800 0.07173400 -0.00820300
v 0.03189600 0.07820200 -0.01359800
v 0.02506200 0.08350700 -0.01802200
v 0.01726300 0.08745200 -0.02130700
v 0.00879900 0.08988000 -0.02333300
v -0.00000200 0.09070100 -0.02401700
v -0.00880200 0.08988000 -0.02333300
v -0.01726700 0.08745200 -0.02130700
v -0.02506600 0.08350700 -0.01802200
v -0.03190000 0.07820200 -0.01359800
v -0.03751100 0.07173400 -0.00820300
v -0.04167700 0.06435400 -0.00205200
v -0.04424300 0.05302400 -0.00183600
v -0.04424300 0.04746700 -0.00576300
v -0.04424300 0.04023100 -0.00751900
v -0.04511200 0.03429600 0.00107100
v -0.04424300 0.02836100 0.00966800
v -0.04167700 0.02265400 0.01793500
v -0.03751100 0.01739700 0.02555400
v -0.03190000 0.01278100 0.03223200
v -0.02506600 0.01070700 0.03825100
v -0.01726700 0.00823700 0.04305300
v -0.01726700 0.00860300 0.04443800
v -0.01726700 0.00860900 0.04597200
v -0.00880200 0.00610900 0.04768700
v -0.00000200 0.00526400 0.04826800
v -0.00000200 0.00526400 0.04826800
v 0.00879900 0.00610900 0.04768700
v 0.01726300 0.00860900 0.04597200
v 0.02506200 0.01266100 0.04317900
v 0.03189600 0.01811600 0.03942000
v 0.03750800 0.02476500 0.03484000
v 0.04168000 0.03234800 0.02961900
v 0.04424600 0.04057900 0.02395300
v 0.04511500 0.04913900 0.01806100
v 0.04424600 0.05769400 0.01216800
v 0.04168000 0.06592500 0.00649700
v 0.03750800 0.07350800 0.00127500
v 0.03189600 0.08015600 -0.00329900
v 0.02506200 0.08561100 -0.00705800
v 0.01726300 0.08966400 -0.00985100
v 0.00879900 0.09216400 -0.01156600
v -0.00000200 0.09300300 -0.01214700
v -0.00880200 0.09216400 -0.01156600
v -0.01726700 0.08966400 -0.00985100
v -0.02506600 0.08561100 -0.00705800
v -0.03190000 0.08015600 -0.00329900
v -0.03751100 0.07350800 0.00127500
v -0.04167700 0.06592500 0.00649700
v -0.04424300 0.05635100 0.00462000
v -0.04511200 0.04521900 0.00599300
v -0.04511200 0.04047700 0.00260000
v -0.04424300 0.03349300 0.01096300
v -0.04167700 0.02677900 0.01900800
v -0.03751100 0.02058600 0.02641700
v -0.03190000 0.01516100 0.03291600
v -0.02506600 0.01193600 0.03934800
v -0.02506600 0.01254700 0.04114600
v -0.02506600 0.01266100 0.04317900
v -0.02506600 0.01282900 0.04704500
v -0.01726700 0.00869900 0.04878400
v -0.00880200 0.00615700 0.04985100
v -0.00000200 0.00529400 0.05021000
v -0.00000200 0.00529400 0.05021000
v 0.00879900 0.00615700 0.04985100
v 0.01726300 0.00869900 0.04878400
v 0.02506200 0.01282900 0.04704500
v 0.03189600 0.01838600 0.04470700
v 0.03750800 0.02516000 0.04186000
v 0.04168000 0.03288800 0.03861100
v 0.04424600 0.04126800 0.03508600
v 0.04511500 0.04999100 0.03142300
v 0.04424600 0.05870700 0.02775400
v 0.04168000 0.06709400 0.02422900
v 0.03750800 0.07482100 0.02098000
v 0.03189600 0.08159500 0.01813200
v 0.02506200 0.08715200 0.01579400
v 0.01726300 0.09128300 0.01406200
v 0.00879900 0.09382400 0.01298900
v -0.00000200 0.09468200 0.01262900
v -0.00880200 0.09382400 0.01298900
v -0.01726700 0.09128300 0.01406200
v -0.02506600 0.08715200 0.01579400
v -0.03190000 0.08159500 0.01813200
v -0.03751100 0.07482100 0.02098000
v -0.04167700 0.06709400 0.02422900
v -0.04424300 0.05769400 0.01216800
v -0.04511200 0.04802400 0.01156200
v -0.04424300 0.03740800 0.01381600
v -0.04167700 0.02989600 0.02134000
v -0.03751100 0.02297800 0.02827600
v -0.03190000 0.01691100 0.03435400
v -0.03190000 0.01785300 0.03672200
v -0.03190000 0.01811600 0.03942000
v -0.03190000 0.01838600 0.04470700
v -0.03190000 0.01842800 0.05310000
v -0.03190000 0.01842800 0.05310000
v -0.03190000 0.01842800 0.05310000
v -0.02506600 0.01284700 0.05310000
v -0.02506600 0.01284700 0.05310000
v -0.02506600 0.01284700 0.05310000
v -0.01726700 0.00869900 0.05310000
v -0.01726700 0.00869900 0.05310000
v -0.01726700 0.00869900 0.05310000
v -0.00880200 0.00614500 0.05310000
v -0.00880200 0.00614500 0.05310000
v -0.00880200 0.00614500 0.05310000
v -0.00000200 0.00528200 0.05310000
v -0.00000200 0.00528200 0.05310000
v -0.00000200 0.00528200 0.05310000
v 0.00879900 0.00614500 0.05310000
v 0.00879900 0.00614500 0.05310000
v 0.01726300 0.00869900 0.05310000
v 0.01726300 0.00869900 0.05310000
v 0.02506200 0.01284700 0.05310000
v 0.02506200 0.01284700 0.05310000
v 0.03189600 0.01842800 0.05310000
v 0.03189600 0.01842800 0.05310000
v 0.03189600 0.01842800 0.05310000
v 0.03750800 0.02523200 0.05310000
v 0.03750800 0.02523200 0.05310000
v 0.03750800 0.02523200 0.05310000
v 0.04168000 0.03298900 0.05310000
v 0.04168000 0.03298900 0.05310000
v 0.04424600 0.04141200 0.05310000
v 0.04424600 0.04141200 0.05310000
v 0.04424600 0.04141200 0.05310000
v 0.04511500 0.05016400 0.05310000
v 0.04511500 0.05016400 0.05310000
v 0.04511500 0.05016400 0.05310000
v 0.04424600 0.05892300 0.05310000
v 0.04424600 0.05892300 0.05310000
v 0.04424600 0.05892300 0.05310000
v 0.04168000 0.06734500 0.05310000
v 0.04168000 0.06734500 0.05310000
v 0.04168000 0.06734500 0.05310000
v 0.03750800 0.07510300 0.05310000
v 0.03750800 0.07510300 0.05310000
v 0.03750800 0.07510300 0.05310000
v 0.03189600 0.08190700 0.05310000
v 0.03189600 0.08190700 0.05310000
v 0.03189600 0.08190700 0.05310000
v 0.02506200 0.08748800 0.05310000
v 0.02506200 0.08748800 0.05310000
v 0.02506200 0.08748800 0.05310000
v 0.01726300 0.09163600 0.05310000
v 0.01726300 0.09163600 0.05310000
v 0.01726300 0.09163600 0.05310000
v 0.00879900 0.09419000 0.05310000
v 0.00879900 0.09419000 0.05310000
v 0.00879900 0.09419000 0.05310000
v -0.00000200 0.09505300 0.05310000
v -0.00000200 0.09505300 0.05310000
v -0.00000200 0.09505300 0.05310000
v -0.00880200 0.09419000 0.05310000
v -0.00880200 0.09419000 0.05310000
v -0.00880200 0.09419000 0.05310000
v -0.01726700 0.09163600 0.05310000
v -0.01726700 0.09163600 0.05310000
v -0.01726700 0.09163600 0.05310000
v -0.02506600 0.08748800 0.05310000
v -0.02506600 0.08748800 0.05310000
v -0.03190000 0.08190700 0.05310000
v -0.03190000 0.08190700 0.05310000
v -0.03190000 0.08190700 0.05310000
v -0.03751100 0.07510300 0.05310000
v -0.03751100 0.07510300 0.05310000
v -0.03751100 0.07510300 0.05310000
v -0.04167700 0.06734500 0.05310000
v -0.04167700 0.06734500 0.05310000
v -0.04424300 0.05892300 0.05310000
v -0.04424300 0.05892300 0.05310000
v -0.04424300 0.05892300 0.05310000
v -0.04424300 0.05870700 0.02775400
v -0.04511200 0.04913900 0.01806000
v -0.04424300 0.03970400 0.01850400
v -0.04167700 0.03169500 0.02517600
v -0.03751100 0.02432100 0.03133300
v -0.03751100 0.02476500 0.03484000
v -0.03751100 0.02516000 0.04186000
v -0.03751100 0.02523200 0.05310000
v -0.03751100 0.02523200 0.05310000
v -0.03751100 0.02523200 0.05310000
v -0.00000200 0.05016400 0.05310000
v -0.00000200 0.05016400 0.05310000
v -0.00000200 0.05016400 0.05310000
v -0.00000200 0.05016400 0.05310000
v -0.00000200 0.05016400 0.05310000
v -0.00000200 0.05016400 0.05310000
v -0.00000200 0.05016400 0.05310000
v -0.00000200 0.05016400 0.05310000
v -0.00000200 0.05016400 0.05310000
v -0.00000200 0.05016400 0.05310000
v -0.00000200 0.05016400 0.05310000
v -0.00000200 0.05016400 0.05310000
v -0.00000200 0.05016400 0.05310000
v -0.00000200 0.05016400 0.05310000
v -0.00000200 0.05016400 0.05310000
v -0.00000200 0.05016400 0.05310000
v -0.00000200 0.05016400 0.05310000
v -0.00000200 0.05016400 0.05310000
v -0.00000200 0.05016400 0.05310000
v -0.00000200 0.05016400 0.05310000
v -0.00000200 0.05016400 0.05310000
v -0.00000200 0.05016400 0.05310000
v -0.00000200 0.05016400 0.05310000
v -0.00000200 0.05016400 0.05310000
v -0.04511200 0.05016400 0.05310000
v -0.04511200 0.05016400 0.05310000
v -0.04511200 0.05016400 0.05310000
v -0.04511200 0.04999100 0.03142300
v -0.04424300 0.04057900 0.02395300
v -0.04167700 0.03234800 0.02961800
v -0.04167700 0.03288700 0.03861100
v -0.04167700 0.03298900 0.05310000
v -0.04167700 0.03298900 0.05310000
v -0.04167700 0.03298900 0.05310000
v -0.04424300 0.04141200 0.05310000
v -0.04424300 0.04141200 0.05310000
v -0.04424300 0.04126800 0.03508600
vn -0.00000000 -1.00000000 -0.00000000
vn -0.55520000 0.01010000 -0.83170000
vn -0.55870000 0.03180000 -0.82880000
vn -0.00000000 -1.00000000 -0.00000000
vn -0.38220000 0.01120000 -0.92400000
vn -0.38510000 0.03580000 -0.92220000
vn -0.00000000 -1.00000000 -0.00000000
vn -0.19490000 0.01190000 -0.98070000
vn -0.19640000 0.03830000 -0.97980000
vn -0.00000000 -1.00000000 -0.00000000
vn -0.00000000 0.01220000 -0.99990000
vn -0.00030000 0.03920000 -0.99920000
vn -0.00000000 -1.00000000 -0.00000000
vn 0.19490000 0.01180000 -0.98080000
vn 0.19640000 0.03830000 -0.97980000
vn -0.00000000 -1.00000000 -0.00000000
vn 0.38220000 0.01100000 -0.92400000
vn 0.38540000 0.03580000 -0.92210000
vn -0.00000000 -1.00000000 -0.00000000
vn 0.55520000 0.00990000 -0.83170000
vn 0.55870000 0.03190000 -0.82870000
vn -0.00000000 -1.00000000 -0.00000000
vn 0.70670000 0.00840000 -0.70750000
vn 0.70970000 0.02680000 -0.70400000
vn -0.00000000 -1.00000000 -0.00000000
vn 0.83090000 0.00650000 -0.55630000
vn 0.83300000 0.02060000 -0.55280000
vn -0.00000000 -1.00000000 -0.00000000
vn 0.92360000 0.00450000 -0.38330000
vn 0.92460000 0.01380000 -0.38080000
vn -0.00000000 -1.00000000 -0.00000000
vn 0.98060000 0.00230000 -0.19580000
vn 0.98080000 0.00660000 -0.19510000
vn -0.00000000 -1.00000000 -0.00000000
vn 1.00000000 -0.00000000 -0.00070000
vn 1.00000000 -0.00050000 -0.00180000
vn -0.00000000 -1.00000000 -0.00000000
vn 0.98090000 -0.00220000 0.19440000
vn 0.98140000 -0.00710000 0.19190000
vn -0.00000000 -1.00000000 -0.00000000
vn 0.92410000 -0.00410000 0.38220000
vn 0.92540000 -0.01300000 0.37880000
vn -0.00000000 -1.00000000 -0.00000000
vn 0.83160000 -0.00600000 0.55530000
vn 0.83380000 -0.01750000 0.55180000
vn -0.00000000 -1.00000000 -0.00000000
vn 0.70720000 -0.00700000 0.70690000
vn 0.70950000 -0.02020000 0.70440000
vn -0.00000000 -1.00000000 -0.00000000
vn 0.55560000 -0.00630000 0.83140000
vn 0.55720000 -0.01990000 0.83010000
vn -0.00000000 -1.00000000 -0.00000000
vn 0.38230000 -0.00380000 0.92400000
vn 0.38310000 -0.01550000 0.92360000
vn -0.00000000 -1.00000000 -0.00000000
vn 0.19460000 -0.00080000 0.98090000
vn -0.00000000 -1.00000000 -0.00000000
vn -0.38260000 -0.00240000 0.92390000
vn -0.00000000 -1.00000000 -0.00000000
vn -0.19480000 0.00020000 0.98080000
vn -0.19530000 -0.00950000 0.98070000
vn -0.09750000 -0.00520000 0.99520000
vn 0.09770000 -0.00450000 0.99520000
vn -0.00000000 -1.00000000 -0.00000000
vn -0.09830000 0.00310000 0.99520000
vn 0.09760000 0.00250000 0.99520000
vn 0.19500000 -0.00900000 0.98080000
vn 0.21440000 -0.19180000 0.95770000
vn 0.41390000 -0.16690000 0.89490000
vn 0.58870000 -0.13810000 0.79650000
vn 0.73540000 -0.11000000 0.66860000
vn 0.85130000 -0.08300000 0.51810000
vn 0.93460000 -0.05610000 0.35130000
vn 0.98420000 -0.02880000 0.17460000
vn 1.00000000 -0.00140000 -0.00680000
vn 0.98180000 0.02570000 -0.18800000
vn 0.92990000 0.05210000 -0.36420000
vn 0.84430000 0.07730000 -0.53030000
vn 0.72630000 0.10050000 -0.68000000
vn 0.57760000 0.12050000 -0.80740000
vn 0.40190000 0.13640000 -0.90550000
vn 0.20630000 0.14650000 -0.96750000
vn -0.00000000 0.14990000 -0.98870000
vn -0.20640000 0.14640000 -0.96750000
vn -0.40180000 0.13620000 -0.90550000
vn -0.57750000 0.12040000 -0.80740000
vn -0.72630000 0.10030000 -0.68010000
vn -0.70960000 0.02670000 -0.70410000
vn -0.70670000 0.00860000 -0.70750000
vn -0.00000000 -1.00000000 -0.00000000
vn -0.00000000 -1.00000000 -0.00000000
vn -0.00000000 -1.00000000 -0.00000000
vn -0.55570000 -0.00480000 0.83140000
vn -0.38330000 -0.01590000 0.92350000
vn -0.21530000 -0.19210000 0.95750000
vn -0.10700000 -0.20210000 0.97350000
vn 0.10880000 -0.20180000 0.97340000
vn 0.24010000 -0.55940000 0.79330000
vn 0.45760000 -0.47340000 0.75270000
vn 0.63660000 -0.37860000 0.67190000
vn 0.77590000 -0.29100000 0.55980000
vn 0.87840000 -0.21140000 0.42860000
vn 0.94820000 -0.13720000 0.28650000
vn 0.98810000 -0.06640000 0.13910000
vn 0.99990000 0.00190000 -0.01100000
vn 0.98440000 0.06880000 -0.16170000
vn 0.94060000 0.13460000 -0.31170000
vn 0.86630000 0.19910000 -0.45810000
vn 0.75880000 0.26110000 -0.59670000
vn 0.61540000 0.31780000 -0.72130000
vn 0.43620000 0.36470000 -0.82260000
vn 0.22700000 0.39640000 -0.88960000
vn -0.00000000 0.40750000 -0.91320000
vn -0.22700000 0.39640000 -0.88960000
vn -0.43620000 0.36470000 -0.82260000
vn -0.61540000 0.31780000 -0.72130000
vn -0.75880000 0.26110000 -0.59670000
vn -0.86640000 0.19900000 -0.45800000
vn -0.84440000 0.07700000 -0.53010000
vn -0.83290000 0.02060000 -0.55300000
vn -0.83110000 0.00670000 -0.55610000
vn -0.00000000 -1.00000000 -0.00000000
vn -0.92370000 0.00450000 -0.38310000
vn -0.00000000 -1.00000000 -0.00000000
vn -0.98060000 0.00230000 -0.19580000
vn -0.00000000 -1.00000000 -0.00000000
vn -1.00000000 -0.00000000 -0.00070000
vn -0.00000000 -1.00000000 -0.00000000
vn -0.98090000 -0.00210000 0.19450000
vn -0.00000000 -1.00000000 -0.00000000
vn -0.92410000 -0.00380000 0.38210000
vn -0.00000000 -1.00000000 -0.00000000
vn -0.83170000 -0.00500000 0.55520000
vn -0.00000000 -1.00000000 -0.00000000
vn -0.00000000 -1.00000000 -0.00000000
vn -0.70710000 -0.00590000 0.70710000
vn -0.55740000 -0.02040000 0.83000000
vn -0.41400000 -0.16730000 0.89480000
vn -0.23990000 -0.55880000 0.79380000
vn -0.12140000 -0.59380000 0.79540000
vn 0.12090000 -0.59540000 0.79430000
vn -0.11680000 -0.90820000 0.40190000
vn 0.11520000 -0.90790000 0.40300000
vn 0.23380000 -0.87520000 0.42350000
vn 0.45520000 -0.77320000 0.44170000
vn 0.64250000 -0.63980000 0.42170000
vn 0.78530000 -0.50060000 0.36430000
vn 0.88650000 -0.36530000 0.28420000
vn 0.95270000 -0.23560000 0.19190000
vn 0.98940000 -0.11110000 0.09390000
vn 0.99990000 0.00980000 -0.00720000
vn 0.98560000 0.12840000 -0.11010000
vn 0.94530000 0.24580000 -0.21430000
vn 0.87610000 0.36170000 -0.31880000
vn 0.77350000 0.47380000 -0.42090000
vn 0.63310000 0.57730000 -0.51570000
vn 0.45240000 0.66360000 -0.59570000
vn 0.23660000 0.72230000 -0.64990000
vn -0.00000000 0.74300000 -0.66930000
vn -0.23660000 0.72230000 -0.64990000
vn -0.45240000 0.66360000 -0.59570000
vn -0.63310000 0.57730000 -0.51570000
vn -0.77350000 0.47380000 -0.42090000
vn -0.87620000 0.36160000 -0.31870000
vn -0.94540000 0.24560000 -0.21410000
vn -0.94070000 0.13450000 -0.31140000
vn -0.92990000 0.05200000 -0.36410000
vn -0.92450000 0.01380000 -0.38090000
vn -0.98080000 0.00660000 -0.19500000
vn -1.00000000 -0.00050000 -0.00170000
vn -0.98140000 -0.00720000 0.19200000
vn -0.92540000 -0.01320000 0.37870000
vn -0.83380000 -0.01790000 0.55180000
vn -0.70960000 -0.02050000 0.70430000
vn -0.58870000 -0.13860000 0.79640000
vn -0.45760000 -0.47340000 0.75270000
vn -0.23310000 -0.87560000 0.42320000
vn -0.19620000 -0.97870000 0.06010000
vn -0.09710000 -0.99470000 0.03310000
vn 0.09710000 -0.99470000 0.03310000
vn 0.19620000 -0.97870000 0.06010000
vn 0.39740000 -0.91040000 0.11560000
vn 0.58690000 -0.79550000 0.15080000
vn 0.74410000 -0.64990000 0.15480000
vn 0.86170000 -0.48940000 0.13380000
vn 0.94140000 -0.32290000 0.09710000
vn 0.98650000 -0.15590000 0.05110000
vn 1.00000000 0.00960000 -0.00000000
vn 0.98360000 0.17220000 -0.05380000
vn 0.93740000 0.33080000 -0.10880000
vn 0.86010000 0.48320000 -0.16350000
vn 0.74990000 0.62510000 -0.21650000
vn 0.60530000 0.75070000 -0.26470000
vn 0.42720000 0.85140000 -0.30430000
vn 0.22150000 0.91730000 -0.33090000
vn -0.00000000 0.94030000 -0.34020000
vn -0.22150000 0.91730000 -0.33090000
vn -0.42720000 0.85140000 -0.30430000
vn -0.60530000 0.75070000 -0.26470000
vn -0.74990000 0.62510000 -0.21650000
vn -0.86030000 0.48300000 -0.16340000
vn -0.93750000 0.33060000 -0.10870000
vn -0.98560000 0.12840000 -0.11010000
vn -0.98440000 0.06880000 -0.16170000
vn -0.98180000 0.02560000 -0.18800000
vn -1.00000000 -0.00140000 -0.00690000
vn -0.98420000 -0.02880000 0.17460000
vn -0.93470000 -0.05610000 0.35110000
vn -0.85140000 -0.08340000 0.51780000
vn -0.73550000 -0.11030000 0.66850000
vn -0.63660000 -0.37860000 0.67190000
vn -0.45520000 -0.77320000 0.44170000
vn -0.39740000 -0.91040000 0.11560000
vn -0.37670000 -0.92620000 0.01640000
vn -0.18820000 -0.98200000 -0.01410000
vn -0.09440000 -0.99510000 -0.02930000
vn 0.09440000 -0.99510000 -0.02930000
vn 0.18820000 -0.98200000 -0.01410000
vn 0.37670000 -0.92620000 0.01640000
vn 0.55610000 -0.83010000 0.04050000
vn 0.71320000 -0.69910000 0.05130000
vn 0.83880000 -0.54230000 0.04930000
vn 0.92910000 -0.36800000 0.03830000
vn 0.98270000 -0.18380000 0.02130000
vn 1.00000000 0.00400000 0.00100000
vn 0.98160000 0.19000000 -0.02120000
vn 0.92820000 0.36940000 -0.04400000
vn 0.84100000 0.53690000 -0.06630000
vn 0.72170000 0.68680000 -0.08690000
vn 0.57230000 0.81330000 -0.10500000
vn 0.39760000 0.90980000 -0.11910000
vn 0.20380000 0.97060000 -0.12820000
vn -0.00000000 0.99130000 -0.13130000
vn -0.20380000 0.97060000 -0.12820000
vn -0.39760000 0.90980000 -0.11910000
vn -0.57230000 0.81330000 -0.10500000
vn -0.72170000 0.68680000 -0.08690000
vn -0.84120000 0.53670000 -0.06630000
vn -0.92840000 0.36910000 -0.04400000
vn -0.98360000 0.17220000 -0.05380000
vn -0.99990000 0.00980000 -0.00720000
vn -0.99990000 0.00190000 -0.01100000
vn -0.98810000 -0.06640000 0.13910000
vn -0.94830000 -0.13710000 0.28630000
vn -0.87850000 -0.21130000 0.42840000
vn -0.77590000 -0.29080000 0.55980000
vn -0.64250000 -0.63980000 0.42170000
vn -0.58690000 -0.79550000 0.15080000
vn -0.55610000 -0.83010000 0.04050000
vn -0.55560000 -0.83120000 0.01840000
vn -0.38160000 -0.92420000 0.01390000
vn -0.19400000 -0.98100000 0.00850000
vn -0.09780000 -0.99520000 0.00540000
vn 0.09790000 -0.99520000 0.00540000
vn 0.19430000 -0.98090000 0.00880000
vn 0.38180000 -0.92410000 0.01440000
vn 0.55570000 -0.83120000 0.01880000
vn 0.70820000 -0.70580000 0.01950000
vn 0.83270000 -0.55350000 0.01730000
vn 0.92490000 -0.38000000 0.01290000
vn 0.98130000 -0.19250000 0.00720000
vn 1.00000000 0.00200000 0.00050000
vn 0.98060000 0.19600000 -0.00650000
vn 0.92390000 0.38240000 -0.01370000
vn 0.83190000 0.55450000 -0.02050000
vn 0.70820000 0.70550000 -0.02660000
vn 0.55710000 0.82990000 -0.03180000
vn 0.38390000 0.92270000 -0.03580000
vn 0.19580000 0.97990000 -0.03820000
vn -0.00000000 0.99920000 -0.03900000
vn -0.19580000 0.97990000 -0.03820000
vn -0.38390000 0.92270000 -0.03570000
vn -0.55710000 0.82990000 -0.03180000
vn -0.70820000 0.70550000 -0.02660000
vn -0.83210000 0.55430000 -0.02040000
vn -0.92400000 0.38220000 -0.01360000
vn -0.98160000 0.19000000 -0.02120000
vn -1.00000000 0.00960000 -0.00000000
vn -0.98940000 -0.11110000 0.09390000
vn -0.95280000 -0.23540000 0.19180000
vn -0.88660000 -0.36510000 0.28400000
vn -0.78530000 -0.50060000 0.36430000
vn -0.74410000 -0.64990000 0.15480000
vn -0.71320000 -0.69910000 0.05130000
vn -0.70810000 -0.70590000 0.01920000
vn -0.00000000 -0.00000000 1.00000000
vn -0.00000000 -0.00000000 1.00000000
vn -0.70540000 -0.70880000 0.00380000
vn -0.00000000 -0.00000000 1.00000000
vn -0.00000000 -0.00000000 1.00000000
vn -0.55350000 -0.83280000 0.00290000
vn -0.00000000 -0.00000000 1.00000000
vn -0.00000000 -0.00000000 1.00000000
vn -0.38050000 -0.92480000 0.00050000
vn -0.00000000 -0.00000000 1.00000000
vn -0.00000000 -0.00000000 1.00000000
vn -0.19350000 -0.98110000 -0.00310000
vn -0.00000000 -0.00000000 1.00000000
vn 0.09760000 -0.99520000 -0.00410000
vn -0.09750000 -0.99520000 -0.00400000
vn -0.00000000 -0.00000000 1.00000000
vn 0.19400000 -0.98100000 -0.00370000
vn -0.00000000 -0.00000000 1.00000000
vn 0.38060000 -0.92470000 -0.00040000
vn -0.00000000 -0.00000000 1.00000000
vn 0.55340000 -0.83290000 0.00210000
vn -0.00000000 -0.00000000 1.00000000
vn -0.00000000 -0.00000000 1.00000000
vn 0.70530000 -0.70890000 0.00320000
vn -0.00000000 -0.00000000 1.00000000
vn -0.00000000 -0.00000000 1.00000000
vn 0.83010000 -0.55750000 0.00340000
vn -0.00000000 -0.00000000 1.00000000
vn 0.92330000 -0.38410000 0.00260000
vn -0.00000000 -0.00000000 1.00000000
vn -0.00000000 -0.00000000 1.00000000
vn 0.98070000 -0.19570000 0.00150000
vn -0.00000000 -0.00000000 1.00000000
vn -0.00000000 -0.00000000 1.00000000
vn 1.00000000 0.00050000 -0.00000000
vn -0.00000000 -0.00000000 1.00000000
vn -0.00000000 -0.00000000 1.00000000
vn 0.98050000 0.19660000 -0.00170000
vn -0.00000000 -0.00000000 1.00000000
vn -0.00000000 -0.00000000 1.00000000
vn 0.92290000 0.38490000 -0.00330000
vn -0.00000000 -0.00000000 1.00000000
vn -0.00000000 -0.00000000 1.00000000
vn 0.82980000 0.55800000 -0.00490000
vn -0.00000000 -0.00000000 1.00000000
vn -0.00000000 -0.00000000 1.00000000
vn 0.70510000 0.70910000 -0.00630000
vn -0.00000000 -0.00000000 1.00000000
vn -0.00000000 -0.00000000 1.00000000
vn 0.55340000 0.83290000 -0.00750000
vn -0.00000000 -0.00000000 1.00000000
vn -0.00000000 -0.00000000 1.00000000
vn 0.38080000 0.92460000 -0.00840000
vn -0.00000000 -0.00000000 1.00000000
vn -0.00000000 -0.00000000 1.00000000
vn 0.19400000 0.98100000 -0.00890000
vn -0.00000000 -0.00000000 1.00000000
vn -0.00000000 -0.00000000 1.00000000
vn -0.00000000 1.00000000 -0.00920000
vn -0.00000000 -0.00000000 1.00000000
vn -0.00000000 -0.00000000 1.00000000
vn -0.19400000 0.98100000 -0.00900000
vn -0.00000000 -0.00000000 1.00000000
vn -0.00000000 -0.00000000 1.00000000
vn -0.38080000 0.92460000 -0.00840000
vn -0.00000000 -0.00000000 1.00000000
vn -0.55340000 0.83290000 -0.00750000
vn -0.00000000 -0.00000000 1.00000000
vn -0.00000000 -0.00000000 1.00000000
vn -0.70510000 0.70910000 -0.00640000
vn -0.00000000 -0.00000000 1.00000000
vn -0.00000000 -0.00000000 1.00000000
vn -0.83000000 0.55780000 -0.00490000
vn -0.00000000 -0.00000000 1.00000000
vn -0.92310000 0.38460000 -0.00340000
vn -0.00000000 -0.00000000 1.00000000
vn -0.00000000 -0.00000000 1.00000000
vn -0.98050000 0.19660000 -0.00170000
vn -0.98060000 0.19600000 -0.00650000
vn -1.00000000 0.00400000 0.00100000
vn -0.98650000 -0.15590000 0.05110000
vn -0.94150000 -0.32270000 0.09700000
vn -0.86190000 -0.48910000 0.13370000
vn -0.83890000 -0.54200000 0.04930000
vn -0.83280000 -0.55320000 0.01710000
vn -0.83040000 -0.55720000 0.00370000
vn -0.00000000 -0.00000000 1.00000000
vn -0.00000000 -0.00000000 1.00000000
vn -0.00000000 -0.00000000 1.00000000
vn -0.00000000 -0.00000000 1.00000000
vn -0.00000000 -0.00000000 1.00000000
vn -0.00000000 -0.00000000 1.00000000
vn -0.00000000 -0.00000000 1.00000000
vn -0.00000000 -0.00000000 1.00000000
vn -0.00000000 -0.00000000 1.00000000
vn -0.00000000 -0.00000000 1.00000000
vn -0.00000000 -0.00000000 1.00000000
vn -0.00000000 -0.00000000 1.00000000
vn -0.00000000 -0.00000000 1.00000000
vn -0.00000000 -0.00000000 1.00000000
vn -0.00000000 -0.00000000 1.00000000
vn -0.00000000 -0.00000000 1.00000000
vn -0.00000000 -0.00000000 1.00000000
vn -0.00000000 -0.00000000 1.00000000
vn -0.00000000 -0.00000000 1.00000000
vn -0.00000000 -0.00000000 1.00000000
vn -0.00000000 -0.00000000 1.00000000
vn -0.00000000 -0.00000000 1.00000000
vn -0.00000000 -0.00000000 1.00000000
vn -0.00000000 -0.00000000 1.00000000
vn -0.00000000 -0.00000000 1.00000000
vn -0.00000000 -0.00000000 1.00000000
vn -0.00000000 -0.00000000 1.00000000
vn -0.00000000 -0.00000000 1.00000000
vn -1.00000000 0.00050000 -0.00000000
vn -1.00000000 0.00200000 0.00050000
vn -0.98270000 -0.18380000 0.02130000
vn -0.92920000 -0.36770000 0.03830000
vn -0.92500000 -0.37980000 0.01280000
vn -0.00000000 -0.00000000 1.00000000
vn -0.92340000 -0.38380000 0.00280000
vn -0.00000000 -0.00000000 1.00000000
vn -0.00000000 -0.00000000 1.00000000
vn -0.98070000 -0.19560000 0.00160000
vn -0.98130000 -0.19250000 0.00710000
vt 0.89362600 0.92285900
vt 0.80444500 0.36855600
vt 0.78217200 0.35939500
vt 0.89703900 0.91774000
vt 0.80812700 0.35984400
vt 0.78396900 0.35274900
vt 0.90143900 0.91334000
vt 0.81073200 0.35059400
vt 0.78531600 0.34592400
vt 0.90664800 0.90983700
vt 0.81207900 0.34098400
vt 0.78612400 0.33900800
vt 0.91239600 0.90750200
vt 0.81207900 0.33119500
vt 0.78621400 0.33209300
vt 0.91850300 0.90624500
vt 0.81073200 0.32158500
vt 0.78585500 0.32526700
vt 0.92470000 0.90624500
vt 0.80821700 0.31242500
vt 0.78486700 0.31835200
vt 0.93080700 0.90750200
vt 0.80480400 0.30398200
vt 0.78351900 0.31152700
vt 0.93655500 0.90983700
vt 0.80067300 0.29625900
vt 0.78181300 0.30479100
vt 0.94176400 0.91334000
vt 0.79618300 0.28925400
vt 0.77983700 0.29805500
vt 0.94616400 0.91774000
vt 0.79160200 0.28296700
vt 0.77768200 0.29149900
vt 0.94966700 0.92285900
vt 0.78693200 0.27721900
vt 0.77543700 0.28503300
vt 0.95200200 0.92869700
vt 0.78253100 0.27210000
vt 0.77319100 0.27865600
vt 0.95325900 0.93480400
vt 0.77840000 0.26725000
vt 0.77094600 0.27254900
vt 0.95325900 0.94100100
vt 0.77462800 0.26267000
vt 0.76888000 0.26662200
vt 0.95200200 0.94710800
vt 0.77130500 0.25818000
vt 0.76708400 0.26069400
vt 0.94966700 0.95285600
vt 0.76861100 0.25351000
vt 0.76555800 0.25494700
vt 0.94616400 0.95806500
vt 0.76681500 0.24848000
vt 0.76465900 0.24910900
vt 0.94176400 0.96246600
vt 0.76609600 0.24300200
vt 0.92470000 0.96947100
vt 0.75505000 0.42621300
vt 0.93080700 0.96830300
vt 0.75370300 0.43151200
vt 0.75217600 0.43124200
vt 0.75208600 0.43708000
vt 0.76492900 0.23734400
vt 0.93655500 0.96587800
vt 0.75334300 0.43735000
vt 0.76618600 0.23725400
vt 0.76457000 0.24318100
vt 0.76322300 0.24345100
vt 0.76286300 0.24955800
vt 0.76313300 0.25593500
vt 0.76376100 0.26240100
vt 0.76457000 0.26904700
vt 0.76555800 0.27587200
vt 0.76645600 0.28278800
vt 0.76735400 0.28970300
vt 0.76807200 0.29661800
vt 0.76870100 0.30326400
vt 0.76924000 0.30973000
vt 0.76968900 0.31592700
vt 0.76995800 0.32176500
vt 0.77004800 0.32733300
vt 0.76995800 0.33272200
vt 0.76977900 0.33793100
vt 0.76924000 0.34322900
vt 0.76861100 0.34852800
vt 0.76780300 0.35409600
vt 0.76672500 0.35984400
vt 0.77983700 0.36604100
vt 0.79986500 0.37636900
vt 0.89120100 0.92869700
vt 0.92164600 0.93785800
vt 0.91850300 0.96947100
vt 0.75756400 0.42154300
vt 0.75298400 0.42540500
vt 0.75082900 0.43079300
vt 0.75091900 0.43681100
vt 0.76376100 0.23752300
vt 0.76259400 0.24354100
vt 0.76205500 0.24973800
vt 0.76187500 0.25620400
vt 0.76196500 0.26294000
vt 0.76223500 0.26985500
vt 0.76250400 0.27704000
vt 0.76277300 0.28422500
vt 0.76304300 0.29140900
vt 0.76322300 0.29850400
vt 0.76331200 0.30533000
vt 0.76340200 0.31179600
vt 0.76340200 0.31781300
vt 0.76331200 0.32338100
vt 0.76313300 0.32841100
vt 0.76295300 0.33308100
vt 0.76268400 0.33748100
vt 0.76232400 0.34197200
vt 0.76187500 0.34664200
vt 0.76142600 0.35167100
vt 0.76070800 0.35715000
vt 0.75998900 0.36307700
vt 0.76555800 0.36595100
vt 0.77723300 0.37250700
vt 0.79483500 0.38346400
vt 0.88994400 0.93480400
vt 0.78944700 0.38984000
vt 0.88994400 0.94100100
vt 0.78405800 0.39540900
vt 0.89120100 0.94710800
vt 0.77875900 0.40043800
vt 0.89362600 0.95285600
vt 0.77373000 0.40501800
vt 0.89703900 0.95806500
vt 0.76897000 0.40923900
vt 0.90143900 0.96246600
vt 0.76465900 0.41328100
vt 0.90664800 0.96587800
vt 0.91239600 0.96830300
vt 0.76079800 0.41732200
vt 0.75460100 0.41974700
vt 0.75127800 0.42468600
vt 0.75029000 0.43061400
vt 0.75047000 0.43663100
vt 0.76331200 0.23761300
vt 0.75011000 0.43663100
vt 0.76304300 0.23761300
vt 0.76205500 0.24354100
vt 0.76124700 0.24964800
vt 0.76070800 0.25611400
vt 0.76025900 0.26294000
vt 0.75981000 0.26994500
vt 0.75945000 0.27713000
vt 0.75900100 0.28449400
vt 0.75864200 0.29176800
vt 0.75828300 0.29895300
vt 0.75792400 0.30577900
vt 0.75765400 0.31224500
vt 0.75729500 0.31817200
vt 0.75702600 0.32365100
vt 0.75675600 0.32850100
vt 0.75648700 0.33290100
vt 0.75621700 0.33712200
vt 0.75594800 0.34125300
vt 0.75558900 0.34565400
vt 0.75522900 0.35050400
vt 0.75478000 0.35598200
vt 0.75433100 0.36191000
vt 0.75379300 0.36837600
vt 0.75909100 0.36945400
vt 0.76412100 0.37223800
vt 0.77444900 0.37888400
vt 0.77139500 0.38517000
vt 0.76834200 0.39127700
vt 0.76528800 0.39720500
vt 0.76232400 0.40295300
vt 0.75945000 0.40861000
vt 0.75684600 0.41417900
vt 0.75235600 0.41840000
vt 0.75047000 0.42441700
vt 0.74975100 0.43061400
vt 0.74903300 0.43079300
vt 0.74957200 0.43672100
vt 0.76250400 0.23743400
vt 0.76133700 0.24327100
vt 0.76034900 0.24937800
vt 0.75945000 0.25566500
vt 0.75846300 0.26231100
vt 0.75738500 0.26913600
vt 0.75630700 0.27614200
vt 0.75522900 0.28323700
vt 0.75424200 0.29033200
vt 0.75334300 0.29733700
vt 0.75244500 0.30407200
vt 0.75172700 0.31053900
vt 0.75109800 0.31655600
vt 0.75055900 0.32212400
vt 0.75011000 0.32724300
vt 0.74975100 0.33200300
vt 0.74939200 0.33667300
vt 0.74912200 0.34125300
vt 0.74885300 0.34610300
vt 0.74858300 0.35122200
vt 0.74840400 0.35679100
vt 0.74822400 0.36280800
vt 0.74813400 0.36927400
vt 0.75325400 0.37520100
vt 0.75801300 0.37627900
vt 0.76259400 0.37879400
vt 0.76097700 0.38553000
vt 0.75918100 0.39226500
vt 0.75738500 0.39900100
vt 0.75549900 0.40555700
vt 0.75379300 0.41211300
vt 0.75118800 0.41804100
vt 0.74975100 0.42441700
vt 0.74885300 0.42459700
vt 0.74786500 0.42504600
vt 0.74831400 0.43106300
vt 0.74903300 0.43699000
vt 0.76196500 0.23707400
vt 0.76061800 0.24291200
vt 0.75945000 0.24883900
vt 0.75819300 0.25494700
vt 0.75675600 0.26123300
vt 0.75514000 0.26770000
vt 0.75343300 0.27434500
vt 0.75181700 0.28108100
vt 0.75020000 0.28781700
vt 0.74876300 0.29455300
vt 0.74732600 0.30119800
vt 0.74606900 0.30757500
vt 0.74499100 0.31368200
vt 0.74400300 0.31960900
vt 0.74319500 0.32526700
vt 0.74256600 0.33074600
vt 0.74211700 0.33613400
vt 0.74184800 0.34161300
vt 0.74175800 0.34709100
vt 0.74184800 0.35283900
vt 0.74202700 0.35876600
vt 0.74229700 0.36505300
vt 0.74265600 0.37151900
vt 0.74804500 0.37609900
vt 0.75262500 0.38229600
vt 0.75693600 0.38319500
vt 0.75576800 0.39037900
vt 0.75451100 0.39747400
vt 0.75325400 0.40447900
vt 0.75217600 0.41139500
vt 0.75002100 0.41795100
vt 0.74867300 0.41822000
vt 0.74741600 0.41875900
vt 0.74499100 0.41983700
vt 0.74606900 0.42567400
vt 0.74687700 0.43151200
vt 0.74786500 0.43735000
vt 0.76088700 0.23653600
vt 0.75936100 0.24228300
vt 0.75783400 0.24794100
vt 0.75594800 0.25359900
vt 0.75370300 0.25916800
vt 0.75118800 0.26482600
vt 0.74849400 0.27048400
vt 0.74571000 0.27641100
vt 0.74283600 0.28242800
vt 0.73996200 0.28862500
vt 0.73717800 0.29500200
vt 0.73448300 0.30137800
vt 0.73205900 0.30793400
vt 0.72999300 0.31467000
vt 0.72819700 0.32140600
vt 0.72693900 0.32823100
vt 0.72622100 0.33505700
vt 0.72604100 0.34206200
vt 0.72640100 0.34897700
vt 0.72720900 0.35589200
vt 0.72846600 0.36271800
vt 0.72999300 0.36954300
vt 0.73178900 0.37636900
vt 0.74319500 0.37825500
vt 0.74804500 0.38319500
vt 0.75199600 0.38966100
vt 0.75145700 0.39693500
vt 0.75091900 0.40412000
vt 0.75038000 0.41112500
vt 0.74858300 0.41157400
vt 0.74669800 0.41229300
vt 0.74346400 0.41399900
vt 0.70987600 0.91971600
vt 0.70987600 0.91971600
vt 0.73861500 0.41687300
vt 0.71328800 0.92492500
vt 0.71328800 0.92492500
vt 0.74130900 0.42163300
vt 0.71562300 0.93067300
vt 0.71562300 0.93067300
vt 0.74337500 0.42666200
vt 0.71688100 0.93678000
vt 0.71688100 0.93678000
vt 0.74481200 0.43205100
vt 0.71688100 0.94297700
vt 0.75909100 0.23590700
vt 0.74597900 0.43779900
vt 0.71562300 0.94908400
vt 0.75729500 0.24147500
vt 0.71328800 0.95483200
vt 0.75522900 0.24668400
vt 0.70987600 0.96004100
vt 0.75253500 0.25135400
vt 0.70547500 0.96444100
vt 0.70547500 0.96444100
vt 0.74921200 0.25566500
vt 0.70026600 0.96794400
vt 0.70026600 0.96794400
vt 0.74544000 0.25979600
vt 0.69460800 0.97027900
vt 0.74121900 0.26401700
vt 0.68850100 0.97153600
vt 0.68850100 0.97153600
vt 0.73654900 0.26832800
vt 0.68230400 0.97153600
vt 0.68230400 0.97153600
vt 0.73161000 0.27308800
vt 0.67619700 0.97036900
vt 0.67619700 0.97036900
vt 0.72640100 0.27829700
vt 0.67044900 0.96794400
vt 0.67044900 0.96794400
vt 0.72119200 0.28404500
vt 0.66533000 0.96453100
vt 0.66533000 0.96453100
vt 0.71598300 0.29051100
vt 0.66093000 0.96013000
vt 0.66093000 0.96013000
vt 0.71113300 0.29769600
vt 0.65751700 0.95492100
vt 0.65751700 0.95492100
vt 0.70673200 0.30568900
vt 0.65509200 0.94917400
vt 0.65509200 0.94917400
vt 0.70323000 0.31440000
vt 0.65392400 0.94306700
vt 0.65392400 0.94306700
vt 0.70071500 0.32365100
vt 0.65392400 0.93678000
vt 0.65392400 0.93678000
vt 0.69936800 0.33335000
vt 0.65509200 0.93067300
vt 0.65509200 0.93067300
vt 0.69936800 0.34305000
vt 0.65751700 0.92492500
vt 0.65751700 0.92492500
vt 0.70071500 0.35256900
vt 0.66093000 0.91980600
vt 0.70305000 0.36173000
vt 0.66533000 0.91531600
vt 0.66533000 0.91531600
vt 0.70628300 0.37017200
vt 0.67044900 0.91190300
vt 0.67044900 0.91190300
vt 0.71023500 0.37798600
vt 0.67619700 0.90947800
vt 0.71445600 0.38508100
vt 0.68230400 0.90831000
vt 0.68230400 0.90831000
vt 0.71894600 0.39145700
vt 0.73367500 0.38301500
vt 0.74373400 0.38517000
vt 0.74813400 0.39037900
vt 0.74822400 0.39756400
vt 0.74840400 0.40465900
vt 0.74597900 0.40573700
vt 0.74166800 0.40807200
vt 0.73529200 0.41229300
vt 0.70547500 0.91531600
vt 0.70547500 0.91531600
vt 0.68535800 0.93992300
vt 0.68535800 0.93992300
vt 0.68535800 0.93992300
vt 0.68535800 0.93992300
vt 0.68535800 0.93992300
vt 0.68535800 0.93992300
vt 0.68535800 0.93992300
vt 0.68535800 0.93992300
vt 0.68535800 0.93992300
vt 0.68535800 0.93992300
vt 0.68535800 0.93992300
vt 0.68535800 0.93992300
vt 0.68535800 0.93992300
vt 0.68535800 0.93992300
vt 0.68535800 0.93992300
vt 0.68535800 0.93992300
vt 0.68535800 0.93992300
vt 0.68535800 0.93992300
vt 0.68535800 0.93992300
vt 0.68535800 0.93992300
vt 0.68535800 0.93992300
vt 0.68535800 0.93992300
vt 0.68535800 0.93992300
vt 0.68535800 0.93992300
vt 0.68850100 0.90831000
vt 0.68850100 0.90831000
vt 0.72334700 0.39729400
vt 0.73574100 0.38948100
vt 0.74445200 0.39208600
vt 0.74517100 0.39891100
vt 0.73978200 0.40205400
vt 0.70026600 0.91190300
vt 0.73169900 0.40762300
vt 0.70026600 0.91190300
vt 0.69460800 0.90947800
vt 0.72765800 0.40259300
vt 0.73771700 0.39585800
f 2/2/2 3/3/3 5/5/5
f 3/3/3 6/6/6 5/5/5
f 5/5/5 6/6/6 8/8/8
f 6/6/6 9/9/9 8/8/8
f 8/8/8 9/9/9 11/11/11
f 9/9/9 12/12/12 11/11/11
f 11/11/11 12/12/12 14/14/14
f 12/12/12 15/15/15 14/14/14
f 14/14/14 15/15/15 17/17/17
f 15/15/15 18/18/18 17/17/17
f 17/17/17 18/18/18 20/20/20
f 18/18/18 21/21/21 20/20/20
f 20/20/20 21/21/21 23/23/23
f 21/21/21 24/24/24 23/23/23
f 23/23/23 24/24/24 26/26/26
f 24/24/24 27/27/27 26/26/26
f 26/26/26 27/27/27 29/29/29
f 27/27/27 30/30/30 29/29/29
f 29/29/29 30/30/30 32/32/32
f 30/30/30 33/33/33 32/32/32
f 32/32/32 33/33/33 35/35/35
f 33/33/33 36/36/36 35/35/35
f 35/35/35 36/36/36 38/38/38
f 36/36/36 39/39/39 38/38/38
f 38/38/38 39/39/39 41/41/41
f 39/39/39 42/42/42 41/41/41
f 41/41/41 42/42/42 44/44/44
f 42/42/42 45/45/45 44/44/44
f 44/44/44 45/45/45 47/47/47
f 45/45/45 48/48/48 47/47/47
f 47/47/47 48/48/48 50/50/50
f 48/48/48 51/51/51 50/50/50
f 50/50/50 51/51/51 53/53/53
f 51/51/51 54/54/54 53/53/53
f 53/53/53 54/54/54 56/56/56
f 58/58/58 60/60/60 61/61/61
f 61/61/61 60/60/60 62/62/62
f 60/60/60 65/65/65 62/62/62
f 63/63/63 66/66/66 67/67/67
f 66/66/66 56/56/56 67/67/67
f 56/56/56 54/54/54 67/67/67
f 67/67/67 54/54/54 68/68/68
f 68/68/68 54/54/54 69/69/69
f 54/54/54 51/51/51 69/69/69
f 69/69/69 51/51/51 70/70/70
f 51/51/51 48/48/48 70/70/70
f 70/70/70 48/48/48 71/71/71
f 48/48/48 45/45/45 71/71/71
f 71/71/71 45/45/45 72/72/72
f 45/45/45 42/42/42 72/72/72
f 72/72/72 42/42/42 73/73/73
f 42/42/42 39/39/39 73/73/73
f 73/73/73 39/39/39 74/74/74
f 39/39/39 36/36/36 74/74/74
f 74/74/74 36/36/36 75/75/75
f 36/36/36 33/33/33 75/75/75
f 75/75/75 33/33/33 76/76/76
f 33/33/33 30/30/30 76/76/76
f 76/76/76 30/30/30 77/77/77
f 30/30/30 27/27/27 77/77/77
f 77/77/77 27/27/27 78/78/78
f 27/27/27 24/24/24 78/78/78
f 78/78/78 24/24/24 79/79/79
f 24/24/24 21/21/21 79/79/79
f 79/79/79 21/21/21 80/80/80
f 21/21/21 18/18/18 80/80/80
f 80/80/80 18/18/18 81/81/81
f 18/18/18 15/15/15 81/81/81
f 81/81/81 15/15/15 82/82/82
f 15/15/15 12/12/12 82/82/82
f 82/82/82 12/12/12 83/83/83
f 83/83/83 12/12/12 84/84/84
f 12/12/12 9/9/9 84/84/84
f 84/84/84 9/9/9 85/85/85
f 9/9/9 6/6/6 85/85/85
f 85/85/85 6/6/6 86/86/86
f 6/6/6 3/3/3 86/86/86
f 86/86/86 3/3/3 87/87/87
f 87/87/87 3/3/3 88/88/88
f 3/3/3 2/2/2 88/88/88
f 88/88/88 2/2/2 89/89/89
f 90/90/90 1/1/1 91/91/91
f 1/1/1 4/4/4 91/91/91
f 4/4/4 7/7/7 91/91/91
f 7/7/7 10/10/10 91/91/91
f 10/10/10 13/13/13 91/91/91
f 13/13/13 16/16/16 91/91/91
f 16/16/16 19/19/19 91/91/91
f 19/19/19 22/22/22 91/91/91
f 22/22/22 25/25/25 91/91/91
f 25/25/25 28/28/28 91/91/91
f 28/28/28 31/31/31 91/91/91
f 31/31/31 34/34/34 91/91/91
f 34/34/34 37/37/37 91/91/91
f 37/37/37 40/40/40 91/91/91
f 40/40/40 43/43/43 91/91/91
f 43/43/43 46/46/46 91/91/91
f 46/46/46 49/49/49 91/91/91
f 49/49/49 52/52/52 91/91/91
f 52/52/52 55/55/55 91/91/91
f 55/55/55 64/64/64 91/91/91
f 64/64/64 59/59/59 91/91/91
f 59/59/59 57/57/57 91/91/91
f 91/91/91 57/57/57 92/92/92
f 93/93/93 58/58/58 94/94/94
f 58/58/58 61/61/61 94/94/94
f 94/94/94 61/61/61 95/95/95
f 61/61/61 62/62/62 95/95/95
f 95/95/95 62/62/62 96/96/96
f 63/63/63 67/67/67 97/97/97
f 67/67/67 68/68/68 97/97/97
f 97/97/97 68/68/68 98/98/98
f 68/68/68 69/69/69 98/98/98
f 98/98/98 69/69/69 99/99/99
f 69/69/69 70/70/70 99/99/99
f 99/99/99 70/70/70 100/100/100
f 70/70/70 71/71/71 100/100/100
f 100/100/100 71/71/71 101/101/101
f 71/71/71 72/72/72 101/101/101
f 101/101/101 72/72/72 102/102/102
f 72/72/72 73/73/73 102/102/102
f 102/102/102 73/73/73 103/103/103
f 73/73/73 74/74/74 103/103/103
f 103/103/103 74/74/74 104/104/104
f 74/74/74 75/75/75 104/104/104
f 104/104/104 75/75/75 105/105/105
f 75/75/75 76/76/76 105/105/105
f 105/105/105 76/76/76 106/106/106
f 76/76/76 77/77/77 106/106/106
f 106/106/106 77/77/77 107/107/107
f 77/77/77 78/78/78 107/107/107
f 107/107/107 78/78/78 108/108/108
f 78/78/78 79/79/79 108/108/108
f 108/108/108 79/79/79 109/109/109
f 79/79/79 80/80/80 109/109/109
f 109/109/109 80/80/80 110/110/110
f 80/80/80 81/81/81 110/110/110
f 110/110/110 81/81/81 111/111/111
f 81/81/81 82/82/82 111/111/111
f 111/111/111 82/82/82 112/112/112
f 82/82/82 83/83/83 112/112/112
f 112/112/112 83/83/83 113/113/113
f 113/113/113 83/83/83 114/114/114
f 83/83/83 84/84/84 114/114/114
f 114/114/114 84/84/84 115/115/115
f 84/84/84 85/85/85 115/115/115
f 115/115/115 85/85/85 116/116/116
f 85/85/85 86/86/86 116/116/116
f 116/116/116 86/86/86 117/117/117
f 86/86/86 87/87/87 117/117/117
f 117/117/117 87/87/87 118/118/118
f 118/118/118 87/87/87 119/119/119
f 87/87/87 88/88/88 119/119/119
f 119/119/119 88/88/88 120/120/120
f 88/88/88 89/89/89 120/120/120
f 120/120/120 89/89/89 121/121/121
f 90/90/90 91/91/91 122/122/122
f 122/122/122 91/91/91 124/124/124
f 124/124/124 91/91/91 126/126/126
f 126/126/126 91/91/91 128/128/128
f 128/128/128 91/91/91 130/130/130
f 130/130/130 91/91/91 132/132/132
f 132/132/132 91/91/91 134/134/134
f 134/134/134 91/91/91 135/135/135
f 91/91/91 92/92/92 135/135/135
f 136/136/136 93/93/93 137/137/137
f 93/93/93 94/94/94 137/137/137
f 137/137/137 94/94/94 138/138/138
f 94/94/94 95/95/95 138/138/138
f 138/138/138 95/95/95 139/139/139
f 139/139/139 95/95/95 140/140/140
f 95/95/95 96/96/96 140/140/140
f 97/97/97 98/98/98 141/141/141
f 141/141/141 98/98/98 143/143/143
f 143/143/143 98/98/98 144/144/144
f 98/98/98 99/99/99 144/144/144
f 144/144/144 99/99/99 145/145/145
f 99/99/99 100/100/100 145/145/145
f 145/145/145 100/100/100 146/146/146
f 100/100/100 101/101/101 146/146/146
f 146/146/146 101/101/101 147/147/147
f 101/101/101 102/102/102 147/147/147
f 147/147/147 102/102/102 148/148/148
f 102/102/102 103/103/103 148/148/148
f 148/148/148 103/103/103 149/149/149
f 103/103/103 104/104/104 149/149/149
f 149/149/149 104/104/104 150/150/150
f 104/104/104 105/105/105 150/150/150
f 150/150/150 105/105/105 151/151/151
f 105/105/105 106/106/106 151/151/151
f 151/151/151 106/106/106 152/152/152
f 106/106/106 107/107/107 152/152/152
f 152/152/152 107/107/107 153/153/153
f 107/107/107 108/108/108 153/153/153
f 153/153/153 108/108/108 154/154/154
f 108/108/108 109/109/109 154/154/154
f 154/154/154 109/109/109 155/155/155
f 109/109/109 110/110/110 155/155/155
f 155/155/155 110/110/110 156/156/156
f 110/110/110 111/111/111 156/156/156
f 156/156/156 111/111/111 157/157/157
f 111/111/111 112/112/112 157/157/157
f 157/157/157 112/112/112 158/158/158
f 112/112/112 113/113/113 158/158/158
f 158/158/158 113/113/113 159/159/159
f 159/159/159 113/113/113 160/160/160
f 113/113/113 114/114/114 160/160/160
f 160/160/160 114/114/114 161/161/161
f 114/114/114 115/115/115 161/161/161
f 161/161/161 115/115/115 162/162/162
f 115/115/115 116/116/116 162/162/162
f 162/162/162 116/116/116 163/163/163
f 116/116/116 117/117/117 163/163/163
f 163/163/163 117/117/117 164/164/164
f 117/117/117 118/118/118 164/164/164
f 164/164/164 118/118/118 165/165/165
f 165/165/165 118/118/118 166/166/166
f 118/118/118 119/119/119 166/166/166
f 166/166/166 119/119/119 167/167/167
f 119/119/119 120/120/120 167/167/167
f 167/167/167 120/120/120 168/168/168
f 120/120/120 121/121/121 168/168/168
f 121/121/121 123/123/123 168/168/168
f 168/168/168 123/123/123 169/169/169
f 123/123/123 125/125/125 169/169/169
f 169/169/169 125/125/125 170/170/170
f 125/125/125 127/127/127 170/170/170
f 170/170/170 127/127/127 171/171/171
f 127/127/127 129/129/129 171/171/171
f 171/171/171 129/129/129 172/172/172
f 129/129/129 131/131/131 172/172/172
f 172/172/172 131/131/131 173/173/173
f 131/131/131 133/133/133 173/173/173
f 173/173/173 133/133/133 174/174/174
f 133/133/133 136/136/136 174/174/174
f 136/136/136 137/137/137 174/174/174
f 174/174/174 137/137/137 175/175/175
f 137/137/137 138/138/138 175/175/175
f 175/175/175 138/138/138 176/176/176
f 138/138/138 139/139/139 176/176/176
f 176/176/176 139/139/139 177/177/177
f 139/139/139 140/140/140 177/177/177
f 140/140/140 142/142/142 177/177/177
f 177/177/177 142/142/142 178/178/178
f 178/178/178 142/142/142 179/179/179
f 180/180/180 143/143/143 181/181/181
f 143/143/143 144/144/144 181/181/181
f 181/181/181 144/144/144 182/182/182
f 144/144/144 145/145/145 182/182/182
f 182/182/182 145/145/145 183/183/183
f 145/145/145 146/146/146 183/183/183
f 183/183/183 146/146/146 184/184/184
f 146/146/146 147/147/147 184/184/184
f 184/184/184 147/147/147 185/185/185
f 147/147/147 148/148/148 185/185/185
f 185/185/185 148/148/148 186/186/186
f 148/148/148 149/149/149 186/186/186
f 186/186/186 149/149/149 187/187/187
f 149/149/149 150/150/150 187/187/187
f 187/187/187 150/150/150 188/188/188
f 150/150/150 151/151/151 188/188/188
f 188/188/188 151/151/151 189/189/189
f 151/151/151 152/152/152 189/189/189
f 189/189/189 152/152/152 190/190/190
f 152/152/152 153/153/153 190/190/190
f 190/190/190 153/153/153 191/191/191
f 153/153/153 154/154/154 191/191/191
f 191/191/191 154/154/154 192/192/192
f 154/154/154 155/155/155 192/192/192
f 192/192/192 155/155/155 193/193/193
f 155/155/155 156/156/156 193/193/193
f 193/193/193 156/156/156 194/194/194
f 156/156/156 157/157/157 194/194/194
f 194/194/194 157/157/157 195/195/195
f 157/157/157 158/158/158 195/195/195
f 195/195/195 158/158/158 196/196/196
f 158/158/158 159/159/159 196/196/196
f 159/159/159 160/160/160 196/196/196
f 196/196/196 160/160/160 197/197/197
f 160/160/160 161/161/161 197/197/197
f 197/197/197 161/161/161 198/198/198
f 161/161/161 162/162/162 198/198/198
f 198/198/198 162/162/162 199/199/199
f 162/162/162 163/163/163 199/199/199
f 199/199/199 163/163/163 200/200/200
f 163/163/163 164/164/164 200/200/200
f 200/200/200 164/164/164 201/201/201
f 164/164/164 165/165/165 201/201/201
f 201/201/201 165/165/165 202/202/202
f 202/202/202 165/165/165 203/203/203
f 165/165/165 166/166/166 203/203/203
f 203/203/203 166/166/166 204/204/204
f 166/166/166 167/167/167 204/204/204
f 204/204/204 167/167/167 205/205/205
f 167/167/167 168/168/168 205/205/205
f 168/168/168 169/169/169 205/205/205
f 205/205/205 169/169/169 206/206/206
f 169/169/169 170/170/170 206/206/206
f 206/206/206 170/170/170 207/207/207
f 170/170/170 171/171/171 207/207/207
f 207/207/207 171/171/171 208/208/208
f 171/171/171 172/172/172 208/208/208
f 208/208/208 172/172/172 209/209/209
f 172/172/172 173/173/173 209/209/209
f 209/209/209 173/173/173 210/210/210
f 173/173/173 174/174/174 210/210/210
f 174/174/174 175/175/175 210/210/210
f 210/210/210 175/175/175 211/211/211
f 175/175/175 176/176/176 211/211/211
f 211/211/211 176/176/176 212/212/212
f 176/176/176 177/177/177 212/212/212
f 212/212/212 177/177/177 213/213/213
f 177/177/177 178/178/178 213/213/213
f 213/213/213 178/178/178 214/214/214
f 214/214/214 178/178/178 215/215/215
f 178/178/178 179/179/179 215/215/215
f 215/215/215 179/179/179 216/216/216
f 217/217/217 180/180/180 218/218/218
f 180/180/180 181/181/181 218/218/218
f 218/218/218 181/181/181 219/219/219
f 181/181/181 182/182/182 219/219/219
f 219/219/219 182/182/182 220/220/220
f 182/182/182 183/183/183 220/220/220
f 220/220/220 183/183/183 221/221/221
f 183/183/183 184/184/184 221/221/221
f 221/221/221 184/184/184 222/222/222
f 184/184/184 185/185/185 222/222/222
f 222/222/222 185/185/185 223/223/223
f 185/185/185 186/186/186 223/223/223
f 223/223/223 186/186/186 224/224/224
f 186/186/186 187/187/187 224/224/224
f 224/224/224 187/187/187 225/225/225
f 187/187/187 188/188/188 225/225/225
f 225/225/225 188/188/188 226/226/226
f 188/188/188 189/189/189 226/226/226
f 226/226/226 189/189/189 227/227/227
f 189/189/189 190/190/190 227/227/227
f 227/227/227 190/190/190 228/228/228
f 190/190/190 191/191/191 228/228/228
f 228/228/228 191/191/191 229/229/229
f 191/191/191 192/192/192 229/229/229
f 229/229/229 192/192/192 230/230/230
f 192/192/192 193/193/193 230/230/230
f 230/230/230 193/193/193 231/231/231
f 193/193/193 194/194/194 231/231/231
f 231/231/231 194/194/194 232/232/232
f 194/194/194 195/195/195 232/232/232
f 232/232/232 195/195/195 233/233/233
f 195/195/195 196/196/196 233/233/233
f 196/196/196 197/197/197 233/233/233
f 233/233/233 197/197/197 234/234/234
f 197/197/197 198/198/198 234/234/234
f 234/234/234 198/198/198 235/235/235
f 198/198/198 199/199/199 235/235/235
f 235/235/235 199/199/199 236/236/236
f 199/199/199 200/200/200 236/236/236
f 236/236/236 200/200/200 237/237/237
f 200/200/200 201/201/201 237/237/237
f 237/237/237 201/201/201 238/238/238
f 201/201/201 202/202/202 238/238/238
f 238/238/238 202/202/202 239/239/239
f 239/239/239 202/202/202 240/240/240
f 202/202/202 203/203/203 240/240/240
f 240/240/240 203/203/203 241/241/241
f 203/203/203 204/204/204 241/241/241
f 241/241/241 204/204/204 242/242/242
f 204/204/204 205/205/205 242/242/242
f 205/205/205 206/206/206 242/242/242
f 242/242/242 206/206/206 243/243/243
f 206/206/206 207/207/207 243/243/243
f 243/243/243 207/207/207 244/244/244
f 207/207/207 208/208/208 244/244/244
f 244/244/244 208/208/208 245/245/245
f 208/208/208 209/209/209 245/245/245
f 245/245/245 209/209/209 246/246/246
f 209/209/209 210/210/210 246/246/246
f 210/210/210 211/211/211 246/246/246
f 246/246/246 211/211/211 247/247/247
f 211/211/211 212/212/212 247/247/247
f 247/247/247 212/212/212 248/248/248
f 212/212/212 213/213/213 248/248/248
f 248/248/248 213/213/213 249/249/249
f 213/213/213 214/214/214 249/249/249
f 249/249/249 214/214/214 250/250/250
f 250/250/250 214/214/214 251/251/251
f 214/214/214 215/215/215 251/251/251
f 251/251/251 215/215/215 252/252/252
f 215/215/215 216/216/216 252/252/252
f 252/252/252 216/216/216 253/253/253
f 254/254/254 217/217/217 255/255/255
f 217/217/217 218/218/218 255/255/255
f 255/255/255 218/218/218 256/256/256
f 218/218/218 219/219/219 256/256/256
f 256/256/256 219/219/219 257/257/257
f 219/219/219 220/220/220 257/257/257
f 257/257/257 220/220/220 258/258/258
f 220/220/220 221/221/221 258/258/258
f 258/258/258 221/221/221 259/259/259
f 221/221/221 222/222/222 259/259/259
f 259/259/259 222/222/222 260/260/260
f 222/222/222 223/223/223 260/260/260
f 260/260/260 223/223/223 261/261/261
f 223/223/223 224/224/224 261/261/261
f 261/261/261 224/224/224 262/262/262
f 224/224/224 225/225/225 262/262/262
f 262/262/262 225/225/225 263/263/263
f 225/225/225 226/226/226 263/263/263
f 263/263/263 226/226/226 264/264/264
f 226/226/226 227/227/227 264/264/264
f 264/264/264 227/227/227 265/265/265
f 227/227/227 228/228/228 265/265/265
f 265/265/265 228/228/228 266/266/266
f 228/228/228 229/229/229 266/266/266
f 266/266/266 229/229/229 267/267/267
f 229/229/229 230/230/230 267/267/267
f 267/267/267 230/230/230 268/268/268
f 230/230/230 231/231/231 268/268/268
f 268/268/268 231/231/231 269/269/269
f 231/231/231 232/232/232 269/269/269
f 269/269/269 232/232/232 270/270/270
f 232/232/232 233/233/233 270/270/270
f 233/233/233 234/234/234 270/270/270
f 270/270/270 234/234/234 271/271/271
f 234/234/234 235/235/235 271/271/271
f 271/271/271 235/235/235 272/272/272
f 235/235/235 236/236/236 272/272/272
f 272/272/272 236/236/236 273/273/273
f 236/236/236 237/237/237 273/273/273
f 273/273/273 237/237/237 274/274/274
f 237/237/237 238/238/238 274/274/274
f 274/274/274 238/238/238 275/275/275
f 238/238/238 239/239/239 275/275/275
f 275/275/275 239/239/239 276/276/276
f 276/276/276 239/239/239 277/277/277
f 239/239/239 240/240/240 277/277/277
f 277/277/277 240/240/240 278/278/278
f 240/240/240 241/241/241 278/278/278
f 278/278/278 241/241/241 279/279/279
f 241/241/241 242/242/242 279/279/279
f 242/242/242 243/243/243 279/279/279
f 279/279/279 243/243/243 280/280/280
f 243/243/243 244/244/244 280/280/280
f 280/280/280 244/244/244 281/281/281
f 244/244/244 245/245/245 281/281/281
f 281/281/281 245/245/245 282/282/282
f 245/245/245 246/246/246 282/282/282
f 246/246/246 247/247/247 282/282/282
f 282/282/282 247/247/247 283/283/283
f 247/247/247 248/248/248 283/283/283
f 283/283/283 248/248/248 284/284/284
f 248/248/248 249/249/249 284/284/284
f 284/284/284 249/249/249 285/285/285
f 249/249/249 250/250/250 285/285/285
f 288/288/288 285/285/285 291/291/291
f 285/285/285 250/250/250 291/291/291
f 291/291/291 250/250/250 294/294/294
f 250/250/250 251/251/251 294/294/294
f 294/294/294 251/251/251 297/297/297
f 251/251/251 252/252/252 297/297/297
f 297/297/297 252/252/252 300/300/300
f 252/252/252 253/253/253 300/300/300
f 299/299/299 254/254/254 302/302/302
f 254/254/254 255/255/255 302/302/302
f 302/302/302 255/255/255 304/304/304
f 255/255/255 256/256/256 304/304/304
f 304/304/304 256/256/256 306/306/306
f 256/256/256 257/257/257 306/306/306
f 306/306/306 257/257/257 309/309/309
f 257/257/257 258/258/258 309/309/309
f 309/309/309 258/258/258 312/312/312
f 258/258/258 259/259/259 312/312/312
f 312/312/312 259/259/259 314/314/314
f 259/259/259 260/260/260 314/314/314
f 314/314/314 260/260/260 317/317/317
f 260/260/260 261/261/261 317/317/317
f 317/317/317 261/261/261 320/320/320
f 261/261/261 262/262/262 320/320/320
f 320/320/320 262/262/262 323/323/323
f 262/262/262 263/263/263 323/323/323
f 323/323/323 263/263/263 326/326/326
f 263/263/263 264/264/264 326/326/326
f 326/326/326 264/264/264 329/329/329
f 264/264/264 265/265/265 329/329/329
f 329/329/329 265/265/265 332/332/332
f 265/265/265 266/266/266 332/332/332
f 332/332/332 266/266/266 335/335/335
f 266/266/266 267/267/267 335/335/335
f 335/335/335 267/267/267 338/338/338
f 267/267/267 268/268/268 338/338/338
f 338/338/338 268/268/268 341/341/341
f 268/268/268 269/269/269 341/341/341
f 341/341/341 269/269/269 344/344/344
f 269/269/269 270/270/270 344/344/344
f 344/344/344 270/270/270 347/347/347
f 270/270/270 271/271/271 347/347/347
f 347/347/347 271/271/271 350/350/350
f 271/271/271 272/272/272 350/350/350
f 350/350/350 272/272/272 352/352/352
f 272/272/272 273/273/273 352/352/352
f 352/352/352 273/273/273 355/355/355
f 273/273/273 274/274/274 355/355/355
f 355/355/355 274/274/274 358/358/358
f 274/274/274 275/275/275 358/358/358
f 358/358/358 275/275/275 360/360/360
f 275/275/275 276/276/276 360/360/360
f 360/360/360 276/276/276 363/363/363
f 363/363/363 276/276/276 364/364/364
f 276/276/276 277/277/277 364/364/364
f 364/364/364 277/277/277 365/365/365
f 277/277/277 278/278/278 365/365/365
f 365/365/365 278/278/278 366/366/366
f 278/278/278 279/279/279 366/366/366
f 279/279/279 280/280/280 366/366/366
f 366/366/366 280/280/280 367/367/367
f 280/280/280 281/281/281 367/367/367
f 367/367/367 281/281/281 368/368/368
f 281/281/281 282/282/282 368/368/368
f 282/282/282 283/283/283 368/368/368
f 368/368/368 283/283/283 369/369/369
f 283/283/283 284/284/284 369/369/369
f 369/369/369 284/284/284 370/370/370
f 284/284/284 285/285/285 370/370/370
f 285/285/285 288/288/288 370/370/370
f 370/370/370 288/288/288 371/371/371
f 373/373/373 286/286/286 394/394/394
f 287/287/287 289/289/289 393/393/393
f 290/290/290 292/292/292 392/392/392
f 293/293/293 295/295/295 391/391/391
f 296/296/296 298/298/298 390/390/390
f 298/298/298 301/301/301 390/390/390
f 301/301/301 303/303/303 390/390/390
f 303/303/303 305/305/305 390/390/390
f 305/305/305 307/307/307 390/390/390
f 308/308/308 310/310/310 389/389/389
f 311/311/311 313/313/313 388/388/388
f 313/313/313 315/315/315 388/388/388
f 316/316/316 318/318/318 387/387/387
f 319/319/319 321/321/321 386/386/386
f 322/322/322 324/324/324 385/385/385
f 325/325/325 327/327/327 384/384/384
f 328/328/328 330/330/330 383/383/383
f 331/331/331 333/333/333 382/382/382
f 334/334/334 336/336/336 381/381/381
f 337/337/337 339/339/339 380/380/380
f 340/340/340 342/342/342 379/379/379
f 343/343/343 345/345/345 378/378/378
f 346/346/346 348/348/348 377/377/377
f 349/349/349 351/351/351 376/376/376
f 351/351/351 353/353/353 376/376/376
f 354/354/354 356/356/356 375/375/375
f 357/357/357 359/359/359 374/374/374
f 359/359/359 361/361/361 374/374/374
f 397/397/397 362/362/362 398/398/398
f 363/363/363 364/364/364 400/400/400
f 400/400/400 364/364/364 401/401/401
f 364/364/364 365/365/365 401/401/401
f 401/401/401 365/365/365 402/402/402
f 365/365/365 366/366/366 402/402/402
f 366/366/366 367/367/367 402/402/402
f 402/402/402 367/367/367 403/403/403
f 367/367/367 368/368/368 403/403/403
f 368/368/368 369/369/369 403/403/403
f 403/403/403 369/369/369 404/404/404
f 369/369/369 370/370/370 404/404/404
f 370/370/370 371/371/371 404/404/404
f 404/404/404 371/371/371 406/406/406
f 372/372/372 395/395/395 405/405/405
f 407/407/407 396/396/396 408/408/408
f 396/396/396 399/399/399 408/408/408
f 400/400/400 401/401/401 409/409/409
f 409/409/409 401/401/401 410/410/410
f 401/401/401 402/402/402 410/410/410
f 402/402/402 403/403/403 410/410/410
f 403/403/403 404/404/404 410/410/410
f 404/404/404 406/406/406 410/410/410
f 409/409/409 410/410/410 406/406/406

