mtllib material.mtl
usemtl Rubber_Black_003
v 0.00880300 0.00614200 0.05310000
v 0.00880300 0.00614200 0.05310000
v 0.00000300 0.05016700 0.05310000
v 0.01726200 0.00869700 0.05310000
v 0.01726200 0.00869700 0.05310000
v 0.02506100 0.01284400 0.05310000
v 0.02506100 0.01284400 0.05310000
v 0.03190100 0.01842900 0.05310000
v 0.03190100 0.01842900 0.05310000
v 0.03750700 0.02523000 0.05310000
v 0.03750700 0.02523000 0.05310000
v 0.04167600 0.03299000 0.05310000
v 0.04167600 0.03299000 0.05310000
v 0.04424800 0.04141000 0.05310000
v 0.04424800 0.04141000 0.05310000
v 0.04511200 0.05016700 0.05310000
v 0.04511200 0.05016700 0.05310000
v 0.04424800 0.05892300 0.05310000
v 0.04424800 0.05892300 0.05310000
v 0.04167600 0.06734400 0.05310000
v 0.04167600 0.06734400 0.05310000
v 0.03750700 0.07510400 0.05310000
v 0.03750700 0.07510400 0.05310000
v 0.03190100 0.08190500 0.05310000
v 0.03190100 0.08190500 0.05310000
v 0.02506100 0.08748900 0.05310000
v 0.02506100 0.08748900 0.05310000
v 0.01726200 0.09163600 0.05310000
v 0.01726200 0.09163600 0.05310000
v 0.00880300 0.09419200 0.05310000
v 0.00880300 0.09419200 0.05310000
v 0.00000300 0.09505600 0.05310000
v 0.00000300 0.09505600 0.05310000
v -0.00880300 0.09419200 0.05310000
v -0.00880300 0.09419200 0.05310000
v -0.01726200 0.09163600 0.05310000
v -0.01726200 0.09163600 0.05310000
v -0.02506100 0.08748900 0.05310000
v -0.02506100 0.08748900 0.05310000
v -0.03190100 0.08190500 0.05310000
v -0.03190100 0.08190500 0.05310000
v -0.03750700 0.07510400 0.05310000
v -0.03750700 0.07510400 0.05310000
v -0.04167600 0.06734400 0.05310000
v -0.04167600 0.06734400 0.05310000
v -0.04424800 0.05892300 0.05310000
v -0.04424800 0.05892300 0.05310000
v -0.04511300 0.05016700 0.05310000
v -0.04511300 0.05016700 0.05310000
v -0.04424800 0.04141000 0.05310000
v -0.04424800 0.04141000 0.05310000
v -0.04167600 0.03299000 0.05310000
v -0.04167600 0.03299000 0.05310000
v -0.03750700 0.02523000 0.05310000
v -0.03750700 0.02523000 0.05310000
v -0.03190100 0.01842900 0.05310000
v -0.03190100 0.01842900 0.05310000
v -0.02506100 0.01284400 0.05310000
v -0.02506100 0.01284400 0.05310000
v -0.01726200 0.00869700 0.05310000
v -0.01726200 0.00869700 0.05310000
v -0.00880300 0.00614200 0.05310000
v -0.00880300 0.00614200 0.05310000
v 0.00000300 0.00527800 0.05310000
v 0.00000300 0.00527800 0.05310000
v 0.00000300 0.00527800 0.05310000
v 0.00878100 0.00603200 0.07195100
v 0.00878100 0.00603200 0.07195100
v 0.01721800 0.00859300 0.07195100
v 0.01721800 0.00859300 0.07195100
v 0.02500000 0.01275100 0.07195100
v 0.02500000 0.01275100 0.07195100
v 0.03181800 0.01834600 0.07195100
v 0.03181800 0.01834600 0.07195100
v 0.03741300 0.02516400 0.07195100
v 0.03741300 0.02516400 0.07195100
v 0.04157700 0.03294600 0.07195100
v 0.04157700 0.03294600 0.07195100
v 0.04413800 0.04138800 0.07195100
v 0.04413800 0.04138800 0.07195100
v 0.04500200 0.05016700 0.07195100
v 0.04500200 0.05016700 0.07195100
v 0.04413800 0.05894500 0.07195100
v 0.04413800 0.05894500 0.07195100
v 0.04157700 0.06738800 0.07195100
v 0.04157700 0.06738800 0.07195100
v 0.03741300 0.07517000 0.07195100
v 0.03741300 0.07517000 0.07195100
v 0.03181800 0.08198800 0.07195100
v 0.03181800 0.08198800 0.07195100
v 0.02500000 0.08758300 0.07195100
v 0.02500000 0.08758300 0.07195100
v 0.01721800 0.09174100 0.07195100
v 0.01721800 0.09174100 0.07195100
v 0.00878100 0.09430200 0.07195100
v 0.00878100 0.09430200 0.07195100
v -0.00000300 0.09516600 0.07195100
v -0.00000300 0.09516600 0.07195100
v -0.00878100 0.09430200 0.07195100
v -0.00878100 0.09430200 0.07195100
v -0.01721800 0.09174100 0.07195100
v -0.01721800 0.09174100 0.07195100
v -0.02500000 0.08758300 0.07195100
v -0.02500000 0.08758300 0.07195100
v -0.03181800 0.08198800 0.07195100
v -0.03181800 0.08198800 0.07195100
v -0.03741300 0.07517000 0.07195100
v -0.03741300 0.07517000 0.07195100
v -0.04157700 0.06738800 0.07195100
v -0.04157700 0.06738800 0.07195100
v -0.04413800 0.05894500 0.07195100
v -0.04413800 0.05894500 0.07195100
v -0.04500200 0.05016700 0.07195100
v -0.04500200 0.05016700 0.07195100
v -0.04413800 0.04138800 0.07195100
v -0.04413800 0.04138800 0.07195100
v -0.04157700 0.03294600 0.07195100
v -0.04157700 0.03294600 0.07195100
v -0.03741300 0.02516400 0.07195100
v -0.03741300 0.02516400 0.07195100
v -0.03181800 0.01834600 0.07195100
v -0.03181800 0.01834600 0.07195100
v -0.02500000 0.01275100 0.07195100
v -0.02500000 0.01275100 0.07195100
v -0.01721800 0.00859300 0.07195100
v -0.01721800 0.00859300 0.07195100
v -0.00878100 0.00603200 0.07195100
v -0.00878100 0.00603200 0.07195100
v 0.00000300 0.00516700 0.07195100
v 0.00000300 0.00516700 0.07195100
v 0.00000300 0.00516700 0.07195100
v 0.00000300 0.05016700 0.07195100
vn 0.19470000 -0.98080000 -0.00530000
vn -0.00000000 -0.00000000 -1.00000000
vn -0.00000000 -0.00000000 -1.00000000
vn 0.38170000 -0.92430000 -0.00390000
vn -0.00000000 -0.00000000 -1.00000000
vn 0.55420000 -0.83240000 -0.00190000
vn -0.00000000 -0.00000000 -1.00000000
vn 0.70590000 -0.70830000 0.00040000
vn -0.00000000 -0.00000000 -1.00000000
vn 0.83060000 -0.55690000 0.00250000
vn -0.00000000 -0.00000000 -1.00000000
vn 0.92330000 -0.38410000 0.00430000
vn -0.00000000 -0.00000000 -1.00000000
vn 0.98060000 -0.19600000 0.00550000
vn -0.00000000 -0.00000000 -1.00000000
vn 1.00000000 -0.00000000 0.00580000
vn -0.00000000 -0.00000000 -1.00000000
vn 0.98060000 0.19570000 0.00520000
vn -0.00000000 -0.00000000 -1.00000000
vn 0.92330000 0.38410000 0.00370000
vn -0.00000000 -0.00000000 -1.00000000
vn 0.83060000 0.55680000 0.00180000
vn -0.00000000 -0.00000000 -1.00000000
vn 0.70600000 0.70820000 -0.00040000
vn -0.00000000 -0.00000000 -1.00000000
vn 0.55410000 0.83240000 -0.00270000
vn -0.00000000 -0.00000000 -1.00000000
vn 0.38160000 0.92430000 -0.00450000
vn -0.00000000 -0.00000000 -1.00000000
vn 0.19460000 0.98090000 -0.00550000
vn -0.00000000 -0.00000000 -1.00000000
vn -0.00000000 1.00000000 -0.00580000
vn -0.00000000 -0.00000000 -1.00000000
vn -0.19470000 0.98080000 -0.00530000
vn -0.00000000 -0.00000000 -1.00000000
vn -0.38170000 0.92430000 -0.00390000
vn -0.00000000 -0.00000000 -1.00000000
vn -0.55420000 0.83240000 -0.00190000
vn -0.00000000 -0.00000000 -1.00000000
vn -0.70590000 0.70830000 0.00040000
vn -0.00000000 -0.00000000 -1.00000000
vn -0.83060000 0.55690000 0.00250000
vn -0.00000000 -0.00000000 -1.00000000
vn -0.92330000 0.38410000 0.00430000
vn -0.00000000 -0.00000000 -1.00000000
vn -0.98060000 0.19600000 0.00550000
vn -0.00000000 -0.00000000 -1.00000000
vn -1.00000000 -0.00000000 0.00580000
vn -0.00000000 -0.00000000 -1.00000000
vn -0.98060000 -0.19570000 0.00520000
vn -0.00000000 -0.00000000 -1.00000000
vn -0.92330000 -0.38410000 0.00370000
vn -0.00000000 -0.00000000 -1.00000000
vn -0.83060000 -0.55680000 0.00180000
vn -0.00000000 -0.00000000 -1.00000000
vn -0.70600000 -0.70820000 -0.00040000
vn -0.00000000 -0.00000000 -1.00000000
vn -0.55410000 -0.83240000 -0.00270000
vn -0.00000000 -0.00000000 -1.00000000
vn -0.38160000 -0.92430000 -0.00450000
vn -0.00000000 -0.00000000 -1.00000000
vn -0.19450000 -0.98090000 -0.00550000
vn -0.00000000 -0.00000000 -1.00000000
vn -0.00000000 -0.00000000 -1.00000000
vn -0.09770000 -0.99520000 -0.00580000
vn 0.09780000 -0.99520000 -0.00570000
vn -0.00000000 -0.00000000 1.00000000
vn 0.19500000 -0.98080000 -0.00550000
vn -0.00000000 -0.00000000 1.00000000
vn 0.38230000 -0.92400000 -0.00450000
vn -0.00000000 -0.00000000 1.00000000
vn 0.55500000 -0.83180000 -0.00270000
vn -0.00000000 -0.00000000 1.00000000
vn 0.70660000 -0.70760000 -0.00040000
vn -0.00000000 -0.00000000 1.00000000
vn 0.83100000 -0.55630000 0.00180000
vn -0.00000000 -0.00000000 1.00000000
vn 0.92360000 -0.38330000 0.00370000
vn -0.00000000 -0.00000000 1.00000000
vn 0.98070000 -0.19550000 0.00520000
vn -0.00000000 -0.00000000 1.00000000
vn 1.00000000 -0.00000000 0.00580000
vn -0.00000000 -0.00000000 1.00000000
vn 0.98070000 0.19530000 0.00550000
vn -0.00000000 -0.00000000 1.00000000
vn 0.92360000 0.38340000 0.00430000
vn -0.00000000 -0.00000000 1.00000000
vn 0.83100000 0.55620000 0.00250000
vn -0.00000000 -0.00000000 1.00000000
vn 0.70660000 0.70760000 0.00040000
vn -0.00000000 -0.00000000 1.00000000
vn 0.55490000 0.83190000 -0.00190000
vn -0.00000000 -0.00000000 1.00000000
vn 0.38220000 0.92410000 -0.00390000
vn -0.00000000 -0.00000000 1.00000000
vn 0.19480000 0.98080000 -0.00530000
vn -0.00000000 -0.00000000 1.00000000
vn -0.00010000 1.00000000 -0.00580000
vn -0.00000000 -0.00000000 1.00000000
vn -0.19500000 0.98080000 -0.00560000
vn -0.00000000 -0.00000000 1.00000000
vn -0.38230000 0.92400000 -0.00450000
vn -0.00000000 -0.00000000 1.00000000
vn -0.55500000 0.83180000 -0.00270000
vn -0.00000000 -0.00000000 1.00000000
vn -0.70660000 0.70760000 -0.00040000
vn -0.00000000 -0.00000000 1.00000000
vn -0.83100000 0.55630000 0.00180000
vn -0.00000000 -0.00000000 1.00000000
vn -0.92360000 0.38330000 0.00370000
vn -0.00000000 -0.00000000 1.00000000
vn -0.98070000 0.19550000 0.00520000
vn -0.00000000 -0.00000000 1.00000000
vn -1.00000000 -0.00000000 0.00580000
vn -0.00000000 -0.00000000 1.00000000
vn -0.98070000 -0.19530000 0.00550000
vn -0.00000000 -0.00000000 1.00000000
vn -0.92360000 -0.38330000 0.00430000
vn -0.00000000 -0.00000000 1.00000000
vn -0.83100000 -0.55620000 0.00250000
vn -0.00000000 -0.00000000 1.00000000
vn -0.70660000 -0.70760000 0.00040000
vn -0.00000000 -0.00000000 1.00000000
vn -0.55490000 -0.83190000 -0.00190000
vn -0.00000000 -0.00000000 1.00000000
vn -0.38220000 -0.92410000 -0.00390000
vn -0.00000000 -0.00000000 1.00000000
vn -0.19480000 -0.98080000 -0.00530000
vn 0.09800000 -0.99520000 -0.00580000
vn -0.09790000 -0.99520000 -0.00570000
vn -0.00000000 -0.00000000 1.00000000
vn -0.00000000 -0.00000000 1.00000000
vt 0.68027800 0.63626200
vt 0.00313500 0.36101400
vt 0.03344600 0.35181100
vt 0.68027800 0.63001400
vt 0.00549900 0.36675600
vt 0.68027800 0.62376600
vt 0.00896100 0.37190600
vt 0.68027800 0.61760300
vt 0.01335100 0.37638100
vt 0.68027800 0.61135500
vt 0.01850200 0.37984300
vt 0.68027800 0.60510700
vt 0.02424300 0.38220700
vt 0.68027800 0.59894300
vt 0.03032200 0.38338900
vt 0.68027800 0.59269500
vt 0.03648600 0.38347300
vt 0.68027800 0.58653200
vt 0.04256500 0.38220700
vt 0.68027800 0.58028400
vt 0.04830600 0.37984300
vt 0.68027800 0.57412000
vt 0.05345700 0.37638100
vt 0.68027800 0.56787200
vt 0.05784700 0.37199100
vt 0.68027800 0.56170900
vt 0.06130900 0.36684000
vt 0.68027800 0.55546100
vt 0.06367300 0.36109900
vt 0.68027800 0.54921300
vt 0.06493900 0.35493500
vt 0.68027800 0.54304900
vt 0.06493900 0.34868700
vt 0.68027800 0.53680200
vt 0.06367300 0.34260800
vt 0.68027800 0.53055400
vt 0.06130900 0.33686700
vt 0.68027800 0.52439000
vt 0.05784700 0.33163200
vt 0.68027800 0.51814200
vt 0.05345700 0.32724200
vt 0.68027800 0.51189400
vt 0.04830600 0.32378000
vt 0.68027800 0.50573100
vt 0.04256500 0.32141600
vt 0.68027800 0.49948300
vt 0.03648600 0.32014900
vt 0.68027800 0.49331900
vt 0.03032200 0.32014900
vt 0.68027800 0.48707100
vt 0.02424300 0.32141600
vt 0.68027800 0.48090800
vt 0.01850200 0.32378000
vt 0.68027800 0.47466000
vt 0.01335100 0.32724200
vt 0.68027800 0.46849600
vt 0.00896100 0.33163200
vt 0.68027800 0.46224800
vt 0.00549900 0.33678200
vt 0.68027800 0.45600000
vt 0.00313500 0.34252400
vt 0.68027800 0.44983700
vt 0.00195300 0.34868700
vt 0.00195300 0.35485100
vt 0.68027800 0.44358900
vt 0.68027800 0.64242600
vt 0.32026100 0.94975800
vt 0.69353400 0.63626200
vt 0.32372300 0.94460700
vt 0.69353400 0.63001400
vt 0.32811300 0.94021700
vt 0.69353400 0.62376600
vt 0.33326400 0.93675500
vt 0.69353400 0.61760300
vt 0.33900500 0.93439100
vt 0.69353400 0.61135500
vt 0.34516900 0.93320900
vt 0.69353400 0.60510700
vt 0.35133200 0.93320900
vt 0.69353400 0.59894300
vt 0.35741100 0.93439100
vt 0.69353400 0.59269500
vt 0.36315300 0.93675500
vt 0.69353400 0.58653200
vt 0.36838700 0.94021700
vt 0.69353400 0.58028400
vt 0.37277800 0.94460700
vt 0.69353400 0.57412000
vt 0.37623900 0.94975800
vt 0.69353400 0.56787200
vt 0.37860400 0.95549900
vt 0.69353400 0.56170900
vt 0.37978600 0.96166200
vt 0.69353400 0.55546100
vt 0.37978600 0.96782600
vt 0.69353400 0.54921300
vt 0.37860400 0.97390500
vt 0.69353400 0.54304900
vt 0.37623900 0.97964600
vt 0.69353400 0.53680200
vt 0.37277800 0.98488100
vt 0.69353400 0.53055400
vt 0.36838700 0.98927200
vt 0.69353400 0.52439000
vt 0.36315300 0.99264900
vt 0.69353400 0.51814200
vt 0.35741100 0.99509800
vt 0.69353400 0.51189400
vt 0.35133200 0.99628000
vt 0.69353400 0.50573100
vt 0.34516900 0.99628000
vt 0.69353400 0.49948300
vt 0.33900500 0.99509800
vt 0.69353400 0.49331900
vt 0.33326400 0.99264900
vt 0.69353400 0.48707100
vt 0.32811300 0.98927200
vt 0.69353400 0.48090800
vt 0.32372300 0.98488100
vt 0.69353400 0.47466000
vt 0.32026100 0.97964600
vt 0.69353400 0.46849600
vt 0.31789700 0.97390500
vt 0.69353400 0.46224800
vt 0.31671500 0.96782600
vt 0.69353400 0.45600000
vt 0.31671500 0.96166200
vt 0.69353400 0.44983700
vt 0.69353400 0.64242600
vt 0.69353400 0.44358900
vt 0.31789700 0.95549900
vt 0.34820800 0.96470200
f 2/2/2 3/3/3 5/5/5
f 5/5/5 3/3/3 7/7/7
f 7/7/7 3/3/3 9/9/9
f 9/9/9 3/3/3 11/11/11
f 11/11/11 3/3/3 13/13/13
f 13/13/13 3/3/3 15/15/15
f 15/15/15 3/3/3 17/17/17
f 17/17/17 3/3/3 19/19/19
f 19/19/19 3/3/3 21/21/21
f 21/21/21 3/3/3 23/23/23
f 23/23/23 3/3/3 25/25/25
f 25/25/25 3/3/3 27/27/27
f 27/27/27 3/3/3 29/29/29
f 29/29/29 3/3/3 31/31/31
f 31/31/31 3/3/3 33/33/33
f 33/33/33 3/3/3 35/35/35
f 35/35/35 3/3/3 37/37/37
f 37/37/37 3/3/3 39/39/39
f 39/39/39 3/3/3 41/41/41
f 41/41/41 3/3/3 43/43/43
f 43/43/43 3/3/3 45/45/45
f 45/45/45 3/3/3 47/47/47
f 47/47/47 3/3/3 49/49/49
f 49/49/49 3/3/3 51/51/51
f 51/51/51 3/3/3 53/53/53
f 53/53/53 3/3/3 55/55/55
f 55/55/55 3/3/3 57/57/57
f 57/57/57 3/3/3 59/59/59
f 59/59/59 3/3/3 61/61/61
f 61/61/61 3/3/3 63/63/63
f 63/63/63 3/3/3 64/64/64
f 3/3/3 2/2/2 64/64/64
f 66/66/66 1/1/1 68/68/68
f 68/68/68 1/1/1 70/70/70
f 1/1/1 4/4/4 70/70/70
f 70/70/70 4/4/4 72/72/72
f 4/4/4 6/6/6 72/72/72
f 72/72/72 6/6/6 74/74/74
f 6/6/6 8/8/8 74/74/74
f 74/74/74 8/8/8 76/76/76
f 8/8/8 10/10/10 76/76/76
f 76/76/76 10/10/10 78/78/78
f 10/10/10 12/12/12 78/78/78
f 78/78/78 12/12/12 80/80/80
f 12/12/12 14/14/14 80/80/80
f 80/80/80 14/14/14 82/82/82
f 14/14/14 16/16/16 82/82/82
f 82/82/82 16/16/16 84/84/84
f 16/16/16 18/18/18 84/84/84
f 84/84/84 18/18/18 86/86/86
f 18/18/18 20/20/20 86/86/86
f 86/86/86 20/20/20 88/88/88
f 20/20/20 22/22/22 88/88/88
f 88/88/88 22/22/22 90/90/90
f 22/22/22 24/24/24 90/90/90
f 90/90/90 24/24/24 92/92/92
f 24/24/24 26/26/26 92/92/92
f 92/92/92 26/26/26 94/94/94
f 26/26/26 28/28/28 94/94/94
f 94/94/94 28/28/28 96/96/96
f 28/28/28 30/30/30 96/96/96
f 96/96/96 30/30/30 98/98/98
f 30/30/30 32/32/32 98/98/98
f 98/98/98 32/32/32 100/100/100
f 32/32/32 34/34/34 100/100/100
f 100/100/100 34/34/34 102/102/102
f 34/34/34 36/36/36 102/102/102
f 102/102/102 36/36/36 104/104/104
f 36/36/36 38/38/38 104/104/104
f 104/104/104 38/38/38 106/106/106
f 38/38/38 40/40/40 106/106/106
f 106/106/106 40/40/40 108/108/108
f 40/40/40 42/42/42 108/108/108
f 108/108/108 42/42/42 110/110/110
f 42/42/42 44/44/44 110/110/110
f 110/110/110 44/44/44 112/112/112
f 44/44/44 46/46/46 112/112/112
f 112/112/112 46/46/46 114/114/114
f 46/46/46 48/48/48 114/114/114
f 114/114/114 48/48/48 116/116/116
f 48/48/48 50/50/50 116/116/116
f 116/116/116 50/50/50 118/118/118
f 50/50/50 52/52/52 118/118/118
f 118/118/118 52/52/52 120/120/120
f 52/52/52 54/54/54 120/120/120
f 120/120/120 54/54/54 122/122/122
f 54/54/54 56/56/56 122/122/122
f 122/122/122 56/56/56 124/124/124
f 56/56/56 58/58/58 124/124/124
f 124/124/124 58/58/58 126/126/126
f 58/58/58 60/60/60 126/126/126
f 126/126/126 60/60/60 128/128/128
f 60/60/60 62/62/62 128/128/128
f 128/128/128 62/62/62 130/130/130
f 62/62/62 65/65/65 130/130/130
f 66/66/66 68/68/68 129/129/129
f 131/131/131 67/67/67 132/132/132
f 67/67/67 69/69/69 132/132/132
f 69/69/69 71/71/71 132/132/132
f 71/71/71 73/73/73 132/132/132
f 73/73/73 75/75/75 132/132/132
f 75/75/75 77/77/77 132/132/132
f 77/77/77 79/79/79 132/132/132
f 79/79/79 81/81/81 132/132/132
f 81/81/81 83/83/83 132/132/132
f 83/83/83 85/85/85 132/132/132
f 85/85/85 87/87/87 132/132/132
f 87/87/87 89/89/89 132/132/132
f 89/89/89 91/91/91 132/132/132
f 91/91/91 93/93/93 132/132/132
f 93/93/93 95/95/95 132/132/132
f 95/95/95 97/97/97 132/132/132
f 97/97/97 99/99/99 132/132/132
f 99/99/99 101/101/101 132/132/132
f 101/101/101 103/103/103 132/132/132
f 103/103/103 105/105/105 132/132/132
f 105/105/105 107/107/107 132/132/132
f 107/107/107 109/109/109 132/132/132
f 109/109/109 111/111/111 132/132/132
f 111/111/111 113/113/113 132/132/132
f 113/113/113 115/115/115 132/132/132
f 115/115/115 117/117/117 132/132/132
f 117/117/117 119/119/119 132/132/132
f 119/119/119 121/121/121 132/132/132
f 121/121/121 123/123/123 132/132/132
f 123/123/123 125/125/125 132/132/132
f 125/125/125 127/127/127 132/132/132
f 131/131/131 132/132/132 127/127/127

