mtllib material.mtl
usemtl Plastic_Blue_001
v 0.00713800 0.09042600 -0.02996000
v -0.00000100 0.09092000 -0.03059100
v 0.00678500 0.09264800 -0.02468100
v -0.00000100 0.09311400 -0.02519500
v 0.00627200 0.09430100 -0.01895500
v -0.00000100 0.09470100 -0.01945000
v -0.00000100 0.09575600 -0.01355900
v 0.00555100 0.09542200 -0.01309300
v -0.00000100 0.09649500 -0.00768700
v 0.00462300 0.09624600 -0.00732500
v 0.00358700 0.09677300 -0.00174000
v -0.00000100 0.09695200 -0.00196600
v 0.00266400 0.09710300 0.00265300
v -0.00000100 0.09721600 0.00240400
v 0.00201000 0.09731000 0.00541800
v -0.00000100 0.09741800 0.00575700
v -0.00201100 0.09731000 0.00541800
v -0.00266600 0.09710300 0.00265300
v -0.00358900 0.09677300 -0.00174000
v -0.00462500 0.09624600 -0.00732500
v -0.00555200 0.09542200 -0.01309300
v -0.00627300 0.09430100 -0.01895500
v -0.00678100 0.09264800 -0.02468100
v -0.00713500 0.09042600 -0.02996000
v -0.00000100 0.08784500 -0.03528600
v 0.00739200 0.08746400 -0.03465500
v 0.01485100 0.08258500 -0.03636900
v 0.01448800 0.08630500 -0.03261100
v 0.01393800 0.08930500 -0.02820400
v 0.01316100 0.09155100 -0.02317000
v 0.01205900 0.09331200 -0.01756200
v 0.01059900 0.09462100 -0.01191100
v 0.00870100 0.09572300 -0.00629800
v 0.00654500 0.09648100 -0.00070900
v 0.00461400 0.09699900 0.00393900
v 0.00270700 0.09736200 0.00720200
v -0.00000100 0.09754100 0.00782400
v -0.00270300 0.09736200 0.00720200
v -0.00461100 0.09699900 0.00393900
v -0.00654100 0.09648100 -0.00070900
v -0.00870300 0.09572300 -0.00629800
v -0.01059600 0.09462100 -0.01191100
v -0.01206000 0.09331200 -0.01756200
v -0.01315700 0.09155100 -0.02317000
v -0.01393400 0.08930500 -0.02820400
v -0.01449000 0.08630500 -0.03261100
v -0.00739300 0.08746400 -0.03465500
v -0.00000100 0.08392700 -0.03916600
v 0.00753300 0.08358400 -0.03854900
v 0.01502100 0.07807400 -0.03935900
v 0.01083900 0.03213000 -0.04654000
v 0.00987900 0.03411200 -0.04671400
v 0.01504900 0.03481400 -0.04526400
v 0.01154100 0.03683400 -0.04626700
v 0.01823200 0.03967800 -0.04395500
v 0.01345700 0.04162800 -0.04552800
v 0.01447000 0.04782000 -0.04495800
v 0.02066200 0.04622800 -0.04258500
v 0.02193800 0.05324900 -0.04152500
v 0.01492600 0.05428500 -0.04447700
v 0.02264400 0.06001600 -0.04046600
v 0.01499700 0.06074600 -0.04379900
v 0.01500600 0.06698500 -0.04290500
v 0.02299300 0.06626000 -0.03923600
v 0.01503000 0.07280500 -0.04146400
v 0.02301200 0.07192000 -0.03759800
v 0.02279000 0.07682200 -0.03541800
v 0.02222500 0.08119600 -0.03248400
v 0.02134900 0.08470400 -0.02904200
v 0.02011100 0.08765200 -0.02497800
v 0.01871700 0.08995000 -0.02055200
v 0.01664500 0.09214900 -0.01521700
v 0.01428600 0.09381100 -0.00981100
v 0.01147500 0.09519100 -0.00407500
v 0.00814100 0.09636800 0.00144300
v 0.00559800 0.09701800 0.00599200
v 0.00292800 0.09741400 0.00881700
v -0.00000100 0.09751700 0.00933500
v -0.00293000 0.09741400 0.00881700
v -0.00559900 0.09701800 0.00599200
v -0.00814200 0.09636800 0.00144300
v -0.01147600 0.09519100 -0.00407500
v -0.01428300 0.09381100 -0.00981100
v -0.01664600 0.09214900 -0.01521700
v -0.01871800 0.08995000 -0.02055200
v -0.02011200 0.08765200 -0.02497800
v -0.02135100 0.08470400 -0.02904200
v -0.02222600 0.08119600 -0.03248400
v -0.01484800 0.08258500 -0.03636900
v -0.00753500 0.08358400 -0.03854900
v -0.00000100 0.07911000 -0.04215600
v 0.00756600 0.07878500 -0.04145900
v 0.00752900 0.07324800 -0.04351200
v 0.00749100 0.06723000 -0.04486400
v 0.00749100 0.06094300 -0.04566400
v 0.00751000 0.05461900 -0.04624300
v 0.00739700 0.04846000 -0.04662000
v 0.00699200 0.04252700 -0.04680400
v 0.00635200 0.03701800 -0.04719900
v 0.00583400 0.03361300 -0.04740600
v 0.00594700 0.03082500 -0.04744400
v -0.00000100 0.03343000 -0.04775900
v -0.00000100 0.03002500 -0.04783000
v -0.00583000 0.03361300 -0.04740600
v -0.00594800 0.03082500 -0.04744400
v -0.00632900 0.02741600 -0.04745800
v -0.00000100 0.02672900 -0.04788700
v 0.00633300 0.02741600 -0.04745800
v 0.01214400 0.02935200 -0.04627600
v 0.01789800 0.03262400 -0.04430800
v 0.02264000 0.03766700 -0.04193000
v 0.02615700 0.04462700 -0.03950500
v 0.02812100 0.05186900 -0.03756000
v 0.02922200 0.05887600 -0.03579400
v 0.02959900 0.06519100 -0.03425500
v 0.02952400 0.07074300 -0.03247900
v 0.02906700 0.07510300 -0.03048700
v 0.02806900 0.07935500 -0.02778500
v 0.02676000 0.08266500 -0.02500200
v 0.02496100 0.08575900 -0.02153600
v 0.02298300 0.08822700 -0.01799000
v 0.02000300 0.09097700 -0.01296600
v 0.01682400 0.09309600 -0.00797000
v 0.01323100 0.09491300 -0.00219200
v 0.00887100 0.09647200 0.00439600
v 0.00622000 0.09711700 0.00825200
v 0.00309800 0.09752700 0.01061200
v -0.00000100 0.09765400 0.01121900
v -0.00309900 0.09752700 0.01061200
v -0.00622100 0.09711700 0.00825200
v -0.00887200 0.09647200 0.00439600
v -0.01323200 0.09491300 -0.00219200
v -0.01682100 0.09309600 -0.00797000
v -0.02000400 0.09097700 -0.01296600
v -0.02298500 0.08822700 -0.01799000
v -0.02496200 0.08575900 -0.02153600
v -0.02676100 0.08266500 -0.02500200
v -0.02807000 0.07935500 -0.02778500
v -0.02906400 0.07510300 -0.03048700
v -0.02279200 0.07682200 -0.03541800
v -0.01502200 0.07807400 -0.03935900
v -0.00756800 0.07878500 -0.04145900
v -0.00000100 0.07343600 -0.04421400
v -0.00000100 0.06731900 -0.04551800
v -0.00000100 0.06098100 -0.04636100
v -0.00000100 0.05464300 -0.04685100
v -0.00000100 0.04861100 -0.04713300
v -0.00000100 0.04273400 -0.04736900
v -0.00000100 0.03714500 -0.04759000
v -0.00635300 0.03701800 -0.04719900
v -0.00988000 0.03411200 -0.04671400
v -0.01084000 0.03213000 -0.04654000
v -0.01214500 0.02935200 -0.04627600
v -0.01323700 0.02603200 -0.04486800
v -0.00681000 0.02382800 -0.04637000
v -0.00000100 0.02302300 -0.04696800
v 0.00681300 0.02382800 -0.04637000
v 0.01323600 0.02603200 -0.04486800
v 0.01948500 0.02990700 -0.04243400
v 0.02465500 0.03568000 -0.03955200
v 0.02813000 0.04322400 -0.03677900
v 0.02998100 0.05077700 -0.03464100
v 0.03093600 0.05792500 -0.03285600
v 0.03125200 0.06422100 -0.03121700
v 0.03112500 0.06955100 -0.02948000
v 0.03064000 0.07368100 -0.02752600
v 0.02967500 0.07760800 -0.02505300
v 0.02848800 0.08075800 -0.02233600
v 0.02680200 0.08377700 -0.01901700
v 0.02492800 0.08626300 -0.01566900
v 0.02217300 0.08910200 -0.01066800
v 0.01930100 0.09134400 -0.00565300
v 0.01573600 0.09351000 0.00026600
v 0.01113600 0.09553000 0.00727300
v 0.00833900 0.09631600 0.01133200
v 0.00412900 0.09704200 0.01430300
v -0.00000100 0.09732400 0.01510900
v -0.00413000 0.09704200 0.01430300
v -0.00834000 0.09631600 0.01133200
v -0.01113700 0.09553000 0.00727300
v -0.01573800 0.09351000 0.00026600
v -0.01929800 0.09134400 -0.00565300
v -0.02217500 0.08910200 -0.01066800
v -0.02492900 0.08626300 -0.01566900
v -0.02680300 0.08377700 -0.01901700
v -0.02848900 0.08075800 -0.02233600
v -0.02967100 0.07760800 -0.02505300
v -0.03064100 0.07368100 -0.02752600
v -0.03112600 0.06955100 -0.02948000
v -0.02952500 0.07074300 -0.03247900
v -0.02301300 0.07192000 -0.03759800
v -0.01503100 0.07280500 -0.04146400
v -0.00753000 0.07324800 -0.04351200
v -0.00748800 0.06723000 -0.04486400
v -0.00749200 0.06094300 -0.04566400
v -0.00751100 0.05461900 -0.04624300
v -0.00739300 0.04846000 -0.04662000
v -0.00699300 0.04252700 -0.04680400
v -0.01345800 0.04162800 -0.04552800
v -0.01154200 0.03683400 -0.04626700
v -0.01505000 0.03481400 -0.04526400
v -0.01789900 0.03262400 -0.04430800
v -0.01948600 0.02990700 -0.04243400
v -0.01995200 0.02778400 -0.04023500
v -0.01362800 0.02373400 -0.04283400
v -0.00703600 0.02139800 -0.04448200
v -0.00000100 0.02050800 -0.04512700
v 0.00703400 0.02139800 -0.04448700
v 0.01362700 0.02373400 -0.04283400
v 0.01995600 0.02777900 -0.04024000
v 0.02545500 0.03404600 -0.03701400
v 0.02882700 0.04202800 -0.03404300
v 0.03078600 0.04979300 -0.03188600
v 0.03178400 0.05702600 -0.03020000
v 0.03200500 0.06327000 -0.02848600
v 0.03169000 0.06833600 -0.02678200
v 0.03111500 0.07223000 -0.02487900
v 0.03014500 0.07577600 -0.02268500
v 0.02903400 0.07874300 -0.02003800
v 0.02754600 0.08165800 -0.01684600
v 0.02575200 0.08416800 -0.01368600
v 0.02310600 0.08685600 -0.00882700
v 0.02034200 0.08890500 -0.00391500
v 0.01686600 0.09107100 0.00189500
v 0.01240200 0.09300600 0.00895900
v 0.00959600 0.09384900 0.01311200
v 0.00466600 0.09467800 0.01645100
v -0.00000100 0.09503100 0.01743000
v -0.00466700 0.09467800 0.01645100
v -0.00959700 0.09384900 0.01311200
v -0.01240400 0.09300600 0.00895900
v -0.01686800 0.09107100 0.00189500
v -0.02033800 0.08890000 -0.00391500
v -0.02310200 0.08685600 -0.00882700
v -0.02575300 0.08416800 -0.01368600
v -0.02754700 0.08165800 -0.01684600
v -0.02903100 0.07874300 -0.02003900
v -0.03014700 0.07577600 -0.02268500
v -0.03111700 0.07223000 -0.02487900
v -0.03169100 0.06833600 -0.02678200
v -0.03200700 0.06327000 -0.02848600
v -0.03124900 0.06422100 -0.03121700
v -0.02960100 0.06519100 -0.03425500
v -0.02298900 0.06625500 -0.03923600
v -0.01500800 0.06698500 -0.04290500
v -0.01499800 0.06074600 -0.04379900
v -0.01492800 0.05428500 -0.04447700
v -0.01446600 0.04782000 -0.04495800
v -0.01823300 0.03967800 -0.04395500
v -0.02263600 0.03766700 -0.04193000
v -0.02465100 0.03568000 -0.03955200
v -0.02545200 0.03405100 -0.03701400
v -0.02812700 0.04322400 -0.03677900
v -0.02882400 0.04202800 -0.03403800
v -0.02998200 0.05077700 -0.03464100
v -0.03078200 0.04979300 -0.03188600
v -0.03178500 0.05702600 -0.03020000
v -0.03093800 0.05792500 -0.03285600
v -0.02922400 0.05887600 -0.03579400
v -0.02264600 0.06001600 -0.04046600
v -0.02193900 0.05324900 -0.04152500
v -0.02065800 0.04622800 -0.04258500
v -0.02615400 0.04462700 -0.03950500
v -0.02812200 0.05186900 -0.03756000
vn 0.17870000 0.87370000 -0.45240000
vn -0.00000000 0.88370000 -0.46810000
vn 0.16230000 0.93370000 -0.31910000
vn -0.00000000 0.94580000 -0.32460000
vn 0.14750000 0.96500000 -0.21660000
vn -0.00000000 0.97480000 -0.22330000
vn 0.00060000 0.98820000 -0.15330000
vn 0.13140000 0.98040000 -0.14710000
vn 0.00090000 0.99450000 -0.10520000
vn 0.11000000 0.98860000 -0.10290000
vn 0.09060000 0.99350000 -0.06910000
vn -0.00000000 0.99750000 -0.07130000
vn 0.07380000 0.99540000 -0.06170000
vn -0.00000000 0.99810000 -0.06110000
vn 0.05670000 0.99680000 -0.05570000
vn -0.00000000 0.99840000 -0.05710000
vn -0.05680000 0.99680000 -0.05560000
vn -0.07380000 0.99540000 -0.06160000
vn -0.09070000 0.99350000 -0.06910000
vn -0.11080000 0.98860000 -0.10190000
vn -0.13220000 0.98020000 -0.14770000
vn -0.14750000 0.96500000 -0.21670000
vn -0.16230000 0.93370000 -0.31910000
vn -0.17870000 0.87380000 -0.45230000
vn -0.00000000 0.77570000 -0.63110000
vn 0.19050000 0.77040000 -0.60850000
vn 0.37970000 0.60140000 -0.70300000
vn 0.36440000 0.73960000 -0.56590000
vn 0.33710000 0.84130000 -0.42250000
vn 0.30850000 0.90530000 -0.29190000
vn 0.27480000 0.94070000 -0.19880000
vn 0.23670000 0.96170000 -0.13810000
vn 0.19930000 0.97510000 -0.09680000
vn 0.13780000 0.98810000 -0.06880000
vn 0.10140000 0.99290000 -0.06140000
vn 0.07940000 0.99570000 -0.04810000
vn -0.00000000 0.99970000 -0.02610000
vn -0.07920000 0.99570000 -0.04820000
vn -0.10130000 0.99300000 -0.06150000
vn -0.13770000 0.98810000 -0.06880000
vn -0.19940000 0.97510000 -0.09690000
vn -0.23680000 0.96170000 -0.13800000
vn -0.27480000 0.94070000 -0.19880000
vn -0.30830000 0.90530000 -0.29210000
vn -0.33700000 0.84140000 -0.42240000
vn -0.36440000 0.73960000 -0.56580000
vn -0.19050000 0.77040000 -0.60840000
vn -0.00000000 0.62000000 -0.78460000
vn 0.19380000 0.61130000 -0.76730000
vn 0.37290000 0.43490000 -0.81960000
vn 0.23140000 0.01710000 -0.97270000
vn 0.20410000 0.02280000 -0.97870000
vn 0.31960000 0.02110000 -0.94730000
vn 0.24250000 0.03600000 -0.96950000
vn 0.38850000 0.02490000 -0.92110000
vn 0.26690000 0.04340000 -0.96280000
vn 0.29930000 0.04940000 -0.95290000
vn 0.44440000 0.04640000 -0.89460000
vn 0.47250000 0.06480000 -0.87890000
vn 0.31840000 0.07350000 -0.94510000
vn 0.49720000 0.11450000 -0.86000000
vn 0.32590000 0.11200000 -0.93870000
vn 0.33910000 0.17950000 -0.92350000
vn 0.52040000 0.18700000 -0.83320000
vn 0.35540000 0.28620000 -0.88980000
vn 0.53680000 0.29690000 -0.78980000
vn 0.54640000 0.43920000 -0.71310000
vn 0.53900000 0.58810000 -0.60300000
vn 0.51440000 0.71350000 -0.47580000
vn 0.47730000 0.80520000 -0.35190000
vn 0.43130000 0.86540000 -0.25500000
vn 0.37170000 0.91120000 -0.17760000
vn 0.30970000 0.94310000 -0.12080000
vn 0.24890000 0.96470000 -0.08640000
vn 0.17600000 0.98180000 -0.07150000
vn 0.10470000 0.99240000 -0.06500000
vn 0.05990000 0.99680000 -0.05370000
vn -0.00000000 0.99950000 -0.03200000
vn -0.05990000 0.99680000 -0.05370000
vn -0.10460000 0.99240000 -0.06510000
vn -0.17580000 0.98180000 -0.07150000
vn -0.24890000 0.96470000 -0.08650000
vn -0.30970000 0.94310000 -0.12070000
vn -0.37160000 0.91130000 -0.17750000
vn -0.43130000 0.86540000 -0.25510000
vn -0.47720000 0.80520000 -0.35190000
vn -0.51440000 0.71350000 -0.47580000
vn -0.53900000 0.58810000 -0.60310000
vn -0.37960000 0.60140000 -0.70300000
vn -0.19390000 0.61130000 -0.76730000
vn -0.00000000 0.43460000 -0.90060000
vn 0.18860000 0.42810000 -0.88390000
vn 0.17860000 0.27910000 -0.94350000
vn 0.16970000 0.17200000 -0.97040000
vn 0.16610000 0.10590000 -0.98040000
vn 0.15800000 0.07390000 -0.98470000
vn 0.15260000 0.03930000 -0.98750000
vn 0.13990000 0.04430000 -0.98920000
vn 0.11890000 0.05190000 -0.99160000
vn 0.11220000 0.02880000 -0.99330000
vn 0.12150000 0.01630000 -0.99250000
vn -0.00000000 0.03220000 -0.99950000
vn -0.00000000 0.01780000 -0.99980000
vn -0.11210000 0.02880000 -0.99330000
vn -0.12150000 0.01630000 -0.99250000
vn -0.16450000 -0.13460000 -0.97710000
vn -0.00000000 -0.12720000 -0.99190000
vn 0.16460000 -0.13450000 -0.97710000
vn 0.30770000 -0.12610000 -0.94310000
vn 0.45570000 -0.10130000 -0.88430000
vn 0.56900000 -0.06380000 -0.81990000
vn 0.66070000 -0.01240000 -0.75050000
vn 0.71580000 0.02150000 -0.69800000
vn 0.75240000 0.08080000 -0.65370000
vn 0.76990000 0.15600000 -0.61890000
vn 0.77920000 0.26470000 -0.56810000
vn 0.77800000 0.39280000 -0.49030000
vn 0.75710000 0.52100000 -0.39420000
vn 0.71640000 0.63120000 -0.29730000
vn 0.66740000 0.71520000 -0.20770000
vn 0.61510000 0.77680000 -0.13460000
vn 0.54610000 0.83450000 -0.07370000
vn 0.46340000 0.88530000 -0.03830000
vn 0.36840000 0.92940000 -0.02300000
vn 0.26550000 0.96390000 -0.02010000
vn 0.19100000 0.98150000 0.00920000
vn 0.10180000 0.99440000 0.02680000
vn -0.00000000 0.99970000 0.02330000
vn -0.10180000 0.99440000 0.02680000
vn -0.19100000 0.98150000 0.00920000
vn -0.26550000 0.96390000 -0.02010000
vn -0.36850000 0.92930000 -0.02310000
vn -0.46330000 0.88540000 -0.03830000
vn -0.54610000 0.83450000 -0.07350000
vn -0.61510000 0.77680000 -0.13460000
vn -0.66740000 0.71520000 -0.20770000
vn -0.71640000 0.63120000 -0.29730000
vn -0.75750000 0.52050000 -0.39420000
vn -0.77780000 0.39320000 -0.49030000
vn -0.54640000 0.43930000 -0.71310000
vn -0.37290000 0.43500000 -0.81960000
vn -0.18860000 0.42810000 -0.88390000
vn -0.00000000 0.27660000 -0.96100000
vn -0.00000000 0.17240000 -0.98500000
vn -0.00000000 0.10320000 -0.99470000
vn -0.00000000 0.06510000 -0.99790000
vn -0.00000000 0.04320000 -0.99910000
vn -0.00000000 0.03980000 -0.99920000
vn -0.00000000 0.04880000 -0.99880000
vn -0.11890000 0.05180000 -0.99160000
vn -0.20400000 0.02280000 -0.97870000
vn -0.23130000 0.01710000 -0.97270000
vn -0.30770000 -0.12620000 -0.94310000
vn -0.43120000 -0.40840000 -0.80450000
vn -0.23130000 -0.42990000 -0.87280000
vn -0.00010000 -0.43320000 -0.90130000
vn 0.23140000 -0.42950000 -0.87290000
vn 0.43140000 -0.40830000 -0.80450000
vn 0.62320000 -0.35590000 -0.69630000
vn 0.76770000 -0.25350000 -0.58850000
vn 0.87040000 -0.14180000 -0.47150000
vn 0.89940000 -0.06240000 -0.43270000
vn 0.91590000 0.01870000 -0.40090000
vn 0.93420000 0.09250000 -0.34460000
vn 0.94580000 0.17650000 -0.27270000
vn 0.94230000 0.27450000 -0.19170000
vn 0.92460000 0.36430000 -0.11140000
vn 0.89130000 0.45170000 -0.03800000
vn 0.84700000 0.53140000 0.01330000
vn 0.79970000 0.59750000 0.05940000
vn 0.74980000 0.65400000 0.10060000
vn 0.69970000 0.70110000 0.13760000
vn 0.63930000 0.75080000 0.16610000
vn 0.56370000 0.80350000 0.19140000
vn 0.47370000 0.83010000 0.29430000
vn 0.27200000 0.86670000 0.41810000
vn -0.00000000 0.89320000 0.44970000
vn -0.27200000 0.86670000 0.41810000
vn -0.47370000 0.83010000 0.29430000
vn -0.56380000 0.80350000 0.19140000
vn -0.63950000 0.75070000 0.16590000
vn -0.69990000 0.70080000 0.13790000
vn -0.74990000 0.65380000 0.10120000
vn -0.79970000 0.59750000 0.05940000
vn -0.84710000 0.53120000 0.01330000
vn -0.89150000 0.45140000 -0.03760000
vn -0.92450000 0.36430000 -0.11190000
vn -0.94200000 0.27520000 -0.19200000
vn -0.94580000 0.17630000 -0.27270000
vn -0.77920000 0.26490000 -0.56800000
vn -0.53680000 0.29660000 -0.78990000
vn -0.35550000 0.28620000 -0.88980000
vn -0.17860000 0.27910000 -0.94350000
vn -0.16970000 0.17190000 -0.97040000
vn -0.16610000 0.10600000 -0.98040000
vn -0.15800000 0.07380000 -0.98470000
vn -0.15250000 0.03930000 -0.98750000
vn -0.13990000 0.04430000 -0.98920000
vn -0.26690000 0.04350000 -0.96270000
vn -0.24250000 0.03600000 -0.96950000
vn -0.31960000 0.02110000 -0.94730000
vn -0.45590000 -0.10120000 -0.88430000
vn -0.62390000 -0.35660000 -0.69540000
vn -0.66790000 -0.46310000 -0.58260000
vn -0.47840000 -0.53970000 -0.69270000
vn -0.25690000 -0.58020000 -0.77290000
vn -0.00030000 -0.59080000 -0.80680000
vn 0.25680000 -0.57970000 -0.77330000
vn 0.47850000 -0.53940000 -0.69290000
vn 0.66690000 -0.46190000 -0.58470000
vn 0.82440000 -0.32950000 -0.46020000
vn 0.92370000 -0.20110000 -0.32600000
vn 0.94390000 -0.10460000 -0.31330000
vn 0.95310000 -0.00400000 -0.30250000
vn 0.96640000 0.07890000 -0.24480000
vn 0.97760000 0.14630000 -0.15120000
vn 0.97260000 0.22440000 -0.06090000
vn 0.95910000 0.28250000 0.01880000
vn 0.93390000 0.34980000 0.07430000
vn 0.89780000 0.42770000 0.10500000
vn 0.86090000 0.48450000 0.15500000
vn 0.83120000 0.51470000 0.21010000
vn 0.80560000 0.53190000 0.26090000
vn 0.77210000 0.56080000 0.29890000
vn 0.72720000 0.59650000 0.33960000
vn 0.61230000 0.64050000 0.46360000
vn 0.34770000 0.67550000 0.65030000
vn -0.00000000 0.71140000 0.70280000
vn -0.34770000 0.67550000 0.65020000
vn -0.61230000 0.64050000 0.46360000
vn -0.72720000 0.59650000 0.33960000
vn -0.77240000 0.56060000 0.29860000
vn -0.80590000 0.53130000 0.26120000
vn -0.83130000 0.51410000 0.21120000
vn -0.86100000 0.48440000 0.15510000
vn -0.89800000 0.42750000 0.10470000
vn -0.93400000 0.34930000 0.07530000
vn -0.95890000 0.28300000 0.01840000
vn -0.97260000 0.22440000 -0.06090000
vn -0.97760000 0.14610000 -0.15160000
vn -0.96600000 0.07960000 -0.24600000
vn -0.93410000 0.09250000 -0.34480000
vn -0.77010000 0.15570000 -0.61870000
vn -0.52030000 0.18700000 -0.83330000
vn -0.33910000 0.17950000 -0.92350000
vn -0.32590000 0.11210000 -0.93870000
vn -0.31850000 0.07330000 -0.94510000
vn -0.29930000 0.04940000 -0.95290000
vn -0.38870000 0.02490000 -0.92100000
vn -0.56910000 -0.06370000 -0.81980000
vn -0.76790000 -0.25370000 -0.58820000
vn -0.82450000 -0.32980000 -0.45980000
vn -0.87040000 -0.14220000 -0.47140000
vn -0.92380000 -0.20150000 -0.32550000
vn -0.89950000 -0.06290000 -0.43230000
vn -0.94420000 -0.10540000 -0.31200000
vn -0.95320000 -0.00420000 -0.30240000
vn -0.91590000 0.01900000 -0.40090000
vn -0.75240000 0.08090000 -0.65370000
vn -0.49730000 0.11470000 -0.86000000
vn -0.47250000 0.06470000 -0.87890000
vn -0.44430000 0.04640000 -0.89470000
vn -0.66070000 -0.01250000 -0.75060000
vn -0.71580000 0.02130000 -0.69800000
vt 0.03379100 0.85295200
vt 0.02903900 0.85299400
vt 0.03373900 0.84918200
vt 0.02909100 0.84921300
vt 0.03356300 0.84521600
vt 0.02914200 0.84533000
vt 0.02919400 0.84134300
vt 0.03321200 0.84121900
vt 0.02925600 0.83739700
vt 0.03265400 0.83727300
vt 0.03196200 0.83344100
vt 0.02930800 0.83352400
vt 0.03132200 0.83041500
vt 0.02934900 0.83054900
vt 0.03085700 0.82850400
vt 0.02938000 0.82824500
vt 0.02789300 0.82846200
vt 0.02737600 0.83036300
vt 0.02665300 0.83335800
vt 0.02585800 0.83718000
vt 0.02518600 0.84112600
vt 0.02473200 0.84510200
vt 0.02445300 0.84905900
vt 0.02429800 0.85282900
vt 0.02899800 0.85661900
vt 0.03381100 0.85659900
vt 0.03880000 0.85982100
vt 0.03867600 0.85625800
vt 0.03850100 0.85265300
vt 0.03825300 0.84889300
vt 0.03776700 0.84485500
vt 0.03694100 0.84081600
vt 0.03569100 0.83680800
vt 0.03416200 0.83284200
vt 0.03276800 0.82956700
vt 0.03137400 0.82728500
vt 0.02940100 0.82682000
vt 0.02740700 0.82723300
vt 0.02595100 0.82947500
vt 0.02446300 0.83270800
vt 0.02282100 0.83662200
vt 0.02146800 0.84060900
vt 0.02053800 0.84462700
vt 0.01993900 0.84865600
vt 0.01959800 0.85240500
vt 0.01933000 0.85600000
vt 0.02418500 0.85647500
vt 0.02894600 0.86018300
vt 0.03382200 0.86018300
vt 0.03891400 0.86344700
vt 0.03656900 0.89546700
vt 0.03584600 0.89410400
vt 0.03980200 0.89342200
vt 0.03710600 0.89216200
vt 0.04227100 0.88981700
vt 0.03855200 0.88874300
vt 0.03928600 0.88441500
vt 0.04413000 0.88499300
vt 0.04497700 0.87989100
vt 0.03951300 0.87994300
vt 0.04530800 0.87502600
vt 0.03942000 0.87552200
vt 0.03923400 0.87127600
vt 0.04526600 0.87051200
vt 0.03905800 0.86724800
vt 0.04500800 0.86637000
vt 0.04467700 0.86260000
vt 0.04427500 0.85889200
vt 0.04381000 0.85540100
vt 0.04321100 0.85178500
vt 0.04252900 0.84816000
vt 0.04132100 0.84393500
vt 0.03980200 0.83978300
vt 0.03785000 0.83546500
vt 0.03538100 0.83141600
vt 0.03351200 0.82817300
vt 0.03154900 0.82618000
vt 0.02941100 0.82578700
vt 0.02726300 0.82611800
vt 0.02524800 0.82805900
vt 0.02327600 0.83125100
vt 0.02071400 0.83523800
vt 0.01863800 0.83949400
vt 0.01701600 0.84361500
vt 0.01568400 0.84780900
vt 0.01490900 0.85141300
vt 0.01421700 0.85500800
vt 0.01365900 0.85848900
vt 0.01911300 0.85956300
vt 0.02408100 0.86005900
vt 0.02890500 0.86385000
vt 0.03384200 0.86383900
vt 0.03387300 0.86769200
vt 0.03392500 0.87173100
vt 0.03399700 0.87590400
vt 0.03406900 0.88015900
vt 0.03400700 0.88432200
vt 0.03372900 0.88838100
vt 0.03322200 0.89217200
vt 0.03282000 0.89453800
vt 0.03289200 0.89646900
vt 0.02850200 0.89467200
vt 0.02847100 0.89702700
vt 0.02418500 0.89442400
vt 0.02406100 0.89635500
vt 0.02374000 0.89872100
vt 0.02844000 0.89933000
vt 0.03316100 0.89884500
vt 0.03755000 0.89736800
vt 0.04201300 0.89482700
vt 0.04583400 0.89091200
vt 0.04873700 0.88554100
vt 0.05032700 0.87993200
vt 0.05104000 0.87444700
vt 0.05098900 0.86952000
vt 0.05060600 0.86513100
vt 0.05009000 0.86153600
vt 0.04933600 0.85773500
vt 0.04845800 0.85444000
vt 0.04734200 0.85084500
vt 0.04608200 0.84747800
vt 0.04408900 0.84299500
vt 0.04184700 0.83882200
vt 0.03921300 0.83428800
vt 0.03593900 0.82937100
vt 0.03396600 0.82661300
vt 0.03167300 0.82494000
vt 0.02943200 0.82448500
vt 0.02717000 0.82487800
vt 0.02482500 0.82648900
vt 0.02278000 0.82918500
vt 0.01937100 0.83401900
vt 0.01662400 0.83848100
vt 0.01426900 0.84259300
vt 0.01216100 0.84703400
vt 0.01080800 0.85036000
vt 0.00960000 0.85393400
vt 0.00863900 0.85719800
vt 0.00778200 0.86097800
vt 0.01316300 0.86218700
vt 0.01889600 0.86318900
vt 0.02395700 0.86371600
vt 0.02885300 0.86776500
vt 0.02880200 0.87183400
vt 0.02874000 0.87602800
vt 0.02868800 0.88025200
vt 0.02863600 0.88431200
vt 0.02858500 0.88827800
vt 0.02853300 0.89212100
vt 0.02384400 0.89204800
vt 0.02116800 0.89391800
vt 0.02041400 0.89525000
vt 0.01938200 0.89713000
vt 0.01821400 0.89951600
vt 0.02321400 0.90130300
vt 0.02840900 0.90198500
vt 0.03361500 0.90143700
vt 0.03865600 0.89978500
vt 0.04372700 0.89673800
vt 0.04809600 0.89219300
vt 0.05119500 0.88625400
vt 0.05285800 0.88023200
vt 0.05351900 0.87443700
vt 0.05348800 0.86925200
vt 0.05306500 0.86474800
vt 0.05254800 0.86105100
vt 0.05177400 0.85727000
vt 0.05095800 0.85382000
vt 0.04978000 0.85010200
vt 0.04844800 0.84664100
vt 0.04643300 0.84195200
vt 0.04423300 0.83759300
vt 0.04140300 0.83277000
vt 0.03775700 0.82739800
vt 0.03556700 0.82447500
vt 0.03242700 0.82236800
vt 0.02946300 0.82177900
vt 0.02648800 0.82228600
vt 0.02328600 0.82430000
vt 0.02102400 0.82717100
vt 0.01722300 0.83243900
vt 0.01426900 0.83719000
vt 0.01195500 0.84149800
vt 0.00981700 0.84613500
vt 0.00838100 0.84955400
vt 0.00711100 0.85325200
vt 0.00620200 0.85667100
vt 0.00533400 0.86043100
vt 0.00472500 0.86411800
vt 0.00717200 0.86456300
vt 0.01274000 0.86594700
vt 0.01865800 0.86699000
vt 0.02382300 0.86756800
vt 0.02367800 0.87159700
vt 0.02349300 0.87576900
vt 0.02331700 0.88001500
vt 0.02326500 0.88417700
vt 0.02343100 0.88824700
vt 0.01860700 0.88848500
vt 0.01996000 0.89193500
vt 0.01724300 0.89312200
vt 0.01499200 0.89447600
vt 0.01322500 0.89634500
vt 0.01192400 0.89809100
vt 0.01727400 0.90148900
vt 0.02269700 0.90345200
vt 0.02837800 0.90415400
vt 0.03406900 0.90359600
vt 0.03955400 0.90177800
vt 0.04498700 0.89852500
vt 0.04992500 0.89344300
vt 0.05323000 0.88699700
vt 0.05494500 0.88061400
vt 0.05557500 0.87454000
vt 0.05557500 0.86912800
vt 0.05515100 0.86453200
vt 0.05465500 0.86067900
vt 0.05390100 0.85689800
vt 0.05305400 0.85326200
vt 0.05184600 0.84939900
vt 0.05037900 0.84582500
vt 0.04834400 0.84101200
vt 0.04619600 0.83652900
vt 0.04329300 0.83159200
vt 0.03960600 0.82598300
vt 0.03716800 0.82278100
vt 0.03321200 0.82024000
vt 0.02949400 0.81954800
vt 0.02576500 0.82013700
vt 0.02173700 0.82257500
vt 0.01921600 0.82570400
vt 0.01537400 0.83121000
vt 0.01233700 0.83607500
vt 0.01006500 0.84050600
vt 0.00790600 0.84525700
vt 0.00633600 0.84880000
vt 0.00503400 0.85263200
vt 0.00408400 0.85624800
vt 0.00323700 0.86000700
vt 0.00263800 0.86383900
vt 0.00210100 0.86842600
vt 0.00418700 0.86861200
vt 0.00666600 0.86894200
vt 0.01236800 0.87007800
vt 0.01838000 0.87100800
vt 0.01808000 0.87524300
vt 0.01787300 0.87965300
vt 0.01798700 0.88413600
vt 0.01486800 0.88946600
vt 0.01127300 0.89046800
vt 0.00897000 0.89168700
vt 0.00712100 0.89288500
vt 0.00602600 0.88566500
vt 0.00398100 0.88635700
vt 0.00451800 0.87960200
vt 0.00243100 0.87993200
vt 0.00195600 0.87384800
vt 0.00402200 0.87379700
vt 0.00650100 0.87386900
vt 0.01221300 0.87459200
vt 0.01242000 0.87946700
vt 0.01313200 0.88459100
vt 0.00850500 0.88501400
vt 0.00706900 0.87936400
f 1/1/1 2/2/2 3/3/3
f 2/2/2 4/4/4 3/3/3
f 3/3/3 4/4/4 5/5/5
f 4/4/4 6/6/6 5/5/5
f 6/6/6 7/7/7 5/5/5
f 5/5/5 7/7/7 8/8/8
f 7/7/7 9/9/9 8/8/8
f 8/8/8 9/9/9 10/10/10
f 10/10/10 9/9/9 11/11/11
f 9/9/9 12/12/12 11/11/11
f 11/11/11 12/12/12 13/13/13
f 12/12/12 14/14/14 13/13/13
f 13/13/13 14/14/14 15/15/15
f 15/15/15 14/14/14 16/16/16
f 16/16/16 14/14/14 17/17/17
f 17/17/17 14/14/14 18/18/18
f 14/14/14 12/12/12 18/18/18
f 18/18/18 12/12/12 19/19/19
f 12/12/12 9/9/9 19/19/19
f 19/19/19 9/9/9 20/20/20
f 9/9/9 7/7/7 20/20/20
f 20/20/20 7/7/7 21/21/21
f 21/21/21 7/7/7 22/22/22
f 7/7/7 6/6/6 22/22/22
f 6/6/6 4/4/4 22/22/22
f 22/22/22 4/4/4 23/23/23
f 4/4/4 2/2/2 23/23/23
f 23/23/23 2/2/2 24/24/24
f 24/24/24 2/2/2 25/25/25
f 2/2/2 1/1/1 25/25/25
f 25/25/25 1/1/1 26/26/26
f 27/27/27 26/26/26 28/28/28
f 26/26/26 1/1/1 28/28/28
f 28/28/28 1/1/1 29/29/29
f 1/1/1 3/3/3 29/29/29
f 29/29/29 3/3/3 30/30/30
f 3/3/3 5/5/5 30/30/30
f 30/30/30 5/5/5 31/31/31
f 5/5/5 8/8/8 31/31/31
f 31/31/31 8/8/8 32/32/32
f 8/8/8 10/10/10 32/32/32
f 32/32/32 10/10/10 33/33/33
f 10/10/10 11/11/11 33/33/33
f 33/33/33 11/11/11 34/34/34
f 11/11/11 13/13/13 34/34/34
f 34/34/34 13/13/13 35/35/35
f 35/35/35 13/13/13 36/36/36
f 13/13/13 15/15/15 36/36/36
f 15/15/15 16/16/16 36/36/36
f 36/36/36 16/16/16 37/37/37
f 37/37/37 16/16/16 38/38/38
f 16/16/16 17/17/17 38/38/38
f 17/17/17 18/18/18 38/38/38
f 38/38/38 18/18/18 39/39/39
f 39/39/39 18/18/18 40/40/40
f 18/18/18 19/19/19 40/40/40
f 40/40/40 19/19/19 41/41/41
f 19/19/19 20/20/20 41/41/41
f 41/41/41 20/20/20 42/42/42
f 20/20/20 21/21/21 42/42/42
f 42/42/42 21/21/21 43/43/43
f 21/21/21 22/22/22 43/43/43
f 43/43/43 22/22/22 44/44/44
f 22/22/22 23/23/23 44/44/44
f 44/44/44 23/23/23 45/45/45
f 23/23/23 24/24/24 45/45/45
f 45/45/45 24/24/24 46/46/46
f 46/46/46 24/24/24 47/47/47
f 24/24/24 25/25/25 47/47/47
f 47/47/47 25/25/25 48/48/48
f 25/25/25 26/26/26 48/48/48
f 48/48/48 26/26/26 49/49/49
f 26/26/26 27/27/27 49/49/49
f 49/49/49 27/27/27 50/50/50
f 51/51/51 52/52/52 53/53/53
f 52/52/52 54/54/54 53/53/53
f 53/53/53 54/54/54 55/55/55
f 54/54/54 56/56/56 55/55/55
f 56/56/56 57/57/57 55/55/55
f 55/55/55 57/57/57 58/58/58
f 58/58/58 57/57/57 59/59/59
f 57/57/57 60/60/60 59/59/59
f 59/59/59 60/60/60 61/61/61
f 60/60/60 62/62/62 61/61/61
f 62/62/62 63/63/63 61/61/61
f 61/61/61 63/63/63 64/64/64
f 63/63/63 65/65/65 64/64/64
f 64/64/64 65/65/65 66/66/66
f 65/65/65 50/50/50 66/66/66
f 66/66/66 50/50/50 67/67/67
f 50/50/50 27/27/27 67/67/67
f 67/67/67 27/27/27 68/68/68
f 27/27/27 28/28/28 68/68/68
f 68/68/68 28/28/28 69/69/69
f 28/28/28 29/29/29 69/69/69
f 69/69/69 29/29/29 70/70/70
f 29/29/29 30/30/30 70/70/70
f 70/70/70 30/30/30 71/71/71
f 30/30/30 31/31/31 71/71/71
f 71/71/71 31/31/31 72/72/72
f 31/31/31 32/32/32 72/72/72
f 72/72/72 32/32/32 73/73/73
f 32/32/32 33/33/33 73/73/73
f 73/73/73 33/33/33 74/74/74
f 74/74/74 33/33/33 75/75/75
f 33/33/33 34/34/34 75/75/75
f 75/75/75 34/34/34 76/76/76
f 34/34/34 35/35/35 76/76/76
f 76/76/76 35/35/35 77/77/77
f 35/35/35 36/36/36 77/77/77
f 36/36/36 37/37/37 77/77/77
f 77/77/77 37/37/37 78/78/78
f 78/78/78 37/37/37 79/79/79
f 37/37/37 38/38/38 79/79/79
f 38/38/38 39/39/39 79/79/79
f 79/79/79 39/39/39 80/80/80
f 39/39/39 40/40/40 80/80/80
f 80/80/80 40/40/40 81/81/81
f 40/40/40 41/41/41 81/81/81
f 81/81/81 41/41/41 82/82/82
f 82/82/82 41/41/41 83/83/83
f 41/41/41 42/42/42 83/83/83
f 83/83/83 42/42/42 84/84/84
f 42/42/42 43/43/43 84/84/84
f 84/84/84 43/43/43 85/85/85
f 43/43/43 44/44/44 85/85/85
f 85/85/85 44/44/44 86/86/86
f 44/44/44 45/45/45 86/86/86
f 86/86/86 45/45/45 87/87/87
f 45/45/45 46/46/46 87/87/87
f 87/87/87 46/46/46 88/88/88
f 88/88/88 46/46/46 89/89/89
f 46/46/46 47/47/47 89/89/89
f 89/89/89 47/47/47 90/90/90
f 47/47/47 48/48/48 90/90/90
f 90/90/90 48/48/48 91/91/91
f 48/48/48 49/49/49 91/91/91
f 91/91/91 49/49/49 92/92/92
f 49/49/49 50/50/50 92/92/92
f 50/50/50 65/65/65 92/92/92
f 92/92/92 65/65/65 93/93/93
f 65/65/65 63/63/63 93/93/93
f 93/93/93 63/63/63 94/94/94
f 63/63/63 62/62/62 94/94/94
f 94/94/94 62/62/62 95/95/95
f 95/95/95 62/62/62 96/96/96
f 62/62/62 60/60/60 96/96/96
f 96/96/96 60/60/60 97/97/97
f 60/60/60 57/57/57 97/97/97
f 97/97/97 57/57/57 98/98/98
f 57/57/57 56/56/56 98/98/98
f 56/56/56 54/54/54 98/98/98
f 98/98/98 54/54/54 99/99/99
f 54/54/54 52/52/52 99/99/99
f 99/99/99 52/52/52 100/100/100
f 52/52/52 51/51/51 100/100/100
f 51/51/51 101/101/101 100/100/100
f 100/100/100 101/101/101 102/102/102
f 101/101/101 103/103/103 102/102/102
f 104/104/104 102/102/102 105/105/105
f 102/102/102 103/103/103 105/105/105
f 105/105/105 103/103/103 106/106/106
f 106/106/106 103/103/103 107/107/107
f 107/107/107 103/103/103 108/108/108
f 103/103/103 101/101/101 108/108/108
f 108/108/108 101/101/101 109/109/109
f 101/101/101 51/51/51 109/109/109
f 109/109/109 51/51/51 110/110/110
f 51/51/51 53/53/53 110/110/110
f 110/110/110 53/53/53 111/111/111
f 53/53/53 55/55/55 111/111/111
f 111/111/111 55/55/55 112/112/112
f 55/55/55 58/58/58 112/112/112
f 112/112/112 58/58/58 113/113/113
f 58/58/58 59/59/59 113/113/113
f 59/59/59 61/61/61 113/113/113
f 113/113/113 61/61/61 114/114/114
f 61/61/61 64/64/64 114/114/114
f 114/114/114 64/64/64 115/115/115
f 64/64/64 66/66/66 115/115/115
f 115/115/115 66/66/66 116/116/116
f 66/66/66 67/67/67 116/116/116
f 116/116/116 67/67/67 117/117/117
f 67/67/67 68/68/68 117/117/117
f 117/117/117 68/68/68 118/118/118
f 68/68/68 69/69/69 118/118/118
f 118/118/118 69/69/69 119/119/119
f 69/69/69 70/70/70 119/119/119
f 119/119/119 70/70/70 120/120/120
f 70/70/70 71/71/71 120/120/120
f 120/120/120 71/71/71 121/121/121
f 121/121/121 71/71/71 122/122/122
f 71/71/71 72/72/72 122/122/122
f 122/122/122 72/72/72 123/123/123
f 72/72/72 73/73/73 123/123/123
f 123/123/123 73/73/73 124/124/124
f 73/73/73 74/74/74 124/124/124
f 124/124/124 74/74/74 125/125/125
f 74/74/74 75/75/75 125/125/125
f 125/125/125 75/75/75 126/126/126
f 75/75/75 76/76/76 126/126/126
f 126/126/126 76/76/76 127/127/127
f 76/76/76 77/77/77 127/127/127
f 77/77/77 78/78/78 127/127/127
f 127/127/127 78/78/78 128/128/128
f 128/128/128 78/78/78 129/129/129
f 78/78/78 79/79/79 129/129/129
f 79/79/79 80/80/80 129/129/129
f 129/129/129 80/80/80 130/130/130
f 80/80/80 81/81/81 130/130/130
f 130/130/130 81/81/81 131/131/131
f 81/81/81 82/82/82 131/131/131
f 131/131/131 82/82/82 132/132/132
f 82/82/82 83/83/83 132/132/132
f 132/132/132 83/83/83 133/133/133
f 83/83/83 84/84/84 133/133/133
f 133/133/133 84/84/84 134/134/134
f 84/84/84 85/85/85 134/134/134
f 134/134/134 85/85/85 135/135/135
f 135/135/135 85/85/85 136/136/136
f 85/85/85 86/86/86 136/136/136
f 136/136/136 86/86/86 137/137/137
f 86/86/86 87/87/87 137/137/137
f 137/137/137 87/87/87 138/138/138
f 87/87/87 88/88/88 138/138/138
f 138/138/138 88/88/88 139/139/139
f 139/139/139 88/88/88 140/140/140
f 88/88/88 89/89/89 140/140/140
f 140/140/140 89/89/89 141/141/141
f 89/89/89 90/90/90 141/141/141
f 141/141/141 90/90/90 142/142/142
f 90/90/90 91/91/91 142/142/142
f 142/142/142 91/91/91 143/143/143
f 91/91/91 92/92/92 143/143/143
f 92/92/92 93/93/93 143/143/143
f 143/143/143 93/93/93 144/144/144
f 93/93/93 94/94/94 144/144/144
f 144/144/144 94/94/94 145/145/145
f 94/94/94 95/95/95 145/145/145
f 145/145/145 95/95/95 146/146/146
f 95/95/95 96/96/96 146/146/146
f 146/146/146 96/96/96 147/147/147
f 96/96/96 97/97/97 147/147/147
f 97/97/97 98/98/98 147/147/147
f 147/147/147 98/98/98 148/148/148
f 148/148/148 98/98/98 149/149/149
f 98/98/98 99/99/99 149/149/149
f 99/99/99 100/100/100 149/149/149
f 100/100/100 102/102/102 149/149/149
f 102/102/102 104/104/104 149/149/149
f 149/149/149 104/104/104 150/150/150
f 150/150/150 104/104/104 151/151/151
f 151/151/151 104/104/104 152/152/152
f 104/104/104 105/105/105 152/152/152
f 152/152/152 105/105/105 153/153/153
f 105/105/105 106/106/106 153/153/153
f 153/153/153 106/106/106 154/154/154
f 154/154/154 106/106/106 155/155/155
f 106/106/106 107/107/107 155/155/155
f 155/155/155 107/107/107 156/156/156
f 156/156/156 107/107/107 157/157/157
f 107/107/107 108/108/108 157/157/157
f 157/157/157 108/108/108 158/158/158
f 108/108/108 109/109/109 158/158/158
f 109/109/109 110/110/110 158/158/158
f 158/158/158 110/110/110 159/159/159
f 110/110/110 111/111/111 159/159/159
f 159/159/159 111/111/111 160/160/160
f 111/111/111 112/112/112 160/160/160
f 160/160/160 112/112/112 161/161/161
f 161/161/161 112/112/112 162/162/162
f 112/112/112 113/113/113 162/162/162
f 162/162/162 113/113/113 163/163/163
f 113/113/113 114/114/114 163/163/163
f 163/163/163 114/114/114 164/164/164
f 114/114/114 115/115/115 164/164/164
f 164/164/164 115/115/115 165/165/165
f 115/115/115 116/116/116 165/165/165
f 165/165/165 116/116/116 166/166/166
f 116/116/116 117/117/117 166/166/166
f 166/166/166 117/117/117 167/167/167
f 117/117/117 118/118/118 167/167/167
f 167/167/167 118/118/118 168/168/168
f 118/118/118 119/119/119 168/168/168
f 119/119/119 120/120/120 168/168/168
f 168/168/168 120/120/120 169/169/169
f 120/120/120 121/121/121 169/169/169
f 169/169/169 121/121/121 170/170/170
f 121/121/121 122/122/122 170/170/170
f 170/170/170 122/122/122 171/171/171
f 122/122/122 123/123/123 171/171/171
f 171/171/171 123/123/123 172/172/172
f 123/123/123 124/124/124 172/172/172
f 172/172/172 124/124/124 173/173/173
f 124/124/124 125/125/125 173/173/173
f 173/173/173 125/125/125 174/174/174
f 125/125/125 126/126/126 174/174/174
f 174/174/174 126/126/126 175/175/175
f 126/126/126 127/127/127 175/175/175
f 175/175/175 127/127/127 176/176/176
f 127/127/127 128/128/128 176/176/176
f 176/176/176 128/128/128 177/177/177
f 177/177/177 128/128/128 178/178/178
f 128/128/128 129/129/129 178/178/178
f 178/178/178 129/129/129 179/179/179
f 129/129/129 130/130/130 179/179/179
f 179/179/179 130/130/130 180/180/180
f 130/130/130 131/131/131 180/180/180
f 180/180/180 131/131/131 181/181/181
f 131/131/131 132/132/132 181/181/181
f 181/181/181 132/132/132 182/182/182
f 132/132/132 133/133/133 182/182/182
f 182/182/182 133/133/133 183/183/183
f 133/133/133 134/134/134 183/183/183
f 183/183/183 134/134/134 184/184/184
f 134/134/134 135/135/135 184/184/184
f 184/184/184 135/135/135 185/185/185
f 135/135/135 136/136/136 185/185/185
f 185/185/185 136/136/136 186/186/186
f 136/136/136 137/137/137 186/186/186
f 137/137/137 138/138/138 186/186/186
f 186/186/186 138/138/138 187/187/187
f 138/138/138 139/139/139 187/187/187
f 187/187/187 139/139/139 188/188/188
f 189/189/189 188/188/188 190/190/190
f 188/188/188 139/139/139 190/190/190
f 139/139/139 140/140/140 190/190/190
f 190/190/190 140/140/140 191/191/191
f 140/140/140 141/141/141 191/191/191
f 191/191/191 141/141/141 192/192/192
f 141/141/141 142/142/142 192/192/192
f 192/192/192 142/142/142 193/193/193
f 142/142/142 143/143/143 193/193/193
f 143/143/143 144/144/144 193/193/193
f 193/193/193 144/144/144 194/194/194
f 144/144/144 145/145/145 194/194/194
f 194/194/194 145/145/145 195/195/195
f 145/145/145 146/146/146 195/195/195
f 195/195/195 146/146/146 196/196/196
f 146/146/146 147/147/147 196/196/196
f 196/196/196 147/147/147 197/197/197
f 197/197/197 147/147/147 198/198/198
f 147/147/147 148/148/148 198/198/198
f 148/148/148 149/149/149 198/198/198
f 149/149/149 150/150/150 198/198/198
f 199/199/199 198/198/198 200/200/200
f 198/198/198 150/150/150 200/200/200
f 150/150/150 151/151/151 200/200/200
f 200/200/200 151/151/151 201/201/201
f 151/151/151 152/152/152 201/201/201
f 201/201/201 152/152/152 202/202/202
f 152/152/152 153/153/153 202/202/202
f 153/153/153 154/154/154 202/202/202
f 202/202/202 154/154/154 203/203/203
f 204/204/204 203/203/203 205/205/205
f 203/203/203 154/154/154 205/205/205
f 205/205/205 154/154/154 206/206/206
f 154/154/154 155/155/155 206/206/206
f 155/155/155 156/156/156 206/206/206
f 206/206/206 156/156/156 207/207/207
f 207/207/207 156/156/156 208/208/208
f 156/156/156 157/157/157 208/208/208
f 157/157/157 158/158/158 208/208/208
f 208/208/208 158/158/158 209/209/209
f 158/158/158 159/159/159 209/209/209
f 209/209/209 159/159/159 210/210/210
f 159/159/159 160/160/160 210/210/210
f 210/210/210 160/160/160 211/211/211
f 160/160/160 161/161/161 211/211/211
f 211/211/211 161/161/161 212/212/212
f 161/161/161 162/162/162 212/212/212
f 212/212/212 162/162/162 213/213/213
f 213/213/213 162/162/162 214/214/214
f 162/162/162 163/163/163 214/214/214
f 214/214/214 163/163/163 215/215/215
f 163/163/163 164/164/164 215/215/215
f 215/215/215 164/164/164 216/216/216
f 164/164/164 165/165/165 216/216/216
f 216/216/216 165/165/165 217/217/217
f 165/165/165 166/166/166 217/217/217
f 217/217/217 166/166/166 218/218/218
f 166/166/166 167/167/167 218/218/218
f 167/167/167 168/168/168 218/218/218
f 218/218/218 168/168/168 219/219/219
f 168/168/168 169/169/169 219/219/219
f 219/219/219 169/169/169 220/220/220
f 169/169/169 170/170/170 220/220/220
f 220/220/220 170/170/170 221/221/221
f 170/170/170 171/171/171 221/221/221
f 221/221/221 171/171/171 222/222/222
f 171/171/171 172/172/172 222/222/222
f 222/222/222 172/172/172 223/223/223
f 172/172/172 173/173/173 223/223/223
f 223/223/223 173/173/173 224/224/224
f 173/173/173 174/174/174 224/224/224
f 224/224/224 174/174/174 225/225/225
f 174/174/174 175/175/175 225/225/225
f 225/225/225 175/175/175 226/226/226
f 175/175/175 176/176/176 226/226/226
f 226/226/226 176/176/176 227/227/227
f 176/176/176 177/177/177 227/227/227
f 227/227/227 177/177/177 228/228/228
f 228/228/228 177/177/177 229/229/229
f 177/177/177 178/178/178 229/229/229
f 229/229/229 178/178/178 230/230/230
f 178/178/178 179/179/179 230/230/230
f 230/230/230 179/179/179 231/231/231
f 179/179/179 180/180/180 231/231/231
f 231/231/231 180/180/180 232/232/232
f 180/180/180 181/181/181 232/232/232
f 232/232/232 181/181/181 233/233/233
f 181/181/181 182/182/182 233/233/233
f 233/233/233 182/182/182 234/234/234
f 182/182/182 183/183/183 234/234/234
f 234/234/234 183/183/183 235/235/235
f 183/183/183 184/184/184 235/235/235
f 235/235/235 184/184/184 236/236/236
f 184/184/184 185/185/185 236/236/236
f 236/236/236 185/185/185 237/237/237
f 185/185/185 186/186/186 237/237/237
f 237/237/237 186/186/186 238/238/238
f 186/186/186 187/187/187 238/238/238
f 187/187/187 188/188/188 238/238/238
f 238/238/238 188/188/188 239/239/239
f 188/188/188 189/189/189 239/239/239
f 239/239/239 189/189/189 240/240/240
f 241/241/241 240/240/240 242/242/242
f 240/240/240 189/189/189 242/242/242
f 242/242/242 189/189/189 243/243/243
f 189/189/189 190/190/190 243/243/243
f 190/190/190 191/191/191 243/243/243
f 243/243/243 191/191/191 244/244/244
f 191/191/191 192/192/192 244/244/244
f 244/244/244 192/192/192 245/245/245
f 192/192/192 193/193/193 245/245/245
f 193/193/193 194/194/194 245/245/245
f 245/245/245 194/194/194 246/246/246
f 194/194/194 195/195/195 246/246/246
f 195/195/195 196/196/196 246/246/246
f 246/246/246 196/196/196 247/247/247
f 196/196/196 197/197/197 247/247/247
f 247/247/247 197/197/197 248/248/248
f 197/197/197 198/198/198 248/248/248
f 198/198/198 199/199/199 248/248/248
f 248/248/248 199/199/199 249/249/249
f 199/199/199 200/200/200 249/249/249
f 200/200/200 201/201/201 249/249/249
f 249/249/249 201/201/201 250/250/250
f 201/201/201 202/202/202 250/250/250
f 202/202/202 203/203/203 250/250/250
f 250/250/250 203/203/203 251/251/251
f 203/203/203 204/204/204 251/251/251
f 204/204/204 252/252/252 251/251/251
f 251/251/251 252/252/252 253/253/253
f 252/252/252 254/254/254 253/253/253
f 253/253/253 254/254/254 255/255/255
f 254/254/254 256/256/256 255/255/255
f 256/256/256 257/257/257 255/255/255
f 255/255/255 257/257/257 258/258/258
f 257/257/257 241/241/241 258/258/258
f 241/241/241 242/242/242 258/258/258
f 258/258/258 242/242/242 259/259/259
f 242/242/242 243/243/243 259/259/259
f 243/243/243 244/244/244 259/259/259
f 259/259/259 244/244/244 260/260/260
f 244/244/244 245/245/245 260/260/260
f 245/245/245 246/246/246 260/260/260
f 246/246/246 247/247/247 260/260/260
f 260/260/260 247/247/247 261/261/261
f 247/247/247 248/248/248 261/261/261
f 261/261/261 248/248/248 262/262/262
f 248/248/248 249/249/249 262/262/262
f 262/262/262 249/249/249 263/263/263
f 249/249/249 250/250/250 263/263/263
f 250/250/250 251/251/251 263/263/263
f 251/251/251 253/253/253 263/263/263
f 253/253/253 255/255/255 263/263/263
f 263/263/263 255/255/255 264/264/264
f 255/255/255 258/258/258 264/264/264
f 258/258/258 259/259/259 264/264/264
f 259/259/259 260/260/260 264/264/264
f 260/260/260 261/261/261 264/264/264
f 261/261/261 262/262/262 264/264/264
f 263/263/263 264/264/264 262/262/262

