mtllib material.mtl
usemtl colour_abb_orange
v -0.02350000 0.07800000 0.50754400
v -0.02350000 0.07800000 0.45045600
v -0.02350000 0.00850000 0.51077300
v -0.02350000 0.00850000 0.44722700
v -0.00500000 -0.09000000 -0.00866000
v -0.00642800 -0.09000000 -0.00766000
v 0.00342000 -0.09000000 0.00939700
v 0.00500000 -0.09000000 -0.00866000
v 0.00342000 -0.09000000 -0.00939700
v 0.00642800 -0.09000000 0.00766000
v 0.00500000 -0.09000000 0.00866000
v 0.00000000 -0.09000000 -0.01000000
v -0.00173600 -0.09000000 -0.00984800
v -0.00342000 -0.09000000 -0.00939700
v 0.00173600 -0.09000000 -0.00984800
v -0.00766000 -0.09000000 -0.00642800
v -0.00500000 -0.09000000 0.00866000
v -0.00342000 -0.09000000 0.00939700
v -0.00173600 -0.09000000 0.00984800
v 0.00000000 -0.09000000 0.01000000
v 0.00173600 -0.09000000 0.00984800
v 0.00642800 -0.09000000 -0.00766000
v 0.00766000 -0.09000000 0.00642800
v 0.00866000 -0.09000000 0.00500000
v 0.00939700 -0.09000000 0.00342000
v 0.00984800 -0.09000000 0.00173600
v 0.01000000 -0.09000000 0.00000000
v -0.00866000 -0.09000000 -0.00500000
v -0.00939700 -0.09000000 -0.00342000
v -0.00984800 -0.09000000 -0.00173600
v -0.01000000 -0.09000000 0.00000000
v -0.00984800 -0.09000000 0.00173600
v -0.00939700 -0.09000000 0.00342000
v -0.00866000 -0.09000000 0.00500000
v -0.00766000 -0.09000000 0.00642800
v -0.00642800 -0.09000000 0.00766000
v 0.00984800 -0.09000000 -0.00173600
v 0.00939700 -0.09000000 -0.00342000
v 0.00766000 -0.09000000 -0.00642800
v 0.00866000 -0.09000000 -0.00500000
v -0.02794300 0.06750000 -0.08600000
v 0.00000000 0.06750000 -0.01000000
v -0.00173600 0.06750000 -0.00984800
v -0.00173600 0.06750000 0.00984800
v 0.00000000 0.06750000 0.01000000
v -0.01950000 0.06750000 0.16233300
v -0.00766000 0.06750000 -0.00642800
v -0.00866000 0.06750000 -0.00500000
v -0.07315600 0.06750000 -0.05315100
v 0.00866000 0.06750000 0.00500000
v 0.00939700 0.06750000 0.00342000
v 0.06200000 0.06750000 0.00000000
v 0.00984800 0.06750000 0.00173600
v 0.00642800 0.06750000 -0.00766000
v 0.00500000 0.06750000 -0.00866000
v 0.09432500 0.06750000 -0.08600000
v 0.00342000 0.06750000 -0.00939700
v 0.00173600 0.06750000 -0.00984800
v 0.06200000 0.06750000 0.16233300
v 0.00173600 0.06750000 0.00984800
v 0.00342000 0.06750000 0.00939700
v 0.00500000 0.06750000 0.00866000
v 0.14518300 0.06750000 -0.01600000
v 0.14800400 0.06750000 0.00000000
v -0.00939700 0.06750000 -0.00342000
v -0.00984800 0.06750000 -0.00173600
v -0.11506300 0.06750000 0.08392100
v -0.01000000 0.06750000 0.00000000
v -0.00984800 0.06750000 0.00173600
v 0.00642800 0.06750000 0.00766000
v 0.00766000 0.06750000 0.00642800
v 0.13112600 0.06750000 -0.05926200
v 0.00984800 0.06750000 -0.00173600
v 0.01000000 0.06750000 0.00000000
v 0.00939700 0.06750000 -0.00342000
v 0.00866000 0.06750000 -0.00500000
v 0.00766000 0.06750000 -0.00642800
v -0.00342000 0.06750000 -0.00939700
v -0.00500000 0.06750000 -0.00866000
v -0.00642800 0.06750000 -0.00766000
v -0.00939700 0.06750000 0.00342000
v -0.00866000 0.06750000 0.00500000
v -0.11298800 0.06750000 0.09745800
v -0.00766000 0.06750000 0.00642800
v -0.10524600 0.06750000 0.10875400
v -0.00642800 0.06750000 0.00766000
v -0.00500000 0.06750000 0.00866000
v -0.00342000 0.06750000 0.00939700
v -0.00173600 -0.07050000 0.71484800
v 0.00000000 0.07050000 0.71500000
v 0.00000000 -0.07050000 0.71500000
v 0.00173600 0.07050000 0.71484800
v 0.00173600 -0.07050000 0.71484800
v 0.00342000 0.07050000 0.71439700
v 0.00342000 -0.07050000 0.71439700
v 0.00500000 0.07050000 0.71366000
v 0.00500000 -0.07050000 0.71366000
v 0.00642800 0.07050000 0.71266000
v 0.00642800 -0.07050000 0.71266000
v 0.00766000 0.07050000 0.71142800
v 0.00766000 -0.07050000 0.71142800
v 0.00866000 0.07050000 0.71000000
v 0.00866000 -0.07050000 0.71000000
v 0.00939700 0.07050000 0.70842000
v 0.00939700 -0.07050000 0.70842000
v 0.00984800 0.07050000 0.70673700
v 0.00984800 -0.07050000 0.70673700
v 0.01000000 0.07050000 0.70500000
v 0.01000000 -0.07050000 0.70500000
v 0.00984800 0.07050000 0.70326400
v 0.00984800 -0.07050000 0.70326400
v 0.00939700 0.07050000 0.70158000
v 0.00939700 -0.07050000 0.70158000
v 0.00866000 0.07050000 0.70000000
v 0.00866000 -0.07050000 0.70000000
v 0.00766000 0.07050000 0.69857200
v 0.00766000 -0.07050000 0.69857200
v 0.00642800 0.07050000 0.69734000
v 0.00642800 -0.07050000 0.69734000
v 0.00500000 0.07050000 0.69634000
v 0.00500000 -0.07050000 0.69634000
v 0.00342000 0.07050000 0.69560300
v 0.00342000 -0.07050000 0.69560300
v 0.00173600 0.07050000 0.69515200
v 0.00173600 -0.07050000 0.69515200
v 0.00000000 0.07050000 0.69500000
v 0.00000000 -0.07050000 0.69500000
v -0.00173600 0.07050000 0.69515200
v -0.00173600 -0.07050000 0.69515200
v -0.00342000 0.07050000 0.69560300
v -0.00342000 -0.07050000 0.69560300
v -0.00500000 0.07050000 0.69634000
v -0.00500000 -0.07050000 0.69634000
v -0.00642800 0.07050000 0.69734000
v -0.00642800 -0.07050000 0.69734000
v -0.00766000 0.07050000 0.69857200
v -0.00766000 -0.07050000 0.69857200
v -0.00866000 0.07050000 0.70000000
v -0.00866000 -0.07050000 0.70000000
v -0.00939700 0.07050000 0.70158000
v -0.00939700 -0.07050000 0.70158000
v -0.00984800 0.07050000 0.70326400
v -0.00984800 -0.07050000 0.70326400
v -0.01000000 0.07050000 0.70500000
v -0.01000000 -0.07050000 0.70500000
v -0.00984800 0.07050000 0.70673700
v -0.00984800 -0.07050000 0.70673700
v -0.00939700 0.07050000 0.70842000
v -0.00939700 -0.07050000 0.70842000
v -0.00866000 0.07050000 0.71000000
v -0.00866000 -0.07050000 0.71000000
v -0.00766000 0.07050000 0.71142800
v -0.00766000 -0.07050000 0.71142800
v -0.00642800 0.07050000 0.71266000
v -0.00642800 -0.07050000 0.71266000
v -0.00500000 0.07050000 0.71366000
v -0.00500000 -0.07050000 0.71366000
v -0.00342000 0.07050000 0.71439700
v -0.00342000 -0.07050000 0.71439700
v -0.00173600 0.07050000 0.71484800
v 0.03365300 0.07050000 0.71534500
v 0.03365300 -0.07050000 0.71534500
v 0.03850900 0.07050000 0.70681000
v 0.03850900 -0.07050000 0.70681000
v 0.02738800 0.07050000 0.72290700
v 0.02738800 -0.07050000 0.72290700
v 0.01990600 0.07050000 0.72926700
v 0.01990600 -0.07050000 0.72926700
v 0.01143300 0.07050000 0.73423000
v 0.01143300 -0.07050000 0.73423000
v 0.00184000 0.07050000 0.73633200
v 0.00184000 -0.07050000 0.73633200
v -0.00793200 0.07050000 0.73536800
v -0.00793200 -0.07050000 0.73536800
v -0.01692800 0.07050000 0.73143000
v -0.01692800 -0.07050000 0.73143000
v -0.02426700 0.07050000 0.72490600
v -0.02426700 -0.07050000 0.72490600
v -0.02923000 0.07050000 0.71643300
v -0.02923000 -0.07050000 0.71643300
v -0.03133200 0.07050000 0.70684100
v -0.03133200 -0.07050000 0.70684100
v -0.03036800 0.07050000 0.69706800
v -0.03036800 -0.07050000 0.69706800
v -0.02643000 0.07050000 0.68807200
v -0.02643000 -0.07050000 0.68807200
v -0.01950000 -0.07050000 0.68027700
v -0.01950000 0.07050000 0.68027700
v 0.10150800 0.07050000 0.52384600
v -0.01950000 0.07050000 0.56084200
v -0.01950000 0.07800000 0.50900000
v -0.01950000 0.00850000 0.51222900
v -0.01950000 0.00850000 0.44577100
v -0.01950000 0.07800000 0.44900000
v 0.00000000 -0.07000000 0.01000000
v 0.00173600 -0.07000000 0.00984800
v 0.00342000 -0.07000000 0.00939700
v 0.00500000 -0.07000000 0.00866000
v 0.00642800 -0.07000000 0.00766000
v 0.00766000 -0.07000000 0.00642800
v 0.00866000 -0.07000000 0.00500000
v 0.00939700 -0.07000000 0.00342000
v 0.00984800 -0.07000000 0.00173600
v 0.01000000 -0.07000000 0.00000000
v 0.00984800 -0.07000000 -0.00173600
v 0.00939700 -0.07000000 -0.00342000
v 0.00866000 -0.07000000 -0.00500000
v 0.00766000 -0.07000000 -0.00642800
v 0.00642800 -0.07000000 -0.00766000
v 0.00500000 -0.07000000 -0.00866000
v 0.00342000 -0.07000000 -0.00939700
v 0.00173600 -0.07000000 -0.00984800
v 0.00000000 -0.07000000 -0.01000000
v -0.00173600 -0.07000000 -0.00984800
v -0.00342000 -0.07000000 -0.00939700
v -0.00500000 -0.07000000 -0.00866000
v -0.00642800 -0.07000000 -0.00766000
v -0.00766000 -0.07000000 -0.00642800
v -0.00866000 -0.07000000 -0.00500000
v -0.00939700 -0.07000000 -0.00342000
v -0.00984800 -0.07000000 -0.00173600
v -0.01000000 -0.07000000 0.00000000
v -0.00984800 -0.07000000 0.00173600
v -0.00939700 -0.07000000 0.00342000
v -0.00866000 -0.07000000 0.00500000
v -0.00766000 -0.07000000 0.00642800
v -0.00642800 -0.07000000 0.00766000
v -0.00500000 -0.07000000 0.00866000
v -0.00342000 -0.07000000 0.00939700
v -0.00173600 -0.07000000 0.00984800
v 0.06200000 -0.07000000 0.16233300
v -0.01950000 -0.07000000 0.16233300
v 0.06200000 0.03800000 0.06500000
v 0.06200000 -0.03450000 0.06500000
v 0.06200000 -0.07000000 0.00000000
v 0.14800400 -0.07000000 0.00000000
v 0.14459800 -0.03450000 0.06500000
v 0.14459800 0.03800000 0.06500000
v 0.14518300 0.08965500 -0.01600000
v 0.14518300 0.08965500 -0.01600000
v 0.14800400 0.08600000 0.00000000
v 0.00000000 0.09000000 0.01000000
v 0.00173600 0.09000000 0.00984800
v 0.00342000 0.09000000 0.00939700
v 0.00500000 0.09000000 0.00866000
v 0.00642800 0.09000000 0.00766000
v 0.00766000 0.09000000 0.00642800
v 0.00866000 0.09000000 0.00500000
v 0.00939700 0.09000000 0.00342000
v 0.00984800 0.09000000 0.00173600
v 0.01000000 0.09000000 0.00000000
v 0.00984800 0.09000000 -0.00173600
v 0.00939700 0.09000000 -0.00342000
v 0.00866000 0.09000000 -0.00500000
v 0.00766000 0.09000000 -0.00642800
v 0.00642800 0.09000000 -0.00766000
v 0.00500000 0.09000000 -0.00866000
v 0.00342000 0.09000000 -0.00939700
v 0.00173600 0.09000000 -0.00984800
v 0.00000000 0.09000000 -0.01000000
v -0.00173600 0.09000000 -0.00984800
v -0.00342000 0.09000000 -0.00939700
v -0.00500000 0.09000000 -0.00866000
v -0.00642800 0.09000000 -0.00766000
v -0.00766000 0.09000000 -0.00642800
v -0.00866000 0.09000000 -0.00500000
v -0.00939700 0.09000000 -0.00342000
v -0.00984800 0.09000000 -0.00173600
v -0.01000000 0.09000000 0.00000000
v -0.00984800 0.09000000 0.00173600
v -0.00939700 0.09000000 0.00342000
v -0.00866000 0.09000000 0.00500000
v -0.00766000 0.09000000 0.00642800
v -0.00642800 0.09000000 0.00766000
v -0.00500000 0.09000000 0.00866000
v -0.00342000 0.09000000 0.00939700
v -0.00173600 0.09000000 0.00984800
v 0.10568100 0.09000000 0.51172800
v -0.01550000 0.09000000 0.54877700
v -0.01950000 0.08600000 0.55222400
v -0.01550000 0.09000000 0.16483300
v -0.01950000 0.08600000 0.16233300
v -0.10524600 0.09000000 0.10875400
v -0.11298800 0.09000000 0.09745800
v -0.11506300 0.09000000 0.08392100
v -0.07315600 0.09000000 -0.05315100
v -0.02794300 0.09000000 -0.08600000
v 0.09432500 0.09000000 -0.08600000
v 0.13112600 0.09000000 -0.05926200
v 0.14488500 0.09000000 -0.01691600
v 0.14129900 -0.04000000 0.51886100
v 0.15106600 -0.04000000 0.49049600
v 0.14129900 0.04000000 0.51886100
v 0.15106600 0.04000000 0.49049600
v 0.13215600 -0.04000000 0.48398500
v 0.12238900 -0.04000000 0.51235000
v 0.13215600 -0.09500000 0.48398500
v 0.12238900 -0.09500000 0.51235000
v 0.09811700 -0.09500000 0.47226400
v 0.08835000 -0.09500000 0.50063000
v 0.08835000 0.09500000 0.50063000
v 0.09811700 0.09500000 0.47226400
v 0.08835000 0.09000000 0.50063000
v 0.09811700 0.09000000 0.47226400
v 0.12238900 0.09500000 0.51235000
v 0.13215600 0.09500000 0.48398500
v 0.12238900 0.04000000 0.51235000
v 0.13215600 0.04000000 0.48398500
v 0.10568100 -0.09000000 0.51172800
v 0.10150800 -0.07050000 0.52384600
v -0.01950000 -0.07050000 0.56084200
v -0.01950000 -0.07000000 0.08581200
v -0.01950000 -0.08600000 0.08581200
v -0.01950000 -0.08600000 0.55222400
v 0.09432500 -0.07000000 -0.08600000
v -0.02794300 -0.07000000 -0.08600000
v 0.13112600 -0.07000000 -0.05926200
v 0.14518300 -0.07000000 -0.01600000
v -0.07315600 -0.07000000 -0.05315100
v -0.08785300 -0.07000000 -0.00507800
v -0.02901600 -0.07000000 0.08307900
v -0.07319500 -0.07000000 0.04885200
v 0.14800400 -0.08600000 0.00000000
v 0.14518300 -0.08965500 -0.01600000
v 0.14518300 -0.08965500 -0.01600000
v 0.12396900 0.08600000 0.45861500
v 0.12396900 -0.08600000 0.45861500
v 0.11924500 0.09000000 0.47233600
v 0.11924500 0.09000000 0.47233600
v 0.11135400 0.09000000 0.51368200
v 0.11752100 0.09000000 0.51067400
v 0.11865500 0.09000000 0.47404800
v 0.12742800 0.09000000 0.48235700
v 0.12432800 0.09000000 0.47600100
v 0.01443400 -0.14000000 0.02500000
v -0.01443400 -0.14000000 0.02500000
v 0.02886700 -0.14000000 0.00000000
v -0.02886700 -0.14000000 0.00000000
v 0.01443400 -0.14000000 -0.02500000
v -0.01443400 -0.14000000 -0.02500000
v 0.12742800 -0.09000000 0.48235700
v 0.12432800 -0.09000000 0.47600100
v 0.09811700 -0.09000000 0.47226400
v 0.08835000 -0.09000000 0.50063000
v 0.11752100 -0.09000000 0.51067400
v 0.11135400 -0.09000000 0.51368200
v -0.01550000 -0.09000000 0.54877700
v -0.01550000 -0.09000000 0.08581200
v -0.07315600 -0.09000000 -0.05315100
v -0.08785300 -0.09000000 -0.00507800
v -0.02794300 -0.09000000 -0.08600000
v 0.09432500 -0.09000000 -0.08600000
v 0.13112600 -0.09000000 -0.05926200
v 0.14488500 -0.09000000 -0.01691600
v 0.11924500 -0.09000000 0.47233600
v 0.11865500 -0.09000000 0.47404800
v 0.02886700 -0.09000000 0.00000000
v 0.01443400 -0.09000000 0.02500000
v 0.01443400 -0.09000000 -0.02500000
v -0.01443400 -0.09000000 -0.02500000
v -0.02886700 -0.09000000 0.00000000
v -0.01443400 -0.09000000 0.02500000
v -0.01950000 -0.09000000 0.08581200
v -0.02901600 -0.09000000 0.08307900
v -0.07319500 -0.09000000 0.04885200
v 0.00342000 -0.07050000 0.71439700
v 0.00500000 -0.07050000 0.71366000
v -0.00342000 0.09000000 -0.00939700
v -0.00500000 0.09000000 -0.00866000
v 0.00766000 -0.07000000 0.00642800
v 0.00866000 -0.07000000 0.00500000
v -0.02923000 0.07050000 0.71643300
v -0.03133200 0.07050000 0.70684100
v 0.02886700 -0.14000000 0.00000000
v 0.02886700 -0.14000000 0.00000000
v 0.02886700 -0.09000000 0.00000000
v 0.02886700 -0.09000000 0.00000000
v -0.01692800 -0.07050000 0.73143000
v -0.02426700 -0.07050000 0.72490600
v -0.00500000 -0.09000000 0.00866000
v -0.00342000 -0.09000000 0.00939700
v -0.02794300 -0.07000000 -0.08600000
v -0.02794300 -0.07000000 -0.08600000
v -0.07315600 -0.07000000 -0.05315100
v -0.07315600 -0.07000000 -0.05315100
v -0.01000000 0.09000000 0.00000000
v -0.00984800 0.09000000 0.00173600
v -0.02886700 -0.09000000 0.00000000
v -0.02886700 -0.09000000 0.00000000
v -0.01443400 -0.09000000 0.02500000
v -0.01443400 -0.09000000 0.02500000
v 0.14518300 0.08965500 -0.01600000
v 0.14488500 0.09000000 -0.01691600
v 0.14488500 0.09000000 -0.01691600
v 0.14488500 0.09000000 -0.01691600
v 0.13215600 -0.04000000 0.48398500
v 0.13215600 -0.04000000 0.48398500
v 0.13215600 -0.09500000 0.48398500
v 0.13215600 -0.09500000 0.48398500
v 0.14800400 0.08600000 0.00000000
v -0.00984800 -0.07050000 0.70673700
v -0.00939700 -0.07050000 0.70842000
v 0.00342000 0.07050000 0.69560300
v 0.00173600 0.07050000 0.69515200
v 0.03365300 -0.07050000 0.71534500
v 0.02738800 -0.07050000 0.72290700
v -0.00866000 0.06750000 0.00500000
v -0.00766000 0.06750000 0.00642800
v 0.08835000 0.09000000 0.50063000
v 0.08835000 0.09000000 0.50063000
v 0.11752100 0.09000000 0.51067400
v 0.11752100 0.09000000 0.51067400
v -0.01950000 0.07050000 0.56084200
v -0.01950000 0.07050000 0.56084200
v -0.01950000 0.08600000 0.55222400
v -0.01950000 0.08600000 0.55222400
v 0.00500000 0.09000000 -0.00866000
v 0.00342000 0.09000000 -0.00939700
v -0.01443400 -0.14000000 0.02500000
v -0.01443400 -0.14000000 0.02500000
v -0.02886700 -0.14000000 0.00000000
v -0.02886700 -0.14000000 0.00000000
v 0.00342000 -0.07000000 -0.00939700
v 0.00173600 -0.07000000 -0.00984800
v 0.01443400 -0.14000000 0.02500000
v 0.01443400 -0.14000000 0.02500000
v 0.00984800 -0.07050000 0.70326400
v 0.00939700 -0.07050000 0.70158000
v -0.02350000 0.07800000 0.45045600
v -0.02350000 0.07800000 0.45045600
v -0.02350000 0.00850000 0.44722700
v -0.02350000 0.00850000 0.44722700
v -0.11298800 0.09000000 0.09745800
v -0.11506300 0.09000000 0.08392100
v -0.01443400 -0.14000000 -0.02500000
v -0.01443400 -0.14000000 -0.02500000
v -0.01443400 -0.09000000 -0.02500000
v -0.01443400 -0.09000000 -0.02500000
v -0.02350000 0.07800000 0.50754400
v -0.02350000 0.07800000 0.50754400
v -0.01950000 -0.07050000 0.68027700
v -0.01950000 -0.07050000 0.68027700
v -0.01950000 -0.07050000 0.56084200
v -0.01950000 -0.07050000 0.56084200
v -0.00984800 0.09000000 -0.00173600
v 0.09432500 -0.09000000 -0.08600000
v 0.09432500 -0.09000000 -0.08600000
v 0.13112600 -0.09000000 -0.05926200
v 0.13112600 -0.09000000 -0.05926200
v 0.00984800 0.06750000 -0.00173600
v 0.01000000 0.06750000 0.00000000
v 0.12238900 -0.04000000 0.51235000
v 0.12238900 -0.04000000 0.51235000
v 0.00939700 0.07050000 0.70842000
v 0.00984800 0.07050000 0.70673700
v -0.00642800 -0.09000000 0.00766000
v -0.00984800 -0.09000000 0.00173600
v -0.00939700 -0.09000000 0.00342000
v 0.00939700 0.09000000 0.00342000
v 0.00984800 0.09000000 0.00173600
v -0.00342000 -0.07050000 0.69560300
v -0.00500000 -0.07050000 0.69634000
v 0.00642800 0.06750000 -0.00766000
v 0.00766000 0.06750000 -0.00642800
v 0.11752100 -0.09000000 0.51067400
v 0.11752100 -0.09000000 0.51067400
v -0.00984800 0.06750000 -0.00173600
v -0.01000000 0.06750000 0.00000000
v -0.00984800 0.07050000 0.70673700
v -0.00939700 0.07050000 0.70842000
v -0.01550000 0.09000000 0.54877700
v -0.01550000 0.09000000 0.54877700
v 0.06200000 0.03800000 0.06500000
v 0.06200000 0.03800000 0.06500000
v 0.06200000 -0.03450000 0.06500000
v 0.06200000 -0.03450000 0.06500000
v 0.00000000 -0.07000000 0.01000000
v 0.00173600 -0.07000000 0.00984800
v -0.02901600 -0.07000000 0.08307900
v -0.07319500 -0.07000000 0.04885200
v -0.07319500 -0.07000000 0.04885200
v 0.12238900 0.09500000 0.51235000
v 0.12238900 0.09500000 0.51235000
v 0.12238900 0.04000000 0.51235000
v 0.12238900 0.04000000 0.51235000
v -0.01950000 0.06750000 0.16233300
v -0.01950000 0.06750000 0.16233300
v -0.01950000 0.06750000 0.16233300
v 0.06200000 0.06750000 0.16233300
v 0.06200000 0.06750000 0.16233300
v 0.00000000 -0.07050000 0.69500000
v -0.00173600 -0.07050000 0.69515200
v -0.00766000 0.06750000 -0.00642800
v -0.00642800 0.06750000 -0.00766000
v 0.00939700 -0.07000000 -0.00342000
v 0.00866000 -0.07000000 -0.00500000
v 0.03365300 0.07050000 0.71534500
v 0.03850900 0.07050000 0.70681000
v 0.00342000 0.06750000 0.00939700
v 0.00500000 0.06750000 0.00866000
v -0.00173600 -0.07000000 0.00984800
v -0.02350000 0.00850000 0.51077300
v -0.02350000 0.00850000 0.51077300
v -0.00173600 -0.07050000 0.71484800
v 0.00000000 -0.07050000 0.71500000
v -0.02426700 0.07050000 0.72490600
v -0.02794300 -0.09000000 -0.08600000
v -0.02794300 -0.09000000 -0.08600000
v -0.08785300 -0.09000000 -0.00507800
v -0.08785300 -0.09000000 -0.00507800
v -0.07319500 -0.09000000 0.04885200
v -0.07319500 -0.09000000 0.04885200
v 0.00500000 0.07050000 0.69634000
v 0.00939700 0.06750000 -0.00342000
v -0.00866000 -0.09000000 0.00500000
v -0.00766000 -0.09000000 0.00642800
v -0.02794300 0.06750000 -0.08600000
v -0.02794300 0.06750000 -0.08600000
v 0.09432500 0.06750000 -0.08600000
v 0.09432500 0.06750000 -0.08600000
v -0.01950000 -0.07000000 0.08581200
v -0.01950000 -0.07000000 0.08581200
v -0.01950000 -0.07000000 0.16233300
v -0.01950000 -0.07000000 0.16233300
v -0.00342000 0.07050000 0.69560300
v -0.00500000 0.07050000 0.69634000
v -0.01000000 -0.09000000 0.00000000
v 0.01000000 0.09000000 0.00000000
v -0.07315600 -0.09000000 -0.05315100
v -0.07315600 -0.09000000 -0.05315100
v 0.00866000 0.06750000 0.00500000
v 0.00939700 0.06750000 0.00342000
v -0.01000000 -0.07050000 0.70500000
v 0.03850900 -0.07050000 0.70681000
v 0.00000000 0.06750000 -0.01000000
v 0.00173600 0.06750000 -0.00984800
v -0.00984800 -0.07000000 -0.00173600
v -0.01000000 -0.07000000 0.00000000
v 0.00939700 -0.07050000 0.70842000
v 0.00984800 -0.07050000 0.70673700
v -0.02923000 -0.07050000 0.71643300
v -0.00642800 0.09000000 -0.00766000
v 0.00984800 -0.07000000 -0.00173600
v -0.00173600 0.06750000 0.00984800
v -0.00342000 0.06750000 0.00939700
v 0.10150800 0.07050000 0.52384600
v 0.10150800 0.07050000 0.52384600
v -0.00173600 -0.09000000 0.00984800
v -0.00866000 0.07050000 0.71000000
v -0.00642800 0.09000000 0.00766000
v -0.00500000 0.09000000 0.00866000
v -0.00984800 -0.07000000 0.00173600
v 0.14488500 -0.09000000 -0.01691600
v 0.14488500 -0.09000000 -0.01691600
v 0.14488500 -0.09000000 -0.01691600
v 0.11924500 -0.09000000 0.47233600
v 0.11924500 -0.09000000 0.47233600
v 0.11924500 -0.09000000 0.47233600
v 0.13112600 0.09000000 -0.05926200
v 0.13112600 0.09000000 -0.05926200
v 0.13215600 0.09500000 0.48398500
v 0.13215600 0.09500000 0.48398500
v 0.13215600 0.04000000 0.48398500
v 0.13215600 0.04000000 0.48398500
v -0.08785300 -0.07000000 -0.00507800
v -0.08785300 -0.07000000 -0.00507800
v -0.01950000 0.07800000 0.50900000
v -0.01950000 0.07800000 0.50900000
v -0.01950000 0.00850000 0.51222900
v -0.01950000 0.00850000 0.51222900
v 0.00500000 -0.07050000 0.69634000
v 0.00342000 -0.07050000 0.69560300
v 0.12742800 -0.09000000 0.48235700
v 0.12742800 -0.09000000 0.48235700
v 0.09811700 -0.09000000 0.47226400
v 0.09811700 -0.09000000 0.47226400
v 0.02738800 0.07050000 0.72290700
v -0.11298800 0.06750000 0.09745800
v -0.10524600 0.06750000 0.10875400
v -0.00939700 -0.07000000 -0.00342000
v 0.00984800 0.07050000 0.70326400
v 0.00939700 0.07050000 0.70158000
v 0.12742800 0.09000000 0.48235700
v 0.12742800 0.09000000 0.48235700
v 0.12432800 0.09000000 0.47600100
v 0.12432800 0.09000000 0.47600100
v -0.00642800 0.07050000 0.69734000
v 0.00173600 0.09000000 -0.00984800
v 0.00184000 -0.07050000 0.73633200
v -0.00793200 -0.07050000 0.73536800
v 0.01000000 -0.07000000 0.00000000
v -0.01692800 0.07050000 0.73143000
v 0.09432500 0.09000000 -0.08600000
v 0.09432500 0.09000000 -0.08600000
v -0.00766000 0.09000000 0.00642800
v 0.14129900 -0.04000000 0.51886100
v 0.14129900 -0.04000000 0.51886100
v 0.14129900 0.04000000 0.51886100
v 0.14129900 0.04000000 0.51886100
v -0.00984800 0.06750000 0.00173600
v -0.00939700 0.06750000 0.00342000
v -0.00342000 0.06750000 -0.00939700
v -0.00500000 0.06750000 -0.00866000
v -0.00766000 -0.09000000 -0.00642800
v -0.00866000 -0.09000000 -0.00500000
v -0.00939700 -0.09000000 -0.00342000
v -0.00984800 -0.09000000 -0.00173600
v 0.00984800 0.09000000 -0.00173600
v 0.00939700 0.09000000 -0.00342000
v -0.01550000 -0.09000000 0.54877700
v -0.01550000 -0.09000000 0.54877700
v -0.01550000 -0.09000000 0.08581200
v -0.01550000 -0.09000000 0.08581200
v 0.10568100 0.09000000 0.51172800
v 0.10568100 0.09000000 0.51172800
v 0.10568100 0.09000000 0.51172800
v 0.14800400 -0.07000000 0.00000000
v 0.14459800 -0.03450000 0.06500000
v 0.14459800 -0.03450000 0.06500000
v -0.01950000 0.00850000 0.44577100
v -0.01950000 0.00850000 0.44577100
v -0.00984800 -0.07050000 0.70326400
v 0.00000000 0.07050000 0.69500000
v -0.00173600 0.07050000 0.69515200
v -0.00642800 -0.09000000 -0.00766000
v 0.11924500 0.09000000 0.47233600
v 0.11924500 0.09000000 0.47233600
v 0.11924500 0.09000000 0.47233600
v -0.00173600 -0.09000000 -0.00984800
v -0.00342000 -0.09000000 -0.00939700
v -0.00500000 -0.09000000 -0.00866000
v 0.00766000 -0.07000000 -0.00642800
v -0.01950000 0.07050000 0.68027700
v -0.01950000 0.07050000 0.68027700
v 0.06200000 0.06750000 0.00000000
v 0.00642800 -0.07050000 0.71266000
v 0.00766000 -0.07050000 0.71142800
v 0.00000000 -0.09000000 0.01000000
v 0.00173600 -0.09000000 0.00984800
v -0.00866000 0.09000000 0.00500000
v 0.01443400 -0.09000000 0.02500000
v 0.01443400 -0.09000000 0.02500000
v -0.00766000 0.07050000 0.71142800
v 0.15106600 -0.04000000 0.49049600
v 0.15106600 -0.04000000 0.49049600
v 0.00866000 -0.07050000 0.70000000
v 0.00766000 -0.07050000 0.69857200
v 0.00866000 0.09000000 -0.00500000
v 0.01990600 0.07050000 0.72926700
v 0.00342000 -0.09000000 0.00939700
v 0.00500000 -0.09000000 0.00866000
v 0.12396900 -0.08600000 0.45861500
v 0.14800400 -0.08600000 0.00000000
v 0.09811700 -0.09500000 0.47226400
v 0.09811700 -0.09500000 0.47226400
v 0.14459800 0.03800000 0.06500000
v 0.14459800 0.03800000 0.06500000
v -0.01950000 0.07800000 0.44900000
v -0.01950000 0.07800000 0.44900000
v -0.00766000 -0.07000000 -0.00642800
v -0.00866000 -0.07000000 -0.00500000
v -0.03036800 0.07050000 0.69706800
v 0.00342000 0.06750000 -0.00939700
v 0.11865500 0.09000000 0.47404800
v 0.11865500 0.09000000 0.47404800
v 0.01000000 -0.09000000 0.00000000
v 0.00984800 -0.09000000 -0.00173600
v 0.00766000 0.07050000 0.71142800
v 0.00866000 0.07050000 0.71000000
v -0.11506300 0.06750000 0.08392100
v 0.10568100 -0.09000000 0.51172800
v 0.10568100 -0.09000000 0.51172800
v 0.10568100 -0.09000000 0.51172800
v 0.10568100 -0.09000000 0.51172800
v 0.00939700 -0.07000000 0.00342000
v 0.00984800 -0.07000000 0.00173600
v -0.00766000 0.07050000 0.69857200
v -0.00342000 0.09000000 0.00939700
v -0.00939700 -0.07000000 0.00342000
v 0.00766000 0.07050000 0.69857200
v 0.00642800 0.07050000 0.69734000
v -0.07315600 0.09000000 -0.05315100
v -0.07315600 0.09000000 -0.05315100
v -0.02794300 0.09000000 -0.08600000
v -0.02794300 0.09000000 -0.08600000
v -0.00866000 -0.07050000 0.71000000
v 0.01990600 -0.07050000 0.72926700
v 0.00766000 0.09000000 -0.00642800
v -0.01950000 -0.09000000 0.08581200
v -0.02901600 -0.09000000 0.08307900
v -0.00642800 0.06750000 0.00766000
v 0.00984800 0.06750000 0.00173600
v 0.06200000 -0.07000000 0.00000000
v 0.08835000 -0.09500000 0.50063000
v 0.08835000 -0.09500000 0.50063000
v 0.08835000 -0.09000000 0.50063000
v 0.08835000 -0.09000000 0.50063000
v -0.01000000 0.07050000 0.70500000
v -0.03133200 -0.07050000 0.70684100
v -0.03036800 -0.07050000 0.69706800
v -0.00500000 0.06750000 0.00866000
v 0.00642800 -0.07000000 -0.00766000
v 0.00500000 -0.07000000 -0.00866000
v 0.11135400 -0.09000000 0.51368200
v 0.11135400 -0.09000000 0.51368200
v 0.00000000 0.09000000 -0.01000000
v 0.00642800 -0.09000000 0.00766000
v 0.00766000 -0.09000000 0.00642800
v 0.00866000 -0.07050000 0.71000000
v -0.00939700 0.09000000 0.00342000
v -0.00642800 -0.07050000 0.69734000
v 0.00184000 0.07050000 0.73633200
v -0.00793200 0.07050000 0.73536800
v 0.00766000 -0.09000000 -0.00642800
v 0.00866000 -0.09000000 -0.00500000
v 0.15106600 0.04000000 0.49049600
v 0.15106600 0.04000000 0.49049600
v 0.00642800 -0.07050000 0.69734000
v -0.01950000 -0.08600000 0.55222400
v -0.01950000 -0.08600000 0.55222400
v -0.01950000 -0.08600000 0.55222400
v 0.09811700 0.09500000 0.47226400
v 0.09811700 0.09500000 0.47226400
v 0.09811700 0.09000000 0.47226400
v 0.09811700 0.09000000 0.47226400
v 0.10150800 -0.07050000 0.52384600
v 0.10150800 -0.07050000 0.52384600
v 0.14800400 0.06750000 0.00000000
v 0.00642800 0.09000000 -0.00766000
v 0.01143300 -0.07050000 0.73423000
v 0.00866000 0.09000000 0.00500000
v 0.06200000 -0.07000000 0.16233300
v 0.06200000 -0.07000000 0.16233300
v 0.12432800 -0.09000000 0.47600100
v 0.12432800 -0.09000000 0.47600100
v 0.00642800 0.07050000 0.71266000
v 0.00642800 0.06750000 0.00766000
v 0.14518300 0.06750000 -0.01600000
v 0.13112600 0.06750000 -0.05926200
v 0.13112600 0.06750000 -0.05926200
v 0.00939700 -0.09000000 0.00342000
v 0.00984800 -0.09000000 0.00173600
v -0.00642800 -0.07050000 0.71266000
v -0.00500000 -0.07050000 0.71366000
v 0.00866000 0.07050000 0.70000000
v -0.01550000 0.09000000 0.16483300
v -0.01550000 0.09000000 0.16483300
v -0.10524600 0.09000000 0.10875400
v -0.02643000 -0.07050000 0.68807200
v -0.00866000 -0.07050000 0.70000000
v -0.00939700 -0.07050000 0.70158000
v 0.00000000 0.07050000 0.71500000
v 0.00173600 0.07050000 0.71484800
v -0.00173600 0.09000000 -0.00984800
v 0.00866000 -0.09000000 0.00500000
v -0.00173600 0.09000000 0.00984800
v -0.00866000 -0.07000000 0.00500000
v 0.00939700 -0.09000000 -0.00342000
v -0.02643000 0.07050000 0.68807200
v -0.00173600 -0.07000000 -0.00984800
v -0.00342000 -0.07000000 -0.00939700
v 0.01143300 0.07050000 0.73423000
v -0.00642800 0.07050000 0.71266000
v -0.00500000 0.07050000 0.71366000
v -0.00939700 0.06750000 -0.00342000
v 0.12396900 0.08600000 0.45861500
v 0.00000000 0.09000000 0.01000000
v 0.00500000 -0.09000000 -0.00866000
v 0.00342000 -0.09000000 -0.00939700
v -0.00173600 0.06750000 -0.00984800
v 0.00642800 -0.09000000 -0.00766000
v 0.11865500 -0.09000000 0.47404800
v 0.11865500 -0.09000000 0.47404800
v -0.00866000 0.07050000 0.70000000
v -0.00939700 0.07050000 0.70158000
v -0.00766000 -0.07000000 0.00642800
v -0.01950000 -0.08600000 0.08581200
v -0.01950000 -0.08600000 0.08581200
v 0.00173600 0.09000000 0.00984800
v 0.00500000 0.07050000 0.71366000
v 0.01443400 -0.09000000 -0.02500000
v 0.01443400 -0.09000000 -0.02500000
v 0.00500000 0.06750000 -0.00866000
v 0.12238900 -0.09500000 0.51235000
v 0.12238900 -0.09500000 0.51235000
v 0.00500000 -0.07000000 0.00866000
v 0.00642800 -0.07000000 0.00766000
v -0.00766000 -0.07050000 0.71142800
v 0.11135400 0.09000000 0.51368200
v 0.11135400 0.09000000 0.51368200
v 0.00000000 -0.07000000 -0.01000000
v 0.00766000 0.09000000 0.00642800
v -0.00766000 -0.07050000 0.69857200
v -0.00342000 -0.07050000 0.71439700
v 0.00866000 0.06750000 -0.00500000
v -0.00866000 0.09000000 -0.00500000
v -0.00939700 0.09000000 -0.00342000
v 0.00000000 -0.09000000 -0.01000000
v 0.00173600 -0.09000000 -0.00984800
v 0.14518300 -0.07000000 -0.01600000
v 0.08835000 0.09500000 0.50063000
v 0.08835000 0.09500000 0.50063000
v 0.14518300 -0.08965500 -0.01600000
v -0.00342000 0.07050000 0.71439700
v -0.01950000 0.08600000 0.16233300
v -0.01950000 0.08600000 0.16233300
v 0.00342000 -0.07000000 0.00939700
v -0.00984800 0.07050000 0.70326400
v 0.00173600 -0.07050000 0.71484800
v 0.00000000 0.06750000 0.01000000
v -0.07315600 0.06750000 -0.05315100
v -0.07315600 0.06750000 -0.05315100
v -0.00642800 -0.07000000 0.00766000
v -0.00500000 -0.07000000 0.00866000
v 0.09432500 -0.07000000 -0.08600000
v 0.09432500 -0.07000000 -0.08600000
v 0.13112600 -0.07000000 -0.05926200
v 0.13112600 -0.07000000 -0.05926200
v 0.00766000 0.06750000 0.00642800
v 0.00342000 0.09000000 0.00939700
v 0.00500000 0.09000000 0.00866000
v 0.01443400 -0.14000000 -0.02500000
v 0.01443400 -0.14000000 -0.02500000
v 0.01000000 -0.07050000 0.70500000
v 0.00173600 0.06750000 0.00984800
v -0.00500000 -0.07000000 -0.00866000
v 0.00342000 0.07050000 0.71439700
v -0.00766000 0.09000000 -0.00642800
v -0.00342000 -0.07000000 0.00939700
v 0.00173600 -0.07050000 0.69515200
v 0.00642800 0.09000000 0.00766000
v -0.00173600 0.07050000 0.71484800
v 0.01000000 0.07050000 0.70500000
v -0.00642800 -0.07000000 -0.00766000
v -0.00866000 0.06750000 -0.00500000
vn -0.00000000 1.00000000 -0.00000000
vn -0.00000000 1.00000000 -0.00000000
vn -0.00000000 -1.00000000 -0.00000000
vn -0.34170000 0.04360000 -0.93880000
vn 0.50000000 -0.00000000 0.86600000
vn -0.00000000 1.00000000 -0.00000000
vn -0.34200000 -0.00000000 -0.93970000
vn -0.00000000 1.00000000 -0.00000000
vn -0.00000000 1.00000000 -0.00000000
vn -0.64280000 -0.00000000 -0.76600000
vn -0.50000000 -0.00000000 -0.86600000
vn -0.00000000 1.00000000 -0.00000000
vn -0.00000000 1.00000000 -0.00000000
vn 0.34200000 -0.00000000 0.93970000
vn -0.17370000 -0.00000000 0.98480000
vn 0.76600000 -0.00000000 0.64280000
vn 0.50000000 -0.00000000 -0.86600000
vn 0.34200000 -0.00000000 -0.93970000
vn 0.17370000 -0.00000000 -0.98480000
vn -0.00000000 -0.00000000 -1.00000000
vn -0.00000000 1.00000000 -0.00000000
vn -0.64280000 -0.00000000 0.76600000
vn -0.76600000 -0.00000000 -0.64280000
vn -0.00000000 1.00000000 -0.00000000
vn -0.93970000 -0.00000000 -0.34200000
vn -0.98480000 -0.00000000 -0.17370000
vn -1.00000000 -0.00000000 -0.00000000
vn -0.00000000 1.00000000 -0.00000000
vn 0.93970000 -0.00000000 0.34200000
vn 0.98480000 -0.00000000 0.17360000
vn 1.00000000 -0.00000000 -0.00000000
vn 0.98480000 -0.00000000 -0.17370000
vn 0.93970000 -0.00000000 -0.34200000
vn 0.86600000 -0.00000000 -0.50000000
vn 0.76600000 -0.00000000 -0.64280000
vn 0.64280000 -0.00000000 -0.76600000
vn -0.98480000 -0.00000000 0.17360000
vn -0.93970000 -0.00000000 0.34200000
vn -0.00000000 1.00000000 -0.00000000
vn -0.00000000 1.00000000 -0.00000000
vn -0.00000000 -0.00000000 -1.00000000
vn -0.00000000 -0.00000000 1.00000000
vn 0.17370000 -0.00000000 0.98480000
vn 0.17370000 -0.00000000 -0.98480000
vn -0.00000000 -0.00000000 -1.00000000
vn -1.00000000 -0.00000000 -0.00000000
vn -0.00000000 -1.00000000 -0.00000000
vn 0.86600000 -0.00000000 0.50000000
vn -0.58780000 -0.00000000 -0.80900000
vn -0.86600000 -0.00000000 -0.50000000
vn -0.93970000 -0.00000000 -0.34200000
vn -1.00000000 -0.00000000 -0.00000000
vn -0.98480000 -0.00000000 -0.17370000
vn -0.64280000 -0.00000000 0.76600000
vn -0.00000000 -1.00000000 -0.00000000
vn 0.58780000 -0.00000000 -0.80900000
vn -0.34200000 -0.00000000 0.93970000
vn -0.17370000 -0.00000000 0.98480000
vn -0.00000000 -0.00000000 -1.00000000
vn -0.00000000 -1.00000000 -0.00000000
vn -0.00000000 -1.00000000 -0.00000000
vn -0.50000000 -0.00000000 -0.86600000
vn -0.00000000 -1.00000000 -0.00000000
vn -0.00000000 -0.97540000 -0.22060000
vn 0.93970000 -0.00000000 0.34200000
vn 0.98480000 -0.00000000 0.17360000
vn -0.00000000 -1.00000000 -0.00000000
vn 1.00000000 -0.00000000 -0.00000000
vn -0.00000000 -1.00000000 -0.00000000
vn -0.64280000 -0.00000000 -0.76600000
vn -0.00000000 -1.00000000 -0.00000000
vn 0.58780000 -0.00000000 -0.80900000
vn -0.98480000 -0.00000000 0.17360000
vn -1.00000000 -0.00000000 -0.00000000
vn -0.00000000 -1.00000000 -0.00000000
vn -0.86600000 -0.00000000 0.50000000
vn -0.76600000 -0.00000000 0.64280000
vn 0.34200000 -0.00000000 0.93970000
vn -0.00000000 -1.00000000 -0.00000000
vn 0.64280000 -0.00000000 0.76600000
vn 0.93970000 -0.00000000 -0.34200000
vn 0.86600000 -0.00000000 -0.50000000
vn -0.00000000 -1.00000000 -0.00000000
vn 0.76600000 -0.00000000 -0.64280000
vn -0.00000000 -1.00000000 -0.00000000
vn -0.00000000 -1.00000000 -0.00000000
vn -0.00000000 -1.00000000 -0.00000000
vn -0.00000000 -1.00000000 -0.00000000
vn -0.00000000 -1.00000000 -0.00000000
vn -0.00000000 1.00000000 -0.00000000
vn -0.00000000 -1.00000000 -0.00000000
vn -0.00000000 1.00000000 -0.00000000
vn -0.17370000 -0.00000000 -0.98480000
vn -0.00000000 1.00000000 -0.00000000
vn -0.00000000 -1.00000000 -0.00000000
vn -0.50000000 -0.00000000 -0.86600000
vn -0.00000000 -1.00000000 -0.00000000
vn -0.64280000 -0.00000000 -0.76600000
vn -0.00000000 -1.00000000 -0.00000000
vn -0.00000000 1.00000000 -0.00000000
vn -0.76600000 -0.00000000 -0.64280000
vn -0.86600000 -0.00000000 -0.50000000
vn -0.86600000 -0.00000000 -0.50000000
vn -0.00000000 1.00000000 -0.00000000
vn -0.00000000 -1.00000000 -0.00000000
vn -0.00000000 1.00000000 -0.00000000
vn -0.00000000 -1.00000000 -0.00000000
vn -1.00000000 -0.00000000 -0.00000000
vn -1.00000000 -0.00000000 -0.00000000
vn -0.98480000 -0.00000000 0.17360000
vn -0.00000000 -1.00000000 -0.00000000
vn -0.00000000 1.00000000 -0.00000000
vn -0.00000000 -1.00000000 -0.00000000
vn -0.86600000 -0.00000000 0.50000000
vn -0.00000000 -1.00000000 -0.00000000
vn -0.76610000 -0.00000000 0.64280000
vn -0.76600000 -0.00000000 0.64280000
vn -0.00000000 1.00000000 -0.00000000
vn -0.64280000 -0.00000000 0.76600000
vn -0.00000000 1.00000000 -0.00000000
vn -0.00000000 -1.00000000 -0.00000000
vn -0.00000000 1.00000000 -0.00000000
vn -0.00000000 -1.00000000 -0.00000000
vn -0.00000000 1.00000000 -0.00000000
vn -0.00000000 -1.00000000 -0.00000000
vn -0.00000000 1.00000000 -0.00000000
vn -0.00000000 -1.00000000 -0.00000000
vn -0.00000000 1.00000000 -0.00000000
vn -0.00000000 -1.00000000 -0.00000000
vn -0.00000000 1.00000000 -0.00000000
vn -0.00000000 -1.00000000 -0.00000000
vn -0.00000000 1.00000000 -0.00000000
vn 0.50000000 -0.00000000 0.86600000
vn 0.64280000 -0.00000000 0.76600000
vn -0.00000000 -1.00000000 -0.00000000
vn -0.00000000 1.00000000 -0.00000000
vn 0.76610000 -0.00000000 0.64280000
vn -0.00000000 1.00000000 -0.00000000
vn 0.86600000 -0.00000000 0.50000000
vn 0.93970000 -0.00000000 0.34210000
vn 0.93970000 -0.00000000 0.34200000
vn -0.00000000 1.00000000 -0.00000000
vn -0.00000000 -1.00000000 -0.00000000
vn -0.00000000 1.00000000 -0.00000000
vn -0.00000000 -1.00000000 -0.00000000
vn -0.00000000 1.00000000 -0.00000000
vn -0.00000000 -1.00000000 -0.00000000
vn 0.93970000 -0.00000000 -0.34200000
vn -0.00000000 -1.00000000 -0.00000000
vn -0.00000000 1.00000000 -0.00000000
vn 0.86600000 -0.00000000 -0.50000000
vn 0.76600000 -0.00000000 -0.64280000
vn 0.76610000 -0.00000000 -0.64280000
vn 0.64280000 -0.00000000 -0.76610000
vn -0.00000000 -1.00000000 -0.00000000
vn -0.00000000 1.00000000 -0.00000000
vn 0.50000000 -0.00000000 -0.86600000
vn -0.00000000 1.00000000 -0.00000000
vn -0.00000000 -1.00000000 -0.00000000
vn -0.00000000 1.00000000 -0.00000000
vn -0.00000000 1.00000000 -0.00000000
vn -0.00000000 -1.00000000 -0.00000000
vn 0.91130000 -0.00000000 0.41180000
vn 0.91130000 -0.00000000 0.41180000
vn 0.71160000 -0.00000000 0.70260000
vn -0.00000000 -1.00000000 -0.00000000
vn 0.57870000 -0.00000000 0.81550000
vn 0.57870000 -0.00000000 0.81550000
vn 0.36420000 -0.00000000 0.93130000
vn -0.00000000 -1.00000000 -0.00000000
vn 0.05860000 -0.00000000 0.99830000
vn 0.05860000 -0.00000000 0.99830000
vn -0.25270000 -0.00000000 0.96750000
vn -0.00000000 -1.00000000 -0.00000000
vn -0.00000000 1.00000000 -0.00000000
vn -0.00000000 -1.00000000 -0.00000000
vn -0.00000000 1.00000000 -0.00000000
vn -0.00000000 -1.00000000 -0.00000000
vn -0.00000000 1.00000000 -0.00000000
vn -0.00000000 -1.00000000 -0.00000000
vn -0.00000000 1.00000000 -0.00000000
vn -0.99830000 -0.00000000 0.05860000
vn -0.96750000 -0.00000000 -0.25270000
vn -0.96750000 -0.00000000 -0.25270000
vn -0.84210000 -0.00000000 -0.53930000
vn -0.84210000 -0.00000000 -0.53930000
vn -1.00000000 -0.00000000 -0.00000000
vn -1.00000000 -0.00000000 -0.00000000
vn 0.25810000 0.46950000 0.84440000
vn -0.00000000 1.00000000 -0.00000000
vn -0.00000000 1.00000000 -0.00000000
vn -1.00000000 -0.00000000 -0.00000000
vn -0.34170000 0.04360000 -0.93880000
vn -0.34170000 0.04360000 -0.93880000
vn -0.00000000 1.00000000 -0.00000000
vn -0.00000000 1.00000000 -0.00000000
vn -0.00000000 1.00000000 -0.00000000
vn -0.00000000 1.00000000 -0.00000000
vn -0.64280000 -0.00000000 -0.76600000
vn -0.00000000 1.00000000 -0.00000000
vn -0.00000000 1.00000000 -0.00000000
vn -0.93970000 -0.00000000 -0.34200000
vn -0.98480000 -0.00000000 -0.17370000
vn -0.00000000 1.00000000 -0.00000000
vn -0.00000000 1.00000000 -0.00000000
vn -0.00000000 1.00000000 -0.00000000
vn -0.00000000 1.00000000 -0.00000000
vn -0.76600000 -0.00000000 0.64280000
vn -0.00000000 1.00000000 -0.00000000
vn -0.00000000 1.00000000 -0.00000000
vn -0.00000000 1.00000000 -0.00000000
vn -0.00000000 1.00000000 -0.00000000
vn -0.00000000 1.00000000 -0.00000000
vn -0.00000000 1.00000000 -0.00000000
vn 0.34200000 -0.00000000 0.93970000
vn 0.50000000 -0.00000000 0.86600000
vn 0.64280000 -0.00000000 0.76600000
vn -0.00000000 1.00000000 -0.00000000
vn -0.00000000 1.00000000 -0.00000000
vn -0.00000000 1.00000000 -0.00000000
vn -0.00000000 1.00000000 -0.00000000
vn 1.00000000 -0.00000000 -0.00000000
vn 0.98480000 -0.00000000 -0.17370000
vn -0.00000000 1.00000000 -0.00000000
vn -0.00000000 1.00000000 -0.00000000
vn -0.00000000 1.00000000 -0.00000000
vn 0.64280000 -0.00000000 -0.76600000
vn 0.50000000 -0.00000000 -0.86600000
vn 0.34200000 -0.00000000 -0.93970000
vn 0.17370000 -0.00000000 -0.98480000
vn -1.00000000 -0.00000000 -0.00000000
vn -0.00000000 1.00000000 -0.00000000
vn -0.00000000 -0.00000000 -1.00000000
vn -0.00000000 0.87760000 -0.47930000
vn -1.00000000 -0.00000000 -0.00000000
vn -0.00000000 0.96610000 -0.25820000
vn -0.00000000 -0.00000000 -1.00000000
vn -0.00000000 -0.91060000 -0.41330000
vn 0.70610000 0.70710000 0.03700000
vn 0.70600000 0.70720000 0.03700000
vn 0.70610000 0.70710000 0.03700000
vn -0.00000000 -0.00000000 -1.00000000
vn -0.17370000 -0.00000000 -0.98480000
vn -0.00000000 1.00000000 -0.00000000
vn -0.00000000 1.00000000 -0.00000000
vn -0.00000000 1.00000000 -0.00000000
vn -0.00000000 1.00000000 -0.00000000
vn -0.86600000 -0.00000000 -0.50000000
vn -0.00000000 1.00000000 -0.00000000
vn -0.00000000 1.00000000 -0.00000000
vn -0.00000000 1.00000000 -0.00000000
vn -0.00000000 1.00000000 -0.00000000
vn -0.00000000 1.00000000 -0.00000000
vn -0.00000000 1.00000000 -0.00000000
vn -0.00000000 1.00000000 -0.00000000
vn -0.00000000 1.00000000 -0.00000000
vn -0.00000000 1.00000000 -0.00000000
vn -0.00000000 1.00000000 -0.00000000
vn -0.17370000 -0.00000000 0.98480000
vn -0.00000000 1.00000000 -0.00000000
vn -0.00000000 1.00000000 -0.00000000
vn -0.00000000 1.00000000 -0.00000000
vn -0.00000000 1.00000000 -0.00000000
vn -0.00000000 1.00000000 -0.00000000
vn -0.00000000 1.00000000 -0.00000000
vn -0.00000000 1.00000000 -0.00000000
vn -0.00000000 1.00000000 -0.00000000
vn -0.00000000 1.00000000 -0.00000000
vn -0.00000000 1.00000000 -0.00000000
vn -0.00000000 1.00000000 -0.00000000
vn 0.93970000 -0.00000000 -0.34200000
vn -0.00000000 1.00000000 -0.00000000
vn -0.00000000 1.00000000 -0.00000000
vn -0.00000000 1.00000000 -0.00000000
vn -0.00000000 1.00000000 -0.00000000
vn -0.00000000 1.00000000 -0.00000000
vn 0.17370000 -0.00000000 -0.98480000
vn -0.32560000 -0.00000000 0.94550000
vn -0.70710000 0.70710000 -0.00000000
vn -0.70710000 0.70710000 -0.00000000
vn -0.70710000 0.70710000 -0.00000000
vn -0.70710000 0.70710000 -0.00000000
vn -0.00000000 1.00000000 -0.00000000
vn -0.00000000 1.00000000 -0.00000000
vn -0.00000000 1.00000000 -0.00000000
vn -0.95630000 -0.00000000 -0.29240000
vn -0.58780000 -0.00000000 -0.80900000
vn 0.58780000 -0.00000000 -0.80900000
vn -0.00000000 1.00000000 -0.00000000
vn 0.70600000 0.70720000 0.03700000
vn -0.32560000 -0.00000000 0.94550000
vn -0.00000000 -1.00000000 -0.00000000
vn -0.00000000 1.00000000 -0.00000000
vn 0.32560000 -0.00000000 -0.94550000
vn 0.32560000 -0.00000000 -0.94550000
vn 0.94550000 -0.00000000 0.32560000
vn -0.00000000 -1.00000000 -0.00000000
vn 0.94550000 -0.00000000 0.32560000
vn -0.00000000 -1.00000000 -0.00000000
vn -0.00000000 -1.00000000 -0.00000000
vn -0.32560000 -0.00000000 0.94550000
vn -0.00000000 1.00000000 -0.00000000
vn -0.32560000 -0.00000000 0.94550000
vn 0.32560000 -0.00000000 -0.94550000
vn -0.32560000 -0.00000000 0.94550000
vn 0.32560000 -0.00000000 -0.94550000
vn -0.00000000 1.00000000 -0.00000000
vn -0.00000000 1.00000000 -0.00000000
vn -0.00000000 -1.00000000 -0.00000000
vn 0.94550000 -0.00000000 0.32560000
vn 0.25810000 -0.46950000 0.84440000
vn -0.27610000 -0.00000000 0.96110000
vn -0.70710000 -0.70710000 -0.00000000
vn -0.70710000 -0.70710000 -0.00000000
vn -0.00000000 -0.00000000 -1.00000000
vn -0.00000000 -0.00000000 -1.00000000
vn 0.58780000 -0.00000000 -0.80900000
vn -0.00000000 1.00000000 -0.00000000
vn -0.95630000 -0.00000000 -0.29240000
vn -0.95630000 -0.00000000 -0.29240000
vn -0.45240000 -0.00000000 0.89180000
vn -0.96500000 -0.00000000 0.26230000
vn 0.70610000 -0.70710000 0.03700000
vn 0.70600000 -0.70720000 0.03700000
vn 0.70610000 -0.70710000 0.03700000
vn 0.70610000 0.70710000 0.03700000
vn 0.70610000 -0.70710000 0.03700000
vn 0.70600000 0.70720000 0.03700000
vn 0.70610000 0.70710000 0.03700000
vn -0.32560000 -0.00000000 0.94550000
vn 0.43840000 -0.00000000 0.89880000
vn 0.32560000 -0.00000000 -0.94550000
vn 0.89880000 -0.00000000 -0.43840000
vn 0.32560000 -0.00000000 -0.94550000
vn -0.00000000 -0.00000000 1.00000000
vn -0.86600000 -0.00000000 0.50000000
vn 0.86600000 -0.00000000 -0.50000000
vn -0.86600000 -0.00000000 -0.50000000
vn -0.00000000 -0.00000000 -1.00000000
vn -0.00000000 -1.00000000 -0.00000000
vn -0.00000000 -1.00000000 -0.00000000
vn -0.00000000 -1.00000000 -0.00000000
vn -0.94550000 -0.00000000 -0.32560000
vn -0.00000000 -1.00000000 -0.00000000
vn 0.43840000 -0.00000000 0.89880000
vn -0.00000000 -1.00000000 -0.00000000
vn -0.00000000 -1.00000000 -0.00000000
vn -0.00000000 -0.00000000 1.00000000
vn -0.58780000 -0.00000000 -0.80900000
vn -0.96500000 -0.00000000 0.26230000
vn -0.00000000 -1.00000000 -0.00000000
vn -0.00000000 -1.00000000 -0.00000000
vn 0.95110000 -0.00000000 -0.30900000
vn 0.70600000 -0.70720000 0.03700000
vn 0.94550000 -0.00000000 0.32550000
vn 0.32560000 -0.00000000 -0.94550000
vn 0.86600000 -0.00000000 -0.50000000
vn 0.86600000 -0.00000000 0.50000000
vn -0.00000000 -0.00000000 -1.00000000
vn -0.86600000 -0.00000000 -0.50000000
vn -0.00000000 -1.00000000 -0.00000000
vn -0.00000000 -1.00000000 -0.00000000
vn -0.13940000 -0.00000000 0.99020000
vn -0.45240000 -0.00000000 0.89180000
vn -0.96500000 -0.00000000 0.26230000
vn -0.34210000 -0.00000000 -0.93970000
vn -0.50000000 -0.00000000 -0.86600000
vn 0.34200000 -0.00000000 0.93970000
vn 0.50000000 -0.00000000 0.86600000
vn -0.76600000 -0.00000000 -0.64280000
vn -0.86600000 -0.00000000 -0.50000000
vn -0.93130000 -0.00000000 0.36430000
vn -0.99830000 -0.00000000 0.05860000
vn 0.86600000 -0.00000000 0.50000000
vn -0.00000000 -1.00000000 -0.00000000
vn 0.86600000 -0.00000000 0.50000000
vn -0.00000000 -1.00000000 -0.00000000
vn -0.53930000 -0.00000000 0.84210000
vn -0.77320000 -0.00000000 0.63420000
vn -0.00000000 1.00000000 -0.00000000
vn -0.00000000 1.00000000 -0.00000000
vn -0.00000000 1.00000000 -0.00000000
vn -0.58780000 -0.00000000 -0.80900000
vn -0.00000000 1.00000000 -0.00000000
vn -0.58780000 -0.00000000 -0.80900000
vn 1.00000000 -0.00000000 -0.00000000
vn 0.98480000 -0.00000000 -0.17370000
vn -0.86600000 -0.00000000 0.50000000
vn -0.86600000 -0.00000000 -0.50000000
vn -0.86600000 -0.00000000 0.50000000
vn -0.00000000 -0.00000000 1.00000000
vn 0.96730000 -0.00000000 -0.25370000
vn 0.95110000 -0.00000000 -0.30900000
vn 0.95100000 -0.00000000 -0.30910000
vn -0.00000000 1.00000000 -0.00000000
vn 0.94550000 -0.00000000 0.32560000
vn -0.00000000 -1.00000000 -0.00000000
vn 0.94550000 -0.00000000 0.32560000
vn 0.32560000 -0.00000000 -0.94550000
vn 0.99760000 -0.00000000 -0.06850000
vn 0.98480000 -0.00000000 -0.17370000
vn 0.93970000 -0.00000000 -0.34200000
vn -0.34200000 -0.00000000 0.93970000
vn -0.17370000 -0.00000000 0.98480000
vn 0.82280000 -0.00000000 0.56840000
vn 0.71160000 -0.00000000 0.70260000
vn -0.00000000 -1.00000000 -0.00000000
vn -0.00000000 -1.00000000 -0.00000000
vn -0.00000000 1.00000000 -0.00000000
vn -0.94550000 -0.00000000 -0.32560000
vn -0.00000000 1.00000000 -0.00000000
vn -0.32560000 -0.00000000 0.94550000
vn -1.00000000 -0.00000000 -0.00000000
vn 0.25810000 0.46950000 0.84440000
vn 0.25810000 0.46950000 0.84440000
vn -1.00000000 -0.00000000 -0.00000000
vn -0.50000000 -0.00000000 0.86600000
vn -0.34200000 -0.00000000 0.93970000
vn -0.00000000 -1.00000000 -0.00000000
vn -0.00000000 -0.00000000 1.00000000
vn -0.00000000 -1.00000000 -0.00000000
vn -0.86600000 -0.00000000 0.50000000
vn -0.34200000 -0.00000000 0.93970000
vn -0.17370000 -0.00000000 0.98480000
vn -0.00000000 -1.00000000 -0.00000000
vn 0.86600000 -0.00000000 0.50000000
vn -0.98480000 -0.00000000 0.17370000
vn -0.93970000 -0.00000000 0.34210000
vn -1.00000000 -0.00000000 -0.00000000
vn -0.34170000 0.04360000 -0.93880000
vn -1.00000000 -0.00000000 -0.00000000
vn -0.00000000 -1.00000000 -0.00000000
vn -0.93000000 -0.00000000 0.36770000
vn -0.99740000 -0.00000000 -0.07220000
vn -0.00000000 -0.00000000 -1.00000000
vn -0.86600000 -0.00000000 -0.50000000
vn -0.00000000 -0.00000000 -1.00000000
vn -0.00000000 -1.00000000 -0.00000000
vn -1.00000000 -0.00000000 -0.00000000
vn -0.34170000 0.04360000 0.93880000
vn -0.00000000 -1.00000000 -0.00000000
vn -0.74740000 -0.00000000 -0.66440000
vn -0.00000000 -1.00000000 -0.00000000
vn -1.00000000 -0.00000000 -0.00000000
vn 0.98480000 -0.00000000 0.17360000
vn 0.58780000 -0.00000000 -0.80900000
vn -0.00000000 -0.00000000 -1.00000000
vn 0.58780000 -0.00000000 -0.80900000
vn -0.00000000 -1.00000000 -0.00000000
vn -0.00000000 -1.00000000 -0.00000000
vn -0.00000000 -1.00000000 -0.00000000
vn -0.00000000 -1.00000000 -0.00000000
vn -0.32560000 -0.00000000 0.94550000
vn -0.93970000 -0.00000000 -0.34200000
vn -0.98480000 -0.00000000 -0.17370000
vn -0.00000000 1.00000000 -0.00000000
vn -0.00000000 1.00000000 -0.00000000
vn -0.00000000 1.00000000 -0.00000000
vn -0.93970000 -0.00000000 -0.34200000
vn -0.98480000 -0.00000000 -0.17370000
vn 0.34200000 -0.00000000 0.93970000
vn -0.00000000 -1.00000000 -0.00000000
vn -0.00000000 -1.00000000 -0.00000000
vn -0.00000000 -1.00000000 -0.00000000
vn -0.32560000 -0.00000000 0.94550000
vn -0.00000000 -1.00000000 -0.00000000
vn -0.00000000 -1.00000000 -0.00000000
vn -0.00000000 -1.00000000 -0.00000000
vn 0.98480000 -0.00000000 -0.17370000
vn -0.00000000 1.00000000 -0.00000000
vn 0.25810000 0.46950000 0.84440000
vn -0.00000000 1.00000000 -0.00000000
vn -1.00000000 -0.00000000 -0.00000000
vn -0.00000000 -0.91060000 -0.41330000
vn -1.00000000 -0.00000000 -0.00000000
vn -0.00000000 -0.00000000 -1.00000000
vn -0.00000000 -0.00000000 -1.00000000
vn -0.17370000 -0.00000000 -0.98480000
vn -0.00000000 1.00000000 -0.00000000
vn -0.00000000 1.00000000 -0.00000000
vn -0.61240000 -0.00000000 0.79050000
vn 0.94550000 -0.00000000 0.32560000
vn -0.00000000 1.00000000 -0.00000000
vn 0.94550000 -0.00000000 0.32560000
vn -0.32560000 -0.00000000 0.94550000
vn -0.00000000 -1.00000000 -0.00000000
vn -0.00000000 -0.00000000 -1.00000000
vn -0.52990000 -0.00000000 0.84800000
vn -0.00000000 -1.00000000 -0.00000000
vn -1.00000000 -0.00000000 -0.00000000
vn -0.00000000 -0.00000000 1.00000000
vn 0.17370000 -0.00000000 0.98480000
vn 0.76600000 -0.00000000 0.64280000
vn -0.00000000 -1.00000000 -0.00000000
vn -0.93970000 -0.00000000 0.34200000
vn -0.86600000 -0.00000000 0.50000000
vn 0.82280000 -0.00000000 0.56840000
vn -0.00000000 1.00000000 -0.00000000
vn -0.34200000 -0.00000000 -0.93970000
vn -0.00000000 -1.00000000 -0.00000000
vn -0.00000000 1.00000000 -0.00000000
vn -1.00000000 -0.00000000 -0.00000000
vn -0.34170000 0.04360000 0.93880000
vn 0.17360000 -0.00000000 -0.98480000
vn -0.00000000 -0.00000000 -1.00000000
vn -0.77320000 -0.00000000 0.63420000
vn -0.00000000 -0.00000000 -1.00000000
vn -0.58780000 -0.00000000 -0.80900000
vn -0.00000000 -1.00000000 -0.00000000
vn -0.95630000 -0.00000000 -0.29240000
vn -0.00000000 -1.00000000 -0.00000000
vn -0.61240000 -0.00000000 0.79050000
vn -0.50000000 -0.00000000 0.86600000
vn -0.93970000 -0.00000000 0.34200000
vn -0.00000000 1.00000000 -0.00000000
vn -0.00000000 1.00000000 -0.00000000
vn -0.00000000 -1.00000000 -0.00000000
vn -0.58780000 -0.00000000 -0.80900000
vn -0.00000000 -1.00000000 -0.00000000
vn -0.00000000 -0.00000000 -1.00000000
vn -0.00000000 1.00000000 -0.00000000
vn -1.00000000 -0.00000000 -0.00000000
vn -0.00000000 -0.00000000 -1.00000000
vn -1.00000000 -0.00000000 -0.00000000
vn 0.34200000 -0.00000000 0.93970000
vn 0.50000000 -0.00000000 0.86600000
vn -0.00000000 1.00000000 -0.00000000
vn -1.00000000 -0.00000000 -0.00000000
vn -0.95630000 -0.00000000 -0.29240000
vn -0.00000000 -1.00000000 -0.00000000
vn -0.00000000 -1.00000000 -0.00000000
vn -0.00000000 -1.00000000 -0.00000000
vn 1.00000000 -0.00000000 -0.00000000
vn -0.00000000 -1.00000000 -0.00000000
vn -0.00000000 -1.00000000 -0.00000000
vn -0.00000000 -1.00000000 -0.00000000
vn 0.98480000 -0.00000000 0.17360000
vn -0.00000000 1.00000000 -0.00000000
vn -0.93970000 -0.00000000 -0.34200000
vn -0.98480000 -0.00000000 -0.17370000
vn -0.93130000 -0.00000000 0.36430000
vn 0.64280000 -0.00000000 0.76600000
vn -0.98480000 -0.00000000 0.17360000
vn -0.00000000 -1.00000000 -0.00000000
vn 0.34200000 -0.00000000 -0.93970000
vn -0.00000000 1.00000000 -0.00000000
vn 0.94550000 -0.00000000 0.32560000
vn -0.00000000 1.00000000 -0.00000000
vn 0.86600000 -0.00000000 -0.50000000
vn 0.64280000 -0.00000000 -0.76600000
vn 0.50000000 -0.00000000 -0.86600000
vn -0.00000000 1.00000000 -0.00000000
vn -0.00000000 -1.00000000 -0.00000000
vn 0.95110000 -0.00000000 -0.30900000
vn 0.95100000 -0.00000000 -0.30910000
vn 0.70610000 -0.70710000 0.03700000
vn 0.70600000 -0.70720000 0.03700000
vn -0.00000000 -1.00000000 -0.00000000
vn 0.95110000 -0.00000000 -0.30900000
vn 0.58780000 -0.00000000 -0.80900000
vn 0.94550000 -0.00000000 0.32560000
vn -0.00000000 1.00000000 -0.00000000
vn 0.94550000 -0.00000000 0.32560000
vn 0.32560000 -0.00000000 -0.94550000
vn -0.00000000 1.00000000 -0.00000000
vn -0.96500000 -0.00000000 0.26230000
vn -1.00000000 -0.00000000 -0.00000000
vn -0.34170000 0.04360000 0.93880000
vn -0.34170000 0.04360000 0.93880000
vn -0.00000000 -1.00000000 -0.00000000
vn -0.50000000 -0.00000000 0.86600000
vn -0.34200000 -0.00000000 0.93970000
vn 0.32560000 -0.00000000 -0.94550000
vn 0.89880000 -0.00000000 -0.43840000
vn 0.32560000 -0.00000000 -0.94550000
vn -0.00000000 -1.00000000 -0.00000000
vn -0.00000000 1.00000000 -0.00000000
vn -0.93000000 -0.00000000 0.36770000
vn -0.69200000 -0.00000000 0.72190000
vn 0.93970000 -0.00000000 0.34200000
vn -0.00000000 1.00000000 -0.00000000
vn -0.93970000 -0.00000000 0.34200000
vn 0.32560000 -0.00000000 -0.94550000
vn -0.00000000 1.00000000 -0.00000000
vn -0.00000000 1.00000000 -0.00000000
vn 0.89880000 -0.00000000 -0.43840000
vn -0.00000000 1.00000000 -0.00000000
vn -0.00000000 1.00000000 -0.00000000
vn -0.00000000 -1.00000000 -0.00000000
vn -0.25270000 -0.00000000 0.96750000
vn -1.00000000 -0.00000000 -0.00000000
vn -0.53930000 -0.00000000 0.84210000
vn -0.00000000 1.00000000 -0.00000000
vn -0.00000000 -0.00000000 -1.00000000
vn 0.76600000 -0.00000000 -0.64280000
vn -0.00000000 -1.00000000 -0.00000000
vn 0.94550000 -0.00000000 0.32560000
vn 0.94550000 -0.00000000 0.32560000
vn -0.32560000 -0.00000000 0.94550000
vn 0.98480000 -0.00000000 -0.17370000
vn -0.00000000 -1.00000000 -0.00000000
vn -0.00000000 -1.00000000 -0.00000000
vn 0.50000000 -0.00000000 0.86600000
vn -0.00000000 1.00000000 -0.00000000
vn 0.86600000 -0.00000000 0.50000000
vn -0.00000000 1.00000000 -0.00000000
vn -0.00000000 1.00000000 -0.00000000
vn -0.98480000 -0.00000000 0.17360000
vn -0.93970000 -0.00000000 0.34200000
vn -0.70710000 -0.70710000 -0.00000000
vn 0.25820000 -0.46950000 0.84440000
vn -0.00000000 -1.00000000 -0.00000000
vn -0.70710000 -0.70710000 -0.00000000
vn 0.25810000 0.46950000 0.84440000
vn -0.00000000 1.00000000 -0.00000000
vn 0.94550000 -0.00000000 0.32560000
vn 0.99900000 -0.00000000 -0.04540000
vn 0.99860000 -0.00000000 0.05230000
vn -0.00000000 0.87760000 -0.47930000
vn -1.00000000 -0.00000000 -0.00000000
vn -0.00000000 -1.00000000 -0.00000000
vn 0.98480000 -0.00000000 0.17360000
vn -0.00000000 -0.00000000 1.00000000
vn 0.17360000 -0.00000000 0.98480000
vn 0.64280000 -0.00000000 0.76600000
vn 0.94550000 -0.00000000 0.32550000
vn 0.94550000 -0.00000000 0.32560000
vn -0.00000000 1.00000000 -0.00000000
vn 0.17370000 -0.00000000 0.98480000
vn -0.00000000 1.00000000 -0.00000000
vn -0.00000000 1.00000000 -0.00000000
vn -0.00000000 1.00000000 -0.00000000
vn -0.00000000 1.00000000 -0.00000000
vn -0.74740000 -0.00000000 -0.66440000
vn -0.00000000 -0.99450000 -0.10510000
vn -0.64280000 -0.00000000 -0.76610000
vn -0.00000000 -1.00000000 -0.00000000
vn -0.00000000 1.00000000 -0.00000000
vn -0.17370000 -0.00000000 -0.98480000
vn 0.86600000 -0.00000000 -0.50000000
vn -0.00000000 -1.00000000 -0.00000000
vn -0.00000000 -0.00000000 1.00000000
vn -0.00000000 1.00000000 -0.00000000
vn 0.94550000 -0.00000000 0.32560000
vn 0.32560000 -0.00000000 -0.94550000
vn -0.86600000 -0.00000000 0.50000000
vn -0.00000000 -1.00000000 -0.00000000
vn -0.86600000 -0.00000000 0.50000000
vn -0.00000000 1.00000000 -0.00000000
vn -0.00000000 1.00000000 -0.00000000
vn -0.00000000 1.00000000 -0.00000000
vn 0.97950000 -0.00000000 0.20170000
vn 0.99760000 -0.00000000 -0.06850000
vn -0.94550000 -0.00000000 -0.32560000
vn 0.32560000 -0.00000000 -0.94550000
vn 0.99860000 -0.00000000 0.05230000
vn -0.00000000 -0.00000000 -1.00000000
vn -1.00000000 -0.00000000 -0.00000000
vn -0.00000000 1.00000000 -0.00000000
vn 0.76600000 -0.00000000 0.64280000
vn 0.86600000 -0.00000000 0.50000000
vn -0.00000000 1.00000000 -0.00000000
vn -0.00000000 -1.00000000 -0.00000000
vn -0.00000000 1.00000000 -0.00000000
vn 0.94550000 -0.00000000 0.32550000
vn -0.00000000 1.00000000 -0.00000000
vn -0.00000000 1.00000000 -0.00000000
vn -0.76610000 -0.00000000 -0.64280000
vn -0.00000000 1.00000000 -0.00000000
vn -0.99740000 -0.00000000 -0.07220000
vn 0.94550000 -0.00000000 0.32560000
vn 0.25810000 -0.46950000 0.84440000
vn 0.25820000 -0.46950000 0.84440000
vn -0.32560000 -0.00000000 0.94550000
vn -0.00000000 1.00000000 -0.00000000
vn -0.00000000 1.00000000 -0.00000000
vn 0.76600000 -0.00000000 0.64280000
vn 0.34200000 -0.00000000 -0.93970000
vn 0.93970000 -0.00000000 -0.34200000
vn -0.00000000 1.00000000 -0.00000000
vn -0.64280000 -0.00000000 0.76600000
vn -0.00000000 1.00000000 -0.00000000
vn -0.58780000 -0.00000000 -0.80900000
vn -0.00000000 1.00000000 -0.00000000
vn -0.00000000 -0.00000000 -1.00000000
vn -0.00000000 -1.00000000 -0.00000000
vn -0.00000000 -1.00000000 -0.00000000
vn -0.76600000 -0.00000000 0.64280000
vn -0.00000000 -1.00000000 -0.00000000
vn -0.00000000 -1.00000000 -0.00000000
vn 0.64280000 -0.00000000 -0.76600000
vn -0.00000000 -1.00000000 -0.00000000
vn -0.00000000 0.99240000 -0.12270000
vn -0.94550000 -0.00000000 -0.32560000
vn -0.32560000 -0.00000000 0.94550000
vn -0.94550000 -0.00000000 -0.32560000
vn -0.32560000 -0.00000000 0.94550000
vn 1.00000000 -0.00000000 -0.00000000
vn -0.00000000 -1.00000000 -0.00000000
vn -0.00000000 -1.00000000 -0.00000000
vn 0.50000000 -0.00000000 -0.86600000
vn -0.64280000 -0.00000000 0.76600000
vn -0.50000000 -0.00000000 0.86600000
vn 0.43840000 -0.00000000 0.89880000
vn -0.32560000 -0.00000000 0.94550000
vn -0.00000000 -0.00000000 1.00000000
vn -0.00000000 1.00000000 -0.00000000
vn -0.00000000 1.00000000 -0.00000000
vn -0.00000000 -1.00000000 -0.00000000
vn -0.00000000 1.00000000 -0.00000000
vn 0.64280000 -0.00000000 0.76600000
vn -0.00000000 1.00000000 -0.00000000
vn -0.00000000 1.00000000 -0.00000000
vn -0.76600000 -0.00000000 0.64280000
vn -0.86600000 -0.00000000 0.50000000
vn -0.00000000 1.00000000 -0.00000000
vn 0.94550000 -0.00000000 0.32560000
vn -0.00000000 -1.00000000 -0.00000000
vn 0.25810000 -0.46950000 0.84440000
vn 0.25820000 -0.46950000 0.84440000
vn -1.00000000 -0.00000000 -0.00000000
vn 0.32560000 -0.00000000 -0.94550000
vn -0.94550000 -0.00000000 -0.32560000
vn -0.00000000 1.00000000 -0.00000000
vn -0.94550000 -0.00000000 -0.32560000
vn 0.25810000 -0.46950000 0.84440000
vn -0.00000000 -1.00000000 -0.00000000
vn 0.99890000 -0.00000000 -0.04750000
vn -0.64280000 -0.00000000 0.76600000
vn 0.36430000 -0.00000000 0.93130000
vn -0.00000000 1.00000000 -0.00000000
vn -0.00000000 1.00000000 -0.00000000
vn -0.00000000 -0.00000000 -1.00000000
vn 0.89880000 -0.00000000 -0.43840000
vn 0.32560000 -0.00000000 -0.94550000
vn -0.00000000 1.00000000 -0.00000000
vn -0.00000000 -1.00000000 -0.00000000
vn 0.97030000 -0.00000000 -0.24190000
vn 0.95110000 -0.00000000 -0.30900000
vn -0.00000000 -1.00000000 -0.00000000
vn -0.00000000 1.00000000 -0.00000000
vn -0.00000000 1.00000000 -0.00000000
vn 0.64280000 -0.00000000 -0.76600000
vn -0.00000000 -1.00000000 -0.00000000
vn -0.00000000 1.00000000 -0.00000000
vn -0.00000000 1.00000000 -0.00000000
vn -0.52990000 -0.00000000 0.84800000
vn -0.69200000 -0.00000000 0.72190000
vn -0.00000000 -1.00000000 -0.00000000
vn -0.00000000 -1.00000000 -0.00000000
vn -0.00000000 -1.00000000 -0.00000000
vn -0.00000000 -0.00000000 -1.00000000
vn -0.17360000 -0.00000000 -0.98480000
vn 0.17370000 -0.00000000 0.98480000
vn -0.86600000 -0.00000000 -0.50000000
vn -0.00000000 1.00000000 -0.00000000
vn 0.86600000 -0.00000000 -0.50000000
vn -0.00000000 1.00000000 -0.00000000
vn -0.00000000 1.00000000 -0.00000000
vn 0.17370000 -0.00000000 0.98480000
vn -0.00000000 1.00000000 -0.00000000
vn -0.00000000 1.00000000 -0.00000000
vn -0.00000000 1.00000000 -0.00000000
vn 0.50000000 -0.00000000 -0.86600000
vn -0.00000000 -1.00000000 -0.00000000
vn 0.97950000 -0.00000000 0.20170000
vn -0.00000000 1.00000000 -0.00000000
vn -0.50000000 -0.00000000 0.86600000
vn -0.34200000 -0.00000000 0.93970000
vn -0.00000000 -1.00000000 -0.00000000
vn -0.00000000 1.00000000 -0.00000000
vn 0.94550000 -0.00000000 0.32550000
vn -0.00000000 -1.00000000 -0.00000000
vn 0.86600000 -0.00000000 0.50000000
vn -0.00000000 1.00000000 -0.00000000
vn 0.76600000 -0.00000000 -0.64280000
vn -1.00000000 -0.00000000 -0.00000000
vn -0.22230000 -0.00000000 0.97500000
vn -0.00000000 1.00000000 -0.00000000
vn -0.00000000 1.00000000 -0.00000000
vn 0.86600000 -0.00000000 -0.50000000
vn -0.00000000 -1.00000000 -0.00000000
vn -0.50000000 -0.00000000 0.86600000
vn -0.32560000 -0.00000000 0.94550000
vn -0.00000000 -1.00000000 -0.00000000
vn -0.50000000 -0.00000000 -0.86600000
vn -0.00000000 1.00000000 -0.00000000
vn -0.00000000 -1.00000000 -0.00000000
vn -0.00000000 1.00000000 -0.00000000
vn 0.43840000 -0.00000000 0.89880000
vn -0.00000000 -0.00000000 1.00000000
vn -0.76600000 -0.00000000 -0.64280000
vn -0.00000000 -1.00000000 -0.00000000
vn 0.34200000 -0.00000000 -0.93970000
vn -0.00000000 -1.00000000 -0.00000000
vn 0.86600000 -0.00000000 0.50000000
vn 0.93970000 -0.00000000 0.34200000
vn -0.00000000 -0.00000000 1.00000000
vn -0.00000000 1.00000000 -0.00000000
vn 0.97030000 -0.00000000 -0.24190000
vn -0.00000000 1.00000000 -0.00000000
vn -0.94550000 -0.00000000 -0.32560000
vn 0.96730000 -0.00000000 -0.25370000
vn 0.34210000 -0.00000000 -0.93970000
vn -1.00000000 -0.00000000 -0.00000000
vn -0.52990000 -0.00000000 0.84800000
vn -0.34200000 -0.00000000 -0.93970000
vn 0.98480000 -0.00000000 0.17370000
vn -0.00000000 -1.00000000 -0.00000000
vn -0.00000000 -1.00000000 -0.00000000
vn -0.00000000 -1.00000000 -0.00000000
vn -0.95630000 -0.00000000 -0.29240000
vn -0.00000000 1.00000000 -0.00000000
vn -0.00000000 1.00000000 -0.00000000
vn 0.58780000 -0.00000000 -0.80900000
vn -0.00000000 1.00000000 -0.00000000
vn -0.00000000 1.00000000 -0.00000000
vn 0.95110000 -0.00000000 -0.30900000
vn -0.76600000 -0.00000000 -0.64280000
vn -0.34200000 -0.00000000 -0.93970000
vn -0.50000000 -0.00000000 -0.86600000
vn -0.00000000 -1.00000000 -0.00000000
vn 0.86600000 -0.00000000 -0.50000000
vn -0.00000000 -1.00000000 -0.00000000
vn -0.17370000 -0.00000000 -0.98480000
vn -0.00000000 1.00000000 -0.00000000
vn -0.34200000 -0.00000000 -0.93970000
vn 0.76600000 -0.00000000 0.64280000
vn -0.00000000 1.00000000 -0.00000000
vn -0.17360000 -0.00000000 0.98480000
vn -0.64280000 -0.00000000 -0.76600000
vn 0.17370000 -0.00000000 -0.98480000
vn -0.00000000 1.00000000 -0.00000000
vn -0.00000000 1.00000000 -0.00000000
vn -0.00000000 -1.00000000 -0.00000000
f 439//439 429//429 502//502
f 502//502 429//429 431//431
f 631//631 6//6 650//650
f 8//8 9//9 707//707
f 707//707 9//9 651//651
f 12//12 13//13 650//650
f 650//650 13//13 630//630
f 650//650 630//630 631//631
f 651//651 9//9 650//650
f 650//650 9//9 799//799
f 650//650 799//799 12//12
f 604//604 380//380 6//6
f 6//6 380//380 381//381
f 6//6 381//381 548//548
f 548//548 638//638 6//6
f 6//6 638//638 21//21
f 6//6 21//21 650//650
f 8//8 707//707 771//771
f 771//771 707//707 708//708
f 771//771 708//708 24//24
f 24//24 741//741 771//771
f 771//771 741//741 742//742
f 771//771 742//742 666//666
f 604//604 28//28 380//380
f 380//380 28//28 606//606
f 380//380 606//606 607//607
f 607//607 527//527 380//380
f 380//380 527//527 457//457
f 380//380 457//457 458//458
f 458//458 515//515 380//380
f 380//380 515//515 516//516
f 380//380 516//516 456//456
f 666//666 667//667 771//771
f 771//771 667//667 758//758
f 771//771 758//758 39//39
f 39//39 758//758 40//40
f 517//517 535//535 770//770
f 544//544 810//810 486//486
f 47//47 835//835 811//811
f 531//531 532//532 635//635
f 635//635 532//532 692//692
f 463//463 55//55 519//519
f 519//519 55//55 663//663
f 519//519 663//663 517//517
f 517//517 663//663 536//536
f 517//517 536//536 535//535
f 486//486 810//810 489//489
f 489//489 810//810 60//60
f 489//489 60//60 635//635
f 635//635 60//60 61//61
f 635//635 61//61 500//500
f 63//63 64//64 635//635
f 835//835 765//765 811//811
f 811//811 765//765 467//467
f 811//811 467//467 67//67
f 67//67 467//467 468//468
f 67//67 468//468 69//69
f 500//500 737//737 635//635
f 635//635 737//737 71//71
f 635//635 71//71 531//531
f 740//740 63//63 450//450
f 450//450 63//63 635//635
f 450//450 635//635 451//451
f 451//451 635//635 692//692
f 450//450 75//75 740//740
f 740//740 75//75 795//795
f 740//740 795//795 519//519
f 519//519 795//795 464//464
f 519//519 464//464 463//463
f 770//770 602//602 517//517
f 517//517 602//602 79//79
f 517//517 79//79 811//811
f 811//811 79//79 494//494
f 811//811 494//494 47//47
f 69//69 601//601 67//67
f 67//67 601//601 407//407
f 67//67 407//407 83//83
f 83//83 407//407 408//408
f 83//83 408//408 85//85
f 408//408 86//86 85//85
f 85//85 86//86 87//87
f 85//85 87//87 486//486
f 486//486 87//87 88//88
f 486//486 88//88 544//544
f 504//504 752//752 505//505
f 505//505 752//752 753//753
f 505//505 753//753 93//93
f 93//93 753//753 827//827
f 93//93 827//827 366//366
f 366//366 827//827 96//96
f 366//366 96//96 367//367
f 367//367 96//96 98//98
f 367//367 98//98 636//636
f 636//636 98//98 668//668
f 636//636 668//668 101//101
f 101//101 668//668 102//102
f 101//101 102//102 103//103
f 103//103 102//102 454//454
f 103//103 454//454 539//539
f 539//539 454//454 455//455
f 539//539 455//455 540//540
f 540//540 455//455 108//108
f 540//540 108//108 109//109
f 109//109 108//108 110//110
f 109//109 110//110 427//427
f 427//427 110//110 582//582
f 427//427 582//582 428//428
f 428//428 582//582 114//114
f 428//428 114//114 646//646
f 646//646 114//114 116//116
f 646//646 116//116 117//117
f 117//117 116//116 681//681
f 117//117 681//681 119//119
f 119//119 681//681 513//513
f 119//119 513//513 571//571
f 571//571 513//513 403//403
f 571//571 403//403 572//572
f 572//572 403//403 404//404
f 572//572 404//404 830//830
f 830//830 404//404 623//623
f 830//830 623//623 491//491
f 491//491 623//623 624//624
f 491//491 624//624 492//492
f 492//492 624//624 525//525
f 492//492 525//525 461//461
f 461//461 525//525 526//526
f 461//461 526//526 133//133
f 133//133 526//526 134//134
f 133//133 134//134 711//711
f 711//711 134//134 677//677
f 711//711 677//677 137//137
f 137//137 677//677 774//774
f 137//137 774//774 139//139
f 139//139 774//774 140//140
f 139//139 140//140 141//141
f 141//141 140//140 808//808
f 141//141 808//808 622//622
f 622//622 808//808 698//698
f 622//622 698//698 533//533
f 533//533 698//698 469//469
f 533//533 469//469 401//401
f 401//401 469//469 148//148
f 401//401 148//148 402//402
f 402//402 148//148 549//549
f 402//402 549//549 151//151
f 151//151 549//549 152//152
f 151//151 152//152 153//153
f 153//153 152//152 154//154
f 153//153 154//154 743//743
f 743//743 154//154 764//764
f 743//743 764//764 157//157
f 157//157 764//764 804//804
f 157//157 804//804 794//794
f 794//794 804//804 832//832
f 794//794 832//832 504//504
f 504//504 832//832 752//752
f 497//497 405//405 163//163
f 163//163 405//405 164//164
f 165//165 406//406 497//497
f 497//497 406//406 405//405
f 167//167 168//168 165//165
f 165//165 168//168 406//406
f 169//169 730//730 167//167
f 167//167 730//730 168//168
f 171//171 172//172 169//169
f 169//169 172//172 730//730
f 173//173 590//590 171//171
f 171//171 590//590 172//172
f 592//592 378//378 173//173
f 173//173 378//378 590//590
f 506//506 379//379 592//592
f 592//592 379//379 378//378
f 372//372 541//541 506//506
f 506//506 541//541 379//379
f 373//373 182//182 372//372
f 372//372 182//182 541//541
f 183//183 184//184 373//373
f 373//373 184//184 182//182
f 185//185 186//186 183//183
f 183//183 186//186 184//184
f 186//186 185//185 442//442
f 442//442 185//185 634//634
f 546//546 190//190 498//498
f 498//498 190//190 633//633
f 633//633 132//132 130//130
f 130//130 128//128 633//633
f 633//633 128//128 126//126
f 633//633 126//126 124//124
f 662//662 181//181 144//144
f 759//759 136//136 633//633
f 633//633 136//136 587//587
f 633//633 587//587 132//132
f 175//175 713//713 158//158
f 144//144 142//142 662//662
f 662//662 142//142 775//775
f 662//662 775//775 759//759
f 759//759 775//775 138//138
f 759//759 138//138 136//136
f 712//712 90//90 713//713
f 713//713 90//90 160//160
f 713//713 160//160 158//158
f 158//158 156//156 175//175
f 175//175 156//156 763//763
f 175//175 763//763 177//177
f 177//177 763//763 643//643
f 177//177 643//643 179//179
f 643//643 150//150 179//179
f 179//179 150//150 470//470
f 179//179 470//470 181//181
f 181//181 470//470 146//146
f 181//181 146//146 144//144
f 124//124 122//122 633//633
f 633//633 122//122 120//120
f 633//633 120//120 498//498
f 498//498 120//120 118//118
f 498//498 118//118 680//680
f 762//762 94//94 712//712
f 712//712 94//94 92//92
f 712//712 92//92 90//90
f 577//577 100//100 649//649
f 649//649 100//100 736//736
f 649//649 736//736 762//762
f 762//762 736//736 780//780
f 762//762 780//780 94//94
f 680//680 745//745 498//498
f 498//498 745//745 112//112
f 498//498 112//112 581//581
f 581//581 833//833 498//498
f 498//498 833//833 106//106
f 498//498 106//106 161//161
f 161//161 106//106 104//104
f 161//161 104//104 577//577
f 577//577 104//104 669//669
f 577//577 669//669 100//100
f 568//568 440//440 569//569
f 569//569 440//440 503//503
f 621//621 570//570 432//432
f 432//432 570//570 3//3
f 430//430 194//194 4//4
f 4//4 194//194 193//193
f 1//1 191//191 2//2
f 2//2 191//191 659//659
f 19//19 477//477 20//20
f 20//20 477//477 478//478
f 20//20 478//478 639//639
f 639//639 478//478 807//807
f 639//639 807//807 7//7
f 7//7 807//807 786//786
f 7//7 786//786 11//11
f 11//11 786//786 199//199
f 11//11 199//199 10//10
f 10//10 199//199 370//370
f 10//10 370//370 23//23
f 23//23 370//370 371//371
f 23//23 371//371 755//755
f 755//755 371//371 202//202
f 755//755 202//202 25//25
f 25//25 202//202 203//203
f 25//25 203//203 26//26
f 26//26 203//203 591//591
f 26//26 591//591 27//27
f 27//27 591//591 543//543
f 27//27 543//543 37//37
f 37//37 543//543 495//495
f 37//37 495//495 38//38
f 38//38 495//495 496//496
f 38//38 496//496 715//715
f 715//715 496//496 208//208
f 715//715 208//208 714//714
f 714//714 208//208 702//702
f 714//714 702//702 22//22
f 22//22 702//702 703//703
f 22//22 703//703 768//768
f 768//768 703//703 423//423
f 768//768 423//423 769//769
f 769//769 423//423 424//424
f 769//769 424//424 15//15
f 15//15 424//424 791//791
f 15//15 791//791 798//798
f 798//798 791//791 760//760
f 798//798 760//760 629//629
f 629//629 760//760 215//215
f 629//629 215//215 14//14
f 14//14 215//215 216//216
f 14//14 216//216 5//5
f 5//5 216//216 217//217
f 5//5 217//217 625//625
f 625//625 217//217 660//660
f 625//625 660//660 16//16
f 16//16 660//660 661//661
f 16//16 661//661 605//605
f 605//605 661//661 580//580
f 605//605 580//580 29//29
f 29//29 580//580 537//537
f 29//29 537//537 30//30
f 30//30 537//537 222//222
f 30//30 222//222 31//31
f 31//31 222//222 223//223
f 31//31 223//223 32//32
f 32//32 223//223 679//679
f 32//32 679//679 33//33
f 33//33 679//679 757//757
f 33//33 757//757 34//34
f 34//34 757//757 776//776
f 34//34 776//776 35//35
f 35//35 776//776 227//227
f 35//35 227//227 36//36
f 36//36 227//227 228//228
f 36//36 228//228 17//17
f 17//17 228//228 229//229
f 17//17 229//229 18//18
f 18//18 229//229 230//230
f 18//18 230//230 19//19
f 19//19 230//230 477//477
f 733//733 523//523 59//59
f 59//59 523//523 487//487
f 490//490 52//52 473//473
f 490//490 473//473 231//231
f 231//231 473//473 475//475
f 231//231 475//475 235//235
f 236//236 693//693 619//619
f 619//619 693//693 234//234
f 237//237 476//476 657//657
f 657//657 476//476 233//233
f 238//238 474//474 64//64
f 64//64 474//474 635//635
f 738//738 392//392 728//728
f 728//728 392//392 400//400
f 44//44 242//242 45//45
f 45//45 242//242 243//243
f 45//45 243//243 825//825
f 825//825 243//243 820//820
f 825//825 820//820 499//499
f 499//499 820//820 821//821
f 499//499 821//821 62//62
f 62//62 821//821 831//831
f 62//62 831//831 70//70
f 70//70 831//831 792//792
f 70//70 792//792 819//819
f 819//819 792//792 248//248
f 819//819 248//248 50//50
f 50//50 248//248 459//459
f 50//50 459//459 51//51
f 51//51 459//459 460//460
f 51//51 460//460 53//53
f 53//53 460//460 528//528
f 53//53 528//528 74//74
f 74//74 528//528 608//608
f 74//74 608//608 73//73
f 73//73 608//608 609//609
f 73//73 609//609 514//514
f 514//514 609//609 648//648
f 514//514 648//648 76//76
f 76//76 648//648 688//688
f 76//76 688//688 77//77
f 77//77 688//688 729//729
f 77//77 729//729 54//54
f 54//54 729//729 417//417
f 54//54 417//417 783//783
f 783//783 417//417 418//418
f 783//783 418//418 57//57
f 57//57 418//418 259//259
f 57//57 259//259 58//58
f 58//58 259//259 706//706
f 58//58 706//706 42//42
f 42//42 706//706 754//754
f 42//42 754//754 43//43
f 43//43 754//754 368//368
f 43//43 368//368 78//78
f 78//78 368//368 369//369
f 78//78 369//369 603//603
f 603//603 369//369 542//542
f 603//603 542//542 80//80
f 80//80 542//542 828//828
f 80//80 828//828 493//493
f 493//493 828//828 796//796
f 493//493 796//796 48//48
f 48//48 796//796 797//797
f 48//48 797//797 65//65
f 65//65 797//797 445//445
f 65//65 445//445 66//66
f 66//66 445//445 386//386
f 66//66 386//386 68//68
f 68//68 386//386 387//387
f 68//68 387//387 600//600
f 600//600 387//387 271//271
f 600//600 271//271 81//81
f 81//81 271//271 640//640
f 81//81 640//640 82//82
f 82//82 640//640 595//595
f 82//82 595//595 84//84
f 84//84 595//595 550//550
f 84//84 550//550 691//691
f 691//691 550//550 551//551
f 691//691 551//551 701//701
f 701//701 551//551 678//678
f 701//701 678//678 545//545
f 545//545 678//678 277//277
f 545//545 277//277 44//44
f 44//44 277//277 242//242
f 614//614 471//471 189//189
f 189//189 471//471 415//415
f 189//189 415//415 414//414
f 281//281 282//282 279//279
f 279//279 282//282 280//280
f 579//579 488//488 748//748
f 748//748 488//488 806//806
f 748//748 806//806 747//747
f 433//433 578//578 748//748
f 748//748 578//578 579//579
f 434//434 670//670 433//433
f 433//433 670//670 578//578
f 286//286 812//812 434//434
f 434//434 812//812 670//670
f 287//287 518//518 683//683
f 683//683 518//518 49//49
f 594//594 520//520 685//685
f 685//685 520//520 41//41
f 560//560 72//72 288//288
f 288//288 72//72 56//56
f 392//392 738//738 394//394
f 394//394 738//738 739//739
f 393//393 739//739 559//559
f 597//597 644//644 598//598
f 598//598 644//644 717//717
f 292//292 596//596 397//397
f 397//397 596//596 452//452
f 396//396 296//296 398//398
f 398//398 296//296 298//298
f 297//297 785//785 299//299
f 299//299 785//785 300//300
f 802//802 723//723 410//410
f 410//410 723//723 725//725
f 483//483 562//562 801//801
f 801//801 562//562 302//302
f 484//484 563//563 482//482
f 482//482 563//563 561//561
f 293//293 716//716 307//307
f 307//307 716//716 308//308
f 671//671 616//616 547//547
f 163//163 164//164 547//547
f 547//547 164//164 310//310
f 547//547 310//310 671//671
f 443//443 727//727 441//441
f 441//441 727//727 534//534
f 123//123 125//125 441//441
f 170//170 589//589 809//809
f 123//123 441//441 121//121
f 121//121 441//441 534//534
f 121//121 534//534 718//718
f 125//125 127//127 441//441
f 441//441 127//127 129//129
f 441//441 129//129 131//131
f 824//824 111//111 534//534
f 534//534 111//111 113//113
f 174//174 176//176 744//744
f 809//809 95//95 170//170
f 170//170 95//95 97//97
f 170//170 97//97 687//687
f 687//687 97//97 99//99
f 687//687 99//99 166//166
f 113//113 115//115 534//534
f 534//534 115//115 647//647
f 534//534 647//647 718//718
f 744//744 159//159 174//174
f 174//174 159//159 89//89
f 174//174 89//89 589//589
f 589//589 89//89 91//91
f 589//589 91//91 809//809
f 131//131 462//462 441//441
f 441//441 462//462 135//135
f 441//441 135//135 749//749
f 99//99 637//637 166//166
f 166//166 637//637 709//709
f 166//166 709//709 162//162
f 162//162 709//709 105//105
f 162//162 105//105 534//534
f 534//534 105//105 107//107
f 534//534 107//107 824//824
f 699//699 700//700 143//143
f 143//143 145//145 699//699
f 699//699 145//145 147//147
f 699//699 147//147 180//180
f 135//135 793//793 749//749
f 749//749 793//793 750//750
f 749//749 750//750 700//700
f 700//700 750//750 751//751
f 700//700 751//751 143//143
f 147//147 149//149 180//180
f 180//180 149//149 686//686
f 180//180 686//686 178//178
f 178//178 686//686 788//788
f 178//178 788//788 176//176
f 176//176 788//788 155//155
f 176//176 155//155 744//744
f 524//524 522//522 777//777
f 620//620 721//721 192//192
f 192//192 721//721 444//444
f 192//192 444//444 187//187
f 187//187 188//188 192//192
f 192//192 188//188 413//413
f 192//192 413//413 567//567
f 567//567 413//413 416//416
f 567//567 416//416 658//658
f 777//777 721//721 524//524
f 524//524 721//721 620//620
f 524//524 620//620 46//46
f 46//46 620//620 658//658
f 46//46 658//658 805//805
f 805//805 658//658 416//416
f 816//816 382//382 817//817
f 817//817 382//382 693//693
f 817//817 693//693 318//318
f 318//318 693//693 236//236
f 787//787 198//198 732//732
f 384//384 220//220 219//219
f 761//761 214//214 382//382
f 382//382 214//214 213//213
f 382//382 213//213 212//212
f 220//220 384//384 221//221
f 221//221 384//384 565//565
f 221//221 565//565 538//538
f 207//207 206//206 693//693
f 479//479 814//814 480//480
f 480//480 814//814 813//813
f 480//480 813//813 226//226
f 226//226 225//225 480//480
f 480//480 225//225 224//224
f 480//480 224//224 565//565
f 565//565 224//224 552//552
f 565//565 552//552 538//538
f 207//207 693//693 632//632
f 206//206 205//205 693//693
f 693//693 205//205 204//204
f 693//693 204//204 676//676
f 198//198 197//197 732//732
f 732//732 197//197 196//196
f 732//732 196//196 232//232
f 232//232 196//196 195//195
f 232//232 195//195 521//521
f 521//521 195//195 501//501
f 521//521 501//501 479//479
f 479//479 501//501 829//829
f 479//479 829//829 814//814
f 219//219 218//218 384//384
f 384//384 218//218 834//834
f 384//384 834//834 382//382
f 382//382 834//834 826//826
f 382//382 826//826 761//761
f 676//676 675//675 693//693
f 693//693 675//675 201//201
f 693//693 201//201 732//732
f 732//732 201//201 200//200
f 732//732 200//200 787//787
f 212//212 211//211 382//382
f 382//382 211//211 210//210
f 382//382 210//210 693//693
f 693//693 210//210 209//209
f 693//693 209//209 632//632
f 617//617 653//653 800//800
f 800//800 653//653 803//803
f 728//728 400//400 656//656
f 656//656 400//400 766//766
f 656//656 766//766 618//618
f 618//618 766//766 652//652
f 618//618 652//652 617//617
f 617//617 652//652 653//653
f 326//326 241//241 329//329
f 329//329 241//241 239//239
f 328//328 240//240 290//290
f 789//789 411//411 615//615
f 615//615 411//411 409//409
f 724//724 746//746 409//409
f 409//409 746//746 472//472
f 409//409 472//472 615//615
f 395//395 746//746 628//628
f 628//628 746//746 724//724
f 628//628 724//724 664//664
f 664//664 724//724 584//584
f 664//664 584//584 585//585
f 682//682 267//267 266//266
f 262//262 261//261 684//684
f 710//710 270//270 285//285
f 285//285 270//270 269//269
f 285//285 269//269 682//682
f 682//682 269//269 268//268
f 682//682 268//268 267//267
f 266//266 265//265 682//682
f 682//682 265//265 264//264
f 682//682 264//264 684//684
f 684//684 264//264 263//263
f 684//684 263//263 262//262
f 261//261 260//260 684//684
f 684//684 260//260 588//588
f 684//684 588//588 593//593
f 593//593 588//588 258//258
f 593//593 258//258 257//257
f 245//245 244//244 746//746
f 746//746 244//244 779//779
f 746//746 779//779 767//767
f 251//251 250//250 395//395
f 395//395 250//250 249//249
f 249//249 731//731 395//395
f 395//395 731//731 247//247
f 395//395 247//247 746//746
f 746//746 247//247 246//246
f 746//746 246//246 245//245
f 257//257 256//256 593//593
f 593//593 256//256 255//255
f 593//593 255//255 289//289
f 255//255 254//254 289//289
f 289//289 254//254 253//253
f 289//289 253//253 395//395
f 395//395 253//253 252//252
f 395//395 252//252 251//251
f 283//283 274//274 284//284
f 284//284 274//274 273//273
f 284//284 273//273 285//285
f 285//285 273//273 272//272
f 285//285 272//272 710//710
f 767//767 756//756 746//746
f 746//746 756//756 276//276
f 746//746 276//276 283//283
f 283//283 276//276 275//275
f 283//283 275//275 274//274
f 425//425 419//419 375//375
f 375//375 419//419 421//421
f 375//375 421//421 822//822
f 822//822 421//421 340//340
f 333//333 574//574 586//586
f 586//586 574//574 734//734
f 583//583 304//304 722//722
f 722//722 306//306 583//583
f 583//583 306//306 564//564
f 583//583 564//564 573//573
f 655//655 575//575 399//399
f 399//399 575//575 573//573
f 399//399 573//573 295//295
f 295//295 573//573 564//564
f 295//295 564//564 645//645
f 645//645 564//564 294//294
f 694//694 696//696 654//654
f 654//654 696//696 343//343
f 453//453 291//291 599//599
f 465//465 697//697 695//695
f 301//301 303//303 305//305
f 305//305 303//303 412//412
f 305//305 412//412 485//485
f 485//485 412//412 465//465
f 599//599 485//485 453//453
f 453//453 485//485 465//465
f 453//453 465//465 784//784
f 784//784 465//465 695//695
f 790//790 704//704 331//331
f 331//331 704//704 345//345
f 674//674 705//705 278//278
f 278//278 705//705 330//330
f 611//611 673//673 720//720
f 719//719 672//672 726//726
f 719//719 726//726 311//311
f 610//610 314//314 613//613
f 613//613 314//314 313//313
f 319//319 529//529 320//320
f 320//320 529//529 510//510
f 349//349 385//385 508//508
f 508//508 385//385 383//383
f 316//316 315//315 507//507
f 507//507 315//315 447//447
f 446//446 815//815 448//448
f 448//448 815//815 317//317
f 353//353 818//818 554//554
f 555//555 818//818 800//800
f 555//555 800//800 803//803
f 323//323 327//327 325//325
f 325//325 327//327 556//556
f 324//324 557//557 354//354
f 652//652 766//766 355//355
f 355//355 766//766 627//627
f 355//355 626//626 772//772
f 772//772 626//626 665//665
f 332//332 334//334 356//356
f 356//356 334//334 735//735
f 374//374 376//376 426//426
f 426//426 376//376 358//358
f 823//823 781//781 337//337
f 337//337 781//781 357//357
f 435//435 437//437 339//339
f 339//339 437//437 359//359
f 338//338 389//389 436//436
f 436//436 389//389 360//360
f 336//336 390//390 422//422
f 422//422 390//390 388//388
f 335//335 642//642 420//420
f 420//420 642//642 391//391
f 362//362 641//641 612//612
f 612//612 641//641 576//576
f 612//612 576//576 347//347
f 347//347 576//576 344//344
f 347//347 344//344 309//309
f 309//309 344//344 466//466
f 309//309 466//466 346//346
f 362//362 612//612 361//361
f 361//361 612//612 689//689
f 361//361 689//689 690//690
f 342//342 341//341 773//773
f 773//773 341//341 576//576
f 773//773 576//576 558//558
f 558//558 576//576 641//641
f 558//558 641//641 553//553
f 553//553 641//641 377//377
f 553//553 377//377 449//449
f 449//449 377//377 782//782
f 449//449 782//782 352//352
f 352//352 782//782 351//351
f 351//351 782//782 438//438
f 351//351 438//438 530//530
f 530//530 438//438 361//361
f 530//530 361//361 509//509
f 509//509 361//361 690//690
f 509//509 690//690 511//511
f 312//312 321//321 778//778
f 778//778 321//321 364//364
f 778//778 364//364 363//363
f 321//321 481//481 364//364
f 364//364 481//481 512//512
f 322//322 566//566 365//365
f 365//365 566//566 350//350
f 778//778 363//363 348//348

