mtllib material.mtl
usemtl orange
v -0.07918200 0.04814100 0.00174400
v -0.07899300 0.04927000 0.00623200
v -0.07832800 0.04282100 -0.01783600
v -0.07771300 0.04165800 -0.02217800
v -0.07771200 0.05225600 0.01737700
v -0.07719500 0.05569500 0.00971900
v -0.07703500 0.05278600 -0.01073200
v -0.07565800 0.05536700 0.02898800
v -0.07519500 0.06148800 -0.00282800
v -0.07509900 0.06129100 0.01915300
v -0.07484200 0.04602700 -0.02865300
v -0.07356300 0.03774300 -0.03678600
v -0.07341900 0.05814100 0.03933900
v -0.07340300 0.05731800 -0.02286700
v -0.07331400 0.06826800 0.00680100
v -0.07306800 0.06482400 0.02962300
v -0.07180800 0.06721100 -0.01507400
v -0.07148100 0.07279600 0.01779500
v -0.07116100 0.06636400 0.04065800
v -0.07099200 0.07146600 -0.01041300
v -0.07051500 0.03620100 -0.04358100
v -0.07027000 0.03576700 -0.04416300
v -0.07018000 0.07516400 -0.00527100
v -0.06994500 0.06222400 0.05457900
v -0.06972000 0.07502800 0.02958800
v -0.06964400 0.06255300 0.05580500
v -0.06956000 0.04938400 -0.03995200
v -0.06942300 0.06618300 0.05186900
v -0.06937600 0.07824600 0.00030100
v -0.06858000 0.08067200 0.00622400
v -0.06837600 0.06175700 -0.03445400
v -0.06807500 0.06426900 0.06220800
v -0.06806600 0.07525500 0.04166700
v -0.06792100 0.06443700 0.06283700
v -0.06773000 0.06749200 -0.03091100
v -0.06706600 0.07282700 -0.02679900
v -0.06701200 0.08358300 0.01875600
v -0.06657200 0.07389000 0.05372500
v -0.06639500 0.07767200 -0.02210600
v -0.06611500 0.06635600 0.06999800
v -0.06572500 0.08193500 -0.01684900
v -0.06550000 0.08420400 0.03168500
v -0.06528700 0.07130100 0.06562400
v -0.06505700 0.08553100 -0.01107700
v -0.06439200 0.08840400 -0.00487900
v -0.06412400 0.06820200 0.07688800
v -0.06410400 0.08302400 0.04462800
v -0.06372500 0.09054100 0.00163800
v -0.06365200 0.03852300 -0.05374400
v -0.06305900 0.09197400 0.00836600
v -0.06293600 0.05264900 -0.05044500
v -0.06287800 0.08047600 0.05741600
v -0.06250900 0.05948000 -0.04811400
v -0.06204800 0.06608500 -0.04525800
v -0.06185700 0.07689300 0.06999200
v -0.06174800 0.09296900 0.02212100
v -0.06156100 0.07239200 -0.04182300
v -0.06106000 0.07252300 0.08234700
v -0.06105900 0.07831100 -0.03776400
v -0.06054900 0.08373700 -0.03305200
v -0.06051400 0.09195100 0.03592200
v -0.06003600 0.08855400 -0.02769200
v -0.05952100 0.09265300 -0.02173500
v -0.05941300 0.08942100 0.04956900
v -0.05900300 0.09596000 -0.01527600
v -0.05847900 0.08575800 0.06299200
v -0.05847900 0.09845400 -0.00844000
v -0.05795100 0.10016500 -0.00134900
v -0.05773400 0.08124100 0.07618400
v -0.05689900 0.10151000 0.01319800
v -0.05589500 0.10062900 0.02782200
v -0.05556000 0.04077100 -0.06285700
v -0.05512000 0.05581600 -0.05990100
v -0.05498400 0.09809000 0.04228600
v -0.05485700 0.06315400 -0.05774400
v -0.05457000 0.07029500 -0.05504200
v -0.05426500 0.07716400 -0.05172600
v -0.05419800 0.09431700 0.05651000
v -0.05402800 0.02999000 -0.06572300
v -0.05394400 0.08365900 -0.04773000
v -0.05361400 0.08965400 -0.04301000
v -0.05355200 0.08962300 0.07048400
v -0.05327500 0.09501200 -0.03756300
v -0.05292900 0.09960200 -0.03143400
v -0.05270900 0.07837700 0.09779700
v -0.05257600 0.10333100 -0.02473100
v -0.05221600 0.10616900 -0.01759100
v -0.05185100 0.10814600 -0.01015600
v -0.05148300 0.10933200 -0.00254600
v -0.05111800 0.10981700 0.00514600
v -0.05041100 0.10904700 0.02054900
v -0.04975800 0.10646800 0.03577900
v -0.04917900 0.10255500 0.05074200
v -0.04868400 0.09765300 0.06542900
v -0.04796200 0.08587500 0.09411000
v -0.04780200 0.02858400 -0.07096700
v -0.04700800 0.02833900 -0.07188200
v -0.04700800 0.02833900 -0.07188200
v -0.04682900 0.02830700 -0.07200300
v -0.04682900 0.02830700 -0.07200300
v -0.04682900 0.02830700 -0.07200300
v -0.04682900 0.02830700 -0.07200300
v -0.04663200 0.02835100 -0.07183800
v -0.04663200 0.02835100 -0.07183800
v -0.04663200 0.02835100 -0.07183800
v -0.04661200 0.04281200 -0.07059900
v -0.04661200 0.04290800 -0.07059100
v -0.04661200 0.04295500 -0.07058700
v -0.04659700 0.05447600 -0.06880600
v -0.04658000 0.05875200 -0.06780900
v -0.04658000 0.05878100 -0.06780200
v -0.04655600 0.06485800 -0.06638500
v -0.04654600 0.06659200 -0.06583400
v -0.04654500 0.06667000 -0.06580900
v -0.04651200 0.07225800 -0.06403300
v -0.04649600 0.07421400 -0.06323500
v -0.04649500 0.07441300 -0.06315400
v -0.04647400 0.02832300 -0.07194500
v -0.04647400 0.02832300 -0.07194500
v -0.04645300 0.07944800 -0.06110000
v -0.04642900 0.08157900 -0.05999000
v -0.04642600 0.08189700 -0.05982500
v -0.04642300 0.04282500 -0.07074300
v -0.04637700 0.08624100 -0.05756200
v -0.04634300 0.08857200 -0.05601200
v -0.04633600 0.08906600 -0.05568400
v -0.04632800 0.02829600 -0.07204400
v -0.04632800 0.02829600 -0.07204400
v -0.04632800 0.02829600 -0.07204400
v -0.04630200 0.05881700 -0.06813600
v -0.04628300 0.09269000 -0.05327400
v -0.04625800 0.03719000 -0.07144200
v -0.04623800 0.09506200 -0.05126200
v -0.04623700 0.03941500 -0.07118400
v -0.04622500 0.09572900 -0.05069600
v -0.04622000 0.06675500 -0.06613200
v -0.04620600 0.04282700 -0.07078700
v -0.04617600 0.09831500 -0.04850300
v -0.04614300 0.04954200 -0.07000800
v -0.04612600 0.07454800 -0.06354000
v -0.04611200 0.10087900 -0.04571100
v -0.04609300 0.10166000 -0.04486100
v -0.04605000 0.10339200 -0.04297500
v -0.04604400 0.05725600 -0.06858200
v -0.04602400 0.05884400 -0.06828900
v -0.04601600 0.08210200 -0.06026800
v -0.04600900 0.06006200 -0.06806300
v -0.04597000 0.10593300 -0.03945100
v -0.04594300 0.10680400 -0.03824400
v -0.04593800 0.10696200 -0.03802500
v -0.04590900 0.06601900 -0.06646700
v -0.04589600 0.06678500 -0.06626200
v -0.04588900 0.08936200 -0.05616800
v -0.04584200 0.07002500 -0.06539400
v -0.04581000 0.11003800 -0.03252700
v -0.04579000 0.11052500 -0.03165700
v -0.04577400 0.11080700 -0.03097100
v -0.04575400 0.07459300 -0.06369800
v -0.04575400 0.07459600 -0.06369700
v -0.04574600 0.09612100 -0.05118100
v -0.04567200 0.07880100 -0.06213600
v -0.04563900 0.11325700 -0.02501300
v -0.04559700 0.11377200 -0.02319100
v -0.04559700 0.08219600 -0.06048700
v -0.04558700 0.10214700 -0.04531500
v -0.04558200 0.08287700 -0.06015600
v -0.04552400 0.08545800 -0.05890300
v -0.04546400 0.11541600 -0.01737500
v -0.04546200 0.11543900 -0.01729400
v -0.04542400 0.08949000 -0.05639100
v -0.04541400 0.11579200 -0.01520400
v -0.04541200 0.10730100 -0.03858300
v -0.04539500 0.09067500 -0.05565300
v -0.04535400 0.09231300 -0.05463300
v -0.04528100 0.11676800 -0.00943000
v -0.04524100 0.09630800 -0.05142000
v -0.04523400 0.11137700 -0.03124600
v -0.04522800 0.11693500 -0.00709200
v -0.04519800 0.09783300 -0.05019400
v -0.04518400 0.09831300 -0.04980800
v -0.04509900 0.11734400 -0.00139300
v -0.04509300 0.11736400 -0.00110800
v -0.04505200 0.11441500 -0.02340000
v -0.04504900 0.10241900 -0.04557200
v -0.04504000 0.11740200 0.00121500
v -0.04502000 0.10331400 -0.04464900
v -0.04499200 0.10404500 -0.04368500
v -0.04487000 0.11643600 -0.01533400
v -0.04486700 0.10736800 -0.03930700
v -0.04485800 0.11706900 0.00919400
v -0.04485400 0.10764700 -0.03882500
v -0.04480500 0.11697300 0.01151400
v -0.04478500 0.10912900 -0.03626400
v -0.04473600 0.11657500 0.01468400
v -0.04469200 0.11756800 -0.00715600
v -0.04468800 0.11119900 -0.03269100
v -0.04468100 0.11625800 0.01721000
v -0.04465800 0.11172800 -0.03142600
v -0.04458000 0.11567800 0.02182800
v -0.04458000 0.11308500 -0.02818400
v -0.04451700 0.11793700 0.00106900
v -0.04451600 0.11419700 -0.02552700
v -0.04447100 0.11476400 -0.02352300
v -0.04439400 0.11393200 0.03057700
v -0.04438300 0.11586700 -0.01961900
v -0.04434700 0.11766000 0.00922500
v -0.04434100 0.11344200 0.03303500
v -0.04434000 0.11641900 -0.01766300
v -0.04433500 0.11338500 0.03332100
v -0.04429300 0.11678200 -0.01541200
v -0.04419700 0.11753100 -0.01075800
v -0.04418100 0.11684200 0.01727800
v -0.04415600 0.11785100 -0.00877000
v -0.04412600 0.11795100 -0.00720100
v -0.04407100 0.10989700 0.04618200
v -0.04405700 0.10970500 0.04689100
v -0.04402600 0.10917400 0.04846300
v -0.04401900 0.11829500 -0.00176600
v -0.04400800 0.11833000 -0.00121300
v -0.04400500 0.11833400 -0.00104000
v -0.04396400 0.11831400 0.00105800
v -0.04387700 0.11827100 0.00559100
v -0.04385600 0.11390500 0.03313600
v -0.04384500 0.11813900 0.00726100
v -0.04380700 0.11798400 0.00923800
v -0.04377400 0.10483700 0.06129100
v -0.04377000 0.10476600 0.06147200
v -0.04373200 0.10397500 0.06347000
v -0.04370000 0.11754200 0.01484500
v -0.04365500 0.11716700 0.01731000
v -0.04354900 0.10964000 0.04860400
v -0.04351000 0.11596900 0.02516700
v -0.04351000 0.11596500 0.02518900
v -0.04345700 0.09828400 0.07785500
v -0.04345100 0.09814600 0.07816400
v -0.04339600 0.11473000 0.03118500
v -0.04335800 0.11422200 0.03320100
v -0.04325900 0.10442300 0.06363300
v -0.04321100 0.09233800 0.09120700
v -0.04320300 0.11218400 0.04128600
v -0.04318600 0.09173100 0.09256900
v -0.04317600 0.11173200 0.04273900
v -0.04306400 0.10988600 0.04867500
v -0.04304900 0.08841200 0.10002400
v -0.04298100 0.09853500 0.07832200
v -0.04295700 0.10812200 0.05434500
v -0.04285300 0.10606900 0.05988000
v -0.04278000 0.10464700 0.06371200
v -0.04271800 0.09217700 0.09276300
v -0.04266100 0.10231800 0.06999000
v -0.04254000 0.09947200 0.07668200
v -0.04250900 0.09874000 0.07840400
v -0.04232600 0.09444100 0.08851100
v -0.04227600 0.07964200 0.11958200
v -0.04226000 0.09241000 0.09286500
v -0.04200500 0.08460400 0.10960300
v -0.04184600 0.07975400 0.12000100
v -0.03936100 0.12109400 0.00468100
v -0.03904100 0.11917400 0.02283800
v -0.03886000 0.02718500 -0.07619100
v -0.03552200 0.04053500 -0.07687000
v -0.03544100 0.05886100 -0.07435500
v -0.03538500 0.06787800 -0.07228700
v -0.03531700 0.07670600 -0.06952500
v -0.03523700 0.08523400 -0.06594700
v -0.03514200 0.09330800 -0.06144500
v -0.03503400 0.10073700 -0.05594600
v -0.03491200 0.10730900 -0.04945200
v -0.03478000 0.11284100 -0.04205800
v -0.03464100 0.11722800 -0.03393400
v -0.03449800 0.12045600 -0.02528300
v -0.03435500 0.12258600 -0.01629900
v -0.03421300 0.12372600 -0.00713300
v -0.03407300 0.12399100 0.00210300
v -0.03380300 0.12235400 0.02050900
v -0.03354600 0.11846500 0.03858800
v -0.03330300 0.11293300 0.05624700
v -0.03307200 0.10623800 0.07350200
v -0.03265400 0.09090400 0.10719700
v -0.02860500 0.12645700 -0.00009000
v -0.02838300 0.12506000 0.01852700
v -0.02817100 0.12129800 0.03682900
v -0.02391700 0.04136200 -0.08105500
v -0.02386700 0.06005100 -0.07861800
v -0.02383200 0.06925600 -0.07658600
v -0.02379000 0.07827700 -0.07385500
v -0.02373800 0.08700600 -0.07030600
v -0.02367700 0.09529500 -0.06582900
v -0.02360700 0.10296100 -0.06035700
v -0.02352900 0.10980300 -0.05388800
v -0.02344300 0.11564400 -0.04650700
v -0.02335200 0.12037300 -0.03837000
v -0.02326000 0.12396200 -0.02966900
v -0.02316600 0.12645000 -0.02059200
v -0.02307400 0.12792300 -0.01129300
v -0.02298300 0.12848400 -0.00189300
v -0.02280700 0.12728400 0.01689900
v -0.02264000 0.12362700 0.03538300
v -0.02248200 0.11815300 0.05342400
v -0.02233300 0.11138700 0.07102600
v -0.02206300 0.09572100 0.10533500
v -0.02188400 0.08303900 0.13225800
v -0.02008400 0.08325300 0.13305700
v -0.01972400 0.02536000 -0.08300200
v -0.01723700 0.13006500 -0.00329900
v -0.01710700 0.12902000 0.01562800
v -0.01698300 0.12544500 0.03425500
v -0.01185500 0.04186200 -0.08359100
v -0.01183200 0.06077200 -0.08120000
v -0.01181500 0.07009000 -0.07918900
v -0.01179400 0.07922800 -0.07647600
v -0.01176900 0.08807800 -0.07294200
v -0.01174000 0.09649800 -0.06848100
v -0.01170500 0.10430700 -0.06302400
v -0.01166700 0.11131200 -0.05656900
v -0.01162400 0.11733900 -0.04919500
v -0.01158000 0.12227500 -0.04104900
v -0.01153400 0.12608100 -0.03231800
v -0.01148800 0.12878500 -0.02318400
v -0.01144300 0.13046000 -0.01380600
v -0.01139800 0.13119800 -0.00430600
v -0.01131100 0.13026300 0.01471900
v -0.01122900 0.12674700 0.03344700
v -0.01115200 0.12130900 0.05171900
v -0.01107900 0.11450300 0.06953000
v -0.01094600 0.09864100 0.10421000
v -0.00549600 0.13187900 -0.00491100
v -0.00545300 0.13101100 0.01417100
v -0.00484600 0.02478700 -0.08514000
v 0.00043600 0.08428000 0.13689200
v 0.00043600 0.09962200 0.10383400
v 0.00043600 0.11554800 0.06902900
v 0.00043600 0.12236700 0.05114800
v 0.00043600 0.12779300 0.03279800
v 0.00043600 0.13126100 0.01398900
v 0.00043600 0.11790700 -0.05009500
v 0.00043600 0.12291200 -0.04194700
v 0.00043600 0.12679100 -0.03320500
v 0.00043600 0.12956700 -0.02405300
v 0.00043600 0.13130900 -0.01464700
v 0.00043600 0.13210700 -0.00511400
v 0.00043600 0.11181800 -0.05746700
v 0.00043600 0.06101400 -0.08206700
v 0.00043600 0.07037000 -0.08006200
v 0.00043600 0.07954700 -0.07735500
v 0.00043600 0.08843800 -0.07382600
v 0.00043600 0.09690100 -0.06937000
v 0.00043600 0.10475900 -0.06391800
v 0.00043600 0.04203100 -0.08444200
v 0.00632600 0.13101100 0.01417100
v 0.00636900 0.13187900 -0.00491100
v 0.01181900 0.09864100 0.10421000
v 0.01195100 0.11450300 0.06953000
v 0.01202400 0.12130900 0.05171900
v 0.01210200 0.12674700 0.03344700
v 0.01218400 0.13026300 0.01471900
v 0.01227000 0.13119800 -0.00430600
v 0.01231500 0.13046000 -0.01380600
v 0.01236100 0.12878500 -0.02318400
v 0.01240700 0.12608100 -0.03231800
v 0.01245200 0.12227500 -0.04104900
v 0.01249700 0.11733900 -0.04919500
v 0.01253900 0.11131200 -0.05656900
v 0.01257800 0.10430700 -0.06302400
v 0.01261200 0.09649800 -0.06848100
v 0.01264200 0.08807800 -0.07294200
v 0.01266700 0.07922800 -0.07647600
v 0.01268800 0.07009000 -0.07918900
v 0.01270500 0.06077200 -0.08120000
v 0.01272800 0.04186200 -0.08359100
v 0.01681400 0.08362800 0.13445600
v 0.01716200 0.02516600 -0.08372300
v 0.01785500 0.12544500 0.03425500
v 0.01797900 0.12902000 0.01562800
v 0.01811000 0.13006500 -0.00329900
v 0.02293600 0.09572100 0.10533500
v 0.02320600 0.11138700 0.07102600
v 0.02335500 0.11815300 0.05342400
v 0.02351300 0.12362700 0.03538300
v 0.02368000 0.12728400 0.01689900
v 0.02385500 0.12848400 -0.00189300
v 0.02394600 0.12792300 -0.01129300
v 0.02403900 0.12645000 -0.02059200
v 0.02413200 0.12396200 -0.02966900
v 0.02422500 0.12037300 -0.03837000
v 0.02431500 0.11564400 -0.04650700
v 0.02436600 0.02566200 -0.08187300
v 0.02440100 0.10980300 -0.05388800
v 0.02448000 0.10296100 -0.06035700
v 0.02455000 0.09529500 -0.06582900
v 0.02461100 0.08700600 -0.07030600
v 0.02466200 0.07827700 -0.07385500
v 0.02470500 0.06925600 -0.07658600
v 0.02474000 0.06005100 -0.07861800
v 0.02479000 0.04136200 -0.08105500
v 0.02480600 0.02565800 -0.08189000
v 0.02544700 0.02573300 -0.08160800
v 0.02871300 0.02597200 -0.08071700
v 0.02904400 0.12129800 0.03682900
v 0.02925500 0.12506000 0.01852700
v 0.02947700 0.12645700 -0.00009000
v 0.03352600 0.09090400 0.10719700
v 0.03394500 0.10623800 0.07350200
v 0.03417500 0.11293300 0.05624700
v 0.03441900 0.11846500 0.03858800
v 0.03467600 0.12235400 0.02050900
v 0.03494600 0.12399100 0.00210300
v 0.03508600 0.12372600 -0.00713300
v 0.03522800 0.12258600 -0.01629900
v 0.03537100 0.12045600 -0.02528300
v 0.03551400 0.11722800 -0.03393400
v 0.03565300 0.11284100 -0.04205800
v 0.03578500 0.10730900 -0.04945200
v 0.03590600 0.10073700 -0.05594600
v 0.03601500 0.09330800 -0.06144500
v 0.03610900 0.08523400 -0.06594700
v 0.03619000 0.07670600 -0.06952500
v 0.03625700 0.06787800 -0.07228700
v 0.03631300 0.05886100 -0.07435500
v 0.03639400 0.04053500 -0.07687000
v 0.03960800 0.11513700 0.04065600
v 0.03991300 0.11917400 0.02283800
v 0.04023300 0.12109400 0.00468100
v 0.04287300 0.08462800 0.10961300
v 0.04310400 0.09191700 0.09408000
v 0.04312500 0.09244100 0.09288000
v 0.04338100 0.09876000 0.07841100
v 0.04341200 0.09950900 0.07669700
v 0.04346400 0.10080700 0.07372300
v 0.04359100 0.09217700 0.09276300
v 0.04365300 0.10467600 0.06372100
v 0.04375600 0.10615000 0.05991100
v 0.04376500 0.10633100 0.05944400
v 0.04385300 0.09853500 0.07832200
v 0.04393600 0.10989000 0.04867400
v 0.04401100 0.11119000 0.04473700
v 0.04404900 0.11171700 0.04273700
v 0.04405600 0.09181200 0.09260500
v 0.04406000 0.09192400 0.09236300
v 0.04408100 0.09240800 0.09124200
v 0.04416400 0.10442300 0.06363300
v 0.04423000 0.11422900 0.03320200
v 0.04425300 0.11454700 0.03199700
v 0.04432600 0.09807000 0.07813100
v 0.04438100 0.11588200 0.02517200
v 0.04442100 0.10964000 0.04860400
v 0.04442900 0.10045700 0.07260400
v 0.04445700 0.11666900 0.02114600
v 0.04452800 0.11714400 0.01731000
v 0.04460600 0.10390300 0.06344400
v 0.04464500 0.10466100 0.06143100
v 0.04464800 0.11794200 0.01086100
v 0.04467900 0.11800700 0.00924200
v 0.04471700 0.11808800 0.00726100
v 0.04472900 0.11390500 0.03313600
v 0.04476400 0.10697800 0.05527300
v 0.04483700 0.11833800 0.00105700
v 0.04484500 0.11835700 0.00060300
v 0.04487900 0.11833200 -0.00114100
v 0.04489100 0.11831100 -0.00176800
v 0.04489900 0.10914300 0.04845400
v 0.04492100 0.11825800 -0.00333500
v 0.04494400 0.10986700 0.04617100
v 0.04499700 0.11071000 0.04351700
v 0.04499800 0.11790200 -0.00719500
v 0.04505300 0.11684200 0.01727800
v 0.04506900 0.11757200 -0.01076900
v 0.04508900 0.11747500 -0.01182200
v 0.04516600 0.11678800 -0.01541100
v 0.04521600 0.11336400 0.03301500
v 0.04522000 0.11766000 0.00922500
v 0.04524600 0.11606300 -0.01919500
v 0.04525600 0.11592900 -0.01963600
v 0.04526600 0.11397800 0.03058600
v 0.04528100 0.11415800 0.02987100
v 0.04534300 0.11475000 -0.02351700
v 0.04539000 0.11793700 0.00106900
v 0.04541300 0.11381500 -0.02659500
v 0.04545200 0.11312300 -0.02820000
v 0.04553000 0.11173300 -0.03142700
v 0.04555100 0.11635100 0.01724500
v 0.04556400 0.11756800 -0.00715600
v 0.04556500 0.11112400 -0.03284000
v 0.04560800 0.11658400 0.01468800
v 0.04565800 0.10916000 -0.03628300
v 0.04571800 0.10787800 -0.03853100
v 0.04572700 0.10765900 -0.03882900
v 0.04573100 0.11708500 0.00919200
v 0.04574300 0.11643600 -0.01533400
v 0.04577500 0.11726400 0.00723400
v 0.04586500 0.10406800 -0.04370300
v 0.04587700 0.10375600 -0.04412600
v 0.04591500 0.11736900 0.00107800
v 0.04592200 0.10240700 -0.04556200
v 0.04592400 0.11441500 -0.02340000
v 0.04594100 0.11738800 -0.00002500
v 0.04597200 0.11730200 -0.00139100
v 0.04603000 0.09915700 -0.04902300
v 0.04607000 0.09781100 -0.05016900
v 0.04610100 0.11694200 -0.00709400
v 0.04610600 0.11137700 -0.03124600
v 0.04611300 0.09632000 -0.05143900
v 0.04614200 0.11682900 -0.00889800
v 0.04615400 0.11674300 -0.00942700
v 0.04617500 0.09422400 -0.05322600
v 0.04626700 0.09066600 -0.05564500
v 0.04628400 0.10730100 -0.03858300
v 0.04628700 0.11580800 -0.01520700
v 0.04629700 0.08951100 -0.05643000
v 0.04632100 0.11556200 -0.01672800
v 0.04633200 0.08814100 -0.05736200
v 0.04633600 0.11539000 -0.01736800
v 0.04645400 0.08287800 -0.06016500
v 0.04645900 0.10214700 -0.04531500
v 0.04647000 0.08221000 -0.06052000
v 0.04647000 0.11381600 -0.02320400
v 0.04648800 0.11360700 -0.02397700
v 0.04649300 0.08118900 -0.06106400
v 0.04651300 0.11316300 -0.02510700
v 0.04661900 0.09612100 -0.05118100
v 0.04662800 0.07462400 -0.06377500
v 0.04662800 0.07462100 -0.06377700
v 0.04664400 0.07387400 -0.06408500
v 0.04664500 0.11088500 -0.03089400
v 0.04668300 0.11001300 -0.03251500
v 0.04676200 0.08936200 -0.05616800
v 0.04677100 0.06680200 -0.06633200
v 0.04678600 0.06598700 -0.06659100
v 0.04678900 0.10755500 -0.03708500
v 0.04681500 0.10676200 -0.03821500
v 0.04684200 0.10590700 -0.03943500
v 0.04688900 0.08210200 -0.06026800
v 0.04689400 0.05882700 -0.06822200
v 0.04691400 0.10367000 -0.04262700
v 0.04691700 0.05725300 -0.06858100
v 0.04695200 0.05497000 -0.06910100
v 0.04696500 0.10164800 -0.04485100
v 0.04698400 0.10087200 -0.04570600
v 0.04699900 0.07454800 -0.06354000
v 0.04704600 0.09842800 -0.04839500
v 0.04707800 0.04321700 -0.07084100
v 0.04708100 0.04283700 -0.07087100
v 0.04709300 0.06675500 -0.06613200
v 0.04709700 0.09572800 -0.05069500
v 0.04710900 0.03941400 -0.07114700
v 0.04711000 0.09506200 -0.05126300
v 0.04715400 0.09278300 -0.05320500
v 0.04717400 0.05881700 -0.06813600
v 0.04720900 0.08908100 -0.05570700
v 0.04721700 0.08859000 -0.05604000
v 0.04723900 0.08707200 -0.05706600
v 0.04729500 0.04282500 -0.07074300
v 0.04729900 0.08190200 -0.05983800
v 0.04730300 0.08158700 -0.06000700
v 0.04731900 0.08022400 -0.06073800
v 0.04736700 0.07440700 -0.06314100
v 0.04736900 0.07420900 -0.06322300
v 0.04738600 0.07217700 -0.06406200
v 0.04741700 0.06664900 -0.06573800
v 0.04741700 0.06657100 -0.06576100
v 0.04744200 0.06207500 -0.06712400
v 0.04745200 0.05878400 -0.06780000
v 0.04745200 0.05875400 -0.06780600
v 0.04747700 0.05020200 -0.06956400
v 0.04748500 0.04289200 -0.07046600
v 0.04748500 0.04279700 -0.07047800
v 0.04749100 0.03638300 -0.07126900
v 0.04877900 0.08595600 0.09407200
v 0.04950000 0.09774000 0.06537800
v 0.04999300 0.10264500 0.05068300
v 0.05056900 0.10655900 0.03571200
v 0.05121800 0.10913800 0.02047400
v 0.05192200 0.10990800 0.00506300
v 0.05228500 0.10942200 -0.00263400
v 0.05265100 0.10823300 -0.01024800
v 0.05301400 0.10625300 -0.01768600
v 0.05337200 0.10341200 -0.02483000
v 0.05348300 0.07854800 0.09771000
v 0.05372300 0.09967800 -0.03153600
v 0.05406700 0.09508300 -0.03766600
v 0.05432400 0.08980500 0.07036400
v 0.05440400 0.08971900 -0.04311400
v 0.05473300 0.08371700 -0.04783400
v 0.05496600 0.09450300 0.05637300
v 0.05505100 0.07721600 -0.05182900
v 0.05535400 0.07034100 -0.05514400
v 0.05563900 0.06319400 -0.05784400
v 0.05574900 0.09827800 0.04213300
v 0.05578200 0.07436500 0.09988700
v 0.05590000 0.05585100 -0.05999900
v 0.05633700 0.04079500 -0.06295200
v 0.05665400 0.10081800 0.02765100
v 0.05765300 0.10169700 0.01300900
v 0.05772900 0.07326000 0.09576200
v 0.05848000 0.08152500 0.07598600
v 0.05869800 0.10034400 -0.00155500
v 0.05922300 0.09862700 -0.00865300
v 0.05922300 0.08604700 0.06276700
v 0.05974400 0.09612500 -0.01549700
v 0.06015300 0.08971400 0.04931700
v 0.06025900 0.09280800 -0.02196100
v 0.06077000 0.08869800 -0.02792200
v 0.06124900 0.09224300 0.03564200
v 0.06127900 0.08387000 -0.03328400
v 0.06178600 0.07843100 -0.03799600
v 0.06180500 0.07291500 0.08206700
v 0.06227400 0.03210900 -0.05781500
v 0.06228400 0.07249900 -0.04205400
v 0.06247600 0.09325600 0.02181300
v 0.06260100 0.07729200 0.06967300
v 0.06276600 0.06617900 -0.04548600
v 0.06322400 0.05956300 -0.04833900
v 0.06361900 0.08087800 0.05706000
v 0.06364700 0.05272000 -0.05066600
v 0.06378000 0.09224900 0.00803200
v 0.06435800 0.03857400 -0.05395800
v 0.06444200 0.09080700 0.00129100
v 0.06450000 0.03292900 -0.05475300
v 0.06484100 0.08342400 0.04423300
v 0.06505800 0.06811000 0.07654300
v 0.06510400 0.08865800 -0.00523700
v 0.06576500 0.08577000 -0.01144400
v 0.06605400 0.07181400 0.06516400
v 0.06623100 0.08459700 0.03125100
v 0.06642700 0.08215700 -0.01722200
v 0.06697100 0.06632700 0.06989000
v 0.06709300 0.07787600 -0.02248300
v 0.06733800 0.07440000 0.05321400
v 0.06773500 0.08395800 0.01828500
v 0.06775900 0.07301100 -0.02717700
v 0.06841800 0.06765700 -0.03128700
v 0.06871700 0.06523700 0.06240400
v 0.06880300 0.06443600 0.06283300
v 0.06882800 0.07575400 0.04110700
v 0.06905900 0.06190300 -0.03482700
v 0.06929400 0.08101800 0.00572100
v 0.07008500 0.07857100 -0.00021500
v 0.07023300 0.04949400 -0.04031500
v 0.07024300 0.06678800 0.05118800
v 0.07047600 0.07550500 0.02898100
v 0.07088300 0.07546700 -0.00579600
v 0.07118100 0.03627900 -0.04393300
v 0.07168900 0.07174300 -0.01094400
v 0.07185700 0.06102100 0.05008600
v 0.07197700 0.06694100 0.03991900
v 0.07222700 0.07323500 0.01714600
v 0.07231000 0.03640800 -0.04177100
v 0.07249900 0.06746200 -0.01560600
v 0.07387600 0.06535500 0.02883300
v 0.07404900 0.06865300 0.00612400
v 0.07408200 0.05751700 -0.02339300
v 0.07536100 0.03841800 -0.03427000
v 0.07551000 0.04617700 -0.02916700
v 0.07589500 0.06175600 0.01832800
v 0.07591600 0.06180700 -0.00351500
v 0.07614400 0.03913100 -0.03160700
v 0.07644200 0.05538200 0.02904200
v 0.07774400 0.05303900 -0.01141400
v 0.07792400 0.05336500 0.02151300
v 0.07797700 0.05608100 0.00888100
v 0.07921500 0.04282400 -0.01782500
v 0.08000700 0.04849900 0.00089300
v 0.08011800 0.04769500 0.00035500
v 0.08025900 0.04678100 -0.00305600
v 0.07928100 0.04296700 -0.01729100
v 0.07994400 0.04441100 -0.01190300
v -0.05530100 0.07416500 0.09914300
v -0.05490900 0.07436500 0.09988700
v -0.05403100 0.07481100 0.10155300
v -0.05965400 0.03155100 -0.05989500
v -0.05572300 0.03046000 -0.06396700
v -0.03552100 0.02679700 -0.07763900
v -0.03104900 0.02627700 -0.07957800
v 0.07056100 0.06247000 0.05549600
v 0.07776000 0.05278400 0.01934600
v -0.06171900 0.07009300 0.08394500
v -0.06085900 0.07073400 0.08633800
v 0.04271900 0.07975400 0.12000100
v 0.04314700 0.07964100 0.11957800
v -0.05261600 0.07544900 0.10393300
v -0.04408600 0.02786800 -0.07364300
v -0.04408600 0.02786800 -0.07364300
v -0.03786800 0.08060800 0.12318800
v -0.03383600 0.08136600 0.12601500
v -0.04663200 0.02835100 -0.07183800
v -0.04647400 0.02832300 -0.07194500
v -0.04647400 0.02832300 -0.07194500
v -0.04647400 0.02832300 -0.07194500
v 0.05685900 0.03049700 -0.06382900
v 0.00004300 0.02474500 -0.08529500
v 0.04326600 0.07960900 0.11946000
v 0.04358600 0.07950400 0.11906600
v 0.03331400 0.08157400 0.12679400
v 0.03659200 0.08102500 0.12474200
v -0.06645400 0.06604100 0.06882300
v 0.02480600 0.02565800 -0.08189000
v -0.07612000 0.03981900 -0.02903800
v -0.07546600 0.03928800 -0.03102000
v 0.00043600 0.02475000 -0.08527800
v 0.00868000 0.02484700 -0.08491600
v 0.07888100 0.05170000 0.01530200
v 0.07988300 0.04921000 0.00600800
v 0.02275600 0.08305400 0.13231500
v 0.02335000 0.08299700 0.13210100
v 0.06497700 0.06818500 0.07682500
v -0.00499900 0.08421100 0.13663300
v -0.00328400 0.08424900 0.13677600
v -0.06435000 0.06799200 0.07610500
v -0.04780200 0.02858400 -0.07096700
v -0.07556800 0.05547800 0.02940200
v -0.04630200 0.05881700 -0.06813600
v -0.05974800 0.07156300 0.08943000
v -0.05699500 0.07317400 0.09544400
v 0.04852100 0.07761200 0.11200400
v -0.00269700 0.02476000 -0.08524100
v 0.05654500 0.03042100 -0.06411300
v 0.06037600 0.07172300 0.09002900
v 0.07113800 0.03581700 -0.04397400
v -0.02293200 0.02557500 -0.08219800
v -0.06382800 0.03298100 -0.05455800
v 0.01272500 0.02499900 -0.08434700
v -0.01352000 0.08380700 0.13512700
v -0.01084700 0.08394500 0.13564100
v -0.02392800 0.02566100 -0.08187700
v 0.07767100 0.04052200 -0.02641600
v 0.07888100 0.04209700 -0.02053900
v 0.05338600 0.07549500 0.10410500
v 0.05490800 0.07480900 0.10154500
v 0.06156900 0.07084900 0.08676700
v 0.06259800 0.07009600 0.08395600
v 0.06706500 0.03387400 -0.05122500
v -0.07299700 0.05866400 0.04129000
v -0.07149300 0.06041900 0.04784000
v -0.06623800 0.03389300 -0.05115500
v -0.06466600 0.03326800 -0.05348700
v 0.04964600 0.07718000 0.11039400
v -0.06358600 0.06870000 0.07874600
v -0.04770500 0.07759000 0.11192400
v -0.04271400 0.07950400 0.11906600
v 0.03642800 0.02677500 -0.07772100
v -0.03886000 0.02718500 -0.07619100
v 0.03013200 0.08210800 0.12878500
v -0.07076600 0.03606500 -0.04305100
v 0.07433700 0.05808300 0.03912400
v 0.07527100 0.05697600 0.03499200
v 0.07792400 0.05336500 0.02151300
v 0.07792400 0.05336500 0.02151300
v 0.07859200 0.05220400 0.01718000
v 0.05611800 0.07419400 0.09925100
v 0.04717400 0.05881700 -0.06813600
v 0.04717400 0.05881700 -0.06813600
v 0.06781800 0.06553800 0.06694400
v 0.06866200 0.06459400 0.06342000
v 0.04734700 0.02832200 -0.07194600
v 0.04734700 0.02832200 -0.07194600
v 0.04749100 0.03638300 -0.07126900
v 0.00017700 0.08428300 0.13690200
v -0.03244100 0.08158400 0.12682800
v 0.00474100 0.08423800 0.13673300
v 0.01016500 0.08405200 0.13603900
v 0.04750500 0.02835100 -0.07183800
v -0.04221700 0.07966000 0.11965100
v 0.04720000 0.02829600 -0.07204400
v 0.04727800 0.02830900 -0.07199400
v 0.03666200 0.02679900 -0.07763100
v 0.04421900 0.02782100 -0.07381600
v -0.02706900 0.08242200 0.12995600
v 0.02546600 0.02570000 -0.08173200
v -0.00670200 0.08415800 0.13643700
v 0.04729500 0.04282500 -0.07074300
v 0.04729500 0.04282500 -0.07074300
v 0.06412900 0.06897500 0.07977200
v 0.06851400 0.03449600 -0.04890600
v -0.07938000 0.04628600 -0.00490300
v -0.07914400 0.04869300 0.00407800
v 0.05083800 0.02904000 -0.06926700
v -0.04877100 0.07718100 0.11039800
v -0.07920400 0.04808200 0.00179800
v 0.07644200 0.05538200 0.02904200
v -0.01550200 0.02512700 -0.08386900
v -0.04632800 0.02829600 -0.07204400
v -0.01125400 0.02495000 -0.08453100
v -0.00698800 0.02482800 -0.08498800
v -0.07892000 0.04394100 -0.01365400
v -0.01186400 0.02497600 -0.08443600
v 0.07633300 0.05499200 0.02758600
v 0.07633300 0.05499200 0.02758600
v -0.04642300 0.04282500 -0.07074300
v 0.07233600 0.06045400 0.04797000
v -0.04625800 0.03719000 -0.07144200
v -0.04623700 0.03941500 -0.07118400
v 0.04747700 0.05020200 -0.06956400
v 0.01171900 0.08395300 0.13566900
v -0.07852800 0.04320000 -0.01642300
vn -0.95460000 0.29340000 -0.05100000
vn -0.96400000 0.26560000 0.00770000
vn -0.94220000 0.26200000 -0.20910000
vn -0.93390000 0.27500000 -0.22860000
vn -0.96330000 0.25950000 0.06880000
vn -0.96110000 0.27550000 0.01800000
vn -0.95330000 0.27260000 -0.13010000
vn -0.95030000 0.28770000 0.11930000
vn -0.95040000 0.30390000 -0.06640000
vn -0.95630000 0.28370000 0.07140000
vn -0.92450000 0.23410000 -0.30070000
vn -0.89570000 0.19870000 -0.39770000
vn -0.96020000 0.24580000 0.13260000
vn -0.93070000 0.28140000 -0.23370000
vn -0.94590000 0.32430000 -0.00990000
vn -0.95690000 0.26960000 0.10780000
vn -0.93140000 0.32160000 -0.17050000
vn -0.93860000 0.34160000 0.04790000
vn -0.95050000 0.27790000 0.13900000
vn -0.93070000 0.34480000 -0.12230000
vn -0.88530000 0.13410000 -0.44530000
vn -0.84230000 0.19080000 -0.50410000
vn -0.93040000 0.35560000 -0.08840000
vn -0.95700000 0.23900000 0.16480000
vn -0.93030000 0.35340000 0.09840000
vn -0.95540000 0.24190000 0.16940000
vn -0.88140000 0.22280000 -0.41650000
vn -0.94800000 0.27440000 0.16140000
vn -0.92360000 0.37950000 -0.05390000
vn -0.91710000 0.39850000 -0.00950000
vn -0.89430000 0.27690000 -0.35150000
vn -0.94530000 0.28290000 0.16260000
vn -0.92300000 0.35890000 0.13880000
vn -0.94310000 0.29260000 0.15770000
vn -0.90100000 0.31530000 -0.29780000
vn -0.90490000 0.33740000 -0.25940000
vn -0.90370000 0.42490000 0.05230000
vn -0.91920000 0.35630000 0.16760000
vn -0.90310000 0.37010000 -0.21780000
vn -0.93020000 0.31800000 0.18340000
vn -0.90170000 0.39620000 -0.17330000
vn -0.88970000 0.44280000 0.11120000
vn -0.91860000 0.35190000 0.17990000
vn -0.89780000 0.42150000 -0.12780000
vn -0.89150000 0.44560000 -0.08190000
vn -0.91430000 0.36970000 0.16530000
vn -0.87900000 0.45050000 0.15610000
vn -0.88340000 0.46720000 -0.03620000
vn -0.79590000 0.14970000 -0.58670000
vn -0.87200000 0.48930000 0.01310000
vn -0.82200000 0.19950000 -0.53350000
vn -0.87320000 0.45000000 0.18720000
vn -0.83810000 0.24590000 -0.48700000
vn -0.84880000 0.27660000 -0.45050000
vn -0.87230000 0.44340000 0.20610000
vn -0.85410000 0.51370000 0.08090000
vn -0.85590000 0.31790000 -0.40790000
vn -0.86270000 0.44760000 0.23550000
vn -0.86310000 0.35410000 -0.36010000
vn -0.86740000 0.38970000 -0.30940000
vn -0.83810000 0.52700000 0.14070000
vn -0.86830000 0.42460000 -0.25630000
vn -0.86580000 0.45810000 -0.20150000
vn -0.82710000 0.53080000 0.18480000
vn -0.85990000 0.48910000 -0.14610000
vn -0.82100000 0.52870000 0.21550000
vn -0.85140000 0.51640000 -0.09150000
vn -0.83960000 0.54230000 -0.03090000
vn -0.81670000 0.52550000 0.23850000
vn -0.81990000 0.57040000 0.05000000
vn -0.80110000 0.58580000 0.12270000
vn -0.71280000 0.12460000 -0.69020000
vn -0.74510000 0.18080000 -0.64190000
vn -0.78690000 0.59100000 0.17770000
vn -0.76570000 0.22930000 -0.60090000
vn -0.78360000 0.27150000 -0.55880000
vn -0.79990000 0.31520000 -0.51070000
vn -0.77710000 0.59050000 0.21800000
vn -0.66770000 0.08620000 -0.73940000
vn -0.81320000 0.35980000 -0.45740000
vn -0.82280000 0.40450000 -0.39920000
vn -0.76590000 0.59080000 0.25360000
vn -0.82790000 0.44810000 -0.33720000
vn -0.82760000 0.49090000 -0.27230000
vn -0.75770000 0.59020000 0.27860000
vn -0.82550000 0.52440000 -0.20880000
vn -0.81690000 0.55910000 -0.14150000
vn -0.80980000 0.58060000 -0.08470000
vn -0.80160000 0.59730000 -0.02500000
vn -0.79240000 0.60930000 0.02900000
vn -0.77390000 0.62480000 0.10300000
vn -0.75860000 0.62980000 0.16700000
vn -0.74670000 0.62940000 0.21530000
vn -0.73640000 0.62670000 0.25480000
vn -0.72390000 0.62710000 0.28740000
vn -0.00060000 0.96580000 -0.25930000
vn -0.00100000 0.96670000 -0.25580000
vn -0.00060000 0.96580000 -0.25930000
vn -0.00000000 0.96600000 -0.25850000
vn -0.00100000 0.96670000 -0.25580000
vn -0.00100000 0.96650000 -0.25660000
vn -0.00040000 0.96460000 -0.26370000
vn -0.00100000 0.96670000 -0.25580000
vn -0.00060000 0.96580000 -0.25930000
vn -0.00150000 0.96670000 -0.25600000
vn -0.63120000 0.07070000 -0.77240000
vn -0.63440000 0.06490000 -0.77030000
vn -0.62600000 0.09900000 -0.77350000
vn -0.44830000 0.16390000 -0.87870000
vn -0.73970000 0.15830000 -0.65400000
vn -0.73590000 0.15680000 -0.65870000
vn -0.65280000 0.20310000 -0.72980000
vn -0.72060000 0.21760000 -0.65830000
vn -0.72090000 0.21760000 -0.65810000
vn -0.66960000 0.25390000 -0.69800000
vn -0.74450000 0.25620000 -0.61650000
vn -0.74430000 0.25630000 -0.61670000
vn -0.00040000 0.96460000 -0.26370000
vn -0.00080000 0.96520000 -0.26150000
vn -0.68650000 0.30840000 -0.65850000
vn -0.76640000 0.30250000 -0.56660000
vn -0.76620000 0.30250000 -0.56700000
vn -0.41130000 0.10260000 -0.90570000
vn -0.69890000 0.36900000 -0.61260000
vn -0.78480000 0.35080000 -0.51090000
vn -0.78470000 0.35080000 -0.51110000
vn -0.00000000 0.96600000 -0.25850000
vn -0.00000000 0.96580000 -0.25940000
vn -0.00040000 0.96460000 -0.26370000
vn -0.64250000 0.16080000 -0.74930000
vn -0.71180000 0.43080000 -0.55470000
vn -0.47340000 0.08430000 -0.87680000
vn -0.79520000 0.40110000 -0.45480000
vn -0.54700000 0.08730000 -0.83250000
vn -0.79530000 0.40100000 -0.45460000
vn -0.55990000 0.23490000 -0.79450000
vn -0.33720000 0.11470000 -0.93440000
vn -0.72510000 0.48900000 -0.48480000
vn -0.66720000 0.11340000 -0.73620000
vn -0.58550000 0.29750000 -0.75410000
vn -0.80160000 0.44930000 -0.39440000
vn -0.80160000 0.44930000 -0.39450000
vn -0.73970000 0.53720000 -0.40520000
vn -0.48850000 0.16460000 -0.85690000
vn -0.48930000 0.16460000 -0.85640000
vn -0.63980000 0.35120000 -0.68360000
vn -0.56010000 0.19470000 -0.80520000
vn -0.78310000 0.51270000 -0.35210000
vn -0.78290000 0.51290000 -0.35210000
vn -0.77580000 0.54310000 -0.32120000
vn -0.44190000 0.23900000 -0.86460000
vn -0.44220000 0.23890000 -0.86450000
vn -0.64730000 0.41980000 -0.63620000
vn -0.59520000 0.25410000 -0.76230000
vn -0.76520000 0.56920000 -0.30070000
vn -0.76790000 0.57780000 -0.27640000
vn -0.78080000 0.58510000 -0.21910000
vn -0.45800000 0.30100000 -0.83650000
vn -0.45800000 0.30070000 -0.83660000
vn -0.66550000 0.48510000 -0.56720000
vn -0.59860000 0.32990000 -0.73000000
vn -0.73460000 0.64030000 -0.22420000
vn -0.78880000 0.59660000 -0.14810000
vn -0.49950000 0.38250000 -0.77730000
vn -0.69160000 0.53950000 -0.48030000
vn -0.50470000 0.38620000 -0.77200000
vn -0.60930000 0.39880000 -0.68540000
vn -0.74430000 0.64930000 -0.15640000
vn -0.72320000 0.67260000 -0.15660000
vn -0.49860000 0.46290000 -0.73290000
vn -0.77940000 0.62040000 -0.08690000
vn -0.68160000 0.62440000 -0.38140000
vn -0.50350000 0.46570000 -0.72770000
vn -0.61560000 0.47320000 -0.63020000
vn -0.73560000 0.67370000 -0.07100000
vn -0.51640000 0.54210000 -0.66290000
vn -0.67090000 0.68500000 -0.28410000
vn -0.77210000 0.63490000 -0.02800000
vn -0.52140000 0.54390000 -0.65750000
vn -0.61480000 0.54940000 -0.56580000
vn -0.73130000 0.68170000 -0.02130000
vn -0.71280000 0.70090000 -0.02630000
vn -0.66620000 0.71930000 -0.19690000
vn -0.54480000 0.60880000 -0.57660000
vn -0.74330000 0.66850000 0.02450000
vn -0.60200000 0.62460000 -0.49750000
vn -0.60470000 0.64170000 -0.47180000
vn -0.65510000 0.74680000 -0.11470000
vn -0.58110000 0.67890000 -0.44870000
vn -0.76190000 0.64630000 0.04260000
vn -0.56070000 0.72310000 -0.40350000
vn -0.73150000 0.67690000 0.08150000
vn -0.57860000 0.71630000 -0.39000000
vn -0.76650000 0.63590000 0.09020000
vn -0.66930000 0.74190000 -0.04190000
vn -0.59820000 0.71590000 -0.36000000
vn -0.75910000 0.64360000 0.09730000
vn -0.54010000 0.78090000 -0.31380000
vn -0.66040000 0.73730000 0.14260000
vn -0.57750000 0.76260000 -0.29160000
vn -0.64530000 0.76370000 0.01780000
vn -0.61040000 0.74580000 -0.26680000
vn -0.52430000 0.82240000 -0.22070000
vn -0.72750000 0.66990000 0.14850000
vn -0.57510000 0.79410000 -0.19660000
vn -0.64460000 0.76210000 0.06110000
vn -0.72670000 0.67060000 0.14920000
vn -0.60860000 0.77330000 -0.17780000
vn -0.71890000 0.67320000 0.17340000
vn -0.51560000 0.84750000 -0.12580000
vn -0.56320000 0.81920000 -0.10860000
vn -0.65190000 0.74910000 0.11800000
vn -0.58510000 0.80550000 -0.09390000
vn -0.53280000 0.84520000 -0.04340000
vn -0.69350000 0.69080000 0.20450000
vn -0.69180000 0.69090000 0.20970000
vn -0.72050000 0.65250000 0.23470000
vn -0.57650000 0.81660000 -0.02860000
vn -0.58590000 0.80970000 -0.03410000
vn -0.56670000 0.82390000 -0.00450000
vn -0.54520000 0.83810000 0.01860000
vn -0.58870000 0.80700000 0.04590000
vn -0.62740000 0.75460000 0.19210000
vn -0.51520000 0.85360000 0.07720000
vn -0.50650000 0.85810000 0.08410000
vn -0.68110000 0.68570000 0.25660000
vn -0.71290000 0.64730000 0.26980000
vn -0.71260000 0.64730000 0.27060000
vn -0.54980000 0.83020000 0.09220000
vn -0.52760000 0.83830000 0.13730000
vn -0.59780000 0.76020000 0.25440000
vn -0.57600000 0.80490000 0.14260000
vn -0.63500000 0.75650000 0.15610000
vn -0.70010000 0.65240000 0.29020000
vn -0.70700000 0.64130000 0.29830000
vn -0.56010000 0.80630000 0.19000000
vn -0.51590000 0.82830000 0.21860000
vn -0.58540000 0.75380000 0.29850000
vn -0.71430000 0.63640000 0.29110000
vn -0.67300000 0.70570000 0.22150000
vn -0.70950000 0.63870000 0.29760000
vn -0.58100000 0.77740000 0.24110000
vn -0.46900000 0.84080000 0.27040000
vn -0.65240000 0.68320000 0.32820000
vn -0.55180000 0.76370000 0.33510000
vn -0.57440000 0.77090000 0.27530000
vn -0.45610000 0.83070000 0.31920000
vn -0.45020000 0.83440000 0.31810000
vn -0.60970000 0.71700000 0.33800000
vn -0.55290000 0.77080000 0.31660000
vn -0.44270000 0.82230000 0.35760000
vn -0.44290000 0.82210000 0.35760000
vn -0.52040000 0.77640000 0.35540000
vn -0.61420000 0.71240000 0.33960000
vn -0.46580000 0.79920000 0.37990000
vn -0.48600000 0.78890000 0.37610000
vn -0.48540000 0.79260000 0.36910000
vn -0.48440000 0.87350000 0.04910000
vn -0.48440000 0.86140000 0.15300000
vn -0.00150000 0.96510000 -0.26190000
vn -0.40770000 0.09600000 -0.90810000
vn -0.41950000 0.16660000 -0.89240000
vn -0.42950000 0.23870000 -0.87100000
vn -0.43870000 0.31350000 -0.84220000
vn -0.44820000 0.39470000 -0.80200000
vn -0.45400000 0.48660000 -0.74640000
vn -0.45690000 0.58220000 -0.67250000
vn -0.45630000 0.67410000 -0.58080000
vn -0.45400000 0.75450000 -0.47390000
vn -0.45100000 0.81540000 -0.36290000
vn -0.44670000 0.85800000 -0.25360000
vn -0.44290000 0.88360000 -0.15190000
vn -0.44210000 0.89450000 -0.06650000
vn -0.43490000 0.89980000 0.03550000
vn -0.43310000 0.89060000 0.13890000
vn -0.42950000 0.87030000 0.24110000
vn -0.40810000 0.85890000 0.30960000
vn -0.39340000 0.84570000 0.36060000
vn -0.38380000 0.83660000 0.39080000
vn -0.36650000 0.93030000 0.01610000
vn -0.36860000 0.92020000 0.13190000
vn -0.35930000 0.90330000 0.23440000
vn -0.27560000 0.09330000 -0.95670000
vn -0.28600000 0.16690000 -0.94360000
vn -0.29260000 0.24320000 -0.92480000
vn -0.29870000 0.32000000 -0.89910000
vn -0.30450000 0.40810000 -0.86070000
vn -0.30930000 0.50490000 -0.80580000
vn -0.31260000 0.60530000 -0.73200000
vn -0.31420000 0.70170000 -0.63940000
vn -0.31410000 0.78610000 -0.53240000
vn -0.31270000 0.85280000 -0.41820000
vn -0.31060000 0.90040000 -0.30470000
vn -0.30840000 0.93060000 -0.19740000
vn -0.30880000 0.94530000 -0.10520000
vn -0.30230000 0.95320000 0.00590000
vn -0.29960000 0.94590000 0.12480000
vn -0.28950000 0.92840000 0.23280000
vn -0.27660000 0.90700000 0.31760000
vn -0.26550000 0.88820000 0.37500000
vn -0.25590000 0.87680000 0.40700000
vn -0.27000000 0.87680000 0.39790000
vn -0.23960000 0.88610000 0.39680000
vn -0.21370000 0.06260000 -0.97490000
vn -0.22750000 0.97370000 -0.00890000
vn -0.22760000 0.96640000 0.11910000
vn -0.21990000 0.94730000 0.23310000
vn -0.13950000 0.09210000 -0.98590000
vn -0.14430000 0.16750000 -0.97530000
vn -0.14780000 0.24590000 -0.95800000
vn -0.15100000 0.32500000 -0.93360000
vn -0.15410000 0.41570000 -0.89630000
vn -0.15680000 0.51560000 -0.84240000
vn -0.15870000 0.61910000 -0.76910000
vn -0.15970000 0.71880000 -0.67670000
vn -0.15990000 0.80650000 -0.56920000
vn -0.15950000 0.87680000 -0.45370000
vn -0.15870000 0.92780000 -0.33760000
vn -0.15770000 0.96110000 -0.22680000
vn -0.15850000 0.97860000 -0.13100000
vn -0.15530000 0.98780000 -0.01340000
vn -0.15320000 0.98150000 0.11510000
vn -0.13070000 0.96350000 0.23340000
vn -0.13820000 0.93730000 0.32010000
vn -0.13320000 0.91420000 0.38280000
vn -0.13000000 0.90050000 0.41490000
vn -0.07740000 0.99670000 -0.02250000
vn -0.07740000 0.99050000 0.11350000
vn -0.06000000 0.05880000 -0.99650000
vn 0.02570000 0.90680000 0.42080000
vn 0.00040000 0.90890000 0.41710000
vn 0.00020000 0.92290000 0.38510000
vn 0.00040000 0.94780000 0.31890000
vn 0.00030000 0.97180000 0.23590000
vn -0.00020000 0.99370000 0.11180000
vn 0.00130000 0.81340000 -0.58170000
vn 0.00150000 0.88490000 -0.46580000
vn 0.00160000 0.93710000 -0.34900000
vn 0.00160000 0.97150000 -0.23700000
vn 0.00380000 0.99050000 -0.13750000
vn 0.00530000 0.99970000 -0.02570000
vn 0.00110000 0.72450000 -0.68920000
vn 0.00040000 0.16760000 -0.98590000
vn 0.00040000 0.24690000 -0.96900000
vn 0.00050000 0.32670000 -0.94510000
vn 0.00060000 0.41840000 -0.90830000
vn 0.00070000 0.51920000 -0.85470000
vn 0.00090000 0.62380000 -0.78160000
vn 0.00040000 0.09180000 -0.99580000
vn 0.07690000 0.99040000 0.11460000
vn 0.07090000 0.99690000 -0.03520000
vn 0.12860000 0.90100000 0.41430000
vn 0.13360000 0.91440000 0.38220000
vn 0.13810000 0.93720000 0.32030000
vn 0.12950000 0.96340000 0.23480000
vn 0.15200000 0.98150000 0.11650000
vn 0.16000000 0.98690000 -0.01910000
vn 0.16030000 0.97840000 -0.13050000
vn 0.16080000 0.96050000 -0.22710000
vn 0.16170000 0.92730000 -0.33760000
vn 0.16230000 0.87640000 -0.45340000
vn 0.16240000 0.80630000 -0.56880000
vn 0.16180000 0.71870000 -0.67620000
vn 0.16040000 0.61920000 -0.76870000
vn 0.15810000 0.51570000 -0.84200000
vn 0.15520000 0.41590000 -0.89610000
vn 0.15200000 0.32510000 -0.93340000
vn 0.14860000 0.24600000 -0.95780000
vn 0.14500000 0.16730000 -0.97520000
vn 0.13960000 0.09260000 -0.98590000
vn 0.18890000 0.88940000 0.41630000
vn 0.18480000 0.05120000 -0.98140000
vn 0.21900000 0.94690000 0.23530000
vn 0.22660000 0.96650000 0.12030000
vn 0.22440000 0.97430000 -0.02010000
vn 0.25800000 0.87730000 0.40480000
vn 0.26630000 0.88850000 0.37370000
vn 0.27640000 0.90670000 0.31860000
vn 0.28820000 0.92810000 0.23570000
vn 0.29850000 0.94600000 0.12640000
vn 0.30670000 0.95180000 -0.00040000
vn 0.31150000 0.94400000 -0.10850000
vn 0.31130000 0.92950000 -0.19790000
vn 0.31340000 0.89940000 -0.30470000
vn 0.31510000 0.85210000 -0.41780000
vn 0.31610000 0.78580000 -0.53160000
vn 0.00100000 -0.96690000 0.25520000
vn 0.31590000 0.70180000 -0.63850000
vn 0.31400000 0.60560000 -0.73120000
vn 0.31040000 0.50520000 -0.80520000
vn 0.30540000 0.40830000 -0.86020000
vn 0.29950000 0.32020000 -0.89880000
vn 0.29330000 0.24340000 -0.92450000
vn 0.28670000 0.16660000 -0.94340000
vn 0.27730000 0.09400000 -0.95620000
vn 0.00100000 -0.96690000 0.25520000
vn 0.00100000 -0.96690000 0.25520000
vn 0.32750000 0.06280000 -0.94280000
vn 0.35760000 0.90310000 0.23800000
vn 0.36720000 0.92050000 0.13380000
vn 0.36640000 0.93040000 0.00610000
vn 0.38200000 0.83730000 0.39120000
vn 0.39270000 0.84600000 0.36070000
vn 0.40680000 0.85950000 0.30960000
vn 0.42400000 0.87260000 0.24260000
vn 0.43230000 0.89040000 0.14240000
vn 0.43820000 0.89840000 0.02910000
vn 0.44030000 0.89510000 -0.06980000
vn 0.43710000 0.88640000 -0.15210000
vn 0.43850000 0.86270000 -0.25210000
vn 0.44160000 0.82000000 -0.36400000
vn 0.44740000 0.75700000 -0.47630000
vn 0.45170000 0.67650000 -0.58160000
vn 0.44980000 0.58690000 -0.67320000
vn 0.44650000 0.48910000 -0.74920000
vn 0.44240000 0.39620000 -0.80460000
vn 0.43580000 0.31260000 -0.84400000
vn 0.42870000 0.23830000 -0.87150000
vn 0.42000000 0.16680000 -0.89210000
vn 0.40820000 0.09130000 -0.90830000
vn 0.44680000 0.84230000 0.30140000
vn 0.48570000 0.86020000 0.15540000
vn 0.49030000 0.87050000 0.04360000
vn 0.50440000 0.77970000 0.37100000
vn 0.49480000 0.78840000 0.36560000
vn 0.48010000 0.79890000 0.36230000
vn 0.45540000 0.81280000 0.36320000
vn 0.45650000 0.81240000 0.36280000
vn 0.54260000 0.77380000 0.32690000
vn 0.59170000 0.73180000 0.33820000
vn 0.46240000 0.82360000 0.32840000
vn 0.46970000 0.81970000 0.32780000
vn 0.56730000 0.77200000 0.28670000
vn 0.60080000 0.72930000 0.32730000
vn 0.47060000 0.83640000 0.28100000
vn 0.59950000 0.76410000 0.23820000
vn 0.60000000 0.76950000 0.21860000
vn 0.67550000 0.66450000 0.31980000
vn 0.67630000 0.66900000 0.30840000
vn 0.68120000 0.66650000 0.30290000
vn 0.63650000 0.71620000 0.28640000
vn 0.53880000 0.81200000 0.22440000
vn 0.56200000 0.80600000 0.18580000
vn 0.72610000 0.62730000 0.28140000
vn 0.61240000 0.77420000 0.16000000
vn 0.61230000 0.74890000 0.25350000
vn 0.67030000 0.68240000 0.29160000
vn 0.62610000 0.76670000 0.14200000
vn 0.49900000 0.85950000 0.11060000
vn 0.74910000 0.61510000 0.24600000
vn 0.74900000 0.61520000 0.24600000
vn 0.55240000 0.82830000 0.09400000
vn 0.53960000 0.84080000 0.04430000
vn 0.53990000 0.84050000 0.04450000
vn 0.65680000 0.72810000 0.19610000
vn 0.66290000 0.70400000 0.25490000
vn 0.56200000 0.82600000 0.04350000
vn 0.56050000 0.82800000 0.01280000
vn 0.57160000 0.82040000 -0.01380000
vn 0.57180000 0.82020000 -0.01670000
vn 0.73260000 0.64450000 0.21890000
vn 0.58510000 0.81040000 -0.03100000
vn 0.73300000 0.64400000 0.21910000
vn 0.65880000 0.72110000 0.21450000
vn 0.50460000 0.86030000 -0.07270000
vn 0.61290000 0.78190000 0.11340000
vn 0.57390000 0.81510000 -0.07860000
vn 0.63410000 0.76930000 -0.07880000
vn 0.51470000 0.84320000 -0.15500000
vn 0.74410000 0.64390000 0.17810000
vn 0.65010000 0.75730000 0.06210000
vn 0.64850000 0.74040000 -0.17670000
vn 0.60590000 0.76910000 -0.20340000
vn 0.74380000 0.64430000 0.17780000
vn 0.67970000 0.71770000 0.15170000
vn 0.51730000 0.82200000 -0.23800000
vn 0.66290000 0.74830000 0.02290000
vn 0.64210000 0.71970000 -0.26420000
vn 0.59820000 0.74560000 -0.29370000
vn 0.54260000 0.77620000 -0.32110000
vn 0.73240000 0.67300000 0.10330000
vn 0.64430000 0.76310000 -0.05030000
vn 0.60180000 0.71450000 -0.35690000
vn 0.74330000 0.66420000 0.07980000
vn 0.59490000 0.70640000 -0.38340000
vn 0.57760000 0.69530000 -0.42780000
vn 0.56620000 0.67100000 -0.47880000
vn 0.76060000 0.64490000 0.07430000
vn 0.65390000 0.74650000 -0.12320000
vn 0.72880000 0.68290000 0.04890000
vn 0.61410000 0.63990000 -0.46200000
vn 0.62270000 0.62090000 -0.47620000
vn 0.75280000 0.65760000 0.02890000
vn 0.53620000 0.62080000 -0.57190000
vn 0.64770000 0.73300000 -0.20780000
vn 0.73490000 0.67800000 -0.01160000
vn 0.74720000 0.66430000 -0.01980000
vn 0.62080000 0.55530000 -0.55340000
vn 0.53330000 0.55750000 -0.63620000
vn 0.76990000 0.63780000 -0.02110000
vn 0.66750000 0.68320000 -0.29620000
vn 0.53310000 0.55770000 -0.63620000
vn 0.72780000 0.68130000 -0.07920000
vn 0.74430000 0.66260000 -0.08320000
vn 0.61800000 0.48220000 -0.62090000
vn 0.53200000 0.48540000 -0.69380000
vn 0.69600000 0.60300000 -0.38980000
vn 0.77610000 0.62530000 -0.08170000
vn 0.53200000 0.48550000 -0.69370000
vn 0.74190000 0.65540000 -0.14180000
vn 0.61220000 0.40580000 -0.67870000
vn 0.75150000 0.64240000 -0.15020000
vn 0.54120000 0.41090000 -0.73370000
vn 0.68900000 0.54400000 -0.47900000
vn 0.53010000 0.40800000 -0.74330000
vn 0.77720000 0.61220000 -0.14550000
vn 0.76220000 0.61550000 -0.20040000
vn 0.58800000 0.34180000 -0.73310000
vn 0.76340000 0.60740000 -0.21980000
vn 0.67750000 0.48580000 -0.55220000
vn 0.52730000 0.40140000 -0.74890000
vn 0.52470000 0.39870000 -0.75210000
vn 0.57020000 0.28010000 -0.77230000
vn 0.77530000 0.58010000 -0.24980000
vn 0.77320000 0.56420000 -0.28960000
vn 0.66350000 0.42450000 -0.61600000
vn 0.51790000 0.26860000 -0.81220000
vn 0.56860000 0.21330000 -0.79450000
vn 0.75330000 0.57540000 -0.31850000
vn 0.79400000 0.50600000 -0.33700000
vn 0.79410000 0.50590000 -0.33670000
vn 0.65670000 0.35870000 -0.66330000
vn 0.39840000 0.21400000 -0.89190000
vn 0.73570000 0.54260000 -0.40540000
vn 0.39550000 0.20970000 -0.89420000
vn 0.64520000 0.13520000 -0.75190000
vn 0.80420000 0.44880000 -0.38960000
vn 0.80430000 0.44880000 -0.38950000
vn 0.65740000 0.29190000 -0.69470000
vn 0.72440000 0.49050000 -0.48450000
vn 0.52120000 0.11220000 -0.84600000
vn 0.49570000 0.07300000 -0.86540000
vn 0.66770000 0.22530000 -0.70950000
vn 0.79570000 0.40170000 -0.45330000
vn 0.49620000 0.07270000 -0.86520000
vn 0.79560000 0.40190000 -0.45330000
vn 0.71150000 0.43220000 -0.55400000
vn 0.54990000 0.18810000 -0.81380000
vn 0.77730000 0.36100000 -0.51530000
vn 0.77690000 0.36100000 -0.51590000
vn 0.70960000 0.36730000 -0.60130000
vn 0.52880000 0.08270000 -0.84470000
vn 0.76160000 0.31360000 -0.56710000
vn 0.76150000 0.31370000 -0.56720000
vn 0.69880000 0.30740000 -0.64590000
vn 0.75010000 0.25900000 -0.60860000
vn 0.74990000 0.25900000 -0.60880000
vn 0.66870000 0.25320000 -0.69910000
vn 0.75290000 0.19070000 -0.62990000
vn 0.75300000 0.19050000 -0.62980000
vn 0.62900000 0.19920000 -0.75150000
vn 0.73500000 0.13630000 -0.66420000
vn 0.73500000 0.13600000 -0.66430000
vn 0.68760000 0.13360000 -0.71370000
vn 0.74070000 0.08350000 -0.66660000
vn 0.74050000 0.08400000 -0.66680000
vn 0.64770000 0.08680000 -0.75700000
vn 0.72340000 0.62650000 0.29000000
vn 0.73890000 0.62570000 0.25010000
vn 0.75200000 0.62450000 0.21070000
vn 0.76390000 0.62480000 0.16170000
vn 0.77770000 0.62030000 0.10220000
vn 0.79330000 0.60820000 0.02810000
vn 0.79880000 0.60110000 -0.02470000
vn 0.81130000 0.57850000 -0.08470000
vn 0.82090000 0.55290000 -0.14290000
vn 0.82810000 0.52150000 -0.20580000
vn 0.76540000 0.58380000 0.27080000
vn 0.83250000 0.48380000 -0.27000000
vn 0.83230000 0.44250000 -0.33400000
vn 0.77010000 0.58800000 0.24730000
vn 0.82730000 0.39950000 -0.39500000
vn 0.81820000 0.35550000 -0.45180000
vn 0.77780000 0.59000000 0.21650000
vn 0.80510000 0.31160000 -0.50480000
vn 0.78850000 0.26870000 -0.55330000
vn 0.76880000 0.22670000 -0.59790000
vn 0.78740000 0.59060000 0.17640000
vn 0.78220000 0.56570000 0.26100000
vn 0.74880000 0.17840000 -0.63840000
vn 0.71270000 0.12810000 -0.68970000
vn 0.80130000 0.58570000 0.12170000
vn 0.82020000 0.56980000 0.05170000
vn 0.80460000 0.54120000 0.24440000
vn 0.81840000 0.52480000 0.23430000
vn 0.84260000 0.53750000 -0.03280000
vn 0.85050000 0.51770000 -0.09280000
vn 0.82050000 0.52980000 0.21470000
vn 0.85890000 0.49040000 -0.14760000
vn 0.82650000 0.53200000 0.18400000
vn 0.86470000 0.45920000 -0.20350000
vn 0.86710000 0.42560000 -0.25880000
vn 0.83740000 0.52830000 0.13990000
vn 0.86600000 0.39060000 -0.31220000
vn 0.86150000 0.35480000 -0.36320000
vn 0.87570000 0.43400000 0.21150000
vn 0.75560000 0.11550000 -0.64480000
vn 0.85410000 0.31830000 -0.41120000
vn 0.85330000 0.51530000 0.08000000
vn 0.86660000 0.45220000 0.21090000
vn 0.84440000 0.28160000 -0.45580000
vn 0.83160000 0.24820000 -0.49680000
vn 0.87130000 0.45390000 0.18660000
vn 0.81760000 0.19400000 -0.54210000
vn 0.86750000 0.49730000 0.01470000
vn 0.79520000 0.15850000 -0.58530000
vn 0.87880000 0.47580000 -0.03730000
vn 0.79080000 0.10480000 -0.60300000
vn 0.87730000 0.45390000 0.15570000
vn 0.91440000 0.36370000 0.17760000
vn 0.88990000 0.44800000 -0.08630000
vn 0.89650000 0.42330000 -0.13060000
vn 0.91560000 0.35810000 0.18280000
vn 0.88820000 0.44610000 0.11030000
vn 0.90030000 0.39790000 -0.17660000
vn 0.93150000 0.31390000 0.18370000
vn 0.90160000 0.37160000 -0.22160000
vn 0.91650000 0.36380000 0.16630000
vn 0.90240000 0.42760000 0.05300000
vn 0.90060000 0.34440000 -0.26540000
vn 0.89560000 0.32050000 -0.30850000
vn 0.94790000 0.25790000 0.18690000
vn 0.96380000 0.19870000 0.17780000
vn 0.92100000 0.36440000 0.13800000
vn 0.89330000 0.27580000 -0.35490000
vn 0.91850000 0.39510000 -0.01220000
vn 0.91960000 0.38880000 -0.05660000
vn 0.88000000 0.22180000 -0.42010000
vn 0.94370000 0.28860000 0.16160000
vn 0.92870000 0.35820000 0.09640000
vn 0.92590000 0.36520000 -0.09650000
vn 0.85860000 0.07240000 -0.50760000
vn 0.92610000 0.35340000 -0.13170000
vn 0.95830000 0.23900000 0.15640000
vn 0.94540000 0.29510000 0.13830000
vn 0.93700000 0.34620000 0.04730000
vn 0.87920000 0.17540000 -0.44310000
vn 0.93100000 0.32060000 -0.17440000
vn 0.94950000 0.29610000 0.10330000
vn 0.94800000 0.31810000 -0.00910000
vn 0.92950000 0.28030000 -0.23980000
vn 0.90480000 0.22000000 -0.36450000
vn 0.91980000 0.24070000 -0.30990000
vn 0.95180000 0.30050000 0.06180000
vn 0.95230000 0.29660000 -0.07150000
vn 0.91490000 0.21540000 -0.34160000
vn -0.00020000 -0.96590000 0.25870000
vn 0.94890000 0.28520000 -0.13470000
vn 0.95820000 0.27180000 0.08920000
vn 0.95600000 0.29330000 0.00860000
vn 0.94170000 0.26760000 -0.20370000
vn 0.97450000 0.22090000 -0.04040000
vn 0.97450000 0.21460000 -0.06580000
vn 0.95220000 0.29910000 -0.06260000
vn 0.94780000 0.25740000 -0.18810000
vn 0.95580000 0.25230000 -0.15090000
vn -0.79270000 0.55330000 0.25600000
vn -0.78270000 0.56510000 0.26080000
vn -0.76610000 0.57860000 0.27970000
vn -0.73850000 0.11050000 -0.66520000
vn -0.70500000 0.08690000 -0.70380000
vn -0.39230000 0.05140000 -0.91840000
vn -0.34540000 0.05570000 -0.93680000
vn 0.95850000 0.23270000 0.16440000
vn 0.00080000 -0.96590000 0.25900000
vn -0.89600000 0.38660000 0.21830000
vn -0.87220000 0.44170000 0.21040000
vn 0.49210000 0.78530000 0.37580000
vn 0.55530000 0.74980000 0.35990000
vn -0.74700000 0.59890000 0.28880000
vn 0.00050000 0.96620000 -0.25790000
vn -0.00000000 0.96600000 -0.25850000
vn -0.44360000 0.81240000 0.37840000
vn -0.38860000 0.83150000 0.39700000
vn -0.56630000 0.07110000 -0.82110000
vn -0.55220000 0.07190000 -0.83060000
vn -0.96900000 0.03750000 -0.24410000
vn -0.55200000 0.06060000 -0.83160000
vn 0.68680000 0.09620000 -0.72050000
vn 0.01100000 0.04900000 -0.99870000
vn 0.58230000 0.73280000 0.35200000
vn 0.65510000 0.68050000 0.32820000
vn 0.38920000 0.83010000 0.39940000
vn 0.41570000 0.82070000 0.39200000
vn -0.93540000 0.31040000 0.16910000
vn 0.22960000 0.05190000 -0.97190000
vn -0.92300000 0.21000000 -0.32230000
vn -0.91040000 0.20960000 -0.35660000
vn 0.04290000 0.04830000 -0.99790000
vn 0.08830000 0.04950000 -0.99490000
vn 0.95720000 0.28340000 0.05860000
vn 0.96510000 0.26170000 0.00100000
vn 0.23410000 0.87940000 0.41450000
vn 0.26490000 0.87250000 0.41070000
vn 0.91510000 0.36810000 0.16480000
vn -0.06580000 0.90730000 0.41540000
vn -0.04010000 0.90720000 0.41880000
vn -0.91390000 0.36510000 0.17750000
vn -0.60830000 0.07130000 -0.79050000
vn -0.94650000 0.29730000 0.12530000
vn -0.14020000 0.16030000 -0.97710000
vn -0.84300000 0.48730000 0.22790000
vn -0.82770000 0.50560000 0.24350000
vn 0.69600000 0.64660000 0.31230000
vn -0.03420000 0.05240000 -0.99800000
vn 0.65530000 0.09580000 -0.74920000
vn 0.83850000 0.49030000 0.23760000
vn 0.85440000 0.00520000 -0.51960000
vn -0.26790000 0.05290000 -0.96200000
vn -0.76670000 0.11710000 -0.63120000
vn 0.13750000 0.04430000 -0.98950000
vn -0.16280000 0.89480000 0.41580000
vn -0.12700000 0.89840000 0.42040000
vn -0.30270000 0.05000000 -0.95180000
vn 0.93340000 0.21810000 -0.28490000
vn 0.92580000 0.31120000 -0.21460000
vn 0.75510000 0.58710000 0.29170000
vn 0.76620000 0.57870000 0.27950000
vn 0.89100000 0.39740000 0.21950000
vn 0.89120000 0.40060000 0.21280000
vn 0.81000000 0.13460000 -0.57080000
vn -0.95910000 0.24090000 0.14840000
vn -0.95890000 0.23810000 0.15450000
vn -0.82380000 0.15530000 -0.54520000
vn -0.78610000 0.12210000 -0.60590000
vn 0.71020000 0.63430000 0.30540000
vn -0.90150000 0.38840000 0.19110000
vn -0.69460000 0.64840000 0.31160000
vn -0.64470000 0.68830000 0.33260000
vn 0.35120000 0.06220000 -0.93420000
vn -0.43570000 0.06060000 -0.89800000
vn 0.33740000 0.85100000 0.40240000
vn -0.89780000 0.15740000 -0.41140000
vn 0.95790000 0.24930000 0.14240000
vn 0.95650000 0.26070000 0.13050000
vn -0.00020000 -0.96590000 0.25870000
vn 0.00080000 -0.96590000 0.25900000
vn 0.95290000 0.29580000 0.06760000
vn 0.79140000 0.56310000 0.23780000
vn 0.79830000 0.10280000 -0.59340000
vn -0.09760000 0.15940000 -0.98240000
vn 0.93680000 0.30960000 0.16310000
vn 0.94510000 0.26770000 0.18760000
vn 0.55550000 0.05970000 -0.82940000
vn 0.55490000 0.07170000 -0.82880000
vn 0.04800000 0.08270000 -0.99540000
vn 0.00120000 0.90720000 0.42080000
vn -0.36540000 0.83930000 0.40240000
vn 0.05520000 0.90720000 0.41700000
vn 0.11380000 0.90210000 0.41620000
vn 0.57620000 0.05880000 -0.81520000
vn -0.56060000 0.74770000 0.35610000
vn 0.51400000 0.07320000 -0.85470000
vn 0.54370000 0.07210000 -0.83620000
vn 0.40240000 0.06690000 -0.91300000
vn 0.46080000 0.08840000 -0.88310000
vn -0.31450000 0.85780000 0.40650000
vn 0.26090000 0.05290000 -0.96390000
vn -0.09630000 0.90380000 0.41700000
vn -0.09760000 0.15940000 -0.98240000
vn 0.81420000 0.07200000 -0.57610000
vn 0.89430000 0.40230000 0.19600000
vn 0.83090000 0.20660000 -0.51670000
vn -0.95780000 0.27740000 -0.07600000
vn -0.95170000 0.30330000 -0.04760000
vn 0.63410000 0.07910000 -0.76910000
vn -0.71070000 0.63470000 0.30350000
vn -0.95050000 0.30580000 -0.05500000
vn 0.95480000 0.27430000 0.11440000
vn -0.17930000 0.05800000 -0.98210000
vn -0.51110000 0.06200000 -0.85730000
vn -0.12720000 0.05050000 -0.99060000
vn -0.08370000 0.05770000 -0.99480000
vn -0.94930000 0.26050000 -0.17620000
vn -0.15170000 0.04950000 -0.98720000
vn 0.00080000 -0.96590000 0.25900000
vn -0.00020000 -0.96590000 0.25870000
vn -0.83980000 0.09350000 -0.53470000
vn 0.95830000 0.24180000 0.15210000
vn -0.96900000 0.03750000 -0.24410000
vn -0.96900000 0.03750000 -0.24410000
vn -0.09760000 0.15940000 -0.98240000
vn 0.15660000 0.89470000 0.41820000
vn -0.94120000 0.26840000 -0.20510000
f 612//612 614//614 590//590
f 585//585 583//583 605//605
f 627//627 625//625 641//641
f 563//563 562//562 590//590
f 555//555 554//554 585//585
f 761//761 567//567 776//776
f 776//776 567//567 566//566
f 776//776 566//566 716//716
f 731//731 618//618 616//616
f 616//616 618//618 607//607
f 616//616 607//607 591//591
f 591//591 607//607 689//689
f 591//591 689//689 716//716
f 642//642 718//718 616//616
f 616//616 718//718 773//773
f 616//616 773//773 731//731
f 726//726 725//725 653//653
f 653//653 725//725 656//656
f 653//653 656//656 638//638
f 638//638 656//656 652//652
f 638//638 652//652 647//647
f 665//665 661//661 651//651
f 663//663 664//664 658//658
f 658//658 664//664 666//666
f 702//702 662//662 660//660
f 702//702 660//660 701//701
f 701//701 660//660 748//748
f 748//748 660//660 659//659
f 659//659 660//660 654//654
f 659//659 654//654 779//779
f 779//779 654//654 745//745
f 745//745 654//654 649//649
f 745//745 649//649 744//744
f 744//744 649//649 645//645
f 744//744 645//645 789//789
f 789//789 645//645 644//644
f 644//644 645//645 639//639
f 644//644 639//639 674//674
f 674//674 639//639 632//632
f 674//674 632//632 633//633
f 633//633 632//632 753//753
f 753//753 632//632 623//623
f 753//753 623//623 752//752
f 610//610 620//620 623//623
f 623//623 620//620 626//626
f 623//623 626//626 752//752
f 730//730 772//772 610//610
f 610//610 772//772 705//705
f 610//610 705//705 620//620
f 595//595 717//717 606//606
f 606//606 717//717 729//729
f 606//606 729//729 730//730
f 578//578 749//749 594//594
f 727//727 728//728 578//578
f 578//578 728//728 589//589
f 578//578 589//589 749//749
f 444//444 440//440 568//568
f 568//568 440//440 439//439
f 568//568 439//439 438//438
f 727//727 578//578 736//736
f 736//736 578//578 568//568
f 736//736 568//568 714//714
f 714//714 568//568 438//438
f 714//714 438//438 692//692
f 451//451 450//450 569//569
f 569//569 450//450 447//447
f 463//463 461//461 570//570
f 570//570 461//461 456//456
f 475//475 474//474 571//571
f 571//571 474//474 470//470
f 571//571 470//470 464//464
f 488//488 484//484 572//572
f 572//572 484//484 481//481
f 573//573 497//497 496//496
f 496//496 493//493 573//573
f 573//573 493//493 490//490
f 573//573 490//490 488//488
f 500//500 574//574 503//503
f 503//503 574//574 504//504
f 508//508 575//575 510//510
f 510//510 575//575 512//512
f 512//512 575//575 516//516
f 516//516 575//575 576//576
f 516//516 576//576 517//517
f 577//577 524//524 576//576
f 576//576 524//524 519//519
f 576//576 519//519 517//517
f 531//531 530//530 579//579
f 579//579 530//530 529//529
f 579//579 529//529 577//577
f 577//577 529//529 525//525
f 577//577 525//525 524//524
f 531//531 579//579 534//534
f 534//534 579//579 580//580
f 534//534 580//580 537//537
f 546//546 544//544 582//582
f 582//582 544//544 540//540
f 582//582 540//540 580//580
f 580//580 540//540 538//538
f 580//580 538//538 537//537
f 546//546 582//582 547//547
f 547//547 582//582 583//583
f 547//547 583//583 549//549
f 554//554 553//553 585//585
f 585//585 553//553 551//551
f 585//585 551//551 583//583
f 583//583 551//551 550//550
f 583//583 550//550 549//549
f 558//558 557//557 586//586
f 586//586 557//557 556//556
f 561//561 560//560 587//587
f 587//587 560//560 559//559
f 716//716 566//566 591//591
f 591//591 566//566 565//565
f 591//591 565//565 564//564
f 447//447 444//444 569//569
f 569//569 444//444 568//568
f 569//569 568//568 581//581
f 581//581 568//568 578//578
f 581//581 578//578 595//595
f 595//595 578//578 594//594
f 595//595 594//594 717//717
f 613//613 619//619 603//603
f 730//730 610//610 606//606
f 606//606 610//610 598//598
f 606//606 598//598 595//595
f 595//595 598//598 584//584
f 595//595 584//584 581//581
f 581//581 584//584 570//570
f 581//581 570//570 569//569
f 569//569 570//570 456//456
f 569//569 456//456 451//451
f 613//613 603//603 600//600
f 600//600 603//603 592//592
f 600//600 592//592 588//588
f 588//588 592//592 572//572
f 588//588 572//572 571//571
f 571//571 572//572 481//481
f 571//571 481//481 475//475
f 488//488 572//572 573//573
f 573//573 572//572 592//592
f 573//573 592//592 593//593
f 593//593 592//592 603//603
f 593//593 603//603 609//609
f 609//609 603//603 619//619
f 609//609 619//619 624//624
f 641//641 625//625 637//637
f 637//637 625//625 622//622
f 637//637 622//622 636//636
f 622//622 621//621 636//636
f 636//636 621//621 617//617
f 636//636 617//617 629//629
f 629//629 617//617 615//615
f 629//629 615//615 624//624
f 643//643 648//648 630//630
f 630//630 648//648 631//631
f 630//630 631//631 608//608
f 608//608 631//631 611//611
f 608//608 611//611 586//586
f 586//586 611//611 587//587
f 586//586 587//587 558//558
f 558//558 587//587 559//559
f 614//614 612//612 638//638
f 612//612 635//635 638//638
f 638//638 635//635 651//651
f 638//638 651//651 653//653
f 653//653 651//651 661//661
f 653//653 661//661 726//726
f 596//596 615//615 597//597
f 597//597 615//615 617//617
f 597//597 617//617 599//599
f 599//599 617//617 621//621
f 599//599 621//621 601//601
f 601//601 621//621 622//622
f 601//601 622//622 602//602
f 602//602 622//622 625//625
f 602//602 625//625 604//604
f 604//604 625//625 627//627
f 604//604 627//627 605//605
f 624//624 615//615 609//609
f 609//609 615//615 596//596
f 609//609 596//596 593//593
f 593//593 596//596 574//574
f 593//593 574//574 573//573
f 573//573 574//574 500//500
f 573//573 500//500 497//497
f 605//605 583//583 604//604
f 604//604 583//583 582//582
f 604//604 582//582 602//602
f 602//602 582//582 580//580
f 602//602 580//580 601//601
f 601//601 580//580 579//579
f 601//601 579//579 599//599
f 599//599 579//579 577//577
f 599//599 577//577 597//597
f 597//597 577//577 576//576
f 597//597 576//576 596//596
f 596//596 576//576 575//575
f 596//596 575//575 574//574
f 574//574 575//575 508//508
f 574//574 508//508 504//504
f 647//647 642//642 638//638
f 638//638 642//642 616//616
f 638//638 616//616 614//614
f 614//614 616//616 591//591
f 614//614 591//591 590//590
f 590//590 591//591 564//564
f 590//590 564//564 563//563
f 666//666 665//665 658//658
f 658//658 665//665 651//651
f 658//658 651//651 655//655
f 562//562 561//561 590//590
f 590//590 561//561 587//587
f 590//590 587//587 612//612
f 612//612 587//587 611//611
f 612//612 611//611 635//635
f 635//635 611//611 631//631
f 635//635 631//631 651//651
f 651//651 631//631 648//648
f 651//651 648//648 655//655
f 655//655 648//648 643//643
f 655//655 643//643 650//650
f 662//662 663//663 658//658
f 662//662 658//658 660//660
f 660//660 658//658 655//655
f 660//660 655//655 654//654
f 654//654 655//655 650//650
f 654//654 650//650 649//649
f 649//649 650//650 646//646
f 649//649 646//646 645//645
f 645//645 646//646 640//640
f 645//645 640//640 639//639
f 639//639 640//640 634//634
f 639//639 634//634 632//632
f 632//632 634//634 628//628
f 632//632 628//628 623//623
f 556//556 555//555 586//586
f 586//586 555//555 585//585
f 586//586 585//585 608//608
f 608//608 585//585 605//605
f 608//608 605//605 630//630
f 630//630 605//605 627//627
f 630//630 627//627 643//643
f 643//643 627//627 641//641
f 643//643 641//641 650//650
f 650//650 641//641 637//637
f 650//650 637//637 646//646
f 646//646 637//637 636//636
f 646//646 636//636 640//640
f 640//640 636//636 629//629
f 640//640 629//629 634//634
f 634//634 629//629 624//624
f 634//634 624//624 628//628
f 628//628 624//624 619//619
f 628//628 619//619 623//623
f 623//623 619//619 613//613
f 623//623 613//613 610//610
f 610//610 613//613 600//600
f 610//610 600//600 598//598
f 598//598 600//600 588//588
f 598//598 588//588 584//584
f 584//584 588//588 571//571
f 584//584 571//571 570//570
f 570//570 571//571 464//464
f 570//570 464//464 463//463
f 4//4 3//3 11//11
f 13//13 16//16 10//10
f 32//32 28//28 26//26
f 708//708 43//43 40//40
f 712//712 713//713 69//69
f 207//207 204//204 92//92
f 197//197 194//194 91//91
f 163//163 162//162 87//87
f 72//72 107//107 106//106
f 685//685 709//709 106//106
f 106//106 709//709 79//79
f 106//106 79//79 72//72
f 111//111 110//110 72//72
f 110//110 109//109 72//72
f 72//72 109//109 108//108
f 72//72 108//108 107//107
f 114//114 113//113 75//75
f 75//75 113//113 112//112
f 120//120 117//117 76//76
f 76//76 117//117 116//116
f 76//76 116//116 115//115
f 122//122 121//121 77//77
f 77//77 121//121 120//120
f 126//126 125//125 80//80
f 80//80 125//125 124//124
f 135//135 133//133 81//81
f 81//81 133//133 131//131
f 143//143 142//142 83//83
f 83//83 142//142 141//141
f 83//83 141//141 138//138
f 150//150 149//149 84//84
f 84//84 149//149 148//148
f 84//84 148//148 143//143
f 157//157 156//156 86//86
f 86//86 156//156 155//155
f 86//86 155//155 150//150
f 171//171 169//169 88//88
f 88//88 169//169 168//168
f 88//88 168//168 163//163
f 90//90 181//181 89//89
f 89//89 181//181 178//178
f 89//89 178//178 175//175
f 91//91 194//194 90//90
f 90//90 194//194 192//192
f 90//90 192//192 190//190
f 190//190 185//185 90//90
f 90//90 185//185 182//182
f 90//90 182//182 181//181
f 92//92 204//204 91//91
f 91//91 204//204 199//199
f 91//91 199//199 197//197
f 217//217 93//93 226//226
f 226//226 93//93 94//94
f 226//226 94//94 227//227
f 217//217 216//216 93//93
f 93//93 216//216 215//215
f 93//93 215//215 92//92
f 92//92 215//215 209//209
f 92//92 209//209 207//207
f 235//235 234//234 94//94
f 94//94 234//234 228//228
f 94//94 228//228 227//227
f 739//739 244//244 95//95
f 95//95 244//244 241//241
f 95//95 241//241 239//239
f 680//680 777//777 95//95
f 95//95 777//777 738//738
f 95//95 738//738 739//739
f 667//667 668//668 85//85
f 85//85 668//668 669//669
f 712//712 69//69 677//677
f 676//676 58//58 737//737
f 737//737 58//58 55//55
f 737//737 55//55 46//46
f 38//38 34//34 43//43
f 43//43 34//34 695//695
f 43//43 695//695 40//40
f 16//16 13//13 19//19
f 13//13 732//732 19//19
f 19//19 732//732 733//733
f 19//19 733//733 28//28
f 28//28 733//733 24//24
f 28//28 24//24 26//26
f 5//5 8//8 10//10
f 10//10 8//8 710//710
f 10//10 710//710 13//13
f 5//5 6//6 2//2
f 2//2 6//6 775//775
f 794//794 784//784 7//7
f 7//7 784//784 774//774
f 7//7 774//774 1//1
f 4//4 11//11 697//697
f 27//27 12//12 11//11
f 11//11 12//12 698//698
f 11//11 698//698 697//697
f 735//735 734//734 49//49
f 49//49 734//734 22//22
f 49//49 22//22 21//21
f 79//79 671//671 72//72
f 72//72 671//671 670//670
f 72//72 670//670 49//49
f 49//49 670//670 720//720
f 49//49 720//720 735//735
f 669//669 680//680 85//85
f 85//85 680//680 95//95
f 85//85 95//95 94//94
f 94//94 95//95 239//239
f 94//94 239//239 235//235
f 69//69 82//82 66//66
f 66//66 82//82 78//78
f 66//66 78//78 64//64
f 64//64 78//78 74//74
f 64//64 74//74 61//61
f 61//61 74//74 71//71
f 61//61 71//71 56//56
f 56//56 71//71 70//70
f 56//56 70//70 50//50
f 50//50 70//70 68//68
f 163//163 87//87 88//88
f 88//88 87//87 67//67
f 88//88 67//67 68//68
f 68//68 67//67 48//48
f 68//68 48//48 50//50
f 713//713 667//667 69//69
f 69//69 667//667 85//85
f 69//69 85//85 82//82
f 82//82 85//85 94//94
f 82//82 94//94 78//78
f 78//78 94//94 93//93
f 78//78 93//93 74//74
f 74//74 93//93 92//92
f 74//74 92//92 71//71
f 71//71 92//92 91//91
f 71//71 91//91 70//70
f 70//70 91//91 90//90
f 70//70 90//90 68//68
f 68//68 90//90 89//89
f 68//68 89//89 88//88
f 88//88 89//89 175//175
f 88//88 175//175 171//171
f 150//150 84//84 86//86
f 86//86 84//84 63//63
f 86//86 63//63 65//65
f 65//65 63//63 44//44
f 65//65 44//44 45//45
f 45//45 44//44 29//29
f 45//45 29//29 30//30
f 676//676 677//677 58//58
f 58//58 677//677 69//69
f 58//58 69//69 55//55
f 55//55 69//69 66//66
f 55//55 66//66 52//52
f 52//52 66//66 64//64
f 52//52 64//64 47//47
f 47//47 64//64 61//61
f 47//47 61//61 42//42
f 42//42 61//61 56//56
f 42//42 56//56 37//37
f 37//37 56//56 50//50
f 37//37 50//50 30//30
f 30//30 50//50 48//48
f 30//30 48//48 45//45
f 45//45 48//48 67//67
f 45//45 67//67 65//65
f 65//65 67//67 87//87
f 65//65 87//87 86//86
f 86//86 87//87 162//162
f 86//86 162//162 157//157
f 17//17 36//36 35//35
f 35//35 36//36 59//59
f 35//35 59//59 57//57
f 57//57 59//59 80//80
f 57//57 80//80 77//77
f 77//77 80//80 124//124
f 77//77 124//124 122//122
f 31//31 54//54 53//53
f 53//53 54//54 76//76
f 53//53 76//76 75//75
f 75//75 76//76 115//115
f 75//75 115//115 114//114
f 111//111 72//72 73//73
f 73//73 72//72 49//49
f 73//73 49//49 51//51
f 51//51 49//49 21//21
f 51//51 21//21 27//27
f 27//27 21//21 743//743
f 27//27 743//743 12//12
f 794//794 7//7 3//3
f 3//3 7//7 14//14
f 3//3 14//14 11//11
f 11//11 14//14 31//31
f 11//11 31//31 27//27
f 27//27 31//31 53//53
f 27//27 53//53 51//51
f 51//51 53//53 75//75
f 51//51 75//75 73//73
f 73//73 75//75 112//112
f 73//73 112//112 111//111
f 15//15 10//10 18//18
f 18//18 10//10 16//16
f 18//18 16//16 25//25
f 25//25 16//16 19//19
f 25//25 19//19 33//33
f 33//33 19//19 28//28
f 33//33 28//28 38//38
f 38//38 28//28 32//32
f 38//38 32//32 34//34
f 120//120 76//76 77//77
f 77//77 76//76 54//54
f 77//77 54//54 57//57
f 57//57 54//54 31//31
f 57//57 31//31 35//35
f 35//35 31//31 14//14
f 35//35 14//14 17//17
f 17//17 14//14 7//7
f 17//17 7//7 9//9
f 9//9 7//7 1//1
f 9//9 1//1 6//6
f 6//6 1//1 778//778
f 6//6 778//778 775//775
f 15//15 23//23 20//20
f 20//20 23//23 41//41
f 20//20 41//41 39//39
f 39//39 41//41 62//62
f 39//39 62//62 60//60
f 60//60 62//62 83//83
f 60//60 83//83 81//81
f 81//81 83//83 138//138
f 81//81 138//138 135//135
f 5//5 10//10 6//6
f 6//6 10//10 15//15
f 6//6 15//15 9//9
f 9//9 15//15 20//20
f 9//9 20//20 17//17
f 17//17 20//20 39//39
f 17//17 39//39 36//36
f 36//36 39//39 60//60
f 36//36 60//60 59//59
f 59//59 60//60 81//81
f 59//59 81//81 80//80
f 80//80 81//81 131//131
f 80//80 131//131 126//126
f 143//143 83//83 84//84
f 84//84 83//83 62//62
f 84//84 62//62 63//63
f 63//63 62//62 41//41
f 63//63 41//41 44//44
f 44//44 41//41 23//23
f 44//44 23//23 29//29
f 29//29 23//23 15//15
f 29//29 15//15 30//30
f 30//30 15//15 18//18
f 30//30 18//18 37//37
f 37//37 18//18 25//25
f 37//37 25//25 42//42
f 42//42 25//25 33//33
f 42//42 33//33 47//47
f 47//47 33//33 38//38
f 47//47 38//38 52//52
f 52//52 38//38 43//43
f 52//52 43//43 55//55
f 55//55 43//43 708//708
f 55//55 708//708 46//46
f 545//545 542//542 552//552
f 522//522 521//521 539//539
f 456//456 461//461 446//446
f 529//529 530//530 507//507
f 567//567 761//761 754//754
f 562//562 563//563 548//548
f 548//548 563//563 564//564
f 751//751 792//792 770//770
f 771//771 564//564 565//565
f 771//771 565//565 566//566
f 559//559 560//560 543//543
f 543//543 560//560 561//561
f 559//559 543//543 558//558
f 558//558 543//543 539//539
f 558//558 539//539 557//557
f 553//553 554//554 532//532
f 532//532 554//554 555//555
f 532//532 555//555 539//539
f 539//539 555//555 556//556
f 539//539 556//556 557//557
f 553//553 532//532 551//551
f 551//551 532//532 526//526
f 551//551 526//526 550//550
f 544//544 546//546 520//520
f 520//520 546//546 547//547
f 520//520 547//547 526//526
f 526//526 547//547 549//549
f 526//526 549//549 550//550
f 544//544 520//520 540//540
f 540//540 520//520 514//514
f 540//540 514//514 538//538
f 530//530 531//531 507//507
f 507//507 531//531 534//534
f 507//507 534//534 514//514
f 514//514 534//534 537//537
f 514//514 537//537 538//538
f 529//529 507//507 525//525
f 525//525 507//507 501//501
f 525//525 501//501 524//524
f 524//524 501//501 519//519
f 519//519 501//501 495//495
f 519//519 495//495 517//517
f 508//508 510//510 489//489
f 489//489 510//510 512//512
f 489//489 512//512 495//495
f 495//495 512//512 516//516
f 495//495 516//516 517//517
f 508//508 489//489 504//504
f 504//504 489//489 482//482
f 504//504 482//482 503//503
f 493//493 496//496 477//477
f 477//477 496//496 497//497
f 477//477 497//497 482//482
f 482//482 497//497 500//500
f 482//482 500//500 503//503
f 493//493 477//477 490//490
f 490//490 477//477 471//471
f 490//490 471//471 488//488
f 488//488 471//471 484//484
f 484//484 471//471 466//466
f 484//484 466//466 481//481
f 481//481 466//466 475//475
f 475//475 466//466 455//455
f 475//475 455//455 474//474
f 461//461 463//463 446//446
f 446//446 463//463 464//464
f 446//446 464//464 455//455
f 455//455 464//464 470//470
f 455//455 470//470 474//474
f 447//447 450//450 441//441
f 441//441 450//450 451//451
f 438//438 439//439 430//430
f 430//430 439//439 440//440
f 430//430 440//440 434//434
f 434//434 440//440 444//444
f 434//434 444//444 447//447
f 692//692 438//438 691//691
f 691//691 438//438 430//430
f 691//691 430//430 679//679
f 679//679 430//430 424//424
f 679//679 424//424 678//678
f 428//428 427//427 434//434
f 434//434 427//427 426//426
f 434//434 426//426 430//430
f 430//430 426//426 425//425
f 430//430 425//425 424//424
f 447//447 441//441 434//434
f 434//434 441//441 429//429
f 434//434 429//429 428//428
f 433//433 432//432 441//441
f 441//441 432//432 431//431
f 441//441 431//431 429//429
f 451//451 456//456 441//441
f 441//441 456//456 446//446
f 441//441 446//446 433//433
f 433//433 446//446 435//435
f 455//455 442//442 437//437
f 455//455 437//437 446//446
f 446//446 437//437 436//436
f 446//446 436//436 435//435
f 449//449 448//448 466//466
f 466//466 448//448 445//445
f 466//466 445//445 455//455
f 455//455 445//445 443//443
f 455//455 443//443 442//442
f 449//449 466//466 452//452
f 452//452 466//466 471//471
f 452//452 471//471 453//453
f 482//482 462//462 477//477
f 477//477 462//462 460//460
f 477//477 460//460 459//459
f 459//459 458//458 477//477
f 477//477 458//458 457//457
f 477//477 457//457 471//471
f 471//471 457//457 454//454
f 471//471 454//454 453//453
f 469//469 468//468 489//489
f 489//489 468//468 467//467
f 489//489 467//467 482//482
f 482//482 467//467 465//465
f 482//482 465//465 462//462
f 495//495 476//476 473//473
f 495//495 473//473 489//489
f 489//489 473//473 472//472
f 489//489 472//472 469//469
f 483//483 480//480 501//501
f 501//501 480//480 479//479
f 501//501 479//479 495//495
f 495//495 479//479 478//478
f 495//495 478//478 476//476
f 483//483 501//501 485//485
f 485//485 501//501 507//507
f 485//485 507//507 486//486
f 494//494 492//492 514//514
f 514//514 492//492 491//491
f 514//514 491//491 507//507
f 507//507 491//491 487//487
f 507//507 487//487 486//486
f 494//494 514//514 498//498
f 498//498 514//514 520//520
f 498//498 520//520 499//499
f 509//509 506//506 526//526
f 526//526 506//506 505//505
f 526//526 505//505 520//520
f 520//520 505//505 502//502
f 520//520 502//502 499//499
f 532//532 515//515 513//513
f 532//532 513//513 526//526
f 526//526 513//513 511//511
f 526//526 511//511 509//509
f 539//539 521//521 532//532
f 532//532 521//521 518//518
f 532//532 518//518 515//515
f 533//533 543//543 548//548
f 548//548 543//543 561//561
f 548//548 561//561 562//562
f 533//533 528//528 543//543
f 543//543 528//528 527//527
f 543//543 527//527 539//539
f 539//539 527//527 523//523
f 539//539 523//523 522//522
f 542//542 541//541 552//552
f 552//552 541//541 536//536
f 552//552 536//536 750//750
f 548//548 536//536 535//535
f 548//548 535//535 533//533
f 566//566 567//567 771//771
f 552//552 756//756 755//755
f 552//552 755//755 545//545
f 545//545 755//755 764//764
f 545//545 764//764 763//763
f 387//387 396//396 397//397
f 675//675 747//747 786//786
f 787//787 746//746 657//657
f 98//98 96//96 104//104
f 97//97 103//103 100//100
f 260//260 681//681 128//128
f 127//127 682//682 99//99
f 129//129 102//102 118//118
f 119//119 101//101 105//105
f 156//156 157//157 177//177
f 204//204 207//207 223//223
f 239//239 241//241 249//249
f 244//244 739//739 254//254
f 253//253 252//252 245//245
f 205//205 203//203 183//183
f 781//781 688//688 132//132
f 790//790 687//687 791//791
f 137//137 123//123 139//139
f 139//139 788//788 130//130
f 139//139 130//130 144//144
f 152//152 151//151 136//136
f 136//136 151//151 147//147
f 136//136 147//147 130//130
f 130//130 147//147 145//145
f 130//130 145//145 144//144
f 152//152 136//136 154//154
f 154//154 136//136 140//140
f 154//154 140//140 158//158
f 166//166 164//164 146//146
f 146//146 164//164 161//161
f 146//146 161//161 140//140
f 140//140 161//161 159//159
f 140//140 159//159 158//158
f 166//166 146//146 167//167
f 167//167 146//146 153//153
f 167//167 153//153 170//170
f 179//179 176//176 160//160
f 160//160 176//176 174//174
f 160//160 174//174 153//153
f 153//153 174//174 173//173
f 153//153 173//173 170//170
f 179//179 160//160 180//180
f 180//180 160//160 165//165
f 180//180 165//165 184//184
f 191//191 189//189 172//172
f 172//172 189//189 187//187
f 172//172 187//187 165//165
f 165//165 187//187 186//186
f 165//165 186//186 184//184
f 191//191 172//172 193//193
f 193//193 172//172 177//177
f 193//193 177//177 196//196
f 203//203 202//202 183//183
f 183//183 202//202 200//200
f 183//183 200//200 177//177
f 177//177 200//200 198//198
f 177//177 198//198 196//196
f 211//211 210//210 188//188
f 188//188 210//210 208//208
f 218//218 214//214 195//195
f 195//195 214//214 213//213
f 195//195 213//213 211//211
f 201//201 220//220 219//219
f 225//225 224//224 206//206
f 206//206 224//224 222//222
f 206//206 222//222 201//201
f 201//201 222//222 221//221
f 201//201 221//221 220//220
f 225//225 206//206 229//229
f 229//229 206//206 212//212
f 229//229 212//212 230//230
f 237//237 236//236 223//223
f 223//223 236//236 233//233
f 223//223 233//233 212//212
f 212//212 233//233 232//232
f 212//212 232//232 230//230
f 246//246 243//243 231//231
f 231//231 243//243 242//242
f 231//231 242//242 223//223
f 223//223 242//242 240//240
f 223//223 240//240 237//237
f 252//252 251//251 245//245
f 245//245 251//251 250//250
f 245//245 250//250 238//238
f 238//238 250//250 248//248
f 238//238 248//248 247//247
f 256//256 255//255 249//249
f 249//249 255//255 253//253
f 241//241 244//244 249//249
f 249//249 244//244 254//254
f 249//249 254//254 256//256
f 256//256 254//254 762//762
f 256//256 762//762 257//257
f 253//253 245//245 249//249
f 249//249 245//245 235//235
f 249//249 235//235 239//239
f 247//247 246//246 238//238
f 238//238 246//246 231//231
f 238//238 231//231 226//226
f 226//226 231//231 217//217
f 226//226 227//227 238//238
f 238//238 227//227 228//228
f 238//238 228//228 245//245
f 245//245 228//228 234//234
f 245//245 234//234 235//235
f 207//207 209//209 223//223
f 223//223 209//209 215//215
f 223//223 215//215 231//231
f 231//231 215//215 216//216
f 231//231 216//216 217//217
f 204//204 223//223 199//199
f 199//199 223//223 212//212
f 199//199 212//212 197//197
f 201//201 190//190 206//206
f 206//206 190//190 192//192
f 206//206 192//192 212//212
f 212//212 192//192 194//194
f 212//212 194//194 197//197
f 181//181 182//182 201//201
f 201//201 182//182 185//185
f 201//201 185//185 190//190
f 219//219 218//218 201//201
f 201//201 218//218 195//195
f 201//201 195//195 181//181
f 181//181 195//195 178//178
f 211//211 188//188 195//195
f 195//195 188//188 175//175
f 195//195 175//175 178//178
f 168//168 169//169 188//188
f 188//188 169//169 171//171
f 188//188 171//171 175//175
f 208//208 205//205 188//188
f 188//188 205//205 183//183
f 188//188 183//183 168//168
f 168//168 183//183 163//163
f 177//177 157//157 183//183
f 183//183 157//157 162//162
f 183//183 162//162 163//163
f 172//172 149//149 150//150
f 172//172 150//150 177//177
f 177//177 150//150 155//155
f 177//177 155//155 156//156
f 141//141 142//142 165//165
f 165//165 142//142 143//143
f 165//165 143//143 172//172
f 172//172 143//143 148//148
f 172//172 148//148 149//149
f 141//141 165//165 138//138
f 138//138 165//165 160//160
f 138//138 160//160 135//135
f 153//153 126//126 131//131
f 153//153 131//131 160//160
f 160//160 131//131 133//133
f 160//160 133//133 135//135
f 146//146 122//122 124//124
f 146//146 124//124 153//153
f 153//153 124//124 125//125
f 153//153 125//125 126//126
f 140//140 117//117 120//120
f 140//140 120//120 146//146
f 146//146 120//120 121//121
f 146//146 121//121 122//122
f 136//136 114//114 115//115
f 136//136 115//115 140//140
f 140//140 115//115 116//116
f 140//140 116//116 117//117
f 130//130 111//111 112//112
f 130//130 112//112 136//136
f 136//136 112//112 113//113
f 136//136 113//113 114//114
f 123//123 106//106 107//107
f 107//107 108//108 123//123
f 123//123 108//108 109//109
f 123//123 109//109 711//711
f 130//130 109//109 110//110
f 130//130 110//110 111//111
f 137//137 134//134 123//123
f 123//123 134//134 686//686
f 123//123 686//686 106//106
f 106//106 686//686 685//685
f 472//472 473//473 410//410
f 498//498 499//499 414//414
f 372//372 721//721 370//370
f 240//240 242//242 276//276
f 257//257 683//683 279//279
f 278//278 251//251 252//252
f 253//253 255//255 279//279
f 279//279 255//255 256//256
f 279//279 256//256 257//257
f 247//247 248//248 278//278
f 278//278 248//248 250//250
f 278//278 250//250 251//251
f 276//276 242//242 277//277
f 277//277 242//242 243//243
f 277//277 243//243 246//246
f 259//259 233//233 236//236
f 276//276 275//275 259//259
f 259//259 236//236 276//276
f 276//276 236//236 237//237
f 276//276 237//237 240//240
f 225//225 229//229 259//259
f 229//229 230//230 259//259
f 259//259 230//230 232//232
f 259//259 232//232 233//233
f 258//258 219//219 220//220
f 220//220 221//221 258//258
f 258//258 221//221 222//222
f 258//258 222//222 224//224
f 211//211 213//213 273//273
f 273//273 213//213 214//214
f 273//273 214//214 218//218
f 205//205 208//208 272//272
f 272//272 208//208 210//210
f 200//200 202//202 271//271
f 271//271 202//202 203//203
f 189//189 269//269 187//187
f 187//187 269//269 268//268
f 187//187 268//268 186//186
f 189//189 191//191 269//269
f 269//269 191//191 193//193
f 269//269 193//193 270//270
f 270//270 193//193 196//196
f 270//270 196//196 198//198
f 186//186 268//268 184//184
f 184//184 268//268 267//267
f 184//184 267//267 180//180
f 173//173 174//174 266//266
f 266//266 174//174 176//176
f 266//266 176//176 267//267
f 267//267 176//176 179//179
f 267//267 179//179 180//180
f 173//173 266//266 170//170
f 170//170 266//266 265//265
f 170//170 265//265 167//167
f 264//264 158//158 159//159
f 159//159 161//161 264//264
f 264//264 161//161 164//164
f 264//264 164//164 265//265
f 265//265 164//164 166//166
f 265//265 166//166 167//167
f 158//158 264//264 154//154
f 154//154 264//264 263//263
f 154//154 263//263 152//152
f 144//144 145//145 262//262
f 262//262 145//145 147//147
f 262//262 147//147 263//263
f 263//263 147//147 151//151
f 263//263 151//151 152//152
f 132//132 134//134 261//261
f 261//261 134//134 137//137
f 261//261 137//137 262//262
f 262//262 137//137 139//139
f 262//262 139//139 144//144
f 781//781 132//132 741//741
f 741//741 132//132 261//261
f 741//741 261//261 672//672
f 672//672 261//261 673//673
f 780//780 304//304 283//283
f 283//283 304//304 719//719
f 283//283 719//719 724//724
f 700//700 699//699 349//349
f 349//349 699//699 690//690
f 349//349 690//690 715//715
f 329//329 783//783 308//308
f 308//308 783//783 782//782
f 308//308 782//782 785//785
f 740//740 398//398 395//395
f 395//395 398//398 768//768
f 395//395 768//768 696//696
f 545//545 763//763 766//766
f 541//541 420//420 536//536
f 536//536 420//420 419//419
f 536//536 419//419 535//535
f 766//766 765//765 545//545
f 545//545 765//765 420//420
f 545//545 420//420 542//542
f 542//542 420//420 541//541
f 535//535 419//419 533//533
f 533//533 419//419 418//418
f 533//533 418//418 528//528
f 528//528 418//418 527//527
f 527//527 418//418 417//417
f 527//527 417//417 523//523
f 416//416 513//513 515//515
f 515//515 518//518 416//416
f 416//416 518//518 521//521
f 416//416 521//521 417//417
f 417//417 521//521 522//522
f 417//417 522//522 523//523
f 513//513 416//416 511//511
f 511//511 416//416 415//415
f 511//511 415//415 509//509
f 499//499 502//502 414//414
f 414//414 502//502 505//505
f 414//414 505//505 415//415
f 415//415 505//505 506//506
f 415//415 506//506 509//509
f 498//498 414//414 494//494
f 494//494 414//414 413//413
f 494//494 413//413 492//492
f 485//485 486//486 412//412
f 412//412 486//486 487//487
f 412//412 487//487 413//413
f 413//413 487//487 491//491
f 413//413 491//491 492//492
f 485//485 412//412 483//483
f 483//483 412//412 411//411
f 483//483 411//411 480//480
f 473//473 476//476 410//410
f 410//410 476//476 478//478
f 410//410 478//478 411//411
f 411//411 478//478 479//479
f 411//411 479//479 480//480
f 472//472 410//410 469//469
f 469//469 410//410 409//409
f 469//469 409//409 468//468
f 460//460 462//462 408//408
f 408//408 462//462 465//465
f 408//408 465//465 409//409
f 409//409 465//465 467//467
f 409//409 467//467 468//468
f 457//457 458//458 423//423
f 449//449 452//452 423//423
f 443//443 445//445 422//422
f 422//422 445//445 448//448
f 452//452 453//453 423//423
f 423//423 453//453 454//454
f 423//423 454//454 457//457
f 432//432 433//433 404//404
f 404//404 433//433 435//435
f 405//405 436//436 421//421
f 421//421 436//436 437//437
f 421//421 437//437 442//442
f 403//403 429//429 431//431
f 426//426 427//427 403//403
f 403//403 427//427 428//428
f 403//403 428//428 429//429
f 425//425 402//402 424//424
f 424//424 402//402 694//694
f 424//424 694//694 678//678
f 703//703 704//704 376//376
f 376//376 704//704 742//742
f 376//376 742//742 402//402
f 402//402 742//742 693//693
f 402//402 693//693 694//694
f 703//703 376//376 371//371
f 371//371 376//376 352//352
f 371//371 352//352 793//793
f 793//793 352//352 760//760
f 760//760 352//352 331//331
f 760//760 331//331 759//759
f 769//769 706//706 331//331
f 331//331 706//706 707//707
f 707//707 757//757 331//331
f 331//331 757//757 330//330
f 331//331 330//330 759//759
f 303//303 722//722 326//326
f 326//326 722//722 723//723
f 326//326 723//723 769//769
f 683//683 684//684 279//279
f 279//279 684//684 758//758
f 279//279 758//758 767//767
f 425//425 426//426 402//402
f 402//402 426//426 403//403
f 402//402 403//403 376//376
f 376//376 403//403 377//377
f 376//376 377//377 352//352
f 352//352 377//377 353//353
f 352//352 353//353 331//331
f 331//331 353//353 332//332
f 331//331 332//332 325//325
f 379//379 373//373 378//378
f 378//378 373//373 354//354
f 379//379 378//378 399//399
f 399//399 378//378 404//404
f 399//399 404//404 405//405
f 405//405 404//404 435//435
f 405//405 435//435 436//436
f 442//442 443//443 421//421
f 421//421 443//443 422//422
f 421//421 422//422 405//405
f 405//405 422//422 406//406
f 405//405 406//406 399//399
f 399//399 406//406 400//400
f 399//399 400//400 379//379
f 379//379 400//400 380//380
f 379//379 380//380 373//373
f 448//448 449//449 422//422
f 422//422 449//449 423//423
f 422//422 423//423 406//406
f 406//406 423//423 407//407
f 406//406 407//407 400//400
f 400//400 407//407 401//401
f 400//400 401//401 380//380
f 335//335 351//351 341//341
f 341//341 351//351 358//358
f 350//350 356//356 357//357
f 357//357 356//356 375//375
f 357//357 375//375 382//382
f 721//721 700//700 370//370
f 370//370 700//700 349//349
f 370//370 349//349 369//369
f 369//369 349//349 343//343
f 369//369 343//343 368//368
f 368//368 343//343 344//344
f 368//368 344//344 367//367
f 367//367 344//344 345//345
f 367//367 345//345 366//366
f 366//366 345//345 346//346
f 366//366 346//346 365//365
f 365//365 346//346 347//347
f 365//365 347//347 364//364
f 364//364 347//347 348//348
f 364//364 348//348 363//363
f 363//363 348//348 342//342
f 363//363 342//342 362//362
f 362//362 342//342 336//336
f 362//362 336//336 361//361
f 361//361 336//336 337//337
f 361//361 337//337 360//360
f 360//360 337//337 338//338
f 360//360 338//338 359//359
f 359//359 338//338 339//339
f 359//359 339//339 358//358
f 358//358 339//339 340//340
f 358//358 340//340 341//341
f 696//696 372//372 395//395
f 395//395 372//372 370//370
f 395//395 370//370 394//394
f 394//394 370//370 369//369
f 394//394 369//369 393//393
f 393//393 369//369 368//368
f 393//393 368//368 392//392
f 392//392 368//368 367//367
f 392//392 367//367 391//391
f 391//391 367//367 366//366
f 391//391 366//366 390//390
f 390//390 366//366 365//365
f 390//390 365//365 389//389
f 389//389 365//365 364//364
f 389//389 364//364 388//388
f 388//388 364//364 363//363
f 388//388 363//363 386//386
f 386//386 363//363 362//362
f 386//386 362//362 385//385
f 385//385 362//362 361//361
f 385//385 361//361 384//384
f 384//384 361//361 360//360
f 384//384 360//360 383//383
f 383//383 360//360 359//359
f 383//383 359//359 382//382
f 382//382 359//359 358//358
f 382//382 358//358 357//357
f 357//357 358//358 351//351
f 357//357 351//351 350//350
f 350//350 351//351 335//335
f 724//724 673//673 283//283
f 283//283 673//673 261//261
f 283//283 261//261 284//284
f 284//284 261//261 262//262
f 284//284 262//262 285//285
f 285//285 262//262 263//263
f 285//285 263//263 286//286
f 286//286 263//263 264//264
f 286//286 264//264 287//287
f 287//287 264//264 265//265
f 287//287 265//265 288//288
f 288//288 265//265 266//266
f 288//288 266//266 289//289
f 289//289 266//266 267//267
f 289//289 267//267 290//290
f 290//290 267//267 268//268
f 290//290 268//268 291//291
f 291//291 268//268 269//269
f 291//291 269//269 292//292
f 292//292 269//269 270//270
f 292//292 270//270 293//293
f 785//785 780//780 308//308
f 308//308 780//780 283//283
f 308//308 283//283 309//309
f 309//309 283//283 284//284
f 309//309 284//284 310//310
f 310//310 284//284 285//285
f 310//310 285//285 311//311
f 311//311 285//285 286//286
f 311//311 286//286 312//312
f 312//312 286//286 287//287
f 312//312 287//287 313//313
f 313//313 287//287 288//288
f 313//313 288//288 314//314
f 314//314 288//288 289//289
f 314//314 289//289 315//315
f 315//315 289//289 290//290
f 315//315 290//290 316//316
f 316//316 290//290 291//291
f 316//316 291//291 317//317
f 317//317 291//291 292//292
f 317//317 292//292 318//318
f 318//318 292//292 293//293
f 318//318 293//293 319//319
f 715//715 329//329 349//349
f 349//349 329//329 308//308
f 349//349 308//308 343//343
f 343//343 308//308 309//309
f 343//343 309//309 344//344
f 344//344 309//309 310//310
f 344//344 310//310 345//345
f 345//345 310//310 311//311
f 345//345 311//311 346//346
f 346//346 311//311 312//312
f 346//346 312//312 347//347
f 347//347 312//312 313//313
f 347//347 313//313 348//348
f 348//348 313//313 314//314
f 348//348 314//314 342//342
f 342//342 314//314 315//315
f 342//342 315//315 336//336
f 336//336 315//315 316//316
f 336//336 316//316 337//337
f 337//337 316//316 317//317
f 337//337 317//317 338//338
f 338//338 317//317 318//318
f 338//338 318//318 339//339
f 339//339 318//318 319//319
f 339//339 319//319 340//340
f 275//275 274//274 259//259
f 259//259 274//274 258//258
f 259//259 258//258 225//225
f 225//225 258//258 224//224
f 252//252 253//253 278//278
f 278//278 253//253 279//279
f 278//278 279//279 301//301
f 301//301 279//279 767//767
f 301//301 767//767 302//302
f 246//246 247//247 277//277
f 277//277 247//247 278//278
f 277//277 278//278 300//300
f 300//300 278//278 301//301
f 300//300 301//301 326//326
f 326//326 301//301 302//302
f 326//326 302//302 303//303
f 295//295 296//296 305//305
f 305//305 296//296 297//297
f 305//305 297//297 306//306
f 306//306 297//297 298//298
f 306//306 298//298 307//307
f 299//299 325//325 324//324
f 324//324 325//325 332//332
f 324//324 332//332 333//333
f 333//333 332//332 353//353
f 333//333 353//353 354//354
f 354//354 353//353 377//377
f 354//354 377//377 378//378
f 378//378 377//377 403//403
f 378//378 403//403 404//404
f 404//404 403//403 431//431
f 404//404 431//431 432//432
f 320//320 321//321 327//327
f 327//327 321//321 322//322
f 327//327 322//322 328//328
f 328//328 322//322 323//323
f 328//328 323//323 334//334
f 203//203 205//205 271//271
f 271//271 205//205 272//272
f 271//271 272//272 294//294
f 294//294 272//272 295//295
f 294//294 295//295 320//320
f 320//320 295//295 305//305
f 320//320 305//305 321//321
f 321//321 305//305 306//306
f 321//321 306//306 322//322
f 322//322 306//306 307//307
f 322//322 307//307 323//323
f 769//769 331//331 326//326
f 326//326 331//331 325//325
f 326//326 325//325 300//300
f 300//300 325//325 299//299
f 300//300 299//299 277//277
f 277//277 299//299 282//282
f 277//277 282//282 276//276
f 276//276 282//282 281//281
f 276//276 281//281 275//275
f 275//275 281//281 280//280
f 275//275 280//280 274//274
f 274//274 280//280 273//273
f 274//274 273//273 258//258
f 258//258 273//273 218//218
f 258//258 218//218 219//219
f 210//210 211//211 272//272
f 272//272 211//211 273//273
f 272//272 273//273 295//295
f 295//295 273//273 280//280
f 295//295 280//280 296//296
f 296//296 280//280 281//281
f 296//296 281//281 297//297
f 297//297 281//281 282//282
f 297//297 282//282 298//298
f 298//298 282//282 299//299
f 298//298 299//299 307//307
f 307//307 299//299 324//324
f 307//307 324//324 323//323
f 323//323 324//324 333//333
f 323//323 333//333 334//334
f 334//334 333//333 354//354
f 334//334 354//354 355//355
f 355//355 354//354 373//373
f 355//355 373//373 374//374
f 374//374 373//373 380//380
f 374//374 380//380 381//381
f 381//381 380//380 401//401
f 381//381 401//401 408//408
f 408//408 401//401 407//407
f 408//408 407//407 460//460
f 460//460 407//407 423//423
f 460//460 423//423 459//459
f 459//459 423//423 458//458
f 198//198 200//200 270//270
f 270//270 200//200 271//271
f 270//270 271//271 293//293
f 293//293 271//271 294//294
f 293//293 294//294 319//319
f 319//319 294//294 320//320
f 319//319 320//320 340//340
f 340//340 320//320 327//327
f 340//340 327//327 341//341
f 341//341 327//327 328//328
f 341//341 328//328 335//335
f 335//335 328//328 334//334
f 335//335 334//334 350//350
f 350//350 334//334 355//355
f 350//350 355//355 356//356
f 356//356 355//355 374//374
f 356//356 374//374 375//375
f 375//375 374//374 381//381
f 375//375 381//381 382//382
f 382//382 381//381 408//408
f 382//382 408//408 383//383
f 383//383 408//408 409//409
f 383//383 409//409 384//384
f 384//384 409//409 410//410
f 384//384 410//410 385//385
f 385//385 410//410 411//411
f 385//385 411//411 386//386
f 386//386 411//411 412//412
f 386//386 412//412 388//388
f 388//388 412//412 413//413
f 388//388 413//413 389//389
f 389//389 413//413 414//414
f 389//389 414//414 390//390
f 390//390 414//414 415//415
f 390//390 415//415 391//391
f 391//391 415//415 416//416
f 391//391 416//416 392//392
f 392//392 416//416 417//417
f 392//392 417//417 393//393
f 393//393 417//417 418//418
f 393//393 418//418 394//394
f 394//394 418//418 419//419
f 394//394 419//419 395//395
f 395//395 419//419 420//420
f 395//395 420//420 740//740
f 740//740 420//420 765//765

