mtllib material.mtl
usemtl verbindung.002
v -0.02919800 0.04845000 0.00322600
v -0.02919800 0.04845000 0.00322600
v -0.02919800 0.04845000 0.00322600
v -0.02919800 0.04845000 0.00322600
v -0.02919800 0.04845000 0.00322600
v -0.02805500 0.04065000 0.00801200
v -0.02805500 0.04065000 0.00801200
v -0.02805500 0.04065000 0.00801200
v -0.02805500 0.04065000 0.00801200
v -0.02550000 0.04844900 0.01282800
v -0.02550000 0.04844900 0.01282800
v -0.02550000 0.04844900 0.01282800
v -0.02550000 0.04844900 0.01282800
v -0.02550000 0.04844900 0.01282800
v -0.02550000 0.04844900 0.01282800
v -0.01888000 0.04844900 0.02072200
v -0.01888000 0.04844900 0.02072200
v -0.01888000 0.04844900 0.02072200
v -0.01888000 0.04844900 0.02072200
v -0.01888000 0.04844900 0.02072200
v -0.01888000 0.04844900 0.02072200
v -0.02077100 0.04064900 0.01895200
v -0.02077100 0.04064900 0.01895200
v -0.02077100 0.04064900 0.01895200
v -0.02077100 0.04064900 0.01895200
v -0.01097800 0.04064900 0.02543800
v -0.01097800 0.04064900 0.02543800
v -0.01097800 0.04064900 0.02543800
v -0.01097800 0.04064900 0.02543800
v -0.01097800 0.04064900 0.02543800
v -0.00988400 0.04844900 0.02569900
v -0.00988400 0.04844900 0.02569900
v -0.00988400 0.04844900 0.02569900
v -0.00988400 0.04844900 0.02569900
v 0.00376500 0.04845000 0.02755900
v 0.00376500 0.04845000 0.02755900
v 0.00376500 0.04845000 0.02755900
v 0.00376500 0.04845000 0.02755900
v 0.00376500 0.04845000 0.02755900
v 0.00376500 0.04845000 0.02755900
v 0.00145300 0.04065000 0.02746300
v 0.00145300 0.04065000 0.02746300
v 0.00145300 0.04065000 0.02746300
v 0.01387800 0.04064900 0.02412600
v 0.01387800 0.04064900 0.02412600
v 0.01387800 0.04064900 0.02412600
v 0.01387800 0.04064900 0.02412600
v 0.01387800 0.04064900 0.02412600
v 0.02147900 0.04845000 0.01887500
v 0.02147900 0.04845000 0.01887500
v 0.02147900 0.04845000 0.01887500
v 0.02147900 0.04845000 0.01887500
v 0.02147900 0.04845000 0.01887500
v 0.02147900 0.04845000 0.01887500
v 0.02365800 0.04064900 0.01575100
v 0.02365800 0.04064900 0.01575100
v 0.02365800 0.04064900 0.01575100
v 0.02365800 0.04064900 0.01575100
v 0.02365800 0.04064900 0.01575100
v 0.02916700 0.04065000 0.00382300
v 0.02916700 0.04065000 0.00382300
v 0.02916700 0.04065000 0.00382300
v 0.02916700 0.04065000 0.00382300
v 0.02935400 0.04845000 0.00297600
v 0.02935400 0.04845000 0.00297600
v 0.02935400 0.04845000 0.00297600
v 0.02935400 0.04845000 0.00297600
v 0.03108800 0.04845000 -0.00810300
v 0.03108800 0.04845000 -0.00810300
v 0.03108800 0.04845000 -0.00810300
v 0.03108800 0.04845000 -0.00810300
v 0.02679500 0.04065000 -0.01937700
v 0.02679500 0.04065000 -0.01937700
v 0.02679500 0.04065000 -0.01937700
v 0.02679500 0.04065000 -0.01937700
v 0.02679500 0.04065000 -0.01937700
v 0.02656300 0.04844900 -0.01960500
v 0.02656300 0.04844900 -0.01960500
v 0.02656300 0.04844900 -0.01960500
v 0.02656300 0.04844900 -0.01960500
v 0.01710200 0.04845000 -0.02888700
v 0.01710200 0.04845000 -0.02888700
v 0.01710200 0.04845000 -0.02888700
v 0.01710200 0.04845000 -0.02888700
v 0.01710200 0.04845000 -0.02888700
v 0.01710200 0.04845000 -0.02888700
v 0.01756900 0.04064900 -0.02849800
v 0.01756900 0.04064900 -0.02849800
v 0.01756900 0.04064900 -0.02849800
v 0.00561600 0.04065000 -0.03352900
v 0.00561600 0.04065000 -0.03352900
v 0.00561600 0.04065000 -0.03352900
v 0.00561600 0.04065000 -0.03352900
v 0.00561600 0.04065000 -0.03352900
v 0.00558700 0.04845000 -0.03340000
v 0.00558700 0.04845000 -0.03340000
v 0.00558700 0.04845000 -0.03340000
v 0.00558700 0.04845000 -0.03340000
v -0.00941100 0.04845000 -0.03268700
v -0.00941100 0.04845000 -0.03268700
v -0.00941100 0.04845000 -0.03268700
v -0.00941100 0.04845000 -0.03268700
v -0.00941100 0.04845000 -0.03268700
v -0.00941100 0.04845000 -0.03268700
v -0.00941100 0.04845000 -0.03268700
v -0.01110500 0.04065000 -0.03211200
v -0.01110500 0.04065000 -0.03211200
v -0.01110500 0.04065000 -0.03211200
v -0.01110500 0.04065000 -0.03211200
v -0.02221300 0.04845000 -0.02481000
v -0.02221300 0.04845000 -0.02481000
v -0.02221300 0.04845000 -0.02481000
v -0.02221300 0.04845000 -0.02481000
v -0.02221300 0.04845000 -0.02481000
v -0.02651500 0.04065000 -0.02027100
v -0.02651500 0.04065000 -0.02027100
v -0.02651500 0.04065000 -0.02027100
v -0.02651500 0.04065000 -0.02027100
v -0.02651500 0.04065000 -0.02027100
v -0.03042600 0.04845000 -0.01189800
v -0.03042600 0.04845000 -0.01189800
v -0.03042600 0.04845000 -0.01189800
v -0.03042600 0.04845000 -0.01189800
v -0.03136800 0.04065000 -0.00600200
v -0.03136800 0.04065000 -0.00600200
v -0.03136800 0.04065000 -0.00600200
v -0.03136800 0.04065000 -0.00600200
v -0.02950700 0.04065000 -0.00505000
v -0.02950700 0.04065000 -0.00505000
v -0.02950700 0.04065000 -0.00505000
v -0.02950700 0.04065000 -0.00505000
v -0.02950700 0.04065000 -0.00505000
v -0.01498300 0.04065000 -0.02815200
v -0.01498300 0.04065000 -0.02815200
v -0.01498300 0.04065000 -0.02815200
v -0.01498300 0.04065000 -0.02815200
v -0.02606200 0.04065000 -0.01656800
v -0.02606200 0.04065000 -0.01656800
v -0.02606200 0.04065000 -0.01656800
v -0.02606200 0.04065000 -0.01656800
v -0.02606200 0.04065000 -0.01656800
v 0.01886700 0.04065000 0.02334600
v 0.01886700 0.04065000 0.02334600
v 0.01886700 0.04065000 0.02334600
v 0.01886700 0.04065000 0.02334600
v 0.01886700 0.04065000 0.02334600
v 0.02900400 0.04065000 0.01109700
v 0.02900400 0.04065000 0.01109700
v 0.02900400 0.04065000 0.01109700
v 0.02900400 0.04065000 0.01109700
v 0.02900400 0.04065000 0.01109700
v 0.00329100 0.04065000 0.02962300
v 0.00329100 0.04065000 0.02962300
v 0.00329100 0.04065000 0.02962300
v 0.00329100 0.04065000 0.02962300
v 0.00329100 0.04065000 0.02962300
v 0.03166800 0.04065000 -0.00487100
v 0.03166800 0.04065000 -0.00487100
v 0.03166800 0.04065000 -0.00487100
v 0.03166800 0.04065000 -0.00487100
v 0.02910300 0.04065000 -0.00759400
v 0.02910300 0.04065000 -0.00759400
v 0.02910300 0.04065000 -0.00759400
v 0.02910300 0.04065000 -0.00759400
v -0.01154100 0.04064900 0.02726300
v -0.01154100 0.04064900 0.02726300
v -0.01154100 0.04064900 0.02726300
v -0.01154100 0.04064900 0.02726300
v 0.02490400 0.04065000 -0.01857800
v 0.02490400 0.04065000 -0.01857800
v 0.02490400 0.04065000 -0.01857800
v 0.02490400 0.04065000 -0.01857800
v -0.02132800 0.04064900 0.02124800
v -0.02132800 0.04064900 0.02124800
v -0.02132800 0.04064900 0.02124800
v -0.02132800 0.04064900 0.02124800
v 0.01436700 0.04064900 -0.02826200
v 0.01436700 0.04064900 -0.02826200
v 0.01436700 0.04064900 -0.02826200
v 0.01436700 0.04064900 -0.02826200
v -0.03029300 0.04065000 0.00809000
v -0.03029300 0.04065000 0.00809000
v -0.03029300 0.04065000 0.00809000
v -0.03029300 0.04065000 0.00809000
v 0.00086700 0.04065000 -0.03197000
v 0.00086700 0.04065000 -0.03197000
v 0.00086700 0.04065000 -0.03197000
v 0.00086700 0.04065000 -0.03197000
v 0.00086700 0.04065000 -0.03197000
v -0.02828400 0.04845000 -0.01219100
v -0.02828400 0.04845000 -0.01219100
v -0.02828400 0.04845000 -0.01219100
v -0.02828400 0.04845000 -0.01219100
v -0.00958300 0.04845000 -0.03025300
v -0.00958300 0.04845000 -0.03025300
v -0.00958300 0.04845000 -0.03025300
v -0.00958300 0.04845000 -0.03025300
v -0.00958300 0.04845000 -0.03025300
v 0.02027100 0.04844900 0.02224600
v 0.02027100 0.04844900 0.02224600
v 0.02027100 0.04844900 0.02224600
v 0.02027100 0.04844900 0.02224600
v 0.02027100 0.04844900 0.02224600
v 0.03048100 0.04845000 0.00782500
v 0.03048100 0.04845000 0.00782500
v 0.03048100 0.04845000 0.00782500
v 0.03048100 0.04845000 0.00782500
v 0.03048100 0.04845000 0.00782500
v 0.00850500 0.04844900 0.02833500
v 0.00850500 0.04844900 0.02833500
v 0.00850500 0.04844900 0.02833500
v 0.00850500 0.04844900 0.02833500
v -0.01929900 0.04844900 -0.02477200
v -0.01929900 0.04844900 -0.02477200
v -0.01929900 0.04844900 -0.02477200
v -0.01929900 0.04844900 -0.02477200
v -0.01929900 0.04844900 -0.02477200
v -0.01929900 0.04844900 -0.02477200
v -0.00443600 0.04845000 0.02922600
v -0.00443600 0.04845000 0.02922600
v -0.00443600 0.04845000 0.02922600
v -0.00443600 0.04845000 0.02922600
v -0.00443600 0.04845000 0.02922600
v -0.00443600 0.04845000 0.02922600
v 0.02852700 0.04845000 -0.01045500
v 0.02852700 0.04845000 -0.01045500
v 0.02852700 0.04845000 -0.01045500
v 0.02852700 0.04845000 -0.01045500
v -0.01583700 0.04845000 0.02519700
v -0.01583700 0.04845000 0.02519700
v -0.01583700 0.04845000 0.02519700
v -0.01583700 0.04845000 0.02519700
v -0.01583700 0.04845000 0.02519700
v -0.01583700 0.04845000 0.02519700
v 0.02171600 0.04845000 -0.02268800
v 0.02171600 0.04845000 -0.02268800
v 0.02171600 0.04845000 -0.02268800
v 0.02171600 0.04845000 -0.02268800
v 0.02171600 0.04845000 -0.02268800
v 0.02171600 0.04845000 -0.02268800
v -0.02400000 0.04845000 0.01842000
v -0.02400000 0.04845000 0.01842000
v -0.02400000 0.04845000 0.01842000
v -0.02400000 0.04845000 0.01842000
v -0.02400000 0.04845000 0.01842000
v -0.02400000 0.04845000 0.01842000
v 0.01093900 0.04845000 -0.02973300
v 0.01093900 0.04845000 -0.02973300
v 0.01093900 0.04845000 -0.02973300
v 0.01093900 0.04845000 -0.02973300
v 0.01093900 0.04845000 -0.02973300
v 0.01093900 0.04845000 -0.02973300
v -0.03082100 0.04845000 0.00605100
v -0.03082100 0.04845000 0.00605100
v -0.03082100 0.04845000 0.00605100
v -0.03082100 0.04845000 0.00605100
v -0.03082100 0.04845000 0.00605100
v -0.03082100 0.04845000 0.00605100
v 0.00086300 0.04845000 -0.03184800
v 0.00086300 0.04845000 -0.03184800
v 0.00086300 0.04845000 -0.03184800
v 0.00086300 0.04845000 -0.03184800
vn 0.99090000 0.07760000 -0.11010000
vn 0.92990000 -0.08350000 -0.35810000
vn -0.00000000 1.00000000 -0.00000000
vn 0.00010000 1.00000000 -0.00000000
vn 0.99310000 -0.10180000 0.05890000
vn 0.92990000 -0.08350000 -0.35810000
vn -0.00000000 -1.00000000 -0.00000000
vn 0.99090000 0.07760000 -0.11010000
vn 0.83040000 0.06940000 -0.55290000
vn 0.00010000 1.00000000 -0.00000000
vn 0.83040000 0.06940000 -0.55290000
vn 0.00040000 1.00000000 -0.00020000
vn 0.00020000 1.00000000 -0.00020000
vn 0.76560000 -0.03990000 -0.64210000
vn 0.92990000 -0.08350000 -0.35810000
vn -0.00000000 1.00000000 -0.00010000
vn 0.55130000 0.05520000 -0.83250000
vn 0.00020000 1.00000000 -0.00020000
vn 0.76560000 -0.03990000 -0.64210000
vn 0.00020000 1.00000000 -0.00010000
vn 0.48370000 -0.03860000 -0.87440000
vn 0.83040000 0.06940000 -0.55290000
vn 0.76560000 -0.03990000 -0.64210000
vn 0.55130000 0.05520000 -0.83250000
vn -0.00000000 -1.00000000 -0.00000000
vn -0.00000000 -1.00000000 -0.00000000
vn 0.13500000 0.01410000 -0.99070000
vn 0.48370000 -0.03860000 -0.87440000
vn 0.55130000 0.05520000 -0.83250000
vn 0.16060000 -0.03540000 -0.98640000
vn -0.00000000 1.00000000 -0.00010000
vn 0.48370000 -0.03860000 -0.87440000
vn 0.13500000 0.01410000 -0.99070000
vn 0.00010000 1.00000000 -0.00010000
vn 0.13500000 0.01410000 -0.99070000
vn -0.00000000 1.00000000 -0.00010000
vn -0.00000000 1.00000000 -0.00000000
vn 0.16060000 -0.03540000 -0.98640000
vn -0.43360000 -0.17290000 -0.88440000
vn -0.25830000 0.08850000 -0.96200000
vn -0.25830000 0.08850000 -0.96200000
vn 0.16060000 -0.03540000 -0.98640000
vn -0.00000000 -1.00000000 -0.00000000
vn -0.43360000 -0.17290000 -0.88440000
vn -0.64560000 0.12160000 -0.75390000
vn -0.00000000 -1.00000000 0.00010000
vn -0.00000000 -1.00000000 -0.00000000
vn -0.25830000 0.08850000 -0.96200000
vn -0.89580000 -0.02680000 -0.44370000
vn -0.43360000 -0.17290000 -0.88440000
vn -0.64560000 0.12160000 -0.75390000
vn 0.00010000 1.00000000 0.00010000
vn -0.00000000 1.00000000 -0.00000000
vn -0.90450000 -0.08530000 -0.41780000
vn -0.64560000 0.12160000 -0.75390000
vn -0.90450000 -0.08530000 -0.41780000
vn 0.00020000 -1.00000000 0.00010000
vn -0.00000000 -1.00000000 0.00010000
vn -0.00000000 -1.00000000 -0.00000000
vn -0.90450000 -0.08530000 -0.41780000
vn -0.89580000 -0.02680000 -0.44370000
vn -0.00000000 -1.00000000 -0.00000000
vn -0.99970000 0.02450000 0.00560000
vn -0.00000000 1.00000000 -0.00000000
vn -0.99970000 0.02450000 0.00560000
vn -0.99680000 -0.05100000 0.06130000
vn -0.89580000 -0.02680000 -0.44370000
vn 0.93050000 0.01700000 -0.36600000
vn 0.94620000 -0.06130000 -0.31780000
vn -0.00000000 1.00000000 -0.00000000
vn 0.99520000 0.08980000 0.03790000
vn -0.00000000 -1.00000000 -0.00000000
vn 0.70030000 -0.00000000 -0.71380000
vn 0.70300000 0.00660000 -0.71120000
vn 0.93050000 0.01700000 -0.36600000
vn 0.94620000 -0.06130000 -0.31780000
vn 0.00010000 1.00000000 -0.00010000
vn 0.93050000 0.01700000 -0.36600000
vn 0.70030000 -0.00000000 -0.71380000
vn -0.00000000 1.00000000 -0.00000000
vn -0.00000000 1.00000000 -0.00010000
vn 0.36490000 0.01670000 -0.93090000
vn 0.70030000 -0.00000000 -0.71380000
vn 0.00010000 1.00000000 -0.00010000
vn 0.38790000 -0.02280000 -0.92140000
vn 0.70300000 0.00660000 -0.71120000
vn 0.70300000 0.00660000 -0.71120000
vn -0.00000000 -1.00000000 -0.00000000
vn 0.38790000 -0.02280000 -0.92140000
vn -0.00000000 -1.00000000 -0.00000000
vn 0.38790000 -0.02280000 -0.92140000
vn -0.08430000 -0.05500000 -0.99490000
vn -0.04750000 0.01630000 -0.99870000
vn 0.36490000 0.01670000 -0.93090000
vn 0.36490000 0.01670000 -0.93090000
vn -0.00000000 1.00000000 -0.00000000
vn 0.00010000 1.00000000 -0.00010000
vn -0.04750000 0.01630000 -0.99870000
vn -0.00010000 1.00000000 -0.00010000
vn -0.00000000 1.00000000 0.00010000
vn -0.08430000 -0.05500000 -0.99490000
vn -0.00000000 1.00000000 -0.00010000
vn -0.52340000 0.05100000 -0.85060000
vn -0.04750000 0.01630000 -0.99870000
vn -0.00000000 1.00000000 -0.00000000
vn -0.08430000 -0.05500000 -0.99490000
vn -0.52340000 0.05100000 -0.85060000
vn -0.00000000 -1.00000000 -0.00000000
vn -0.60460000 -0.12440000 -0.78680000
vn -0.00000000 1.00000000 -0.00000000
vn -0.52340000 0.05100000 -0.85060000
vn -0.60460000 -0.12440000 -0.78680000
vn -0.83410000 0.15130000 -0.53050000
vn -0.00000000 1.00000000 0.00010000
vn -0.00000000 -1.00000000 -0.00000000
vn 0.00010000 -1.00000000 -0.00000000
vn -0.60460000 -0.12440000 -0.78680000
vn -0.93890000 -0.12800000 -0.31940000
vn -0.83410000 0.15130000 -0.53050000
vn -0.83410000 0.15130000 -0.53050000
vn -0.99440000 0.10350000 -0.02190000
vn -0.93890000 -0.12800000 -0.31940000
vn -0.00000000 1.00000000 -0.00000000
vn -0.99440000 0.10350000 -0.02190000
vn -0.00000000 -1.00000000 -0.00000000
vn -0.93890000 -0.12800000 -0.31940000
vn -0.99600000 -0.04760000 0.07600000
vn 0.00010000 -1.00000000 -0.00000000
vn 0.99090000 0.07760000 -0.11010000
vn -0.00000000 -1.00000000 -0.00000000
vn 0.95210000 0.11140000 0.28470000
vn 0.99310000 -0.10180000 0.05890000
vn 0.71910000 0.09980000 0.68770000
vn 0.48870000 -0.10500000 0.86610000
vn -0.00000000 -1.00000000 -0.00000000
vn 0.23300000 0.09930000 0.96740000
vn 0.81020000 -0.09390000 0.57860000
vn -0.00000000 -1.00000000 -0.00000000
vn 0.71910000 0.09980000 0.68770000
vn 0.95210000 0.11140000 0.28470000
vn 0.00010000 -1.00000000 -0.00000000
vn 0.76950000 -0.04870000 0.63680000
vn 0.45910000 0.04250000 0.88740000
vn 0.37210000 -0.09620000 0.92320000
vn -0.00000000 -1.00000000 0.00010000
vn 0.00020000 -1.00000000 0.00010000
vn -0.00000000 -1.00000000 -0.00000000
vn 0.00020000 -1.00000000 0.00010000
vn 0.76950000 -0.04870000 0.63680000
vn 0.81300000 0.08750000 0.57560000
vn 0.97960000 -0.11700000 0.16350000
vn -0.00000000 -1.00000000 -0.00000000
vn 0.37210000 -0.09620000 0.92320000
vn -0.15630000 -0.10480000 0.98210000
vn -0.00000000 -1.00000000 0.00010000
vn 0.06820000 0.11810000 0.99070000
vn 0.99520000 0.08980000 0.03790000
vn 0.94620000 -0.06130000 -0.31780000
vn 0.97960000 -0.11700000 0.16350000
vn -0.00000000 -1.00000000 -0.00000000
vn -0.99680000 -0.05100000 0.06130000
vn -0.93230000 0.06200000 0.35640000
vn -0.00000000 -1.00000000 -0.00000000
vn -0.99970000 0.02450000 0.00560000
vn -0.33250000 0.06610000 0.94080000
vn -0.00000000 -1.00000000 -0.00000000
vn -0.15630000 -0.10480000 0.98210000
vn -0.52260000 -0.06260000 0.85030000
vn -0.00000000 -1.00000000 -0.00000000
vn -0.67250000 0.11070000 0.73170000
vn -0.93230000 0.06200000 0.35640000
vn -0.86930000 -0.10020000 0.48400000
vn -0.82390000 -0.07880000 0.56130000
vn -0.52260000 -0.06260000 0.85030000
vn -0.63760000 0.06000000 0.76800000
vn -0.00000000 -1.00000000 -0.00000000
vn -0.54530000 -0.08240000 0.83420000
vn -0.67250000 0.11070000 0.73170000
vn -0.00000000 -1.00000000 -0.00000000
vn -0.26430000 0.06530000 0.96220000
vn -0.99600000 -0.04760000 0.07600000
vn -0.82390000 -0.07880000 0.56130000
vn -0.00000000 -1.00000000 -0.00000000
vn -0.87370000 0.06680000 0.48180000
vn 0.15090000 -0.01540000 0.98840000
vn -0.26430000 0.06530000 0.96220000
vn -0.20540000 -0.01540000 0.97860000
vn 0.23300000 0.09930000 0.96740000
vn -0.00000000 -1.00000000 -0.00000000
vn -0.00000000 1.00000000 -0.00000000
vn 0.99310000 -0.10180000 0.05890000
vn 0.81020000 -0.09390000 0.57860000
vn 0.95210000 0.11140000 0.28470000
vn -0.00010000 1.00000000 -0.00010000
vn -0.00000000 1.00000000 -0.00010000
vn 0.15090000 -0.01540000 0.98840000
vn 0.48870000 -0.10500000 0.86610000
vn 0.23300000 0.09930000 0.96740000
vn -0.00000000 1.00000000 -0.00000000
vn 0.00010000 1.00000000 0.00010000
vn 0.76950000 -0.04870000 0.63680000
vn 0.45910000 0.04250000 0.88740000
vn 0.81300000 0.08750000 0.57560000
vn 0.81300000 0.08750000 0.57560000
vn 0.00010000 1.00000000 0.00010000
vn -0.00000000 1.00000000 -0.00000000
vn 0.97960000 -0.11700000 0.16350000
vn 0.99520000 0.08980000 0.03790000
vn 0.37210000 -0.09620000 0.92320000
vn 0.45910000 0.04250000 0.88740000
vn 0.06820000 0.11810000 0.99070000
vn -0.00000000 1.00000000 -0.00000000
vn -0.00010000 1.00000000 -0.00010000
vn -0.00000000 1.00000000 -0.00000000
vn 0.71910000 0.09980000 0.68770000
vn 0.81020000 -0.09390000 0.57860000
vn -0.00000000 1.00000000 0.00010000
vn 0.48870000 -0.10500000 0.86610000
vn 0.06820000 0.11810000 0.99070000
vn -0.00000000 1.00000000 -0.00000000
vn -0.00000000 1.00000000 -0.00010000
vn -0.15630000 -0.10480000 0.98210000
vn -0.33250000 0.06610000 0.94080000
vn 0.00010000 1.00000000 -0.00010000
vn -0.99680000 -0.05100000 0.06130000
vn -0.00000000 1.00000000 -0.00000000
vn -0.93230000 0.06200000 0.35640000
vn -0.86930000 -0.10020000 0.48400000
vn 0.00020000 1.00000000 -0.00010000
vn -0.63760000 0.06000000 0.76800000
vn -0.00000000 1.00000000 -0.00010000
vn 0.00010000 1.00000000 -0.00010000
vn -0.33250000 0.06610000 0.94080000
vn -0.52260000 -0.06260000 0.85030000
vn 0.00010000 1.00000000 -0.00010000
vn -0.67250000 0.11070000 0.73170000
vn -0.54530000 -0.08240000 0.83420000
vn -0.86930000 -0.10020000 0.48400000
vn -0.00000000 1.00000000 -0.00000000
vn -0.00000000 1.00000000 -0.00010000
vn -0.63760000 0.06000000 0.76800000
vn 0.00040000 1.00000000 -0.00020000
vn 0.00020000 1.00000000 -0.00020000
vn -0.82390000 -0.07880000 0.56130000
vn -0.87370000 0.06680000 0.48180000
vn 0.00020000 1.00000000 -0.00010000
vn -0.00000000 1.00000000 -0.00000000
vn -0.26430000 0.06530000 0.96220000
vn -0.54530000 -0.08240000 0.83420000
vn 0.00010000 1.00000000 -0.00010000
vn -0.00000000 1.00000000 -0.00010000
vn -0.20540000 -0.01540000 0.97860000
vn -0.00000000 1.00000000 -0.00000000
vn -0.99600000 -0.04760000 0.07600000
vn 0.00010000 1.00000000 -0.00000000
vn 0.00040000 1.00000000 -0.00020000
vn -0.87370000 0.06680000 0.48180000
vn -0.99440000 0.10350000 -0.02190000
vn -0.00000000 1.00000000 -0.00000000
vn -0.00000000 1.00000000 -0.00010000
vn 0.15090000 -0.01540000 0.98840000
vn -0.20540000 -0.01540000 0.97860000
f 8//8 129//129 1//1
f 6//6 2//2 15//15
f 22//22 9//9 11//11
f 23//23 14//14 19//19
f 29//29 24//24 17//17
f 28//28 21//21 32//32
f 27//27 33//33 35//35
f 42//42 30//30 38//38
f 48//48 41//41 40//40
f 44//44 39//39 50//50
f 55//55 45//45 51//51
f 60//60 56//56 54//54
f 61//61 49//49 67//67
f 71//71 208//208 157//157
f 69//69 158//158 76//76
f 78//78 68//68 75//75
f 86//86 74//74 87//87
f 83//83 79//79 73//73
f 85//85 89//89 91//91
f 95//95 82//82 94//94
f 101//101 92//92 106//106
f 104//104 98//98 93//93
f 112//112 109//109 117//117
f 111//111 103//103 107//107
f 120//120 113//113 119//119
f 122//122 118//118 126//126
f 258//258 121//121 124//124
f 108//108 189//189 135//135
f 116//116 141//141 128//128
f 115//115 130//130 125//125
f 46//46 58//58 145//145
f 57//57 148//148 146//146
f 46//46 145//145 155//155
f 62//62 147//147 59//59
f 115//115 108//108 135//135
f 115//115 135//135 138//138
f 43//43 47//47 152//152
f 62//62 160//160 147//147
f 163//163 160//160 62//62
f 26//26 43//43 152//152
f 166//166 26//26 152//152
f 72//72 160//160 163//163
f 169//169 72//72 163//163
f 176//176 26//26 166//166
f 25//25 26//26 176//176
f 88//88 72//72 169//169
f 179//179 88//88 169//169
f 183//183 25//25 176//176
f 7//7 25//25 183//183
f 90//90 88//88 179//179
f 189//189 90//90 179//179
f 183//183 130//130 7//7
f 125//125 130//130 183//183
f 108//108 90//90 189//189
f 195//195 260//260 102//102
f 200//200 205//205 52//52
f 212//212 199//199 53//53
f 213//213 194//194 99//99
f 212//212 53//53 37//37
f 53//53 206//206 64//64
f 217//217 100//100 114//114
f 123//123 190//190 110//110
f 190//190 214//214 110//110
f 220//220 212//212 37//37
f 206//206 70//70 64//64
f 64//64 70//70 226//226
f 221//221 36//36 31//31
f 224//224 34//34 232//232
f 226//226 70//70 80//80
f 231//231 31//31 16//16
f 226//226 80//80 239//239
f 229//229 20//20 246//246
f 235//235 77//77 84//84
f 243//243 18//18 13//13
f 240//240 81//81 251//251
f 242//242 12//12 256//256
f 255//255 10//10 4//4
f 250//250 84//84 97//97
f 247//247 96//96 259//259
f 253//253 3//3 123//123
f 3//3 190//190 123//123
f 259//259 96//96 105//105
f 254//254 127//127 181//181
f 245//245 257//257 184//184
f 244//244 182//182 173//173
f 230//230 241//241 175//175
f 234//234 174//174 168//168
f 223//223 233//233 165//165
f 222//222 167//167 154//154
f 211//211 219//219 156//156
f 209//209 153//153 144//144
f 202//202 210//210 143//143
f 201//201 142//142 149//149
f 204//204 203//203 150//150
f 207//207 151//151 159//159
f 164//164 63//63 65//65
f 161//161 66//66 225//225
f 171//171 162//162 227//227
f 172//172 228//228 238//238
f 178//178 170//170 236//236
f 177//177 237//237 249//249
f 186//186 180//180 248//248
f 187//187 252//252 262//262
f 185//185 261//261 196//196
f 136//136 188//188 198//198
f 134//134 197//197 218//218
f 139//139 133//133 215//215
f 137//137 216//216 192//192
f 131//131 140//140 193//193
f 132//132 191//191 5//5

