mtllib material.mtl
usemtl Rohr.001
v 0.01583300 0.04145000 -0.02766300
v 0.01583300 0.04145000 -0.02766300
v 0.01583300 0.04145000 -0.02766300
v 0.01583300 0.04145000 -0.02766300
v 0.01583300 0.04145000 -0.02766300
v -0.02186900 0.04845000 -0.02227000
v -0.02186900 0.04845000 -0.02227000
v -0.02186900 0.04845000 -0.02227000
v -0.02186900 0.04845000 -0.02227000
v -0.02186900 0.04845000 -0.02227000
v -0.02519100 0.04144900 -0.01786100
v -0.02519100 0.04144900 -0.01786100
v -0.02519100 0.04144900 -0.01786100
v -0.02519100 0.04144900 -0.01786100
v -0.02863400 0.04845000 -0.01055900
v -0.02863400 0.04845000 -0.01055900
v -0.02863400 0.04845000 -0.01055900
v -0.02863400 0.04845000 -0.01055900
v 0.00415400 0.04845000 -0.03153200
v 0.00415400 0.04845000 -0.03153200
v 0.00415400 0.04845000 -0.03153200
v 0.00415400 0.04845000 -0.03153200
v -0.00262400 0.04145000 -0.03210300
v -0.00262400 0.04145000 -0.03210300
v -0.00262400 0.04145000 -0.03210300
v -0.00262400 0.04145000 -0.03210300
v 0.03001000 0.04845000 -0.00153700
v 0.03001000 0.04845000 -0.00153700
v 0.03001000 0.04845000 -0.00153700
v 0.03001000 0.04845000 -0.00153700
v 0.03001000 0.04845000 -0.00153700
v 0.02990300 0.04144900 0.00042400
v 0.02990300 0.04144900 0.00042400
v 0.02990300 0.04144900 0.00042400
v 0.02990300 0.04144900 0.00042400
v -0.02952000 0.04145000 -0.00608600
v -0.02952000 0.04145000 -0.00608600
v -0.02952000 0.04145000 -0.00608600
v -0.02952000 0.04145000 -0.00608600
v 0.02654400 0.04144900 -0.01563500
v 0.02654400 0.04144900 -0.01563500
v 0.02654400 0.04144900 -0.01563500
v 0.02654400 0.04144900 -0.01563500
v -0.00962800 0.04845000 -0.03056000
v -0.00962800 0.04845000 -0.03056000
v -0.00962800 0.04845000 -0.03056000
v -0.00962800 0.04845000 -0.03056000
v 0.02560900 0.04844900 -0.01734200
v 0.02560900 0.04844900 -0.01734200
v 0.02560900 0.04844900 -0.01734200
v 0.02560900 0.04844900 -0.01734200
v 0.02560900 0.04844900 -0.01734200
v -0.01730100 0.04144900 -0.02634400
v -0.01730100 0.04144900 -0.02634400
v -0.01730100 0.04144900 -0.02634400
v -0.01730100 0.04144900 -0.02634400
v 0.01573800 0.04845000 -0.02750700
v 0.01573800 0.04845000 -0.02750700
v 0.01573800 0.04845000 -0.02750700
v 0.01573800 0.04845000 -0.02750700
v -0.00156300 0.05932300 0.02580000
v -0.00156300 0.05932300 0.02580000
v -0.00156300 0.05932300 0.02580000
v -0.00156300 0.05932300 0.02580000
v -0.00156300 0.05932300 0.02580000
v -0.00156300 0.05932300 0.02580000
v 0.00162900 0.05948400 0.02880000
v 0.00162900 0.05948400 0.02880000
v 0.00162900 0.05948400 0.02880000
v 0.00162900 0.05948400 0.02880000
v 0.00162900 0.05948400 0.02880000
v 0.00162900 0.05948400 0.02880000
v 0.00418200 0.06159200 0.02580000
v 0.00418200 0.06159200 0.02580000
v 0.00418200 0.06159200 0.02580000
v 0.00418200 0.06159200 0.02580000
v 0.00418200 0.06159200 0.02580000
v -0.00340200 0.06075100 0.02880000
v -0.00340200 0.06075100 0.02880000
v -0.00340200 0.06075100 0.02880000
v -0.00340200 0.06075100 0.02880000
v -0.00340200 0.06075100 0.02880000
v -0.00340200 0.06075100 0.02880000
v -0.00502400 0.06417200 0.02580000
v -0.00502400 0.06417200 0.02580000
v -0.00502400 0.06417200 0.02580000
v -0.00502400 0.06417200 0.02580000
v -0.00502400 0.06417200 0.02580000
v -0.00502400 0.06417200 0.02580000
v -0.00502400 0.06417200 0.02580000
v -0.00499600 0.06427600 0.02880000
v -0.00499600 0.06427600 0.02880000
v -0.00499600 0.06427600 0.02880000
v -0.00499600 0.06427600 0.02880000
v -0.00499600 0.06427600 0.02880000
v -0.00373300 0.06779700 0.02880000
v -0.00373300 0.06779700 0.02880000
v -0.00373300 0.06779700 0.02880000
v -0.00373300 0.06779700 0.02880000
v -0.00373300 0.06779700 0.02880000
v -0.00373300 0.06779700 0.02880000
v -0.00211800 0.06937300 0.02580000
v -0.00211800 0.06937300 0.02580000
v -0.00211800 0.06937300 0.02580000
v -0.00211800 0.06937300 0.02580000
v -0.00211800 0.06937300 0.02580000
v -0.00211800 0.06937300 0.02580000
v 0.00057000 0.05939400 0.03184500
v 0.00057000 0.05939400 0.03184500
v 0.00057000 0.05939400 0.03184500
v 0.00057000 0.05939400 0.03184500
v 0.00057000 0.05939400 0.03184500
v 0.00057000 0.05939400 0.03184500
v 0.00407100 0.06138000 0.03185300
v 0.00407100 0.06138000 0.03185300
v 0.00407100 0.06138000 0.03185300
v 0.00407100 0.06138000 0.03185300
v 0.00407100 0.06138000 0.03185300
v 0.00407100 0.06138000 0.03185300
v 0.00407100 0.06138000 0.03185300
v -0.00427400 0.06155400 0.03180000
v -0.00427400 0.06155400 0.03180000
v -0.00427400 0.06155400 0.03180000
v -0.00427400 0.06155400 0.03180000
v -0.00427400 0.06155400 0.03180000
v -0.00427400 0.06155400 0.03180000
v -0.00463000 0.06632600 0.03180200
v -0.00463000 0.06632600 0.03180200
v -0.00463000 0.06632600 0.03180200
v -0.00463000 0.06632600 0.03180200
v -0.00463000 0.06632600 0.03180200
v -0.00463000 0.06632600 0.03180200
v -0.00459700 0.06341600 0.03438200
v -0.00459700 0.06341600 0.03438200
v -0.00459700 0.06341600 0.03438200
v -0.00459700 0.06341600 0.03438200
v -0.00459700 0.06341600 0.03438200
v -0.00342400 0.06792100 0.03412200
v -0.00342400 0.06792100 0.03412200
v -0.00342400 0.06792100 0.03412200
v -0.00342400 0.06792100 0.03412200
v -0.00342400 0.06792100 0.03412200
v -0.00342400 0.06792100 0.03412200
v -0.00240200 0.06029500 0.03425500
v -0.00240200 0.06029500 0.03425500
v -0.00240200 0.06029500 0.03425500
v -0.00240200 0.06029500 0.03425500
v -0.00240200 0.06029500 0.03425500
v -0.00341100 0.06527400 0.03580500
v -0.00341100 0.06527400 0.03580500
v -0.00341100 0.06527400 0.03580500
v -0.00341100 0.06527400 0.03580500
v -0.00341100 0.06527400 0.03580500
v -0.00341100 0.06527400 0.03580500
v 0.00142500 0.06050800 0.03527600
v 0.00142500 0.06050800 0.03527600
v 0.00142500 0.06050800 0.03527600
v 0.00142500 0.06050800 0.03527600
v 0.00142500 0.06050800 0.03527600
v 0.01557900 0.08045000 0.01723100
v 0.01557900 0.08045000 0.01723100
v 0.01557900 0.08045000 0.01723100
v 0.01557900 0.08045000 0.01723100
v 0.01557900 0.08045000 0.01723100
v 0.01557900 0.08045000 0.01723100
v 0.01557900 0.08045000 0.01723100
v 0.01814700 0.07045000 0.01817200
v 0.01814700 0.07045000 0.01817200
v 0.01814700 0.07045000 0.01817200
v 0.01814700 0.07045000 0.01817200
v 0.02005400 0.08045000 0.01714400
v 0.02005400 0.08045000 0.01714400
v 0.02005400 0.08045000 0.01714400
v 0.02005400 0.08045000 0.01714400
v 0.02005400 0.08045000 0.01714400
v 0.02005400 0.08045000 0.01714400
v 0.02005400 0.08045000 0.01714400
v 0.02005400 0.08045000 0.01714400
v 0.02031800 0.07045000 0.01547800
v 0.02031800 0.07045000 0.01547800
v 0.02031800 0.07045000 0.01547800
v 0.02031800 0.07045000 0.01547800
v 0.01312900 0.08029400 0.01324000
v 0.01312900 0.08029400 0.01324000
v 0.01312900 0.08029400 0.01324000
v 0.01312900 0.08029400 0.01324000
v 0.01278400 0.08035900 0.01630500
v 0.01278400 0.08035900 0.01630500
v 0.01278400 0.08035900 0.01630500
v 0.01278400 0.08035900 0.01630500
v 0.01278400 0.08035900 0.01630500
v 0.01278400 0.08035900 0.01630500
v 0.01278400 0.08035900 0.01630500
v 0.01278400 0.08035900 0.01630500
v 0.01491700 0.08036100 0.01128000
v 0.01491700 0.08036100 0.01128000
v 0.01491700 0.08036100 0.01128000
v 0.01491700 0.08036100 0.01128000
v 0.01491700 0.08036100 0.01128000
v 0.01491700 0.08036100 0.01128000
v 0.01920500 0.08034200 0.01068200
v 0.01920500 0.08034200 0.01068200
v 0.01920500 0.08034200 0.01068200
v 0.01920500 0.08034200 0.01068200
v 0.01920500 0.08034200 0.01068200
v 0.02205100 0.08032400 0.01286800
v 0.02205100 0.08032400 0.01286800
v 0.02205100 0.08032400 0.01286800
v 0.02205100 0.08032400 0.01286800
v 0.02205100 0.08032400 0.01286800
v 0.01504600 0.08045000 -0.01865300
v 0.01504600 0.08045000 -0.01865300
v 0.01504600 0.08045000 -0.01865300
v 0.01504600 0.08045000 -0.01865300
v 0.01504600 0.08045000 -0.01865300
v 0.01504600 0.08045000 -0.01865300
v 0.01504600 0.08045000 -0.01865300
v 0.01504600 0.08045000 -0.01865300
v 0.01847000 0.07045000 -0.01733600
v 0.01847000 0.07045000 -0.01733600
v 0.01847000 0.07045000 -0.01733600
v 0.01847000 0.07045000 -0.01733600
v 0.01975100 0.08045000 -0.01797300
v 0.01975100 0.08045000 -0.01797300
v 0.01975100 0.08045000 -0.01797300
v 0.01975100 0.08045000 -0.01797300
v 0.01975100 0.08045000 -0.01797300
v 0.01975100 0.08045000 -0.01797300
v 0.02036400 0.07045000 -0.02072100
v 0.02036400 0.07045000 -0.02072100
v 0.02036400 0.07045000 -0.02072100
v 0.02036400 0.07045000 -0.02072100
v 0.01283200 0.08033900 -0.02102100
v 0.01283200 0.08033900 -0.02102100
v 0.01283200 0.08033900 -0.02102100
v 0.01283200 0.08033900 -0.02102100
v 0.01283200 0.08033900 -0.02102100
v 0.01283200 0.08033900 -0.02102100
v 0.01509800 0.08032400 -0.02434600
v 0.01509800 0.08032400 -0.02434600
v 0.01509800 0.08032400 -0.02434600
v 0.01509800 0.08032400 -0.02434600
v 0.01509800 0.08032400 -0.02434600
v 0.02006800 0.08046700 -0.02453600
v 0.02006800 0.08046700 -0.02453600
v 0.02006800 0.08046700 -0.02453600
v 0.02006800 0.08046700 -0.02453600
v 0.02006800 0.08046700 -0.02453600
v 0.02006800 0.08046700 -0.02453600
v 0.02006800 0.08046700 -0.02453600
v 0.02006800 0.08046700 -0.02453600
v 0.02185600 0.08047400 -0.02306000
v 0.02185600 0.08047400 -0.02306000
v 0.02185600 0.08047400 -0.02306000
v 0.02185600 0.08047400 -0.02306000
v 0.02275600 0.08035000 -0.01937800
v 0.02275600 0.08035000 -0.01937800
v 0.02275600 0.08035000 -0.01937800
v 0.02275600 0.08035000 -0.01937800
v 0.02275600 0.08035000 -0.01937800
v 0.02275600 0.08035000 -0.01937800
v -0.02003500 0.07045000 -0.02111500
v -0.02003500 0.07045000 -0.02111500
v -0.02003500 0.07045000 -0.02111500
v -0.02005400 0.08045000 -0.02138800
v -0.02005400 0.08045000 -0.02138800
v -0.02005400 0.08045000 -0.02138800
v -0.02005400 0.08045000 -0.02138800
v -0.02005400 0.08045000 -0.02138800
v -0.02005400 0.08045000 -0.02138800
v -0.02005400 0.08045000 -0.02138800
v -0.02005400 0.08045000 -0.02138800
v -0.01954500 0.07045000 -0.01801100
v -0.01954500 0.07045000 -0.01801100
v -0.01954500 0.07045000 -0.01801100
v -0.01954500 0.07045000 -0.01801100
v -0.01910000 0.08045000 -0.01762700
v -0.01910000 0.08045000 -0.01762700
v -0.01910000 0.08045000 -0.01762700
v -0.01910000 0.08045000 -0.01762700
v -0.01910000 0.08045000 -0.01762700
v -0.01910000 0.08045000 -0.01762700
v -0.01910000 0.08045000 -0.01762700
v -0.01633500 0.07045000 -0.01755200
v -0.01633500 0.07045000 -0.01755200
v -0.01633500 0.07045000 -0.01755200
v -0.01633500 0.07045000 -0.01755200
v -0.01587300 0.08045000 -0.01792100
v -0.01587300 0.08045000 -0.01792100
v -0.01587300 0.08045000 -0.01792100
v -0.01587300 0.08045000 -0.01792100
v -0.01587300 0.08045000 -0.01792100
v -0.01587300 0.08045000 -0.01792100
v -0.01587300 0.08045000 -0.01792100
v -0.01511600 0.07045000 -0.02021500
v -0.01511600 0.07045000 -0.02021500
v -0.01511600 0.07045000 -0.02021500
v -0.01511600 0.07045000 -0.02021500
v -0.01560400 0.08045000 -0.02178300
v -0.01560400 0.08045000 -0.02178300
v -0.01560400 0.08045000 -0.02178300
v -0.01560400 0.08045000 -0.02178300
v -0.01560400 0.08045000 -0.02178300
v -0.01560400 0.08045000 -0.02178300
v -0.01560400 0.08045000 -0.02178300
v -0.02262700 0.08033800 -0.01877100
v -0.02262700 0.08033800 -0.01877100
v -0.02262700 0.08033800 -0.01877100
v -0.02262700 0.08033800 -0.01877100
v -0.02262700 0.08033800 -0.01877100
v -0.02183600 0.08037900 -0.02293600
v -0.02183600 0.08037900 -0.02293600
v -0.02183600 0.08037900 -0.02293600
v -0.02183600 0.08037900 -0.02293600
v -0.02183600 0.08037900 -0.02293600
v -0.01420000 0.08036500 -0.02363200
v -0.01420000 0.08036500 -0.02363200
v -0.01420000 0.08036500 -0.02363200
v -0.01420000 0.08036500 -0.02363200
v -0.01420000 0.08036500 -0.02363200
v -0.01269200 0.08034100 -0.02008100
v -0.01269200 0.08034100 -0.02008100
v -0.01269200 0.08034100 -0.02008100
v -0.01269200 0.08034100 -0.02008100
v -0.01269200 0.08034100 -0.02008100
v 0.03133500 0.07945100 -0.00685100
v 0.03133500 0.07945100 -0.00685100
v 0.03133500 0.07945100 -0.00685100
v 0.03133500 0.07945100 -0.00685100
v 0.03133500 0.07945100 -0.00685100
v 0.03167200 0.04845000 -0.00151300
v 0.03167200 0.04845000 -0.00151300
v 0.03167200 0.04845000 -0.00151300
v 0.03167200 0.04845000 -0.00151300
v 0.02837100 0.04845000 -0.01702200
v 0.02837100 0.04845000 -0.01702200
v 0.02837100 0.04845000 -0.01702200
v 0.02837100 0.04845000 -0.01702200
v 0.02837100 0.04845000 -0.01702200
v 0.02837100 0.04845000 -0.01702200
v 0.02837100 0.04845000 -0.01702200
v 0.02869800 0.08024300 -0.01454100
v 0.02869800 0.08024300 -0.01454100
v 0.02869800 0.08024300 -0.01454100
v 0.02869800 0.08024300 -0.01454100
v 0.02869800 0.08024300 -0.01454100
v 0.02869800 0.08024300 -0.01454100
v 0.02869800 0.08024300 -0.01454100
v 0.02869800 0.08024300 -0.01454100
v 0.02325600 0.07945100 -0.02362600
v 0.02325600 0.07945100 -0.02362600
v 0.02325600 0.07945100 -0.02362600
v 0.02325600 0.07945100 -0.02362600
v 0.02325600 0.07945100 -0.02362600
v 0.02325600 0.07945100 -0.02362600
v 0.01424000 0.04845000 -0.03086800
v 0.01424000 0.04845000 -0.03086800
v 0.01424000 0.04845000 -0.03086800
v 0.01424000 0.04845000 -0.03086800
v 0.01424000 0.04845000 -0.03086800
v 0.01293100 0.07945500 -0.03127600
v 0.01293100 0.07945500 -0.03127600
v 0.01293100 0.07945500 -0.03127600
v 0.01293100 0.07945500 -0.03127600
v 0.01293100 0.07945500 -0.03127600
v 0.00029800 0.07945000 -0.03382100
v 0.00029800 0.07945000 -0.03382100
v 0.00029800 0.07945000 -0.03382100
v 0.00029800 0.07945000 -0.03382100
v 0.00029800 0.07945000 -0.03382100
v 0.00029800 0.07945000 -0.03382100
v -0.00432100 0.04845000 -0.03381800
v -0.00432100 0.04845000 -0.03381800
v -0.00432100 0.04845000 -0.03381800
v -0.00432100 0.04845000 -0.03381800
v -0.01139200 0.07945200 -0.03183100
v -0.01139200 0.07945200 -0.03183100
v -0.01139200 0.07945200 -0.03183100
v -0.01139200 0.07945200 -0.03183100
v -0.01139200 0.07945200 -0.03183100
v -0.01139200 0.07945200 -0.03183100
v -0.01805900 0.04845000 -0.02822700
v -0.01805900 0.04845000 -0.02822700
v -0.01805900 0.04845000 -0.02822700
v -0.01805900 0.04845000 -0.02822700
v -0.01805900 0.04845000 -0.02822700
v -0.02218000 0.07944900 -0.02482000
v -0.02218000 0.07944900 -0.02482000
v -0.02218000 0.07944900 -0.02482000
v -0.02218000 0.07944900 -0.02482000
v -0.02218000 0.07944900 -0.02482000
v -0.02218000 0.07944900 -0.02482000
v -0.02218000 0.07944900 -0.02482000
v -0.02697100 0.04845000 -0.01894500
v -0.02697100 0.04845000 -0.01894500
v -0.02697100 0.04845000 -0.01894500
v -0.02697100 0.04845000 -0.01894500
v -0.02697100 0.04845000 -0.01894500
v -0.02848400 0.07945000 -0.01593500
v -0.02848400 0.07945000 -0.01593500
v -0.02848400 0.07945000 -0.01593500
v -0.02848400 0.07945000 -0.01593500
v -0.02848400 0.07945000 -0.01593500
v -0.03104600 0.04845000 -0.00812200
v -0.03104600 0.04845000 -0.00812200
v -0.03104600 0.04845000 -0.00812200
v -0.03104600 0.04845000 -0.00812200
v -0.03179500 0.07945400 -0.00351900
v -0.03179500 0.07945400 -0.00351900
v -0.03179500 0.07945400 -0.00351900
v -0.03179500 0.07945400 -0.00351900
v -0.03179500 0.07945400 -0.00351900
v -0.03179500 0.07945400 -0.00351900
v -0.03131000 0.04845000 0.00275900
v -0.03131000 0.04845000 0.00275900
v -0.03131000 0.04845000 0.00275900
v -0.03131000 0.04845000 0.00275900
v -0.02856500 0.08045300 -0.01421600
v -0.02856500 0.08045300 -0.01421600
v -0.02856500 0.08045300 -0.01421600
v -0.02856500 0.08045300 -0.01421600
v -0.02856500 0.08045300 -0.01421600
v -0.02856500 0.08045300 -0.01421600
v -0.02856500 0.08045300 -0.01421600
v -0.02856500 0.08045300 -0.01421600
v -0.01950800 0.08048300 -0.02482900
v -0.01950800 0.08048300 -0.02482900
v -0.01950800 0.08048300 -0.02482900
v -0.01950800 0.08048300 -0.02482900
v -0.01950800 0.08048300 -0.02482900
v -0.01950800 0.08048300 -0.02482900
v -0.01950800 0.08048300 -0.02482900
v -0.00706900 0.08045400 -0.03237200
v -0.00706900 0.08045400 -0.03237200
v -0.00706900 0.08045400 -0.03237200
v -0.00706900 0.08045400 -0.03237200
v -0.00706900 0.08045400 -0.03237200
v -0.00706900 0.08045400 -0.03237200
v -0.00706900 0.08045400 -0.03237200
v 0.01014500 0.08045100 -0.03129400
v 0.01014500 0.08045100 -0.03129400
v 0.01014500 0.08045100 -0.03129400
v 0.01014500 0.08045100 -0.03129400
v 0.01014500 0.08045100 -0.03129400
v 0.01014500 0.08045100 -0.03129400
v 0.01014500 0.08045100 -0.03129400
v -0.02277000 0.08034000 0.01502700
v -0.02277000 0.08034000 0.01502700
v -0.02277000 0.08034000 0.01502700
v -0.02277000 0.08034000 0.01502700
v -0.02277000 0.08034000 0.01502700
v -0.02277000 0.08034000 0.01502700
v -0.02043900 0.08031900 0.01969900
v -0.02043900 0.08031900 0.01969900
v -0.02043900 0.08031900 0.01969900
v -0.02043900 0.08031900 0.01969900
v -0.02043900 0.08031900 0.01969900
v -0.02045700 0.08045500 0.02043900
v -0.02045700 0.08045500 0.02043900
v -0.02045700 0.08045500 0.02043900
v -0.02045700 0.08045500 0.02043900
v -0.02045700 0.08045500 0.02043900
v -0.02045700 0.08045500 0.02043900
v -0.02045700 0.08045500 0.02043900
v -0.01516200 0.08031900 0.01979700
v -0.01516200 0.08031900 0.01979700
v -0.01516200 0.08031900 0.01979700
v -0.01516200 0.08031900 0.01979700
v -0.01516200 0.08031900 0.01979700
v -0.01324400 0.08035900 0.01769300
v -0.01324400 0.08035900 0.01769300
v -0.01324400 0.08035900 0.01769300
v -0.01324400 0.08035900 0.01769300
v -0.01324400 0.08035900 0.01769300
v -0.01324400 0.08035900 0.01769300
v 0.01440400 0.08034100 0.01925700
v 0.01440400 0.08034100 0.01925700
v 0.01440400 0.08034100 0.01925700
v 0.01440400 0.08034100 0.01925700
v 0.01664700 0.08027200 0.02029900
v 0.01664700 0.08027200 0.02029900
v 0.01664700 0.08027200 0.02029900
v 0.01664700 0.08027200 0.02029900
v 0.01664700 0.08027200 0.02029900
v 0.02052100 0.08044900 0.01973900
v 0.02052100 0.08044900 0.01973900
v 0.02052100 0.08044900 0.01973900
v 0.02052100 0.08044900 0.01973900
v 0.02052100 0.08044900 0.01973900
v 0.02052100 0.08044900 0.01973900
v 0.02238100 0.08047100 0.01753300
v 0.02238100 0.08047100 0.01753300
v 0.02238100 0.08047100 0.01753300
v 0.02238100 0.08047100 0.01753300
v 0.01359700 0.08033300 -0.01688200
v 0.01359700 0.08033300 -0.01688200
v 0.01359700 0.08033300 -0.01688200
v 0.01359700 0.08033300 -0.01688200
v 0.01359700 0.08033300 -0.01688200
v 0.01727300 0.08028200 -0.01481200
v 0.01727300 0.08028200 -0.01481200
v 0.01727300 0.08028200 -0.01481200
v 0.01727300 0.08028200 -0.01481200
v 0.01955300 0.08037200 -0.01510700
v 0.01955300 0.08037200 -0.01510700
v 0.01955300 0.08037200 -0.01510700
v 0.01955300 0.08037200 -0.01510700
v 0.01955300 0.08037200 -0.01510700
v 0.01955300 0.08037200 -0.01510700
v 0.01955300 0.08037200 -0.01510700
v -0.01978800 0.08033100 -0.01531700
v -0.01978800 0.08033100 -0.01531700
v -0.01978800 0.08033100 -0.01531700
v -0.01978800 0.08033100 -0.01531700
v -0.01978800 0.08033100 -0.01531700
v -0.01978800 0.08033100 -0.01531700
v -0.01644500 0.08026200 -0.01511300
v -0.01644500 0.08026200 -0.01511300
v -0.01644500 0.08026200 -0.01511300
v -0.01644500 0.08026200 -0.01511300
v -0.01404500 0.08029400 -0.01631300
v -0.01404500 0.08029400 -0.01631300
v -0.01404500 0.08029400 -0.01631300
v -0.01404500 0.08029400 -0.01631300
v -0.01404500 0.08029400 -0.01631300
v -0.01404500 0.08029400 -0.01631300
v -0.00315600 0.08036000 0.02343500
v -0.00315600 0.08036000 0.02343500
v -0.00315600 0.08036000 0.02343500
v -0.00315600 0.08036000 0.02343500
v -0.00315600 0.08036000 0.02343500
v -0.00060400 0.08033400 0.02602600
v -0.00060400 0.08033400 0.02602600
v -0.00060400 0.08033400 0.02602600
v -0.00060400 0.08033400 0.02602600
v -0.00060400 0.08033400 0.02602600
v -0.00060400 0.08033400 0.02602600
v 0.00258400 0.08034700 0.02464400
v 0.00258400 0.08034700 0.02464400
v 0.00258400 0.08034700 0.02464400
v 0.00258400 0.08034700 0.02464400
v 0.00249000 0.08033000 0.02040600
v 0.00249000 0.08033000 0.02040600
v 0.00249000 0.08033000 0.02040600
v 0.00249000 0.08033000 0.02040600
v 0.00249000 0.08033000 0.02040600
v 0.00249000 0.08033000 0.02040600
v 0.00249000 0.08033000 0.02040600
v 0.00249000 0.08033000 0.02040600
v 0.00669200 0.08044800 0.01335400
v 0.00669200 0.08044800 0.01335400
v 0.00669200 0.08044800 0.01335400
v 0.00669200 0.08044800 0.01335400
v 0.00669200 0.08044800 0.01335400
v 0.00669200 0.08044800 0.01335400
v 0.00669200 0.08044800 0.01335400
v -0.01545400 0.08044500 0.00527300
v -0.01545400 0.08044500 0.00527300
v -0.01545400 0.08044500 0.00527300
v -0.01545400 0.08044500 0.00527300
v -0.01545400 0.08044500 0.00527300
v -0.01545400 0.08044500 0.00527300
v -0.01545400 0.08044500 0.00527300
v 0.01160700 0.07943800 0.00853900
v 0.01160700 0.07943800 0.00853900
v 0.01160700 0.07943800 0.00853900
v 0.01160700 0.07943800 0.00853900
v 0.01160700 0.07943800 0.00853900
v 0.01160700 0.07943800 0.00853900
v 0.01498600 0.08044500 0.00617200
v 0.01498600 0.08044500 0.00617200
v 0.01498600 0.08044500 0.00617200
v 0.01498600 0.08044500 0.00617200
v 0.01498600 0.08044500 0.00617200
v 0.01498600 0.08044500 0.00617200
v 0.01498600 0.08044500 0.00617200
v 0.01498600 0.08044500 0.00617200
v 0.01498600 0.08044500 0.00617200
v -0.01190500 0.07946600 0.00861700
v -0.01190500 0.07946600 0.00861700
v -0.01190500 0.07946600 0.00861700
v -0.01190500 0.07946600 0.00861700
v -0.01190500 0.07946600 0.00861700
v -0.01190500 0.07946600 0.00861700
v -0.01190500 0.07946600 0.00861700
v 0.01518400 0.07946600 0.00265500
v 0.01518400 0.07946600 0.00265500
v 0.01518400 0.07946600 0.00265500
v 0.01518400 0.07946600 0.00265500
v 0.01518400 0.07946600 0.00265500
v -0.00495700 0.08044200 0.01433600
v -0.00495700 0.08044200 0.01433600
v -0.00495700 0.08044200 0.01433600
v -0.00495700 0.08044200 0.01433600
v -0.00495700 0.08044200 0.01433600
v -0.00495700 0.08044200 0.01433600
v -0.00495700 0.08044200 0.01433600
v -0.00495700 0.08044200 0.01433600
v -0.00495700 0.08044200 0.01433600
v -0.00495700 0.08044200 0.01433600
v 0.01610500 0.08017200 -0.00453500
v 0.01610500 0.08017200 -0.00453500
v 0.01610500 0.08017200 -0.00453500
v 0.01610500 0.08017200 -0.00453500
v 0.01610500 0.08017200 -0.00453500
v 0.01610500 0.08017200 -0.00453500
v 0.01610500 0.08017200 -0.00453500
v 0.01610500 0.08017200 -0.00453500
v 0.01610500 0.08017200 -0.00453500
v 0.01610500 0.08017200 -0.00453500
v -0.00285000 0.07942200 0.01350700
v -0.00285000 0.07942200 0.01350700
v -0.00285000 0.07942200 0.01350700
v -0.00285000 0.07942200 0.01350700
v -0.00285000 0.07942200 0.01350700
v 0.00604000 0.07946500 0.01255400
v 0.00604000 0.07946500 0.01255400
v 0.00604000 0.07946500 0.01255400
v 0.00604000 0.07946500 0.01255400
v 0.00604000 0.07946500 0.01255400
v 0.00604000 0.07946500 0.01255400
v -0.00322200 0.07445000 0.02237600
v -0.00322200 0.07445000 0.02237600
v -0.00322200 0.07445000 0.02237600
v -0.00322200 0.07445000 0.02237600
v -0.00095000 0.07445000 0.02585000
v -0.00095000 0.07445000 0.02585000
v -0.00095000 0.07445000 0.02585000
v -0.00095000 0.07445000 0.02585000
v 0.00279100 0.07444900 0.02441100
v 0.00279100 0.07444900 0.02441100
v 0.00279100 0.07444900 0.02441100
v 0.00279100 0.07444900 0.02441100
v 0.00279100 0.07444900 0.02441100
v -0.00411200 0.07395000 0.01314300
v -0.00411200 0.07395000 0.01314300
v -0.00411200 0.07395000 0.01314300
v -0.00411200 0.07395000 0.01314300
v 0.00365600 0.07395000 0.01329700
v 0.00365600 0.07395000 0.01329700
v 0.00365600 0.07395000 0.01329700
v 0.00365600 0.07395000 0.01329700
v -0.01606300 0.07395000 -0.00056600
v -0.01606300 0.07395000 -0.00056600
v -0.01606300 0.07395000 -0.00056600
v -0.01606300 0.07395000 -0.00056600
v 0.01035900 0.07395000 0.00982300
v 0.01035900 0.07395000 0.00982300
v 0.01035900 0.07395000 0.00982300
v 0.01035900 0.07395000 0.00982300
v -0.01128900 0.07395000 0.00908900
v -0.01128900 0.07395000 0.00908900
v -0.01128900 0.07395000 0.00908900
v 0.01500200 0.07395000 0.00326000
v 0.01500200 0.07395000 0.00326000
v 0.01500200 0.07395000 0.00326000
v 0.01500200 0.07395000 0.00326000
v 0.01566200 0.07395000 -0.00475000
v 0.01566200 0.07395000 -0.00475000
v 0.01566200 0.07395000 -0.00475000
v 0.01566200 0.07395000 -0.00475000
v -0.02038800 0.08045000 0.01660000
v -0.02038800 0.08045000 0.01660000
v -0.02038800 0.08045000 0.01660000
v -0.02038800 0.08045000 0.01660000
v -0.02038800 0.08045000 0.01660000
v -0.02038800 0.08045000 0.01660000
v -0.01861800 0.07044900 0.01804500
v -0.01861800 0.07044900 0.01804500
v -0.01861800 0.07044900 0.01804500
v -0.01861800 0.07044900 0.01804500
v -0.01602900 0.08045000 0.01762700
v -0.01602900 0.08045000 0.01762700
v -0.01602900 0.08045000 0.01762700
v -0.01602900 0.08045000 0.01762700
v -0.01602900 0.08045000 0.01762700
v -0.01602900 0.08045000 0.01762700
v -0.01602900 0.08045000 0.01762700
v -0.01602900 0.08045000 0.01762700
v -0.01555500 0.07045000 0.01698200
v -0.01555500 0.07045000 0.01698200
v -0.01555500 0.07045000 0.01698200
v -0.01555500 0.07045000 0.01698200
v -0.01557900 0.07045000 0.01372400
v -0.01557900 0.07045000 0.01372400
v -0.01557900 0.07045000 0.01372400
v -0.01557900 0.07045000 0.01372400
v -0.01525700 0.08045000 0.01447500
v -0.01525700 0.08045000 0.01447500
v -0.01525700 0.08045000 0.01447500
v -0.01525700 0.08045000 0.01447500
v -0.01525700 0.08045000 0.01447500
v -0.01525700 0.08045000 0.01447500
v -0.01931200 0.08035000 0.01060800
v -0.01931200 0.08035000 0.01060800
v -0.01931200 0.08035000 0.01060800
v -0.01931200 0.08035000 0.01060800
v -0.01931200 0.08035000 0.01060800
v -0.01931200 0.08035000 0.01060800
v -0.01484800 0.08034200 0.01130600
v -0.01484800 0.08034200 0.01130600
v -0.01484800 0.08034200 0.01130600
v -0.01484800 0.08034200 0.01130600
v -0.01484800 0.08034200 0.01130600
v -0.01484800 0.08034200 0.01130600
v -0.01285500 0.08031900 0.01416500
v -0.01285500 0.08031900 0.01416500
v -0.01285500 0.08031900 0.01416500
v -0.01285500 0.08031900 0.01416500
v -0.01285500 0.08031900 0.01416500
v -0.01803100 0.08045000 0.01279200
v -0.01803100 0.08045000 0.01279200
v -0.01803100 0.08045000 0.01279200
v -0.01803100 0.08045000 0.01279200
v -0.01803100 0.08045000 0.01279200
v -0.01803100 0.08045000 0.01279200
v -0.01803100 0.08045000 0.01279200
v -0.02005400 0.07045000 0.01381100
v -0.02005400 0.07045000 0.01381100
v -0.02005400 0.07045000 0.01381100
v -0.02005400 0.07045000 0.01381100
v -0.01354300 0.07395000 -0.01057200
v -0.01354300 0.07395000 -0.01057200
v -0.01354300 0.07395000 -0.01057200
v -0.01354300 0.07395000 -0.01057200
v -0.00811100 0.07394900 -0.01583800
v -0.00811100 0.07394900 -0.01583800
v -0.00811100 0.07394900 -0.01583800
v -0.00811100 0.07394900 -0.01583800
v -0.00091000 0.07395000 -0.01809600
v -0.00091000 0.07395000 -0.01809600
v -0.00091000 0.07395000 -0.01809600
v -0.00091000 0.07395000 -0.01809600
v 0.00587300 0.07395000 -0.01689400
v 0.00587300 0.07395000 -0.01689400
v 0.00587300 0.07395000 -0.01689400
v 0.01226400 0.07395000 -0.01249100
v 0.01226400 0.07395000 -0.01249100
v 0.01226400 0.07395000 -0.01249100
v 0.01226400 0.07395000 -0.01249100
v 0.01226400 0.07395000 -0.01249100
v 0.00119400 0.07444900 0.01952800
v 0.00119400 0.07444900 0.01952800
v 0.00119400 0.07444900 0.01952800
v 0.00119400 0.07444900 0.01952800
v 0.00302700 0.07943500 -0.01805400
v 0.00302700 0.07943500 -0.01805400
v 0.00302700 0.07943500 -0.01805400
v 0.00302700 0.07943500 -0.01805400
v 0.00302700 0.07943500 -0.01805400
v 0.00302700 0.07943500 -0.01805400
v 0.00302700 0.07943500 -0.01805400
v -0.00651400 0.07944800 -0.01666800
v -0.00651400 0.07944800 -0.01666800
v -0.00651400 0.07944800 -0.01666800
v -0.00651400 0.07944800 -0.01666800
v -0.00651400 0.07944800 -0.01666800
v -0.00651400 0.07944800 -0.01666800
v 0.01228000 0.07942100 -0.01239900
v 0.01228000 0.07942100 -0.01239900
v 0.01228000 0.07942100 -0.01239900
v 0.01228000 0.07942100 -0.01239900
v -0.01296600 0.07944400 -0.01154900
v -0.01296600 0.07944400 -0.01154900
v -0.01296600 0.07944400 -0.01154900
v -0.01296600 0.07944400 -0.01154900
v -0.01296600 0.07944400 -0.01154900
v -0.01296600 0.07944400 -0.01154900
v -0.01605100 0.07944100 -0.00172400
v -0.01605100 0.07944100 -0.00172400
v -0.01605100 0.07944100 -0.00172400
v -0.01605100 0.07944100 -0.00172400
v -0.01605100 0.07944100 -0.00172400
v -0.01605100 0.07944100 -0.00172400
v -0.00208000 0.08036900 0.02031500
v -0.00208000 0.08036900 0.02031500
v -0.00208000 0.08036900 0.02031500
v -0.00208000 0.08036900 0.02031500
v -0.00208000 0.08036900 0.02031500
v -0.00208000 0.08036900 0.02031500
v -0.00208000 0.08036900 0.02031500
v -0.00802300 0.08044900 -0.01711200
v -0.00802300 0.08044900 -0.01711200
v -0.00802300 0.08044900 -0.01711200
v -0.00802300 0.08044900 -0.01711200
v -0.00802300 0.08044900 -0.01711200
v -0.00802300 0.08044900 -0.01711200
v -0.00802300 0.08044900 -0.01711200
v -0.00802300 0.08044900 -0.01711200
v -0.01604200 0.08044200 -0.00857900
v -0.01604200 0.08044200 -0.00857900
v -0.01604200 0.08044200 -0.00857900
v -0.01604200 0.08044200 -0.00857900
v -0.01604200 0.08044200 -0.00857900
v -0.01604200 0.08044200 -0.00857900
v -0.01604200 0.08044200 -0.00857900
v -0.01604200 0.08044200 -0.00857900
v 0.01196500 0.08044400 -0.01450900
v 0.01196500 0.08044400 -0.01450900
v 0.01196500 0.08044400 -0.01450900
v 0.01196500 0.08044400 -0.01450900
v 0.01196500 0.08044400 -0.01450900
v 0.01196500 0.08044400 -0.01450900
v 0.01196500 0.08044400 -0.01450900
v 0.00124800 0.08044800 -0.01915400
v 0.00124800 0.08044800 -0.01915400
v 0.00124800 0.08044800 -0.01915400
v 0.00124800 0.08044800 -0.01915400
v 0.00124800 0.08044800 -0.01915400
v 0.00124800 0.08044800 -0.01915400
v 0.00124800 0.08044800 -0.01915400
v -0.02873500 0.08014200 0.01052000
v -0.02873500 0.08014200 0.01052000
v -0.02873500 0.08014200 0.01052000
v -0.02873500 0.08014200 0.01052000
v -0.02873500 0.08014200 0.01052000
v -0.02873500 0.08014200 0.01052000
v -0.02873500 0.08014200 0.01052000
v -0.02873500 0.08014200 0.01052000
v -0.00925000 0.08045200 0.02728000
v -0.00925000 0.08045200 0.02728000
v -0.00925000 0.08045200 0.02728000
v -0.00925000 0.08045200 0.02728000
v -0.00925000 0.08045200 0.02728000
v -0.00925000 0.08045200 0.02728000
v -0.00925000 0.08045200 0.02728000
v -0.00925000 0.08045200 0.02728000
v -0.00925000 0.08045200 0.02728000
v -0.03038300 0.08045100 0.00292600
v -0.03038300 0.08045100 0.00292600
v -0.03038300 0.08045100 0.00292600
v -0.03038300 0.08045100 0.00292600
v -0.03038300 0.08045100 0.00292600
v -0.03038300 0.08045100 0.00292600
v 0.00991200 0.08045500 0.02727100
v 0.00991200 0.08045500 0.02727100
v 0.00991200 0.08045500 0.02727100
v 0.00991200 0.08045500 0.02727100
v 0.00991200 0.08045500 0.02727100
v 0.00991200 0.08045500 0.02727100
v 0.00991200 0.08045500 0.02727100
v 0.00991200 0.08045500 0.02727100
v 0.00991200 0.08045500 0.02727100
v 0.00991200 0.08045500 0.02727100
v 0.00991200 0.08045500 0.02727100
v 0.02656000 0.08014800 0.01443800
v 0.02656000 0.08014800 0.01443800
v 0.02656000 0.08014800 0.01443800
v 0.02656000 0.08014800 0.01443800
v 0.02656000 0.08014800 0.01443800
v 0.02656000 0.08014800 0.01443800
v 0.02656000 0.08014800 0.01443800
v 0.02656000 0.08014800 0.01443800
v 0.02656000 0.08014800 0.01443800
v 0.02656000 0.08014800 0.01443800
v 0.03056400 0.08045000 0.00038900
v 0.03056400 0.08045000 0.00038900
v 0.03056400 0.08045000 0.00038900
v 0.03056400 0.08045000 0.00038900
v 0.03056400 0.08045000 0.00038900
v 0.03056400 0.08045000 0.00038900
v 0.01419300 0.05693100 0.02584500
v 0.01419300 0.05693100 0.02584500
v 0.01419300 0.05693100 0.02584500
v 0.01419300 0.05693100 0.02584500
v 0.01419300 0.05693100 0.02584500
v 0.01419300 0.05693100 0.02584500
v 0.01419300 0.05693100 0.02584500
v 0.01419300 0.05693100 0.02584500
v 0.01419300 0.05693100 0.02584500
v 0.01419300 0.05693100 0.02584500
v 0.01419300 0.05693100 0.02584500
v -0.01333000 0.05680400 0.02612200
v -0.01333000 0.05680400 0.02612200
v -0.01333000 0.05680400 0.02612200
v -0.01333000 0.05680400 0.02612200
v -0.01333000 0.05680400 0.02612200
v 0.00116600 0.05669300 0.02893400
v 0.00116600 0.05669300 0.02893400
v 0.00116600 0.05669300 0.02893400
v 0.00116600 0.05669300 0.02893400
v 0.00116600 0.05669300 0.02893400
v 0.00116600 0.05669300 0.02893400
v -0.01434500 0.05716100 0.02579800
v -0.01434500 0.05716100 0.02579800
v -0.01434500 0.05716100 0.02579800
v -0.01434500 0.05716100 0.02579800
v -0.01434500 0.05716100 0.02579800
v -0.01434500 0.05716100 0.02579800
v -0.01434500 0.05716100 0.02579800
v -0.01434500 0.05716100 0.02579800
v 0.00447900 0.06712500 0.02580000
v 0.00447900 0.06712500 0.02580000
v 0.00447900 0.06712500 0.02580000
v 0.00447900 0.06712500 0.02580000
v 0.00447900 0.06712500 0.02580000
v 0.00447900 0.06712500 0.02580000
v 0.00447900 0.06712500 0.02580000
v 0.01418900 0.07212300 0.02590800
v 0.01418900 0.07212300 0.02590800
v 0.01418900 0.07212300 0.02590800
v 0.01418900 0.07212300 0.02590800
v 0.01418900 0.07212300 0.02590800
v 0.01418900 0.07212300 0.02590800
v 0.01418900 0.07212300 0.02590800
v -0.01419600 0.07198900 0.02583800
v -0.01419600 0.07198900 0.02583800
v -0.01419600 0.07198900 0.02583800
v -0.01419600 0.07198900 0.02583800
v -0.01419600 0.07198900 0.02583800
v -0.01419600 0.07198900 0.02583800
v -0.01419600 0.07198900 0.02583800
v 0.00013900 0.07230000 0.02915800
v 0.00013900 0.07230000 0.02915800
v 0.00013900 0.07230000 0.02915800
v 0.00013900 0.07230000 0.02915800
v 0.00013900 0.07230000 0.02915800
v 0.03084700 0.07945100 0.00501100
v 0.03084700 0.07945100 0.00501100
v 0.03084700 0.07945100 0.00501100
v 0.03084700 0.07945100 0.00501100
v 0.03084700 0.07945100 0.00501100
v 0.01894800 0.07941500 0.02323500
v 0.01894800 0.07941500 0.02323500
v 0.01894800 0.07941500 0.02323500
v 0.01894800 0.07941500 0.02323500
v 0.01894800 0.07941500 0.02323500
v 0.01894800 0.07941500 0.02323500
v 0.01894800 0.07941500 0.02323500
v 0.00785100 0.07942000 0.02859300
v 0.00785100 0.07942000 0.02859300
v 0.00785100 0.07942000 0.02859300
v 0.00785100 0.07942000 0.02859300
v 0.00785100 0.07942000 0.02859300
v -0.00617400 0.07945600 0.02893500
v -0.00617400 0.07945600 0.02893500
v -0.00617400 0.07945600 0.02893500
v -0.00617400 0.07945600 0.02893500
v -0.00617400 0.07945600 0.02893500
v -0.00617400 0.07945600 0.02893500
v -0.01617800 0.07945100 0.02491500
v -0.01617800 0.07945100 0.02491500
v -0.01617800 0.07945100 0.02491500
v -0.01617800 0.07945100 0.02491500
v -0.01617800 0.07945100 0.02491500
v -0.01617800 0.07945100 0.02491500
v -0.01617800 0.07945100 0.02491500
v -0.01617800 0.07945100 0.02491500
v -0.02326200 0.07945200 0.01922100
v -0.02326200 0.07945200 0.01922100
v -0.02326200 0.07945200 0.01922100
v -0.02326200 0.07945200 0.01922100
v -0.02326200 0.07945200 0.01922100
v 0.00755900 0.05593900 0.02847200
v 0.00755900 0.05593900 0.02847200
v 0.00755900 0.05593900 0.02847200
v -0.00586900 0.05595900 0.02884500
v -0.00586900 0.05595900 0.02884500
v -0.00586900 0.05595900 0.02884500
v -0.00998300 0.07301300 0.02774200
v -0.00998300 0.07301300 0.02774200
v -0.00998300 0.07301300 0.02774200
v -0.00998300 0.07301300 0.02774200
v -0.02663400 0.04845000 0.01507600
v -0.02663400 0.04845000 0.01507600
v -0.02663400 0.04845000 0.01507600
v -0.02663400 0.04845000 0.01507600
v -0.02663400 0.04845000 0.01507600
v -0.02663400 0.04845000 0.01507600
v -0.01807200 0.04845000 0.02378200
v -0.01807200 0.04845000 0.02378200
v -0.01807200 0.04845000 0.02378200
v -0.01807200 0.04845000 0.02378200
v -0.01807200 0.04845000 0.02378200
v -0.01807200 0.04845000 0.02378200
v -0.00730300 0.04845000 0.02878700
v -0.00730300 0.04845000 0.02878700
v -0.00730300 0.04845000 0.02878700
v -0.00730300 0.04845000 0.02878700
v -0.00730300 0.04845000 0.02878700
v -0.00730300 0.04845000 0.02878700
v -0.00730300 0.04845000 0.02878700
v 0.00680800 0.04845000 0.02875600
v 0.00680800 0.04845000 0.02875600
v 0.00680800 0.04845000 0.02875600
v 0.00680800 0.04845000 0.02875600
v 0.00680800 0.04845000 0.02875600
v 0.00680800 0.04845000 0.02875600
v 0.01932400 0.04844900 0.02316500
v 0.01932400 0.04844900 0.02316500
v 0.01932400 0.04844900 0.02316500
v 0.01932400 0.04844900 0.02316500
v 0.01932400 0.04844900 0.02316500
v 0.01932400 0.04844900 0.02316500
v 0.01932400 0.04844900 0.02316500
v 0.02885800 0.04845000 0.01103000
v 0.02885800 0.04845000 0.01103000
v 0.02885800 0.04845000 0.01103000
v 0.02885800 0.04845000 0.01103000
v 0.02885800 0.04845000 0.01103000
v 0.02885800 0.04845000 0.01103000
v 0.02490700 0.04844900 0.01407100
v 0.02490700 0.04844900 0.01407100
v 0.02490700 0.04844900 0.01407100
v 0.02490700 0.04844900 0.01407100
v 0.02490700 0.04844900 0.01407100
v 0.02490700 0.04844900 0.01407100
v 0.01568600 0.04845000 0.02302400
v 0.01568600 0.04845000 0.02302400
v 0.01568600 0.04845000 0.02302400
v 0.01568600 0.04845000 0.02302400
v 0.01568600 0.04845000 0.02302400
v 0.01568600 0.04845000 0.02302400
v 0.01568600 0.04845000 0.02302400
v 0.00357800 0.04845000 0.02733500
v 0.00357800 0.04845000 0.02733500
v 0.00357800 0.04845000 0.02733500
v 0.00357800 0.04845000 0.02733500
v -0.01267900 0.04845000 0.02500900
v -0.01267900 0.04845000 0.02500900
v -0.01267900 0.04845000 0.02500900
v -0.01267900 0.04845000 0.02500900
v -0.01267900 0.04845000 0.02500900
v -0.02430100 0.04844900 0.01484500
v -0.02430100 0.04844900 0.01484500
v -0.02430100 0.04844900 0.01484500
v -0.02430100 0.04844900 0.01484500
v -0.02430100 0.04844900 0.01484500
v -0.02430100 0.04844900 0.01484500
v -0.02915600 0.04845000 0.00360000
v -0.02915600 0.04845000 0.00360000
v -0.02915600 0.04845000 0.00360000
v -0.02915600 0.04845000 0.00360000
v -0.02915600 0.04845000 0.00360000
v -0.01698300 0.07045000 -0.02247100
v -0.01698300 0.07045000 -0.02247100
v -0.01698300 0.07045000 -0.02247100
v -0.01698300 0.07045000 -0.02247100
v 0.01954500 0.08045000 -0.02174400
v 0.01954500 0.08045000 -0.02174400
v 0.01954500 0.08045000 -0.02174400
v 0.01954500 0.08045000 -0.02174400
v 0.01954500 0.08045000 -0.02174400
v 0.01954500 0.08045000 -0.02174400
v 0.01667500 0.08045000 -0.02229800
v 0.01667500 0.08045000 -0.02229800
v 0.01667500 0.08045000 -0.02229800
v 0.01667500 0.08045000 -0.02229800
v 0.01667500 0.08045000 -0.02229800
v 0.01667500 0.08045000 -0.02229800
v 0.01724100 0.07045000 -0.02244200
v 0.01724100 0.07045000 -0.02244200
v 0.01724100 0.07045000 -0.02244200
v 0.01724100 0.07045000 -0.02244200
v 0.01481900 0.07045000 -0.01937500
v 0.01481900 0.07045000 -0.01937500
v 0.01481900 0.07045000 -0.01937500
v 0.01481900 0.07045000 -0.01937500
v 0.01871400 0.08045000 0.01297500
v 0.01871400 0.08045000 0.01297500
v 0.01871400 0.08045000 0.01297500
v 0.01871400 0.08045000 0.01297500
v 0.01871400 0.08045000 0.01297500
v 0.01871400 0.08045000 0.01297500
v 0.01871400 0.08045000 0.01297500
v 0.01559900 0.08045000 0.01388300
v 0.01559900 0.08045000 0.01388300
v 0.01559900 0.08045000 0.01388300
v 0.01559900 0.08045000 0.01388300
v 0.01559900 0.08045000 0.01388300
v 0.01559900 0.08045000 0.01388300
v 0.01803800 0.07045000 0.01274000
v 0.01803800 0.07045000 0.01274000
v 0.01803800 0.07045000 0.01274000
v 0.01803800 0.07045000 0.01274000
v 0.01486400 0.07045000 0.01559700
v 0.01486400 0.07045000 0.01559700
v 0.01486400 0.07045000 0.01559700
v 0.01486400 0.07045000 0.01559700
v -0.00009100 0.06692000 0.03581300
v -0.00009100 0.06692000 0.03581300
v -0.00009100 0.06692000 0.03581300
v 0.00193200 0.06710300 0.03562600
v 0.00193200 0.06710300 0.03562600
v 0.00193200 0.06710300 0.03562600
v 0.00193200 0.06710300 0.03562600
v 0.00193200 0.06710300 0.03562600
v 0.00336300 0.06342600 0.03579300
v 0.00336300 0.06342600 0.03579300
v 0.00336300 0.06342600 0.03579300
v 0.00336300 0.06342600 0.03579300
v 0.00336300 0.06342600 0.03579300
v 0.00336300 0.06342600 0.03579300
v 0.00336300 0.06342600 0.03579300
v 0.00336300 0.06342600 0.03579300
v 0.00468400 0.06457800 0.03448500
v 0.00468400 0.06457800 0.03448500
v 0.00468400 0.06457800 0.03448500
v 0.00468400 0.06457800 0.03448500
v 0.00405200 0.06723300 0.03399400
v 0.00405200 0.06723300 0.03399400
v 0.00405200 0.06723300 0.03399400
v 0.00405200 0.06723300 0.03399400
v 0.00405200 0.06723300 0.03399400
v 0.00405200 0.06723300 0.03399400
v 0.00232600 0.06904900 0.03182300
v 0.00232600 0.06904900 0.03182300
v 0.00232600 0.06904900 0.03182300
v 0.00232600 0.06904900 0.03182300
v 0.00232600 0.06904900 0.03182300
v 0.00232600 0.06904900 0.03182300
v 0.00040300 0.06875900 0.03480700
v 0.00040300 0.06875900 0.03480700
v 0.00040300 0.06875900 0.03480700
v 0.00040300 0.06875900 0.03480700
v 0.00040300 0.06875900 0.03480700
v 0.00040300 0.06875900 0.03480700
v -0.00197500 0.06918200 0.03183300
v -0.00197500 0.06918200 0.03183300
v -0.00197500 0.06918200 0.03183300
v -0.00197500 0.06918200 0.03183300
v -0.00197500 0.06918200 0.03183300
v -0.00197500 0.06918200 0.03183300
v -0.00209400 0.06694500 0.03572800
v -0.00209400 0.06694500 0.03572800
v -0.00209400 0.06694500 0.03572800
v -0.00209400 0.06694500 0.03572800
v -0.00209400 0.06694500 0.03572800
v -0.00209400 0.06694500 0.03572800
v 0.00507600 0.06442400 0.03180000
v 0.00507600 0.06442400 0.03180000
v 0.00507600 0.06442400 0.03180000
v 0.00507600 0.06442400 0.03180000
v 0.00507600 0.06442400 0.03180000
v 0.00507600 0.06442400 0.03180000
v 0.00010600 0.06951100 0.02880000
v 0.00010600 0.06951100 0.02880000
v 0.00010600 0.06951100 0.02880000
v 0.00010600 0.06951100 0.02880000
v 0.00010600 0.06951100 0.02880000
v 0.00010600 0.06951100 0.02880000
v 0.00350600 0.06799200 0.02880000
v 0.00350600 0.06799200 0.02880000
v 0.00350600 0.06799200 0.02880000
v 0.00350600 0.06799200 0.02880000
v 0.00350600 0.06799200 0.02880000
v 0.00509300 0.06406100 0.02880000
v 0.00509300 0.06406100 0.02880000
v 0.00509300 0.06406100 0.02880000
v 0.00509300 0.06406100 0.02880000
v 0.00509300 0.06406100 0.02880000
v 0.00509300 0.06406100 0.02880000
v 0.02414400 0.04145000 0.01510200
v 0.02414400 0.04145000 0.01510200
v 0.02414400 0.04145000 0.01510200
v 0.02414400 0.04145000 0.01510200
v -0.00738300 0.04145000 0.02648900
v -0.00738300 0.04145000 0.02648900
v -0.00738300 0.04145000 0.02648900
v -0.00738300 0.04145000 0.02648900
v -0.02789200 0.04144900 0.00829900
v -0.02789200 0.04144900 0.00829900
v -0.02789200 0.04144900 0.00829900
v -0.02789200 0.04144900 0.00829900
v 0.00418900 0.04144900 0.02725400
v 0.00418900 0.04144900 0.02725400
v 0.00418900 0.04144900 0.02725400
v 0.00418900 0.04144900 0.02725400
v -0.01894100 0.04145000 0.02088100
v -0.01894100 0.04145000 0.02088100
v -0.01894100 0.04145000 0.02088100
v -0.01894100 0.04145000 0.02088100
v 0.01566700 0.04144900 0.02298700
v 0.01566700 0.04144900 0.02298700
v 0.01566700 0.04144900 0.02298700
vn 0.23140000 -0.14560000 -0.96190000
vn 0.32810000 0.02540000 -0.94430000
vn 0.71720000 0.02530000 -0.69640000
vn 0.74540000 -0.06220000 -0.66370000
vn -0.00000000 -1.00000000 -0.00000000
vn 0.00010000 -1.00000000 -0.00000000
vn -0.72980000 -0.08120000 -0.67880000
vn -0.00000000 -1.00000000 -0.00000000
vn -0.55700000 0.11520000 -0.82250000
vn -0.86200000 0.09550000 -0.49790000
vn -0.72980000 -0.08120000 -0.67880000
vn -0.86200000 0.09550000 -0.49790000
vn -0.93380000 -0.10110000 -0.34330000
vn -0.00000000 -1.00000000 -0.00000000
vn -0.86200000 0.09550000 -0.49790000
vn -0.00000000 -1.00000000 -0.00000000
vn -0.99410000 0.10250000 -0.03660000
vn -0.93380000 -0.10110000 -0.34330000
vn -0.00000000 -1.00000000 -0.00000000
vn 0.23140000 -0.14560000 -0.96190000
vn 0.32810000 0.02540000 -0.94430000
vn -0.06960000 0.14780000 -0.98660000
vn 0.23140000 -0.14560000 -0.96190000
vn -0.06960000 0.14780000 -0.98660000
vn -0.00000000 -1.00000000 -0.00000000
vn -0.36060000 -0.15830000 -0.91920000
vn -0.00000000 -1.00000000 -0.00000000
vn 0.96140000 0.06320000 -0.26780000
vn 0.97630000 -0.07220000 -0.20420000
vn 0.94800000 0.07230000 0.31000000
vn 0.00010000 -1.00000000 -0.00000000
vn -0.00000000 -1.00000000 -0.00000000
vn 0.92990000 -0.04760000 0.36480000
vn 0.97630000 -0.07220000 -0.20420000
vn 0.94800000 0.07230000 0.31000000
vn -0.93380000 -0.10110000 -0.34330000
vn -0.98830000 -0.10330000 0.11190000
vn -0.00000000 -1.00000000 -0.00000000
vn -0.99410000 0.10250000 -0.03660000
vn 0.74540000 -0.06220000 -0.66370000
vn 0.97630000 -0.07220000 -0.20420000
vn 0.96140000 0.06320000 -0.26780000
vn -0.00000000 -1.00000000 -0.00000000
vn -0.00000000 -1.00000000 -0.00000000
vn -0.55700000 0.11520000 -0.82250000
vn -0.36060000 -0.15830000 -0.91920000
vn -0.06960000 0.14780000 -0.98660000
vn 0.96140000 0.06320000 -0.26780000
vn 0.74540000 -0.06220000 -0.66370000
vn 0.00010000 -1.00000000 -0.00000000
vn 0.71720000 0.02530000 -0.69640000
vn 0.00010000 -1.00000000 -0.00010000
vn -0.72980000 -0.08120000 -0.67880000
vn -0.55700000 0.11520000 -0.82250000
vn -0.00000000 -1.00000000 -0.00000000
vn -0.36060000 -0.15830000 -0.91920000
vn 0.00010000 -1.00000000 -0.00010000
vn -0.00000000 -1.00000000 -0.00000000
vn 0.71720000 0.02530000 -0.69640000
vn 0.32810000 0.02540000 -0.94430000
vn -0.00020000 -0.00010000 1.00000000
vn -0.79460000 -0.56700000 -0.21710000
vn 0.34770000 -0.88030000 -0.32290000
vn -0.00200000 0.00520000 1.00000000
vn -0.00160000 0.00820000 1.00000000
vn -0.23320000 -0.92570000 0.29760000
vn 0.77280000 -0.58490000 0.24660000
vn -0.24280000 -0.96350000 -0.11280000
vn 0.77120000 -0.58360000 -0.25440000
vn 0.34770000 -0.88030000 -0.32290000
vn -0.23320000 -0.92570000 0.29760000
vn 0.48800000 -0.86080000 0.14430000
vn -0.00200000 0.00520000 1.00000000
vn -0.00430000 0.00020000 1.00000000
vn 0.34770000 -0.88030000 -0.32290000
vn 0.96670000 -0.05200000 -0.25070000
vn 0.77280000 -0.58490000 0.24660000
vn -0.79460000 -0.56700000 -0.21710000
vn -0.24280000 -0.96350000 -0.11280000
vn -0.91090000 -0.41200000 0.02260000
vn -0.40520000 -0.90570000 0.12470000
vn -0.90050000 -0.40730000 -0.15260000
vn -0.23320000 -0.92570000 0.29760000
vn -0.00020000 -0.00010000 1.00000000
vn -0.94120000 0.33780000 -0.00310000
vn 0.00280000 -0.00150000 1.00000000
vn 0.00180000 -0.00270000 1.00000000
vn -0.79460000 -0.56700000 -0.21710000
vn -0.85370000 0.47710000 -0.20900000
vn -0.91090000 -0.41200000 0.02260000
vn -0.93500000 0.33560000 -0.11500000
vn -0.98270000 -0.07340000 0.17010000
vn -0.94120000 0.33780000 -0.00310000
vn -0.90050000 -0.40730000 -0.15260000
vn -0.91090000 -0.41200000 0.02260000
vn -0.93500000 0.33560000 -0.11500000
vn -0.40120000 0.89860000 -0.17780000
vn -0.94120000 0.33780000 -0.00310000
vn -0.39460000 0.88370000 0.25180000
vn -0.85370000 0.47710000 -0.20900000
vn -0.72830000 0.67580000 0.11350000
vn 0.00280000 -0.00150000 1.00000000
vn 0.31040000 0.91090000 -0.27200000
vn -0.00230000 -0.02520000 0.99970000
vn -0.85370000 0.47710000 -0.20900000
vn -0.00440000 -0.01290000 0.99990000
vn -0.39460000 0.88370000 0.25180000
vn -0.24280000 -0.96350000 -0.11280000
vn -0.40110000 -0.90240000 -0.15720000
vn -0.40520000 -0.90570000 0.12470000
vn 0.48800000 -0.86080000 0.14430000
vn -0.03140000 -0.94830000 0.31580000
vn 0.48700000 -0.85910000 0.15760000
vn 0.94890000 -0.31270000 0.04310000
vn 0.79330000 -0.47040000 0.38660000
vn 0.72140000 -0.55310000 0.41670000
vn 0.48700000 -0.85910000 0.15760000
vn 0.77120000 -0.58360000 -0.25440000
vn 0.48800000 -0.86080000 0.14430000
vn 0.93890000 -0.30750000 0.15480000
vn -0.40110000 -0.90240000 -0.15720000
vn -0.40520000 -0.90570000 0.12470000
vn -0.99470000 -0.07420000 -0.07100000
vn -0.98270000 -0.07340000 0.17010000
vn -0.90050000 -0.40730000 -0.15260000
vn -0.77330000 -0.55620000 0.30430000
vn -0.72910000 0.67870000 -0.08780000
vn -0.91850000 0.25650000 0.30100000
vn -0.99470000 -0.07420000 -0.07100000
vn -0.93500000 0.33560000 -0.11500000
vn -0.72830000 0.67580000 0.11350000
vn -0.98270000 -0.07340000 0.17010000
vn -0.87950000 0.25220000 0.40360000
vn -0.91850000 0.25650000 0.30100000
vn -0.99470000 -0.07420000 -0.07100000
vn -0.44610000 -0.34720000 0.82490000
vn -0.77330000 -0.55620000 0.30430000
vn -0.27150000 0.70580000 0.65430000
vn -0.87950000 0.25220000 0.40360000
vn -0.91850000 0.25650000 0.30100000
vn -0.72910000 0.67870000 -0.08780000
vn -0.25830000 0.90600000 0.33530000
vn -0.53200000 0.45230000 0.71580000
vn -0.77330000 -0.55620000 0.30430000
vn -0.40110000 -0.90240000 -0.15720000
vn -0.22600000 -0.33090000 0.91620000
vn -0.44610000 -0.34720000 0.82490000
vn -0.03140000 -0.94830000 0.31580000
vn -0.87950000 0.25220000 0.40360000
vn 0.01170000 0.03680000 0.99930000
vn -0.44610000 -0.34720000 0.82490000
vn -0.03900000 -0.14930000 0.98800000
vn -0.22600000 -0.33090000 0.91620000
vn -0.53200000 0.45230000 0.71580000
vn -0.03140000 -0.94830000 0.31580000
vn -0.22600000 -0.33090000 0.91620000
vn -0.03900000 -0.14930000 0.98800000
vn 0.48700000 -0.85910000 0.15760000
vn 0.72140000 -0.55310000 0.41670000
vn 0.61500000 0.08410000 -0.78400000
vn -0.03240000 0.99950000 -0.00020000
vn 0.00110000 0.99840000 0.05740000
vn 0.99740000 -0.07230000 0.00580000
vn -0.04210000 0.99870000 0.02920000
vn -0.01930000 -0.09850000 -0.99490000
vn 0.00450000 0.99840000 0.05620000
vn -0.01930000 -0.09850000 -0.99490000
vn 0.61500000 0.08410000 -0.78400000
vn -0.77590000 0.08380000 -0.62530000
vn -0.00000000 1.00000000 -0.00000000
vn 0.00110000 0.99840000 0.05740000
vn -0.00970000 1.00000000 0.00200000
vn -0.94930000 -0.07590000 0.30510000
vn -0.77590000 0.08380000 -0.62530000
vn -0.00420000 0.99950000 -0.03120000
vn -0.01930000 -0.09850000 -0.99490000
vn -0.04440000 0.99900000 0.00820000
vn 0.03710000 0.99920000 -0.01190000
vn -0.76790000 0.03690000 0.63950000
vn -0.94930000 -0.07590000 0.30510000
vn -0.00000000 1.00000000 -0.00000000
vn -0.77590000 0.08380000 -0.62530000
vn -0.01940000 0.99970000 0.01620000
vn 0.02440000 0.99930000 0.02770000
vn -0.06840000 0.99720000 -0.02860000
vn 0.02360000 0.99960000 -0.01830000
vn 0.02360000 0.99960000 -0.01830000
vn -0.00700000 0.99990000 -0.01060000
vn -0.05020000 0.99850000 -0.02090000
vn 0.00510000 0.99980000 0.01980000
vn -0.04210000 0.99870000 0.02920000
vn -0.06840000 0.99720000 -0.02860000
vn 0.01830000 0.99980000 -0.00390000
vn -0.03240000 0.99950000 -0.00020000
vn 0.00680000 0.99980000 0.01650000
vn -0.00920000 0.99950000 -0.03170000
vn -0.00220000 0.99890000 -0.04740000
vn -0.06840000 0.99720000 -0.02860000
vn -0.05020000 0.99850000 -0.02090000
vn -0.01940000 0.99970000 0.01620000
vn 0.03620000 0.99860000 -0.03920000
vn 0.02810000 0.99960000 -0.00340000
vn -0.00220000 0.99890000 -0.04740000
vn 0.06610000 0.99470000 -0.07820000
vn 0.00680000 0.99980000 0.01650000
vn 0.06610000 0.99470000 -0.07820000
vn 0.03620000 0.99860000 -0.03920000
vn 0.05130000 0.99810000 -0.03510000
vn -0.00420000 0.99950000 -0.03120000
vn 0.03710000 0.99920000 -0.01190000
vn -0.06420000 0.99780000 0.01320000
vn -0.02100000 0.99860000 0.04860000
vn -0.05030000 0.99850000 -0.02250000
vn 0.14260000 -0.08100000 -0.98650000
vn 0.91190000 -0.05020000 0.40740000
vn 0.48690000 0.05190000 -0.87190000
vn -0.02630000 0.99940000 -0.02230000
vn -0.00390000 0.99960000 0.02690000
vn 0.14260000 -0.08100000 -0.98650000
vn 0.48690000 0.05190000 -0.87190000
vn -0.86980000 0.08050000 -0.48680000
vn -0.00000000 1.00000000 -0.00000000
vn 0.04740000 0.99840000 0.03040000
vn -0.00390000 0.99960000 0.02690000
vn 0.14260000 -0.08100000 -0.98650000
vn -0.86980000 0.08050000 -0.48680000
vn -0.99560000 -0.07600000 0.05460000
vn 0.03230000 0.99950000 -0.00180000
vn -0.00000000 1.00000000 -0.00000000
vn -0.99560000 -0.07600000 0.05460000
vn -0.48200000 0.05000000 0.87480000
vn -0.86980000 0.08050000 -0.48680000
vn -0.06420000 0.99780000 0.01320000
vn 0.01630000 0.99980000 0.00670000
vn -0.02630000 0.99940000 -0.02230000
vn 0.01070000 0.99990000 0.00810000
vn 0.05530000 0.99840000 -0.00890000
vn 0.00700000 0.99990000 -0.01530000
vn -0.05030000 0.99850000 -0.02250000
vn -0.03030000 0.99880000 -0.03800000
vn -0.02740000 0.99890000 0.03780000
vn -0.02630000 0.99940000 -0.02230000
vn 0.01630000 0.99980000 0.00670000
vn -0.02740000 0.99890000 0.03780000
vn 0.39090000 0.75440000 -0.52730000
vn 0.38720000 0.79160000 -0.47260000
vn -0.03920000 0.99830000 0.04320000
vn 0.30370000 0.84090000 -0.44790000
vn -0.00120000 1.00000000 0.00610000
vn -0.03030000 0.99880000 -0.03800000
vn 0.02320000 0.99970000 0.01070000
vn -0.01180000 0.99930000 0.03650000
vn 0.38720000 0.79160000 -0.47260000
vn -0.03920000 0.99830000 0.04320000
vn 0.45820000 0.81880000 -0.34590000
vn 0.02320000 0.99970000 0.01070000
vn -0.03920000 0.99830000 0.04320000
vn 0.01370000 0.99990000 0.00520000
vn 0.03230000 0.99950000 -0.00180000
vn -0.01180000 0.99930000 0.03650000
vn 0.04740000 0.99840000 0.03040000
vn 0.98780000 -0.00230000 -0.15590000
vn 0.40610000 0.02570000 0.91350000
vn -0.00000000 1.00000000 -0.00000000
vn 0.08810000 -0.08050000 0.99280000
vn 0.96870000 -0.03360000 -0.24580000
vn 0.98780000 -0.00230000 -0.15590000
vn -0.04210000 0.99910000 0.00290000
vn 0.00090000 1.00000000 0.00970000
vn 0.40610000 0.02570000 0.91350000
vn -0.04130000 0.99910000 0.00190000
vn -0.03440000 0.99940000 0.00870000
vn 0.14140000 0.03160000 -0.98940000
vn -0.00000000 1.00000000 -0.00000000
vn 0.96870000 -0.03360000 -0.24580000
vn 0.98780000 -0.00230000 -0.15590000
vn 0.01720000 0.99830000 0.05620000
vn -0.03440000 0.99940000 0.00870000
vn 0.96870000 -0.03360000 -0.24580000
vn -0.09050000 -0.03260000 -0.99540000
vn 0.14140000 0.03160000 -0.98940000
vn 0.00620000 0.99770000 0.06780000
vn -0.04390000 0.99830000 0.03800000
vn -0.00000000 1.00000000 -0.00000000
vn 0.14140000 0.03160000 -0.98940000
vn -0.90890000 0.02670000 -0.41620000
vn -0.09050000 -0.03260000 -0.99540000
vn 0.00620000 0.99770000 0.06780000
vn 0.02210000 0.99720000 0.07100000
vn 0.03580000 0.99940000 0.00250000
vn 0.05610000 0.99790000 0.03240000
vn -0.90890000 0.02670000 -0.41620000
vn -0.09050000 -0.03260000 -0.99540000
vn -0.99580000 -0.05950000 -0.06930000
vn -0.76900000 0.06220000 0.63620000
vn -0.00000000 1.00000000 -0.00000000
vn -0.99580000 -0.05950000 -0.06930000
vn -0.90890000 0.02670000 -0.41620000
vn -0.99580000 -0.05950000 -0.06930000
vn 0.03580000 0.99940000 0.00250000
vn 0.08810000 -0.08050000 0.99280000
vn -0.76900000 0.06220000 0.63620000
vn 0.04430000 0.99890000 -0.01200000
vn 0.00090000 1.00000000 0.00970000
vn 0.02770000 0.99930000 -0.02470000
vn 0.03150000 0.99940000 0.01580000
vn -0.04390000 0.99830000 0.03800000
vn -0.03440000 0.99940000 0.00870000
vn 0.01280000 0.99990000 -0.00860000
vn -0.04130000 0.99910000 0.00190000
vn 0.03150000 0.99940000 0.01580000
vn -0.04210000 0.99910000 0.00290000
vn -0.42650000 0.83960000 -0.33630000
vn -0.33670000 0.86740000 -0.36640000
vn -0.04130000 0.99910000 0.00190000
vn -0.01300000 0.99990000 -0.00050000
vn 0.01680000 0.99960000 0.02380000
vn 0.04430000 0.99890000 -0.01200000
vn 0.02770000 0.99930000 -0.02470000
vn -0.03750000 0.99900000 0.02270000
vn 0.04430000 0.99890000 -0.01200000
vn 0.03580000 0.99940000 0.00250000
vn -0.02510000 0.99970000 0.00330000
vn 0.05610000 0.99790000 0.03240000
vn -0.03750000 0.99900000 0.02270000
vn 0.94630000 0.01550000 -0.32300000
vn 0.97780000 -0.02520000 -0.20810000
vn 0.47120000 0.87920000 -0.07110000
vn 0.99900000 0.01790000 0.04110000
vn 0.90290000 0.42820000 0.03720000
vn 0.97780000 -0.02520000 -0.20810000
vn -0.00000000 -1.00000000 -0.00000000
vn 0.99900000 0.01790000 0.04110000
vn 0.97560000 -0.02010000 0.21880000
vn 0.69940000 -0.03670000 -0.71380000
vn 0.85630000 0.03140000 -0.51560000
vn 0.94630000 0.01550000 -0.32300000
vn 0.00010000 -1.00000000 -0.00000000
vn 0.00010000 -1.00000000 -0.00010000
vn -0.00000000 -1.00000000 -0.00000000
vn 0.97780000 -0.02520000 -0.20810000
vn 0.47120000 0.87920000 -0.07110000
vn 0.01260000 0.99970000 0.02300000
vn 0.01370000 0.99990000 0.00520000
vn -0.01180000 0.99930000 0.03650000
vn 0.45820000 0.81880000 -0.34590000
vn -0.01510000 0.99980000 -0.01200000
vn 0.85630000 0.03140000 -0.51560000
vn 0.94630000 0.01550000 -0.32300000
vn 0.59520000 0.01460000 -0.80340000
vn 0.45820000 0.81880000 -0.34590000
vn 0.39090000 0.75440000 -0.52730000
vn 0.85630000 0.03140000 -0.51560000
vn 0.38720000 0.79160000 -0.47260000
vn 0.69940000 -0.03670000 -0.71380000
vn -0.00000000 -1.00000000 -0.00000000
vn 0.59520000 0.01460000 -0.80340000
vn 0.19750000 -0.00460000 -0.98030000
vn 0.69940000 -0.03670000 -0.71380000
vn 0.15690000 -0.02350000 -0.98730000
vn 0.17410000 0.47090000 -0.86490000
vn 0.30370000 0.84090000 -0.44790000
vn 0.39090000 0.75440000 -0.52730000
vn 0.59520000 0.01460000 -0.80340000
vn 0.19750000 -0.00460000 -0.98030000
vn 0.19750000 -0.00460000 -0.98030000
vn -0.16780000 0.02490000 -0.98550000
vn -0.16480000 0.18800000 -0.96830000
vn 0.02920000 0.88510000 -0.46440000
vn 0.17410000 0.47090000 -0.86490000
vn 0.15690000 -0.02350000 -0.98730000
vn 0.15690000 -0.02350000 -0.98730000
vn -0.37680000 -0.02660000 -0.92590000
vn -0.16780000 0.02490000 -0.98550000
vn -0.00000000 -1.00000000 -0.00000000
vn -0.31650000 0.81430000 -0.48670000
vn -0.37680000 -0.02660000 -0.92590000
vn -0.16780000 0.02490000 -0.98550000
vn -0.54480000 0.01970000 -0.83830000
vn -0.25440000 0.86980000 -0.42290000
vn -0.16480000 0.18800000 -0.96830000
vn -0.54480000 0.01970000 -0.83830000
vn -0.00000000 -1.00000000 -0.00000000
vn 0.00010000 -1.00000000 -0.00000000
vn -0.37680000 -0.02660000 -0.92590000
vn -0.72120000 -0.01980000 -0.69250000
vn -0.31650000 0.81430000 -0.48670000
vn -0.54480000 0.01970000 -0.83830000
vn -0.33670000 0.86740000 -0.36640000
vn -0.59830000 0.67950000 -0.42460000
vn -0.42650000 0.83960000 -0.33630000
vn -0.72120000 -0.01980000 -0.69250000
vn -0.81540000 0.01640000 -0.57860000
vn -0.72120000 -0.01980000 -0.69250000
vn -0.81540000 0.01640000 -0.57860000
vn -0.00000000 -1.00000000 -0.00000000
vn -0.93580000 -0.01150000 -0.35240000
vn 0.00010000 -1.00000000 -0.00000000
vn -0.59830000 0.67950000 -0.42460000
vn -0.93580000 -0.01150000 -0.35240000
vn -0.90790000 0.34200000 -0.24220000
vn -0.96610000 0.01490000 -0.25760000
vn -0.81540000 0.01640000 -0.57860000
vn -0.00000000 -1.00000000 -0.00000000
vn -0.93580000 -0.01150000 -0.35240000
vn -0.96610000 0.01490000 -0.25760000
vn -0.99950000 -0.02050000 -0.02420000
vn -0.96610000 0.01490000 -0.25760000
vn -0.97710000 0.01060000 0.21250000
vn -0.97700000 0.02760000 0.21160000
vn -0.99950000 -0.02050000 -0.02420000
vn -0.42940000 0.90200000 -0.04540000
vn -0.90790000 0.34200000 -0.24220000
vn -0.99950000 -0.02050000 -0.02420000
vn -0.00000000 -1.00000000 -0.00000000
vn -0.97700000 0.02760000 0.21160000
vn -0.93480000 -0.01100000 0.35490000
vn 0.01100000 0.99970000 -0.02260000
vn 0.01280000 0.99990000 -0.00860000
vn 0.03150000 0.99940000 0.01580000
vn 0.00080000 1.00000000 0.00020000
vn -0.90790000 0.34200000 -0.24220000
vn -0.59830000 0.67950000 -0.42460000
vn -0.42940000 0.90200000 -0.04540000
vn -0.42650000 0.83960000 -0.33630000
vn -0.33670000 0.86740000 -0.36640000
vn 0.01680000 0.99960000 0.02380000
vn 0.02770000 0.99930000 -0.02470000
vn 0.00090000 1.00000000 0.00970000
vn -0.25440000 0.86980000 -0.42290000
vn -0.31650000 0.81430000 -0.48670000
vn -0.04210000 0.99910000 0.00290000
vn 0.02920000 0.88510000 -0.46440000
vn -0.16480000 0.18800000 -0.96830000
vn 0.00010000 1.00000000 0.00040000
vn 0.00010000 1.00000000 0.00030000
vn 0.01680000 0.99960000 0.02380000
vn -0.25440000 0.86980000 -0.42290000
vn -0.01300000 0.99990000 -0.00050000
vn -0.02740000 0.99890000 0.03780000
vn 0.01630000 0.99980000 0.00670000
vn 0.17410000 0.47090000 -0.86490000
vn 0.30370000 0.84090000 -0.44790000
vn 0.00010000 1.00000000 0.00040000
vn 0.01070000 0.99990000 0.00810000
vn 0.02920000 0.88510000 -0.46440000
vn -0.03270000 0.99930000 -0.02020000
vn -0.03490000 0.99910000 -0.02500000
vn 0.33370000 0.92860000 -0.16230000
vn -0.02530000 0.99960000 -0.01040000
vn -0.02200000 0.99960000 -0.01490000
vn -0.07290000 0.99650000 0.04090000
vn -0.00110000 0.99820000 0.06060000
vn 0.00340000 0.98350000 -0.18070000
vn -0.00990000 0.99910000 0.04200000
vn -0.07290000 0.99650000 0.04090000
vn 0.33370000 0.92860000 -0.16230000
vn -0.48780000 0.62730000 0.60710000
vn -0.27760000 0.84610000 0.45510000
vn 0.00340000 0.98350000 -0.18070000
vn -0.02530000 0.99960000 -0.01040000
vn -0.44530000 0.82600000 0.34550000
vn 0.33370000 0.92860000 -0.16230000
vn 0.02150000 0.99920000 -0.03480000
vn 0.03120000 0.99840000 0.04780000
vn 0.02150000 0.99920000 -0.03480000
vn -0.02180000 0.99980000 -0.00060000
vn 0.00340000 0.98350000 -0.18070000
vn -0.00110000 0.99820000 0.06060000
vn 0.00160000 0.99990000 -0.01030000
vn -0.02180000 0.99980000 -0.00060000
vn 0.03260000 0.99940000 -0.00800000
vn -0.01540000 0.99980000 -0.01320000
vn -0.00420000 0.99990000 0.01430000
vn 0.03120000 0.99840000 0.04780000
vn 0.01830000 0.99980000 -0.00390000
vn 0.02950000 0.99960000 0.00240000
vn -0.04210000 0.99870000 0.02920000
vn 0.00450000 0.99840000 0.05620000
vn -0.05720000 0.99510000 -0.08130000
vn -0.04440000 0.99900000 0.00820000
vn 0.02950000 0.99960000 0.00240000
vn 0.00110000 0.99840000 0.05740000
vn 0.00450000 0.99840000 0.05620000
vn -0.04440000 0.99900000 0.00820000
vn 0.27300000 0.88210000 0.38380000
vn 0.41250000 0.80620000 0.42420000
vn 0.21660000 0.95710000 0.19230000
vn -0.05720000 0.99510000 -0.08130000
vn -0.00970000 1.00000000 0.00200000
vn 0.21660000 0.95710000 0.19230000
vn -0.00970000 1.00000000 0.00200000
vn -0.00420000 0.99950000 -0.03120000
vn 0.05130000 0.99810000 -0.03510000
vn -0.06420000 0.99780000 0.01320000
vn 0.05530000 0.99840000 -0.00890000
vn 0.02900000 0.99920000 -0.02700000
vn -0.02920000 0.99670000 0.07620000
vn -0.02100000 0.99860000 0.04860000
vn -0.02920000 0.99670000 0.07620000
vn 0.02900000 0.99920000 -0.02700000
vn 0.03130000 0.99940000 0.01430000
vn -0.03840000 0.99920000 0.00630000
vn -0.03840000 0.99920000 0.00630000
vn -0.02100000 0.99860000 0.04860000
vn -0.02920000 0.99670000 0.07620000
vn -0.00390000 0.99960000 0.02690000
vn 0.01370000 0.99990000 0.00520000
vn 0.04740000 0.99840000 0.03040000
vn 0.01260000 0.99970000 0.02300000
vn 0.00330000 0.99980000 -0.01830000
vn 0.01100000 0.99970000 -0.02260000
vn 0.01280000 0.99990000 -0.00860000
vn -0.04390000 0.99830000 0.03800000
vn -0.01690000 -0.99800000 -0.06050000
vn 0.01720000 0.99830000 0.05620000
vn 0.00620000 0.99770000 0.06780000
vn 0.02210000 0.99720000 0.07100000
vn 0.01720000 0.99830000 0.05620000
vn -0.01690000 -0.99800000 -0.06050000
vn 0.05610000 0.99790000 0.03240000
vn 0.02210000 0.99720000 0.07100000
vn -0.01690000 -0.99800000 -0.06050000
vn -0.02510000 0.99970000 0.00330000
vn -0.02910000 0.99920000 -0.02660000
vn 0.00330000 0.99980000 -0.01830000
vn 0.71220000 -0.02090000 -0.70160000
vn 0.94320000 -0.06890000 0.32490000
vn 0.83360000 0.08830000 -0.54530000
vn 0.02140000 0.99970000 0.01000000
vn 0.01320000 0.99990000 -0.00290000
vn 0.01320000 0.99990000 -0.00290000
vn -0.00020000 0.99550000 -0.09480000
vn -0.00980000 0.99990000 -0.01360000
vn -0.35860000 0.04890000 -0.93220000
vn -0.39760000 0.02240000 -0.91730000
vn 0.71220000 -0.02090000 -0.70160000
vn -0.01340000 0.99990000 -0.00360000
vn -0.00980000 0.99990000 -0.01360000
vn -0.39760000 0.02240000 -0.91730000
vn -0.99910000 -0.03590000 0.02250000
vn 0.00830000 0.99990000 0.00830000
vn -0.02100000 -0.14320000 0.98950000
vn -0.93810000 0.16090000 0.30680000
vn 0.00510000 0.99980000 0.01980000
vn -0.00700000 0.99990000 -0.01060000
vn -0.99910000 -0.03590000 0.02250000
vn -0.01340000 0.99990000 -0.00360000
vn 0.00090000 0.99980000 0.01740000
vn 0.00510000 0.99980000 0.01980000
vn -0.06380000 0.65530000 -0.75270000
vn 0.02440000 0.99930000 0.02770000
vn 0.02360000 0.99960000 -0.01830000
vn -0.60370000 0.38660000 -0.69730000
vn 0.00090000 0.99980000 0.01740000
vn -0.40140000 0.72360000 -0.56150000
vn 0.00050000 1.00000000 -0.00020000
vn 0.40250000 0.90070000 -0.16360000
vn 0.63870000 -0.21160000 -0.73980000
vn -0.00210000 0.99990000 0.01620000
vn 0.95710000 -0.28690000 -0.04060000
vn -0.00090000 0.99990000 0.01710000
vn -0.01580000 0.99970000 0.01860000
vn -0.40140000 0.72360000 -0.56150000
vn -0.60370000 0.38660000 -0.69730000
vn -0.58410000 -0.05650000 -0.80970000
vn -0.44050000 0.85810000 -0.26380000
vn -0.81530000 0.05050000 -0.57680000
vn -0.85410000 -0.02870000 -0.51940000
vn 0.00680000 0.99980000 0.01650000
vn -0.01940000 0.99970000 0.01620000
vn 0.02810000 0.99960000 -0.00340000
vn 0.02440000 0.99930000 0.02770000
vn -0.01020000 0.99960000 -0.02650000
vn 0.00850000 0.99970000 0.02390000
vn -0.97680000 0.18550000 -0.10680000
vn -0.60370000 0.38660000 -0.69730000
vn -0.44050000 0.85810000 -0.26380000
vn 0.49170000 -0.01960000 -0.87050000
vn 0.89470000 0.06210000 -0.44240000
vn 0.24360000 0.86280000 -0.44310000
vn 0.92530000 -0.08010000 -0.37080000
vn 0.47440000 -0.05100000 -0.87890000
vn 0.63870000 -0.21160000 -0.73980000
vn 0.40250000 0.90070000 -0.16360000
vn -0.97680000 0.18550000 -0.10680000
vn -0.85410000 -0.02870000 -0.51940000
vn -0.99000000 0.07470000 -0.11940000
vn -0.99630000 0.02390000 -0.08200000
vn -0.44050000 0.85810000 -0.26380000
vn 0.63870000 -0.21160000 -0.73980000
vn -0.01540000 0.99980000 -0.01320000
vn -0.01610000 0.99970000 0.01940000
vn -0.01580000 0.99970000 0.01860000
vn -0.00420000 0.99990000 0.01430000
vn 0.00090000 0.99980000 0.01740000
vn 0.00830000 0.99990000 0.00830000
vn -0.06380000 0.65530000 -0.75270000
vn 0.24360000 0.86280000 -0.44310000
vn -0.09460000 0.50310000 -0.85910000
vn -0.81010000 0.47100000 0.34910000
vn -0.89910000 -0.00490000 0.43780000
vn 0.01260000 0.99970000 0.02300000
vn -0.91450000 0.05130000 0.40130000
vn -0.01510000 0.99980000 -0.01200000
vn -0.97680000 0.18550000 -0.10680000
vn -0.03840000 0.99920000 0.00630000
vn -0.01020000 0.99960000 -0.02650000
vn 0.03130000 0.99940000 0.01430000
vn -0.99000000 0.07470000 -0.11940000
vn 0.24360000 0.86280000 -0.44310000
vn -0.09460000 0.50310000 -0.85910000
vn 0.01980000 0.06170000 -0.99790000
vn 0.47440000 -0.05100000 -0.87890000
vn -0.10570000 -0.08780000 -0.99050000
vn -0.58410000 -0.05650000 -0.80970000
vn -0.45880000 0.07900000 -0.88500000
vn -0.09460000 0.50310000 -0.85910000
vn -0.40140000 0.72360000 -0.56150000
vn -0.06380000 0.65530000 -0.75270000
vn -0.10570000 -0.08780000 -0.99050000
vn 0.53270000 0.18480000 0.82590000
vn 0.94320000 -0.06890000 0.32490000
vn -0.00000000 1.00000000 -0.00000000
vn 0.83360000 0.08830000 -0.54530000
vn -0.35860000 0.04890000 -0.93220000
vn 0.71220000 -0.02090000 -0.70160000
vn 0.83360000 0.08830000 -0.54530000
vn -0.00000000 1.00000000 -0.00000000
vn -0.93810000 0.16090000 0.30680000
vn -0.00000000 1.00000000 -0.00000000
vn -0.99910000 -0.03590000 0.02250000
vn -0.39760000 0.02240000 -0.91730000
vn -0.35860000 0.04890000 -0.93220000
vn 0.47440000 -0.05100000 -0.87890000
vn -0.00000000 1.00000000 -0.00000000
vn 0.01980000 0.06170000 -0.99790000
vn 0.49170000 -0.01960000 -0.87050000
vn -0.10570000 -0.08780000 -0.99050000
vn -0.45880000 0.07900000 -0.88500000
vn 0.01980000 0.06170000 -0.99790000
vn -0.00000000 1.00000000 -0.00000000
vn -0.00000000 1.00000000 -0.00000000
vn 0.89470000 0.06210000 -0.44240000
vn 0.92530000 -0.08010000 -0.37080000
vn 0.96850000 0.04940000 0.24390000
vn -0.45880000 0.07900000 -0.88500000
vn -0.81530000 0.05050000 -0.57680000
vn -0.58410000 -0.05650000 -0.80970000
vn -0.00000000 1.00000000 -0.00000000
vn 0.49170000 -0.01960000 -0.87050000
vn 0.89470000 0.06210000 -0.44240000
vn -0.00000000 1.00000000 -0.00000000
vn -0.00000000 1.00000000 -0.00000000
vn -0.85410000 -0.02870000 -0.51940000
vn -0.99630000 0.02390000 -0.08200000
vn -0.81530000 0.05050000 -0.57680000
vn -0.99000000 0.07470000 -0.11940000
vn -0.91450000 0.05130000 0.40130000
vn -0.00000000 1.00000000 -0.00000000
vn -0.99630000 0.02390000 -0.08200000
vn -0.00990000 0.99910000 0.04200000
vn 0.22810000 -0.09960000 -0.96850000
vn 0.94010000 0.12030000 -0.31890000
vn -0.07290000 0.99650000 0.04090000
vn -0.03270000 0.99930000 -0.02020000
vn 0.84450000 -0.11760000 0.52260000
vn 0.94010000 0.12030000 -0.31890000
vn 0.22810000 -0.09960000 -0.96850000
vn -0.32760000 0.04540000 -0.94370000
vn -0.00000000 1.00000000 -0.00000000
vn -0.00990000 0.99910000 0.04200000
vn 0.03120000 0.99840000 0.04780000
vn -0.00110000 0.99820000 0.06060000
vn 0.05620000 0.99830000 0.01380000
vn -0.32760000 0.04540000 -0.94370000
vn 0.22810000 -0.09960000 -0.96850000
vn 0.03260000 0.99940000 -0.00800000
vn -0.97080000 -0.03060000 -0.23780000
vn -0.00000000 1.00000000 -0.00000000
vn -0.97080000 -0.03060000 -0.23780000
vn -0.32760000 0.04540000 -0.94370000
vn -0.99950000 0.03170000 0.00740000
vn 0.01930000 0.09750000 0.99510000
vn -0.00000000 1.00000000 -0.00000000
vn -0.99950000 0.03170000 0.00740000
vn -0.51810000 -0.04740000 0.85400000
vn 0.01900000 0.99930000 -0.03140000
vn 0.05090000 0.99830000 -0.02730000
vn -0.51810000 -0.04740000 0.85400000
vn 0.05620000 0.99830000 0.01380000
vn -0.97080000 -0.03060000 -0.23780000
vn -0.99950000 0.03170000 0.00740000
vn -0.02200000 0.99960000 -0.01490000
vn -0.00210000 0.99990000 0.01620000
vn -0.03490000 0.99910000 -0.02500000
vn -0.02250000 0.99870000 0.04560000
vn -0.00090000 0.99990000 0.01710000
vn 0.00980000 0.99860000 -0.05120000
vn 0.00980000 0.99860000 -0.05120000
vn 0.05090000 0.99830000 -0.02730000
vn -0.01610000 0.99970000 0.01940000
vn -0.01580000 0.99970000 0.01860000
vn 0.01900000 0.99930000 -0.03140000
vn -0.00090000 0.99990000 0.01710000
vn 0.05620000 0.99830000 0.01380000
vn -0.01610000 0.99970000 0.01940000
vn -0.01540000 0.99980000 -0.01320000
vn 0.05090000 0.99830000 -0.02730000
vn 0.03260000 0.99940000 -0.00800000
vn 0.84450000 -0.11760000 0.52260000
vn -0.03270000 0.99930000 -0.02020000
vn 0.01930000 0.09750000 0.99510000
vn -0.51810000 -0.04740000 0.85400000
vn -0.03490000 0.99910000 -0.02500000
vn 0.01900000 0.99930000 -0.03140000
vn 0.00980000 0.99860000 -0.05120000
vn 0.94010000 0.12030000 -0.31890000
vn -0.00000000 1.00000000 -0.00000000
vn 0.84450000 -0.11760000 0.52260000
vn 0.01930000 0.09750000 0.99510000
vn 0.96850000 0.04940000 0.24390000
vn 0.95300000 -0.04690000 0.29920000
vn 0.69500000 0.05450000 0.71700000
vn -0.00000000 1.00000000 -0.00000000
vn 0.69500000 0.05450000 0.71700000
vn 0.29880000 0.05710000 0.95260000
vn 0.62040000 -0.06210000 0.78180000
vn -0.00000000 1.00000000 -0.00000000
vn -0.17340000 0.11690000 0.97790000
vn -0.00000000 1.00000000 -0.00000000
vn 0.29880000 0.05710000 0.95260000
vn 0.14270000 -0.11000000 0.98360000
vn -0.17340000 0.11690000 0.97790000
vn -0.56320000 -0.11920000 0.81770000
vn -0.00000000 1.00000000 -0.00000000
vn -0.56320000 -0.11920000 0.81770000
vn -0.52150000 -0.01290000 0.85320000
vn -0.00000000 1.00000000 -0.00000000
vn -0.89910000 -0.00490000 0.43780000
vn -0.91450000 0.05130000 0.40130000
vn -0.00000000 1.00000000 -0.00000000
vn -0.02100000 -0.14320000 0.98950000
vn -0.93810000 0.16090000 0.30680000
vn 0.53270000 0.18480000 0.82590000
vn -0.52150000 -0.01290000 0.85320000
vn -0.38100000 0.28580000 0.87930000
vn -0.56320000 -0.11920000 0.81770000
vn 0.14270000 -0.11000000 0.98360000
vn -0.17340000 0.11690000 0.97790000
vn 0.08740000 0.79950000 0.59430000
vn -0.27520000 0.84830000 0.45240000
vn 0.38130000 0.78930000 0.48130000
vn 0.08740000 0.79950000 0.59430000
vn 0.17140000 0.60420000 0.77810000
vn 0.14270000 -0.11000000 0.98360000
vn 0.29880000 0.05710000 0.95260000
vn 0.62040000 -0.06210000 0.78180000
vn -0.89910000 -0.00490000 0.43780000
vn -0.27520000 0.84830000 0.45240000
vn -0.81010000 0.47100000 0.34910000
vn -0.52150000 -0.01290000 0.85320000
vn 0.38130000 0.78930000 0.48130000
vn 0.69500000 0.05450000 0.71700000
vn 0.95300000 -0.04690000 0.29920000
vn 0.71350000 0.20310000 0.67060000
vn 0.62040000 -0.06210000 0.78180000
vn 0.41900000 0.89830000 0.13190000
vn 0.96850000 0.04940000 0.24390000
vn 0.41900000 0.89830000 0.13190000
vn 0.92530000 -0.08010000 -0.37080000
vn 0.40250000 0.90070000 -0.16360000
vn 0.95710000 -0.28690000 -0.04060000
vn 0.95300000 -0.04690000 0.29920000
vn 0.00830000 0.99990000 0.00830000
vn -0.00420000 0.99990000 0.01430000
vn 0.53270000 0.18480000 0.82590000
vn -0.02100000 -0.14320000 0.98950000
vn 0.02140000 0.99970000 0.01000000
vn 0.00160000 0.99990000 -0.01030000
vn 0.94320000 -0.06890000 0.32490000
vn -0.02910000 0.99920000 -0.02660000
vn -0.02510000 0.99970000 0.00330000
vn 0.71350000 0.20310000 0.67060000
vn 0.38130000 0.78930000 0.48130000
vn 0.00010000 1.00000000 0.00030000
vn -0.01300000 0.99990000 -0.00050000
vn 0.17140000 0.60420000 0.77810000
vn -0.03750000 0.99900000 0.02270000
vn -0.02910000 0.99920000 -0.02660000
vn 0.00330000 0.99980000 -0.01830000
vn 0.41900000 0.89830000 0.13190000
vn 0.71350000 0.20310000 0.67060000
vn 0.95710000 -0.28690000 -0.04060000
vn 0.01100000 0.99970000 -0.02260000
vn 0.00050000 1.00000000 -0.00020000
vn 0.00080000 1.00000000 0.00020000
vn 0.00700000 0.99990000 -0.01530000
vn 0.03130000 0.99940000 0.01430000
vn 0.05530000 0.99840000 -0.00890000
vn 0.02900000 0.99920000 -0.02700000
vn -0.27520000 0.84830000 0.45240000
vn -0.81010000 0.47100000 0.34910000
vn -0.38100000 0.28580000 0.87930000
vn 0.00010000 1.00000000 0.00040000
vn -0.38100000 0.28580000 0.87930000
vn 0.00700000 0.99990000 -0.01530000
vn 0.17140000 0.60420000 0.77810000
vn 0.08740000 0.79950000 0.59430000
vn 0.00010000 1.00000000 0.00030000
vn 0.01070000 0.99990000 0.00810000
vn -0.44530000 0.82600000 0.34550000
vn -0.97700000 0.02760000 0.21160000
vn -0.02530000 0.99960000 -0.01040000
vn -0.02250000 0.99870000 0.04560000
vn -0.93480000 -0.01100000 0.35490000
vn -0.97710000 0.01060000 0.21250000
vn -0.84560000 0.02060000 0.53350000
vn -0.02200000 0.99960000 -0.01490000
vn -0.27760000 0.84610000 0.45510000
vn 0.00010000 0.85700000 0.51530000
vn 0.01320000 0.99990000 -0.00290000
vn 0.02140000 0.99970000 0.01000000
vn -0.00020000 0.99550000 -0.09480000
vn 0.00160000 0.99990000 -0.01030000
vn 0.02150000 0.99920000 -0.03480000
vn -0.02180000 0.99980000 -0.00060000
vn -0.34750000 0.36370000 0.86430000
vn 0.00080000 1.00000000 0.00020000
vn -0.97710000 0.01060000 0.21250000
vn -0.42940000 0.90200000 -0.04540000
vn -0.00210000 0.99990000 0.01620000
vn 0.00050000 1.00000000 -0.00020000
vn -0.02250000 0.99870000 0.04560000
vn 0.41840000 0.27300000 0.86630000
vn 0.01740000 0.77410000 0.63280000
vn 0.00010000 0.85700000 0.51530000
vn -0.01340000 0.99990000 -0.00360000
vn 0.27300000 0.88210000 0.38380000
vn -0.00980000 0.99990000 -0.01360000
vn -0.00700000 0.99990000 -0.01060000
vn 0.01830000 0.99980000 -0.00390000
vn -0.00020000 0.99550000 -0.09480000
vn 0.02950000 0.99960000 0.00240000
vn -0.05720000 0.99510000 -0.08130000
vn 0.48400000 0.86100000 0.15650000
vn 0.21660000 0.95710000 0.19230000
vn 0.41250000 0.80620000 0.42420000
vn 0.00850000 0.99970000 0.02390000
vn 0.78630000 -0.00940000 0.61780000
vn 0.75590000 0.00770000 0.65470000
vn 0.91070000 0.02170000 0.41260000
vn 0.06610000 0.99470000 -0.07820000
vn 0.02810000 0.99960000 -0.00340000
vn 0.05130000 0.99810000 -0.03510000
vn 0.48400000 0.86100000 0.15650000
vn 0.00850000 0.99970000 0.02390000
vn -0.01510000 0.99980000 -0.01200000
vn 0.90290000 0.42820000 0.03720000
vn -0.01020000 0.99960000 -0.02650000
vn 0.47120000 0.87920000 -0.07110000
vn 0.40750000 -0.04160000 0.91220000
vn -0.00200000 0.00520000 1.00000000
vn -0.00160000 0.00820000 1.00000000
vn -0.00430000 0.00020000 1.00000000
vn 0.00430000 0.67820000 0.73480000
vn -0.00890000 -0.00420000 1.00000000
vn -0.00400000 0.99820000 0.05990000
vn 0.46760000 0.00370000 0.88390000
vn 0.49370000 -0.00350000 0.86960000
vn 0.36850000 -0.00170000 0.92960000
vn 0.13560000 0.76410000 0.63060000
vn 0.00430000 0.67820000 0.73480000
vn -0.33660000 0.05710000 0.93990000
vn -0.26540000 0.11400000 0.95740000
vn -0.09500000 0.84710000 0.52290000
vn -0.00400000 0.99820000 0.05990000
vn 0.13560000 0.76410000 0.63060000
vn -0.01220000 -0.00530000 0.99990000
vn 0.07560000 0.03020000 0.99670000
vn 0.00220000 -0.02010000 0.99980000
vn -0.00400000 0.99820000 0.05990000
vn -0.09500000 0.84710000 0.52290000
vn -0.41680000 0.00170000 0.90900000
vn -0.26540000 0.11400000 0.95740000
vn -0.00020000 -0.00010000 1.00000000
vn -0.00160000 0.00820000 1.00000000
vn 0.00430000 0.67820000 0.73480000
vn 0.00180000 -0.00270000 1.00000000
vn -0.46920000 -0.00360000 0.88310000
vn -0.42130000 -0.02950000 0.90640000
vn 0.31040000 0.91090000 -0.27200000
vn 0.40450000 0.90520000 -0.13030000
vn 0.96670000 -0.05200000 -0.25070000
vn -0.00430000 0.00020000 1.00000000
vn -0.00440000 -0.01290000 0.99990000
vn -0.00890000 -0.00420000 1.00000000
vn 0.91050000 0.36760000 0.18930000
vn 0.43440000 0.04620000 0.89960000
vn 0.49370000 -0.00350000 0.86960000
vn 0.22040000 -0.16250000 0.96180000
vn -0.00230000 -0.02520000 0.99970000
vn 0.00450000 -0.99730000 0.07390000
vn -0.00890000 -0.00420000 1.00000000
vn -0.00440000 -0.01290000 0.99990000
vn -0.41680000 0.00170000 0.90900000
vn -0.14710000 -0.69830000 0.70060000
vn -0.00230000 -0.02520000 0.99970000
vn -0.41260000 0.00310000 0.91090000
vn 0.00280000 -0.00150000 1.00000000
vn 0.00180000 -0.00270000 1.00000000
vn 0.00450000 -0.99730000 0.07390000
vn 0.00450000 -0.99730000 0.07390000
vn -0.14710000 -0.69830000 0.70060000
vn -0.14450000 -0.09690000 0.98470000
vn 0.22040000 -0.16250000 0.96180000
vn 0.02450000 0.05270000 0.99830000
vn 0.97560000 -0.02010000 0.21880000
vn 0.91070000 0.02170000 0.41260000
vn 0.48400000 0.86100000 0.15650000
vn 0.99900000 0.01790000 0.04110000
vn 0.90290000 0.42820000 0.03720000
vn 0.41840000 0.27300000 0.86630000
vn 0.75590000 0.00770000 0.65470000
vn 0.27300000 0.88210000 0.38380000
vn 0.41250000 0.80620000 0.42420000
vn 0.46760000 0.00370000 0.88390000
vn 0.43440000 0.04620000 0.89960000
vn 0.49370000 -0.00350000 0.86960000
vn 0.01740000 0.77410000 0.63280000
vn 0.02450000 0.05270000 0.99830000
vn 0.22040000 -0.16250000 0.96180000
vn 0.41840000 0.27300000 0.86630000
vn 0.43440000 0.04620000 0.89960000
vn -0.14450000 -0.09690000 0.98470000
vn 0.00010000 0.85700000 0.51530000
vn 0.01740000 0.77410000 0.63280000
vn -0.34750000 0.36370000 0.86430000
vn -0.37250000 0.04860000 0.92680000
vn 0.02450000 0.05270000 0.99830000
vn -0.41260000 0.00310000 0.91090000
vn -0.41680000 0.00170000 0.90900000
vn -0.37250000 0.04860000 0.92680000
vn -0.62640000 0.00980000 0.77940000
vn -0.34750000 0.36370000 0.86430000
vn -0.48780000 0.62730000 0.60710000
vn -0.27760000 0.84610000 0.45510000
vn -0.46920000 -0.00360000 0.88310000
vn -0.84560000 0.02060000 0.53350000
vn -0.71290000 -0.01620000 0.70110000
vn -0.62640000 0.00980000 0.77940000
vn -0.44530000 0.82600000 0.34550000
vn -0.48780000 0.62730000 0.60710000
vn 0.36850000 -0.00170000 0.92960000
vn 0.13560000 0.76410000 0.63060000
vn 0.07560000 0.03020000 0.99670000
vn -0.33660000 0.05710000 0.93990000
vn -0.09500000 0.84710000 0.52290000
vn -0.01220000 -0.00530000 0.99990000
vn -0.14450000 -0.09690000 0.98470000
vn -0.37250000 0.04860000 0.92680000
vn -0.41260000 0.00310000 0.91090000
vn -0.14710000 -0.69830000 0.70060000
vn -0.71290000 -0.01620000 0.70110000
vn -0.00000000 -1.00000000 -0.00000000
vn -0.84560000 0.02060000 0.53350000
vn -0.93480000 -0.01100000 0.35490000
vn -0.00010000 -1.00000000 -0.00000000
vn -0.00000000 -1.00000000 0.00010000
vn -0.46920000 -0.00360000 0.88310000
vn -0.00010000 -1.00000000 0.00010000
vn -0.42130000 -0.02950000 0.90640000
vn -0.00000000 -1.00000000 0.00010000
vn -0.62640000 0.00980000 0.77940000
vn -0.71290000 -0.01620000 0.70110000
vn -0.26540000 0.11400000 0.95740000
vn -0.33660000 0.05710000 0.93990000
vn -0.00000000 -1.00000000 -0.00000000
vn -0.42130000 -0.02950000 0.90640000
vn 0.00220000 -0.02010000 0.99980000
vn -0.00010000 -1.00000000 0.00010000
vn -0.01220000 -0.00530000 0.99990000
vn 0.00220000 -0.02010000 0.99980000
vn -0.00000000 -1.00000000 -0.00000000
vn -0.00010000 -1.00000000 -0.00010000
vn 0.07560000 0.03020000 0.99670000
vn 0.40750000 -0.04160000 0.91220000
vn 0.36850000 -0.00170000 0.92960000
vn 0.46760000 0.00370000 0.88390000
vn 0.75590000 0.00770000 0.65470000
vn 0.78630000 -0.00940000 0.61780000
vn -0.00010000 -1.00000000 -0.00000000
vn 0.40750000 -0.04160000 0.91220000
vn -0.00010000 -1.00000000 -0.00010000
vn 0.00010000 -1.00000000 0.00010000
vn 0.78630000 -0.00940000 0.61780000
vn 0.91070000 0.02170000 0.41260000
vn 0.97560000 -0.02010000 0.21880000
vn 0.00010000 -1.00000000 0.00010000
vn 0.00010000 -1.00000000 -0.00000000
vn -0.00000000 -1.00000000 -0.00000000
vn 0.92990000 -0.04760000 0.36480000
vn 0.00010000 -1.00000000 0.00010000
vn 0.00010000 -1.00000000 -0.00000000
vn 0.94800000 0.07230000 0.31000000
vn -0.00010000 -1.00000000 -0.00000000
vn 0.69630000 0.02980000 0.71710000
vn 0.68110000 -0.00570000 0.73220000
vn 0.33530000 0.01840000 0.94190000
vn 0.34840000 -0.00590000 0.93730000
vn -0.00010000 -1.00000000 -0.00010000
vn -0.00000000 -1.00000000 -0.00000000
vn -0.00010000 -1.00000000 -0.00000000
vn 0.69630000 0.02980000 0.71710000
vn 0.33530000 0.01840000 0.94190000
vn -0.14090000 0.10170000 0.98480000
vn -0.06590000 -0.01720000 0.99770000
vn -0.00000000 -1.00000000 -0.00000000
vn -0.00000000 -1.00000000 -0.00000000
vn -0.43240000 -0.13860000 0.89100000
vn -0.65150000 0.14350000 0.74490000
vn -0.00010000 -1.00000000 0.00010000
vn -0.14090000 0.10170000 0.98480000
vn -0.00010000 -1.00000000 0.00010000
vn -0.00000000 -1.00000000 0.00010000
vn -0.91350000 0.09980000 0.39440000
vn -0.00010000 -1.00000000 -0.00000000
vn -0.65150000 0.14350000 0.74490000
vn -0.80860000 -0.12310000 0.57530000
vn -0.00000000 -1.00000000 -0.00000000
vn -0.00010000 -1.00000000 -0.00000000
vn -0.98830000 -0.10330000 0.11190000
vn -0.91350000 0.09980000 0.39440000
vn -0.99410000 0.10250000 -0.03660000
vn 0.40610000 0.02570000 0.91350000
vn 0.08810000 -0.08050000 0.99280000
vn -0.76900000 0.06220000 0.63620000
vn -0.00000000 1.00000000 -0.00000000
vn -0.00120000 1.00000000 0.00610000
vn 0.02320000 0.99970000 0.01070000
vn -0.48200000 0.05000000 0.87480000
vn 0.03230000 0.99950000 -0.00180000
vn -0.99560000 -0.07600000 0.05460000
vn -0.18930000 -0.02480000 0.98160000
vn -0.18930000 -0.02480000 0.98160000
vn -0.05030000 0.99850000 -0.02250000
vn 0.78430000 0.03550000 0.61940000
vn -0.03030000 0.99880000 -0.03800000
vn 0.91190000 -0.05020000 0.40740000
vn -0.00120000 1.00000000 0.00610000
vn -0.48200000 0.05000000 0.87480000
vn -0.18930000 -0.02480000 0.98160000
vn -0.00000000 1.00000000 -0.00000000
vn 0.78430000 0.03550000 0.61940000
vn 0.91190000 -0.05020000 0.40740000
vn -0.00000000 1.00000000 -0.00000000
vn 0.78430000 0.03550000 0.61940000
vn 0.48690000 0.05190000 -0.87190000
vn 0.27940000 -0.04150000 0.95930000
vn -0.00920000 0.99950000 -0.03170000
vn 0.03710000 0.99920000 -0.01190000
vn -0.94930000 -0.07590000 0.30510000
vn -0.00220000 0.99890000 -0.04740000
vn 0.03620000 0.99860000 -0.03920000
vn -0.76790000 0.03690000 0.63950000
vn 0.27940000 -0.04150000 0.95930000
vn -0.03240000 0.99950000 -0.00020000
vn 0.99740000 -0.07230000 0.00580000
vn -0.00920000 0.99950000 -0.03170000
vn 0.66700000 0.07800000 0.74100000
vn -0.05020000 0.99850000 -0.02090000
vn -0.76790000 0.03690000 0.63950000
vn 0.27940000 -0.04150000 0.95930000
vn -0.00000000 1.00000000 -0.00000000
vn 0.66700000 0.07800000 0.74100000
vn -0.00000000 1.00000000 -0.00000000
vn 0.61500000 0.08410000 -0.78400000
vn 0.66700000 0.07800000 0.74100000
vn 0.99740000 -0.07230000 0.00580000
vn 0.08490000 0.07830000 0.99330000
vn -0.01590000 0.79400000 0.60770000
vn -0.04290000 -0.04800000 0.99790000
vn 0.08490000 0.07830000 0.99330000
vn -0.01590000 0.79400000 0.60770000
vn 0.00510000 0.44690000 0.89460000
vn 0.41890000 0.68270000 0.59870000
vn 0.57870000 0.26050000 0.77280000
vn 0.57870000 0.26050000 0.77280000
vn 0.08490000 0.07830000 0.99330000
vn 0.79330000 -0.47040000 0.38660000
vn -0.04290000 -0.04800000 0.99790000
vn 0.54420000 0.27590000 0.79220000
vn 0.72140000 -0.55310000 0.41670000
vn -0.03900000 -0.14930000 0.98800000
vn 0.01170000 0.03680000 0.99930000
vn 0.95960000 0.25160000 0.12580000
vn 0.54420000 0.27590000 0.79220000
vn 0.93890000 -0.30750000 0.15480000
vn 0.79330000 -0.47040000 0.38660000
vn 0.95960000 0.25160000 0.12580000
vn 0.41890000 0.68270000 0.59870000
vn 0.54420000 0.27590000 0.79220000
vn 0.42690000 0.83130000 0.35600000
vn 0.83240000 0.49620000 -0.24680000
vn 0.57870000 0.26050000 0.77280000
vn 0.03080000 0.99270000 0.11650000
vn 0.03080000 0.99120000 0.12870000
vn 0.40280000 0.90150000 -0.15820000
vn 0.84950000 0.50430000 0.15500000
vn 0.83240000 0.49620000 -0.24680000
vn 0.42690000 0.83130000 0.35600000
vn 0.00510000 0.44690000 0.89460000
vn 0.42690000 0.83130000 0.35600000
vn -0.25830000 0.90600000 0.33530000
vn -0.27150000 0.70580000 0.65430000
vn 0.03080000 0.99270000 0.11650000
vn 0.41890000 0.68270000 0.59870000
vn -0.72830000 0.67580000 0.11350000
vn -0.72910000 0.67870000 -0.08780000
vn 0.03080000 0.99120000 0.12870000
vn -0.40120000 0.89860000 -0.17780000
vn 0.03080000 0.99270000 0.11650000
vn -0.25830000 0.90600000 0.33530000
vn -0.27150000 0.70580000 0.65430000
vn -0.04290000 -0.04800000 0.99790000
vn -0.01590000 0.79400000 0.60770000
vn 0.00510000 0.44690000 0.89460000
vn 0.01170000 0.03680000 0.99930000
vn -0.53200000 0.45230000 0.71580000
vn 0.93890000 -0.30750000 0.15480000
vn 0.94890000 -0.31270000 0.04310000
vn 0.84950000 0.50430000 0.15500000
vn 0.83240000 0.49620000 -0.24680000
vn 0.95960000 0.25160000 0.12580000
vn 0.92650000 0.37410000 -0.04020000
vn -0.39460000 0.88370000 0.25180000
vn 0.31040000 0.91090000 -0.27200000
vn 0.40280000 0.90150000 -0.15820000
vn -0.40120000 0.89860000 -0.17780000
vn 0.03080000 0.99120000 0.12870000
vn 0.40450000 0.90520000 -0.13030000
vn 0.84950000 0.50430000 0.15500000
vn 0.40280000 0.90150000 -0.15820000
vn 0.92650000 0.37410000 -0.04020000
vn 0.91050000 0.36760000 0.18930000
vn 0.40450000 0.90520000 -0.13030000
vn 0.94890000 -0.31270000 0.04310000
vn 0.96670000 -0.05200000 -0.25070000
vn 0.91050000 0.36760000 0.18930000
vn 0.77120000 -0.58360000 -0.25440000
vn 0.77280000 -0.58490000 0.24660000
vn 0.92650000 0.37410000 -0.04020000
vn 0.92990000 -0.04760000 0.36480000
vn 0.68110000 -0.00570000 0.73220000
vn 0.69630000 0.02980000 0.71710000
vn -0.00000000 -1.00000000 -0.00000000
vn -0.06590000 -0.01720000 0.99770000
vn -0.43240000 -0.13860000 0.89100000
vn -0.14090000 0.10170000 0.98480000
vn -0.00000000 -1.00000000 -0.00000000
vn -0.80860000 -0.12310000 0.57530000
vn -0.91350000 0.09980000 0.39440000
vn -0.00000000 -1.00000000 -0.00000000
vn -0.98830000 -0.10330000 0.11190000
vn 0.33530000 0.01840000 0.94190000
vn -0.00000000 -1.00000000 -0.00000000
vn 0.34840000 -0.00590000 0.93730000
vn -0.06590000 -0.01720000 0.99770000
vn -0.65150000 0.14350000 0.74490000
vn -0.80860000 -0.12310000 0.57530000
vn -0.00000000 -1.00000000 -0.00000000
vn -0.43240000 -0.13860000 0.89100000
vn -0.00000000 -1.00000000 -0.00000000
vn 0.68110000 -0.00570000 0.73220000
vn 0.34840000 -0.00590000 0.93730000
f 20//20 1//1 23//23
f 15//15 10//10 12//12
f 21//21 60//60 2//2
f 18//18 13//13 36//36
f 29//29 34//34 41//41
f 47//47 22//22 24//24
f 48//48 28//28 42//42
f 1034//1034 17//17 39//39
f 46//46 26//26 56//56
f 49//49 40//40 4//4
f 59//59 51//51 3//3
f 9//9 45//45 54//54
f 7//7 53//53 11//11
f 63//63 75//75 70//70
f 66//66 71//71 83//83
f 90//90 80//80 95//95
f 88//88 62//62 78//78
f 85//85 93//93 98//98
f 105//105 89//89 100//100
f 72//72 119//119 111//111
f 81//81 110//110 122//122
f 79//79 68//68 108//108
f 94//94 82//82 125//125
f 92//92 124//124 132//132
f 101//101 131//131 1118//1118
f 96//96 91//91 130//130
f 113//113 117//117 158//158
f 121//121 109//109 145//145
f 129//129 123//123 135//135
f 1119//1119 127//127 141//141
f 134//134 140//140 128//128
f 1129//1129 143//143 154//154
f 147//147 151//151 136//136
f 133//133 149//149 139//139
f 155//155 148//148 112//112
f 156//156 153//153 146//146
f 157//157 1094//1094 152//152
f 144//144 137//137 126//126
f 1128//1128 150//150 1095//1095
f 168//168 1077//1077 160//160
f 167//167 165//165 176//176
f 182//182 169//169 174//174
f 185//185 192//192 198//198
f 220//220 1058//1058 216//216
f 219//219 214//214 225//225
f 232//232 221//221 226//226
f 254//254 247//247 257//257
f 276//276 262//262 267//267
f 275//275 266//266 279//279
f 285//285 273//273 281//281
f 287//287 280//280 293//293
f 298//298 286//286 292//292
f 297//297 294//294 299//299
f 327//327 331//331 341//341
f 349//349 326//326 337//337
f 353//353 348//348 336//336
f 355//355 335//335 359//359
f 364//364 350//350 357//357
f 371//371 360//360 372//372
f 366//366 365//365 358//358
f 378//378 367//367 374//374
f 377//377 373//373 385//385
f 388//388 379//379 382//382
f 392//392 386//386 394//394
f 403//403 393//393 395//395
f 400//400 397//397 405//405
f 408//408 402//402 406//406
f 411//411 407//407 414//414
f 424//424 412//412 831//831
f 401//401 413//413 422//422
f 390//390 399//399 423//423
f 313//313 391//391 425//425
f 426//426 389//389 314//314
f 376//376 387//387 431//431
f 438//438 380//380 430//430
f 368//368 381//381 434//434
f 446//446 369//369 433//433
f 361//361 370//370 442//442
f 248//248 362//362 443//443
f 352//352 363//363 245//245
f 253//253 354//354 246//246
f 346//346 351//351 255//255
f 861//861 328//328 342//342
f 457//457 449//449 463//463
f 520//520 515//515 523//523
f 773//773 794//794 561//561
f 619//619 556//556 564//564
f 565//565 554//554 577//577
f 772//772 558//558 585//585
f 567//567 578//578 590//590
f 584//584 559//559 591//591
f 586//586 576//576 606//606
f 581//581 599//599 611//611
f 612//612 600//600 618//618
f 620//620 598//598 551//551
f 628//628 625//625 529//529
f 627//627 527//527 537//537
f 634//634 626//626 535//535
f 633//633 536//536 540//540
f 632//632 541//541 547//547
f 641//641 637//637 613//613
f 639//639 615//615 621//621
f 647//647 640//640 617//617
f 645//645 771//771 582//582
f 652//652 644//644 580//580
f 649//649 616//616 566//566
f 657//657 648//648 568//568
f 655//655 569//569 587//587
f 638//638 651//651 579//579
f 635//635 583//583 614//614
f 661//661 656//656 589//589
f 658//658 588//588 610//610
f 668//668 718//718 664//664
f 669//669 663//663 677//677
f 682//682 670//670 676//676
f 686//686 683//683 693//693
f 681//681 679//679 692//692
f 460//460 468//468 454//454
f 706//706 691//691 675//675
f 665//665 452//452 456//456
f 710//710 678//678 472//472
f 701//701 689//689 709//709
f 700//700 699//699 717//717
f 704//704 716//716 688//688
f 674//674 453//453 469//469
f 672//672 662//662 455//455
f 475//475 673//673 465//465
f 712//712 447//447 666//666
f 696//696 448//448 715//715
f 687//687 690//690 714//714
f 721//721 684//684 713//713
f 720//720 711//711 667//667
f 680//680 685//685 671//671
f 671//671 685//685 719//719
f 643//643 653//653 636//636
f 654//654 643//643 650//650
f 654//654 725//725 643//643
f 654//654 729//729 725//725
f 654//654 731//731 729//729
f 660//660 731//731 654//654
f 642//642 643//643 636//636
f 739//739 736//736 731//731
f 739//739 731//731 660//660
f 650//650 643//643 642//642
f 629//629 631//631 624//624
f 631//631 742//742 624//624
f 733//733 749//749 756//756
f 727//727 732//732 757//757
f 741//741 659//659 604//604
f 740//740 602//602 759//759
f 728//728 758//758 767//767
f 724//724 726//726 764//764
f 738//738 762//762 746//746
f 735//735 737//737 748//748
f 723//723 765//765 774//774
f 646//646 722//722 769//769
f 730//730 734//734 750//750
f 744//744 630//630 544//544
f 743//743 543//543 778//778
f 622//622 745//745 777//777
f 623//623 781//781 528//528
f 753//753 785//785 763//763
f 766//766 784//784 793//793
f 761//761 601//601 803//803
f 768//768 792//792 770//770
f 760//760 802//802 752//752
f 747//747 804//804 806//806
f 751//751 809//809 754//754
f 755//755 808//808 788//788
f 482//482 477//477 844//844
f 344//344 258//258 508//508
f 186//186 553//553 187//187
f 489//489 480//480 845//845
f 526//526 511//511 791//791
f 252//252 260//260 345//345
f 244//244 440//440 241//241
f 450//450 814//814 461//461
f 184//184 573//573 552//552
f 466//466 464//464 826//826
f 694//694 819//819 451//451
f 782//782 525//525 790//790
f 697//697 834//834 815//815
f 571//571 183//183 200//200
f 471//471 467//467 827//827
f 783//783 323//323 524//524
f 532//532 531//531 822//822
f 570//570 195//195 205//205
f 533//533 824//824 843//843
f 780//780 470//470 825//825
f 779//779 823//823 530//530
f 855//855 208//208 494//494
f 539//539 534//534 840//840
f 789//789 320//320 325//325
f 437//437 427//427 317//317
f 853//853 204//204 206//206
f 593//593 702//702 707//707
f 594//594 563//563 703//703
f 562//562 698//698 705//705
f 439//439 316//316 787//787
f 592//592 708//708 473//473
f 854//854 572//572 202//202
f 548//548 538//538 838//838
f 857//857 575//575 849//849
f 595//595 474//474 776//776
f 560//560 832//832 695//695
f 436//436 786//786 810//810
f 860//860 608//608 574//574
f 796//796 833//833 557//557
f 597//597 775//775 542//542
f 797//797 421//421 829//829
f 501//501 497//497 801//801
f 237//237 800//800 496//496
f 555//555 596//596 549//549
f 502//502 799//799 609//609
f 238//238 807//807 798//798
f 504//504 503//503 607//607
f 444//444 435//435 805//805
f 347//347 605//605 858//858
f 309//309 419//419 513//513
f 512//512 418//418 795//795
f 343//343 510//510 603//603
f 188//188 546//546 841//841
f 193//193 842//842 476//476
f 445//445 811//811 236//236
f 190//190 550//550 545//545
f 441//441 234//234 243//243
f 311//311 420//420 306//306
f 882//882 868//868 877//877
f 888//888 873//873 866//866
f 64//64 863//863 73//73
f 897//897 867//867 904//904
f 895//895 74//74 865//865
f 106//106 896//896 905//905
f 886//886 61//61 84//84
f 910//910 86//86 102//102
f 911//911 889//889 87//87
f 902//902 908//908 104//104
f 887//887 864//864 65//65
f 913//913 912//912 903//903
f 922//922 330//330 859//859
f 846//846 920//920 856//856
f 488//488 847//847 491//491
f 926//926 848//848 487//487
f 839//839 925//925 486//486
f 933//933 923//923 835//835
f 937//937 930//930 836//836
f 821//821 936//936 837//837
f 945//945 938//938 828//828
f 459//459 947//947 820//820
f 953//953 946//946 458//458
f 812//812 952//952 462//462
f 409//409 817//817 830//830
f 878//878 955//955 872//872
f 876//876 958//958 883//883
f 914//914 963//963 907//907
f 813//813 410//410 416//416
f 816//816 417//417 967//967
f 949//949 818//818 966//966
f 950//950 964//964 975//975
f 944//944 951//951 974//974
f 891//891 972//972 979//979
f 948//948 970//970 890//890
f 875//875 885//885 976//976
f 906//906 942//942 884//884
f 962//962 941//941 909//909
f 957//957 874//874 977//977
f 939//939 943//943 961//961
f 915//915 935//935 960//960
f 879//879 959//959 982//982
f 983//983 881//881 980//980
f 956//956 880//880 986//986
f 931//931 940//940 917//917
f 932//932 916//916 901//901
f 862//862 987//987 993//993
f 871//871 954//954 988//988
f 928//928 934//934 899//899
f 929//929 900//900 870//870
f 927//927 869//869 989//989
f 851//851 924//924 990//990
f 850//850 991//991 996//996
f 919//919 852//852 997//997
f 918//918 998//998 334//334
f 329//329 921//921 333//333
f 396//396 16//16 404//404
f 1013//1013 1006//1006 992//992
f 383//383 375//375 44//44
f 396//396 8//8 16//16
f 1003//1003 999//999 995//995
f 383//383 44//44 8//8
f 384//384 6//6 398//398
f 1011//1011 994//994 985//985
f 1018//1018 1012//1012 984//984
f 31//31 1000//1000 1004//1004
f 27//27 332//332 1001//1001
f 1018//1018 984//984 978//978
f 1019//1019 1018//1018 978//978
f 340//340 332//332 27//27
f 50//50 338//338 31//31
f 971//971 1022//1022 981//981
f 1024//1024 1022//1022 971//971
f 57//57 339//339 52//52
f 969//969 1025//1025 973//973
f 356//356 340//340 58//58
f 1031//1031 1027//1027 968//968
f 415//415 1030//1030 965//965
f 19//19 356//356 58//58
f 375//375 356//356 19//19
f 375//375 19//19 44//44
f 404//404 16//16 1030//1030
f 404//404 1030//1030 415//415
f 324//324 291//291 521//521
f 322//322 300//300 290//290
f 429//429 269//269 304//304
f 283//283 307//307 514//514
f 318//318 303//303 321//321
f 319//319 428//428 305//305
f 272//272 308//308 278//278
f 277//277 516//516 519//519
f 288//288 282//282 517//517
f 271//271 315//315 310//310
f 522//522 289//289 518//518
f 432//432 312//312 268//268
f 1037//1037 295//295 302//302
f 1036//1036 301//301 265//265
f 263//263 1035//1035 270//270
f 284//284 296//296 274//274
f 274//274 296//296 264//264
f 296//296 1038//1038 264//264
f 500//500 506//506 498//498
f 259//259 1042//1042 228//228
f 249//249 1050//1050 1039//1039
f 250//250 240//240 1048//1048
f 212//212 499//499 505//505
f 211//211 233//233 495//495
f 251//251 1040//1040 256//256
f 224//224 218//218 507//507
f 217//217 242//242 235//235
f 1046//1046 239//239 213//213
f 261//261 223//223 509//509
f 230//230 227//227 1043//1043
f 1051//1051 231//231 1041//1041
f 1052//1052 1044//1044 1045//1045
f 1057//1057 1054//1054 1047//1047
f 1055//1055 1049//1049 215//215
f 222//222 229//229 1056//1056
f 229//229 1053//1053 1056//1056
f 209//209 175//175 493//493
f 164//164 191//191 478//478
f 203//203 197//197 1063//1063
f 210//210 1061//1061 178//178
f 166//166 479//479 484//484
f 177//177 481//481 485//485
f 171//171 162//162 483//483
f 207//207 201//201 1064//1064
f 1067//1067 194//194 161//161
f 1071//1071 199//199 189//189
f 492//492 172//172 490//490
f 1060//1060 196//196 1069//1069
f 1072//1072 179//179 1065//1065
f 180//180 173//173 1062//1062
f 1073//1073 1059//1059 1066//1066
f 1078//1078 1075//1075 1070//1070
f 1079//1079 1068//1068 163//163
f 170//170 181//181 1076//1076
f 181//181 1074//1074 1076//1076
f 1089//1089 1083//1083 1080//1080
f 1091//1091 1082//1082 1125//1125
f 1093//1093 159//159 116//116
f 1092//1092 1097//1097 1102//1102
f 1099//1099 1090//1090 115//115
f 1113//1113 1103//1103 1111//1111
f 1117//1117 1086//1086 1101//1101
f 1087//1087 1088//1088 1105//1105
f 1116//1116 1106//1106 1122//1122
f 142//142 1114//1114 1123//1123
f 1124//1124 1115//1115 138//138
f 1126//1126 1081//1081 1084//1084
f 1127//1127 1085//1085 1112//1112
f 1133//1133 1110//1110 1104//1104
f 1134//1134 1100//1100 1096//1096
f 1130//1130 1098//1098 120//120
f 1139//1139 97//97 1121//1121
f 1140//1140 1120//1120 1107//1107
f 1143//1143 1138//1138 1108//1108
f 1142//1142 1109//1109 1132//1132
f 1152//1152 1144//1144 1135//1135
f 1147//1147 1131//1131 114//114
f 69//69 1150//1150 118//118
f 107//107 99//99 1136//1136
f 893//893 1141//1141 1146//1146
f 892//892 103//103 1137//1137
f 898//898 1145//1145 1149//1149
f 76//76 894//894 1148//1148
f 77//77 1151//1151 67//67
f 1007//1007 1014//1014 1155//1155
f 1020//1020 1172//1172 1158//1158
f 1032//1032 37//37 1164//1164
f 1002//1002 1153//1153 33//33
f 1017//1017 1157//1157 1168//1168
f 1016//1016 1023//1023 1159//1159
f 30//30 1005//1005 35//35
f 1026//1026 1033//1033 1162//1162
f 1029//1029 1161//1161 1170//1170
f 1010//1010 1167//1167 1175//1175
f 1009//1009 1015//1015 1165//1165
f 1021//1021 1028//1028 1169//1169
f 1008//1008 1174//1174 1154//1154
f 1160//1160 32//32 1166//1166
f 1160//1160 43//43 32//32
f 25//25 5//5 1163//1163
f 1171//1171 43//43 1160//1160
f 38//38 25//25 1163//1163
f 14//14 25//25 38//38
f 14//14 55//55 25//25
f 1166//1166 1156//1156 1173//1173
f 1163//1163 5//5 43//43
f 1163//1163 43//43 1171//1171
f 1166//1166 32//32 1156//1156

