mtllib material.mtl
usemtl Rubber_Black_002_COLOR_0.001
v -0.01301200 0.07376200 0.08663000
v -0.01301200 0.07376200 0.08663000
v 0.00072400 -0.00040900 0.08663000
v 0.00072400 -0.00040900 0.08663000
v -0.02562300 0.07037600 0.08663000
v -0.02562300 0.07037600 0.08663000
v -0.03746500 0.06485800 0.08663000
v -0.03746500 0.06485800 0.08663000
v -0.03746500 0.06485800 0.08663000
v -0.04816200 0.05737200 0.08663000
v -0.04816200 0.05737200 0.08663000
v -0.05739600 0.04812900 0.08663000
v -0.05739600 0.04812900 0.08663000
v -0.06488200 0.03743100 0.08663000
v -0.06488200 0.03743100 0.08663000
v -0.07040900 0.02559900 0.08663000
v -0.07040900 0.02559900 0.08663000
v -0.07378600 0.01297900 0.08663000
v -0.07378600 0.01297900 0.08663000
v -0.07492100 -0.00002500 0.08663000
v -0.07492100 -0.00002500 0.08663000
v -0.07378600 -0.01303800 0.08663000
v -0.07378600 -0.01303800 0.08663000
v -0.07040900 -0.02564800 0.08663000
v -0.07040900 -0.02564800 0.08663000
v -0.06488200 -0.03749000 0.08663000
v -0.06488200 -0.03749000 0.08663000
v -0.05739600 -0.04818800 0.08663000
v -0.05739600 -0.04818800 0.08663000
v -0.04816200 -0.05742100 0.08663000
v -0.04816200 -0.05742100 0.08663000
v -0.03746500 -0.06491600 0.08663000
v -0.03746500 -0.06491600 0.08663000
v -0.03746500 -0.06491600 0.08663000
v -0.02562300 -0.07043400 0.08663000
v -0.02562300 -0.07043400 0.08663000
v -0.01301200 -0.07381100 0.08663000
v -0.01301200 -0.07381100 0.08663000
v 0.00000100 -0.07494600 0.08663000
v 0.00000100 -0.07494600 0.08663000
v 0.01301400 -0.07381100 0.08663000
v 0.01301400 -0.07381100 0.08663000
v 0.02562400 -0.07043400 0.08663000
v 0.02562400 -0.07043400 0.08663000
v 0.03746600 -0.06491600 0.08663000
v 0.03746600 -0.06491600 0.08663000
v 0.04816400 -0.05742100 0.08663000
v 0.04816400 -0.05742100 0.08663000
v 0.05739700 -0.04818800 0.08663000
v 0.05739700 -0.04818800 0.08663000
v 0.06488300 -0.03749000 0.08663000
v 0.06488300 -0.03749000 0.08663000
v 0.07040100 -0.02564800 0.08663000
v 0.07040100 -0.02564800 0.08663000
v 0.07378700 -0.01303800 0.08663000
v 0.07378700 -0.01303800 0.08663000
v 0.07492200 -0.00002500 0.08663000
v 0.07492200 -0.00002500 0.08663000
v 0.07378700 0.01297900 0.08663000
v 0.07378700 0.01297900 0.08663000
v 0.07040100 0.02559900 0.08663000
v 0.07040100 0.02559900 0.08663000
v 0.06488300 0.03743100 0.08663000
v 0.06488300 0.03743100 0.08663000
v 0.05739700 0.04812900 0.08663000
v 0.05739700 0.04812900 0.08663000
v 0.04816400 0.05737200 0.08663000
v 0.04816400 0.05737200 0.08663000
v 0.03746600 0.06485800 0.08663000
v 0.03746600 0.06485800 0.08663000
v 0.03746600 0.06485800 0.08663000
v 0.02562400 0.07037600 0.08663000
v 0.02562400 0.07037600 0.08663000
v 0.01301400 0.07376200 0.08663000
v 0.01301400 0.07376200 0.08663000
v 0.00000100 0.07489700 0.08663000
v 0.00000100 0.07489700 0.08663000
v 0.00000100 0.07488800 0.10639700
v 0.00000100 0.07488800 0.10639700
v -0.01301200 0.07374400 0.10639700
v -0.01301200 0.07374400 0.10639700
v -0.02564100 0.07036700 0.10639700
v -0.02564100 0.07036700 0.10639700
v -0.03748300 0.06484000 0.10639700
v -0.03748300 0.06484000 0.10639700
v -0.04818100 0.05735400 0.10639700
v -0.04818100 0.05735400 0.10639700
v -0.05742400 0.04811100 0.10639700
v -0.05742400 0.04811100 0.10639700
v -0.06491800 0.03740400 0.10639700
v -0.06491800 0.03740400 0.10639700
v -0.07043700 0.02556200 0.10639700
v -0.07043700 0.02556200 0.10639700
v -0.07382300 0.01294300 0.10639700
v -0.07382300 0.01294300 0.10639700
v -0.07495700 -0.00007000 0.10639700
v -0.07495700 -0.00007000 0.10639700
v -0.07382300 -0.01308300 0.10639700
v -0.07382300 -0.01308300 0.10639700
v -0.07043700 -0.02571200 0.10639700
v -0.07043700 -0.02571200 0.10639700
v -0.06491800 -0.03755400 0.10639700
v -0.06491800 -0.03755400 0.10639700
v -0.05742400 -0.04825200 0.10639700
v -0.05742400 -0.04825200 0.10639700
v -0.04818100 -0.05749400 0.10639700
v -0.04818100 -0.05749400 0.10639700
v -0.03748300 -0.06498900 0.10639700
v -0.03748300 -0.06498900 0.10639700
v -0.03748300 -0.06498900 0.10639700
v -0.02564100 -0.07050800 0.10639700
v -0.02564100 -0.07050800 0.10639700
v -0.01301200 -0.07389400 0.10639700
v -0.01301200 -0.07389400 0.10639700
v 0.00000100 -0.07502800 0.10639700
v 0.00000100 -0.07502800 0.10639700
v 0.01301400 -0.07389400 0.10639700
v 0.01301400 -0.07389400 0.10639700
v 0.02563300 -0.07050800 0.10639700
v 0.02563300 -0.07050800 0.10639700
v 0.03747500 -0.06498900 0.10639700
v 0.03747500 -0.06498900 0.10639700
v 0.04818200 -0.05749400 0.10639700
v 0.04818200 -0.05749400 0.10639700
v 0.05742500 -0.04825200 0.10639700
v 0.05742500 -0.04825200 0.10639700
v 0.06491100 -0.03755400 0.10639700
v 0.06491100 -0.03755400 0.10639700
v 0.07043800 -0.02571200 0.10639700
v 0.07043800 -0.02571200 0.10639700
v 0.07381500 -0.01308300 0.10639700
v 0.07381500 -0.01308300 0.10639700
v 0.07495900 -0.00007000 0.10639700
v 0.07495900 -0.00007000 0.10639700
v 0.07381500 0.01294300 0.10639700
v 0.07381500 0.01294300 0.10639700
v 0.07043800 0.02556200 0.10639700
v 0.07043800 0.02556200 0.10639700
v 0.06491100 0.03740400 0.10639700
v 0.06491100 0.03740400 0.10639700
v 0.05742500 0.04811100 0.10639700
v 0.05742500 0.04811100 0.10639700
v 0.04818200 0.05735400 0.10639700
v 0.04818200 0.05735400 0.10639700
v 0.03747500 0.06484000 0.10639700
v 0.03747500 0.06484000 0.10639700
v 0.02563300 0.07036700 0.10639700
v 0.02563300 0.07036700 0.10639700
v 0.01301400 0.07374400 0.10639700
v 0.01301400 0.07374400 0.10639700
v 0.00000100 -0.00007000 0.10639700
vn -0.17390000 0.98480000 0.00080000
vn -0.00000000 -0.00000000 -1.00000000
vn -0.00000000 -0.00000000 -1.00000000
vn -0.00000000 -0.00000000 -1.00000000
vn -0.34190000 0.93970000 0.00030000
vn -0.00000000 -0.00000000 -1.00000000
vn -0.00000000 -0.00000000 -1.00000000
vn -0.49980000 0.86610000 0.00020000
vn -0.00000000 -0.00000000 -1.00000000
vn -0.64280000 0.76600000 0.00010000
vn -0.00000000 -0.00000000 -1.00000000
vn -0.76620000 0.64260000 -0.00040000
vn -0.00000000 -0.00000000 -1.00000000
vn -0.86590000 0.50030000 -0.00090000
vn -0.00000000 -0.00000000 -1.00000000
vn -0.93970000 0.34210000 -0.00090000
vn -0.00000000 -0.00000000 -1.00000000
vn -0.98480000 0.17360000 -0.00140000
vn -0.00000000 -0.00000000 -1.00000000
vn -1.00000000 0.00010000 -0.00190000
vn -0.00000000 -0.00000000 -1.00000000
vn -0.98490000 -0.17330000 -0.00220000
vn -0.00000000 -0.00000000 -1.00000000
vn -0.93970000 -0.34200000 -0.00250000
vn -0.00000000 -0.00000000 -1.00000000
vn -0.86610000 -0.49980000 -0.00310000
vn -0.00000000 -0.00000000 -1.00000000
vn -0.76610000 -0.64270000 -0.00330000
vn -0.00000000 -0.00000000 -1.00000000
vn -0.64300000 -0.76590000 -0.00340000
vn -0.00000000 -0.00000000 -1.00000000
vn -0.57380000 -0.81900000 -0.00360000
vn -0.42240000 -0.90640000 -0.00370000
vn -0.00000000 -0.00000000 -1.00000000
vn -0.34180000 -0.93970000 -0.00380000
vn -0.00000000 -0.00000000 -1.00000000
vn -0.17350000 -0.98480000 -0.00400000
vn -0.00000000 -0.00000000 -1.00000000
vn -0.00000000 -1.00000000 -0.00420000
vn -0.00000000 -0.00000000 -1.00000000
vn 0.17350000 -0.98480000 -0.00410000
vn -0.00000000 -0.00000000 -1.00000000
vn 0.34200000 -0.93970000 -0.00370000
vn -0.00000000 -0.00000000 -1.00000000
vn 0.50010000 -0.86600000 -0.00340000
vn -0.00000000 -0.00000000 -1.00000000
vn 0.64290000 -0.76590000 -0.00330000
vn -0.00000000 -0.00000000 -1.00000000
vn 0.76620000 -0.64260000 -0.00310000
vn -0.00000000 -0.00000000 -1.00000000
vn 0.86620000 -0.49970000 -0.00280000
vn -0.00000000 -0.00000000 -1.00000000
vn 0.93960000 -0.34210000 -0.00270000
vn -0.00000000 -0.00000000 -1.00000000
vn 0.98480000 -0.17350000 -0.00200000
vn -0.00000000 -0.00000000 -1.00000000
vn 1.00000000 -0.00000000 -0.00170000
vn -0.00000000 -0.00000000 -1.00000000
vn 0.98480000 0.17390000 -0.00120000
vn -0.00000000 -0.00000000 -1.00000000
vn 0.93960000 0.34220000 -0.00100000
vn -0.00000000 -0.00000000 -1.00000000
vn 0.86600000 0.50000000 -0.00060000
vn -0.00000000 -0.00000000 -1.00000000
vn 0.76630000 0.64250000 -0.00040000
vn -0.00000000 -0.00000000 -1.00000000
vn 0.64270000 0.76610000 -0.00000000
vn -0.00000000 -0.00000000 -1.00000000
vn -0.00000000 -0.00000000 -1.00000000
vn 0.49960000 0.86620000 0.00050000
vn -0.00000000 -0.00000000 -1.00000000
vn 0.34220000 0.93960000 0.00040000
vn -0.00000000 -0.00000000 -1.00000000
vn 0.17360000 0.98480000 0.00070000
vn -0.00000000 -0.00000000 -1.00000000
vn -0.00000000 -0.00000000 -1.00000000
vn 0.00010000 1.00000000 0.00060000
vn -0.00000000 -0.00000000 1.00000000
vn 0.00010000 1.00000000 0.00060000
vn -0.00000000 -0.00000000 1.00000000
vn -0.17380000 0.98480000 0.00070000
vn -0.00000000 -0.00000000 1.00000000
vn -0.34190000 0.93970000 0.00020000
vn -0.00000000 -0.00000000 1.00000000
vn -0.50010000 0.86600000 0.00030000
vn -0.00000000 -0.00000000 1.00000000
vn -0.64280000 0.76600000 -0.00000000
vn -0.00000000 -0.00000000 1.00000000
vn -0.76620000 0.64260000 -0.00050000
vn -0.00000000 -0.00000000 1.00000000
vn -0.86610000 0.49990000 -0.00070000
vn -0.00000000 -0.00000000 1.00000000
vn -0.93980000 0.34180000 -0.00080000
vn -0.00000000 -0.00000000 1.00000000
vn -0.98480000 0.17360000 -0.00150000
vn -0.00000000 -0.00000000 1.00000000
vn -1.00000000 -0.00010000 -0.00190000
vn -0.00000000 -0.00000000 1.00000000
vn -0.98480000 -0.17360000 -0.00220000
vn -0.00000000 -0.00000000 1.00000000
vn -0.93960000 -0.34220000 -0.00250000
vn -0.00000000 -0.00000000 1.00000000
vn -0.86600000 -0.50000000 -0.00310000
vn -0.00000000 -0.00000000 1.00000000
vn -0.76590000 -0.64300000 -0.00310000
vn -0.00000000 -0.00000000 1.00000000
vn -0.64280000 -0.76600000 -0.00340000
vn -0.00000000 -0.00000000 1.00000000
vn -0.42240000 -0.90640000 -0.00370000
vn -0.57380000 -0.81900000 -0.00360000
vn -0.00000000 -0.00000000 1.00000000
vn -0.34190000 -0.93970000 -0.00390000
vn -0.00000000 -0.00000000 1.00000000
vn -0.17350000 -0.98480000 -0.00410000
vn -0.00000000 -0.00000000 1.00000000
vn -0.00000000 -1.00000000 -0.00420000
vn -0.00000000 -0.00000000 1.00000000
vn 0.17350000 -0.98480000 -0.00400000
vn -0.00000000 -0.00000000 1.00000000
vn 0.34200000 -0.93970000 -0.00360000
vn -0.00000000 -0.00000000 1.00000000
vn 0.49980000 -0.86610000 -0.00350000
vn -0.00000000 -0.00000000 1.00000000
vn 0.64270000 -0.76610000 -0.00340000
vn -0.00000000 -0.00000000 1.00000000
vn 0.76610000 -0.64270000 -0.00310000
vn -0.00000000 -0.00000000 1.00000000
vn 0.86600000 -0.50000000 -0.00300000
vn -0.00000000 -0.00000000 1.00000000
vn 0.93960000 -0.34230000 -0.00260000
vn -0.00000000 -0.00000000 1.00000000
vn 0.98480000 -0.17360000 -0.00190000
vn -0.00000000 -0.00000000 1.00000000
vn 1.00000000 -0.00020000 -0.00170000
vn -0.00000000 -0.00000000 1.00000000
vn 0.98480000 0.17370000 -0.00120000
vn -0.00000000 -0.00000000 1.00000000
vn 0.93980000 0.34190000 -0.00100000
vn -0.00000000 -0.00000000 1.00000000
vn 0.86610000 0.49980000 -0.00060000
vn -0.00000000 -0.00000000 1.00000000
vn 0.76640000 0.64240000 -0.00040000
vn -0.00000000 -0.00000000 1.00000000
vn 0.64260000 0.76620000 0.00020000
vn -0.00000000 -0.00000000 1.00000000
vn 0.49980000 0.86610000 0.00040000
vn -0.00000000 -0.00000000 1.00000000
vn 0.34220000 0.93960000 0.00050000
vn 0.17360000 0.98480000 0.00080000
vn -0.00000000 -0.00000000 1.00000000
vn -0.00000000 -0.00000000 1.00000000
vt 0.20442200 0.39123400
vt 0.85997900 0.73598400
vt 0.83709700 0.68805100
vt 0.83709700 0.68805100
vt 0.21364000 0.39123400
vt 0.86789500 0.73142900
vt 0.87494400 0.72546500
vt 0.22285800 0.39123400
vt 0.87494400 0.72546500
vt 0.23196700 0.39123400
vt 0.88090900 0.71841500
vt 0.24118500 0.39123400
vt 0.88546400 0.71049900
vt 0.25040300 0.39123400
vt 0.88860800 0.70182300
vt 0.25962100 0.39123400
vt 0.89023500 0.69282200
vt 0.26883900 0.39123400
vt 0.89023500 0.68360400
vt 0.27805700 0.39123400
vt 0.88860800 0.67449500
vt 0.28727500 0.39123400
vt 0.88546400 0.66581900
vt 0.29638400 0.39123400
vt 0.88090900 0.65790200
vt 0.30560200 0.39123400
vt 0.87494400 0.65085400
vt 0.31482000 0.39123400
vt 0.86789500 0.64488900
vt 0.32403800 0.39123400
vt 0.85997900 0.64033400
vt 0.33325600 0.39123400
vt 0.00195300 0.39123400
vt 0.85130300 0.63718900
vt 0.01117100 0.39123400
vt 0.84230200 0.63556300
vt 0.02038900 0.39123400
vt 0.83308400 0.63556300
vt 0.02960700 0.39123400
vt 0.82397500 0.63718900
vt 0.03871600 0.39123400
vt 0.81529900 0.64033400
vt 0.04793400 0.39123400
vt 0.80738200 0.64488900
vt 0.05715200 0.39123400
vt 0.80033300 0.65085400
vt 0.06637000 0.39123400
vt 0.79436900 0.65790200
vt 0.07558800 0.39123400
vt 0.78981400 0.66581900
vt 0.08480600 0.39123400
vt 0.78666900 0.67449500
vt 0.09402400 0.39123400
vt 0.78504200 0.68360400
vt 0.10313300 0.39123400
vt 0.78504200 0.69282200
vt 0.11235100 0.39123400
vt 0.78666900 0.70182300
vt 0.12156900 0.39123400
vt 0.78981400 0.71049900
vt 0.13078700 0.39123400
vt 0.79436900 0.71841500
vt 0.14000500 0.39123400
vt 0.80033300 0.72546500
vt 0.14922300 0.39123400
vt 0.80738200 0.73142900
vt 0.15844100 0.39123400
vt 0.81529900 0.73598400
vt 0.82397500 0.73912900
vt 0.16755000 0.39123400
vt 0.82397500 0.73912900
vt 0.17676800 0.39123400
vt 0.83308400 0.74075500
vt 0.18598600 0.39123400
vt 0.84230200 0.74075500
vt 0.85130300 0.73912900
vt 0.19520400 0.39123400
vt 0.47206700 0.73804400
vt 0.19520400 0.40522300
vt 0.46621100 0.73099500
vt 0.20442200 0.40522300
vt 0.46154800 0.72307900
vt 0.21364000 0.40522300
vt 0.45840300 0.71440300
vt 0.22285800 0.40522300
vt 0.45677600 0.70529400
vt 0.23196700 0.40522300
vt 0.45677600 0.69607600
vt 0.24118500 0.40522300
vt 0.45840300 0.68707500
vt 0.25040300 0.40522300
vt 0.46154800 0.67839900
vt 0.25962100 0.40522300
vt 0.46621100 0.67048200
vt 0.26883900 0.40522300
vt 0.47206700 0.66343300
vt 0.27805700 0.40522300
vt 0.47911600 0.65746900
vt 0.28727500 0.40522300
vt 0.48714100 0.65291400
vt 0.29638400 0.40522300
vt 0.49581700 0.64976900
vt 0.30560200 0.40522300
vt 0.50481800 0.64814200
vt 0.31482000 0.40522300
vt 0.51403600 0.64814200
vt 0.32403800 0.40522300
vt 0.52314500 0.64976900
vt 0.00195300 0.40522300
vt 0.33325600 0.40522300
vt 0.53171200 0.65291400
vt 0.01117100 0.40522300
vt 0.53973700 0.65746900
vt 0.02038900 0.40522300
vt 0.54678600 0.66343300
vt 0.02960700 0.40522300
vt 0.55264200 0.67048200
vt 0.03871600 0.40522300
vt 0.55730600 0.67839900
vt 0.04793400 0.40522300
vt 0.56045000 0.68707500
vt 0.05715200 0.40522300
vt 0.56207700 0.69607600
vt 0.06637000 0.40522300
vt 0.56207700 0.70529400
vt 0.07558800 0.40522300
vt 0.56045000 0.71440300
vt 0.08480600 0.40522300
vt 0.55730600 0.72307900
vt 0.09402400 0.40522300
vt 0.55264200 0.73099500
vt 0.10313300 0.40522300
vt 0.54678600 0.73804400
vt 0.11235100 0.40522300
vt 0.53973700 0.74400900
vt 0.12156900 0.40522300
vt 0.53171200 0.74856400
vt 0.13078700 0.40522300
vt 0.52314500 0.75170900
vt 0.14000500 0.40522300
vt 0.51403600 0.75333500
vt 0.14922300 0.40522300
vt 0.50481800 0.75333500
vt 0.15844100 0.40522300
vt 0.49581700 0.75170900
vt 0.16755000 0.40522300
vt 0.48714100 0.74856400
vt 0.17676800 0.40522300
vt 0.18598600 0.40522300
vt 0.47911600 0.74400900
vt 0.50948100 0.70073900
f 2/2/2 4/4/4 6/6/6
f 6/6/6 4/4/4 7/7/7
f 9/9/9 3/3/3 11/11/11
f 11/11/11 3/3/3 13/13/13
f 13/13/13 3/3/3 15/15/15
f 15/15/15 3/3/3 17/17/17
f 17/17/17 3/3/3 19/19/19
f 19/19/19 3/3/3 21/21/21
f 21/21/21 3/3/3 23/23/23
f 23/23/23 3/3/3 25/25/25
f 25/25/25 3/3/3 27/27/27
f 27/27/27 3/3/3 29/29/29
f 29/29/29 3/3/3 31/31/31
f 31/31/31 3/3/3 34/34/34
f 34/34/34 3/3/3 36/36/36
f 36/36/36 3/3/3 38/38/38
f 38/38/38 3/3/3 40/40/40
f 40/40/40 3/3/3 42/42/42
f 42/42/42 3/3/3 44/44/44
f 44/44/44 3/3/3 46/46/46
f 46/46/46 3/3/3 48/48/48
f 48/48/48 3/3/3 50/50/50
f 50/50/50 3/3/3 52/52/52
f 52/52/52 3/3/3 54/54/54
f 54/54/54 3/3/3 56/56/56
f 56/56/56 3/3/3 58/58/58
f 58/58/58 3/3/3 60/60/60
f 60/60/60 3/3/3 62/62/62
f 62/62/62 3/3/3 64/64/64
f 64/64/64 3/3/3 66/66/66
f 66/66/66 3/3/3 68/68/68
f 68/68/68 3/3/3 69/69/69
f 71/71/71 4/4/4 73/73/73
f 73/73/73 4/4/4 75/75/75
f 75/75/75 4/4/4 76/76/76
f 4/4/4 2/2/2 76/76/76
f 77/77/77 1/1/1 79/79/79
f 79/79/79 1/1/1 81/81/81
f 1/1/1 5/5/5 81/81/81
f 81/81/81 5/5/5 83/83/83
f 5/5/5 8/8/8 83/83/83
f 83/83/83 8/8/8 85/85/85
f 8/8/8 10/10/10 85/85/85
f 85/85/85 10/10/10 87/87/87
f 10/10/10 12/12/12 87/87/87
f 87/87/87 12/12/12 89/89/89
f 12/12/12 14/14/14 89/89/89
f 89/89/89 14/14/14 91/91/91
f 14/14/14 16/16/16 91/91/91
f 91/91/91 16/16/16 93/93/93
f 16/16/16 18/18/18 93/93/93
f 93/93/93 18/18/18 95/95/95
f 18/18/18 20/20/20 95/95/95
f 95/95/95 20/20/20 97/97/97
f 20/20/20 22/22/22 97/97/97
f 97/97/97 22/22/22 99/99/99
f 22/22/22 24/24/24 99/99/99
f 99/99/99 24/24/24 101/101/101
f 24/24/24 26/26/26 101/101/101
f 101/101/101 26/26/26 103/103/103
f 26/26/26 28/28/28 103/103/103
f 103/103/103 28/28/28 105/105/105
f 28/28/28 30/30/30 105/105/105
f 105/105/105 30/30/30 107/107/107
f 30/30/30 32/32/32 107/107/107
f 107/107/107 32/32/32 110/110/110
f 33/33/33 35/35/35 109/109/109
f 109/109/109 35/35/35 112/112/112
f 35/35/35 37/37/37 112/112/112
f 112/112/112 37/37/37 114/114/114
f 37/37/37 39/39/39 114/114/114
f 114/114/114 39/39/39 116/116/116
f 39/39/39 41/41/41 116/116/116
f 116/116/116 41/41/41 118/118/118
f 41/41/41 43/43/43 118/118/118
f 118/118/118 43/43/43 120/120/120
f 43/43/43 45/45/45 120/120/120
f 120/120/120 45/45/45 122/122/122
f 45/45/45 47/47/47 122/122/122
f 122/122/122 47/47/47 124/124/124
f 47/47/47 49/49/49 124/124/124
f 124/124/124 49/49/49 126/126/126
f 49/49/49 51/51/51 126/126/126
f 126/126/126 51/51/51 128/128/128
f 51/51/51 53/53/53 128/128/128
f 128/128/128 53/53/53 130/130/130
f 53/53/53 55/55/55 130/130/130
f 130/130/130 55/55/55 132/132/132
f 55/55/55 57/57/57 132/132/132
f 132/132/132 57/57/57 134/134/134
f 57/57/57 59/59/59 134/134/134
f 134/134/134 59/59/59 136/136/136
f 59/59/59 61/61/61 136/136/136
f 136/136/136 61/61/61 138/138/138
f 61/61/61 63/63/63 138/138/138
f 138/138/138 63/63/63 140/140/140
f 63/63/63 65/65/65 140/140/140
f 140/140/140 65/65/65 142/142/142
f 65/65/65 67/67/67 142/142/142
f 142/142/142 67/67/67 144/144/144
f 67/67/67 70/70/70 144/144/144
f 144/144/144 70/70/70 146/146/146
f 70/70/70 72/72/72 146/146/146
f 146/146/146 72/72/72 148/148/148
f 72/72/72 74/74/74 148/148/148
f 148/148/148 74/74/74 149/149/149
f 74/74/74 77/77/77 149/149/149
f 77/77/77 79/79/79 149/149/149
f 150/150/150 78/78/78 151/151/151
f 78/78/78 80/80/80 151/151/151
f 80/80/80 82/82/82 151/151/151
f 82/82/82 84/84/84 151/151/151
f 84/84/84 86/86/86 151/151/151
f 86/86/86 88/88/88 151/151/151
f 88/88/88 90/90/90 151/151/151
f 90/90/90 92/92/92 151/151/151
f 92/92/92 94/94/94 151/151/151
f 94/94/94 96/96/96 151/151/151
f 96/96/96 98/98/98 151/151/151
f 98/98/98 100/100/100 151/151/151
f 100/100/100 102/102/102 151/151/151
f 102/102/102 104/104/104 151/151/151
f 104/104/104 106/106/106 151/151/151
f 106/106/106 108/108/108 151/151/151
f 108/108/108 111/111/111 151/151/151
f 111/111/111 113/113/113 151/151/151
f 113/113/113 115/115/115 151/151/151
f 115/115/115 117/117/117 151/151/151
f 117/117/117 119/119/119 151/151/151
f 119/119/119 121/121/121 151/151/151
f 121/121/121 123/123/123 151/151/151
f 123/123/123 125/125/125 151/151/151
f 125/125/125 127/127/127 151/151/151
f 127/127/127 129/129/129 151/151/151
f 129/129/129 131/131/131 151/151/151
f 131/131/131 133/133/133 151/151/151
f 133/133/133 135/135/135 151/151/151
f 135/135/135 137/137/137 151/151/151
f 137/137/137 139/139/139 151/151/151
f 139/139/139 141/141/141 151/151/151
f 141/141/141 143/143/143 151/151/151
f 143/143/143 145/145/145 151/151/151
f 145/145/145 147/147/147 151/151/151
f 150/150/150 151/151/151 147/147/147

