mtllib material.mtl
usemtl LED_001_COLOR_0
v 0.07040100 -0.02564900 0.08663000
v 0.07040100 -0.02564900 0.08663000
v -0.00000200 -0.00002900 0.08663000
v 0.06488500 -0.03748500 0.08663000
v 0.06488500 -0.03748500 0.08663000
v 0.05739400 -0.04818600 0.08663000
v 0.05739400 -0.04818600 0.08663000
v 0.04815600 -0.05742500 0.08663000
v 0.04815600 -0.05742500 0.08663000
v 0.03746300 -0.06491600 0.08663000
v 0.03746300 -0.06491600 0.08663000
v 0.02562700 -0.07043200 0.08663000
v 0.02562700 -0.07043200 0.08663000
v 0.01301400 -0.07381600 0.08663000
v 0.01301400 -0.07381600 0.08663000
v -0.00000200 -0.07495000 0.08663000
v -0.00000200 -0.07495000 0.08663000
v -0.01300900 -0.07381600 0.08663000
v -0.01300900 -0.07381600 0.08663000
v -0.02562200 -0.07043200 0.08663000
v -0.02562200 -0.07043200 0.08663000
v -0.03745800 -0.06491600 0.08663000
v -0.03745800 -0.06491600 0.08663000
v -0.04816000 -0.05742500 0.08663000
v -0.04816000 -0.05742500 0.08663000
v -0.05739800 -0.04818600 0.08663000
v -0.05739800 -0.04818600 0.08663000
v -0.06488900 -0.03748500 0.08663000
v -0.06488900 -0.03748500 0.08663000
v -0.06488900 -0.03748500 0.08663000
v -0.07040500 -0.02564900 0.08663000
v -0.07040500 -0.02564900 0.08663000
v -0.07378900 -0.01303500 0.08663000
v -0.07378900 -0.01303500 0.08663000
v -0.07492300 -0.00002900 0.08663000
v -0.07492300 -0.00002900 0.08663000
v -0.07378900 0.01298700 0.08663000
v -0.07378900 0.01298700 0.08663000
v -0.07040500 0.02560100 0.08663000
v -0.07040500 0.02560100 0.08663000
v -0.06488900 0.03743700 0.08663000
v -0.06488900 0.03743700 0.08663000
v -0.05739800 0.04812900 0.08663000
v -0.05739800 0.04812900 0.08663000
v -0.04816000 0.05736700 0.08663000
v -0.04816000 0.05736700 0.08663000
v -0.03745800 0.06485900 0.08663000
v -0.03745800 0.06485900 0.08663000
v -0.02562200 0.07037400 0.08663000
v -0.02562200 0.07037400 0.08663000
v -0.01300900 0.07375800 0.08663000
v -0.01300900 0.07375800 0.08663000
v -0.00000200 0.07489300 0.08663000
v -0.00000200 0.07489300 0.08663000
v 0.01301400 0.07375800 0.08663000
v 0.01301400 0.07375800 0.08663000
v 0.02562700 0.07037400 0.08663000
v 0.02562700 0.07037400 0.08663000
v 0.03746300 0.06485900 0.08663000
v 0.03746300 0.06485900 0.08663000
v 0.04815600 0.05736700 0.08663000
v 0.04815600 0.05736700 0.08663000
v 0.05739400 0.04812900 0.08663000
v 0.05739400 0.04812900 0.08663000
v 0.06488500 0.03743700 0.08663000
v 0.06488500 0.03743700 0.08663000
v 0.07040100 0.02560100 0.08663000
v 0.07040100 0.02560100 0.08663000
v 0.07378500 0.01298700 0.08663000
v 0.07378500 0.01298700 0.08663000
v 0.07491900 -0.00002900 0.08663000
v 0.07491900 -0.00002900 0.08663000
v 0.07378500 -0.01303500 0.08663000
v 0.07378500 -0.01303500 0.08663000
v 0.07039200 -0.02562100 0.07693400
v 0.07039200 -0.02562100 0.07693400
v 0.06486700 -0.03745700 0.07693400
v 0.06486700 -0.03745700 0.07693400
v 0.05738500 -0.04815000 0.07693400
v 0.05738500 -0.04815000 0.07693400
v 0.04814700 -0.05738800 0.07693400
v 0.04814700 -0.05738800 0.07693400
v 0.03745400 -0.06487900 0.07693400
v 0.03745400 -0.06487900 0.07693400
v 0.02561800 -0.07039500 0.07693400
v 0.02561800 -0.07039500 0.07693400
v 0.01300500 -0.07377000 0.07693400
v 0.01300500 -0.07377000 0.07693400
v -0.00000200 -0.07491300 0.07693400
v -0.00000200 -0.07491300 0.07693400
v -0.01300900 -0.07377000 0.07693400
v -0.01300900 -0.07377000 0.07693400
v -0.02562200 -0.07039500 0.07693400
v -0.02562200 -0.07039500 0.07693400
v -0.03744900 -0.06487900 0.07693400
v -0.03744900 -0.06487900 0.07693400
v -0.04815100 -0.05738800 0.07693400
v -0.04815100 -0.05738800 0.07693400
v -0.05738000 -0.04815000 0.07693400
v -0.05738000 -0.04815000 0.07693400
v -0.06487100 -0.03745700 0.07693400
v -0.06487100 -0.03745700 0.07693400
v -0.06487100 -0.03745700 0.07693400
v -0.07038700 -0.02562100 0.07693400
v -0.07038700 -0.02562100 0.07693400
v -0.07377100 -0.01300800 0.07693400
v -0.07377100 -0.01300800 0.07693400
v -0.07490500 -0.00000100 0.07693400
v -0.07490500 -0.00000100 0.07693400
v -0.07377100 0.01300500 0.07693400
v -0.07377100 0.01300500 0.07693400
v -0.07038700 0.02561900 0.07693400
v -0.07038700 0.02561900 0.07693400
v -0.06487100 0.03744600 0.07693400
v -0.06487100 0.03744600 0.07693400
v -0.05738000 0.04814700 0.07693400
v -0.05738000 0.04814700 0.07693400
v -0.04815100 0.05737700 0.07693400
v -0.04815100 0.05737700 0.07693400
v -0.03744900 0.06486800 0.07693400
v -0.03744900 0.06486800 0.07693400
v -0.02562200 0.07038300 0.07693400
v -0.02562200 0.07038300 0.07693400
v -0.01300900 0.07376800 0.07693400
v -0.01300900 0.07376800 0.07693400
v -0.00000200 0.07490200 0.07693400
v -0.00000200 0.07490200 0.07693400
v 0.01300500 0.07376800 0.07693400
v 0.01300500 0.07376800 0.07693400
v 0.02561800 0.07038300 0.07693400
v 0.02561800 0.07038300 0.07693400
v 0.03745400 0.06486800 0.07693400
v 0.03745400 0.06486800 0.07693400
v 0.04814700 0.05737700 0.07693400
v 0.04814700 0.05737700 0.07693400
v 0.05738500 0.04814700 0.07693400
v 0.05738500 0.04814700 0.07693400
v 0.06486700 0.03744600 0.07693400
v 0.06486700 0.03744600 0.07693400
v 0.07039200 0.02561900 0.07693400
v 0.07039200 0.02561900 0.07693400
v 0.07376700 0.01300500 0.07693400
v 0.07376700 0.01300500 0.07693400
v 0.07491000 -0.00000100 0.07693400
v 0.07491000 -0.00000100 0.07693400
v 0.07376700 -0.01300800 0.07693400
v 0.07376700 -0.01300800 0.07693400
v -0.00000200 -0.00000100 0.07693400
vn 0.93960000 -0.34240000 -0.00200000
vn -0.00000000 -0.00000000 1.00000000
vn -0.00000000 -0.00000000 1.00000000
vn 0.86610000 -0.49990000 -0.00300000
vn -0.00000000 -0.00000000 1.00000000
vn 0.76600000 -0.64280000 -0.00310000
vn -0.00000000 -0.00000000 1.00000000
vn 0.64280000 -0.76600000 -0.00350000
vn -0.00000000 -0.00000000 1.00000000
vn 0.49990000 -0.86600000 -0.00370000
vn -0.00000000 -0.00000000 1.00000000
vn 0.34180000 -0.93970000 -0.00410000
vn -0.00000000 -0.00000000 1.00000000
vn 0.17390000 -0.98480000 -0.00460000
vn -0.00000000 -0.00000000 1.00000000
vn -0.00020000 -1.00000000 -0.00400000
vn -0.00000000 -0.00000000 1.00000000
vn -0.17340000 -0.98480000 -0.00450000
vn -0.00000000 -0.00000000 1.00000000
vn -0.34210000 -0.93970000 -0.00360000
vn -0.00000000 -0.00000000 1.00000000
vn -0.49980000 -0.86610000 -0.00370000
vn -0.00000000 -0.00000000 1.00000000
vn -0.64280000 -0.76610000 -0.00360000
vn -0.00000000 -0.00000000 1.00000000
vn -0.76590000 -0.64290000 -0.00380000
vn -0.00000000 -0.00000000 1.00000000
vn -0.81920000 -0.57350000 -0.00320000
vn -0.90640000 -0.42240000 -0.00290000
vn -0.00000000 -0.00000000 1.00000000
vn -0.93960000 -0.34220000 -0.00270000
vn -0.00000000 -0.00000000 1.00000000
vn -0.98480000 -0.17380000 -0.00230000
vn -0.00000000 -0.00000000 1.00000000
vn -1.00000000 -0.00020000 -0.00190000
vn -0.00000000 -0.00000000 1.00000000
vn -0.98480000 0.17350000 -0.00150000
vn -0.00000000 -0.00000000 1.00000000
vn -0.93970000 0.34200000 -0.00120000
vn -0.00000000 -0.00000000 1.00000000
vn -0.86610000 0.49980000 -0.00110000
vn -0.00000000 -0.00000000 1.00000000
vn -0.76610000 0.64280000 -0.00020000
vn -0.00000000 -0.00000000 1.00000000
vn -0.64280000 0.76600000 0.00010000
vn -0.00000000 -0.00000000 1.00000000
vn -0.50000000 0.86600000 0.00040000
vn -0.00000000 -0.00000000 1.00000000
vn -0.34210000 0.93970000 0.00090000
vn -0.00000000 -0.00000000 1.00000000
vn -0.17370000 0.98480000 0.00090000
vn -0.00000000 -0.00000000 1.00000000
vn -0.00000000 1.00000000 0.00090000
vn -0.00000000 -0.00000000 1.00000000
vn 0.17370000 0.98480000 0.00080000
vn -0.00000000 -0.00000000 1.00000000
vn 0.34210000 0.93970000 0.00060000
vn -0.00000000 -0.00000000 1.00000000
vn 0.50010000 0.86600000 0.00030000
vn -0.00000000 -0.00000000 1.00000000
vn 0.64280000 0.76600000 0.00030000
vn -0.00000000 -0.00000000 1.00000000
vn 0.76620000 0.64260000 0.00020000
vn -0.00000000 -0.00000000 1.00000000
vn 0.86590000 0.50020000 -0.00090000
vn -0.00000000 -0.00000000 1.00000000
vn 0.93980000 0.34180000 -0.00040000
vn -0.00000000 -0.00000000 1.00000000
vn 0.98480000 0.17370000 -0.00130000
vn -0.00000000 -0.00000000 1.00000000
vn 1.00000000 -0.00040000 -0.00110000
vn -0.00000000 -0.00000000 1.00000000
vn -0.00000000 -0.00000000 1.00000000
vn 0.98480000 -0.17360000 -0.00220000
vn -0.00000000 -0.00000000 -1.00000000
vn 0.93970000 -0.34210000 -0.00200000
vn -0.00000000 -0.00000000 -1.00000000
vn 0.86610000 -0.49980000 -0.00290000
vn -0.00000000 -0.00000000 -1.00000000
vn 0.76620000 -0.64260000 -0.00320000
vn -0.00000000 -0.00000000 -1.00000000
vn 0.64300000 -0.76590000 -0.00350000
vn -0.00000000 -0.00000000 -1.00000000
vn 0.50010000 -0.86600000 -0.00370000
vn -0.00000000 -0.00000000 -1.00000000
vn 0.34180000 -0.93980000 -0.00390000
vn -0.00000000 -0.00000000 -1.00000000
vn 0.17390000 -0.98480000 -0.00460000
vn -0.00000000 -0.00000000 -1.00000000
vn -0.00020000 -1.00000000 -0.00400000
vn -0.00000000 -0.00000000 -1.00000000
vn -0.17350000 -0.98480000 -0.00450000
vn -0.00000000 -0.00000000 -1.00000000
vn -0.34210000 -0.93960000 -0.00370000
vn -0.00000000 -0.00000000 -1.00000000
vn -0.49990000 -0.86610000 -0.00370000
vn -0.00000000 -0.00000000 -1.00000000
vn -0.64300000 -0.76590000 -0.00350000
vn -0.00000000 -0.00000000 -1.00000000
vn -0.76610000 -0.64270000 -0.00370000
vn -0.00000000 -0.00000000 -1.00000000
vn -0.90640000 -0.42240000 -0.00290000
vn -0.81910000 -0.57360000 -0.00340000
vn -0.00000000 -0.00000000 -1.00000000
vn -0.93970000 -0.34200000 -0.00270000
vn -0.00000000 -0.00000000 -1.00000000
vn -0.98480000 -0.17350000 -0.00230000
vn -0.00000000 -0.00000000 -1.00000000
vn -1.00000000 0.00020000 -0.00190000
vn -0.00000000 -0.00000000 -1.00000000
vn -0.98480000 0.17380000 -0.00150000
vn -0.00000000 -0.00000000 -1.00000000
vn -0.93960000 0.34230000 -0.00110000
vn -0.00000000 -0.00000000 -1.00000000
vn -0.86600000 0.50000000 -0.00110000
vn -0.00000000 -0.00000000 -1.00000000
vn -0.76590000 0.64290000 -0.00030000
vn -0.00000000 -0.00000000 -1.00000000
vn -0.64270000 0.76610000 0.00010000
vn -0.00000000 -0.00000000 -1.00000000
vn -0.49990000 0.86610000 0.00030000
vn -0.00000000 -0.00000000 -1.00000000
vn -0.34210000 0.93970000 0.00080000
vn -0.00000000 -0.00000000 -1.00000000
vn -0.17370000 0.98480000 0.00090000
vn -0.00000000 -0.00000000 -1.00000000
vn -0.00000000 1.00000000 0.00090000
vn -0.00000000 -0.00000000 -1.00000000
vn 0.17360000 0.98480000 0.00080000
vn -0.00000000 -0.00000000 -1.00000000
vn 0.34200000 0.93970000 0.00060000
vn -0.00000000 -0.00000000 -1.00000000
vn 0.49990000 0.86610000 0.00030000
vn -0.00000000 -0.00000000 -1.00000000
vn 0.64260000 0.76620000 0.00010000
vn -0.00000000 -0.00000000 -1.00000000
vn 0.76610000 0.64270000 0.00040000
vn -0.00000000 -0.00000000 -1.00000000
vn 0.86580000 0.50030000 -0.00090000
vn -0.00000000 -0.00000000 -1.00000000
vn 0.93970000 0.34200000 -0.00050000
vn -0.00000000 -0.00000000 -1.00000000
vn 0.98470000 0.17400000 -0.00130000
vn -0.00000000 -0.00000000 -1.00000000
vn 1.00000000 -0.00010000 -0.00110000
vn 0.98490000 -0.17330000 -0.00220000
vn -0.00000000 -0.00000000 -1.00000000
vn -0.00000000 -0.00000000 -1.00000000
vt 0.21354400 0.41161100
vt 0.40311900 0.84557800
vt 0.35052700 0.85013700
vt 0.22277200 0.41161100
vt 0.40156300 0.83646100
vt 0.23200100 0.41161100
vt 0.39833800 0.82778800
vt 0.24111800 0.41161100
vt 0.39377900 0.81989400
vt 0.25034700 0.41161100
vt 0.38788600 0.81277800
vt 0.25957600 0.41161100
vt 0.38077000 0.80688500
vt 0.26869300 0.41161100
vt 0.37287600 0.80232600
vt 0.27792200 0.41161100
vt 0.36420300 0.79921300
vt 0.28715000 0.41161100
vt 0.35519700 0.79754500
vt 0.29637900 0.41161100
vt 0.34596900 0.79754500
vt 0.30549600 0.41161100
vt 0.33685100 0.79921300
vt 0.31472500 0.41161100
vt 0.32829000 0.80232600
vt 0.32395300 0.41161100
vt 0.32028400 0.80688500
vt 0.33318200 0.41161100
vt 0.00195300 0.41161100
vt 0.31316800 0.81277800
vt 0.01118200 0.41161100
vt 0.30727500 0.81989400
vt 0.02029900 0.41161100
vt 0.30271600 0.82778800
vt 0.02952800 0.41161100
vt 0.29960300 0.83646100
vt 0.03875600 0.41161100
vt 0.29793500 0.84557800
vt 0.04798500 0.41161100
vt 0.29793500 0.85469500
vt 0.05710200 0.41161100
vt 0.29960300 0.86381300
vt 0.06633100 0.41161100
vt 0.30271600 0.87248500
vt 0.07555900 0.41161100
vt 0.30727500 0.88038000
vt 0.08478800 0.41161100
vt 0.31316800 0.88749600
vt 0.09390600 0.41161100
vt 0.32028400 0.89338900
vt 0.10313400 0.41161100
vt 0.32829000 0.89794700
vt 0.11236300 0.41161100
vt 0.33685100 0.90117200
vt 0.12159100 0.41161100
vt 0.34596900 0.90272800
vt 0.13070900 0.41161100
vt 0.35519700 0.90272800
vt 0.13993700 0.41161100
vt 0.36420300 0.90117200
vt 0.14916600 0.41161100
vt 0.37287600 0.89794700
vt 0.15839500 0.41161100
vt 0.38077000 0.89338900
vt 0.16751200 0.41161100
vt 0.38788600 0.88749600
vt 0.17674000 0.41161100
vt 0.39377900 0.88038000
vt 0.18596900 0.41161100
vt 0.39833800 0.87248500
vt 0.19519800 0.41161100
vt 0.40156300 0.86381300
vt 0.40311900 0.85469500
vt 0.20431500 0.41161100
vt 0.85554300 0.33533700
vt 0.21354400 0.41850500
vt 0.84642500 0.33366900
vt 0.22277200 0.41850500
vt 0.83786400 0.33055500
vt 0.23200100 0.41850500
vt 0.82985800 0.32599700
vt 0.24111800 0.41850500
vt 0.82285400 0.31999300
vt 0.25034700 0.41850500
vt 0.81684900 0.31298800
vt 0.25957600 0.41850500
vt 0.81229100 0.30498200
vt 0.26869300 0.41850500
vt 0.80917800 0.29642100
vt 0.27792200 0.41850500
vt 0.80751000 0.28730300
vt 0.28715000 0.41850500
vt 0.80751000 0.27818600
vt 0.29637900 0.41850500
vt 0.80917800 0.26906900
vt 0.30549600 0.41850500
vt 0.81229100 0.26039600
vt 0.31472500 0.41850500
vt 0.81684900 0.25250200
vt 0.32395300 0.41850500
vt 0.82285400 0.24538500
vt 0.00195300 0.41850500
vt 0.33318200 0.41850500
vt 0.82985800 0.23949300
vt 0.01118200 0.41850500
vt 0.83786400 0.23493400
vt 0.02029900 0.41850500
vt 0.84642500 0.23170900
vt 0.02952800 0.41850500
vt 0.85554300 0.23015300
vt 0.03875600 0.41850500
vt 0.86477100 0.23015300
vt 0.04798500 0.41850500
vt 0.87377800 0.23170900
vt 0.05710200 0.41850500
vt 0.88245000 0.23493400
vt 0.06633100 0.41850500
vt 0.89034500 0.23949300
vt 0.07555900 0.41850500
vt 0.89746100 0.24538500
vt 0.08478800 0.41850500
vt 0.90335400 0.25250200
vt 0.09390600 0.41850500
vt 0.90791200 0.26039600
vt 0.10313400 0.41850500
vt 0.91113700 0.26906900
vt 0.11236300 0.41850500
vt 0.91269400 0.27818600
vt 0.12159100 0.41850500
vt 0.91269400 0.28730300
vt 0.13070900 0.41850500
vt 0.91113700 0.29642100
vt 0.13993700 0.41850500
vt 0.90791200 0.30498200
vt 0.14916600 0.41850500
vt 0.90335400 0.31298800
vt 0.15839500 0.41850500
vt 0.89746100 0.31999300
vt 0.16751200 0.41850500
vt 0.89034500 0.32599700
vt 0.17674000 0.41850500
vt 0.88245000 0.33055500
vt 0.18596900 0.41850500
vt 0.87377800 0.33366900
vt 0.19519800 0.41850500
vt 0.20431500 0.41850500
vt 0.86477100 0.33533700
vt 0.86010200 0.28274500
f 2/2/2 3/3/3 5/5/5
f 5/5/5 3/3/3 7/7/7
f 7/7/7 3/3/3 9/9/9
f 9/9/9 3/3/3 11/11/11
f 11/11/11 3/3/3 13/13/13
f 13/13/13 3/3/3 15/15/15
f 15/15/15 3/3/3 17/17/17
f 17/17/17 3/3/3 19/19/19
f 19/19/19 3/3/3 21/21/21
f 21/21/21 3/3/3 23/23/23
f 23/23/23 3/3/3 25/25/25
f 25/25/25 3/3/3 27/27/27
f 27/27/27 3/3/3 30/30/30
f 30/30/30 3/3/3 32/32/32
f 32/32/32 3/3/3 34/34/34
f 34/34/34 3/3/3 36/36/36
f 36/36/36 3/3/3 38/38/38
f 38/38/38 3/3/3 40/40/40
f 40/40/40 3/3/3 42/42/42
f 42/42/42 3/3/3 44/44/44
f 44/44/44 3/3/3 46/46/46
f 46/46/46 3/3/3 48/48/48
f 48/48/48 3/3/3 50/50/50
f 50/50/50 3/3/3 52/52/52
f 52/52/52 3/3/3 54/54/54
f 54/54/54 3/3/3 56/56/56
f 56/56/56 3/3/3 58/58/58
f 58/58/58 3/3/3 60/60/60
f 60/60/60 3/3/3 62/62/62
f 62/62/62 3/3/3 64/64/64
f 64/64/64 3/3/3 66/66/66
f 66/66/66 3/3/3 68/68/68
f 68/68/68 3/3/3 70/70/70
f 70/70/70 3/3/3 72/72/72
f 72/72/72 3/3/3 73/73/73
f 3/3/3 2/2/2 73/73/73
f 74/74/74 1/1/1 76/76/76
f 76/76/76 1/1/1 78/78/78
f 1/1/1 4/4/4 78/78/78
f 78/78/78 4/4/4 80/80/80
f 4/4/4 6/6/6 80/80/80
f 80/80/80 6/6/6 82/82/82
f 6/6/6 8/8/8 82/82/82
f 82/82/82 8/8/8 84/84/84
f 8/8/8 10/10/10 84/84/84
f 84/84/84 10/10/10 86/86/86
f 10/10/10 12/12/12 86/86/86
f 86/86/86 12/12/12 88/88/88
f 12/12/12 14/14/14 88/88/88
f 88/88/88 14/14/14 90/90/90
f 14/14/14 16/16/16 90/90/90
f 90/90/90 16/16/16 92/92/92
f 16/16/16 18/18/18 92/92/92
f 92/92/92 18/18/18 94/94/94
f 18/18/18 20/20/20 94/94/94
f 94/94/94 20/20/20 96/96/96
f 20/20/20 22/22/22 96/96/96
f 96/96/96 22/22/22 98/98/98
f 22/22/22 24/24/24 98/98/98
f 98/98/98 24/24/24 100/100/100
f 24/24/24 26/26/26 100/100/100
f 100/100/100 26/26/26 103/103/103
f 26/26/26 28/28/28 103/103/103
f 102/102/102 29/29/29 105/105/105
f 29/29/29 31/31/31 105/105/105
f 105/105/105 31/31/31 107/107/107
f 31/31/31 33/33/33 107/107/107
f 107/107/107 33/33/33 109/109/109
f 33/33/33 35/35/35 109/109/109
f 109/109/109 35/35/35 111/111/111
f 35/35/35 37/37/37 111/111/111
f 111/111/111 37/37/37 113/113/113
f 37/37/37 39/39/39 113/113/113
f 113/113/113 39/39/39 115/115/115
f 39/39/39 41/41/41 115/115/115
f 115/115/115 41/41/41 117/117/117
f 41/41/41 43/43/43 117/117/117
f 117/117/117 43/43/43 119/119/119
f 43/43/43 45/45/45 119/119/119
f 119/119/119 45/45/45 121/121/121
f 45/45/45 47/47/47 121/121/121
f 121/121/121 47/47/47 123/123/123
f 47/47/47 49/49/49 123/123/123
f 123/123/123 49/49/49 125/125/125
f 49/49/49 51/51/51 125/125/125
f 125/125/125 51/51/51 127/127/127
f 51/51/51 53/53/53 127/127/127
f 127/127/127 53/53/53 129/129/129
f 53/53/53 55/55/55 129/129/129
f 129/129/129 55/55/55 131/131/131
f 55/55/55 57/57/57 131/131/131
f 131/131/131 57/57/57 133/133/133
f 57/57/57 59/59/59 133/133/133
f 133/133/133 59/59/59 135/135/135
f 59/59/59 61/61/61 135/135/135
f 135/135/135 61/61/61 137/137/137
f 61/61/61 63/63/63 137/137/137
f 137/137/137 63/63/63 139/139/139
f 63/63/63 65/65/65 139/139/139
f 139/139/139 65/65/65 141/141/141
f 65/65/65 67/67/67 141/141/141
f 141/141/141 67/67/67 143/143/143
f 67/67/67 69/69/69 143/143/143
f 143/143/143 69/69/69 145/145/145
f 69/69/69 71/71/71 145/145/145
f 145/145/145 71/71/71 146/146/146
f 71/71/71 74/74/74 146/146/146
f 74/74/74 76/76/76 146/146/146
f 147/147/147 75/75/75 148/148/148
f 75/75/75 77/77/77 148/148/148
f 77/77/77 79/79/79 148/148/148
f 79/79/79 81/81/81 148/148/148
f 81/81/81 83/83/83 148/148/148
f 83/83/83 85/85/85 148/148/148
f 85/85/85 87/87/87 148/148/148
f 87/87/87 89/89/89 148/148/148
f 89/89/89 91/91/91 148/148/148
f 91/91/91 93/93/93 148/148/148
f 93/93/93 95/95/95 148/148/148
f 95/95/95 97/97/97 148/148/148
f 97/97/97 99/99/99 148/148/148
f 99/99/99 101/101/101 148/148/148
f 101/101/101 104/104/104 148/148/148
f 104/104/104 106/106/106 148/148/148
f 106/106/106 108/108/108 148/148/148
f 108/108/108 110/110/110 148/148/148
f 110/110/110 112/112/112 148/148/148
f 112/112/112 114/114/114 148/148/148
f 114/114/114 116/116/116 148/148/148
f 116/116/116 118/118/118 148/148/148
f 118/118/118 120/120/120 148/148/148
f 120/120/120 122/122/122 148/148/148
f 122/122/122 124/124/124 148/148/148
f 124/124/124 126/126/126 148/148/148
f 126/126/126 128/128/128 148/148/148
f 128/128/128 130/130/130 148/148/148
f 130/130/130 132/132/132 148/148/148
f 132/132/132 134/134/134 148/148/148
f 134/134/134 136/136/136 148/148/148
f 136/136/136 138/138/138 148/148/148
f 138/138/138 140/140/140 148/148/148
f 140/140/140 142/142/142 148/148/148
f 142/142/142 144/144/144 148/148/148
f 147/147/147 148/148/148 144/144/144

