mtllib material.mtl
usemtl Material-Metal.026
v 0.05008500 0.02503800 0.03623900
v 0.05005900 0.02590700 0.03652000
v 0.04842500 0.02312500 0.03692300
v 0.04303000 0.02629200 0.03646000
v 0.04394700 0.02381600 0.03657500
v 0.04527600 0.02278900 0.03702500
v 0.04297600 0.02660900 0.03604000
v 0.04995800 0.02714800 0.03592700
v 0.04821200 0.02935800 0.03577900
v 0.04482700 0.02912800 0.03587300
v 0.04383100 0.02764600 0.02830200
v 0.04286000 0.02783200 0.02826300
v 0.04246700 0.02517500 0.02874700
v 0.04655000 0.01897400 -0.00398300
v 0.04929500 0.01568100 -0.00338900
v 0.04564800 0.01474800 -0.00323200
v 0.04286300 0.01685200 -0.00360300
v 0.05098000 0.01920400 -0.00399900
v 0.04239100 0.01959900 -0.00409400
v 0.04911400 0.02228000 -0.00456600
v 0.04618900 0.02312600 -0.00472000
v 0.04341200 0.02185600 -0.00448100
v 0.04873600 0.01532600 -0.00097400
v 0.04628300 0.01471100 -0.00082100
v 0.04312500 0.01618900 -0.00103300
v 0.05050500 0.01686800 -0.00118900
v 0.04164600 0.01948900 -0.00170200
v 0.05131300 0.01948300 -0.00170800
v 0.05022900 0.02232600 -0.00226500
v 0.04315900 0.02262600 -0.00226000
v 0.04523600 0.02378400 -0.00248800
v 0.04729900 0.02400800 -0.00255900
v 0.04807300 0.01503900 -0.00080600
v 0.04499500 0.01497200 -0.00077800
v 0.05045700 0.01675200 -0.00110100
v 0.04267000 0.01681700 -0.00120300
v 0.04219500 0.01930000 -0.00191300
v 0.05085500 0.01989200 -0.00188800
v 0.04226000 0.02107500 -0.00189700
v 0.05057000 0.02187800 -0.00201400
v 0.04364400 0.02309600 -0.00226200
v 0.04827400 0.02367100 -0.00243300
v 0.04599300 0.02397300 -0.00238300
v 0.04779500 0.01530300 -0.00091300
v 0.04498500 0.01551700 -0.00092100
v 0.04315200 0.01679800 -0.00117800
v 0.05024900 0.01726500 -0.00124100
v 0.04302000 0.02175800 -0.00205600
v 0.04955000 0.02237600 -0.00214300
v 0.04495200 0.02324600 -0.00230100
v 0.04717600 0.02355700 -0.00236100
v 0.04709800 0.01617700 0.00477400
v 0.04741400 0.01758200 0.01434200
v 0.04506700 0.01776900 0.01459800
v 0.04960900 0.01852000 0.01319600
v 0.05100400 0.02279400 0.01252500
v 0.04977700 0.02313200 0.00351600
v 0.05059700 0.02443500 0.01345000
v 0.04826000 0.02647500 0.01314100
v 0.04785000 0.02435500 0.00336300
v 0.04593100 0.02651600 0.01275700
v 0.04419100 0.01684700 0.00446800
v 0.04270000 0.01954600 0.01416300
v 0.04966900 0.01744300 0.00433200
v 0.04261100 0.01875100 0.00406200
v 0.05095200 0.02081900 0.01283200
v 0.04205600 0.02147100 0.01273700
v 0.05070300 0.01944500 0.00411000
v 0.04237200 0.02134100 0.00366800
v 0.04242500 0.02388100 0.01233500
v 0.05069300 0.02123100 0.00365900
v 0.04361800 0.02335600 0.00319400
v 0.04412200 0.02568300 0.01200000
v 0.04557300 0.02446000 0.00310100
v 0.04619000 0.01761400 0.01527700
v 0.04407400 0.01835000 0.01556400
v 0.04219000 0.02051700 0.01441400
v 0.04939900 0.01836500 0.01378600
v 0.04918500 0.02629000 0.01407600
v 0.04202100 0.02282300 0.01276100
v 0.04556800 0.02664900 0.01324700
v 0.05117100 0.02249300 0.01339200
v 0.05080100 0.02047700 0.01305800
v 0.04330100 0.02512600 0.01229200
v 0.04687600 0.02061300 0.02212600
v 0.04431600 0.02143600 0.02197200
v 0.04462700 0.01898300 0.02242300
v 0.04993200 0.02018500 0.02220300
v 0.04937200 0.02221500 0.02184400
v 0.04175300 0.02337300 0.02165100
v 0.05118600 0.02253000 0.02158800
v 0.04383300 0.02496000 0.02134800
v 0.05015000 0.02652000 0.02109000
v 0.04864500 0.02559400 0.02125100
v 0.04382700 0.02732600 0.02094600
v 0.04661500 0.02634900 0.02111500
v 0.04746700 0.02796900 0.02062600
v 0.04518600 0.01895000 0.02177700
v 0.04755000 0.01890600 0.02182500
v 0.04351100 0.01993500 0.02161700
v 0.04962800 0.01986300 0.02162600
v 0.04196100 0.02214200 0.02122300
v 0.04428400 0.01884300 0.02006500
v 0.04622300 0.01781700 0.01648600
v 0.04878200 0.01827400 0.01626800
v 0.04392900 0.01913800 0.02014000
v 0.04226800 0.02533000 0.02068200
v 0.04231700 0.02026900 0.01593200
v 0.04353400 0.01906700 0.01786900
v 0.05076500 0.02033400 0.01605200
v 0.05098300 0.02483000 0.02073100
v 0.04184800 0.02288300 0.01562000
v 0.04451700 0.02763200 0.02023800
v 0.05130600 0.02265600 0.01565400
v 0.04965000 0.02690900 0.02035000
v 0.04268300 0.02514200 0.01512500
v 0.05046700 0.02505100 0.01523800
v 0.04537000 0.02704000 0.01476400
v 0.04848600 0.02668800 0.01493400
v 0.04504100 0.01822600 0.01832600
v 0.04655000 0.02611100 0.03649300
v 0.04637700 0.02180100 0.03437900
v 0.04374600 0.02367200 0.03438300
v 0.04257900 0.02576800 0.03369100
v 0.04510700 0.02919900 0.03309500
v 0.04369200 0.02260800 0.03393500
v 0.04373600 0.02833400 0.03304100
v 0.05047200 0.02575900 0.02863700
v 0.05035800 0.02371600 0.02897900
v 0.04921500 0.02778100 0.02828900
v 0.04644800 0.02881400 0.02809100
v 0.04964000 0.02098500 0.02948800
v 0.04630200 0.02077000 0.02951800
v 0.04530900 0.02017300 0.02962000
v 0.04903000 0.02148900 0.02938200
v 0.04340400 0.02207600 0.02932800
v 0.04210400 0.02271600 0.02917500
v 0.05155100 0.02435700 0.02873200
v 0.05107600 0.02692100 0.02829900
v 0.04726300 0.02953800 0.02797300
v 0.04759300 0.01977900 0.02936300
v 0.04411200 0.02032100 0.02929600
v 0.05055400 0.02162000 0.02906100
v 0.04207200 0.02234300 0.02893500
v 0.04153400 0.02513500 0.02842600
v 0.04240900 0.02755500 0.02801600
v 0.04898000 0.02911500 0.02774800
v 0.04536000 0.02959600 0.02767600
v 0.04667700 0.01871700 0.02402400
v 0.05079600 0.02147100 0.02592800
v 0.04826300 0.01977800 0.02627600
v 0.05104300 0.02132300 0.02353800
v 0.04348100 0.02064000 0.02622600
v 0.04218900 0.02111300 0.02360100
v 0.04639200 0.01916900 0.02623800
v 0.04201400 0.02571500 0.02521400
v 0.04202700 0.02607900 0.02275500
v 0.04212400 0.02169900 0.02584100
v 0.04193900 0.02625600 0.02523900
v 0.04661400 0.02920000 0.02455800
v 0.04640300 0.02878500 0.02221900
v 0.04292400 0.02725100 0.02498200
v 0.05122900 0.02317400 0.02559800
v 0.05089100 0.02639500 0.02269600
v 0.05088800 0.02674000 0.02495400
v 0.05077000 0.02621100 0.02245800
v 0.04639000 0.02850300 0.02205900
v 0.05081100 0.02138600 0.02331900
v 0.04660100 0.01888800 0.02375100
v 0.04224300 0.02603700 0.02249700
v 0.04232400 0.02127900 0.02332600
v 0.04479500 0.02135600 0.02332800
v 0.04809700 0.02116300 0.02335200
v 0.04355400 0.02423200 0.02282900
v 0.04950800 0.02386100 0.02287600
v 0.04852800 0.02598700 0.02249600
v 0.04576500 0.02652500 0.02241800
v 0.04889400 0.01978200 0.02633600
v 0.04411600 0.01982900 0.02633900
v 0.04159100 0.02374300 0.02567100
v 0.05162000 0.02456300 0.02547800
v 0.05025700 0.02757500 0.02495400
v 0.04377800 0.02838900 0.02481600
v 0.04731600 0.02912100 0.02466300
vn 0.88280000 -0.26470000 0.38820000
vn 0.71960000 0.12540000 0.68300000
vn 0.38510000 -0.51430000 0.76630000
vn -0.76960000 0.01760000 0.63820000
vn -0.72610000 -0.43440000 0.53300000
vn -0.27870000 -0.58720000 0.75990000
vn -0.94160000 0.26810000 0.20380000
vn 0.82810000 0.41620000 0.37560000
vn 0.33330000 0.79240000 0.51100000
vn -0.39050000 0.74720000 0.53770000
vn -0.42670000 0.58670000 0.68830000
vn -0.41040000 0.59430000 0.69160000
vn -0.98090000 0.14800000 0.12630000
vn 0.00150000 -0.17470000 -0.98460000
vn 0.44350000 -0.66400000 -0.60210000
vn -0.14780000 -0.81550000 -0.55960000
vn -0.59910000 -0.48050000 -0.64050000
vn 0.71960000 -0.08700000 -0.68890000
vn -0.66010000 -0.00720000 -0.75120000
vn 0.41770000 0.41270000 -0.80940000
vn -0.06550000 0.53700000 -0.84100000
vn -0.51700000 0.34790000 -0.78210000
vn 0.46600000 -0.78540000 0.40740000
vn -0.02600000 -0.80500000 0.59280000
vn -0.58350000 -0.40850000 0.70190000
vn 0.89280000 -0.44920000 -0.03430000
vn -0.75270000 0.11240000 0.64870000
vn 0.76740000 0.15660000 0.62170000
vn 0.70860000 0.69930000 0.09360000
vn -0.71620000 0.66040000 0.22580000
vn -0.32960000 0.94370000 0.02740000
vn 0.18710000 0.96420000 0.18770000
vn 0.20280000 -0.82370000 0.52940000
vn -0.52980000 -0.79770000 0.28820000
vn 0.67590000 -0.50910000 0.53290000
vn 0.82500000 0.56500000 0.01200000
vn -0.39530000 0.16410000 0.90380000
vn 0.44650000 0.17170000 0.87820000
vn -0.88930000 0.28150000 0.36050000
vn 0.84240000 0.35390000 0.40630000
vn -0.51930000 0.84750000 0.10950000
vn 0.47110000 0.88160000 -0.02860000
vn -0.09820000 0.91490000 0.39160000
vn 0.16940000 -0.33460000 0.92700000
vn -0.20940000 -0.42210000 0.88200000
vn -0.54210000 -0.24380000 0.80420000
vn 0.52690000 -0.13960000 0.83840000
vn -0.47690000 0.46600000 0.74530000
vn 0.42680000 0.58070000 0.69320000
vn -0.25090000 0.68620000 0.68280000
vn 0.13520000 0.74840000 0.64930000
vn 0.11880000 -0.98050000 0.15660000
vn 0.27410000 -0.90610000 0.32230000
vn -0.34390000 -0.93150000 0.11900000
vn 0.70280000 -0.70560000 0.09020000
vn 0.98120000 0.16190000 -0.10460000
vn 0.75240000 0.64430000 -0.13710000
vn 0.83250000 0.43870000 0.33840000
vn 0.30030000 0.94650000 -0.11830000
vn 0.31150000 0.93260000 -0.18200000
vn -0.08150000 0.96150000 -0.26230000
vn -0.53470000 -0.83450000 0.13340000
vn -0.80640000 -0.57700000 0.12940000
vn 0.71070000 -0.69380000 0.11660000
vn -0.92610000 -0.37300000 0.05730000
vn 0.96280000 -0.25750000 0.08180000
vn -0.99460000 -0.10160000 -0.01970000
vn 0.97190000 -0.23280000 0.03530000
vn -0.97410000 0.22060000 -0.04960000
vn -0.86170000 0.47730000 0.17240000
vn 0.97210000 0.22840000 -0.05310000
vn -0.69420000 0.70620000 -0.13930000
vn -0.53820000 0.83000000 -0.14670000
vn -0.22260000 0.95780000 -0.18170000
vn -0.04340000 -0.99330000 0.10700000
vn -0.54820000 -0.83490000 0.04810000
vn -0.95170000 -0.30690000 0.01360000
vn 0.57640000 -0.81680000 0.02670000
vn 0.56040000 0.80690000 -0.18670000
vn -0.93390000 0.11510000 -0.33850000
vn -0.17800000 0.94610000 -0.27040000
vn 0.99330000 0.07710000 -0.08630000
vn 0.90050000 -0.42930000 -0.06900000
vn -0.67410000 0.58070000 -0.45640000
vn 0.03460000 -0.40170000 0.91510000
vn -0.40600000 -0.17930000 0.89610000
vn -0.35540000 -0.69150000 0.62890000
vn 0.61060000 -0.41200000 0.67640000
vn 0.50370000 -0.04640000 0.86260000
vn -0.84790000 0.10780000 0.51910000
vn 0.77770000 -0.04900000 0.62670000
vn -0.42590000 0.40630000 0.80840000
vn 0.62200000 0.57670000 0.52960000
vn 0.43950000 0.53710000 0.72000000
vn -0.50940000 0.72020000 0.47100000
vn 0.01810000 0.76230000 0.64690000
vn 0.13170000 0.87270000 0.47020000
vn -0.20240000 -0.97640000 0.07490000
vn 0.20020000 -0.84420000 0.49720000
vn -0.73380000 -0.60470000 0.30960000
vn 0.63750000 -0.75630000 0.14670000
vn -0.91680000 -0.28670000 0.27790000
vn -0.43850000 -0.87420000 0.20850000
vn -0.03230000 -0.98870000 0.14670000
vn 0.45950000 -0.88040000 0.11710000
vn -0.64100000 -0.73910000 0.20710000
vn -0.87080000 0.45510000 0.18600000
vn -0.89060000 -0.45450000 0.01820000
vn -0.68150000 -0.72240000 0.11750000
vn 0.88380000 -0.46480000 0.05350000
vn 0.92530000 0.32090000 0.20230000
vn -0.99660000 0.06860000 -0.04510000
vn -0.37180000 0.92820000 -0.01310000
vn 0.99830000 0.04570000 -0.03550000
vn 0.61690000 0.78600000 -0.04100000
vn -0.80110000 0.58490000 -0.12680000
vn 0.83250000 0.52720000 -0.17020000
vn -0.23400000 0.94870000 -0.21270000
vn 0.34120000 0.92040000 -0.19120000
vn -0.00570000 -0.94910000 0.31490000
vn 0.00530000 0.18000000 0.98370000
vn -0.05110000 -0.95910000 0.27840000
vn -0.76090000 -0.45400000 0.46350000
vn -0.98800000 0.05910000 0.14300000
vn -0.35950000 0.93300000 -0.01860000
vn -0.62630000 -0.60160000 0.49580000
vn -0.64590000 0.63640000 0.42170000
vn 0.65420000 0.28590000 0.70020000
vn 0.65260000 -0.05470000 0.75570000
vn 0.45080000 0.63780000 0.62450000
vn -0.01100000 0.71360000 0.70040000
vn 0.45280000 -0.55040000 0.70140000
vn -0.03900000 -0.45890000 0.88760000
vn -0.12830000 -0.58510000 0.80070000
vn 0.34850000 -0.29760000 0.88880000
vn -0.47830000 -0.28190000 0.83170000
vn -0.57940000 -0.05770000 0.81300000
vn 0.78360000 0.02920000 0.62060000
vn 0.70550000 0.45510000 0.54330000
vn 0.11470000 0.91960000 0.37570000
vn 0.17270000 -0.76270000 0.62330000
vn -0.44700000 -0.67710000 0.58460000
vn 0.73520000 -0.44170000 0.51430000
vn -0.82260000 -0.43170000 0.37000000
vn -0.84640000 0.16390000 0.50670000
vn -0.77250000 0.56840000 0.28310000
vn 0.42740000 0.82820000 0.36250000
vn -0.22110000 0.90980000 0.35130000
vn 0.03790000 -0.98240000 -0.18280000
vn 0.82300000 -0.56500000 0.05800000
vn 0.35770000 -0.69410000 -0.62470000
vn 0.80800000 -0.49900000 -0.31330000
vn -0.12410000 -0.59990000 -0.79040000
vn -0.78770000 -0.55860000 -0.25980000
vn -0.07790000 -0.98800000 0.13330000
vn -0.90020000 -0.07710000 -0.42850000
vn -0.85880000 0.35420000 -0.37020000
vn -0.88510000 -0.46410000 0.03390000
vn -0.93190000 0.33780000 -0.13240000
vn -0.01330000 0.95910000 0.28280000
vn -0.02710000 0.84070000 -0.54080000
vn -0.56160000 0.53160000 -0.63400000
vn 0.96610000 -0.16110000 -0.20170000
vn 0.81390000 0.46330000 -0.35060000
vn 0.81010000 0.51080000 0.28770000
vn 0.51660000 0.12140000 -0.84760000
vn -0.02590000 0.26410000 -0.96410000
vn 0.36490000 -0.37710000 -0.85120000
vn -0.04770000 -0.65370000 -0.75530000
vn -0.46700000 0.18690000 -0.86430000
vn -0.48060000 -0.34400000 -0.80660000
vn -0.32120000 -0.61450000 -0.72060000
vn 0.27050000 -0.61370000 -0.74180000
vn -0.52040000 -0.09790000 -0.84830000
vn 0.54940000 -0.10180000 -0.82930000
vn 0.36230000 0.29590000 -0.88380000
vn -0.17180000 0.37680000 -0.91020000
vn 0.38980000 -0.80290000 -0.45100000
vn -0.42100000 -0.76020000 -0.49480000
vn -0.83180000 -0.14150000 -0.53670000
vn 0.83340000 -0.03630000 -0.55150000
vn 0.59320000 0.51450000 -0.61910000
vn -0.42700000 0.55570000 -0.71330000
vn 0.18280000 0.73710000 -0.65050000
f 1//1 2//2 3//3
f 4//4 5//5 6//6
f 7//7 5//5 4//4
f 1//1 8//8 2//2
f 8//8 9//9 2//2
f 10//10 7//7 4//4
f 11//11 12//12 13//13
f 16//16 17//17 14//14
f 14//14 20//20 18//18
f 19//19 14//14 17//17
f 21//21 20//20 14//14
f 14//14 19//19 22//22
f 24//24 16//16 23//23
f 25//25 16//16 24//24
f 15//15 26//26 23//23
f 17//17 16//16 25//25
f 15//15 18//18 26//26
f 27//27 17//17 25//25
f 18//18 28//28 26//26
f 18//18 29//29 28//28
f 22//22 19//19 30//30
f 31//31 22//22 30//30
f 19//19 17//17 27//27
f 18//18 20//20 29//29
f 20//20 32//32 29//29
f 21//21 22//22 31//31
f 20//20 21//21 32//32
f 32//32 21//21 31//31
f 24//24 33//33 34//34
f 24//24 23//23 33//33
f 34//34 25//25 24//24
f 23//23 35//35 33//33
f 34//34 45//45 25//25
f 23//23 26//26 35//35
f 36//36 27//27 25//25
f 37//37 27//27 36//36
f 28//28 38//38 35//35
f 26//26 28//28 35//35
f 39//39 27//27 37//37
f 28//28 40//40 38//38
f 39//39 30//30 27//27
f 28//28 29//29 40//40
f 41//41 30//30 39//39
f 29//29 42//42 40//40
f 29//29 32//32 42//42
f 41//41 31//31 30//30
f 43//43 31//31 41//41
f 32//32 43//43 42//42
f 43//43 32//32 31//31
f 33//33 44//44 34//34
f 44//44 45//45 34//34
f 35//35 44//44 33//33
f 46//46 36//36 45//45
f 47//47 44//44 35//35
f 37//37 36//36 46//46
f 35//35 38//38 47//47
f 48//48 39//39 37//37
f 40//40 49//49 38//38
f 41//41 39//39 48//48
f 42//42 49//49 40//40
f 50//50 41//41 48//48
f 42//42 51//51 49//49
f 43//43 41//41 50//50
f 51//51 43//43 50//50
f 42//42 43//43 51//51
f 52//52 53//53 54//54
f 52//52 55//55 53//53
f 56//56 57//57 58//58
f 57//57 59//59 58//58
f 57//57 60//60 59//59
f 60//60 61//61 59//59
f 54//54 62//62 52//52
f 63//63 62//62 54//54
f 52//52 64//64 55//55
f 65//65 62//62 63//63
f 64//64 68//68 55//55
f 67//67 65//65 63//63
f 69//69 65//65 67//67
f 68//68 71//71 56//56
f 70//70 69//69 67//67
f 71//71 57//57 56//56
f 72//72 69//69 70//70
f 73//73 72//72 70//70
f 74//74 72//72 73//73
f 61//61 74//74 73//73
f 60//60 74//74 61//61
f 62//62 45//45 52//52
f 45//45 44//44 52//52
f 44//44 64//64 52//52
f 46//46 45//45 62//62
f 65//65 46//46 62//62
f 44//44 47//47 64//64
f 47//47 68//68 64//64
f 37//37 46//46 65//65
f 69//69 37//37 65//65
f 47//47 38//38 68//68
f 38//38 71//71 68//68
f 48//48 37//37 69//69
f 38//38 49//49 71//71
f 72//72 48//48 69//69
f 74//74 50//50 72//72
f 50//50 48//48 72//72
f 49//49 60//60 57//57
f 49//49 51//51 60//60
f 51//51 50//50 74//74
f 51//51 74//74 60//60
f 54//54 75//75 76//76
f 63//63 54//54 76//76
f 54//54 53//53 75//75
f 77//77 63//63 76//76
f 53//53 78//78 75//75
f 67//67 63//63 77//77
f 58//58 59//59 79//79
f 53//53 55//55 78//78
f 80//80 67//67 77//77
f 59//59 81//81 79//79
f 82//82 58//58 79//79
f 56//56 58//58 82//82
f 59//59 61//61 81//81
f 66//66 56//56 82//82
f 55//55 83//83 78//78
f 83//83 66//66 82//82
f 55//55 66//66 83//83
f 70//70 67//67 80//80
f 61//61 73//73 81//81
f 73//73 84//84 81//81
f 84//84 70//70 80//80
f 73//73 70//70 84//84
f 85//85 86//86 87//87
f 88//88 85//85 87//87
f 89//89 85//85 88//88
f 86//86 90//90 87//87
f 91//91 89//89 88//88
f 92//92 90//90 86//86
f 93//93 94//94 89//89
f 91//91 93//93 89//89
f 95//95 90//90 92//92
f 93//93 96//96 94//94
f 96//96 95//95 92//92
f 93//93 97//97 96//96
f 97//97 95//95 96//96
f 98//98 99//99 87//87
f 99//99 88//88 87//87
f 100//100 98//98 87//87
f 99//99 101//101 88//88
f 102//102 100//100 87//87
f 90//90 102//102 87//87
f 101//101 91//91 88//88
f 103//103 104//104 98//98
f 104//104 99//99 98//98
f 104//104 105//105 99//99
f 106//106 103//103 98//98
f 105//105 101//101 99//99
f 100//100 106//106 98//98
f 107//107 102//102 90//90
f 108//108 109//109 102//102
f 109//109 106//106 100//100
f 105//105 110//110 101//101
f 110//110 91//91 101//101
f 111//111 93//93 91//91
f 95//95 107//107 90//90
f 112//112 108//108 102//102
f 113//113 107//107 95//95
f 110//110 114//114 91//91
f 111//111 115//115 93//93
f 107//107 112//112 102//102
f 114//114 111//111 91//91
f 115//115 97//97 93//93
f 97//97 113//113 95//95
f 116//116 112//112 107//107
f 114//114 117//117 111//111
f 117//117 115//115 111//111
f 113//113 116//116 107//107
f 118//118 116//116 113//113
f 119//119 97//97 115//115
f 97//97 118//118 113//113
f 119//119 118//118 97//97
f 120//120 104//104 103//103
f 76//76 104//104 120//120
f 109//109 76//76 120//120
f 108//108 76//76 109//109
f 117//117 119//119 115//115
f 75//75 105//105 104//104
f 76//76 75//75 104//104
f 75//75 78//78 105//105
f 78//78 110//110 105//105
f 77//77 76//76 108//108
f 83//83 82//82 114//114
f 78//78 83//83 110//110
f 112//112 80//80 108//108
f 80//80 77//77 108//108
f 116//116 80//80 112//112
f 82//82 117//117 114//114
f 84//84 80//80 116//116
f 82//82 79//79 117//117
f 118//118 84//84 116//116
f 79//79 119//119 117//117
f 81//81 84//84 118//118
f 79//79 118//118 119//119
f 79//79 81//81 118//118
f 109//109 103//103 106//106
f 109//109 120//120 103//103
f 3//3 121//121 6//6
f 2//2 121//121 3//3
f 121//121 4//4 6//6
f 10//10 4//4 121//121
f 9//9 10//10 121//121
f 2//2 9//9 121//121
f 122//122 3//3 6//6
f 5//5 123//123 6//6
f 7//7 123//123 5//5
f 124//124 123//123 7//7
f 125//125 124//124 7//7
f 9//9 125//125 10//10
f 123//123 126//126 122//122
f 124//124 126//126 123//123
f 125//125 127//127 124//124
f 128//128 8//8 1//1
f 129//129 128//128 1//1
f 130//130 9//9 8//8
f 128//128 130//130 8//8
f 125//125 11//11 127//127
f 130//130 131//131 9//9
f 131//131 11//11 125//125
f 131//131 125//125 9//9
f 132//132 133//133 134//134
f 135//135 133//133 132//132
f 133//133 136//136 134//134
f 136//136 137//137 134//134
f 129//129 135//135 132//132
f 138//138 129//129 132//132
f 13//13 137//137 136//136
f 128//128 129//129 138//138
f 12//12 137//137 13//13
f 139//139 128//128 138//138
f 130//130 128//128 139//139
f 140//140 130//130 139//139
f 131//131 12//12 11//11
f 140//140 131//131 130//130
f 140//140 12//12 131//131
f 141//141 132//132 134//134
f 142//142 141//141 134//134
f 141//141 143//143 132//132
f 137//137 142//142 134//134
f 144//144 142//142 137//137
f 143//143 138//138 132//132
f 145//145 144//144 137//137
f 12//12 145//145 137//137
f 146//146 145//145 12//12
f 147//147 140//140 139//139
f 148//148 146//146 12//12
f 140//140 148//148 12//12
f 147//147 148//148 140//140
f 149//149 150//150 151//151
f 149//149 152//152 150//150
f 154//154 149//149 153//153
f 157//157 154//154 156//156
f 159//159 157//157 156//156
f 160//160 161//161 162//162
f 161//161 157//157 162//162
f 162//162 157//157 159//159
f 158//158 154//154 153//153
f 149//149 151//151 155//155
f 152//152 163//163 150//150
f 164//164 161//161 160//160
f 166//166 161//161 164//164
f 167//167 161//161 166//166
f 152//152 165//165 163//163
f 152//152 164//164 165//165
f 168//168 166//166 152//152
f 166//166 164//164 152//152
f 169//169 152//152 149//149
f 168//168 152//152 169//169
f 161//161 170//170 157//157
f 161//161 167//167 170//170
f 170//170 171//171 154//154
f 157//157 170//170 154//154
f 171//171 172//172 169//169
f 172//172 173//173 169//169
f 173//173 168//168 169//169
f 170//170 174//174 171//171
f 174//174 172//172 171//171
f 173//173 175//175 168//168
f 175//175 166//166 168//168
f 176//176 166//166 175//175
f 170//170 177//177 174//174
f 167//167 166//166 176//176
f 170//170 167//167 177//177
f 177//177 167//167 176//176
f 154//154 171//171 149//149
f 171//171 169//169 149//149
f 135//135 3//3 122//122
f 133//133 135//135 122//122
f 126//126 133//133 122//122
f 136//136 133//133 126//126
f 124//124 13//13 136//136
f 127//127 13//13 124//124
f 11//11 13//13 127//127
f 3//3 135//135 1//1
f 135//135 129//129 1//1
f 142//142 155//155 141//141
f 155//155 178//178 141//141
f 179//179 155//155 142//142
f 178//178 143//143 141//141
f 142//142 144//144 179//179
f 178//178 150//150 143//143
f 150//150 138//138 143//143
f 144//144 145//145 180//180
f 150//150 181//181 138//138
f 181//181 139//139 138//138
f 159//159 180//180 145//145
f 146//146 159//159 145//145
f 181//181 182//182 139//139
f 182//182 147//147 139//139
f 148//148 183//183 146//146
f 183//183 159//159 146//146
f 182//182 184//184 147//147
f 184//184 148//148 147//147
f 184//184 183//183 148//148
f 180//180 156//156 158//158
f 151//151 178//178 155//155
f 153//153 155//155 179//179
f 158//158 153//153 179//179
f 151//151 150//150 178//178
f 163//163 181//181 150//150
f 159//159 156//156 180//180
f 165//165 181//181 163//163
f 165//165 182//182 181//181
f 183//183 162//162 159//159
f 160//160 184//184 182//182
f 165//165 160//160 182//182
f 160//160 162//162 183//183
f 184//184 160//160 183//183
f 172//172 85//85 173//173
f 85//85 89//89 173//173
f 86//86 85//85 172//172
f 89//89 175//175 173//173
f 174//174 86//86 172//172
f 92//92 86//86 174//174
f 89//89 94//94 175//175
f 94//94 176//176 175//175
f 177//177 92//92 174//174
f 94//94 96//96 176//176
f 96//96 177//177 176//176
f 96//96 92//92 177//177
f 16//16 14//14 15//15
f 14//14 18//18 15//15
f 14//14 22//22 21//21
f 16//16 15//15 23//23
f 19//19 27//27 30//30
f 45//45 36//36 25//25
f 68//68 66//66 55//55
f 68//68 56//56 66//66
f 49//49 57//57 71//71
f 109//109 100//100 102//102
f 83//83 114//114 110//110
f 123//123 122//122 6//6
f 125//125 7//7 10//10
f 149//149 155//155 153//153
f 154//154 158//158 156//156
f 164//164 160//160 165//165
f 124//124 136//136 126//126
f 144//144 158//158 179//179
f 144//144 180//180 158//158

