mtllib material.mtl
usemtl Material-Metal.027
v 0.04887100 -0.02324400 0.03688900
v 0.04546700 -0.02259900 0.03667200
v 0.04505700 -0.02296700 0.03704700
v 0.04335400 -0.02482900 0.03640100
v 0.04298800 -0.02662200 0.03630000
v 0.05081100 -0.02439200 0.02884800
v 0.04978200 -0.02189200 0.02930000
v 0.04910400 -0.02160800 0.02935800
v 0.04927300 -0.01570200 -0.00338800
v 0.04655000 -0.01897400 -0.00398300
v 0.04567800 -0.01477200 -0.00325200
v 0.04280500 -0.01716800 -0.00366500
v 0.05068100 -0.01792900 -0.00378200
v 0.04229600 -0.01985900 -0.00411300
v 0.05029600 -0.02100200 -0.00434200
v 0.04396800 -0.02229200 -0.00454500
v 0.04701300 -0.02323500 -0.00471700
v 0.04852400 -0.01517100 -0.00084900
v 0.04639300 -0.01479200 -0.00087900
v 0.04398900 -0.01541600 -0.00104200
v 0.05074300 -0.01722500 -0.00130300
v 0.05121400 -0.01986600 -0.00180600
v 0.04203200 -0.02135000 -0.00177900
v 0.04215200 -0.01757100 -0.00138500
v 0.04485000 -0.02372400 -0.00245100
v 0.04810900 -0.02386200 -0.00266900
v 0.05062200 -0.02176200 -0.00207200
v 0.04643500 -0.01469100 -0.00069900
v 0.04378900 -0.01604000 -0.00104600
v 0.04925500 -0.01560900 -0.00102100
v 0.04234100 -0.01816800 -0.00153300
v 0.05104800 -0.01793200 -0.00131900
v 0.04190400 -0.01947600 -0.00160700
v 0.05111100 -0.02042000 -0.00176000
v 0.04279400 -0.02219200 -0.00222000
v 0.05007400 -0.02241800 -0.00220200
v 0.04547100 -0.02392800 -0.00240400
v 0.04836100 -0.02319600 -0.00257100
v 0.04615100 -0.01518200 -0.00088600
v 0.04841300 -0.01565900 -0.00096300
v 0.05000800 -0.01695700 -0.00119100
v 0.05083700 -0.01957700 -0.00166600
v 0.04294800 -0.02185700 -0.00206900
v 0.04999100 -0.02180000 -0.00204600
v 0.04573000 -0.02353700 -0.00234400
v 0.04377400 -0.01717400 0.00464200
v 0.04223200 -0.02040800 0.01384300
v 0.04354300 -0.01853200 0.01443800
v 0.04250300 -0.01920300 0.00425700
v 0.04201900 -0.02266000 0.01246600
v 0.04935700 -0.02586100 0.01326100
v 0.04949900 -0.02343200 0.00347900
v 0.05071400 -0.02390300 0.01320200
v 0.04720400 -0.02454400 0.00336600
v 0.04639500 -0.02672600 0.01304600
v 0.04495600 -0.02609900 0.01194200
v 0.04855800 -0.01789800 0.01337300
v 0.04847000 -0.01660600 0.00440300
v 0.04641200 -0.01753400 0.01451700
v 0.04629200 -0.01610900 0.00452300
v 0.05043500 -0.01952500 0.01309500
v 0.05016100 -0.01800700 0.00415300
v 0.05109100 -0.02180100 0.01265300
v 0.05089000 -0.02068400 0.00355300
v 0.04238800 -0.02141000 0.00365600
v 0.04327900 -0.02500200 0.01209400
v 0.04354900 -0.02334700 0.00339400
v 0.04504000 -0.02425600 0.00308200
v 0.04446500 -0.01813500 0.01560200
v 0.04277200 -0.01947900 0.01494800
v 0.04745700 -0.01765300 0.01491600
v 0.04191400 -0.02244700 0.01306700
v 0.04970200 -0.01863700 0.01349800
v 0.05094200 -0.02371900 0.01376200
v 0.04860100 -0.02661000 0.01402100
v 0.04447900 -0.02614300 0.01274800
v 0.05102100 -0.02094100 0.01305900
v 0.04304100 -0.02470900 0.01231100
v 0.04597500 -0.02053300 0.02213200
v 0.04899400 -0.01942400 0.02234700
v 0.04369100 -0.01949300 0.02233300
v 0.04926200 -0.02200200 0.02186900
v 0.04390200 -0.02223500 0.02183900
v 0.05129700 -0.02325200 0.02166400
v 0.04191200 -0.02455900 0.02143200
v 0.04395500 -0.02516900 0.02132300
v 0.04897800 -0.02506000 0.02134200
v 0.04995100 -0.02661500 0.02086500
v 0.04725100 -0.02635400 0.02111700
v 0.04724900 -0.02810300 0.02081000
v 0.04329500 -0.02683400 0.02082900
v 0.04791900 -0.01889200 0.02179600
v 0.04519700 -0.01901600 0.02177900
v 0.04346200 -0.01989000 0.02161100
v 0.05049700 -0.02084200 0.02147400
v 0.04216300 -0.02184400 0.02130700
v 0.05129100 -0.02393700 0.02089000
v 0.04694600 -0.01774400 0.01637700
v 0.04452700 -0.01881200 0.02019800
v 0.04501100 -0.01826100 0.01801000
v 0.04942200 -0.01875200 0.01634900
v 0.04188900 -0.02408400 0.02088100
v 0.04410300 -0.01894100 0.02004800
v 0.05093800 -0.02063900 0.01592000
v 0.04274500 -0.01971400 0.01615100
v 0.04180000 -0.02208200 0.01559700
v 0.05115000 -0.02388800 0.01532000
v 0.04794700 -0.02783800 0.02018700
v 0.04544900 -0.02784800 0.02019900
v 0.04250000 -0.02484200 0.01525700
v 0.04917800 -0.02631000 0.01500000
v 0.04421000 -0.02652600 0.01497200
v 0.04671500 -0.02709700 0.01487700
v 0.04344200 -0.01909800 0.01817200
v 0.04655000 -0.02611100 0.03649300
v 0.05008700 -0.02664800 0.03630000
v 0.04495700 -0.02913300 0.03585900
v 0.04797000 -0.02933600 0.03583800
v 0.04881600 -0.02241400 0.03430200
v 0.04338400 -0.02323500 0.03396000
v 0.05009800 -0.02579000 0.03399900
v 0.04383200 -0.02832100 0.03335900
v 0.04805600 -0.02925800 0.03321700
v 0.05060800 -0.02516300 0.03356600
v 0.04995900 -0.02771100 0.03303500
v 0.04555600 -0.02943200 0.03276300
v 0.04984600 -0.02708400 0.02840400
v 0.04533100 -0.02856200 0.02814300
v 0.04363700 -0.02738300 0.02833200
v 0.04782600 -0.02857700 0.02814800
v 0.04353900 -0.02192700 0.02931100
v 0.04640100 -0.02076200 0.02952300
v 0.04712400 -0.01998500 0.02966300
v 0.04326300 -0.02128900 0.02942400
v 0.04166200 -0.02533600 0.02872100
v 0.04242300 -0.02509400 0.02874600
v 0.05030500 -0.02787300 0.02826300
v 0.04357500 -0.02870700 0.02796500
v 0.04603900 -0.02967700 0.02780600
v 0.04407000 -0.02034400 0.02929200
v 0.04764400 -0.01974200 0.02937900
v 0.04176000 -0.02296100 0.02880200
v 0.05090200 -0.02196800 0.02899500
v 0.04177100 -0.02641000 0.02821600
v 0.05145700 -0.02614300 0.02828600
v 0.04905100 -0.02907800 0.02775400
v 0.04214800 -0.02118600 0.02359200
v 0.04202000 -0.02571300 0.02520900
v 0.04185700 -0.02326800 0.02566100
v 0.04207700 -0.02621200 0.02268100
v 0.04192200 -0.02624300 0.02518900
v 0.04659100 -0.01871600 0.02402900
v 0.04235900 -0.02138900 0.02590600
v 0.04529500 -0.01964500 0.02639600
v 0.05027600 -0.02119600 0.02601500
v 0.05094400 -0.02121100 0.02359800
v 0.04701900 -0.01930900 0.02634300
v 0.05076500 -0.02139800 0.02615300
v 0.05094700 -0.02673800 0.02495300
v 0.05095500 -0.02629100 0.02270300
v 0.05112000 -0.02278300 0.02577100
v 0.04652400 -0.02878800 0.02224600
v 0.04811000 -0.02869200 0.02482700
v 0.04590700 -0.02895100 0.02459700
v 0.04321800 -0.02754200 0.02482600
v 0.05078600 -0.02615600 0.02247000
v 0.04645000 -0.02854500 0.02205200
v 0.04228400 -0.02604200 0.02249700
v 0.04236400 -0.02121100 0.02334200
v 0.05078900 -0.02132100 0.02333000
v 0.04667900 -0.01889000 0.02375000
v 0.04546300 -0.02099400 0.02339100
v 0.04859400 -0.02149900 0.02331000
v 0.04353200 -0.02365600 0.02291300
v 0.04938300 -0.02456000 0.02276400
v 0.04745500 -0.02656900 0.02239400
v 0.04512800 -0.02627100 0.02245100
v 0.04498600 -0.01941400 0.02655500
v 0.04840700 -0.01956200 0.02640700
v 0.04151900 -0.02380500 0.02562700
v 0.05163800 -0.02412000 0.02557300
v 0.05089100 -0.02674400 0.02513600
v 0.04418300 -0.02861200 0.02475900
v 0.04837700 -0.02896300 0.02459000
vn 0.51330000 0.46100000 0.72380000
vn -0.21420000 0.86650000 0.45090000
vn -0.45460000 0.51490000 0.72680000
vn -0.76410000 0.25590000 0.59220000
vn -0.73960000 -0.24080000 0.62850000
vn 0.77940000 -0.01380000 0.62640000
vn 0.16760000 0.01560000 0.98570000
vn 0.38250000 0.31980000 0.86680000
vn 0.42790000 0.67390000 -0.60230000
vn -0.00040000 0.17180000 -0.98510000
vn -0.13760000 0.80320000 -0.57960000
vn -0.58840000 0.44310000 -0.67640000
vn 0.67390000 0.27830000 -0.68440000
vn -0.69300000 -0.00190000 -0.72090000
vn 0.59450000 -0.22100000 -0.77320000
vn -0.42040000 -0.42000000 -0.80420000
vn 0.07770000 -0.56030000 -0.82460000
vn 0.35970000 0.53650000 0.76340000
vn -0.02270000 0.96580000 -0.25820000
vn -0.51700000 0.65440000 0.55180000
vn 0.78220000 0.40050000 0.47730000
vn 0.98460000 -0.07600000 0.15760000
vn -0.57730000 -0.46650000 0.67020000
vn -0.76730000 0.18540000 0.61390000
vn -0.38900000 -0.87660000 0.28350000
vn 0.34550000 -0.86780000 0.35720000
vn 0.69730000 -0.56180000 0.44510000
vn 0.02020000 0.79070000 0.61190000
vn -0.49620000 0.44590000 0.74490000
vn -0.72580000 -0.67560000 0.12950000
vn -0.46290000 0.00690000 0.88640000
vn 0.92690000 0.14380000 0.34670000
vn 0.99780000 -0.05700000 -0.03330000
vn 0.77520000 -0.34690000 0.52790000
vn 0.55010000 0.56420000 0.61570000
vn 0.60270000 -0.79800000 -0.00160000
vn -0.11350000 -0.97870000 0.17090000
vn 0.18460000 -0.66880000 0.72010000
vn -0.00930000 0.37500000 0.92700000
vn 0.29600000 0.57180000 0.76510000
vn 0.52340000 0.24970000 0.81470000
vn 0.53500000 -0.16990000 0.82760000
vn -0.58770000 -0.52440000 0.61600000
vn 0.58760000 -0.52070000 0.61940000
vn -0.09330000 -0.76020000 0.64290000
vn -0.64520000 0.75460000 0.11910000
vn -0.95110000 0.23150000 0.20450000
vn -0.61610000 0.77970000 0.11150000
vn -0.95430000 0.29640000 0.03810000
vn -0.97530000 -0.21060000 -0.06630000
vn 0.64480000 -0.75850000 -0.09430000
vn 0.70060000 -0.69980000 -0.13930000
vn 0.88560000 -0.43540000 -0.16180000
vn 0.16590000 -0.96920000 -0.18220000
vn -0.12430000 -0.96150000 0.24500000
vn -0.36840000 -0.89930000 -0.23570000
vn 0.44620000 0.88650000 0.12220000
vn 0.44870000 0.88300000 0.13760000
vn -0.07290000 0.97840000 0.19350000
vn -0.07670000 0.98390000 0.16140000
vn 0.83450000 0.45570000 0.30980000
vn 0.84340000 0.53210000 0.07400000
vn 0.99980000 0.02200000 0.00030000
vn 0.99490000 -0.09540000 -0.03410000
vn -0.97100000 -0.23390000 -0.05020000
vn -0.73590000 -0.67230000 -0.08070000
vn -0.71120000 -0.69010000 -0.13390000
vn -0.33960000 -0.92370000 -0.17720000
vn -0.40870000 0.90960000 0.07540000
vn -0.82950000 0.55600000 0.05260000
vn 0.24850000 0.95920000 0.13470000
vn -0.99150000 -0.03820000 -0.12420000
vn 0.64640000 0.74160000 -0.17950000
vn 0.92360000 -0.34670000 -0.16330000
vn 0.40500000 -0.89070000 -0.20650000
vn -0.44970000 -0.86390000 -0.22700000
vn 0.93250000 0.27940000 -0.22900000
vn -0.82580000 -0.51250000 -0.23550000
vn -0.06570000 0.36460000 0.92880000
vn 0.46340000 0.60740000 0.64520000
vn -0.48130000 0.62290000 0.61680000
vn 0.44660000 0.06920000 0.89200000
vn -0.48720000 0.11670000 0.86550000
vn 0.80210000 -0.00490000 0.59710000
vn -0.76740000 -0.33960000 0.54380000
vn -0.43140000 -0.46430000 0.77350000
vn 0.53170000 -0.48280000 0.69580000
vn 0.58940000 -0.62300000 0.51430000
vn 0.11040000 -0.71690000 0.68840000
vn 0.07340000 -0.87590000 0.47690000
vn -0.54580000 -0.67290000 0.49940000
vn 0.20620000 0.89920000 0.38590000
vn -0.16100000 0.91710000 0.36470000
vn -0.71880000 0.69480000 0.02530000
vn 0.81450000 0.46410000 0.34800000
vn -0.88410000 0.25280000 0.39290000
vn 0.97400000 -0.19420000 0.11640000
vn 0.09060000 0.98950000 0.11230000
vn -0.30740000 0.92100000 0.23930000
vn -0.25870000 0.95290000 0.15830000
vn 0.59270000 0.79820000 0.10740000
vn -0.99120000 -0.13200000 -0.00990000
vn -0.52770000 0.82550000 0.20010000
vn 0.93180000 0.36070000 0.04000000
vn -0.83000000 0.55340000 0.06990000
vn -0.99600000 0.08660000 -0.02290000
vn 0.94730000 -0.30480000 -0.09890000
vn 0.33490000 -0.93980000 -0.06810000
vn -0.25280000 -0.96340000 0.08900000
vn -0.86480000 -0.48890000 -0.11470000
vn 0.61550000 -0.77080000 -0.16470000
vn -0.48630000 -0.85540000 -0.17830000
vn 0.02340000 -0.96850000 -0.24790000
vn -0.83570000 0.49620000 0.23520000
vn 0.00390000 -0.18070000 0.98350000
vn 0.78160000 -0.23300000 0.57860000
vn -0.32440000 -0.78510000 0.52760000
vn 0.31220000 -0.78500000 0.53510000
vn 0.57390000 0.78090000 0.24650000
vn -0.81280000 0.54600000 0.20290000
vn 0.91110000 -0.13110000 0.39090000
vn -0.69720000 -0.71690000 0.00150000
vn 0.38280000 -0.92380000 -0.00050000
vn 0.90590000 0.09110000 0.41370000
vn 0.75960000 -0.56240000 0.32670000
vn -0.22640000 -0.93080000 0.28700000
vn 0.50900000 -0.50020000 0.70050000
vn -0.22200000 -0.76960000 0.59860000
vn -0.50830000 -0.57610000 0.64010000
vn 0.21930000 -0.78670000 0.57710000
vn -0.41530000 0.25010000 0.87460000
vn -0.02730000 0.44860000 0.89330000
vn -0.01120000 0.43810000 0.89890000
vn -0.53370000 0.35930000 0.76550000
vn -0.80290000 -0.13440000 0.58080000
vn -0.56240000 -0.19260000 0.80410000
vn 0.67700000 -0.62500000 0.38860000
vn -0.48190000 -0.72010000 0.49920000
vn -0.07540000 -0.88540000 0.45870000
vn -0.41710000 0.69190000 0.58930000
vn 0.25690000 0.80020000 0.54200000
vn -0.82030000 0.22190000 0.52720000
vn 0.72050000 0.34990000 0.59870000
vn -0.83350000 -0.41370000 0.36620000
vn 0.81910000 -0.30320000 0.48690000
vn 0.42140000 -0.82480000 0.37710000
vn -0.81270000 0.52140000 -0.26010000
vn -0.86490000 0.11320000 -0.48900000
vn -0.69850000 0.14200000 -0.70130000
vn -0.80490000 -0.37490000 -0.45990000
vn -0.93190000 -0.33490000 -0.13940000
vn -0.00620000 0.98580000 -0.16770000
vn -0.79620000 0.60100000 0.07040000
vn -0.25160000 0.85270000 -0.45780000
vn 0.47080000 0.84780000 -0.24400000
vn 0.80470000 0.54120000 -0.24410000
vn 0.13830000 0.75960000 0.63550000
vn 0.78270000 0.62180000 0.02590000
vn 0.83890000 -0.54430000 0.00540000
vn 0.82360000 -0.41990000 -0.38120000
vn 0.88040000 0.23890000 -0.40970000
vn 0.01110000 -0.87270000 -0.48810000
vn 0.25370000 -0.13520000 -0.95780000
vn -0.16880000 -0.90330000 0.39450000
vn -0.63120000 -0.71020000 -0.31170000
vn 0.47090000 -0.12520000 -0.87330000
vn -0.06280000 -0.36540000 -0.92870000
vn -0.39040000 -0.04130000 -0.91970000
vn -0.41450000 0.44120000 -0.79590000
vn 0.47040000 0.36790000 -0.80210000
vn 0.07350000 0.65770000 -0.74970000
vn -0.23420000 0.66230000 -0.71170000
vn 0.32180000 0.55580000 -0.76650000
vn -0.54580000 0.16770000 -0.82100000
vn 0.53910000 0.01000000 -0.84220000
vn 0.18500000 -0.39500000 -0.89990000
vn -0.25210000 -0.33910000 -0.90630000
vn -0.25490000 0.89460000 -0.36690000
vn 0.32330000 0.84190000 -0.43210000
vn -0.79690000 0.14500000 -0.58640000
vn 0.80740000 0.13830000 -0.57350000
vn 0.81920000 -0.57200000 0.04180000
vn -0.37710000 -0.63240000 -0.67660000
vn 0.19670000 -0.46580000 -0.86270000
f 1//1 2//2 3//3
f 2//2 4//4 3//3
f 4//4 5//5 3//3
f 6//6 7//7 8//8
f 10//10 12//12 11//11
f 13//13 10//10 9//9
f 10//10 16//16 14//14
f 15//15 10//10 13//13
f 10//10 15//15 17//17
f 18//18 11//11 19//19
f 11//11 20//20 19//19
f 9//9 11//11 18//18
f 21//21 9//9 18//18
f 13//13 9//9 21//21
f 22//22 13//13 21//21
f 14//14 23//23 24//24
f 14//14 16//16 23//23
f 12//12 24//24 20//20
f 11//11 12//12 20//20
f 16//16 25//25 23//23
f 16//16 17//17 25//25
f 25//25 17//17 26//26
f 12//12 14//14 24//24
f 15//15 13//13 22//22
f 27//27 15//15 22//22
f 26//26 15//15 27//27
f 17//17 15//15 26//26
f 28//28 18//18 19//19
f 20//20 29//29 28//28
f 30//30 18//18 28//28
f 19//19 20//20 28//28
f 30//30 21//21 18//18
f 24//24 31//31 29//29
f 20//20 24//24 29//29
f 32//32 21//21 30//30
f 24//24 33//33 31//31
f 32//32 22//22 21//21
f 24//24 23//23 33//33
f 34//34 22//22 32//32
f 23//23 35//35 33//33
f 34//34 27//27 22//22
f 36//36 27//27 34//34
f 36//36 26//26 27//27
f 25//25 37//37 35//35
f 38//38 26//26 36//36
f 23//23 25//25 35//35
f 38//38 45//45 26//26
f 25//25 26//26 37//37
f 29//29 39//39 28//28
f 39//39 30//30 28//28
f 39//39 40//40 30//30
f 41//41 30//30 40//40
f 41//41 32//32 30//30
f 42//42 32//32 41//41
f 34//34 32//32 42//42
f 33//33 43//43 31//31
f 35//35 43//43 33//33
f 36//36 34//34 42//42
f 44//44 36//36 42//42
f 38//38 36//36 44//44
f 35//35 45//45 43//43
f 37//37 45//45 35//35
f 46//46 47//47 48//48
f 46//46 49//49 47//47
f 49//49 50//50 47//47
f 51//51 52//52 53//53
f 54//54 52//52 51//51
f 55//55 54//54 51//51
f 56//56 54//54 55//55
f 58//58 60//60 57//57
f 60//60 46//46 59//59
f 62//62 58//58 57//57
f 64//64 62//62 63//63
f 49//49 65//65 50//50
f 53//53 64//64 63//63
f 52//52 64//64 53//53
f 65//65 67//67 66//66
f 67//67 68//68 56//56
f 68//68 54//54 56//56
f 40//40 39//39 60//60
f 39//39 29//29 60//60
f 41//41 40//40 58//58
f 31//31 49//49 29//29
f 42//42 41//41 62//62
f 31//31 65//65 49//49
f 31//31 43//43 65//65
f 52//52 44//44 64//64
f 44//44 42//42 64//64
f 43//43 67//67 65//65
f 38//38 44//44 52//52
f 43//43 45//45 68//68
f 54//54 38//38 52//52
f 45//45 54//54 68//68
f 45//45 38//38 54//54
f 59//59 48//48 69//69
f 48//48 70//70 69//69
f 71//71 59//59 69//69
f 48//48 47//47 70//70
f 57//57 59//59 71//71
f 47//47 72//72 70//70
f 73//73 57//57 71//71
f 51//51 74//74 75//75
f 51//51 53//53 74//74
f 55//55 51//51 75//75
f 61//61 57//57 73//73
f 53//53 63//63 74//74
f 47//47 50//50 72//72
f 76//76 55//55 75//75
f 63//63 77//77 74//74
f 77//77 61//61 73//73
f 63//63 61//61 77//77
f 56//56 55//55 76//76
f 66//66 56//56 76//76
f 50//50 78//78 72//72
f 78//78 66//66 76//76
f 50//50 66//66 78//78
f 79//79 80//80 81//81
f 79//79 82//82 80//80
f 83//83 79//79 81//81
f 82//82 84//84 80//80
f 85//85 83//83 81//81
f 85//85 86//86 83//83
f 87//87 84//84 82//82
f 87//87 88//88 84//84
f 89//89 90//90 87//87
f 90//90 88//88 87//87
f 85//85 91//91 86//86
f 90//90 89//89 86//86
f 91//91 90//90 86//86
f 80//80 92//92 81//81
f 92//92 93//93 81//81
f 93//93 94//94 81//81
f 95//95 92//92 80//80
f 84//84 95//95 80//80
f 94//94 96//96 81//81
f 97//97 95//95 84//84
f 98//98 100//100 92//92
f 96//96 85//85 81//81
f 99//99 94//94 93//93
f 100//100 99//99 93//93
f 101//101 98//98 92//92
f 95//95 101//101 92//92
f 96//96 102//102 85//85
f 99//99 103//103 94//94
f 104//104 101//101 95//95
f 103//103 105//105 94//94
f 105//105 96//96 94//94
f 88//88 97//97 84//84
f 105//105 106//106 96//96
f 97//97 104//104 95//95
f 106//106 102//102 96//96
f 102//102 91//91 85//85
f 107//107 104//104 97//97
f 90//90 108//108 88//88
f 109//109 90//90 91//91
f 109//109 108//108 90//90
f 106//106 110//110 102//102
f 110//110 91//91 102//102
f 88//88 107//107 97//97
f 111//111 107//107 88//88
f 110//110 112//112 91//91
f 108//108 111//111 88//88
f 112//112 109//109 91//91
f 112//112 113//113 109//109
f 113//113 108//108 109//109
f 98//98 69//69 100//100
f 69//69 114//114 100//100
f 114//114 105//105 103//103
f 69//69 105//105 114//114
f 108//108 113//113 111//111
f 71//71 69//69 98//98
f 101//101 73//73 98//98
f 73//73 71//71 98//98
f 70//70 105//105 69//69
f 104//104 73//73 101//101
f 70//70 106//106 105//105
f 77//77 73//73 104//104
f 70//70 72//72 106//106
f 107//107 77//77 104//104
f 74//74 77//77 107//107
f 72//72 110//110 106//106
f 78//78 76//76 112//112
f 72//72 78//78 110//110
f 75//75 74//74 107//107
f 111//111 75//75 107//107
f 113//113 75//75 111//111
f 76//76 113//113 112//112
f 76//76 75//75 113//113
f 100//100 103//103 99//99
f 100//100 114//114 103//103
f 115//115 1//1 3//3
f 5//5 115//115 3//3
f 115//115 116//116 1//1
f 5//5 117//117 115//115
f 115//115 117//117 118//118
f 119//119 2//2 1//1
f 120//120 4//4 2//2
f 121//121 119//119 1//1
f 120//120 5//5 4//4
f 122//122 117//117 5//5
f 118//118 123//123 116//116
f 123//123 121//121 116//116
f 123//123 118//118 117//117
f 122//122 123//123 117//117
f 121//121 124//124 119//119
f 125//125 124//124 121//121
f 123//123 125//125 121//121
f 126//126 123//123 122//122
f 125//125 6//6 124//124
f 127//127 6//6 125//125
f 123//123 130//130 125//125
f 122//122 129//129 126//126
f 126//126 130//130 123//123
f 128//128 130//130 126//126
f 133//133 134//134 132//132
f 8//8 7//7 133//133
f 132//132 8//8 133//133
f 135//135 131//131 134//134
f 135//135 136//136 131//131
f 127//127 137//137 6//6
f 135//135 129//129 136//136
f 138//138 129//129 135//135
f 130//130 137//137 127//127
f 138//138 128//128 129//129
f 139//139 137//137 130//130
f 128//128 139//139 130//130
f 138//138 139//139 128//128
f 140//140 134//134 133//133
f 141//141 140//140 133//133
f 7//7 141//141 133//133
f 140//140 142//142 134//134
f 143//143 141//141 7//7
f 142//142 135//135 134//134
f 6//6 143//143 7//7
f 142//142 144//144 135//135
f 145//145 143//143 6//6
f 137//137 145//145 6//6
f 144//144 138//138 135//135
f 146//146 145//145 137//137
f 139//139 146//146 137//137
f 147//147 148//148 149//149
f 147//147 150//150 148//148
f 150//150 151//151 148//148
f 152//152 147//147 154//154
f 156//156 152//152 155//155
f 156//156 155//155 158//158
f 159//159 160//160 161//161
f 160//160 156//156 161//161
f 161//161 156//156 158//158
f 152//152 154//154 157//157
f 162//162 163//163 164//164
f 147//147 149//149 153//153
f 150//150 165//165 151//151
f 162//162 160//160 159//159
f 163//163 162//162 159//159
f 162//162 166//166 160//160
f 162//162 167//167 166//166
f 150//150 164//164 165//165
f 150//150 162//162 164//164
f 168//168 167//167 150//150
f 167//167 162//162 150//150
f 169//169 150//150 147//147
f 168//168 150//150 169//169
f 160//160 166//166 156//156
f 166//166 170//170 156//156
f 156//156 170//170 152//152
f 170//170 171//171 152//152
f 172//172 169//169 171//171
f 170//170 173//173 171//171
f 173//173 172//172 171//171
f 172//172 174//174 169//169
f 174//174 168//168 169//169
f 166//166 175//175 170//170
f 175//175 173//173 170//170
f 166//166 176//176 175//175
f 177//177 168//168 174//174
f 167//167 168//168 177//177
f 166//166 167//167 176//176
f 176//176 167//167 177//177
f 171//171 147//147 152//152
f 169//169 147//147 171//171
f 119//119 132//132 2//2
f 131//131 120//120 2//2
f 132//132 131//131 2//2
f 8//8 132//132 119//119
f 136//136 5//5 120//120
f 131//131 136//136 120//120
f 124//124 6//6 8//8
f 5//5 136//136 122//122
f 136//136 129//129 122//122
f 178//178 140//140 141//141
f 179//179 178//178 141//141
f 143//143 158//158 179//179
f 153//153 142//142 140//140
f 178//178 153//153 140//140
f 153//153 180//180 142//142
f 145//145 181//181 143//143
f 181//181 158//158 143//143
f 180//180 144//144 142//142
f 180//180 151//151 144//144
f 182//182 181//181 145//145
f 151//151 138//138 144//144
f 146//146 182//182 145//145
f 151//151 183//183 138//138
f 184//184 182//182 146//146
f 183//183 139//139 138//138
f 139//139 184//184 146//146
f 183//183 184//184 139//139
f 179//179 155//155 157//157
f 179//179 154//154 178//178
f 157//157 154//154 179//179
f 154//154 153//153 178//178
f 158//158 155//155 179//179
f 149//149 180//180 153//153
f 181//181 161//161 158//158
f 159//159 161//161 181//181
f 149//149 151//151 180//180
f 182//182 159//159 181//181
f 148//148 151//151 149//149
f 165//165 183//183 151//151
f 184//184 163//163 182//182
f 163//163 159//159 182//182
f 165//165 164//164 183//183
f 164//164 184//184 183//183
f 164//164 163//163 184//184
f 173//173 79//79 172//172
f 82//82 79//79 173//173
f 79//79 83//83 172//172
f 83//83 174//174 172//172
f 175//175 82//82 173//173
f 83//83 86//86 174//174
f 176//176 87//87 175//175
f 87//87 82//82 175//175
f 86//86 177//177 174//174
f 89//89 87//87 176//176
f 86//86 89//89 177//177
f 89//89 176//176 177//177
f 10//10 11//11 9//9
f 10//10 14//14 12//12
f 10//10 17//17 16//16
f 45//45 37//37 26//26
f 60//60 59//59 57//57
f 46//46 48//48 59//59
f 62//62 57//57 61//61
f 62//62 61//61 63//63
f 65//65 66//66 50//50
f 67//67 56//56 66//66
f 40//40 60//60 58//58
f 29//29 46//46 60//60
f 41//41 58//58 62//62
f 49//49 46//46 29//29
f 42//42 62//62 64//64
f 43//43 68//68 67//67
f 100//100 93//93 92//92
f 78//78 112//112 110//110
f 115//115 118//118 116//116
f 121//121 1//1 116//116
f 130//130 127//127 125//125
f 129//129 128//128 126//126
f 134//134 131//131 132//132
f 147//147 153//153 154//154
f 152//152 157//157 155//155
f 124//124 8//8 119//119
f 143//143 179//179 141//141

