mtllib material.mtl
usemtl Material-Metal.025
v 0.09002700 0.03154200 0.01002200
v 0.09000000 0.02960000 0.00726700
v 0.08992800 0.03194400 0.00384900
v 0.08978700 0.03571700 0.00784300
v 0.09014500 0.02394600 -0.00724700
v 0.09003400 0.02004500 -0.00179600
v 0.09002900 0.02026100 -0.00950100
v 0.09001800 0.01789500 -0.00161200
v 0.09001700 0.01701400 -0.00353500
v 0.09001200 0.00000800 -0.00639800
v 0.09006300 -0.00203800 -0.00946600
v 0.09010200 0.00242200 -0.00938500
v 0.09003600 -0.00200900 -0.00759200
v 0.08998800 -0.01789900 -0.00169500
v 0.09003100 -0.02363000 -0.00756900
v 0.09010300 -0.01992800 -0.00960300
v 0.09001900 -0.02003200 -0.00168700
v 0.08955100 -0.02455200 -0.00781000
v 0.08546800 -0.02868500 -0.00728500
v 0.08546800 -0.02400000 -0.01050000
v 0.08898900 -0.02069300 -0.01049700
v 0.09206800 -0.02590000 -0.00536000
v 0.09877300 -0.02500400 -0.00193000
v 0.09442400 -0.02927200 -0.00100700
v 0.08555800 -0.03289100 -0.00352900
v 0.08945800 -0.03298800 -0.00069500
v 0.09966300 -0.02449300 -0.00211500
v 0.09913200 -0.02762900 0.00054600
v 0.08948800 0.02418200 -0.00809600
v 0.08879500 0.02085300 -0.01049100
v 0.08546800 0.02400000 -0.01050000
v 0.08546800 0.02868500 -0.00728500
v 0.09406200 0.02951200 -0.00101200
v 0.09893200 0.02453300 -0.00227000
v 0.08553100 0.03291700 -0.00352100
v 0.09157400 0.02595500 -0.00562800
v 0.08896700 0.03322600 -0.00078500
v 0.09919500 0.02757500 0.00053400
v 0.09551800 -0.01207500 -0.01049400
v 0.10202900 -0.01476400 -0.00613100
v 0.09181000 -0.01721200 -0.01053600
v 0.10304400 0.01474400 -0.00558900
v 0.09552200 0.01210900 -0.01049100
v 0.09196600 0.01714500 -0.01050400
v 0.10795900 0.01123400 -0.00439000
v 0.10783500 -0.01134000 -0.00441900
v 0.09752200 0.00787700 -0.01050000
v 0.09752200 -0.00787700 -0.01050000
v 0.10208600 0.00443300 -0.00878700
v 0.09844500 0.00505600 -0.01050000
v 0.10907400 0.00690700 -0.00496700
v 0.10899600 -0.00687300 -0.00501400
v 0.09844500 -0.00505600 -0.01050000
v 0.10240800 -0.00423400 -0.00866000
v 0.10034100 0.00412800 -0.00942500
v 0.10374000 -0.01544700 -0.00491700
v 0.10416100 0.00242200 -0.00798700
v 0.10412700 -0.00287800 -0.00799500
v 0.10926500 -0.00225800 -0.00549300
v 0.10928700 0.00281400 -0.00547000
v 0.10509700 -0.01722300 -0.00374900
v 0.10507500 0.01675600 -0.00383800
v 0.08483800 0.01489800 -0.01050000
v 0.08241300 0.01482600 -0.01049900
v 0.08050000 0.02400000 -0.01050000
v 0.08049100 0.01168500 -0.01048500
v 0.08052000 -0.01111100 -0.01052500
v 0.08112000 -0.01348800 -0.01050000
v 0.08051700 -0.02415100 -0.01049800
v 0.08329400 -0.01493000 -0.01049900
v 0.08167900 -0.00888000 -0.01050000
v 0.08112000 0.00951200 -0.01050000
v 0.08316900 0.00793500 -0.01050100
v 0.08316200 -0.00810200 -0.01050000
v 0.08921500 0.00274000 -0.01050100
v 0.08483800 -0.00810200 -0.01050000
v 0.08627000 0.00863700 -0.01050200
v 0.08562700 -0.01459900 -0.01050000
v 0.08700600 0.01357700 -0.01050600
v 0.08700900 -0.00969800 -0.01049900
v 0.09185300 0.00497400 -0.01049800
v 0.08722800 -0.01287700 -0.01049600
v 0.08925500 -0.00308100 -0.01050300
v 0.08747400 0.01107800 -0.01050000
v 0.09218500 -0.00500600 -0.01049900
v 0.07998600 0.01791900 -0.00162800
v 0.07999900 0.02013800 -0.00167700
v 0.07999900 0.02405000 -0.00999600
v 0.07999600 0.00913800 -0.00653500
v 0.07999000 0.01666300 -0.00358200
v 0.07999800 -0.02406300 -0.01001500
v 0.07998500 0.00016300 -0.00710100
v 0.07999300 -0.02026300 -0.00157600
v 0.08000100 -0.01797900 -0.00163900
v 0.08000000 -0.01666600 -0.00364800
v 0.07996200 -0.00933400 -0.00645300
v 0.08000900 -0.02937000 -0.00615000
v 0.08001100 0.02936600 0.00032600
v 0.07997900 0.02908100 -0.00652200
v 0.07996500 0.02599600 0.00298000
v 0.08011800 -0.03037100 0.00116600
v 0.08000100 -0.02637600 0.00324700
v 0.08011800 -0.03556500 0.00784100
v 0.08001300 0.03468500 0.00832400
v 0.07996800 0.03169400 0.01005700
v 0.07999300 -0.03168200 0.01005200
v 0.08429800 -0.03303100 -0.00330100
v 0.08874300 -0.03339000 -0.00065500
v 0.08414000 -0.03400800 0.00067800
v 0.08545500 0.03308300 -0.00314900
v 0.08529300 0.03378000 0.00018100
v 0.11123700 0.02447100 -0.00212500
v 0.10249400 0.02371500 -0.00249400
v 0.09955900 0.02570100 -0.00115000
v 0.10431900 0.02132900 -0.00345700
v 0.11331200 0.02079500 -0.00361300
v 0.10442200 0.01835900 -0.00382100
v 0.11435700 0.01804000 -0.00378400
v 0.10050000 -0.00405600 -0.00629300
v 0.09292200 -0.00406400 -0.00889100
v 0.09264500 -0.00824200 -0.00831100
v 0.10260900 -0.00740000 -0.00503200
v 0.10214500 -0.01102500 -0.00420400
v 0.09236900 -0.01128400 -0.00764600
v 0.09287800 -0.01566400 -0.00580300
v 0.10050000 -0.01438400 -0.00352600
v 0.10273100 -0.00330200 -0.00547000
v 0.10281700 -0.01451600 -0.00242600
v 0.10254200 -0.02282400 0.00254200
v 0.10149800 -0.02125200 0.00080900
v 0.09301400 -0.02668100 0.00157300
v 0.09286800 -0.02271900 -0.00173300
v 0.10234600 -0.02439700 0.00387000
v 0.10214500 0.00730400 -0.00520100
v 0.09264500 0.01176800 -0.00736600
v 0.09240500 0.00868400 -0.00832700
v 0.09293800 0.00408100 -0.00888000
v 0.10146400 0.01430300 -0.00322400
v 0.09287400 0.01568900 -0.00579000
v 0.10260700 0.01049300 -0.00423100
v 0.10050000 0.00405600 -0.00629300
v 0.10219000 0.00364400 -0.00575900
v 0.09249700 0.02280800 -0.00184700
v 0.10250700 0.02292100 0.00260500
v 0.09230600 0.02702700 0.00157100
v 0.10138900 0.02126600 0.00079600
v 0.10231200 0.02431100 0.00376300
v 0.10313600 -0.02326800 -0.00274200
v 0.11071600 -0.02560000 -0.00125100
v 0.11307000 -0.02164800 -0.00346800
v 0.10446200 -0.02081900 -0.00360700
v 0.10445600 -0.01793600 -0.00384500
v 0.11433100 -0.01823800 -0.00378500
v 0.10336500 0.02469900 0.00410800
v 0.09924100 0.02761600 0.00120100
v 0.09491700 0.02682200 0.00200300
v 0.09473600 0.02912400 -0.00024800
v 0.11134500 0.02765900 0.00117000
v 0.11457700 0.02531000 0.00348400
v 0.10403700 0.02310400 0.00569400
v 0.11507600 0.02302400 0.00578000
v 0.09458600 -0.02921400 -0.00031300
v 0.09893100 -0.02761900 0.00117400
v 0.09512200 -0.02675300 0.00209700
v 0.10334600 -0.02472400 0.00407100
v 0.11030800 -0.02756900 0.00122500
v 0.11363200 -0.02640800 0.00238500
v 0.10394300 -0.02309400 0.00571800
v 0.11529000 -0.02294000 0.00586000
v 0.11353900 0.01998100 0.00454700
v 0.10650000 0.02053600 0.00495900
v 0.10650200 0.01913900 0.00453000
v 0.11320500 0.01858000 0.00464200
v 0.11317800 0.01712600 0.00380000
v 0.10649200 0.01778100 0.00451000
v 0.10643500 0.01687700 0.00282700
v 0.11334500 0.01636400 0.00200100
v 0.10650600 0.01600100 0.00177800
v 0.11345200 0.01517900 0.00145800
v 0.10650500 0.01451100 0.00164300
v 0.11319500 0.01394500 0.00180200
v 0.11318500 0.01242800 0.00127300
v 0.10649800 0.01271200 0.00155700
v 0.10645900 0.01197500 0.00027400
v 0.11329500 0.01127700 -0.00046200
v 0.10650700 0.01094700 -0.00057900
v 0.11346300 0.01013700 -0.00077600
v 0.10650000 0.01001700 -0.00068300
v 0.11332100 0.00892200 -0.00029900
v 0.10653100 0.00831900 -0.00008900
v 0.11315000 0.00744800 -0.00038200
v 0.10649800 0.00716100 -0.00067800
v 0.11352800 0.00630900 -0.00185300
v 0.10664200 0.00625800 -0.00180600
v 0.11499900 0.00530700 -0.00207400
v 0.11332000 -0.00717400 -0.00075300
v 0.11348600 -0.00631400 -0.00182000
v 0.10659200 -0.00613700 -0.00186400
v 0.10649700 -0.00773200 -0.00018600
v 0.11318100 -0.00842700 -0.00007800
v 0.10640700 -0.00962300 -0.00059800
v 0.11503600 -0.01073800 -0.00068900
v 0.11356400 -0.01002100 -0.00082100
v 0.10650400 -0.01095400 -0.00057500
v 0.11345900 -0.01171600 -0.00016500
v 0.10650300 -0.01201200 0.00046800
v 0.11318500 -0.01225700 0.00101400
v 0.10649800 -0.01323400 0.00180100
v 0.11318300 -0.01361900 0.00183700
v 0.10644900 -0.01469000 0.00154100
v 0.10650600 -0.01600600 0.00178000
v 0.11335200 -0.01562700 0.00157200
v 0.11344800 -0.01669600 0.00233500
v 0.10650000 -0.01668300 0.00242500
v 0.11318900 -0.01701700 0.00357800
v 0.10649000 -0.01736100 0.00417100
v 0.11317500 -0.01826500 0.00462700
v 0.10650000 -0.01884300 0.00457600
v 0.11352200 -0.02023800 0.00466900
v 0.10665100 -0.02005900 0.00463200
v 0.11553700 0.00410600 -0.00266100
v 0.11553900 -0.00367800 -0.00281000
v 0.11550100 0.00048700 -0.00464900
v 0.11549700 0.01657500 -0.00272900
v 0.11554200 0.01336400 -0.00026800
v 0.11547500 -0.01731000 -0.00270600
v 0.11551000 -0.01395700 -0.00000200
v 0.11535600 0.02450000 0.00368400
v 0.11550700 0.02230500 0.00565100
v 0.11549200 -0.02380400 0.00434500
v 0.11554500 -0.02221800 0.00582500
v 0.10914900 0.01061500 -0.00423600
v 0.11449300 0.01079300 -0.00423300
v 0.11452200 0.00332300 -0.00536300
v 0.11052700 0.02749500 0.00043300
v 0.08996200 -0.03169600 0.00989400
v 0.08986400 -0.03539500 0.00797100
v 0.08992400 -0.03192200 0.00379300
v 0.08951400 0.02020300 -0.00106000
v 0.08049900 0.02352100 0.00141900
v 0.08045100 0.02029900 -0.00095500
v 0.08951700 0.02415300 0.00194400
v 0.08049300 0.02794000 0.00576100
v 0.08955500 0.02854800 0.00651400
v 0.08050000 0.03094100 0.00995000
v 0.08950300 0.03110500 0.01019800
v 0.08955000 0.01860500 -0.00101900
v 0.08048000 0.01886700 -0.00108400
v 0.08049200 0.01714700 -0.00176900
v 0.08947400 0.01707800 -0.00209500
v 0.08049900 0.01626100 -0.00331000
v 0.08955300 0.01611500 -0.00336500
v 0.08954300 0.00241300 -0.00702500
v 0.08963600 0.00946200 -0.00595500
v 0.08034900 0.00271100 -0.00711800
v 0.08044600 0.01136000 -0.00537100
v 0.08950600 0.00109200 -0.00648100
v 0.08050600 0.00122900 -0.00659100
v 0.08044000 0.00014000 -0.00590300
v 0.08950900 -0.00039300 -0.00602200
v 0.08049300 -0.00116800 -0.00654700
v 0.08952100 -0.00133400 -0.00667300
v 0.08049900 -0.00232200 -0.00704500
v 0.08955200 -0.00247500 -0.00702000
v 0.08050400 -0.00739800 -0.00642200
v 0.08960700 -0.00957100 -0.00591000
v 0.08050000 -0.01294100 -0.00475900
v 0.08041300 -0.01625200 -0.00330200
v 0.08954200 -0.01617300 -0.00333800
v 0.08952700 -0.01699500 -0.00237400
v 0.08040500 -0.01715600 -0.00188000
v 0.08954600 -0.01746700 -0.00138700
v 0.08042500 -0.01875500 -0.00104500
v 0.08947400 -0.01896500 -0.00112100
v 0.08049900 -0.02030200 -0.00097600
v 0.08959300 -0.02037400 -0.00091100
v 0.08043000 -0.02462100 0.00234900
v 0.08951300 -0.02410700 0.00189900
v 0.08042600 -0.02888500 0.00698800
v 0.08957000 -0.02828200 0.00619900
v 0.08042600 -0.03110100 0.01021100
v 0.08957100 -0.03093700 0.00994800
v 0.08954900 -0.03211300 0.01040800
v 0.08038000 -0.03228700 0.01027700
v 0.08086800 -0.03637300 0.00792100
v 0.08550800 -0.03822500 0.00686900
v 0.08935300 -0.03596900 0.00815700
v 0.08047300 0.03211200 0.01041000
v 0.08433200 0.03828800 0.00684000
v 0.08054000 0.03567800 0.00834300
v 0.08959200 0.03230600 0.01028700
v 0.08905500 0.03629400 0.00796100
v 0.11500000 -0.00427400 -0.00228000
v 0.11499600 0.00133300 -0.00249800
v 0.10395200 0.00098900 -0.00250100
v 0.10396200 -0.00534900 -0.00214800
v 0.10394800 0.00481200 -0.00213700
v 0.10400300 0.00929900 -0.00114600
v 0.10650000 -0.00933300 -0.00110900
v 0.10400200 -0.01147700 -0.00040600
v 0.10650000 0.00933300 -0.00110900
v 0.10383300 0.01245300 -0.00002400
v 0.10650000 0.01374500 0.00060200
v 0.10383600 -0.01515000 0.00129100
v 0.10387400 0.01600500 0.00180400
v 0.10650000 -0.01374500 0.00060200
v 0.10650000 0.01785500 0.00294500
v 0.10399300 0.01960500 0.00417600
v 0.10394000 -0.01857500 0.00340800
v 0.10650000 -0.01785500 0.00294500
v 0.10398600 0.02190800 0.00617800
v 0.10398700 -0.02180800 0.00611500
v 0.11508000 0.02176500 0.00604400
v 0.11500400 -0.02170700 0.00598900
v 0.11499100 0.00920700 -0.00120000
v 0.11500000 0.01374500 0.00060200
v 0.11504700 0.01734000 0.00263700
v 0.11496700 -0.01418800 0.00078000
v 0.11503800 -0.01848000 0.00334500
v 0.11344000 0.01357400 0.00085200
v 0.11342400 -0.01347100 0.00081100
v 0.11342400 0.01795200 0.00338300
v 0.11340400 -0.01802600 0.00347300
v 0.11450600 -0.01091100 -0.00421700
v 0.10966400 -0.00834100 -0.00458200
v 0.11450800 -0.00268500 -0.00545900
v 0.10333900 -0.00229300 -0.00727300
v 0.10348600 -0.00180400 -0.00450300
v 0.10345100 0.00242800 -0.00727000
v 0.10350300 0.00089500 -0.00302300
v 0.10349600 -0.00874300 -0.00331400
v 0.10348400 0.01015100 -0.00150300
v 0.10340900 0.00206400 -0.00475700
v 0.10348000 0.00847000 -0.00345400
v 0.10343200 -0.00921400 -0.00173000
v 0.10352200 -0.01744900 0.00189300
v 0.10350700 -0.01571500 -0.00034900
v 0.10348800 -0.01750500 -0.00297700
v 0.10355800 0.01643800 0.00120800
v 0.10346000 0.02092500 -0.00277000
v 0.10349200 0.01681900 -0.00295500
v 0.10348700 -0.02069700 -0.00273600
v 0.10347800 0.02342700 0.00466500
v 0.10323200 0.01945400 0.00092300
v 0.10346200 0.02228400 0.00577300
v 0.10346700 -0.02212100 0.00574000
v 0.10347400 -0.02340000 0.00467100
v 0.10982100 -0.02763200 0.00053900
v 0.11225000 -0.02399200 -0.00226700
v 0.11249700 -0.02717500 0.00108300
v 0.11423800 -0.02077600 -0.00312300
v 0.11468700 -0.02572500 0.00256700
v 0.11285500 0.02302700 -0.00267300
v 0.11376200 0.02648800 0.00173700
v 0.11472500 0.01962000 -0.00336600
v 0.11525700 0.01513100 -0.00353100
v 0.11527400 0.00002000 -0.00541000
v 0.11528500 -0.01655900 -0.00338500
v 0.09884900 -0.00405600 -0.00950000
v 0.09217200 -0.00405900 -0.00951100
v 0.10162600 -0.00387400 -0.00801900
v 0.09257200 0.00405600 -0.00950100
v 0.09222100 0.02460000 -0.00500700
v 0.09961600 0.02287500 -0.00192100
v 0.10194700 0.01517500 -0.00478100
v 0.09212000 0.01764600 -0.00914200
v 0.09924100 -0.02286300 -0.00198900
v 0.09212900 -0.02463800 -0.00509100
v 0.10180100 -0.02273500 -0.00214100
v 0.10099500 -0.01538200 -0.00523900
v 0.09218700 -0.01760100 -0.00909800
v 0.08046300 0.02583300 -0.00935800
v 0.08068200 0.03070800 -0.00568300
v 0.08322600 0.03275600 -0.00372800
v 0.08054600 -0.03012600 -0.00616400
v 0.08296500 -0.03271700 -0.00376600
v 0.10298500 -0.01579800 -0.00364300
v 0.09003600 -0.01698800 -0.00347600
v 0.09104500 -0.01631500 -0.00552500
v 0.09116700 -0.02236900 -0.00212000
v 0.10324800 -0.01928800 0.00080500
v 0.10192700 0.02261600 -0.00214300
v 0.10310500 0.01492800 -0.00191400
v 0.09122900 0.01617800 -0.00573600
v 0.09099200 0.02212300 -0.00213200
v 0.09001800 0.00188700 -0.00752400
v 0.09123900 0.00388000 -0.00905200
v 0.09092100 -0.00396500 -0.00909100
v 0.09064400 0.02917400 0.00413100
v 0.09156200 0.03154700 -0.00024900
v 0.09235100 0.02829200 0.00216500
v 0.09022800 -0.02917000 0.00526500
v 0.09149700 -0.03153800 -0.00022400
v 0.09231400 -0.02829400 0.00216600
v 0.08797600 0.03475500 0.00289700
v 0.08508000 0.03592800 0.00312500
v 0.08841900 0.03350000 0.00102500
v 0.08713500 0.03788800 0.00651200
v 0.08386000 0.03809500 0.00637700
v 0.08087800 0.03127900 -0.00458500
v 0.08094800 0.03183400 0.00055600
v 0.08299700 0.03277800 -0.00336600
v 0.08281700 0.03367400 0.00074900
v 0.08136100 0.03699400 0.00705100
v 0.08797000 -0.03419100 0.00207300
v 0.08798700 -0.03742400 0.00683500
v 0.08595900 -0.03818200 0.00629200
v 0.08183200 -0.03307800 0.00093300
v 0.08288700 -0.03788500 0.00651500
v 0.08157200 -0.03179400 -0.00412200
v 0.09003000 -0.02556300 0.00264800
v 0.09028400 -0.02292100 -0.00084200
v 0.09156000 -0.02330300 -0.00151700
v 0.09174100 -0.02777700 0.00220900
v 0.08997200 -0.01080500 -0.00604000
v 0.09079900 -0.01513000 -0.00597000
v 0.09065700 0.00775200 -0.00817600
v 0.08999600 0.01003900 -0.00628600
v 0.09093200 0.01517300 -0.00603300
v 0.09031800 0.02302700 -0.00078800
v 0.09006100 0.02534600 0.00249700
v 0.09055000 0.02875600 0.00423300
v 0.08092700 -0.00953900 -0.01255100
v 0.08077900 -0.01296400 -0.01286600
v 0.08366200 -0.01522000 -0.01243400
v 0.08333500 -0.00801700 -0.01248600
v 0.08588800 -0.00847300 -0.01252700
v 0.08688000 -0.01348800 -0.01250000
v 0.08756600 -0.01124400 -0.01276300
v 0.08153900 -0.00965700 -0.01300000
v 0.08510000 -0.01450000 -0.01300700
v 0.08506100 -0.00841500 -0.01300700
v 0.08072700 0.01274100 -0.01250000
v 0.08075900 0.01008900 -0.01286700
v 0.08184400 0.01409600 -0.01295800
v 0.08302800 0.00799600 -0.01248300
v 0.08451500 0.01501400 -0.01251300
v 0.08632600 0.00875800 -0.01252800
v 0.08695700 0.01357200 -0.01250100
v 0.08749700 0.01128700 -0.01283500
v 0.08505700 0.00855800 -0.01300900
v 0.08461300 0.01458600 -0.01301700
vn 0.83960000 -0.14650000 0.52310000
vn 0.91360000 -0.29810000 0.27650000
vn 0.92170000 0.38610000 0.03700000
vn 0.84490000 0.50510000 0.17610000
vn 0.88500000 -0.07510000 -0.45940000
vn 0.95100000 -0.16040000 0.26440000
vn 0.85890000 0.42120000 -0.29140000
vn 0.75930000 -0.36900000 0.53600000
vn 0.94860000 -0.12760000 0.28950000
vn 0.83270000 0.03790000 0.55240000
vn 0.90350000 0.23400000 -0.35910000
vn 0.84680000 -0.38580000 -0.36610000
vn 0.94060000 0.02810000 0.33820000
vn 0.88680000 0.22190000 0.40540000
vn 0.88650000 -0.05630000 -0.45940000
vn 0.86060000 -0.45070000 -0.23710000
vn 0.94160000 0.18900000 0.27870000
vn 0.57180000 -0.39090000 -0.72130000
vn 0.22300000 -0.60000000 -0.76830000
vn 0.16720000 -0.33740000 -0.92640000
vn 0.36950000 -0.25210000 -0.89440000
vn 0.52020000 -0.28160000 -0.80630000
vn 0.34240000 -0.69660000 -0.63040000
vn 0.49470000 -0.75620000 -0.42830000
vn 0.19080000 -0.81210000 -0.55140000
vn 0.52100000 -0.84310000 -0.13330000
vn 0.13980000 -0.33150000 -0.93310000
vn 0.20290000 -0.91120000 -0.35860000
vn 0.59720000 0.39090000 -0.70030000
vn 0.33990000 0.24590000 -0.90770000
vn 0.16670000 0.33710000 -0.92660000
vn 0.22490000 0.59950000 -0.76810000
vn 0.51110000 0.74190000 -0.43400000
vn 0.27410000 0.30430000 -0.91230000
vn 0.19330000 0.78330000 -0.59080000
vn 0.53370000 0.31440000 -0.78510000
vn 0.39260000 0.87100000 -0.29540000
vn 0.23050000 0.87670000 -0.42230000
vn 0.24050000 -0.15100000 -0.95880000
vn 0.35720000 -0.62770000 -0.69160000
vn 0.33610000 -0.37500000 -0.86390000
vn 0.29240000 0.57300000 -0.76560000
vn 0.24120000 0.15160000 -0.95860000
vn 0.33870000 0.38260000 -0.85960000
vn 0.32810000 0.23420000 -0.91510000
vn 0.39200000 -0.26320000 -0.88150000
vn 0.23560000 0.10050000 -0.96660000
vn 0.23620000 -0.10100000 -0.96640000
vn 0.39230000 -0.10790000 -0.91350000
vn 0.19140000 -0.30800000 -0.93190000
vn 0.56940000 0.15150000 -0.80790000
vn 0.37800000 -0.15020000 -0.91350000
vn 0.20170000 0.29350000 -0.93440000
vn 0.23850000 0.31340000 -0.91920000
vn 0.15400000 -0.76790000 -0.62180000
vn 0.11270000 -0.64570000 -0.75520000
vn 0.00220000 -0.11460000 -0.99340000
vn 0.13160000 0.11680000 -0.98440000
vn 0.23320000 -0.06330000 -0.97040000
vn 0.23140000 0.07730000 -0.96980000
vn -0.08430000 -0.08540000 -0.99280000
vn -0.04880000 0.22400000 -0.97340000
vn 0.17770000 0.60990000 -0.77230000
vn -0.26420000 0.48770000 -0.83210000
vn -0.35020000 0.24150000 -0.90500000
vn -0.86720000 0.05120000 -0.49530000
vn -0.86970000 0.04600000 -0.49140000
vn -0.46670000 -0.37050000 -0.80310000
vn -0.34450000 -0.28450000 -0.89460000
vn -0.17200000 -0.61630000 -0.76850000
vn -0.39170000 0.47690000 -0.78690000
vn -0.51950000 -0.36310000 -0.77350000
vn -0.11080000 -0.56000000 -0.82110000
vn -0.17800000 0.61490000 -0.76830000
vn 0.28940000 -0.12850000 -0.94850000
vn 0.17590000 0.61170000 -0.77130000
vn 0.34230000 -0.44820000 -0.82580000
vn 0.28880000 -0.53390000 -0.79470000
vn 0.47620000 0.32680000 -0.81640000
vn 0.52600000 0.29800000 -0.79650000
vn 0.10290000 -0.28390000 -0.95330000
vn 0.57810000 -0.22040000 -0.78560000
vn 0.22470000 0.12900000 -0.96580000
vn 0.61010000 -0.08420000 -0.78780000
vn 0.08750000 0.32500000 -0.94170000
vn -0.80480000 -0.25580000 0.53560000
vn -0.96770000 -0.07060000 0.24210000
vn -0.88960000 0.14760000 -0.43220000
vn -0.96320000 -0.05230000 0.26370000
vn -0.94580000 -0.22070000 0.23830000
vn -0.88730000 -0.15400000 -0.43480000
vn -0.96800000 0.01050000 0.25060000
vn -0.95840000 0.08060000 0.27390000
vn -0.82910000 0.26520000 0.49230000
vn -0.96480000 0.16910000 0.20130000
vn -0.93460000 0.09870000 0.34180000
vn -0.90110000 -0.34040000 -0.26850000
vn -0.98640000 0.15800000 -0.04510000
vn -0.85140000 0.36850000 -0.37330000
vn -0.94080000 -0.23830000 0.24120000
vn -0.96510000 -0.24590000 -0.09000000
vn -0.96370000 0.19050000 0.18690000
vn -0.86550000 -0.47000000 0.17300000
vn -0.92990000 0.31750000 0.18570000
vn -0.81510000 -0.13830000 0.56250000
vn -0.85200000 0.07420000 0.51830000
vn -0.10770000 -0.93390000 -0.34080000
vn 0.38100000 -0.88850000 -0.25580000
vn -0.14950000 -0.89480000 -0.42080000
vn 0.04490000 0.95120000 -0.30540000
vn 0.02280000 0.92950000 -0.36810000
vn 0.14830000 0.56350000 -0.81270000
vn -0.12380000 0.26610000 -0.95600000
vn 0.04500000 0.65800000 -0.75170000
vn -0.26830000 0.16710000 -0.94870000
vn 0.22080000 0.28960000 -0.93130000
vn -0.36720000 0.01360000 -0.93000000
vn 0.28110000 0.08970000 -0.95550000
vn -0.32980000 0.70800000 0.62440000
vn -0.12650000 0.77970000 0.61330000
vn -0.14140000 0.20030000 0.96950000
vn -0.61860000 0.15910000 0.76940000
vn -0.47590000 0.28080000 0.83350000
vn -0.00070000 0.28710000 0.95790000
vn -0.00110000 -0.33370000 0.94270000
vn -0.32290000 -0.31670000 0.89180000
vn -0.80700000 0.42220000 0.41300000
vn -0.84570000 -0.09890000 0.52440000
vn -0.58440000 0.52200000 0.62130000
vn -0.54250000 0.78970000 0.28660000
vn -0.20710000 0.60440000 0.76930000
vn -0.07100000 0.98110000 0.18000000
vn -0.41460000 0.20010000 0.88770000
vn -0.50720000 -0.16170000 0.84650000
vn -0.11180000 -0.31180000 0.94360000
vn -0.06070000 -0.23370000 0.97040000
vn -0.10660000 -0.76780000 0.63180000
vn -0.46950000 0.27840000 0.83790000
vn -0.04550000 0.34760000 0.93650000
vn -0.60760000 -0.23550000 0.75860000
vn -0.30970000 -0.71750000 0.62400000
vn -0.67510000 -0.52890000 0.51430000
vn 0.13920000 -0.97840000 0.15280000
vn -0.57610000 -0.52460000 0.62680000
vn 0.12990000 -0.55350000 0.82260000
vn -0.52390000 -0.80680000 0.27330000
vn -0.43600000 -0.31370000 0.84350000
vn -0.16810000 -0.23760000 -0.95670000
vn 0.11820000 -0.62620000 -0.77060000
vn 0.28090000 -0.36860000 -0.88610000
vn -0.30460000 -0.13250000 -0.94320000
vn -0.36540000 0.13640000 -0.92080000
vn 0.46730000 -0.22470000 -0.85510000
vn -0.18120000 0.56370000 0.80580000
vn 0.07680000 0.91020000 0.40700000
vn 0.01250000 0.52580000 0.85050000
vn 0.32160000 0.83500000 0.44650000
vn 0.27470000 0.96100000 0.03260000
vn 0.39730000 0.77640000 0.48930000
vn -0.23760000 0.52740000 0.81570000
vn 0.40470000 0.47730000 0.78000000
vn 0.40830000 -0.85290000 0.32530000
vn 0.08420000 -0.88460000 0.45880000
vn -0.05200000 -0.33160000 0.94200000
vn -0.14790000 -0.58030000 0.80090000
vn 0.07920000 -0.92890000 0.36180000
vn 0.31130000 -0.85480000 0.41520000
vn -0.37680000 -0.48680000 0.78810000
vn 0.47000000 -0.42930000 0.77120000
vn 0.08620000 -0.48830000 0.86840000
vn -0.05160000 -0.57100000 0.81940000
vn -0.73680000 -0.09400000 0.66950000
vn 0.51930000 -0.23570000 0.82150000
vn 0.54030000 -0.63240000 0.55510000
vn -0.61910000 -0.39950000 0.67610000
vn -0.78230000 -0.53810000 0.31380000
vn 0.05130000 -0.60730000 0.79280000
vn -0.09830000 -0.48310000 0.87000000
vn 0.12290000 -0.29100000 0.94880000
vn -0.70900000 -0.03360000 0.70440000
vn 0.52380000 -0.06510000 0.84940000
vn 0.55300000 -0.51810000 0.65250000
vn -0.61640000 -0.40680000 0.67420000
vn -0.78370000 -0.49680000 0.37270000
vn 0.08230000 -0.47510000 0.87610000
vn -0.07770000 -0.36790000 0.92660000
vn 0.16650000 -0.11260000 0.97960000
vn -0.76310000 0.07920000 0.64140000
vn 0.59600000 0.08920000 0.79800000
vn -0.61500000 -0.04420000 0.78730000
vn 0.47680000 -0.40180000 0.78180000
vn -0.69400000 -0.48610000 0.53120000
vn 0.11670000 -0.35560000 0.92730000
vn -0.10890000 -0.39230000 0.91340000
vn 0.24510000 -0.18880000 0.95090000
vn 0.58850000 0.48280000 0.64850000
vn 0.09930000 0.37450000 0.92190000
vn -0.11210000 0.39310000 0.91260000
vn -0.62960000 0.25050000 0.73540000
vn 0.47970000 0.03770000 0.87660000
vn -0.81110000 -0.09900000 0.57640000
vn 0.22340000 0.29170000 0.93010000
vn 0.14780000 0.12750000 0.98080000
vn -0.10420000 0.35770000 0.92800000
vn 0.14140000 0.56180000 0.81510000
vn -0.71150000 0.51610000 0.47680000
vn 0.52380000 0.60740000 0.59720000
vn -0.61730000 0.25620000 0.74380000
vn 0.54570000 0.17420000 0.81970000
vn -0.78830000 -0.03550000 0.61430000
vn -0.07370000 0.47730000 0.87560000
vn 0.05150000 0.39220000 0.91850000
vn 0.12600000 0.67630000 0.72580000
vn -0.76530000 0.54170000 0.34760000
vn 0.53140000 0.69520000 0.48400000
vn -0.62950000 0.52250000 0.57500000
vn 0.52850000 0.32230000 0.78540000
vn -0.72440000 0.04530000 0.68790000
vn 0.08050000 0.51380000 0.85410000
vn -0.10040000 0.48290000 0.86990000
vn 0.91480000 -0.04800000 0.40110000
vn 0.92670000 0.03390000 0.37430000
vn 0.98540000 0.00870000 -0.16980000
vn 0.96560000 0.08300000 -0.24630000
vn 0.94670000 -0.13040000 0.29470000
vn 0.95580000 -0.13450000 -0.26140000
vn 0.94280000 0.13880000 0.30290000
vn 0.87470000 0.46510000 0.13630000
vn 0.88410000 0.06370000 0.46290000
vn 0.89660000 -0.40640000 0.17600000
vn 0.79590000 0.04210000 0.60400000
vn 0.09540000 0.13870000 -0.98570000
vn 0.11580000 0.11220000 -0.98690000
vn 0.25350000 0.10930000 -0.96110000
vn 0.15440000 0.82710000 -0.54040000
vn 0.90210000 0.07740000 0.42460000
vn 0.89940000 -0.40840000 0.15570000
vn 0.92120000 -0.38800000 0.03010000
vn 0.44330000 -0.32500000 0.83540000
vn -0.19740000 -0.61110000 0.76660000
vn -0.45670000 -0.36790000 0.81000000
vn 0.25810000 -0.62340000 0.73810000
vn -0.22980000 -0.74700000 0.62380000
vn 0.29620000 -0.73020000 0.61570000
vn -0.33240000 -0.61990000 0.71080000
vn 0.29530000 -0.51170000 0.80690000
vn 0.38890000 -0.19960000 0.89940000
vn -0.38300000 -0.15510000 0.91060000
vn -0.33910000 -0.65290000 0.67730000
vn 0.35240000 -0.70760000 0.61250000
vn -0.38480000 -0.59400000 0.70650000
vn 0.46930000 -0.48560000 0.73750000
vn 0.41470000 0.05550000 0.90830000
vn 0.43940000 -0.21070000 0.87320000
vn 0.14520000 0.01170000 0.98930000
vn -0.29580000 -0.31130000 0.90310000
vn 0.36590000 0.36240000 0.85720000
vn -0.47930000 0.34780000 0.80580000
vn -0.51030000 0.04730000 0.85870000
vn 0.34020000 -0.18340000 0.92230000
vn -0.53710000 -0.36110000 0.76230000
vn 0.39710000 -0.41310000 0.81960000
vn 0.02530000 -0.05170000 0.99830000
vn 0.43690000 -0.02530000 0.89910000
vn -0.25040000 0.16530000 0.95390000
vn 0.38920000 0.21530000 0.89560000
vn -0.09420000 0.37390000 0.92270000
vn -0.46340000 0.55760000 0.68880000
vn 0.40830000 0.48640000 0.77250000
vn 0.42380000 0.76960000 0.47760000
vn -0.39810000 0.65720000 0.64000000
vn 0.38620000 0.56990000 0.72530000
vn -0.40170000 0.18390000 0.89710000
vn 0.39520000 0.11900000 0.91090000
vn -0.41550000 0.33580000 0.84530000
vn 0.43810000 0.41330000 0.79830000
vn -0.37800000 0.60730000 0.69880000
vn 0.25550000 0.61550000 0.74550000
vn -0.33550000 0.74040000 0.58240000
vn -0.15060000 0.78200000 0.60480000
vn -0.37080000 0.49800000 0.78390000
vn 0.41980000 0.57480000 0.70240000
vn 0.42650000 -0.11530000 0.89710000
vn -0.41730000 -0.27770000 0.86530000
vn -0.50940000 -0.74790000 0.42560000
vn 0.01410000 -0.90710000 0.42070000
vn 0.50780000 -0.66860000 0.54330000
vn -0.32520000 0.12120000 0.93780000
vn -0.03800000 0.95940000 0.27960000
vn -0.58820000 0.61570000 0.52430000
vn 0.40730000 0.25280000 0.87760000
vn 0.40630000 0.72860000 0.55140000
vn 0.31970000 0.15270000 0.93510000
vn 0.21050000 -0.02790000 0.97720000
vn -0.42230000 -0.02170000 0.90620000
vn -0.10990000 0.14770000 0.98290000
vn -0.25990000 -0.15520000 0.95310000
vn 0.50640000 -0.22680000 0.83200000
vn -0.72930000 0.23280000 0.64340000
vn -0.19840000 0.37900000 0.90390000
vn -0.69350000 -0.19660000 0.69310000
vn -0.35650000 -0.38800000 0.84990000
vn -0.70000000 -0.30490000 0.64580000
vn -0.42150000 0.40610000 0.81080000
vn -0.54150000 -0.42230000 0.72690000
vn -0.70360000 0.31260000 0.63810000
vn -0.71070000 -0.37660000 0.59420000
vn -0.13280000 -0.57510000 0.80720000
vn 0.07720000 0.55970000 0.82510000
vn -0.70200000 0.39680000 0.59140000
vn -0.33290000 -0.19140000 0.92330000
vn -0.31460000 0.21920000 0.92360000
vn 0.39980000 -0.25230000 0.88120000
vn 0.26440000 0.34090000 0.90210000
vn 0.05300000 -0.25280000 0.96610000
vn 0.45630000 -0.40160000 0.79400000
vn 0.26990000 -0.53780000 0.79870000
vn 0.45290000 0.40010000 0.79670000
vn 0.21080000 0.55540000 0.80440000
vn 0.68080000 -0.31770000 0.66000000
vn 0.69560000 0.30260000 0.65160000
vn 0.67840000 -0.42590000 0.59860000
vn 0.70330000 0.41620000 0.57630000
vn 0.01420000 -0.11840000 -0.99290000
vn 0.10110000 -0.14380000 -0.98440000
vn 0.20310000 -0.08810000 -0.97520000
vn -0.81920000 0.39630000 -0.41440000
vn -0.99340000 0.08160000 0.08010000
vn -0.79320000 -0.49660000 -0.35250000
vn -0.93900000 -0.01250000 0.34360000
vn -0.95580000 0.08510000 0.28150000
vn -0.97740000 -0.05680000 0.20370000
vn -0.97980000 -0.18220000 0.08220000
vn -0.94840000 -0.06480000 0.31040000
vn -0.94810000 0.08650000 0.30590000
vn -0.98550000 0.11670000 0.12340000
vn -0.99670000 -0.03160000 0.07530000
vn -0.89240000 -0.13660000 -0.43010000
vn -0.97680000 -0.10770000 0.18490000
vn -0.77640000 -0.18270000 -0.60320000
vn -0.89380000 0.33960000 -0.29290000
vn -0.79830000 0.17650000 -0.57590000
vn -0.97540000 -0.16250000 0.14870000
vn -0.95010000 -0.30210000 0.07700000
vn -0.83300000 0.04850000 0.55110000
vn -0.84830000 -0.00100000 0.52960000
vn -0.89860000 -0.00320000 0.43870000
vn 0.08250000 -0.91980000 -0.38360000
vn 0.26170000 -0.54700000 -0.79520000
vn 0.42730000 -0.87990000 -0.20780000
vn 0.68110000 -0.31120000 -0.66270000
vn 0.75560000 -0.65410000 0.03470000
vn 0.39040000 0.50790000 -0.76790000
vn 0.61600000 0.77960000 -0.11270000
vn 0.71250000 0.26080000 -0.65140000
vn 0.74360000 0.06650000 -0.66530000
vn 0.61070000 0.00320000 -0.79190000
vn 0.76890000 -0.09520000 -0.63230000
vn 0.06800000 0.90100000 -0.42840000
vn 0.21420000 0.92000000 -0.32820000
vn -0.19380000 0.94400000 -0.26700000
vn 0.15860000 -0.91760000 -0.36460000
vn 0.49780000 -0.49550000 -0.71180000
vn -0.00750000 -0.62870000 -0.77760000
vn -0.13880000 0.99030000 0.00260000
vn 0.56510000 0.82400000 0.04130000
vn 0.06960000 0.60940000 -0.78980000
vn 0.54480000 0.47230000 -0.69290000
vn -0.38630000 0.47360000 -0.79150000
vn 0.07090000 -0.99490000 0.07150000
vn 0.51860000 -0.85400000 0.04190000
vn -0.37790000 0.52150000 -0.76500000
vn -0.53610000 0.67540000 -0.50650000
vn -0.14970000 0.87720000 -0.45610000
vn -0.49230000 -0.68550000 -0.53640000
vn -0.38880000 -0.90670000 0.16350000
vn -0.68660000 -0.72020000 -0.09940000
vn 0.94050000 0.14470000 0.30740000
vn 0.73320000 -0.21450000 0.64540000
vn 0.69960000 0.69330000 0.17270000
vn -0.94430000 0.32870000 0.01810000
vn -0.40840000 -0.45040000 -0.79390000
vn -0.94040000 0.10920000 0.32190000
vn 0.66030000 0.23360000 0.71370000
vn 0.73900000 -0.66420000 0.11280000
vn 0.93450000 -0.00540000 0.35600000
vn 0.51690000 -0.36390000 0.77480000
vn 0.58420000 0.31790000 0.74680000
vn 0.91360000 0.14590000 0.37950000
vn 0.64980000 0.75630000 0.07610000
vn 0.59640000 0.17360000 0.78370000
vn 0.97530000 0.02420000 0.21970000
vn 0.64550000 -0.74820000 0.15340000
vn 0.53610000 -0.26530000 0.80140000
vn 0.56340000 0.69260000 -0.45040000
vn 0.04330000 0.80650000 -0.58960000
vn 0.45380000 0.87740000 -0.15580000
vn 0.36850000 0.92910000 -0.03220000
vn -0.24940000 0.90610000 -0.34190000
vn -0.70440000 0.68760000 -0.17620000
vn -0.81710000 0.53420000 -0.21680000
vn -0.35390000 0.91450000 -0.19610000
vn -0.41880000 0.80940000 -0.41170000
vn -0.62350000 0.78100000 0.03530000
vn 0.50950000 -0.78870000 -0.34410000
vn 0.53790000 -0.84280000 0.01870000
vn 0.17910000 -0.94200000 -0.28370000
vn -0.64230000 -0.69110000 -0.33150000
vn -0.37790000 -0.92480000 -0.04490000
vn -0.60850000 -0.75960000 -0.22950000
vn 0.85320000 0.36640000 0.37110000
vn 0.80830000 0.35930000 0.46640000
vn 0.16930000 0.61650000 0.76890000
vn 0.39620000 0.53620000 0.74530000
vn 0.82430000 0.17380000 0.53880000
vn 0.54340000 0.32510000 0.77400000
vn 0.62200000 -0.16060000 0.76640000
vn 0.83270000 -0.16600000 0.52820000
vn 0.50860000 -0.31570000 0.80110000
vn 0.73970000 -0.43080000 0.51700000
vn 0.81930000 -0.40650000 0.40440000
vn 0.88300000 -0.22780000 0.41040000
vn -0.78610000 0.48020000 -0.38930000
vn -0.70830000 -0.34250000 -0.61730000
vn -0.12000000 -0.90280000 -0.41290000
vn -0.20860000 0.87790000 -0.43110000
vn 0.55520000 0.75030000 -0.35880000
vn 0.70850000 -0.53500000 -0.46010000
vn 0.81160000 0.07530000 -0.57930000
vn -0.30830000 0.27620000 -0.91030000
vn 0.31070000 -0.65510000 -0.68870000
vn 0.16820000 0.61080000 -0.77370000
vn -0.86260000 0.31640000 -0.39480000
vn -0.70550000 -0.31780000 -0.63350000
vn -0.46610000 0.55790000 -0.68670000
vn -0.23640000 -0.84980000 -0.47120000
vn 0.13270000 0.93700000 -0.32320000
vn 0.59460000 -0.68140000 -0.42670000
vn 0.71260000 0.51330000 -0.47830000
vn 0.78330000 -0.05570000 -0.61910000
vn 0.15980000 -0.60620000 -0.77910000
vn 0.13440000 0.48370000 -0.86490000
f 3//3 4//4 2//2
f 5//5 6//6 7//7
f 6//6 8//8 7//7
f 8//8 9//9 7//7
f 10//10 11//11 12//12
f 10//10 13//13 11//11
f 14//14 17//17 16//16
f 18//18 19//19 20//20
f 21//21 18//18 20//20
f 18//18 22//22 19//19
f 22//22 23//23 19//19
f 23//23 24//24 19//19
f 24//24 25//25 19//19
f 24//24 26//26 25//25
f 27//27 23//23 22//22
f 23//23 28//28 24//24
f 29//29 30//30 31//31
f 32//32 29//29 31//31
f 33//33 34//34 32//32
f 35//35 33//33 32//32
f 34//34 36//36 32//32
f 36//36 29//29 32//32
f 37//37 33//33 35//35
f 38//38 34//34 33//33
f 39//39 40//40 41//41
f 42//42 43//43 44//44
f 42//42 45//45 43//43
f 46//46 40//40 39//39
f 45//45 47//47 43//43
f 48//48 46//46 39//39
f 49//49 50//50 47//47
f 51//51 49//49 47//47
f 45//45 51//51 47//47
f 52//52 46//46 48//48
f 53//53 54//54 48//48
f 54//54 52//52 48//48
f 49//49 55//55 50//50
f 46//46 56//56 40//40
f 51//51 57//57 49//49
f 58//58 52//52 54//54
f 59//59 52//52 58//58
f 51//51 60//60 57//57
f 46//46 61//61 56//56
f 62//62 45//45 42//42
f 60//60 59//59 57//57
f 65//65 31//31 64//64
f 64//64 66//66 65//65
f 67//67 68//68 69//69
f 68//68 70//70 69//69
f 70//70 20//20 69//69
f 71//71 67//67 66//66
f 72//72 71//71 66//66
f 73//73 71//71 72//72
f 73//73 74//74 71//71
f 75//75 76//76 74//74
f 73//73 75//75 74//74
f 77//77 75//75 73//73
f 21//21 20//20 70//70
f 78//78 21//21 70//70
f 30//30 44//44 63//63
f 31//31 30//30 63//63
f 75//75 83//83 76//76
f 81//81 75//75 77//77
f 82//82 41//41 78//78
f 41//41 21//21 78//78
f 43//43 81//81 84//84
f 79//79 44//44 84//84
f 85//85 53//53 80//80
f 53//53 48//48 80//80
f 48//48 39//39 80//80
f 39//39 82//82 80//80
f 83//83 85//85 80//80
f 39//39 41//41 82//82
f 47//47 50//50 81//81
f 43//43 47//47 81//81
f 86//86 87//87 88//88
f 89//89 90//90 88//88
f 90//90 86//86 88//88
f 91//91 92//92 88//88
f 92//92 89//89 88//88
f 93//93 94//94 91//91
f 95//95 96//96 91//91
f 94//94 95//95 91//91
f 96//96 92//92 91//91
f 97//97 102//102 93//93
f 98//98 99//99 87//87
f 87//87 100//100 98//98
f 101//101 102//102 97//97
f 103//103 106//106 101//101
f 100//100 105//105 98//98
f 107//107 25//25 109//109
f 37//37 110//110 111//111
f 112//112 113//113 114//114
f 113//113 34//34 114//114
f 112//112 115//115 113//113
f 112//112 116//116 115//115
f 115//115 116//116 117//117
f 118//118 62//62 116//116
f 119//119 120//120 121//121
f 122//122 119//119 121//121
f 121//121 124//124 123//123
f 125//125 126//126 124//124
f 122//122 127//127 119//119
f 128//128 123//123 126//126
f 129//129 130//130 131//131
f 130//130 132//132 131//131
f 133//133 129//129 131//131
f 134//134 140//140 135//135
f 137//137 141//141 136//136
f 138//138 139//139 135//135
f 140//140 138//138 135//135
f 142//142 134//134 141//141
f 144//144 147//147 145//145
f 146//146 144//144 143//143
f 148//148 149//149 27//27
f 150//150 149//149 148//148
f 151//151 150//150 148//148
f 150//150 151//151 152//152
f 153//153 150//150 152//152
f 154//154 155//155 156//156
f 155//155 157//157 156//156
f 158//158 155//155 154//154
f 154//154 160//160 158//158
f 161//161 159//159 160//160
f 162//162 163//163 164//164
f 163//163 165//165 164//164
f 166//166 165//165 163//163
f 166//166 167//167 165//165
f 167//167 168//168 165//165
f 167//167 169//169 168//168
f 170//170 171//171 172//172
f 173//173 170//170 172//172
f 174//174 175//175 176//176
f 174//174 173//173 175//175
f 175//175 173//173 172//172
f 177//177 176//176 178//178
f 177//177 174//174 176//176
f 179//179 178//178 180//180
f 181//181 179//179 180//180
f 179//179 177//177 178//178
f 182//182 183//183 184//184
f 181//181 180//180 183//183
f 182//182 181//181 183//183
f 185//185 184//184 186//186
f 185//185 182//182 184//184
f 187//187 186//186 188//188
f 189//189 187//187 188//188
f 190//190 189//189 188//188
f 187//187 185//185 186//186
f 191//191 190//190 192//192
f 191//191 189//189 190//190
f 193//193 191//191 194//194
f 195//195 193//193 194//194
f 198//198 199//199 196//196
f 200//200 199//199 201//201
f 200//200 196//196 199//199
f 202//202 203//203 201//201
f 204//204 202//202 201//201
f 203//203 200//200 201//201
f 205//205 202//202 204//204
f 206//206 205//205 204//204
f 207//207 205//205 206//206
f 208//208 207//207 206//206
f 209//209 207//207 208//208
f 209//209 208//208 210//210
f 211//211 212//212 210//210
f 212//212 209//209 210//210
f 213//213 212//212 211//211
f 214//214 213//213 211//211
f 215//215 213//213 214//214
f 216//216 215//215 214//214
f 217//217 215//215 216//216
f 217//217 216//216 218//218
f 219//219 217//217 220//220
f 221//221 222//222 223//223
f 224//224 225//225 223//223
f 225//225 221//221 223//223
f 222//222 226//226 223//223
f 222//222 227//227 226//226
f 228//228 229//229 224//224
f 229//229 225//225 224//224
f 227//227 231//231 226//226
f 118//118 232//232 62//62
f 118//118 233//233 232//232
f 233//233 234//234 232//232
f 235//235 112//112 114//114
f 38//38 235//235 114//114
f 238//238 392//392 236//236
f 239//239 242//242 240//240
f 242//242 244//244 243//243
f 244//244 246//246 245//245
f 247//247 239//239 248//248
f 239//239 241//241 248//248
f 247//247 248//248 249//249
f 250//250 247//247 249//249
f 250//250 249//249 251//251
f 252//252 250//250 251//251
f 254//254 256//256 255//255
f 252//252 251//251 256//256
f 255//255 258//258 253//253
f 259//259 257//257 258//258
f 260//260 259//259 261//261
f 262//262 260//260 261//261
f 260//260 257//257 259//259
f 262//262 261//261 263//263
f 264//264 262//262 263//263
f 265//265 266//266 264//264
f 267//267 269//269 266//266
f 268//268 269//269 267//267
f 270//270 269//269 268//268
f 271//271 270//270 268//268
f 272//272 270//270 271//271
f 273//273 272//272 271//271
f 274//274 272//272 273//273
f 275//275 274//274 273//273
f 276//276 274//274 275//275
f 278//278 276//276 275//275
f 280//280 278//278 277//277
f 282//282 280//280 279//279
f 285//285 286//286 284//284
f 287//287 283//283 286//286
f 288//288 289//289 290//290
f 292//292 289//289 291//291
f 295//295 296//296 293//293
f 294//294 195//195 297//297
f 195//195 194//194 297//297
f 194//194 298//298 297//297
f 198//198 293//293 296//296
f 299//299 198//198 296//296
f 300//300 299//299 296//296
f 194//194 301//301 298//298
f 301//301 186//186 298//298
f 186//186 302//302 298//298
f 186//186 303//303 302//302
f 304//304 306//306 300//300
f 204//204 299//299 300//300
f 178//178 305//305 303//303
f 178//178 307//307 305//305
f 307//307 308//308 305//305
f 309//309 211//211 304//304
f 211//211 306//306 304//304
f 310//310 211//211 309//309
f 307//307 171//171 308//308
f 171//171 311//311 308//308
f 312//312 220//220 309//309
f 220//220 310//310 309//309
f 171//171 313//313 311//311
f 314//314 219//219 312//312
f 219//219 220//220 312//312
f 197//197 293//293 198//198
f 170//170 313//313 171//171
f 315//315 316//316 185//185
f 202//202 293//293 197//197
f 187//187 315//315 185//185
f 179//179 317//317 177//177
f 213//213 318//318 212//212
f 314//314 319//319 219//219
f 315//315 187//187 193//193
f 195//195 315//315 193//193
f 203//203 202//202 197//197
f 316//316 320//320 185//185
f 318//318 202//202 205//205
f 321//321 318//318 205//205
f 316//316 179//179 320//320
f 212//212 318//318 321//321
f 316//316 317//317 179//179
f 317//317 322//322 177//177
f 319//319 318//318 213//213
f 323//323 319//319 213//213
f 317//317 170//170 322//322
f 219//219 319//319 323//323
f 61//61 153//153 152//152
f 61//61 325//325 153//153
f 326//326 324//324 325//325
f 60//60 234//234 326//326
f 326//326 325//325 59//59
f 328//328 330//330 329//329
f 331//331 330//330 328//328
f 330//330 332//332 333//333
f 332//332 334//334 333//333
f 335//335 330//330 331//331
f 336//336 337//337 338//338
f 339//339 340//340 341//341
f 342//342 336//336 338//338
f 332//332 339//339 334//334
f 337//337 335//335 331//331
f 336//336 335//335 337//337
f 339//339 343//343 344//344
f 345//345 343//343 339//339
f 346//346 336//336 347//347
f 348//348 28//28 27//27
f 149//149 348//348 27//27
f 348//348 149//149 350//350
f 351//351 352//352 349//349
f 352//352 350//350 349//349
f 226//226 352//352 351//351
f 230//230 352//352 226//226
f 235//235 353//353 112//112
f 354//354 353//353 235//235
f 355//355 353//353 354//354
f 228//228 355//355 354//354
f 224//224 355//355 228//228
f 196//196 203//203 197//197
f 187//187 189//189 193//193
f 176//176 307//307 178//178
f 172//172 171//171 307//307
f 175//175 172//172 307//307
f 176//176 175//175 307//307
f 184//184 303//303 186//186
f 180//180 178//178 303//303
f 184//184 183//183 303//303
f 183//183 180//180 303//303
f 192//192 301//301 194//194
f 190//190 188//188 301//301
f 188//188 186//186 301//301
f 192//192 190//190 301//301
f 299//299 199//199 198//198
f 204//204 201//201 299//299
f 201//201 199//199 299//299
f 306//306 206//206 204//204
f 211//211 210//210 306//306
f 210//210 208//208 306//306
f 208//208 206//206 306//306
f 310//310 214//214 211//211
f 310//310 216//216 214//214
f 220//220 218//218 310//310
f 218//218 216//216 310//310
f 246//246 288//288 245//245
f 246//246 291//291 288//288
f 283//283 281//281 284//284
f 283//283 282//282 281//281
f 169//169 312//312 168//168
f 169//169 314//314 312//312
f 311//311 161//161 160//160
f 313//313 161//161 311//311
f 348//348 163//163 28//28
f 348//348 166//166 163//163
f 350//350 166//166 348//348
f 350//350 167//167 166//166
f 350//350 352//352 167//167
f 352//352 169//169 167//167
f 230//230 169//169 352//352
f 230//230 231//231 169//169
f 231//231 314//314 169//169
f 158//158 235//235 38//38
f 155//155 158//158 38//38
f 222//222 221//221 294//294
f 293//293 222//222 294//294
f 221//221 195//195 294//294
f 225//225 315//315 195//195
f 221//221 225//225 195//195
f 202//202 222//222 293//293
f 225//225 316//316 315//315
f 225//225 317//317 316//316
f 227//227 202//202 318//318
f 319//319 227//227 318//318
f 313//313 170//170 317//317
f 231//231 227//227 319//319
f 314//314 231//231 319//319
f 227//227 222//222 202//202
f 229//229 313//313 317//317
f 225//225 229//229 317//317
f 158//158 354//354 235//235
f 159//159 354//354 158//158
f 159//159 228//228 354//354
f 161//161 228//228 159//159
f 313//313 229//229 161//161
f 229//229 228//228 161//161
f 353//353 116//116 112//112
f 353//353 355//355 116//116
f 355//355 118//118 116//116
f 355//355 356//356 118//118
f 224//224 356//356 355//355
f 233//233 357//357 234//234
f 356//356 357//357 233//233
f 118//118 356//356 233//233
f 356//356 223//223 357//357
f 224//224 223//223 356//356
f 234//234 357//357 326//326
f 358//358 324//324 326//326
f 357//357 358//358 326//326
f 358//358 153//153 324//324
f 226//226 358//358 357//357
f 223//223 226//226 357//357
f 150//150 349//349 149//149
f 150//150 351//351 349//349
f 153//153 358//358 150//150
f 358//358 351//351 150//150
f 358//358 226//226 351//351
f 120//120 359//359 360//360
f 119//119 359//359 120//120
f 119//119 361//361 359//359
f 55//55 137//137 362//362
f 55//55 141//141 137//137
f 363//363 364//364 143//143
f 139//139 365//365 366//366
f 138//138 365//365 139//139
f 132//132 367//367 368//368
f 130//130 367//367 132//132
f 130//130 369//369 367//367
f 126//126 125//125 370//370
f 372//372 31//31 65//65
f 32//32 31//31 372//372
f 374//374 35//35 373//373
f 19//19 375//375 69//69
f 19//19 25//25 376//376
f 370//370 128//128 126//126
f 370//370 377//377 128//128
f 377//377 338//338 128//128
f 378//378 14//14 16//16
f 16//16 379//379 378//378
f 371//371 379//379 16//16
f 371//371 125//125 379//379
f 380//380 15//15 17//17
f 380//380 368//368 15//15
f 132//132 368//368 380//380
f 342//342 369//369 130//130
f 381//381 342//342 130//130
f 336//336 342//342 381//381
f 382//382 146//146 364//364
f 382//382 340//340 146//146
f 340//340 344//344 146//146
f 340//340 339//339 344//344
f 383//383 365//365 138//138
f 341//341 365//365 383//383
f 339//339 341//341 383//383
f 384//384 7//7 9//9
f 384//384 366//366 7//7
f 139//139 366//366 384//384
f 5//5 385//385 6//6
f 363//363 385//385 5//5
f 363//363 143//143 385//385
f 386//386 10//10 12//12
f 387//387 386//386 12//12
f 362//362 387//387 12//12
f 362//362 137//137 387//387
f 388//388 11//11 13//13
f 388//388 360//360 11//11
f 120//120 360//360 388//388
f 127//127 361//361 119//119
f 327//327 361//361 127//127
f 328//328 327//327 127//127
f 55//55 142//142 141//141
f 55//55 329//329 142//142
f 329//329 333//333 142//142
f 329//329 330//330 333//333
f 389//389 3//3 2//2
f 389//389 390//390 3//3
f 391//391 390//390 389//389
f 157//157 390//390 391//391
f 156//156 157//157 391//391
f 393//393 392//392 238//238
f 393//393 394//394 392//392
f 162//162 394//394 393//393
f 162//162 164//164 394//394
f 27//27 28//28 23//23
f 38//38 114//114 34//34
f 232//232 45//45 62//62
f 232//232 51//51 45//45
f 232//232 60//60 51//51
f 325//325 52//52 59//59
f 46//46 325//325 61//61
f 52//52 325//325 46//46
f 395//395 111//111 396//396
f 395//395 397//397 111//111
f 397//397 37//37 111//111
f 390//390 37//37 397//397
f 3//3 397//397 395//395
f 3//3 390//390 397//397
f 398//398 395//395 396//396
f 399//399 398//398 396//396
f 4//4 395//395 398//398
f 4//4 3//3 395//395
f 98//98 400//400 99//99
f 401//401 400//400 98//98
f 402//402 400//400 401//401
f 403//403 402//402 401//401
f 403//403 111//111 402//402
f 396//396 111//111 403//403
f 104//104 401//401 98//98
f 404//404 401//401 104//104
f 404//404 403//403 401//401
f 399//399 403//403 404//404
f 399//399 396//396 403//403
f 405//405 406//406 407//407
f 405//405 237//237 406//406
f 238//238 237//237 405//405
f 405//405 407//407 109//109
f 108//108 405//405 109//109
f 108//108 238//238 405//405
f 393//393 238//238 108//108
f 408//408 409//409 103//103
f 109//109 409//409 408//408
f 407//407 409//409 109//109
f 410//410 101//101 97//97
f 410//410 408//408 101//101
f 408//408 103//103 101//101
f 410//410 107//107 408//408
f 344//344 144//144 146//146
f 144//144 343//343 147//147
f 344//344 343//343 144//144
f 333//333 140//140 142//142
f 140//140 134//134 142//142
f 140//140 383//383 138//138
f 333//333 334//334 140//140
f 334//334 383//383 140//140
f 334//334 339//339 383//383
f 411//411 412//412 17//17
f 236//236 392//392 411//411
f 392//392 412//412 411//411
f 412//412 380//380 17//17
f 413//413 380//380 412//412
f 414//414 413//413 412//412
f 392//392 414//414 412//412
f 132//132 380//380 413//413
f 414//414 131//131 413//413
f 131//131 132//132 413//413
f 129//129 381//381 130//130
f 347//347 129//129 133//133
f 129//129 347//347 381//381
f 347//347 336//336 381//381
f 128//128 122//122 123//123
f 122//122 331//331 127//127
f 331//331 328//328 127//127
f 128//128 331//331 122//122
f 128//128 337//337 331//331
f 415//415 388//388 13//13
f 378//378 416//416 415//415
f 379//379 416//416 378//378
f 416//416 388//388 415//415
f 416//416 124//124 388//388
f 379//379 125//125 416//416
f 124//124 121//121 388//388
f 121//121 120//120 388//388
f 416//416 125//125 124//124
f 386//386 417//417 418//418
f 387//387 417//417 386//386
f 419//419 9//9 418//418
f 417//417 419//419 418//418
f 419//419 384//384 9//9
f 387//387 136//136 417//417
f 136//136 419//419 417//417
f 137//137 136//136 387//387
f 135//135 419//419 136//136
f 139//139 384//384 419//419
f 135//135 139//139 419//419
f 6//6 420//420 421//421
f 420//420 422//422 421//421
f 422//422 2//2 421//421
f 385//385 420//420 6//6
f 385//385 143//143 420//420
f 145//145 422//422 420//420
f 143//143 145//145 420//420
f 40//40 377//377 370//370
f 40//40 56//56 377//377
f 56//56 61//61 377//377
f 40//40 370//370 371//371
f 41//41 40//40 371//371
f 61//61 338//338 377//377
f 61//61 152//152 338//338
f 41//41 16//16 21//21
f 41//41 371//371 16//16
f 15//15 18//18 21//21
f 16//16 15//15 21//21
f 368//368 18//18 15//15
f 368//368 22//22 18//18
f 151//151 342//342 152//152
f 367//367 27//27 368//368
f 148//148 27//27 369//369
f 342//342 148//148 369//369
f 151//151 148//148 342//342
f 369//369 27//27 367//367
f 49//49 329//329 55//55
f 49//49 57//57 329//329
f 50//50 362//362 81//81
f 50//50 55//55 362//362
f 58//58 327//327 57//57
f 81//81 12//12 75//75
f 362//362 12//12 81//81
f 327//327 58//58 54//54
f 12//12 83//83 75//75
f 12//12 11//11 83//83
f 361//361 54//54 359//359
f 11//11 360//360 83//83
f 360//360 85//85 83//83
f 360//360 53//53 85//85
f 359//359 53//53 360//360
f 359//359 54//54 53//53
f 365//365 44//44 366//366
f 365//365 42//42 44//44
f 7//7 44//44 30//30
f 366//366 44//44 7//7
f 341//341 62//62 365//365
f 62//62 42//42 365//365
f 29//29 7//7 30//30
f 5//5 7//7 29//29
f 36//36 5//5 29//29
f 363//363 5//5 36//36
f 36//36 34//34 363//363
f 34//34 364//364 363//363
f 117//117 62//62 341//341
f 340//340 117//117 341//341
f 115//115 117//117 340//340
f 34//34 382//382 364//364
f 113//113 382//382 34//34
f 113//113 340//340 382//382
f 113//113 115//115 340//340
f 17//17 14//14 274//274
f 17//17 274//274 276//276
f 14//14 272//272 274//274
f 272//272 14//14 270//270
f 411//411 276//276 278//278
f 280//280 411//411 278//278
f 282//282 411//411 280//280
f 411//411 17//17 276//276
f 236//236 411//411 282//282
f 14//14 378//378 270//270
f 270//270 378//378 269//269
f 13//13 264//264 266//266
f 415//415 13//13 266//266
f 378//378 266//266 269//269
f 378//378 415//415 266//266
f 236//236 282//282 283//283
f 264//264 13//13 262//262
f 236//236 283//283 287//287
f 237//237 236//236 287//287
f 13//13 10//10 262//262
f 407//407 406//406 286//286
f 406//406 287//287 286//286
f 237//237 287//287 406//406
f 10//10 260//260 262//262
f 260//260 10//10 257//257
f 10//10 386//386 257//257
f 409//409 285//285 103//103
f 286//286 285//285 409//409
f 407//407 286//286 409//409
f 257//257 386//386 253//253
f 285//285 106//106 103//103
f 285//285 284//284 106//106
f 418//418 252//252 254//254
f 386//386 254//254 253//253
f 418//418 9//9 252//252
f 418//418 254//254 386//386
f 284//284 281//281 106//106
f 252//252 9//9 250//250
f 277//277 93//93 102//102
f 279//279 277//277 102//102
f 106//106 279//279 102//102
f 281//281 279//279 106//106
f 277//277 275//275 93//93
f 9//9 8//8 250//250
f 93//93 273//273 94//94
f 275//275 273//273 93//93
f 8//8 247//247 250//250
f 273//273 271//271 94//94
f 247//247 6//6 239//239
f 8//8 6//6 247//247
f 94//94 271//271 95//95
f 268//268 96//96 95//95
f 96//96 263//263 92//92
f 265//265 263//263 96//96
f 267//267 265//265 96//96
f 268//268 267//267 96//96
f 421//421 242//242 239//239
f 6//6 421//421 239//239
f 421//421 244//244 242//242
f 2//2 244//244 421//421
f 263//263 261//261 92//92
f 259//259 258//258 92//92
f 261//261 259//259 92//92
f 244//244 2//2 246//246
f 258//258 255//255 92//92
f 1//1 291//291 246//246
f 255//255 89//89 92//92
f 255//255 256//256 89//89
f 256//256 90//90 89//89
f 251//251 90//90 256//256
f 291//291 4//4 292//292
f 1//1 4//4 291//291
f 249//249 86//86 90//90
f 251//251 249//249 90//90
f 289//289 398//398 399//399
f 292//292 398//398 289//289
f 292//292 4//4 398//398
f 249//249 248//248 86//86
f 248//248 241//241 87//87
f 86//86 248//248 87//87
f 290//290 404//404 104//104
f 289//289 404//404 290//290
f 289//289 399//399 404//404
f 241//241 100//100 87//87
f 240//240 100//100 241//241
f 240//240 243//243 100//100
f 243//243 105//105 100//100
f 243//243 245//245 105//105
f 105//105 288//288 104//104
f 245//245 288//288 105//105
f 394//394 414//414 392//392
f 394//394 164//164 414//414
f 164//164 131//131 414//414
f 164//164 133//133 131//131
f 165//165 133//133 164//164
f 165//165 347//347 133//133
f 165//165 168//168 347//347
f 168//168 346//346 347//347
f 312//312 346//346 168//168
f 302//302 305//305 332//332
f 305//305 339//339 332//332
f 304//304 335//335 336//336
f 305//305 345//345 339//339
f 346//346 304//304 336//336
f 297//297 332//332 330//330
f 295//295 297//297 330//330
f 296//296 295//295 330//330
f 335//335 296//296 330//330
f 297//297 302//302 332//332
f 298//298 302//302 297//297
f 300//300 296//296 335//335
f 304//304 300//300 335//335
f 308//308 345//345 305//305
f 346//346 309//309 304//304
f 308//308 311//311 345//345
f 312//312 309//309 346//346
f 311//311 160//160 345//345
f 343//343 154//154 147//147
f 345//345 154//154 343//343
f 160//160 154//154 345//345
f 147//147 154//154 145//145
f 154//154 156//156 145//145
f 145//145 156//156 391//391
f 422//422 389//389 2//2
f 145//145 391//391 422//422
f 422//422 391//391 389//389
f 212//212 321//321 209//209
f 209//209 321//321 207//207
f 321//321 205//205 207//207
f 219//219 323//323 217//217
f 217//217 323//323 215//215
f 323//323 213//213 215//215
f 203//203 196//196 200//200
f 177//177 322//322 174//174
f 322//322 173//173 174//174
f 322//322 170//170 173//173
f 185//185 320//320 182//182
f 320//320 181//181 182//182
f 320//320 179//179 181//181
f 193//193 189//189 191//191
f 423//423 424//424 67//67
f 424//424 68//68 67//67
f 67//67 71//71 423//423
f 425//425 68//68 424//424
f 425//425 70//70 68//68
f 71//71 74//74 423//423
f 74//74 426//426 423//423
f 76//76 426//426 74//74
f 76//76 427//427 426//426
f 425//425 78//78 70//70
f 76//76 80//80 427//427
f 428//428 78//78 425//425
f 428//428 82//82 78//78
f 80//80 429//429 427//427
f 429//429 82//82 428//428
f 80//80 82//82 429//429
f 430//430 431//431 424//424
f 432//432 431//431 430//430
f 432//432 429//429 431//431
f 433//433 434//434 66//66
f 434//434 72//72 66//66
f 64//64 435//435 433//433
f 66//66 64//64 433//433
f 436//436 72//72 434//434
f 436//436 73//73 72//72
f 64//64 437//437 435//435
f 63//63 437//437 64//64
f 438//438 77//77 73//73
f 437//437 63//63 439//439
f 440//440 84//84 438//438
f 439//439 79//79 84//84
f 435//435 442//442 434//434
f 442//442 440//440 441//441
f 435//435 434//434 433//433
f 434//434 441//441 436//436
f 437//437 442//442 435//435
f 441//441 438//438 436//436
f 437//437 439//439 442//442
f 439//439 440//440 442//442
f 440//440 438//438 441//441
f 430//430 424//424 423//423
f 426//426 430//430 423//423
f 426//426 432//432 430//430
f 424//424 431//431 425//425
f 427//427 432//432 426//426
f 431//431 428//428 425//425
f 427//427 429//429 432//432
f 429//429 428//428 431//431
f 67//67 91//91 88//88
f 65//65 66//66 88//88
f 66//66 67//67 88//88
f 372//372 65//65 88//88
f 67//67 69//69 91//91
f 99//99 372//372 88//88
f 373//373 372//372 99//99
f 400//400 373//373 99//99
f 402//402 374//374 400//400
f 110//110 374//374 402//402
f 110//110 35//35 374//374
f 37//37 35//35 110//110
f 390//390 33//33 37//37
f 157//157 33//33 390//390
f 155//155 33//33 157//157
f 155//155 38//38 33//33
f 69//69 375//375 91//91
f 375//375 97//97 91//91
f 375//375 410//410 97//97
f 376//376 410//410 375//375
f 376//376 107//107 410//410
f 25//25 107//107 376//376
f 26//26 108//108 25//25
f 26//26 393//393 108//108
f 24//24 393//393 26//26
f 24//24 162//162 393//393
f 24//24 28//28 162//162
f 28//28 163//163 162//162
f 4//4 1//1 2//2
f 17//17 15//15 16//16
f 59//59 58//58 57//57
f 31//31 63//63 64//64
f 44//44 79//79 63//63
f 83//83 80//80 76//76
f 81//81 77//77 84//84
f 44//44 43//43 84//84
f 97//97 93//93 91//91
f 99//99 88//88 87//87
f 106//106 102//102 101//101
f 105//105 104//104 98//98
f 25//25 108//108 109//109
f 62//62 117//117 116//116
f 121//121 123//123 122//122
f 126//126 123//123 124//124
f 134//134 135//135 136//136
f 141//141 134//134 136//136
f 144//144 145//145 143//143
f 160//160 159//159 158//158
f 191//191 192//192 194//194
f 198//198 196//196 197//197
f 217//217 218//218 220//220
f 231//231 230//230 226//226
f 234//234 60//60 232//232
f 238//238 236//236 237//237
f 239//239 240//240 241//241
f 242//242 243//243 240//240
f 244//244 245//245 243//243
f 254//254 255//255 253//253
f 252//252 256//256 254//254
f 258//258 257//257 253//253
f 265//265 264//264 263//263
f 267//267 266//266 265//265
f 278//278 275//275 277//277
f 280//280 277//277 279//279
f 282//282 279//279 281//281
f 286//286 283//283 284//284
f 289//289 288//288 291//291
f 295//295 293//293 294//294
f 294//294 297//297 295//295
f 306//306 204//204 300//300
f 305//305 302//302 303//303
f 325//325 324//324 153//153
f 60//60 326//326 59//59
f 328//328 329//329 327//327
f 149//149 349//349 350//350
f 364//364 146//146 143//143
f 125//125 371//371 370//370
f 32//32 372//372 373//373
f 35//35 32//32 373//373
f 19//19 69//69 20//20
f 19//19 376//376 375//375
f 338//338 337//337 128//128
f 111//111 110//110 402//402
f 107//107 109//109 408//408
f 342//342 338//338 152//152
f 27//27 22//22 368//368
f 327//327 329//329 57//57
f 327//327 54//54 361//361
f 271//271 268//268 95//95
f 2//2 1//1 246//246
f 288//288 290//290 104//104
f 438//438 73//73 436//436
f 63//63 79//79 439//439
f 84//84 77//77 438//438
f 439//439 84//84 440//440
f 442//442 441//441 434//434
f 374//374 373//373 400//400

