mtllib material.mtl
usemtl Material-Metal.028
v 0.11519500 -0.02803900 0.01373700
v 0.11551200 -0.02292800 0.00688900
v 0.10353500 -0.02288400 0.00698700
v 0.10351700 -0.02845900 0.01457900
v 0.11538200 0.03056000 0.01961900
v 0.10360500 0.03143000 0.02279200
v 0.10361400 0.02769300 0.01326800
v 0.11540700 0.02331400 0.00700500
v 0.11518400 -0.03148700 0.02310500
v 0.10357700 -0.03155500 0.02366200
v 0.11513200 0.03215600 0.02893500
v 0.10367500 0.03169900 0.03527800
v 0.11533400 -0.03192500 0.03487800
v 0.10368200 -0.03164200 0.03615000
v 0.11520000 0.02979000 0.04201900
v 0.10380000 0.02764000 0.04562600
v 0.11520000 -0.02764000 0.04562600
v 0.10380000 -0.02764000 0.04562600
v 0.10369600 0.02334600 0.05150800
v 0.11530400 -0.02334600 0.05150800
v 0.10383900 -0.02304400 0.05188900
v 0.11516100 0.02304400 0.05188900
v 0.10380800 0.01538200 0.05773800
v 0.11518200 -0.01569600 0.05752400
v 0.10389800 -0.01506000 0.05790000
v 0.11509500 0.01473500 0.05810600
v 0.10393600 0.00563700 0.06112800
v 0.11503000 -0.00490700 0.06131600
v 0.10426800 -0.00577200 0.06091800
v 0.11507000 0.00508800 0.06105900
v 0.10589900 -0.02839300 0.00740400
v 0.10385200 -0.02995000 0.01397000
v 0.10399700 -0.02897600 0.00619500
v 0.10966600 -0.02965400 0.01364900
v 0.11543800 -0.02976500 0.01377400
v 0.10887000 -0.02983000 0.00390700
v 0.10893700 -0.02896400 0.00130500
v 0.11400000 -0.02919200 0.00532000
v 0.11291500 -0.02776500 0.00717900
v 0.10904300 -0.02392400 0.00555100
v 0.10734100 -0.02576100 0.00372300
v 0.10363300 -0.02551100 0.00404600
v 0.11098900 -0.02605800 0.00320200
v 0.11502100 -0.02619000 0.00338000
v 0.10396500 0.02634700 0.00331200
v 0.10871400 0.02672500 0.00263000
v 0.10350400 0.02291800 0.00691400
v 0.10872700 0.02396700 0.00552800
v 0.10841100 0.02934100 0.00196400
v 0.11453700 0.02664800 0.00293900
v 0.11153500 0.02489300 0.00451700
v 0.11194300 0.02901500 0.00465100
v 0.10647100 0.02899400 0.00517000
v 0.11324100 0.02987200 0.00407000
v 0.10386200 0.03353200 0.02412900
v 0.11001900 0.02978900 0.01380900
v 0.10338200 0.02853400 0.00861400
v 0.10620100 0.02802100 0.00883900
v 0.11567900 0.02912200 0.01180500
v 0.11336500 0.02805200 0.00784800
v 0.11527000 -0.03352200 0.02409800
v 0.10368600 -0.03379100 0.02522800
v 0.11531100 0.03376800 0.02524900
v 0.10358100 0.03308700 0.03629800
v 0.11522800 -0.03297700 0.03701700
v 0.10385100 -0.03285400 0.03765200
v 0.11539900 0.03294500 0.03714800
v 0.10367100 0.02973800 0.04528400
v 0.11539800 -0.02985000 0.04508300
v 0.10357700 -0.02964400 0.04548100
v 0.11542300 0.02964400 0.04548200
v 0.10363100 0.02415000 0.05339200
v 0.11536400 -0.02417500 0.05337000
v 0.10383600 -0.02268100 0.05475400
v 0.11516800 0.02269400 0.05474100
v 0.10354300 0.01321200 0.06056200
v 0.11549100 -0.01322800 0.06055500
v 0.10363300 -0.01234300 0.06093500
v 0.11533700 0.01241200 0.06091300
v 0.10363700 0.00536700 0.06279300
v 0.11532600 -0.00290200 0.06324600
v 0.10359500 -0.00229900 0.06319200
v 0.11520000 0.00522700 0.06279200
v 0.10967100 0.02502400 0.00842600
v 0.10731700 -0.02574300 0.00799000
v 0.11046900 -0.02494700 0.00880900
vn 0.66710000 0.63930000 0.38250000
vn 0.62760000 0.77680000 -0.05090000
vn -0.59920000 0.79980000 -0.03560000
vn -0.80140000 0.52030000 0.29510000
vn 0.71330000 -0.65550000 0.24790000
vn -0.78200000 -0.60820000 0.13620000
vn -0.70640000 -0.61890000 0.34350000
vn 0.63860000 -0.76610000 -0.07260000
vn 0.72360000 0.67710000 0.13370000
vn -0.76160000 0.63830000 0.11200000
vn -0.39240000 -0.91850000 0.04890000
vn -0.72250000 -0.68240000 -0.11100000
vn 0.78360000 0.61190000 -0.10720000
vn -0.78940000 0.60040000 -0.12770000
vn 0.68770000 -0.66900000 -0.28190000
vn -0.69540000 -0.61900000 -0.36510000
vn 0.68060000 0.63390000 -0.36730000
vn -0.68310000 0.63560000 -0.35970000
vn -0.72630000 -0.49730000 -0.47450000
vn 0.72530000 0.50120000 -0.47190000
vn -0.72770000 0.49990000 -0.46970000
vn 0.72910000 -0.50320000 -0.46400000
vn -0.67110000 -0.36030000 -0.64790000
vn 0.66400000 0.36190000 -0.65430000
vn -0.69010000 0.32910000 -0.64450000
vn 0.68980000 -0.32620000 -0.64640000
vn -0.56590000 -0.13940000 -0.81260000
vn 0.66860000 0.13290000 -0.73170000
vn -0.57610000 0.14990000 -0.80350000
vn 0.63710000 -0.12070000 -0.76130000
vn 0.46520000 -0.87690000 0.12110000
vn -0.63340000 -0.74310000 -0.21610000
vn -0.63460000 -0.75490000 -0.16580000
vn 0.01280000 -0.82920000 -0.55880000
vn 0.76320000 -0.62290000 -0.17150000
vn 0.07060000 -0.95670000 0.28220000
vn -0.06860000 -0.36400000 -0.92890000
vn 0.43500000 -0.89210000 -0.12200000
vn -0.65430000 -0.74800000 0.11090000
vn -0.03410000 0.33460000 -0.94170000
vn 0.43660000 0.69300000 -0.57370000
vn -0.69880000 0.24760000 -0.67110000
vn -0.40090000 0.73530000 -0.54650000
vn 0.68160000 0.12140000 -0.72160000
vn -0.67170000 -0.06860000 -0.73770000
vn 0.18220000 -0.75810000 -0.62610000
vn -0.59630000 -0.80120000 -0.04930000
vn 0.32210000 -0.44090000 -0.83780000
vn -0.13350000 0.63810000 -0.75830000
vn 0.63650000 -0.13800000 -0.75890000
vn -0.43370000 -0.60880000 -0.66430000
vn -0.49490000 0.67550000 0.54660000
vn 0.29880000 0.92020000 0.25290000
vn 0.28750000 0.92990000 -0.22920000
vn -0.61700000 0.77740000 -0.12210000
vn 0.01580000 0.92160000 -0.38780000
vn -0.73590000 0.66290000 -0.13770000
vn 0.39520000 0.90180000 -0.17500000
vn 0.75990000 0.62930000 -0.16320000
vn -0.60450000 0.78890000 0.11060000
vn 0.68220000 -0.72100000 -0.12140000
vn -0.64830000 -0.75610000 -0.08890000
vn 0.65220000 0.75160000 -0.09860000
vn -0.69750000 0.70200000 0.14370000
vn 0.64540000 -0.74810000 0.15430000
vn -0.62800000 -0.75860000 0.17390000
vn 0.71050000 0.68560000 0.15820000
vn -0.70330000 0.62760000 0.33390000
vn 0.71690000 -0.61390000 0.33050000
vn -0.72300000 -0.59910000 0.34400000
vn 0.72610000 0.60410000 0.32840000
vn -0.68180000 0.51460000 0.51990000
vn 0.68060000 -0.51480000 0.52130000
vn -0.67130000 -0.48740000 0.55840000
vn 0.67210000 0.48720000 0.55760000
vn -0.73240000 0.28210000 0.61960000
vn 0.73690000 -0.27160000 0.61900000
vn -0.74380000 -0.23680000 0.62510000
vn 0.72170000 0.27250000 0.63630000
vn -0.65530000 0.11980000 0.74580000
vn 0.72350000 -0.07340000 0.68640000
vn -0.76590000 -0.07480000 0.63860000
vn 0.62190000 0.11960000 0.77390000
vn -0.02870000 0.89810000 -0.43890000
vn 0.66890000 -0.69910000 -0.25260000
vn -0.28190000 -0.95900000 -0.03020000
f 3//3 4//4 1//1
f 5//5 6//6 7//7
f 8//8 5//5 7//7
f 4//4 10//10 9//9
f 11//11 12//12 6//6
f 5//5 11//11 6//6
f 10//10 14//14 13//13
f 11//11 15//15 12//12
f 15//15 16//16 12//12
f 14//14 18//18 17//17
f 15//15 22//22 16//16
f 18//18 21//21 20//20
f 22//22 26//26 23//23
f 21//21 25//25 24//24
f 26//26 30//30 27//27
f 25//25 29//29 24//24
f 30//30 28//28 27//27
f 31//31 32//32 33//33
f 31//31 34//34 32//32
f 34//34 35//35 32//32
f 36//36 31//31 33//33
f 37//37 38//38 36//36
f 39//39 35//35 34//34
f 38//38 35//35 39//39
f 37//37 36//36 33//33
f 40//40 41//41 3//3
f 41//41 42//42 3//3
f 2//2 40//40 3//3
f 41//41 37//37 42//42
f 43//43 37//37 41//41
f 44//44 37//37 43//43
f 2//2 43//43 40//40
f 2//2 44//44 43//43
f 46//46 48//48 45//45
f 48//48 8//8 47//47
f 49//49 46//46 45//45
f 50//50 46//46 49//49
f 51//51 8//8 48//48
f 50//50 51//51 46//46
f 50//50 8//8 51//51
f 52//52 49//49 53//53
f 52//52 54//54 49//49
f 55//55 56//56 57//57
f 56//56 58//58 57//57
f 55//55 63//63 56//56
f 58//58 53//53 57//57
f 53//53 49//49 57//57
f 59//59 60//60 56//56
f 60//60 54//54 52//52
f 59//59 54//54 60//60
f 32//32 35//35 61//61
f 64//64 67//67 63//63
f 62//62 61//61 65//65
f 68//68 71//71 67//67
f 66//66 65//65 69//69
f 72//72 75//75 71//71
f 70//70 69//69 73//73
f 76//76 79//79 75//75
f 74//74 73//73 77//77
f 80//80 83//83 79//79
f 78//78 77//77 81//81
f 82//82 81//81 83//83
f 59//59 8//8 50//50
f 63//63 5//5 59//59
f 67//67 5//5 63//63
f 20//20 73//73 69//69
f 47//47 57//57 45//45
f 4//4 3//3 42//42
f 33//33 4//4 42//42
f 7//7 57//57 47//47
f 7//7 6//6 57//57
f 62//62 10//10 4//4
f 14//14 10//10 62//62
f 19//19 72//72 68//68
f 82//82 80//80 76//76
f 56//56 84//84 58//58
f 56//56 60//60 84//84
f 58//58 84//84 53//53
f 60//60 52//52 84//84
f 53//53 48//48 46//46
f 84//84 48//48 53//53
f 84//84 51//51 48//48
f 52//52 53//53 46//46
f 51//51 52//52 46//46
f 52//52 51//51 84//84
f 85//85 34//34 31//31
f 86//86 34//34 85//85
f 39//39 34//34 86//86
f 36//36 85//85 31//31
f 39//39 86//86 85//85
f 38//38 39//39 36//36
f 40//40 85//85 41//41
f 36//36 41//41 85//85
f 36//36 43//43 41//41
f 39//39 85//85 40//40
f 39//39 43//43 36//36
f 43//43 39//39 40//40
f 37//37 33//33 42//42
f 44//44 38//38 37//37
f 35//35 38//38 44//44
f 2//2 35//35 44//44
f 54//54 50//50 49//49
f 59//59 50//50 54//54
f 49//49 45//45 57//57
f 13//13 65//65 61//61
f 13//13 69//69 65//65
f 81//81 79//79 83//83
f 33//33 32//32 4//4
f 6//6 55//55 57//57
f 32//32 62//62 4//4
f 64//64 55//55 6//6
f 66//66 14//14 62//62
f 66//66 70//70 14//14
f 1//1 35//35 2//2
f 59//59 5//5 8//8
f 9//9 61//61 1//1
f 61//61 35//35 1//1
f 13//13 61//61 9//9
f 5//5 67//67 11//11
f 67//67 15//15 11//11
f 67//67 71//71 15//15
f 17//17 69//69 13//13
f 71//71 22//22 15//15
f 20//20 69//69 17//17
f 71//71 75//75 22//22
f 75//75 26//26 22//22
f 24//24 73//73 20//20
f 77//77 73//73 24//24
f 75//75 79//79 26//26
f 79//79 30//30 26//26
f 28//28 77//77 24//24
f 81//81 77//77 28//28
f 79//79 81//81 30//30
f 81//81 28//28 30//30
f 6//6 12//12 64//64
f 12//12 68//68 64//64
f 18//18 14//14 70//70
f 16//16 19//19 68//68
f 12//12 16//16 68//68
f 21//21 18//18 70//70
f 74//74 21//21 70//70
f 25//25 21//21 74//74
f 23//23 76//76 72//72
f 19//19 23//23 72//72
f 78//78 25//25 74//74
f 29//29 25//25 78//78
f 27//27 82//82 76//76
f 23//23 27//27 76//76
f 82//82 29//29 78//78
f 27//27 29//29 82//82
f 8//8 7//7 47//47
f 3//3 1//1 2//2
f 4//4 9//9 1//1
f 10//10 13//13 9//9
f 14//14 17//17 13//13
f 22//22 19//19 16//16
f 18//18 20//20 17//17
f 22//22 23//23 19//19
f 21//21 24//24 20//20
f 26//26 27//27 23//23
f 29//29 28//28 24//24
f 28//28 29//29 27//27
f 48//48 47//47 45//45
f 63//63 59//59 56//56
f 32//32 61//61 62//62
f 64//64 63//63 55//55
f 62//62 65//65 66//66
f 68//68 67//67 64//64
f 66//66 69//69 70//70
f 72//72 71//71 68//68
f 70//70 73//73 74//74
f 76//76 75//75 72//72
f 74//74 77//77 78//78
f 80//80 79//79 76//76
f 78//78 81//81 82//82
f 82//82 83//83 80//80

