mtllib material.mtl
usemtl Material-Metal.030
v 0.08974300 0.03630300 0.02296300
v 0.08102900 0.03636500 0.02465300
v 0.08104400 0.03225000 0.01140700
v 0.08994700 0.03192400 0.01138300
v 0.08099200 0.03599500 0.03759000
v 0.08970000 0.03634800 0.03378500
v 0.08991800 0.03436000 0.04262800
v 0.08103400 0.02860600 0.05290400
v 0.08982100 0.02899900 0.05203500
v 0.08968900 0.02071300 0.05987300
v 0.08100700 0.01617500 0.06241800
v 0.08966000 0.01077000 0.06452800
v 0.08071900 0.00300700 0.06627700
v 0.08988400 -0.00119300 0.06593600
v 0.08002500 0.03676900 0.03145900
v 0.07997600 0.03242100 0.01259500
v 0.08005900 0.03003000 0.04994700
v 0.08003600 0.01846900 0.06111700
v 0.08002900 0.03723100 0.02111100
v 0.08356600 0.03712000 0.01995200
v 0.08169500 0.03833800 0.01132700
v 0.08998300 0.03717100 0.02088800
v 0.08691900 0.03953500 0.00869900
v 0.08062900 0.03759600 0.00874700
v 0.08752800 0.03723300 0.01854700
v 0.08834200 0.03811700 0.01130300
v 0.08995000 0.03806900 0.01326600
v 0.08455900 0.03332200 0.01006900
v 0.08337000 0.03673900 0.00832500
v 0.08708100 0.03605500 0.00870400
v 0.08985900 0.03550400 0.00900300
v 0.08970200 -0.03601100 0.02160500
v 0.08997900 -0.03197500 0.01134900
v 0.08082800 -0.03187500 0.01142800
v 0.08101100 -0.03470000 0.01804300
v 0.08103500 -0.03678400 0.02987900
v 0.08995000 -0.03576400 0.03892600
v 0.08097600 -0.03440800 0.04225900
v 0.08986800 -0.02810800 0.05346500
v 0.08109500 -0.02722300 0.05451300
v 0.08988900 -0.01459500 0.06363300
v 0.08102600 -0.01597400 0.06251000
v 0.08099300 -0.00359100 0.06608500
v 0.08017800 -0.00097400 0.06547300
v 0.08010500 0.03791300 0.03421400
v 0.08976000 -0.03791800 0.03423500
v 0.08018600 -0.03776500 0.03564100
v 0.07999400 -0.03722900 0.02072500
v 0.08992600 -0.03711300 0.02121500
v 0.08987100 0.03786900 0.03029900
v 0.08980700 0.03578300 0.04282300
v 0.08007900 0.03389700 0.04651300
v 0.08970000 -0.03378600 0.04667200
v 0.08008100 -0.03373500 0.04683200
v 0.08007300 0.02933300 0.05370700
v 0.08965200 -0.02910100 0.05398300
v 0.08008400 -0.02859400 0.05457800
v 0.08990300 0.02738900 0.05616700
v 0.08006000 0.01857400 0.06300500
v 0.08970000 -0.02229500 0.06014900
v 0.08013700 -0.02121300 0.06093400
v 0.08960600 -0.01189600 0.06581300
v 0.08007600 -0.00966700 0.06638000
v 0.08983600 0.01456200 0.06461000
v 0.08006300 0.00327900 0.06743000
v 0.08986900 0.00242100 0.06753500
v 0.08154600 -0.03806600 0.01144500
v 0.08188900 -0.03737000 0.01744700
v 0.08006100 -0.03811600 0.01311100
v 0.08537300 -0.03702600 0.02037600
v 0.08516200 -0.04008500 0.00812000
v 0.08653000 -0.03886600 0.01017300
v 0.08973300 -0.03795600 0.01431600
v 0.08000800 -0.03239300 0.01199300
v 0.08005100 -0.03539600 0.00911000
v 0.08517100 -0.03321100 0.01022100
v 0.08292700 -0.03611100 0.00866100
v 0.08640900 -0.03659200 0.00825400
v 0.08963500 -0.03624500 0.00860100
v 0.08004200 -0.03619300 0.02718000
v 0.08006000 -0.03456700 0.04088500
v 0.08003600 -0.02726300 0.05332200
v 0.07999200 -0.01696500 0.06188600
v 0.08311800 -0.03385500 0.01281100
v 0.08740400 -0.03410600 0.01231800
v 0.08234400 0.03436400 0.01241300
v 0.08650400 0.03335700 0.01300600
vn 0.67770000 -0.72300000 0.13410000
vn 0.45870000 -0.87470000 0.15670000
vn -0.31740000 -0.85850000 -0.40270000
vn 0.59280000 -0.77230000 -0.22840000
vn 0.41530000 -0.87870000 -0.23540000
vn 0.60010000 -0.79240000 -0.10940000
vn 0.77420000 -0.58590000 -0.23950000
vn 0.36260000 -0.70320000 -0.61160000
vn 0.66820000 -0.60220000 -0.43680000
vn 0.63890000 -0.43710000 -0.63300000
vn 0.22500000 -0.38530000 -0.89500000
vn 0.67150000 -0.20430000 -0.71220000
vn -0.50880000 -0.00750000 -0.86080000
vn 0.72880000 0.02390000 -0.68430000
vn -0.88820000 -0.45940000 -0.01310000
vn -0.70420000 -0.70750000 -0.05970000
vn -0.69340000 -0.63620000 -0.33830000
vn -0.82820000 -0.32320000 -0.45780000
vn -0.71500000 0.69920000 -0.00290000
vn 0.08750000 0.98800000 -0.12720000
vn 0.08840000 0.97360000 0.21040000
vn 0.76190000 0.64680000 0.03410000
vn 0.21990000 0.83670000 -0.50150000
vn -0.66850000 0.32840000 -0.66730000
vn -0.21690000 0.97100000 -0.10060000
vn -0.72650000 0.45300000 0.51670000
vn 0.67530000 0.73730000 0.01710000
vn 0.08180000 -0.08710000 -0.99280000
vn 0.18740000 -0.43700000 -0.87970000
vn -0.43100000 -0.31440000 -0.84580000
vn 0.68830000 -0.07200000 -0.72180000
vn 0.67800000 0.71770000 0.15900000
vn 0.61940000 0.74840000 -0.23720000
vn -0.28880000 0.91710000 -0.27500000
vn 0.30470000 0.91470000 0.26530000
vn 0.30610000 0.95140000 -0.03430000
vn 0.86380000 0.49140000 -0.11080000
vn 0.23510000 0.88910000 -0.39260000
vn 0.82160000 0.43450000 -0.36900000
vn 0.30980000 0.67350000 -0.67110000
vn 0.87890000 0.18020000 -0.44170000
vn 0.12670000 0.41470000 -0.90110000
vn 0.39640000 0.06670000 -0.91570000
vn -0.62080000 0.03600000 -0.78320000
vn -0.65050000 0.75340000 0.09600000
vn 0.64850000 -0.75680000 0.08190000
vn -0.64650000 -0.75270000 0.12440000
vn -0.71690000 -0.69710000 0.00780000
vn 0.77610000 -0.62900000 0.04500000
vn 0.72490000 0.68860000 0.01920000
vn 0.63990000 0.71760000 0.27480000
vn -0.67660000 0.65630000 0.33400000
vn 0.64110000 -0.68850000 0.33920000
vn -0.67660000 -0.65900000 0.32840000
vn -0.67410000 0.57310000 0.46600000
vn 0.61030000 -0.60680000 0.50920000
vn -0.67100000 -0.55440000 0.49220000
vn 0.69090000 0.51570000 0.50670000
vn -0.65410000 0.36320000 0.66350000
vn 0.64820000 -0.44470000 0.61810000
vn -0.65700000 -0.41870000 0.62690000
vn 0.59700000 -0.24340000 0.76450000
vn -0.67430000 -0.17580000 0.71720000
vn 0.71180000 0.25790000 0.65330000
vn -0.80210000 0.07650000 0.59230000
vn 0.68060000 0.05260000 0.73080000
vn 0.81910000 -0.13280000 0.55810000
vn 0.33540000 -0.93860000 -0.08020000
vn -0.65030000 -0.75960000 -0.01250000
vn -0.01080000 -0.98110000 -0.19330000
vn -0.01940000 -0.84480000 -0.53480000
vn -0.62020000 -0.13890000 0.77200000
vn 0.45700000 -0.88940000 -0.01540000
vn -0.79690000 0.60410000 0.00260000
vn -0.70130000 0.05710000 -0.71060000
vn -0.05410000 0.02650000 -0.99820000
vn 0.37610000 0.42130000 -0.82530000
vn -0.34230000 0.48260000 -0.80620000
vn 0.69140000 -0.05970000 -0.72000000
vn -0.68690000 0.71690000 0.11940000
vn -0.69580000 0.69500000 -0.18150000
vn -0.54290000 0.67040000 -0.50570000
vn -0.80840000 0.33870000 -0.48140000
vn 0.54040000 -0.83330000 -0.11680000
vn -0.67560000 -0.73650000 0.03450000
vn 0.77830000 0.62770000 0.01840000
vn -0.45050000 0.88300000 -0.13200000
f 1//1 2//2 3//3
f 4//4 1//1 3//3
f 1//1 6//6 2//2
f 6//6 7//7 5//5
f 8//8 17//17 7//7
f 7//7 9//9 8//8
f 10//10 11//11 8//8
f 9//9 10//10 8//8
f 12//12 13//13 11//11
f 10//10 12//12 11//11
f 12//12 14//14 13//13
f 3//3 15//15 16//16
f 3//3 2//2 15//15
f 2//2 5//5 15//15
f 5//5 17//17 15//15
f 8//8 18//18 17//17
f 8//8 11//11 18//18
f 11//11 13//13 18//18
f 19//19 20//20 21//21
f 22//22 20//20 19//19
f 21//21 23//23 24//24
f 22//22 25//25 20//20
f 26//26 23//23 21//21
f 27//27 23//23 26//26
f 22//22 27//27 25//25
f 28//28 3//3 24//24
f 29//29 28//28 24//24
f 28//28 4//4 3//3
f 23//23 29//29 24//24
f 23//23 30//30 29//29
f 30//30 31//31 28//28
f 31//31 4//4 28//28
f 23//23 31//31 30//30
f 34//34 35//35 33//33
f 35//35 80//80 32//32
f 37//37 32//32 36//36
f 38//38 37//37 36//36
f 39//39 37//37 38//38
f 40//40 39//39 38//38
f 40//40 42//42 39//39
f 43//43 41//41 42//42
f 14//14 41//41 43//43
f 44//44 14//14 43//43
f 45//45 50//50 19//19
f 48//48 49//49 46//46
f 51//51 50//50 45//45
f 52//52 51//51 45//45
f 47//47 46//46 53//53
f 55//55 58//58 52//52
f 54//54 53//53 56//56
f 59//59 58//58 55//55
f 57//57 56//56 60//60
f 61//61 60//60 62//62
f 64//64 58//58 59//59
f 65//65 64//64 59//59
f 66//66 64//64 65//65
f 63//63 62//62 66//66
f 67//67 68//68 69//69
f 68//68 48//48 69//69
f 68//68 70//70 48//48
f 70//70 49//49 48//48
f 71//71 67//67 69//69
f 72//72 67//67 71//71
f 71//71 73//73 72//72
f 73//73 49//49 70//70
f 74//74 34//34 75//75
f 34//34 76//76 75//75
f 76//76 77//77 75//75
f 77//77 71//71 75//75
f 33//33 76//76 34//34
f 78//78 71//71 77//77
f 79//79 71//71 78//78
f 76//76 33//33 79//79
f 27//27 4//4 31//31
f 33//33 73//73 79//79
f 27//27 22//22 4//4
f 49//49 73//73 33//33
f 50//50 1//1 22//22
f 66//66 41//41 14//14
f 69//69 74//74 75//75
f 48//48 74//74 69//69
f 16//16 19//19 24//24
f 15//15 19//19 16//16
f 48//48 80//80 74//74
f 45//45 19//19 15//15
f 47//47 80//80 48//48
f 47//47 81//81 80//80
f 52//52 45//45 15//15
f 17//17 52//52 15//15
f 54//54 81//81 47//47
f 55//55 52//52 17//17
f 54//54 82//82 81//81
f 57//57 82//82 54//54
f 17//17 18//18 55//55
f 57//57 61//61 82//82
f 63//63 83//83 61//61
f 65//65 59//59 18//18
f 63//63 44//44 83//83
f 63//63 65//65 44//44
f 27//27 31//31 23//23
f 79//79 73//73 71//71
f 71//71 69//69 75//75
f 74//74 35//35 34//34
f 80//80 35//35 74//74
f 81//81 36//36 80//80
f 38//38 36//36 81//81
f 81//81 82//82 38//38
f 42//42 40//40 82//82
f 83//83 42//42 82//82
f 43//43 42//42 83//83
f 44//44 43//43 83//83
f 84//84 67//67 77//77
f 76//76 84//84 77//77
f 67//67 78//78 77//77
f 72//72 78//78 67//67
f 85//85 84//84 76//76
f 85//85 78//78 72//72
f 78//78 85//85 76//76
f 84//84 68//68 67//67
f 84//84 70//70 68//68
f 85//85 70//70 84//84
f 73//73 70//70 85//85
f 73//73 85//85 72//72
f 21//21 28//28 29//29
f 86//86 28//28 21//21
f 26//26 21//21 29//29
f 30//30 26//26 29//29
f 87//87 28//28 86//86
f 87//87 30//30 28//28
f 26//26 30//30 87//87
f 20//20 86//86 21//21
f 20//20 87//87 86//86
f 20//20 25//25 87//87
f 26//26 87//87 25//25
f 13//13 14//14 44//44
f 7//7 50//50 51//51
f 37//37 53//53 46//46
f 58//58 7//7 51//51
f 39//39 56//56 53//53
f 37//37 39//39 53//53
f 9//9 7//7 58//58
f 39//39 60//60 56//56
f 41//41 62//62 60//60
f 39//39 41//41 60//60
f 41//41 66//66 62//62
f 19//19 21//21 24//24
f 32//32 49//49 33//33
f 46//46 49//49 32//32
f 37//37 46//46 32//32
f 65//65 13//13 44//44
f 4//4 22//22 1//1
f 50//50 6//6 1//1
f 50//50 7//7 6//6
f 9//9 58//58 10//10
f 58//58 64//64 10//10
f 64//64 12//12 10//10
f 64//64 66//66 12//12
f 66//66 14//14 12//12
f 18//18 13//13 65//65
f 24//24 3//3 16//16
f 6//6 5//5 2//2
f 17//17 5//5 7//7
f 27//27 26//26 25//25
f 35//35 32//32 33//33
f 80//80 36//36 32//32
f 42//42 41//41 39//39
f 50//50 22//22 19//19
f 48//48 46//46 47//47
f 47//47 53//53 54//54
f 58//58 51//51 52//52
f 54//54 56//56 57//57
f 57//57 60//60 61//61
f 61//61 62//62 63//63
f 63//63 66//66 65//65
f 76//76 79//79 78//78
f 18//18 59//59 55//55
f 61//61 83//83 82//82
f 82//82 40//40 38//38

