mtllib material.mtl
usemtl Material-Metal.029
v 0.03486300 0.01338600 -0.00713900
v 0.03537700 0.01536900 -0.01329900
v 0.03509300 0.01462300 -0.00481300
v 0.03494600 -0.01577100 -0.01125000
v 0.03493400 -0.01341000 -0.00732100
v 0.03500000 -0.01529100 -0.00459000
v 0.03432100 -0.01171100 -0.00590800
v 0.03539600 0.01340000 -0.01310900
v 0.03535000 -0.01338600 -0.01335800
v 0.05167500 -0.01961900 -0.01031500
v 0.03664200 -0.01724200 -0.01180400
v 0.03610700 -0.01716600 -0.00497100
v 0.03629200 -0.01514900 -0.01343300
v 0.05446100 -0.01146500 -0.01443500
v 0.03612700 0.01717400 -0.01184600
v 0.05604900 0.02049100 -0.01103800
v 0.03588300 0.01714200 -0.00490700
v 0.03408300 0.01784100 -0.00339300
v 0.05560700 0.02344800 -0.01031600
v 0.03350400 0.02335600 -0.00335000
v 0.05419800 0.01153500 -0.01925100
v 0.05759800 0.00912500 -0.01933100
v 0.05549400 0.01116000 -0.01461500
v 0.05769500 0.00694700 -0.01563200
v 0.05735500 -0.00927000 -0.01509800
v 0.05490600 -0.01144000 -0.01928400
v 0.05762600 -0.00873100 -0.01935900
v 0.03872000 -0.02325100 -0.01679700
v 0.03761800 -0.01333500 -0.01664700
v 0.03813000 0.01325100 -0.01676200
v 0.03817100 0.02331700 -0.01665900
v 0.05134200 0.02325700 -0.01882300
v 0.03396200 -0.02341000 -0.00343400
v 0.05601200 -0.02182600 -0.01044300
v 0.03419200 -0.01783000 -0.00344400
v 0.05636400 -0.02401300 -0.01065200
v -0.02233100 0.00959400 -0.00503600
v -0.02070600 0.00617500 -0.00541400
v -0.02393500 -0.00187200 -0.00495900
v -0.02157800 -0.00014400 -0.00409800
v -0.01883800 -0.01102500 -0.00588500
v -0.02197400 -0.01026700 -0.00493500
v -0.01642000 0.01455600 -0.00633300
v -0.01694900 -0.01701200 -0.00612400
v -0.01079200 -0.01881800 -0.00735000
v -0.00953100 -0.02224800 -0.00722700
v -0.00309900 0.02390300 -0.00865800
v -0.00048200 0.02137400 -0.00907500
v -0.00826700 0.01995300 -0.00797900
v -0.00228900 -0.02326700 -0.00903500
v -0.00073900 -0.02146300 -0.00900900
v 0.00743300 0.02015200 -0.01080600
v 0.02174200 0.02327900 -0.01352400
v 0.00783900 -0.01997400 -0.01088200
v 0.02180000 -0.02326100 -0.01353200
v 0.01501400 0.01584100 -0.01223500
v 0.01534100 -0.01573300 -0.01228300
v 0.02223100 0.01472300 -0.01366700
v 0.02215000 -0.01474100 -0.01364600
v 0.00762500 0.02006500 -0.00400200
v -0.00226700 0.02129600 -0.00399700
v -0.01256300 0.01735900 -0.00399900
v 0.01487200 0.01558800 -0.00757400
v 0.01629500 0.01397900 -0.00403500
v -0.01874600 0.01012800 -0.00399800
v 0.02069000 0.00621700 -0.00598600
v 0.02137100 0.00301200 -0.00403200
v -0.01877900 -0.01010300 -0.00400000
v 0.02070700 -0.00622500 -0.00599800
v 0.01794000 -0.01241500 -0.00398800
v 0.01684700 -0.01357300 -0.00599600
v -0.01236500 -0.01755800 -0.00400000
v 0.01476700 -0.01557700 -0.00736400
v 0.00754000 -0.02014900 -0.00399900
v -0.00287400 -0.02120300 -0.00399900
v 0.07650000 0.01638600 -0.01294700
v 0.07650100 0.02264100 -0.01029900
v 0.07650000 -0.01638600 -0.01294700
v 0.07650100 -0.02292000 -0.01027600
v 0.05495800 -0.01931600 -0.01170000
v 0.07650000 0.00997600 -0.01489300
v 0.07650000 -0.00997600 -0.01489300
v 0.07650300 0.00047200 -0.01602800
v 0.05755000 -0.00334900 -0.01587700
v 0.05972200 -0.02319100 -0.01952100
v 0.06321600 0.02325000 -0.01950000
v -0.00110100 -0.02401200 -0.00851600
v 0.00956400 -0.02395400 -0.00311200
v -0.00489300 -0.02374700 -0.00036800
v 0.02208700 -0.02400100 -0.01282200
v 0.03380600 -0.02399800 -0.00382100
v 0.02470300 -0.02395200 -0.01682900
v 0.03781500 -0.02399900 -0.01601500
v 0.07653800 -0.02387100 -0.00399700
v 0.07650000 -0.02400000 -0.01100000
v 0.07998300 -0.02384900 -0.00398800
v 0.08000000 -0.02400000 -0.01050000
v 0.06949400 -0.02401600 -0.01897500
v 0.08463600 -0.02423800 -0.01050400
v 0.00920100 0.02397700 -0.00301000
v -0.00583100 0.02355000 -0.00046600
v 0.02217000 0.02400000 -0.01284700
v 0.03436600 0.02400200 -0.00386200
v 0.02407600 0.02399200 -0.01623100
v 0.05537700 0.02400100 -0.01072700
v 0.03990100 0.02400300 -0.01646300
v 0.07650000 0.02400000 -0.01100000
v 0.07650300 0.02284400 -0.00218000
v 0.08001700 0.02398600 -0.00494900
v 0.08000000 0.02400000 -0.01050000
v 0.06996500 0.02401600 -0.01865200
v 0.08440500 0.02404700 -0.01049600
v -0.00891000 0.02193500 0.00000000
v 0.02189400 -0.00877300 -0.00000400
v 0.00529600 0.02332700 -0.00001500
v 0.01895100 0.01527000 -0.00000600
v -0.02055300 0.01268100 0.00000400
v 0.02403900 0.00302400 -0.00053800
v -0.02409100 0.00143200 0.00001000
v -0.01227500 -0.02057900 0.00000200
v 0.00488600 -0.02338400 -0.00004200
v -0.02225200 -0.00921300 0.00000900
v 0.01547000 -0.01789800 -0.00003800
v 0.09700300 0.00827900 -0.01050500
v 0.09621500 -0.00987300 -0.01050700
v 0.09885700 -0.00342700 -0.01060800
v 0.06941600 -0.02338900 -0.01950600
v 0.06947000 0.02353600 -0.01951200
v 0.07425600 0.01795700 -0.01948600
v 0.08057600 -0.00481900 -0.01945900
v 0.08038500 0.00391700 -0.01945900
v -0.01368300 0.02019400 -0.00621700
v -0.01542700 0.01838500 -0.00050000
v 0.01782300 0.01660700 -0.00123200
v -0.01609200 -0.01807000 -0.00047500
v 0.00000000 0.00000000 -0.00400000
v 0.09831400 0.00402300 -0.01073800
v 0.08780700 -0.00849100 -0.01521500
v 0.08332800 0.00739800 -0.01756300
v 0.08761900 0.00847900 -0.01528900
v 0.09207100 -0.01619000 -0.01080900
v 0.09179400 0.01643800 -0.01085600
v 0.08312900 -0.01573900 -0.01536300
v 0.08432300 0.01542400 -0.01504100
v 0.07311900 -0.01953500 -0.01936400
v 0.08496400 -0.02368500 -0.01098800
v 0.08496700 0.02377500 -0.01082300
v 0.08094200 0.01452000 -0.01710000
v 0.08313700 -0.00752400 -0.01659000
v 0.07976700 -0.01152900 -0.01862700
v 0.08007800 0.01000700 -0.01869300
v 0.08184000 0.00803700 -0.01499600
v 0.07985000 0.01212000 -0.01492800
v 0.07974900 -0.01059000 -0.01505800
v 0.08000200 -0.02095700 -0.00196800
v 0.07649800 -0.02102100 -0.00195000
v 0.08001100 -0.00015900 -0.00358700
v 0.07649800 -0.00031900 -0.00356100
v 0.07999900 0.02141000 -0.00196000
v 0.01969700 0.01672400 -0.00300000
v 0.02834700 0.02350000 -0.00300000
v 0.02516100 0.00547900 -0.00299900
v 0.02834700 -0.02350000 -0.00300000
v 0.02471700 -0.00777400 -0.00300100
v 0.01707000 -0.01926600 -0.00300400
v 0.02153800 -0.01061500 -0.00095300
v 0.03396900 0.01144700 -0.00600200
v 0.01705900 0.01393400 -0.00605100
v 0.02456100 0.01456700 -0.01682500
v 0.02461500 -0.01453200 -0.01694300
v 0.02557000 0.02325000 -0.01700000
vn 0.73730000 -0.65200000 -0.17700000
vn 0.65620000 -0.28420000 0.69910000
vn 0.93670000 -0.15680000 0.31320000
vn 0.89860000 0.37880000 0.22140000
vn 0.78290000 0.59520000 -0.18110000
vn 0.91640000 0.17160000 0.36160000
vn 0.60000000 0.23780000 -0.76380000
vn 0.27790000 -0.89450000 0.35020000
vn 0.22250000 0.92340000 0.31280000
vn 0.23420000 0.78110000 0.57880000
vn 0.37340000 0.83160000 0.41100000
vn 0.55710000 0.68080000 0.47560000
vn 0.35470000 0.36150000 0.86230000
vn -0.19060000 0.72060000 0.66670000
vn 0.50980000 -0.78970000 0.34130000
vn 0.09260000 -0.36840000 0.92500000
vn 0.59450000 -0.62200000 0.50960000
vn 0.28350000 -0.07830000 0.95580000
vn 0.15940000 0.25010000 0.95500000
vn 0.15340000 0.26730000 0.95130000
vn -0.26260000 -0.58590000 -0.76660000
vn -0.51610000 -0.23850000 -0.82260000
vn -0.25600000 -0.65600000 0.71000000
vn -0.67610000 -0.21690000 0.70420000
vn -0.49480000 0.46030000 0.73710000
vn -0.32440000 0.52410000 -0.78750000
vn -0.57500000 0.21050000 -0.79060000
vn -0.06900000 -0.37150000 -0.92590000
vn -0.11320000 0.70450000 -0.70060000
vn -0.12790000 -0.70190000 -0.70070000
vn -0.04980000 0.19030000 -0.98050000
vn -0.08800000 0.51890000 -0.85030000
vn 0.18360000 -0.29320000 0.93830000
vn 0.15220000 0.21760000 0.96410000
vn 0.28530000 0.07970000 0.95510000
vn 0.08360000 -0.76910000 0.63360000
vn -0.78030000 0.28620000 -0.55610000
vn 0.37860000 -0.14850000 -0.91360000
vn -0.68920000 -0.02110000 -0.72430000
vn 0.29340000 -0.05090000 -0.95460000
vn 0.30660000 0.29830000 -0.90390000
vn -0.78190000 -0.33970000 -0.52260000
vn 0.19730000 -0.28950000 -0.93660000
vn -0.60870000 -0.49870000 -0.61710000
vn 0.12350000 0.53170000 -0.83790000
vn -0.42120000 -0.71400000 -0.55920000
vn -0.20870000 0.72990000 -0.65090000
vn -0.16100000 -0.68920000 -0.70650000
vn 0.02340000 -0.50920000 -0.86030000
vn -0.22580000 -0.39380000 -0.89100000
vn -0.14270000 0.73340000 -0.66460000
vn -0.36940000 -0.58060000 -0.72560000
vn -0.48550000 0.41550000 -0.76920000
vn -0.37310000 0.59470000 -0.71210000
vn -0.48970000 -0.39250000 -0.77850000
vn -0.34380000 -0.66930000 -0.65870000
vn -0.33290000 0.67350000 -0.66000000
vn -0.40740000 -0.78210000 -0.47160000
vn -0.40410000 0.77460000 -0.48650000
vn -0.26310000 -0.69740000 -0.66660000
vn 0.07230000 -0.73830000 -0.67050000
vn 0.40550000 -0.61150000 -0.67940000
vn -0.40590000 -0.90140000 -0.15110000
vn -0.48990000 -0.46470000 -0.73760000
vn 0.63670000 -0.33290000 -0.69550000
vn -0.52670000 -0.19800000 -0.82660000
vn -0.81490000 -0.05300000 -0.57710000
vn 0.60650000 0.28190000 -0.74340000
vn -0.44980000 0.10360000 -0.88710000
vn -0.65580000 0.43030000 -0.62030000
vn -0.49930000 0.69720000 -0.51440000
vn 0.44750000 0.59130000 -0.67090000
vn -0.42920000 0.88350000 -0.18780000
vn -0.26200000 0.70190000 -0.66240000
vn 0.10600000 0.73780000 -0.66660000
vn -0.69470000 -0.24740000 0.67540000
vn -0.81260000 0.02010000 0.58240000
vn -0.69510000 0.24320000 0.67650000
vn -0.82470000 -0.05920000 0.56240000
vn 0.08460000 0.48780000 0.86880000
vn -0.69180000 -0.15190000 0.70600000
vn -0.68880000 0.14830000 0.70960000
vn -0.68690000 -0.00270000 0.72680000
vn -0.73080000 0.04630000 0.68100000
vn -0.05730000 -0.49160000 -0.86890000
vn -0.03030000 0.48000000 -0.87680000
vn -0.12090000 -0.92700000 -0.35500000
vn 0.15050000 -0.90440000 0.39930000
vn -0.16580000 -0.78550000 0.59620000
vn -0.14970000 -0.95710000 -0.24810000
vn 0.08730000 -0.87400000 0.47810000
vn -0.32970000 -0.62420000 -0.70830000
vn 0.00120000 -0.93610000 -0.35180000
vn -0.61080000 -0.70190000 0.36640000
vn -0.16160000 -0.95990000 0.22900000
vn 0.61730000 -0.69430000 0.36990000
vn 0.27160000 -0.89760000 0.34710000
vn 0.13600000 -0.87050000 -0.47290000
vn 0.37720000 -0.81730000 0.43570000
vn 0.15420000 0.91220000 0.37970000
vn -0.18590000 0.83180000 0.52310000
vn -0.15010000 0.96450000 -0.21710000
vn 0.15550000 0.81100000 0.56400000
vn -0.42770000 0.67630000 -0.59970000
vn 0.07000000 0.91670000 0.39340000
vn -0.06350000 0.88540000 -0.46040000
vn -0.18400000 0.94910000 0.25580000
vn -0.57220000 0.50740000 0.64430000
vn 0.61920000 0.75660000 0.21020000
vn 0.29520000 0.90340000 0.31110000
vn 0.12790000 0.92970000 -0.34530000
vn 0.23540000 0.79780000 0.55510000
vn -0.33860000 0.65050000 0.67980000
vn 0.69410000 -0.17140000 0.69920000
vn 0.08240000 0.62220000 0.77850000
vn 0.71560000 0.42550000 0.55400000
vn -0.63240000 0.41040000 0.65700000
vn 0.61900000 0.05640000 0.78330000
vn -0.75670000 0.05300000 0.65160000
vn -0.42560000 -0.83560000 0.34730000
vn 0.07790000 -0.62310000 0.77820000
vn -0.68130000 -0.27620000 0.67790000
vn 0.32980000 -0.39510000 0.85740000
vn 0.89050000 0.42630000 0.15880000
vn 0.89440000 -0.42550000 0.13810000
vn 0.97120000 -0.15370000 0.18210000
vn 0.15070000 -0.37310000 -0.91540000
vn 0.11050000 0.51840000 -0.84800000
vn 0.24860000 0.18880000 -0.95000000
vn 0.27440000 -0.08590000 -0.95780000
vn 0.24250000 0.04330000 -0.96920000
vn -0.54350000 0.66790000 -0.50840000
vn -0.54440000 0.64510000 0.53620000
vn 0.57230000 0.65970000 0.48710000
vn -0.58610000 -0.63090000 0.50840000
vn -0.00050000 -0.00020000 -1.00000000
vn 0.98220000 0.17870000 0.05700000
vn 0.35500000 -0.23580000 -0.90460000
vn 0.43180000 0.55660000 -0.70970000
vn 0.33480000 0.23480000 -0.91260000
vn 0.81620000 -0.57450000 0.06070000
vn 0.81600000 0.57060000 0.09190000
vn 0.42470000 -0.13790000 -0.89480000
vn 0.37650000 0.11960000 -0.91870000
vn 0.28530000 -0.22180000 -0.93240000
vn 0.54210000 -0.60910000 -0.57900000
vn 0.63030000 0.75740000 -0.17070000
vn 0.65120000 -0.06470000 -0.75610000
vn 0.31120000 -0.60140000 -0.73590000
vn 0.64480000 -0.17090000 -0.74500000
vn 0.65180000 0.26880000 -0.70910000
vn 0.38990000 0.66190000 -0.64020000
vn 0.76740000 -0.12840000 -0.62820000
vn 0.77750000 -0.19140000 -0.59910000
vn 0.64230000 -0.19990000 0.73990000
vn -0.63550000 -0.20990000 0.74300000
vn 0.72790000 -0.00070000 0.68570000
vn -0.72220000 0.00300000 0.69170000
vn 0.63930000 0.21790000 0.73740000
vn 0.28190000 0.21750000 0.93450000
vn 0.03070000 0.43670000 0.89910000
vn 0.37790000 0.11530000 0.91870000
vn 0.03090000 -0.43980000 0.89760000
vn 0.31400000 -0.09080000 0.94510000
vn 0.26870000 -0.30720000 0.91290000
vn 0.71730000 -0.42110000 0.55500000
vn 0.43880000 -0.20070000 -0.87590000
vn -0.43320000 -0.66830000 -0.60470000
vn -0.38330000 -0.59770000 -0.70420000
vn -0.38630000 0.59000000 -0.70890000
vn -0.14200000 0.34460000 -0.92800000
f 1//1 2//2 3//3
f 4//4 5//5 6//6
f 5//5 7//7 6//6
f 7//7 3//3 6//6
f 8//8 2//2 1//1
f 4//4 9//9 5//5
f 10//10 11//11 12//12
f 9//9 13//13 14//14
f 15//15 16//16 17//17
f 18//18 19//19 20//20
f 16//16 19//19 18//18
f 21//21 22//22 23//23
f 22//22 24//24 23//23
f 25//25 26//26 14//14
f 27//27 26//26 25//25
f 26//26 28//28 29//29
f 31//31 32//32 30//30
f 33//33 34//34 35//35
f 36//36 34//34 33//33
f 37//37 38//38 39//39
f 38//38 40//40 39//39
f 40//40 41//41 39//39
f 41//41 42//42 39//39
f 43//43 38//38 37//37
f 41//41 44//44 42//42
f 45//45 44//44 41//41
f 45//45 46//46 44//44
f 47//47 48//48 49//49
f 45//45 50//50 46//46
f 51//51 50//50 45//45
f 47//47 52//52 48//48
f 53//53 52//52 47//47
f 54//54 55//55 50//50
f 51//51 54//54 50//50
f 53//53 56//56 52//52
f 57//57 55//55 54//54
f 53//53 58//58 56//56
f 59//59 55//55 57//57
f 48//48 60//60 61//61
f 49//49 48//48 61//61
f 48//48 52//52 60//60
f 62//62 49//49 61//61
f 63//63 64//64 60//60
f 52//52 56//56 63//63
f 43//43 49//49 62//62
f 65//65 43//43 62//62
f 38//38 43//43 65//65
f 64//64 66//66 67//67
f 40//40 38//38 65//65
f 68//68 41//41 40//40
f 67//67 69//69 70//70
f 69//69 71//71 70//70
f 72//72 41//41 68//68
f 73//73 74//74 70//70
f 71//71 73//73 70//70
f 45//45 41//41 72//72
f 73//73 54//54 74//74
f 75//75 45//45 72//72
f 51//51 75//75 74//74
f 54//54 51//51 74//74
f 51//51 45//45 75//75
f 57//57 54//54 73//73
f 16//16 76//76 77//77
f 78//78 34//34 79//79
f 78//78 80//80 34//34
f 2//2 76//76 16//16
f 78//78 13//13 80//80
f 2//2 23//23 76//76
f 23//23 81//81 76//76
f 14//14 13//13 78//78
f 82//82 25//25 78//78
f 25//25 14//14 78//78
f 24//24 81//81 23//23
f 24//24 83//83 81//81
f 84//84 25//25 82//82
f 84//84 83//83 24//24
f 85//85 28//28 26//26
f 86//86 21//21 32//32
f 86//86 22//22 21//21
f 27//27 85//85 26//26
f 86//86 27//27 22//22
f 86//86 85//85 27//27
f 87//87 88//88 89//89
f 87//87 90//90 91//91
f 88//88 87//87 91//91
f 91//91 90//90 92//92
f 93//93 36//36 91//91
f 95//95 97//97 94//94
f 97//97 98//98 99//99
f 95//95 98//98 97//97
f 93//93 98//98 36//36
f 36//36 98//98 95//95
f 100//100 47//47 101//101
f 102//102 100//100 103//103
f 102//102 47//47 100//100
f 103//103 106//106 104//104
f 105//105 106//106 103//103
f 107//107 108//108 109//109
f 110//110 107//107 109//109
f 111//111 110//110 112//112
f 111//111 107//107 110//110
f 111//111 106//106 105//105
f 111//111 105//105 107//107
f 113//113 114//114 115//115
f 114//114 116//116 115//115
f 117//117 119//119 113//113
f 114//114 118//118 116//116
f 120//120 121//121 114//114
f 122//122 120//120 114//114
f 119//119 122//122 114//114
f 121//121 123//123 114//114
f 110//110 97//97 112//112
f 99//99 124//124 112//112
f 99//99 125//125 124//124
f 125//125 126//126 124//124
f 19//19 16//16 77//77
f 127//127 85//85 86//86
f 129//129 127//127 128//128
f 130//130 127//127 129//129
f 131//131 130//130 129//129
f 47//47 132//132 101//101
f 132//132 133//133 101//101
f 132//132 117//117 133//133
f 132//132 37//37 117//117
f 118//118 134//134 116//116
f 37//37 119//119 117//117
f 39//39 122//122 119//119
f 37//37 39//39 119//119
f 39//39 42//42 122//122
f 42//42 135//135 122//122
f 42//42 44//44 135//135
f 44//44 46//46 135//135
f 46//46 89//89 135//135
f 46//46 87//87 89//89
f 60//60 136//136 61//61
f 136//136 65//65 61//61
f 64//64 136//136 60//60
f 67//67 136//136 64//64
f 136//136 68//68 65//65
f 74//74 75//75 136//136
f 136//136 67//67 70//70
f 72//72 68//68 75//75
f 130//130 131//131 137//137
f 138//138 130//130 126//126
f 131//131 139//139 137//137
f 139//139 140//140 137//137
f 141//141 138//138 126//126
f 140//140 142//142 137//137
f 143//143 138//138 141//141
f 140//140 144//144 142//142
f 144//144 129//129 142//142
f 145//145 143//143 141//141
f 146//146 145//145 141//141
f 142//142 129//129 147//147
f 127//127 145//145 146//146
f 148//148 129//129 144//144
f 149//149 130//130 138//138
f 145//145 150//150 143//143
f 145//145 130//130 150//150
f 151//151 129//129 148//148
f 131//131 151//151 139//139
f 150//150 130//130 149//149
f 131//131 129//129 151//151
f 152//152 153//153 144//144
f 153//153 148//148 144//144
f 151//151 148//148 153//153
f 152//152 151//151 153//153
f 139//139 151//151 152//152
f 140//140 139//139 152//152
f 138//138 154//154 149//149
f 138//138 143//143 154//154
f 150//150 149//149 154//154
f 143//143 150//150 154//154
f 155//155 156//156 96//96
f 157//157 158//158 155//155
f 108//108 158//158 159//159
f 158//158 157//157 159//159
f 109//109 108//108 159//159
f 77//77 76//76 108//108
f 158//158 78//78 156//156
f 78//78 79//79 156//156
f 79//79 94//94 156//156
f 81//81 83//83 158//158
f 76//76 81//81 158//158
f 83//83 82//82 158//158
f 82//82 78//78 158//158
f 107//107 77//77 108//108
f 79//79 95//95 94//94
f 157//157 110//110 159//159
f 110//110 109//109 159//159
f 96//96 97//97 155//155
f 97//97 157//157 155//155
f 97//97 110//110 157//157
f 124//124 142//142 112//112
f 142//142 147//147 112//112
f 137//137 142//142 124//124
f 126//126 137//137 124//124
f 99//99 141//141 125//125
f 141//141 126//126 125//125
f 146//146 141//141 99//99
f 100//100 160//160 161//161
f 160//160 162//162 161//161
f 162//162 163//163 161//161
f 164//164 163//163 162//162
f 165//165 163//163 164//164
f 88//88 163//163 165//165
f 101//101 113//113 115//115
f 133//133 117//117 113//113
f 101//101 133//133 113//113
f 134//134 115//115 116//116
f 166//166 118//118 114//114
f 123//123 166//166 114//114
f 135//135 120//120 122//122
f 135//135 89//89 120//120
f 89//89 121//121 120//120
f 161//161 163//163 20//20
f 35//35 18//18 20//20
f 33//33 35//35 20//20
f 147//147 111//111 112//112
f 128//128 111//111 147//147
f 99//99 98//98 146//146
f 127//127 146//146 98//98
f 100//100 101//101 115//115
f 134//134 100//100 115//115
f 160//160 100//100 134//134
f 118//118 160//160 134//134
f 162//162 160//160 118//118
f 164//164 162//162 118//118
f 166//166 164//164 118//118
f 165//165 164//164 166//166
f 123//123 165//165 166//166
f 121//121 165//165 123//123
f 88//88 165//165 121//121
f 89//89 88//88 121//121
f 167//167 66//66 168//168
f 69//69 66//66 167//167
f 7//7 69//69 167//167
f 7//7 71//71 69//69
f 56//56 58//58 63//63
f 58//58 1//1 63//63
f 58//58 8//8 1//1
f 58//58 169//169 8//8
f 169//169 30//30 8//8
f 30//30 21//21 8//8
f 21//21 23//23 8//8
f 84//84 27//27 25//25
f 22//22 84//84 24//24
f 22//22 27//27 84//84
f 9//9 170//170 5//5
f 170//170 59//59 5//5
f 59//59 73//73 5//5
f 59//59 57//57 73//73
f 29//29 170//170 9//9
f 26//26 29//29 14//14
f 30//30 169//169 171//171
f 28//28 92//92 170//170
f 92//92 55//55 59//59
f 170//170 92//92 59//59
f 104//104 169//169 53//53
f 171//171 169//169 104//104
f 128//128 86//86 111//111
f 111//111 32//32 106//106
f 86//86 32//32 111//111
f 32//32 31//31 106//106
f 127//127 130//130 145//145
f 85//85 127//127 98//98
f 31//31 104//104 106//106
f 31//31 171//171 104//104
f 28//28 85//85 93//93
f 85//85 98//98 93//93
f 104//104 53//53 102//102
f 102//102 53//53 47//47
f 132//132 43//43 37//37
f 49//49 43//43 132//132
f 47//47 49//49 132//132
f 50//50 87//87 46//46
f 92//92 28//28 93//93
f 50//50 55//55 87//87
f 55//55 92//92 90//90
f 7//7 167//167 3//3
f 7//7 73//73 71//71
f 5//5 73//73 7//7
f 168//168 1//1 167//167
f 168//168 63//63 1//1
f 8//8 23//23 2//2
f 15//15 2//2 16//16
f 80//80 11//11 10//10
f 13//13 11//11 80//80
f 2//2 17//17 3//3
f 2//2 15//15 17//17
f 12//12 4//4 6//6
f 11//11 4//4 12//12
f 11//11 13//13 4//4
f 13//13 9//9 4//4
f 34//34 80//80 10//10
f 103//103 100//100 161//161
f 20//20 103//103 161//161
f 19//19 105//105 20//20
f 105//105 103//103 20//20
f 107//107 19//19 77//77
f 107//107 105//105 19//19
f 88//88 91//91 163//163
f 91//91 33//33 163//163
f 91//91 36//36 33//33
f 36//36 95//95 79//79
f 10//10 12//12 35//35
f 34//34 10//10 35//35
f 12//12 6//6 35//35
f 6//6 3//3 18//18
f 35//35 6//6 18//18
f 3//3 17//17 18//18
f 17//17 16//16 18//18
f 168//168 66//66 64//64
f 66//66 69//69 67//67
f 63//63 168//168 64//64
f 167//167 1//1 3//3
f 34//34 36//36 79//79
f 32//32 21//21 30//30
f 52//52 63//63 60//60
f 84//84 82//82 83//83
f 91//91 92//92 93//93
f 97//97 96//96 94//94
f 103//103 104//104 102//102
f 119//119 114//114 113//113
f 97//97 99//99 112//112
f 127//127 86//86 128//128
f 65//65 62//62 61//61
f 68//68 40//40 65//65
f 136//136 70//70 74//74
f 68//68 136//136 75//75
f 130//130 137//137 126//126
f 129//129 128//128 147//147
f 152//152 144//144 140//140
f 156//156 94//94 96//96
f 158//158 156//156 155//155
f 76//76 158//158 108//108
f 163//163 33//33 20//20
f 29//29 9//9 14//14
f 30//30 171//171 31//31
f 28//28 170//170 29//29
f 169//169 58//58 53//53
f 55//55 90//90 87//87

