# Blender 3.3.21
# www.blender.org
mtllib shoulder.mtl
o base_002
v -0.048223 0.057646 -0.069141
v -0.036883 0.066057 -0.069259
v -0.037377 0.064940 -0.076458
v -0.025096 0.070410 -0.075352
v -0.025590 0.070421 -0.081869
v -0.012827 0.073703 -0.079034
v -0.013074 0.073821 -0.085210
v -0.000005 0.074974 -0.080211
v -0.000005 0.074974 -0.080211
v -0.000005 0.074986 -0.086375
v -0.000005 0.074986 -0.086375
v 0.013076 0.073821 -0.085210
v 0.012817 0.073703 -0.079034
v 0.025592 0.070421 -0.081869
v 0.025098 0.070410 -0.075352
v 0.037367 0.064940 -0.076458
v 0.048225 0.057646 -0.069141
v 0.036885 0.066057 -0.069259
v 0.038685 0.071010 -0.064895
v 0.025757 0.073845 -0.071000
v 0.012864 0.075185 -0.074517
v -0.000005 0.075703 -0.075705
v -0.000005 0.075703 -0.075705
v -0.012862 0.075185 -0.074517
v -0.025755 0.073844 -0.071000
v -0.038683 0.071010 -0.064895
v -0.051505 0.066575 -0.055237
v -0.051340 0.058999 -0.058260
v -0.057916 0.048683 -0.060166
v -0.064915 0.037543 -0.088433
v -0.057422 0.048247 -0.088433
v -0.048176 0.057482 -0.088433
v -0.037483 0.064987 -0.088433
v -0.025637 0.070504 -0.088433
v -0.013015 0.073880 -0.088433
v -0.000005 0.075021 -0.088433
v -0.000005 0.075021 -0.088433
v 0.013017 0.073880 -0.088433
v 0.025639 0.070504 -0.088433
v 0.037473 0.064987 -0.088433
v 0.048178 0.057482 -0.088433
v 0.057424 0.048247 -0.088433
v 0.064917 0.037543 -0.088433
v 0.057918 0.048683 -0.060166
v 0.051342 0.058999 -0.058260
v 0.051507 0.066575 -0.055237
v 0.062388 0.073739 -0.041603
v 0.052930 0.077197 -0.053108
v 0.041261 0.080044 -0.062566
v 0.028239 0.082149 -0.069400
v 0.014334 0.083420 -0.073541
v -0.000005 0.083843 -0.074941
v -0.000005 0.083843 -0.074941
v -0.014333 0.083420 -0.073541
v -0.028237 0.082149 -0.069400
v -0.041259 0.080044 -0.062566
v -0.052928 0.077197 -0.053108
v -0.062386 0.073739 -0.041603
v -0.069303 0.069798 -0.028652
v -0.062315 0.059964 -0.042756
v -0.062504 0.049577 -0.045756
v -0.065927 0.038072 -0.049755
v -0.070432 0.025709 -0.088433
v -0.070432 0.025709 -0.112137
v -0.064915 0.037543 -0.112137
v -0.057422 0.048247 -0.112137
v -0.048176 0.057482 -0.112137
v -0.037483 0.064987 -0.112137
v -0.025637 0.070504 -0.112137
v -0.013015 0.073880 -0.112137
v -0.000005 0.075021 -0.112137
v -0.000005 0.075021 -0.112137
v 0.013017 0.073880 -0.112137
v 0.025639 0.070504 -0.112137
v 0.037473 0.064987 -0.112137
v 0.048178 0.057482 -0.112137
v 0.057424 0.048247 -0.112137
v 0.064917 0.037543 -0.112137
v 0.070434 0.025709 -0.112137
v 0.070434 0.025709 -0.088433
v 0.065929 0.038072 -0.049755
v 0.062494 0.049577 -0.045756
v 0.062317 0.059964 -0.042756
v 0.069305 0.069798 -0.028652
v 0.073539 0.089007 -0.014701
v 0.073539 0.089007 -0.014701
v 0.073539 0.089007 -0.014701
v 0.069246 0.089007 -0.028770
v 0.069246 0.089007 -0.028770
v 0.069246 0.089007 -0.028770
v 0.062294 0.089007 -0.041721
v 0.062294 0.089007 -0.041721
v 0.062294 0.089007 -0.041721
v 0.052942 0.089007 -0.053073
v 0.052942 0.089007 -0.053073
v 0.052942 0.089007 -0.053073
v 0.041567 0.089007 -0.062378
v 0.041567 0.089007 -0.062378
v 0.041567 0.089007 -0.062378
v 0.028545 0.089007 -0.069200
v 0.028545 0.089007 -0.069200
v 0.028545 0.089007 -0.069200
v 0.014452 0.089007 -0.073306
v 0.014452 0.089007 -0.073306
v 0.014452 0.089007 -0.073306
v -0.000005 0.089007 -0.074752
v -0.000005 0.089007 -0.074752
v -0.000005 0.089007 -0.074752
v -0.000005 0.089007 -0.074752
v -0.014462 0.089007 -0.073306
v -0.014462 0.089007 -0.073306
v -0.014462 0.089007 -0.073306
v -0.028543 0.089007 -0.069200
v -0.028543 0.089007 -0.069200
v -0.028543 0.089007 -0.069200
v -0.041565 0.089007 -0.062378
v -0.041565 0.089007 -0.062378
v -0.041565 0.089007 -0.062378
v -0.052940 0.089007 -0.053073
v -0.052940 0.089007 -0.053073
v -0.052940 0.089007 -0.053073
v -0.062292 0.089007 -0.041721
v -0.062292 0.089007 -0.041721
v -0.062292 0.089007 -0.041721
v -0.069244 0.089007 -0.028770
v -0.069244 0.089007 -0.028770
v -0.069244 0.089007 -0.028770
v -0.073538 0.089007 -0.014701
v -0.073538 0.089007 -0.014701
v -0.073538 0.089007 -0.014701
v -0.075008 0.089007 -0.000067
v -0.075008 0.089007 -0.000067
v -0.075008 0.089007 -0.000067
v -0.074938 0.059152 -0.000067
v -0.073549 0.065528 -0.014701
v -0.070362 0.051024 -0.027276
v -0.070785 0.037166 -0.030122
v -0.071608 0.026003 -0.038180
v -0.073820 0.013087 -0.088433
v -0.073820 0.013087 -0.112137
v -0.074961 0.000065 -0.088433
v -0.074961 0.000065 -0.112137
v -0.073820 -0.012946 -0.088433
v -0.073820 -0.012946 -0.112137
v -0.070432 -0.025568 -0.088433
v -0.070432 -0.025568 -0.112137
v -0.064915 -0.037413 -0.088433
v -0.064915 -0.037413 -0.112137
v -0.057422 -0.048118 -0.088433
v -0.057422 -0.048118 -0.112137
v -0.048176 -0.057352 -0.088433
v -0.048176 -0.057352 -0.112137
v -0.037483 -0.064845 -0.088433
v -0.037483 -0.064845 -0.112137
v -0.025637 -0.070374 -0.088433
v -0.025637 -0.070374 -0.112137
v -0.013015 -0.073750 -0.088433
v -0.013015 -0.073750 -0.112137
v -0.000005 -0.074891 -0.088433
v -0.000005 -0.074891 -0.112137
v 0.013017 -0.073750 -0.112137
v 0.013017 -0.073750 -0.088433
v 0.025639 -0.070374 -0.112137
v 0.025639 -0.070374 -0.088433
v 0.037473 -0.064845 -0.112137
v 0.037473 -0.064845 -0.088433
v 0.048178 -0.057352 -0.112137
v 0.048178 -0.057352 -0.088433
v 0.057424 -0.048118 -0.112137
v 0.057424 -0.048118 -0.088433
v 0.064917 -0.037413 -0.112137
v 0.064917 -0.037413 -0.088433
v 0.070434 -0.025568 -0.112137
v 0.070434 -0.025568 -0.088433
v 0.073822 -0.012945 -0.112137
v 0.073822 -0.012945 -0.088433
v 0.074963 0.000065 -0.112137
v 0.074963 0.000065 -0.088433
v 0.073822 0.013087 -0.112137
v 0.073822 0.013087 -0.088433
v 0.071610 0.026003 -0.038180
v 0.070787 0.037166 -0.030122
v 0.070352 0.051024 -0.027276
v 0.073539 0.065528 -0.014701
v 0.074939 0.059152 -0.000067
v 0.075010 0.089007 -0.000067
v 0.075010 0.089007 -0.000067
v 0.075010 0.089007 -0.000067
v 0.073539 0.060411 0.014508
v 0.073598 0.088996 0.014567
v 0.073598 0.088996 0.014567
v 0.073598 0.088996 0.014567
v -0.000005 0.089007 0.000004
v -0.000005 0.089007 0.000004
v -0.000005 0.089007 0.000004
v -0.000005 0.089007 0.000004
v -0.000005 0.089007 0.000004
v -0.000005 0.089007 0.000004
v -0.000005 0.089007 0.000004
v -0.000005 0.089007 0.000004
v -0.000005 0.089007 0.000004
v -0.000005 0.089007 0.000004
v -0.000005 0.089007 0.000004
v -0.000005 0.089007 0.000004
v -0.000005 0.089007 0.000004
v -0.000005 0.089007 0.000004
v -0.000005 0.089007 0.000004
v -0.000005 0.089007 0.000004
v -0.000005 0.089007 0.000004
v -0.000005 0.089007 0.000004
v -0.000005 0.089007 0.000004
v -0.000005 0.089007 0.000004
v -0.000005 0.089007 0.000004
v -0.000005 0.089007 0.000004
v -0.000005 0.089007 0.000004
v -0.000005 0.089007 0.000004
v -0.000005 0.089007 0.000004
v -0.000005 0.089007 0.000004
v -0.000005 0.089007 0.000004
v -0.000005 0.089007 0.000004
v -0.000005 0.089007 0.000004
v -0.000005 0.089007 0.000004
v -0.000005 0.089007 0.000004
v -0.000005 0.089007 0.000004
v -0.073597 0.088996 0.014567
v -0.073597 0.088996 0.014567
v -0.073597 0.088996 0.014567
v -0.073538 0.060411 0.014508
v -0.073526 0.041025 0.014567
v -0.074938 0.038343 -0.000067
v -0.073949 0.043154 -0.013960
v -0.074408 0.025509 -0.015571
v -0.074549 0.013051 -0.025829
v -0.074879 -0.000241 -0.025829
v -0.073667 -0.013334 -0.025841
v -0.070420 -0.026132 -0.025841
v -0.064927 -0.038084 -0.025841
v -0.057339 -0.048788 -0.025841
v -0.047846 -0.057905 -0.025829
v -0.037024 -0.065151 -0.025829
v -0.025155 -0.070480 -0.025829
v -0.012627 -0.073750 -0.025829
v -0.000005 -0.074797 -0.025829
v 0.012629 -0.073750 -0.025829
v 0.025157 -0.070480 -0.025829
v 0.037026 -0.065151 -0.025829
v 0.047848 -0.057905 -0.025829
v 0.057341 -0.048788 -0.025841
v 0.064929 -0.038084 -0.025841
v 0.070422 -0.026132 -0.025841
v 0.073657 -0.013334 -0.025841
v 0.074881 -0.000241 -0.025829
v 0.074551 0.013051 -0.025829
v 0.074398 0.025509 -0.015571
v 0.073951 0.043154 -0.013960
v 0.074939 0.038343 -0.000067
v 0.073516 0.041025 0.014567
v 0.069563 0.048589 0.028706
v 0.069293 0.064199 0.028589
v 0.069352 0.088996 0.028647
v 0.069352 0.088996 0.028647
v 0.069352 0.088996 0.028647
v 0.062447 0.088996 0.041622
v 0.062447 0.088996 0.041622
v 0.062447 0.088996 0.041622
v 0.053130 0.088996 0.053009
v 0.053130 0.088996 0.053009
v 0.053130 0.088996 0.053009
v 0.041778 0.088996 0.062349
v 0.041778 0.088996 0.062349
v 0.041778 0.088996 0.062349
v 0.028827 0.088996 0.069313
v 0.028827 0.088996 0.069313
v 0.028827 0.088996 0.069313
v 0.014770 0.088996 0.073607
v 0.014770 0.088996 0.073607
v 0.014770 0.088996 0.073607
v -0.000005 0.088996 0.075066
v -0.000005 0.088996 0.075066
v -0.000005 0.088996 0.075066
v -0.000005 0.088996 0.075066
v -0.014768 0.088996 0.073607
v -0.014768 0.088996 0.073607
v -0.014768 0.088996 0.073607
v -0.028825 0.088996 0.069313
v -0.028825 0.088996 0.069313
v -0.028825 0.088996 0.069313
v -0.041777 0.088996 0.062349
v -0.041777 0.088996 0.062349
v -0.041777 0.088996 0.062349
v -0.053140 0.088996 0.053009
v -0.053140 0.088996 0.053009
v -0.053140 0.088996 0.053009
v -0.062445 0.088996 0.041622
v -0.062445 0.088996 0.041622
v -0.062445 0.088996 0.041622
v -0.069350 0.088996 0.028647
v -0.069350 0.088996 0.028647
v -0.069350 0.088996 0.028647
v -0.069291 0.064198 0.028589
v -0.069562 0.048589 0.028706
v -0.069009 0.039401 0.034317
v -0.073973 0.026567 0.015367
v -0.075173 0.012981 -0.000091
v -0.075196 -0.000241 -0.000067
v -0.074091 -0.013416 -0.000079
v -0.070891 -0.026320 -0.000091
v -0.065386 -0.038331 -0.000102
v -0.057657 -0.049047 -0.000079
v -0.048011 -0.058117 -0.000079
v -0.037071 -0.065234 -0.000067
v -0.025143 -0.070445 -0.000067
v -0.012603 -0.073609 -0.000079
v -0.000005 -0.074644 -0.000079
v 0.012605 -0.073609 -0.000079
v 0.025145 -0.070445 -0.000067
v 0.037073 -0.065234 -0.000067
v 0.048013 -0.058117 -0.000079
v 0.057659 -0.049047 -0.000079
v 0.065376 -0.038331 -0.000102
v 0.070893 -0.026320 -0.000091
v 0.074092 -0.013416 -0.000079
v 0.075198 -0.000241 -0.000067
v 0.075175 0.012981 -0.000091
v 0.073975 0.026567 0.015367
v 0.069011 0.039401 0.034317
v 0.061164 0.049047 0.048551
v 0.061647 0.056447 0.043999
v 0.062423 0.068339 0.041611
v 0.053106 0.071951 0.052986
v 0.041767 0.074833 0.062338
v 0.028815 0.076950 0.069290
v 0.014758 0.078256 0.073560
v -0.000005 0.078691 0.075019
v -0.000005 0.078691 0.075019
v -0.014756 0.078256 0.073560
v -0.028813 0.076950 0.069290
v -0.041765 0.074833 0.062338
v -0.053117 0.071951 0.052986
v -0.062421 0.068339 0.041611
v -0.061657 0.056446 0.043999
v -0.061163 0.049047 0.048551
v -0.058845 0.043836 0.057715
v -0.066421 0.034108 0.048680
v -0.071914 0.022344 0.037105
v -0.074585 0.009805 0.027059
v -0.075114 -0.002888 0.024624
v -0.073961 -0.015510 0.022189
v -0.070620 -0.027803 0.019825
v -0.065045 -0.039284 0.017601
v -0.057375 -0.049553 0.015637
v -0.047917 -0.058305 0.013931
v -0.037083 -0.065269 0.012532
v -0.025214 -0.070386 0.011508
v -0.012662 -0.073503 0.010885
v -0.000005 -0.074538 0.010673
v 0.012664 -0.073503 0.010885
v 0.025216 -0.070386 0.011508
v 0.037085 -0.065269 0.012532
v 0.047919 -0.058305 0.013931
v 0.057377 -0.049553 0.015637
v 0.065035 -0.039284 0.017601
v 0.070622 -0.027803 0.019825
v 0.073963 -0.015510 0.022189
v 0.075116 -0.002888 0.024624
v 0.074586 0.009805 0.027059
v 0.071904 0.022345 0.037105
v 0.066423 0.034108 0.048680
v 0.058847 0.043836 0.057715
v 0.048425 0.052235 0.065514
v 0.049248 0.057282 0.060820
v 0.050742 0.062846 0.056573
v 0.039426 0.066739 0.064937
v 0.026792 0.069445 0.070831
v 0.013440 0.071104 0.074289
v -0.000005 0.071621 0.075383
v -0.000005 0.071621 0.075383
v -0.013439 0.071104 0.074289
v -0.026790 0.069445 0.070831
v -0.039424 0.066739 0.064937
v -0.050740 0.062846 0.056573
v -0.049246 0.057282 0.060820
v -0.048423 0.052235 0.065514
v -0.048294 0.048342 0.070007
v -0.048294 0.048342 0.070007
v -0.057575 0.039566 0.066431
v -0.057575 0.039566 0.066431
v -0.064997 0.029508 0.062373
v -0.064997 0.029508 0.062373
v -0.070444 0.018404 0.057903
v -0.070444 0.018404 0.057903
v -0.073749 0.006652 0.053174
v -0.073749 0.006652 0.053174
v -0.074820 -0.005417 0.048304
v -0.074820 -0.005417 0.048304
v -0.073655 -0.017474 0.043457
v -0.073655 -0.017474 0.043457
v -0.070279 -0.029097 0.038776
v -0.070279 -0.029097 0.038776
v -0.064739 -0.040072 0.034364
v -0.064739 -0.040072 0.034364
v -0.057234 -0.049988 0.030377
v -0.057234 -0.049988 0.030377
v -0.047988 -0.058540 0.026942
v -0.047988 -0.058540 0.026942
v -0.037271 -0.065469 0.024154
v -0.037271 -0.065469 0.024154
v -0.025414 -0.070562 0.022095
v -0.025414 -0.070562 0.022095
v -0.012792 -0.073680 0.020848
v -0.012792 -0.073680 0.020848
v -0.000005 -0.074680 0.020448
v -0.000005 -0.074680 0.020448
v 0.012794 -0.073680 0.020848
v 0.012794 -0.073680 0.020848
v 0.025416 -0.070562 0.022095
v 0.025416 -0.070562 0.022095
v 0.037273 -0.065469 0.024154
v 0.037273 -0.065469 0.024154
v 0.047978 -0.058540 0.026942
v 0.047978 -0.058540 0.026942
v 0.057235 -0.049988 0.030377
v 0.057235 -0.049988 0.030377
v 0.064741 -0.040072 0.034364
v 0.064741 -0.040072 0.034364
v 0.070269 -0.029097 0.038776
v 0.070269 -0.029097 0.038776
v 0.073657 -0.017474 0.043457
v 0.073657 -0.017474 0.043457
v 0.074822 -0.005417 0.048304
v 0.074822 -0.005417 0.048304
v 0.073751 0.006652 0.053174
v 0.073751 0.006652 0.053174
v 0.070446 0.018404 0.057903
v 0.070446 0.018404 0.057903
v 0.064988 0.029508 0.062373
v 0.064988 0.029508 0.062373
v 0.057565 0.039566 0.066431
v 0.057565 0.039566 0.066431
v 0.048295 0.048342 0.070007
v 0.048295 0.048342 0.070007
v 0.037638 0.055388 0.072901
v 0.037638 0.055388 0.072901
v 0.037673 0.058140 0.070431
v 0.038096 0.061987 0.067772
v 0.025792 0.065245 0.072548
v 0.012935 0.067269 0.075277
v -0.000005 0.067880 0.076171
v -0.000005 0.067880 0.076171
v -0.012945 0.067269 0.075277
v -0.025802 0.065245 0.072548
v -0.038095 0.061987 0.067772
v -0.037671 0.058140 0.070431
v -0.037636 0.055388 0.072901
v -0.037636 0.055388 0.072901
v -0.047811 0.046942 0.071242
v -0.047811 0.046942 0.071242
v -0.056916 0.038437 0.067819
v -0.056916 0.038437 0.067819
v -0.064292 0.028603 0.063855
v -0.064292 0.028603 0.063855
v -0.069726 0.017733 0.059467
v -0.069726 0.017733 0.059467
v -0.073032 0.006146 0.054797
v -0.073032 0.006146 0.054797
v -0.074114 -0.005793 0.049986
v -0.074114 -0.005793 0.049986
v -0.072950 -0.017733 0.045175
v -0.072950 -0.017733 0.045175
v -0.069573 -0.029297 0.040517
v -0.069573 -0.029297 0.040517
v -0.064080 -0.040142 0.036141
v -0.064080 -0.040142 0.036141
v -0.056634 -0.049941 0.032200
v -0.056634 -0.049941 0.032200
v -0.047470 -0.058387 0.028789
v -0.047470 -0.058387 0.028789
v -0.036871 -0.065234 0.026036
v -0.036871 -0.065234 0.026036
v -0.025143 -0.070257 0.024013
v -0.025143 -0.070257 0.024013
v -0.012662 -0.073327 0.022766
v -0.012662 -0.073327 0.022766
v -0.000005 -0.074327 0.022366
v -0.000005 -0.074327 0.022366
v 0.012652 -0.073327 0.022766
v 0.012652 -0.073327 0.022766
v 0.025145 -0.070257 0.024013
v 0.025145 -0.070257 0.024013
v 0.036873 -0.065234 0.026036
v 0.036873 -0.065234 0.026036
v 0.047472 -0.058387 0.028789
v 0.047472 -0.058387 0.028789
v 0.056636 -0.049941 0.032200
v 0.056636 -0.049941 0.032200
v 0.064082 -0.040142 0.036141
v 0.064082 -0.040142 0.036141
v 0.069575 -0.029296 0.040517
v 0.069575 -0.029296 0.040517
v 0.072951 -0.017733 0.045175
v 0.072951 -0.017733 0.045175
v 0.074116 -0.005793 0.049986
v 0.074116 -0.005793 0.049986
v 0.073034 0.006147 0.054797
v 0.073034 0.006147 0.054797
v 0.069716 0.017733 0.059467
v 0.069716 0.017733 0.059467
v 0.064293 0.028603 0.063855
v 0.064293 0.028603 0.063855
v 0.056918 0.038437 0.067819
v 0.056918 0.038437 0.067819
v 0.047801 0.046942 0.071242
v 0.047801 0.046942 0.071242
v 0.037250 0.053835 0.074030
v 0.037250 0.053835 0.074030
v 0.025557 0.058940 0.076077
v 0.025557 0.058940 0.076077
v 0.025792 0.060634 0.075089
v 0.025792 0.060634 0.075089
v 0.025721 0.062410 0.073913
v 0.013052 0.065069 0.075971
v -0.000005 0.065939 0.076665
v -0.000005 0.065939 0.076665
v -0.013050 0.065069 0.075971
v -0.025720 0.062410 0.073913
v -0.025790 0.060634 0.075089
v -0.025790 0.060634 0.075089
v -0.037248 0.053835 0.074030
v -0.037248 0.053835 0.074030
v -0.034930 0.048224 0.077054
v -0.034930 0.048224 0.077054
v -0.044823 0.041754 0.074442
v -0.044823 0.041754 0.074442
v -0.053364 0.033790 0.071219
v -0.053364 0.033790 0.071219
v -0.053364 0.033790 0.071219
v -0.060269 0.024580 0.067502
v -0.060269 0.024580 0.067502
v -0.065350 0.014392 0.063385
v -0.065350 0.014392 0.063385
v -0.068444 0.003535 0.058997
v -0.068444 0.003535 0.058997
v -0.069456 -0.007652 0.054480
v -0.069456 -0.007652 0.054480
v -0.068362 -0.018827 0.049963
v -0.068362 -0.018827 0.049963
v -0.065186 -0.029661 0.045587
v -0.065186 -0.029661 0.045587
v -0.060033 -0.039813 0.041481
v -0.060033 -0.039813 0.041481
v -0.053058 -0.048988 0.037776
v -0.053058 -0.048988 0.037776
v -0.044470 -0.056893 0.034576
v -0.044470 -0.056893 0.034576
v -0.034530 -0.063304 0.031988
v -0.034530 -0.063304 0.031988
v -0.023543 -0.068010 0.030082
v -0.023543 -0.068010 0.030082
v -0.011839 -0.070880 0.028930
v -0.011839 -0.070880 0.028930
v -0.000005 -0.071809 0.028553
v -0.000005 -0.071809 0.028553
v 0.011841 -0.070880 0.028930
v 0.011841 -0.070880 0.028930
v 0.023545 -0.068010 0.030082
v 0.023545 -0.068010 0.030082
v 0.034532 -0.063304 0.031988
v 0.034532 -0.063304 0.031988
v 0.044472 -0.056893 0.034576
v 0.044472 -0.056893 0.034576
v 0.053059 -0.048988 0.037776
v 0.053059 -0.048988 0.037776
v 0.060035 -0.039813 0.041481
v 0.060035 -0.039813 0.041481
v 0.065188 -0.029661 0.045587
v 0.065188 -0.029661 0.045587
v 0.068364 -0.018827 0.049963
v 0.068364 -0.018827 0.049963
v 0.069458 -0.007652 0.054480
v 0.069458 -0.007652 0.054480
v 0.068446 0.003535 0.058997
v 0.068446 0.003535 0.058997
v 0.065352 0.014392 0.063385
v 0.065352 0.014392 0.063385
v 0.060270 0.024580 0.067502
v 0.060270 0.024580 0.067502
v 0.053365 0.033790 0.071219
v 0.053365 0.033790 0.071219
v 0.044825 0.041754 0.074442
v 0.044825 0.041754 0.074442
v 0.034932 0.048224 0.077054
v 0.034932 0.048224 0.077054
v 0.023980 0.053000 0.078983
v 0.023980 0.053000 0.078983
v 0.012299 0.055941 0.080171
v 0.012299 0.055941 0.080171
v 0.013076 0.062069 0.077348
v 0.013076 0.062069 0.077348
v 0.013170 0.063869 0.076501
v 0.013170 0.063869 0.076501
v -0.000005 0.064987 0.076995
v -0.000005 0.064987 0.076995
v -0.000005 0.064987 0.076995
v -0.000005 0.064987 0.076995
v -0.013168 0.063869 0.076501
v -0.013168 0.063869 0.076501
v -0.025555 0.058940 0.076077
v -0.025555 0.058940 0.076077
v -0.023979 0.053000 0.078983
v -0.023979 0.053000 0.078983
v -0.000005 -0.007558 0.054515
v -0.000005 -0.007558 0.054515
v -0.000005 0.056952 0.080583
v -0.000005 0.056952 0.080583
v -0.000005 0.056952 0.080583
v -0.000005 0.063140 0.077783
v -0.000005 0.063140 0.077783
v -0.000005 0.063140 0.077783
v -0.000005 0.063140 0.077783
v -0.013086 0.062069 0.077348
v -0.013086 0.062069 0.077348
v -0.012298 0.055941 0.080171
v -0.012298 0.055941 0.080171
v -0.073545 0.109005 -0.014706
v -0.073545 0.109005 -0.014706
v -0.075010 0.109005 -0.000073
v -0.075010 0.109005 -0.000073
v -0.000005 0.109005 -0.000283
v -0.000005 0.109005 -0.000283
v -0.073590 0.109005 0.014569
v -0.073590 0.109005 0.014569
v -0.069351 0.109005 0.028644
v -0.069351 0.109005 0.028644
v -0.062446 0.109005 0.041628
v -0.062446 0.109005 0.041628
v -0.053134 0.109005 0.053011
v -0.053134 0.109005 0.053011
v -0.041779 0.109005 0.062341
v -0.041779 0.109005 0.062341
v -0.028831 0.109005 0.069310
v -0.028831 0.109005 0.069310
v -0.014766 0.108996 0.073605
v -0.014766 0.108996 0.073605
v -0.014766 0.108996 0.073605
v -0.000005 0.108996 0.075070
v -0.000005 0.108996 0.075070
v 0.014766 0.108996 0.073605
v 0.014766 0.108996 0.073605
v 0.014766 0.108996 0.073605
v 0.028831 0.109005 0.069310
v 0.028831 0.109005 0.069310
v 0.041779 0.109005 0.062341
v 0.041779 0.109005 0.062341
v 0.053134 0.109005 0.053011
v 0.053134 0.109005 0.053011
v 0.062446 0.109005 0.041628
v 0.062446 0.109005 0.041628
v 0.069351 0.109005 0.028644
v 0.069351 0.109005 0.028644
v 0.073590 0.109005 0.014569
v 0.073590 0.109005 0.014569
v 0.075010 0.109005 -0.000073
v 0.075010 0.109005 -0.000073
v 0.073545 0.109005 -0.014706
v 0.073545 0.109005 -0.014706
v 0.069250 0.109005 -0.028762
v 0.069250 0.109005 -0.028762
v 0.062291 0.109005 -0.041719
v 0.062291 0.109005 -0.041719
v 0.052941 0.109005 -0.053074
v 0.052941 0.109005 -0.053074
v 0.041559 0.109005 -0.062377
v 0.041559 0.109005 -0.062377
v 0.028547 0.109005 -0.069199
v 0.028547 0.109005 -0.069199
v 0.014454 0.109005 -0.073311
v 0.014454 0.109005 -0.073311
v -0.000005 0.109005 -0.074757
v -0.000005 0.109005 -0.074757
v -0.000005 0.109005 -0.074757
v -0.014454 0.109005 -0.073311
v -0.014454 0.109005 -0.073311
v -0.028547 0.109005 -0.069199
v -0.028547 0.109005 -0.069199
v -0.041559 0.109005 -0.062377
v -0.041559 0.109005 -0.062377
v -0.052941 0.109005 -0.053074
v -0.052941 0.109005 -0.053074
v -0.052941 0.089006 -0.053074
v -0.052941 0.089006 -0.053074
v -0.041559 0.089006 -0.062377
v -0.041559 0.089006 -0.062377
v -0.028547 0.089006 -0.069199
v -0.028547 0.089006 -0.069199
v -0.014454 0.089006 -0.073311
v -0.014454 0.089006 -0.073311
v -0.000005 0.089006 -0.074757
v -0.000005 0.089006 -0.074757
v -0.000005 0.089006 -0.074757
v 0.014454 0.089006 -0.073311
v 0.014454 0.089006 -0.073311
v 0.028547 0.089006 -0.069199
v 0.028547 0.089006 -0.069199
v 0.041559 0.089006 -0.062377
v 0.041559 0.089006 -0.062377
v 0.052941 0.089006 -0.053074
v 0.052941 0.089006 -0.053074
v 0.062291 0.089006 -0.041719
v 0.062291 0.089006 -0.041719
v 0.069250 0.089006 -0.028762
v 0.069250 0.089006 -0.028762
v 0.073545 0.089006 -0.014706
v 0.073545 0.089006 -0.014706
v 0.075010 0.089006 -0.000073
v 0.075010 0.089006 -0.000073
v 0.073590 0.089006 0.014569
v 0.073590 0.089006 0.014569
v 0.069351 0.088997 0.028644
v 0.069351 0.088997 0.028644
v 0.069351 0.088997 0.028644
v 0.062446 0.088997 0.041628
v 0.062446 0.088997 0.041628
v 0.062446 0.088997 0.041628
v 0.053134 0.088997 0.053011
v 0.053134 0.088997 0.053011
v 0.041779 0.088997 0.062341
v 0.041779 0.088997 0.062341
v 0.028831 0.088997 0.069310
v 0.028831 0.088997 0.069310
v 0.028831 0.088997 0.069310
v 0.014766 0.088997 0.073605
v 0.014766 0.088997 0.073605
v -0.000005 0.088997 0.075070
v -0.000005 0.088997 0.075070
v -0.014766 0.088997 0.073605
v -0.014766 0.088997 0.073605
v -0.028831 0.088997 0.069310
v -0.028831 0.088997 0.069310
v -0.028831 0.088997 0.069310
v -0.041779 0.088997 0.062341
v -0.041779 0.088997 0.062341
v -0.053134 0.088997 0.053011
v -0.053134 0.088997 0.053011
v -0.062446 0.088997 0.041628
v -0.062446 0.088997 0.041628
v -0.069351 0.088997 0.028644
v -0.069351 0.088997 0.028644
v -0.069351 0.088997 0.028644
v -0.073590 0.089006 0.014569
v -0.073590 0.089006 0.014569
v -0.075010 0.089006 -0.000073
v -0.075010 0.089006 -0.000073
v -0.073545 0.089006 -0.014706
v -0.073545 0.089006 -0.014706
v -0.069250 0.109005 -0.028762
v -0.069250 0.109005 -0.028762
v -0.062291 0.109005 -0.041719
v -0.062291 0.109005 -0.041719
v -0.062291 0.089006 -0.041719
v -0.062291 0.089006 -0.041719
v -0.000005 0.089006 0.000001
v -0.000005 0.089006 0.000001
v -0.000005 0.089006 0.000001
v -0.000005 0.089006 0.000001
v -0.000005 0.089006 0.000001
v -0.069250 0.089006 -0.028762
v -0.069250 0.089006 -0.028762
vn -0.6536 0.7459 -0.1282
vn -0.5919 0.6732 -0.4433
vn -0.4985 0.8661 -0.0377
vn -0.4019 0.8590 -0.3172
vn -0.3390 0.9406 0.0194
vn -0.1703 0.9743 -0.1477
vn -0.1761 0.9842 0.0183
vn -0.1011 0.9923 -0.0715
vn -0.0879 0.9961 0.0099
vn 0.0879 0.9961 0.0099
vn 0.1010 0.9923 -0.0715
vn 0.1761 0.9842 0.0185
vn 0.1702 0.9743 -0.1476
vn 0.3391 0.9405 0.0194
vn 0.4018 0.8590 -0.3173
vn 0.4984 0.8661 -0.0380
vn 0.6535 0.7459 -0.1283
vn 0.5918 0.6730 -0.4436
vn 0.5720 0.2519 -0.7806
vn 0.4011 0.4275 -0.8102
vn 0.1866 0.6215 -0.7609
vn 0.1229 0.6742 -0.7282
vn -0.1230 0.6743 -0.7282
vn -0.1866 0.6216 -0.7608
vn -0.4011 0.4275 -0.8102
vn -0.5720 0.2519 -0.7806
vn -0.7184 0.1508 -0.6791
vn -0.7634 0.4349 -0.4776
vn -0.8034 0.5737 -0.1595
vn -0.8655 0.5007 -0.0136
vn -0.7645 0.6446 -0.0092
vn -0.6415 0.7671 -0.0021
vn -0.4999 0.8661 0.0044
vn -0.3417 0.9398 0.0071
vn -0.1729 0.9849 0.0074
vn -0.0874 0.9961 0.0085
vn 0.0873 0.9961 0.0085
vn 0.1729 0.9849 0.0074
vn 0.3419 0.9397 0.0071
vn 0.4998 0.8661 0.0044
vn 0.6413 0.7673 -0.0021
vn 0.7645 0.6446 -0.0092
vn 0.8655 0.5007 -0.0136
vn 0.8034 0.5738 -0.1593
vn 0.7634 0.4348 -0.4776
vn 0.7184 0.1508 -0.6791
vn 0.8333 0.0188 -0.5525
vn 0.7091 0.0200 -0.7048
vn 0.5576 0.0222 -0.8298
vn 0.3850 0.0320 -0.9224
vn 0.1985 0.0564 -0.9785
vn 0.0975 0.0655 -0.9931
vn -0.0976 0.0655 -0.9931
vn -0.1985 0.0562 -0.9785
vn -0.3850 0.0320 -0.9224
vn -0.5576 0.0222 -0.8298
vn -0.7091 0.0200 -0.7048
vn -0.8333 0.0188 -0.5525
vn -0.9252 0.0141 -0.3793
vn -0.8500 0.0985 -0.5174
vn -0.8851 0.2773 -0.3738
vn -0.9075 0.3974 -0.1358
vn -0.9398 0.3414 -0.0132
vn -0.9396 0.3422 -0.0000
vn -0.8661 0.4999 -0.0000
vn -0.7659 0.6430 -0.0000
vn -0.6430 0.7659 -0.0000
vn -0.5003 0.8659 -0.0000
vn -0.3416 0.9398 -0.0000
vn -0.1735 0.9848 -0.0000
vn -0.0874 0.9962 -0.0000
vn 0.0873 0.9962 -0.0000
vn 0.1735 0.9848 -0.0000
vn 0.3418 0.9398 -0.0000
vn 0.5002 0.8659 -0.0000
vn 0.6428 0.7661 -0.0000
vn 0.7659 0.6430 -0.0000
vn 0.8661 0.4999 -0.0000
vn 0.9396 0.3422 -0.0000
vn 0.9398 0.3414 -0.0132
vn 0.9074 0.3977 -0.1357
vn 0.8852 0.2774 -0.3736
vn 0.8501 0.0980 -0.5174
vn 0.9253 0.0138 -0.3790
vn 0.9806 -0.0005 -0.1959
vn 0.9232 0.0010 -0.3842
vn 0.8303 0.0011 -0.5574
vn 0.7050 0.0002 -0.7092
vn 0.5539 -0.0011 -0.8326
vn 0.3793 0.0122 -0.9252
vn 0.1920 0.0373 -0.9807
vn 0.0985 0.0371 -0.9944
vn -0.0985 0.0370 -0.9944
vn -0.1922 0.0368 -0.9807
vn -0.3793 0.0122 -0.9252
vn -0.5539 -0.0011 -0.8326
vn -0.7050 0.0002 -0.7092
vn -0.8303 0.0011 -0.5574
vn -0.9232 0.0010 -0.3842
vn -0.9806 -0.0003 -0.1959
vn -1.0000 -0.0024 -0.0020
vn -1.0000 -0.0007 0.0003
vn -0.9824 0.0085 -0.1865
vn -0.9433 0.0584 -0.3268
vn -0.9626 0.1487 -0.2264
vn -0.9702 0.2247 -0.0906
vn -0.9854 0.1699 -0.0055
vn -0.9848 0.1739 -0.0000
vn -1.0000 -0.0001 0.0009
vn -1.0000 -0.0000 -0.0000
vn -0.9849 -0.1733 -0.0000
vn -0.9848 -0.1740 -0.0000
vn -0.9398 -0.3416 -0.0017
vn -0.9397 -0.3420 -0.0000
vn -0.8662 -0.4997 -0.0025
vn -0.8662 -0.4997 -0.0000
vn -0.7656 -0.6433 -0.0021
vn -0.7659 -0.6430 -0.0000
vn -0.6424 -0.7664 -0.0007
vn -0.6427 -0.7661 -0.0000
vn -0.5001 -0.8660 0.0004
vn -0.5003 -0.8658 -0.0000
vn -0.3420 -0.9397 0.0008
vn -0.3420 -0.9397 -0.0000
vn -0.1736 -0.9848 0.0007
vn -0.1735 -0.9848 -0.0000
vn -0.0000 -1.0000 0.0008
vn -0.0000 -1.0000 -0.0000
vn 0.1735 -0.9848 -0.0000
vn 0.1735 -0.9848 0.0007
vn 0.3422 -0.9396 -0.0000
vn 0.3422 -0.9396 0.0008
vn 0.5003 -0.8659 -0.0000
vn 0.5000 -0.8660 0.0003
vn 0.6425 -0.7663 -0.0000
vn 0.6422 -0.7666 -0.0008
vn 0.7659 -0.6430 -0.0000
vn 0.7656 -0.6433 -0.0021
vn 0.8662 -0.4997 -0.0000
vn 0.8662 -0.4997 -0.0025
vn 0.9397 -0.3420 -0.0000
vn 0.9398 -0.3416 -0.0017
vn 0.9848 -0.1740 -0.0000
vn 0.9849 -0.1733 0.0001
vn 1.0000 -0.0000 -0.0000
vn 1.0000 -0.0001 0.0009
vn 0.9848 0.1739 -0.0000
vn 0.9854 0.1699 -0.0055
vn 0.9702 0.2247 -0.0904
vn 0.9626 0.1488 -0.2262
vn 0.9433 0.0586 -0.3268
vn 0.9824 0.0083 -0.1867
vn 1.0000 -0.0007 -0.0001
vn 1.0000 -0.0024 -0.0020
vn 0.9818 0.0015 0.1898
vn 0.9811 -0.0026 0.1935
vn -0.0000 1.0000 0.0008
vn -0.0000 1.0000 -0.0000
vn -0.9811 -0.0026 0.1935
vn -0.9818 0.0017 0.1898
vn -0.9862 0.0212 0.1642
vn -0.9999 0.0072 0.0119
vn -0.9897 0.0283 -0.1406
vn -0.9954 0.0569 -0.0777
vn -0.9967 0.0697 -0.0415
vn -0.9994 -0.0335 -0.0105
vn -0.9856 -0.1689 -0.0071
vn -0.9427 -0.3334 -0.0101
vn -0.8657 -0.5004 -0.0126
vn -0.7571 -0.6532 -0.0120
vn -0.6266 -0.7793 -0.0088
vn -0.4842 -0.8749 -0.0043
vn -0.3318 -0.9434 -0.0004
vn -0.1677 -0.9858 0.0023
vn -0.0000 -1.0000 0.0032
vn 0.1676 -0.9858 0.0023
vn 0.3318 -0.9434 -0.0004
vn 0.4842 -0.8749 -0.0044
vn 0.6266 -0.7793 -0.0088
vn 0.7572 -0.6531 -0.0119
vn 0.8657 -0.5004 -0.0124
vn 0.9428 -0.3331 -0.0102
vn 0.9856 -0.1688 -0.0072
vn 0.9994 -0.0340 -0.0105
vn 0.9967 0.0700 -0.0414
vn 0.9953 0.0569 -0.0779
vn 0.9896 0.0285 -0.1407
vn 0.9999 0.0072 0.0122
vn 0.9862 0.0211 0.1643
vn 0.9443 0.0690 0.3218
vn 0.9270 0.0098 0.3750
vn 0.9247 -0.0025 0.3807
vn 0.0002 1.0000 -0.0000
vn 0.0001 1.0000 0.0001
vn -0.0000 1.0000 0.0002
vn -0.0001 1.0000 0.0001
vn -0.0002 1.0000 -0.0000
vn -0.9247 -0.0025 0.3807
vn -0.9270 0.0099 0.3748
vn -0.9442 0.0691 0.3219
vn -0.9491 0.1774 0.2604
vn -0.9933 0.0700 0.0916
vn -0.9998 0.0188 0.0057
vn -0.9993 -0.0373 -0.0034
vn -0.9866 -0.1629 -0.0125
vn -0.9440 -0.3298 -0.0138
vn -0.8645 -0.5024 -0.0130
vn -0.7522 -0.6589 -0.0101
vn -0.6182 -0.7860 -0.0067
vn -0.4746 -0.8802 -0.0018
vn -0.3235 -0.9462 0.0034
vn -0.1636 -0.9865 0.0072
vn -0.0000 -1.0000 0.0079
vn 0.1636 -0.9865 0.0072
vn 0.3235 -0.9462 0.0034
vn 0.4746 -0.8802 -0.0018
vn 0.6182 -0.7860 -0.0067
vn 0.7524 -0.6586 -0.0101
vn 0.8645 -0.5025 -0.0129
vn 0.9438 -0.3301 -0.0137
vn 0.9866 -0.1628 -0.0126
vn 0.9993 -0.0374 -0.0035
vn 0.9998 0.0189 0.0056
vn 0.9933 0.0704 0.0914
vn 0.9491 0.1772 0.2603
vn 0.8522 0.2995 0.4289
vn 0.8526 0.1364 0.5045
vn 0.8381 0.0241 0.5450
vn 0.8323 -0.0015 0.5543
vn 0.7187 0.0358 0.6944
vn 0.7082 -0.0018 0.7060
vn 0.5671 0.0415 0.8226
vn 0.5569 -0.0014 0.8306
vn 0.3913 0.0347 0.9196
vn 0.3842 -0.0026 0.9232
vn 0.2032 0.0282 0.9787
vn 0.1962 -0.0045 0.9806
vn 0.0982 -0.0045 0.9952
vn 0.0935 0.0278 0.9952
vn -0.0935 0.0278 0.9952
vn -0.0983 -0.0045 0.9951
vn -0.2032 0.0282 0.9787
vn -0.1962 -0.0045 0.9806
vn -0.3842 -0.0026 0.9232
vn -0.3913 0.0347 0.9196
vn -0.5567 -0.0014 0.8307
vn -0.5669 0.0416 0.8228
vn -0.7083 -0.0018 0.7060
vn -0.7188 0.0354 0.6943
vn -0.8325 -0.0015 0.5541
vn -0.8382 0.0244 0.5449
vn -0.8526 0.1362 0.5045
vn -0.8523 0.2991 0.4291
vn -0.8075 0.4444 0.3878
vn -0.9134 0.3271 0.2424
vn -0.9724 0.1975 0.1241
vn -0.9959 0.0783 0.0451
vn -0.9996 -0.0259 0.0062
vn -0.9841 -0.1778 -0.0050
vn -0.9371 -0.3489 -0.0108
vn -0.8559 -0.5171 -0.0119
vn -0.7456 -0.6663 -0.0124
vn -0.6146 -0.7887 -0.0135
vn -0.4714 -0.8818 -0.0135
vn -0.3206 -0.9472 -0.0100
vn -0.1620 -0.9868 -0.0054
vn -0.0000 -1.0000 -0.0023
vn 0.1620 -0.9868 -0.0054
vn 0.3206 -0.9472 -0.0100
vn 0.4715 -0.8818 -0.0135
vn 0.6146 -0.7887 -0.0133
vn 0.7458 -0.6661 -0.0123
vn 0.8558 -0.5171 -0.0121
vn 0.9370 -0.3491 -0.0107
vn 0.9840 -0.1779 -0.0049
vn 0.9996 -0.0259 0.0062
vn 0.9959 0.0785 0.0452
vn 0.9724 0.1975 0.1242
vn 0.9134 0.3269 0.2425
vn 0.8075 0.4441 0.3882
vn 0.6553 0.5107 0.5567
vn 0.6890 0.3869 0.6128
vn 0.7125 0.1897 0.6755
vn 0.5439 0.2126 0.8118
vn 0.3626 0.1879 0.9128
vn 0.1849 0.1463 0.9718
vn 0.0814 0.1305 0.9881
vn -0.0814 0.1306 0.9881
vn -0.1849 0.1466 0.9718
vn -0.3625 0.1884 0.9127
vn -0.5439 0.2126 0.8118
vn -0.7124 0.1896 0.6757
vn -0.6890 0.3869 0.6129
vn -0.6552 0.5108 0.5566
vn -0.6361 0.5740 0.5157
vn -0.7726 0.5107 0.3773
vn -0.8767 0.4105 0.2507
vn -0.9459 0.2902 0.1453
vn -0.9861 0.1507 0.0696
vn -0.9998 -0.0032 0.0208
vn -0.9855 -0.1697 -0.0029
vn -0.9390 -0.3438 -0.0105
vn -0.8604 -0.5094 -0.0118
vn -0.7540 -0.6567 -0.0134
vn -0.6260 -0.7797 -0.0169
vn -0.4816 -0.8761 -0.0214
vn -0.3275 -0.9446 -0.0218
vn -0.1645 -0.9862 -0.0197
vn -0.0000 -0.9999 -0.0163
vn 0.1644 -0.9862 -0.0197
vn 0.3275 -0.9446 -0.0218
vn 0.4817 -0.8761 -0.0213
vn 0.6259 -0.7797 -0.0165
vn 0.7540 -0.6567 -0.0136
vn 0.8605 -0.5093 -0.0120
vn 0.9390 -0.3439 -0.0102
vn 0.9854 -0.1701 -0.0029
vn 0.9998 -0.0032 0.0208
vn 0.9861 0.1510 0.0694
vn 0.9459 0.2903 0.1451
vn 0.8765 0.4105 0.2515
vn 0.7725 0.5102 0.3780
vn 0.6363 0.5738 0.5156
vn 0.4992 0.5854 0.6389
vn 0.4869 0.5187 0.7027
vn 0.5056 0.4031 0.7628
vn 0.3328 0.3487 0.8762
vn 0.1627 0.2664 0.9500
vn 0.0778 0.2254 0.9712
vn -0.0778 0.2254 0.9712
vn -0.1629 0.2663 0.9500
vn -0.3330 0.3484 0.8762
vn -0.5057 0.4030 0.7628
vn -0.4869 0.5187 0.7027
vn -0.4992 0.5854 0.6389
vn -0.4214 0.4643 0.7790
vn -0.5617 0.4322 0.7055
vn -0.5661 0.4249 0.7064
vn -0.6899 0.3633 0.6262
vn -0.6923 0.3651 0.6225
vn -0.7933 0.2701 0.5456
vn -0.7975 0.2675 0.5407
vn -0.8706 0.1536 0.4675
vn -0.8750 0.1443 0.4620
vn -0.9128 0.0122 0.4083
vn -0.9150 -0.0011 0.4034
vn -0.9236 -0.1395 0.3570
vn -0.9228 -0.1542 0.3531
vn -0.8986 -0.2954 0.3244
vn -0.8949 -0.3096 0.3215
vn -0.8464 -0.4457 0.2915
vn -0.8421 -0.4550 0.2896
vn -0.7704 -0.5812 0.2621
vn -0.7647 -0.5892 0.2608
vn -0.6722 -0.7008 0.2387
vn -0.6661 -0.7068 0.2381
vn -0.5563 -0.8009 0.2216
vn -0.5508 -0.8048 0.2211
vn -0.4287 -0.8808 0.2011
vn -0.4238 -0.8832 0.2007
vn -0.2905 -0.9378 0.1903
vn -0.2866 -0.9389 0.1905
vn -0.1462 -0.9712 0.1883
vn -0.1437 -0.9715 0.1883
vn 0.0003 -0.9834 0.1813
vn 0.1448 -0.9712 0.1892
vn 0.1430 -0.9715 0.1889
vn 0.2904 -0.9377 0.1909
vn 0.2868 -0.9390 0.1899
vn 0.4288 -0.8806 0.2015
vn 0.4242 -0.8832 0.2003
vn 0.5569 -0.8012 0.2191
vn 0.5515 -0.8054 0.2173
vn 0.6717 -0.7010 0.2395
vn 0.6665 -0.7069 0.2370
vn 0.7700 -0.5814 0.2630
vn 0.7654 -0.5889 0.2597
vn 0.8483 -0.4444 0.2879
vn 0.8446 -0.4535 0.2845
vn 0.8983 -0.2959 0.3247
vn 0.8951 -0.3097 0.3208
vn 0.9238 -0.1380 0.3571
vn 0.9228 -0.1531 0.3536
vn 0.9132 0.0139 0.4073
vn 0.9143 -0.0013 0.4051
vn 0.8692 0.1540 0.4698
vn 0.8719 0.1413 0.4688
vn 0.7959 0.2753 0.5391
vn 0.7975 0.2685 0.5403
vn 0.6926 0.3688 0.6199
vn 0.6916 0.3651 0.6232
vn 0.5670 0.4258 0.7051
vn 0.5592 0.4266 0.7109
vn 0.4272 0.4615 0.7775
vn 0.4187 0.4606 0.7827
vn 0.2814 0.4567 0.8439
vn 0.2722 0.4532 0.8489
vn 0.3302 0.5388 0.7751
vn 0.3227 0.4715 0.8207
vn 0.1533 0.3604 0.9201
vn 0.0748 0.2881 0.9547
vn -0.0749 0.2881 0.9547
vn -0.1532 0.3600 0.9203
vn -0.3226 0.4710 0.8210
vn -0.3302 0.5387 0.7751
vn -0.2746 0.4585 0.8452
vn -0.4261 0.4574 0.7805
vn -0.3632 0.3214 0.8745
vn -0.4663 0.2541 0.8473
vn -0.3637 0.3208 0.8745
vn -0.4668 0.2535 0.8473
vn -0.5552 0.1713 0.8139
vn -0.5556 0.1705 0.8138
vn -0.6272 0.0756 0.7752
vn -0.6274 0.0747 0.7751
vn -0.6799 -0.0309 0.7327
vn -0.6799 -0.0319 0.7327
vn -0.7118 -0.1443 0.6874
vn -0.7116 -0.1453 0.6874
vn -0.7223 -0.2605 0.6407
vn -0.7219 -0.2615 0.6406
vn -0.7105 -0.3768 0.5943
vn -0.7099 -0.3777 0.5945
vn -0.6767 -0.4896 0.5499
vn -0.6759 -0.4905 0.5501
vn -0.6227 -0.5950 0.5081
vn -0.6220 -0.5957 0.5083
vn -0.5499 -0.6902 0.4703
vn -0.5492 -0.6906 0.4705
vn -0.4604 -0.7721 0.4380
vn -0.4599 -0.7725 0.4378
vn -0.3570 -0.8384 0.4119
vn -0.3574 -0.8380 0.4123
vn -0.2432 -0.8871 0.3924
vn -0.2436 -0.8869 0.3925
vn -0.1227 -0.9167 0.3804
vn -0.1231 -0.9166 0.3803
vn -0.0000 -0.9264 0.3766
vn -0.0000 -0.9263 0.3768
vn 0.1227 -0.9167 0.3802
vn 0.1230 -0.9167 0.3801
vn 0.2436 -0.8869 0.3925
vn 0.2432 -0.8871 0.3924
vn 0.3574 -0.8380 0.4123
vn 0.3570 -0.8384 0.4119
vn 0.4604 -0.7721 0.4380
vn 0.4599 -0.7725 0.4378
vn 0.5492 -0.6906 0.4705
vn 0.5499 -0.6902 0.4703
vn 0.6220 -0.5957 0.5083
vn 0.6227 -0.5951 0.5081
vn 0.6759 -0.4905 0.5501
vn 0.6767 -0.4896 0.5499
vn 0.7099 -0.3777 0.5945
vn 0.7105 -0.3768 0.5943
vn 0.7219 -0.2615 0.6407
vn 0.7223 -0.2605 0.6407
vn 0.7116 -0.1453 0.6874
vn 0.7119 -0.1441 0.6874
vn 0.6804 -0.0313 0.7321
vn 0.6805 -0.0302 0.7322
vn 0.6276 0.0746 0.7749
vn 0.6274 0.0754 0.7751
vn 0.5556 0.1705 0.8138
vn 0.5552 0.1714 0.8138
vn 0.4670 0.2541 0.8470
vn 0.4665 0.2548 0.8470
vn 0.3639 0.3208 0.8744
vn 0.3634 0.3213 0.8745
vn 0.2497 0.3710 0.8944
vn 0.2491 0.3715 0.8944
vn 0.1274 0.4016 0.9069
vn 0.1268 0.4017 0.9070
vn 0.1379 0.4189 0.8975
vn 0.1315 0.4150 0.9003
vn 0.1603 0.4184 0.8940
vn 0.0717 0.3309 0.9410
vn -0.0717 0.3309 0.9409
vn -0.1603 0.4184 0.8940
vn -0.1299 0.4204 0.8980
vn -0.2800 0.4515 0.8472
vn -0.2491 0.3714 0.8944
vn -0.2497 0.3710 0.8944
vn -0.0000 -0.3746 0.9272
vn 0.0002 -0.3745 0.9272
vn -0.0003 -0.3749 0.9271
vn 0.0002 -0.3744 0.9273
vn -0.0000 -0.3747 0.9271
vn -0.0000 -0.3747 0.9272
vn -0.0000 -0.3744 0.9273
vn -0.0000 -0.3748 0.9271
vn -0.0000 -0.3745 0.9272
vn 0.0001 -0.3748 0.9271
vn -0.0001 -0.3745 0.9272
vn 0.0003 -0.3749 0.9271
vn -0.0002 -0.3746 0.9272
vn 0.0003 -0.3748 0.9271
vn -0.0005 -0.3745 0.9272
vn 0.0001 -0.3746 0.9272
vn -0.0001 -0.3746 0.9272
vn 0.0005 -0.3745 0.9272
vn -0.0003 -0.3748 0.9271
vn 0.0002 -0.3746 0.9272
vn 0.0001 -0.3745 0.9272
vn -0.0001 -0.3748 0.9271
vn -0.0002 -0.3744 0.9273
vn -0.0002 -0.3745 0.9272
vn 0.0002 -0.3747 0.9272
vn 0.0643 0.4114 0.9092
vn 0.0641 0.4112 0.9093
vn 0.0674 0.3945 0.9164
vn 0.0676 0.3916 0.9176
vn -0.0626 0.3918 0.9179
vn -0.0633 0.3948 0.9166
vn -0.1347 0.4155 0.8996
vn -0.1269 0.4015 0.9070
vn -0.1274 0.4015 0.9070
vn -0.0002 -0.3747 0.9272
vn -0.0643 0.4114 0.9092
vn -0.0642 0.4112 0.9093
vn 0.0006 1.0000 0.0002
vn -0.0000 1.0000 0.0001
vn -0.0006 1.0000 0.0002
vn -0.7058 -0.0000 -0.7084
vn -0.5514 -0.0000 -0.8342
vn -0.3741 -0.0000 -0.9274
vn -0.1907 -0.0000 -0.9817
vn -0.0996 -0.0000 -0.9950
vn 0.0996 -0.0000 -0.9950
vn 0.1906 -0.0000 -0.9817
vn 0.3741 -0.0000 -0.9274
vn 0.5514 -0.0000 -0.8342
vn 0.7058 -0.0000 -0.7084
vn 0.8305 -0.0000 -0.5571
vn 0.9231 -0.0000 -0.3845
vn 0.9804 -0.0000 -0.1969
vn 1.0000 -0.0000 -0.0016
vn 0.9811 -0.0000 0.1934
vn 0.9247 -0.0000 0.3808
vn 0.8325 -0.0000 0.5540
vn 0.7079 -0.0000 0.7063
vn 0.5570 -0.0000 0.8305
vn 0.3849 -0.0000 0.9230
vn 0.3848 -0.0000 0.9230
vn 0.1963 -0.0000 0.9805
vn -0.0000 -0.0000 1.0000
vn -0.1964 -0.0000 0.9805
vn -0.3849 -0.0000 0.9230
vn -0.3848 -0.0000 0.9230
vn -0.5570 -0.0000 0.8305
vn -0.7079 -0.0000 0.7063
vn -0.8325 -0.0000 0.5541
vn -0.9247 -0.0000 0.3808
vn -0.9811 -0.0000 0.1934
vn -1.0000 -0.0000 -0.0016
vn -0.9804 -0.0000 -0.1969
vn -0.9231 -0.0000 -0.3845
vn -0.8305 -0.0000 -0.5571
vn 0.0001 -1.0000 -0.0006
vn -0.0001 -1.0000 -0.0001
vn -0.0000 -1.0000 -0.0001
vn 0.0001 -1.0000 -0.0001
vn -0.0001 -1.0000 -0.0006
vt 0.294339 0.044190
vt 0.297020 0.033912
vt 0.301824 0.036146
vt 0.304282 0.026427
vt 0.308415 0.028438
vt 0.310426 0.018942
vt 0.314225 0.020841
vt 0.315677 0.337330
vt 0.315677 0.011345
vt 0.318917 0.012798
vt 0.318917 0.335877
vt 0.314225 0.327946
vt 0.310426 0.329733
vt 0.308415 0.320349
vt 0.304282 0.322248
vt 0.301824 0.312641
vt 0.294339 0.304485
vt 0.297020 0.314763
vt 0.292887 0.317333
vt 0.300931 0.324371
vt 0.307745 0.331520
vt 0.313666 0.338670
vt 0.313666 0.010005
vt 0.307745 0.017154
vt 0.300931 0.024304
vt 0.292887 0.031342
vt 0.283056 0.038380
vt 0.286184 0.043407
vt 0.286184 0.052903
vt 0.304841 0.064857
vt 0.305958 0.056031
vt 0.307745 0.047206
vt 0.309979 0.038492
vt 0.312884 0.029890
vt 0.316236 0.021400
vt 0.319810 0.013021
vt 0.319810 0.335766
vt 0.316236 0.327275
vt 0.312884 0.318785
vt 0.309979 0.310183
vt 0.307745 0.301469
vt 0.305958 0.292644
vt 0.304841 0.283818
vt 0.286184 0.295772
vt 0.286184 0.305268
vt 0.283056 0.310295
vt 0.269762 0.312641
vt 0.279146 0.316998
vt 0.288195 0.322136
vt 0.296239 0.328281
vt 0.303277 0.335319
vt 0.310203 0.342580
vt 0.310203 0.006095
vt 0.303277 0.013356
vt 0.296239 0.020394
vt 0.288195 0.026539
vt 0.279146 0.031677
vt 0.269762 0.036146
vt 0.260043 0.040056
vt 0.272332 0.045530
vt 0.275348 0.052680
vt 0.277694 0.062064
vt 0.304170 0.073682
vt 0.320816 0.074799
vt 0.321486 0.066756
vt 0.322491 0.058712
vt 0.324055 0.050781
vt 0.326178 0.042961
vt 0.328859 0.035029
vt 0.331987 0.026874
vt 0.335227 0.330180
vt 0.335227 0.018495
vt 0.331987 0.321801
vt 0.328859 0.313646
vt 0.326178 0.305826
vt 0.324055 0.297894
vt 0.322491 0.289963
vt 0.321486 0.282031
vt 0.320816 0.273876
vt 0.304170 0.274993
vt 0.277694 0.286723
vt 0.275348 0.296107
vt 0.272332 0.303145
vt 0.260043 0.308619
vt 0.115707 0.749670
vt 0.115707 0.749670
vt 0.249095 0.321355
vt 0.119617 0.740062
vt 0.119617 0.740062
vt 0.258590 0.322136
vt 0.125426 0.731460
vt 0.125426 0.731460
vt 0.267863 0.323142
vt 0.132799 0.724199
vt 0.132799 0.724199
vt 0.276912 0.324929
vt 0.141401 0.718390
vt 0.141401 0.718390
vt 0.285402 0.327834
vt 0.151009 0.714591
vt 0.151009 0.714591
vt 0.293446 0.332191
vt 0.161175 0.712692
vt 0.161175 0.712692
vt 0.300707 0.338223
vt 0.171453 0.712692
vt 0.171453 0.712692
vt 0.307857 0.003413
vt 0.307857 0.345262
vt 0.181507 0.714703
vt 0.181507 0.714703
vt 0.300707 0.010451
vt 0.191115 0.718613
vt 0.191115 0.718613
vt 0.293446 0.016484
vt 0.199717 0.724311
vt 0.199717 0.724311
vt 0.285402 0.020841
vt 0.207090 0.731572
vt 0.207090 0.731572
vt 0.276912 0.023746
vt 0.212787 0.740174
vt 0.212787 0.740174
vt 0.267863 0.025533
vt 0.216809 0.749782
vt 0.216809 0.749782
vt 0.258590 0.026650
vt 0.218820 0.759948
vt 0.218820 0.759948
vt 0.249095 0.027321
vt 0.218820 0.770337
vt 0.218820 0.770337
vt 0.239376 0.027767
vt 0.240269 0.048770
vt 0.250212 0.043854
vt 0.260490 0.053238
vt 0.263283 0.062846
vt 0.268757 0.071560
vt 0.303835 0.082396
vt 0.320592 0.083066
vt 0.303835 0.091333
vt 0.320481 0.091668
vt 0.303947 0.100494
vt 0.320592 0.100606
vt 0.303947 0.109654
vt 0.320704 0.109766
vt 0.304059 0.118927
vt 0.320704 0.118927
vt 0.304059 0.128199
vt 0.320704 0.128199
vt 0.304059 0.137471
vt 0.320704 0.137360
vt 0.304059 0.146632
vt 0.320816 0.146632
vt 0.304059 0.155905
vt 0.320816 0.155905
vt 0.304059 0.165065
vt 0.320816 0.165065
vt 0.304059 0.174338
vt 0.320816 0.174338
vt 0.320816 0.183610
vt 0.304059 0.183610
vt 0.320816 0.192882
vt 0.304059 0.192770
vt 0.320816 0.202043
vt 0.304059 0.202043
vt 0.320704 0.211315
vt 0.304059 0.211315
vt 0.320704 0.220476
vt 0.304059 0.220476
vt 0.320704 0.229748
vt 0.304059 0.229748
vt 0.320704 0.239020
vt 0.303947 0.239020
vt 0.320592 0.248181
vt 0.303947 0.248181
vt 0.320481 0.257007
vt 0.303835 0.257454
vt 0.320592 0.265609
vt 0.303835 0.266279
vt 0.268757 0.277115
vt 0.263283 0.285829
vt 0.260490 0.295437
vt 0.250212 0.304932
vt 0.240269 0.300017
vt 0.113584 0.759724
vt 0.113584 0.759724
vt 0.239376 0.321019
vt 0.229991 0.300687
vt 0.229656 0.320796
vt 0.113584 0.770114
vt 0.113584 0.770114
vt 0.166202 0.765087
vt 0.166202 0.765087
vt 0.166202 0.765087
vt 0.166202 0.765087
vt 0.166202 0.765087
vt 0.166202 0.765087
vt 0.166202 0.765087
vt 0.166202 0.765087
vt 0.166202 0.765087
vt 0.166202 0.765087
vt 0.166202 0.765087
vt 0.166202 0.765087
vt 0.166202 0.765087
vt 0.166202 0.765087
vt 0.166202 0.765087
vt 0.166202 0.765087
vt 0.166202 0.765087
vt 0.166202 0.765087
vt 0.166202 0.765087
vt 0.166202 0.765087
vt 0.166202 0.765087
vt 0.166202 0.765087
vt 0.166202 0.765087
vt 0.166202 0.765087
vt 0.166202 0.765087
vt 0.166202 0.765087
vt 0.166202 0.765087
vt 0.166202 0.765087
vt 0.166202 0.765087
vt 0.166202 0.765087
vt 0.166202 0.765087
vt 0.166202 0.765087
vt 0.216809 0.780503
vt 0.216809 0.780503
vt 0.229656 0.027879
vt 0.229991 0.047988
vt 0.230215 0.061617
vt 0.240939 0.063293
vt 0.250882 0.059494
vt 0.252670 0.071783
vt 0.259708 0.081391
vt 0.259819 0.091222
vt 0.259819 0.100606
vt 0.259931 0.109990
vt 0.259931 0.119374
vt 0.259931 0.128646
vt 0.259931 0.137918
vt 0.259931 0.147079
vt 0.259931 0.156351
vt 0.259931 0.165400
vt 0.259931 0.174338
vt 0.259931 0.183275
vt 0.259931 0.192435
vt 0.259931 0.201596
vt 0.259931 0.210756
vt 0.259931 0.220029
vt 0.259931 0.229301
vt 0.259931 0.238685
vt 0.259819 0.248069
vt 0.259819 0.257454
vt 0.259708 0.267396
vt 0.252670 0.276892
vt 0.250882 0.289181
vt 0.240939 0.285382
vt 0.230215 0.287058
vt 0.219602 0.292309
vt 0.219602 0.303368
vt 0.115595 0.780280
vt 0.219602 0.320908
vt 0.115595 0.780280
vt 0.119505 0.789887
vt 0.209659 0.320908
vt 0.119505 0.789887
vt 0.125203 0.798489
vt 0.199940 0.321578
vt 0.125203 0.798489
vt 0.132576 0.805862
vt 0.190221 0.322695
vt 0.132576 0.805862
vt 0.141178 0.811672
vt 0.180390 0.324371
vt 0.141178 0.811672
vt 0.150674 0.815693
vt 0.170559 0.326493
vt 0.150674 0.815693
vt 0.160952 0.817704
vt 0.160393 0.328839
vt 0.160393 0.019836
vt 0.160952 0.817704
vt 0.171341 0.817704
vt 0.170559 0.022182
vt 0.171341 0.817704
vt 0.181507 0.815693
vt 0.180390 0.024304
vt 0.181507 0.815693
vt 0.191115 0.811672
vt 0.190221 0.025980
vt 0.191115 0.811672
vt 0.199717 0.805974
vt 0.199940 0.027209
vt 0.199717 0.805974
vt 0.207090 0.798601
vt 0.209659 0.027767
vt 0.207090 0.798601
vt 0.212787 0.789999
vt 0.212787 0.789999
vt 0.219602 0.027767
vt 0.219602 0.045307
vt 0.219602 0.056366
vt 0.215804 0.062958
vt 0.229991 0.071783
vt 0.241610 0.081167
vt 0.241721 0.090998
vt 0.241721 0.100606
vt 0.241721 0.109990
vt 0.241833 0.119374
vt 0.241833 0.128646
vt 0.241833 0.138030
vt 0.241833 0.147191
vt 0.241833 0.156351
vt 0.241833 0.165400
vt 0.241833 0.174338
vt 0.241833 0.183275
vt 0.241833 0.192324
vt 0.241833 0.201484
vt 0.241833 0.210756
vt 0.241833 0.220029
vt 0.241833 0.229301
vt 0.241721 0.238685
vt 0.241721 0.248069
vt 0.241721 0.257677
vt 0.241610 0.267508
vt 0.229991 0.276892
vt 0.215804 0.285717
vt 0.204185 0.292755
vt 0.207202 0.298118
vt 0.209324 0.306385
vt 0.199046 0.309513
vt 0.188880 0.312752
vt 0.178938 0.315992
vt 0.168995 0.319120
vt 0.158829 0.321801
vt 0.158829 0.026874
vt 0.168995 0.029555
vt 0.178938 0.032683
vt 0.188880 0.035923
vt 0.199046 0.039162
vt 0.209324 0.042290
vt 0.207202 0.050669
vt 0.204185 0.055920
vt 0.197594 0.059941
vt 0.205638 0.067203
vt 0.214798 0.075581
vt 0.222395 0.084183
vt 0.224406 0.093121
vt 0.226081 0.102169
vt 0.227757 0.111107
vt 0.229321 0.120044
vt 0.230774 0.129093
vt 0.231891 0.138142
vt 0.232896 0.147191
vt 0.233678 0.156351
vt 0.234125 0.165400
vt 0.234237 0.174338
vt 0.234125 0.183275
vt 0.233678 0.192435
vt 0.232896 0.201484
vt 0.231891 0.210533
vt 0.230774 0.219582
vt 0.229321 0.228631
vt 0.227757 0.237568
vt 0.226081 0.246617
vt 0.224406 0.255554
vt 0.222395 0.264491
vt 0.214798 0.273094
vt 0.205638 0.281472
vt 0.197594 0.288734
vt 0.189104 0.295772
vt 0.192344 0.299570
vt 0.195583 0.303368
vt 0.185752 0.307390
vt 0.176257 0.311188
vt 0.166873 0.314428
vt 0.157712 0.317109
vt 0.157712 0.031566
vt 0.166873 0.034247
vt 0.176257 0.037598
vt 0.185752 0.041285
vt 0.195583 0.045307
vt 0.192344 0.049217
vt 0.189104 0.052903
vt 0.186423 0.056031
vt 0.186423 0.056031
vt 0.191785 0.063516
vt 0.191785 0.063516
vt 0.196254 0.071225
vt 0.196254 0.071225
vt 0.200387 0.079268
vt 0.200387 0.079268
vt 0.204185 0.087311
vt 0.204185 0.087311
vt 0.207760 0.095467
vt 0.207760 0.095467
vt 0.211223 0.103734
vt 0.211223 0.103734
vt 0.214463 0.112112
vt 0.214463 0.112112
vt 0.217591 0.120714
vt 0.217591 0.120714
vt 0.220384 0.129428
vt 0.220384 0.129428
vt 0.222730 0.138253
vt 0.222730 0.138253
vt 0.224741 0.147191
vt 0.224741 0.147191
vt 0.226193 0.156240
vt 0.226193 0.156240
vt 0.227087 0.165289
vt 0.227087 0.165289
vt 0.227310 0.174338
vt 0.227310 0.174338
vt 0.227087 0.183386
vt 0.227087 0.183386
vt 0.226193 0.192435
vt 0.226193 0.192435
vt 0.224741 0.201596
vt 0.224741 0.201596
vt 0.222730 0.210533
vt 0.222730 0.210533
vt 0.220384 0.219359
vt 0.220384 0.219359
vt 0.217591 0.227961
vt 0.217591 0.227961
vt 0.214463 0.236563
vt 0.214463 0.236563
vt 0.211223 0.244941
vt 0.211223 0.244941
vt 0.207760 0.253208
vt 0.207760 0.253208
vt 0.204185 0.261364
vt 0.204185 0.261364
vt 0.200387 0.269407
vt 0.200387 0.269407
vt 0.196254 0.277451
vt 0.196254 0.277451
vt 0.191785 0.285271
vt 0.191785 0.285271
vt 0.186423 0.292644
vt 0.186423 0.292644
vt 0.180278 0.299347
vt 0.180278 0.299347
vt 0.181619 0.301469
vt 0.183406 0.304262
vt 0.174581 0.308396
vt 0.165755 0.311859
vt 0.157042 0.314652
vt 0.157042 0.034023
vt 0.165755 0.036816
vt 0.174581 0.040279
vt 0.183406 0.044413
vt 0.181619 0.047206
vt 0.180278 0.049328
vt 0.180278 0.049328
vt 0.185529 0.056925
vt 0.185529 0.056925
vt 0.190668 0.064186
vt 0.190668 0.064186
vt 0.195136 0.071895
vt 0.195136 0.071895
vt 0.199158 0.079715
vt 0.199158 0.079715
vt 0.202956 0.087758
vt 0.202956 0.087758
vt 0.206531 0.095914
vt 0.206531 0.095914
vt 0.209994 0.104180
vt 0.209994 0.104180
vt 0.213234 0.112559
vt 0.213234 0.112559
vt 0.216362 0.121049
vt 0.216362 0.121049
vt 0.219155 0.129651
vt 0.219155 0.129651
vt 0.221389 0.138477
vt 0.221389 0.138477
vt 0.223400 0.147302
vt 0.223400 0.147302
vt 0.224741 0.156351
vt 0.224741 0.156351
vt 0.225635 0.165400
vt 0.225635 0.165400
vt 0.225970 0.174338
vt 0.225970 0.174338
vt 0.225635 0.183275
vt 0.225635 0.183275
vt 0.224741 0.192324
vt 0.224741 0.192324
vt 0.223400 0.201373
vt 0.223400 0.201373
vt 0.221389 0.210310
vt 0.221389 0.210310
vt 0.219155 0.219023
vt 0.219155 0.219023
vt 0.216362 0.227626
vt 0.216362 0.227626
vt 0.213234 0.236228
vt 0.213234 0.236228
vt 0.209994 0.244494
vt 0.209994 0.244494
vt 0.206531 0.252761
vt 0.206531 0.252761
vt 0.202956 0.260917
vt 0.202956 0.260917
vt 0.199158 0.268960
vt 0.199158 0.268960
vt 0.195136 0.276892
vt 0.195136 0.276892
vt 0.190668 0.284488
vt 0.190668 0.284488
vt 0.185529 0.291750
vt 0.185529 0.291750
vt 0.179384 0.298341
vt 0.179384 0.298341
vt 0.172347 0.303927
vt 0.172347 0.303927
vt 0.173129 0.305044
vt 0.173129 0.305044
vt 0.173687 0.306385
vt 0.165309 0.310406
vt 0.156595 0.313423
vt 0.156595 0.035252
vt 0.165309 0.038269
vt 0.173687 0.042290
vt 0.173129 0.043631
vt 0.173129 0.043631
vt 0.179384 0.050445
vt 0.179384 0.050445
vt 0.888328 0.825413
vt 0.176145 0.053909
vt 0.895701 0.829658
vt 0.181842 0.060053
vt 0.902292 0.835244
vt 0.902292 0.835244
vt 0.186646 0.066868
vt 0.907655 0.841723
vt 0.191003 0.074241
vt 0.912012 0.849096
vt 0.194913 0.081949
vt 0.914805 0.857140
vt 0.198600 0.089769
vt 0.916369 0.865518
vt 0.202174 0.097813
vt 0.916257 0.874120
vt 0.205638 0.105968
vt 0.914805 0.882499
vt 0.208877 0.114235
vt 0.911900 0.890543
vt 0.211894 0.122613
vt 0.907543 0.897916
vt 0.214575 0.130992
vt 0.902069 0.904395
vt 0.216921 0.139594
vt 0.895590 0.909869
vt 0.218708 0.148196
vt 0.888105 0.914114
vt 0.220161 0.156910
vt 0.880173 0.917019
vt 0.220942 0.165735
vt 0.871906 0.918471
vt 0.221278 0.174338
vt 0.863527 0.918471
vt 0.220942 0.182939
vt 0.855149 0.917019
vt 0.220161 0.191765
vt 0.847105 0.914114
vt 0.218708 0.200479
vt 0.839620 0.909869
vt 0.216921 0.209081
vt 0.833141 0.904507
vt 0.214575 0.217683
vt 0.827555 0.897916
vt 0.211894 0.226062
vt 0.823310 0.890543
vt 0.208877 0.234440
vt 0.820294 0.882611
vt 0.205638 0.242707
vt 0.818841 0.874232
vt 0.202174 0.250862
vt 0.818841 0.865630
vt 0.198600 0.258906
vt 0.820182 0.857251
vt 0.194913 0.266838
vt 0.823087 0.849208
vt 0.191003 0.274434
vt 0.827332 0.841835
vt 0.186646 0.281807
vt 0.832806 0.835244
vt 0.181842 0.288622
vt 0.839285 0.829769
vt 0.176145 0.294766
vt 0.846658 0.825413
vt 0.169665 0.299905
vt 0.854702 0.822508
vt 0.162404 0.304039
vt 0.164527 0.308284
vt 0.164527 0.308284
vt 0.165085 0.309513
vt 0.165085 0.309513
vt 0.156371 0.312864
vt 0.156371 0.035811
vt 0.156371 0.035811
vt 0.156371 0.312864
vt 0.165085 0.039162
vt 0.165085 0.039162
vt 0.172347 0.044860
vt 0.172347 0.044860
vt 0.169665 0.048770
vt 0.880285 0.822508
vt 0.867549 0.869763
vt 0.867549 0.869763
vt 0.863192 0.820944
vt 0.154360 0.041508
vt 0.154360 0.307167
vt 0.155924 0.311635
vt 0.155924 0.037040
vt 0.155924 0.037040
vt 0.155924 0.311635
vt 0.164527 0.040391
vt 0.164527 0.040391
vt 0.871906 0.820944
vt 0.162404 0.044748
vt 0.207113 0.384845
vt 0.105043 0.749599
vt 0.217484 0.384845
vt 0.107140 0.759800
vt 0.054547 0.764901
vt 0.054547 0.764901
vt 0.227799 0.384845
vt 0.107140 0.770115
vt 0.238171 0.384845
vt 0.105157 0.780316
vt 0.248542 0.384845
vt 0.101246 0.789894
vt 0.258913 0.384845
vt 0.095522 0.798508
vt 0.269285 0.384845
vt 0.088211 0.805876
vt 0.279599 0.384845
vt 0.079597 0.811657
vt 0.289971 0.384845
vt 0.070075 0.815624
vt 0.070075 0.815624
vt 0.300398 0.384845
vt 0.059817 0.817721
vt 0.310827 0.384845
vt 0.049333 0.817721
vt 0.049333 0.817721
vt 0.321255 0.384845
vt 0.039188 0.815681
vt 0.331626 0.384845
vt 0.029610 0.811713
vt 0.341940 0.384845
vt 0.020996 0.805989
vt 0.352312 0.384845
vt 0.013685 0.798622
vt 0.362683 0.384845
vt 0.007961 0.790007
vt 0.373055 0.384845
vt 0.003993 0.780486
vt 0.383369 0.384845
vt 0.001953 0.770285
vt 0.393741 0.384845
vt 0.001953 0.759913
vt 0.404112 0.384845
vt 0.003993 0.749769
vt 0.414483 0.384845
vt 0.007961 0.740191
vt 0.424855 0.384845
vt 0.013685 0.731576
vt 0.435169 0.384845
vt 0.021052 0.724265
vt 0.445541 0.384845
vt 0.029667 0.718598
vt 0.455912 0.384845
vt 0.039245 0.714688
vt 0.134797 0.384845
vt 0.466170 0.384845
vt 0.049276 0.712704
vt 0.145055 0.384845
vt 0.059534 0.712704
vt 0.155313 0.384845
vt 0.069679 0.714574
vt 0.165684 0.384845
vt 0.079313 0.718428
vt 0.087928 0.724152
vt 0.176056 0.384845
vt 0.244461 0.724152
vt 0.176056 0.370733
vt 0.253076 0.718428
vt 0.165684 0.370733
vt 0.262654 0.714574
vt 0.155313 0.370733
vt 0.272855 0.712704
vt 0.145055 0.370733
vt 0.283056 0.712704
vt 0.466170 0.370733
vt 0.134797 0.370733
vt 0.293088 0.714688
vt 0.455912 0.370733
vt 0.302666 0.718598
vt 0.445541 0.370733
vt 0.311337 0.724265
vt 0.435169 0.370733
vt 0.318648 0.731576
vt 0.424855 0.370733
vt 0.324428 0.740191
vt 0.414483 0.370733
vt 0.328396 0.749769
vt 0.404112 0.370733
vt 0.330436 0.759913
vt 0.393741 0.370733
vt 0.330436 0.770285
vt 0.383369 0.370733
vt 0.328396 0.780486
vt 0.373055 0.370733
vt 0.324428 0.790007
vt 0.324428 0.790007
vt 0.362683 0.370733
vt 0.318704 0.798622
vt 0.318704 0.798622
vt 0.352312 0.370733
vt 0.311337 0.805989
vt 0.341940 0.370733
vt 0.302722 0.811713
vt 0.331626 0.370733
vt 0.293201 0.815681
vt 0.293201 0.815681
vt 0.321255 0.370733
vt 0.283000 0.817721
vt 0.310827 0.370733
vt 0.272572 0.817721
vt 0.300398 0.370733
vt 0.262314 0.815624
vt 0.289971 0.370733
vt 0.252736 0.811657
vt 0.252736 0.811657
vt 0.279599 0.370733
vt 0.244178 0.805876
vt 0.269285 0.370733
vt 0.236867 0.798508
vt 0.258913 0.370733
vt 0.231143 0.789894
vt 0.248542 0.370733
vt 0.227176 0.780316
vt 0.227176 0.780316
vt 0.238171 0.370733
vt 0.225192 0.770115
vt 0.227799 0.370733
vt 0.225249 0.759800
vt 0.217484 0.370733
vt 0.227289 0.749599
vt 0.207113 0.370733
vt 0.196742 0.384845
vt 0.101076 0.740077
vt 0.095295 0.731463
vt 0.186370 0.384845
vt 0.186370 0.370733
vt 0.237094 0.731463
vt 0.277842 0.765071
vt 0.277842 0.765071
vt 0.277842 0.765071
vt 0.277842 0.765071
vt 0.277842 0.765071
vt 0.231313 0.740077
vt 0.196742 0.370733
s 1
usemtl Metal_DarkGray_002_COLOR_0
f 1/1/1 2/2/2 3/3/3
f 2/2/2 4/4/4 3/3/3
f 3/3/3 4/4/4 5/5/5
f 4/4/4 6/6/6 5/5/5
f 5/5/5 6/6/6 7/7/7
f 6/6/6 9/9/8 7/7/7
f 7/7/7 9/9/8 10/10/9
f 11/11/10 8/8/11 12/12/12
f 8/8/11 13/13/13 12/12/12
f 12/12/12 13/13/13 14/14/14
f 13/13/13 15/15/15 14/14/14
f 14/14/14 15/15/15 16/16/16
f 17/17/17 16/16/16 18/18/18
f 16/16/16 15/15/15 18/18/18
f 18/18/18 15/15/15 19/19/19
f 19/19/19 15/15/15 20/20/20
f 15/15/15 13/13/13 20/20/20
f 20/20/20 13/13/13 21/21/21
f 21/21/21 13/13/13 22/22/22
f 13/13/13 8/8/11 22/22/22
f 9/9/8 6/6/6 23/23/23
f 23/23/23 6/6/6 24/24/24
f 24/24/24 6/6/6 25/25/25
f 6/6/6 4/4/4 25/25/25
f 25/25/25 4/4/4 26/26/26
f 4/4/4 2/2/2 26/26/26
f 26/26/26 2/2/2 27/27/27
f 27/27/27 2/2/2 28/28/28
f 2/2/2 1/1/1 28/28/28
f 28/28/28 1/1/1 29/29/29
f 30/30/30 29/29/29 31/31/31
f 29/29/29 1/1/1 31/31/31
f 31/31/31 1/1/1 32/32/32
f 1/1/1 3/3/3 32/32/32
f 32/32/32 3/3/3 33/33/33
f 3/3/3 5/5/5 33/33/33
f 33/33/33 5/5/5 34/34/34
f 5/5/5 7/7/7 34/34/34
f 34/34/34 7/7/7 35/35/35
f 7/7/7 10/10/9 35/35/35
f 35/35/35 10/10/9 36/36/36
f 37/37/37 11/11/10 38/38/38
f 11/11/10 12/12/12 38/38/38
f 38/38/38 12/12/12 39/39/39
f 12/12/12 14/14/14 39/39/39
f 39/39/39 14/14/14 40/40/40
f 14/14/14 16/16/16 40/40/40
f 40/40/40 16/16/16 41/41/41
f 16/16/16 17/17/17 41/41/41
f 41/41/41 17/17/17 42/42/42
f 43/43/43 42/42/42 44/44/44
f 42/42/42 17/17/17 44/44/44
f 44/44/44 17/17/17 45/45/45
f 17/17/17 18/18/18 45/45/45
f 45/45/45 18/18/18 46/46/46
f 18/18/18 19/19/19 46/46/46
f 47/47/47 46/46/46 48/48/48
f 46/46/46 19/19/19 48/48/48
f 48/48/48 19/19/19 49/49/49
f 19/19/19 20/20/20 49/49/49
f 49/49/49 20/20/20 50/50/50
f 20/20/20 21/21/21 50/50/50
f 50/50/50 21/21/21 51/51/51
f 51/51/51 21/21/21 52/52/52
f 21/21/21 22/22/22 52/52/52
f 23/23/23 24/24/24 53/53/53
f 53/53/53 24/24/24 54/54/54
f 54/54/54 24/24/24 55/55/55
f 24/24/24 25/25/25 55/55/55
f 55/55/55 25/25/25 56/56/56
f 25/25/25 26/26/26 56/56/56
f 56/56/56 26/26/26 57/57/57
f 26/26/26 27/27/27 57/57/57
f 57/57/57 27/27/27 58/58/58
f 59/59/59 58/58/58 60/60/60
f 58/58/58 27/27/27 60/60/60
f 27/27/27 28/28/28 60/60/60
f 60/60/60 28/28/28 61/61/61
f 28/28/28 29/29/29 61/61/61
f 61/61/61 29/29/29 62/62/62
f 29/29/29 30/30/30 62/62/62
f 62/62/62 30/30/30 63/63/63
f 64/64/64 63/63/63 65/65/65
f 63/63/63 30/30/30 65/65/65
f 65/65/65 30/30/30 66/66/66
f 30/30/30 31/31/31 66/66/66
f 66/66/66 31/31/31 67/67/67
f 31/31/31 32/32/32 67/67/67
f 67/67/67 32/32/32 68/68/68
f 32/32/32 33/33/33 68/68/68
f 68/68/68 33/33/33 69/69/69
f 33/33/33 34/34/34 69/69/69
f 69/69/69 34/34/34 70/70/70
f 34/34/34 35/35/35 70/70/70
f 70/70/70 35/35/35 72/72/71
f 35/35/35 36/36/36 72/72/71
f 37/37/37 38/38/38 71/71/72
f 71/71/72 38/38/38 73/73/73
f 38/38/38 39/39/39 73/73/73
f 73/73/73 39/39/39 74/74/74
f 39/39/39 40/40/40 74/74/74
f 74/74/74 40/40/40 75/75/75
f 40/40/40 41/41/41 75/75/75
f 75/75/75 41/41/41 76/76/76
f 41/41/41 42/42/42 76/76/76
f 76/76/76 42/42/42 77/77/77
f 42/42/42 43/43/43 77/77/77
f 77/77/77 43/43/43 78/78/78
f 79/79/79 78/78/78 80/80/80
f 78/78/78 43/43/43 80/80/80
f 80/80/80 43/43/43 81/81/81
f 43/43/43 44/44/44 81/81/81
f 81/81/81 44/44/44 82/82/82
f 44/44/44 45/45/45 82/82/82
f 82/82/82 45/45/45 83/83/83
f 45/45/45 46/46/46 83/83/83
f 46/46/46 47/47/47 83/83/83
f 83/83/83 47/47/47 84/84/84
f 87/87/85 84/84/84 90/90/86
f 84/84/84 47/47/47 90/90/86
f 90/90/86 47/47/47 93/93/87
f 47/47/47 48/48/48 93/93/87
f 93/93/87 48/48/48 96/96/88
f 48/48/48 49/49/49 96/96/88
f 96/96/88 49/49/49 99/99/89
f 49/49/49 50/50/50 99/99/89
f 99/99/89 50/50/50 102/102/90
f 50/50/50 51/51/51 102/102/90
f 102/102/90 51/51/51 105/105/91
f 105/105/91 51/51/51 109/109/92
f 51/51/51 52/52/52 109/109/92
f 53/53/53 54/54/54 108/108/93
f 108/108/93 54/54/54 112/112/94
f 112/112/94 54/54/54 115/115/95
f 54/54/54 55/55/55 115/115/95
f 115/115/95 55/55/55 118/118/96
f 55/55/55 56/56/56 118/118/96
f 118/118/96 56/56/56 121/121/97
f 56/56/56 57/57/57 121/121/97
f 121/121/97 57/57/57 124/124/98
f 57/57/57 58/58/58 124/124/98
f 124/124/98 58/58/58 127/127/99
f 58/58/58 59/59/59 127/127/99
f 127/127/99 59/59/59 130/130/100
f 133/133/101 130/130/100 134/134/102
f 134/134/102 130/130/100 135/135/103
f 130/130/100 59/59/59 135/135/103
f 135/135/103 59/59/59 136/136/104
f 59/59/59 60/60/60 136/136/104
f 60/60/60 61/61/61 136/136/104
f 136/136/104 61/61/61 137/137/105
f 61/61/61 62/62/62 137/137/105
f 137/137/105 62/62/62 138/138/106
f 62/62/62 63/63/63 138/138/106
f 138/138/106 63/63/63 139/139/107
f 63/63/63 64/64/64 139/139/107
f 64/64/64 140/140/108 139/139/107
f 139/139/107 140/140/108 141/141/109
f 140/140/108 142/142/110 141/141/109
f 141/141/109 142/142/110 143/143/111
f 142/142/110 144/144/112 143/143/111
f 143/143/111 144/144/112 145/145/113
f 144/144/112 146/146/114 145/145/113
f 145/145/113 146/146/114 147/147/115
f 146/146/114 148/148/116 147/147/115
f 147/147/115 148/148/116 149/149/117
f 148/148/116 150/150/118 149/149/117
f 149/149/117 150/150/118 151/151/119
f 150/150/118 152/152/120 151/151/119
f 151/151/119 152/152/120 153/153/121
f 152/152/120 154/154/122 153/153/121
f 153/153/121 154/154/122 155/155/123
f 154/154/122 156/156/124 155/155/123
f 155/155/123 156/156/124 157/157/125
f 156/156/124 158/158/126 157/157/125
f 157/157/125 158/158/126 159/159/127
f 158/158/126 160/160/128 159/159/127
f 160/160/128 161/161/129 159/159/127
f 159/159/127 161/161/129 162/162/130
f 161/161/129 163/163/131 162/162/130
f 162/162/130 163/163/131 164/164/132
f 163/163/131 165/165/133 164/164/132
f 164/164/132 165/165/133 166/166/134
f 165/165/133 167/167/135 166/166/134
f 166/166/134 167/167/135 168/168/136
f 167/167/135 169/169/137 168/168/136
f 168/168/136 169/169/137 170/170/138
f 169/169/137 171/171/139 170/170/138
f 170/170/138 171/171/139 172/172/140
f 171/171/139 173/173/141 172/172/140
f 172/172/140 173/173/141 174/174/142
f 173/173/141 175/175/143 174/174/142
f 174/174/142 175/175/143 176/176/144
f 175/175/143 177/177/145 176/176/144
f 176/176/144 177/177/145 178/178/146
f 177/177/145 179/179/147 178/178/146
f 178/178/146 179/179/147 180/180/148
f 179/179/147 79/79/79 180/180/148
f 79/79/79 80/80/80 180/180/148
f 180/180/148 80/80/80 181/181/149
f 80/80/80 81/81/81 181/181/149
f 181/181/149 81/81/81 182/182/150
f 81/81/81 82/82/82 182/182/150
f 182/182/150 82/82/82 183/183/151
f 82/82/82 83/83/83 183/183/151
f 83/83/83 84/84/84 183/183/151
f 183/183/151 84/84/84 184/184/152
f 84/84/84 87/87/85 184/184/152
f 184/184/152 87/87/85 185/185/153
f 87/87/85 188/188/154 185/185/153
f 189/189/155 185/185/153 190/190/156
f 185/185/153 188/188/154 190/190/156
s 0
f 192/192/157 186/186/157 209/209/157
f 187/187/158 85/85/158 208/208/158
f 86/86/158 88/88/158 207/207/158
f 89/89/158 91/91/158 206/206/158
f 92/92/158 94/94/158 205/205/158
f 95/95/158 97/97/158 204/204/158
f 98/98/158 100/100/158 203/203/158
f 101/101/158 103/103/158 202/202/158
f 104/104/158 106/106/158 201/201/158
f 107/107/158 110/110/158 200/200/158
f 111/111/158 113/113/158 199/199/158
f 114/114/158 116/116/158 198/198/158
f 117/117/158 119/119/158 197/197/158
f 120/120/158 122/122/158 196/196/158
f 123/123/158 125/125/158 195/195/158
f 126/126/158 128/128/158 194/194/158
f 129/129/158 131/131/158 193/193/158
f 224/224/157 132/132/157 225/225/157
s 1
f 133/133/101 134/134/102 227/227/159
f 227/227/159 134/134/102 228/228/160
f 229/229/161 228/228/160 230/230/162
f 228/228/160 134/134/102 230/230/162
f 134/134/102 135/135/103 230/230/162
f 230/230/162 135/135/103 231/231/163
f 135/135/103 136/136/104 231/231/163
f 136/136/104 137/137/105 231/231/163
f 231/231/163 137/137/105 232/232/164
f 137/137/105 138/138/106 232/232/164
f 232/232/164 138/138/106 233/233/165
f 138/138/106 139/139/107 233/233/165
f 233/233/165 139/139/107 234/234/166
f 139/139/107 141/141/109 234/234/166
f 234/234/166 141/141/109 235/235/167
f 141/141/109 143/143/111 235/235/167
f 235/235/167 143/143/111 236/236/168
f 143/143/111 145/145/113 236/236/168
f 236/236/168 145/145/113 237/237/169
f 145/145/113 147/147/115 237/237/169
f 237/237/169 147/147/115 238/238/170
f 147/147/115 149/149/117 238/238/170
f 238/238/170 149/149/117 239/239/171
f 149/149/117 151/151/119 239/239/171
f 239/239/171 151/151/119 240/240/172
f 151/151/119 153/153/121 240/240/172
f 240/240/172 153/153/121 241/241/173
f 153/153/121 155/155/123 241/241/173
f 241/241/173 155/155/123 242/242/174
f 155/155/123 157/157/125 242/242/174
f 242/242/174 157/157/125 243/243/175
f 157/157/125 159/159/127 243/243/175
f 159/159/127 162/162/130 243/243/175
f 243/243/175 162/162/130 244/244/176
f 162/162/130 164/164/132 244/244/176
f 244/244/176 164/164/132 245/245/177
f 164/164/132 166/166/134 245/245/177
f 245/245/177 166/166/134 246/246/178
f 166/166/134 168/168/136 246/246/178
f 246/246/178 168/168/136 247/247/179
f 168/168/136 170/170/138 247/247/179
f 247/247/179 170/170/138 248/248/180
f 170/170/138 172/172/140 248/248/180
f 248/248/180 172/172/140 249/249/181
f 172/172/140 174/174/142 249/249/181
f 249/249/181 174/174/142 250/250/182
f 174/174/142 176/176/144 250/250/182
f 250/250/182 176/176/144 251/251/183
f 176/176/144 178/178/146 251/251/183
f 251/251/183 178/178/146 252/252/184
f 178/178/146 180/180/148 252/252/184
f 252/252/184 180/180/148 253/253/185
f 180/180/148 181/181/149 253/253/185
f 253/253/185 181/181/149 254/254/186
f 181/181/149 182/182/150 254/254/186
f 254/254/186 182/182/150 255/255/187
f 182/182/150 183/183/151 255/255/187
f 183/183/151 184/184/152 255/255/187
f 255/255/187 184/184/152 256/256/188
f 184/184/152 185/185/153 256/256/188
f 185/185/153 189/189/155 256/256/188
f 256/256/188 189/189/155 257/257/189
f 257/257/189 189/189/155 258/258/190
f 258/258/190 189/189/155 259/259/191
f 189/189/155 190/190/156 259/259/191
f 259/259/191 190/190/156 261/261/192
s 0
f 191/191/193 210/210/193 260/260/193
f 262/262/194 211/211/194 263/263/194
f 265/265/194 212/212/194 266/266/194
f 268/268/194 213/213/194 269/269/194
f 271/271/194 214/214/194 272/272/194
f 274/274/195 215/215/195 275/275/195
f 277/277/195 216/216/195 278/278/195
f 281/281/195 217/217/195 282/282/195
f 284/284/195 218/218/195 285/285/195
f 287/287/196 219/219/196 288/288/196
f 290/290/196 220/220/196 291/291/196
f 293/293/196 221/221/196 294/294/196
f 296/296/196 222/222/196 298/298/196
f 223/223/197 226/226/197 297/297/197
s 1
f 299/299/198 227/227/159 300/300/199
f 227/227/159 228/228/160 300/300/199
f 300/300/199 228/228/160 301/301/200
f 228/228/160 229/229/161 301/301/200
f 301/301/200 229/229/161 302/302/201
f 302/302/201 229/229/161 303/303/202
f 303/303/202 229/229/161 304/304/203
f 229/229/161 230/230/162 304/304/203
f 230/230/162 231/231/163 304/304/203
f 231/231/163 232/232/164 304/304/203
f 232/232/164 233/233/165 304/304/203
f 233/233/165 234/234/166 304/304/203
f 304/304/203 234/234/166 305/305/204
f 234/234/166 235/235/167 305/305/204
f 305/305/204 235/235/167 306/306/205
f 235/235/167 236/236/168 306/306/205
f 306/306/205 236/236/168 307/307/206
f 236/236/168 237/237/169 307/307/206
f 307/307/206 237/237/169 308/308/207
f 237/237/169 238/238/170 308/308/207
f 308/308/207 238/238/170 309/309/208
f 238/238/170 239/239/171 309/309/208
f 309/309/208 239/239/171 310/310/209
f 239/239/171 240/240/172 310/310/209
f 310/310/209 240/240/172 311/311/210
f 240/240/172 241/241/173 311/311/210
f 311/311/210 241/241/173 312/312/211
f 241/241/173 242/242/174 312/312/211
f 312/312/211 242/242/174 313/313/212
f 242/242/174 243/243/175 313/313/212
f 313/313/212 243/243/175 314/314/213
f 314/314/213 243/243/175 315/315/214
f 243/243/175 244/244/176 315/315/214
f 315/315/214 244/244/176 316/316/215
f 244/244/176 245/245/177 316/316/215
f 316/316/215 245/245/177 317/317/216
f 245/245/177 246/246/178 317/317/216
f 317/317/216 246/246/178 318/318/217
f 246/246/178 247/247/179 318/318/217
f 318/318/217 247/247/179 319/319/218
f 247/247/179 248/248/180 319/319/218
f 319/319/218 248/248/180 320/320/219
f 248/248/180 249/249/181 320/320/219
f 320/320/219 249/249/181 321/321/220
f 249/249/181 250/250/182 321/321/220
f 321/321/220 250/250/182 322/322/221
f 250/250/182 251/251/183 322/322/221
f 322/322/221 251/251/183 323/323/222
f 251/251/183 252/252/184 323/323/222
f 323/323/222 252/252/184 324/324/223
f 252/252/184 253/253/185 324/324/223
f 253/253/185 254/254/186 324/324/223
f 254/254/186 255/255/187 324/324/223
f 255/255/187 256/256/188 324/324/223
f 256/256/188 257/257/189 324/324/223
f 324/324/223 257/257/189 325/325/224
f 325/325/224 257/257/189 326/326/225
f 257/257/189 258/258/190 326/326/225
f 326/326/225 258/258/190 327/327/226
f 327/327/226 258/258/190 328/328/227
f 258/258/190 259/259/191 328/328/227
f 328/328/227 259/259/191 329/329/228
f 259/259/191 261/261/192 329/329/228
f 261/261/192 264/264/229 329/329/228
f 329/329/228 264/264/229 330/330/230
f 264/264/229 267/267/231 330/330/230
f 330/330/230 267/267/231 331/331/232
f 267/267/231 270/270/233 331/331/232
f 331/331/232 270/270/233 332/332/234
f 270/270/233 273/273/235 332/332/234
f 332/332/234 273/273/235 333/333/236
f 273/273/235 276/276/237 333/333/236
f 276/276/237 279/279/238 333/333/236
f 333/333/236 279/279/238 334/334/239
f 335/335/240 280/280/241 336/336/242
f 280/280/241 283/283/243 336/336/242
f 283/283/243 286/286/244 336/336/242
f 336/336/242 286/286/244 337/337/245
f 286/286/244 289/289/246 337/337/245
f 337/337/245 289/289/246 338/338/247
f 289/289/246 292/292/248 338/338/247
f 338/338/247 292/292/248 339/339/249
f 292/292/248 295/295/250 339/339/249
f 339/339/249 295/295/250 340/340/251
f 295/295/250 299/299/198 340/340/251
f 299/299/198 300/300/199 340/340/251
f 340/340/251 300/300/199 341/341/252
f 300/300/199 301/301/200 341/341/252
f 341/341/252 301/301/200 342/342/253
f 301/301/200 302/302/201 342/342/253
f 343/343/254 342/342/253 344/344/255
f 342/342/253 302/302/201 344/344/255
f 344/344/255 302/302/201 345/345/256
f 302/302/201 303/303/202 345/345/256
f 345/345/256 303/303/202 346/346/257
f 303/303/202 304/304/203 346/346/257
f 304/304/203 305/305/204 346/346/257
f 346/346/257 305/305/204 347/347/258
f 305/305/204 306/306/205 347/347/258
f 347/347/258 306/306/205 348/348/259
f 348/348/259 306/306/205 349/349/260
f 306/306/205 307/307/206 349/349/260
f 349/349/260 307/307/206 350/350/261
f 307/307/206 308/308/207 350/350/261
f 350/350/261 308/308/207 351/351/262
f 308/308/207 309/309/208 351/351/262
f 351/351/262 309/309/208 352/352/263
f 309/309/208 310/310/209 352/352/263
f 352/352/263 310/310/209 353/353/264
f 310/310/209 311/311/210 353/353/264
f 353/353/264 311/311/210 354/354/265
f 311/311/210 312/312/211 354/354/265
f 354/354/265 312/312/211 355/355/266
f 312/312/211 313/313/212 355/355/266
f 355/355/266 313/313/212 356/356/267
f 313/313/212 314/314/213 356/356/267
f 314/314/213 315/315/214 356/356/267
f 356/356/267 315/315/214 357/357/268
f 315/315/214 316/316/215 357/357/268
f 357/357/268 316/316/215 358/358/269
f 316/316/215 317/317/216 358/358/269
f 358/358/269 317/317/216 359/359/270
f 317/317/216 318/318/217 359/359/270
f 359/359/270 318/318/217 360/360/271
f 318/318/217 319/319/218 360/360/271
f 360/360/271 319/319/218 361/361/272
f 319/319/218 320/320/219 361/361/272
f 361/361/272 320/320/219 362/362/273
f 320/320/219 321/321/220 362/362/273
f 362/362/273 321/321/220 363/363/274
f 321/321/220 322/322/221 363/363/274
f 363/363/274 322/322/221 364/364/275
f 364/364/275 322/322/221 365/365/276
f 322/322/221 323/323/222 365/365/276
f 365/365/276 323/323/222 366/366/277
f 323/323/222 324/324/223 366/366/277
f 324/324/223 325/325/224 366/366/277
f 366/366/277 325/325/224 367/367/278
f 325/325/224 326/326/225 367/367/278
f 367/367/278 326/326/225 368/368/279
f 326/326/225 327/327/226 368/368/279
f 368/368/279 327/327/226 369/369/280
f 370/370/281 369/369/280 371/371/282
f 369/369/280 327/327/226 371/371/282
f 327/327/226 328/328/227 371/371/282
f 371/371/282 328/328/227 372/372/283
f 328/328/227 329/329/228 372/372/283
f 329/329/228 330/330/230 372/372/283
f 372/372/283 330/330/230 373/373/284
f 330/330/230 331/331/232 373/373/284
f 373/373/284 331/331/232 374/374/285
f 331/331/232 332/332/234 374/374/285
f 374/374/285 332/332/234 375/375/286
f 332/332/234 333/333/236 375/375/286
f 333/333/236 334/334/239 375/375/286
f 375/375/286 334/334/239 376/376/287
f 377/377/288 335/335/240 378/378/289
f 335/335/240 336/336/242 378/378/289
f 336/336/242 337/337/245 378/378/289
f 378/378/289 337/337/245 379/379/290
f 337/337/245 338/338/247 379/379/290
f 379/379/290 338/338/247 380/380/291
f 338/338/247 339/339/249 380/380/291
f 380/380/291 339/339/249 381/381/292
f 339/339/249 340/340/251 381/381/292
f 340/340/251 341/341/252 381/381/292
f 381/381/292 341/341/252 382/382/293
f 341/341/252 342/342/253 382/382/293
f 342/342/253 343/343/254 382/382/293
f 382/382/293 343/343/254 383/383/294
f 385/385/295 383/383/294 387/387/296
f 383/383/294 343/343/254 387/387/296
f 387/387/296 343/343/254 389/389/297
f 343/343/254 344/344/255 389/389/297
f 389/389/297 344/344/255 391/391/298
f 344/344/255 345/345/256 391/391/298
f 391/391/298 345/345/256 393/393/299
f 345/345/256 346/346/257 393/393/299
f 393/393/299 346/346/257 395/395/300
f 346/346/257 347/347/258 395/395/300
f 395/395/300 347/347/258 397/397/301
f 347/347/258 348/348/259 397/397/301
f 397/397/301 348/348/259 399/399/302
f 348/348/259 349/349/260 399/399/302
f 399/399/302 349/349/260 401/401/303
f 349/349/260 350/350/261 401/401/303
f 401/401/303 350/350/261 403/403/304
f 350/350/261 351/351/262 403/403/304
f 403/403/304 351/351/262 405/405/305
f 351/351/262 352/352/263 405/405/305
f 405/405/305 352/352/263 407/407/306
f 352/352/263 353/353/264 407/407/306
f 407/407/306 353/353/264 409/409/307
f 353/353/264 354/354/265 409/409/307
f 409/409/307 354/354/265 411/411/308
f 354/354/265 355/355/266 411/411/308
f 411/411/308 355/355/266 413/413/309
f 355/355/266 356/356/267 413/413/309
f 356/356/267 357/357/268 413/413/309
f 413/413/309 357/357/268 415/415/310
f 357/357/268 358/358/269 415/415/310
f 415/415/310 358/358/269 417/417/311
f 358/358/269 359/359/270 417/417/311
f 417/417/311 359/359/270 419/419/312
f 359/359/270 360/360/271 419/419/312
f 419/419/312 360/360/271 421/421/313
f 360/360/271 361/361/272 421/421/313
f 421/421/313 361/361/272 423/423/314
f 361/361/272 362/362/273 423/423/314
f 423/423/314 362/362/273 425/425/315
f 362/362/273 363/363/274 425/425/315
f 425/425/315 363/363/274 427/427/316
f 363/363/274 364/364/275 427/427/316
f 427/427/316 364/364/275 429/429/317
f 364/364/275 365/365/276 429/429/317
f 429/429/317 365/365/276 431/431/318
f 365/365/276 366/366/277 431/431/318
f 431/431/318 366/366/277 433/433/319
f 366/366/277 367/367/278 433/433/319
f 433/433/319 367/367/278 435/435/320
f 367/367/278 368/368/279 435/435/320
f 435/435/320 368/368/279 437/437/321
f 368/368/279 369/369/280 437/437/321
f 437/437/321 369/369/280 439/439/322
f 369/369/280 370/370/281 439/439/322
f 439/439/322 370/370/281 441/441/323
f 441/441/323 370/370/281 443/443/324
f 443/443/324 370/370/281 444/444/325
f 444/444/325 370/370/281 445/445/326
f 370/370/281 371/371/282 445/445/326
f 371/371/282 372/372/283 445/445/326
f 372/372/283 373/373/284 445/445/326
f 445/445/326 373/373/284 446/446/327
f 373/373/284 374/374/285 446/446/327
f 446/446/327 374/374/285 447/447/328
f 374/374/285 375/375/286 447/447/328
f 375/375/286 376/376/287 447/447/328
f 447/447/328 376/376/287 448/448/329
f 449/449/330 377/377/288 450/450/331
f 377/377/288 378/378/289 450/450/331
f 378/378/289 379/379/290 450/450/331
f 450/450/331 379/379/290 451/451/332
f 379/379/290 380/380/291 451/451/332
f 451/451/332 380/380/291 452/452/333
f 380/380/291 381/381/292 452/452/333
f 381/381/292 382/382/293 452/452/333
f 382/382/293 383/383/294 452/452/333
f 452/452/333 383/383/294 453/453/334
f 453/453/334 383/383/294 454/454/335
f 383/383/294 385/385/295 454/454/335
f 455/455/336 384/384/337 457/457/338
f 457/457/338 384/384/337 459/459/339
f 384/384/337 386/386/340 459/459/339
f 459/459/339 386/386/340 461/461/341
f 386/386/340 388/388/342 461/461/341
f 461/461/341 388/388/342 463/463/343
f 388/388/342 390/390/344 463/463/343
f 463/463/343 390/390/344 465/465/345
f 390/390/344 392/392/346 465/465/345
f 465/465/345 392/392/346 467/467/347
f 392/392/346 394/394/348 467/467/347
f 467/467/347 394/394/348 469/469/349
f 394/394/348 396/396/350 469/469/349
f 469/469/349 396/396/350 471/471/351
f 396/396/350 398/398/352 471/471/351
f 471/471/351 398/398/352 473/473/353
f 398/398/352 400/400/354 473/473/353
f 473/473/353 400/400/354 475/475/355
f 400/400/354 402/402/356 475/475/355
f 475/475/355 402/402/356 477/477/357
f 402/402/356 404/404/358 477/477/357
f 477/477/357 404/404/358 479/479/359
f 404/404/358 406/406/360 479/479/359
f 479/479/359 406/406/360 481/481/361
f 406/406/360 408/408/362 481/481/361
f 481/481/361 408/408/362 483/483/363
f 408/408/362 410/410/364 483/483/363
f 483/483/363 410/410/364 485/485/365
f 410/410/364 412/412/365 485/485/365
f 485/485/365 412/412/365 487/487/366
f 412/412/365 414/414/367 487/487/366
f 487/487/366 414/414/367 489/489/368
f 414/414/367 416/416/369 489/489/368
f 489/489/368 416/416/369 491/491/370
f 416/416/369 418/418/371 491/491/370
f 491/491/370 418/418/371 493/493/372
f 418/418/371 420/420/373 493/493/372
f 493/493/372 420/420/373 495/495/374
f 420/420/373 422/422/375 495/495/374
f 495/495/374 422/422/375 497/497/376
f 422/422/375 424/424/377 497/497/376
f 497/497/376 424/424/377 499/499/378
f 424/424/377 426/426/379 499/499/378
f 499/499/378 426/426/379 501/501/380
f 426/426/379 428/428/381 501/501/380
f 501/501/380 428/428/381 503/503/382
f 428/428/381 430/430/383 503/503/382
f 503/503/382 430/430/383 505/505/384
f 430/430/383 432/432/385 505/505/384
f 505/505/384 432/432/385 507/507/386
f 432/432/385 434/434/387 507/507/386
f 507/507/386 434/434/387 509/509/388
f 434/434/387 436/436/389 509/509/388
f 509/509/388 436/436/389 511/511/390
f 436/436/389 438/438/391 511/511/390
f 511/511/390 438/438/391 513/513/392
f 438/438/391 440/440/393 513/513/392
f 513/513/392 440/440/393 515/515/394
f 440/440/393 442/442/395 515/515/394
f 515/515/394 442/442/395 517/517/396
f 517/517/396 442/442/395 518/518/397
f 443/443/324 444/444/325 519/519/398
f 519/519/398 444/444/325 520/520/399
f 444/444/325 445/445/326 520/520/399
f 445/445/326 446/446/327 520/520/399
f 520/520/399 446/446/327 521/521/400
f 446/446/327 447/447/328 521/521/400
f 521/521/400 447/447/328 522/522/401
f 447/447/328 448/448/329 522/522/401
f 449/449/330 450/450/331 523/523/402
f 523/523/402 450/450/331 524/524/403
f 450/450/331 451/451/332 524/524/403
f 524/524/403 451/451/332 525/525/404
f 451/451/332 452/452/333 525/525/404
f 452/452/333 453/453/334 525/525/404
f 525/525/404 453/453/334 526/526/405
f 453/453/334 454/454/335 526/526/405
f 527/527/406 455/455/336 528/528/407
f 455/455/336 457/457/338 528/528/407
f 529/529/408 456/456/409 531/531/410
f 531/531/410 456/456/409 533/533/411
f 456/456/409 458/458/412 533/533/411
f 533/533/411 458/458/412 536/536/413
f 458/458/412 460/460/414 536/536/413
f 536/536/413 460/460/414 538/538/415
f 460/460/414 462/462/416 538/538/415
f 538/538/415 462/462/416 540/540/417
f 462/462/416 464/464/418 540/540/417
f 540/540/417 464/464/418 542/542/419
f 464/464/418 466/466/420 542/542/419
f 542/542/419 466/466/420 544/544/421
f 466/466/420 468/468/422 544/544/421
f 544/544/421 468/468/422 546/546/423
f 468/468/422 470/470/424 546/546/423
f 546/546/423 470/470/424 548/548/425
f 470/470/424 472/472/426 548/548/425
f 548/548/425 472/472/426 550/550/427
f 472/472/426 474/474/428 550/550/427
f 550/550/427 474/474/428 552/552/429
f 474/474/428 476/476/430 552/552/429
f 552/552/429 476/476/430 554/554/431
f 554/554/431 476/476/430 556/556/432
f 476/476/430 478/478/433 556/556/432
f 556/556/432 478/478/433 558/558/434
f 478/478/433 480/480/435 558/558/434
f 558/558/434 480/480/435 560/560/436
f 480/480/435 482/482/437 560/560/436
f 482/482/437 484/484/438 560/560/436
f 560/560/436 484/484/438 562/562/439
f 562/562/439 484/484/438 564/564/440
f 484/484/438 486/486/441 564/564/440
f 486/486/441 488/488/442 564/564/440
f 564/564/440 488/488/442 566/566/443
f 488/488/442 490/490/444 566/566/443
f 566/566/443 490/490/444 568/568/445
f 490/490/444 492/492/446 568/568/445
f 568/568/445 492/492/446 570/570/447
f 570/570/447 492/492/446 572/572/448
f 492/492/446 494/494/449 572/572/448
f 572/572/448 494/494/449 574/574/450
f 494/494/449 496/496/451 574/574/450
f 574/574/450 496/496/451 576/576/452
f 496/496/451 498/498/453 576/576/452
f 576/576/452 498/498/453 578/578/454
f 498/498/453 500/500/455 578/578/454
f 578/578/454 500/500/455 580/580/456
f 500/500/455 502/502/457 580/580/456
f 580/580/456 502/502/457 582/582/458
f 502/502/457 504/504/459 582/582/458
f 582/582/458 504/504/459 584/584/460
f 504/504/459 506/506/461 584/584/460
f 584/584/460 506/506/461 586/586/462
f 506/506/461 508/508/463 586/586/462
f 586/586/462 508/508/463 588/588/464
f 508/508/463 510/510/465 588/588/464
f 588/588/464 510/510/465 590/590/466
f 510/510/465 512/512/467 590/590/466
f 590/590/466 512/512/467 592/592/468
f 512/512/467 514/514/469 592/592/468
f 592/592/468 514/514/469 594/594/470
f 514/514/469 516/516/471 594/594/470
f 594/594/470 516/516/471 596/596/472
f 596/596/472 516/516/471 597/597/473
f 517/517/396 518/518/397 598/598/474
f 598/598/474 518/518/397 599/599/475
f 519/519/398 520/520/399 600/600/476
f 520/520/399 521/521/400 600/600/476
f 600/600/476 521/521/400 604/604/477
f 521/521/400 522/522/401 604/604/477
f 523/523/402 524/524/403 603/603/478
f 603/603/478 524/524/403 605/605/479
f 524/524/403 525/525/404 605/605/479
f 525/525/404 526/526/405 605/605/479
f 606/606/480 527/527/406 607/607/481
f 527/527/406 528/528/407 607/607/481
f 608/608/482 529/529/408 609/609/483
f 529/529/408 531/531/410 609/609/483
s 0
f 610/610/484 530/530/484 612/612/484
f 530/530/485 532/532/485 612/612/485
f 532/532/486 535/535/486 612/612/486
f 534/534/487 537/537/487 611/611/487
f 537/537/488 539/539/488 612/612/488
f 539/539/489 541/541/489 612/612/489
f 541/541/490 543/543/490 612/612/490
f 543/543/491 545/545/491 612/612/491
f 545/545/492 547/547/492 612/612/492
f 547/547/493 549/549/493 612/612/493
f 549/549/494 551/551/494 612/612/494
f 551/551/495 553/553/495 612/612/495
f 553/553/496 555/555/496 612/612/496
f 555/555/497 557/557/497 612/612/497
f 557/557/498 559/559/498 612/612/498
f 559/559/499 561/561/499 612/612/499
f 561/561/500 563/563/500 612/612/500
f 563/563/501 565/565/501 612/612/501
f 565/565/502 567/567/502 612/612/502
f 567/567/503 569/569/503 612/612/503
f 569/569/486 571/571/486 612/612/486
f 571/571/504 573/573/504 612/612/504
f 573/573/505 575/575/505 612/612/505
f 575/575/492 577/577/492 612/612/492
f 577/577/491 579/579/491 612/612/491
f 579/579/490 581/581/490 612/612/490
f 581/581/489 583/583/489 612/612/489
f 583/583/488 585/585/488 612/612/488
f 585/585/506 587/587/506 612/612/506
f 587/587/495 589/589/495 612/612/495
f 589/589/507 591/591/507 612/612/507
f 591/591/484 593/593/484 612/612/484
f 593/593/484 595/595/484 612/612/484
f 612/612/508 595/595/508 613/613/508
s 1
f 615/615/509 596/596/472 616/616/510
f 596/596/472 597/597/473 616/616/510
f 598/598/474 599/599/475 619/619/511
f 599/599/475 601/601/512 619/619/511
f 618/618/513 602/602/514 620/620/515
f 602/602/514 606/606/480 620/620/515
f 606/606/480 607/607/481 620/620/515
f 621/621/516 608/608/482 623/623/517
f 608/608/482 609/609/483 623/623/517
s 0
f 610/610/484 612/612/484 622/622/484
f 612/612/518 613/613/518 622/622/518
s 1
f 614/614/519 617/617/520 623/623/517
f 621/621/516 623/623/517 617/617/520
s 0
usemtl Rubber_Black_002_COLOR_0
f 625/625/158 627/627/158 628/628/158
f 627/627/158 631/631/158 628/628/158
f 631/631/158 633/633/158 628/628/158
f 633/633/158 635/635/158 628/628/158
f 635/635/158 637/637/158 628/628/158
f 637/637/158 639/639/158 628/628/158
f 639/639/158 641/641/158 628/628/158
f 641/641/521 643/643/521 628/628/521
f 644/644/522 646/646/522 629/629/522
f 646/646/522 649/649/522 629/629/522
f 648/648/523 651/651/523 628/628/523
f 651/651/158 653/653/158 628/628/158
f 653/653/158 655/655/158 628/628/158
f 655/655/158 657/657/158 628/628/158
f 657/657/158 659/659/158 628/628/158
f 659/659/158 661/661/158 628/628/158
f 661/661/158 663/663/158 628/628/158
f 663/663/158 665/665/158 628/628/158
f 665/665/158 667/667/158 628/628/158
f 667/667/158 669/669/158 628/628/158
f 669/669/158 671/671/158 628/628/158
f 671/671/158 673/673/158 628/628/158
f 673/673/158 675/675/158 628/628/158
f 675/675/158 677/677/158 628/628/158
f 677/677/158 680/680/158 628/628/158
f 680/680/158 682/682/158 628/628/158
f 682/682/158 684/684/158 628/628/158
f 684/684/158 686/686/158 628/628/158
f 628/628/158 686/686/158 687/687/158
s 1
f 688/688/524 685/685/525 690/690/524
f 690/690/524 685/685/525 692/692/525
f 685/685/525 683/683/526 692/692/525
f 692/692/525 683/683/526 694/694/526
f 683/683/526 681/681/527 694/694/526
f 694/694/526 681/681/527 696/696/527
f 681/681/527 678/678/528 696/696/527
f 696/696/527 678/678/528 699/699/528
f 679/679/529 676/676/530 698/698/529
f 698/698/529 676/676/530 701/701/530
f 676/676/530 674/674/531 701/701/530
f 701/701/530 674/674/531 703/703/531
f 674/674/531 672/672/532 703/703/531
f 703/703/531 672/672/532 705/705/532
f 672/672/532 670/670/533 705/705/532
f 705/705/532 670/670/533 707/707/533
f 670/670/533 668/668/534 707/707/533
f 707/707/533 668/668/534 709/709/534
f 668/668/534 666/666/535 709/709/534
f 709/709/534 666/666/535 711/711/535
f 666/666/535 664/664/536 711/711/535
f 711/711/535 664/664/536 713/713/536
f 664/664/536 662/662/537 713/713/536
f 713/713/536 662/662/537 715/715/537
f 662/662/537 660/660/538 715/715/537
f 715/715/537 660/660/538 717/717/538
f 660/660/538 658/658/539 717/717/538
f 717/717/538 658/658/539 720/720/539
f 658/658/539 656/656/540 720/720/539
f 720/720/539 656/656/540 723/723/540
f 656/656/540 654/654/541 723/723/540
f 723/723/540 654/654/541 725/725/541
f 654/654/541 652/652/542 725/725/541
f 725/725/541 652/652/542 727/727/542
f 652/652/542 650/650/543 727/727/542
f 727/727/542 650/650/543 730/730/544
f 650/650/543 647/647/545 730/730/544
f 730/730/544 647/647/545 732/732/545
f 647/647/545 645/645/546 732/732/545
f 732/732/545 645/645/546 734/734/546
f 645/645/546 642/642/547 734/734/546
f 734/734/546 642/642/547 736/736/547
f 642/642/547 640/640/548 736/736/547
f 736/736/547 640/640/548 739/739/549
f 640/640/548 638/638/550 739/739/549
f 739/739/549 638/638/550 741/741/550
f 638/638/550 636/636/551 741/741/550
f 741/741/550 636/636/551 743/743/551
f 636/636/551 634/634/552 743/743/551
f 743/743/551 634/634/552 745/745/552
f 634/634/552 632/632/553 745/745/552
f 745/745/552 632/632/553 748/748/553
f 632/632/553 630/630/554 748/748/553
f 748/748/553 630/630/554 750/750/554
f 630/630/554 626/626/555 750/750/554
f 750/750/554 626/626/555 752/752/555
f 626/626/555 624/624/556 752/752/555
f 752/752/555 624/624/556 754/754/556
f 754/754/556 624/624/556 755/755/557
s 0
f 625/625/158 628/628/158 756/756/158
f 756/756/158 628/628/158 757/757/158
f 628/628/158 687/687/158 757/757/158
s 1
f 758/758/558 688/688/524 759/759/558
f 688/688/524 690/690/524 759/759/558
s 0
f 760/760/128 689/689/128 764/764/128
f 689/689/128 691/691/128 764/764/128
f 691/691/128 693/693/128 764/764/128
f 693/693/128 695/695/128 764/764/128
f 695/695/128 697/697/128 764/764/128
f 697/697/128 700/700/128 764/764/128
f 700/700/128 702/702/128 764/764/128
f 702/702/128 704/704/128 764/764/128
f 704/704/128 706/706/128 764/764/128
f 706/706/128 708/708/128 764/764/128
f 708/708/128 710/710/128 764/764/128
f 710/710/128 712/712/128 764/764/128
f 712/712/128 714/714/128 764/764/128
f 714/714/128 716/716/128 764/764/128
f 716/716/559 719/719/559 764/764/559
f 718/718/560 721/721/560 761/761/560
f 722/722/560 724/724/560 765/765/560
f 724/724/560 726/726/560 765/765/560
f 726/726/560 729/729/560 765/765/560
f 728/728/561 731/731/561 763/763/561
f 731/731/561 733/733/561 763/763/561
f 733/733/561 735/735/561 763/763/561
f 735/735/561 738/738/561 763/763/561
f 737/737/562 740/740/562 762/762/562
f 740/740/562 742/742/562 762/762/562
f 742/742/562 744/744/562 762/762/562
f 744/744/562 746/746/562 762/762/562
f 747/747/563 749/749/563 764/764/563
f 749/749/128 751/751/128 764/764/128
f 751/751/128 753/753/128 764/764/128
f 764/764/128 753/753/128 766/766/128
s 1
f 754/754/556 755/755/557 767/767/557
f 755/755/557 758/758/558 767/767/557
f 758/758/558 759/759/558 767/767/557
s 0
f 764/764/128 766/766/128 760/760/128
