# Blender 3.3.21
# www.blender.org
mtllib wrist2.mtl
o wrist-2_001
v 0.028934 0.041483 0.029607
v 0.022127 0.041556 0.024565
v 0.022420 0.045872 0.025238
v 0.015054 0.045206 0.021954
v 0.015353 0.049116 0.021941
v 0.007694 0.047417 0.019976
v 0.007840 0.051120 0.019902
v 0.000001 0.048123 0.019216
v 0.000001 0.048123 0.019216
v 0.000001 0.051820 0.019203
v 0.000001 0.051820 0.019203
v -0.007846 0.051120 0.019902
v -0.007692 0.047417 0.019976
v -0.015352 0.049116 0.021941
v -0.015052 0.045206 0.021954
v -0.022419 0.045872 0.025238
v -0.028933 0.041483 0.029607
v -0.022126 0.041556 0.024565
v -0.023205 0.038931 0.021587
v -0.015452 0.042595 0.019889
v -0.007719 0.044706 0.019083
v 0.000001 0.045412 0.018777
v 0.000001 0.045412 0.018777
v 0.007714 0.044706 0.019083
v 0.015453 0.042595 0.019889
v 0.023206 0.038931 0.021587
v 0.030899 0.033143 0.024252
v 0.030799 0.034955 0.028794
v 0.034749 0.036094 0.034982
v 0.038945 0.053059 0.041669
v 0.038945 0.053059 0.041669
v 0.034449 0.053059 0.035248
v 0.034449 0.053059 0.035248
v 0.028908 0.053059 0.029707
v 0.028908 0.053059 0.029707
v 0.028908 0.053059 0.029707
v 0.022487 0.053059 0.025211
v 0.022487 0.053059 0.025211
v 0.022487 0.053059 0.025211
v 0.015380 0.053059 0.021894
v 0.015380 0.053059 0.021894
v 0.015380 0.053059 0.021894
v 0.007807 0.053059 0.019869
v 0.007807 0.053059 0.019869
v 0.007807 0.053059 0.019869
v 0.000001 0.053059 0.019183
v 0.000001 0.053059 0.019183
v 0.000001 0.053059 0.019183
v -0.007806 0.053059 0.019869
v -0.007806 0.053059 0.019869
v -0.007806 0.053059 0.019869
v -0.015379 0.053059 0.021894
v -0.015379 0.053059 0.021894
v -0.015379 0.053059 0.021894
v -0.022486 0.053059 0.025211
v -0.022486 0.053059 0.025211
v -0.028907 0.053059 0.029707
v -0.028907 0.053059 0.029707
v -0.034448 0.053059 0.035249
v -0.034448 0.053059 0.035249
v -0.038944 0.053059 0.041669
v -0.038944 0.053059 0.041669
v -0.034748 0.036094 0.034982
v -0.030805 0.034955 0.028794
v -0.030898 0.033143 0.024252
v -0.037425 0.024957 0.019956
v -0.031757 0.031858 0.017878
v -0.024750 0.037533 0.016172
v -0.016944 0.041636 0.014914
v -0.008598 0.044120 0.014148
v 0.000001 0.044959 0.013894
v 0.000001 0.044959 0.013894
v 0.008599 0.044120 0.014148
v 0.016939 0.041636 0.014914
v 0.024752 0.037533 0.016172
v 0.031752 0.031858 0.017878
v 0.037427 0.024957 0.019956
v 0.041576 0.017191 0.022320
v 0.037387 0.025650 0.028215
v 0.037493 0.027455 0.034449
v 0.039551 0.029846 0.041356
v 0.042256 0.053059 0.048770
v 0.042256 0.053059 0.048770
v 0.042256 0.053059 0.048770
v 0.000001 0.053059 0.064156
v 0.000001 0.053059 0.064156
v 0.000001 0.053059 0.064156
v 0.000001 0.053059 0.064156
v 0.000001 0.053059 0.064156
v 0.000001 0.053059 0.064156
v 0.000001 0.053059 0.064156
v 0.000001 0.053059 0.064156
v 0.000001 0.053059 0.064156
v 0.000001 0.053059 0.064156
v 0.000001 0.053059 0.064156
v 0.000001 0.053059 0.064156
v 0.000001 0.053059 0.064156
v 0.000001 0.053059 0.064156
v 0.000001 0.053059 0.064156
v 0.000001 0.053059 0.064156
v 0.000001 0.053059 0.064156
v 0.000001 0.053059 0.064156
v 0.000001 0.053059 0.064156
v 0.000001 0.053059 0.064156
v -0.042254 0.053059 0.048770
v -0.042254 0.053059 0.048770
v -0.042254 0.053059 0.048770
v -0.039550 0.029846 0.041356
v -0.037492 0.027455 0.034449
v -0.037386 0.025650 0.028215
v -0.041582 0.017191 0.022320
v -0.044119 0.008819 0.000000
v -0.044119 0.008819 0.000000
v -0.044119 0.008819 0.000000
v -0.041542 0.017258 0.000000
v -0.041542 0.017258 0.000000
v -0.041542 0.017258 0.000000
v -0.037372 0.025031 0.000000
v -0.037372 0.025031 0.000000
v -0.037372 0.025031 0.000000
v -0.031764 0.031838 0.000000
v -0.031764 0.031838 0.000000
v -0.031764 0.031838 0.000000
v -0.024937 0.037426 0.000000
v -0.024937 0.037426 0.000000
v -0.024937 0.037426 0.000000
v -0.017124 0.041516 0.000000
v -0.017124 0.041516 0.000000
v -0.017124 0.041516 0.000000
v -0.008672 0.043980 0.000000
v -0.008672 0.043980 0.000000
v -0.008672 0.043980 0.000000
v 0.000001 0.044846 0.000000
v 0.000001 0.044846 0.000000
v 0.000001 0.044846 0.000000
v 0.000001 0.044846 0.000000
v 0.008673 0.043980 0.000000
v 0.008673 0.043980 0.000000
v 0.008673 0.043980 0.000000
v 0.017125 0.041516 0.000000
v 0.017125 0.041516 0.000000
v 0.017125 0.041516 0.000000
v 0.024931 0.037426 0.000000
v 0.024931 0.037426 0.000000
v 0.024931 0.037426 0.000000
v 0.031765 0.031838 0.000000
v 0.031765 0.031838 0.000000
v 0.031765 0.031838 0.000000
v 0.037373 0.025031 0.000000
v 0.037373 0.025031 0.000000
v 0.037373 0.025031 0.000000
v 0.041543 0.017258 0.000000
v 0.041543 0.017258 0.000000
v 0.041543 0.017258 0.000000
v 0.044121 0.008819 0.000000
v 0.044121 0.008819 0.000000
v 0.044121 0.008819 0.000000
v 0.045000 0.000040 0.000000
v 0.045000 0.000040 0.000000
v 0.045000 0.000040 0.000000
v 0.044960 0.000040 0.028708
v 0.044121 0.008819 0.024884
v 0.042209 0.016365 0.033583
v 0.042469 0.018070 0.041896
v 0.042962 0.022906 0.048596
v 0.044287 0.053059 0.056343
v 0.044287 0.053059 0.056343
v 0.044287 0.053059 0.056343
v 0.044967 0.053059 0.064156
v 0.044967 0.053059 0.064156
v 0.044287 0.053059 0.071962
v 0.044287 0.053059 0.071962
v 0.042256 0.053059 0.079535
v 0.042256 0.053059 0.079535
v 0.042256 0.053059 0.079535
v 0.038945 0.053059 0.086635
v 0.038945 0.053059 0.086635
v 0.038945 0.053059 0.086635
v 0.034449 0.053059 0.093056
v 0.034449 0.053059 0.093056
v 0.028908 0.053059 0.098598
v 0.028908 0.053059 0.098598
v 0.028908 0.053059 0.098598
v 0.022487 0.053059 0.103094
v 0.022487 0.053059 0.103094
v 0.022487 0.053059 0.103094
v 0.015380 0.053059 0.106411
v 0.015380 0.053059 0.106411
v 0.015380 0.053059 0.106411
v 0.007807 0.053059 0.108436
v 0.007807 0.053059 0.108436
v 0.000001 0.053059 0.109122
v 0.000001 0.053059 0.109122
v -0.007806 0.053059 0.108436
v -0.007806 0.053059 0.108436
v -0.015379 0.053059 0.106411
v -0.015379 0.053059 0.106411
v -0.022486 0.053059 0.103094
v -0.022486 0.053059 0.103094
v -0.022486 0.053059 0.103094
v -0.028907 0.053059 0.098598
v -0.028907 0.053059 0.098598
v -0.028907 0.053059 0.098598
v -0.034448 0.053059 0.093056
v -0.034448 0.053059 0.093056
v -0.034448 0.053059 0.093056
v -0.038944 0.053059 0.086635
v -0.038944 0.053059 0.086635
v -0.042254 0.053059 0.079535
v -0.042254 0.053059 0.079535
v -0.042254 0.053059 0.079535
v -0.044286 0.053059 0.071962
v -0.044286 0.053059 0.071962
v -0.044286 0.053059 0.071962
v -0.044965 0.053059 0.064156
v -0.044965 0.053059 0.064156
v -0.044286 0.053059 0.056343
v -0.044286 0.053059 0.056343
v -0.044286 0.053059 0.056343
v -0.042961 0.022906 0.048596
v -0.042468 0.018070 0.041896
v -0.042208 0.016365 0.033583
v -0.044119 0.008819 0.024884
v -0.044959 0.000040 0.028708
v -0.044999 0.000040 0.000000
v -0.044999 0.000040 0.000000
v -0.044999 0.000040 0.000000
v -0.044119 -0.008706 0.027955
v -0.044153 -0.008739 0.000000
v -0.044153 -0.008739 0.000000
v -0.044153 -0.008739 0.000000
v 0.000001 -0.000000 0.000000
v 0.000001 -0.000000 0.000000
v 0.000001 -0.000000 0.000000
v 0.000001 -0.000000 0.000000
v 0.000001 -0.000000 0.000000
v 0.000001 -0.000000 0.000000
v 0.000001 -0.000000 0.000000
v 0.000001 -0.000000 0.000000
v 0.000001 -0.000000 0.000000
v 0.000001 -0.000000 0.000000
v 0.000001 -0.000000 0.000000
v 0.000001 -0.000000 0.000000
v 0.000001 -0.000000 0.000000
v 0.000001 -0.000000 0.000000
v 0.000001 -0.000000 0.000000
v 0.000001 -0.000000 0.000000
v 0.000001 -0.000000 0.000000
v 0.000001 -0.000000 0.000000
v 0.000001 -0.000000 0.000000
v 0.000001 -0.000000 0.000000
v 0.000001 -0.000000 0.000000
v 0.000001 -0.000000 0.000000
v 0.000001 -0.000000 0.000000
v 0.000001 -0.000000 0.000000
v 0.000001 -0.000000 0.000000
v 0.000001 -0.000000 0.000000
v 0.000001 -0.000000 0.000000
v 0.000001 -0.000000 0.000000
v 0.000001 -0.000000 0.000000
v 0.000001 -0.000000 0.000000
v 0.000001 -0.000000 0.000000
v 0.000001 -0.000000 0.000000
v 0.044154 -0.008739 0.000000
v 0.044154 -0.008739 0.000000
v 0.044154 -0.008739 0.000000
v 0.044121 -0.008706 0.027955
v 0.044107 -0.008739 0.039578
v 0.044953 0.000040 0.041190
v 0.044367 0.008379 0.038299
v 0.044634 0.009338 0.048890
v 0.044720 0.015499 0.056363
v 0.044920 0.015499 0.064342
v 0.044194 0.015499 0.072188
v 0.042242 0.015499 0.079875
v 0.038952 0.015499 0.087035
v 0.034396 0.015499 0.093462
v 0.028701 0.015499 0.098931
v 0.022214 0.015499 0.103280
v 0.015094 0.015499 0.106477
v 0.007574 0.015499 0.108436
v 0.000001 0.015499 0.109068
v -0.007572 0.015499 0.108436
v -0.015092 0.015499 0.106477
v -0.022213 0.015499 0.103280
v -0.028707 0.015499 0.098931
v -0.034395 0.015499 0.093462
v -0.038951 0.015499 0.087035
v -0.042248 0.015499 0.079875
v -0.044193 0.015499 0.072188
v -0.044919 0.015499 0.064342
v -0.044726 0.015499 0.056363
v -0.044639 0.009338 0.048890
v -0.044366 0.008379 0.038299
v -0.044952 0.000040 0.041190
v -0.044106 -0.008739 0.039578
v -0.041735 -0.017218 0.035042
v -0.041568 -0.017151 0.025677
v -0.041608 -0.017185 0.000000
v -0.041608 -0.017185 0.000000
v -0.041608 -0.017185 0.000000
v -0.037459 -0.024971 0.000007
v -0.037459 -0.024971 0.000007
v -0.037459 -0.024971 0.000007
v -0.031877 -0.031798 0.000007
v -0.031877 -0.031798 0.000007
v -0.031877 -0.031798 0.000007
v -0.025063 -0.037400 0.000007
v -0.025063 -0.037400 0.000007
v -0.025063 -0.037400 0.000007
v -0.017297 -0.041582 0.000007
v -0.017297 -0.041582 0.000007
v -0.017297 -0.041582 0.000007
v -0.008858 -0.044160 0.000007
v -0.008858 -0.044160 0.000007
v -0.008858 -0.044160 0.000007
v 0.000001 -0.045033 0.000007
v 0.000001 -0.045033 0.000007
v 0.000001 -0.045033 0.000007
v 0.000001 -0.045033 0.000007
v 0.008859 -0.044160 0.000007
v 0.008859 -0.044160 0.000007
v 0.008859 -0.044160 0.000007
v 0.017298 -0.041582 0.000007
v 0.017298 -0.041582 0.000007
v 0.017298 -0.041582 0.000007
v 0.025065 -0.037400 0.000007
v 0.025065 -0.037400 0.000007
v 0.025065 -0.037400 0.000007
v 0.031878 -0.031798 0.000007
v 0.031878 -0.031798 0.000007
v 0.031878 -0.031798 0.000007
v 0.037460 -0.024971 0.000007
v 0.037460 -0.024971 0.000007
v 0.037460 -0.024971 0.000007
v 0.041603 -0.017185 0.000000
v 0.041603 -0.017185 0.000000
v 0.041603 -0.017185 0.000000
v 0.041570 -0.017151 0.025677
v 0.041729 -0.017218 0.035042
v 0.041403 -0.020588 0.040557
v 0.044374 -0.009218 0.048257
v 0.045100 0.000060 0.056409
v 0.045113 0.000040 0.064342
v 0.044447 0.000047 0.072242
v 0.042529 0.000053 0.079981
v 0.039225 0.000060 0.087188
v 0.034589 0.000053 0.093616
v 0.028808 0.000047 0.099057
v 0.022240 0.000040 0.103327
v 0.015087 0.000047 0.106457
v 0.007560 0.000047 0.108356
v 0.000001 0.000047 0.108975
v -0.007559 0.000047 0.108356
v -0.015086 0.000047 0.106457
v -0.022239 0.000040 0.103327
v -0.028807 0.000047 0.099057
v -0.034588 0.000053 0.093616
v -0.039224 0.000060 0.087188
v -0.042528 0.000053 0.079981
v -0.044446 0.000047 0.072242
v -0.045112 0.000040 0.064342
v -0.045099 0.000060 0.056409
v -0.044379 -0.009218 0.048257
v -0.041402 -0.020588 0.040557
v -0.036693 -0.029127 0.034762
v -0.036986 -0.026396 0.030326
v -0.037446 -0.024964 0.023193
v -0.031864 -0.031785 0.021028
v -0.025057 -0.037393 0.019303
v -0.017290 -0.041569 0.018031
v -0.008851 -0.044133 0.017251
v 0.000001 -0.045006 0.016985
v 0.000001 -0.045006 0.016985
v 0.008853 -0.044133 0.017251
v 0.017292 -0.041569 0.018031
v 0.025058 -0.037393 0.019303
v 0.031865 -0.031785 0.021028
v 0.037447 -0.024964 0.023193
v 0.036987 -0.026396 0.030326
v 0.036694 -0.029127 0.034762
v 0.035309 -0.034622 0.037893
v 0.039851 -0.029200 0.043728
v 0.043142 -0.022260 0.050788
v 0.044747 -0.016239 0.058308
v 0.045066 -0.014773 0.065921
v 0.044374 -0.013315 0.073500
v 0.042362 -0.011896 0.080874
v 0.039019 -0.010564 0.087754
v 0.034423 -0.009378 0.093915
v 0.028748 -0.008352 0.099171
v 0.022247 -0.007520 0.103354
v 0.015127 -0.006907 0.106417
v 0.007600 -0.006527 0.108289
v 0.000001 -0.006408 0.108908
v -0.007599 -0.006527 0.108289
v -0.015132 -0.006907 0.106417
v -0.022252 -0.007520 0.103354
v -0.028747 -0.008352 0.099171
v -0.034422 -0.009378 0.093915
v -0.039017 -0.010564 0.087754
v -0.042368 -0.011896 0.080874
v -0.044373 -0.013315 0.073500
v -0.045065 -0.014773 0.065921
v -0.044746 -0.016239 0.058308
v -0.043140 -0.022260 0.050788
v -0.039850 -0.029200 0.043728
v -0.035307 -0.034622 0.037893
v -0.029053 -0.039305 0.032857
v -0.029546 -0.036487 0.029827
v -0.030439 -0.033943 0.026490
v -0.023651 -0.038958 0.024159
v -0.016078 -0.042495 0.022533
v -0.008065 -0.044566 0.021534
v 0.000001 -0.045226 0.021221
v 0.000001 -0.045226 0.021221
v 0.008067 -0.044566 0.021534
v 0.016073 -0.042495 0.022533
v 0.023653 -0.038958 0.024159
v 0.030440 -0.033943 0.026490
v 0.029547 -0.036487 0.029827
v 0.029054 -0.039305 0.032857
v 0.028988 -0.041689 0.034942
v 0.028988 -0.041689 0.034942
v 0.034589 -0.039498 0.040284
v 0.034589 -0.039498 0.040284
v 0.039032 -0.037040 0.046358
v 0.039032 -0.037040 0.046358
v 0.042289 -0.034342 0.053072
v 0.042289 -0.034342 0.053072
v 0.044254 -0.031492 0.060153
v 0.044254 -0.031492 0.060153
v 0.044893 -0.028574 0.067399
v 0.044893 -0.028574 0.067399
v 0.044194 -0.025663 0.074639
v 0.044194 -0.025663 0.074639
v 0.042176 -0.022873 0.081586
v 0.042176 -0.022873 0.081586
v 0.038865 -0.020222 0.088187
v 0.038865 -0.020222 0.088187
v 0.034363 -0.017831 0.094142
v 0.034363 -0.017831 0.094142
v 0.028808 -0.015766 0.099284
v 0.028808 -0.015766 0.099284
v 0.022380 -0.014087 0.103447
v 0.022380 -0.014087 0.103447
v 0.015260 -0.012855 0.106511
v 0.015260 -0.012855 0.106511
v 0.007680 -0.012109 0.108382
v 0.007680 -0.012109 0.108382
v 0.000001 -0.011863 0.108988
v 0.000001 -0.011863 0.108988
v -0.007686 -0.012109 0.108382
v -0.007686 -0.012109 0.108382
v -0.015259 -0.012855 0.106511
v -0.015259 -0.012855 0.106511
v -0.022379 -0.014087 0.103447
v -0.022379 -0.014087 0.103447
v -0.028813 -0.015766 0.099284
v -0.028813 -0.015766 0.099284
v -0.034362 -0.017831 0.094142
v -0.034362 -0.017831 0.094142
v -0.038864 -0.020222 0.088187
v -0.038864 -0.020222 0.088187
v -0.042181 -0.022873 0.081587
v -0.042181 -0.022873 0.081587
v -0.044193 -0.025663 0.074639
v -0.044193 -0.025663 0.074639
v -0.044899 -0.028574 0.067399
v -0.044899 -0.028574 0.067399
v -0.044259 -0.031492 0.060153
v -0.044259 -0.031492 0.060153
v -0.042288 -0.034342 0.053072
v -0.042288 -0.034342 0.053072
v -0.039031 -0.037040 0.046359
v -0.039031 -0.037040 0.046359
v -0.034588 -0.039498 0.040284
v -0.034588 -0.039498 0.040284
v -0.028993 -0.041689 0.034942
v -0.028993 -0.041689 0.034942
v -0.022599 -0.043461 0.030673
v -0.022599 -0.043461 0.030673
v -0.022599 -0.042249 0.029314
v -0.022852 -0.040657 0.027009
v -0.015479 -0.043521 0.025051
v -0.007766 -0.045166 0.023839
v 0.000001 -0.045699 0.023466
v 0.000001 -0.045699 0.023466
v 0.007760 -0.045166 0.023839
v 0.015473 -0.043521 0.025051
v 0.022853 -0.040657 0.027009
v 0.022600 -0.042249 0.029314
v 0.022600 -0.043461 0.030673
v 0.022600 -0.043461 0.030673
v 0.028502 -0.042928 0.036341
v 0.028502 -0.042928 0.036341
v 0.033937 -0.040890 0.041403
v 0.033937 -0.040890 0.041403
v 0.038333 -0.038525 0.047271
v 0.038333 -0.038525 0.047271
v 0.041570 -0.035908 0.053752
v 0.041570 -0.035908 0.053752
v 0.043541 -0.033123 0.060659
v 0.043541 -0.033123 0.060659
v 0.044187 -0.030259 0.067779
v 0.044187 -0.030259 0.067779
v 0.043495 -0.027389 0.074893
v 0.043495 -0.027389 0.074893
v 0.041476 -0.024611 0.081786
v 0.041476 -0.024611 0.081786
v 0.038199 -0.022007 0.088254
v 0.038199 -0.022007 0.088254
v 0.033763 -0.019649 0.094095
v 0.033763 -0.019649 0.094095
v 0.028302 -0.017617 0.099131
v 0.028302 -0.017617 0.099131
v 0.021981 -0.015979 0.103207
v 0.021981 -0.015979 0.103207
v 0.014994 -0.014767 0.106211
v 0.014994 -0.014767 0.106211
v 0.007547 -0.014027 0.108036
v 0.007547 -0.014027 0.108036
v 0.000001 -0.013794 0.108629
v 0.000001 -0.013794 0.108629
v -0.007546 -0.014027 0.108036
v -0.007546 -0.014027 0.108036
v -0.014992 -0.014767 0.106211
v -0.014992 -0.014767 0.106211
v -0.021979 -0.015979 0.103207
v -0.021979 -0.015979 0.103207
v -0.028300 -0.017617 0.099131
v -0.028300 -0.017617 0.099131
v -0.033762 -0.019649 0.094095
v -0.033762 -0.019649 0.094095
v -0.038198 -0.022007 0.088254
v -0.038198 -0.022007 0.088254
v -0.041475 -0.024611 0.081786
v -0.041475 -0.024611 0.081786
v -0.043493 -0.027389 0.074893
v -0.043493 -0.027389 0.074893
v -0.044186 -0.030259 0.067779
v -0.044186 -0.030259 0.067779
v -0.043540 -0.033123 0.060659
v -0.043540 -0.033123 0.060659
v -0.041568 -0.035908 0.053752
v -0.041568 -0.035908 0.053752
v -0.038331 -0.038525 0.047271
v -0.038331 -0.038525 0.047271
v -0.033935 -0.040890 0.041403
v -0.033935 -0.040890 0.041403
v -0.028500 -0.042928 0.036341
v -0.028500 -0.042928 0.036341
v -0.022206 -0.044586 0.032225
v -0.022206 -0.044586 0.032225
v -0.015232 -0.045812 0.029187
v -0.015232 -0.045812 0.029187
v -0.015479 -0.044826 0.027489
v -0.015479 -0.044826 0.027489
v -0.015432 -0.044340 0.026749
v -0.007826 -0.045572 0.025158
v 0.000001 -0.045992 0.024638
v 0.000001 -0.045992 0.024638
v 0.007827 -0.045572 0.025158
v 0.015427 -0.044340 0.026749
v 0.015473 -0.044826 0.027489
v 0.015473 -0.044826 0.027489
v 0.022207 -0.044586 0.032225
v 0.022207 -0.044586 0.032225
v 0.020962 -0.046225 0.035262
v 0.020962 -0.046225 0.035262
v 0.026896 -0.044660 0.039145
v 0.026896 -0.044660 0.039145
v 0.032012 -0.042728 0.043921
v 0.032012 -0.042728 0.043921
v 0.036155 -0.040497 0.049449
v 0.036155 -0.040497 0.049449
v 0.039205 -0.038026 0.055563
v 0.039205 -0.038026 0.055563
v 0.041063 -0.035395 0.062071
v 0.041063 -0.035395 0.062071
v 0.041670 -0.032684 0.068778
v 0.041670 -0.032684 0.068778
v 0.041010 -0.029973 0.075485
v 0.041010 -0.029973 0.075485
v 0.039112 -0.027349 0.081986
v 0.039112 -0.027349 0.081986
v 0.036015 -0.024884 0.088081
v 0.036015 -0.024884 0.088081
v 0.031832 -0.022660 0.093582
v 0.031832 -0.022660 0.093582
v 0.026676 -0.020741 0.098325
v 0.026676 -0.020741 0.098325
v 0.020715 -0.019189 0.102168
v 0.020715 -0.019189 0.102168
v 0.014121 -0.018050 0.104999
v 0.014121 -0.018050 0.104999
v 0.007101 -0.017351 0.106717
v 0.007101 -0.017351 0.106717
v 0.000001 -0.017131 0.107270
v 0.000001 -0.017131 0.107270
v -0.007100 -0.017351 0.106717
v -0.007100 -0.017351 0.106717
v -0.014127 -0.018050 0.104999
v -0.014127 -0.018050 0.104999
v -0.020714 -0.019189 0.102168
v -0.020714 -0.019189 0.102168
v -0.026682 -0.020741 0.098325
v -0.026682 -0.020741 0.098325
v -0.031831 -0.022660 0.093582
v -0.031831 -0.022660 0.093582
v -0.036020 -0.024884 0.088081
v -0.036020 -0.024884 0.088081
v -0.039111 -0.027349 0.081986
v -0.039111 -0.027349 0.081986
v -0.041016 -0.029973 0.075485
v -0.041016 -0.029973 0.075485
v -0.041668 -0.032684 0.068778
v -0.041668 -0.032684 0.068778
v -0.041062 -0.035395 0.062071
v -0.041062 -0.035395 0.062071
v -0.039204 -0.038026 0.055563
v -0.039204 -0.038026 0.055563
v -0.036160 -0.040497 0.049449
v -0.036160 -0.040497 0.049449
v -0.032010 -0.042728 0.043921
v -0.032010 -0.042728 0.043921
v -0.026895 -0.044660 0.039145
v -0.026895 -0.044660 0.039145
v -0.020960 -0.046225 0.035262
v -0.020960 -0.046225 0.035262
v -0.014386 -0.047384 0.032398
v -0.014386 -0.047384 0.032398
v -0.007379 -0.048097 0.030633
v -0.007379 -0.048097 0.030633
v -0.007799 -0.046571 0.027316
v -0.007799 -0.046571 0.027316
v -0.007892 -0.045725 0.025511
v -0.007892 -0.045725 0.025511
v 0.000001 -0.046045 0.024831
v 0.000001 -0.046045 0.024831
v 0.000001 -0.046045 0.024831
v 0.000001 -0.046045 0.024831
v 0.007893 -0.045725 0.025511
v 0.007893 -0.045725 0.025511
v 0.015233 -0.045812 0.029187
v 0.015233 -0.045812 0.029187
v 0.014387 -0.047384 0.032398
v 0.014387 -0.047384 0.032398
v 0.000001 -0.032704 0.068725
v 0.000001 -0.048343 0.030027
v 0.000001 -0.048343 0.030027
v 0.000001 -0.048343 0.030027
v 0.000001 -0.046824 0.026676
v 0.000001 -0.046824 0.026676
v 0.000001 -0.046824 0.026676
v 0.000001 -0.046824 0.026676
v 0.007800 -0.046571 0.027316
v 0.007800 -0.046571 0.027316
v 0.007381 -0.048097 0.030633
v 0.007381 -0.048097 0.030633
v 0.022483 0.071819 0.025206
v 0.022483 0.071819 0.025206
v 0.022483 0.053056 0.025206
v 0.022483 0.053056 0.025206
v 0.015379 0.071819 0.021896
v 0.015379 0.071819 0.021896
v 0.015379 0.053056 0.021896
v 0.015379 0.053056 0.021896
v 0.007809 0.071819 0.019865
v 0.007809 0.071819 0.019865
v 0.007809 0.053056 0.019865
v 0.007809 0.053056 0.019865
v 0.000003 0.071819 0.019184
v 0.000003 0.071819 0.019184
v 0.000003 0.071819 0.019184
v 0.000003 0.053056 0.019184
v 0.000003 0.053056 0.019184
v 0.000003 0.053056 0.019184
v -0.007809 0.053056 0.019865
v -0.007809 0.053056 0.019865
v -0.007809 0.071819 0.019865
v -0.007809 0.071819 0.019865
v -0.015379 0.053056 0.021896
v -0.015379 0.053056 0.021896
v -0.015379 0.071819 0.021896
v -0.015379 0.071819 0.021896
v -0.022483 0.053056 0.025206
v -0.022483 0.053056 0.025206
v -0.022483 0.071819 0.025206
v -0.022483 0.071819 0.025206
v -0.028906 0.053056 0.029702
v -0.028906 0.053056 0.029702
v -0.028906 0.071819 0.029702
v -0.028906 0.071819 0.029702
v -0.034451 0.053056 0.035247
v -0.034451 0.053056 0.035247
v -0.034451 0.071819 0.035247
v -0.034451 0.071819 0.035247
v -0.038947 0.053056 0.041670
v -0.038947 0.053056 0.041670
v -0.038947 0.071819 0.041670
v -0.038947 0.071819 0.041670
v -0.042257 0.053056 0.048774
v -0.042257 0.053056 0.048774
v -0.042257 0.071819 0.048774
v -0.042257 0.071819 0.048774
v -0.044288 0.053056 0.056344
v -0.044288 0.053056 0.056344
v -0.044288 0.071819 0.056344
v -0.044288 0.071819 0.056344
v -0.044969 0.053056 0.064156
v -0.044969 0.053056 0.064156
v -0.044969 0.071819 0.064156
v -0.044969 0.071819 0.064156
v -0.044288 0.053056 0.071962
v -0.044288 0.053056 0.071962
v -0.044288 0.071819 0.071962
v -0.044288 0.071819 0.071962
v -0.042257 0.053056 0.079532
v -0.042257 0.053056 0.079532
v -0.042257 0.071819 0.079532
v -0.042257 0.071819 0.079532
v -0.038946 0.053056 0.086636
v -0.038946 0.053056 0.086636
v -0.038946 0.071819 0.086636
v -0.038946 0.071819 0.086636
v -0.034451 0.053056 0.093059
v -0.034451 0.053056 0.093059
v -0.034451 0.071819 0.093059
v -0.034451 0.071819 0.093059
v -0.028906 0.053056 0.098603
v -0.028906 0.053056 0.098603
v -0.028906 0.071825 0.098603
v -0.028906 0.071825 0.098603
v -0.028906 0.071825 0.098603
v -0.022483 0.053056 0.103099
v -0.022483 0.053056 0.103099
v -0.022483 0.071825 0.103099
v -0.022483 0.071825 0.103099
v -0.015379 0.053056 0.106410
v -0.015379 0.053056 0.106410
v -0.015379 0.071825 0.106410
v -0.015379 0.071825 0.106410
v -0.015379 0.071825 0.106410
v -0.007809 0.053056 0.108441
v -0.007809 0.053056 0.108441
v -0.007809 0.071825 0.108441
v -0.007809 0.071825 0.108441
v 0.000003 0.053056 0.109122
v 0.000003 0.053056 0.109122
v 0.000003 0.071825 0.109122
v 0.000003 0.071825 0.109122
v 0.007809 0.071825 0.108441
v 0.007809 0.071825 0.108441
v 0.007809 0.053056 0.108441
v 0.007809 0.053056 0.108441
v 0.015379 0.071825 0.106410
v 0.015379 0.071825 0.106410
v 0.015379 0.071825 0.106410
v 0.015379 0.053056 0.106410
v 0.015379 0.053056 0.106410
v 0.022483 0.071825 0.103099
v 0.022483 0.071825 0.103099
v 0.022483 0.053056 0.103099
v 0.022483 0.053056 0.103099
v 0.028906 0.071825 0.098603
v 0.028906 0.071825 0.098603
v 0.028906 0.071825 0.098603
v 0.028906 0.053056 0.098603
v 0.028906 0.053056 0.098603
v 0.034450 0.071819 0.093059
v 0.034450 0.071819 0.093059
v 0.034450 0.053056 0.093059
v 0.034450 0.053056 0.093059
v 0.038946 0.071819 0.086636
v 0.038946 0.071819 0.086636
v 0.038946 0.053056 0.086636
v 0.038946 0.053056 0.086636
v 0.042257 0.071819 0.079532
v 0.042257 0.071819 0.079532
v 0.042257 0.053056 0.079532
v 0.042257 0.053056 0.079532
v 0.044288 0.071819 0.071962
v 0.044288 0.071819 0.071962
v 0.044288 0.053056 0.071962
v 0.044288 0.053056 0.071962
v 0.044969 0.071819 0.064156
v 0.044969 0.071819 0.064156
v 0.044969 0.053056 0.064156
v 0.044969 0.053056 0.064156
v 0.044288 0.071819 0.056344
v 0.044288 0.071819 0.056344
v 0.044288 0.053056 0.056344
v 0.044288 0.053056 0.056344
v 0.042257 0.071819 0.048774
v 0.042257 0.071819 0.048774
v 0.042257 0.053056 0.048774
v 0.042257 0.053056 0.048774
v 0.000003 0.053056 0.064156
v 0.028906 0.053056 0.029702
v 0.028906 0.053056 0.029702
v 0.028906 0.071819 0.029702
v 0.028906 0.071819 0.029702
v 0.000003 0.071819 0.064156
v 0.000003 0.071819 0.064156
v 0.000003 0.071819 0.064156
v 0.000003 0.071819 0.064156
v 0.038946 0.071819 0.041670
v 0.038946 0.071819 0.041670
v 0.038946 0.053056 0.041670
v 0.038946 0.053056 0.041670
v 0.034450 0.053056 0.035247
v 0.034450 0.053056 0.035247
v 0.034450 0.071819 0.035247
v 0.034450 0.071819 0.035247
vn 0.6533 0.1282 -0.7461
vn 0.5914 0.4434 -0.6735
vn 0.4983 0.0379 -0.8662
vn 0.4023 0.3171 -0.8588
vn 0.3393 -0.0199 -0.9405
vn 0.1701 0.1477 -0.9743
vn 0.1759 -0.0183 -0.9842
vn 0.1008 0.0709 -0.9924
vn 0.0880 -0.0101 -0.9961
vn -0.0880 -0.0101 -0.9961
vn -0.1008 0.0709 -0.9924
vn -0.1760 -0.0181 -0.9842
vn -0.1700 0.1476 -0.9743
vn -0.3394 -0.0199 -0.9404
vn -0.4023 0.3171 -0.8588
vn -0.4983 0.0379 -0.8662
vn -0.6534 0.1285 -0.7461
vn -0.5913 0.4435 -0.6735
vn -0.5718 0.7806 -0.2523
vn -0.4013 0.8105 -0.4267
vn -0.1864 0.7612 -0.6211
vn -0.1221 0.7289 -0.6736
vn 0.1222 0.7289 -0.6736
vn 0.1863 0.7612 -0.6212
vn 0.4012 0.8104 -0.4270
vn 0.5719 0.7806 -0.2524
vn 0.7183 0.6791 -0.1512
vn 0.7634 0.4775 -0.4350
vn 0.8035 0.1593 -0.5736
vn 0.8648 0.0273 -0.5013
vn 0.7631 0.0187 -0.6460
vn 0.6398 0.0041 -0.7685
vn 0.4995 -0.0088 -0.8663
vn 0.3421 -0.0133 -0.9396
vn 0.1724 -0.0140 -0.9849
vn 0.0875 -0.0161 -0.9960
vn -0.0875 -0.0161 -0.9960
vn -0.1722 -0.0134 -0.9850
vn -0.3422 -0.0133 -0.9395
vn -0.4995 -0.0088 -0.8663
vn -0.6398 0.0041 -0.7685
vn -0.7631 0.0187 -0.6460
vn -0.8648 0.0273 -0.5013
vn -0.8036 0.1594 -0.5734
vn -0.7634 0.4775 -0.4350
vn -0.7183 0.6790 -0.1513
vn -0.8332 0.5527 -0.0188
vn -0.7092 0.7047 -0.0197
vn -0.5580 0.8296 -0.0224
vn -0.3861 0.9220 -0.0282
vn -0.1995 0.9790 -0.0427
vn -0.0969 0.9940 -0.0508
vn 0.0969 0.9940 -0.0508
vn 0.1996 0.9790 -0.0425
vn 0.3860 0.9221 -0.0284
vn 0.5580 0.8295 -0.0224
vn 0.7091 0.7048 -0.0199
vn 0.8333 0.5526 -0.0188
vn 0.9252 0.3792 -0.0139
vn 0.8501 0.5173 -0.0983
vn 0.8852 0.3737 -0.2773
vn 0.9076 0.1358 -0.3973
vn 0.9399 0.0262 -0.3405
vn -0.0000 1.0000 -0.0000
vn -0.9399 0.0262 -0.3405
vn -0.9076 0.1358 -0.3973
vn -0.8852 0.3736 -0.2772
vn -0.8501 0.5174 -0.0983
vn -0.9252 0.3792 -0.0138
vn -0.9806 0.1962 0.0002
vn -0.9232 0.3843 -0.0007
vn -0.8305 0.5570 -0.0004
vn -0.7054 0.7088 0.0004
vn -0.5524 0.8336 0.0005
vn -0.3755 0.9268 -0.0041
vn -0.1908 0.9816 -0.0087
vn -0.0987 0.9951 -0.0089
vn 0.0987 0.9951 -0.0089
vn 0.1908 0.9816 -0.0087
vn 0.3757 0.9267 -0.0040
vn 0.5522 0.8337 0.0004
vn 0.7054 0.7088 0.0005
vn 0.8304 0.5571 -0.0003
vn 0.9232 0.3842 -0.0005
vn 0.9806 0.1963 0.0003
vn 1.0000 0.0019 0.0014
vn 1.0000 0.0001 0.0007
vn 0.9824 0.1868 -0.0083
vn 0.9433 0.3269 -0.0587
vn 0.9627 0.2263 -0.1486
vn 0.9703 0.0904 -0.2244
vn 0.9861 0.0111 -0.1656
vn -0.9861 0.0111 -0.1656
vn -0.9702 0.0906 -0.2247
vn -0.9626 0.2265 -0.1488
vn -0.9433 0.3268 -0.0585
vn -0.9824 0.1865 -0.0082
vn -1.0000 0.0001 0.0007
vn -1.0000 0.0019 0.0014
vn -0.9818 -0.1898 -0.0020
vn -0.9811 -0.1933 0.0016
vn -0.0000 -0.0000 -1.0000
vn 0.9811 -0.1935 0.0015
vn 0.9818 -0.1899 -0.0019
vn 0.9862 -0.1642 -0.0210
vn 0.9999 -0.0122 -0.0073
vn 0.9897 0.1404 -0.0284
vn 0.9953 0.0780 -0.0566
vn 0.9967 0.0415 -0.0699
vn 0.9994 0.0106 0.0335
vn 1.0000 -0.0017 0.0001
vn 0.9856 0.0072 0.1690
vn 0.9850 -0.0002 0.1723
vn 0.9427 0.0101 0.3334
vn 0.9399 0.0033 0.3413
vn 0.8657 0.0125 0.5004
vn 0.8661 0.0050 0.4999
vn 0.7571 0.0120 0.6532
vn 0.7655 0.0040 0.6434
vn 0.6268 0.0089 0.7791
vn 0.6422 0.0014 0.7665
vn 0.4844 0.0043 0.8748
vn 0.4997 -0.0007 0.8662
vn 0.3316 0.0004 0.9434
vn 0.3419 -0.0015 0.9397
vn 0.1677 -0.0022 0.9858
vn 0.1736 -0.0015 0.9848
vn -0.0000 -0.0031 1.0000
vn -0.0000 -0.0014 1.0000
vn -0.1736 -0.0015 0.9848
vn -0.1677 -0.0022 0.9858
vn -0.3419 -0.0015 0.9397
vn -0.3316 0.0004 0.9434
vn -0.4997 -0.0007 0.8662
vn -0.4842 0.0043 0.8749
vn -0.6422 0.0015 0.7666
vn -0.6268 0.0088 0.7791
vn -0.7655 0.0041 0.6434
vn -0.7573 0.0120 0.6530
vn -0.8661 0.0050 0.4999
vn -0.8656 0.0125 0.5006
vn -0.9399 0.0034 0.3414
vn -0.9427 0.0100 0.3335
vn -0.9850 -0.0001 0.1723
vn -0.9857 0.0072 0.1686
vn -1.0000 -0.0017 0.0001
vn -0.9994 0.0106 0.0338
vn -0.9967 0.0415 -0.0696
vn -0.9954 0.0777 -0.0568
vn -0.9897 0.1404 -0.0286
vn -0.9999 -0.0122 -0.0073
vn -0.9862 -0.1640 -0.0211
vn -0.9443 -0.3218 -0.0690
vn -0.9270 -0.3750 -0.0105
vn -0.9246 -0.3809 0.0014
vn 0.0003 -0.0007 -1.0000
vn -0.0001 -0.0001 -1.0000
vn -0.0000 -0.0001 -1.0000
vn 0.0001 -0.0001 -1.0000
vn -0.0003 -0.0007 -1.0000
vn 0.9246 -0.3810 0.0013
vn 0.9270 -0.3750 -0.0103
vn 0.9443 -0.3219 -0.0693
vn 0.9491 -0.2601 -0.1775
vn 0.9933 -0.0917 -0.0700
vn 0.9998 -0.0056 -0.0190
vn 0.9993 0.0035 0.0375
vn 0.9865 0.0125 0.1631
vn 0.9440 0.0137 0.3297
vn 0.8645 0.0129 0.5024
vn 0.7523 0.0101 0.6587
vn 0.6184 0.0067 0.7858
vn 0.4745 0.0019 0.8802
vn 0.3237 -0.0036 0.9461
vn 0.1635 -0.0073 0.9865
vn -0.0000 -0.0082 1.0000
vn -0.1635 -0.0073 0.9865
vn -0.3237 -0.0035 0.9462
vn -0.4745 0.0021 0.8802
vn -0.6184 0.0067 0.7858
vn -0.7523 0.0101 0.6587
vn -0.8645 0.0129 0.5024
vn -0.9439 0.0138 0.3299
vn -0.9866 0.0125 0.1630
vn -0.9993 0.0035 0.0375
vn -0.9998 -0.0057 -0.0188
vn -0.9933 -0.0914 -0.0702
vn -0.9491 -0.2603 -0.1772
vn -0.8523 -0.4290 -0.2994
vn -0.8526 -0.5045 -0.1365
vn -0.8382 -0.5448 -0.0247
vn -0.8323 -0.5543 0.0007
vn -0.7188 -0.6943 -0.0362
vn -0.7082 -0.7061 0.0008
vn -0.5673 -0.8225 -0.0422
vn -0.5572 -0.8304 0.0006
vn -0.3916 -0.9194 -0.0354
vn -0.3848 -0.9230 0.0011
vn -0.2030 -0.9788 -0.0292
vn -0.1960 -0.9806 0.0016
vn -0.0980 -0.9952 0.0016
vn -0.0935 -0.9952 -0.0292
vn 0.0935 -0.9952 -0.0292
vn 0.0980 -0.9952 0.0016
vn 0.2030 -0.9788 -0.0292
vn 0.1960 -0.9806 0.0016
vn 0.3848 -0.9230 0.0011
vn 0.3917 -0.9194 -0.0351
vn 0.5572 -0.8304 0.0006
vn 0.5672 -0.8225 -0.0422
vn 0.7082 -0.7061 0.0007
vn 0.7188 -0.6943 -0.0362
vn 0.8325 -0.5540 0.0007
vn 0.8382 -0.5447 -0.0248
vn 0.8527 -0.5043 -0.1363
vn 0.8523 -0.4289 -0.2994
vn 0.8076 -0.3886 -0.4436
vn 0.9135 -0.2426 -0.3266
vn 0.9725 -0.1241 -0.1973
vn 0.9959 -0.0452 -0.0786
vn 0.9996 -0.0062 0.0258
vn 0.9840 0.0052 0.1782
vn 0.9370 0.0110 0.3492
vn 0.8559 0.0121 0.5169
vn 0.7458 0.0123 0.6661
vn 0.6149 0.0132 0.7885
vn 0.4713 0.0135 0.8819
vn 0.3204 0.0098 0.9472
vn 0.1621 0.0049 0.9868
vn -0.0000 0.0022 1.0000
vn -0.1619 0.0050 0.9868
vn -0.3204 0.0099 0.9472
vn -0.4715 0.0134 0.8818
vn -0.6149 0.0133 0.7885
vn -0.7459 0.0124 0.6660
vn -0.8558 0.0122 0.5172
vn -0.9370 0.0112 0.3492
vn -0.9840 0.0051 0.1778
vn -0.9996 -0.0060 0.0258
vn -0.9959 -0.0451 -0.0786
vn -0.9724 -0.1242 -0.1974
vn -0.9135 -0.2426 -0.3266
vn -0.8076 -0.3886 -0.4436
vn -0.6560 -0.5565 -0.5099
vn -0.6888 -0.6130 -0.3871
vn -0.7123 -0.6756 -0.1900
vn -0.5439 -0.8118 -0.2126
vn -0.3628 -0.9128 -0.1876
vn -0.1849 -0.9716 -0.1474
vn -0.0815 -0.9880 -0.1309
vn 0.0815 -0.9880 -0.1309
vn 0.1851 -0.9717 -0.1471
vn 0.3627 -0.9129 -0.1874
vn 0.5438 -0.8118 -0.2126
vn 0.7123 -0.6756 -0.1900
vn 0.6888 -0.6130 -0.3871
vn 0.6559 -0.5569 -0.5096
vn 0.6400 -0.5158 -0.5695
vn 0.7746 -0.3765 -0.5082
vn 0.8784 -0.2492 -0.4077
vn 0.9470 -0.1438 -0.2873
vn 0.9864 -0.0692 -0.1490
vn 0.9998 -0.0209 0.0035
vn 0.9855 0.0027 0.1698
vn 0.9393 0.0101 0.3428
vn 0.8611 0.0120 0.5083
vn 0.7545 0.0135 0.6562
vn 0.6265 0.0164 0.7793
vn 0.4822 0.0207 0.8758
vn 0.3276 0.0216 0.9446
vn 0.1650 0.0190 0.9861
vn -0.0000 0.0159 0.9999
vn -0.1650 0.0191 0.9861
vn -0.3276 0.0213 0.9446
vn -0.4822 0.0204 0.8758
vn -0.6265 0.0168 0.7792
vn -0.7547 0.0135 0.6560
vn -0.8609 0.0120 0.5087
vn -0.9394 0.0101 0.3427
vn -0.9855 0.0029 0.1697
vn -0.9998 -0.0204 0.0037
vn -0.9864 -0.0689 -0.1494
vn -0.9469 -0.1439 -0.2876
vn -0.8784 -0.2492 -0.4077
vn -0.7746 -0.3763 -0.5083
vn -0.6404 -0.5146 -0.5701
vn -0.5030 -0.6373 -0.5839
vn -0.4880 -0.7011 -0.5199
vn -0.5056 -0.7630 -0.4027
vn -0.3332 -0.8764 -0.3478
vn -0.1630 -0.9507 -0.2637
vn -0.0774 -0.9717 -0.2234
vn 0.0775 -0.9717 -0.2233
vn 0.1628 -0.9507 -0.2638
vn 0.3330 -0.8764 -0.3478
vn 0.5055 -0.7631 -0.4028
vn 0.4879 -0.7012 -0.5199
vn 0.5029 -0.6374 -0.5838
vn 0.4252 -0.7782 -0.4621
vn 0.5652 -0.7028 -0.4319
vn 0.5669 -0.7068 -0.4232
vn 0.6924 -0.6230 -0.3640
vn 0.6967 -0.6166 -0.3666
vn 0.7949 -0.5439 -0.2690
vn 0.8000 -0.5372 -0.2673
vn 0.8702 -0.4689 -0.1510
vn 0.8754 -0.4618 -0.1426
vn 0.9141 -0.4052 -0.0123
vn 0.9168 -0.3993 0.0006
vn 0.9239 -0.3565 0.1394
vn 0.9231 -0.3525 0.1539
vn 0.9000 -0.3213 0.2945
vn 0.8960 -0.3187 0.3092
vn 0.8475 -0.2891 0.4451
vn 0.8429 -0.2882 0.4543
vn 0.7701 -0.2644 0.5806
vn 0.7641 -0.2639 0.5886
vn 0.6723 -0.2389 0.7006
vn 0.6663 -0.2385 0.7065
vn 0.5576 -0.2180 0.8010
vn 0.5516 -0.2179 0.8051
vn 0.4294 -0.2018 0.8803
vn 0.4243 -0.2016 0.8828
vn 0.2911 -0.1876 0.9381
vn 0.2871 -0.1879 0.9393
vn 0.1461 -0.1850 0.9718
vn 0.1440 -0.1855 0.9720
vn 0.0001 -0.1830 0.9831
vn -0.1450 -0.1861 0.9718
vn -0.1434 -0.1853 0.9722
vn -0.2916 -0.1883 0.9378
vn -0.2879 -0.1873 0.9392
vn -0.4287 -0.2023 0.8805
vn -0.4240 -0.2011 0.8831
vn -0.5562 -0.2207 0.8012
vn -0.5513 -0.2185 0.8052
vn -0.6718 -0.2403 0.7007
vn -0.6670 -0.2373 0.7063
vn -0.7688 -0.2659 0.5815
vn -0.7645 -0.2623 0.5889
vn -0.8457 -0.2933 0.4458
vn -0.8428 -0.2892 0.4540
vn -0.8997 -0.3225 0.2943
vn -0.8966 -0.3181 0.3081
vn -0.9229 -0.3591 0.1391
vn -0.9217 -0.3558 0.1542
vn -0.9136 -0.4063 -0.0141
vn -0.9145 -0.4045 0.0017
vn -0.8712 -0.4658 -0.1552
vn -0.8733 -0.4662 -0.1415
vn -0.7965 -0.5394 -0.2732
vn -0.7975 -0.5423 -0.2643
vn -0.6940 -0.6179 -0.3695
vn -0.6932 -0.6228 -0.3627
vn -0.5697 -0.7021 -0.4272
vn -0.5616 -0.7100 -0.4249
vn -0.4292 -0.7772 -0.4602
vn -0.4207 -0.7845 -0.4556
vn -0.2841 -0.8441 -0.4547
vn -0.2757 -0.8509 -0.4472
vn -0.3355 -0.7727 -0.5390
vn -0.3243 -0.8188 -0.4737
vn -0.1522 -0.9205 -0.3598
vn -0.0733 -0.9638 -0.2564
vn 0.0734 -0.9638 -0.2564
vn 0.1524 -0.9204 -0.3601
vn 0.3242 -0.8188 -0.4737
vn 0.3353 -0.7727 -0.5389
vn 0.2794 -0.8446 -0.4566
vn 0.4271 -0.7824 -0.4532
vn 0.3637 -0.8739 -0.3225
vn 0.4667 -0.8466 -0.2558
vn 0.3643 -0.8739 -0.3220
vn 0.4672 -0.8467 -0.2547
vn 0.5550 -0.8141 -0.1709
vn 0.5553 -0.8141 -0.1697
vn 0.6270 -0.7754 -0.0750
vn 0.6273 -0.7753 -0.0743
vn 0.6800 -0.7326 0.0308
vn 0.6801 -0.7325 0.0317
vn 0.7121 -0.6872 0.1437
vn 0.7119 -0.6872 0.1448
vn 0.7216 -0.6412 0.2609
vn 0.7211 -0.6413 0.2620
vn 0.7095 -0.5951 0.3773
vn 0.7092 -0.5950 0.3781
vn 0.6773 -0.5493 0.4893
vn 0.6768 -0.5494 0.4900
vn 0.6226 -0.5080 0.5952
vn 0.6218 -0.5082 0.5960
vn 0.5500 -0.4702 0.6902
vn 0.5493 -0.4704 0.6907
vn 0.4601 -0.4384 0.7721
vn 0.4594 -0.4383 0.7725
vn 0.3573 -0.4120 0.8382
vn 0.3577 -0.4123 0.8379
vn 0.2433 -0.3921 0.8872
vn 0.2438 -0.3923 0.8869
vn 0.1223 -0.3803 0.9168
vn 0.1228 -0.3802 0.9167
vn -0.0000 -0.3768 0.9263
vn -0.0000 -0.3771 0.9262
vn -0.1223 -0.3802 0.9168
vn -0.1228 -0.3802 0.9167
vn -0.2438 -0.3920 0.8871
vn -0.2434 -0.3918 0.8873
vn -0.3578 -0.4122 0.8379
vn -0.3574 -0.4119 0.8382
vn -0.4604 -0.4378 0.7722
vn -0.4599 -0.4376 0.7726
vn -0.5492 -0.4703 0.6908
vn -0.5500 -0.4700 0.6904
vn -0.6225 -0.5075 0.5958
vn -0.6233 -0.5073 0.5951
vn -0.6768 -0.5492 0.4903
vn -0.6774 -0.5491 0.4895
vn -0.7100 -0.5944 0.3777
vn -0.7103 -0.5944 0.3770
vn -0.7213 -0.6413 0.2619
vn -0.7216 -0.6412 0.2609
vn -0.7119 -0.6872 0.1448
vn -0.7121 -0.6872 0.1437
vn -0.6802 -0.7323 0.0320
vn -0.6802 -0.7324 0.0309
vn -0.6278 -0.7748 -0.0750
vn -0.6275 -0.7749 -0.0757
vn -0.5554 -0.8141 -0.1699
vn -0.5550 -0.8141 -0.1709
vn -0.4672 -0.8467 -0.2548
vn -0.4667 -0.8466 -0.2558
vn -0.3643 -0.8739 -0.3220
vn -0.3637 -0.8739 -0.3225
vn -0.2501 -0.8940 -0.3717
vn -0.2495 -0.8941 -0.3719
vn -0.1274 -0.9070 -0.4014
vn -0.1267 -0.9072 -0.4012
vn -0.1409 -0.8970 -0.4191
vn -0.1349 -0.9011 -0.4121
vn -0.1664 -0.8907 -0.4230
vn -0.0693 -0.9604 -0.2698
vn 0.0693 -0.9604 -0.2698
vn 0.1665 -0.8907 -0.4231
vn 0.1330 -0.8977 -0.4200
vn 0.2817 -0.8491 -0.4469
vn 0.2495 -0.8941 -0.3719
vn 0.2501 -0.8940 -0.3717
vn 0.0002 -0.9271 0.3747
vn -0.0004 -0.9273 0.3744
vn 0.0001 -0.9271 0.3748
vn -0.0002 -0.9273 0.3744
vn -0.0001 -0.9271 0.3747
vn -0.0000 -0.9271 0.3748
vn -0.0000 -0.9271 0.3747
vn -0.0000 -0.9273 0.3743
vn -0.0001 -0.9271 0.3748
vn -0.0002 -0.9271 0.3748
vn 0.0001 -0.9272 0.3746
vn 0.0006 -0.9273 0.3744
vn -0.0006 -0.9271 0.3748
vn 0.0005 -0.9272 0.3746
vn -0.0005 -0.9272 0.3746
vn 0.0006 -0.9271 0.3748
vn -0.0006 -0.9273 0.3744
vn -0.0001 -0.9272 0.3746
vn 0.0002 -0.9271 0.3748
vn 0.0001 -0.9271 0.3747
vn 0.0002 -0.9273 0.3744
vn 0.0004 -0.9273 0.3744
vn -0.0002 -0.9271 0.3747
vn -0.0642 -0.9089 -0.4120
vn -0.0639 -0.9092 -0.4115
vn -0.0696 -0.9168 -0.3931
vn -0.0706 -0.9189 -0.3881
vn 0.0617 -0.9195 -0.3883
vn 0.0635 -0.9171 -0.3935
vn 0.1355 -0.9009 -0.4122
vn 0.1267 -0.9072 -0.4012
vn 0.1274 -0.9070 -0.4014
vn 0.0642 -0.9089 -0.4120
vn 0.0639 -0.9092 -0.4115
vn 0.4998 -0.0000 -0.8661
vn 0.3421 -0.0000 -0.9397
vn 0.1737 -0.0000 -0.9848
vn 0.0869 -0.0000 -0.9962
vn -0.0868 -0.0000 -0.9962
vn -0.1736 -0.0000 -0.9848
vn -0.3421 -0.0000 -0.9397
vn -0.4998 -0.0000 -0.8661
vn -0.6427 -0.0000 -0.7661
vn -0.7661 -0.0000 -0.6427
vn -0.8661 -0.0000 -0.4998
vn -0.9397 -0.0000 -0.3421
vn -0.9848 -0.0000 -0.1736
vn -1.0000 -0.0000 -0.0000
vn -0.9848 -0.0000 0.1737
vn -0.9397 -0.0000 0.3421
vn -0.8661 -0.0000 0.4998
vn -0.7661 -0.0000 0.6427
vn -0.7661 -0.0000 0.6428
vn -0.6427 -0.0000 0.7661
vn -0.4998 -0.0000 0.8661
vn -0.3421 -0.0000 0.9397
vn -0.1736 -0.0000 0.9848
vn -0.0000 -0.0000 1.0000
vn 0.1737 -0.0000 0.9848
vn 0.3421 -0.0000 0.9397
vn 0.4998 -0.0000 0.8661
vn 0.6427 -0.0000 0.7661
vn 0.7661 -0.0000 0.6427
vn 0.8661 -0.0000 0.4998
vn 0.9397 -0.0000 0.3421
vn 0.9848 -0.0000 0.1737
vn 1.0000 -0.0000 -0.0000
vn 0.9848 -0.0000 -0.1736
vn 0.9397 -0.0000 -0.3421
vn -0.0000 -1.0000 -0.0000
vn 0.6427 -0.0000 -0.7661
vn -0.0005 1.0000 -0.0005
vn 0.0001 1.0000 -0.0001
vn -0.0000 1.0000 -0.0001
vn -0.0001 1.0000 -0.0001
vn 0.0005 1.0000 -0.0005
vn 0.8661 -0.0000 -0.4998
vn 0.7661 -0.0000 -0.6427
vt 0.644491 0.416872
vt 0.642078 0.422626
vt 0.639572 0.420863
vt 0.636880 0.425968
vt 0.634838 0.424297
vt 0.631961 0.428938
vt 0.630105 0.427081
vt 0.627321 0.248883
vt 0.627321 0.431908
vt 0.625557 0.430144
vt 0.625557 0.250646
vt 0.630105 0.253709
vt 0.631961 0.251853
vt 0.634838 0.256493
vt 0.636880 0.254823
vt 0.639572 0.259927
vt 0.644491 0.263918
vt 0.642078 0.258164
vt 0.644212 0.256122
vt 0.638551 0.253059
vt 0.633260 0.250368
vt 0.628341 0.247769
vt 0.628341 0.433021
vt 0.633260 0.430423
vt 0.638551 0.427731
vt 0.644212 0.424668
vt 0.650709 0.421234
vt 0.649224 0.417893
vt 0.649503 0.412324
vt 0.955967 0.863112
vt 0.638551 0.404807
vt 0.950492 0.864133
vt 0.637808 0.409633
vt 0.945016 0.864133
vt 0.945016 0.864133
vt 0.636695 0.414274
vt 0.939540 0.863112
vt 0.939540 0.863112
vt 0.635117 0.418636
vt 0.934342 0.861256
vt 0.934342 0.861256
vt 0.632611 0.422626
vt 0.929609 0.858471
vt 0.929609 0.858471
vt 0.629084 0.426153
vt 0.925340 0.854944
vt 0.624907 0.251203
vt 0.624907 0.429587
vt 0.921813 0.850768
vt 0.921813 0.850768
vt 0.629084 0.254544
vt 0.919028 0.845942
vt 0.919028 0.845942
vt 0.632611 0.258164
vt 0.917172 0.840744
vt 0.635117 0.262155
vt 0.916244 0.835268
vt 0.636695 0.266517
vt 0.916244 0.829792
vt 0.637808 0.271158
vt 0.917172 0.824316
vt 0.638551 0.275984
vt 0.649503 0.268466
vt 0.649224 0.262897
vt 0.650709 0.259556
vt 0.658691 0.257607
vt 0.652565 0.255194
vt 0.646533 0.252688
vt 0.640778 0.250089
vt 0.635117 0.247398
vt 0.629548 0.244985
vt 0.629548 0.435806
vt 0.635117 0.433393
vt 0.640778 0.430701
vt 0.646533 0.428102
vt 0.652565 0.425504
vt 0.658691 0.423183
vt 0.664724 0.420956
vt 0.657484 0.417336
vt 0.655907 0.412881
vt 0.654700 0.407313
vt 0.638829 0.399888
vt 0.961165 0.861256
vt 0.961165 0.861256
vt 0.947800 0.832577
vt 0.947800 0.832577
vt 0.947800 0.832577
vt 0.947800 0.832577
vt 0.947800 0.832577
vt 0.947800 0.832577
vt 0.947800 0.832577
vt 0.947800 0.832577
vt 0.947800 0.832577
vt 0.947800 0.832577
vt 0.947800 0.832577
vt 0.947800 0.832577
vt 0.947800 0.832577
vt 0.947800 0.832577
vt 0.947800 0.832577
vt 0.947800 0.832577
vt 0.947800 0.832577
vt 0.947800 0.832577
vt 0.947800 0.832577
vt 0.947800 0.832577
vt 0.919028 0.819119
vt 0.919028 0.819119
vt 0.638829 0.280903
vt 0.654700 0.273478
vt 0.655907 0.267909
vt 0.657484 0.263454
vt 0.664724 0.259834
vt 0.954668 0.236631
vt 0.954668 0.236631
vt 0.672056 0.244520
vt 0.960701 0.237838
vt 0.960701 0.237838
vt 0.666209 0.244149
vt 0.966455 0.240251
vt 0.966455 0.240251
vt 0.660547 0.243685
vt 0.971653 0.243685
vt 0.971653 0.243685
vt 0.654886 0.242850
vt 0.976015 0.248047
vt 0.976015 0.248047
vt 0.649410 0.241643
vt 0.979449 0.253245
vt 0.979449 0.253245
vt 0.643934 0.239973
vt 0.981769 0.258999
vt 0.981769 0.258999
vt 0.638365 0.238024
vt 0.982976 0.265032
vt 0.982976 0.265032
vt 0.632797 0.444901
vt 0.632797 0.235889
vt 0.982976 0.271158
vt 0.982976 0.271158
vt 0.638365 0.442767
vt 0.981862 0.277283
vt 0.981862 0.277283
vt 0.643934 0.440818
vt 0.979542 0.283037
vt 0.979542 0.283037
vt 0.649410 0.439147
vt 0.976108 0.288235
vt 0.976108 0.288235
vt 0.654886 0.437941
vt 0.971745 0.292597
vt 0.971745 0.292597
vt 0.660547 0.437105
vt 0.966548 0.296124
vt 0.966548 0.296124
vt 0.666209 0.436641
vt 0.960794 0.298444
vt 0.960794 0.298444
vt 0.672056 0.436270
vt 0.954761 0.299744
vt 0.954761 0.299744
vt 0.677996 0.436084
vt 0.677068 0.415851
vt 0.670849 0.418821
vt 0.664724 0.412974
vt 0.663332 0.407127
vt 0.659990 0.401929
vt 0.965898 0.858471
vt 0.639015 0.394783
vt 0.965898 0.858471
vt 0.638922 0.389585
vt 0.970168 0.854944
vt 0.638922 0.384295
vt 0.973695 0.850768
vt 0.976479 0.845942
vt 0.638829 0.378912
vt 0.976479 0.845942
vt 0.978335 0.840744
vt 0.638736 0.373529
vt 0.978335 0.840744
vt 0.638736 0.368053
vt 0.979356 0.835268
vt 0.979356 0.829792
vt 0.638644 0.362484
vt 0.979356 0.829792
vt 0.978335 0.824316
vt 0.638644 0.356916
vt 0.978335 0.824316
vt 0.976479 0.819119
vt 0.638644 0.351440
vt 0.976479 0.819119
vt 0.638644 0.345871
vt 0.973695 0.814386
vt 0.638644 0.340395
vt 0.970168 0.810116
vt 0.638644 0.334919
vt 0.965898 0.806589
vt 0.638644 0.329351
vt 0.961165 0.803805
vt 0.955967 0.801949
vt 0.638644 0.323782
vt 0.955967 0.801949
vt 0.950492 0.801021
vt 0.638644 0.318306
vt 0.950492 0.801021
vt 0.945016 0.801021
vt 0.638736 0.312737
vt 0.945016 0.801021
vt 0.638736 0.307261
vt 0.939540 0.801949
vt 0.934342 0.803805
vt 0.638829 0.301878
vt 0.934342 0.803805
vt 0.929609 0.806589
vt 0.638922 0.296495
vt 0.929609 0.806589
vt 0.638922 0.291205
vt 0.925340 0.810116
vt 0.921813 0.814386
vt 0.921813 0.814386
vt 0.639015 0.286007
vt 0.659990 0.278861
vt 0.663332 0.273663
vt 0.664724 0.267816
vt 0.670849 0.261969
vt 0.677068 0.264939
vt 0.948450 0.236631
vt 0.948450 0.236631
vt 0.677996 0.244706
vt 0.683379 0.264568
vt 0.683936 0.244892
vt 0.942324 0.237838
vt 0.942324 0.237838
vt 0.951513 0.268187
vt 0.951513 0.268187
vt 0.951513 0.268187
vt 0.951513 0.268187
vt 0.951513 0.268187
vt 0.951513 0.268187
vt 0.951513 0.268187
vt 0.951513 0.268187
vt 0.951513 0.268187
vt 0.951513 0.268187
vt 0.951513 0.268187
vt 0.951513 0.268187
vt 0.951513 0.268187
vt 0.951513 0.268187
vt 0.951513 0.268187
vt 0.951513 0.268187
vt 0.951513 0.268187
vt 0.951513 0.268187
vt 0.951513 0.268187
vt 0.951513 0.268187
vt 0.951513 0.268187
vt 0.951513 0.268187
vt 0.951513 0.268187
vt 0.951513 0.268187
vt 0.951513 0.268187
vt 0.951513 0.268187
vt 0.951513 0.268187
vt 0.951513 0.268187
vt 0.951513 0.268187
vt 0.951513 0.268187
vt 0.951513 0.268187
vt 0.951513 0.268187
vt 0.948543 0.299744
vt 0.948543 0.299744
vt 0.683936 0.435899
vt 0.683379 0.416223
vt 0.683101 0.408055
vt 0.676696 0.407127
vt 0.670664 0.409354
vt 0.669643 0.401929
vt 0.665374 0.396361
vt 0.665374 0.390606
vt 0.665281 0.384852
vt 0.665281 0.379191
vt 0.665188 0.373529
vt 0.665188 0.367867
vt 0.665188 0.362206
vt 0.665095 0.356730
vt 0.665095 0.351254
vt 0.665095 0.345778
vt 0.665095 0.340395
vt 0.665095 0.335012
vt 0.665095 0.329536
vt 0.665095 0.324060
vt 0.665188 0.318584
vt 0.665188 0.312923
vt 0.665188 0.307261
vt 0.665281 0.301600
vt 0.665281 0.295938
vt 0.665374 0.290184
vt 0.665374 0.284430
vt 0.669643 0.278861
vt 0.670664 0.271436
vt 0.676696 0.273663
vt 0.683101 0.272735
vt 0.689597 0.269580
vt 0.689690 0.262990
vt 0.936570 0.240251
vt 0.689969 0.244892
vt 0.936570 0.240251
vt 0.931372 0.243685
vt 0.696094 0.244799
vt 0.931372 0.243685
vt 0.927010 0.248047
vt 0.702313 0.244520
vt 0.927010 0.248047
vt 0.923576 0.253245
vt 0.708624 0.244335
vt 0.923576 0.253245
vt 0.921163 0.258999
vt 0.714935 0.244056
vt 0.921163 0.258999
vt 0.919957 0.265032
vt 0.721153 0.243778
vt 0.919957 0.265032
vt 0.919957 0.271343
vt 0.727465 0.243685
vt 0.727465 0.437105
vt 0.919957 0.271343
vt 0.921163 0.277469
vt 0.721153 0.437012
vt 0.921163 0.277469
vt 0.923576 0.283223
vt 0.714935 0.436734
vt 0.923576 0.283223
vt 0.927103 0.288328
vt 0.708624 0.436456
vt 0.927103 0.288328
vt 0.931465 0.292783
vt 0.702313 0.436177
vt 0.931465 0.292783
vt 0.936663 0.296217
vt 0.696094 0.435991
vt 0.936663 0.296217
vt 0.942417 0.298537
vt 0.942417 0.298537
vt 0.689969 0.435899
vt 0.689690 0.417800
vt 0.689597 0.411211
vt 0.691825 0.407127
vt 0.683193 0.401929
vt 0.676325 0.396361
vt 0.676232 0.390514
vt 0.676140 0.384852
vt 0.676047 0.379098
vt 0.676047 0.373436
vt 0.676047 0.367867
vt 0.676047 0.362206
vt 0.676047 0.356730
vt 0.676047 0.351161
vt 0.676047 0.345778
vt 0.675954 0.340395
vt 0.676047 0.335012
vt 0.676047 0.329536
vt 0.676047 0.324060
vt 0.676047 0.318584
vt 0.676047 0.312923
vt 0.676047 0.307354
vt 0.676047 0.301693
vt 0.676140 0.295938
vt 0.676232 0.290184
vt 0.676325 0.284430
vt 0.683193 0.278861
vt 0.691825 0.273663
vt 0.698786 0.269580
vt 0.697115 0.266239
vt 0.696094 0.261134
vt 0.702405 0.259463
vt 0.708624 0.257885
vt 0.714935 0.256772
vt 0.721246 0.255936
vt 0.727465 0.255472
vt 0.727465 0.425318
vt 0.721246 0.424854
vt 0.714935 0.424019
vt 0.708624 0.422812
vt 0.702405 0.421327
vt 0.696094 0.419657
vt 0.697115 0.414552
vt 0.698786 0.411211
vt 0.702591 0.408705
vt 0.697765 0.404435
vt 0.692289 0.399516
vt 0.687741 0.394412
vt 0.686535 0.389029
vt 0.685421 0.383646
vt 0.684400 0.378262
vt 0.683472 0.372972
vt 0.682636 0.367496
vt 0.681894 0.362113
vt 0.681337 0.356637
vt 0.680873 0.351254
vt 0.680595 0.345778
vt 0.680502 0.340395
vt 0.680595 0.335012
vt 0.680873 0.329536
vt 0.681337 0.324060
vt 0.681894 0.318677
vt 0.682636 0.313201
vt 0.683472 0.307818
vt 0.684400 0.302435
vt 0.685421 0.297145
vt 0.686535 0.291762
vt 0.687741 0.286379
vt 0.692289 0.281274
vt 0.697765 0.276355
vt 0.702591 0.272086
vt 0.707789 0.268095
vt 0.706025 0.265774
vt 0.704262 0.263269
vt 0.710202 0.261319
vt 0.716142 0.259834
vt 0.721989 0.258814
vt 0.727743 0.258164
vt 0.727743 0.422626
vt 0.721989 0.421977
vt 0.716142 0.420956
vt 0.710202 0.419471
vt 0.704262 0.417522
vt 0.706025 0.415016
vt 0.707789 0.412696
vt 0.709088 0.410932
vt 0.709088 0.410932
vt 0.705839 0.406570
vt 0.705839 0.406570
vt 0.703055 0.402022
vt 0.703055 0.402022
vt 0.700642 0.397196
vt 0.700642 0.397196
vt 0.698322 0.392370
vt 0.698322 0.392370
vt 0.696187 0.387544
vt 0.696187 0.387544
vt 0.694052 0.382625
vt 0.694052 0.382625
vt 0.692103 0.377613
vt 0.692103 0.377613
vt 0.690247 0.372508
vt 0.690247 0.372508
vt 0.688576 0.367311
vt 0.688576 0.367311
vt 0.687184 0.362113
vt 0.687184 0.362113
vt 0.685978 0.356730
vt 0.685978 0.356730
vt 0.685050 0.351254
vt 0.685050 0.351254
vt 0.684586 0.345778
vt 0.684586 0.345778
vt 0.684400 0.340395
vt 0.684400 0.340395
vt 0.684586 0.335012
vt 0.684586 0.335012
vt 0.685050 0.329536
vt 0.685050 0.329536
vt 0.685978 0.324060
vt 0.685978 0.324060
vt 0.687184 0.318677
vt 0.687184 0.318677
vt 0.688576 0.313480
vt 0.688576 0.313480
vt 0.690247 0.308282
vt 0.690247 0.308282
vt 0.692103 0.303178
vt 0.692103 0.303178
vt 0.694052 0.298166
vt 0.694052 0.298166
vt 0.696187 0.293247
vt 0.696187 0.293247
vt 0.698322 0.288420
vt 0.698322 0.288420
vt 0.700642 0.283594
vt 0.700642 0.283594
vt 0.703055 0.278768
vt 0.703055 0.278768
vt 0.705839 0.274220
vt 0.705839 0.274220
vt 0.709088 0.269858
vt 0.709088 0.269858
vt 0.712986 0.266053
vt 0.712986 0.266053
vt 0.712429 0.265032
vt 0.711501 0.263361
vt 0.717070 0.261505
vt 0.722546 0.260298
vt 0.728022 0.259556
vt 0.728022 0.421234
vt 0.722546 0.420492
vt 0.717070 0.419285
vt 0.711501 0.417429
vt 0.712429 0.415758
vt 0.712986 0.414645
vt 0.712986 0.414645
vt 0.710016 0.410004
vt 0.710016 0.410004
vt 0.706860 0.405827
vt 0.706860 0.405827
vt 0.704169 0.401373
vt 0.704169 0.401373
vt 0.701756 0.396732
vt 0.701756 0.396732
vt 0.699528 0.391999
vt 0.699528 0.391999
vt 0.697394 0.387172
vt 0.697394 0.387172
vt 0.695352 0.382253
vt 0.695352 0.382253
vt 0.693403 0.377241
vt 0.693403 0.377241
vt 0.691546 0.372230
vt 0.691546 0.372230
vt 0.689969 0.367032
vt 0.689969 0.367032
vt 0.688484 0.361835
vt 0.688484 0.361835
vt 0.687277 0.356544
vt 0.687277 0.356544
vt 0.686442 0.351161
vt 0.686442 0.351161
vt 0.685885 0.345778
vt 0.685885 0.345778
vt 0.685699 0.340395
vt 0.685699 0.340395
vt 0.685885 0.335012
vt 0.685885 0.335012
vt 0.686442 0.329629
vt 0.686442 0.329629
vt 0.687277 0.324246
vt 0.687277 0.324246
vt 0.688484 0.318956
vt 0.688484 0.318956
vt 0.689969 0.313758
vt 0.689969 0.313758
vt 0.691546 0.308561
vt 0.691546 0.308561
vt 0.693403 0.303549
vt 0.693403 0.303549
vt 0.695352 0.298537
vt 0.695352 0.298537
vt 0.697394 0.293618
vt 0.697394 0.293618
vt 0.699528 0.288792
vt 0.699528 0.288792
vt 0.701756 0.284058
vt 0.701756 0.284058
vt 0.704169 0.279418
vt 0.704169 0.279418
vt 0.706860 0.274963
vt 0.706860 0.274963
vt 0.710016 0.270786
vt 0.710016 0.270786
vt 0.713728 0.267167
vt 0.713728 0.267167
vt 0.718276 0.264475
vt 0.718276 0.264475
vt 0.717719 0.263269
vt 0.717719 0.263269
vt 0.717441 0.262712
vt 0.722731 0.261227
vt 0.728207 0.260206
vt 0.728207 0.420585
vt 0.722731 0.419564
vt 0.717441 0.418079
vt 0.717719 0.417522
vt 0.717719 0.417522
vt 0.713728 0.413624
vt 0.713728 0.413624
vt 0.720411 0.954346
vt 0.715306 0.411489
vt 0.723010 0.949984
vt 0.711872 0.408241
vt 0.726351 0.946086
vt 0.708995 0.404343
vt 0.730249 0.942744
vt 0.706396 0.400073
vt 0.734704 0.940238
vt 0.704076 0.395525
vt 0.739530 0.938475
vt 0.701849 0.390885
vt 0.744542 0.937640
vt 0.699714 0.386059
vt 0.749647 0.937640
vt 0.697672 0.381232
vt 0.754659 0.938475
vt 0.695723 0.376313
vt 0.759485 0.940238
vt 0.693960 0.371394
vt 0.763940 0.942837
vt 0.692382 0.366290
vt 0.767838 0.946178
vt 0.690989 0.361185
vt 0.771086 0.950077
vt 0.689783 0.355988
vt 0.773685 0.954531
vt 0.688948 0.350790
vt 0.775356 0.959358
vt 0.688391 0.345593
vt 0.776284 0.964277
vt 0.688298 0.340395
vt 0.776284 0.969289
vt 0.688391 0.335198
vt 0.775448 0.974300
vt 0.688948 0.330000
vt 0.773685 0.979127
vt 0.689783 0.324803
vt 0.771179 0.983582
vt 0.690989 0.319605
vt 0.767838 0.987480
vt 0.692382 0.314501
vt 0.763940 0.990821
vt 0.693960 0.309396
vt 0.759578 0.993420
vt 0.695723 0.304477
vt 0.754751 0.995183
vt 0.697672 0.299558
vt 0.749739 0.996111
vt 0.699714 0.294732
vt 0.744635 0.996111
vt 0.701849 0.289905
vt 0.739530 0.995276
vt 0.704076 0.285265
vt 0.734704 0.993512
vt 0.706396 0.280717
vt 0.730249 0.991006
vt 0.708995 0.276448
vt 0.726351 0.987665
vt 0.711872 0.272550
vt 0.723010 0.983767
vt 0.715306 0.269208
vt 0.720504 0.979405
vt 0.719390 0.266795
vt 0.718740 0.974579
vt 0.724031 0.265125
vt 0.723288 0.262712
vt 0.723288 0.262712
vt 0.722917 0.261412
vt 0.722917 0.261412
vt 0.728393 0.260206
vt 0.728393 0.420585
vt 0.728393 0.420585
vt 0.728393 0.260206
vt 0.722917 0.419378
vt 0.722917 0.419378
vt 0.718276 0.416315
vt 0.718276 0.416315
vt 0.719390 0.413995
vt 0.718647 0.959172
vt 0.747048 0.966875
vt 0.717812 0.969474
vt 0.729135 0.416779
vt 0.729135 0.264011
vt 0.728671 0.261505
vt 0.728671 0.419285
vt 0.728671 0.419285
vt 0.728671 0.261505
vt 0.723288 0.418079
vt 0.723288 0.418079
vt 0.717812 0.964184
vt 0.724031 0.415666
vt 0.526788 0.940453
vt 0.547242 0.462877
vt 0.959725 0.116730
vt 0.534020 0.462877
vt 0.527805 0.945877
vt 0.547242 0.457339
vt 0.964924 0.114809
vt 0.534020 0.457339
vt 0.527805 0.951415
vt 0.547242 0.451802
vt 0.969670 0.112097
vt 0.534020 0.451802
vt 0.526788 0.956839
vt 0.547242 0.645047
vt 0.547242 0.446264
vt 0.973964 0.108593
vt 0.534020 0.446264
vt 0.534020 0.645047
vt 0.977468 0.104299
vt 0.534020 0.639510
vt 0.524866 0.962038
vt 0.547242 0.639510
vt 0.980180 0.099553
vt 0.534020 0.633972
vt 0.522154 0.966897
vt 0.547242 0.633972
vt 0.982101 0.094354
vt 0.534020 0.628548
vt 0.518651 0.971078
vt 0.547242 0.628548
vt 0.983118 0.088930
vt 0.534020 0.623011
vt 0.514356 0.974582
vt 0.547242 0.623011
vt 0.983118 0.083392
vt 0.534020 0.617473
vt 0.509610 0.977407
vt 0.547242 0.617473
vt 0.982101 0.077968
vt 0.534020 0.611936
vt 0.504412 0.979328
vt 0.547242 0.611936
vt 0.980180 0.072769
vt 0.534020 0.606398
vt 0.498987 0.980232
vt 0.547242 0.606398
vt 0.977468 0.067910
vt 0.534020 0.600861
vt 0.493450 0.980232
vt 0.547242 0.600861
vt 0.973964 0.063729
vt 0.534020 0.595323
vt 0.488025 0.979328
vt 0.547242 0.595323
vt 0.969670 0.060225
vt 0.534020 0.589786
vt 0.482827 0.977407
vt 0.547242 0.589786
vt 0.964924 0.057400
vt 0.534020 0.584361
vt 0.477968 0.974582
vt 0.547242 0.584361
vt 0.959725 0.055479
vt 0.534020 0.578824
vt 0.473786 0.971078
vt 0.547242 0.578824
vt 0.954301 0.054575
vt 0.534020 0.573287
vt 0.470283 0.966897
vt 0.547242 0.573287
vt 0.948763 0.054575
vt 0.534020 0.567749
vt 0.467458 0.962038
vt 0.467458 0.962038
vt 0.547242 0.567749
vt 0.943339 0.055479
vt 0.534020 0.562212
vt 0.465537 0.956839
vt 0.547242 0.562212
vt 0.938141 0.057400
vt 0.534020 0.556674
vt 0.464633 0.951415
vt 0.464633 0.951415
vt 0.547242 0.556674
vt 0.933394 0.060225
vt 0.534020 0.551137
vt 0.464633 0.945877
vt 0.547242 0.551137
vt 0.929100 0.063729
vt 0.534020 0.545712
vt 0.465537 0.940453
vt 0.547242 0.545712
vt 0.467458 0.935255
vt 0.547242 0.540175
vt 0.925597 0.067910
vt 0.534020 0.540175
vt 0.470283 0.930508
vt 0.470283 0.930508
vt 0.547242 0.534638
vt 0.922771 0.072769
vt 0.534020 0.534638
vt 0.473786 0.926214
vt 0.547242 0.529100
vt 0.920963 0.077968
vt 0.534020 0.529100
vt 0.477968 0.922711
vt 0.477968 0.922711
vt 0.547242 0.523563
vt 0.919946 0.083392
vt 0.534020 0.523563
vt 0.482827 0.919998
vt 0.547242 0.518025
vt 0.919946 0.088930
vt 0.534020 0.518025
vt 0.488025 0.918077
vt 0.547242 0.512488
vt 0.920963 0.094354
vt 0.534020 0.512488
vt 0.493450 0.917060
vt 0.547242 0.507063
vt 0.922771 0.099553
vt 0.534020 0.507063
vt 0.498987 0.917060
vt 0.547242 0.501526
vt 0.925597 0.104299
vt 0.534020 0.501526
vt 0.504412 0.918077
vt 0.547242 0.495988
vt 0.929100 0.108593
vt 0.534020 0.495988
vt 0.509610 0.919998
vt 0.547242 0.490451
vt 0.933394 0.112097
vt 0.534020 0.490451
vt 0.514356 0.922711
vt 0.547242 0.484913
vt 0.534020 0.484913
vt 0.938141 0.114809
vt 0.951476 0.086105
vt 0.954301 0.117747
vt 0.534020 0.468301
vt 0.547242 0.468301
vt 0.524866 0.935255
vt 0.496162 0.948703
vt 0.496162 0.948703
vt 0.496162 0.948703
vt 0.496162 0.948703
vt 0.518651 0.926214
vt 0.547242 0.479376
vt 0.534020 0.479376
vt 0.943339 0.116730
vt 0.948763 0.117747
vt 0.534020 0.473839
vt 0.522154 0.930508
vt 0.547242 0.473839
s 1
usemtl Metal_DarkGray_002_COLOR_0.001
f 1/1/1 2/2/2 3/3/3
f 2/2/2 4/4/4 3/3/3
f 3/3/3 4/4/4 5/5/5
f 4/4/4 6/6/6 5/5/5
f 5/5/5 6/6/6 7/7/7
f 6/6/6 9/9/8 7/7/7
f 7/7/7 9/9/8 10/10/9
f 11/11/10 8/8/11 12/12/12
f 8/8/11 13/13/13 12/12/12
f 12/12/12 13/13/13 14/14/14
f 13/13/13 15/15/15 14/14/14
f 14/14/14 15/15/15 16/16/16
f 17/17/17 16/16/16 18/18/18
f 16/16/16 15/15/15 18/18/18
f 18/18/18 15/15/15 19/19/19
f 19/19/19 15/15/15 20/20/20
f 15/15/15 13/13/13 20/20/20
f 20/20/20 13/13/13 21/21/21
f 21/21/21 13/13/13 22/22/22
f 13/13/13 8/8/11 22/22/22
f 9/9/8 6/6/6 23/23/23
f 23/23/23 6/6/6 24/24/24
f 24/24/24 6/6/6 25/25/25
f 6/6/6 4/4/4 25/25/25
f 25/25/25 4/4/4 26/26/26
f 4/4/4 2/2/2 26/26/26
f 26/26/26 2/2/2 27/27/27
f 27/27/27 2/2/2 28/28/28
f 2/2/2 1/1/1 28/28/28
f 28/28/28 1/1/1 29/29/29
f 31/31/30 29/29/29 33/33/31
f 29/29/29 1/1/1 33/33/31
f 33/33/31 1/1/1 36/36/32
f 1/1/1 3/3/3 36/36/32
f 36/36/32 3/3/3 39/39/33
f 3/3/3 5/5/5 39/39/33
f 39/39/33 5/5/5 42/42/34
f 5/5/5 7/7/7 42/42/34
f 42/42/34 7/7/7 45/45/35
f 7/7/7 10/10/9 45/45/35
f 45/45/35 10/10/9 48/48/36
f 47/47/37 11/11/10 51/51/38
f 11/11/10 12/12/12 51/51/38
f 51/51/38 12/12/12 54/54/39
f 12/12/12 14/14/14 54/54/39
f 54/54/39 14/14/14 56/56/40
f 14/14/14 16/16/16 56/56/40
f 56/56/40 16/16/16 58/58/41
f 16/16/16 17/17/17 58/58/41
f 58/58/41 17/17/17 60/60/42
f 62/62/43 60/60/42 63/63/44
f 60/60/42 17/17/17 63/63/44
f 63/63/44 17/17/17 64/64/45
f 17/17/17 18/18/18 64/64/45
f 64/64/45 18/18/18 65/65/46
f 18/18/18 19/19/19 65/65/46
f 66/66/47 65/65/46 67/67/48
f 65/65/46 19/19/19 67/67/48
f 67/67/48 19/19/19 68/68/49
f 19/19/19 20/20/20 68/68/49
f 68/68/49 20/20/20 69/69/50
f 20/20/20 21/21/21 69/69/50
f 69/69/50 21/21/21 70/70/51
f 70/70/51 21/21/21 71/71/52
f 21/21/21 22/22/22 71/71/52
f 23/23/23 24/24/24 72/72/53
f 72/72/53 24/24/24 73/73/54
f 73/73/54 24/24/24 74/74/55
f 24/24/24 25/25/25 74/74/55
f 74/74/55 25/25/25 75/75/56
f 25/25/25 26/26/26 75/75/56
f 75/75/56 26/26/26 76/76/57
f 26/26/26 27/27/27 76/76/57
f 76/76/57 27/27/27 77/77/58
f 78/78/59 77/77/58 79/79/60
f 77/77/58 27/27/27 79/79/60
f 27/27/27 28/28/28 79/79/60
f 79/79/60 28/28/28 80/80/61
f 28/28/28 29/29/29 80/80/61
f 80/80/61 29/29/29 81/81/62
f 29/29/29 31/31/30 81/81/62
f 81/81/62 31/31/30 82/82/63
s 0
f 84/84/64 30/30/64 90/90/64
f 30/30/64 32/32/64 90/90/64
f 32/32/64 34/34/64 90/90/64
f 35/35/64 37/37/64 89/89/64
f 38/38/64 40/40/64 88/88/64
f 41/41/64 43/43/64 87/87/64
f 44/44/64 46/46/64 86/86/64
f 46/46/64 49/49/64 86/86/64
f 50/50/64 52/52/64 85/85/64
f 53/53/64 55/55/64 104/104/64
f 55/55/64 57/57/64 104/104/64
f 57/57/64 59/59/64 104/104/64
f 59/59/64 61/61/64 104/104/64
f 104/104/64 61/61/64 105/105/64
s 1
f 107/107/65 62/62/43 108/108/66
f 62/62/43 63/63/44 108/108/66
f 108/108/66 63/63/44 109/109/67
f 63/63/44 64/64/45 109/109/67
f 109/109/67 64/64/45 110/110/68
f 64/64/45 65/65/46 110/110/68
f 65/65/46 66/66/47 110/110/68
f 110/110/68 66/66/47 111/111/69
f 114/114/70 111/111/69 117/117/71
f 111/111/69 66/66/47 117/117/71
f 117/117/71 66/66/47 120/120/72
f 66/66/47 67/67/48 120/120/72
f 120/120/72 67/67/48 123/123/73
f 67/67/48 68/68/49 123/123/73
f 123/123/73 68/68/49 126/126/74
f 68/68/49 69/69/50 126/126/74
f 126/126/74 69/69/50 129/129/75
f 69/69/50 70/70/51 129/129/75
f 129/129/75 70/70/51 132/132/76
f 132/132/76 70/70/51 136/136/77
f 70/70/51 71/71/52 136/136/77
f 72/72/53 73/73/54 135/135/78
f 135/135/78 73/73/54 139/139/79
f 139/139/79 73/73/54 142/142/80
f 73/73/54 74/74/55 142/142/80
f 142/142/80 74/74/55 145/145/81
f 74/74/55 75/75/56 145/145/81
f 145/145/81 75/75/56 148/148/82
f 75/75/56 76/76/57 148/148/82
f 148/148/82 76/76/57 151/151/83
f 76/76/57 77/77/58 151/151/83
f 151/151/83 77/77/58 154/154/84
f 77/77/58 78/78/59 154/154/84
f 154/154/84 78/78/59 157/157/85
f 160/160/86 157/157/85 161/161/87
f 161/161/87 157/157/85 162/162/88
f 157/157/85 78/78/59 162/162/88
f 162/162/88 78/78/59 163/163/89
f 78/78/59 79/79/60 163/163/89
f 79/79/60 80/80/61 163/163/89
f 163/163/89 80/80/61 164/164/90
f 80/80/61 81/81/62 164/164/90
f 164/164/90 81/81/62 165/165/91
f 81/81/62 82/82/63 165/165/91
f 165/165/91 82/82/63 167/167/92
s 0
f 83/83/64 91/91/64 166/166/64
f 168/168/64 92/92/64 170/170/64
f 170/170/64 92/92/64 172/172/64
f 172/172/64 92/92/64 173/173/64
f 175/175/64 93/93/64 176/176/64
f 178/178/64 94/94/64 180/180/64
f 180/180/64 94/94/64 181/181/64
f 183/183/64 95/95/64 184/184/64
f 186/186/64 96/96/64 187/187/64
f 189/189/64 97/97/64 191/191/64
f 191/191/64 97/97/64 193/193/64
f 193/193/64 97/97/64 195/195/64
f 195/195/64 97/97/64 197/197/64
f 197/197/64 97/97/64 198/198/64
f 200/200/64 98/98/64 201/201/64
f 203/203/64 99/99/64 204/204/64
f 206/206/64 100/100/64 208/208/64
f 208/208/64 100/100/64 209/209/64
f 211/211/64 101/101/64 212/212/64
f 214/214/64 102/102/64 216/216/64
f 216/216/64 102/102/64 218/218/64
f 103/103/64 106/106/64 217/217/64
s 1
f 219/219/93 107/107/65 220/220/94
f 107/107/65 108/108/66 220/220/94
f 220/220/94 108/108/66 221/221/95
f 108/108/66 109/109/67 221/221/95
f 221/221/95 109/109/67 222/222/96
f 109/109/67 110/110/68 222/222/96
f 110/110/68 111/111/69 222/222/96
f 222/222/96 111/111/69 223/223/97
f 111/111/69 114/114/70 223/223/97
f 223/223/97 114/114/70 224/224/98
f 114/114/70 227/227/99 224/224/98
f 228/228/100 224/224/98 229/229/101
f 224/224/98 227/227/99 229/229/101
s 0
f 231/231/102 225/225/102 248/248/102
f 226/226/102 112/112/102 247/247/102
f 113/113/102 115/115/102 246/246/102
f 116/116/102 118/118/102 245/245/102
f 119/119/102 121/121/102 244/244/102
f 122/122/102 124/124/102 243/243/102
f 125/125/102 127/127/102 242/242/102
f 128/128/102 130/130/102 241/241/102
f 131/131/102 133/133/102 240/240/102
f 134/134/102 137/137/102 239/239/102
f 138/138/102 140/140/102 238/238/102
f 141/141/102 143/143/102 237/237/102
f 144/144/102 146/146/102 236/236/102
f 147/147/102 149/149/102 235/235/102
f 150/150/102 152/152/102 234/234/102
f 153/153/102 155/155/102 233/233/102
f 156/156/102 158/158/102 232/232/102
f 263/263/102 159/159/102 264/264/102
s 1
f 160/160/86 161/161/87 266/266/103
f 266/266/103 161/161/87 267/267/104
f 268/268/105 267/267/104 269/269/106
f 267/267/104 161/161/87 269/269/106
f 161/161/87 162/162/88 269/269/106
f 269/269/106 162/162/88 270/270/107
f 162/162/88 163/163/89 270/270/107
f 163/163/89 164/164/90 270/270/107
f 270/270/107 164/164/90 271/271/108
f 164/164/90 165/165/91 271/271/108
f 271/271/108 165/165/91 272/272/109
f 165/165/91 167/167/92 272/272/109
f 272/272/109 167/167/92 273/273/110
f 167/167/92 169/169/111 273/273/110
f 273/273/110 169/169/111 274/274/112
f 169/169/111 171/171/113 274/274/112
f 274/274/112 171/171/113 275/275/114
f 171/171/113 174/174/115 275/275/114
f 275/275/114 174/174/115 276/276/116
f 174/174/115 177/177/117 276/276/116
f 276/276/116 177/177/117 277/277/118
f 177/177/117 179/179/119 277/277/118
f 277/277/118 179/179/119 278/278/120
f 179/179/119 182/182/121 278/278/120
f 278/278/120 182/182/121 279/279/122
f 182/182/121 185/185/123 279/279/122
f 279/279/122 185/185/123 280/280/124
f 185/185/123 188/188/125 280/280/124
f 280/280/124 188/188/125 281/281/126
f 188/188/125 190/190/127 281/281/126
f 281/281/126 190/190/127 282/282/128
f 190/190/127 192/192/129 282/282/128
f 192/192/129 194/194/130 282/282/128
f 282/282/128 194/194/130 283/283/131
f 194/194/130 196/196/132 283/283/131
f 283/283/131 196/196/132 284/284/133
f 196/196/132 199/199/134 284/284/133
f 284/284/133 199/199/134 285/285/135
f 199/199/134 202/202/136 285/285/135
f 285/285/135 202/202/136 286/286/137
f 202/202/136 205/205/138 286/286/137
f 286/286/137 205/205/138 287/287/139
f 205/205/138 207/207/140 287/287/139
f 287/287/139 207/207/140 288/288/141
f 207/207/140 210/210/142 288/288/141
f 288/288/141 210/210/142 289/289/143
f 210/210/142 213/213/144 289/289/143
f 289/289/143 213/213/144 290/290/145
f 213/213/144 215/215/146 290/290/145
f 290/290/145 215/215/146 291/291/147
f 215/215/146 219/219/93 291/291/147
f 291/291/147 219/219/93 292/292/148
f 219/219/93 220/220/94 292/292/148
f 292/292/148 220/220/94 293/293/149
f 220/220/94 221/221/95 293/293/149
f 293/293/149 221/221/95 294/294/150
f 221/221/95 222/222/96 294/294/150
f 222/222/96 223/223/97 294/294/150
f 294/294/150 223/223/97 295/295/151
f 223/223/97 224/224/98 295/295/151
f 224/224/98 228/228/100 295/295/151
f 295/295/151 228/228/100 296/296/152
f 296/296/152 228/228/100 297/297/153
f 297/297/153 228/228/100 298/298/154
f 228/228/100 229/229/101 298/298/154
f 298/298/154 229/229/101 300/300/155
s 0
f 230/230/102 249/249/102 299/299/102
f 301/301/156 250/250/156 302/302/156
f 304/304/157 251/251/157 305/305/157
f 307/307/157 252/252/157 308/308/157
f 310/310/157 253/253/157 311/311/157
f 313/313/158 254/254/158 314/314/158
f 316/316/158 255/255/158 317/317/158
f 320/320/158 256/256/158 321/321/158
f 323/323/158 257/257/158 324/324/158
f 326/326/159 258/258/159 327/327/159
f 329/329/159 259/259/159 330/330/159
f 332/332/159 260/260/159 333/333/159
f 335/335/160 261/261/160 337/337/160
f 262/262/102 265/265/102 336/336/102
s 1
f 338/338/161 266/266/103 339/339/162
f 266/266/103 267/267/104 339/339/162
f 339/339/162 267/267/104 340/340/163
f 267/267/104 268/268/105 340/340/163
f 340/340/163 268/268/105 341/341/164
f 341/341/164 268/268/105 342/342/165
f 342/342/165 268/268/105 343/343/166
f 268/268/105 269/269/106 343/343/166
f 269/269/106 270/270/107 343/343/166
f 270/270/107 271/271/108 343/343/166
f 271/271/108 272/272/109 343/343/166
f 272/272/109 273/273/110 343/343/166
f 343/343/166 273/273/110 344/344/167
f 273/273/110 274/274/112 344/344/167
f 344/344/167 274/274/112 345/345/168
f 274/274/112 275/275/114 345/345/168
f 345/345/168 275/275/114 346/346/169
f 275/275/114 276/276/116 346/346/169
f 346/346/169 276/276/116 347/347/170
f 276/276/116 277/277/118 347/347/170
f 347/347/170 277/277/118 348/348/171
f 277/277/118 278/278/120 348/348/171
f 348/348/171 278/278/120 349/349/172
f 278/278/120 279/279/122 349/349/172
f 349/349/172 279/279/122 350/350/173
f 279/279/122 280/280/124 350/350/173
f 350/350/173 280/280/124 351/351/174
f 280/280/124 281/281/126 351/351/174
f 351/351/174 281/281/126 352/352/175
f 281/281/126 282/282/128 352/352/175
f 352/352/175 282/282/128 353/353/176
f 353/353/176 282/282/128 354/354/177
f 282/282/128 283/283/131 354/354/177
f 354/354/177 283/283/131 355/355/178
f 283/283/131 284/284/133 355/355/178
f 355/355/178 284/284/133 356/356/179
f 284/284/133 285/285/135 356/356/179
f 356/356/179 285/285/135 357/357/180
f 285/285/135 286/286/137 357/357/180
f 357/357/180 286/286/137 358/358/181
f 286/286/137 287/287/139 358/358/181
f 358/358/181 287/287/139 359/359/182
f 287/287/139 288/288/141 359/359/182
f 359/359/182 288/288/141 360/360/183
f 288/288/141 289/289/143 360/360/183
f 360/360/183 289/289/143 361/361/184
f 289/289/143 290/290/145 361/361/184
f 361/361/184 290/290/145 362/362/185
f 290/290/145 291/291/147 362/362/185
f 362/362/185 291/291/147 363/363/186
f 291/291/147 292/292/148 363/363/186
f 292/292/148 293/293/149 363/363/186
f 293/293/149 294/294/150 363/363/186
f 294/294/150 295/295/151 363/363/186
f 295/295/151 296/296/152 363/363/186
f 363/363/186 296/296/152 364/364/187
f 364/364/187 296/296/152 365/365/188
f 296/296/152 297/297/153 365/365/188
f 365/365/188 297/297/153 366/366/189
f 366/366/189 297/297/153 367/367/190
f 297/297/153 298/298/154 367/367/190
f 367/367/190 298/298/154 368/368/191
f 298/298/154 300/300/155 368/368/191
f 300/300/155 303/303/192 368/368/191
f 368/368/191 303/303/192 369/369/193
f 303/303/192 306/306/194 369/369/193
f 369/369/193 306/306/194 370/370/195
f 306/306/194 309/309/196 370/370/195
f 370/370/195 309/309/196 371/371/197
f 309/309/196 312/312/198 371/371/197
f 371/371/197 312/312/198 372/372/199
f 312/312/198 315/315/200 372/372/199
f 315/315/200 318/318/201 372/372/199
f 372/372/199 318/318/201 373/373/202
f 374/374/203 319/319/204 375/375/205
f 319/319/204 322/322/206 375/375/205
f 322/322/206 325/325/207 375/375/205
f 375/375/205 325/325/207 376/376/208
f 325/325/207 328/328/209 376/376/208
f 376/376/208 328/328/209 377/377/210
f 328/328/209 331/331/211 377/377/210
f 377/377/210 331/331/211 378/378/212
f 331/331/211 334/334/213 378/378/212
f 378/378/212 334/334/213 379/379/214
f 334/334/213 338/338/161 379/379/214
f 338/338/161 339/339/162 379/379/214
f 379/379/214 339/339/162 380/380/215
f 339/339/162 340/340/163 380/380/215
f 380/380/215 340/340/163 381/381/216
f 340/340/163 341/341/164 381/381/216
f 382/382/217 381/381/216 383/383/218
f 381/381/216 341/341/164 383/383/218
f 383/383/218 341/341/164 384/384/219
f 341/341/164 342/342/165 384/384/219
f 384/384/219 342/342/165 385/385/220
f 342/342/165 343/343/166 385/385/220
f 343/343/166 344/344/167 385/385/220
f 385/385/220 344/344/167 386/386/221
f 344/344/167 345/345/168 386/386/221
f 386/386/221 345/345/168 387/387/222
f 387/387/222 345/345/168 388/388/223
f 345/345/168 346/346/169 388/388/223
f 388/388/223 346/346/169 389/389/224
f 346/346/169 347/347/170 389/389/224
f 389/389/224 347/347/170 390/390/225
f 347/347/170 348/348/171 390/390/225
f 390/390/225 348/348/171 391/391/226
f 348/348/171 349/349/172 391/391/226
f 391/391/226 349/349/172 392/392/227
f 349/349/172 350/350/173 392/392/227
f 392/392/227 350/350/173 393/393/228
f 350/350/173 351/351/174 393/393/228
f 393/393/228 351/351/174 394/394/229
f 351/351/174 352/352/175 394/394/229
f 394/394/229 352/352/175 395/395/230
f 352/352/175 353/353/176 395/395/230
f 353/353/176 354/354/177 395/395/230
f 395/395/230 354/354/177 396/396/231
f 354/354/177 355/355/178 396/396/231
f 396/396/231 355/355/178 397/397/232
f 355/355/178 356/356/179 397/397/232
f 397/397/232 356/356/179 398/398/233
f 356/356/179 357/357/180 398/398/233
f 398/398/233 357/357/180 399/399/234
f 357/357/180 358/358/181 399/399/234
f 399/399/234 358/358/181 400/400/235
f 358/358/181 359/359/182 400/400/235
f 400/400/235 359/359/182 401/401/236
f 359/359/182 360/360/183 401/401/236
f 401/401/236 360/360/183 402/402/237
f 360/360/183 361/361/184 402/402/237
f 402/402/237 361/361/184 403/403/238
f 403/403/238 361/361/184 404/404/239
f 361/361/184 362/362/185 404/404/239
f 404/404/239 362/362/185 405/405/240
f 362/362/185 363/363/186 405/405/240
f 363/363/186 364/364/187 405/405/240
f 405/405/240 364/364/187 406/406/241
f 364/364/187 365/365/188 406/406/241
f 406/406/241 365/365/188 407/407/242
f 365/365/188 366/366/189 407/407/242
f 407/407/242 366/366/189 408/408/243
f 409/409/244 408/408/243 410/410/245
f 408/408/243 366/366/189 410/410/245
f 366/366/189 367/367/190 410/410/245
f 410/410/245 367/367/190 411/411/246
f 367/367/190 368/368/191 411/411/246
f 368/368/191 369/369/193 411/411/246
f 411/411/246 369/369/193 412/412/247
f 369/369/193 370/370/195 412/412/247
f 412/412/247 370/370/195 413/413/248
f 370/370/195 371/371/197 413/413/248
f 413/413/248 371/371/197 414/414/249
f 371/371/197 372/372/199 414/414/249
f 372/372/199 373/373/202 414/414/249
f 414/414/249 373/373/202 415/415/250
f 416/416/251 374/374/203 417/417/252
f 374/374/203 375/375/205 417/417/252
f 375/375/205 376/376/208 417/417/252
f 417/417/252 376/376/208 418/418/253
f 376/376/208 377/377/210 418/418/253
f 418/418/253 377/377/210 419/419/254
f 377/377/210 378/378/212 419/419/254
f 419/419/254 378/378/212 420/420/255
f 378/378/212 379/379/214 420/420/255
f 379/379/214 380/380/215 420/420/255
f 420/420/255 380/380/215 421/421/256
f 380/380/215 381/381/216 421/421/256
f 381/381/216 382/382/217 421/421/256
f 421/421/256 382/382/217 422/422/257
f 424/424/258 422/422/257 426/426/259
f 422/422/257 382/382/217 426/426/259
f 426/426/259 382/382/217 428/428/260
f 382/382/217 383/383/218 428/428/260
f 428/428/260 383/383/218 430/430/261
f 383/383/218 384/384/219 430/430/261
f 430/430/261 384/384/219 432/432/262
f 384/384/219 385/385/220 432/432/262
f 432/432/262 385/385/220 434/434/263
f 385/385/220 386/386/221 434/434/263
f 434/434/263 386/386/221 436/436/264
f 386/386/221 387/387/222 436/436/264
f 436/436/264 387/387/222 438/438/265
f 387/387/222 388/388/223 438/438/265
f 438/438/265 388/388/223 440/440/266
f 388/388/223 389/389/224 440/440/266
f 440/440/266 389/389/224 442/442/267
f 389/389/224 390/390/225 442/442/267
f 442/442/267 390/390/225 444/444/268
f 390/390/225 391/391/226 444/444/268
f 444/444/268 391/391/226 446/446/269
f 391/391/226 392/392/227 446/446/269
f 446/446/269 392/392/227 448/448/270
f 392/392/227 393/393/228 448/448/270
f 448/448/270 393/393/228 450/450/271
f 393/393/228 394/394/229 450/450/271
f 450/450/271 394/394/229 452/452/272
f 394/394/229 395/395/230 452/452/272
f 395/395/230 396/396/231 452/452/272
f 452/452/272 396/396/231 454/454/273
f 396/396/231 397/397/232 454/454/273
f 454/454/273 397/397/232 456/456/274
f 397/397/232 398/398/233 456/456/274
f 456/456/274 398/398/233 458/458/275
f 398/398/233 399/399/234 458/458/275
f 458/458/275 399/399/234 460/460/276
f 399/399/234 400/400/235 460/460/276
f 460/460/276 400/400/235 462/462/277
f 400/400/235 401/401/236 462/462/277
f 462/462/277 401/401/236 464/464/278
f 401/401/236 402/402/237 464/464/278
f 464/464/278 402/402/237 466/466/279
f 402/402/237 403/403/238 466/466/279
f 466/466/279 403/403/238 468/468/280
f 403/403/238 404/404/239 468/468/280
f 468/468/280 404/404/239 470/470/281
f 404/404/239 405/405/240 470/470/281
f 470/470/281 405/405/240 472/472/282
f 405/405/240 406/406/241 472/472/282
f 472/472/282 406/406/241 474/474/283
f 406/406/241 407/407/242 474/474/283
f 474/474/283 407/407/242 476/476/284
f 407/407/242 408/408/243 476/476/284
f 476/476/284 408/408/243 478/478/285
f 408/408/243 409/409/244 478/478/285
f 478/478/285 409/409/244 480/480/286
f 480/480/286 409/409/244 482/482/287
f 482/482/287 409/409/244 483/483/288
f 483/483/288 409/409/244 484/484/289
f 409/409/244 410/410/245 484/484/289
f 410/410/245 411/411/246 484/484/289
f 411/411/246 412/412/247 484/484/289
f 484/484/289 412/412/247 485/485/290
f 412/412/247 413/413/248 485/485/290
f 485/485/290 413/413/248 486/486/291
f 413/413/248 414/414/249 486/486/291
f 414/414/249 415/415/250 486/486/291
f 486/486/291 415/415/250 487/487/292
f 488/488/293 416/416/251 489/489/294
f 416/416/251 417/417/252 489/489/294
f 417/417/252 418/418/253 489/489/294
f 489/489/294 418/418/253 490/490/295
f 418/418/253 419/419/254 490/490/295
f 490/490/295 419/419/254 491/491/296
f 419/419/254 420/420/255 491/491/296
f 420/420/255 421/421/256 491/491/296
f 421/421/256 422/422/257 491/491/296
f 491/491/296 422/422/257 492/492/297
f 492/492/297 422/422/257 493/493/298
f 422/422/257 424/424/258 493/493/298
f 494/494/299 423/423/300 496/496/301
f 496/496/301 423/423/300 498/498/302
f 423/423/300 425/425/303 498/498/302
f 498/498/302 425/425/303 500/500/304
f 425/425/303 427/427/305 500/500/304
f 500/500/304 427/427/305 502/502/306
f 427/427/305 429/429/307 502/502/306
f 502/502/306 429/429/307 504/504/308
f 429/429/307 431/431/309 504/504/308
f 504/504/308 431/431/309 506/506/310
f 431/431/309 433/433/311 506/506/310
f 506/506/310 433/433/311 508/508/312
f 433/433/311 435/435/313 508/508/312
f 508/508/312 435/435/313 510/510/314
f 435/435/313 437/437/315 510/510/314
f 510/510/314 437/437/315 512/512/316
f 437/437/315 439/439/317 512/512/316
f 512/512/316 439/439/317 514/514/318
f 439/439/317 441/441/319 514/514/318
f 514/514/318 441/441/319 516/516/320
f 441/441/319 443/443/321 516/516/320
f 516/516/320 443/443/321 518/518/322
f 443/443/321 445/445/323 518/518/322
f 518/518/322 445/445/323 520/520/324
f 445/445/323 447/447/325 520/520/324
f 520/520/324 447/447/325 522/522/326
f 447/447/325 449/449/327 522/522/326
f 522/522/326 449/449/327 524/524/328
f 449/449/327 451/451/328 524/524/328
f 524/524/328 451/451/328 526/526/329
f 451/451/328 453/453/330 526/526/329
f 526/526/329 453/453/330 528/528/331
f 453/453/330 455/455/332 528/528/331
f 528/528/331 455/455/332 530/530/333
f 455/455/332 457/457/334 530/530/333
f 530/530/333 457/457/334 532/532/335
f 457/457/334 459/459/336 532/532/335
f 532/532/335 459/459/336 534/534/337
f 459/459/336 461/461/338 534/534/337
f 534/534/337 461/461/338 536/536/339
f 461/461/338 463/463/340 536/536/339
f 536/536/339 463/463/340 538/538/341
f 463/463/340 465/465/342 538/538/341
f 538/538/341 465/465/342 540/540/343
f 465/465/342 467/467/344 540/540/343
f 540/540/343 467/467/344 542/542/345
f 467/467/344 469/469/346 542/542/345
f 542/542/345 469/469/346 544/544/347
f 469/469/346 471/471/348 544/544/347
f 544/544/347 471/471/348 546/546/349
f 471/471/348 473/473/350 546/546/349
f 546/546/349 473/473/350 548/548/351
f 473/473/350 475/475/352 548/548/351
f 548/548/351 475/475/352 550/550/353
f 475/475/352 477/477/354 550/550/353
f 550/550/353 477/477/354 552/552/355
f 477/477/354 479/479/356 552/552/355
f 552/552/355 479/479/356 554/554/357
f 479/479/356 481/481/358 554/554/357
f 554/554/357 481/481/358 556/556/359
f 556/556/359 481/481/358 557/557/360
f 482/482/287 483/483/288 558/558/361
f 558/558/361 483/483/288 559/559/362
f 483/483/288 484/484/289 559/559/362
f 484/484/289 485/485/290 559/559/362
f 559/559/362 485/485/290 560/560/363
f 485/485/290 486/486/291 560/560/363
f 560/560/363 486/486/291 561/561/364
f 486/486/291 487/487/292 561/561/364
f 488/488/293 489/489/294 562/562/365
f 562/562/365 489/489/294 563/563/366
f 489/489/294 490/490/295 563/563/366
f 563/563/366 490/490/295 564/564/367
f 490/490/295 491/491/296 564/564/367
f 491/491/296 492/492/297 564/564/367
f 564/564/367 492/492/297 565/565/368
f 492/492/297 493/493/298 565/565/368
f 566/566/369 494/494/299 567/567/370
f 494/494/299 496/496/301 567/567/370
f 568/568/371 495/495/372 570/570/373
f 570/570/373 495/495/372 572/572/374
f 495/495/372 497/497/375 572/572/374
f 572/572/374 497/497/375 574/574/376
f 497/497/375 499/499/377 574/574/376
f 574/574/376 499/499/377 576/576/378
f 499/499/377 501/501/379 576/576/378
f 576/576/378 501/501/379 578/578/380
f 501/501/379 503/503/381 578/578/380
f 578/578/380 503/503/381 580/580/382
f 503/503/381 505/505/383 580/580/382
f 580/580/382 505/505/383 582/582/384
f 505/505/383 507/507/385 582/582/384
f 582/582/384 507/507/385 584/584/386
f 507/507/385 509/509/387 584/584/386
f 584/584/386 509/509/387 586/586/388
f 509/509/387 511/511/389 586/586/388
f 586/586/388 511/511/389 588/588/390
f 511/511/389 513/513/391 588/588/390
f 588/588/390 513/513/391 590/590/392
f 513/513/391 515/515/393 590/590/392
f 590/590/392 515/515/393 592/592/394
f 592/592/394 515/515/393 594/594/395
f 515/515/393 517/517/396 594/594/395
f 594/594/395 517/517/396 596/596/397
f 517/517/396 519/519/398 596/596/397
f 596/596/397 519/519/398 598/598/399
f 519/519/398 521/521/400 598/598/399
f 521/521/400 523/523/401 598/598/399
f 598/598/399 523/523/401 600/600/402
f 600/600/402 523/523/401 602/602/403
f 523/523/401 525/525/404 602/602/403
f 525/525/404 527/527/405 602/602/403
f 602/602/403 527/527/405 604/604/406
f 527/527/405 529/529/407 604/604/406
f 604/604/406 529/529/407 606/606/408
f 529/529/407 531/531/409 606/606/408
f 606/606/408 531/531/409 608/608/410
f 608/608/410 531/531/409 610/610/411
f 531/531/409 533/533/412 610/610/411
f 610/610/411 533/533/412 612/612/413
f 533/533/412 535/535/414 612/612/413
f 612/612/413 535/535/414 614/614/415
f 535/535/414 537/537/416 614/614/415
f 614/614/415 537/537/416 616/616/417
f 537/537/416 539/539/418 616/616/417
f 616/616/417 539/539/418 618/618/419
f 539/539/418 541/541/420 618/618/419
f 618/618/419 541/541/420 620/620/421
f 541/541/420 543/543/422 620/620/421
f 620/620/421 543/543/422 622/622/423
f 543/543/422 545/545/424 622/622/423
f 622/622/423 545/545/424 624/624/425
f 545/545/424 547/547/426 624/624/425
f 624/624/425 547/547/426 626/626/427
f 547/547/426 549/549/428 626/626/427
f 626/626/427 549/549/428 628/628/429
f 549/549/428 551/551/430 628/628/429
f 628/628/429 551/551/430 630/630/431
f 551/551/430 553/553/432 630/630/431
f 630/630/431 553/553/432 632/632/433
f 553/553/432 555/555/434 632/632/433
f 632/632/433 555/555/434 634/634/435
f 634/634/435 555/555/434 635/635/436
f 556/556/359 557/557/360 636/636/437
f 636/636/437 557/557/360 637/637/438
f 558/558/361 559/559/362 638/638/439
f 559/559/362 560/560/363 638/638/439
f 638/638/439 560/560/363 642/642/440
f 560/560/363 561/561/364 642/642/440
f 562/562/365 563/563/366 641/641/441
f 641/641/441 563/563/366 643/643/442
f 563/563/366 564/564/367 643/643/442
f 564/564/367 565/565/368 643/643/442
f 644/644/443 566/566/369 645/645/444
f 566/566/369 567/567/370 645/645/444
f 646/646/445 568/568/371 647/647/446
f 568/568/371 570/570/373 647/647/446
s 0
f 648/648/447 569/569/447 649/649/447
f 569/569/448 571/571/448 649/649/448
f 571/571/449 573/573/449 649/649/449
f 573/573/450 575/575/450 649/649/450
f 575/575/451 577/577/451 649/649/451
f 577/577/452 579/579/452 649/649/452
f 579/579/453 581/581/453 649/649/453
f 581/581/453 583/583/453 649/649/453
f 583/583/454 585/585/454 649/649/454
f 585/585/455 587/587/455 649/649/455
f 587/587/455 589/589/455 649/649/455
f 589/589/456 591/591/456 649/649/456
f 591/591/457 593/593/457 649/649/457
f 593/593/458 595/595/458 649/649/458
f 595/595/459 597/597/459 649/649/459
f 597/597/460 599/599/460 649/649/460
f 599/599/461 601/601/461 649/649/461
f 601/601/462 603/603/462 649/649/462
f 603/603/463 605/605/463 649/649/463
f 605/605/464 607/607/464 649/649/464
f 607/607/465 609/609/465 649/649/465
f 609/609/449 611/611/449 649/649/449
f 611/611/449 613/613/449 649/649/449
f 613/613/454 615/615/454 649/649/454
f 615/615/453 617/617/453 649/649/453
f 617/617/453 619/619/453 649/649/453
f 619/619/452 621/621/452 649/649/452
f 621/621/466 623/623/466 649/649/466
f 623/623/467 625/625/467 649/649/467
f 625/625/455 627/627/455 649/649/455
f 627/627/468 629/629/468 649/649/468
f 629/629/469 631/631/469 649/649/469
f 631/631/457 633/633/457 649/649/457
f 649/649/469 633/633/469 650/650/469
s 1
f 652/652/470 634/634/435 653/653/471
f 634/634/435 635/635/436 653/653/471
f 636/636/437 637/637/438 656/656/472
f 637/637/438 639/639/473 656/656/472
f 655/655/474 640/640/475 657/657/476
f 640/640/475 644/644/443 657/657/476
f 644/644/443 645/645/444 657/657/476
f 658/658/477 646/646/445 660/660/478
f 646/646/445 647/647/446 660/660/478
s 0
f 648/648/464 649/649/464 659/659/464
f 649/649/447 650/650/447 659/659/447
s 1
f 651/651/479 654/654/480 660/660/478
f 658/658/477 660/660/478 654/654/480
usemtl Rubber_Black_002_COLOR_0.002
f 662/662/481 664/664/481 666/666/482
f 664/664/481 668/668/482 666/666/482
f 666/666/482 668/668/482 670/670/483
f 668/668/482 672/672/483 670/670/483
f 670/670/483 672/672/483 675/675/484
f 672/672/483 677/677/484 675/675/484
f 678/678/485 680/680/486 674/674/485
f 674/674/485 680/680/486 682/682/486
f 680/680/486 684/684/487 682/682/486
f 682/682/486 684/684/487 686/686/487
f 684/684/487 688/688/488 686/686/487
f 686/686/487 688/688/488 690/690/488
f 688/688/488 692/692/489 690/690/488
f 690/690/488 692/692/489 694/694/489
f 692/692/489 696/696/490 694/694/489
f 694/694/489 696/696/490 698/698/490
f 696/696/490 700/700/491 698/698/490
f 698/698/490 700/700/491 702/702/491
f 700/700/491 704/704/492 702/702/491
f 702/702/491 704/704/492 706/706/492
f 704/704/492 708/708/493 706/706/492
f 706/706/492 708/708/493 710/710/493
f 708/708/493 712/712/494 710/710/493
f 710/710/493 712/712/494 714/714/494
f 712/712/494 716/716/495 714/714/494
f 714/714/494 716/716/495 718/718/495
f 716/716/495 720/720/496 718/718/495
f 718/718/495 720/720/496 722/722/496
f 720/720/496 724/724/497 722/722/496
f 722/722/496 724/724/497 726/726/497
f 724/724/497 728/728/498 726/726/497
f 726/726/497 728/728/498 730/730/499
f 728/728/498 732/732/500 730/730/499
f 730/730/499 732/732/500 735/735/500
f 732/732/500 737/737/501 735/735/500
f 735/735/500 737/737/501 739/739/501
f 737/737/501 741/741/502 739/739/501
f 739/739/501 741/741/502 744/744/502
f 741/741/502 746/746/503 744/744/502
f 744/744/502 746/746/503 748/748/503
f 746/746/503 750/750/504 748/748/503
f 748/748/503 750/750/504 752/752/504
f 752/752/504 750/750/504 754/754/505
f 750/750/504 756/756/505 754/754/505
f 754/754/505 756/756/505 759/759/506
f 756/756/505 761/761/506 759/759/506
f 759/759/506 761/761/506 763/763/507
f 761/761/506 765/765/507 763/763/507
f 763/763/507 765/765/507 768/768/508
f 765/765/507 770/770/508 768/768/508
f 768/768/508 770/770/508 772/772/509
f 770/770/508 774/774/509 772/772/509
f 772/772/509 774/774/509 776/776/510
f 774/774/509 778/778/510 776/776/510
f 776/776/510 778/778/510 780/780/511
f 778/778/510 782/782/511 780/780/511
f 780/780/511 782/782/511 784/784/512
f 782/782/511 786/786/512 784/784/512
f 784/784/512 786/786/512 788/788/513
f 786/786/512 790/790/513 788/788/513
f 788/788/513 790/790/513 792/792/514
f 790/790/513 794/794/514 792/792/514
f 792/792/514 794/794/514 796/796/515
f 796/796/515 794/794/514 797/797/515
s 0
f 798/798/516 793/793/516 799/799/516
f 793/793/516 789/789/516 799/799/516
f 789/789/516 785/785/516 799/799/516
f 785/785/516 781/781/516 799/799/516
f 781/781/516 777/777/516 799/799/516
f 777/777/516 773/773/516 799/799/516
f 773/773/516 769/769/516 799/799/516
f 769/769/516 764/764/516 799/799/516
f 764/764/516 760/760/516 799/799/516
f 760/760/516 755/755/516 799/799/516
f 755/755/516 749/749/516 799/799/516
f 749/749/516 745/745/516 799/799/516
f 745/745/516 740/740/516 799/799/516
f 740/740/516 736/736/516 799/799/516
f 736/736/516 731/731/516 799/799/516
f 731/731/516 727/727/516 799/799/516
f 727/727/516 723/723/516 799/799/516
f 723/723/516 719/719/516 799/799/516
f 719/719/516 715/715/516 799/799/516
f 715/715/516 711/711/516 799/799/516
f 711/711/516 707/707/516 799/799/516
f 707/707/516 703/703/516 799/799/516
f 703/703/516 699/699/516 799/799/516
f 699/699/516 695/695/516 799/799/516
f 695/695/516 691/691/516 799/799/516
f 691/691/516 687/687/516 799/799/516
f 687/687/516 683/683/516 799/799/516
f 683/683/516 679/679/516 799/799/516
f 679/679/516 676/676/516 799/799/516
f 676/676/516 671/671/516 799/799/516
f 671/671/516 667/667/516 799/799/516
f 667/667/516 663/663/516 799/799/516
f 799/799/516 663/663/516 800/800/516
s 1
f 664/664/481 662/662/481 801/801/517
f 801/801/517 662/662/481 802/802/517
s 0
f 803/803/64 661/661/64 806/806/64
f 661/661/64 665/665/64 806/806/64
f 665/665/64 669/669/64 806/806/64
f 669/669/64 673/673/64 806/806/64
f 673/673/64 681/681/64 806/806/64
f 681/681/64 685/685/64 806/806/64
f 685/685/64 689/689/64 806/806/64
f 689/689/64 693/693/64 806/806/64
f 693/693/64 697/697/64 806/806/64
f 697/697/64 701/701/64 806/806/64
f 701/701/64 705/705/64 806/806/64
f 705/705/64 709/709/64 806/806/64
f 709/709/64 713/713/64 806/806/64
f 713/713/64 717/717/64 806/806/64
f 717/717/64 721/721/64 806/806/64
f 721/721/64 725/725/64 806/806/64
f 725/725/64 729/729/64 806/806/64
f 729/729/518 734/734/518 806/806/518
f 733/733/519 738/738/519 804/804/519
f 738/738/519 742/742/519 804/804/519
f 743/743/520 747/747/520 805/805/520
f 747/747/520 751/751/520 805/805/520
f 751/751/520 753/753/520 805/805/520
f 753/753/520 757/757/520 805/805/520
f 758/758/521 762/762/521 807/807/521
f 762/762/521 767/767/521 807/807/521
f 766/766/522 771/771/522 806/806/522
f 771/771/64 775/775/64 806/806/64
f 775/775/64 779/779/64 806/806/64
f 779/779/64 783/783/64 806/806/64
f 783/783/64 787/787/64 806/806/64
f 787/787/64 791/791/64 806/806/64
f 791/791/64 795/795/64 806/806/64
f 806/806/64 795/795/64 808/808/64
s 1
f 796/796/515 797/797/515 809/809/523
f 809/809/523 797/797/515 810/810/523
s 0
f 798/798/516 799/799/516 811/811/516
f 811/811/516 799/799/516 812/812/516
f 799/799/516 800/800/516 812/812/516
s 1
f 801/801/517 802/802/517 813/813/524
f 813/813/524 802/802/517 815/815/524
s 0
f 803/803/64 806/806/64 814/814/64
f 806/806/64 808/808/64 814/814/64
s 1
f 809/809/523 810/810/523 815/815/524
f 813/813/524 815/815/524 810/810/523
