mtllib material.mtl
usemtl Rohr.002
v 0.00734500 0.02942100 0.17780000
v 0.00734500 0.02942100 0.17780000
v 0.00734500 0.02942100 0.17780000
v 0.00295600 0.03029800 0.17220000
v 0.00295600 0.03029800 0.17220000
v 0.00295600 0.03029800 0.17220000
v 0.00295600 0.03029800 0.17220000
v 0.02972800 -0.00764300 0.17780000
v 0.02972800 -0.00764300 0.17780000
v 0.02918000 -0.00940300 0.17220100
v 0.02918000 -0.00940300 0.17220100
v 0.02918000 -0.00940300 0.17220100
v 0.03069100 -0.00000200 0.17220000
v 0.03069100 -0.00000200 0.17220000
v -0.00294600 -0.03079400 0.17780000
v 0.03054300 0.00190000 0.17780000
v 0.00628600 -0.03042300 0.17220000
v 0.00695200 -0.03011600 0.17780000
v 0.02887500 0.00977200 0.17220000
v 0.02836700 0.01122800 0.17780000
v 0.02836700 0.01122800 0.17780000
v 0.02836700 0.01122800 0.17780000
v 0.01690000 -0.02591400 0.17780000
v 0.01828100 -0.02494800 0.17219900
v 0.02441700 0.01825100 0.17220000
v 0.02288600 0.02011000 0.17780100
v 0.02288600 0.02011000 0.17780100
v 0.01548300 0.02622400 0.17219900
v 0.01548300 0.02622400 0.17219900
v 0.01548300 0.02622400 0.17219900
v 0.02541800 -0.01749900 0.17780000
v 0.02563700 -0.01704300 0.17220000
v 0.02563700 -0.01704300 0.17220000
v 0.01541400 0.02610700 0.17780000
v 0.00721100 0.02625100 0.05903900
v 0.00272000 0.02673800 0.06038700
v -0.00153800 -0.02815400 0.05852100
v -0.00919300 -0.02671700 0.05846700
v -0.00254600 -0.02732100 0.06037600
v -0.01058100 -0.02539500 0.06026800
v -0.01688700 -0.02247900 0.05864700
v -0.01762700 -0.02093100 0.06033700
v -0.02342800 -0.01431900 0.05942000
v -0.02095800 -0.01764800 0.05988800
v -0.02623700 -0.00906800 0.05889200
v -0.02668300 -0.00557800 0.06036700
v -0.02797200 0.00108500 0.05855400
v -0.02701400 0.00236700 0.06040700
v -0.02559700 0.01071800 0.05861600
v -0.02505000 0.01041800 0.06027000
v -0.02845300 0.01242300 0.05499500
v -0.02186100 0.01715600 0.05847600
v -0.02042100 0.01759600 0.06026000
v -0.01665800 0.02128100 0.05932400
v -0.01086000 0.02545900 0.05852100
v -0.01063700 0.02472000 0.06036300
v -0.00109800 0.02773700 0.05849700
v -0.00317600 0.02664000 0.06039100
v 0.00484700 0.02643600 0.16337300
v 0.00186300 0.02765800 0.16516500
v -0.00580400 -0.02692100 0.16403000
v -0.01243800 -0.02502000 0.16471600
v -0.01232700 -0.02445600 0.16325600
v -0.01988000 -0.01896000 0.16353100
v -0.01911200 -0.02070600 0.16507500
v -0.02427900 -0.01263100 0.16401200
v -0.02622800 -0.01005000 0.16509800
v -0.02642000 -0.00672300 0.16319600
v -0.02768900 -0.00319700 0.16502500
v -0.02721800 0.00151200 0.16414300
v -0.03122500 -0.00332700 0.16896200
v -0.02638300 0.00664000 0.16426800
v -0.02449300 0.01201700 0.16442700
v -0.02177200 0.01608500 0.16333000
v -0.02110800 0.01793500 0.16506000
v -0.01623000 0.02159400 0.16414700
v -0.02111400 0.02242500 0.16830200
v -0.01162800 0.02421700 0.16324100
v -0.01000000 0.02590200 0.16512200
v -0.00570300 0.02632900 0.16404800
v -0.00105500 0.02680500 0.16323700
v 0.01103100 0.02877300 0.05506100
v 0.01361600 0.02810000 0.05390200
v 0.01220400 0.02891500 0.05233800
v 0.00351400 0.03085800 0.05475400
v -0.00418000 -0.03124100 0.05485000
v 0.00162900 -0.03140800 0.05493700
v -0.00195300 -0.03183800 0.05231000
v 0.00430200 -0.03155800 0.05232800
v 0.00957900 -0.03032400 0.05401200
v 0.00850000 -0.03010000 0.05525200
v 0.01561600 -0.02734500 0.05494100
v 0.02142500 -0.02323000 0.05460400
v 0.02610700 -0.01750900 0.05491800
v 0.02084500 -0.02435500 0.05233400
v 0.02784400 -0.01541900 0.05235600
v 0.02912700 -0.01148200 0.05497100
v 0.03033000 -0.00846700 0.05445200
v 0.03095100 -0.00659200 0.05235100
v 0.03064300 -0.00312600 0.05552600
v 0.03150800 0.00173400 0.05380600
v 0.03077400 0.00359300 0.05517700
v 0.02971400 0.00979900 0.05461200
v 0.02722900 0.01504700 0.05487500
v 0.02899200 0.01241900 0.05237100
v 0.02334700 0.02062900 0.05472100
v 0.02211000 0.02232800 0.05237300
v 0.01865900 0.02485400 0.05477300
v -0.00455600 -0.03078000 0.16818900
v -0.00482700 -0.03149400 0.17219000
v -0.00051900 -0.03163600 0.16889400
v 0.00643600 -0.03117400 0.16944200
v 0.00860300 -0.02993900 0.16811300
v 0.01478200 -0.02801700 0.16912900
v 0.02102200 -0.02326800 0.16845300
v 0.02188200 -0.02323200 0.17218100
v 0.02191400 -0.01757400 0.16501800
v 0.02547000 -0.01863900 0.16933300
v 0.02901100 -0.01231300 0.16893700
v 0.02490800 -0.01294200 0.16511000
v 0.03093400 -0.00556400 0.16908400
v 0.02741000 -0.00573500 0.16507700
v 0.03136500 0.00095100 0.16892400
v 0.03164100 -0.00084900 0.17219700
v 0.03164100 -0.00084900 0.17219700
v 0.03164100 -0.00084900 0.17219700
v 0.03043900 0.00695800 0.16883400
v 0.02830900 0.01319500 0.16892200
v 0.03038300 0.00879100 0.17218400
v 0.02687600 0.01015900 0.16613200
v 0.02402600 0.01977100 0.16879500
v 0.02690300 0.01623400 0.17219100
v 0.02037500 0.02355700 0.16903200
v 0.01627800 0.02236700 0.16508700
v 0.01596200 0.02683300 0.16963700
v 0.01173400 0.02868100 0.16866200
v 0.00669300 0.03047800 0.16974300
v 0.00316200 0.03059700 0.16846800
v 0.00279900 -0.03183200 0.17219400
v 0.00426800 0.03098800 0.17220000
v 0.00426800 0.03098800 0.17220000
v 0.01294100 0.02855000 0.17220000
v 0.02903000 -0.01323500 0.17219600
v 0.02903000 -0.01323500 0.17219600
v 0.02190900 0.02256800 0.17220000
v 0.01310000 -0.02915800 0.17220000
v 0.02769900 0.00048200 0.16481900
v 0.02142500 0.01752300 0.16496300
v 0.02581400 -0.00864100 0.16323600
v 0.02259200 -0.01543200 0.16323700
v 0.01675600 0.02110200 0.16326000
v 0.01898200 -0.01966000 0.06034200
v 0.01742500 -0.02130900 0.16423600
v 0.02010000 0.01792000 0.06055700
v 0.02183300 0.01589400 0.16334100
v 0.01293300 -0.02433500 0.16417700
v 0.01030600 -0.02544900 0.06030500
v 0.02346800 0.01326700 0.06035200
v 0.02482400 0.01099400 0.16407600
v 0.00302000 -0.02737700 0.16350400
v 0.02660300 0.00564300 0.16414500
v 0.00313900 -0.02741500 0.05937500
v 0.02712500 0.00157700 0.06040500
v 0.02707500 -0.00252100 0.16317300
v 0.02763100 -0.00516200 0.05837900
v 0.02447100 -0.01242800 0.05934300
v 0.02096800 -0.01789400 0.05934400
v 0.01148700 0.02445100 0.05940300
v 0.01556500 -0.02273300 0.05928700
v 0.01725100 0.02094500 0.05937700
v 0.02277000 0.01585500 0.05848400
v 0.01063100 -0.02615100 0.05849200
v 0.02570700 0.00875400 0.05959500
v 0.02784400 0.00107600 0.05852500
v 0.03156200 0.00108300 0.05235800
v 0.00643200 0.03052000 0.05238400
v 0.00966300 -0.03037400 0.05236500
v -0.03057900 -0.00011100 0.05217400
v -0.03151700 -0.00280800 0.05240300
v -0.03093300 0.00609500 0.05233600
v -0.02995700 0.00584400 0.05223700
v -0.02848100 0.01089900 0.05225700
v -0.02460700 0.01790800 0.05223400
v -0.02644100 0.01515200 0.05227100
v -0.02488900 0.01905600 0.05232000
v -0.02112300 0.02176000 0.05218200
v -0.01682200 0.02523500 0.05220400
v -0.02161000 0.02272300 0.05232500
v -0.00358400 -0.03063400 0.05220700
v -0.00883800 -0.02958400 0.05223200
v -0.01106600 0.02822000 0.05222200
v -0.01744800 0.02616700 0.05236500
v -0.01017700 -0.03019200 0.05233200
v -0.01613700 -0.02637400 0.05223600
v -0.00759900 0.03040800 0.05248000
v -0.00417800 0.03004300 0.05226800
v -0.00359600 0.03114100 0.05240000
v -0.02293000 -0.02060600 0.05223500
v 0.00510900 0.02984300 0.05215800
v 0.00079600 0.03034800 0.05224800
v -0.02673300 -0.01515600 0.05225300
v -0.02609000 -0.01827300 0.05241000
v -0.03028400 -0.00939300 0.05234300
v -0.02959900 -0.00842200 0.05225100
v 0.03054300 0.00190000 0.04580000
v 0.00152000 -0.03087700 0.04580000
v 0.00277500 -0.03082600 0.05223600
v 0.03055000 -0.00212100 0.05224100
v 0.00534800 0.02997200 0.04580000
v -0.00920000 -0.02957400 0.04580000
v 0.02972800 -0.00764300 0.04580000
v 0.02972800 -0.00764300 0.04580000
v 0.01044200 0.02840300 0.05218400
v 0.02958000 -0.00797100 0.05222900
v 0.01617200 0.02569700 0.04580100
v 0.01617200 0.02569700 0.04580100
v 0.01617200 0.02569700 0.04580100
v 0.01617200 0.02569700 0.04580100
v 0.01617200 0.02569700 0.04580100
v 0.01572500 0.02594600 0.05223500
v 0.02737100 -0.01396800 0.05219500
v 0.02541800 -0.01749900 0.04580000
v 0.02088200 0.02200000 0.05218400
v 0.02341600 0.01942800 0.04579800
v 0.02386600 0.01875000 0.05214600
v 0.01756900 -0.02540000 0.04580100
v 0.01756900 -0.02540000 0.04580100
v 0.01756900 -0.02540000 0.04580100
v 0.01756900 -0.02540000 0.04580100
v 0.01756900 -0.02540000 0.04580100
v 0.02729400 0.01356200 0.05223900
v 0.02836700 0.01122800 0.04580000
v 0.02836700 0.01122800 0.04580000
v 0.02836700 0.01122800 0.04580000
v 0.01125700 -0.02879900 0.05225100
v 0.00978500 -0.02925200 0.04580000
v 0.02997100 0.00611700 0.05224700
v -0.03061800 0.00144700 0.04580000
v -0.03061800 0.00144700 0.04580000
v -0.02766400 0.01305000 0.04580000
v -0.01870700 -0.02453800 0.04579900
v -0.01870700 -0.02453800 0.04579900
v -0.01870700 -0.02453800 0.04579900
v -0.01928000 0.02368500 0.04580000
v -0.02528300 -0.01757300 0.04580100
v -0.00745500 0.02946600 0.04580000
v -0.00745500 0.02946600 0.04580000
v -0.00745500 0.02946600 0.04580000
v -0.02938400 -0.00891600 0.04580000
v 0.02295400 -0.02060100 0.05224800
v 0.01769700 -0.02522900 0.05220600
v -0.01801300 -0.02621900 0.05232500
v -0.00229900 0.03097100 0.05462400
v -0.03113000 0.00337300 0.05456700
v -0.00843900 -0.03049400 0.05474500
v -0.02983600 0.01044900 0.05234400
v -0.01465400 -0.02797900 0.05469500
v -0.02617900 0.01725300 0.05379200
v -0.01903400 -0.02508400 0.05478200
v -0.02309600 -0.02144600 0.05479300
v -0.02917500 -0.01143400 0.05499000
v -0.02961300 0.00808500 0.05549500
v -0.02353300 0.02026000 0.05490800
v -0.01731000 0.02551500 0.05517700
v -0.01093900 0.02901200 0.05480500
v -0.03080600 -0.00165800 0.05546600
v -0.02975700 -0.01025300 0.16897700
v -0.00040500 0.03107000 0.16896800
v -0.00801500 0.02999000 0.16890400
v -0.02772500 -0.01449800 0.16863800
v -0.02536900 -0.01857500 0.16874300
v -0.01952400 -0.02444300 0.16846000
v -0.01602600 -0.02726400 0.16903700
v -0.00967800 -0.03009400 0.16884200
v -0.02729000 0.01429500 0.16825000
v -0.03031100 0.00779300 0.16905900
v -0.03108400 0.00266600 0.16864800
v -0.03136300 0.00481200 0.17219800
v -0.03136300 0.00481200 0.17219800
v -0.03136300 0.00481200 0.17219800
v -0.01247500 -0.02936200 0.17219100
v -0.02836600 0.01338900 0.16965200
v -0.02728000 0.01561500 0.17220000
v -0.02728000 0.01561500 0.17220000
v -0.02069900 -0.02420800 0.17219800
v -0.02515600 0.01860600 0.16972700
v -0.01991200 0.02447200 0.17220000
v -0.01991200 0.02447200 0.17220000
v -0.01991200 0.02447200 0.17220000
v -0.02249400 -0.02226500 0.16946200
v -0.02079300 0.02339900 0.16991800
v -0.02694900 -0.01691700 0.17219100
v -0.01451800 0.02752600 0.16900100
v -0.03085900 -0.00725400 0.17219500
v -0.03085900 -0.00725400 0.17219500
v -0.00670800 0.03070800 0.17219700
v -0.00670800 0.03070800 0.17219700
v -0.02702200 -0.01524200 0.17220000
v -0.01816200 -0.02494900 0.17220000
v -0.03067500 -0.00132300 0.17220000
v -0.03067500 -0.00132300 0.17220000
v -0.00770700 -0.03006000 0.17220000
v -0.02836900 0.01163300 0.17220000
v -0.02151000 0.02149000 0.17219900
v -0.01128400 0.02836200 0.17220000
v -0.03105200 -0.00479000 0.05456200
v -0.02592600 -0.01766100 0.05486700
v 0.00998200 0.02510000 0.16409600
v 0.00806800 -0.02662700 0.16458000
v 0.00083500 -0.02800400 0.16468400
v 0.02637000 -0.00714900 0.06003300
v -0.01366700 -0.02777500 0.17780000
v -0.01366700 -0.02777500 0.17780000
v -0.02794100 0.01222700 0.17780000
v -0.03024500 0.00412700 0.17780000
v -0.00306400 0.03020700 0.17780000
v -0.03037000 -0.00421500 0.17780000
v -0.03037000 -0.00421500 0.17780000
v -0.03037000 -0.00421500 0.17780000
v -0.01419900 0.02690300 0.17780000
v -0.02810200 -0.01232500 0.17779900
v -0.02314300 -0.02045500 0.17780000
v -0.02314300 -0.02045500 0.17780000
v -0.02270100 0.02024600 0.17780100
v -0.02151000 0.02149000 0.17219900
v -0.02151000 0.02149000 0.17219900
v -0.01128400 0.02836200 0.17220000
v -0.01128400 0.02836200 0.17220000
v 0.02386600 0.01875000 0.05214600
v 0.02729400 0.01356200 0.05223900
v 0.02729400 0.01356200 0.05223900
v 0.00272000 0.02673800 0.06038700
v 0.00272000 0.02673800 0.06038700
v 0.00272000 0.02673800 0.06038700
v -0.00317600 0.02664000 0.06039100
v -0.00759900 0.03040800 0.05248000
v -0.00359600 0.03114100 0.05240000
v 0.02637000 -0.00714900 0.06003300
v -0.02701400 0.00236700 0.06040700
v -0.02505000 0.01041800 0.06027000
v 0.03164100 -0.00084900 0.17219700
v 0.02903000 -0.01323500 0.17219600
v -0.02797200 0.00108500 0.05855400
v -0.02797200 0.00108500 0.05855400
v 0.00643200 0.03052000 0.05238400
v 0.02958000 -0.00797100 0.05222900
v 0.02737100 -0.01396800 0.05219500
v 0.03069100 -0.00000200 0.17220000
v 0.02887500 0.00977200 0.17220000
v -0.02702200 -0.01524200 0.17220000
v -0.01816200 -0.02494900 0.17220000
v -0.00417800 0.03004300 0.05226800
v 0.00510900 0.02984300 0.05215800
v 0.00510900 0.02984300 0.05215800
v 0.00721100 0.02625100 0.05903900
v -0.00109800 0.02773700 0.05849700
v -0.00109800 0.02773700 0.05849700
v 0.00734500 0.02942100 0.17780000
v 0.01541400 0.02610700 0.17780000
v -0.02488900 0.01905600 0.05232000
v -0.02488900 0.01905600 0.05232000
v -0.02617900 0.01725300 0.05379200
v -0.02617900 0.01725300 0.05379200
v -0.00195300 -0.03183800 0.05231000
v 0.00430200 -0.03155800 0.05232800
v 0.00430200 -0.03155800 0.05232800
v 0.00430200 -0.03155800 0.05232800
v 0.02901100 -0.01231300 0.16893700
v 0.03093400 -0.00556400 0.16908400
v 0.00351400 0.03085800 0.05475400
v -0.00040500 0.03107000 0.16896800
v -0.00801500 0.02999000 0.16890400
v 0.00426800 0.03098800 0.17220000
v -0.00670800 0.03070800 0.17219700
v -0.01928000 0.02368500 0.04580000
v -0.00745500 0.02946600 0.04580000
v 0.02972800 -0.00764300 0.17780000
v 0.03054300 0.00190000 0.17780000
v -0.03151700 -0.00280800 0.05240300
v -0.03093300 0.00609500 0.05233600
v 0.02722900 0.01504700 0.05487500
v 0.02334700 0.02062900 0.05472100
v -0.00306400 0.03020700 0.17780000
v 0.02259200 -0.01543200 0.16323700
v 0.01742500 -0.02130900 0.16423600
v 0.02971400 0.00979900 0.05461200
v 0.01675600 0.02110200 0.16326000
v -0.02975700 -0.01025300 0.16897700
v -0.02772500 -0.01449800 0.16863800
v -0.03136300 0.00481200 0.17219800
v -0.02728000 0.01561500 0.17220000
v 0.02899200 0.01241900 0.05237100
v 0.03156200 0.00108300 0.05235800
v -0.02460700 0.01790800 0.05223400
v -0.02460700 0.01790800 0.05223400
v -0.01682200 0.02523500 0.05220400
v -0.01682200 0.02523500 0.05220400
v -0.02917500 -0.01143400 0.05499000
v -0.02592600 -0.01766100 0.05486700
v -0.02668300 -0.00557800 0.06036700
v -0.02668300 -0.00557800 0.06036700
v -0.02668300 -0.00557800 0.06036700
v -0.01911200 -0.02070600 0.16507500
v -0.02427900 -0.01263100 0.16401200
v -0.01162800 0.02421700 0.16324100
v -0.00570300 0.02632900 0.16404800
v 0.03055000 -0.00212100 0.05224100
v 0.02997100 0.00611700 0.05224700
v 0.02490800 -0.01294200 0.16511000
v 0.02741000 -0.00573500 0.16507700
v -0.03057900 -0.00011100 0.05217400
v -0.02995700 0.00584400 0.05223700
v -0.01017700 -0.03019200 0.05233200
v -0.01017700 -0.03019200 0.05233200
v -0.01017700 -0.03019200 0.05233200
v -0.02983600 0.01044900 0.05234400
v 0.02096800 -0.01789400 0.05934400
v 0.01556500 -0.02273300 0.05928700
v 0.01556500 -0.02273300 0.05928700
v -0.02112300 0.02176000 0.05218200
v -0.02622800 -0.01005000 0.16509800
v -0.02768900 -0.00319700 0.16502500
v -0.01602600 -0.02726400 0.16903700
v -0.00967800 -0.03009400 0.16884200
v 0.02763100 -0.00516200 0.05837900
v 0.02763100 -0.00516200 0.05837900
v 0.00628600 -0.03042300 0.17220000
v -0.00770700 -0.03006000 0.17220000
v -0.02536900 -0.01857500 0.16874300
v -0.00919300 -0.02671700 0.05846700
v -0.01688700 -0.02247900 0.05864700
v -0.01688700 -0.02247900 0.05864700
v 0.03033000 -0.00846700 0.05445200
v -0.01623000 0.02159400 0.16414700
v -0.01000000 0.02590200 0.16512200
v 0.00186300 0.02765800 0.16516500
v 0.00186300 0.02765800 0.16516500
v 0.00998200 0.02510000 0.16409600
v -0.02848100 0.01089900 0.05225700
v -0.03067500 -0.00132300 0.17220000
v -0.02836900 0.01163300 0.17220000
v -0.02836900 0.01163300 0.17220000
v -0.02836900 0.01163300 0.17220000
v -0.02836900 0.01163300 0.17220000
v -0.03061800 0.00144700 0.04580000
v -0.02938400 -0.00891600 0.04580000
v -0.01465400 -0.02797900 0.05469500
v -0.01903400 -0.02508400 0.05478200
v -0.01419900 0.02690300 0.17780000
v -0.01419900 0.02690300 0.17780000
v -0.01419900 0.02690300 0.17780000
v -0.02270100 0.02024600 0.17780100
v -0.03037000 -0.00421500 0.17780000
v -0.02810200 -0.01232500 0.17779900
v -0.00482700 -0.03149400 0.17219000
v -0.01247500 -0.02936200 0.17219100
v -0.02694900 -0.01691700 0.17219100
v -0.03085900 -0.00725400 0.17219500
v -0.02353300 0.02026000 0.05490800
v 0.02142500 -0.02323000 0.05460400
v 0.02610700 -0.01750900 0.05491800
v -0.02623700 -0.00906800 0.05889200
v -0.00254600 -0.02732100 0.06037600
v 0.00313900 -0.02741500 0.05937500
v 0.00313900 -0.02741500 0.05937500
v -0.02309600 -0.02144600 0.05479300
v -0.03122500 -0.00332700 0.16896200
v -0.03108400 0.00266600 0.16864800
v -0.00843900 -0.03049400 0.05474500
v -0.02642000 -0.00672300 0.16319600
v -0.02642000 -0.00672300 0.16319600
v -0.02642000 -0.00672300 0.16319600
v 0.02441700 0.01825100 0.17220000
v 0.01548300 0.02622400 0.17219900
v 0.02447100 -0.01242800 0.05934300
v 0.03043900 0.00695800 0.16883400
v 0.02830900 0.01319500 0.16892200
v 0.00162900 -0.03140800 0.05493700
v -0.00580400 -0.02692100 0.16403000
v -0.00580400 -0.02692100 0.16403000
v 0.01148700 0.02445100 0.05940300
v -0.00294600 -0.03079400 0.17780000
v -0.01366700 -0.02777500 0.17780000
v 0.02142500 0.01752300 0.16496300
v -0.01613700 -0.02637400 0.05223600
v -0.02293000 -0.02060600 0.05223500
v 0.01617200 0.02569700 0.04580100
v 0.02341600 0.01942800 0.04579800
v -0.02161000 0.02272300 0.05232500
v -0.02161000 0.02272300 0.05232500
v -0.02161000 0.02272300 0.05232500
v 0.02581400 -0.00864100 0.16323600
v 0.02836700 0.01122800 0.17780000
v 0.01044200 0.02840300 0.05218400
v 0.01572500 0.02594600 0.05223500
v 0.01572500 0.02594600 0.05223500
v 0.01828100 -0.02494800 0.17219900
v 0.01828100 -0.02494800 0.17219900
v 0.01828100 -0.02494800 0.17219900
v -0.01952400 -0.02444300 0.16846000
v -0.02673300 -0.01515600 0.05225300
v -0.02959900 -0.00842200 0.05225100
v -0.02638300 0.00664000 0.16426800
v -0.02449300 0.01201700 0.16442700
v -0.00920000 -0.02957400 0.04580000
v -0.01870700 -0.02453800 0.04579900
v 0.02918000 -0.00940300 0.17220100
v 0.02563700 -0.01704300 0.17220000
v -0.03024500 0.00412700 0.17780000
v 0.02037500 0.02355700 0.16903200
v 0.01596200 0.02683300 0.16963700
v 0.01063100 -0.02615100 0.05849200
v 0.01725100 0.02094500 0.05937700
v 0.01478200 -0.02801700 0.16912900
v 0.02102200 -0.02326800 0.16845300
v 0.02707500 -0.00252100 0.16317300
v -0.01086000 0.02545900 0.05852100
v 0.00277500 -0.03082600 0.05223600
v 0.01125700 -0.02879900 0.05225100
v 0.03054300 0.00190000 0.04580000
v 0.02972800 -0.00764300 0.04580000
v -0.00358400 -0.03063400 0.05220700
v -0.00358400 -0.03063400 0.05220700
v -0.00358400 -0.03063400 0.05220700
v 0.01293300 -0.02433500 0.16417700
v -0.01665800 0.02128100 0.05932400
v -0.01665800 0.02128100 0.05932400
v -0.02249400 -0.02226500 0.16946200
v -0.03031100 0.00779300 0.16905900
v -0.01801300 -0.02621900 0.05232500
v 0.02084500 -0.02435500 0.05233400
v 0.00966300 -0.03037400 0.05236500
v -0.00418000 -0.03124100 0.05485000
v 0.00152000 -0.03087700 0.04580000
v 0.00152000 -0.03087700 0.04580000
v 0.00152000 -0.03087700 0.04580000
v 0.00978500 -0.02925200 0.04580000
v -0.02766400 0.01305000 0.04580000
v -0.02766400 0.01305000 0.04580000
v -0.02766400 0.01305000 0.04580000
v 0.02541800 -0.01749900 0.04580000
v 0.00484700 0.02643600 0.16337300
v -0.01063700 0.02472000 0.06036300
v 0.02912700 -0.01148200 0.05497100
v -0.02342800 -0.01431900 0.05942000
v -0.01451800 0.02752600 0.16900100
v 0.00279900 -0.03183200 0.17219400
v -0.01106600 0.02822000 0.05222200
v 0.01769700 -0.02522900 0.05220600
v 0.02402600 0.01977100 0.16879500
v 0.01030600 -0.02544900 0.06030500
v 0.01756900 -0.02540000 0.04580100
v 0.02211000 0.02232800 0.05237300
v 0.02547000 -0.01863900 0.16933300
v -0.00455600 -0.03078000 0.16818900
v 0.00302000 -0.02737700 0.16350400
v 0.00302000 -0.02737700 0.16350400
v 0.00302000 -0.02737700 0.16350400
v -0.01058100 -0.02539500 0.06026800
v -0.02314300 -0.02045500 0.17780000
v -0.00883800 -0.02958400 0.05223200
v -0.02609000 -0.01827300 0.05241000
v -0.03028400 -0.00939300 0.05234300
v 0.00860300 -0.02993900 0.16811300
v 0.02288600 0.02011000 0.17780100
v 0.01690000 -0.02591400 0.17780000
v 0.01690000 -0.02591400 0.17780000
v 0.02541800 -0.01749900 0.17780000
v -0.02110800 0.01793500 0.16506000
v -0.03080600 -0.00165800 0.05546600
v -0.03105200 -0.00479000 0.05456200
v 0.02784400 -0.01541900 0.05235600
v -0.02794100 0.01222700 0.17780000
v -0.02794100 0.01222700 0.17780000
v -0.02794100 0.01222700 0.17780000
v -0.03113000 0.00337300 0.05456700
v -0.02961300 0.00808500 0.05549500
v 0.01173400 0.02868100 0.16866200
v -0.02721800 0.00151200 0.16414300
v 0.00295600 0.03029800 0.17220000
v 0.00695200 -0.03011600 0.17780000
v 0.00695200 -0.03011600 0.17780000
v 0.02836700 0.01122800 0.04580000
v 0.00534800 0.02997200 0.04580000
v -0.02845300 0.01242300 0.05499500
v -0.01744800 0.02616700 0.05236500
v -0.00051900 -0.03163600 0.16889400
v 0.00643600 -0.03117400 0.16944200
v -0.02177200 0.01608500 0.16333000
v 0.02088200 0.02200000 0.05218400
v 0.02088200 0.02200000 0.05218400
v 0.02277000 0.01585500 0.05848400
v 0.01865900 0.02485400 0.05477300
v 0.02482400 0.01099400 0.16407600
v 0.02660300 0.00564300 0.16414500
v 0.02690300 0.01623400 0.17219100
v 0.02190900 0.02256800 0.17220000
v 0.02190900 0.02256800 0.17220000
v 0.02295400 -0.02060100 0.05224800
v 0.01561600 -0.02734500 0.05494100
v -0.02069900 -0.02420800 0.17219800
v 0.02784400 0.00107600 0.05852500
v 0.00806800 -0.02662700 0.16458000
v -0.00229900 0.03097100 0.05462400
v 0.01220400 0.02891500 0.05233800
v 0.03038300 0.00879100 0.17218400
v -0.02528300 -0.01757300 0.04580100
v -0.02528300 -0.01757300 0.04580100
v -0.02528300 -0.01757300 0.04580100
v -0.02528300 -0.01757300 0.04580100
v 0.02570700 0.00875400 0.05959500
v -0.01731000 0.02551500 0.05517700
v 0.00083500 -0.02800400 0.16468400
v -0.01991200 0.02447200 0.17220000
v 0.01310000 -0.02915800 0.17220000
v 0.03095100 -0.00659200 0.05235100
v 0.03136500 0.00095100 0.16892400
v 0.02188200 -0.02323200 0.17218100
v 0.02188200 -0.02323200 0.17218100
v -0.01093900 0.02901200 0.05480500
v 0.01294100 0.02855000 0.17220000
v 0.01294100 0.02855000 0.17220000
v 0.01294100 0.02855000 0.17220000
vn -0.00030000 -0.00040000 1.00000000
vn -0.00000000 -0.00000000 1.00000000
vn 0.00020000 0.00060000 1.00000000
vn -0.00000000 -0.00000000 1.00000000
vn -0.00000000 -0.00010000 1.00000000
vn -0.00020000 0.00050000 1.00000000
vn -0.00030000 0.00060000 1.00000000
vn -0.00000000 -0.00000000 1.00000000
vn -0.00020000 -0.00000000 1.00000000
vn 0.00270000 -0.00040000 1.00000000
vn 0.00670000 -0.00150000 1.00000000
vn 0.00610000 -0.00150000 1.00000000
vn 0.00270000 -0.00040000 1.00000000
vn 0.00450000 0.00130000 1.00000000
vn -0.00000000 0.00010000 1.00000000
vn -0.00020000 -0.00000000 1.00000000
vn 0.20690000 -0.97830000 -0.00860000
vn 0.24490000 -0.96930000 0.02400000
vn 0.01350000 0.00490000 0.99990000
vn -0.00030000 -0.00040000 1.00000000
vn -0.00000000 -0.00000000 1.00000000
vn -0.00020000 -0.00000000 1.00000000
vn 0.70190000 -0.71050000 0.05050000
vn 0.71050000 -0.70310000 0.02980000
vn 0.79790000 0.60280000 -0.00700000
vn 0.00020000 0.00060000 1.00000000
vn -0.00030000 -0.00040000 1.00000000
vn -0.00040000 -0.00060000 1.00000000
vn -0.00000000 -0.00010000 1.00000000
vn -0.00050000 -0.00070000 1.00000000
vn -0.00000000 -0.00000000 1.00000000
vn 0.01340000 -0.01100000 0.99990000
vn 0.00920000 -0.00870000 0.99990000
vn 0.00020000 0.00060000 1.00000000
vn 0.16110000 0.96910000 0.18670000
vn 0.26360000 0.74920000 0.60760000
vn -0.04480000 -0.82830000 0.55850000
vn -0.24390000 -0.68920000 0.68230000
vn -0.10720000 -0.92090000 0.37490000
vn -0.39030000 -0.92070000 -0.00240000
vn -0.77400000 -0.60190000 -0.19660000
vn -0.63810000 -0.74940000 0.17690000
vn -0.87370000 -0.48630000 -0.01130000
vn -0.76920000 -0.63470000 -0.07420000
vn -0.98200000 -0.16470000 0.09300000
vn -0.97920000 -0.20300000 -0.00180000
vn -0.98200000 -0.16470000 0.09300000
vn -0.99510000 0.09870000 -0.00310000
vn -0.77470000 0.33410000 0.53690000
vn -0.86300000 0.35240000 0.36200000
vn -0.90400000 0.39030000 0.17440000
vn -0.65680000 0.49760000 0.56660000
vn -0.73540000 0.65160000 0.18610000
vn -0.50790000 0.77660000 0.37260000
vn -0.36260000 0.85240000 0.37690000
vn -0.38240000 0.92400000 -0.00170000
vn 0.16110000 0.96910000 0.18670000
vn -0.13190000 0.99130000 -0.00000000
vn 0.06560000 0.87190000 -0.48520000
vn 0.06130000 0.73390000 -0.67650000
vn -0.20230000 -0.97930000 0.00220000
vn -0.38610000 -0.75200000 -0.53420000
vn -0.46650000 -0.86760000 -0.17220000
vn -0.73910000 -0.65640000 -0.15140000
vn -0.80950000 -0.54630000 -0.21520000
vn -0.70680000 -0.36380000 -0.60660000
vn -0.94350000 -0.20400000 -0.26130000
vn -0.83780000 -0.01840000 -0.54570000
vn -0.94350000 -0.20400000 -0.26130000
vn -0.99920000 0.03890000 0.00030000
vn -0.74430000 -0.09320000 -0.66130000
vn -0.72530000 0.20180000 -0.65820000
vn -0.65650000 0.33110000 -0.67780000
vn -0.58230000 0.65690000 -0.47890000
vn -0.58210000 0.54310000 -0.60520000
vn -0.60080000 0.79890000 -0.02740000
vn -0.59320000 0.63170000 -0.49910000
vn -0.46290000 0.87940000 -0.11150000
vn -0.51650000 0.80980000 -0.27830000
vn -0.21380000 0.97660000 -0.02190000
vn -0.05770000 0.98930000 -0.13360000
vn 0.29430000 0.84650000 0.44370000
vn 0.46810000 0.85780000 0.21220000
vn 0.04000000 0.08840000 -0.99530000
vn 0.10460000 0.99450000 0.00250000
vn -0.10250000 -0.72380000 0.68240000
vn 0.03320000 -0.75380000 0.65620000
vn 0.00190000 0.02260000 -0.99970000
vn 0.00190000 0.02260000 -0.99970000
vn 0.31190000 -0.92310000 0.22510000
vn 0.21560000 -0.82550000 0.52160000
vn 0.37680000 -0.65770000 0.65230000
vn 0.70190000 -0.69310000 0.16420000
vn 0.62700000 -0.42090000 0.65550000
vn 0.06150000 -0.06520000 -0.99600000
vn 0.11700000 -0.07250000 -0.99050000
vn 0.92100000 -0.37360000 0.11050000
vn 0.72720000 -0.17610000 0.66340000
vn 0.97740000 -0.16120000 0.13650000
vn 0.86810000 -0.08420000 0.48920000
vn 0.97860000 0.07430000 0.19170000
vn 0.85820000 0.12450000 0.49800000
vn 0.72980000 0.24490000 0.63830000
vn 0.64760000 0.37360000 0.66410000
vn 0.11110000 0.04490000 -0.99280000
vn 0.78430000 0.61940000 0.03480000
vn 0.69540000 0.71360000 0.08440000
vn 0.57390000 0.81820000 -0.03420000
vn -0.15960000 -0.95590000 -0.24660000
vn -0.00130000 -0.00980000 1.00000000
vn 0.01890000 -0.76270000 -0.64650000
vn 0.09950000 -0.80450000 -0.58550000
vn 0.19880000 -0.72120000 -0.66360000
vn 0.49430000 -0.86560000 -0.07980000
vn 0.65290000 -0.74360000 -0.14370000
vn 0.68330000 -0.72360000 -0.09760000
vn 0.63570000 -0.52230000 -0.56840000
vn 0.63950000 -0.43450000 -0.63420000
vn 0.92480000 -0.36470000 -0.10840000
vn 0.81450000 -0.39310000 -0.42670000
vn 0.98160000 -0.18870000 0.02840000
vn 0.89730000 -0.18670000 -0.40000000
vn 0.74500000 0.02210000 -0.66670000
vn 0.00670000 -0.00150000 1.00000000
vn 0.00270000 -0.00040000 1.00000000
vn 0.00330000 0.00020000 1.00000000
vn 0.97260000 0.21060000 -0.09890000
vn 0.89770000 0.43520000 -0.06930000
vn 0.01240000 0.00290000 0.99990000
vn 0.72690000 0.24270000 -0.64240000
vn 0.77950000 0.62230000 -0.07100000
vn 0.84430000 0.52930000 -0.08390000
vn 0.63720000 0.76760000 -0.06890000
vn 0.47070000 0.69260000 -0.54660000
vn 0.43540000 0.69250000 -0.57520000
vn 0.35890000 0.92920000 -0.08790000
vn 0.22240000 0.95210000 -0.20980000
vn 0.10900000 0.87110000 -0.47880000
vn -0.00010000 -0.00400000 1.00000000
vn -0.00030000 0.00060000 1.00000000
vn -0.00000000 -0.00000000 1.00000000
vn 0.40490000 0.91360000 -0.03750000
vn 0.00670000 -0.00150000 1.00000000
vn 0.00350000 -0.00180000 1.00000000
vn 0.69060000 0.72100000 -0.05630000
vn 0.40570000 -0.91080000 -0.07690000
vn 0.81360000 0.04600000 -0.57970000
vn 0.56880000 0.47590000 -0.67080000
vn 0.88750000 -0.30190000 -0.34810000
vn 0.76550000 -0.51350000 -0.38780000
vn 0.57830000 0.72640000 -0.37130000
vn 0.66850000 -0.74370000 0.00540000
vn 0.48280000 -0.58030000 -0.65580000
vn 0.74180000 0.66250000 0.10410000
vn 0.80290000 0.57420000 -0.16010000
vn 0.43440000 -0.90070000 0.00200000
vn 0.33880000 -0.85510000 0.39230000
vn 0.86740000 0.47880000 0.13540000
vn 0.90630000 0.42220000 -0.02010000
vn -0.07640000 -0.81500000 -0.57450000
vn 0.98120000 0.19310000 0.00190000
vn 0.19740000 -0.90160000 0.38490000
vn 0.98230000 0.08080000 0.16910000
vn 0.93770000 -0.05690000 -0.34270000
vn 0.89830000 -0.35680000 0.25650000
vn 0.89780000 -0.44000000 0.01990000
vn 0.75950000 -0.65050000 0.00380000
vn 0.32430000 0.68320000 0.65420000
vn 0.48090000 -0.78490000 0.39070000
vn 0.47140000 0.57860000 0.66550000
vn 0.59670000 0.42810000 0.67870000
vn 0.34440000 -0.85290000 0.39250000
vn 0.70330000 0.24610000 0.66690000
vn 0.93750000 0.05770000 0.34310000
vn 0.10210000 0.00730000 -0.99470000
vn 0.22240000 0.96540000 0.13610000
vn 0.03040000 -0.10210000 -0.99430000
vn -0.24190000 0.00530000 -0.97030000
vn -0.98930000 -0.04770000 0.13790000
vn -0.96590000 0.20240000 0.16140000
vn -0.97700000 0.21110000 -0.02910000
vn -0.93210000 0.36220000 0.00270000
vn -0.08540000 0.05370000 -0.99490000
vn -0.08800000 0.04650000 -0.99500000
vn -0.73580000 0.65780000 0.16090000
vn -0.05860000 0.06630000 0.99610000
vn -0.05320000 0.05070000 -0.99730000
vn -0.45270000 0.87180000 0.18680000
vn 0.00080000 -0.12290000 -0.99240000
vn -0.29760000 -0.95460000 0.01530000
vn -0.38430000 0.92280000 -0.02680000
vn -0.54050000 0.81850000 0.19490000
vn -0.03560000 -0.08810000 -0.99550000
vn -0.05480000 -0.10230000 -0.99320000
vn -0.24020000 0.94900000 0.20410000
vn -0.10450000 0.99440000 -0.01280000
vn -0.10560000 0.98640000 0.12590000
vn -0.74010000 -0.67250000 -0.00230000
vn 0.00120000 0.02300000 0.99970000
vn 0.00230000 0.18210000 -0.98330000
vn -0.88030000 -0.47440000 -0.00570000
vn -0.11670000 -0.07870000 -0.99000000
vn -0.09520000 -0.03110000 -0.99500000
vn -0.10880000 -0.02050000 -0.99390000
vn -0.00010000 -0.00000000 -1.00000000
vn 0.04230000 -0.99880000 -0.02630000
vn 0.10510000 -0.99450000 -0.00020000
vn 0.13950000 -0.00920000 -0.99020000
vn -0.00000000 -0.00010000 -1.00000000
vn -0.00000000 -0.00030000 -1.00000000
vn -0.00010000 -0.00000000 -1.00000000
vn -0.00040000 0.00020000 -1.00000000
vn 0.00120000 0.02300000 0.99970000
vn 0.12600000 -0.03750000 -0.99130000
vn -0.00100000 -0.00080000 -1.00000000
vn -0.00010000 0.00010000 -1.00000000
vn 0.00010000 -0.00000000 -1.00000000
vn -0.00000000 -0.00010000 -1.00000000
vn -0.00000000 -0.00000000 -1.00000000
vn 0.00120000 0.02300000 0.99970000
vn 0.14450000 -0.06200000 -0.98760000
vn -0.00040000 0.00020000 -1.00000000
vn 0.11450000 0.09350000 0.98900000
vn -0.00100000 -0.00080000 -1.00000000
vn 0.11450000 0.09350000 0.98900000
vn -0.00000000 0.00020000 -1.00000000
vn -0.00000000 -0.00000000 -1.00000000
vn -0.00040000 0.00020000 -1.00000000
vn 0.00010000 -0.00000000 -1.00000000
vn -0.00010000 -0.00000000 -1.00000000
vn 0.11450000 0.09350000 0.98900000
vn -0.00010000 -0.00000000 -1.00000000
vn -0.00100000 -0.00080000 -1.00000000
vn -0.00000000 -0.00000000 -1.00000000
vn 0.36580000 -0.93070000 -0.00340000
vn -0.00000000 0.00020000 -1.00000000
vn 0.97770000 0.20990000 -0.00220000
vn 0.00010000 -0.00000000 -1.00000000
vn 0.00040000 0.00010000 -1.00000000
vn -0.89820000 0.43870000 -0.02880000
vn 0.00010000 -0.00000000 -1.00000000
vn -0.00000000 -0.00030000 -1.00000000
vn -0.00010000 0.00010000 -1.00000000
vn -0.00000000 0.00010000 -1.00000000
vn -0.82720000 -0.56130000 -0.02590000
vn -0.00000000 -0.00000000 -1.00000000
vn -0.00000000 0.00010000 -1.00000000
vn -0.00000000 -0.00010000 -1.00000000
vn 0.00040000 0.00010000 -1.00000000
vn 0.10710000 -0.08270000 -0.99080000
vn 0.08290000 -0.15400000 -0.98460000
vn -0.57490000 -0.81410000 0.08160000
vn -0.08510000 0.75180000 0.65390000
vn -0.75330000 0.09450000 0.65080000
vn -0.24740000 -0.96660000 0.06610000
vn -0.92290000 0.31490000 0.22170000
vn -0.45950000 -0.88750000 0.03640000
vn -0.73760000 0.46830000 0.48650000
vn -0.62780000 -0.77240000 0.09610000
vn -0.53520000 -0.49710000 0.68300000
vn -0.70230000 -0.23970000 0.67030000
vn -0.94790000 0.27270000 0.16500000
vn -0.72950000 0.67680000 0.09840000
vn -0.55660000 0.80280000 0.21350000
vn -0.37360000 0.92540000 0.06400000
vn -0.95620000 -0.00930000 0.29270000
vn -0.71840000 -0.21350000 -0.66210000
vn -0.01410000 0.99980000 -0.01640000
vn -0.27580000 0.95610000 -0.09920000
vn -0.88750000 -0.44720000 -0.11070000
vn -0.80890000 -0.58090000 -0.09130000
vn -0.61070000 -0.77890000 -0.14300000
vn -0.52340000 -0.85130000 -0.03740000
vn -0.28250000 -0.95540000 -0.08560000
vn -0.74530000 0.41610000 -0.52090000
vn -0.95760000 0.28330000 -0.05170000
vn -0.99110000 0.06420000 -0.11660000
vn -0.00740000 -0.00050000 1.00000000
vn -0.00160000 0.00040000 1.00000000
vn -0.00120000 0.00020000 1.00000000
vn -0.39780000 -0.91470000 -0.07070000
vn -0.89990000 0.39960000 -0.17470000
vn 0.00010000 -0.00010000 1.00000000
vn -0.00160000 0.00040000 1.00000000
vn -0.64250000 -0.76320000 -0.06890000
vn -0.76960000 0.59970000 -0.21930000
vn 0.00090000 -0.00060000 1.00000000
vn 0.00010000 -0.00010000 1.00000000
vn -0.00000000 -0.00000000 1.00000000
vn -0.60800000 -0.57950000 -0.54270000
vn -0.65220000 0.73320000 -0.19240000
vn -0.00850000 -0.00580000 0.99990000
vn -0.35510000 0.63990000 -0.68150000
vn -0.00300000 -0.00080000 1.00000000
vn -0.00740000 -0.00050000 1.00000000
vn -0.00030000 0.00060000 1.00000000
vn -0.00030000 0.00220000 1.00000000
vn -0.87970000 -0.47550000 -0.00080000
vn -0.60010000 -0.79990000 -0.00480000
vn -0.00650000 -0.00050000 1.00000000
vn -0.00740000 -0.00050000 1.00000000
vn -0.00370000 -0.01380000 0.99990000
vn -0.92090000 0.38960000 -0.00980000
vn -0.69790000 0.71610000 -0.01440000
vn -0.55620000 0.82770000 -0.07400000
vn -0.69100000 -0.14980000 0.70720000
vn -0.83530000 -0.51780000 0.18460000
vn 0.37520000 0.92680000 -0.01630000
vn 0.18160000 -0.96720000 -0.17790000
vn 0.18160000 -0.96720000 -0.17790000
vn 0.84350000 -0.09550000 0.52860000
vn -0.00000000 0.00010000 1.00000000
vn -0.00000000 -0.00000000 1.00000000
vn -0.90440000 0.42600000 0.02400000
vn -0.00010000 -0.00000000 1.00000000
vn -0.00000000 -0.00000000 1.00000000
vn -0.00000000 -0.00000000 1.00000000
vn -0.00040000 -0.00020000 1.00000000
vn -0.00010000 -0.00000000 1.00000000
vn -0.28300000 0.95380000 0.10110000
vn -0.00040000 -0.00020000 1.00000000
vn -0.00000000 -0.00000000 1.00000000
vn -0.00040000 -0.00020000 1.00000000
vn 0.00050000 -0.00040000 1.00000000
vn 0.00080000 -0.00060000 1.00000000
vn 0.00090000 -0.00060000 1.00000000
vn -0.00540000 0.01190000 0.99990000
vn -0.24250000 0.96940000 0.03660000
vn 0.79200000 0.61050000 0.00910000
vn 0.88830000 0.45930000 -0.00420000
vn 0.13590000 0.08810000 -0.98680000
vn -0.01430000 0.87190000 0.48950000
vn 0.12160000 0.99260000 0.00040000
vn 0.16110000 0.96910000 0.18670000
vn -0.16830000 0.91870000 0.35720000
vn -0.04610000 0.18430000 -0.98180000
vn -0.02130000 0.13710000 -0.99030000
vn 0.95300000 -0.28240000 0.10990000
vn -0.91520000 0.14220000 0.37700000
vn -0.91820000 0.39600000 -0.00350000
vn 0.99860000 -0.02700000 -0.04540000
vn 0.91040000 -0.40830000 -0.06710000
vn -0.72770000 0.02660000 0.68530000
vn -0.90090000 0.05070000 0.43110000
vn 0.04620000 0.23350000 -0.97130000
vn 0.96590000 -0.25870000 0.00910000
vn 0.89860000 -0.43870000 -0.00790000
vn 1.00000000 0.00640000 -0.00140000
vn 0.94730000 0.32020000 -0.01260000
vn -0.01180000 -0.00550000 0.99990000
vn -0.00200000 -0.00430000 1.00000000
vn -0.03430000 0.14090000 -0.98940000
vn 0.02190000 0.26060000 -0.96520000
vn 0.13930000 0.98990000 0.02550000
vn 0.21540000 0.73520000 0.64280000
vn -0.04430000 0.73900000 0.67220000
vn -0.07180000 0.89520000 0.43990000
vn 0.25680000 0.96630000 -0.01730000
vn 0.50800000 0.86100000 0.02430000
vn -0.85760000 0.49250000 -0.14840000
vn -0.06860000 0.05660000 -0.99600000
vn -0.86590000 0.48830000 -0.10800000
vn -0.74990000 0.65370000 0.10160000
vn -0.05710000 -0.98810000 0.14300000
vn 0.13440000 -0.97600000 0.17110000
vn 0.02100000 -0.08130000 -0.99650000
vn -0.05340000 -0.56400000 -0.82400000
vn 0.68880000 -0.29410000 -0.66260000
vn 0.74760000 -0.12530000 -0.65220000
vn 0.08640000 0.73930000 0.66780000
vn -0.03870000 0.74960000 -0.66070000
vn -0.19490000 0.74450000 -0.63850000
vn 0.11630000 0.99260000 -0.03360000
vn -0.21210000 0.97500000 -0.06660000
vn -0.62450000 0.78040000 -0.02970000
vn -0.24420000 0.96910000 -0.03470000
vn 0.97000000 -0.24300000 0.00690000
vn 0.99620000 0.08600000 0.01290000
vn -0.16800000 -0.02360000 -0.98550000
vn -0.10160000 0.02270000 -0.99460000
vn 0.84070000 0.54090000 0.02410000
vn 0.56040000 0.49420000 0.66460000
vn -0.11320000 0.99310000 -0.03110000
vn 0.83180000 -0.55510000 0.00230000
vn 0.65670000 -0.75420000 0.00100000
vn 0.96370000 0.26610000 0.02090000
vn 0.61470000 0.78870000 0.00180000
vn -0.93900000 -0.34260000 -0.02980000
vn -0.63390000 -0.33960000 -0.69480000
vn -0.98530000 0.15270000 -0.07710000
vn -0.86240000 0.50610000 -0.00870000
vn 0.90740000 0.40970000 0.09400000
vn 0.99920000 0.03110000 0.02360000
vn -0.05860000 0.06630000 0.99610000
vn -0.80260000 0.59540000 -0.03730000
vn -0.49100000 0.86640000 0.09130000
vn -0.05860000 0.06630000 0.99610000
vn -0.91650000 -0.38670000 0.10270000
vn -0.62950000 -0.42000000 0.65370000
vn -0.98200000 -0.16470000 0.09300000
vn -0.87620000 -0.03890000 0.48040000
vn -0.74230000 -0.33900000 0.57800000
vn -0.49900000 -0.59500000 -0.63000000
vn -0.88420000 -0.46690000 -0.01260000
vn -0.21600000 0.81280000 -0.54090000
vn -0.14790000 0.75500000 -0.63880000
vn 0.99840000 -0.05660000 -0.00420000
vn 0.23310000 0.05360000 -0.97100000
vn 0.66720000 -0.34880000 -0.65820000
vn 0.73390000 -0.14620000 -0.66330000
vn -0.99970000 -0.02360000 0.00030000
vn -0.09270000 0.02280000 -0.99540000
vn -0.33270000 -0.93890000 0.08840000
vn -0.05340000 -0.56400000 -0.82400000
vn 0.00190000 0.02260000 -0.99970000
vn -0.07550000 0.02910000 -0.99670000
vn 0.56530000 -0.48920000 0.66420000
vn 0.43100000 -0.60360000 0.67070000
vn 0.57410000 -0.81880000 -0.00110000
vn -0.70140000 0.71270000 0.01240000
vn -0.73540000 -0.29170000 -0.61160000
vn -0.78100000 -0.06900000 -0.62070000
vn -0.37320000 -0.65950000 -0.65250000
vn -0.23840000 -0.71010000 -0.66250000
vn 0.85580000 -0.08880000 0.50960000
vn 0.71680000 -0.14230000 0.68260000
vn 0.00110000 -0.00630000 1.00000000
vn -0.24510000 -0.96950000 -0.00190000
vn -0.59490000 -0.44730000 -0.66780000
vn -0.27520000 -0.87150000 0.40580000
vn -0.44440000 -0.57950000 0.68310000
vn -0.52010000 -0.74170000 0.42350000
vn 0.96110000 -0.26950000 0.05990000
vn -0.44380000 0.64620000 -0.62080000
vn -0.27210000 0.74040000 -0.61460000
vn 0.27210000 0.94330000 -0.18990000
vn 0.02810000 0.89760000 -0.43980000
vn 0.27830000 0.71650000 -0.63960000
vn -0.07600000 0.03600000 -0.99650000
vn -0.99890000 -0.03850000 -0.02730000
vn 0.00090000 -0.00060000 1.00000000
vn 0.00010000 -0.00010000 1.00000000
vn -0.00160000 0.00040000 1.00000000
vn -0.00140000 0.00030000 1.00000000
vn -0.99830000 0.05450000 -0.02300000
vn -0.96150000 -0.27390000 -0.02210000
vn -0.34180000 -0.65470000 0.67420000
vn -0.45590000 -0.59990000 0.65750000
vn -0.00000000 -0.00000000 1.00000000
vn 0.00050000 -0.00040000 1.00000000
vn -0.57310000 0.81840000 -0.04300000
vn -0.74890000 0.66270000 -0.00210000
vn -0.98620000 -0.16350000 -0.02480000
vn -0.93380000 -0.35780000 0.00640000
vn -0.15860000 -0.98130000 -0.10920000
vn -0.00280000 -0.00590000 1.00000000
vn -0.85350000 -0.51540000 -0.07690000
vn -0.97530000 -0.21460000 -0.05260000
vn -0.58630000 0.47850000 0.65370000
vn 0.51450000 -0.55670000 0.65210000
vn 0.81200000 -0.57690000 0.08920000
vn -0.73530000 -0.25520000 0.62790000
vn -0.11900000 -0.99290000 -0.00140000
vn 0.08910000 -0.75820000 0.64590000
vn 0.12790000 -0.99180000 0.00050000
vn -0.71510000 -0.69890000 -0.00830000
vn -0.99760000 -0.06950000 -0.00210000
vn -0.75180000 0.07580000 -0.65510000
vn -0.19820000 -0.70700000 0.67880000
vn -0.76590000 -0.35190000 -0.53810000
vn -0.97500000 -0.22210000 -0.00030000
vn -0.94350000 -0.20400000 -0.26130000
vn 0.00630000 0.00360000 1.00000000
vn 0.50390000 0.86370000 -0.01260000
vn 0.66460000 -0.31820000 0.67610000
vn 0.73460000 0.17350000 -0.65590000
vn 0.68460000 0.33330000 -0.64830000
vn 0.05970000 -0.98570000 0.15760000
vn -0.29120000 -0.88490000 -0.36360000
vn -0.13840000 -0.77270000 -0.61950000
vn 0.39610000 0.91820000 -0.00050000
vn -0.07770000 -0.99670000 -0.02310000
vn -0.44920000 -0.89340000 -0.00360000
vn 0.69400000 0.59760000 -0.40160000
vn -0.52090000 -0.85360000 -0.00820000
vn -0.17100000 -0.16160000 -0.97190000
vn 0.52300000 0.85190000 -0.02640000
vn 0.76550000 0.64300000 -0.02180000
vn -0.04890000 0.04510000 -0.99780000
vn -0.65190000 0.72760000 0.21360000
vn -0.04280000 0.06340000 -0.99710000
vn 0.94830000 -0.31740000 0.00310000
vn 0.92430000 0.38170000 0.00760000
vn 0.35220000 0.93560000 -0.02350000
vn 0.51310000 0.85840000 0.00240000
vn 0.11410000 0.16910000 -0.97900000
vn 0.01090000 -0.01300000 0.99990000
vn 0.00920000 -0.00870000 0.99990000
vn 0.41460000 -0.90840000 -0.05450000
vn -0.47500000 -0.57910000 -0.66250000
vn -0.14910000 -0.07910000 -0.98570000
vn -0.96800000 -0.25060000 -0.01280000
vn -0.96870000 0.24840000 -0.00040000
vn -0.89380000 0.44790000 -0.02350000
vn -0.30050000 -0.95350000 -0.02220000
vn -0.61020000 -0.79190000 -0.02340000
vn 0.95070000 -0.31010000 -0.00320000
vn 0.83480000 -0.55040000 -0.01220000
vn -0.98760000 0.15460000 -0.02690000
vn 0.47210000 0.58980000 -0.65510000
vn 0.52830000 0.84850000 0.02900000
vn 0.27870000 -0.67810000 0.68010000
vn 0.62870000 0.77730000 0.02290000
vn 0.36290000 -0.67020000 -0.64740000
vn 0.51430000 -0.55250000 -0.65600000
vn 0.99760000 -0.06870000 0.00250000
vn -0.27080000 0.68180000 0.67950000
vn 0.00550000 -0.11460000 -0.99340000
vn 0.07040000 -0.14340000 -0.98720000
vn 0.99730000 0.06990000 -0.02180000
vn 0.96910000 -0.24540000 -0.02470000
vn -0.11520000 -0.99320000 -0.01940000
vn -0.05340000 -0.56400000 -0.82400000
vn -0.02590000 -0.10650000 -0.99400000
vn 0.35180000 -0.67580000 -0.64770000
vn -0.60720000 0.79380000 0.03380000
vn -0.45100000 0.57840000 0.67980000
vn -0.72450000 -0.68850000 -0.03320000
vn -0.74160000 0.21850000 -0.63420000
vn -0.05650000 -0.07190000 -0.99580000
vn 0.63750000 -0.75490000 0.15400000
vn 0.33520000 -0.94160000 0.03220000
vn -0.13500000 -0.98440000 0.11320000
vn -0.00000000 0.00020000 -1.00000000
vn -0.00000000 -0.00030000 -1.00000000
vn 0.00010000 -0.00000000 -1.00000000
vn 0.31540000 -0.94880000 -0.01820000
vn -0.00000000 -0.00000000 -1.00000000
vn -0.00000000 0.00010000 -1.00000000
vn 0.00010000 -0.00000000 -1.00000000
vn 0.82830000 -0.55980000 -0.02300000
vn 0.21140000 0.97380000 -0.08440000
vn -0.37060000 0.84580000 0.38370000
vn 0.70080000 -0.24820000 0.66880000
vn -0.63340000 -0.39140000 0.66760000
vn -0.44490000 0.89410000 0.05170000
vn 0.08270000 -0.99490000 -0.05730000
vn -0.10630000 0.27490000 -0.95560000
vn 0.57790000 -0.81600000 0.01030000
vn 0.57460000 0.47820000 -0.66420000
vn 0.36400000 -0.93140000 -0.00060000
vn 0.57810000 -0.81580000 -0.01940000
vn 0.12350000 0.11220000 -0.98600000
vn 0.80920000 -0.58750000 0.00920000
vn -0.14260000 -0.65730000 -0.74000000
vn 0.12280000 -0.99240000 0.00250000
vn 0.24940000 -0.65470000 -0.71350000
vn 0.18160000 -0.96720000 -0.17790000
vn -0.39720000 -0.85120000 0.34300000
vn -0.74190000 -0.67020000 -0.01910000
vn -0.02870000 -0.10050000 -0.99450000
vn -0.82220000 -0.55380000 0.13180000
vn -0.94590000 -0.29350000 0.13810000
vn 0.32790000 -0.89630000 -0.29860000
vn 0.73600000 0.67690000 -0.00440000
vn 0.40850000 -0.91190000 -0.04020000
vn -0.00000000 -0.00000000 1.00000000
vn 0.82340000 -0.56750000 0.00500000
vn -0.83760000 0.50210000 -0.21530000
vn -0.70210000 -0.07780000 0.70780000
vn -0.98220000 -0.13970000 0.12530000
vn 0.87050000 -0.46940000 0.14820000
vn 0.00050000 -0.00040000 1.00000000
vn -0.00010000 -0.00000000 1.00000000
vn -0.00000000 -0.00000000 1.00000000
vn -0.99060000 0.10290000 0.08990000
vn -0.69610000 0.17890000 0.69530000
vn 0.28970000 0.71020000 -0.64170000
vn -0.75700000 0.04250000 -0.65200000
vn 0.09330000 0.99560000 -0.01180000
vn -0.00000000 -0.00000000 1.00000000
vn -0.00000000 0.00010000 1.00000000
vn 0.92550000 0.37820000 -0.02290000
vn 0.16430000 0.98620000 -0.01820000
vn -0.66350000 0.34810000 0.66230000
vn -0.04550000 0.07170000 -0.99640000
vn -0.04860000 -0.99510000 -0.08570000
vn 0.24050000 -0.97030000 -0.02560000
vn -0.80570000 0.58620000 -0.08500000
vn 0.67130000 0.74120000 -0.00840000
vn 0.11640000 0.13370000 -0.98420000
vn 0.76450000 0.53300000 0.36260000
vn 0.44370000 0.62950000 0.63780000
vn 0.69290000 0.31670000 -0.64780000
vn 0.75350000 0.15650000 -0.63860000
vn 0.00700000 0.00360000 1.00000000
vn -0.00050000 -0.00070000 1.00000000
vn 0.00010000 -0.00000000 1.00000000
vn 0.74220000 -0.67010000 -0.01190000
vn 0.48530000 -0.87420000 -0.01310000
vn -0.00140000 -0.00160000 1.00000000
vn 0.72270000 0.03780000 0.69010000
vn 0.23440000 -0.68260000 -0.69210000
vn -0.05230000 0.99190000 0.11600000
vn 0.36020000 0.92520000 0.11920000
vn 0.95520000 0.28150000 -0.09200000
vn -0.00010000 0.00010000 -1.00000000
vn 0.00010000 -0.00000000 -1.00000000
vn 0.00040000 0.00010000 -1.00000000
vn -0.00000000 -0.00000000 -1.00000000
vn 0.94590000 0.32180000 0.04050000
vn -0.41050000 0.61600000 0.67230000
vn -0.01960000 -0.78110000 -0.62410000
vn -0.61030000 0.78980000 -0.06120000
vn 0.00040000 -0.00040000 1.00000000
vn 0.11190000 -0.01980000 -0.99350000
vn 0.99620000 0.06630000 -0.05600000
vn 0.00920000 -0.00870000 0.99990000
vn 0.00950000 -0.00910000 0.99990000
vn -0.23300000 0.70430000 0.67060000
vn -0.00000000 -0.00010000 1.00000000
vn -0.00000000 -0.00000000 1.00000000
vn -0.00050000 -0.00070000 1.00000000
f 377//377 507//507 348//348
f 378//378 377//377 348//348
f 482//482 428//428 17//17
f 18//18 482//482 17//17
f 378//378 348//348 349//349
f 493//493 378//378 349//349
f 566//566 18//18 17//17
f 566//566 17//17 499//499
f 493//493 349//349 25//25
f 565//565 493//493 25//25
f 565//565 25//25 474//474
f 568//568 23//23 24//24
f 568//568 24//24 508//508
f 359//359 565//565 474//474
f 568//568 508//508 507//507
f 358//358 359//359 474//474
f 377//377 568//568 507//507
f 358//358 474//474 580//580
f 430//430 37//37 39//39
f 430//430 39//39 559//559
f 432//432 430//430 559//559
f 432//432 559//559 42//42
f 432//432 42//42 44//44
f 43//43 41//41 44//44
f 545//545 402//402 462//462
f 343//343 261//261 462//462
f 45//45 400//400 47//47
f 344//344 401//401 339//339
f 344//344 339//339 49//49
f 49//49 339//339 50//50
f 49//49 50//50 52//52
f 52//52 50//50 53//53
f 526//526 52//52 53//53
f 55//55 54//54 543//543
f 55//55 543//543 335//335
f 357//357 55//55 335//335
f 357//357 335//335 332//332
f 613//613 424//424 480//480
f 63//63 479//479 62//62
f 64//64 63//63 62//62
f 62//62 403//403 64//64
f 65//65 404//404 64//64
f 470//470 66//66 421//421
f 472//472 67//67 69//69
f 579//579 68//68 422//422
f 422//422 71//71 579//579
f 589//589 504//504 569//569
f 74//74 75//75 434//434
f 434//434 77//77 435//435
f 78//78 76//76 79//79
f 406//406 405//405 435//435
f 81//81 80//80 437//437
f 437//437 59//59 81//81
f 82//82 593//593 83//83
f 82//82 83//83 605//605
f 85//85 82//82 605//605
f 478//478 533//533 364//364
f 478//478 364//364 365//365
f 90//90 478//478 365//365
f 91//91 478//478 90//90
f 92//92 91//91 90//90
f 93//93 600//600 531//531
f 461//461 93//93 531//531
f 461//461 531//531 572//572
f 97//97 461//461 572//572
f 433//433 97//97 572//572
f 433//433 572//572 99//99
f 98//98 100//100 544//544
f 101//101 433//433 99//99
f 100//100 433//433 101//101
f 102//102 100//100 101//101
f 102//102 101//101 386//386
f 381//381 386//386 392//392
f 112//112 111//111 113//113
f 114//114 588//588 564//564
f 115//115 116//116 114//114
f 118//118 515//515 117//117
f 554//554 116//116 115//115
f 368//368 117//117 409//409
f 368//368 118//118 117//117
f 119//119 342//342 554//554
f 369//369 368//368 410//410
f 617//617 127//127 606//606
f 477//477 130//130 594//594
f 128//128 606//606 127//127
f 550//550 477//477 594//594
f 550//550 594//594 148//148
f 128//128 131//131 132//132
f 578//578 510//510 134//134
f 135//135 510//510 578//578
f 137//137 578//578 138//138
f 587//587 588//588 547//547
f 587//587 547//547 455//455
f 121//121 617//617 341//341
f 137//137 373//373 142//142
f 121//121 341//341 342//342
f 119//119 121//121 342//342
f 136//136 137//137 142//142
f 511//511 136//136 142//142
f 511//511 142//142 145//145
f 554//554 342//342 116//116
f 133//133 511//511 145//145
f 131//131 133//133 145//145
f 131//131 145//145 132//132
f 114//114 116//116 146//146
f 128//128 132//132 606//606
f 588//588 114//114 146//146
f 588//588 146//146 547//547
f 617//617 606//606 341//341
f 123//123 369//369 410//410
f 123//123 410//410 147//147
f 476//476 147//147 595//595
f 476//476 123//123 147//147
f 111//111 555//555 613//613
f 476//476 595//595 130//130
f 111//111 613//613 113//113
f 477//477 476//476 130//130
f 514//514 603//603 525//525
f 514//514 113//113 603//603
f 515//515 514//514 525//525
f 515//515 525//525 153//153
f 510//510 550//550 148//148
f 510//510 148//148 134//134
f 578//578 134//134 438//438
f 515//515 153//153 117//117
f 138//138 578//578 60//60
f 368//368 409//409 410//410
f 338//338 516//516 492//492
f 338//338 163//163 516//516
f 166//166 338//338 492//492
f 166//166 492//492 384//384
f 481//481 542//542 308//308
f 481//481 333//333 542//542
f 167//167 166//166 384//384
f 481//481 308//308 387//387
f 513//513 481//481 387//387
f 152//152 384//384 385//385
f 152//152 167//167 384//384
f 154//154 387//387 155//155
f 154//154 513//513 387//387
f 419//419 152//152 385//385
f 419//419 385//385 156//156
f 551//551 419//419 156//156
f 158//158 154//154 155//155
f 158//158 155//155 159//159
f 551//551 156//156 556//556
f 611//611 158//158 159//159
f 611//611 159//159 161//161
f 465//465 551//551 556//556
f 163//163 611//611 161//161
f 463//463 465//465 556//556
f 163//163 161//161 516//516
f 463//463 556//556 61//61
f 544//544 426//426 475//475
f 544//544 100//100 426//426
f 94//94 544//544 475//475
f 82//82 370//370 355//355
f 94//94 475//475 417//417
f 82//82 355//355 168//168
f 593//593 82//82 168//168
f 92//92 460//460 418//418
f 382//382 593//593 170//170
f 382//382 170//170 171//171
f 92//92 418//418 512//512
f 104//104 171//171 173//173
f 104//104 382//382 171//171
f 91//91 92//92 512//512
f 91//91 512//512 464//464
f 103//103 104//104 173//173
f 87//87 91//91 464//464
f 87//87 464//464 37//37
f 103//103 173//173 102//102
f 86//86 87//87 37//37
f 100//100 102//102 602//602
f 100//100 602//602 426//426
f 393//393 101//101 99//99
f 176//176 85//85 605//605
f 605//605 83//83 108//108
f 107//107 605//605 108//108
f 107//107 108//108 106//106
f 107//107 106//106 381//381
f 392//392 107//107 381//381
f 532//532 531//531 600//600
f 532//532 600//600 90//90
f 392//392 386//386 101//101
f 532//532 90//90 365//365
f 393//393 392//392 101//101
f 379//379 380//380 178//178
f 178//178 380//380 412//412
f 412//412 416//416 439//439
f 183//183 439//439 184//184
f 184//184 361//361 183//183
f 186//186 394//394 397//397
f 187//187 183//183 361//361
f 361//361 489//489 187//187
f 491//491 586//586 548//548
f 396//396 188//188 191//191
f 367//367 414//414 523//523
f 193//193 194//194 561//561
f 524//524 193//193 561//561
f 586//586 336//336 548//548
f 548//548 336//336 352//352
f 193//193 530//530 194//194
f 352//352 336//336 337//337
f 200//200 352//352 337//337
f 353//353 352//352 200//200
f 501//501 486//486 202//202
f 501//501 203//203 204//204
f 203//203 379//379 204//204
f 204//204 379//379 178//178
f 520//520 237//237 407//407
f 206//206 207//207 522//522
f 505//505 206//206 522//522
f 521//521 520//520 407//407
f 584//584 354//354 494//494
f 521//521 407//407 346//346
f 487//487 494//494 495//495
f 521//521 346//346 347//347
f 487//487 584//584 494//494
f 541//541 521//521 347//347
f 487//487 495//495 590//590
f 541//541 347//347 599//599
f 488//488 487//487 590//590
f 488//488 590//590 329//329
f 552//552 541//541 599//599
f 552//552 599//599 549//549
f 488//488 329//329 330//330
f 583//583 488//488 330//330
f 552//552 549//549 235//235
f 537//537 552//552 235//235
f 583//583 330//330 237//237
f 537//537 235//235 207//207
f 520//520 583//583 237//237
f 206//206 537//537 207//207
f 445//445 411//411 181//181
f 505//505 522//522 190//190
f 240//240 181//181 182//182
f 240//240 445//445 181//181
f 505//505 190//190 485//485
f 240//240 182//182 395//395
f 506//506 505//505 485//485
f 375//375 240//240 395//395
f 506//506 485//485 198//198
f 375//375 395//395 420//420
f 245//245 506//506 198//198
f 375//375 420//420 396//396
f 245//245 198//198 201//201
f 375//375 396//396 191//191
f 376//376 375//375 191//191
f 446//446 201//201 502//502
f 446//446 245//245 201//201
f 376//376 191//191 196//196
f 445//445 502//502 411//411
f 445//445 446//446 502//502
f 584//584 196//196 354//354
f 584//584 376//376 196//196
f 408//408 175//175 208//208
f 208//208 616//616 214//214
f 221//221 214//214 616//616
f 616//616 96//96 221//221
f 250//250 221//221 96//96
f 96//96 95//95 250//250
f 353//353 200//200 345//345
f 250//250 95//95 251//251
f 345//345 84//84 353//353
f 251//251 95//95 519//519
f 353//353 84//84 496//496
f 213//213 199//199 220//220
f 95//95 177//177 519//519
f 518//518 519//519 177//177
f 591//591 496//496 553//553
f 366//366 189//189 518//518
f 225//225 223//223 231//231
f 591//591 553//553 331//331
f 408//408 331//331 105//105
f 105//105 175//175 408//408
f 416//416 361//361 184//184
f 416//416 184//184 439//439
f 380//380 416//416 412//412
f 337//337 345//345 200//200
f 84//84 553//553 496//496
f 202//202 203//203 501//501
f 331//331 553//553 105//105
f 202//202 486//486 530//530
f 486//486 194//194 530//530
f 415//415 89//89 88//88
f 208//208 175//175 616//616
f 366//366 518//518 177//177
f 197//197 604//604 85//85
f 179//179 576//576 180//180
f 176//176 197//197 85//85
f 413//413 364//364 255//255
f 252//252 413//413 257//257
f 360//360 256//256 362//362
f 252//252 259//259 466//466
f 185//185 363//363 490//490
f 562//562 252//252 466//466
f 563//563 562//562 398//398
f 195//195 192//192 265//265
f 577//577 254//254 343//343
f 577//577 343//343 49//49
f 469//469 86//86 37//37
f 469//469 37//37 38//38
f 585//585 577//577 49//49
f 459//459 49//49 52//52
f 459//459 585//585 49//49
f 447//447 38//38 431//431
f 447//447 469//469 38//38
f 459//459 52//52 527//527
f 448//448 447//447 431//431
f 612//612 459//459 527//527
f 612//612 527//527 517//517
f 260//260 448//448 431//431
f 260//260 431//431 545//545
f 620//620 612//612 517//517
f 399//399 260//260 545//545
f 261//261 545//545 462//462
f 261//261 399//399 545//545
f 620//620 517//517 356//356
f 370//370 253//253 356//356
f 570//570 261//261 343//343
f 370//370 356//356 355//355
f 254//254 570//570 343//343
f 48//48 70//70 503//503
f 340//340 48//48 503//503
f 340//340 503//503 504//504
f 40//40 463//463 61//61
f 340//340 504//504 589//589
f 40//40 61//61 63//63
f 53//53 340//340 589//589
f 42//42 40//40 63//63
f 42//42 63//63 64//64
f 526//526 589//589 76//76
f 526//526 53//53 589//589
f 526//526 76//76 78//78
f 44//44 42//42 64//64
f 56//56 526//526 78//78
f 44//44 64//64 404//404
f 43//43 44//44 404//404
f 56//56 78//78 80//80
f 43//43 404//404 471//471
f 58//58 56//56 80//80
f 46//46 43//43 471//471
f 58//58 80//80 81//81
f 58//58 81//81 542//542
f 333//333 58//58 542//542
f 46//46 471//471 70//70
f 48//48 46//46 70//70
f 468//468 579//579 71//71
f 267//267 422//422 421//421
f 267//267 71//71 422//422
f 371//371 60//60 406//406
f 372//372 406//406 435//435
f 372//372 371//371 406//406
f 389//389 267//267 421//421
f 429//429 421//421 66//66
f 429//429 389//389 421//421
f 429//429 66//66 403//403
f 500//500 429//429 403//403
f 77//77 293//293 435//435
f 77//77 434//434 75//75
f 500//500 403//403 62//62
f 423//423 500//500 62//62
f 424//424 423//423 62//62
f 424//424 62//62 480//480
f 275//275 75//75 73//73
f 275//275 77//77 75//75
f 555//555 424//424 613//613
f 275//275 73//73 72//72
f 529//529 275//275 72//72
f 468//468 529//529 72//72
f 468//468 72//72 579//579
f 268//268 374//374 373//373
f 137//137 268//268 373//373
f 274//274 455//455 281//281
f 276//276 277//277 390//390
f 282//282 390//390 391//391
f 282//282 276//276 390//390
f 273//273 281//281 285//285
f 286//286 282//282 391//391
f 286//286 391//391 614//614
f 291//291 286//286 614//614
f 528//528 285//285 457//457
f 546//546 291//291 614//614
f 388//388 457//457 458//458
f 546//546 614//614 374//374
f 269//269 546//546 374//374
f 467//467 458//458 390//390
f 292//292 601//601 350//350
f 350//350 601//601 351//351
f 294//294 292//292 350//350
f 601//601 456//456 351//351
f 294//294 350//350 300//300
f 351//351 456//456 302//302
f 295//295 301//301 278//278
f 456//456 110//110 302//302
f 280//280 300//300 444//444
f 110//110 139//139 302//302
f 302//302 139//139 427//427
f 279//279 443//443 284//284
f 427//427 139//139 615//615
f 283//283 442//442 288//288
f 287//287 441//441 326//326
f 427//427 615//615 497//497
f 497//497 615//615 619//619
f 325//325 327//327 289//289
f 289//289 327//327 297//297
f 33//33 498//498 618//618
f 32//32 619//619 144//144
f 327//327 6//6 297//297
f 12//12 32//32 144//144
f 296//296 7//7 140//140
f 13//13 10//10 125//125
f 11//11 143//143 124//124
f 141//141 4//4 622//622
f 621//621 5//5 29//29
f 14//14 126//126 129//129
f 19//19 14//14 129//129
f 623//623 30//30 597//597
f 28//28 473//473 598//598
f 473//473 19//19 596//596
f 19//19 129//129 596//596
f 473//473 596//596 598//598
f 138//138 60//60 371//371
f 268//268 137//137 138//138
f 269//269 374//374 268//268
f 372//372 435//435 293//293
f 291//291 546//546 77//77
f 77//77 286//286 291//291
f 286//286 77//77 275//275
f 282//282 286//286 275//275
f 282//282 275//275 529//529
f 277//277 467//467 390//390
f 467//467 388//388 458//458
f 270//270 457//457 388//388
f 270//270 271//271 457//457
f 271//271 528//528 457//457
f 290//290 429//429 500//500
f 272//272 285//285 528//528
f 272//272 273//273 285//285
f 274//274 281//281 273//273
f 274//274 587//587 455//455
f 274//274 109//109 587//587
f 533//533 255//255 364//364
f 195//195 604//604 197//197
f 253//253 620//620 356//356
f 265//265 604//604 195//195
f 264//264 265//265 192//192
f 263//263 192//192 490//490
f 263//263 264//264 192//192
f 263//263 490//490 363//363
f 51//51 362//362 256//256
f 585//585 459//459 258//258
f 51//51 256//256 576//576
f 576//576 256//256 180//180
f 262//262 51//51 576//576
f 571//571 576//576 179//179
f 266//266 576//576 571//571
f 563//563 571//571 179//179
f 306//306 261//261 570//570
f 571//571 563//563 398//398
f 307//307 398//398 562//562
f 307//307 562//562 466//466
f 259//259 252//252 257//257
f 255//255 257//257 413//413
f 542//542 436//436 308//308
f 60//60 578//578 438//438
f 151//151 438//438 134//134
f 151//151 134//134 484//484
f 151//151 484//484 155//155
f 155//155 484//484 159//159
f 594//594 130//130 595//595
f 595//595 147//147 164//164
f 164//164 147//147 122//122
f 149//149 164//164 122//122
f 149//149 122//122 120//120
f 150//150 149//149 120//120
f 150//150 120//120 117//117
f 153//153 150//150 117//117
f 557//557 525//525 603//603
f 603//603 113//113 613//613
f 558//558 309//309 310//310
f 480//480 160//160 613//613
f 35//35 57//57 334//334
f 36//36 168//168 355//355
f 593//593 168//168 170//170
f 592//592 513//513 154//154
f 592//592 154//154 158//158
f 611//611 592//592 158//158
f 602//602 102//102 173//173
f 611//611 163//163 174//174
f 425//425 174//174 163//163
f 425//425 163//163 311//311
f 166//166 165//165 338//338
f 460//460 94//94 417//417
f 460//460 417//417 418//418
f 419//419 167//167 152//152
f 172//172 169//169 157//157
f 172//172 157//157 162//162
f 37//37 464//464 39//39
f 509//509 314//314 303//303
f 482//482 483//483 428//428
f 383//383 358//358 580//580
f 509//509 303//303 440//440
f 383//383 580//580 328//328
f 453//453 509//509 440//440
f 320//320 383//383 328//328
f 453//453 440//440 298//298
f 454//454 453//453 298//298
f 560//560 454//454 298//298
f 451//451 305//305 304//304
f 452//452 451//451 304//304
f 560//560 298//298 299//299
f 452//452 304//304 303//303
f 314//314 452//452 303//303
f 483//483 560//560 299//299
f 483//483 299//299 428//428
f 538//538 246//246 610//610
f 238//238 540//540 608//608
f 249//249 239//239 609//609
f 246//246 219//219 610//610
f 236//236 534//534 226//226
f 205//205 211//211 230//230
f 219//219 234//234 227//227
f 244//244 247//247 539//539
f 536//536 217//217 229//229
f 212//212 222//222 228//228
f 232//232 205//205 230//230
f 215//215 224//224 233//233
f 607//607 216//216 243//243
f 241//241 217//217 536//536
f 210//210 242//242 535//535
f 248//248 209//209 218//218
f 34//34 3//3 26//26
f 9//9 16//16 22//22
f 2//2 8//8 21//21
f 27//27 1//1 20//20
f 321//321 323//323 318//318
f 317//317 322//322 449//449
f 322//322 313//313 449//449
f 313//313 581//581 449//449
f 575//575 317//317 449//449
f 324//324 573//573 450//450
f 581//581 567//567 449//449
f 449//449 567//567 31//31
f 449//449 31//31 316//316
f 316//316 31//31 8//8
f 315//315 319//319 574//574
f 316//316 8//8 2//2
f 312//312 15//15 582//582

