mtllib material.mtl
usemtl gray_dark
v -0.04524800 -0.01760300 0.10050000
v -0.04524800 -0.01760300 0.10350000
v -0.04524800 0.01760300 0.10050000
v -0.04524800 0.01760300 0.10350000
v -0.04522600 -0.01795200 0.10050000
v -0.04522600 0.01795200 0.10050000
v -0.04515500 -0.01831500 0.10050000
v -0.04515500 -0.01831500 0.10350000
v -0.04515500 -0.01689200 0.10050000
v -0.04515500 -0.01689200 0.10350000
v -0.04515500 0.01689200 0.10050000
v -0.04515500 0.01689200 0.10350000
v -0.04515500 0.01831500 0.10050000
v -0.04515500 0.01831500 0.10350000
v -0.04488000 -0.01897800 0.10350000
v -0.04488000 -0.01622800 0.10050000
v -0.04488000 -0.01622800 0.10350000
v -0.04488000 0.01622800 0.10050000
v -0.04488000 0.01622800 0.10350000
v -0.04488000 0.01897800 0.10050000
v -0.04488000 0.01897800 0.10350000
v -0.04444300 -0.01954800 0.10350000
v -0.04444300 -0.01565900 0.10350000
v -0.04444300 0.01565900 0.10350000
v -0.04444300 0.01954800 0.10350000
v -0.04387300 -0.01998500 0.10050000
v -0.04387300 -0.01998500 0.10350000
v -0.04387300 -0.01522200 0.10050000
v -0.04387300 -0.01522200 0.10350000
v -0.04387300 0.01522200 0.10050000
v -0.04387300 0.01522200 0.10350000
v -0.04387300 0.01998500 0.10050000
v -0.04387300 0.01998500 0.10350000
v -0.04321000 -0.02026000 0.10050000
v -0.04321000 -0.02026000 0.10350000
v -0.04321000 -0.01494700 0.10350000
v -0.04321000 0.01494700 0.10050000
v -0.04321000 0.01494700 0.10350000
v -0.04321000 0.02026000 0.10050000
v -0.04321000 0.02026000 0.10350000
v -0.04249800 -0.02035300 0.10050000
v -0.04249800 -0.02035300 0.10350000
v -0.04249800 -0.01760300 0.10350000
v -0.04249800 -0.01485300 0.10050000
v -0.04249800 -0.01485300 0.10350000
v -0.04249800 0.01485300 0.10350000
v -0.04249800 0.01760300 0.10350000
v -0.04249800 0.02035300 0.10050000
v -0.04249800 0.02035300 0.10350000
v -0.04178700 -0.02026000 0.10050000
v -0.04178700 -0.02026000 0.10350000
v -0.04178700 -0.01494700 0.10350000
v -0.04178700 0.01494700 0.10050000
v -0.04178700 0.01494700 0.10350000
v -0.04178700 0.02026000 0.10050000
v -0.04178700 0.02026000 0.10350000
v -0.04112300 -0.01998500 0.10350000
v -0.04112300 -0.01522200 0.10050000
v -0.04112300 -0.01522200 0.10350000
v -0.04112300 0.01522200 0.10050000
v -0.04112300 0.01522200 0.10350000
v -0.04112300 0.01998500 0.10050000
v -0.04112300 0.01998500 0.10350000
v -0.04055400 -0.01954800 0.10350000
v -0.04055400 -0.01565900 0.10050000
v -0.04055400 -0.01565900 0.10350000
v -0.04055400 0.01565900 0.10050000
v -0.04055400 0.01565900 0.10350000
v -0.04055400 0.01954800 0.10350000
v -0.04011700 -0.01897800 0.10050000
v -0.04011700 -0.01897800 0.10350000
v -0.04011700 -0.01622800 0.10050000
v -0.04011700 -0.01622800 0.10350000
v -0.04011700 0.01622800 0.10350000
v -0.04011700 0.01897800 0.10050000
v -0.04011700 0.01897800 0.10350000
v -0.03984200 -0.01831500 0.10050000
v -0.03984200 -0.01831500 0.10350000
v -0.03984200 -0.01689200 0.10050000
v -0.03984200 -0.01689200 0.10350000
v -0.03984200 0.01689200 0.10050000
v -0.03984200 0.01689200 0.10350000
v -0.03984200 0.01831500 0.10350000
v -0.03974800 -0.01760300 0.10050000
v -0.03974800 -0.01760300 0.10350000
v -0.03974800 0.01760300 0.10050000
v -0.03974800 0.01760300 0.10350000
v -0.02035300 -0.04249800 0.10350000
v -0.02035300 0.04249800 0.10350000
v -0.02026000 -0.04321000 0.10350000
v -0.02026000 -0.04178700 0.10350000
v -0.02026000 0.04178700 0.10350000
v -0.02026000 0.04321000 0.10350000
v -0.01998500 -0.04387300 0.10350000
v -0.01998500 -0.04112300 0.10350000
v -0.01998500 0.04112300 0.10350000
v -0.01998500 0.04387300 0.10350000
v -0.01954800 -0.04444300 0.10050000
v -0.01954800 -0.04444300 0.10350000
v -0.01954800 -0.04055400 0.10050000
v -0.01954800 -0.04055400 0.10350000
v -0.01954800 0.04055400 0.10050000
v -0.01954800 0.04055400 0.10350000
v -0.01954800 0.04444300 0.10050000
v -0.01954800 0.04444300 0.10350000
v -0.01897800 -0.04488000 0.10050000
v -0.01897800 -0.04488000 0.10350000
v -0.01897800 -0.04011700 0.10350000
v -0.01897800 0.04011700 0.10350000
v -0.01897800 0.04488000 0.10350000
v -0.01831500 -0.04515500 0.10050000
v -0.01831500 -0.04515500 0.10350000
v -0.01831500 -0.03984200 0.10350000
v -0.01831500 0.03984200 0.10050000
v -0.01831500 0.03984200 0.10350000
v -0.01831500 0.04515500 0.10050000
v -0.01831500 0.04515500 0.10350000
v -0.01760300 -0.04524800 0.10050000
v -0.01760300 -0.04524800 0.10350000
v -0.01760300 -0.04249800 0.10350000
v -0.01760300 -0.03974800 0.10050000
v -0.01760300 -0.03974800 0.10350000
v -0.01760300 0.03974800 0.10050000
v -0.01760300 0.03974800 0.10350000
v -0.01760300 0.04249800 0.10350000
v -0.01760300 0.04524800 0.10050000
v -0.01760300 0.04524800 0.10350000
v -0.01689200 -0.04515500 0.10050000
v -0.01689200 -0.04515500 0.10350000
v -0.01689200 -0.03984200 0.10050000
v -0.01689200 -0.03984200 0.10350000
v -0.01689200 0.03984200 0.10050000
v -0.01689200 0.03984200 0.10350000
v -0.01689200 0.04515500 0.10050000
v -0.01689200 0.04515500 0.10350000
v -0.01622800 -0.04488000 0.10050000
v -0.01622800 -0.04488000 0.10350000
v -0.01622800 -0.04011700 0.10050000
v -0.01622800 -0.04011700 0.10350000
v -0.01622800 0.04011700 0.10050000
v -0.01622800 0.04011700 0.10350000
v -0.01622800 0.04488000 0.10050000
v -0.01622800 0.04488000 0.10350000
v -0.01565900 -0.04444300 0.10350000
v -0.01565900 -0.04055400 0.10350000
v -0.01565900 0.04055400 0.10050000
v -0.01565900 0.04055400 0.10350000
v -0.01565900 0.04444300 0.10350000
v -0.01522200 -0.04387300 0.10050000
v -0.01522200 -0.04387300 0.10350000
v -0.01522200 -0.04112300 0.10350000
v -0.01522200 0.04112300 0.10050000
v -0.01522200 0.04112300 0.10350000
v -0.01522200 0.04387300 0.10050000
v -0.01522200 0.04387300 0.10350000
v -0.01494700 -0.04321000 0.10050000
v -0.01494700 -0.04321000 0.10350000
v -0.01494700 -0.04178700 0.10050000
v -0.01494700 -0.04178700 0.10350000
v -0.01494700 0.04178700 0.10050000
v -0.01494700 0.04178700 0.10350000
v -0.01494700 0.04321000 0.10050000
v -0.01494700 0.04321000 0.10350000
v -0.01485300 -0.04249800 0.10350000
v -0.01485300 0.04249800 0.10350000
v 0.01485300 -0.04249800 0.10350000
v 0.01485300 0.04249800 0.10350000
v 0.01494700 -0.04321000 0.10350000
v 0.01494700 -0.04178700 0.10350000
v 0.01494700 0.04178700 0.10350000
v 0.01494700 0.04321000 0.10050000
v 0.01494700 0.04321000 0.10350000
v 0.01522200 -0.04387300 0.10050000
v 0.01522200 -0.04387300 0.10350000
v 0.01522200 -0.04112300 0.10350000
v 0.01522200 0.04112300 0.10350000
v 0.01522200 0.04387300 0.10050000
v 0.01522200 0.04387300 0.10350000
v 0.01565900 -0.04444300 0.10050000
v 0.01565900 -0.04444300 0.10350000
v 0.01565900 -0.04055400 0.10050000
v 0.01565900 -0.04055400 0.10350000
v 0.01565900 0.04055400 0.10350000
v 0.01565900 0.04444300 0.10050000
v 0.01565900 0.04444300 0.10350000
v 0.01622800 -0.04488000 0.10050000
v 0.01622800 -0.04488000 0.10350000
v 0.01622800 -0.04011700 0.10050000
v 0.01622800 -0.04011700 0.10350000
v 0.01622800 0.04011700 0.10050000
v 0.01622800 0.04011700 0.10350000
v 0.01622800 0.04488000 0.10050000
v 0.01622800 0.04488000 0.10350000
v 0.01689200 -0.04515500 0.10350000
v 0.01689200 -0.03984200 0.10050000
v 0.01689200 -0.03984200 0.10350000
v 0.01689200 0.03984200 0.10350000
v 0.01689200 0.04515500 0.10350000
v 0.01760300 -0.04524800 0.10350000
v 0.01760300 -0.04249800 0.10350000
v 0.01760300 -0.03974800 0.10350000
v 0.01760300 0.03974800 0.10350000
v 0.01760300 0.04249800 0.10350000
v 0.01760300 0.04524800 0.10050000
v 0.01760300 0.04524800 0.10350000
v 0.01795200 -0.04522600 0.10050000
v 0.01831500 -0.04515500 0.10050000
v 0.01831500 -0.04515500 0.10350000
v 0.01831500 -0.03984200 0.10350000
v 0.01831500 0.03984200 0.10050000
v 0.01831500 0.03984200 0.10350000
v 0.01831500 0.04515500 0.10350000
v 0.01897800 -0.04488000 0.10350000
v 0.01897800 -0.04011700 0.10350000
v 0.01897800 0.04011700 0.10350000
v 0.01897800 0.04488000 0.10050000
v 0.01897800 0.04488000 0.10350000
v 0.01928600 -0.04467400 0.10050000
v 0.01928600 0.04467400 0.10050000
v 0.01954800 -0.04444300 0.10050000
v 0.01954800 -0.04444300 0.10350000
v 0.01954800 -0.04055400 0.10050000
v 0.01954800 -0.04055400 0.10350000
v 0.01954800 0.04055400 0.10350000
v 0.01954800 0.04444300 0.10050000
v 0.01954800 0.04444300 0.10350000
v 0.01998500 -0.04387300 0.10350000
v 0.01998500 -0.04112300 0.10350000
v 0.01998500 0.04112300 0.10050000
v 0.01998500 0.04112300 0.10350000
v 0.01998500 0.04387300 0.10050000
v 0.01998500 0.04387300 0.10350000
v 0.02026000 -0.04321000 0.10350000
v 0.02026000 -0.04178700 0.10350000
v 0.02026000 0.04178700 0.10350000
v 0.02026000 0.04321000 0.10350000
v 0.02035300 -0.04249800 0.10350000
v 0.02035300 0.04249800 0.10350000
v 0.03974800 -0.01760300 0.10350000
v 0.03974800 0.01760300 0.10350000
v 0.03984200 -0.01831500 0.10350000
v 0.03984200 -0.01689200 0.10350000
v 0.03984200 0.01689200 0.10350000
v 0.03984200 0.01831500 0.10350000
v 0.04011700 -0.01897800 0.10050000
v 0.04011700 -0.01897800 0.10350000
v 0.04011700 -0.01622800 0.10350000
v 0.04011700 0.01622800 0.10350000
v 0.04011700 0.01897800 0.10050000
v 0.04011700 0.01897800 0.10350000
v 0.04055400 -0.01954800 0.10050000
v 0.04055400 -0.01954800 0.10350000
v 0.04055400 -0.01565900 0.10050000
v 0.04055400 -0.01565900 0.10350000
v 0.04055400 0.01565900 0.10050000
v 0.04055400 0.01565900 0.10350000
v 0.04055400 0.01954800 0.10050000
v 0.04055400 0.01954800 0.10350000
v 0.04112300 -0.01998500 0.10350000
v 0.04112300 -0.01522200 0.10050000
v 0.04112300 -0.01522200 0.10350000
v 0.04112300 0.01522200 0.10350000
v 0.04112300 0.01998500 0.10350000
v 0.04178700 -0.02026000 0.10050000
v 0.04178700 -0.02026000 0.10350000
v 0.04178700 -0.01494700 0.10050000
v 0.04178700 -0.01494700 0.10350000
v 0.04178700 0.01494700 0.10050000
v 0.04178700 0.01494700 0.10350000
v 0.04178700 0.02026000 0.10050000
v 0.04178700 0.02026000 0.10350000
v 0.04249800 -0.02035300 0.10050000
v 0.04249800 -0.02035300 0.10350000
v 0.04249800 -0.01760300 0.10350000
v 0.04249800 -0.01485300 0.10050000
v 0.04249800 -0.01485300 0.10350000
v 0.04249800 0.01485300 0.10050000
v 0.04249800 0.01485300 0.10350000
v 0.04249800 0.01760300 0.10350000
v 0.04249800 0.02035300 0.10050000
v 0.04249800 0.02035300 0.10350000
v 0.04321000 -0.02026000 0.10050000
v 0.04321000 -0.02026000 0.10350000
v 0.04321000 -0.01494700 0.10050000
v 0.04321000 -0.01494700 0.10350000
v 0.04321000 0.01494700 0.10050000
v 0.04321000 0.01494700 0.10350000
v 0.04321000 0.02026000 0.10050000
v 0.04321000 0.02026000 0.10350000
v 0.04387300 -0.01998500 0.10050000
v 0.04387300 -0.01998500 0.10350000
v 0.04387300 -0.01522200 0.10050000
v 0.04387300 -0.01522200 0.10350000
v 0.04387300 0.01522200 0.10050000
v 0.04387300 0.01522200 0.10350000
v 0.04387300 0.01998500 0.10050000
v 0.04387300 0.01998500 0.10350000
v 0.04444300 -0.01954800 0.10050000
v 0.04444300 -0.01954800 0.10350000
v 0.04444300 -0.01565900 0.10050000
v 0.04444300 -0.01565900 0.10350000
v 0.04444300 0.01565900 0.10050000
v 0.04444300 0.01565900 0.10350000
v 0.04444300 0.01954800 0.10050000
v 0.04444300 0.01954800 0.10350000
v 0.04488000 -0.01897800 0.10350000
v 0.04488000 -0.01622800 0.10350000
v 0.04488000 0.01622800 0.10350000
v 0.04488000 0.01897800 0.10050000
v 0.04488000 0.01897800 0.10350000
v 0.04515500 -0.01831500 0.10050000
v 0.04515500 -0.01831500 0.10350000
v 0.04515500 -0.01689200 0.10050000
v 0.04515500 -0.01689200 0.10350000
v 0.04515500 0.01689200 0.10050000
v 0.04515500 0.01689200 0.10350000
v 0.04515500 0.01831500 0.10350000
v 0.04524800 -0.01760300 0.10350000
v 0.04524800 0.01760300 0.10350000
v 0.04522600 -0.01795200 0.10050000
v -0.01795200 0.04522600 0.10050000
v -0.01831500 -0.03984200 0.10050000
v -0.01795200 -0.04522600 0.10050000
v -0.01831500 -0.03984200 0.10350000
v -0.01760300 -0.03974800 0.10350000
v -0.01831500 0.03984200 0.10350000
v -0.01760300 0.03974800 0.10350000
v -0.04387300 -0.01522200 0.10350000
v -0.04321000 -0.01494700 0.10350000
v -0.04321000 -0.01494700 0.10050000
v -0.04387300 -0.01998500 0.10350000
v -0.04321000 -0.02026000 0.10350000
v -0.04178700 0.02026000 0.10350000
v -0.04112300 0.01998500 0.10350000
v 0.01897800 -0.04488000 0.10050000
v -0.04178700 -0.01494700 0.10050000
v -0.04178700 -0.01494700 0.10350000
v -0.04112300 -0.01522200 0.10350000
v -0.01831500 -0.04515500 0.10350000
v -0.01760300 -0.04524800 0.10350000
v -0.04178700 0.01494700 0.10350000
v -0.04112300 0.01522200 0.10350000
v -0.04178700 -0.02026000 0.10350000
v -0.04112300 -0.01998500 0.10350000
v -0.04112300 -0.01998500 0.10050000
v 0.04387300 0.01998500 0.10350000
v 0.04444300 0.01954800 0.10350000
v 0.04387300 0.01522200 0.10350000
v 0.04444300 0.01565900 0.10350000
v 0.04387300 -0.01998500 0.10350000
v 0.04444300 -0.01954800 0.10350000
v 0.04387300 -0.01522200 0.10350000
v 0.04444300 -0.01565900 0.10350000
v 0.04249800 -0.02035300 0.10350000
v 0.04321000 -0.02026000 0.10350000
v 0.04522600 0.01795200 0.10050000
v 0.01831500 0.04515500 0.10350000
v 0.01897800 0.04488000 0.10350000
v 0.01954800 0.04444300 0.10350000
v 0.04249800 -0.01485300 0.10350000
v 0.04321000 -0.01494700 0.10350000
v 0.01831500 0.03984200 0.10350000
v 0.01897800 0.04011700 0.10350000
v 0.01954800 0.04055400 0.10350000
v 0.01831500 0.04515500 0.10050000
v -0.01689200 -0.04515500 0.10350000
v 0.01897800 -0.04488000 0.10350000
v 0.01954800 -0.04444300 0.10350000
v 0.04249800 0.02035300 0.10350000
v 0.04321000 0.02026000 0.10350000
v 0.01897800 -0.04011700 0.10050000
v 0.04249800 0.01485300 0.10350000
v 0.04321000 0.01494700 0.10350000
v 0.01897800 0.04011700 0.10050000
v 0.01954800 0.04055400 0.10050000
v -0.01689200 -0.03984200 0.10350000
v 0.01795200 0.04522600 0.10050000
v 0.01897800 -0.04011700 0.10350000
v 0.01954800 -0.04055400 0.10350000
v -0.01760300 0.04524800 0.10350000
v -0.01689200 0.04515500 0.10350000
v -0.04387300 0.01522200 0.10350000
v -0.04321000 0.01494700 0.10350000
v -0.01689200 0.03984200 0.10350000
v -0.04387300 0.01998500 0.10350000
v -0.04321000 0.02026000 0.10350000
v 0.01760300 0.04524800 0.10350000
v 0.01998500 -0.04387300 0.10350000
v 0.01998500 -0.04112300 0.10350000
v 0.01760300 0.03974800 0.10350000
v 0.01998500 -0.04112300 0.10050000
v -0.01522200 0.04387300 0.10350000
v -0.01494700 0.04321000 0.10350000
v -0.01522200 0.04112300 0.10350000
v -0.01494700 0.04178700 0.10350000
v 0.01998500 -0.04387300 0.10050000
v -0.01522200 -0.04112300 0.10350000
v -0.01494700 -0.04178700 0.10350000
v -0.04467400 -0.01928600 0.10050000
v -0.01622800 -0.04488000 0.10350000
v 0.04515500 0.01831500 0.10050000
v 0.01831500 -0.04515500 0.10350000
v 0.01831500 -0.03984200 0.10050000
v -0.01897800 0.04488000 0.10350000
v -0.01831500 0.04515500 0.10350000
v 0.01831500 -0.03984200 0.10350000
v -0.01622800 0.04488000 0.10350000
v -0.01897800 0.04488000 0.10050000
v -0.01897800 -0.04011700 0.10350000
v 0.01485300 0.04249800 0.10050000
v 0.04524800 -0.01760300 0.10050000
v 0.01485300 -0.04249800 0.10050000
v 0.01494700 -0.04178700 0.10050000
v -0.01622800 -0.04011700 0.10350000
v -0.01897800 -0.04011700 0.10050000
v -0.01522200 -0.04112300 0.10050000
v 0.01494700 -0.04321000 0.10050000
v -0.02035300 -0.04249800 0.10350000
v -0.02026000 -0.04321000 0.10350000
v -0.02035300 0.04249800 0.10350000
v -0.02026000 0.04178700 0.10350000
v 0.04515500 -0.01831500 0.10350000
v 0.04524800 -0.01760300 0.10350000
v 0.01485300 0.04249800 0.10350000
v 0.01494700 0.04178700 0.10350000
v -0.02035300 0.04249800 0.10050000
v -0.02026000 0.04321000 0.10050000
v 0.04524800 0.01760300 0.10050000
v 0.01494700 0.04321000 0.10350000
v -0.02026000 0.04178700 0.10050000
v -0.02035300 -0.04249800 0.10050000
v -0.02026000 -0.04321000 0.10050000
v -0.01897800 0.04011700 0.10050000
v -0.01622800 0.04011700 0.10350000
v -0.01522200 -0.04387300 0.10350000
v -0.01494700 -0.04321000 0.10350000
v 0.04515500 -0.01689200 0.10350000
v -0.02026000 -0.04178700 0.10050000
v 0.04515500 0.01831500 0.10350000
v 0.04524800 0.01760300 0.10350000
v -0.02026000 -0.04178700 0.10350000
v -0.01897800 0.04011700 0.10350000
v -0.01998500 0.04112300 0.10050000
v -0.04524800 -0.01760300 0.10350000
v -0.04515500 -0.01831500 0.10350000
v -0.01998500 -0.04112300 0.10350000
v -0.01954800 -0.04055400 0.10350000
v 0.04515500 0.01689200 0.10350000
v -0.01998500 -0.04112300 0.10050000
v -0.01998500 0.04112300 0.10350000
v -0.01954800 0.04055400 0.10350000
v -0.01998500 -0.04387300 0.10050000
v -0.01998500 0.04387300 0.10350000
v -0.01954800 0.04444300 0.10350000
v -0.01998500 0.04387300 0.10050000
v -0.02026000 0.04321000 0.10350000
v -0.01998500 -0.04387300 0.10350000
v -0.01954800 -0.04444300 0.10350000
v 0.01998500 0.04387300 0.10350000
v -0.01897800 -0.04488000 0.10350000
v -0.04515500 0.01831500 0.10350000
v -0.04488000 0.01897800 0.10350000
v 0.01494700 0.04178700 0.10050000
v 0.01485300 -0.04249800 0.10350000
v 0.01494700 -0.04321000 0.10350000
v 0.01998500 0.04112300 0.10350000
v 0.01494700 -0.04178700 0.10350000
v 0.01522200 -0.04112300 0.10350000
v 0.01522200 0.04112300 0.10050000
v 0.01522200 0.04112300 0.10350000
v 0.01522200 0.04387300 0.10350000
v -0.04515500 0.01689200 0.10350000
v -0.04488000 0.01622800 0.10350000
v 0.04011700 0.01897800 0.10350000
v 0.04055400 0.01954800 0.10350000
v -0.04515500 -0.01689200 0.10350000
v -0.04488000 -0.01622800 0.10350000
v 0.04011700 0.01622800 0.10350000
v 0.04055400 0.01565900 0.10350000
v 0.04011700 -0.01622800 0.10350000
v 0.04055400 -0.01565900 0.10350000
v -0.04488000 -0.01897800 0.10350000
v 0.04011700 0.01622800 0.10050000
v -0.04488000 -0.01897800 0.10050000
v -0.04249800 0.02035300 0.10350000
v 0.01522200 -0.04112300 0.10050000
v -0.04249800 -0.01485300 0.10350000
v 0.01522200 -0.04387300 0.10350000
v -0.04249800 -0.02035300 0.10350000
v -0.04524800 0.01760300 0.10350000
v 0.04011700 -0.01622800 0.10050000
v 0.04011700 -0.01897800 0.10350000
v 0.04055400 -0.01954800 0.10350000
v -0.04249800 0.01485300 0.10350000
v -0.04249800 0.01485300 0.10050000
v 0.02026000 0.04321000 0.10050000
v 0.02035300 0.04249800 0.10050000
v 0.02026000 0.04321000 0.10350000
v 0.02035300 0.04249800 0.10350000
v -0.01565900 0.04444300 0.10350000
v 0.01689200 0.04515500 0.10050000
v 0.02026000 -0.04178700 0.10350000
v 0.02035300 -0.04249800 0.10350000
v 0.03984200 0.01831500 0.10350000
v 0.02026000 -0.04178700 0.10050000
v 0.02035300 -0.04249800 0.10050000
v -0.01565900 0.04055400 0.10350000
v -0.01565900 0.04444300 0.10050000
v 0.01622800 0.04011700 0.10350000
v 0.01689200 0.03984200 0.10350000
v -0.01565900 -0.04444300 0.10350000
v -0.01565900 -0.04055400 0.10050000
v 0.02026000 0.04178700 0.10050000
v 0.01622800 0.04488000 0.10350000
v 0.01689200 0.04515500 0.10350000
v 0.02026000 0.04178700 0.10350000
v -0.04055400 0.01954800 0.10350000
v -0.04011700 0.01897800 0.10350000
v -0.04055400 0.01954800 0.10050000
v -0.01565900 -0.04055400 0.10350000
v -0.04011700 0.01622800 0.10050000
v -0.04055400 0.01565900 0.10350000
v -0.04011700 0.01622800 0.10350000
v -0.04055400 -0.01954800 0.10050000
v 0.01689200 -0.04515500 0.10050000
v -0.04055400 -0.01954800 0.10350000
v -0.04011700 -0.01897800 0.10350000
v 0.02026000 -0.04321000 0.10350000
v -0.01565900 -0.04444300 0.10050000
v 0.01622800 -0.04011700 0.10350000
v 0.01689200 -0.03984200 0.10350000
v 0.01622800 -0.04488000 0.10350000
v 0.01689200 -0.04515500 0.10350000
v 0.02026000 -0.04321000 0.10050000
v 0.01689200 0.03984200 0.10050000
v -0.04055400 -0.01565900 0.10350000
v -0.04011700 -0.01622800 0.10350000
v 0.03974800 -0.01760300 0.10050000
v 0.03984200 -0.01689200 0.10050000
v 0.03974800 0.01760300 0.10050000
v 0.03984200 0.01831500 0.10050000
v 0.03974800 -0.01760300 0.10350000
v 0.03984200 -0.01689200 0.10350000
v 0.03974800 0.01760300 0.10350000
v 0.03984200 -0.01831500 0.10050000
v 0.03984200 0.01689200 0.10050000
v 0.04112300 -0.01998500 0.10350000
v 0.03984200 -0.01831500 0.10350000
v 0.04112300 0.01522200 0.10350000
v 0.04112300 -0.01998500 0.10050000
v 0.04112300 0.01998500 0.10350000
v 0.04112300 0.01998500 0.10050000
v 0.03984200 0.01689200 0.10350000
v 0.04178700 -0.02026000 0.10350000
v 0.04112300 0.01522200 0.10050000
v 0.04112300 -0.01522200 0.10350000
v 0.04178700 -0.01494700 0.10350000
v 0.04178700 0.02026000 0.10350000
v 0.04178700 0.01494700 0.10350000
v -0.03984200 -0.01689200 0.10350000
v -0.03984200 -0.01831500 0.10350000
v -0.04467400 0.01928600 0.10050000
v 0.01565900 -0.04444300 0.10350000
v 0.01565900 -0.04055400 0.10350000
v 0.01760300 -0.04524800 0.10350000
v 0.01565900 0.04444300 0.10350000
v -0.03984200 0.01689200 0.10350000
v 0.01565900 0.04055400 0.10050000
v 0.01760300 -0.03974800 0.10050000
v -0.03984200 0.01831500 0.10350000
v -0.03984200 0.01831500 0.10050000
v 0.01760300 0.03974800 0.10050000
v 0.01760300 -0.03974800 0.10350000
v -0.01928600 -0.04467400 0.10050000
v -0.01928600 0.04467400 0.10050000
v 0.01565900 0.04055400 0.10350000
v -0.04444300 -0.01954800 0.10350000
v 0.01760300 -0.04524800 0.10050000
v -0.04444300 0.01954800 0.10350000
v -0.03974800 -0.01760300 0.10350000
v -0.04444300 0.01565900 0.10350000
v -0.04444300 0.01565900 0.10050000
v -0.04444300 -0.01565900 0.10350000
v -0.04444300 -0.01565900 0.10050000
v -0.04444300 0.01954800 0.10050000
v 0.04488000 0.01622800 0.10350000
v 0.04488000 -0.01622800 0.10350000
v 0.04488000 -0.01622800 0.10050000
v 0.04488000 -0.01897800 0.10350000
v -0.04444300 -0.01954800 0.10050000
v -0.01485300 -0.04249800 0.10050000
v 0.04488000 0.01622800 0.10050000
v -0.01485300 -0.04249800 0.10350000
v -0.01485300 0.04249800 0.10350000
v -0.01485300 0.04249800 0.10050000
v 0.04488000 0.01897800 0.10350000
v 0.04467400 0.01928600 0.10050000
v 0.04467400 -0.01928600 0.10050000
v 0.04488000 -0.01897800 0.10050000
v -0.03974800 0.01760300 0.10350000
vn -0.99940000 0.03350000 -0.00000000
vn -1.00000000 0.00250000 0.00360000
vn -0.99940000 -0.03350000 -0.00000000
vn -1.00000000 -0.00250000 0.00360000
vn -0.99180000 -0.12790000 0.00060000
vn -0.99180000 0.12790000 0.00060000
vn -0.95740000 -0.28890000 -0.00000000
vn -0.96540000 -0.26090000 0.00360000
vn -0.96600000 0.25840000 -0.00000000
vn -0.00000000 -0.00000000 1.00000000
vn -0.96600000 -0.25840000 -0.00000000
vn -0.96600000 -0.25840000 -0.00000000
vn -0.95740000 0.28890000 -0.00000000
vn -0.96540000 0.26090000 0.00360000
vn -0.00000000 -0.00000000 1.00000000
vn -0.86600000 0.50010000 -0.00000000
vn -0.00000000 -0.00000000 1.00000000
vn -0.86600000 -0.50010000 -0.00000000
vn -0.00000000 -0.00000000 1.00000000
vn -0.88170000 0.47190000 -0.00000000
vn -0.00000000 -0.00000000 1.00000000
vn -0.00000000 -0.00000000 1.00000000
vn -0.00000000 -0.00000000 1.00000000
vn -0.00000000 -0.00000000 1.00000000
vn -0.00000000 -0.00000000 1.00000000
vn -0.50010000 -0.86600000 -0.00000000
vn -0.50010000 -0.86600000 -0.00000000
vn -0.50010000 0.86600000 -0.00000000
vn -0.00000000 -0.00000000 1.00000000
vn -0.50010000 -0.86600000 -0.00000000
vn -0.50010000 -0.86600000 -0.00000000
vn -0.50010000 0.86600000 -0.00000000
vn -0.00000000 -0.00000000 1.00000000
vn -0.25850000 -0.96600000 -0.00000000
vn -0.00000000 -0.00000000 1.00000000
vn -0.00000000 -0.00000000 1.00000000
vn -0.25920000 -0.96580000 -0.00000000
vn -0.25920000 -0.96580000 -0.00000000
vn -0.25850000 0.96600000 -0.00000000
vn -0.25850000 0.96600000 -0.00000000
vn 0.00010000 -1.00000000 -0.00000000
vn -0.00000000 -0.00000000 1.00000000
vn -0.00000000 -0.00000000 1.00000000
vn 0.00010000 1.00000000 -0.00000000
vn -0.00000000 -0.00000000 1.00000000
vn -0.00000000 -0.00000000 1.00000000
vn -0.00000000 -0.00000000 1.00000000
vn 0.00010000 1.00000000 -0.00000000
vn -0.00000000 -0.00000000 1.00000000
vn 0.25840000 -0.96600000 -0.00000000
vn -0.00000000 -0.00000000 1.00000000
vn -0.00000000 -0.00000000 1.00000000
vn 0.25900000 -0.96590000 -0.00000000
vn 0.25900000 -0.96590000 -0.00000000
vn 0.25840000 0.96600000 -0.00000000
vn -0.00000000 -0.00000000 1.00000000
vn -0.00000000 -0.00000000 1.00000000
vn 0.50020000 0.86590000 -0.00000000
vn -0.00000000 -0.00000000 1.00000000
vn 0.50020000 -0.86590000 -0.00000000
vn -0.00000000 -0.00000000 1.00000000
vn 0.50020000 0.86590000 -0.00000000
vn -0.00000000 -0.00000000 1.00000000
vn -0.00000000 -0.00000000 1.00000000
vn 0.70710000 0.70710000 -0.00000000
vn -0.00000000 -0.00000000 1.00000000
vn 0.70710000 -0.70710000 -0.00000000
vn -0.00000000 -0.00000000 1.00000000
vn -0.00000000 -0.00000000 1.00000000
vn 0.86600000 -0.50000000 -0.00000000
vn -0.00000000 -0.00000000 1.00000000
vn 0.86590000 0.50020000 -0.00000000
vn -0.00000000 -0.00000000 1.00000000
vn -0.00000000 -0.00000000 1.00000000
vn 0.86600000 0.50000000 -0.00000000
vn -0.00000000 -0.00000000 1.00000000
vn 0.96580000 -0.25910000 -0.00000000
vn -0.00000000 -0.00000000 1.00000000
vn 0.96590000 0.25900000 -0.00000000
vn -0.00000000 -0.00000000 1.00000000
vn 0.96590000 -0.25900000 -0.00000000
vn -0.00000000 -0.00000000 1.00000000
vn -0.00000000 -0.00000000 1.00000000
vn 1.00000000 0.00010000 -0.00000000
vn 1.00000000 0.00010000 -0.00000000
vn 1.00000000 -0.00010000 -0.00000000
vn 1.00000000 -0.00010000 -0.00000000
vn -1.00000000 0.00010000 -0.00000000
vn -0.00000000 -0.00000000 1.00000000
vn -0.96600000 -0.25850000 -0.00000000
vn -0.96600000 0.25840000 -0.00000000
vn -0.00000000 -0.00000000 1.00000000
vn -0.96600000 0.25850000 -0.00000000
vn -0.86600000 -0.50010000 -0.00000000
vn -0.86590000 0.50020000 -0.00000000
vn -0.86590000 -0.50020000 -0.00000000
vn -0.86600000 0.50010000 -0.00000000
vn -0.73080000 -0.68260000 -0.00000000
vn -0.70890000 -0.70530000 0.00370000
vn -0.70680000 0.70740000 -0.00000000
vn -0.70680000 0.70740000 -0.00000000
vn -0.70680000 -0.70740000 -0.00000000
vn -0.70680000 -0.70740000 -0.00000000
vn -0.73080000 0.68260000 -0.00000000
vn -0.70890000 0.70530000 0.00370000
vn -0.47190000 -0.88170000 -0.00000000
vn -0.49780000 -0.86730000 0.00370000
vn -0.00000000 -0.00000000 1.00000000
vn -0.50000000 -0.86600000 -0.00000000
vn -0.00000000 -0.00000000 1.00000000
vn -0.28890000 -0.95740000 -0.00000000
vn -0.00000000 -0.00000000 1.00000000
vn -0.00000000 -0.00000000 1.00000000
vn -0.25910000 -0.96580000 -0.00000000
vn -0.00000000 -0.00000000 1.00000000
vn -0.28890000 0.95740000 -0.00000000
vn -0.00000000 -0.00000000 1.00000000
vn 0.03350000 -0.99940000 -0.00000000
vn -0.00000000 -0.00000000 1.00000000
vn -0.00000000 -0.00000000 1.00000000
vn 0.00010000 1.00000000 -0.00000000
vn 0.00010000 1.00000000 -0.00000000
vn 0.00010000 -1.00000000 -0.00000000
vn -0.00000000 -0.00000000 1.00000000
vn -0.00000000 -0.00000000 1.00000000
vn 0.03350000 0.99940000 -0.00000000
vn -0.00000000 -0.00000000 1.00000000
vn 0.25840000 -0.96600000 -0.00000000
vn -0.00000000 -0.00000000 1.00000000
vn 0.25900000 0.96590000 -0.00000000
vn -0.00000000 -0.00000000 1.00000000
vn 0.25900000 -0.96590000 -0.00000000
vn -0.00000000 -0.00000000 1.00000000
vn 0.25840000 0.96600000 -0.00000000
vn -0.00000000 -0.00000000 1.00000000
vn 0.50010000 -0.86600000 -0.00000000
vn -0.00000000 -0.00000000 1.00000000
vn 0.50020000 0.86590000 -0.00000000
vn -0.00000000 -0.00000000 1.00000000
vn 0.50020000 -0.86590000 -0.00000000
vn -0.00000000 -0.00000000 1.00000000
vn 0.50010000 0.86600000 -0.00000000
vn -0.00000000 -0.00000000 1.00000000
vn -0.00000000 -0.00000000 1.00000000
vn 0.70710000 0.70710000 -0.00000000
vn 0.70710000 -0.70710000 -0.00000000
vn -0.00000000 -0.00000000 1.00000000
vn -0.00000000 -0.00000000 1.00000000
vn 0.86600000 -0.50010000 -0.00000000
vn 0.86600000 -0.50010000 -0.00000000
vn -0.00000000 -0.00000000 1.00000000
vn 0.86590000 -0.50020000 -0.00000000
vn -0.00000000 -0.00000000 1.00000000
vn 0.86600000 0.50010000 -0.00000000
vn -0.00000000 -0.00000000 1.00000000
vn 0.96580000 -0.25920000 -0.00000000
vn 0.96580000 -0.25920000 -0.00000000
vn 0.96590000 0.25900000 -0.00000000
vn 0.96590000 0.25900000 -0.00000000
vn 0.96590000 -0.25900000 -0.00000000
vn 0.96590000 -0.25900000 -0.00000000
vn 0.96580000 0.25920000 -0.00000000
vn 0.96580000 0.25920000 -0.00000000
vn -0.00000000 -0.00000000 1.00000000
vn -0.00000000 -0.00000000 1.00000000
vn -1.00000000 0.00010000 -0.00000000
vn -1.00000000 -0.00010000 -0.00000000
vn -0.96580000 -0.25920000 -0.00000000
vn -0.96590000 0.25900000 -0.00000000
vn -0.96590000 -0.25900000 -0.00000000
vn -0.96580000 0.25920000 -0.00000000
vn -0.96580000 0.25920000 -0.00000000
vn -0.86600000 -0.50010000 -0.00000000
vn -0.00000000 -0.00000000 1.00000000
vn -0.00000000 -0.00000000 1.00000000
vn -0.00000000 -0.00000000 1.00000000
vn -0.86600000 0.50010000 -0.00000000
vn -0.00000000 -0.00000000 1.00000000
vn -0.70740000 -0.70680000 -0.00000000
vn -0.00000000 -0.00000000 1.00000000
vn -0.70710000 0.70710000 -0.00000000
vn -0.00000000 -0.00000000 1.00000000
vn -0.00000000 -0.00000000 1.00000000
vn -0.70740000 0.70680000 -0.00000000
vn -0.00000000 -0.00000000 1.00000000
vn -0.50010000 -0.86600000 -0.00000000
vn -0.50010000 -0.86600000 -0.00000000
vn -0.50020000 0.86590000 -0.00000000
vn -0.50020000 0.86590000 -0.00000000
vn -0.50020000 -0.86590000 -0.00000000
vn -0.50020000 -0.86590000 -0.00000000
vn -0.50010000 0.86600000 -0.00000000
vn -0.50010000 0.86600000 -0.00000000
vn -0.00000000 -0.00000000 1.00000000
vn -0.25900000 0.96590000 -0.00000000
vn -0.00000000 -0.00000000 1.00000000
vn -0.00000000 -0.00000000 1.00000000
vn -0.25840000 0.96600000 -0.00000000
vn -0.00000000 -0.00000000 1.00000000
vn -0.00000000 -0.00000000 1.00000000
vn -0.00000000 -0.00000000 1.00000000
vn -0.00000000 -0.00000000 1.00000000
vn -0.00000000 -0.00000000 1.00000000
vn -0.03350000 0.99940000 -0.00000000
vn -0.00000000 -0.00000000 1.00000000
vn 0.12790000 -0.99180000 0.00060000
vn 0.28890000 -0.95740000 -0.00000000
vn -0.00000000 -0.00000000 1.00000000
vn -0.00000000 -0.00000000 1.00000000
vn 0.25910000 -0.96580000 -0.00000000
vn 0.25910000 -0.96580000 -0.00000000
vn -0.00000000 -0.00000000 1.00000000
vn 0.49780000 -0.86730000 0.00370000
vn -0.00000000 -0.00000000 1.00000000
vn 0.50000000 -0.86600000 -0.00000000
vn 0.47190000 0.88170000 -0.00000000
vn 0.49780000 0.86730000 0.00370000
vn 0.61010000 -0.79240000 0.00060000
vn 0.61010000 0.79240000 0.00060000
vn 0.73080000 -0.68260000 -0.00000000
vn -0.00000000 -0.00000000 1.00000000
vn 0.70680000 0.70740000 -0.00000000
vn 0.70680000 0.70740000 -0.00000000
vn -0.00000000 -0.00000000 1.00000000
vn 0.73080000 0.68260000 -0.00000000
vn -0.00000000 -0.00000000 1.00000000
vn -0.00000000 -0.00000000 1.00000000
vn -0.00000000 -0.00000000 1.00000000
vn 0.86590000 -0.50020000 -0.00000000
vn -0.00000000 -0.00000000 1.00000000
vn 0.86600000 0.50010000 -0.00000000
vn -0.00000000 -0.00000000 1.00000000
vn -0.00000000 -0.00000000 1.00000000
vn -0.00000000 -0.00000000 1.00000000
vn 0.96600000 -0.25840000 -0.00000000
vn -0.00000000 -0.00000000 1.00000000
vn -0.00000000 -0.00000000 1.00000000
vn 1.00000000 -0.00010000 -0.00000000
vn -0.00000000 -0.00000000 1.00000000
vn -0.00000000 -0.00000000 1.00000000
vn -0.96580000 -0.25910000 -0.00000000
vn -0.96590000 0.25900000 -0.00000000
vn -0.96590000 -0.25900000 -0.00000000
vn -0.96580000 0.25910000 -0.00000000
vn -0.86600000 -0.50000000 -0.00000000
vn -0.86600000 -0.50000000 -0.00000000
vn -0.00000000 -0.00000000 1.00000000
vn -0.86590000 -0.50020000 -0.00000000
vn -0.86600000 0.50000000 -0.00000000
vn -0.00000000 -0.00000000 1.00000000
vn -0.70740000 -0.70680000 -0.00000000
vn -0.00000000 -0.00000000 1.00000000
vn -0.70710000 0.70710000 -0.00000000
vn -0.00000000 -0.00000000 1.00000000
vn -0.70710000 -0.70710000 -0.00000000
vn -0.00000000 -0.00000000 1.00000000
vn -0.70740000 0.70680000 -0.00000000
vn -0.00000000 -0.00000000 1.00000000
vn -0.00000000 -0.00000000 1.00000000
vn -0.50020000 0.86590000 -0.00000000
vn -0.00000000 -0.00000000 1.00000000
vn -0.00000000 -0.00000000 1.00000000
vn -0.00000000 -0.00000000 1.00000000
vn -0.25840000 -0.96600000 -0.00000000
vn -0.25840000 -0.96600000 -0.00000000
vn -0.25900000 0.96590000 -0.00000000
vn -0.25900000 0.96590000 -0.00000000
vn -0.25900000 -0.96590000 -0.00000000
vn -0.25900000 -0.96590000 -0.00000000
vn -0.25840000 0.96600000 -0.00000000
vn -0.25840000 0.96600000 -0.00000000
vn -0.00010000 -1.00000000 -0.00000000
vn -0.00000000 -0.00000000 1.00000000
vn -0.00000000 -0.00000000 1.00000000
vn -0.00010000 1.00000000 -0.00000000
vn -0.00000000 -0.00000000 1.00000000
vn -0.00010000 -1.00000000 -0.00000000
vn -0.00010000 -1.00000000 -0.00000000
vn -0.00000000 -0.00000000 1.00000000
vn -0.00010000 1.00000000 -0.00000000
vn -0.00000000 -0.00000000 1.00000000
vn 0.25850000 -0.96600000 -0.00000000
vn -0.00000000 -0.00000000 1.00000000
vn 0.25920000 0.96580000 -0.00000000
vn -0.00000000 -0.00000000 1.00000000
vn 0.25920000 -0.96580000 -0.00000000
vn -0.00000000 -0.00000000 1.00000000
vn 0.25850000 0.96600000 -0.00000000
vn 0.25850000 0.96600000 -0.00000000
vn 0.50010000 -0.86600000 -0.00000000
vn 0.50010000 -0.86600000 -0.00000000
vn 0.50010000 0.86600000 -0.00000000
vn 0.50010000 0.86600000 -0.00000000
vn 0.50010000 -0.86600000 -0.00000000
vn 0.50010000 -0.86600000 -0.00000000
vn 0.50010000 0.86600000 -0.00000000
vn 0.50010000 0.86600000 -0.00000000
vn 0.68260000 -0.73080000 -0.00000000
vn 0.70530000 -0.70890000 0.00370000
vn 0.70680000 0.70740000 -0.00000000
vn 0.70680000 0.70740000 -0.00000000
vn 0.70680000 -0.70740000 -0.00000000
vn -0.00000000 -0.00000000 1.00000000
vn 0.68260000 0.73080000 -0.00000000
vn -0.00000000 -0.00000000 1.00000000
vn -0.00000000 -0.00000000 1.00000000
vn -0.00000000 -0.00000000 1.00000000
vn -0.00000000 -0.00000000 1.00000000
vn 0.88170000 0.47190000 -0.00000000
vn -0.00000000 -0.00000000 1.00000000
vn 0.95740000 -0.28890000 -0.00000000
vn 0.96540000 -0.26090000 0.00360000
vn 0.96600000 0.25840000 -0.00000000
vn 0.96600000 0.25840000 -0.00000000
vn 0.96600000 -0.25840000 -0.00000000
vn 0.96600000 -0.25840000 -0.00000000
vn 0.96540000 0.26090000 0.00360000
vn -0.00000000 -0.00000000 1.00000000
vn -0.00000000 -0.00000000 1.00000000
vn 0.99180000 -0.12790000 0.00060000
vn -0.12790000 0.99180000 0.00060000
vn -0.25910000 0.96580000 -0.00000000
vn -0.12790000 -0.99180000 0.00060000
vn -0.25910000 0.96580000 -0.00000000
vn -0.00000000 -0.00000000 1.00000000
vn -0.25910000 -0.96580000 -0.00000000
vn 0.00010000 -1.00000000 -0.00000000
vn -0.50010000 0.86600000 -0.00000000
vn -0.25920000 0.96580000 -0.00000000
vn -0.25920000 0.96580000 -0.00000000
vn -0.00000000 -0.00000000 1.00000000
vn -0.25850000 -0.96600000 -0.00000000
vn 0.25840000 0.96600000 -0.00000000
vn 0.50020000 0.86590000 -0.00000000
vn 0.47190000 -0.88170000 -0.00000000
vn 0.25900000 0.96590000 -0.00000000
vn 0.25900000 0.96590000 -0.00000000
vn 0.50020000 0.86590000 -0.00000000
vn -0.26090000 -0.96540000 0.00360000
vn 0.00250000 -1.00000000 0.00360000
vn -0.00000000 -0.00000000 1.00000000
vn 0.50020000 -0.86590000 -0.00000000
vn 0.25840000 -0.96600000 -0.00000000
vn 0.50020000 -0.86590000 -0.00000000
vn 0.50020000 -0.86590000 -0.00000000
vn -0.00000000 -0.00000000 1.00000000
vn 0.70530000 0.70890000 0.00370000
vn -0.00000000 -0.00000000 1.00000000
vn 0.70680000 -0.70740000 -0.00000000
vn -0.00000000 -0.00000000 1.00000000
vn -0.00000000 -0.00000000 1.00000000
vn -0.00000000 -0.00000000 1.00000000
vn -0.00000000 -0.00000000 1.00000000
vn -0.00010000 -1.00000000 -0.00000000
vn 0.25850000 -0.96600000 -0.00000000
vn 0.99180000 0.12790000 0.00060000
vn 0.26090000 0.96540000 0.00360000
vn -0.00000000 -0.00000000 1.00000000
vn 0.70890000 0.70530000 0.00370000
vn -0.00010000 1.00000000 -0.00000000
vn 0.25920000 0.96580000 -0.00000000
vn -0.00000000 -0.00000000 1.00000000
vn -0.00000000 -0.00000000 1.00000000
vn 0.70680000 -0.70740000 -0.00000000
vn 0.28890000 0.95740000 -0.00000000
vn 0.25840000 -0.96600000 -0.00000000
vn -0.00000000 -0.00000000 1.00000000
vn 0.70890000 -0.70530000 0.00370000
vn -0.00010000 1.00000000 -0.00000000
vn -0.00000000 -0.00000000 1.00000000
vn 0.50000000 0.86600000 -0.00000000
vn -0.00000000 -0.00000000 1.00000000
vn 0.25920000 -0.96580000 -0.00000000
vn 0.50000000 -0.86600000 -0.00000000
vn 0.70680000 -0.70740000 -0.00000000
vn 0.25900000 0.96590000 -0.00000000
vn 0.12790000 0.99180000 0.00060000
vn 0.50000000 0.86600000 -0.00000000
vn -0.00000000 -0.00000000 1.00000000
vn 0.00250000 1.00000000 0.00360000
vn 0.25840000 0.96600000 -0.00000000
vn -0.00000000 -0.00000000 1.00000000
vn -0.00000000 -0.00000000 1.00000000
vn 0.25900000 -0.96590000 -0.00000000
vn -0.50010000 0.86600000 -0.00000000
vn -0.00000000 -0.00000000 1.00000000
vn -0.00250000 1.00000000 0.00360000
vn 0.86600000 -0.50010000 -0.00000000
vn 0.86590000 0.50020000 -0.00000000
vn -0.00010000 -1.00000000 -0.00000000
vn 0.86590000 0.50020000 -0.00000000
vn 0.86600000 0.50010000 -0.00000000
vn -0.00000000 -0.00000000 1.00000000
vn 0.86590000 -0.50020000 -0.00000000
vn -0.00000000 -0.00000000 1.00000000
vn 0.86600000 -0.50010000 -0.00000000
vn 0.86590000 0.50020000 -0.00000000
vn -0.00000000 -0.00000000 1.00000000
vn -0.79240000 -0.61010000 0.00060000
vn 0.50010000 -0.86600000 -0.00000000
vn 0.95740000 0.28890000 -0.00000000
vn 0.26090000 -0.96540000 0.00360000
vn 0.25910000 0.96580000 -0.00000000
vn -0.49780000 0.86730000 0.00370000
vn -0.26090000 0.96540000 0.00360000
vn 0.25910000 0.96580000 -0.00000000
vn 0.50010000 0.86600000 -0.00000000
vn -0.47190000 0.88170000 -0.00000000
vn -0.50000000 0.86600000 -0.00000000
vn -1.00000000 -0.00010000 -0.00000000
vn 0.99940000 0.03350000 -0.00000000
vn -1.00000000 0.00010000 -0.00000000
vn -0.96590000 0.25900000 -0.00000000
vn 0.50020000 0.86590000 -0.00000000
vn -0.50000000 0.86600000 -0.00000000
vn 0.86590000 0.50020000 -0.00000000
vn -0.96580000 -0.25920000 -0.00000000
vn -0.00000000 -0.00000000 1.00000000
vn -0.00000000 -0.00000000 1.00000000
vn -1.00000000 -0.00010000 -0.00000000
vn -0.96600000 -0.25840000 -0.00000000
vn -0.00000000 -0.00000000 1.00000000
vn 1.00000000 0.00250000 0.00360000
vn -0.00000000 -0.00000000 1.00000000
vn -0.00000000 -0.00000000 1.00000000
vn -1.00000000 -0.00010000 -0.00000000
vn -0.96600000 0.25850000 -0.00000000
vn 0.99940000 -0.03350000 -0.00000000
vn -0.00000000 -0.00000000 1.00000000
vn -0.96600000 -0.25840000 -0.00000000
vn -1.00000000 0.00010000 -0.00000000
vn -0.96600000 -0.25850000 -0.00000000
vn -0.50000000 -0.86600000 -0.00000000
vn 0.50020000 -0.86590000 -0.00000000
vn -0.00000000 -0.00000000 1.00000000
vn -0.00000000 -0.00000000 1.00000000
vn -0.00000000 -0.00000000 1.00000000
vn -0.96600000 0.25840000 -0.00000000
vn -0.00000000 -0.00000000 1.00000000
vn 1.00000000 -0.00250000 0.00360000
vn -0.00000000 -0.00000000 1.00000000
vn -0.00000000 -0.00000000 1.00000000
vn -0.86590000 -0.50020000 -0.00000000
vn -0.00000000 -0.00000000 1.00000000
vn -0.00000000 -0.00000000 1.00000000
vn -0.00000000 -0.00000000 1.00000000
vn -0.00000000 -0.00000000 1.00000000
vn -0.00000000 -0.00000000 1.00000000
vn -0.86590000 0.50020000 -0.00000000
vn -0.00000000 -0.00000000 1.00000000
vn -0.00000000 -0.00000000 1.00000000
vn -0.86600000 -0.50010000 -0.00000000
vn -0.00000000 -0.00000000 1.00000000
vn -0.00000000 -0.00000000 1.00000000
vn -0.86600000 0.50010000 -0.00000000
vn -0.00000000 -0.00000000 1.00000000
vn -0.00000000 -0.00000000 1.00000000
vn -0.00000000 -0.00000000 1.00000000
vn 0.86600000 0.50010000 -0.00000000
vn -0.00000000 -0.00000000 1.00000000
vn -0.00000000 -0.00000000 1.00000000
vn -0.86730000 0.49780000 0.00370000
vn -0.96590000 -0.25900000 -0.00000000
vn -0.00000000 -0.00000000 1.00000000
vn -0.00000000 -0.00000000 1.00000000
vn 0.86590000 -0.50020000 -0.00000000
vn -0.00000000 -0.00000000 1.00000000
vn -0.86590000 0.50020000 -0.00000000
vn -0.86590000 -0.50020000 -0.00000000
vn -0.86590000 -0.50020000 -0.00000000
vn -0.86600000 0.50010000 -0.00000000
vn -0.00000000 -0.00000000 1.00000000
vn -0.86600000 -0.50010000 -0.00000000
vn -0.86600000 0.50000000 -0.00000000
vn -0.70740000 0.70680000 -0.00000000
vn -0.96600000 0.25840000 -0.00000000
vn -0.86600000 0.50010000 -0.00000000
vn -0.00000000 -0.00000000 1.00000000
vn -0.70710000 -0.70710000 -0.00000000
vn -0.86590000 0.50020000 -0.00000000
vn -0.70710000 0.70710000 -0.00000000
vn -0.86730000 -0.49780000 0.00370000
vn -0.86590000 -0.50020000 -0.00000000
vn -0.88170000 -0.47190000 -0.00000000
vn 0.00010000 1.00000000 -0.00000000
vn -0.86590000 0.50020000 -0.00000000
vn 0.00010000 1.00000000 -0.00000000
vn -0.86600000 -0.50010000 -0.00000000
vn 0.00010000 -1.00000000 -0.00000000
vn -0.00000000 -0.00000000 1.00000000
vn -0.86590000 0.50020000 -0.00000000
vn -0.00000000 -0.00000000 1.00000000
vn -0.70740000 -0.70680000 -0.00000000
vn 0.00010000 -1.00000000 -0.00000000
vn 0.00010000 -1.00000000 -0.00000000
vn 0.96600000 0.25850000 -0.00000000
vn 1.00000000 -0.00010000 -0.00000000
vn 0.96600000 0.25850000 -0.00000000
vn -0.00000000 -0.00000000 1.00000000
vn 0.70740000 0.70680000 -0.00000000
vn -0.25840000 0.96600000 -0.00000000
vn 0.96600000 0.25840000 -0.00000000
vn 1.00000000 0.00010000 -0.00000000
vn -0.00000000 -0.00000000 1.00000000
vn 0.96600000 0.25840000 -0.00000000
vn 1.00000000 0.00010000 -0.00000000
vn 0.70710000 -0.70710000 -0.00000000
vn 0.70740000 0.70680000 -0.00000000
vn -0.00000000 -0.00000000 1.00000000
vn -0.25900000 -0.96590000 -0.00000000
vn 0.70740000 -0.70680000 -0.00000000
vn 0.70710000 0.70710000 -0.00000000
vn 0.96600000 -0.25840000 -0.00000000
vn -0.00000000 -0.00000000 1.00000000
vn -0.00000000 -0.00000000 1.00000000
vn -0.00000000 -0.00000000 1.00000000
vn 0.70740000 0.70680000 -0.00000000
vn 0.86600000 0.50000000 -0.00000000
vn 0.70740000 0.70680000 -0.00000000
vn -0.00000000 -0.00000000 1.00000000
vn 0.86590000 -0.50020000 -0.00000000
vn 0.70710000 -0.70710000 -0.00000000
vn 0.86590000 -0.50020000 -0.00000000
vn 0.70740000 -0.70680000 -0.00000000
vn -0.25840000 -0.96600000 -0.00000000
vn 0.70740000 -0.70680000 -0.00000000
vn 0.86600000 -0.50000000 -0.00000000
vn 0.96600000 -0.25850000 -0.00000000
vn 0.70740000 -0.70680000 -0.00000000
vn -0.00000000 -0.00000000 1.00000000
vn -0.25900000 0.96590000 -0.00000000
vn -0.00000000 -0.00000000 1.00000000
vn -0.25840000 -0.96600000 -0.00000000
vn 0.96600000 -0.25850000 -0.00000000
vn -0.25900000 -0.96590000 -0.00000000
vn 0.70710000 0.70710000 -0.00000000
vn 0.86590000 0.50020000 -0.00000000
vn -1.00000000 0.00010000 -0.00000000
vn -0.96590000 0.25900000 -0.00000000
vn -1.00000000 -0.00010000 -0.00000000
vn -0.96580000 0.25910000 -0.00000000
vn -1.00000000 0.00010000 -0.00000000
vn -0.00000000 -0.00000000 1.00000000
vn -1.00000000 -0.00010000 -0.00000000
vn -0.96580000 -0.25910000 -0.00000000
vn -0.96590000 -0.25900000 -0.00000000
vn -0.50020000 -0.86590000 -0.00000000
vn -0.00000000 -0.00000000 1.00000000
vn -0.50020000 -0.86590000 -0.00000000
vn -0.50020000 -0.86590000 -0.00000000
vn -0.50020000 0.86590000 -0.00000000
vn -0.50020000 0.86590000 -0.00000000
vn -0.00000000 -0.00000000 1.00000000
vn -0.00000000 -0.00000000 1.00000000
vn -0.50020000 -0.86590000 -0.00000000
vn -0.50020000 0.86590000 -0.00000000
vn -0.00000000 -0.00000000 1.00000000
vn -0.00000000 -0.00000000 1.00000000
vn -0.00000000 -0.00000000 1.00000000
vn 0.96590000 0.25900000 -0.00000000
vn 0.96580000 -0.25910000 -0.00000000
vn -0.79240000 0.61010000 0.00060000
vn -0.70740000 -0.70680000 -0.00000000
vn -0.70710000 0.70710000 -0.00000000
vn -0.00250000 -1.00000000 0.00360000
vn -0.70740000 0.70680000 -0.00000000
vn 0.96590000 -0.25900000 -0.00000000
vn -0.70710000 -0.70710000 -0.00000000
vn -0.00010000 1.00000000 -0.00000000
vn 0.96580000 0.25910000 -0.00000000
vn 0.96580000 0.25910000 -0.00000000
vn -0.00010000 -1.00000000 -0.00000000
vn -0.00010000 1.00000000 -0.00000000
vn -0.61010000 -0.79240000 0.00060000
vn -0.61010000 0.79240000 0.00060000
vn -0.70710000 -0.70710000 -0.00000000
vn -0.70530000 -0.70890000 0.00370000
vn -0.03350000 -0.99940000 -0.00000000
vn -0.70530000 0.70890000 0.00370000
vn -0.00000000 -0.00000000 1.00000000
vn -0.70680000 -0.70740000 -0.00000000
vn -0.70680000 -0.70740000 -0.00000000
vn -0.70680000 0.70740000 -0.00000000
vn -0.70680000 0.70740000 -0.00000000
vn -0.68260000 0.73080000 -0.00000000
vn 0.86600000 -0.50010000 -0.00000000
vn 0.86600000 0.50010000 -0.00000000
vn 0.86600000 0.50010000 -0.00000000
vn 0.86730000 -0.49780000 0.00370000
vn -0.68260000 -0.73080000 -0.00000000
vn 1.00000000 0.00010000 -0.00000000
vn 0.86600000 -0.50010000 -0.00000000
vn 1.00000000 0.00010000 -0.00000000
vn 1.00000000 -0.00010000 -0.00000000
vn 1.00000000 -0.00010000 -0.00000000
vn 0.86730000 0.49780000 0.00370000
vn 0.79240000 0.61010000 0.00060000
vn 0.79240000 -0.61010000 0.00060000
vn 0.88170000 -0.47190000 -0.00000000
vn -0.00000000 -0.00000000 1.00000000
f 227//227 233//233 200//200
f 200//200 233//233 237//237
f 200//200 237//237 234//234
f 208//208 367//367 200//200
f 200//200 367//367 221//221
f 200//200 221//221 227//227
f 532//532 194//194 200//200
f 200//200 194//194 199//199
f 200//200 199//199 208//208
f 465//465 174//174 200//200
f 200//200 174//174 180//180
f 200//200 180//180 532//532
f 175//175 467//467 200//200
f 200//200 467//467 464//464
f 200//200 464//464 465//465
f 196//196 530//530 200//200
f 200//200 530//530 182//182
f 200//200 182//182 175//175
f 214//214 209//209 200//200
f 200//200 209//209 201//201
f 200//200 201//201 196//196
f 234//234 228//228 200//200
f 200//200 228//228 379//379
f 200//200 379//379 214//214
f 435//435 436//436 120//120
f 120//120 436//436 164//164
f 120//120 164//164 398//398
f 129//129 137//137 120//120
f 120//120 137//137 144//144
f 120//120 144//144 435//435
f 460//460 112//112 120//120
f 120//120 112//112 119//119
f 120//120 119//119 129//129
f 419//419 457//457 120//120
f 120//120 457//457 458//458
f 120//120 458//458 460//460
f 446//446 441//441 120//120
f 120//120 441//441 418//418
f 120//120 418//418 419//419
f 113//113 108//108 120//120
f 120//120 108//108 447//447
f 120//120 447//447 446//446
f 139//139 131//131 120//120
f 120//120 131//131 325//325
f 120//120 325//325 113//113
f 398//398 151//151 120//120
f 120//120 151//151 520//520
f 120//120 520//520 139//139
f 71//71 78//78 43//43
f 43//43 78//78 580//580
f 43//43 580//580 80//80
f 51//51 57//57 43//43
f 43//43 57//57 64//64
f 43//43 64//64 71//71
f 331//331 35//35 43//43
f 43//43 35//35 42//42
f 43//43 42//42 51//51
f 445//445 15//15 43//43
f 43//43 15//15 22//22
f 43//43 22//22 331//331
f 17//17 10//10 43//43
f 43//43 10//10 444//444
f 43//43 444//444 445//445
f 36//36 29//29 43//43
f 43//43 29//29 23//23
f 43//43 23//23 17//17
f 59//59 52//52 43//43
f 43//43 52//52 45//45
f 43//43 45//45 36//36
f 80//80 73//73 43//43
f 43//43 73//73 66//66
f 43//43 66//66 59//59
f 74//74 82//82 47//47
f 47//47 82//82 600//600
f 47//47 600//600 83//83
f 341//341 61//61 47//47
f 47//47 61//61 68//68
f 47//47 68//68 74//74
f 382//382 383//383 47//47
f 47//47 383//383 46//46
f 47//47 46//46 341//341
f 472//472 19//19 47//47
f 47//47 19//19 24//24
f 47//47 24//24 382//382
f 21//21 461//461 47//47
f 47//47 461//461 490//490
f 47//47 490//490 472//472
f 386//386 33//33 47//47
f 47//47 33//33 25//25
f 47//47 25//25 21//21
f 63//63 56//56 47//47
f 47//47 56//56 49//49
f 47//47 49//49 386//386
f 83//83 76//76 47//47
f 47//47 76//76 69//69
f 47//47 69//69 63//63
f 153//153 395//395 125//125
f 125//125 395//395 165//165
f 125//125 165//165 393//393
f 133//133 141//141 125//125
f 125//125 141//141 147//147
f 125//125 147//147 153//153
f 442//442 115//115 125//125
f 125//125 115//115 124//124
f 125//125 124//124 133//133
f 92//92 450//450 125//125
f 125//125 450//450 451//451
f 125//125 451//451 442//442
f 453//453 456//456 125//125
f 125//125 456//456 89//89
f 125//125 89//89 92//92
f 117//117 110//110 125//125
f 125//125 110//110 454//454
f 125//125 454//454 453//453
f 143//143 135//135 125//125
f 125//125 135//135 127//127
f 125//125 127//127 117//117
f 393//393 155//155 125//125
f 125//125 155//155 148//148
f 125//125 148//148 143//143
f 230//230 516//516 203//203
f 203//203 516//516 499//499
f 203//203 499//499 236//236
f 362//362 363//363 203//203
f 203//203 363//363 224//224
f 203//203 224//224 230//230
f 509//509 197//197 203//203
f 203//203 197//197 202//202
f 203//203 202//202 362//362
f 425//425 176//176 203//203
f 203//203 176//176 183//183
f 203//203 183//183 509//509
f 178//178 429//429 203//203
f 203//203 429//429 424//424
f 203//203 424//424 425//425
f 515//515 514//514 203//203
f 203//203 514//514 185//185
f 203//203 185//185 178//178
f 358//358 212//212 203//203
f 203//203 212//212 205//205
f 203//203 205//205 515//515
f 236//236 232//232 203//203
f 203//203 232//232 226//226
f 203//203 226//226 358//358
f 308//308 448//448 279//279
f 279//279 448//448 319//319
f 279//279 319//319 439//439
f 287//287 348//348 279//279
f 279//279 348//348 303//303
f 279//279 303//303 308//308
f 262//262 559//559 279//279
f 279//279 559//559 372//372
f 279//279 372//372 287//287
f 553//553 478//478 279//279
f 279//279 478//478 256//256
f 279//279 256//256 262//262
f 250//250 504//504 279//279
f 279//279 504//504 240//240
f 279//279 240//240 553//553
f 558//558 263//263 279//279
f 279//279 263//263 258//258
f 279//279 258//258 250//250
f 346//346 370//370 279//279
f 279//279 370//370 281//281
f 279//279 281//281 558//558
f 439//439 310//310 279//279
f 279//279 310//310 305//305
f 279//279 305//305 346//346
f 306//306 422//422 274//274
f 274//274 422//422 318//318
f 274//274 318//318 437//437
f 283//283 350//350 274//274
f 274//274 350//350 351//351
f 274//274 351//351 306//306
f 259//259 554//554 274//274
f 274//274 554//554 273//273
f 274//274 273//273 283//283
f 548//548 492//492 274//274
f 274//274 492//492 252//252
f 274//274 252//252 259//259
f 247//247 543//543 274//274
f 274//274 543//543 239//239
f 274//274 239//239 548//548
f 557//557 261//261 274//274
f 274//274 261//261 254//254
f 274//274 254//254 247//247
f 352//352 285//285 274//274
f 274//274 285//285 276//276
f 274//274 276//276 557//557
f 437//437 307//307 274//274
f 274//274 307//307 353//353
f 274//274 353//353 352//352
f 402//402 335//335 213//213
f 213//213 335//335 218//218
f 213//213 218//218 368//368
f 218//218 220//220 368//368
f 368//368 220//220 396//396
f 368//368 396//396 388//388
f 388//388 396//396 534//534
f 388//388 534//534 528//528
f 528//528 534//534 506//506
f 528//528 506//506 503//503
f 503//503 506//506 505//505
f 503//503 505//505 502//502
f 502//502 505//505 391//391
f 502//502 391//391 389//389
f 389//389 391//391 222//222
f 389//389 222//222 223//223
f 223//223 222//222 371//371
f 223//223 371//371 378//378
f 378//378 371//371 403//403
f 378//378 403//403 406//406
f 406//406 403//403 569//569
f 406//406 569//569 573//573
f 573//573 569//569 195//195
f 573//573 195//195 531//531
f 531//531 195//195 188//188
f 531//531 188//188 189//189
f 189//189 188//188 181//181
f 189//189 181//181 564//564
f 564//564 181//181 486//486
f 564//564 486//486 468//468
f 468//468 486//486 413//413
f 468//468 413//413 169//169
f 169//169 413//413 412//412
f 169//169 412//412 166//166
f 166//166 412//412 417//417
f 166//166 417//417 168//168
f 168//168 417//417 173//173
f 168//168 173//173 488//488
f 488//488 173//173 179//179
f 488//488 179//179 563//563
f 563//563 179//179 186//186
f 563//563 186//186 187//187
f 187//187 186//186 525//525
f 187//187 525//525 533//533
f 533//533 525//525 578//578
f 533//533 578//578 565//565
f 565//565 578//578 206//206
f 565//565 206//206 402//402
f 402//402 206//206 207//207
f 402//402 207//207 335//335
f 107//107 111//111 339//339
f 339//339 111//111 323//323
f 339//339 323//323 340//340
f 323//323 118//118 340//340
f 340//340 118//118 128//128
f 340//340 128//128 366//366
f 366//366 128//128 136//136
f 366//366 136//136 400//400
f 400//400 136//136 529//529
f 400//400 529//529 511//511
f 511//511 529//529 149//149
f 511//511 149//149 150//150
f 150//150 149//149 156//156
f 150//150 156//156 157//157
f 157//157 156//156 591//591
f 157//157 591//591 593//593
f 593//593 591//591 158//158
f 593//593 158//158 159//159
f 159//159 158//158 416//416
f 159//159 416//416 397//397
f 397//397 416//416 512//512
f 397//397 512//512 145//145
f 145//145 512//512 138//138
f 145//145 138//138 414//414
f 414//414 138//138 130//130
f 414//414 130//130 376//376
f 376//376 130//130 121//121
f 376//376 121//121 122//122
f 122//122 121//121 322//322
f 122//122 322//322 324//324
f 324//324 322//322 415//415
f 324//324 415//415 409//409
f 409//409 415//415 100//100
f 409//409 100//100 101//101
f 101//101 100//100 449//449
f 101//101 449//449 95//95
f 95//95 449//449 438//438
f 95//95 438//438 91//91
f 91//91 438//438 431//431
f 91//91 431//431 88//88
f 88//88 431//431 432//432
f 88//88 432//432 90//90
f 90//90 432//432 452//452
f 90//90 452//452 94//94
f 94//94 452//452 98//98
f 94//94 98//98 99//99
f 99//99 98//98 574//574
f 99//99 574//574 107//107
f 107//107 574//574 106//106
f 107//107 106//106 111//111
f 8//8 484//484 482//482
f 482//482 484//484 399//399
f 482//482 399//399 577//577
f 399//399 590//590 577//577
f 577//577 590//590 26//26
f 577//577 26//26 27//27
f 27//27 26//26 34//34
f 27//27 34//34 332//332
f 332//332 34//34 41//41
f 332//332 41//41 489//489
f 489//489 41//41 50//50
f 489//489 50//50 343//343
f 343//343 50//50 345//345
f 343//343 345//345 344//344
f 344//344 345//345 524//524
f 344//344 524//524 526//526
f 526//526 524//524 70//70
f 526//526 70//70 527//527
f 527//527 70//70 77//77
f 527//527 77//77 561//561
f 561//561 77//77 84//84
f 561//561 84//84 85//85
f 85//85 84//84 79//79
f 85//85 79//79 560//560
f 560//560 79//79 72//72
f 560//560 72//72 537//537
f 537//537 72//72 65//65
f 537//537 65//65 536//536
f 536//536 65//65 58//58
f 536//536 58//58 338//338
f 338//338 58//58 336//336
f 338//338 336//336 337//337
f 337//337 336//336 44//44
f 337//337 44//44 487//487
f 487//487 44//44 330//330
f 487//487 330//330 329//329
f 329//329 330//330 28//28
f 329//329 28//28 328//328
f 328//328 28//28 584//584
f 328//328 584//584 583//583
f 583//583 584//584 16//16
f 583//583 16//16 477//477
f 477//477 16//16 9//9
f 477//477 9//9 476//476
f 476//476 9//9 1//1
f 476//476 1//1 2//2
f 2//2 1//1 5//5
f 2//2 5//5 8//8
f 8//8 5//5 7//7
f 8//8 7//7 484//484
f 462//462 13//13 14//14
f 14//14 13//13 6//6
f 14//14 6//6 4//4
f 6//6 3//3 4//4
f 4//4 3//3 11//11
f 4//4 11//11 12//12
f 12//12 11//11 18//18
f 12//12 18//18 473//473
f 473//473 18//18 582//582
f 473//473 582//582 581//581
f 581//581 582//582 30//30
f 581//581 30//30 31//31
f 31//31 30//30 37//37
f 31//31 37//37 38//38
f 38//38 37//37 495//495
f 38//38 495//495 494//494
f 494//494 495//495 53//53
f 494//494 53//53 54//54
f 54//54 53//53 60//60
f 54//54 60//60 342//342
f 342//342 60//60 67//67
f 342//342 67//67 522//522
f 522//522 67//67 521//521
f 522//522 521//521 523//523
f 523//523 521//521 81//81
f 523//523 81//81 567//567
f 567//567 81//81 86//86
f 567//567 86//86 87//87
f 87//87 86//86 571//571
f 87//87 571//571 570//570
f 570//570 571//571 75//75
f 570//570 75//75 518//518
f 518//518 75//75 519//519
f 518//518 519//519 517//517
f 517//517 519//519 62//62
f 517//517 62//62 334//334
f 334//334 62//62 55//55
f 334//334 55//55 333//333
f 333//333 55//55 48//48
f 333//333 48//48 485//485
f 485//485 48//48 39//39
f 485//485 39//39 40//40
f 40//40 39//39 32//32
f 40//40 32//32 385//385
f 385//385 32//32 585//585
f 385//385 585//585 579//579
f 579//579 585//585 562//562
f 579//579 562//562 462//462
f 462//462 562//562 20//20
f 462//462 20//20 13//13
f 405//405 408//408 404//404
f 404//404 408//408 575//575
f 404//404 575//575 105//105
f 575//575 104//104 105//105
f 105//105 104//104 455//455
f 105//105 455//455 97//97
f 97//97 455//455 427//427
f 97//97 427//427 93//93
f 93//93 427//427 426//426
f 93//93 426//426 420//420
f 420//420 426//426 430//430
f 420//420 430//430 421//421
f 421//421 430//430 443//443
f 421//421 443//443 96//96
f 96//96 443//443 102//102
f 96//96 102//102 103//103
f 103//103 102//102 433//433
f 103//103 433//433 109//109
f 109//109 433//433 114//114
f 109//109 114//114 326//326
f 326//326 114//114 123//123
f 326//326 123//123 327//327
f 327//327 123//123 132//132
f 327//327 132//132 384//384
f 384//384 132//132 140//140
f 384//384 140//140 434//434
f 434//434 140//140 146//146
f 434//434 146//146 507//507
f 507//507 146//146 152//152
f 507//507 152//152 394//394
f 394//394 152//152 160//160
f 394//394 160//160 161//161
f 161//161 160//160 595//595
f 161//161 595//595 594//594
f 594//594 595//595 162//162
f 594//594 162//162 163//163
f 163//163 162//162 154//154
f 163//163 154//154 392//392
f 392//392 154//154 508//508
f 392//392 508//508 500//500
f 500//500 508//508 142//142
f 500//500 142//142 407//407
f 407//407 142//142 134//134
f 407//407 134//134 381//381
f 381//381 134//134 126//126
f 381//381 126//126 380//380
f 380//380 126//126 321//321
f 380//380 321//321 405//405
f 405//405 321//321 116//116
f 405//405 116//116 408//408
f 217//217 365//365 357//357
f 357//357 365//365 377//377
f 357//357 377//377 387//387
f 377//377 204//204 387//387
f 387//387 204//204 501//501
f 387//387 501//501 198//198
f 198//198 501//501 192//192
f 198//198 192//192 193//193
f 193//193 192//192 184//184
f 193//193 184//184 566//566
f 566//566 184//184 177//177
f 566//566 177//177 471//471
f 471//471 177//177 171//171
f 471//471 171//171 172//172
f 172//172 171//171 410//410
f 172//172 410//410 167//167
f 167//167 410//410 463//463
f 167//167 463//463 170//170
f 170//170 463//463 469//469
f 170//170 469//469 470//470
f 470//470 469//469 568//568
f 470//470 568//568 576//576
f 576//576 568//568 190//190
f 576//576 190//190 191//191
f 191//191 190//190 535//535
f 191//191 535//535 510//510
f 510//510 535//535 572//572
f 510//510 572//572 390//390
f 390//390 572//572 210//210
f 390//390 210//210 211//211
f 211//211 210//210 374//374
f 211//211 374//374 215//215
f 215//215 374//374 375//375
f 215//215 375//375 364//364
f 364//364 375//375 229//229
f 364//364 229//229 466//466
f 466//466 229//229 513//513
f 466//466 513//513 235//235
f 235//235 513//513 497//497
f 235//235 497//497 238//238
f 238//238 497//497 496//496
f 238//238 496//496 498//498
f 498//498 496//496 231//231
f 498//498 231//231 459//459
f 459//459 231//231 225//225
f 459//459 225//225 359//359
f 359//359 225//225 219//219
f 359//359 219//219 217//217
f 217//217 219//219 216//216
f 217//217 216//216 365//365
f 317//317 309//309 596//596
f 596//596 309//309 597//597
f 596//596 597//597 347//347
f 597//597 304//304 347//347
f 347//347 304//304 296//296
f 347//347 296//296 297//297
f 297//297 296//296 288//288
f 297//297 288//288 289//289
f 289//289 288//288 280//280
f 289//289 280//280 369//369
f 369//369 280//280 270//270
f 369//369 270//270 271//271
f 271//271 270//270 552//552
f 271//271 552//552 551//551
f 551//551 552//552 257//257
f 551//551 257//257 475//475
f 475//475 257//257 249//249
f 475//475 249//249 474//474
f 474//474 249//249 541//541
f 474//474 541//541 244//244
f 244//244 541//541 540//540
f 244//244 540//540 544//544
f 544//544 540//540 546//546
f 544//544 546//546 243//243
f 243//243 546//546 483//483
f 243//243 483//483 248//248
f 248//248 483//483 255//255
f 248//248 255//255 479//479
f 479//479 255//255 555//555
f 479//479 555//555 549//549
f 549//549 555//555 268//268
f 549//549 268//268 269//269
f 269//269 268//268 277//277
f 269//269 277//277 278//278
f 278//278 277//277 286//286
f 278//278 286//286 373//373
f 373//373 286//286 294//294
f 373//373 294//294 295//295
f 295//295 294//294 302//302
f 295//295 302//302 349//349
f 349//349 302//302 592//592
f 349//349 592//592 586//586
f 586//586 592//592 315//315
f 586//586 315//315 316//316
f 316//316 315//315 428//428
f 316//316 428//428 440//440
f 440//440 428//428 356//356
f 440//440 356//356 317//317
f 317//317 356//356 401//401
f 317//317 401//401 309//309
f 589//589 311//311 312//312
f 312//312 311//311 320//320
f 312//312 320//320 423//423
f 320//320 411//411 423//423
f 423//423 411//411 313//313
f 423//423 313//313 314//314
f 314//314 313//313 588//588
f 314//314 588//588 587//587
f 587//587 588//588 300//300
f 587//587 300//300 301//301
f 301//301 300//300 292//292
f 301//301 292//292 293//293
f 293//293 292//292 284//284
f 293//293 284//284 361//361
f 361//361 284//284 275//275
f 361//361 275//275 360//360
f 360//360 275//275 266//266
f 360//360 266//266 267//267
f 267//267 266//266 260//260
f 267//267 260//260 556//556
f 556//556 260//260 253//253
f 556//556 253//253 481//481
f 481//481 253//253 491//491
f 481//481 491//491 480//480
f 480//480 491//491 539//539
f 480//480 539//539 242//242
f 242//242 539//539 538//538
f 242//242 538//538 542//542
f 542//542 538//538 545//545
f 542//542 545//545 241//241
f 241//241 545//545 245//245
f 241//241 245//245 246//246
f 246//246 245//245 251//251
f 246//246 251//251 493//493
f 493//493 251//251 550//550
f 493//493 550//550 547//547
f 547//547 550//550 264//264
f 547//547 264//264 265//265
f 265//265 264//264 272//272
f 265//265 272//272 354//354
f 354//354 272//272 282//282
f 354//354 282//282 355//355
f 355//355 282//282 290//290
f 355//355 290//290 291//291
f 291//291 290//290 298//298
f 291//291 298//298 299//299
f 299//299 298//298 598//598
f 299//299 598//598 589//589
f 589//589 598//598 599//599
f 589//589 599//599 311//311

