mtllib material.mtl
usemtl SWMaterial-4
v -0.05656400 0.06730000 0.01090100
v -0.05729400 0.05889100 0.00355800
v 0.02447000 0.05889100 0.05390200
v -0.05114200 0.06730000 0.02718700
v 0.04247500 0.06730000 0.04123100
v -0.05160000 0.05889100 0.02604500
v 0.04865500 0.05889100 0.03357700
v -0.04598800 0.06730000 0.03555600
v 0.05123600 0.06730000 0.02938500
v -0.03949500 0.05889100 0.04293500
v 0.05234500 0.05889100 0.02718700
v -0.02980800 0.06730000 0.05048700
v 0.05673000 0.06730000 0.01571300
v 0.05808000 0.06730000 0.00845900
v -0.01400000 0.06730000 0.05717700
v -0.00476000 0.06730000 0.05889800
v -0.05003300 0.06730000 -0.02718800
v -0.04598800 0.06730000 -0.03335900
v 0.04247500 0.06730000 -0.03903400
v 0.05437000 0.06730000 0.02270500
v 0.04719100 0.06730000 0.03555600
v 0.03700500 0.06730000 0.04618400
v 0.02886200 0.06730000 0.05168800
v 0.01990600 0.06730000 0.05573600
v 0.00799400 0.06730000 0.05879400
v -0.02326700 0.06730000 0.05390200
v -0.03580200 0.06730000 0.04618400
v -0.04127200 0.06730000 0.04123100
v -0.05480600 0.06730000 0.01806700
v -0.05729400 0.06730000 0.00355800
v -0.00432700 0.06730000 -0.05675900
v -0.00678300 0.05889100 -0.05653500
v 0.05860100 0.06730000 0.00109900
v -0.01400000 0.06730000 -0.05497900
v 0.05839200 0.05889100 -0.00382000
v -0.02765900 0.06730000 -0.04949000
v 0.05808000 0.06730000 -0.00626100
v -0.02765900 0.05889100 -0.04949000
v 0.05600900 0.06730000 -0.01587000
v 0.05234500 0.06730000 -0.02499000
v 0.05123600 0.05889100 -0.02718800
v -0.03853700 0.06730000 -0.04151000
v 0.04719100 0.06730000 -0.03335900
v -0.04598800 0.05889100 -0.03335900
v -0.05316800 0.06730000 -0.02050800
v 0.03700500 0.06730000 -0.04398700
v -0.05552700 0.06730000 -0.01351600
v -0.05687700 0.06730000 -0.00626100
v 0.02886200 0.06730000 -0.04949000
v 0.02886200 0.05889100 -0.04949000
v -0.05604600 0.05889100 -0.01110900
v 0.00737600 0.05889100 -0.05663900
v 0.01113600 0.06730000 -0.05619600
v -0.05719000 0.05889100 -0.00382000
v -0.05408500 0.05889100 -0.01822400
v -0.05114200 0.05889100 -0.02499000
v -0.03949500 0.05889100 -0.04073700
v -0.03388700 0.05889100 -0.04553300
v -0.01870300 0.05889100 -0.05353900
v 0.01990600 0.05889100 -0.05353900
v 0.03700500 0.05889100 -0.04398700
v 0.04247500 0.05889100 -0.03903400
v 0.04719100 0.05889100 -0.03335900
v 0.05437000 0.05889100 -0.02050800
v 0.05724900 0.05889100 -0.01110900
v 0.05849700 0.05889100 0.00355800
v 0.05776700 0.05889100 0.01090100
v 0.05600900 0.05889100 0.01806700
v 0.04151100 0.05889100 0.04201000
v 0.03305100 0.05889100 0.04910900
v 0.01043900 0.05889100 0.05847500
v -0.00389100 0.05889100 0.05897200
v -0.01882000 0.05889100 0.05606900
v -0.03184800 0.05889100 0.04910900
v -0.04598800 0.05889100 0.03555600
v -0.05604600 0.05889100 0.01330700
v -0.03949500 0.05889100 0.04293500
v -0.04598800 0.05889100 0.03555600
v 0.04865500 0.05889100 0.03357700
v 0.04151100 0.05889100 0.04201000
v -0.01882000 0.05889100 0.05606900
v -0.03184800 0.05889100 0.04910900
v -0.05729400 0.05889100 0.00355800
v -0.05719000 0.05889100 -0.00382000
v -0.01400000 0.06730000 0.05717700
v -0.02326700 0.06730000 0.05390200
v 0.05839200 0.05889100 -0.00382000
v 0.05724900 0.05889100 -0.01110900
v 0.03305100 0.05889100 0.04910900
v 0.05437000 0.05889100 -0.02050800
v -0.02765900 0.05889100 -0.04949000
v -0.01870300 0.05889100 -0.05353900
v 0.05673000 0.06730000 0.01571300
v 0.05808000 0.06730000 0.00845900
v 0.00737600 0.05889100 -0.05663900
v 0.01990600 0.05889100 -0.05353900
v 0.02886200 0.05889100 -0.04949000
v -0.05114200 0.06730000 0.02718700
v -0.05480600 0.06730000 0.01806700
v -0.01400000 0.06730000 -0.05497900
v -0.02765900 0.06730000 -0.04949000
v 0.01990600 0.06730000 0.05573600
v 0.00799400 0.06730000 0.05879400
v -0.05604600 0.05889100 -0.01110900
v -0.04598800 0.06730000 0.03555600
v -0.05604600 0.05889100 0.01330700
v -0.05160000 0.05889100 0.02604500
v -0.00476000 0.06730000 0.05889800
v 0.05849700 0.05889100 0.00355800
v -0.04598800 0.06730000 -0.03335900
v -0.03853700 0.06730000 -0.04151000
v -0.00389100 0.05889100 0.05897200
v 0.05234500 0.06730000 -0.02499000
v 0.04719100 0.06730000 -0.03335900
v 0.02447000 0.05889100 0.05390200
v -0.03388700 0.05889100 -0.04553300
v 0.05860100 0.06730000 0.00109900
v -0.03949500 0.05889100 -0.04073700
v 0.05234500 0.05889100 0.02718700
v 0.03700500 0.05889100 -0.04398700
v 0.04247500 0.05889100 -0.03903400
v 0.05808000 0.06730000 -0.00626100
v 0.02886200 0.06730000 0.05168800
v 0.05123600 0.05889100 -0.02718800
v 0.05437000 0.06730000 0.02270500
v -0.05003300 0.06730000 -0.02718800
v -0.05316800 0.06730000 -0.02050800
v -0.03580200 0.06730000 0.04618400
v -0.04127200 0.06730000 0.04123100
v 0.02886200 0.06730000 -0.04949000
v 0.01113600 0.06730000 -0.05619600
v -0.02980800 0.06730000 0.05048700
v 0.05123600 0.06730000 0.02938500
v 0.01043900 0.05889100 0.05847500
v -0.00432700 0.06730000 -0.05675900
v 0.04719100 0.05889100 -0.03335900
v -0.05552700 0.06730000 -0.01351600
v -0.05687700 0.06730000 -0.00626100
v 0.05776700 0.05889100 0.01090100
v 0.05600900 0.05889100 0.01806700
v 0.03700500 0.06730000 0.04618400
v -0.05656400 0.06730000 0.01090100
v 0.05600900 0.06730000 -0.01587000
v -0.00678300 0.05889100 -0.05653500
v 0.04247500 0.06730000 0.04123100
v 0.04719100 0.06730000 0.03555600
v 0.04247500 0.06730000 -0.03903400
v 0.03700500 0.06730000 -0.04398700
v -0.05729400 0.06730000 0.00355800
v -0.04598800 0.05889100 -0.03335900
v -0.05408500 0.05889100 -0.01822400
v -0.05114200 0.05889100 -0.02499000
vn -0.00000000 1.00000000 -0.00000000
vn -0.00000000 -1.00000000 -0.00000000
vn -0.00000000 -1.00000000 -0.00000000
vn -0.00000000 1.00000000 -0.00000000
vn -0.00000000 1.00000000 -0.00000000
vn -0.00000000 -1.00000000 -0.00000000
vn -0.00000000 -1.00000000 -0.00000000
vn -0.00000000 1.00000000 -0.00000000
vn 0.87390000 0.00460000 0.48610000
vn -0.00000000 -1.00000000 -0.00000000
vn 0.89830000 -0.01290000 0.43910000
vn -0.00000000 1.00000000 -0.00000000
vn -0.00000000 1.00000000 -0.00000000
vn -0.00000000 1.00000000 -0.00000000
vn -0.23340000 0.00570000 0.97240000
vn -0.00000000 1.00000000 -0.00000000
vn -0.00000000 1.00000000 -0.00000000
vn -0.78970000 -0.00000000 -0.61340000
vn 0.72200000 -0.00000000 -0.69190000
vn -0.00000000 1.00000000 -0.00000000
vn -0.00000000 1.00000000 -0.00000000
vn -0.00000000 1.00000000 -0.00000000
vn -0.00000000 1.00000000 -0.00000000
vn -0.00000000 1.00000000 -0.00000000
vn -0.00000000 1.00000000 -0.00000000
vn -0.00000000 1.00000000 -0.00000000
vn -0.62820000 -0.00280000 0.77800000
vn -0.00000000 1.00000000 -0.00000000
vn -0.00000000 1.00000000 -0.00000000
vn -0.99940000 0.00670000 0.03480000
vn -0.00000000 1.00000000 -0.00000000
vn -0.00000000 -1.00000000 -0.00000000
vn -0.00000000 1.00000000 -0.00000000
vn -0.00000000 1.00000000 -0.00000000
vn -0.00000000 -1.00000000 -0.00000000
vn -0.48260000 0.02720000 -0.87540000
vn -0.00000000 1.00000000 -0.00000000
vn -0.00000000 -1.00000000 -0.00000000
vn -0.00000000 1.00000000 -0.00000000
vn 0.89310000 0.01630000 -0.44950000
vn -0.00000000 -1.00000000 -0.00000000
vn -0.00000000 1.00000000 -0.00000000
vn 0.80850000 0.00670000 -0.58850000
vn -0.00000000 -1.00000000 -0.00000000
vn -0.92680000 0.00740000 -0.37560000
vn 0.61710000 -0.00000000 -0.78690000
vn -0.96820000 0.00460000 -0.25020000
vn -0.00000000 1.00000000 -0.00000000
vn -0.00000000 1.00000000 -0.00000000
vn -0.00000000 -1.00000000 -0.00000000
vn -0.00000000 -1.00000000 -0.00000000
vn -0.00000000 -1.00000000 -0.00000000
vn -0.00000000 1.00000000 -0.00000000
vn -0.00000000 -1.00000000 -0.00000000
vn -0.94230000 -0.00460000 -0.33490000
vn -0.88890000 -0.01080000 -0.45790000
vn -0.00000000 -1.00000000 -0.00000000
vn -0.59470000 0.02640000 -0.80350000
vn -0.00000000 -1.00000000 -0.00000000
vn 0.34060000 0.02620000 -0.93980000
vn 0.61710000 -0.00000000 -0.78690000
vn -0.00000000 -1.00000000 -0.00000000
vn 0.80400000 -0.00000000 -0.59460000
vn -0.00000000 -1.00000000 -0.00000000
vn 0.97550000 -0.00260000 -0.21980000
vn -0.00000000 -1.00000000 -0.00000000
vn -0.00000000 -1.00000000 -0.00000000
vn -0.00000000 -1.00000000 -0.00000000
vn -0.00000000 -1.00000000 -0.00000000
vn -0.00000000 -1.00000000 -0.00000000
vn -0.00000000 -1.00000000 -0.00000000
vn -0.00000000 -1.00000000 -0.00000000
vn -0.00000000 -1.00000000 -0.00000000
vn -0.00000000 -1.00000000 -0.00000000
vn -0.00000000 -1.00000000 -0.00000000
vn -0.00000000 -1.00000000 -0.00000000
vn -0.69510000 -0.01220000 0.71880000
vn -0.80960000 -0.00000000 0.58700000
vn 0.81870000 -0.00910000 0.57420000
vn 0.70770000 -0.02360000 0.70610000
vn -0.33180000 0.00860000 0.94330000
vn -0.55410000 -0.01850000 0.83230000
vn -0.99870000 -0.00670000 0.05010000
vn -0.99670000 0.00460000 -0.08110000
vn -0.00000000 1.00000000 -0.00000000
vn -0.42080000 0.01120000 0.90710000
vn 0.99620000 -0.00460000 -0.08670000
vn -0.00000000 -1.00000000 -0.00000000
vn 0.56510000 -0.01180000 0.82490000
vn 0.93130000 -0.00260000 -0.36410000
vn -0.47530000 -0.00000000 -0.87980000
vn -0.33970000 0.01210000 -0.94050000
vn 0.96730000 0.00460000 0.25380000
vn 0.99220000 0.00740000 0.12410000
vn 0.10290000 -0.00970000 -0.99460000
vn -0.00000000 -1.00000000 -0.00000000
vn 0.48770000 -0.00000000 -0.87300000
vn -0.88930000 -0.01360000 0.45710000
vn -0.95050000 -0.01720000 0.31030000
vn -0.27050000 0.01190000 -0.96270000
vn -0.00000000 1.00000000 -0.00000000
vn 0.33070000 -0.00110000 0.94370000
vn 0.11790000 0.00550000 0.99300000
vn -0.97810000 -0.00740000 -0.20780000
vn -0.81100000 -0.01260000 0.58500000
vn -0.97430000 -0.02380000 0.22380000
vn -0.90300000 -0.01790000 0.42940000
vn -0.09700000 -0.00370000 0.99530000
vn 0.99890000 -0.00740000 0.04540000
vn -0.00000000 1.00000000 -0.00000000
vn -0.67820000 0.02480000 -0.73450000
vn -0.08010000 -0.00740000 0.99680000
vn -0.00000000 1.00000000 -0.00000000
vn -0.00000000 1.00000000 -0.00000000
vn 0.40440000 -0.01290000 0.91450000
vn -0.00000000 -1.00000000 -0.00000000
vn 1.00000000 0.00460000 0.00180000
vn -0.70660000 0.01540000 -0.70740000
vn -0.00000000 -1.00000000 -0.00000000
vn -0.00000000 -1.00000000 -0.00000000
vn 0.72200000 -0.00000000 -0.69190000
vn 0.99020000 0.01290000 -0.13920000
vn 0.48770000 0.00810000 0.87300000
vn 0.87120000 0.00450000 -0.49100000
vn 0.92790000 -0.00290000 0.37280000
vn -0.87120000 -0.00460000 -0.49100000
vn -0.00000000 1.00000000 -0.00000000
vn -0.00000000 1.00000000 -0.00000000
vn -0.73070000 -0.01610000 0.68250000
vn 0.47520000 0.01660000 -0.87970000
vn 0.19410000 0.00850000 -0.98100000
vn -0.51660000 -0.01180000 0.85620000
vn -0.00000000 1.00000000 -0.00000000
vn 0.17600000 -0.00730000 0.98440000
vn -0.07010000 0.00860000 -0.99750000
vn -0.00000000 -1.00000000 -0.00000000
vn -0.00000000 1.00000000 -0.00000000
vn -0.99290000 0.01080000 -0.11840000
vn 0.98590000 -0.00460000 0.16720000
vn 0.95240000 -0.01290000 0.30450000
vn 0.62490000 -0.00750000 0.78070000
vn -0.98620000 -0.00460000 0.16530000
vn 0.95610000 0.00810000 -0.29280000
vn -0.12750000 -0.00960000 -0.99180000
vn 0.72630000 -0.01960000 0.68710000
vn 0.79590000 -0.00700000 0.60540000
vn -0.00000000 1.00000000 -0.00000000
vn -0.00000000 1.00000000 -0.00000000
vn -0.00000000 1.00000000 -0.00000000
vn -0.79680000 -0.00160000 -0.60430000
vn -0.00000000 -1.00000000 -0.00000000
vn -0.00000000 -1.00000000 -0.00000000
f 102//102 134//134 115//115
f 102//102 103//103 134//134
f 142//142 83//83 106//106
f 142//142 30//30 83//83
f 123//123 102//102 115//115
f 99//99 142//142 106//106
f 123//123 115//115 89//89
f 99//99 106//106 107//107
f 141//141 89//89 80//80
f 141//141 123//123 89//89
f 98//98 99//99 107//107
f 145//145 141//141 80//80
f 105//105 98//98 107//107
f 105//105 107//107 78//78
f 146//146 80//80 79//79
f 146//146 145//145 80//80
f 105//105 78//78 77//77
f 129//129 105//105 77//77
f 9//9 146//146 79//79
f 9//9 79//79 11//11
f 27//27 129//129 77//77
f 125//125 9//9 11//11
f 27//27 77//77 82//82
f 125//125 11//11 140//140
f 132//132 82//82 81//81
f 93//93 140//140 139//139
f 132//132 27//27 82//82
f 93//93 125//125 140//140
f 94//94 139//139 109//109
f 86//86 132//132 81//81
f 94//94 93//93 139//139
f 117//117 94//94 109//109
f 15//15 86//86 81//81
f 108//108 81//81 112//112
f 108//108 15//15 81//81
f 103//103 112//112 134//134
f 103//103 108//108 112//112
f 48//48 149//149 85//85
f 137//137 48//48 85//85
f 127//127 137//137 85//85
f 17//17 127//127 85//85
f 110//110 17//17 85//85
f 42//42 110//110 85//85
f 101//101 42//42 85//85
f 34//34 101//101 85//85
f 31//31 34//34 85//85
f 53//53 31//31 85//85
f 49//49 53//53 85//85
f 148//148 49//49 85//85
f 147//147 148//148 85//85
f 114//114 147//147 85//85
f 113//113 114//114 85//85
f 39//39 113//113 85//85
f 37//37 39//39 85//85
f 33//33 37//37 85//85
f 14//14 33//33 85//85
f 13//13 14//14 85//85
f 20//20 13//13 85//85
f 133//133 20//20 85//85
f 21//21 133//133 85//85
f 5//5 21//21 85//85
f 22//22 5//5 85//85
f 23//23 22//22 85//85
f 24//24 23//23 85//85
f 25//25 24//24 85//85
f 16//16 25//25 85//85
f 12//12 26//26 85//85
f 128//128 12//12 85//85
f 28//28 128//128 85//85
f 8//8 28//28 85//85
f 4//4 8//8 85//85
f 29//29 4//4 85//85
f 1//1 29//29 85//85
f 149//149 1//1 85//85
f 117//117 109//109 87//87
f 100//100 144//144 92//92
f 100//100 135//135 144//144
f 122//122 117//117 87//87
f 36//36 92//92 91//91
f 122//122 87//87 65//65
f 36//36 100//100 92//92
f 143//143 122//122 65//65
f 36//36 91//91 58//58
f 143//143 65//65 90//90
f 111//111 58//58 118//118
f 111//111 36//36 58//58
f 40//40 143//143 90//90
f 40//40 90//90 124//124
f 111//111 118//118 150//150
f 43//43 40//40 124//124
f 43//43 124//124 63//63
f 18//18 111//111 150//150
f 43//43 63//63 121//121
f 19//19 43//43 121//121
f 19//19 121//121 61//61
f 126//126 18//18 150//150
f 126//126 150//150 56//56
f 46//46 19//19 61//61
f 45//45 126//126 56//56
f 45//45 56//56 55//55
f 130//130 61//61 97//97
f 130//130 46//46 61//61
f 47//47 55//55 104//104
f 47//47 45//45 55//55
f 138//138 47//47 104//104
f 130//130 97//97 60//60
f 138//138 104//104 84//84
f 30//30 84//84 83//83
f 30//30 138//138 84//84
f 131//131 130//130 60//60
f 131//131 60//60 95//95
f 135//135 95//95 144//144
f 135//135 131//131 95//95
f 96//96 2//2 54//54
f 96//96 54//54 51//51
f 96//96 51//51 151//151
f 96//96 151//151 152//152
f 96//96 152//152 44//44
f 96//96 44//44 57//57
f 96//96 57//57 116//116
f 96//96 116//116 38//38
f 96//96 38//38 59//59
f 96//96 59//59 32//32
f 96//96 32//32 52//52
f 96//96 50//50 120//120
f 96//96 120//120 62//62
f 96//96 62//62 136//136
f 96//96 136//136 41//41
f 96//96 41//41 64//64
f 96//96 64//64 88//88
f 96//96 88//88 35//35
f 96//96 35//35 66//66
f 96//96 66//66 67//67
f 96//96 67//67 68//68
f 96//96 68//68 119//119
f 96//96 119//119 7//7
f 96//96 7//7 69//69
f 96//96 69//69 70//70
f 96//96 70//70 3//3
f 96//96 3//3 71//71
f 96//96 71//71 72//72
f 96//96 72//72 73//73
f 96//96 73//73 74//74
f 96//96 74//74 10//10
f 96//96 10//10 75//75
f 96//96 75//75 6//6
f 96//96 6//6 76//76
f 96//96 76//76 2//2

