mtllib material.mtl
usemtl SWMaterial-3
v -0.03062100 -0.03141700 0.50710000
v 0.02753900 -0.03418400 0.50705000
v 0.03067800 -0.03132200 0.50705000
v 0.03352100 -0.02816600 0.50704000
v 0.03040600 -0.03121500 0.50530000
v -0.02737200 -0.03432100 0.50705000
v 0.03575300 -0.02469900 0.50530000
v 0.03604000 -0.02474900 0.50704000
v 0.03323900 -0.02808800 0.50530000
v -0.02727900 -0.03404900 0.50530000
v -0.02395400 -0.03684400 0.50705000
v 0.03821200 -0.02110000 0.50703000
v -0.02388900 -0.03656300 0.50530000
v -0.02030400 -0.03902100 0.50705000
v 0.03792300 -0.02107900 0.50530000
v 0.04001800 -0.01725300 0.50703000
v -0.02027000 -0.03873200 0.50530000
v -0.01256000 -0.04219800 0.50702000
v -0.01248200 -0.04195800 0.50530000
v 0.04143500 -0.01325000 0.50703000
v -0.01646100 -0.04082800 0.50706000
v -0.00844900 -0.04327700 0.50711000
v -0.00838900 -0.04298300 0.50530000
v 0.04241200 -0.00913500 0.50684000
v 0.04217400 -0.00919800 0.50530000
v 0.04304600 -0.00493300 0.50694000
v 0.04326100 -0.00071700 0.50702000
v -0.00421500 -0.04360200 0.50530000
v -0.00424000 -0.04385300 0.50702000
v -0.00000100 -0.04410900 0.50711000
v -0.04217400 -0.00919800 0.50530000
v -0.04299900 -0.00514100 0.50686000
v 0.00421500 -0.04360200 0.50530000
v -0.04240600 -0.00922800 0.50690000
v 0.00435200 -0.04386300 0.50706000
v 0.00855200 -0.04322800 0.50706000
v -0.04114800 -0.01329200 0.50530000
v 0.00838900 -0.04298300 0.50530000
v -0.04143600 -0.01324900 0.50703000
v 0.01666500 -0.04074300 0.50706000
v 0.01267100 -0.04218500 0.50706000
v 0.01645500 -0.04053600 0.50530000
v 0.02027000 -0.03873200 0.50530000
v 0.02050000 -0.03891600 0.50705000
v -0.04000200 -0.01736000 0.50708000
v -0.03323900 -0.02808800 0.50530000
v -0.03814700 -0.02118100 0.50700000
v -0.03352200 -0.02816600 0.50704000
v -0.03604100 -0.02474700 0.50704000
v 0.02413600 -0.03672300 0.50705000
v 0.00421500 -0.04360200 0.08180200
v 0.01645500 -0.04053600 0.08180200
v 0.02027000 -0.03873200 0.08180200
v 0.02727900 -0.03404900 0.08180200
v -0.04217400 -0.00919800 0.08180200
v 0.03040600 -0.03121500 0.08180200
v 0.03323900 -0.02808800 0.08180200
v -0.04114800 -0.01329100 0.08180200
v -0.03792300 -0.02107900 0.08180200
v 0.03792300 -0.02107900 0.08180200
v 0.03972700 -0.01726500 0.08180200
v 0.04114800 -0.01329100 0.08180200
v 0.04217400 -0.00919800 0.08180200
v -0.02727900 -0.03404900 0.08180200
v 0.04279300 -0.00502400 0.08180200
v -0.02027000 -0.03873200 0.08180200
v -0.01645500 -0.04053600 0.08180200
v 0.04479300 0.00347800 0.51070000
v 0.04499500 -0.00078200 0.51035000
v 0.04371200 0.00780200 0.50922000
v 0.04177500 0.01591600 0.51068000
v 0.04317400 0.01185700 0.51024000
v 0.04126800 0.01599600 0.50922000
v 0.03784800 0.02352900 0.51066000
v 0.03945500 0.01990400 0.50922000
v 0.03727200 0.02361900 0.50922000
v 0.03535600 0.02702200 0.51020000
v 0.03189200 0.03032600 0.50923000
v 0.02946600 0.03320100 0.51064000
v 0.02872500 0.03326900 0.50923000
v 0.02609100 0.03585200 0.51059000
v 0.02381000 0.03689300 0.50918000
v 0.01869400 0.04012400 0.51130000
v 0.02249800 0.03816100 0.51059000
v 0.01785300 0.04028000 0.50970000
v 0.01470400 0.04171700 0.51016000
v 0.00639100 0.04373300 0.51059000
v 0.00783700 0.04309000 0.50919000
v 0.00213800 0.04413800 0.51064000
v 0.00011600 0.04375900 0.50918000
v -0.00214100 0.04413900 0.51130000
v -0.00637300 0.04373600 0.51037000
v -0.01060000 0.04292300 0.51058000
v -0.00765300 0.04314800 0.50923000
v -0.01785300 0.04028000 0.50970000
v -0.02248800 0.03816600 0.51059000
v -0.02608700 0.03585500 0.51059000
v -0.02946500 0.03320100 0.51066000
v -0.02381000 0.03689300 0.50918000
v -0.02874000 0.03326000 0.50923000
v -0.03189700 0.03031900 0.50923000
v -0.03474900 0.02709700 0.50923000
v -0.03727700 0.02361300 0.50922000
v -0.03784700 0.02353000 0.51063000
v -0.03998400 0.01982800 0.51022000
v -0.04126900 0.01599500 0.50922000
v -0.04177400 0.01591800 0.51072000
v -0.04318300 0.01183300 0.51024000
v 0.01248200 -0.04195800 0.50530000
v 0.02388900 -0.03656300 0.08180200
v -0.04279300 -0.00502400 0.50530000
v 0.02727900 -0.03404900 0.50530000
v -0.04279300 -0.00502400 0.08180200
v 0.02388900 -0.03656300 0.50530000
v -0.03972700 -0.01726500 0.50530000
v -0.03972700 -0.01726500 0.08180200
v 0.03575300 -0.02469900 0.08180200
v -0.03575300 -0.02469900 0.08180200
v -0.03792300 -0.02107900 0.50530000
v 0.03972700 -0.01726500 0.50530000
v -0.03575300 -0.02469900 0.50530000
v 0.04114800 -0.01329200 0.50530000
v -0.03040600 -0.03121500 0.50530000
v -0.03323900 -0.02808800 0.08180200
v -0.03040600 -0.03121500 0.08180200
v 0.04279300 -0.00502400 0.50530000
v 0.04300000 -0.00080900 0.08180200
v -0.02388900 -0.03656300 0.08180200
v -0.01645500 -0.04053600 0.50530000
v -0.00838900 -0.04298300 0.08180200
v -0.01248200 -0.04195800 0.08180200
v -0.00421500 -0.04360200 0.08180200
v 0.00838900 -0.04298300 0.08180200
v 0.00000000 -0.04380900 0.50530000
v 0.00000000 -0.04380900 0.08180200
v 0.01248200 -0.04195800 0.08180200
v 0.01471800 -0.04333500 0.51930000
v 0.02250000 -0.03978100 0.51930000
v 0.02609100 -0.03747200 0.51066000
v -0.04500100 -0.00081000 0.51930000
v 0.02610300 -0.03746600 0.51930000
v -0.04479300 -0.00509900 0.51075000
v -0.04418700 -0.00932600 0.51930000
v -0.04479700 -0.00508700 0.51930000
v 0.02946900 -0.03481900 0.51930000
v -0.04418300 -0.00933500 0.51069000
v 0.02946300 -0.03482200 0.51060000
v -0.04177700 -0.01753500 0.51930000
v -0.04317800 -0.01348700 0.51930000
v 0.03536700 -0.02863000 0.51065000
v -0.03999600 -0.02143000 0.51065000
v 0.03785700 -0.02513900 0.51930000
v 0.03537300 -0.02862700 0.51930000
v -0.03999800 -0.02143000 0.51930000
v 0.03999900 -0.02142400 0.51067000
v 0.03999800 -0.02143000 0.51930000
v 0.03785400 -0.02514000 0.51066000
v 0.04177700 -0.01753500 0.51930000
v -0.03537300 -0.02862700 0.51930000
v -0.03785700 -0.02513900 0.51930000
v 0.04177700 -0.01753000 0.51071000
v -0.02946900 -0.03481900 0.51930000
v -0.02947000 -0.03481500 0.51064000
v 0.04317800 -0.01348700 0.51930000
v 0.04479700 -0.00508700 0.51930000
v -0.02610300 -0.03746600 0.51930000
v -0.02249800 -0.03978000 0.51059000
v 0.04479500 -0.00507900 0.51075000
v -0.01472100 -0.04333200 0.51063000
v -0.00640500 -0.04535000 0.51059000
v -0.01060900 -0.04454200 0.51930000
v -0.01060900 -0.04454000 0.51059000
v -0.00214100 -0.04575900 0.51930000
v 0.00214100 -0.04575800 0.51130000
v 0.00640400 -0.04535200 0.51930000
v 0.01060900 -0.04454200 0.51930000
v 0.01060900 -0.04454100 0.51130000
v 0.01869400 -0.04174300 0.51930000
v 0.00214100 -0.04575900 0.51930000
v -0.00640400 -0.04535200 0.51930000
v -0.01471800 -0.04333500 0.51930000
v -0.01869400 -0.04174300 0.51930000
v -0.02250000 -0.03978100 0.51930000
v -0.03256800 -0.03186300 0.51930000
v -0.04317800 0.01186900 0.51930000
v -0.03999800 0.01981100 0.51930000
v -0.01869400 0.04012500 0.51930000
v 0.01060900 0.04292300 0.51930000
v 0.01869400 0.04012500 0.51930000
v 0.03537300 0.02700800 0.51930000
v 0.03785700 0.02352000 0.51930000
v 0.04317800 0.01186900 0.51930000
v 0.04177700 0.01591600 0.51930000
v 0.04500100 -0.00081000 0.51930000
v 0.04418700 -0.00932600 0.51930000
v 0.03256800 -0.03186300 0.51930000
v -0.01471800 0.04171600 0.51930000
v -0.01869400 0.04012400 0.51130000
v 0.04479700 0.00346800 0.51930000
v -0.02250000 0.03816200 0.51930000
v 0.04418700 0.00770700 0.51930000
v -0.02610300 0.03584700 0.51930000
v 0.04418500 0.00770900 0.51074000
v -0.02946900 0.03320000 0.51930000
v -0.03255700 0.03025300 0.51061000
v 0.03999800 0.01981100 0.51930000
v -0.03537300 0.02700800 0.51930000
v -0.03256800 0.03024400 0.51930000
v -0.03536700 0.02701300 0.51062000
v 0.03999100 0.01982100 0.51067000
v -0.03785700 0.02352000 0.51930000
v -0.04177700 0.01591600 0.51930000
v 0.03256100 0.03024900 0.51067000
v 0.03256800 0.03024400 0.51930000
v -0.04418700 0.00770700 0.51930000
v 0.02946900 0.03320000 0.51930000
v -0.04479300 0.00347200 0.51067000
v 0.02610300 0.03584700 0.51930000
v -0.04418700 0.00770100 0.51074000
v -0.04479700 0.00346800 0.51930000
v 0.02250000 0.03816200 0.51930000
v 0.01471800 0.04171600 0.51930000
v 0.01059500 0.04292400 0.51059000
v 0.00640400 0.04373300 0.51930000
v -0.00214100 0.04414000 0.51930000
v 0.00214100 0.04414000 0.51930000
v -0.01470400 0.04171700 0.51016000
v -0.01060900 0.04292300 0.51930000
v -0.00640400 0.04373300 0.51930000
v 0.04433800 -0.00514000 0.50922000
v -0.04499700 -0.00081000 0.51036000
v -0.04433800 -0.00513800 0.50922000
v -0.04317300 -0.01349500 0.51065000
v -0.04177500 -0.01753400 0.51066000
v -0.04370800 -0.00942700 0.50921000
v -0.04269500 -0.01355200 0.50922000
v -0.04126900 -0.01761400 0.50922000
v -0.03785200 -0.02514400 0.51064000
v -0.03945700 -0.02151900 0.50922000
v -0.03536200 -0.02863600 0.51062000
v -0.03727600 -0.02523300 0.50922000
v -0.03256800 -0.03186100 0.51067000
v -0.03474900 -0.02871500 0.50923000
v -0.03189200 -0.03194500 0.50923000
v -0.02872500 -0.03488800 0.50923000
v -0.02610100 -0.03746500 0.51059000
v -0.02381000 -0.03851200 0.50918000
v -0.01869500 -0.04174100 0.51065000
v -0.01780500 -0.04167400 0.50923000
v -0.01372500 -0.04321100 0.50922000
v -0.00783700 -0.04470900 0.50919000
v -0.00214100 -0.04575800 0.51130000
v -0.00047500 -0.04561600 0.50972000
v 0.00439900 -0.04514300 0.50915000
v 0.00639600 -0.04535100 0.51059000
v 0.00963100 -0.04456100 0.50970000
v 0.01470300 -0.04333800 0.51059000
v 0.01868300 -0.04174600 0.51063000
v 0.01612700 -0.04238600 0.50919000
v 0.02248300 -0.03978600 0.51016000
v 0.02532000 -0.03749400 0.50923000
v 0.03256600 -0.03186300 0.51061000
v 0.03060000 -0.03323800 0.50918000
v 0.03474000 -0.02872500 0.50922000
v 0.03727200 -0.02523900 0.50922000
v 0.03945500 -0.02152300 0.50922000
v 0.04126900 -0.01761400 0.50922000
v 0.04370700 -0.00944800 0.50922000
v 0.04269600 -0.01355100 0.50922000
v 0.04317200 -0.01349900 0.51067000
v 0.04418500 -0.00932900 0.51066000
v 0.00421500 0.04198400 0.08180200
v -0.00421500 0.04198400 0.08180200
v -0.00838900 0.04136400 0.08180200
v -0.01645500 0.03891700 0.08180200
v -0.02727900 0.03243000 0.08180200
v 0.04114800 0.01167300 0.08180200
v -0.03040600 0.02959600 0.08180200
v -0.03323900 0.02646900 0.08180200
v -0.03792300 0.01946000 0.08180200
v 0.03792300 0.01946000 0.08180200
v 0.03323900 0.02646900 0.08180200
v -0.04217400 0.00757900 0.08180200
v 0.02727900 0.03243000 0.08180200
v -0.04279300 0.00340500 0.08180200
v -0.04300000 -0.00080900 0.08180200
v 0.01645500 0.03891700 0.08180200
v 0.03323900 0.02646900 0.50530000
v 0.02737200 0.03270200 0.50705000
v -0.02754100 0.03256300 0.50705000
v 0.03052600 0.02985500 0.50705000
v -0.03352200 0.02654600 0.50704000
v -0.03068000 0.02970100 0.50705000
v 0.02727900 0.03243000 0.50530000
v 0.02395600 0.03522400 0.50705000
v 0.02388900 0.03494400 0.50530000
v 0.02030600 0.03740100 0.50706000
v -0.03604100 0.02312800 0.50704000
v 0.01645900 0.03920900 0.50706000
v -0.03821300 0.01948000 0.50703000
v 0.00833400 0.04165300 0.50706000
v 0.01245800 0.04063000 0.50706000
v -0.03972700 0.01564600 0.50530000
v -0.04001800 0.01563400 0.50703000
v 0.00838900 0.04136400 0.50530000
v -0.04143600 0.01163000 0.50702000
v -0.04326100 -0.00090400 0.50702000
v 0.00000000 0.04219000 0.50530000
v -0.04217400 0.00757900 0.50530000
v 0.00413000 0.04226500 0.50706000
v -0.00011300 0.04246300 0.50706000
v -0.04304800 0.00321400 0.50690000
v -0.04244600 0.00741600 0.50690000
v -0.04433700 0.00353800 0.50922000
v -0.04370900 0.00782100 0.50922000
v 0.04300300 0.00353600 0.50684000
v -0.00421500 0.04198300 0.50530000
v -0.00435400 0.04224300 0.50706000
v 0.04433900 0.00353100 0.50922000
v -0.00855300 0.04160900 0.50706000
v 0.04236200 0.00783900 0.50690000
v 0.04137700 0.01182500 0.50703000
v -0.01248200 0.04033900 0.50530000
v -0.01267100 0.04056600 0.50706000
v 0.04114800 0.01167300 0.50530000
v 0.03993900 0.01582300 0.50703000
v 0.03811500 0.01966300 0.50704000
v -0.01645500 0.03891700 0.50530000
v -0.02050000 0.03729700 0.50705000
v -0.01666500 0.03912400 0.50706000
v -0.02027000 0.03711300 0.50530000
v -0.02413700 0.03510400 0.50705000
v 0.03338600 0.02671200 0.50704000
v 0.03592300 0.02330500 0.50704000
v -0.02388900 0.03494400 0.50530000
v -0.02027000 0.03711300 0.08180200
v 0.04279300 0.00340500 0.08180200
v 0.04217400 0.00757900 0.08180200
v -0.02388900 0.03494400 0.08180200
v 0.04300000 -0.00080900 0.50530000
v 0.04217400 0.00757900 0.50530000
v 0.04279300 0.00340500 0.50530000
v -0.02727900 0.03243000 0.50530000
v -0.03323900 0.02646900 0.50530000
v -0.03040600 0.02959600 0.50530000
v 0.03972700 0.01564600 0.08180200
v -0.03575300 0.02308000 0.50530000
v -0.03575300 0.02308000 0.08180200
v 0.03792300 0.01946000 0.50530000
v 0.03972700 0.01564600 0.50530000
v -0.03792300 0.01946000 0.50530000
v 0.03575300 0.02308000 0.08180200
v 0.03575300 0.02308000 0.50530000
v -0.04114800 0.01167300 0.50530000
v 0.03040600 0.02959600 0.50530000
v 0.03040600 0.02959600 0.08180200
v -0.03972700 0.01564600 0.08180200
v -0.04114800 0.01167300 0.08180200
v 0.02388900 0.03494400 0.08180200
v -0.04300000 -0.00080900 0.50530000
v -0.04279300 0.00340500 0.50530000
v 0.02027000 0.03711300 0.08180200
v 0.01645500 0.03891700 0.50530000
v 0.02027000 0.03711300 0.50530000
v 0.01248200 0.04033900 0.08180200
v 0.01248200 0.04033900 0.50530000
v 0.00838900 0.04136400 0.08180200
v 0.00421500 0.04198300 0.50530000
v 0.00000000 0.04219100 0.08180200
v -0.00838900 0.04136400 0.50530000
v -0.01248200 0.04033900 0.08180200
v 0.03537300 0.02700800 0.51930000
v 0.03785700 0.02352000 0.51930000
v 0.02946900 0.03320000 0.51930000
v 0.02610300 0.03584700 0.51930000
v -0.04418700 0.00770700 0.51930000
v -0.04479700 0.00346800 0.51930000
v -0.02250000 0.03816200 0.51930000
v -0.02610300 0.03584700 0.51930000
v -0.02946900 -0.03481900 0.51930000
v -0.02610300 -0.03746600 0.51930000
v 0.02610300 -0.03746600 0.51930000
v 0.02946900 -0.03481900 0.51930000
v 0.00640400 -0.04535200 0.51930000
v 0.01060900 -0.04454200 0.51930000
v 0.03256800 -0.03186300 0.51930000
v 0.03537300 -0.02862700 0.51930000
v 0.01869400 0.04012500 0.51930000
v 0.02250000 0.03816200 0.51930000
v -0.01869400 0.04012500 0.51930000
v 0.03999800 0.01981100 0.51930000
v -0.04317800 0.01186900 0.51930000
v -0.04177700 0.01591600 0.51930000
v 0.04500100 -0.00081000 0.51930000
v 0.04479700 0.00346800 0.51930000
v -0.03537300 0.02700800 0.51930000
v -0.03785700 0.02352000 0.51930000
v -0.03537300 -0.02862700 0.51930000
v -0.03785700 -0.02513900 0.51930000
v -0.04418700 -0.00932600 0.51930000
v -0.04479700 -0.00508700 0.51930000
v -0.03999800 0.01981100 0.51930000
v 0.04317800 0.01186900 0.51930000
v 0.04177700 0.01591600 0.51930000
v 0.01471800 0.04171600 0.51930000
v -0.03256800 0.03024400 0.51930000
v 0.00214100 -0.04575900 0.51930000
v -0.03999800 -0.02143000 0.51930000
v 0.02250000 -0.03978100 0.51930000
v 0.01869400 -0.04174300 0.51930000
v 0.01471800 -0.04333500 0.51930000
v 0.01060900 0.04292300 0.51930000
v -0.04500100 -0.00081000 0.51930000
v -0.02250000 -0.03978100 0.51930000
v -0.02946900 0.03320000 0.51930000
v -0.04177700 -0.01753500 0.51930000
v -0.00214100 0.04414000 0.51930000
v -0.00640400 0.04373300 0.51930000
v -0.00214100 -0.04575900 0.51930000
v -0.00640400 -0.04535200 0.51930000
v -0.04317800 -0.01348700 0.51930000
v -0.01869400 -0.04174300 0.51930000
v 0.00640400 0.04373300 0.51930000
v 0.00214100 0.04414000 0.51930000
v 0.04317800 -0.01348700 0.51930000
v 0.04418700 -0.00932600 0.51930000
v -0.03256800 -0.03186300 0.51930000
v 0.03256800 0.03024400 0.51930000
v 0.03785700 -0.02513900 0.51930000
v -0.01471800 -0.04333500 0.51930000
v 0.03999800 -0.02143000 0.51930000
v 0.04177700 -0.01753500 0.51930000
v -0.01060900 -0.04454200 0.51930000
v -0.01471800 0.04171600 0.51930000
v 0.04418700 0.00770700 0.51930000
v -0.01060900 0.04292300 0.51930000
v 0.04479700 -0.00508700 0.51930000
vn -0.66230000 -0.66330000 -0.34830000
vn 0.59750000 -0.72840000 -0.33540000
vn 0.67170000 -0.65750000 -0.34120000
vn 0.72740000 -0.59650000 -0.33930000
vn 0.70470000 -0.70550000 -0.07580000
vn -0.59270000 -0.73040000 -0.33950000
vn 0.82880000 -0.55450000 -0.07560000
vn 0.78310000 -0.52020000 -0.34090000
vn 0.77050000 -0.63300000 -0.07590000
vn -0.63290000 -0.77040000 -0.07610000
vn -0.52390000 -0.77870000 -0.34510000
vn 0.83090000 -0.44080000 -0.33970000
vn -0.55440000 -0.82880000 -0.07640000
vn -0.43960000 -0.83320000 -0.33550000
vn 0.87920000 -0.47050000 -0.07570000
vn 0.87040000 -0.35690000 -0.33900000
vn -0.47040000 -0.87910000 -0.07650000
vn -0.27070000 -0.90210000 -0.33620000
vn -0.28950000 -0.95440000 -0.07280000
vn 0.90120000 -0.27040000 -0.33880000
vn -0.35520000 -0.86920000 -0.34390000
vn -0.18730000 -0.91620000 -0.35430000
vn -0.19450000 -0.97770000 -0.07990000
vn 0.92970000 -0.18330000 -0.31950000
vn 0.97810000 -0.19550000 -0.07130000
vn 0.94040000 -0.08760000 -0.32860000
vn 0.94710000 0.00200000 -0.32100000
vn -0.09780000 -0.99250000 -0.07300000
vn -0.08880000 -0.94150000 -0.32520000
vn -0.00140000 -0.93910000 -0.34370000
vn -0.97820000 -0.19440000 -0.07230000
vn -0.94260000 -0.09350000 -0.32070000
vn 0.09720000 -0.99230000 -0.07650000
vn -0.92700000 -0.18580000 -0.32590000
vn 0.09510000 -0.93330000 -0.34640000
vn 0.18690000 -0.92290000 -0.33660000
vn -0.95410000 -0.28990000 -0.07490000
vn 0.19400000 -0.97800000 -0.07640000
vn -0.90130000 -0.27050000 -0.33850000
vn 0.36710000 -0.86390000 -0.34500000
vn 0.27270000 -0.90260000 -0.33300000
vn 0.38100000 -0.92140000 -0.07620000
vn 0.46960000 -0.87960000 -0.07650000
vn 0.44750000 -0.83250000 -0.32650000
vn -0.86690000 -0.35900000 -0.34590000
vn -0.77050000 -0.63300000 -0.07590000
vn -0.83080000 -0.44400000 -0.33560000
vn -0.72860000 -0.59430000 -0.34060000
vn -0.78310000 -0.51990000 -0.34130000
vn 0.52160000 -0.78310000 -0.33870000
vn 0.09800000 -0.99520000 -0.00000000
vn 0.38270000 -0.92390000 -0.00000000
vn 0.47140000 -0.88190000 -0.00000000
vn 0.63440000 -0.77300000 -0.00000000
vn -0.98080000 -0.19510000 -0.00000000
vn 0.70710000 -0.70710000 -0.00000000
vn 0.77300000 -0.63440000 -0.00000000
vn -0.95690000 -0.29030000 -0.00000000
vn -0.88190000 -0.47140000 -0.00000000
vn 0.88190000 -0.47140000 -0.00000000
vn 0.92390000 -0.38270000 -0.00000000
vn 0.95690000 -0.29030000 -0.00000000
vn 0.98080000 -0.19510000 -0.00000000
vn -0.63440000 -0.77300000 -0.00000000
vn 0.99520000 -0.09800000 -0.00000000
vn -0.47140000 -0.88190000 -0.00000000
vn -0.38270000 -0.92390000 -0.00000000
vn 0.98480000 0.09970000 -0.14190000
vn 0.97360000 0.00010000 -0.22840000
vn 0.90110000 0.17390000 -0.39730000
vn 0.91750000 0.37240000 -0.14000000
vn 0.93200000 0.27380000 -0.23740000
vn 0.84690000 0.34670000 -0.40330000
vn 0.83670000 0.52890000 -0.14220000
vn 0.81090000 0.42610000 -0.40110000
vn 0.76280000 0.49950000 -0.41060000
vn 0.76230000 0.60000000 -0.24280000
vn 0.65390000 0.64060000 -0.40250000
vn 0.65010000 0.74550000 -0.14670000
vn 0.58680000 0.70160000 -0.40440000
vn 0.57670000 0.80050000 -0.16340000
vn 0.48890000 0.77410000 -0.40220000
vn 0.41850000 0.90630000 -0.05830000
vn 0.48590000 0.85970000 -0.15740000
vn 0.38510000 0.86300000 -0.32690000
vn 0.31260000 0.91700000 -0.24770000
vn 0.12600000 0.97840000 -0.16380000
vn 0.16070000 0.90140000 -0.40210000
vn 0.05310000 0.98390000 -0.17040000
vn -0.00740000 0.92640000 -0.37660000
vn -0.04400000 0.99300000 -0.10990000
vn -0.12150000 0.97470000 -0.18760000
vn -0.23490000 0.95800000 -0.16450000
vn -0.16200000 0.89660000 -0.41220000
vn -0.38470000 0.86320000 -0.32700000
vn -0.48580000 0.85980000 -0.15740000
vn -0.57660000 0.80060000 -0.16330000
vn -0.65160000 0.74440000 -0.14590000
vn -0.48910000 0.77410000 -0.40200000
vn -0.58870000 0.70120000 -0.40220000
vn -0.65350000 0.64130000 -0.40210000
vn -0.71260000 0.57510000 -0.40170000
vn -0.76250000 0.50480000 -0.40460000
vn -0.82940000 0.53980000 -0.14380000
vn -0.86310000 0.44380000 -0.24110000
vn -0.84360000 0.34690000 -0.40980000
vn -0.92060000 0.36740000 -0.13210000
vn -0.93220000 0.27380000 -0.23660000
vn 0.28900000 -0.95430000 -0.07630000
vn 0.55560000 -0.83150000 -0.00000000
vn -0.99290000 -0.09680000 -0.06920000
vn 0.63220000 -0.77110000 -0.07600000
vn -0.99520000 -0.09800000 -0.00000000
vn 0.55350000 -0.82930000 -0.07620000
vn -0.92090000 -0.38180000 -0.07900000
vn -0.92390000 -0.38270000 -0.00000000
vn 0.83150000 -0.55560000 -0.00000000
vn -0.83150000 -0.55560000 -0.00000000
vn -0.87960000 -0.47030000 -0.07200000
vn 0.92110000 -0.38210000 -0.07540000
vn -0.82900000 -0.55410000 -0.07530000
vn 0.95420000 -0.28960000 -0.07460000
vn -0.70480000 -0.70490000 -0.07980000
vn -0.77300000 -0.63440000 -0.00000000
vn -0.70710000 -0.70710000 -0.00000000
vn 0.99240000 -0.09860000 -0.07340000
vn 1.00000000 -0.00000000 -0.00000000
vn -0.55560000 -0.83150000 -0.00000000
vn -0.38170000 -0.92120000 -0.07590000
vn -0.19510000 -0.98080000 -0.00000000
vn -0.29030000 -0.95690000 -0.00000000
vn -0.09800000 -0.99520000 -0.00000000
vn 0.19510000 -0.98080000 -0.00000000
vn -0.00040000 -0.99680000 -0.08020000
vn -0.00000000 -1.00000000 -0.00000000
vn 0.29030000 -0.95690000 -0.00000000
vn -0.00000000 -0.00000000 1.00000000
vn -0.00000000 -0.00000000 1.00000000
vn 0.58180000 -0.80060000 -0.14350000
vn -1.00000000 -0.00000000 -0.00040000
vn -0.00000000 -0.00000000 1.00000000
vn -0.98560000 -0.09870000 -0.13700000
vn -0.98190000 -0.18930000 -0.00020000
vn -0.99550000 -0.09500000 -0.00030000
vn -0.00000000 -0.00000000 1.00000000
vn -0.97180000 -0.18540000 -0.14580000
vn 0.63840000 -0.75220000 -0.16340000
vn -0.00000000 -0.00000000 1.00000000
vn -0.00000000 -0.00000000 1.00000000
vn 0.77940000 -0.60950000 -0.14530000
vn -0.87990000 -0.45120000 -0.14900000
vn 0.84130000 -0.54060000 -0.00020000
vn -0.00000000 -0.00000000 1.00000000
vn -0.00000000 -0.00000000 1.00000000
vn 0.88050000 -0.45140000 -0.14500000
vn -0.00000000 -0.00000000 1.00000000
vn 0.83350000 -0.53310000 -0.14530000
vn -0.00000000 -0.00000000 1.00000000
vn -0.00000000 -0.00000000 1.00000000
vn -0.00000000 -0.00000000 1.00000000
vn 0.91980000 -0.36570000 -0.14220000
vn -0.00000000 -0.00000000 1.00000000
vn -0.65030000 -0.74540000 -0.14670000
vn -0.00000000 -0.00000000 1.00000000
vn -0.00000000 -0.00000000 1.00000000
vn -0.00000000 -0.00000000 1.00000000
vn -0.48400000 -0.85990000 -0.16190000
vn 0.98580000 -0.09770000 -0.13680000
vn -0.32650000 -0.93350000 -0.14820000
vn -0.12850000 -0.97890000 -0.15850000
vn -0.00000000 -0.00000000 1.00000000
vn -0.23640000 -0.95760000 -0.16450000
vn -0.00000000 -0.00000000 1.00000000
vn 0.05050000 -0.99540000 -0.08180000
vn -0.00000000 -0.00000000 1.00000000
vn -0.00000000 -0.00000000 1.00000000
vn 0.23840000 -0.96930000 -0.06050000
vn -0.00000000 -0.00000000 1.00000000
vn -0.00000000 -0.00000000 1.00000000
vn -0.00000000 -0.00000000 1.00000000
vn -0.00000000 -0.00000000 1.00000000
vn -0.00000000 -0.00000000 1.00000000
vn -0.50000000 -0.86600000 -0.00020000
vn -0.72370000 -0.69010000 -0.00020000
vn -0.95950000 0.28170000 -0.00040000
vn -0.00000000 -0.00000000 1.00000000
vn -0.41540000 0.90960000 -0.00010000
vn -0.00000000 -0.00000000 1.00000000
vn -0.00000000 -0.00000000 1.00000000
vn 0.78600000 0.61820000 -0.00030000
vn 0.84130000 0.54060000 -0.00020000
vn 0.95950000 0.28170000 -0.00040000
vn -0.00000000 -0.00000000 1.00000000
vn -0.00000000 -0.00000000 1.00000000
vn -0.00000000 -0.00000000 1.00000000
vn -0.00000000 -0.00000000 1.00000000
vn -0.32700000 0.94500000 -0.00030000
vn -0.41850000 0.90630000 -0.05830000
vn 0.99550000 0.09500000 -0.00030000
vn -0.00000000 -0.00000000 1.00000000
vn -0.00000000 -0.00000000 1.00000000
vn -0.58010000 0.81460000 -0.00020000
vn 0.97400000 0.18000000 -0.13760000
vn -0.00000000 -0.00000000 1.00000000
vn -0.71720000 0.67980000 -0.15340000
vn 0.88880000 0.45820000 -0.00020000
vn -0.78610000 0.61810000 -0.00020000
vn -0.00000000 -0.00000000 1.00000000
vn -0.77860000 0.60870000 -0.15260000
vn 0.88020000 0.45190000 -0.14500000
vn -0.84130000 0.54060000 -0.00030000
vn -0.92840000 0.37160000 -0.00020000
vn 0.71420000 0.68630000 -0.13760000
vn -0.00000000 -0.00000000 1.00000000
vn -0.98190000 0.18930000 -0.00030000
vn 0.65490000 0.75570000 -0.00020000
vn -0.98440000 0.09900000 -0.14570000
vn 0.58000000 0.81460000 -0.00020000
vn -0.97410000 0.18000000 -0.13700000
vn -0.99550000 0.09500000 -0.00030000
vn 0.50000000 0.86600000 -0.00020000
vn 0.32700000 0.94500000 -0.00030000
vn 0.23380000 0.95870000 -0.16200000
vn -0.00000000 -0.00000000 1.00000000
vn -0.00000000 -0.00000000 1.00000000
vn -0.00000000 -0.00000000 1.00000000
vn -0.31250000 0.91700000 -0.24800000
vn -0.00000000 -0.00000000 1.00000000
vn -0.00000000 -0.00000000 1.00000000
vn 0.91370000 -0.08860000 -0.39650000
vn -0.97380000 -0.00020000 -0.22760000
vn -0.91490000 -0.08830000 -0.39390000
vn -0.94890000 -0.27820000 -0.14900000
vn -0.91860000 -0.36630000 -0.14810000
vn -0.90070000 -0.17830000 -0.39610000
vn -0.87670000 -0.26300000 -0.40290000
vn -0.84810000 -0.34620000 -0.40110000
vn -0.83300000 -0.53260000 -0.14980000
vn -0.81090000 -0.42680000 -0.40040000
vn -0.77850000 -0.60880000 -0.15240000
vn -0.76510000 -0.50400000 -0.40080000
vn -0.71900000 -0.67970000 -0.14510000
vn -0.71290000 -0.57500000 -0.40150000
vn -0.65580000 -0.64000000 -0.40050000
vn -0.58700000 -0.70130000 -0.40460000
vn -0.57680000 -0.80030000 -0.16360000
vn -0.48900000 -0.77430000 -0.40160000
vn -0.41610000 -0.89720000 -0.14820000
vn -0.36830000 -0.83890000 -0.40080000
vn -0.27770000 -0.87130000 -0.40450000
vn -0.16010000 -0.90130000 -0.40250000
vn -0.05030000 -0.99650000 -0.06740000
vn -0.01190000 -0.95040000 -0.31070000
vn 0.08350000 -0.91550000 -0.39350000
vn 0.13680000 -0.97870000 -0.15290000
vn 0.20910000 -0.92330000 -0.32230000
vn 0.31400000 -0.93640000 -0.15660000
vn 0.41110000 -0.89860000 -0.15360000
vn 0.33320000 -0.85320000 -0.40120000
vn 0.48060000 -0.84130000 -0.24740000
vn 0.52320000 -0.74680000 -0.41060000
vn 0.71830000 -0.67670000 -0.16160000
vn 0.62870000 -0.66600000 -0.40150000
vn 0.71070000 -0.57610000 -0.40380000
vn 0.76540000 -0.50280000 -0.40170000
vn 0.81090000 -0.42630000 -0.40070000
vn 0.84980000 -0.34550000 -0.39810000
vn 0.90060000 -0.18000000 -0.39560000
vn 0.87760000 -0.26270000 -0.40090000
vn 0.94910000 -0.27820000 -0.14750000
vn 0.97110000 -0.18610000 -0.14950000
vn 0.09800000 0.99520000 -0.00000000
vn -0.09800000 0.99520000 -0.00000000
vn -0.19510000 0.98080000 -0.00000000
vn -0.38270000 0.92390000 -0.00000000
vn -0.63440000 0.77300000 -0.00000000
vn 0.95690000 0.29030000 -0.00000000
vn -0.70710000 0.70710000 -0.00000000
vn -0.77300000 0.63440000 -0.00000000
vn -0.88190000 0.47140000 -0.00000000
vn 0.88190000 0.47140000 -0.00000000
vn 0.77300000 0.63440000 -0.00000000
vn -0.98080000 0.19510000 -0.00000000
vn 0.63440000 0.77300000 -0.00000000
vn -0.99520000 0.09800000 -0.00000000
vn -1.00000000 -0.00000000 -0.00000000
vn 0.38270000 0.92390000 -0.00000000
vn 0.77100000 0.63220000 -0.07600000
vn 0.59250000 0.73050000 -0.33970000
vn -0.59690000 0.72670000 -0.34020000
vn 0.66190000 0.66710000 -0.34190000
vn -0.72850000 0.59430000 -0.34060000
vn -0.66620000 0.66280000 -0.34170000
vn 0.63290000 0.77050000 -0.07610000
vn 0.52370000 0.77890000 -0.34510000
vn 0.55430000 0.82880000 -0.07630000
vn 0.43860000 0.83470000 -0.33300000
vn -0.78300000 0.52030000 -0.34090000
vn 0.35580000 0.87260000 -0.33450000
vn -0.83700000 0.43990000 -0.32540000
vn 0.18430000 0.91950000 -0.34730000
vn 0.27150000 0.90540000 -0.32640000
vn -0.92100000 0.38210000 -0.07540000
vn -0.86990000 0.36190000 -0.33510000
vn 0.19500000 0.97780000 -0.07640000
vn -0.90560000 0.27110000 -0.32620000
vn -0.94710000 -0.00310000 -0.32100000
vn 0.00050000 0.99710000 -0.07650000
vn -0.97800000 0.19570000 -0.07210000
vn 0.08760000 0.93940000 -0.33140000
vn -0.00430000 0.93810000 -0.34630000
vn -0.94180000 0.08500000 -0.32520000
vn -0.92780000 0.18000000 -0.32660000
vn -0.91240000 0.08950000 -0.39940000
vn -0.90100000 0.17500000 -0.39710000
vn 0.94260000 0.09500000 -0.32000000
vn -0.09720000 0.99230000 -0.07640000
vn -0.09130000 0.93880000 -0.33220000
vn 0.91420000 0.08990000 -0.39510000
vn -0.19220000 0.91900000 -0.34430000
vn 0.92600000 0.19260000 -0.32490000
vn 0.90420000 0.27630000 -0.32570000
vn -0.28890000 0.95430000 -0.07630000
vn -0.27610000 0.90420000 -0.32590000
vn 0.95440000 0.28910000 -0.07510000
vn 0.86810000 0.36240000 -0.33910000
vn 0.82780000 0.44590000 -0.34050000
vn -0.38100000 0.92140000 -0.07630000
vn -0.44300000 0.83240000 -0.33300000
vn -0.36120000 0.87040000 -0.33460000
vn -0.46960000 0.87960000 -0.07640000
vn -0.53000000 0.77540000 -0.34330000
vn 0.73070000 0.59890000 -0.32780000
vn 0.77890000 0.52940000 -0.33630000
vn -0.55350000 0.82930000 -0.07630000
vn -0.47140000 0.88190000 -0.00000000
vn 0.99520000 0.09800000 -0.00000000
vn 0.98080000 0.19510000 -0.00000000
vn -0.55560000 0.83150000 -0.00000000
vn 0.99720000 0.00010000 -0.07470000
vn 0.97860000 0.19280000 -0.07250000
vn 0.99270000 0.09720000 -0.07120000
vn -0.63210000 0.77110000 -0.07600000
vn -0.77050000 0.63300000 -0.07590000
vn -0.70470000 0.70550000 -0.07580000
vn 0.92390000 0.38270000 -0.00000000
vn -0.82880000 0.55450000 -0.07560000
vn -0.83150000 0.55560000 -0.00000000
vn 0.87960000 0.46970000 -0.07550000
vn 0.92140000 0.38120000 -0.07550000
vn -0.87910000 0.47050000 -0.07570000
vn 0.83150000 0.55560000 -0.00000000
vn 0.82930000 0.55360000 -0.07570000
vn -0.95420000 0.28950000 -0.07500000
vn 0.70540000 0.70470000 -0.07590000
vn 0.70710000 0.70710000 -0.00000000
vn -0.92390000 0.38270000 -0.00000000
vn -0.95690000 0.29030000 -0.00000000
vn 0.55560000 0.83150000 -0.00000000
vn -0.99720000 -0.00040000 -0.07440000
vn -0.99240000 0.09950000 -0.07260000
vn 0.47140000 0.88190000 -0.00000000
vn 0.38200000 0.92100000 -0.07620000
vn 0.47050000 0.87910000 -0.07610000
vn 0.29030000 0.95690000 -0.00000000
vn 0.28990000 0.95400000 -0.07630000
vn 0.19510000 0.98080000 -0.00000000
vn 0.09830000 0.99220000 -0.07650000
vn -0.00000000 1.00000000 -0.00000000
vn -0.19400000 0.97800000 -0.07640000
vn -0.29030000 0.95690000 -0.00000000
vn -0.00000000 -0.00000000 1.00000000
vn -0.00000000 -0.00000000 1.00000000
vn -0.00000000 -0.00000000 1.00000000
vn -0.00000000 -0.00000000 1.00000000
vn -0.00000000 -0.00000000 1.00000000
vn -0.00000000 -0.00000000 1.00000000
vn -0.50000000 0.86600000 -0.00020000
vn -0.00000000 -0.00000000 1.00000000
vn -0.65490000 -0.75580000 -0.00020000
vn -0.58010000 -0.81460000 -0.00020000
vn 0.58010000 -0.81460000 -0.00020000
vn 0.65490000 -0.75570000 -0.00020000
vn 0.14230000 -0.98980000 -0.00010000
vn 0.23580000 -0.97180000 -0.00010000
vn 0.72370000 -0.69010000 -0.00020000
vn 0.78600000 -0.61820000 -0.00020000
vn 0.41540000 0.90960000 -0.00010000
vn -0.00000000 -0.00000000 1.00000000
vn -0.00000000 -0.00000000 1.00000000
vn -0.00000000 -0.00000000 1.00000000
vn -0.00000000 -0.00000000 1.00000000
vn -0.00000000 -0.00000000 1.00000000
vn 1.00000000 0.00010000 -0.00040000
vn -0.00000000 -0.00000000 1.00000000
vn -0.00000000 -0.00000000 1.00000000
vn -0.00000000 -0.00000000 1.00000000
vn -0.78600000 -0.61820000 -0.00020000
vn -0.84130000 -0.54060000 -0.00020000
vn -0.00000000 -0.00000000 1.00000000
vn -0.00000000 -0.00000000 1.00000000
vn -0.88880000 0.45830000 -0.00040000
vn -0.00000000 -0.00000000 1.00000000
vn 0.92840000 0.37170000 -0.00020000
vn -0.00000000 -0.00000000 1.00000000
vn -0.72370000 0.69010000 -0.00020000
vn 0.04760000 -0.99890000 -0.00010000
vn -0.88880000 -0.45820000 -0.00020000
vn 0.49990000 -0.86610000 -0.00030000
vn 0.41550000 -0.90960000 -0.00020000
vn 0.32710000 -0.94500000 -0.00020000
vn 0.23580000 0.97180000 -0.00020000
vn -0.00000000 -0.00000000 1.00000000
vn -0.00000000 -0.00000000 1.00000000
vn -0.65490000 0.75570000 -0.00020000
vn -0.92840000 -0.37170000 -0.00020000
vn -0.04760000 0.99890000 -0.00010000
vn -0.14240000 0.98980000 -0.00020000
vn -0.04760000 -0.99890000 -0.00010000
vn -0.14240000 -0.98980000 -0.00020000
vn -0.95950000 -0.28170000 -0.00030000
vn -0.41540000 -0.90960000 -0.00020000
vn 0.14230000 0.98980000 -0.00020000
vn 0.04760000 0.99890000 -0.00020000
vn 0.95950000 -0.28170000 -0.00020000
vn 0.98190000 -0.18920000 -0.00020000
vn -0.00000000 -0.00000000 1.00000000
vn 0.72380000 0.69000000 -0.00030000
vn -0.00000000 -0.00000000 1.00000000
vn -0.32710000 -0.94500000 -0.00020000
vn 0.88880000 -0.45820000 -0.00020000
vn 0.92840000 -0.37170000 -0.00020000
vn -0.23580000 -0.97180000 -0.00020000
vn -0.00000000 -0.00000000 1.00000000
vn 0.98190000 0.18920000 -0.00020000
vn -0.23580000 0.97180000 -0.00030000
vn 0.99550000 -0.09510000 -0.00020000
f 112//112 5//5 3//3
f 48//48 123//123 1//1
f 2//2 112//112 3//3
f 5//5 9//9 4//4
f 123//123 10//10 6//6
f 3//3 5//5 4//4
f 1//1 123//123 6//6
f 9//9 7//7 8//8
f 4//4 9//9 8//8
f 10//10 13//13 11//11
f 6//6 10//10 11//11
f 7//7 15//15 12//12
f 8//8 7//7 12//12
f 13//13 17//17 14//14
f 11//11 13//13 14//14
f 15//15 120//120 16//16
f 12//12 15//15 16//16
f 14//14 17//17 21//21
f 17//17 129//129 21//21
f 120//120 122//122 20//20
f 16//16 120//120 20//20
f 20//20 122//122 24//24
f 19//19 23//23 18//18
f 129//129 19//19 18//18
f 21//21 129//129 18//18
f 122//122 25//25 24//24
f 268//268 20//20 24//24
f 18//18 23//23 22//22
f 126//126 27//27 26//26
f 24//24 25//25 26//26
f 25//25 126//126 26//26
f 268//268 24//24 26//26
f 230//230 268//268 26//26
f 22//22 23//23 29//29
f 27//27 230//230 26//26
f 28//28 134//134 29//29
f 23//23 28//28 29//29
f 126//126 340//340 27//27
f 29//29 134//134 30//30
f 307//307 360//360 32//32
f 111//111 31//31 32//32
f 360//360 111//111 32//32
f 30//30 134//134 35//35
f 232//232 307//307 32//32
f 134//134 33//33 35//35
f 31//31 37//37 34//34
f 32//32 31//31 34//34
f 35//35 33//33 36//36
f 235//235 232//232 34//34
f 232//232 32//32 34//34
f 33//33 38//38 36//36
f 34//34 37//37 39//39
f 37//37 115//115 39//39
f 36//36 38//38 41//41
f 38//38 109//109 41//41
f 235//235 34//34 39//39
f 41//41 109//109 40//40
f 39//39 115//115 45//45
f 109//109 42//42 40//40
f 119//119 121//121 47//47
f 115//115 119//119 47//47
f 45//45 115//115 47//47
f 42//42 43//43 44//44
f 40//40 42//42 44//44
f 43//43 114//114 50//50
f 47//47 121//121 49//49
f 44//44 43//43 50//50
f 121//121 46//46 49//49
f 46//46 123//123 48//48
f 114//114 112//112 2//2
f 49//49 46//46 48//48
f 50//50 114//114 2//2
f 319//319 69//69 27//27
f 319//319 68//68 69//69
f 70//70 203//203 68//68
f 70//70 68//68 319//319
f 72//72 203//203 70//70
f 72//72 70//70 322//322
f 73//73 322//322 326//326
f 73//73 71//71 72//72
f 73//73 72//72 322//322
f 210//210 71//71 73//73
f 75//75 210//210 73//73
f 75//75 326//326 327//327
f 75//75 73//73 326//326
f 74//74 210//210 75//75
f 76//76 327//327 334//334
f 76//76 74//74 75//75
f 76//76 75//75 327//327
f 77//77 74//74 76//76
f 77//77 334//334 333//333
f 77//77 76//76 334//334
f 78//78 213//213 77//77
f 78//78 77//77 333//333
f 78//78 333//333 291//291
f 79//79 213//213 78//78
f 80//80 78//78 291//291
f 80//80 79//79 78//78
f 80//80 291//291 289//289
f 81//81 79//79 80//80
f 82//82 80//80 289//289
f 82//82 289//289 295//295
f 82//82 81//81 80//80
f 82//82 295//295 297//297
f 82//82 84//84 81//81
f 85//85 83//83 84//84
f 85//85 297//297 299//299
f 85//85 82//82 297//297
f 85//85 84//84 82//82
f 85//85 86//86 83//83
f 86//86 299//299 302//302
f 86//86 85//85 299//299
f 88//88 302//302 301//301
f 88//88 86//86 302//302
f 88//88 223//223 86//86
f 88//88 87//87 223//223
f 88//88 301//301 310//310
f 90//90 88//88 310//310
f 90//90 87//87 88//88
f 90//90 89//89 87//87
f 90//90 310//310 311//311
f 92//92 91//91 89//89
f 92//92 89//89 90//90
f 90//90 311//311 318//318
f 94//94 92//92 90//90
f 94//94 90//90 318//318
f 94//94 318//318 320//320
f 93//93 92//92 94//94
f 94//94 320//320 324//324
f 227//227 93//93 94//94
f 227//227 94//94 324//324
f 227//227 324//324 330//330
f 95//95 198//198 227//227
f 95//95 227//227 330//330
f 95//95 330//330 329//329
f 96//96 198//198 95//95
f 99//99 95//95 329//329
f 99//99 96//96 95//95
f 99//99 329//329 332//332
f 97//97 96//96 99//99
f 99//99 332//332 290//290
f 100//100 98//98 97//97
f 100//100 97//97 99//99
f 100//100 99//99 290//290
f 100//100 290//290 293//293
f 205//205 98//98 100//100
f 101//101 205//205 100//100
f 101//101 100//100 293//293
f 101//101 293//293 292//292
f 209//209 205//205 101//101
f 102//102 101//101 292//292
f 102//102 209//209 101//101
f 102//102 292//292 298//298
f 104//104 209//209 102//102
f 103//103 102//102 298//298
f 103//103 104//104 102//102
f 103//103 298//298 300//300
f 105//105 104//104 103//103
f 105//105 103//103 300//300
f 105//105 300//300 304//304
f 106//106 105//105 304//304
f 106//106 107//107 105//105
f 106//106 304//304 306//306
f 108//108 107//107 106//106
f 108//108 106//106 306//306
f 108//108 306//306 315//315
f 315//315 219//219 108//108
f 217//217 219//219 315//315
f 314//314 217//217 315//315
f 314//314 231//231 217//217
f 314//314 307//307 231//231
f 42//42 52//52 53//53
f 42//42 109//109 52//52
f 43//43 53//53 110//110
f 43//43 42//42 53//53
f 111//111 286//286 113//113
f 111//111 360//360 286//286
f 114//114 110//110 54//54
f 114//114 43//43 110//110
f 31//31 113//113 55//55
f 112//112 54//54 56//56
f 31//31 111//111 113//113
f 112//112 114//114 54//54
f 37//37 55//55 58//58
f 5//5 56//56 57//57
f 5//5 112//112 56//56
f 37//37 31//31 55//55
f 9//9 57//57 117//117
f 115//115 58//58 116//116
f 9//9 5//5 57//57
f 115//115 37//37 58//58
f 7//7 117//117 60//60
f 119//119 116//116 59//59
f 7//7 9//9 117//117
f 119//119 115//115 116//116
f 15//15 60//60 61//61
f 15//15 7//7 60//60
f 121//121 59//59 118//118
f 121//121 119//119 59//59
f 120//120 61//61 62//62
f 120//120 15//15 61//61
f 46//46 118//118 124//124
f 46//46 121//121 118//118
f 122//122 62//62 63//63
f 122//122 120//120 62//62
f 123//123 46//46 124//124
f 123//123 124//124 125//125
f 25//25 63//63 65//65
f 25//25 122//122 63//63
f 10//10 123//123 125//125
f 126//126 65//65 127//127
f 10//10 125//125 64//64
f 126//126 25//25 65//65
f 340//340 126//126 127//127
f 13//13 64//64 128//128
f 13//13 10//10 64//64
f 17//17 128//128 66//66
f 17//17 13//13 128//128
f 129//129 66//66 67//67
f 129//129 17//17 66//66
f 19//19 67//67 131//131
f 19//19 129//129 67//67
f 23//23 131//131 130//130
f 23//23 19//19 131//131
f 28//28 130//130 132//132
f 28//28 23//23 130//130
f 134//134 132//132 135//135
f 134//134 28//28 132//132
f 33//33 135//135 51//51
f 33//33 51//51 133//133
f 33//33 134//134 135//135
f 38//38 133//133 136//136
f 38//38 33//33 133//133
f 109//109 136//136 52//52
f 109//109 38//38 136//136
f 410//410 258//258 260//260
f 410//410 411//411 258//258
f 409//409 260//260 139//139
f 409//409 410//410 260//260
f 144//144 231//231 142//142
f 144//144 140//140 231//231
f 382//382 139//139 147//147
f 382//382 409//409 139//139
f 143//143 142//142 146//146
f 143//143 144//144 142//142
f 383//383 382//382 147//147
f 421//421 233//233 234//234
f 421//421 146//146 233//233
f 421//421 143//143 146//146
f 386//386 147//147 262//262
f 386//386 383//383 147//147
f 416//416 234//234 151//151
f 416//416 421//421 234//234
f 387//387 150//150 157//157
f 387//387 262//262 150//150
f 387//387 386//386 262//262
f 408//408 151//151 238//238
f 408//408 416//416 151//151
f 152//152 387//387 157//157
f 399//399 408//408 238//238
f 431//431 157//157 155//155
f 431//431 152//152 157//157
f 398//398 240//240 242//242
f 432//432 155//155 161//161
f 398//398 238//238 240//240
f 432//432 431//431 155//155
f 398//398 399//399 238//238
f 425//425 270//270 271//271
f 184//184 398//398 242//242
f 425//425 161//161 270//270
f 184//184 242//242 163//163
f 425//425 432//432 161//161
f 380//380 184//184 163//163
f 426//426 425//425 271//271
f 380//380 163//163 246//246
f 381//381 380//380 246//246
f 437//437 271//271 168//168
f 381//381 246//246 167//167
f 437//437 426//426 271//271
f 394//394 168//168 69//69
f 394//394 437//437 168//168
f 183//183 381//381 167//167
f 183//183 167//167 248//248
f 422//422 183//183 248//248
f 422//422 248//248 169//169
f 430//430 169//169 172//172
f 430//430 422//422 169//169
f 433//433 172//172 170//170
f 433//433 430//430 172//172
f 420//420 170//170 252//252
f 420//420 433//433 170//170
f 419//419 252//252 174//174
f 419//419 420//420 252//252
f 407//407 419//419 174//174
f 384//384 255//255 177//177
f 384//384 174//174 255//255
f 384//384 407//407 174//174
f 385//385 177//177 257//257
f 385//385 384//384 177//177
f 411//411 257//257 258//258
f 411//411 385//385 257//257
f 225//225 138//138 141//141
f 225//225 178//178 138//138
f 225//225 137//137 178//178
f 225//225 176//176 137//137
f 225//225 175//175 176//176
f 225//225 179//179 175//175
f 225//225 173//173 179//179
f 225//225 180//180 173//173
f 225//225 171//171 180//180
f 225//225 181//181 171//171
f 225//225 182//182 181//181
f 225//225 414//414 182//182
f 225//225 166//166 414//414
f 225//225 162//162 166//166
f 225//225 427//427 162//162
f 225//225 159//159 427//427
f 225//225 160//160 159//159
f 225//225 154//154 160//160
f 225//225 148//148 154//154
f 225//225 149//149 148//148
f 225//225 400//400 149//149
f 225//225 401//401 400//400
f 225//225 413//413 401//401
f 225//225 377//377 413//413
f 225//225 376//376 377//377
f 225//225 392//392 376//376
f 225//225 393//393 392//392
f 225//225 186//186 393//393
f 225//225 397//397 186//186
f 225//225 396//396 397//397
f 225//225 208//208 396//396
f 225//225 204//204 208//208
f 225//225 379//379 204//204
f 225//225 200//200 379//379
f 225//225 390//390 200//200
f 225//225 434//434 390//390
f 225//225 228//228 434//434
f 225//225 229//229 228//228
f 225//225 224//224 226//226
f 225//225 188//188 224//224
f 225//225 405//405 188//188
f 225//225 189//189 405//405
f 225//225 389//389 189//189
f 225//225 375//375 389//389
f 225//225 374//374 375//375
f 225//225 214//214 374//374
f 225//225 372//372 214//214
f 225//225 373//373 372//372
f 225//225 391//391 373//373
f 225//225 193//193 391//391
f 225//225 403//403 193//193
f 225//225 201//201 403//403
f 225//225 395//395 201//201
f 225//225 194//194 395//395
f 225//225 165//165 194//194
f 225//225 195//195 165//165
f 225//225 164//164 195//195
f 225//225 158//158 164//164
f 225//225 156//156 158//158
f 225//225 429//429 156//156
f 225//225 153//153 429//429
f 225//225 196//196 153//153
f 225//225 145//145 196//196
f 225//225 141//141 145//145
f 197//197 227//227 198//198
f 197//197 436//436 227//227
f 187//187 197//197 198//198
f 199//199 394//394 69//69
f 199//199 68//68 203//203
f 378//378 96//96 97//97
f 199//199 69//69 68//68
f 378//378 198//198 96//96
f 378//378 187//187 198//198
f 435//435 199//199 203//203
f 202//202 97//97 98//98
f 202//202 378//378 97//97
f 192//192 72//72 71//71
f 192//192 203//203 72//72
f 192//192 435//435 203//203
f 415//415 202//202 98//98
f 406//406 205//205 209//209
f 404//404 192//192 71//71
f 406//406 98//98 205//205
f 406//406 415//415 98//98
f 206//206 71//71 210//210
f 206//206 404//404 71//71
f 207//207 406//406 209//209
f 211//211 104//104 105//105
f 211//211 209//209 104//104
f 191//191 210//210 74//74
f 211//211 207//207 209//209
f 191//191 206//206 210//210
f 402//402 105//105 107//107
f 402//402 211//211 105//105
f 190//190 74//74 77//77
f 190//190 191//191 74//74
f 212//212 402//402 107//107
f 428//428 213//213 79//79
f 428//428 77//77 213//213
f 428//428 190//190 77//77
f 185//185 107//107 108//108
f 185//185 212//212 107//107
f 216//216 428//428 79//79
f 215//215 108//108 219//219
f 215//215 185//185 108//108
f 218//218 216//216 79//79
f 218//218 81//81 84//84
f 220//220 217//217 231//231
f 218//218 79//79 81//81
f 220//220 219//219 217//217
f 220//220 215//215 219//219
f 221//221 218//218 84//84
f 140//140 220//220 231//231
f 221//221 84//84 83//83
f 388//388 221//221 83//83
f 222//222 83//83 86//86
f 222//222 388//388 83//83
f 412//412 86//86 223//223
f 412//412 222//222 86//86
f 423//423 223//223 87//87
f 423//423 412//412 223//223
f 424//424 89//89 91//91
f 424//424 87//87 89//89
f 424//424 423//423 87//87
f 417//417 91//91 92//92
f 417//417 424//424 91//91
f 418//418 417//417 92//92
f 436//436 93//93 227//227
f 436//436 92//92 93//93
f 436//436 418//418 92//92
f 230//230 27//27 69//69
f 230//230 69//69 168//168
f 232//232 142//142 231//231
f 232//232 231//231 307//307
f 146//146 142//142 232//232
f 235//235 146//146 232//232
f 233//233 146//146 235//235
f 236//236 233//233 235//235
f 236//236 235//235 39//39
f 237//237 234//234 233//233
f 237//237 39//39 45//45
f 237//237 233//233 236//236
f 237//237 236//236 39//39
f 239//239 151//151 234//234
f 239//239 45//45 47//47
f 239//239 234//234 237//237
f 239//239 237//237 45//45
f 241//241 47//47 49//49
f 241//241 238//238 151//151
f 241//241 239//239 47//47
f 241//241 151//151 239//239
f 243//243 241//241 49//49
f 243//243 238//238 241//241
f 243//243 240//240 238//238
f 243//243 49//49 48//48
f 244//244 242//242 240//240
f 244//244 243//243 48//48
f 244//244 48//48 1//1
f 244//244 240//240 243//243
f 163//163 242//242 244//244
f 245//245 244//244 1//1
f 245//245 163//163 244//244
f 245//245 1//1 6//6
f 246//246 163//163 245//245
f 247//247 245//245 6//6
f 247//247 246//246 245//245
f 247//247 6//6 11//11
f 247//247 11//11 14//14
f 247//247 167//167 246//246
f 249//249 14//14 21//21
f 249//249 247//247 14//14
f 249//249 167//167 247//247
f 249//249 248//248 167//167
f 169//169 248//248 249//249
f 250//250 21//21 18//18
f 250//250 249//249 21//21
f 250//250 169//169 249//249
f 172//172 169//169 250//250
f 251//251 250//250 18//18
f 251//251 172//172 250//250
f 251//251 18//18 22//22
f 251//251 170//170 172//172
f 251//251 22//22 29//29
f 253//253 252//252 170//170
f 253//253 251//251 29//29
f 253//253 170//170 251//251
f 253//253 29//29 30//30
f 253//253 174//174 252//252
f 254//254 253//253 30//30
f 254//254 30//30 35//35
f 255//255 174//174 253//253
f 255//255 253//253 254//254
f 254//254 35//35 36//36
f 256//256 177//177 255//255
f 256//256 254//254 36//36
f 256//256 255//255 254//254
f 256//256 36//36 41//41
f 257//257 177//177 256//256
f 259//259 256//256 41//41
f 259//259 257//257 256//256
f 259//259 41//41 40//40
f 259//259 258//258 257//257
f 259//259 40//40 44//44
f 260//260 259//259 44//44
f 260//260 258//258 259//259
f 260//260 44//44 50//50
f 261//261 260//260 50//50
f 261//261 139//139 260//260
f 261//261 50//50 2//2
f 147//147 139//139 261//261
f 263//263 261//261 2//2
f 263//263 147//147 261//261
f 263//263 2//2 3//3
f 262//262 147//147 263//263
f 263//263 3//3 4//4
f 264//264 262//262 263//263
f 264//264 263//263 4//4
f 264//264 150//150 262//262
f 264//264 4//4 8//8
f 265//265 264//264 8//8
f 265//265 150//150 264//264
f 265//265 157//157 150//150
f 265//265 8//8 12//12
f 266//266 157//157 265//265
f 266//266 265//265 12//12
f 266//266 155//155 157//157
f 266//266 12//12 16//16
f 267//267 155//155 266//266
f 267//267 266//266 16//16
f 267//267 161//161 155//155
f 267//267 16//16 20//20
f 270//270 161//161 267//267
f 269//269 267//267 20//20
f 269//269 270//270 267//267
f 269//269 20//20 268//268
f 271//271 270//270 269//269
f 268//268 271//271 269//269
f 230//230 168//168 271//271
f 230//230 271//271 268//268
f 332//332 335//335 290//290
f 288//288 355//355 291//291
f 333//333 288//288 291//291
f 291//291 355//355 289//289
f 343//343 345//345 293//293
f 355//355 294//294 289//289
f 290//290 343//343 293//293
f 289//289 294//294 295//295
f 345//345 344//344 292//292
f 293//293 345//345 292//292
f 294//294 296//296 295//295
f 296//296 364//364 297//297
f 344//344 347//347 298//298
f 295//295 296//296 297//297
f 292//292 344//344 298//298
f 297//297 364//364 299//299
f 364//364 363//363 299//299
f 347//347 351//351 300//300
f 298//298 347//347 300//300
f 299//299 363//363 302//302
f 363//363 366//366 302//302
f 351//351 303//303 304//304
f 300//300 351//351 304//304
f 302//302 366//366 301//301
f 366//366 305//305 301//301
f 303//303 354//354 306//306
f 304//304 303//303 306//306
f 301//301 305//305 310//310
f 305//305 368//368 310//310
f 306//306 354//354 313//313
f 354//354 309//309 313//313
f 361//361 360//360 307//307
f 315//315 306//306 313//313
f 310//310 368//368 311//311
f 361//361 307//307 312//312
f 368//368 308//308 311//311
f 313//313 309//309 312//312
f 309//309 361//361 312//312
f 340//340 342//342 316//316
f 307//307 314//314 312//312
f 27//27 340//340 316//316
f 315//315 313//313 312//312
f 314//314 315//315 312//312
f 311//311 308//308 318//318
f 308//308 317//317 318//318
f 319//319 27//27 316//316
f 342//342 341//341 321//321
f 316//316 342//342 321//321
f 70//70 319//319 321//321
f 318//318 317//317 320//320
f 319//319 316//316 321//321
f 317//317 370//370 320//320
f 321//321 341//341 322//322
f 341//341 325//325 322//322
f 320//320 370//370 324//324
f 70//70 321//321 322//322
f 370//370 323//323 324//324
f 322//322 325//325 326//326
f 325//325 350//350 326//326
f 324//324 323//323 330//330
f 323//323 328//328 330//330
f 326//326 350//350 327//327
f 350//350 349//349 327//327
f 328//328 331//331 329//329
f 330//330 328//328 329//329
f 327//327 349//349 334//334
f 349//349 353//353 334//334
f 331//331 335//335 332//332
f 334//334 353//353 333//333
f 329//329 331//331 332//332
f 353//353 288//288 333//333
f 335//335 343//343 290//290
f 331//331 328//328 275//275
f 335//335 336//336 339//339
f 340//340 127//127 337//337
f 335//335 331//331 336//336
f 342//342 337//337 338//338
f 343//343 339//339 276//276
f 342//342 340//340 337//337
f 343//343 335//335 339//339
f 341//341 338//338 277//277
f 341//341 342//342 338//338
f 345//345 276//276 278//278
f 345//345 343//343 276//276
f 325//325 277//277 346//346
f 325//325 341//341 277//277
f 344//344 278//278 279//279
f 344//344 345//345 278//278
f 350//350 346//346 281//281
f 350//350 325//325 346//346
f 347//347 279//279 348//348
f 347//347 344//344 279//279
f 349//349 281//281 352//352
f 349//349 350//350 281//281
f 351//351 348//348 280//280
f 351//351 347//347 348//348
f 353//353 352//352 282//282
f 353//353 349//349 352//352
f 303//303 280//280 357//357
f 303//303 351//351 280//280
f 288//288 282//282 356//356
f 288//288 353//353 282//282
f 354//354 357//357 358//358
f 355//355 288//288 356//356
f 354//354 303//303 357//357
f 355//355 356//356 284//284
f 309//309 358//358 283//283
f 309//309 354//354 358//358
f 294//294 355//355 284//284
f 294//294 284//284 359//359
f 361//361 283//283 285//285
f 296//296 294//294 359//359
f 361//361 309//309 283//283
f 296//296 359//359 362//362
f 360//360 285//285 286//286
f 360//360 361//361 285//285
f 364//364 362//362 287//287
f 364//364 296//296 362//362
f 363//363 287//287 365//365
f 363//363 364//364 287//287
f 366//366 365//365 367//367
f 366//366 363//363 365//365
f 305//305 367//367 272//272
f 305//305 366//366 367//367
f 368//368 272//272 369//369
f 368//368 305//305 272//272
f 308//308 368//368 369//369
f 317//317 369//369 273//273
f 317//317 308//308 369//369
f 370//370 273//273 274//274
f 370//370 317//317 273//273
f 323//323 274//274 371//371
f 323//323 370//370 274//274
f 328//328 371//371 275//275
f 328//328 323//323 371//371
f 331//331 275//275 336//336

