mtllib material.mtl
usemtl grey_001
v 0.00041600 0.05246100 0.03910000
v 0.00041600 0.05246100 0.03910000
v 0.00041600 0.05246100 0.03910000
v 0.00041600 0.05246100 0.03910000
v 0.00041600 0.05246100 0.03910000
v 0.00033500 0.05247900 0.04344900
v 0.00033500 0.05247900 0.04344900
v 0.00033500 0.05247900 0.04344900
v 0.00033500 0.05247900 0.04344900
v 0.00033500 0.05247900 0.04344900
v 0.00033500 0.05247900 0.04344900
v -0.00146200 0.05142100 0.03910000
v -0.00146200 0.05142100 0.03910000
v -0.00146200 0.05142100 0.03910000
v -0.00146200 0.05142100 0.03910000
v -0.00151900 0.05127400 0.04345600
v -0.00151900 0.05127400 0.04345600
v -0.00151900 0.05127400 0.04345600
v -0.00151900 0.05127400 0.04345600
v -0.00151900 0.05127400 0.04345600
v -0.00151900 0.05127400 0.04345600
v -0.00151900 0.05127400 0.04345600
v -0.00151900 0.05127400 0.04345600
v -0.00151900 0.05127400 0.04345600
v 0.00109000 0.05210200 0.04347000
v 0.00109000 0.05210200 0.04347000
v 0.00109000 0.05210200 0.04347000
v 0.00109000 0.05210200 0.04347000
v 0.00109000 0.05210200 0.04347000
v 0.00109000 0.05210200 0.04347000
v 0.00109000 0.05210200 0.04347000
v 0.00122500 0.05194700 0.03910000
v 0.00122500 0.05194700 0.03910000
v 0.00122500 0.05194700 0.03910000
v 0.00122500 0.05194700 0.03910000
v 0.00122500 0.05194700 0.03910000
v 0.00122500 0.05194700 0.03910000
v -0.00073600 0.05238400 0.03910000
v -0.00073600 0.05238400 0.03910000
v -0.00073600 0.05238400 0.03910000
v -0.00073600 0.05238400 0.03910000
v -0.00073600 0.05238400 0.03910000
v -0.00069700 0.05240100 0.04345200
v -0.00069700 0.05240100 0.04345200
v -0.00069700 0.05240100 0.04345200
v -0.00069700 0.05240100 0.04345200
v -0.00069700 0.05240100 0.04345200
v 0.00152700 0.05106900 0.04344600
v 0.00152700 0.05106900 0.04344600
v 0.00152700 0.05106900 0.04344600
v 0.00152700 0.05106900 0.04344600
v 0.00152700 0.05106900 0.04344600
v 0.00152700 0.05106900 0.04344600
v 0.00152700 0.05106900 0.04344600
v 0.00151600 0.05084800 0.03910000
v 0.00151600 0.05084800 0.03910000
v 0.00151600 0.05084800 0.03910000
v 0.00151600 0.05084800 0.03910000
v -0.00257300 0.04998500 0.04470100
v -0.00257300 0.04998500 0.04470100
v -0.00257300 0.04998500 0.04470100
v -0.00257300 0.04998500 0.04470100
v -0.00257300 0.04998500 0.04470100
v -0.00257300 0.04998500 0.04470100
v -0.00082900 0.04974000 0.04345400
v -0.00082900 0.04974000 0.04345400
v -0.00082900 0.04974000 0.04345400
v -0.00082900 0.04974000 0.04345400
v -0.00082900 0.04974000 0.04345400
v -0.00082900 0.04974000 0.04345400
v -0.00198600 0.04908500 0.04467200
v -0.00198600 0.04908500 0.04467200
v -0.00198600 0.04908500 0.04467200
v -0.00198600 0.04908500 0.04467200
v 0.00001900 0.04947700 0.04345300
v 0.00001900 0.04947700 0.04345300
v 0.00001900 0.04947700 0.04345300
v 0.00001900 0.04947700 0.04345300
v 0.00001900 0.04947700 0.04345300
v 0.00001900 0.04947700 0.04345300
v -0.00146200 0.04865400 0.04469800
v -0.00146200 0.04865400 0.04469800
v -0.00146200 0.04865400 0.04469800
v -0.00146200 0.04865400 0.04469800
v -0.00146200 0.04865400 0.04469800
v -0.00146200 0.04865400 0.04469800
v -0.00137800 0.05280900 0.04418100
v -0.00137800 0.05280900 0.04418100
v -0.00137800 0.05280900 0.04418100
v -0.00137800 0.05280900 0.04418100
v -0.00074100 0.05370000 0.04470500
v -0.00074100 0.05370000 0.04470500
v -0.00074100 0.05370000 0.04470500
v -0.00074100 0.05370000 0.04470500
v -0.00074100 0.05370000 0.04470500
v -0.00074100 0.05370000 0.04470500
v -0.00074100 0.05370000 0.04470500
v -0.00074100 0.05370000 0.04470500
v -0.00227000 0.05266000 0.04470100
v -0.00227000 0.05266000 0.04470100
v -0.00227000 0.05266000 0.04470100
v -0.00227000 0.05266000 0.04470100
v -0.00227000 0.05266000 0.04470100
v -0.00227000 0.05266000 0.04470100
v -0.00276800 0.05110400 0.04470200
v -0.00276800 0.05110400 0.04470200
v -0.00276800 0.05110400 0.04470200
v -0.00276800 0.05110400 0.04470200
v -0.00129100 0.05019400 0.04342900
v -0.00129100 0.05019400 0.04342900
v -0.00129100 0.05019400 0.04342900
v -0.00129100 0.05019400 0.04342900
v -0.00129100 0.05019400 0.04342900
v -0.00129100 0.05019400 0.04342900
v -0.00063000 0.04831000 0.04470100
v -0.00063000 0.04831000 0.04470100
v -0.00063000 0.04831000 0.04470100
v -0.00063000 0.04831000 0.04470100
v -0.00063000 0.04831000 0.04470100
v -0.00063000 0.04831000 0.04470100
v 0.00013900 0.04823900 0.04470000
v 0.00013900 0.04823900 0.04470000
v 0.00013900 0.04823900 0.04470000
v 0.00013900 0.04823900 0.04470000
v 0.00013900 0.04823900 0.04470000
v -0.00095800 0.05360400 0.04510000
v -0.00095800 0.05360400 0.04510000
v -0.00095800 0.05360400 0.04510000
v -0.00095800 0.05360400 0.04510000
v -0.00095800 0.05360400 0.04510000
v -0.00095800 0.05360400 0.04510000
v 0.00244900 0.05224200 0.04469200
v 0.00244900 0.05224200 0.04469200
v 0.00244900 0.05224200 0.04469200
v 0.00244900 0.05224200 0.04469200
v 0.00244900 0.05224200 0.04469200
v 0.00218400 0.05273900 0.04510000
v 0.00218400 0.05273900 0.04510000
v 0.00218400 0.05273900 0.04510000
v 0.00218400 0.05273900 0.04510000
v 0.00218400 0.05273900 0.04510000
v 0.00218400 0.05273900 0.04510000
v 0.00218400 0.05273900 0.04510000
v 0.00273300 0.05145400 0.04471000
v 0.00273300 0.05145400 0.04471000
v 0.00273300 0.05145400 0.04471000
v 0.00273300 0.05145400 0.04471000
v 0.00273300 0.05145400 0.04471000
v 0.00279500 0.05117700 0.04509900
v 0.00279500 0.05117700 0.04509900
v 0.00279500 0.05117700 0.04509900
v 0.00279500 0.05117700 0.04509900
v 0.00279500 0.05117700 0.04509900
v 0.00279500 0.05117700 0.04509900
v 0.00279500 0.05117700 0.04509900
v 0.00055500 0.05375400 0.04510000
v 0.00055500 0.05375400 0.04510000
v 0.00055500 0.05375400 0.04510000
v 0.00055500 0.05375400 0.04510000
v 0.00055500 0.05375400 0.04510000
v 0.00055500 0.05375400 0.04510000
v 0.00078800 0.05365600 0.04470000
v 0.00078800 0.05365600 0.04470000
v 0.00078800 0.05365600 0.04470000
v 0.00078800 0.05365600 0.04470000
v 0.00078800 0.05365600 0.04470000
v -0.00213600 0.05281000 0.04510000
v -0.00213600 0.05281000 0.04510000
v -0.00213600 0.05281000 0.04510000
v -0.00213600 0.05281000 0.04510000
v -0.00213600 0.05281000 0.04510000
v 0.00193200 0.05299000 0.04470400
v 0.00193200 0.05299000 0.04470400
v 0.00193200 0.05299000 0.04470400
v 0.00193200 0.05299000 0.04470400
v 0.00193200 0.05299000 0.04470400
v 0.00026500 0.04949800 0.03910000
v 0.00026500 0.04949800 0.03910000
v 0.00026500 0.04949800 0.03910000
v 0.00026500 0.04949800 0.03910000
v 0.00026500 0.04949800 0.03910000
v 0.00026500 0.04949800 0.03910000
v -0.00057300 0.04959600 0.03910000
v -0.00057300 0.04959600 0.03910000
v -0.00057300 0.04959600 0.03910000
v -0.00057300 0.04959600 0.03910000
v -0.00139700 0.05034200 0.03910000
v -0.00139700 0.05034200 0.03910000
v -0.00139700 0.05034200 0.03910000
v -0.00139700 0.05034200 0.03910000
v -0.00139700 0.05034200 0.03910000
v -0.00139700 0.05034200 0.03910000
v -0.00139700 0.05034200 0.03910000
v 0.00109300 0.04993900 0.03910000
v 0.00109300 0.04993900 0.03910000
v 0.00109300 0.04993900 0.03910000
v 0.00109300 0.04993900 0.03910000
v 0.00056100 0.04958900 0.04344700
v 0.00056100 0.04958900 0.04344700
v 0.00056100 0.04958900 0.04344700
v 0.00056100 0.04958900 0.04344700
v 0.00056100 0.04958900 0.04344700
v 0.00056100 0.04958900 0.04344700
v 0.00124900 0.04852300 0.04470100
v 0.00124900 0.04852300 0.04470100
v 0.00124900 0.04852300 0.04470100
v 0.00124900 0.04852300 0.04470100
v 0.00124900 0.04852300 0.04470100
v 0.00124900 0.04852300 0.04470100
v 0.00121300 0.05007500 0.04345700
v 0.00121300 0.05007500 0.04345700
v 0.00121300 0.05007500 0.04345700
v 0.00121300 0.05007500 0.04345700
v 0.00121300 0.05007500 0.04345700
v 0.00121300 0.05007500 0.04345700
v 0.00121300 0.05007500 0.04345700
v 0.00271600 0.05049200 0.04469000
v 0.00271600 0.05049200 0.04469000
v 0.00271600 0.05049200 0.04469000
v 0.00271600 0.05049200 0.04469000
v 0.00271600 0.05049200 0.04469000
v 0.00271600 0.05049200 0.04469000
v 0.00234600 0.04951100 0.04468900
v 0.00234600 0.04951100 0.04468900
v 0.00234600 0.04951100 0.04468900
v 0.00234600 0.04951100 0.04468900
v 0.00060000 0.04826100 0.04510000
v 0.00060000 0.04826100 0.04510000
v 0.00060000 0.04826100 0.04510000
v 0.00060000 0.04826100 0.04510000
v 0.00060000 0.04826100 0.04510000
v 0.00060000 0.04826100 0.04510000
v 0.00060000 0.04826100 0.04510000
v 0.00060000 0.04826100 0.04510000
v -0.00282300 0.05086700 0.04510000
v -0.00282300 0.05086700 0.04510000
v -0.00282300 0.05086700 0.04510000
v -0.00282300 0.05086700 0.04510000
v -0.00282300 0.05086700 0.04510000
v -0.00282300 0.05086700 0.04510000
v -0.00282300 0.05086700 0.04510000
v 0.00227000 0.04934500 0.04510200
v 0.00227000 0.04934500 0.04510200
v 0.00227000 0.04934500 0.04510200
v 0.00227000 0.04934500 0.04510200
v 0.00227000 0.04934500 0.04510200
v 0.00227000 0.04934500 0.04510200
v -0.00083800 0.04835900 0.04510000
v -0.00083800 0.04835900 0.04510000
v -0.00083800 0.04835900 0.04510000
v -0.00083800 0.04835900 0.04510000
v -0.00083800 0.04835900 0.04510000
v -0.00200900 0.04907800 0.04510000
v -0.00200900 0.04907800 0.04510000
v -0.00200900 0.04907800 0.04510000
v -0.00200900 0.04907800 0.04510000
v -0.00200900 0.04907800 0.04510000
v -0.00200900 0.04907800 0.04510000
v -0.00200900 0.04907800 0.04510000
v 0.00119000 0.05008700 0.04510000
v 0.00119000 0.05008700 0.04510000
v 0.00119000 0.05008700 0.04510000
v 0.00119000 0.05008700 0.04510000
v 0.00119000 0.05008700 0.04510000
v 0.00119000 0.05008700 0.04510000
v 0.00041300 0.05000300 0.04510000
v 0.00041300 0.05000300 0.04510000
v 0.00041300 0.05000300 0.04510000
v 0.00041300 0.05000300 0.04510000
v 0.00041300 0.05000300 0.04510000
v -0.00019500 0.04951300 0.04510000
v -0.00019500 0.04951300 0.04510000
v -0.00019500 0.04951300 0.04510000
v -0.00019500 0.04951300 0.04510000
v -0.00019500 0.04951300 0.04510000
v -0.00019500 0.04951300 0.04510000
v -0.00019500 0.04951300 0.04510000
v 0.00107000 0.05086000 0.04510000
v 0.00107000 0.05086000 0.04510000
v 0.00107000 0.05086000 0.04510000
v 0.00107000 0.05086000 0.04510000
v 0.00138500 0.05157500 0.04510000
v 0.00138500 0.05157500 0.04510000
v 0.00138500 0.05157500 0.04510000
v 0.00138500 0.05157500 0.04510000
v 0.00138500 0.05157500 0.04510000
v 0.00138500 0.05157500 0.04510000
v -0.00121500 0.05044400 0.04510000
v -0.00121500 0.05044400 0.04510000
v -0.00121500 0.05044400 0.04510000
v -0.00121500 0.05044400 0.04510000
v -0.00121500 0.05044400 0.04510000
v -0.00121500 0.05044400 0.04510000
v 0.00022100 0.05231800 0.04510000
v 0.00022100 0.05231800 0.04510000
v 0.00022100 0.05231800 0.04510000
v 0.00022100 0.05231800 0.04510000
v 0.00022100 0.05231800 0.04510000
v 0.00022100 0.05231800 0.04510000
v 0.00022100 0.05231800 0.04510000
v -0.00107000 0.05114000 0.04510000
v -0.00107000 0.05114000 0.04510000
v -0.00107000 0.05114000 0.04510000
v -0.00107000 0.05114000 0.04510000
v -0.00119000 0.05191200 0.04510000
v -0.00119000 0.05191200 0.04510000
v -0.00119000 0.05191200 0.04510000
v -0.00119000 0.05191200 0.04510000
v -0.00119000 0.05191200 0.04510000
v -0.00119000 0.05191200 0.04510000
v -0.00119000 0.05191200 0.04510000
v -0.00041300 0.05199600 0.04510000
v -0.00041300 0.05199600 0.04510000
v -0.00041300 0.05199600 0.04510000
v -0.00041300 0.05199600 0.04510000
v -0.00041300 0.05199600 0.04510000
v 0.00119000 0.05008700 0.04427000
v 0.00119000 0.05008700 0.04427000
v 0.00119000 0.05008700 0.04427000
v 0.00119000 0.05008700 0.04427000
v -0.00012600 0.04966900 0.04427000
v -0.00012600 0.04966900 0.04427000
v -0.00012600 0.04966900 0.04427000
v -0.00012600 0.04966900 0.04427000
v -0.00012600 0.04966900 0.04427000
v -0.00065600 0.05014300 0.04427000
v -0.00065600 0.05014300 0.04427000
v -0.00065600 0.05014300 0.04427000
v -0.00065600 0.05014300 0.04427000
v -0.00065600 0.05014300 0.04427000
v -0.00138500 0.05042500 0.04427000
v -0.00138500 0.05042500 0.04427000
v -0.00138500 0.05042500 0.04427000
v -0.00138500 0.05042500 0.04427000
v -0.00108900 0.05177500 0.04427000
v -0.00108900 0.05177500 0.04427000
v -0.00108900 0.05177500 0.04427000
v -0.00108900 0.05177500 0.04427000
v -0.00108900 0.05177500 0.04427000
v -0.00041300 0.05199600 0.04427000
v -0.00041300 0.05199600 0.04427000
v -0.00041300 0.05199600 0.04427000
v -0.00041300 0.05199600 0.04427000
v 0.00019500 0.05248700 0.04427000
v 0.00019500 0.05248700 0.04427000
v 0.00019500 0.05248700 0.04427000
v 0.00019500 0.05248700 0.04427000
v 0.00065600 0.05185600 0.04427000
v 0.00065600 0.05185600 0.04427000
v 0.00065600 0.05185600 0.04427000
v 0.00065600 0.05185600 0.04427000
v 0.00138500 0.05157500 0.04427000
v 0.00138500 0.05157500 0.04427000
v 0.00138500 0.05157500 0.04427000
v 0.00107000 0.05086000 0.04427000
v 0.00107000 0.05086000 0.04427000
v 0.00107000 0.05086000 0.04427000
v -0.03178800 0.01950700 0.04360000
v -0.03178800 0.01950700 0.04360000
v -0.03178800 0.01950700 0.04360000
v -0.03178800 0.01950700 0.04360000
v -0.03178800 0.01950700 0.04360000
v -0.03178800 0.01950700 0.04360000
v -0.03434200 0.01942200 0.04360000
v -0.03434200 0.01942200 0.04360000
v -0.03434200 0.01942200 0.04360000
v -0.03434200 0.01942200 0.04360000
v -0.03434200 0.01942200 0.04360000
v -0.03443900 0.01919200 0.05195800
v -0.03443900 0.01919200 0.05195800
v -0.03443900 0.01919200 0.05195800
v -0.03443900 0.01919200 0.05195800
v -0.03443900 0.01919200 0.05195800
v -0.03152800 0.01847700 0.05195000
v -0.03152800 0.01847700 0.05195000
v -0.03152800 0.01847700 0.05195000
v -0.03152800 0.01847700 0.05195000
v -0.03152800 0.01847700 0.05195000
v -0.03152800 0.01847700 0.05195000
v -0.03154100 0.01836700 0.04360000
v -0.03154100 0.01836700 0.04360000
v -0.03154100 0.01836700 0.04360000
v -0.03154100 0.01836700 0.04360000
v -0.03316400 0.02014600 0.04360000
v -0.03316400 0.02014600 0.04360000
v -0.03316400 0.02014600 0.04360000
v -0.03316400 0.02014600 0.04360000
v -0.03377400 0.01995300 0.05195700
v -0.03377400 0.01995300 0.05195700
v -0.03377400 0.01995300 0.05195700
v -0.03377400 0.01995300 0.05195700
v -0.03377400 0.01995300 0.05195700
v -0.03377400 0.01995300 0.05195700
v -0.03377400 0.01995300 0.05195700
v -0.03248100 0.02004600 0.05197500
v -0.03248100 0.02004600 0.05197500
v -0.03248100 0.02004600 0.05197500
v -0.03248100 0.02004600 0.05197500
v -0.03248100 0.02004600 0.05197500
v -0.03248100 0.02004600 0.05197500
v -0.03248100 0.02004600 0.05197500
v -0.03323100 0.02137200 0.05320800
v -0.03323100 0.02137200 0.05320800
v -0.03323100 0.02137200 0.05320800
v -0.03323100 0.02137200 0.05320800
v -0.03323100 0.02137200 0.05320800
v -0.03323100 0.02137200 0.05320800
v -0.03453500 0.02091600 0.05319800
v -0.03453500 0.02091600 0.05319800
v -0.03453500 0.02091600 0.05319800
v -0.03453500 0.02091600 0.05319800
v -0.03453500 0.02091600 0.05319800
v -0.03539500 0.02011700 0.05322100
v -0.03539500 0.02011700 0.05322100
v -0.03539500 0.02011700 0.05322100
v -0.03539500 0.02011700 0.05322100
v -0.03539500 0.02011700 0.05322100
v -0.03539500 0.02011700 0.05322100
v -0.03456400 0.01821400 0.05197700
v -0.03456400 0.01821400 0.05197700
v -0.03456400 0.01821400 0.05197700
v -0.03456400 0.01821400 0.05197700
v -0.03456400 0.01821400 0.05197700
v -0.03456400 0.01821400 0.05197700
v -0.03456400 0.01821400 0.05197700
v -0.03456400 0.01821400 0.05197700
v -0.03580500 0.01870700 0.05319600
v -0.03580500 0.01870700 0.05319600
v -0.03580500 0.01870700 0.05319600
v -0.03580500 0.01870700 0.05319600
v -0.03580500 0.01870700 0.05319600
v -0.03580500 0.01870700 0.05319600
v -0.03558800 0.01746600 0.05319900
v -0.03558800 0.01746600 0.05319900
v -0.03558800 0.01746600 0.05319900
v -0.03558800 0.01746600 0.05319900
v -0.03558800 0.01746600 0.05319900
v -0.03470200 0.01635000 0.05319400
v -0.03470200 0.01635000 0.05319400
v -0.03470200 0.01635000 0.05319400
v -0.03470200 0.01635000 0.05319400
v -0.03470200 0.01635000 0.05319400
v -0.03470200 0.01635000 0.05319400
v -0.03372100 0.01721200 0.05196800
v -0.03372100 0.01721200 0.05196800
v -0.03372100 0.01721200 0.05196800
v -0.03372100 0.01721200 0.05196800
v -0.03372100 0.01721200 0.05196800
v -0.03372100 0.01721200 0.05196800
v -0.03283700 0.01708900 0.05196100
v -0.03283700 0.01708900 0.05196100
v -0.03283700 0.01708900 0.05196100
v -0.03283700 0.01708900 0.05196100
v -0.03283700 0.01708900 0.05196100
v -0.03316200 0.01581600 0.05319600
v -0.03316200 0.01581600 0.05319600
v -0.03316200 0.01581600 0.05319600
v -0.03316200 0.01581600 0.05319600
v -0.03316200 0.01581600 0.05319600
v -0.03316200 0.01581600 0.05319600
v -0.03316200 0.01581600 0.05319600
v -0.03029800 0.01907500 0.05320500
v -0.03029800 0.01907500 0.05320500
v -0.03029800 0.01907500 0.05320500
v -0.03029800 0.01907500 0.05320500
v -0.03029800 0.01907500 0.05320500
v -0.03029800 0.01907500 0.05320500
v -0.03035500 0.01948400 0.05360100
v -0.03035500 0.01948400 0.05360100
v -0.03035500 0.01948400 0.05360100
v -0.03035500 0.01948400 0.05360100
v -0.03035500 0.01948400 0.05360100
v -0.03035500 0.01948400 0.05360100
v -0.03276200 0.02136000 0.05360000
v -0.03276200 0.02136000 0.05360000
v -0.03276200 0.02136000 0.05360000
v -0.03276200 0.02136000 0.05360000
v -0.03579600 0.01898700 0.05360000
v -0.03579600 0.01898700 0.05360000
v -0.03579600 0.01898700 0.05360000
v -0.03579600 0.01898700 0.05360000
v -0.03579600 0.01898700 0.05360000
v -0.03178100 0.02106900 0.05320900
v -0.03178100 0.02106900 0.05320900
v -0.03178100 0.02106900 0.05320900
v -0.03178100 0.02106900 0.05320900
v -0.03178100 0.02106900 0.05320900
v -0.03515000 0.02043300 0.05360000
v -0.03515000 0.02043300 0.05360000
v -0.03515000 0.02043300 0.05360000
v -0.03515000 0.02043300 0.05360000
v -0.03515000 0.02043300 0.05360000
v -0.03146700 0.02087200 0.05360000
v -0.03146700 0.02087200 0.05360000
v -0.03146700 0.02087200 0.05360000
v -0.03146700 0.02087200 0.05360000
v -0.03146700 0.02087200 0.05360000
v -0.03146700 0.02087200 0.05360000
v -0.03088100 0.02030000 0.05319500
v -0.03088100 0.02030000 0.05319500
v -0.03088100 0.02030000 0.05319500
v -0.03088100 0.02030000 0.05319500
v -0.03088100 0.02030000 0.05319500
v -0.03088100 0.02030000 0.05319500
v -0.03406100 0.02117100 0.05360000
v -0.03406100 0.02117100 0.05360000
v -0.03406100 0.02117100 0.05360000
v -0.03406100 0.02117100 0.05360000
v -0.03406100 0.02117100 0.05360000
v -0.03390000 0.01730000 0.04360000
v -0.03390000 0.01730000 0.04360000
v -0.03390000 0.01730000 0.04360000
v -0.03390000 0.01730000 0.04360000
v -0.03455400 0.01830600 0.04360000
v -0.03455400 0.01830600 0.04360000
v -0.03455400 0.01830600 0.04360000
v -0.03455400 0.01830600 0.04360000
v -0.03201400 0.01746000 0.04360000
v -0.03201400 0.01746000 0.04360000
v -0.03201400 0.01746000 0.04360000
v -0.03201400 0.01746000 0.04360000
v -0.03201400 0.01746000 0.04360000
v -0.03201400 0.01746000 0.04360000
v -0.03288500 0.01708700 0.04360000
v -0.03288500 0.01708700 0.04360000
v -0.03288500 0.01708700 0.04360000
v -0.03288500 0.01708700 0.04360000
v -0.03288500 0.01708700 0.04360000
v -0.03223900 0.01731200 0.05194500
v -0.03223900 0.01731200 0.05194500
v -0.03223900 0.01731200 0.05194500
v -0.03223900 0.01731200 0.05194500
v -0.03223900 0.01731200 0.05194500
v -0.03161000 0.01620300 0.05321800
v -0.03161000 0.01620300 0.05321800
v -0.03161000 0.01620300 0.05321800
v -0.03161000 0.01620300 0.05321800
v -0.03161000 0.01620300 0.05321800
v -0.03180000 0.01772100 0.05194300
v -0.03180000 0.01772100 0.05194300
v -0.03180000 0.01772100 0.05194300
v -0.03180000 0.01772100 0.05194300
v -0.03180000 0.01772100 0.05194300
v -0.03180000 0.01772100 0.05194300
v -0.03180000 0.01772100 0.05194300
v -0.03103900 0.01803000 0.05250600
v -0.03103900 0.01803000 0.05250600
v -0.03103900 0.01803000 0.05250600
v -0.03103900 0.01803000 0.05250600
v -0.03166700 0.01922600 0.05194800
v -0.03166700 0.01922600 0.05194800
v -0.03166700 0.01922600 0.05194800
v -0.03166700 0.01922600 0.05194800
v -0.03166700 0.01922600 0.05194800
v -0.03045800 0.01751600 0.05321300
v -0.03045800 0.01751600 0.05321300
v -0.03045800 0.01751600 0.05321300
v -0.03045800 0.01751600 0.05321300
v -0.03045800 0.01751600 0.05321300
v -0.03045800 0.01751600 0.05321300
v -0.03045800 0.01751600 0.05321300
v -0.03567300 0.01769300 0.05360100
v -0.03567300 0.01769300 0.05360100
v -0.03567300 0.01769300 0.05360100
v -0.03567300 0.01769300 0.05360100
v -0.03567300 0.01769300 0.05360100
v -0.03050700 0.01745100 0.05360100
v -0.03050700 0.01745100 0.05360100
v -0.03050700 0.01745100 0.05360100
v -0.03050700 0.01745100 0.05360100
v -0.03354200 0.01587100 0.05360000
v -0.03354200 0.01587100 0.05360000
v -0.03354200 0.01587100 0.05360000
v -0.03354200 0.01587100 0.05360000
v -0.03354200 0.01587100 0.05360000
v -0.03483200 0.01645300 0.05360000
v -0.03483200 0.01645300 0.05360000
v -0.03483200 0.01645300 0.05360000
v -0.03483200 0.01645300 0.05360000
v -0.03483200 0.01645300 0.05360000
v -0.03483200 0.01645300 0.05360000
v -0.03483200 0.01645300 0.05360000
v -0.03178300 0.01607200 0.05360100
v -0.03178300 0.01607200 0.05360100
v -0.03178300 0.01607200 0.05360100
v -0.03178300 0.01607200 0.05360100
v -0.03178300 0.01607200 0.05360100
v -0.03178300 0.01607200 0.05360100
v -0.03178300 0.01607200 0.05360100
v -0.03434500 0.01784400 0.05360000
v -0.03434500 0.01784400 0.05360000
v -0.03434500 0.01784400 0.05360000
v -0.03434500 0.01784400 0.05360000
v -0.03434500 0.01784400 0.05360000
v -0.03434500 0.01784400 0.05360000
v -0.03434500 0.01784400 0.05360000
v -0.03305000 0.01997100 0.05360000
v -0.03305000 0.01997100 0.05360000
v -0.03305000 0.01997100 0.05360000
v -0.03305000 0.01997100 0.05360000
v -0.03305000 0.01997100 0.05360000
v -0.03299800 0.01725800 0.05360000
v -0.03299800 0.01725800 0.05360000
v -0.03299800 0.01725800 0.05360000
v -0.03299800 0.01725800 0.05360000
v -0.03299800 0.01725800 0.05360000
v -0.03299800 0.01725800 0.05360000
v -0.03299800 0.01725800 0.05360000
v -0.03412500 0.01859300 0.05360000
v -0.03412500 0.01859300 0.05360000
v -0.03412500 0.01859300 0.05360000
v -0.03412500 0.01859300 0.05360000
v -0.03174700 0.01784400 0.05360000
v -0.03174700 0.01784400 0.05360000
v -0.03174700 0.01784400 0.05360000
v -0.03174700 0.01784400 0.05360000
v -0.03174700 0.01784400 0.05360000
v -0.03174700 0.01784400 0.05360000
v -0.03174700 0.01784400 0.05360000
v -0.03196700 0.01859300 0.05360000
v -0.03196700 0.01859300 0.05360000
v -0.03196700 0.01859300 0.05360000
v -0.03196700 0.01859300 0.05360000
v -0.03417900 0.01930300 0.05360000
v -0.03417900 0.01930300 0.05360000
v -0.03417900 0.01930300 0.05360000
v -0.03417900 0.01930300 0.05360000
v -0.03417900 0.01930300 0.05360000
v -0.03417900 0.01930300 0.05360000
v -0.03174700 0.01934400 0.05360000
v -0.03174700 0.01934400 0.05360000
v -0.03174700 0.01934400 0.05360000
v -0.03174700 0.01934400 0.05360000
v -0.03174700 0.01934400 0.05360000
v -0.03358500 0.01765900 0.05360000
v -0.03358500 0.01765900 0.05360000
v -0.03358500 0.01765900 0.05360000
v -0.03358500 0.01765900 0.05360000
v -0.03358500 0.01765900 0.05360000
v -0.03304600 0.01709300 0.05277000
v -0.03304600 0.01709300 0.05277000
v -0.03304600 0.01709300 0.05277000
v -0.03304600 0.01709300 0.05277000
v -0.03417900 0.01788500 0.05277000
v -0.03417900 0.01788500 0.05277000
v -0.03417900 0.01788500 0.05277000
v -0.03417900 0.01788500 0.05277000
v -0.03417900 0.01788500 0.05277000
v -0.03412500 0.01859300 0.05277000
v -0.03412500 0.01859300 0.05277000
v -0.03412500 0.01859300 0.05277000
v -0.03412500 0.01859300 0.05277000
v -0.03412500 0.01859300 0.05277000
v -0.03434500 0.01934400 0.05277000
v -0.03434500 0.01934400 0.05277000
v -0.03434500 0.01934400 0.05277000
v -0.03434500 0.01934400 0.05277000
v -0.03304200 0.01997100 0.05277000
v -0.03304200 0.01997100 0.05277000
v -0.03304200 0.01997100 0.05277000
v -0.03304200 0.01997100 0.05277000
v -0.03250700 0.01952800 0.05277000
v -0.03250700 0.01952800 0.05277000
v -0.03250700 0.01952800 0.05277000
v -0.03250700 0.01952800 0.05277000
v -0.03174700 0.01934400 0.05277000
v -0.03174700 0.01934400 0.05277000
v -0.03174700 0.01934400 0.05277000
v -0.03174700 0.01934400 0.05277000
v -0.03186600 0.01796700 0.05277000
v -0.03186600 0.01796700 0.05277000
v -0.03186600 0.01796700 0.05277000
v -0.03186600 0.01796700 0.05277000
v -0.03250700 0.01765900 0.05277000
v -0.03250700 0.01765900 0.05277000
v -0.03250700 0.01765900 0.05277000
v -0.03250700 0.01765900 0.05277000
v -0.03250700 0.01765900 0.05277000
v -0.03250700 0.01765900 0.05277000
vn 0.44600000 0.89500000 0.00470000
vn 0.53680000 0.84360000 -0.01350000
vn -0.00010000 0.00010000 -1.00000000
vn 0.00010000 -0.00020000 -1.00000000
vn -0.06690000 0.99770000 -0.00530000
vn 0.01880000 0.72480000 -0.68870000
vn 0.44600000 0.89500000 0.00470000
vn -0.05420000 0.69230000 -0.71960000
vn -0.07520000 0.99720000 -0.00320000
vn 0.33120000 0.62440000 -0.70740000
vn -0.06690000 0.99770000 -0.00530000
vn -0.99810000 -0.05960000 -0.01520000
vn -0.00010000 0.00010000 -1.00000000
vn 0.00010000 -0.00020000 -1.00000000
vn -0.79860000 0.60180000 0.00980000
vn -0.69310000 -0.11980000 -0.71080000
vn -0.97810000 -0.20730000 0.01690000
vn -0.99810000 -0.05960000 -0.01520000
vn -0.80780000 0.58940000 0.00490000
vn -0.54870000 0.39780000 -0.73530000
vn -0.70350000 0.22460000 -0.67430000
vn -0.79860000 0.60180000 0.00980000
vn -0.51000000 0.40530000 -0.75870000
vn -0.68810000 -0.12740000 -0.71440000
vn 0.62540000 0.28190000 -0.72760000
vn 0.58450000 0.41500000 -0.69720000
vn 0.53680000 0.84360000 -0.01350000
vn 0.33120000 0.62440000 -0.70740000
vn 0.44600000 0.89500000 0.00470000
vn 0.36370000 0.62070000 -0.69460000
vn 0.92100000 0.38920000 0.01450000
vn -0.00000000 -0.00000000 -1.00000000
vn 0.53680000 0.84360000 -0.01350000
vn 0.96650000 0.25610000 -0.01550000
vn 0.92100000 0.38920000 0.01450000
vn 0.00010000 -0.00010000 -1.00000000
vn -0.00010000 0.00010000 -1.00000000
vn -0.79860000 0.60180000 0.00980000
vn 0.00010000 -0.00020000 -1.00000000
vn -0.07520000 0.99720000 -0.00320000
vn -0.80780000 0.58940000 0.00490000
vn -0.06690000 0.99770000 -0.00530000
vn -0.54870000 0.39780000 -0.73530000
vn -0.34270000 0.64620000 -0.68190000
vn -0.07520000 0.99720000 -0.00320000
vn -0.05420000 0.69230000 -0.71960000
vn -0.80780000 0.58940000 0.00490000
vn 0.65470000 -0.21490000 -0.72470000
vn 0.96650000 0.25610000 -0.01550000
vn 0.92100000 0.38920000 0.01450000
vn 0.72360000 0.00130000 -0.69020000
vn 0.95360000 -0.30090000 0.01280000
vn 0.66990000 0.22550000 -0.70740000
vn 0.62540000 0.28190000 -0.72760000
vn 0.90660000 -0.42190000 -0.01190000
vn 0.96650000 0.25610000 -0.01550000
vn 0.00010000 -0.00010000 -1.00000000
vn 0.95360000 -0.30090000 0.01280000
vn -0.69310000 -0.11980000 -0.71080000
vn -0.68810000 -0.12740000 -0.71440000
vn -0.95850000 -0.16660000 -0.23120000
vn -0.86010000 -0.39140000 0.32710000
vn -0.61900000 -0.38150000 -0.68650000
vn -0.83710000 -0.54440000 -0.05330000
vn -0.47900000 -0.52610000 -0.70270000
vn -0.26830000 -0.65410000 -0.70720000
vn -0.29580000 -0.95520000 0.01420000
vn -0.70130000 -0.71280000 -0.00720000
vn -0.67140000 -0.74090000 -0.01500000
vn -0.20550000 -0.65930000 -0.72320000
vn -0.61900000 -0.38150000 -0.68650000
vn -0.63300000 -0.77280000 -0.04610000
vn -0.83710000 -0.54440000 -0.05330000
vn -0.41600000 -0.55050000 -0.72380000
vn -0.20550000 -0.65930000 -0.72320000
vn -0.06640000 -0.71140000 -0.69960000
vn -0.29580000 -0.95520000 0.01420000
vn 0.20180000 -0.97940000 0.00670000
vn 0.13640000 -0.69660000 -0.70440000
vn -0.11610000 -0.99320000 -0.01130000
vn -0.47900000 -0.52610000 -0.70270000
vn -0.26830000 -0.65410000 -0.70720000
vn -0.41600000 -0.55050000 -0.72380000
vn -0.63300000 -0.77280000 -0.04610000
vn -0.38010000 -0.92090000 -0.08610000
vn -0.51440000 -0.83770000 0.18370000
vn -0.54870000 0.39780000 -0.73530000
vn -0.34270000 0.64620000 -0.68190000
vn -0.45410000 0.67010000 -0.58720000
vn -0.51000000 0.40530000 -0.75870000
vn 0.02750000 0.97410000 -0.22440000
vn -0.09740000 0.97780000 0.18560000
vn -0.55560000 0.82510000 -0.10310000
vn 0.01880000 0.72480000 -0.68870000
vn -0.45410000 0.67010000 -0.58720000
vn -0.55800000 0.82100000 -0.12090000
vn -0.34270000 0.64620000 -0.68190000
vn -0.05420000 0.69230000 -0.71960000
vn -0.95120000 0.30440000 0.05090000
vn -0.45410000 0.67010000 -0.58720000
vn -0.70350000 0.22460000 -0.67430000
vn -0.92570000 0.32740000 0.18940000
vn -0.55800000 0.82100000 -0.12090000
vn -0.51000000 0.40530000 -0.75870000
vn -0.70350000 0.22460000 -0.67430000
vn -0.95850000 -0.16660000 -0.23120000
vn -0.69310000 -0.11980000 -0.71080000
vn -0.95120000 0.30440000 0.05090000
vn -0.41600000 -0.55050000 -0.72380000
vn -0.47900000 -0.52610000 -0.70270000
vn -0.61900000 -0.38150000 -0.68650000
vn -0.68810000 -0.12740000 -0.71440000
vn -0.97810000 -0.20730000 0.01690000
vn -0.70130000 -0.71280000 -0.00720000
vn -0.20550000 -0.65930000 -0.72320000
vn -0.06750000 -0.99400000 0.08600000
vn -0.38010000 -0.92090000 -0.08610000
vn -0.26830000 -0.65410000 -0.70720000
vn -0.06640000 -0.71140000 -0.69960000
vn -0.09130000 -0.98280000 0.16070000
vn 0.24170000 -0.94370000 -0.22570000
vn -0.09130000 -0.98280000 0.16070000
vn -0.06640000 -0.71140000 -0.69960000
vn 0.13640000 -0.69660000 -0.70440000
vn 0.17920000 -0.69890000 -0.69240000
vn -0.55560000 0.82510000 -0.10310000
vn -0.09740000 0.97780000 0.18560000
vn 0.00010000 0.00010000 1.00000000
vn -0.00000000 -0.00000000 1.00000000
vn -0.00000000 0.00010000 1.00000000
vn -0.00020000 0.00010000 1.00000000
vn 0.58450000 0.41500000 -0.69720000
vn 0.66990000 0.22550000 -0.70740000
vn 0.81110000 0.56280000 -0.15890000
vn 0.92240000 0.33640000 0.18990000
vn 0.62540000 0.28190000 -0.72760000
vn 0.00010000 0.00030000 1.00000000
vn 0.92560000 0.36250000 0.10860000
vn 0.00070000 -0.00010000 1.00000000
vn 0.92240000 0.33640000 0.18990000
vn 0.51880000 0.83150000 0.19850000
vn 0.00020000 -0.00000000 1.00000000
vn 0.81110000 0.56280000 -0.15890000
vn 0.92560000 0.36250000 0.10860000
vn 0.92240000 0.33640000 0.18990000
vn 0.66990000 0.22550000 -0.70740000
vn 0.72360000 0.00130000 -0.69020000
vn 0.98550000 -0.01390000 -0.16920000
vn 0.98550000 -0.01390000 -0.16920000
vn 0.00050000 0.00010000 1.00000000
vn 0.92710000 -0.26570000 0.26450000
vn 0.00070000 -0.00010000 1.00000000
vn 0.92560000 0.36250000 0.10860000
vn 0.00060000 -0.00030000 1.00000000
vn -0.00040000 0.00140000 1.00000000
vn 0.02750000 0.97410000 -0.22440000
vn -0.09740000 0.97780000 0.18560000
vn 0.51880000 0.83150000 0.19850000
vn 0.50120000 0.86170000 0.07920000
vn -0.00000000 -0.00000000 1.00000000
vn 0.00020000 -0.00000000 1.00000000
vn 0.36370000 0.62070000 -0.69460000
vn 0.33120000 0.62440000 -0.70740000
vn 0.02750000 0.97410000 -0.22440000
vn 0.50120000 0.86170000 0.07920000
vn 0.01880000 0.72480000 -0.68870000
vn -0.55800000 0.82100000 -0.12090000
vn -0.92570000 0.32740000 0.18940000
vn -0.55560000 0.82510000 -0.10310000
vn -0.00010000 0.00020000 1.00000000
vn -0.00020000 0.00010000 1.00000000
vn 0.58450000 0.41500000 -0.69720000
vn 0.36370000 0.62070000 -0.69460000
vn 0.51880000 0.83150000 0.19850000
vn 0.50120000 0.86170000 0.07920000
vn 0.81110000 0.56280000 -0.15890000
vn 0.46990000 -0.88260000 -0.01370000
vn -0.00020000 -0.00040000 -1.00000000
vn -0.00000000 -0.00000000 -1.00000000
vn -0.11610000 -0.99320000 -0.01130000
vn 0.20180000 -0.97940000 0.00670000
vn 0.00010000 -0.00010000 -1.00000000
vn -0.29580000 -0.95520000 0.01420000
vn -0.67140000 -0.74090000 -0.01500000
vn -0.11610000 -0.99320000 -0.01130000
vn -0.00020000 -0.00040000 -1.00000000
vn -0.00010000 0.00010000 -1.00000000
vn -0.99810000 -0.05960000 -0.01520000
vn -0.97810000 -0.20730000 0.01690000
vn -0.67140000 -0.74090000 -0.01500000
vn -0.70130000 -0.71280000 -0.00720000
vn -0.00020000 -0.00040000 -1.00000000
vn -0.00000000 -0.00000000 -1.00000000
vn 0.59780000 -0.80160000 0.00850000
vn 0.90660000 -0.42190000 -0.01190000
vn 0.00010000 -0.00010000 -1.00000000
vn 0.46990000 -0.88260000 -0.01370000
vn 0.13640000 -0.69660000 -0.70440000
vn 0.42780000 -0.55930000 -0.71010000
vn 0.20180000 -0.97940000 0.00670000
vn 0.46990000 -0.88260000 -0.01370000
vn 0.17920000 -0.69890000 -0.69240000
vn 0.59780000 -0.80160000 0.00850000
vn 0.42780000 -0.55930000 -0.71010000
vn 0.17920000 -0.69890000 -0.69240000
vn 0.65800000 -0.73280000 -0.17340000
vn 0.51600000 -0.79570000 0.31730000
vn 0.24170000 -0.94370000 -0.22570000
vn 0.48040000 -0.54180000 -0.68970000
vn 0.65490000 -0.24580000 -0.71460000
vn 0.59780000 -0.80160000 0.00850000
vn 0.90660000 -0.42190000 -0.01190000
vn 0.48040000 -0.54180000 -0.68970000
vn 0.95360000 -0.30090000 0.01280000
vn 0.65470000 -0.21490000 -0.72470000
vn 0.42780000 -0.55930000 -0.71010000
vn 0.98550000 -0.01390000 -0.16920000
vn 0.92710000 -0.26570000 0.26450000
vn 0.93520000 -0.35290000 0.03010000
vn 0.65490000 -0.24580000 -0.71460000
vn 0.72360000 0.00130000 -0.69020000
vn 0.65470000 -0.21490000 -0.72470000
vn 0.48040000 -0.54180000 -0.68970000
vn 0.93520000 -0.35290000 0.03010000
vn 0.65490000 -0.24580000 -0.71460000
vn 0.65800000 -0.73280000 -0.17340000
vn -0.00120000 0.00030000 1.00000000
vn -0.00000000 -0.00010000 1.00000000
vn 0.00010000 -0.00010000 1.00000000
vn -0.09130000 -0.98280000 0.16070000
vn 0.51600000 -0.79570000 0.31730000
vn 0.24170000 -0.94370000 -0.22570000
vn -0.00010000 -0.00010000 1.00000000
vn -0.06750000 -0.99400000 0.08600000
vn -0.92570000 0.32740000 0.18940000
vn -0.86010000 -0.39140000 0.32710000
vn -0.95850000 -0.16660000 -0.23120000
vn -0.00000000 -0.00000000 1.00000000
vn -0.00000000 0.00010000 1.00000000
vn -0.00010000 0.00020000 1.00000000
vn -0.95120000 0.30440000 0.05090000
vn -0.00120000 0.00030000 1.00000000
vn 0.65800000 -0.73280000 -0.17340000
vn 0.92710000 -0.26570000 0.26450000
vn 0.51600000 -0.79570000 0.31730000
vn 0.93520000 -0.35290000 0.03010000
vn -0.00040000 0.00140000 1.00000000
vn -0.06750000 -0.99400000 0.08600000
vn -0.38010000 -0.92090000 -0.08610000
vn -0.00010000 -0.00010000 1.00000000
vn -0.51440000 -0.83770000 0.18370000
vn 0.00020000 -0.00020000 1.00000000
vn -0.83710000 -0.54440000 -0.05330000
vn -0.86010000 -0.39140000 0.32710000
vn -0.00000000 0.00010000 1.00000000
vn 0.00020000 -0.00020000 1.00000000
vn 0.00010000 0.00010000 1.00000000
vn -0.63300000 -0.77280000 -0.04610000
vn -0.51440000 -0.83770000 0.18370000
vn -0.98800000 -0.15430000 -0.00000000
vn 0.00050000 0.00010000 1.00000000
vn -0.00040000 0.00140000 1.00000000
vn -0.10770000 0.99420000 -0.00000000
vn -0.00120000 0.00030000 1.00000000
vn -0.00000000 -0.00010000 1.00000000
vn -0.00000000 -0.00010000 1.00000000
vn 0.00010000 -0.00010000 1.00000000
vn -0.10770000 0.99420000 -0.00000000
vn -0.62490000 0.77500000 0.09480000
vn -0.29740000 0.93700000 -0.18330000
vn -0.62490000 0.77500000 0.09480000
vn 0.65410000 0.73150000 0.19230000
vn 0.66280000 0.72600000 0.18330000
vn 0.00010000 0.00010000 1.00000000
vn 0.00020000 -0.00020000 1.00000000
vn -0.00010000 -0.00010000 1.00000000
vn 0.00010000 -0.00010000 1.00000000
vn -0.98800000 -0.15430000 -0.00000000
vn -0.91480000 0.40390000 -0.00000000
vn 0.00050000 0.00010000 1.00000000
vn 0.00060000 -0.00030000 1.00000000
vn -0.91480000 0.40390000 -0.00000000
vn 0.00070000 -0.00010000 1.00000000
vn 0.00060000 -0.00030000 1.00000000
vn 0.00010000 0.00030000 1.00000000
vn -0.36040000 -0.93280000 -0.00000000
vn -0.52890000 -0.82870000 0.18330000
vn 0.00010000 0.00010000 1.00000000
vn 0.96060000 -0.20080000 -0.19230000
vn 0.35870000 0.92860000 -0.09470000
vn 0.66280000 0.72600000 0.18330000
vn -0.00000000 -0.00000000 1.00000000
vn -0.00000000 0.00010000 1.00000000
vn 0.00010000 0.00010000 1.00000000
vn -0.52890000 -0.82870000 0.18330000
vn -0.80350000 -0.58760000 -0.09490000
vn 0.44350000 -0.87540000 -0.19240000
vn 0.00020000 -0.00000000 1.00000000
vn 0.00010000 0.00030000 1.00000000
vn -0.00000000 -0.00000000 1.00000000
vn 0.98360000 0.15360000 0.09490000
vn 0.96010000 -0.21110000 -0.18330000
vn -0.00000000 -0.00000000 1.00000000
vn 0.96060000 -0.20080000 -0.19230000
vn 0.30630000 -0.93230000 0.19220000
vn -0.00000000 -0.00000000 1.00000000
vn 0.98360000 0.15360000 0.09490000
vn -0.00020000 0.00010000 1.00000000
vn -0.00010000 0.00020000 1.00000000
vn -0.00000000 0.00010000 1.00000000
vn 0.10770000 -0.99420000 -0.00000000
vn 0.00010000 0.00010000 1.00000000
vn -0.00000000 0.00010000 1.00000000
vn 0.10770000 -0.99420000 -0.00000000
vn 0.44350000 -0.87540000 -0.19240000
vn 0.62780000 -0.77840000 -0.00000000
vn -0.00000000 -0.00000000 1.00000000
vn -0.98800000 -0.15430000 -0.00000000
vn -0.29740000 0.93700000 -0.18330000
vn -0.10770000 0.99420000 -0.00000000
vn -0.00000000 -0.00000000 1.00000000
vn 0.65410000 0.73150000 0.19230000
vn -0.00020000 -0.00000000 1.00000000
vn -0.62490000 0.77500000 0.09480000
vn -0.29740000 0.93700000 -0.18330000
vn 0.65410000 0.73150000 0.19230000
vn 0.35870000 0.92860000 -0.09470000
vn 0.66280000 0.72600000 0.18330000
vn -0.00020000 -0.00000000 1.00000000
vn -0.00000000 -0.00000000 1.00000000
vn -0.00000000 -0.00000000 1.00000000
vn 0.96060000 -0.20080000 -0.19230000
vn 0.35870000 0.92860000 -0.09470000
vn 0.96010000 -0.21110000 -0.18330000
vn 0.30630000 -0.93230000 0.19220000
vn -0.00020000 -0.00000000 1.00000000
vn 0.98360000 0.15360000 0.09490000
vn -0.00000000 -0.00000000 1.00000000
vn 0.96010000 -0.21110000 -0.18330000
vn -0.00000000 -0.00000000 1.00000000
vn 0.62780000 -0.77840000 -0.00000000
vn 0.30630000 -0.93230000 0.19220000
vn 0.10770000 -0.99420000 -0.00000000
vn -0.80350000 -0.58760000 -0.09490000
vn -0.00000000 -0.00000000 1.00000000
vn 0.44350000 -0.87540000 -0.19240000
vn 0.62780000 -0.77840000 -0.00000000
vn -0.00000000 -0.00000000 1.00000000
vn -0.52890000 -0.82870000 0.18330000
vn -0.36040000 -0.93280000 -0.00000000
vn -0.80350000 -0.58760000 -0.09490000
vn -0.91480000 0.40390000 -0.00000000
vn -0.00000000 -0.00000000 1.00000000
vn -0.36040000 -0.93280000 -0.00000000
vn -0.00000000 -0.00000000 1.00000000
vn -0.91480000 0.40390000 -0.00000000
vn -0.98800000 -0.15430000 -0.00000000
vn 0.00010000 -0.00000000 -1.00000000
vn 0.70970000 0.70440000 0.01340000
vn 0.42140000 0.90660000 -0.02350000
vn -0.00000000 -0.00000000 -1.00000000
vn 0.98310000 0.18280000 -0.00810000
vn 0.97730000 0.21200000 -0.00430000
vn -0.98240000 0.18690000 0.00090000
vn -0.75260000 0.65840000 0.00930000
vn -0.00000000 -0.00000000 -1.00000000
vn -0.52370000 0.85170000 -0.01850000
vn -0.99200000 0.12600000 -0.00810000
vn -0.99200000 0.12600000 -0.00810000
vn -0.68400000 0.07240000 -0.72590000
vn -0.75260000 0.65840000 0.00930000
vn -0.69690000 0.21470000 -0.68430000
vn -0.51920000 0.45340000 -0.72450000
vn 0.97730000 0.21200000 -0.00430000
vn 0.94090000 -0.33860000 0.00300000
vn 0.63670000 -0.22220000 -0.73840000
vn 0.98310000 0.18280000 -0.00810000
vn 0.72660000 -0.05690000 -0.68470000
vn 0.67850000 0.12440000 -0.72390000
vn 0.94090000 -0.33860000 0.00300000
vn 0.88660000 -0.46240000 -0.00820000
vn 0.97730000 0.21200000 -0.00430000
vn 0.00010000 -0.00000000 -1.00000000
vn -0.00000000 -0.00000000 -1.00000000
vn -0.52370000 0.85170000 -0.01850000
vn 0.42140000 0.90660000 -0.02350000
vn -0.07180000 0.99730000 0.01780000
vn -0.03770000 0.66910000 -0.74230000
vn -0.49500000 0.51320000 -0.70110000
vn -0.23720000 0.69200000 -0.68180000
vn -0.75260000 0.65840000 0.00930000
vn -0.51920000 0.45340000 -0.72450000
vn -0.07180000 0.99730000 0.01780000
vn -0.52370000 0.85170000 -0.01850000
vn -0.03770000 0.66910000 -0.74230000
vn 0.42140000 0.90660000 -0.02350000
vn 0.70970000 0.70440000 0.01340000
vn 0.15080000 0.71760000 -0.67990000
vn -0.07180000 0.99730000 0.01780000
vn 0.47540000 0.49580000 -0.72680000
vn 0.45270000 0.54350000 -0.70690000
vn -0.32210000 0.92370000 -0.20720000
vn -0.03770000 0.66910000 -0.74230000
vn 0.20060000 0.95690000 -0.20990000
vn -0.14130000 0.96970000 0.19930000
vn -0.23720000 0.69200000 -0.68180000
vn 0.15080000 0.71760000 -0.67990000
vn -0.49500000 0.51320000 -0.70110000
vn -0.67330000 0.72050000 -0.16580000
vn -0.32210000 0.92370000 -0.20720000
vn -0.23720000 0.69200000 -0.68180000
vn -0.55580000 0.82050000 0.13380000
vn -0.67330000 0.72050000 -0.16580000
vn -0.49500000 0.51320000 -0.70110000
vn -0.51920000 0.45340000 -0.72450000
vn -0.94530000 0.27780000 -0.17110000
vn -0.69690000 0.21470000 -0.68430000
vn -0.88580000 0.39570000 0.24260000
vn -0.99200000 0.12600000 -0.00810000
vn -0.98240000 0.18690000 0.00090000
vn -0.83850000 -0.54480000 -0.00700000
vn -0.68400000 0.07240000 -0.72590000
vn -0.54490000 -0.42980000 -0.72000000
vn -0.72030000 -0.12750000 -0.68190000
vn -0.76540000 -0.64350000 0.00960000
vn -0.52750000 -0.43680000 -0.72860000
vn -0.72030000 -0.12750000 -0.68190000
vn -0.99170000 -0.09380000 0.08730000
vn -0.97890000 -0.17140000 -0.11100000
vn -0.94530000 0.27780000 -0.17110000
vn -0.69690000 0.21470000 -0.68430000
vn -0.68400000 0.07240000 -0.72590000
vn -0.54490000 -0.42980000 -0.72000000
vn -0.97890000 -0.17140000 -0.11100000
vn -0.81930000 -0.55590000 0.14010000
vn -0.72030000 -0.12750000 -0.68190000
vn -0.77980000 -0.61900000 -0.09360000
vn -0.32280000 -0.93010000 -0.17520000
vn -0.77980000 -0.61900000 -0.09360000
vn -0.40920000 -0.90710000 0.09870000
vn -0.24010000 -0.69360000 -0.67920000
vn -0.52750000 -0.43680000 -0.72860000
vn -0.54490000 -0.42980000 -0.72000000
vn -0.20500000 -0.97870000 -0.00600000
vn -0.13770000 -0.99050000 0.00090000
vn -0.09990000 -0.67950000 -0.72690000
vn -0.24010000 -0.69360000 -0.67920000
vn -0.76540000 -0.64350000 0.00960000
vn -0.52750000 -0.43680000 -0.72860000
vn 0.34970000 -0.93680000 -0.00710000
vn -0.09990000 -0.67950000 -0.72690000
vn 0.39260000 -0.91970000 -0.00210000
vn -0.13770000 -0.99050000 0.00090000
vn 0.24590000 -0.70650000 -0.66360000
vn -0.24010000 -0.69360000 -0.67920000
vn -0.09990000 -0.67950000 -0.72690000
vn 0.18290000 -0.69450000 -0.69580000
vn 0.24590000 -0.70650000 -0.66360000
vn 0.23900000 -0.94680000 -0.21540000
vn -0.32280000 -0.93010000 -0.17520000
vn 0.11010000 -0.96560000 0.23570000
vn 0.66160000 0.30890000 -0.68330000
vn 0.67850000 0.12440000 -0.72390000
vn 0.74100000 -0.07900000 -0.66690000
vn 0.72660000 -0.05690000 -0.68470000
vn 0.96550000 -0.09770000 0.24130000
vn 0.86320000 0.40820000 -0.29720000
vn 0.86320000 0.40820000 -0.29720000
vn 0.75800000 0.60710000 0.23860000
vn 0.96550000 -0.09770000 0.24130000
vn -0.00010000 -0.00000000 1.00000000
vn -0.00040000 0.00020000 1.00000000
vn 0.99070000 -0.07400000 0.11430000
vn -0.14130000 0.96970000 0.19930000
vn 0.20060000 0.95690000 -0.20990000
vn 0.34660000 0.91980000 0.18410000
vn -0.00010000 0.00010000 1.00000000
vn 0.00030000 0.00040000 1.00000000
vn -0.00000000 -0.00000000 1.00000000
vn -0.99170000 -0.09380000 0.08730000
vn -0.88580000 0.39570000 0.24260000
vn -0.94530000 0.27780000 -0.17110000
vn 0.20060000 0.95690000 -0.20990000
vn 0.64210000 0.75440000 -0.13630000
vn 0.34660000 0.91980000 0.18410000
vn 0.45270000 0.54350000 -0.70690000
vn 0.15080000 0.71760000 -0.67990000
vn -0.88580000 0.39570000 0.24260000
vn -0.67330000 0.72050000 -0.16580000
vn -0.00000000 -0.00000000 1.00000000
vn 0.00010000 0.00010000 1.00000000
vn -0.55580000 0.82050000 0.13380000
vn 0.75800000 0.60710000 0.23860000
vn 0.64210000 0.75440000 -0.13630000
vn -0.00000000 -0.00000000 1.00000000
vn -0.00010000 0.00010000 1.00000000
vn -0.00010000 -0.00000000 1.00000000
vn 0.34660000 0.91980000 0.18410000
vn 0.75800000 0.60710000 0.23860000
vn 0.64210000 0.75440000 -0.13630000
vn 0.86320000 0.40820000 -0.29720000
vn 0.45270000 0.54350000 -0.70690000
vn 0.47540000 0.49580000 -0.72680000
vn 0.66160000 0.30890000 -0.68330000
vn -0.00010000 0.00010000 1.00000000
vn -0.32210000 0.92370000 -0.20720000
vn -0.55580000 0.82050000 0.13380000
vn -0.14130000 0.96970000 0.19930000
vn 0.00010000 0.00010000 1.00000000
vn 0.00020000 0.00020000 -1.00000000
vn -0.83850000 -0.54480000 -0.00700000
vn -0.20500000 -0.97870000 -0.00600000
vn -0.76540000 -0.64350000 0.00960000
vn -0.98240000 0.18690000 0.00090000
vn -0.00000000 -0.00000000 -1.00000000
vn 0.00020000 0.00020000 -1.00000000
vn -0.83850000 -0.54480000 -0.00700000
vn 0.68140000 -0.73190000 0.00540000
vn 0.88660000 -0.46240000 -0.00820000
vn 0.00010000 -0.00000000 -1.00000000
vn -0.00000000 -0.00000000 -1.00000000
vn 0.39260000 -0.91970000 -0.00210000
vn 0.34970000 -0.93680000 -0.00710000
vn -0.00000000 -0.00000000 -1.00000000
vn 0.00020000 0.00020000 -1.00000000
vn -0.20500000 -0.97870000 -0.00600000
vn 0.39260000 -0.91970000 -0.00210000
vn -0.13770000 -0.99050000 0.00090000
vn 0.34970000 -0.93680000 -0.00710000
vn 0.18290000 -0.69450000 -0.69580000
vn 0.48550000 -0.52580000 -0.69840000
vn 0.68140000 -0.73190000 0.00540000
vn 0.24590000 -0.70650000 -0.66360000
vn 0.74710000 -0.65500000 0.11350000
vn 0.18290000 -0.69450000 -0.69580000
vn 0.48550000 -0.52580000 -0.69840000
vn 0.55760000 -0.49190000 -0.66870000
vn 0.23900000 -0.94680000 -0.21540000
vn 0.68140000 -0.73190000 0.00540000
vn 0.55760000 -0.49190000 -0.66870000
vn 0.63670000 -0.22220000 -0.73840000
vn 0.88660000 -0.46240000 -0.00820000
vn 0.94090000 -0.33860000 0.00300000
vn 0.64090000 -0.26540000 -0.72030000
vn 0.48550000 -0.52580000 -0.69840000
vn 0.72660000 -0.05690000 -0.68470000
vn 0.64090000 -0.26540000 -0.72030000
vn 0.74100000 -0.07900000 -0.66690000
vn 0.63670000 -0.22220000 -0.73840000
vn 0.66160000 0.30890000 -0.68330000
vn 0.70970000 0.70440000 0.01340000
vn 0.98310000 0.18280000 -0.00810000
vn 0.67850000 0.12440000 -0.72390000
vn 0.47540000 0.49580000 -0.72680000
vn 0.55760000 -0.49190000 -0.66870000
vn 0.74100000 -0.07900000 -0.66690000
vn 0.73400000 -0.67890000 -0.02010000
vn 0.64090000 -0.26540000 -0.72030000
vn 0.96550000 -0.09770000 0.24130000
vn 0.74710000 -0.65500000 0.11350000
vn 0.99070000 -0.07400000 0.11430000
vn -0.99170000 -0.09380000 0.08730000
vn -0.81930000 -0.55590000 0.14010000
vn 0.00040000 -0.00070000 1.00000000
vn -0.97890000 -0.17140000 -0.11100000
vn 0.00030000 0.00040000 1.00000000
vn 0.73400000 -0.67890000 -0.02010000
vn -0.00040000 0.00020000 1.00000000
vn -0.00030000 0.00030000 1.00000000
vn 0.99070000 -0.07400000 0.11430000
vn -0.00040000 0.00010000 1.00000000
vn -0.32280000 -0.93010000 -0.17520000
vn -0.00030000 0.00010000 1.00000000
vn -0.40920000 -0.90710000 0.09870000
vn 0.11010000 -0.96560000 0.23570000
vn 0.00040000 -0.00070000 1.00000000
vn -0.40920000 -0.90710000 0.09870000
vn -0.00040000 0.00010000 1.00000000
vn -0.00020000 -0.00040000 1.00000000
vn -0.77980000 -0.61900000 -0.09360000
vn -0.81930000 -0.55590000 0.14010000
vn -0.00010000 -0.00050000 1.00000000
vn 0.73400000 -0.67890000 -0.02010000
vn -0.00030000 0.00030000 1.00000000
vn 0.74710000 -0.65500000 0.11350000
vn 0.11010000 -0.96560000 0.23570000
vn 0.23900000 -0.94680000 -0.21540000
vn -0.00030000 0.00010000 1.00000000
vn -0.00020000 0.00030000 1.00000000
vn -0.00010000 -0.00050000 1.00000000
vn 0.23510000 0.96730000 0.09480000
vn 0.97850000 -0.07430000 0.19230000
vn 0.95950000 -0.28160000 -0.00000000
vn 0.00040000 -0.00070000 1.00000000
vn 0.00030000 0.00040000 1.00000000
vn -0.00000000 -0.00000000 1.00000000
vn -0.42580000 -0.88400000 0.19310000
vn -0.00010000 0.00010000 1.00000000
vn -0.63740000 -0.77050000 -0.00600000
vn 0.50960000 -0.86040000 0.00480000
vn -0.00000000 -0.00000000 1.00000000
vn -0.00030000 0.00010000 1.00000000
vn -0.72040000 0.68700000 -0.09500000
vn -0.00020000 0.00030000 1.00000000
vn -0.00020000 -0.00040000 1.00000000
vn -0.00040000 0.00010000 1.00000000
vn 0.55350000 0.81030000 -0.19230000
vn -0.41670000 0.89040000 0.18330000
vn 0.95960000 0.28150000 -0.00000000
vn -0.00000000 -0.00000000 1.00000000
vn 0.95950000 -0.28160000 -0.00000000
vn 0.97850000 0.07430000 -0.19230000
vn -0.00030000 0.00030000 1.00000000
vn -0.95520000 -0.28020000 0.09480000
vn -0.00010000 -0.00000000 1.00000000
vn -0.00040000 0.00020000 1.00000000
vn -0.00020000 0.00030000 1.00000000
vn -0.42510000 0.88450000 0.19230000
vn -0.41670000 0.89040000 0.18330000
vn -0.00010000 -0.00000000 1.00000000
vn -0.95520000 -0.28020000 0.09480000
vn -0.97940000 0.08430000 -0.18340000
vn -0.95960000 0.28140000 -0.00000000
vn 0.50960000 -0.86040000 0.00480000
vn -0.00010000 0.00010000 1.00000000
vn 0.00010000 0.00010000 1.00000000
vn 0.43020000 -0.89330000 -0.13040000
vn -0.00000000 -0.00000000 1.00000000
vn 0.97850000 0.07430000 -0.19230000
vn -0.42580000 -0.88400000 0.19310000
vn -0.23600000 -0.97170000 -0.00000000
vn -0.00000000 -0.00000000 1.00000000
vn -0.00010000 -0.00000000 1.00000000
vn -0.95960000 0.28140000 -0.00000000
vn 0.55350000 0.81030000 -0.19230000
vn 0.56280000 0.80600000 -0.18330000
vn -0.00020000 -0.00040000 1.00000000
vn 0.23510000 0.96730000 0.09480000
vn -0.00010000 -0.00050000 1.00000000
vn 0.56280000 0.80600000 -0.18330000
vn 0.55350000 0.81030000 -0.19230000
vn -0.72040000 0.68700000 -0.09500000
vn -0.00010000 0.00010000 1.00000000
vn 0.23510000 0.96730000 0.09480000
vn -0.00010000 0.00010000 1.00000000
vn -0.00010000 -0.00020000 1.00000000
vn 0.97850000 -0.07430000 0.19230000
vn 0.56280000 0.80600000 -0.18330000
vn -0.00010000 -0.00020000 1.00000000
vn 0.95960000 0.28150000 -0.00000000
vn 0.97850000 -0.07430000 0.19230000
vn 0.95950000 -0.28160000 -0.00000000
vn -0.00000000 -0.00000000 1.00000000
vn 0.97850000 0.07430000 -0.19230000
vn 0.43020000 -0.89330000 -0.13040000
vn -0.00000000 -0.00000000 1.00000000
vn 0.95960000 0.28150000 -0.00000000
vn -0.00000000 -0.00000000 1.00000000
vn 0.43020000 -0.89330000 -0.13040000
vn -0.63740000 -0.77050000 -0.00600000
vn 0.50960000 -0.86040000 0.00480000
vn -0.23600000 -0.97170000 -0.00000000
vn -0.00000000 -0.00000000 1.00000000
vn -0.42580000 -0.88400000 0.19310000
vn -0.63740000 -0.77050000 -0.00600000
vn -0.97940000 0.08430000 -0.18340000
vn -0.23600000 -0.97170000 -0.00000000
vn -0.00000000 -0.00000000 1.00000000
vn -0.95960000 0.28140000 -0.00000000
vn -0.42510000 0.88450000 0.19230000
vn -0.95520000 -0.28020000 0.09480000
vn -0.97940000 0.08430000 -0.18340000
vn -0.00000000 -0.00000000 1.00000000
vn -0.72040000 0.68700000 -0.09500000
vn -0.42510000 0.88450000 0.19230000
vn -0.00010000 0.00010000 1.00000000
vn -0.41670000 0.89040000 0.18330000
vn -0.00000000 -0.00000000 1.00000000
vn -0.00010000 -0.00020000 1.00000000
f 1//1 7//7 29//29
f 33//33 2//2 27//27
f 38//38 15//15 22//22
f 41//41 19//19 47//47
f 35//35 31//31 50//50
f 56//56 34//34 49//49
f 40//40 45//45 9//9
f 5//5 42//42 11//11
f 115//115 70//70 75//75
f 88//88 97//97 44//44
f 20//20 87//87 43//43
f 104//104 90//90 23//23
f 21//21 105//105 101//101
f 63//63 111//111 71//71
f 60//60 24//24 112//112
f 65//65 81//81 110//110
f 82//82 66//66 118//118
f 83//83 74//74 109//109
f 46//46 98//98 8//8
f 123//123 119//119 76//76
f 89//89 100//100 95//95
f 16//16 59//59 107//107
f 134//134 176//176 143//143
f 144//144 138//138 153//153
f 92//92 127//127 157//157
f 145//145 135//135 140//140
f 164//164 91//91 156//156
f 102//102 235//235 168//168
f 99//99 108//108 241//241
f 217//217 148//148 149//149
f 175//175 165//165 159//159
f 174//174 158//158 141//141
f 93//93 169//169 126//126
f 96//96 103//103 167//167
f 185//185 180//180 80//80
f 183//183 77//77 67//67
f 58//58 52//52 214//214
f 191//191 68//68 114//114
f 190//190 184//184 69//69
f 195//195 55//55 212//212
f 194//194 211//211 203//203
f 189//189 113//113 17//17
f 177//177 197//197 201//201
f 12//12 188//188 18//18
f 181//181 200//200 78//78
f 178//178 186//186 192//192
f 14//14 39//39 4//4
f 187//187 13//13 37//37
f 196//196 182//182 36//36
f 57//57 196//196 36//36
f 13//13 3//3 37//37
f 179//179 193//193 32//32
f 205//205 125//125 202//202
f 216//216 204//204 199//199
f 225//225 210//210 220//220
f 147//147 221//221 51//51
f 133//133 146//146 53//53
f 136//136 54//54 25//25
f 26//26 172//172 132//132
f 163//163 28//28 10//10
f 162//162 173//173 30//30
f 198//198 124//124 79//79
f 166//166 6//6 94//94
f 213//213 223//223 209//209
f 222//222 215//215 48//48
f 62//62 254//254 236//236
f 64//64 73//73 253//253
f 121//121 208//208 232//232
f 218//218 151//151 244//244
f 120//120 122//122 230//230
f 116//116 234//234 248//248
f 106//106 61//61 237//237
f 224//224 219//219 246//246
f 85//85 117//117 249//249
f 86//86 251//251 259//259
f 206//206 226//226 243//243
f 207//207 245//245 231//231
f 72//72 84//84 258//258
f 247//247 155//155 262//262
f 227//227 242//242 264//264
f 228//228 265//265 266//266
f 229//229 267//267 277//277
f 250//250 233//233 276//276
f 261//261 150//150 280//280
f 252//252 275//275 256//256
f 152//152 139//139 283//283
f 281//281 154//154 284//284
f 257//257 274//274 288//288
f 285//285 137//137 299//299
f 298//298 142//142 161//161
f 255//255 293//293 239//239
f 292//292 303//303 238//238
f 300//300 160//160 129//129
f 303//303 306//306 238//238
f 312//312 294//294 128//128
f 240//240 309//309 170//170
f 310//310 313//313 130//130
f 308//308 131//131 171//171
f 270//270 319//319 325//325
f 268//268 263//263 320//320
f 271//271 269//269 324//324
f 272//272 322//322 326//326
f 291//291 273//273 328//328
f 290//290 327//327 333//333
f 302//302 334//334 339//339
f 304//304 289//289 332//332
f 307//307 301//301 337//337
f 305//305 335//335 342//342
f 314//314 311//311 343//343
f 316//316 341//341 347//347
f 297//297 315//315 346//346
f 296//296 344//344 351//351
f 286//286 350//350 354//354
f 287//287 295//295 349//349
f 282//282 352//352 356//356
f 279//279 282//282 356//356
f 278//278 357//357 318//318
f 260//260 278//278 318//318
f 338//338 331//331 330//330
f 323//323 336//336 329//329
f 355//355 321//321 317//317
f 355//355 338//338 321//321
f 348//348 340//340 338//338
f 348//348 338//338 355//355
f 345//345 340//340 348//348
f 353//353 348//348 355//355
f 360//360 386//386 396//396
f 368//368 419//419 369//369
f 364//364 514//514 420//420
f 359//359 397//397 551//551
f 362//362 552//552 377//377
f 365//365 371//371 391//391
f 382//382 363//363 374//374
f 385//385 367//367 394//394
f 387//387 393//393 399//399
f 415//415 392//392 373//373
f 414//414 408//408 389//389
f 432//432 370//370 422//422
f 424//424 436//436 427//427
f 443//443 433//433 423//423
f 442//442 426//426 449//449
f 455//455 441//441 447//447
f 403//403 395//395 388//388
f 456//456 446//446 451//451
f 390//390 411//411 406//406
f 372//372 431//431 417//417
f 405//405 508//508 474//474
f 416//416 430//430 482//482
f 483//483 404//404 475//475
f 418//418 481//481 488//488
f 485//485 476//476 498//498
f 500//500 484//484 494//494
f 409//409 413//413 489//489
f 499//499 493//493 469//469
f 412//412 492//492 507//507
f 467//467 501//501 468//468
f 402//402 410//410 506//506
f 513//513 448//448 425//425
f 380//380 375//375 543//543
f 517//517 511//511 421//421
f 519//519 381//381 542//542
f 518//518 539//539 532//532
f 523//523 529//529 450//450
f 527//527 522//522 452//452
f 528//528 453//453 445//445
f 512//512 526//526 444//444
f 525//525 510//510 516//516
f 521//521 524//524 361//361
f 524//524 366//366 361//361
f 366//366 384//384 361//361
f 383//383 520//520 358//358
f 524//524 515//515 366//366
f 533//533 458//458 454//454
f 530//530 535//535 457//457
f 540//540 555//555 537//537
f 545//545 536//536 531//531
f 549//549 541//541 376//376
f 547//547 558//558 544//544
f 463//463 379//379 553//553
f 465//465 546//546 378//378
f 401//401 486//486 502//502
f 407//407 487//487 398//398
f 464//464 556//556 548//548
f 503//503 554//554 400//400
f 504//504 462//462 550//550
f 459//459 538//538 587//587
f 561//561 473//473 570//570
f 559//559 466//466 470//470
f 428//428 562//562 480//480
f 429//429 434//434 565//565
f 461//461 586//586 575//575
f 438//438 460//460 572//572
f 440//440 574//574 577//577
f 557//557 567//567 583//583
f 534//534 560//560 585//585
f 437//437 439//439 580//580
f 435//435 581//581 563//563
f 573//573 588//588 602//602
f 596//596 610//610 479//479
f 589//589 617//617 604//604
f 566//566 595//595 478//478
f 571//571 606//606 578//578
f 615//615 471//471 620//620
f 610//610 628//628 479//479
f 598//598 477//477 505//505
f 620//620 471//471 633//633
f 579//579 605//605 637//637
f 625//625 598//598 505//505
f 633//633 471//471 497//497
f 479//479 628//628 490//490
f 626//626 509//509 491//491
f 582//582 639//639 590//590
f 601//601 632//632 495//495
f 576//576 594//594 564//564
f 568//568 472//472 616//616
f 584//584 569//569 613//613
f 598//598 496//496 477//477
f 636//636 640//640 648//648
f 635//635 607//607 641//641
f 591//591 638//638 644//644
f 592//592 647//647 651//651
f 611//611 593//593 652//652
f 609//609 650//650 657//657
f 629//629 612//612 654//654
f 627//627 655//655 659//659
f 600//600 624//624 661//661
f 599//599 660//660 665//665
f 631//631 662//662 667//667
f 630//630 597//597 664//664
f 622//622 666//666 672//672
f 623//623 634//634 669//669
f 614//614 621//621 671//671
f 618//618 670//670 675//675
f 608//608 619//619 677//677
f 603//603 674//674 642//642
f 676//676 645//645 643//643
f 679//679 649//649 646//646
f 658//658 656//656 653//653
f 663//663 658//658 653//653
f 663//663 653//653 678//678
f 663//663 678//678 673//673
f 668//668 663//663 673//673

