mtllib material.mtl
usemtl RAL9005
v -0.13781400 0.02025000 -0.16370100
v -0.13781400 0.02025000 -0.16370100
v -0.13781400 0.02025000 -0.16370100
v -0.13781400 0.03625000 -0.14770100
v -0.13781400 0.03625000 -0.14770100
v -0.13781400 0.03625000 -0.14770100
v -0.13781400 0.03625000 -0.16370100
v -0.13781400 0.03625000 -0.16370100
v -0.13781400 0.03625000 -0.16370100
v -0.32980600 0.02025000 -0.16370100
v -0.32980600 0.02025000 -0.16370100
v -0.32980600 0.02025000 -0.16370100
v -0.32980600 0.03625000 -0.14770100
v -0.32980600 0.03625000 -0.14770100
v -0.32980600 0.03625000 -0.14770100
v -0.13280600 0.03625000 -0.16370100
v -0.13280600 0.03625000 -0.16370100
v -0.13280600 0.03625000 -0.16370100
v -0.13781400 -0.02025000 -0.16370100
v -0.13781400 -0.02025000 -0.16370100
v -0.13781400 -0.02025000 -0.16370100
v -0.32980600 -0.02025000 -0.16370100
v -0.32980600 -0.02025000 -0.16370100
v -0.32980600 -0.02025000 -0.16370100
v -0.13280600 -0.03625000 -0.16370100
v -0.13280600 -0.03625000 -0.16370100
v -0.13280600 -0.03625000 -0.16370100
v -0.13781400 -0.03625000 -0.16370100
v -0.13781400 -0.03625000 -0.16370100
v -0.13781400 -0.03625000 -0.16370100
v -0.13781400 -0.03625000 -0.14770100
v -0.13781400 -0.03625000 -0.14770100
v -0.13781400 -0.03625000 -0.14770100
v -0.32980600 -0.03625000 -0.14770100
v -0.32980600 -0.03625000 -0.14770100
v -0.32980600 -0.03625000 -0.14770100
v -0.13280600 0.03625000 -0.09120100
v -0.13280600 0.03625000 -0.09120100
v -0.13280600 0.03625000 -0.09120100
v -0.13280600 -0.03625000 -0.09120100
v -0.13280600 -0.03625000 -0.09120100
v -0.13280600 -0.03625000 -0.09120100
v -0.13781400 -0.03625000 -0.10720100
v -0.13781400 -0.03625000 -0.10720100
v -0.13781400 -0.03625000 -0.10720100
v -0.32980600 -0.03625000 -0.10720100
v -0.32980600 -0.03625000 -0.10720100
v -0.32980600 -0.03625000 -0.10720100
v -0.13781400 -0.03625000 -0.09120100
v -0.13781400 -0.03625000 -0.09120100
v -0.13781400 -0.03625000 -0.09120100
v -0.13781400 -0.02025000 -0.09120100
v -0.13781400 -0.02025000 -0.09120100
v -0.13781400 -0.02025000 -0.09120100
v -0.32980600 -0.02025000 -0.09120100
v -0.32980600 -0.02025000 -0.09120100
v -0.32980600 -0.02025000 -0.09120100
v -0.32980600 0.03625000 -0.10720100
v -0.32980600 0.03625000 -0.10720100
v -0.32980600 0.03625000 -0.10720100
v -0.32980600 0.02025000 -0.09120100
v -0.32980600 0.02025000 -0.09120100
v -0.32980600 0.02025000 -0.09120100
v -0.13781400 0.02025000 -0.09120100
v -0.13781400 0.02025000 -0.09120100
v -0.13781400 0.02025000 -0.09120100
v -0.13781400 0.03625000 -0.09120100
v -0.13781400 0.03625000 -0.09120100
v -0.13781400 0.03625000 -0.09120100
v -0.13781400 0.03625000 -0.10720100
v -0.13781400 0.03625000 -0.10720100
v -0.13781400 0.03625000 -0.10720100
v -0.16435400 0.02025000 -0.07125100
v -0.16435400 0.02025000 -0.07125100
v -0.16435400 0.02025000 -0.07125100
v -0.16435400 0.03625000 -0.05525100
v -0.16435400 0.03625000 -0.05525100
v -0.16435400 0.03625000 -0.05525100
v -0.16435400 0.03625000 -0.07125100
v -0.16435400 0.03625000 -0.07125100
v -0.16435400 0.03625000 -0.07125100
v -0.35634700 0.02025000 -0.07125100
v -0.35634700 0.02025000 -0.07125100
v -0.35634700 0.02025000 -0.07125100
v -0.35634700 0.03625000 -0.05525100
v -0.35634700 0.03625000 -0.05525100
v -0.35634700 0.03625000 -0.05525100
v -0.15934700 0.03625000 -0.07125100
v -0.15934700 0.03625000 -0.07125100
v -0.15934700 0.03625000 -0.07125100
v -0.16435400 -0.02025000 -0.07125100
v -0.16435400 -0.02025000 -0.07125100
v -0.16435400 -0.02025000 -0.07125100
v -0.35634700 -0.02025000 -0.07125100
v -0.35634700 -0.02025000 -0.07125100
v -0.35634700 -0.02025000 -0.07125100
v -0.15934700 -0.03625000 -0.07125100
v -0.15934700 -0.03625000 -0.07125100
v -0.15934700 -0.03625000 -0.07125100
v -0.16435400 -0.03625000 -0.07125100
v -0.16435400 -0.03625000 -0.07125100
v -0.16435400 -0.03625000 -0.07125100
v -0.16435400 -0.03625000 -0.05525100
v -0.16435400 -0.03625000 -0.05525100
v -0.16435400 -0.03625000 -0.05525100
v -0.35634700 -0.03625000 -0.05525100
v -0.35634700 -0.03625000 -0.05525100
v -0.35634700 -0.03625000 -0.05525100
v -0.15934700 0.03625000 0.00124900
v -0.15934700 0.03625000 0.00124900
v -0.15934700 0.03625000 0.00124900
v -0.15934700 -0.03625000 0.00124900
v -0.15934700 -0.03625000 0.00124900
v -0.15934700 -0.03625000 0.00124900
v -0.16435400 -0.03625000 -0.01475100
v -0.16435400 -0.03625000 -0.01475100
v -0.16435400 -0.03625000 -0.01475100
v -0.35634700 -0.03625000 -0.01475100
v -0.35634700 -0.03625000 -0.01475100
v -0.35634700 -0.03625000 -0.01475100
v -0.16435400 -0.03625000 0.00124900
v -0.16435400 -0.03625000 0.00124900
v -0.16435400 -0.03625000 0.00124900
v -0.16435400 -0.02025000 0.00124900
v -0.16435400 -0.02025000 0.00124900
v -0.16435400 -0.02025000 0.00124900
v -0.35634700 -0.02025000 0.00124900
v -0.35634700 -0.02025000 0.00124900
v -0.35634700 -0.02025000 0.00124900
v -0.35634700 0.03625000 -0.01475100
v -0.35634700 0.03625000 -0.01475100
v -0.35634700 0.03625000 -0.01475100
v -0.35634700 0.02025000 0.00124900
v -0.35634700 0.02025000 0.00124900
v -0.35634700 0.02025000 0.00124900
v -0.16435400 0.02025000 0.00124900
v -0.16435400 0.02025000 0.00124900
v -0.16435400 0.02025000 0.00124900
v -0.16435400 0.03625000 0.00124900
v -0.16435400 0.03625000 0.00124900
v -0.16435400 0.03625000 0.00124900
v -0.16435400 0.03625000 -0.01475100
v -0.16435400 0.03625000 -0.01475100
v -0.16435400 0.03625000 -0.01475100
v -0.15684300 0.02051900 0.02132700
v -0.15684300 0.02051900 0.02132700
v -0.15684300 0.02051900 0.02132700
v -0.15684300 0.03662900 0.03732700
v -0.15684300 0.03662900 0.03732700
v -0.15684300 0.03662900 0.03732700
v -0.15684300 0.03662900 0.02132700
v -0.15684300 0.03662900 0.02132700
v -0.15684300 0.03662900 0.02132700
v -0.34883500 0.02051900 0.02132700
v -0.34883500 0.02051900 0.02132700
v -0.34883500 0.02051900 0.02132700
v -0.34883500 0.03662900 0.03732700
v -0.34883500 0.03662900 0.03732700
v -0.34883500 0.03662900 0.03732700
v -0.15684300 -0.02026100 0.02132700
v -0.15684300 -0.02026100 0.02132700
v -0.15684300 -0.02026100 0.02132700
v -0.34883500 -0.02026100 0.02132700
v -0.34883500 -0.02026100 0.02132700
v -0.34883500 -0.02026100 0.02132700
v -0.15183500 -0.03637100 0.02132700
v -0.15183500 -0.03637100 0.02132700
v -0.15183500 -0.03637100 0.02132700
v -0.15684300 -0.03637100 0.02132700
v -0.15684300 -0.03637100 0.02132700
v -0.15684300 -0.03637100 0.02132700
v -0.15183500 0.03662900 0.02132700
v -0.15183500 0.03662900 0.02132700
v -0.15183500 0.03662900 0.02132700
v -0.15684300 -0.03637100 0.03732700
v -0.15684300 -0.03637100 0.03732700
v -0.15684300 -0.03637100 0.03732700
v -0.34883500 -0.03637100 0.03732700
v -0.34883500 -0.03637100 0.03732700
v -0.34883500 -0.03637100 0.03732700
v -0.15183500 0.03662900 0.09382700
v -0.15183500 0.03662900 0.09382700
v -0.15183500 0.03662900 0.09382700
v -0.15183500 -0.03637100 0.09382700
v -0.15183500 -0.03637100 0.09382700
v -0.15183500 -0.03637100 0.09382700
v -0.15684300 -0.03637100 0.07782700
v -0.15684300 -0.03637100 0.07782700
v -0.15684300 -0.03637100 0.07782700
v -0.34883500 -0.03637100 0.07782700
v -0.34883500 -0.03637100 0.07782700
v -0.34883500 -0.03637100 0.07782700
v -0.15684300 -0.03637100 0.09382700
v -0.15684300 -0.03637100 0.09382700
v -0.15684300 -0.03637100 0.09382700
v -0.15684300 -0.02026100 0.09382700
v -0.15684300 -0.02026100 0.09382700
v -0.15684300 -0.02026100 0.09382700
v -0.34883500 -0.02026100 0.09382700
v -0.34883500 -0.02026100 0.09382700
v -0.34883500 -0.02026100 0.09382700
v -0.34883500 0.03662900 0.07782700
v -0.34883500 0.03662900 0.07782700
v -0.34883500 0.03662900 0.07782700
v -0.34883500 0.02051900 0.09382700
v -0.34883500 0.02051900 0.09382700
v -0.34883500 0.02051900 0.09382700
v -0.15684300 0.02051900 0.09382700
v -0.15684300 0.02051900 0.09382700
v -0.15684300 0.02051900 0.09382700
v -0.15684300 0.03662900 0.09382700
v -0.15684300 0.03662900 0.09382700
v -0.15684300 0.03662900 0.09382700
v -0.15684300 0.03662900 0.07782700
v -0.15684300 0.03662900 0.07782700
v -0.15684300 0.03662900 0.07782700
v -0.07500400 0.04300000 0.01430500
v -0.07500400 0.04300000 0.01430500
v -0.07500400 0.04300000 0.01430500
v -0.07500400 0.04300000 -0.01397900
v -0.07500400 0.04300000 -0.01397900
v -0.07500400 0.04300000 -0.01397900
v -0.08917100 0.04300000 0.00016300
v -0.08917100 0.04300000 0.00016300
v -0.08917100 0.04300000 0.00016300
v -0.07500400 0.21300000 0.01430500
v -0.07500400 0.21300000 0.01430500
v -0.07500400 0.21300000 0.01430500
v -0.07500400 0.21300000 -0.01397900
v -0.07500400 0.21300000 -0.01397900
v -0.07500400 0.21300000 -0.01397900
v -0.01383800 0.21300000 0.07536400
v -0.01383800 0.21300000 0.07536400
v -0.01383800 0.21300000 0.07536400
v 0.00032900 0.03600000 0.08950600
v 0.00032900 0.03600000 0.08950600
v 0.00032900 0.03600000 0.08950600
v 0.00032900 0.04300000 0.08950600
v 0.00032900 0.04300000 0.08950600
v 0.00032900 0.04300000 0.08950600
v -0.01383800 0.04300000 0.07536400
v -0.01383800 0.04300000 0.07536400
v -0.01383800 0.04300000 0.07536400
v -0.08917100 0.03600000 0.00016300
v -0.08917100 0.03600000 0.00016300
v -0.08917100 0.03600000 0.00016300
v 0.01449600 0.04300000 0.07536400
v 0.01449600 0.04300000 0.07536400
v 0.01449600 0.04300000 0.07536400
v 0.01449600 0.21300000 0.07536400
v 0.01449600 0.21300000 0.07536400
v 0.01449600 0.21300000 0.07536400
v 0.00032900 0.03600000 -0.08918000
v 0.00032900 0.03600000 -0.08918000
v 0.00032900 0.03600000 -0.08918000
v 0.08982900 0.03600000 0.00016300
v 0.08982900 0.03600000 0.00016300
v 0.08982900 0.03600000 0.00016300
v 0.07566200 0.04300000 0.01430500
v 0.07566200 0.04300000 0.01430500
v 0.07566200 0.04300000 0.01430500
v 0.07566200 0.21300000 0.01430500
v 0.07566200 0.21300000 0.01430500
v 0.07566200 0.21300000 0.01430500
v 0.08982900 0.04300000 0.00016300
v 0.08982900 0.04300000 0.00016300
v 0.08982900 0.04300000 0.00016300
v 0.07566200 0.04300000 -0.01397900
v 0.07566200 0.04300000 -0.01397900
v 0.07566200 0.04300000 -0.01397900
v 0.07566200 0.21300000 -0.01397900
v 0.07566200 0.21300000 -0.01397900
v 0.07566200 0.21300000 -0.01397900
v 0.01449600 0.21300000 -0.07503800
v 0.01449600 0.21300000 -0.07503800
v 0.01449600 0.21300000 -0.07503800
v -0.01383800 0.21300000 -0.07503800
v -0.01383800 0.21300000 -0.07503800
v -0.01383800 0.21300000 -0.07503800
v -0.01383800 0.04300000 -0.07503800
v -0.01383800 0.04300000 -0.07503800
v -0.01383800 0.04300000 -0.07503800
v 0.00032900 0.04300000 -0.08918000
v 0.00032900 0.04300000 -0.08918000
v 0.00032900 0.04300000 -0.08918000
v 0.01449600 0.04300000 -0.07503800
v 0.01449600 0.04300000 -0.07503800
v 0.01449600 0.04300000 -0.07503800
vn -0.00000000 0.70710000 -0.70710000
vn -0.00000000 -0.00000000 -1.00000000
vn -1.00000000 -0.00000000 -0.00000000
vn -0.00000000 0.70710000 -0.70710000
vn -1.00000000 -0.00000000 -0.00000000
vn -0.00000000 1.00000000 -0.00000000
vn -0.00000000 1.00000000 -0.00000000
vn -0.00000000 -0.00000000 -1.00000000
vn -1.00000000 -0.00000000 -0.00000000
vn -1.00000000 -0.00000000 -0.00000000
vn -0.00000000 0.70710000 -0.70710000
vn -0.00000000 -0.00000000 -1.00000000
vn -0.00000000 0.70710000 -0.70710000
vn -0.00000000 1.00000000 -0.00000000
vn -1.00000000 -0.00000000 -0.00000000
vn 1.00000000 -0.00000000 -0.00000000
vn -0.00000000 1.00000000 -0.00000000
vn -0.00000000 -0.00000000 -1.00000000
vn -1.00000000 -0.00000000 -0.00000000
vn -0.00000000 -0.00000000 -1.00000000
vn -0.00000000 -0.70710000 -0.70710000
vn -1.00000000 -0.00000000 -0.00000000
vn -0.00000000 -0.70710000 -0.70710000
vn -0.00000000 -0.00000000 -1.00000000
vn -0.00000000 -0.00000000 -1.00000000
vn 1.00000000 -0.00000000 -0.00000000
vn -0.00000000 -1.00000000 -0.00000000
vn -1.00000000 -0.00000000 -0.00000000
vn -0.00000000 -0.00000000 -1.00000000
vn -0.00000000 -1.00000000 -0.00000000
vn -0.00000000 -0.70710000 -0.70710000
vn -0.00000000 -1.00000000 -0.00000000
vn -1.00000000 -0.00000000 -0.00000000
vn -0.00000000 -0.70710000 -0.70710000
vn -1.00000000 -0.00000000 -0.00000000
vn -0.00000000 -1.00000000 -0.00000000
vn 1.00000000 -0.00000000 -0.00000000
vn -0.00000000 -0.00000000 1.00000000
vn -0.00000000 1.00000000 -0.00000000
vn -0.00000000 -0.00000000 1.00000000
vn -0.00000000 -1.00000000 -0.00000000
vn 1.00000000 -0.00000000 -0.00000000
vn -0.00000000 -1.00000000 -0.00000000
vn -0.00000000 -0.70710000 0.70710000
vn -1.00000000 -0.00000000 -0.00000000
vn -1.00000000 -0.00000000 -0.00000000
vn -0.00000000 -0.70710000 0.70710000
vn -0.00000000 -1.00000000 -0.00000000
vn -0.00000000 -1.00000000 -0.00000000
vn -0.00000000 -0.00000000 1.00000000
vn -1.00000000 -0.00000000 -0.00000000
vn -1.00000000 -0.00000000 -0.00000000
vn -0.00000000 -0.00000000 1.00000000
vn -0.00000000 -0.70710000 0.70710000
vn -0.00000000 -0.00000000 1.00000000
vn -1.00000000 -0.00000000 -0.00000000
vn -0.00000000 -0.70710000 0.70710000
vn -1.00000000 -0.00000000 -0.00000000
vn -0.00000000 1.00000000 -0.00000000
vn -0.00000000 0.70710000 0.70710000
vn -0.00000000 -0.00000000 1.00000000
vn -0.00000000 0.70710000 0.70710000
vn -1.00000000 -0.00000000 -0.00000000
vn -1.00000000 -0.00000000 -0.00000000
vn -0.00000000 0.70710000 0.70710000
vn -0.00000000 -0.00000000 1.00000000
vn -0.00000000 -0.00000000 1.00000000
vn -1.00000000 -0.00000000 -0.00000000
vn -0.00000000 1.00000000 -0.00000000
vn -1.00000000 -0.00000000 -0.00000000
vn -0.00000000 1.00000000 -0.00000000
vn -0.00000000 0.70710000 0.70710000
vn -1.00000000 -0.00000000 -0.00000000
vn -0.00000000 0.70710000 -0.70710000
vn -0.00000000 -0.00000000 -1.00000000
vn -1.00000000 -0.00000000 -0.00000000
vn -0.00000000 1.00000000 -0.00000000
vn -0.00000000 0.70710000 -0.70710000
vn -1.00000000 -0.00000000 -0.00000000
vn -0.00000000 1.00000000 -0.00000000
vn -0.00000000 -0.00000000 -1.00000000
vn -1.00000000 -0.00000000 -0.00000000
vn -0.00000000 0.70710000 -0.70710000
vn -0.00000000 -0.00000000 -1.00000000
vn -0.00000000 0.70710000 -0.70710000
vn -0.00000000 1.00000000 -0.00000000
vn -1.00000000 -0.00000000 -0.00000000
vn 1.00000000 -0.00000000 -0.00000000
vn -0.00000000 1.00000000 -0.00000000
vn -0.00000000 -0.00000000 -1.00000000
vn -1.00000000 -0.00000000 -0.00000000
vn -0.00000000 -0.00000000 -1.00000000
vn -0.00000000 -0.70710000 -0.70710000
vn -1.00000000 -0.00000000 -0.00000000
vn -0.00000000 -0.70710000 -0.70710000
vn -0.00000000 -0.00000000 -1.00000000
vn 1.00000000 -0.00000000 -0.00000000
vn -0.00000000 -0.00000000 -1.00000000
vn -0.00000000 -1.00000000 -0.00000000
vn -1.00000000 -0.00000000 -0.00000000
vn -0.00000000 -1.00000000 -0.00000000
vn -0.00000000 -0.00000000 -1.00000000
vn -0.00000000 -0.70710000 -0.70710000
vn -1.00000000 -0.00000000 -0.00000000
vn -0.00000000 -1.00000000 -0.00000000
vn -0.00000000 -1.00000000 -0.00000000
vn -1.00000000 -0.00000000 -0.00000000
vn -0.00000000 -0.70710000 -0.70710000
vn 1.00000000 -0.00000000 -0.00000000
vn -0.00000000 -0.00000000 1.00000000
vn -0.00000000 1.00000000 -0.00000000
vn 1.00000000 -0.00000000 -0.00000000
vn -0.00000000 -0.00000000 1.00000000
vn -0.00000000 -1.00000000 -0.00000000
vn -0.00000000 -0.70710000 0.70710000
vn -1.00000000 -0.00000000 -0.00000000
vn -0.00000000 -1.00000000 -0.00000000
vn -1.00000000 -0.00000000 -0.00000000
vn -0.00000000 -0.70710000 0.70710000
vn -0.00000000 -1.00000000 -0.00000000
vn -0.00000000 -1.00000000 -0.00000000
vn -0.00000000 -0.00000000 1.00000000
vn -1.00000000 -0.00000000 -0.00000000
vn -0.00000000 -0.70710000 0.70710000
vn -1.00000000 -0.00000000 -0.00000000
vn -0.00000000 -0.00000000 1.00000000
vn -0.00000000 -0.70710000 0.70710000
vn -1.00000000 -0.00000000 -0.00000000
vn -0.00000000 -0.00000000 1.00000000
vn -0.00000000 0.70710000 0.70710000
vn -1.00000000 -0.00000000 -0.00000000
vn -0.00000000 1.00000000 -0.00000000
vn -0.00000000 0.70710000 0.70710000
vn -1.00000000 -0.00000000 -0.00000000
vn -0.00000000 -0.00000000 1.00000000
vn -1.00000000 -0.00000000 -0.00000000
vn -0.00000000 -0.00000000 1.00000000
vn -0.00000000 0.70710000 0.70710000
vn -1.00000000 -0.00000000 -0.00000000
vn -0.00000000 -0.00000000 1.00000000
vn -0.00000000 1.00000000 -0.00000000
vn -0.00000000 0.70710000 0.70710000
vn -1.00000000 -0.00000000 -0.00000000
vn -0.00000000 1.00000000 -0.00000000
vn -1.00000000 -0.00000000 -0.00000000
vn -0.00000000 0.70470000 -0.70950000
vn -0.00000000 -0.00000000 -1.00000000
vn -1.00000000 -0.00000000 -0.00000000
vn -0.00000000 0.70470000 -0.70950000
vn -0.00000000 1.00000000 -0.00000000
vn -0.00000000 1.00000000 -0.00000000
vn -0.00000000 -0.00000000 -1.00000000
vn -1.00000000 -0.00000000 -0.00000000
vn -0.00000000 -0.00000000 -1.00000000
vn -0.00000000 0.70470000 -0.70950000
vn -1.00000000 -0.00000000 -0.00000000
vn -1.00000000 -0.00000000 -0.00000000
vn -0.00000000 1.00000000 -0.00000000
vn -0.00000000 0.70470000 -0.70950000
vn -0.00000000 -0.70470000 -0.70950000
vn -0.00000000 -0.00000000 -1.00000000
vn -1.00000000 -0.00000000 -0.00000000
vn -1.00000000 -0.00000000 -0.00000000
vn -0.00000000 -0.70470000 -0.70950000
vn -0.00000000 -0.00000000 -1.00000000
vn -0.00000000 -0.00000000 -1.00000000
vn 1.00000000 -0.00000000 -0.00000000
vn -0.00000000 -1.00000000 -0.00000000
vn -0.00000000 -1.00000000 -0.00000000
vn -1.00000000 -0.00000000 -0.00000000
vn -0.00000000 -0.00000000 -1.00000000
vn -0.00000000 -0.00000000 -1.00000000
vn 1.00000000 -0.00000000 -0.00000000
vn -0.00000000 1.00000000 -0.00000000
vn -0.00000000 -0.70470000 -0.70950000
vn -1.00000000 -0.00000000 -0.00000000
vn -0.00000000 -1.00000000 -0.00000000
vn -0.00000000 -0.70470000 -0.70950000
vn -1.00000000 -0.00000000 -0.00000000
vn -0.00000000 -1.00000000 -0.00000000
vn 1.00000000 -0.00000000 -0.00000000
vn -0.00000000 1.00000000 -0.00000000
vn -0.00000000 -0.00000000 1.00000000
vn -0.00000000 -1.00000000 -0.00000000
vn -0.00000000 -0.00000000 1.00000000
vn 1.00000000 -0.00000000 -0.00000000
vn -1.00000000 -0.00000000 -0.00000000
vn -0.00000000 -0.70470000 0.70950000
vn -0.00000000 -1.00000000 -0.00000000
vn -0.00000000 -1.00000000 -0.00000000
vn -1.00000000 -0.00000000 -0.00000000
vn -0.00000000 -0.70470000 0.70950000
vn -1.00000000 -0.00000000 -0.00000000
vn -0.00000000 -1.00000000 -0.00000000
vn -0.00000000 -0.00000000 1.00000000
vn -1.00000000 -0.00000000 -0.00000000
vn -0.00000000 -0.70470000 0.70950000
vn -0.00000000 -0.00000000 1.00000000
vn -1.00000000 -0.00000000 -0.00000000
vn -0.00000000 -0.70470000 0.70950000
vn -0.00000000 -0.00000000 1.00000000
vn -0.00000000 1.00000000 -0.00000000
vn -0.00000000 0.70470000 0.70950000
vn -1.00000000 -0.00000000 -0.00000000
vn -0.00000000 0.70470000 0.70950000
vn -0.00000000 -0.00000000 1.00000000
vn -1.00000000 -0.00000000 -0.00000000
vn -0.00000000 -0.00000000 1.00000000
vn -1.00000000 -0.00000000 -0.00000000
vn -0.00000000 0.70470000 0.70950000
vn -0.00000000 1.00000000 -0.00000000
vn -0.00000000 -0.00000000 1.00000000
vn -1.00000000 -0.00000000 -0.00000000
vn -1.00000000 -0.00000000 -0.00000000
vn -0.00000000 1.00000000 -0.00000000
vn -0.00000000 0.70470000 0.70950000
vn -0.00000000 1.00000000 -0.00000000
vn -1.00000000 -0.00000000 -0.00000000
vn -0.70650000 -0.00000000 0.70770000
vn -0.00000000 1.00000000 -0.00000000
vn -1.00000000 -0.00000000 -0.00000000
vn -0.70650000 -0.00000000 -0.70770000
vn -0.70650000 -0.00000000 -0.70770000
vn -0.70650000 -0.00000000 0.70770000
vn -0.00000000 1.00000000 -0.00000000
vn -1.00000000 -0.00000000 -0.00000000
vn -0.70650000 -0.00000000 0.70770000
vn -0.00000000 1.00000000 -0.00000000
vn -0.00000000 1.00000000 -0.00000000
vn -0.70650000 -0.00000000 -0.70770000
vn -1.00000000 -0.00000000 -0.00000000
vn -0.00000000 -0.00000000 1.00000000
vn -0.70650000 -0.00000000 0.70770000
vn -0.00000000 1.00000000 -0.00000000
vn -0.70650000 -0.00000000 0.70770000
vn -0.00000000 -1.00000000 -0.00000000
vn 0.70650000 -0.00000000 0.70770000
vn -0.70650000 -0.00000000 0.70770000
vn -0.00000000 1.00000000 -0.00000000
vn 0.70650000 -0.00000000 0.70770000
vn -0.70650000 -0.00000000 0.70770000
vn -0.00000000 1.00000000 -0.00000000
vn -0.00000000 -0.00000000 1.00000000
vn -0.70650000 -0.00000000 -0.70770000
vn -0.00000000 -1.00000000 -0.00000000
vn -0.70650000 -0.00000000 0.70770000
vn -0.00000000 -0.00000000 1.00000000
vn -0.00000000 1.00000000 -0.00000000
vn 0.70650000 -0.00000000 0.70770000
vn 0.70650000 -0.00000000 0.70770000
vn -0.00000000 1.00000000 -0.00000000
vn -0.00000000 -0.00000000 1.00000000
vn -0.00000000 -1.00000000 -0.00000000
vn 0.70650000 -0.00000000 -0.70770000
vn -0.70650000 -0.00000000 -0.70770000
vn 0.70650000 -0.00000000 0.70770000
vn 0.70650000 -0.00000000 -0.70770000
vn -0.00000000 -1.00000000 -0.00000000
vn 0.70650000 -0.00000000 0.70770000
vn 1.00000000 -0.00000000 -0.00000000
vn -0.00000000 1.00000000 -0.00000000
vn 1.00000000 -0.00000000 -0.00000000
vn -0.00000000 1.00000000 -0.00000000
vn 0.70650000 -0.00000000 0.70770000
vn 0.70650000 -0.00000000 -0.70770000
vn -0.00000000 1.00000000 -0.00000000
vn 0.70650000 -0.00000000 0.70770000
vn -0.00000000 1.00000000 -0.00000000
vn 1.00000000 -0.00000000 -0.00000000
vn 0.70650000 -0.00000000 -0.70770000
vn 0.70650000 -0.00000000 -0.70770000
vn 1.00000000 -0.00000000 -0.00000000
vn -0.00000000 1.00000000 -0.00000000
vn -0.00000000 1.00000000 -0.00000000
vn -0.00000000 -0.00000000 -1.00000000
vn 0.70650000 -0.00000000 -0.70770000
vn -0.70650000 -0.00000000 -0.70770000
vn -0.00000000 -0.00000000 -1.00000000
vn -0.00000000 1.00000000 -0.00000000
vn -0.00000000 -0.00000000 -1.00000000
vn -0.00000000 1.00000000 -0.00000000
vn -0.70650000 -0.00000000 -0.70770000
vn -0.70650000 -0.00000000 -0.70770000
vn 0.70650000 -0.00000000 -0.70770000
vn -0.00000000 1.00000000 -0.00000000
vn -0.00000000 1.00000000 -0.00000000
vn -0.00000000 -0.00000000 -1.00000000
vn 0.70650000 -0.00000000 -0.70770000
f 3//3 5//5 9//9
f 11//11 13//13 4//4
f 4//4 1//1 11//11
f 18//18 20//20 2//2
f 12//12 2//2 20//20
f 20//20 24//24 12//12
f 25//25 29//29 20//20
f 20//20 18//18 25//25
f 2//2 8//8 18//18
f 21//21 31//31 34//34
f 34//34 23//23 21//21
f 33//33 19//19 28//28
f 16//16 37//37 42//42
f 42//42 26//26 16//16
f 27//27 43//43 32//32
f 36//36 32//32 43//43
f 43//43 48//48 36//36
f 41//41 49//49 43//43
f 43//43 27//27 41//41
f 32//32 30//30 27//27
f 54//54 57//57 47//47
f 47//47 44//44 54//54
f 52//52 45//45 51//51
f 35//35 15//15 10//10
f 58//58 46//46 56//56
f 10//10 22//22 35//35
f 56//56 63//63 58//58
f 58//58 15//15 46//46
f 35//35 46//46 15//15
f 40//40 66//66 53//53
f 55//55 53//53 66//66
f 66//66 61//61 55//55
f 38//38 67//67 66//66
f 66//66 40//40 38//38
f 53//53 50//50 40//40
f 39//39 6//6 71//71
f 59//59 71//71 6//6
f 6//6 14//14 59//59
f 17//17 7//7 6//6
f 6//6 39//39 17//17
f 71//71 69//69 39//39
f 62//62 65//65 72//72
f 72//72 60//60 62//62
f 70//70 64//64 68//68
f 73//73 76//76 79//79
f 83//83 85//85 78//78
f 78//78 74//74 83//83
f 90//90 92//92 75//75
f 84//84 75//75 92//92
f 92//92 96//96 84//84
f 98//98 102//102 92//92
f 92//92 90//90 98//98
f 75//75 81//81 90//90
f 93//93 103//103 108//108
f 108//108 95//95 93//93
f 104//104 91//91 100//100
f 88//88 109//109 112//112
f 112//112 97//97 88//88
f 99//99 117//117 105//105
f 106//106 105//105 117//117
f 117//117 120//120 106//106
f 114//114 121//121 117//117
f 117//117 99//99 114//114
f 105//105 101//101 99//99
f 124//124 127//127 119//119
f 119//119 115//115 124//124
f 125//125 116//116 123//123
f 131//131 118//118 128//128
f 118//118 87//87 82//82
f 128//128 134//134 131//131
f 82//82 94//94 118//118
f 94//94 107//107 118//118
f 131//131 87//87 118//118
f 113//113 137//137 126//126
f 129//129 126//126 137//137
f 137//137 135//135 129//129
f 110//110 140//140 137//137
f 137//137 113//113 110//110
f 126//126 122//122 113//113
f 111//111 77//77 144//144
f 132//132 144//144 77//77
f 77//77 86//86 132//132
f 89//89 80//80 77//77
f 77//77 111//111 89//89
f 144//144 141//141 111//111
f 133//133 138//138 142//142
f 142//142 130//130 133//133
f 143//143 136//136 139//139
f 145//145 148//148 153//153
f 149//149 146//146 155//155
f 155//155 159//159 149//149
f 147//147 161//161 165//165
f 166//166 171//171 161//161
f 172//172 166//166 147//147
f 161//161 147//147 166//166
f 165//165 154//154 147//147
f 147//147 152//152 172//172
f 160//160 175//175 178//178
f 178//178 164//164 160//160
f 176//176 162//162 170//170
f 173//173 181//181 186//186
f 186//186 167//167 173//173
f 168//168 189//189 177//177
f 180//180 177//177 189//189
f 189//189 190//190 180//180
f 184//184 194//194 189//189
f 189//189 168//168 184//184
f 177//177 169//169 168//168
f 197//197 200//200 192//192
f 192//192 188//188 197//197
f 196//196 187//187 193//193
f 191//191 157//157 156//156
f 204//204 191//191 199//199
f 156//156 163//163 191//191
f 199//199 207//207 204//204
f 204//204 157//157 191//191
f 163//163 179//179 191//191
f 185//185 208//208 198//198
f 201//201 198//198 208//208
f 208//208 206//206 201//201
f 183//183 212//212 208//208
f 208//208 185//185 183//183
f 198//198 195//195 185//185
f 182//182 150//150 215//215
f 202//202 215//215 150//150
f 150//150 158//158 202//202
f 174//174 151//151 150//150
f 150//150 182//182 174//174
f 215//215 211//211 182//182
f 205//205 210//210 216//216
f 216//216 203//203 205//205
f 214//214 209//209 213//213
f 217//217 220//220 225//225
f 221//221 218//218 226//226
f 226//226 231//231 221//221
f 233//233 227//227 219//219
f 235//235 238//238 241//241
f 246//246 235//235 219//219
f 241//241 219//219 235//235
f 219//219 241//241 233//233
f 219//219 224//224 246//246
f 247//247 252//252 232//232
f 232//232 243//243 247//247
f 248//248 242//242 239//239
f 236//236 245//245 253//253
f 253//253 258//258 236//236
f 237//237 259//259 249//249
f 249//249 259//259 264//264
f 264//264 250//250 249//249
f 256//256 267//267 259//259
f 259//259 237//237 256//256
f 249//249 240//240 237//237
f 260//260 269//269 272//272
f 272//272 262//262 260//260
f 268//268 261//261 266//266
f 251//251 273//273 274//274
f 279//279 228//228 234//234
f 251//251 263//263 273//273
f 279//279 229//229 228//228
f 234//234 251//251 279//279
f 274//274 279//279 251//251
f 255//255 222//222 282//282
f 277//277 282//282 222//222
f 222//222 230//230 277//277
f 244//244 223//223 222//222
f 222//222 255//255 244//244
f 282//282 283//283 255//255
f 276//276 271//271 270//270
f 254//254 284//284 288//288
f 257//257 254//254 270//270
f 288//288 270//270 254//254
f 270//270 288//288 276//276
f 270//270 265//265 257//257
f 287//287 280//280 278//278
f 278//278 275//275 287//287
f 281//281 286//286 285//285

