mtllib material.mtl
usemtl Plastic_Blue.001
v 0.00000300 0.16681300 -0.06202500
v 0.00000300 0.15872300 -0.06610100
v -0.01189000 0.16586500 -0.06121300
v -0.01138200 0.15796400 -0.06534200
v 0.00000300 0.15016200 -0.06934200
v -0.01060000 0.14947100 -0.06871200
v -0.00946100 0.14074300 -0.07124700
v 0.00000300 0.14137300 -0.07175500
v -0.00794400 0.13207600 -0.07326500
v 0.00000300 0.13253900 -0.07363000
v -0.00621300 0.12359100 -0.07470700
v 0.00000300 0.12384100 -0.07495000
v -0.00464200 0.11682900 -0.07564800
v 0.00000300 0.11712500 -0.07578500
v -0.00351900 0.11254000 -0.07621800
v 0.00000300 0.11191100 -0.07639200
v 0.00352400 0.11254000 -0.07621800
v 0.00464700 0.11682900 -0.07564800
v 0.00621100 0.12359100 -0.07470700
v 0.00794100 0.13207600 -0.07326500
v 0.00945900 0.14074300 -0.07124700
v 0.01059800 0.14947100 -0.06871200
v 0.01137900 0.15796400 -0.06534200
v 0.01188800 0.16586500 -0.06121300
v 0.01225200 0.17305200 -0.05614300
v 0.01242700 0.17926000 -0.04994300
v 0.00000300 0.17401600 -0.05679600
v -0.01225400 0.17305200 -0.05614300
v -0.02401800 0.16982600 -0.05427600
v -0.02319100 0.16311000 -0.05942200
v -0.02200700 0.15561100 -0.06358900
v -0.02029200 0.14732300 -0.06713300
v -0.01796900 0.13894400 -0.06998700
v -0.01488000 0.13055800 -0.07247600
v -0.01129100 0.12207300 -0.07432800
v -0.00802700 0.11490100 -0.07561000
v -0.00474100 0.10979300 -0.07646100
v 0.00000300 0.10870000 -0.07675700
v 0.00473800 0.10979300 -0.07646100
v 0.00802500 0.11490100 -0.07561000
v 0.01128800 0.12207300 -0.07432800
v 0.01487800 0.13055800 -0.07247600
v 0.01796700 0.13894400 -0.06998700
v 0.02029700 0.14732300 -0.06713300
v 0.02201200 0.15561100 -0.06358900
v 0.02318900 0.16311000 -0.05942200
v 0.02401600 0.16982600 -0.05427600
v 0.02454700 0.17577600 -0.04827300
v 0.02476700 0.18080800 -0.04129800
v 0.02466900 0.18988500 -0.01525100
v 0.02469100 0.18768400 -0.02462400
v 0.01226700 0.19101600 -0.02530700
v 0.01235100 0.18811700 -0.03428600
v 0.02475200 0.18469400 -0.03334400
v 0.01244200 0.18424600 -0.04258900
v 0.00000300 0.18023200 -0.05055800
v -0.01242900 0.17926000 -0.04994300
v -0.02454200 0.17577600 -0.04827300
v -0.03686000 0.16958300 -0.04601100
v -0.03545600 0.16421800 -0.05176400
v -0.03348200 0.15809300 -0.05686400
v -0.03127400 0.15155100 -0.06108400
v -0.02796500 0.14371100 -0.06535700
v -0.02416200 0.13574200 -0.06879500
v -0.01959300 0.12718100 -0.07178500
v -0.01427300 0.11780000 -0.07440400
v -0.01016000 0.11084800 -0.07587600
v -0.00531800 0.10619600 -0.07671100
v 0.00000300 0.10520900 -0.07693900
v 0.00532300 0.10619600 -0.07671100
v 0.01015700 0.11084800 -0.07587600
v 0.01427100 0.11780000 -0.07440400
v 0.01959100 0.12718100 -0.07178500
v 0.02416800 0.13574200 -0.06879500
v 0.02796200 0.14371100 -0.06535700
v 0.03127100 0.15155100 -0.06108400
v 0.03348000 0.15809300 -0.05686400
v 0.03546100 0.16421800 -0.05176400
v 0.03686500 0.16958300 -0.04601100
v 0.03776800 0.17441800 -0.03912800
v 0.03811700 0.17831100 -0.03163700
v 0.03806400 0.18156000 -0.02309100
v 0.03747200 0.18429200 -0.01369500
v 0.02454000 0.19174500 -0.00546100
v 0.03628100 0.18683400 -0.00347200
v 0.02378100 0.19323200 0.00444400
v 0.03392800 0.18903500 0.00706200
v 0.03018600 0.19201800 0.01714100
v 0.02209600 0.19478100 0.01402900
v 0.01940900 0.19614700 0.02255200
v 0.02484300 0.19474300 0.02542900
v 0.01567500 0.19735400 0.02687100
v 0.01817200 0.19708800 0.03097700
v 0.00949000 0.19853000 0.02875300
v 0.00986900 0.19877300 0.03345100
v 0.00000300 0.19919800 0.02887400
v 0.00000300 0.19949400 0.03405100
v -0.00987100 0.19877300 0.03345100
v -0.00949200 0.19853000 0.02875300
v 0.00000300 0.19856800 0.02068500
v 0.01038500 0.19793800 0.02105700
v 0.01144000 0.19683700 0.01239800
v 0.01210000 0.19599500 0.00316900
v 0.01229000 0.19472800 -0.00628000
v 0.01226700 0.19305800 -0.01586600
v 0.00000300 0.19210200 -0.02560300
v 0.00000300 0.18926300 -0.03471100
v 0.00000300 0.18534700 -0.04319600
v -0.01243700 0.18424600 -0.04258900
v -0.02477000 0.18080800 -0.04129800
v -0.03777000 0.17441800 -0.03912800
v -0.04849400 0.16580400 -0.03573500
v -0.04712800 0.16137200 -0.04236100
v -0.04528400 0.15720500 -0.04784000
v -0.04257500 0.15210500 -0.05339600
v -0.03952400 0.14695100 -0.05801000
v -0.03475000 0.13966500 -0.06337600
v -0.02966500 0.13222000 -0.06760400
v -0.02333500 0.12368900 -0.07145200
v -0.01562400 0.11324600 -0.07476000
v -0.01096400 0.10702300 -0.07613400
v -0.00548500 0.10324300 -0.07699200
v 0.00000300 0.10236300 -0.07725000
v 0.00548200 0.10324300 -0.07699200
v 0.01096200 0.10702300 -0.07613400
v 0.01562900 0.11324600 -0.07476000
v 0.02333300 0.12368900 -0.07145200
v 0.02966300 0.13222000 -0.06760400
v 0.03474800 0.13966500 -0.06337600
v 0.03952900 0.14695100 -0.05801000
v 0.04257200 0.15210500 -0.05339600
v 0.04528200 0.15720500 -0.04784000
v 0.04713400 0.16137200 -0.04236100
v 0.04849200 0.16580400 -0.03573500
v 0.04919000 0.16946200 -0.02914000
v 0.04925900 0.17327200 -0.02078400
v 0.04863600 0.17684700 -0.01173000
v 0.04673100 0.18073200 -0.00105900
v 0.04334600 0.18474000 0.00987800
v 0.03756300 0.18927800 0.02061700
v 0.02954900 0.19360400 0.02880600
v 0.02028200 0.19696600 0.03435400
v 0.01058200 0.19903800 0.03754200
v 0.00000300 0.19979700 0.03874100
v -0.01058500 0.19903800 0.03754200
v -0.02028400 0.19696600 0.03435400
v -0.01816700 0.19708800 0.03097700
v -0.01567000 0.19735400 0.02687100
v -0.01038700 0.19793800 0.02105700
v 0.00000300 0.19776300 0.01188200
v 0.00000300 0.19684500 0.00275100
v 0.00000300 0.19576000 -0.00650800
v 0.00000300 0.19423400 -0.01610100
v -0.01227000 0.19305800 -0.01586600
v -0.01227000 0.19101600 -0.02530700
v -0.01235300 0.18811700 -0.03428600
v -0.02475400 0.18469400 -0.03334400
v -0.03812000 0.17831100 -0.03163700
v -0.04919300 0.16946200 -0.02914000
v -0.05204600 0.16926500 -0.01960000
v -0.05186400 0.16560600 -0.02772100
v -0.05116600 0.16213800 -0.03421700
v -0.04983000 0.15797900 -0.04038000
v -0.04797100 0.15384300 -0.04569300
v -0.04534500 0.14892500 -0.05092900
v -0.04237000 0.14382500 -0.05543000
v -0.03782400 0.13659900 -0.06078100
v -0.03298100 0.12916900 -0.06519800
v -0.02690200 0.12040300 -0.06937200
v -0.01897100 0.10954300 -0.07315900
v -0.01413700 0.10314500 -0.07466200
v -0.00700200 0.09835600 -0.07594400
v 0.00000300 0.09724000 -0.07642300
v 0.00700000 0.09835600 -0.07594400
v 0.01413400 0.10314500 -0.07466200
v 0.01896900 0.10954300 -0.07315900
v 0.02690000 0.12040300 -0.06937200
v 0.03297900 0.12916900 -0.06519800
v 0.03782100 0.13659900 -0.06078100
v 0.04236700 0.14382500 -0.05543000
v 0.04534200 0.14892500 -0.05092900
v 0.04797600 0.15384300 -0.04569300
v 0.04983500 0.15797900 -0.04038000
v 0.05116400 0.16213800 -0.03421700
v 0.05186200 0.16560600 -0.02772100
v 0.05204400 0.16926500 -0.01960000
v 0.05139100 0.17280900 -0.01037100
v 0.04966100 0.17673300 0.00047400
v 0.04642800 0.18104400 0.01188900
v 0.04063700 0.18614400 0.02342500
v 0.03215900 0.19126700 0.03260900
v 0.02207300 0.19535000 0.03903700
v 0.01141000 0.19793000 0.04269500
v 0.00000300 0.19886400 0.04405400
v -0.01141200 0.19793000 0.04269500
v -0.02207500 0.19535000 0.03903700
v -0.03216200 0.19126700 0.03260900
v -0.02955100 0.19360400 0.02880600
v -0.02484500 0.19474300 0.02542900
v -0.01941100 0.19614700 0.02255200
v -0.02209800 0.19478100 0.01402900
v -0.01144200 0.19683700 0.01239800
v -0.01210300 0.19599500 0.00316900
v -0.01229200 0.19472800 -0.00628000
v -0.02466300 0.18988500 -0.01525100
v -0.02469400 0.18768400 -0.02462400
v -0.03806600 0.18156000 -0.02309100
v -0.04925300 0.17327200 -0.02078400
v -0.05139400 0.17280900 -0.01037100
v -0.05077100 0.17291500 0.00178000
v -0.05249400 0.16909800 -0.00910400
v -0.05280500 0.16554600 -0.01843900
v -0.05227400 0.16210800 -0.02621800
v -0.05135600 0.15885200 -0.03251700
v -0.05002700 0.15506500 -0.03810300
v -0.04833500 0.15098100 -0.04324100
v -0.04611100 0.14631400 -0.04823500
v -0.04349300 0.14124400 -0.05274300
v -0.03937200 0.13411700 -0.05801800
v -0.03468900 0.12682400 -0.06238200
v -0.02908800 0.11805800 -0.06653300
v -0.02141500 0.10736400 -0.07015400
v -0.01665600 0.10099700 -0.07166400
v -0.00817900 0.09530500 -0.07324300
v 0.00000300 0.09393900 -0.07394800
v 0.00817700 0.09530500 -0.07325000
v 0.01665400 0.10099700 -0.07166400
v 0.02142000 0.10736400 -0.07015400
v 0.02908600 0.11805800 -0.06653300
v 0.03468700 0.12682400 -0.06238200
v 0.03937000 0.13411800 -0.05801800
v 0.04349100 0.14124400 -0.05275100
v 0.04611700 0.14631400 -0.04823500
v 0.04833300 0.15098100 -0.04324900
v 0.05002500 0.15506500 -0.03810300
v 0.05136100 0.15885200 -0.03251700
v 0.05227900 0.16210800 -0.02621800
v 0.05280300 0.16554600 -0.01843900
v 0.05249900 0.16909800 -0.00910400
v 0.05076900 0.17291500 0.00178000
v 0.04739900 0.17719600 0.01349800
v 0.04149500 0.18249300 0.02546700
v 0.03249300 0.18776800 0.03518100
v 0.02217900 0.19197300 0.04184500
v 0.01147800 0.19466700 0.04560900
v 0.00000300 0.19569900 0.04708900
v -0.01147300 0.19466700 0.04560900
v -0.02218200 0.19197300 0.04184500
v -0.03249600 0.18776800 0.03518100
v -0.04149700 0.18249300 0.02546700
v -0.04063200 0.18614400 0.02342500
v -0.03756500 0.18927800 0.02061700
v -0.03018800 0.19201800 0.01714100
v -0.02377500 0.19323200 0.00444400
v -0.02454200 0.19174500 -0.00546100
v -0.03747400 0.18429200 -0.01369500
v -0.04863900 0.17684700 -0.01173000
v -0.04966300 0.17673300 0.00047400
v -0.04739400 0.17719600 0.01349800
v -0.04643000 0.18104400 0.01188900
v -0.04334900 0.18474000 0.00987800
v -0.03393000 0.18903500 0.00706200
v -0.03627500 0.18683400 -0.00347200
v -0.04673400 0.18073200 -0.00105900
v 0.00905200 0.16073800 0.70045500
v 0.00000200 0.16150100 0.70102600
v 0.00860400 0.15442800 0.70316200
v 0.00000200 0.15505000 0.70368800
v 0.00795400 0.14761400 0.70524100
v 0.00000200 0.14821300 0.70567200
v 0.00000200 0.14120300 0.70704000
v 0.00704100 0.14064200 0.70669800
v 0.00000200 0.13422000 0.70803100
v 0.00586400 0.13378300 0.70780700
v 0.00454700 0.12712500 0.70854700
v 0.00000200 0.12740000 0.70868200
v 0.00337600 0.12188000 0.70901800
v 0.00000200 0.12218300 0.70907400
v 0.00255200 0.11857900 0.70930400
v 0.00000200 0.11817000 0.70938200
v -0.00254800 0.11857900 0.70930400
v -0.00337700 0.12188000 0.70901800
v -0.00454800 0.12712500 0.70854700
v -0.00586500 0.13378300 0.70780700
v -0.00704200 0.14064200 0.70669800
v -0.00795600 0.14761400 0.70524100
v -0.00860600 0.15442800 0.70316200
v -0.00905400 0.16073800 0.70045500
v 0.00000200 0.16716100 0.69737300
v 0.00938300 0.16640400 0.69692400
v 0.01888200 0.16853900 0.69115800
v 0.01842200 0.16394400 0.69553400
v 0.01771100 0.15862600 0.69912100
v 0.01671300 0.15260700 0.70186100
v 0.01530700 0.14592700 0.70407500
v 0.01344600 0.13920800 0.70577300
v 0.01103600 0.13253900 0.70723600
v 0.00829600 0.12588700 0.70826100
v 0.00584700 0.12033900 0.70896700
v 0.00343200 0.11644400 0.70943300
v 0.00000200 0.11569900 0.70956700
v -0.00342800 0.11644400 0.70943300
v -0.00584900 0.12033900 0.70896700
v -0.00829200 0.12588700 0.70826100
v -0.01103800 0.13253900 0.70723600
v -0.01344200 0.13920800 0.70577300
v -0.01530800 0.14592700 0.70407500
v -0.01671500 0.15260700 0.70186100
v -0.01771200 0.15862600 0.69912100
v -0.01842400 0.16394400 0.69553400
v -0.00938500 0.16640400 0.69692400
v 0.00000200 0.17191300 0.69278300
v 0.00956200 0.17116800 0.69237400
v 0.01910100 0.17226600 0.68589600
v 0.00765100 0.18337300 0.62873400
v 0.00736000 0.18327800 0.63220300
v 0.01404600 0.18217400 0.63063400
v 0.01212900 0.18244800 0.63365500
v 0.01917300 0.18055400 0.63479800
v 0.01500400 0.18165300 0.63689900
v 0.02326400 0.17875500 0.64104600
v 0.01707200 0.18085700 0.64331000
v 0.01836100 0.17998800 0.65058400
v 0.02612800 0.17685000 0.64871300
v 0.02793300 0.17558900 0.65679900
v 0.01895500 0.17922100 0.65816700
v 0.02886300 0.17408700 0.66470100
v 0.01905000 0.17819500 0.66572100
v 0.01907300 0.17690600 0.67299500
v 0.02932200 0.17239500 0.67198100
v 0.01910600 0.17497300 0.67976500
v 0.02936700 0.17023700 0.67858800
v 0.02908700 0.16746900 0.68431500
v 0.02835800 0.16382600 0.68944800
v 0.02722100 0.15964000 0.69360100
v 0.02561800 0.15473600 0.69713700
v 0.02381900 0.14944600 0.69994500
v 0.02115700 0.14309700 0.70269600
v 0.01813100 0.13668000 0.70483200
v 0.01455600 0.12986600 0.70664700
v 0.01048200 0.12251900 0.70822200
v 0.00739400 0.11716700 0.70908500
v 0.00384600 0.11356900 0.70962900
v 0.00000200 0.11290800 0.70978000
v -0.00384800 0.11356900 0.70962900
v -0.00739500 0.11716700 0.70908500
v -0.01048300 0.12251900 0.70822200
v -0.01455700 0.12986600 0.70664700
v -0.01813300 0.13668000 0.70483200
v -0.02115900 0.14309700 0.70269600
v -0.02382100 0.14944600 0.69994500
v -0.02562000 0.15473600 0.69713700
v -0.02722300 0.15964000 0.69360100
v -0.02835500 0.16382600 0.68944800
v -0.01888400 0.16853900 0.69115800
v -0.00956400 0.17116800 0.69237400
v 0.00000200 0.17566200 0.68718400
v 0.00960200 0.17482100 0.68679200
v 0.00955100 0.17748300 0.68035900
v 0.00950100 0.17932100 0.67337000
v 0.00950100 0.18049300 0.66604000
v 0.00952300 0.18139500 0.65864900
v 0.00937700 0.18202300 0.65141900
v 0.00886200 0.18238700 0.64443100
v 0.00804900 0.18299800 0.63793100
v 0.00000200 0.18376500 0.63200100
v 0.00000200 0.18390000 0.62817400
v -0.00735600 0.18327800 0.63220300
v -0.00764800 0.18337300 0.62873400
v -0.00824200 0.18344600 0.62527100
v 0.00000200 0.18401200 0.62435200
v 0.00824000 0.18344600 0.62527100
v 0.01586700 0.18188200 0.62777000
v 0.02311900 0.17937700 0.63210200
v 0.02921000 0.17630100 0.63821100
v 0.03363700 0.17318500 0.64638100
v 0.03626600 0.17056800 0.65495600
v 0.03779000 0.16816900 0.66318800
v 0.03849600 0.16581600 0.67036100
v 0.03841200 0.16336100 0.67663800
v 0.03788500 0.16073300 0.68174900
v 0.03669200 0.15741500 0.68666300
v 0.03508900 0.15401400 0.69058600
v 0.03285300 0.14987200 0.69435800
v 0.03042600 0.14556300 0.69732800
v 0.02663800 0.13963400 0.70090300
v 0.02256900 0.13357000 0.70381200
v 0.01773300 0.12651500 0.70614300
v 0.01190500 0.11827700 0.70828900
v 0.00828500 0.11347400 0.70927600
v 0.00397000 0.11062100 0.70983600
v 0.00000200 0.11011700 0.70999300
v -0.00397100 0.11062100 0.70983600
v -0.00828600 0.11347400 0.70927600
v -0.01190700 0.11827700 0.70828900
v -0.01773500 0.12651500 0.70614300
v -0.02257100 0.13357000 0.70381200
v -0.02664000 0.13963400 0.70090300
v -0.03042800 0.14556300 0.69732800
v -0.03285500 0.14987200 0.69435800
v -0.03509100 0.15401400 0.69058600
v -0.03669300 0.15741500 0.68666300
v -0.03788700 0.16073300 0.68174900
v -0.02908900 0.16746900 0.68431500
v -0.01909700 0.17226600 0.68589600
v -0.00960300 0.17482100 0.68679200
v 0.00000200 0.17834100 0.68060500
v 0.00000200 0.18012800 0.67350500
v 0.00000200 0.18135600 0.66611900
v 0.00000200 0.18214600 0.65871000
v 0.00000200 0.18265000 0.65162700
v 0.00000200 0.18307600 0.64470600
v 0.00000200 0.18345700 0.63809300
v -0.00805100 0.18299800 0.63793100
v -0.01212500 0.18244800 0.63365500
v -0.01404700 0.18217400 0.63063400
v -0.01586300 0.18188200 0.62777000
v -0.01708500 0.18054300 0.62452600
v -0.00881300 0.18244300 0.62174000
v 0.00000200 0.18309900 0.62066400
v 0.00881700 0.18244300 0.62174000
v 0.01708300 0.18054300 0.62452600
v 0.02487300 0.17758400 0.62941200
v 0.03130100 0.17399200 0.63624900
v 0.03573300 0.17051700 0.64499200
v 0.03824400 0.16768700 0.65384600
v 0.03962800 0.16518800 0.66217900
v 0.04025000 0.16280100 0.66937500
v 0.04018300 0.16035700 0.67549400
v 0.03957200 0.15779600 0.68043200
v 0.03843400 0.15464100 0.68495400
v 0.03687700 0.15132900 0.68875900
v 0.03477500 0.14738400 0.69239100
v 0.03246600 0.14320300 0.69543400
v 0.02886300 0.13733000 0.69904300
v 0.02497900 0.13129500 0.70204100
v 0.02030500 0.12416600 0.70474200
v 0.01429800 0.11570400 0.70719600
v 0.01052600 0.11079500 0.70816000
v 0.00505100 0.10723100 0.70890600
v 0.00000200 0.10654700 0.70922000
v -0.00504700 0.10723100 0.70890600
v -0.01052800 0.11079500 0.70816000
v -0.01430000 0.11570400 0.70719600
v -0.02030100 0.12416600 0.70474200
v -0.02498100 0.13129500 0.70204100
v -0.02885900 0.13733000 0.69904300
v -0.03246800 0.14320300 0.69543400
v -0.03477700 0.14738400 0.69239100
v -0.03687300 0.15132900 0.68875900
v -0.03843600 0.15464100 0.68495400
v -0.03957400 0.15779600 0.68043200
v -0.04018500 0.16035700 0.67549400
v -0.04025200 0.16280100 0.66937500
v -0.03841400 0.16336100 0.67663800
v -0.02936300 0.17023700 0.67858800
v -0.01910800 0.17497300 0.67976500
v -0.00955300 0.17748300 0.68035900
v -0.00949700 0.17932100 0.67337000
v -0.00950200 0.18049300 0.66604000
v -0.00952500 0.18139500 0.65864900
v -0.00937400 0.18202300 0.65141900
v -0.00886400 0.18238700 0.64443100
v -0.01706800 0.18085700 0.64331000
v -0.01500000 0.18165300 0.63689900
v -0.01917500 0.18055400 0.63479800
v -0.02311500 0.17937700 0.63210200
v -0.02486900 0.17758400 0.62941200
v -0.02546800 0.17557800 0.62736100
v -0.01745500 0.17868300 0.62234600
v -0.00906000 0.18070600 0.61946500
v 0.00000200 0.18147300 0.61818200
v 0.00905800 0.18070600 0.61946500
v 0.01745900 0.17868800 0.62234600
v 0.02547200 0.17558400 0.62736100
v 0.03222000 0.17168900 0.63474200
v 0.03656800 0.16798400 0.64390400
v 0.03918000 0.16514900 0.65291000
v 0.04059200 0.16266600 0.66128300
v 0.04113600 0.16022300 0.66847800
v 0.04076000 0.15777400 0.67440200
v 0.04001500 0.15530800 0.67915400
v 0.03894400 0.15233800 0.68325600
v 0.03749300 0.14912700 0.68698300
v 0.03568300 0.14533300 0.69049100
v 0.03349200 0.14122500 0.69357900
v 0.02992800 0.13553100 0.69705300
v 0.02614500 0.12964200 0.69991100
v 0.02157800 0.12270900 0.70257300
v 0.01580500 0.11431400 0.70500000
v 0.01224700 0.10937200 0.70607600
v 0.00598700 0.10507900 0.70719600
v 0.00000200 0.10418800 0.70770100
v -0.00598900 0.10507900 0.70719600
v -0.01224800 0.10937200 0.70607600
v -0.01580100 0.11431400 0.70500000
v -0.02157900 0.12270900 0.70257300
v -0.02614100 0.12964200 0.69990600
v -0.02992400 0.13553100 0.69705300
v -0.03348800 0.14122500 0.69357900
v -0.03567900 0.14533300 0.69049100
v -0.03749500 0.14912700 0.68698300
v -0.03894600 0.15233800 0.68325600
v -0.04001700 0.15530800 0.67915400
v -0.04075600 0.15777400 0.67440200
v -0.04113700 0.16022300 0.66847800
v -0.04058800 0.16266600 0.66128300
v -0.03917600 0.16514900 0.65291000
v -0.03963000 0.16518800 0.66217900
v -0.03849800 0.16581600 0.67036100
v -0.02932400 0.17239500 0.67198100
v -0.01906900 0.17690600 0.67299500
v -0.01905200 0.17819500 0.66572100
v -0.01895700 0.17922100 0.65816700
v -0.01836200 0.17998800 0.65058400
v -0.02326600 0.17875500 0.64104600
v -0.02920600 0.17630100 0.63821100
v -0.03130200 0.17399200 0.63624900
v -0.03221600 0.17168900 0.63474200
v -0.03573500 0.17051700 0.64499200
v -0.03656400 0.16798400 0.64390400
v -0.03824000 0.16768700 0.65384600
v -0.03778600 0.16816900 0.66318800
v -0.02885900 0.17408700 0.66470100
v -0.02793400 0.17558900 0.65679900
v -0.02613000 0.17685000 0.64871300
v -0.03363400 0.17318500 0.64638100
v -0.03626700 0.17056800 0.65495600
vn -0.00000000 0.51880000 -0.85490000
vn -0.00000000 0.40540000 -0.91410000
vn -0.17800000 0.50790000 -0.84280000
vn -0.16110000 0.40180000 -0.90140000
vn -0.00000000 0.31410000 -0.94940000
vn -0.14820000 0.30780000 -0.93980000
vn -0.13250000 0.23430000 -0.96310000
vn -0.00000000 0.23930000 -0.97090000
vn -0.10800000 0.18050000 -0.97760000
vn -0.00000000 0.18170000 -0.98330000
vn -0.08330000 0.13750000 -0.98700000
vn -0.00000000 0.13840000 -0.99040000
vn -0.06280000 0.12320000 -0.99040000
vn -0.00000000 0.12140000 -0.99260000
vn -0.04480000 0.11410000 -0.99250000
vn -0.00000000 0.11400000 -0.99350000
vn 0.04490000 0.11410000 -0.99250000
vn 0.06290000 0.12320000 -0.99040000
vn 0.08340000 0.13760000 -0.98700000
vn 0.10800000 0.18050000 -0.97760000
vn 0.13250000 0.23420000 -0.96310000
vn 0.14820000 0.30780000 -0.93980000
vn 0.16110000 0.40190000 -0.90140000
vn 0.17800000 0.50790000 -0.84280000
vn 0.18960000 0.63010000 -0.75300000
vn 0.19040000 0.75460000 -0.62800000
vn -0.00000000 0.65030000 -0.75970000
vn -0.18960000 0.63020000 -0.75300000
vn -0.35500000 0.59450000 -0.72150000
vn -0.33340000 0.48380000 -0.80920000
vn -0.31080000 0.37420000 -0.87370000
vn -0.28040000 0.28790000 -0.91570000
vn -0.24190000 0.22550000 -0.94370000
vn -0.20020000 0.17700000 -0.96360000
vn -0.13750000 0.13820000 -0.98080000
vn -0.09400000 0.12080000 -0.98820000
vn -0.07590000 0.09330000 -0.99270000
vn -0.00000000 0.08170000 -0.99670000
vn 0.07580000 0.09330000 -0.99270000
vn 0.09400000 0.12080000 -0.98820000
vn 0.13750000 0.13820000 -0.98080000
vn 0.20020000 0.17700000 -0.96360000
vn 0.24180000 0.22550000 -0.94380000
vn 0.28040000 0.28780000 -0.91570000
vn 0.31090000 0.37430000 -0.87370000
vn 0.33340000 0.48380000 -0.80920000
vn 0.35490000 0.59440000 -0.72160000
vn 0.36880000 0.69890000 -0.61270000
vn 0.36680000 0.79640000 -0.48080000
vn 0.33390000 0.92310000 -0.19060000
vn 0.34500000 0.90220000 -0.25870000
vn 0.17670000 0.95060000 -0.25520000
vn 0.18460000 0.91500000 -0.35860000
vn 0.35630000 0.86380000 -0.35620000
vn 0.18840000 0.85360000 -0.48560000
vn -0.00000000 0.76960000 -0.63850000
vn -0.19040000 0.75460000 -0.62800000
vn -0.36880000 0.69890000 -0.61280000
vn -0.53960000 0.60330000 -0.58730000
vn -0.51680000 0.50760000 -0.68940000
vn -0.48120000 0.41470000 -0.77230000
vn -0.43400000 0.34160000 -0.83360000
vn -0.36900000 0.27220000 -0.88870000
vn -0.30760000 0.21230000 -0.92750000
vn -0.24890000 0.16430000 -0.95450000
vn -0.18550000 0.13060000 -0.97390000
vn -0.12400000 0.10420000 -0.98680000
vn -0.05810000 0.08960000 -0.99430000
vn -0.00000000 0.08160000 -0.99670000
vn 0.05820000 0.08960000 -0.99430000
vn 0.12400000 0.10420000 -0.98680000
vn 0.18530000 0.13070000 -0.97400000
vn 0.24880000 0.16430000 -0.95450000
vn 0.30760000 0.21240000 -0.92750000
vn 0.36910000 0.27210000 -0.88860000
vn 0.43400000 0.34160000 -0.83360000
vn 0.48120000 0.41460000 -0.77240000
vn 0.51680000 0.50740000 -0.68960000
vn 0.53960000 0.60340000 -0.58720000
vn 0.54690000 0.69280000 -0.47000000
vn 0.53710000 0.76530000 -0.35490000
vn 0.51660000 0.81580000 -0.26010000
vn 0.48780000 0.85210000 -0.18990000
vn 0.32610000 0.93400000 -0.14580000
vn 0.46370000 0.87750000 -0.12280000
vn 0.31490000 0.94290000 -0.10880000
vn 0.43350000 0.89440000 -0.10990000
vn 0.37800000 0.92110000 -0.09360000
vn 0.27850000 0.95650000 -0.08700000
vn 0.25600000 0.96380000 -0.07410000
vn 0.30230000 0.94860000 -0.09320000
vn 0.20780000 0.97600000 -0.06570000
vn 0.22120000 0.97150000 -0.08540000
vn 0.11800000 0.99110000 -0.06150000
vn 0.12130000 0.99000000 -0.07210000
vn -0.00000000 0.99780000 -0.06680000
vn -0.00000000 0.99810000 -0.06100000
vn -0.12130000 0.99000000 -0.07220000
vn -0.11800000 0.99110000 -0.06150000
vn -0.00000000 0.99660000 -0.08240000
vn 0.13420000 0.98710000 -0.08690000
vn 0.14970000 0.98380000 -0.09870000
vn 0.15990000 0.98180000 -0.10240000
vn 0.16820000 0.97450000 -0.14850000
vn 0.17420000 0.96630000 -0.18960000
vn -0.00000000 0.96640000 -0.25690000
vn -0.00000000 0.93260000 -0.36080000
vn -0.00000000 0.86770000 -0.49720000
vn -0.18830000 0.85360000 -0.48560000
vn -0.36680000 0.79640000 -0.48090000
vn -0.54690000 0.69270000 -0.47020000
vn -0.73480000 0.52510000 -0.42930000
vn -0.72110000 0.45280000 -0.52430000
vn -0.69690000 0.38020000 -0.60810000
vn -0.66020000 0.30270000 -0.68740000
vn -0.61810000 0.23230000 -0.75100000
vn -0.55280000 0.16190000 -0.81740000
vn -0.47140000 0.10280000 -0.87590000
vn -0.37880000 0.07270000 -0.92260000
vn -0.28580000 0.04320000 -0.95730000
vn -0.22580000 -0.01250000 -0.97410000
vn -0.11660000 -0.04430000 -0.99220000
vn -0.00000000 -0.03900000 -0.99920000
vn 0.11660000 -0.04430000 -0.99220000
vn 0.22570000 -0.01250000 -0.97410000
vn 0.28590000 0.04300000 -0.95730000
vn 0.37880000 0.07270000 -0.92260000
vn 0.47150000 0.10270000 -0.87580000
vn 0.55270000 0.16180000 -0.81750000
vn 0.61830000 0.23220000 -0.75080000
vn 0.66030000 0.30300000 -0.68720000
vn 0.69650000 0.38010000 -0.60860000
vn 0.72120000 0.45290000 -0.52420000
vn 0.73490000 0.52530000 -0.42900000
vn 0.74300000 0.58150000 -0.33150000
vn 0.73490000 0.63450000 -0.23940000
vn 0.72300000 0.67180000 -0.16090000
vn 0.68150000 0.72650000 -0.08860000
vn 0.61710000 0.78500000 -0.05390000
vn 0.53930000 0.84210000 -0.00370000
vn 0.42570000 0.90460000 0.02230000
vn 0.29280000 0.95500000 0.04800000
vn 0.15730000 0.98580000 0.05880000
vn -0.00000000 0.99790000 0.06470000
vn -0.15720000 0.98580000 0.05880000
vn -0.29270000 0.95500000 0.04780000
vn -0.22110000 0.97150000 -0.08560000
vn -0.20790000 0.97600000 -0.06560000
vn -0.13420000 0.98710000 -0.08680000
vn -0.00000000 0.99490000 -0.10100000
vn -0.00000000 0.99440000 -0.10530000
vn -0.00000000 0.99020000 -0.14000000
vn -0.00000000 0.98150000 -0.19120000
vn -0.17420000 0.96630000 -0.18960000
vn -0.17670000 0.95060000 -0.25520000
vn -0.18460000 0.91500000 -0.35870000
vn -0.35630000 0.86380000 -0.35620000
vn -0.53710000 0.76530000 -0.35480000
vn -0.74290000 0.58160000 -0.33130000
vn -0.92240000 0.36220000 -0.13400000
vn -0.93500000 0.28560000 -0.21050000
vn -0.93230000 0.22010000 -0.28690000
vn -0.92140000 0.14230000 -0.36170000
vn -0.89410000 0.08750000 -0.43920000
vn -0.85460000 0.02970000 -0.51850000
vn -0.81240000 -0.00940000 -0.58310000
vn -0.75270000 -0.04070000 -0.65710000
vn -0.68600000 -0.08940000 -0.72210000
vn -0.60200000 -0.10270000 -0.79190000
vn -0.52840000 -0.15440000 -0.83480000
vn -0.44550000 -0.27070000 -0.85340000
vn -0.25480000 -0.38950000 -0.88510000
vn 0.00010000 -0.41130000 -0.91150000
vn 0.25460000 -0.38900000 -0.88540000
vn 0.44540000 -0.27060000 -0.85350000
vn 0.52820000 -0.15420000 -0.83500000
vn 0.60200000 -0.10270000 -0.79190000
vn 0.68600000 -0.08940000 -0.72210000
vn 0.75270000 -0.04080000 -0.65710000
vn 0.81240000 -0.00950000 -0.58310000
vn 0.85420000 0.03030000 -0.51910000
vn 0.89400000 0.08730000 -0.43940000
vn 0.92160000 0.14190000 -0.36120000
vn 0.93210000 0.22120000 -0.28700000
vn 0.93470000 0.28630000 -0.21070000
vn 0.92260000 0.36170000 -0.13410000
vn 0.90790000 0.41610000 -0.05180000
vn 0.89390000 0.44670000 0.03650000
vn 0.86050000 0.49060000 0.13700000
vn 0.77390000 0.57760000 0.25950000
vn 0.63980000 0.66970000 0.37700000
vn 0.45250000 0.77060000 0.44880000
vn 0.24090000 0.84450000 0.47830000
vn -0.00000000 0.87450000 0.48500000
vn -0.24100000 0.84440000 0.47850000
vn -0.45250000 0.77060000 0.44880000
vn -0.64000000 0.66960000 0.37690000
vn -0.42570000 0.90460000 0.02230000
vn -0.30230000 0.94870000 -0.09310000
vn -0.25590000 0.96390000 -0.07390000
vn -0.27850000 0.95650000 -0.08710000
vn -0.14970000 0.98380000 -0.09870000
vn -0.15990000 0.98180000 -0.10240000
vn -0.16820000 0.97450000 -0.14850000
vn -0.33380000 0.92320000 -0.19060000
vn -0.34500000 0.90230000 -0.25860000
vn -0.51670000 0.81570000 -0.26010000
vn -0.73460000 0.63480000 -0.23950000
vn -0.90820000 0.41540000 -0.05180000
vn -0.94630000 0.30840000 0.09670000
vn -0.96140000 0.27510000 0.00330000
vn -0.98370000 0.16570000 -0.07050000
vn -0.99140000 0.05450000 -0.11890000
vn -0.98630000 -0.03240000 -0.16190000
vn -0.97430000 -0.09400000 -0.20470000
vn -0.95480000 -0.11840000 -0.27270000
vn -0.91600000 -0.12280000 -0.38190000
vn -0.87210000 -0.10420000 -0.47810000
vn -0.81470000 -0.11970000 -0.56730000
vn -0.76500000 -0.17230000 -0.62050000
vn -0.69620000 -0.18890000 -0.69260000
vn -0.64390000 -0.26480000 -0.71780000
vn -0.55680000 -0.37860000 -0.73930000
vn -0.32610000 -0.55420000 -0.76580000
vn -0.00010000 -0.60820000 -0.79380000
vn 0.32560000 -0.55340000 -0.76660000
vn 0.55680000 -0.37870000 -0.73930000
vn 0.64350000 -0.26420000 -0.71840000
vn 0.69610000 -0.18880000 -0.69270000
vn 0.76500000 -0.17230000 -0.62050000
vn 0.81460000 -0.11990000 -0.56740000
vn 0.87170000 -0.10390000 -0.47880000
vn 0.91570000 -0.12210000 -0.38280000
vn 0.95500000 -0.11930000 -0.27160000
vn 0.97430000 -0.09590000 -0.20390000
vn 0.98620000 -0.03110000 -0.16240000
vn 0.99120000 0.05640000 -0.11940000
vn 0.98360000 0.16580000 -0.07080000
vn 0.96100000 0.27660000 0.00290000
vn 0.94630000 0.30850000 0.09640000
vn 0.92000000 0.32580000 0.21770000
vn 0.83450000 0.40350000 0.37530000
vn 0.69040000 0.47160000 0.54850000
vn 0.49900000 0.56200000 0.65960000
vn 0.26680000 0.64540000 0.71570000
vn -0.00000000 0.69220000 0.72170000
vn -0.26670000 0.64520000 0.71600000
vn -0.49890000 0.56200000 0.65970000
vn -0.69050000 0.47170000 0.54830000
vn -0.83420000 0.40450000 0.37480000
vn -0.77380000 0.57790000 0.25940000
vn -0.53970000 0.84190000 -0.00350000
vn -0.37790000 0.92110000 -0.09370000
vn -0.31490000 0.94290000 -0.10880000
vn -0.32610000 0.93400000 -0.14570000
vn -0.48770000 0.85210000 -0.18980000
vn -0.72310000 0.67170000 -0.16110000
vn -0.89400000 0.44670000 0.03660000
vn -0.92040000 0.32450000 0.21820000
vn -0.86080000 0.49010000 0.13730000
vn -0.61720000 0.78500000 -0.05380000
vn -0.43340000 0.89450000 -0.11000000
vn -0.46360000 0.87750000 -0.12270000
vn -0.68140000 0.72650000 -0.08870000
vn 0.16800000 0.45330000 0.87540000
vn -0.00000000 0.46760000 0.88400000
vn 0.15260000 0.32950000 0.93180000
vn -0.00000000 0.33350000 0.94280000
vn 0.13770000 0.23200000 0.96290000
vn -0.00000000 0.23700000 0.97150000
vn 0.00110000 0.16970000 0.98550000
vn 0.12010000 0.16500000 0.97890000
vn 0.00150000 0.12220000 0.99250000
vn 0.09610000 0.12210000 0.98780000
vn 0.07340000 0.08700000 0.99350000
vn -0.00000000 0.08740000 0.99620000
vn 0.05120000 0.07990000 0.99550000
vn -0.00000000 0.07680000 0.99700000
vn 0.02850000 0.07570000 0.99670000
vn -0.00000000 0.07550000 0.99710000
vn -0.02850000 0.07560000 0.99670000
vn -0.05120000 0.07990000 0.99550000
vn -0.07340000 0.08700000 0.99350000
vn -0.09750000 0.12040000 0.98790000
vn -0.12140000 0.16590000 0.97860000
vn -0.13770000 0.23200000 0.96290000
vn -0.15250000 0.32950000 0.93180000
vn -0.16800000 0.45330000 0.87540000
vn -0.00000000 0.62000000 0.78460000
vn 0.17950000 0.59930000 0.78020000
vn 0.36050000 0.69340000 0.62390000
vn 0.34470000 0.56170000 0.75210000
vn 0.31940000 0.42620000 0.84640000
vn 0.29360000 0.30310000 0.90660000
vn 0.26230000 0.21490000 0.94080000
vn 0.22520000 0.15740000 0.96150000
vn 0.18630000 0.11770000 0.97540000
vn 0.12350000 0.08890000 0.98840000
vn 0.08140000 0.08250000 0.99330000
vn 0.04540000 0.07430000 0.99620000
vn -0.00000000 0.07350000 0.99730000
vn -0.04520000 0.07430000 0.99620000
vn -0.08150000 0.08250000 0.99330000
vn -0.12340000 0.08890000 0.98840000
vn -0.18620000 0.11780000 0.97540000
vn -0.22520000 0.15740000 0.96150000
vn -0.26230000 0.21480000 0.94080000
vn -0.29360000 0.30310000 0.90660000
vn -0.31940000 0.42620000 0.84640000
vn -0.34480000 0.56170000 0.75210000
vn -0.17950000 0.59930000 0.78020000
vn -0.00000000 0.76690000 0.64170000
vn 0.18370000 0.75190000 0.63320000
vn 0.35700000 0.81010000 0.46510000
vn 0.12080000 0.99200000 0.03760000
vn 0.11310000 0.99300000 0.03470000
vn 0.22200000 0.97410000 0.04210000
vn 0.19870000 0.97930000 0.03880000
vn 0.30480000 0.95110000 0.05000000
vn 0.24500000 0.96850000 0.04330000
vn 0.37940000 0.92380000 0.05110000
vn 0.26580000 0.96260000 0.05200000
vn 0.30030000 0.95140000 0.06800000
vn 0.43260000 0.89930000 0.06460000
vn 0.45870000 0.88540000 0.07600000
vn 0.31030000 0.94540000 0.09950000
vn 0.47900000 0.86630000 0.14190000
vn 0.31700000 0.93780000 0.14180000
vn 0.32920000 0.92030000 0.21140000
vn 0.50350000 0.83610000 0.21780000
vn 0.34300000 0.88350000 0.31890000
vn 0.52330000 0.78660000 0.32780000
vn 0.53310000 0.70590000 0.46640000
vn 0.52380000 0.59560000 0.60900000
vn 0.49880000 0.47200000 0.72690000
vn 0.46210000 0.35520000 0.81260000
vn 0.41830000 0.26590000 0.86850000
vn 0.35620000 0.19780000 0.91320000
vn 0.28940000 0.14260000 0.94650000
vn 0.24730000 0.10100000 0.96360000
vn 0.17800000 0.08320000 0.98050000
vn 0.10450000 0.07830000 0.99140000
vn 0.05190000 0.07320000 0.99600000
vn -0.00000000 0.07500000 0.99720000
vn -0.05190000 0.07320000 0.99600000
vn -0.10450000 0.07840000 0.99140000
vn -0.17790000 0.08330000 0.98050000
vn -0.24730000 0.10100000 0.96360000
vn -0.28930000 0.14260000 0.94650000
vn -0.35610000 0.19780000 0.91330000
vn -0.41830000 0.26590000 0.86850000
vn -0.46210000 0.35520000 0.81260000
vn -0.49880000 0.47210000 0.72680000
vn -0.52370000 0.59570000 0.60900000
vn -0.36060000 0.69350000 0.62380000
vn -0.18370000 0.75190000 0.63320000
vn -0.00000000 0.88410000 0.46720000
vn 0.18070000 0.86930000 0.46000000
vn 0.17300000 0.93360000 0.31370000
vn 0.16530000 0.96470000 0.20500000
vn 0.16190000 0.97730000 0.13630000
vn 0.15410000 0.98290000 0.10110000
vn 0.14860000 0.98690000 0.06210000
vn 0.13810000 0.98850000 0.06100000
vn 0.12440000 0.99030000 0.06140000
vn -0.00000000 0.99920000 0.04050000
vn -0.00000000 0.99950000 0.03250000
vn -0.11310000 0.99300000 0.03470000
vn -0.12080000 0.99200000 0.03760000
vn -0.16150000 0.98050000 -0.11170000
vn -0.00000000 0.99300000 -0.11770000
vn 0.16140000 0.98050000 -0.11170000
vn 0.30240000 0.94770000 -0.10210000
vn 0.43690000 0.89670000 -0.07060000
vn 0.55030000 0.83390000 -0.04260000
vn 0.62790000 0.77830000 0.00600000
vn 0.68920000 0.72350000 0.03900000
vn 0.73150000 0.67380000 0.10450000
vn 0.75550000 0.62690000 0.19050000
vn 0.76080000 0.57570000 0.29950000
vn 0.75970000 0.49560000 0.42100000
vn 0.74070000 0.39660000 0.54230000
vn 0.70400000 0.30390000 0.64190000
vn 0.65350000 0.21660000 0.72530000
vn 0.60510000 0.15360000 0.78120000
vn 0.53730000 0.10070000 0.83740000
vn 0.44980000 0.04580000 0.89190000
vn 0.36470000 0.02780000 0.93070000
vn 0.28650000 0.01400000 0.95800000
vn 0.21520000 -0.04160000 0.97570000
vn 0.11590000 -0.08660000 0.98950000
vn -0.00000000 -0.07980000 0.99680000
vn -0.11600000 -0.08670000 0.98950000
vn -0.21520000 -0.04160000 0.97570000
vn -0.28660000 0.01400000 0.95790000
vn -0.36490000 0.02760000 0.93060000
vn -0.44990000 0.04580000 0.89190000
vn -0.53760000 0.10050000 0.83720000
vn -0.60510000 0.15350000 0.78120000
vn -0.65350000 0.21660000 0.72530000
vn -0.70440000 0.30360000 0.64160000
vn -0.74070000 0.39650000 0.54240000
vn -0.75960000 0.49560000 0.42110000
vn -0.53310000 0.70590000 0.46630000
vn -0.35690000 0.81010000 0.46510000
vn -0.18070000 0.86930000 0.46000000
vn -0.00000000 0.95000000 0.31220000
vn -0.00000000 0.97850000 0.20610000
vn -0.00000000 0.99100000 0.13370000
vn -0.00000000 0.99580000 0.09180000
vn -0.00000000 0.99780000 0.06620000
vn -0.00000000 0.99820000 0.05950000
vn -0.00000000 0.99820000 0.05990000
vn -0.12450000 0.99030000 0.06130000
vn -0.19870000 0.97930000 0.03890000
vn -0.22200000 0.97410000 0.04200000
vn -0.30230000 0.94770000 -0.10200000
vn -0.42480000 0.81540000 -0.39330000
vn -0.22400000 0.88060000 -0.41750000
vn -0.00000000 0.91080000 -0.41290000
vn 0.22420000 0.88050000 -0.41760000
vn 0.42430000 0.81600000 -0.39270000
vn 0.60070000 0.72930000 -0.32760000
vn 0.74360000 0.62430000 -0.23920000
vn 0.84570000 0.51370000 -0.14460000
vn 0.88070000 0.47020000 -0.05680000
vn 0.90010000 0.43510000 0.02130000
vn 0.91630000 0.38560000 0.10850000
vn 0.93270000 0.29720000 0.20430000
vn 0.93140000 0.20640000 0.29990000
vn 0.91140000 0.12410000 0.39250000
vn 0.87520000 0.06360000 0.47960000
vn 0.82180000 0.01430000 0.56970000
vn 0.77470000 -0.02220000 0.63190000
vn 0.72680000 -0.08540000 0.68150000
vn 0.67220000 -0.13640000 0.72770000
vn 0.60730000 -0.16040000 0.77810000
vn 0.53780000 -0.19540000 0.82010000
vn 0.44100000 -0.29460000 0.84780000
vn 0.22910000 -0.38810000 0.89270000
vn -0.00000000 -0.39810000 0.91730000
vn -0.22880000 -0.38810000 0.89280000
vn -0.44100000 -0.29460000 0.84780000
vn -0.53820000 -0.19580000 0.81980000
vn -0.60730000 -0.16020000 0.77820000
vn -0.67280000 -0.13730000 0.72700000
vn -0.72710000 -0.08560000 0.68110000
vn -0.77500000 -0.02290000 0.63160000
vn -0.82230000 0.01390000 0.56900000
vn -0.87510000 0.06360000 0.47980000
vn -0.91120000 0.12400000 0.39280000
vn -0.93150000 0.20630000 0.29970000
vn -0.93300000 0.29650000 0.20410000
vn -0.91630000 0.38550000 0.10830000
vn -0.76080000 0.57580000 0.29950000
vn -0.52320000 0.78660000 0.32780000
vn -0.34310000 0.88350000 0.31890000
vn -0.17300000 0.93370000 0.31360000
vn -0.16530000 0.96470000 0.20500000
vn -0.16190000 0.97730000 0.13640000
vn -0.15410000 0.98290000 0.10100000
vn -0.14850000 0.98700000 0.06210000
vn -0.13810000 0.98850000 0.06110000
vn -0.26570000 0.96270000 0.05190000
vn -0.24500000 0.96860000 0.04340000
vn -0.30480000 0.95110000 0.05000000
vn -0.43700000 0.89670000 -0.07070000
vn -0.60090000 0.72890000 -0.32810000
vn -0.64510000 0.62940000 -0.43330000
vn -0.46670000 0.70970000 -0.52780000
vn -0.24860000 0.78420000 -0.56850000
vn -0.00000000 0.83670000 -0.54770000
vn 0.24850000 0.78410000 -0.56870000
vn 0.46600000 0.71120000 -0.52640000
vn 0.64490000 0.63020000 -0.43230000
vn 0.80030000 0.51240000 -0.31140000
vn 0.90130000 0.38490000 -0.19870000
vn 0.92200000 0.37570000 -0.09380000
vn 0.93480000 0.35520000 -0.00600000
vn 0.95560000 0.28330000 0.08100000
vn 0.97680000 0.14090000 0.16100000
vn 0.97170000 0.05190000 0.23050000
vn 0.95400000 -0.00960000 0.29960000
vn 0.92550000 -0.04890000 0.37560000
vn 0.87310000 -0.06690000 0.48290000
vn 0.82550000 -0.09750000 0.55590000
vn 0.79120000 -0.18020000 0.58440000
vn 0.76350000 -0.23590000 0.60120000
vn 0.72770000 -0.28550000 0.62370000
vn 0.66940000 -0.31490000 0.67290000
vn 0.56430000 -0.38640000 0.72950000
vn 0.30050000 -0.52160000 0.79850000
vn -0.00000000 -0.55380000 0.83260000
vn -0.30030000 -0.52130000 0.79880000
vn -0.56450000 -0.38620000 0.72950000
vn -0.66980000 -0.31560000 0.67210000
vn -0.72750000 -0.28440000 0.62440000
vn -0.76420000 -0.23740000 0.59980000
vn -0.79140000 -0.18030000 0.58410000
vn -0.82590000 -0.09860000 0.55510000
vn -0.87360000 -0.06760000 0.48200000
vn -0.92490000 -0.04830000 0.37710000
vn -0.95400000 -0.00960000 0.29960000
vn -0.97180000 0.05210000 0.23010000
vn -0.97710000 0.13930000 0.16060000
vn -0.95570000 0.28310000 0.08070000
vn -0.93530000 0.35380000 -0.00660000
vn -0.92200000 0.37560000 -0.09410000
vn -0.90020000 0.43490000 0.02090000
vn -0.75540000 0.62700000 0.19040000
vn -0.50350000 0.83610000 0.21780000
vn -0.32910000 0.92030000 0.21140000
vn -0.31720000 0.93770000 0.14190000
vn -0.31030000 0.94540000 0.09950000
vn -0.30020000 0.95140000 0.06800000
vn -0.37950000 0.92380000 0.05100000
vn -0.55000000 0.83410000 -0.04250000
vn -0.74370000 0.62420000 -0.23940000
vn -0.80060000 0.51130000 -0.31240000
vn -0.84590000 0.51330000 -0.14470000
vn -0.90180000 0.38350000 -0.19920000
vn -0.88100000 0.46980000 -0.05690000
vn -0.73110000 0.67430000 0.10450000
vn -0.47900000 0.86630000 0.14190000
vn -0.45870000 0.88530000 0.07610000
vn -0.43270000 0.89920000 0.06450000
vn -0.62750000 0.77860000 0.00610000
vn -0.68970000 0.72310000 0.03910000
vt 0.41102900 0.70716600
vt 0.41104500 0.70117300
vt 0.40301700 0.70703700
vt 0.40322700 0.70109300
vt 0.41104500 0.69508300
vt 0.40363100 0.69497000
vt 0.40430900 0.68880000
vt 0.41106100 0.68901000
vt 0.40531100 0.68274200
vt 0.41106100 0.68293600
vt 0.40653800 0.67683000
vt 0.41107800 0.67695900
vt 0.40768500 0.67214500
vt 0.41107800 0.67232300
vt 0.40852500 0.66915700
vt 0.41107800 0.66870500
vt 0.41364600 0.66915700
vt 0.41447000 0.67214500
vt 0.41560100 0.67684600
vt 0.41681200 0.68275800
vt 0.41781400 0.68883200
vt 0.41846000 0.69498700
vt 0.41884800 0.70110900
vt 0.41904100 0.70705300
vt 0.41917100 0.71288500
vt 0.41923500 0.71870000
vt 0.41102900 0.71303000
vt 0.40288800 0.71286900
vt 0.39469800 0.71223900
vt 0.39511800 0.70645600
vt 0.39568300 0.70057600
vt 0.39663600 0.69434000
vt 0.39810600 0.68817000
vt 0.40022200 0.68203100
vt 0.40282300 0.67594100
vt 0.40521400 0.67085300
vt 0.40763700 0.66725100
vt 0.41109400 0.66647500
vt 0.41453500 0.66726700
vt 0.41694100 0.67086900
vt 0.41933200 0.67595800
vt 0.42190100 0.68206400
vt 0.42401700 0.68820200
vt 0.42545400 0.69438900
vt 0.42639100 0.70062400
vt 0.42694100 0.70650400
vt 0.42734400 0.71228700
vt 0.42761900 0.71803800
vt 0.42781300 0.72386900
vt 0.42855600 0.74265600
vt 0.42826500 0.73611400
vt 0.41942900 0.73685700
vt 0.41934800 0.73060500
vt 0.42802300 0.72987800
vt 0.41928400 0.72456400
vt 0.41101300 0.71879700
vt 0.40280700 0.71866800
vt 0.39440700 0.71798900
vt 0.38521600 0.71637400
vt 0.38612000 0.71076900
vt 0.38731600 0.70503400
vt 0.38862400 0.69939600
vt 0.39078900 0.69291900
vt 0.39338900 0.68660300
vt 0.39665200 0.68002800
vt 0.40061000 0.67306600
vt 0.40366300 0.66805800
vt 0.40721700 0.66474700
vt 0.41109400 0.66405200
vt 0.41495500 0.66476300
vt 0.41850800 0.66809100
vt 0.42154500 0.67309800
vt 0.42548700 0.68006100
vt 0.42873300 0.68665100
vt 0.43130200 0.69296700
vt 0.43346700 0.69944500
vt 0.43475900 0.70509900
vt 0.43593800 0.71083300
vt 0.43682600 0.71643900
vt 0.43755300 0.72239900
vt 0.43805400 0.72837600
vt 0.43842600 0.73485400
vt 0.43844200 0.74183200
vt 0.42871700 0.74947300
vt 0.43784400 0.74934400
vt 0.42839400 0.75640300
vt 0.43640700 0.75713000
vt 0.43356400 0.76472200
vt 0.42723100 0.76317100
vt 0.42529300 0.76926100
vt 0.42946000 0.77097300
vt 0.42251400 0.77244300
vt 0.42440400 0.77522200
vt 0.41792700 0.77394600
vt 0.41820100 0.77720900
vt 0.41093200 0.77412300
vt 0.41093200 0.77772600
vt 0.40366300 0.77719200
vt 0.40395400 0.77392900
vt 0.41094800 0.76847000
vt 0.41855700 0.76859900
vt 0.41931600 0.76259000
vt 0.41970400 0.75625700
vt 0.41973600 0.74981200
vt 0.41959100 0.74327000
vt 0.41099700 0.73705100
vt 0.41099700 0.73078300
vt 0.41101300 0.72467700
vt 0.40272600 0.72453200
vt 0.39419700 0.72382100
vt 0.38447300 0.72233500
vt 0.37495800 0.72044500
vt 0.37612100 0.71437100
vt 0.37760700 0.70915300
vt 0.37965900 0.70343500
vt 0.38187200 0.69815300
vt 0.38536100 0.69123900
vt 0.38909300 0.68477700
vt 0.39380900 0.67781500
vt 0.39960800 0.66988400
vt 0.40308200 0.66539300
vt 0.40713600 0.66269500
vt 0.41109400 0.66208200
vt 0.41505100 0.66269500
vt 0.41909000 0.66540900
vt 0.42256300 0.66991600
vt 0.42833000 0.67786400
vt 0.43303000 0.68484200
vt 0.43674600 0.69130300
vt 0.44021900 0.69823300
vt 0.44241600 0.70351600
vt 0.44445100 0.70925000
vt 0.44592100 0.71446800
vt 0.44706800 0.72054200
vt 0.44779500 0.72627600
vt 0.44816600 0.73325500
vt 0.44795600 0.74065300
vt 0.44668000 0.74927900
vt 0.44401500 0.75797000
vt 0.43937900 0.76653100
vt 0.43304700 0.77307300
vt 0.42597100 0.77751600
vt 0.41873400 0.78005200
vt 0.41093200 0.78100500
vt 0.40313000 0.78003500
vt 0.39589300 0.77746700
vt 0.39747600 0.77517300
vt 0.39936600 0.77241100
vt 0.40334000 0.76856600
vt 0.41094800 0.76242800
vt 0.41096500 0.75620900
vt 0.41096500 0.74994100
vt 0.41098100 0.74346400
vt 0.40237100 0.74323700
vt 0.40254800 0.73684100
vt 0.40266200 0.73058900
vt 0.39398700 0.72983000
vt 0.38394000 0.72829500
vt 0.37421500 0.72616300
vt 0.37033800 0.73247900
vt 0.37087100 0.72543600
vt 0.37174400 0.71960500
vt 0.37290700 0.71370900
vt 0.37437700 0.70834600
vt 0.37633100 0.70257900
vt 0.37857700 0.69715100
vt 0.38203300 0.68997900
vt 0.38581300 0.68322700
vt 0.39064300 0.67587700
vt 0.39686200 0.66741200
vt 0.40061000 0.66271200
vt 0.40597300 0.65923900
vt 0.41109400 0.65844700
vt 0.41623100 0.65925500
vt 0.42157800 0.66272800
vt 0.42530900 0.66746100
vt 0.43151200 0.67592500
vt 0.43631000 0.68330800
vt 0.44007300 0.69006000
vt 0.44351400 0.69723200
vt 0.44574300 0.70267600
vt 0.44768200 0.70844300
vt 0.44913600 0.71382200
vt 0.45028300 0.71971800
vt 0.45113900 0.72554900
vt 0.45165600 0.73259200
vt 0.45152600 0.74041100
vt 0.45034700 0.74945700
vt 0.44763300 0.75881000
vt 0.44265800 0.76816300
vt 0.43564700 0.77562600
vt 0.42766700 0.78081100
vt 0.41949400 0.78370200
vt 0.41091600 0.78476900
vt 0.40235500 0.78368600
vt 0.39418100 0.78076200
vt 0.38621700 0.77554500
vt 0.38881800 0.77300900
vt 0.39242000 0.77092500
vt 0.39658800 0.76922900
vt 0.39468200 0.76312300
vt 0.40259700 0.76257300
vt 0.40220900 0.75624100
vt 0.40220900 0.74978000
vt 0.39340500 0.74260800
vt 0.39372900 0.73606500
vt 0.38356800 0.73477300
vt 0.37382700 0.73314100
vt 0.37043500 0.74029700
vt 0.36864200 0.74958600
vt 0.36756000 0.74018400
vt 0.36757600 0.73194600
vt 0.36823800 0.72487100
vt 0.36924000 0.71891000
vt 0.37040300 0.71320800
vt 0.37182400 0.70763500
vt 0.37371400 0.70185200
vt 0.37600800 0.69618200
vt 0.37941600 0.68889700
vt 0.38326100 0.68198300
vt 0.38799400 0.67440700
vt 0.39414900 0.66582900
vt 0.39802600 0.66091900
vt 0.40468100 0.65654100
vt 0.41111000 0.65549100
vt 0.41752300 0.65655700
vt 0.42416200 0.66096700
vt 0.42802300 0.66587800
vt 0.43416100 0.67447100
vt 0.43887800 0.68206400
vt 0.44269000 0.68899400
vt 0.44608300 0.69627900
vt 0.44836000 0.70194900
vt 0.45023400 0.70774800
vt 0.45163900 0.71332100
vt 0.45278600 0.71902300
vt 0.45377200 0.72500000
vt 0.45441800 0.73207500
vt 0.45441800 0.74031400
vt 0.45330300 0.74969900
vt 0.45052500 0.75965000
vt 0.44525900 0.76971300
vt 0.43760200 0.77798400
vt 0.42896000 0.78360600
vt 0.42017200 0.78675500
vt 0.41091600 0.78780500
vt 0.40167600 0.78673900
vt 0.39288900 0.78355700
vt 0.38426300 0.77790300
vt 0.37663800 0.76961600
vt 0.37922300 0.76808200
vt 0.38251800 0.76645000
vt 0.38834900 0.76465700
vt 0.39353500 0.75635400
vt 0.39322800 0.74942400
vt 0.38353600 0.74175100
vt 0.37400500 0.74054000
vt 0.37159800 0.74934400
vt 0.37138800 0.75953700
vt 0.37429600 0.75871300
vt 0.37789800 0.75788900
vt 0.38552300 0.75706500
vt 0.38410100 0.74926300
vt 0.37526500 0.74918200
vt 0.22493300 0.84142600
vt 0.21889900 0.84151200
vt 0.22481000 0.83684500
vt 0.21893600 0.83693100
vt 0.22455100 0.83206700
vt 0.21897300 0.83222800
vt 0.21899800 0.82743800
vt 0.22405900 0.82725300
vt 0.21903500 0.82268500
vt 0.22332000 0.82251200
vt 0.22242100 0.81790700
vt 0.21907200 0.81803000
vt 0.22159600 0.81426200
vt 0.21910900 0.81443400
vt 0.22099300 0.81195900
vt 0.21912100 0.81165200
vt 0.21724900 0.81193500
vt 0.21662100 0.81422500
vt 0.21573500 0.81784500
vt 0.21476200 0.82243800
vt 0.21394900 0.82719100
vt 0.21339500 0.83198100
vt 0.21305000 0.83675900
vt 0.21286600 0.84134000
vt 0.21886300 0.84592000
vt 0.22499500 0.84585900
vt 0.23136100 0.84971300
vt 0.23117600 0.84539100
vt 0.23091700 0.84101900
vt 0.23053600 0.83647600
vt 0.22985900 0.83160000
vt 0.22876300 0.82674800
vt 0.22715000 0.82193300
vt 0.22519200 0.81718000
vt 0.22341900 0.81325200
vt 0.22164500 0.81049400
vt 0.21913300 0.80994000
vt 0.21662100 0.81045700
vt 0.21481100 0.81317800
vt 0.21296400 0.81708200
vt 0.21094500 0.82181000
vt 0.20925800 0.82660000
vt 0.20808800 0.83143900
vt 0.20733700 0.83630300
vt 0.20689400 0.84083500
vt 0.20657400 0.84521800
vt 0.21274300 0.84576000
vt 0.21883800 0.85025500
vt 0.22504400 0.85020500
vt 0.23153300 0.85408400
vt 0.22423100 0.89448500
vt 0.22402200 0.89207200
vt 0.22905800 0.89297100
vt 0.22760500 0.89092600
vt 0.23298600 0.88979400
vt 0.22977200 0.88855000
vt 0.23612600 0.88509000
vt 0.23126200 0.88396900
vt 0.23214900 0.87884700
vt 0.23828100 0.87935200
vt 0.23932800 0.87341600
vt 0.23238300 0.87357700
vt 0.23972200 0.86767800
vt 0.23221000 0.86838000
vt 0.23195200 0.86336900
vt 0.23963500 0.86235900
vt 0.23171800 0.85861600
vt 0.23929100 0.85745800
vt 0.23886000 0.85297600
vt 0.23831800 0.84851800
vt 0.23769000 0.84430700
vt 0.23687700 0.83992400
vt 0.23595400 0.83555200
vt 0.23434100 0.83047900
vt 0.23235800 0.82550400
vt 0.22984600 0.82033300
vt 0.22685400 0.81492700
vt 0.22457600 0.81107300
vt 0.22196600 0.80848700
vt 0.21915800 0.80799400
vt 0.21633800 0.80845000
vt 0.21369100 0.81098700
vt 0.21135100 0.81480400
vt 0.20826100 0.82017200
vt 0.20568700 0.82530700
vt 0.20363100 0.83024500
vt 0.20193100 0.83530600
vt 0.20095900 0.83966500
vt 0.20007200 0.84402400
vt 0.19938200 0.84823500
vt 0.20631500 0.84952800
vt 0.21263200 0.85011900
vt 0.21880100 0.85466300
vt 0.22508100 0.85460100
vt 0.22514200 0.85919400
vt 0.22522900 0.86397200
vt 0.22535200 0.86889700
vt 0.22547500 0.87389700
vt 0.22545000 0.87879800
vt 0.22513000 0.88360000
vt 0.22452700 0.88809400
vt 0.21854200 0.89228100
vt 0.21851800 0.89492800
vt 0.21306300 0.89198500
vt 0.21281700 0.89439900
vt 0.21234900 0.89681200
vt 0.21850500 0.89760000
vt 0.22467500 0.89689900
vt 0.23043700 0.89491600
vt 0.23605200 0.89145600
vt 0.24090400 0.88655500
vt 0.24445000 0.88007800
vt 0.24644500 0.87329300
vt 0.24730700 0.86671800
vt 0.24745500 0.86094300
vt 0.24702400 0.85583300
vt 0.24640800 0.85148600
vt 0.24549700 0.84696700
vt 0.24441300 0.84297700
vt 0.24296000 0.83861800
vt 0.24143300 0.83450500
vt 0.23882300 0.82905100
vt 0.23586800 0.82386700
vt 0.23233400 0.81822700
vt 0.22793800 0.81199600
vt 0.22522900 0.80849900
vt 0.22205200 0.80643100
vt 0.21917000 0.80604900
vt 0.21627700 0.80638100
vt 0.21307500 0.80840100
vt 0.21030400 0.81184900
vt 0.20581000 0.81803000
vt 0.20220200 0.82362000
vt 0.19916100 0.82875500
vt 0.19646400 0.83417300
vt 0.19488800 0.83827400
vt 0.19337300 0.84260800
vt 0.19222800 0.84658500
vt 0.19124300 0.85108000
vt 0.19877900 0.85268000
vt 0.20609300 0.85389900
vt 0.21252100 0.85451500
vt 0.21877600 0.85931700
vt 0.21873900 0.86413200
vt 0.21870200 0.86908200
vt 0.21866500 0.87405700
vt 0.21862800 0.87884700
vt 0.21860400 0.88351400
vt 0.21856700 0.88805700
vt 0.21260700 0.88800800
vt 0.20949200 0.89080300
vt 0.20801400 0.89282300
vt 0.20659800 0.89474400
vt 0.20535400 0.89705900
vt 0.21175800 0.89934900
vt 0.21848100 0.90026000
vt 0.22521600 0.89944800
vt 0.23165600 0.89724300
vt 0.23788700 0.89329100
vt 0.24321900 0.88774900
vt 0.24698700 0.88069400
vt 0.24903100 0.87349000
vt 0.24988000 0.86661900
vt 0.24997900 0.86056100
vt 0.24953600 0.85530300
vt 0.24884600 0.85085800
vt 0.24796000 0.84642500
vt 0.24687600 0.84230000
vt 0.24544800 0.83787900
vt 0.24382200 0.83364400
vt 0.24119900 0.82802900
vt 0.23823200 0.82267200
vt 0.23456200 0.81681100
vt 0.22989500 0.81027200
vt 0.22700200 0.80664000
vt 0.22292600 0.80400500
vt 0.21919500 0.80347500
vt 0.21545200 0.80394300
vt 0.21132700 0.80651700
vt 0.20838400 0.81010000
vt 0.20360600 0.81657700
vt 0.19985000 0.82237700
vt 0.19679700 0.82769600
vt 0.19410000 0.83327400
vt 0.19240100 0.83749800
vt 0.19091100 0.84189400
vt 0.18977800 0.84600600
vt 0.18881700 0.85042700
vt 0.18807900 0.85487200
vt 0.18756100 0.86011800
vt 0.19056600 0.85542600
vt 0.19828600 0.85716300
vt 0.20583500 0.85841900
vt 0.21241000 0.85910800
vt 0.21225000 0.86388600
vt 0.21206500 0.86879900
vt 0.21186800 0.87379800
vt 0.21181900 0.87869900
vt 0.21206500 0.88351400
vt 0.20593300 0.88378500
vt 0.20736200 0.88839000
vt 0.20413500 0.88958400
vt 0.20103200 0.89119700
vt 0.19918500 0.89302000
vt 0.19790500 0.89463300
vt 0.20448000 0.89889300
vt 0.21127700 0.90133100
vt 0.21846800 0.90232900
vt 0.22567200 0.90144200
vt 0.23249400 0.89910300
vt 0.23914300 0.89492800
vt 0.24496700 0.88882100
vt 0.24893200 0.88127300
vt 0.25103800 0.87374900
vt 0.25188800 0.86661900
vt 0.25198600 0.86030300
vt 0.25150600 0.85490900
vt 0.25075500 0.85034100
vt 0.24990500 0.84596900
vt 0.24880900 0.84169700
vt 0.24743000 0.83722700
vt 0.24569400 0.83281900
vt 0.24302200 0.82714200
vt 0.24006600 0.82171200
vt 0.23637200 0.81581300
vt 0.23171800 0.80917700
vt 0.22877500 0.80542100
vt 0.22387400 0.80217000
vt 0.21920700 0.80146800
vt 0.21452800 0.80209600
vt 0.20956600 0.80527300
vt 0.20657400 0.80897900
vt 0.20182000 0.81554300
vt 0.19802800 0.82139200
vt 0.19498600 0.82678500
vt 0.19224100 0.83242500
vt 0.19043000 0.83680800
vt 0.18899000 0.84126600
vt 0.18783200 0.84552600
vt 0.18692100 0.84987300
vt 0.18610800 0.85444100
vt 0.18555400 0.85983500
vt 0.18555400 0.86613900
vt 0.18630500 0.87329300
vt 0.18756100 0.86616400
vt 0.19007300 0.86052400
vt 0.19786800 0.86206300
vt 0.20553900 0.86318400
vt 0.20520700 0.86818300
vt 0.20497300 0.87338000
vt 0.20512100 0.87866200
vt 0.20105700 0.88484400
vt 0.19625500 0.88623500
vt 0.19392700 0.88739200
vt 0.19215400 0.88843900
vt 0.19027000 0.88028800
vt 0.18830000 0.88084200
vt 0.18832500 0.87305900
vt 0.19013500 0.86631200
vt 0.19770800 0.86738300
vt 0.19801600 0.87312100
vt 0.19898800 0.87906800
vt 0.19280700 0.87970900
vt 0.19091100 0.87289900
f 1/1/1 2/2/2 3/3/3
f 3/3/3 2/2/2 4/4/4
f 2/2/2 5/5/5 4/4/4
f 4/4/4 5/5/5 6/6/6
f 6/6/6 5/5/5 7/7/7
f 5/5/5 8/8/8 7/7/7
f 7/7/7 8/8/8 9/9/9
f 8/8/8 10/10/10 9/9/9
f 9/9/9 10/10/10 11/11/11
f 10/10/10 12/12/12 11/11/11
f 11/11/11 12/12/12 13/13/13
f 12/12/12 14/14/14 13/13/13
f 13/13/13 14/14/14 15/15/15
f 15/15/15 14/14/14 16/16/16
f 16/16/16 14/14/14 17/17/17
f 17/17/17 14/14/14 18/18/18
f 14/14/14 12/12/12 18/18/18
f 18/18/18 12/12/12 19/19/19
f 12/12/12 10/10/10 19/19/19
f 19/19/19 10/10/10 20/20/20
f 10/10/10 8/8/8 20/20/20
f 20/20/20 8/8/8 21/21/21
f 8/8/8 5/5/5 21/21/21
f 21/21/21 5/5/5 22/22/22
f 22/22/22 5/5/5 23/23/23
f 5/5/5 2/2/2 23/23/23
f 23/23/23 2/2/2 24/24/24
f 2/2/2 1/1/1 24/24/24
f 24/24/24 1/1/1 25/25/25
f 26/26/26 25/25/25 27/27/27
f 25/25/25 1/1/1 27/27/27
f 27/27/27 1/1/1 28/28/28
f 1/1/1 3/3/3 28/28/28
f 28/28/28 3/3/3 29/29/29
f 29/29/29 3/3/3 30/30/30
f 3/3/3 4/4/4 30/30/30
f 30/30/30 4/4/4 31/31/31
f 4/4/4 6/6/6 31/31/31
f 31/31/31 6/6/6 32/32/32
f 6/6/6 7/7/7 32/32/32
f 32/32/32 7/7/7 33/33/33
f 7/7/7 9/9/9 33/33/33
f 33/33/33 9/9/9 34/34/34
f 9/9/9 11/11/11 34/34/34
f 34/34/34 11/11/11 35/35/35
f 11/11/11 13/13/13 35/35/35
f 35/35/35 13/13/13 36/36/36
f 36/36/36 13/13/13 37/37/37
f 13/13/13 15/15/15 37/37/37
f 37/37/37 15/15/15 38/38/38
f 15/15/15 16/16/16 38/38/38
f 16/16/16 17/17/17 38/38/38
f 38/38/38 17/17/17 39/39/39
f 17/17/17 18/18/18 39/39/39
f 39/39/39 18/18/18 40/40/40
f 40/40/40 18/18/18 41/41/41
f 18/18/18 19/19/19 41/41/41
f 41/41/41 19/19/19 42/42/42
f 19/19/19 20/20/20 42/42/42
f 42/42/42 20/20/20 43/43/43
f 20/20/20 21/21/21 43/43/43
f 43/43/43 21/21/21 44/44/44
f 21/21/21 22/22/22 44/44/44
f 44/44/44 22/22/22 45/45/45
f 22/22/22 23/23/23 45/45/45
f 45/45/45 23/23/23 46/46/46
f 23/23/23 24/24/24 46/46/46
f 46/46/46 24/24/24 47/47/47
f 24/24/24 25/25/25 47/47/47
f 47/47/47 25/25/25 48/48/48
f 25/25/25 26/26/26 48/48/48
f 48/48/48 26/26/26 49/49/49
f 50/50/50 51/51/51 52/52/52
f 52/52/52 51/51/51 53/53/53
f 51/51/51 54/54/54 53/53/53
f 53/53/53 54/54/54 55/55/55
f 54/54/54 49/49/49 55/55/55
f 49/49/49 26/26/26 55/55/55
f 55/55/55 26/26/26 56/56/56
f 26/26/26 27/27/27 56/56/56
f 56/56/56 27/27/27 57/57/57
f 27/27/27 28/28/28 57/57/57
f 57/57/57 28/28/28 58/58/58
f 28/28/28 29/29/29 58/58/58
f 58/58/58 29/29/29 59/59/59
f 59/59/59 29/29/29 60/60/60
f 29/29/29 30/30/30 60/60/60
f 60/60/60 30/30/30 61/61/61
f 30/30/30 31/31/31 61/61/61
f 61/61/61 31/31/31 62/62/62
f 31/31/31 32/32/32 62/62/62
f 62/62/62 32/32/32 63/63/63
f 32/32/32 33/33/33 63/63/63
f 63/63/63 33/33/33 64/64/64
f 33/33/33 34/34/34 64/64/64
f 64/64/64 34/34/34 65/65/65
f 65/65/65 34/34/34 66/66/66
f 34/34/34 35/35/35 66/66/66
f 66/66/66 35/35/35 67/67/67
f 35/35/35 36/36/36 67/67/67
f 67/67/67 36/36/36 68/68/68
f 36/36/36 37/37/37 68/68/68
f 37/37/37 38/38/38 68/68/68
f 68/68/68 38/38/38 69/69/69
f 69/69/69 38/38/38 70/70/70
f 38/38/38 39/39/39 70/70/70
f 39/39/39 40/40/40 70/70/70
f 70/70/70 40/40/40 71/71/71
f 40/40/40 41/41/41 71/71/71
f 71/71/71 41/41/41 72/72/72
f 41/41/41 42/42/42 72/72/72
f 72/72/72 42/42/42 73/73/73
f 73/73/73 42/42/42 74/74/74
f 42/42/42 43/43/43 74/74/74
f 74/74/74 43/43/43 75/75/75
f 43/43/43 44/44/44 75/75/75
f 75/75/75 44/44/44 76/76/76
f 44/44/44 45/45/45 76/76/76
f 76/76/76 45/45/45 77/77/77
f 45/45/45 46/46/46 77/77/77
f 77/77/77 46/46/46 78/78/78
f 46/46/46 47/47/47 78/78/78
f 78/78/78 47/47/47 79/79/79
f 47/47/47 48/48/48 79/79/79
f 79/79/79 48/48/48 80/80/80
f 48/48/48 49/49/49 80/80/80
f 80/80/80 49/49/49 81/81/81
f 49/49/49 54/54/54 81/81/81
f 81/81/81 54/54/54 82/82/82
f 54/54/54 51/51/51 82/82/82
f 82/82/82 51/51/51 83/83/83
f 51/51/51 50/50/50 83/83/83
f 50/50/50 84/84/84 83/83/83
f 83/83/83 84/84/84 85/85/85
f 84/84/84 86/86/86 85/85/85
f 85/85/85 86/86/86 87/87/87
f 87/87/87 86/86/86 88/88/88
f 86/86/86 89/89/89 88/88/88
f 89/89/89 90/90/90 88/88/88
f 88/88/88 90/90/90 91/91/91
f 90/90/90 92/92/92 91/91/91
f 91/91/91 92/92/92 93/93/93
f 92/92/92 94/94/94 93/93/93
f 93/93/93 94/94/94 95/95/95
f 94/94/94 96/96/96 95/95/95
f 95/95/95 96/96/96 97/97/97
f 97/97/97 96/96/96 98/98/98
f 98/98/98 96/96/96 99/99/99
f 99/99/99 96/96/96 100/100/100
f 96/96/96 94/94/94 100/100/100
f 100/100/100 94/94/94 101/101/101
f 94/94/94 92/92/92 101/101/101
f 92/92/92 90/90/90 101/101/101
f 101/101/101 90/90/90 102/102/102
f 90/90/90 89/89/89 102/102/102
f 89/89/89 86/86/86 102/102/102
f 102/102/102 86/86/86 103/103/103
f 86/86/86 84/84/84 103/103/103
f 103/103/103 84/84/84 104/104/104
f 84/84/84 50/50/50 104/104/104
f 104/104/104 50/50/50 105/105/105
f 50/50/50 52/52/52 105/105/105
f 105/105/105 52/52/52 106/106/106
f 106/106/106 52/52/52 107/107/107
f 52/52/52 53/53/53 107/107/107
f 107/107/107 53/53/53 108/108/108
f 53/53/53 55/55/55 108/108/108
f 55/55/55 56/56/56 108/108/108
f 108/108/108 56/56/56 109/109/109
f 56/56/56 57/57/57 109/109/109
f 109/109/109 57/57/57 110/110/110
f 57/57/57 58/58/58 110/110/110
f 110/110/110 58/58/58 111/111/111
f 58/58/58 59/59/59 111/111/111
f 111/111/111 59/59/59 112/112/112
f 112/112/112 59/59/59 113/113/113
f 59/59/59 60/60/60 113/113/113
f 113/113/113 60/60/60 114/114/114
f 60/60/60 61/61/61 114/114/114
f 114/114/114 61/61/61 115/115/115
f 61/61/61 62/62/62 115/115/115
f 115/115/115 62/62/62 116/116/116
f 116/116/116 62/62/62 117/117/117
f 62/62/62 63/63/63 117/117/117
f 117/117/117 63/63/63 118/118/118
f 63/63/63 64/64/64 118/118/118
f 118/118/118 64/64/64 119/119/119
f 64/64/64 65/65/65 119/119/119
f 119/119/119 65/65/65 120/120/120
f 65/65/65 66/66/66 120/120/120
f 120/120/120 66/66/66 121/121/121
f 66/66/66 67/67/67 121/121/121
f 121/121/121 67/67/67 122/122/122
f 67/67/67 68/68/68 122/122/122
f 68/68/68 69/69/69 122/122/122
f 122/122/122 69/69/69 123/123/123
f 123/123/123 69/69/69 124/124/124
f 69/69/69 70/70/70 124/124/124
f 70/70/70 71/71/71 124/124/124
f 124/124/124 71/71/71 125/125/125
f 71/71/71 72/72/72 125/125/125
f 125/125/125 72/72/72 126/126/126
f 72/72/72 73/73/73 126/126/126
f 126/126/126 73/73/73 127/127/127
f 73/73/73 74/74/74 127/127/127
f 127/127/127 74/74/74 128/128/128
f 74/74/74 75/75/75 128/128/128
f 128/128/128 75/75/75 129/129/129
f 75/75/75 76/76/76 129/129/129
f 129/129/129 76/76/76 130/130/130
f 130/130/130 76/76/76 131/131/131
f 76/76/76 77/77/77 131/131/131
f 131/131/131 77/77/77 132/132/132
f 77/77/77 78/78/78 132/132/132
f 132/132/132 78/78/78 133/133/133
f 78/78/78 79/79/79 133/133/133
f 133/133/133 79/79/79 134/134/134
f 79/79/79 80/80/80 134/134/134
f 134/134/134 80/80/80 135/135/135
f 80/80/80 81/81/81 135/135/135
f 135/135/135 81/81/81 136/136/136
f 81/81/81 82/82/82 136/136/136
f 136/136/136 82/82/82 137/137/137
f 82/82/82 83/83/83 137/137/137
f 137/137/137 83/83/83 138/138/138
f 83/83/83 85/85/85 138/138/138
f 85/85/85 87/87/87 138/138/138
f 138/138/138 87/87/87 139/139/139
f 87/87/87 88/88/88 139/139/139
f 139/139/139 88/88/88 140/140/140
f 88/88/88 91/91/91 140/140/140
f 140/140/140 91/91/91 141/141/141
f 91/91/91 93/93/93 141/141/141
f 141/141/141 93/93/93 142/142/142
f 93/93/93 95/95/95 142/142/142
f 142/142/142 95/95/95 143/143/143
f 143/143/143 95/95/95 144/144/144
f 95/95/95 97/97/97 144/144/144
f 97/97/97 98/98/98 144/144/144
f 144/144/144 98/98/98 145/145/145
f 145/145/145 98/98/98 146/146/146
f 146/146/146 98/98/98 147/147/147
f 98/98/98 99/99/99 147/147/147
f 147/147/147 99/99/99 148/148/148
f 148/148/148 99/99/99 149/149/149
f 99/99/99 100/100/100 149/149/149
f 149/149/149 100/100/100 150/150/150
f 100/100/100 101/101/101 150/150/150
f 101/101/101 102/102/102 150/150/150
f 150/150/150 102/102/102 151/151/151
f 102/102/102 103/103/103 151/151/151
f 151/151/151 103/103/103 152/152/152
f 103/103/103 104/104/104 152/152/152
f 152/152/152 104/104/104 153/153/153
f 104/104/104 105/105/105 153/153/153
f 105/105/105 106/106/106 153/153/153
f 153/153/153 106/106/106 154/154/154
f 154/154/154 106/106/106 155/155/155
f 106/106/106 107/107/107 155/155/155
f 155/155/155 107/107/107 156/156/156
f 107/107/107 108/108/108 156/156/156
f 108/108/108 109/109/109 156/156/156
f 156/156/156 109/109/109 157/157/157
f 109/109/109 110/110/110 157/157/157
f 157/157/157 110/110/110 158/158/158
f 110/110/110 111/111/111 158/158/158
f 158/158/158 111/111/111 159/159/159
f 111/111/111 112/112/112 159/159/159
f 160/160/160 159/159/159 161/161/161
f 159/159/159 112/112/112 161/161/161
f 161/161/161 112/112/112 162/162/162
f 112/112/112 113/113/113 162/162/162
f 162/162/162 113/113/113 163/163/163
f 163/163/163 113/113/113 164/164/164
f 113/113/113 114/114/114 164/164/164
f 164/164/164 114/114/114 165/165/165
f 114/114/114 115/115/115 165/165/165
f 115/115/115 116/116/116 165/165/165
f 165/165/165 116/116/116 166/166/166
f 166/166/166 116/116/116 167/167/167
f 116/116/116 117/117/117 167/167/167
f 167/167/167 117/117/117 168/168/168
f 117/117/117 118/118/118 168/168/168
f 118/118/118 119/119/119 168/168/168
f 168/168/168 119/119/119 169/169/169
f 119/119/119 120/120/120 169/169/169
f 169/169/169 120/120/120 170/170/170
f 120/120/120 121/121/121 170/170/170
f 170/170/170 121/121/121 171/171/171
f 171/171/171 121/121/121 172/172/172
f 121/121/121 122/122/122 172/172/172
f 172/172/172 122/122/122 173/173/173
f 122/122/122 123/123/123 173/173/173
f 123/123/123 124/124/124 173/173/173
f 173/173/173 124/124/124 174/174/174
f 124/124/124 125/125/125 174/174/174
f 174/174/174 125/125/125 175/175/175
f 175/175/175 125/125/125 176/176/176
f 125/125/125 126/126/126 176/176/176
f 176/176/176 126/126/126 177/177/177
f 126/126/126 127/127/127 177/177/177
f 177/177/177 127/127/127 178/178/178
f 127/127/127 128/128/128 178/178/178
f 128/128/128 129/129/129 178/178/178
f 178/178/178 129/129/129 179/179/179
f 129/129/129 130/130/130 179/179/179
f 179/179/179 130/130/130 180/180/180
f 180/180/180 130/130/130 181/181/181
f 130/130/130 131/131/131 181/181/181
f 131/131/131 132/132/132 181/181/181
f 181/181/181 132/132/132 182/182/182
f 132/132/132 133/133/133 182/182/182
f 182/182/182 133/133/133 183/183/183
f 183/183/183 133/133/133 184/184/184
f 133/133/133 134/134/134 184/184/184
f 184/184/184 134/134/134 185/185/185
f 134/134/134 135/135/135 185/185/185
f 185/185/185 135/135/135 186/186/186
f 135/135/135 136/136/136 186/186/186
f 186/186/186 136/136/136 187/187/187
f 136/136/136 137/137/137 187/187/187
f 187/187/187 137/137/137 188/188/188
f 137/137/137 138/138/138 188/188/188
f 188/188/188 138/138/138 189/189/189
f 138/138/138 139/139/139 189/189/189
f 189/189/189 139/139/139 190/190/190
f 139/139/139 140/140/140 190/190/190
f 190/190/190 140/140/140 191/191/191
f 140/140/140 141/141/141 191/191/191
f 191/191/191 141/141/141 192/192/192
f 141/141/141 142/142/142 192/192/192
f 142/142/142 143/143/143 192/192/192
f 192/192/192 143/143/143 193/193/193
f 143/143/143 144/144/144 193/193/193
f 193/193/193 144/144/144 194/194/194
f 194/194/194 144/144/144 195/195/195
f 144/144/144 145/145/145 195/195/195
f 195/195/195 145/145/145 196/196/196
f 145/145/145 146/146/146 196/196/196
f 197/197/197 196/196/196 198/198/198
f 196/196/196 146/146/146 198/198/198
f 146/146/146 147/147/147 198/198/198
f 198/198/198 147/147/147 199/199/199
f 147/147/147 148/148/148 199/199/199
f 199/199/199 148/148/148 200/200/200
f 148/148/148 149/149/149 200/200/200
f 201/201/201 200/200/200 202/202/202
f 200/200/200 149/149/149 202/202/202
f 149/149/149 150/150/150 202/202/202
f 150/150/150 151/151/151 202/202/202
f 202/202/202 151/151/151 203/203/203
f 151/151/151 152/152/152 203/203/203
f 203/203/203 152/152/152 204/204/204
f 152/152/152 153/153/153 204/204/204
f 153/153/153 154/154/154 204/204/204
f 204/204/204 154/154/154 205/205/205
f 154/154/154 155/155/155 205/205/205
f 205/205/205 155/155/155 206/206/206
f 155/155/155 156/156/156 206/206/206
f 156/156/156 157/157/157 206/206/206
f 206/206/206 157/157/157 207/207/207
f 157/157/157 158/158/158 207/207/207
f 207/207/207 158/158/158 208/208/208
f 158/158/158 159/159/159 208/208/208
f 159/159/159 160/160/160 208/208/208
f 208/208/208 160/160/160 209/209/209
f 210/210/210 209/209/209 211/211/211
f 209/209/209 160/160/160 211/211/211
f 211/211/211 160/160/160 212/212/212
f 160/160/160 161/161/161 212/212/212
f 212/212/212 161/161/161 213/213/213
f 161/161/161 162/162/162 213/213/213
f 213/213/213 162/162/162 214/214/214
f 162/162/162 163/163/163 214/214/214
f 214/214/214 163/163/163 215/215/215
f 215/215/215 163/163/163 216/216/216
f 163/163/163 164/164/164 216/216/216
f 216/216/216 164/164/164 217/217/217
f 164/164/164 165/165/165 217/217/217
f 165/165/165 166/166/166 217/217/217
f 217/217/217 166/166/166 218/218/218
f 166/166/166 167/167/167 218/218/218
f 218/218/218 167/167/167 219/219/219
f 167/167/167 168/168/168 219/219/219
f 219/219/219 168/168/168 220/220/220
f 168/168/168 169/169/169 220/220/220
f 220/220/220 169/169/169 221/221/221
f 169/169/169 170/170/170 221/221/221
f 221/221/221 170/170/170 222/222/222
f 170/170/170 171/171/171 222/222/222
f 222/222/222 171/171/171 223/223/223
f 223/223/223 171/171/171 224/224/224
f 171/171/171 172/172/172 224/224/224
f 224/224/224 172/172/172 225/225/225
f 172/172/172 173/173/173 225/225/225
f 173/173/173 174/174/174 225/225/225
f 225/225/225 174/174/174 226/226/226
f 174/174/174 175/175/175 226/226/226
f 226/226/226 175/175/175 227/227/227
f 227/227/227 175/175/175 228/228/228
f 175/175/175 176/176/176 228/228/228
f 228/228/228 176/176/176 229/229/229
f 176/176/176 177/177/177 229/229/229
f 229/229/229 177/177/177 230/230/230
f 177/177/177 178/178/178 230/230/230
f 230/230/230 178/178/178 231/231/231
f 178/178/178 179/179/179 231/231/231
f 231/231/231 179/179/179 232/232/232
f 179/179/179 180/180/180 232/232/232
f 232/232/232 180/180/180 233/233/233
f 180/180/180 181/181/181 233/233/233
f 181/181/181 182/182/182 233/233/233
f 233/233/233 182/182/182 234/234/234
f 182/182/182 183/183/183 234/234/234
f 234/234/234 183/183/183 235/235/235
f 235/235/235 183/183/183 236/236/236
f 183/183/183 184/184/184 236/236/236
f 236/236/236 184/184/184 237/237/237
f 184/184/184 185/185/185 237/237/237
f 237/237/237 185/185/185 238/238/238
f 185/185/185 186/186/186 238/238/238
f 238/238/238 186/186/186 239/239/239
f 186/186/186 187/187/187 239/239/239
f 239/239/239 187/187/187 240/240/240
f 187/187/187 188/188/188 240/240/240
f 240/240/240 188/188/188 241/241/241
f 188/188/188 189/189/189 241/241/241
f 241/241/241 189/189/189 242/242/242
f 189/189/189 190/190/190 242/242/242
f 242/242/242 190/190/190 243/243/243
f 190/190/190 191/191/191 243/243/243
f 243/243/243 191/191/191 244/244/244
f 191/191/191 192/192/192 244/244/244
f 244/244/244 192/192/192 245/245/245
f 192/192/192 193/193/193 245/245/245
f 193/193/193 194/194/194 245/245/245
f 245/245/245 194/194/194 246/246/246
f 246/246/246 194/194/194 247/247/247
f 194/194/194 195/195/195 247/247/247
f 195/195/195 196/196/196 247/247/247
f 247/247/247 196/196/196 248/248/248
f 196/196/196 197/197/197 248/248/248
f 248/248/248 197/197/197 249/249/249
f 250/250/250 249/249/249 251/251/251
f 249/249/249 197/197/197 251/251/251
f 251/251/251 197/197/197 252/252/252
f 197/197/197 198/198/198 252/252/252
f 198/198/198 199/199/199 252/252/252
f 252/252/252 199/199/199 253/253/253
f 199/199/199 200/200/200 253/253/253
f 200/200/200 201/201/201 253/253/253
f 253/253/253 201/201/201 254/254/254
f 201/201/201 202/202/202 254/254/254
f 202/202/202 203/203/203 254/254/254
f 254/254/254 203/203/203 255/255/255
f 203/203/203 204/204/204 255/255/255
f 204/204/204 205/205/205 255/255/255
f 255/255/255 205/205/205 256/256/256
f 205/205/205 206/206/206 256/256/256
f 206/206/206 207/207/207 256/256/256
f 256/256/256 207/207/207 257/257/257
f 207/207/207 208/208/208 257/257/257
f 208/208/208 209/209/209 257/257/257
f 257/257/257 209/209/209 258/258/258
f 209/209/209 210/210/210 258/258/258
f 210/210/210 259/259/259 258/258/258
f 258/258/258 259/259/259 260/260/260
f 259/259/259 250/250/250 260/260/260
f 250/250/250 251/251/251 260/260/260
f 260/260/260 251/251/251 261/261/261
f 251/251/251 252/252/252 261/261/261
f 252/252/252 253/253/253 261/261/261
f 261/261/261 253/253/253 262/262/262
f 253/253/253 254/254/254 262/262/262
f 262/262/262 254/254/254 263/263/263
f 254/254/254 255/255/255 263/263/263
f 255/255/255 256/256/256 263/263/263
f 263/263/263 256/256/256 264/264/264
f 256/256/256 257/257/257 264/264/264
f 257/257/257 258/258/258 264/264/264
f 258/258/258 260/260/260 264/264/264
f 260/260/260 261/261/261 264/264/264
f 261/261/261 262/262/262 264/264/264
f 263/263/263 264/264/264 262/262/262
f 265/265/265 266/266/266 267/267/267
f 266/266/266 268/268/268 267/267/267
f 267/267/267 268/268/268 269/269/269
f 268/268/268 270/270/270 269/269/269
f 270/270/270 271/271/271 269/269/269
f 269/269/269 271/271/271 272/272/272
f 271/271/271 273/273/273 272/272/272
f 272/272/272 273/273/273 274/274/274
f 274/274/274 273/273/273 275/275/275
f 273/273/273 276/276/276 275/275/275
f 275/275/275 276/276/276 277/277/277
f 276/276/276 278/278/278 277/277/277
f 277/277/277 278/278/278 279/279/279
f 279/279/279 278/278/278 280/280/280
f 280/280/280 278/278/278 281/281/281
f 281/281/281 278/278/278 282/282/282
f 278/278/278 276/276/276 282/282/282
f 282/282/282 276/276/276 283/283/283
f 276/276/276 273/273/273 283/283/283
f 283/283/283 273/273/273 284/284/284
f 273/273/273 271/271/271 284/284/284
f 284/284/284 271/271/271 285/285/285
f 285/285/285 271/271/271 286/286/286
f 271/271/271 270/270/270 286/286/286
f 270/270/270 268/268/268 286/286/286
f 286/286/286 268/268/268 287/287/287
f 268/268/268 266/266/266 287/287/287
f 287/287/287 266/266/266 288/288/288
f 288/288/288 266/266/266 289/289/289
f 266/266/266 265/265/265 289/289/289
f 289/289/289 265/265/265 290/290/290
f 291/291/291 290/290/290 292/292/292
f 290/290/290 265/265/265 292/292/292
f 292/292/292 265/265/265 293/293/293
f 265/265/265 267/267/267 293/293/293
f 293/293/293 267/267/267 294/294/294
f 267/267/267 269/269/269 294/294/294
f 294/294/294 269/269/269 295/295/295
f 269/269/269 272/272/272 295/295/295
f 295/295/295 272/272/272 296/296/296
f 272/272/272 274/274/274 296/296/296
f 296/296/296 274/274/274 297/297/297
f 274/274/274 275/275/275 297/297/297
f 297/297/297 275/275/275 298/298/298
f 275/275/275 277/277/277 298/298/298
f 298/298/298 277/277/277 299/299/299
f 299/299/299 277/277/277 300/300/300
f 277/277/277 279/279/279 300/300/300
f 300/300/300 279/279/279 301/301/301
f 279/279/279 280/280/280 301/301/301
f 280/280/280 281/281/281 301/301/301
f 301/301/301 281/281/281 302/302/302
f 281/281/281 282/282/282 302/302/302
f 302/302/302 282/282/282 303/303/303
f 303/303/303 282/282/282 304/304/304
f 282/282/282 283/283/283 304/304/304
f 304/304/304 283/283/283 305/305/305
f 283/283/283 284/284/284 305/305/305
f 305/305/305 284/284/284 306/306/306
f 284/284/284 285/285/285 306/306/306
f 306/306/306 285/285/285 307/307/307
f 285/285/285 286/286/286 307/307/307
f 307/307/307 286/286/286 308/308/308
f 286/286/286 287/287/287 308/308/308
f 308/308/308 287/287/287 309/309/309
f 287/287/287 288/288/288 309/309/309
f 309/309/309 288/288/288 310/310/310
f 310/310/310 288/288/288 311/311/311
f 288/288/288 289/289/289 311/311/311
f 311/311/311 289/289/289 312/312/312
f 289/289/289 290/290/290 312/312/312
f 312/312/312 290/290/290 313/313/313
f 290/290/290 291/291/291 313/313/313
f 313/313/313 291/291/291 314/314/314
f 315/315/315 316/316/316 317/317/317
f 316/316/316 318/318/318 317/317/317
f 317/317/317 318/318/318 319/319/319
f 318/318/318 320/320/320 319/319/319
f 319/319/319 320/320/320 321/321/321
f 320/320/320 322/322/322 321/321/321
f 322/322/322 323/323/323 321/321/321
f 321/321/321 323/323/323 324/324/324
f 324/324/324 323/323/323 325/325/325
f 323/323/323 326/326/326 325/325/325
f 325/325/325 326/326/326 327/327/327
f 326/326/326 328/328/328 327/327/327
f 328/328/328 329/329/329 327/327/327
f 327/327/327 329/329/329 330/330/330
f 329/329/329 331/331/331 330/330/330
f 330/330/330 331/331/331 332/332/332
f 331/331/331 314/314/314 332/332/332
f 332/332/332 314/314/314 333/333/333
f 314/314/314 291/291/291 333/333/333
f 333/333/333 291/291/291 334/334/334
f 291/291/291 292/292/292 334/334/334
f 334/334/334 292/292/292 335/335/335
f 292/292/292 293/293/293 335/335/335
f 335/335/335 293/293/293 336/336/336
f 293/293/293 294/294/294 336/336/336
f 336/336/336 294/294/294 337/337/337
f 294/294/294 295/295/295 337/337/337
f 337/337/337 295/295/295 338/338/338
f 295/295/295 296/296/296 338/338/338
f 338/338/338 296/296/296 339/339/339
f 296/296/296 297/297/297 339/339/339
f 339/339/339 297/297/297 340/340/340
f 340/340/340 297/297/297 341/341/341
f 297/297/297 298/298/298 341/341/341
f 341/341/341 298/298/298 342/342/342
f 298/298/298 299/299/299 342/342/342
f 342/342/342 299/299/299 343/343/343
f 299/299/299 300/300/300 343/343/343
f 300/300/300 301/301/301 343/343/343
f 343/343/343 301/301/301 344/344/344
f 344/344/344 301/301/301 345/345/345
f 301/301/301 302/302/302 345/345/345
f 302/302/302 303/303/303 345/345/345
f 345/345/345 303/303/303 346/346/346
f 303/303/303 304/304/304 346/346/346
f 346/346/346 304/304/304 347/347/347
f 304/304/304 305/305/305 347/347/347
f 347/347/347 305/305/305 348/348/348
f 348/348/348 305/305/305 349/349/349
f 305/305/305 306/306/306 349/349/349
f 349/349/349 306/306/306 350/350/350
f 306/306/306 307/307/307 350/350/350
f 350/350/350 307/307/307 351/351/351
f 307/307/307 308/308/308 351/351/351
f 351/351/351 308/308/308 352/352/352
f 308/308/308 309/309/309 352/352/352
f 352/352/352 309/309/309 353/353/353
f 309/309/309 310/310/310 353/353/353
f 353/353/353 310/310/310 354/354/354
f 354/354/354 310/310/310 355/355/355
f 310/310/310 311/311/311 355/355/355
f 355/355/355 311/311/311 356/356/356
f 311/311/311 312/312/312 356/356/356
f 356/356/356 312/312/312 357/357/357
f 312/312/312 313/313/313 357/357/357
f 357/357/357 313/313/313 358/358/358
f 313/313/313 314/314/314 358/358/358
f 314/314/314 331/331/331 358/358/358
f 358/358/358 331/331/331 359/359/359
f 331/331/331 329/329/329 359/359/359
f 359/359/359 329/329/329 360/360/360
f 329/329/329 328/328/328 360/360/360
f 360/360/360 328/328/328 361/361/361
f 361/361/361 328/328/328 362/362/362
f 328/328/328 326/326/326 362/362/362
f 362/362/362 326/326/326 363/363/363
f 326/326/326 323/323/323 363/363/363
f 363/363/363 323/323/323 364/364/364
f 323/323/323 322/322/322 364/364/364
f 322/322/322 320/320/320 364/364/364
f 364/364/364 320/320/320 365/365/365
f 320/320/320 318/318/318 365/365/365
f 318/318/318 316/316/316 365/365/365
f 365/365/365 316/316/316 366/366/366
f 316/316/316 315/315/315 366/366/366
f 315/315/315 367/367/367 366/366/366
f 368/368/368 366/366/366 369/369/369
f 366/366/366 367/367/367 369/369/369
f 369/369/369 367/367/367 370/370/370
f 370/370/370 367/367/367 371/371/371
f 371/371/371 367/367/367 372/372/372
f 367/367/367 315/315/315 372/372/372
f 372/372/372 315/315/315 373/373/373
f 315/315/315 317/317/317 373/373/373
f 373/373/373 317/317/317 374/374/374
f 317/317/317 319/319/319 374/374/374
f 374/374/374 319/319/319 375/375/375
f 319/319/319 321/321/321 375/375/375
f 375/375/375 321/321/321 376/376/376
f 321/321/321 324/324/324 376/376/376
f 376/376/376 324/324/324 377/377/377
f 324/324/324 325/325/325 377/377/377
f 325/325/325 327/327/327 377/377/377
f 377/377/377 327/327/327 378/378/378
f 327/327/327 330/330/330 378/378/378
f 378/378/378 330/330/330 379/379/379
f 330/330/330 332/332/332 379/379/379
f 379/379/379 332/332/332 380/380/380
f 332/332/332 333/333/333 380/380/380
f 380/380/380 333/333/333 381/381/381
f 333/333/333 334/334/334 381/381/381
f 381/381/381 334/334/334 382/382/382
f 334/334/334 335/335/335 382/382/382
f 382/382/382 335/335/335 383/383/383
f 335/335/335 336/336/336 383/383/383
f 383/383/383 336/336/336 384/384/384
f 336/336/336 337/337/337 384/384/384
f 384/384/384 337/337/337 385/385/385
f 385/385/385 337/337/337 386/386/386
f 337/337/337 338/338/338 386/386/386
f 386/386/386 338/338/338 387/387/387
f 338/338/338 339/339/339 387/387/387
f 387/387/387 339/339/339 388/388/388
f 339/339/339 340/340/340 388/388/388
f 388/388/388 340/340/340 389/389/389
f 340/340/340 341/341/341 389/389/389
f 389/389/389 341/341/341 390/390/390
f 341/341/341 342/342/342 390/390/390
f 390/390/390 342/342/342 391/391/391
f 342/342/342 343/343/343 391/391/391
f 343/343/343 344/344/344 391/391/391
f 391/391/391 344/344/344 392/392/392
f 392/392/392 344/344/344 393/393/393
f 344/344/344 345/345/345 393/393/393
f 345/345/345 346/346/346 393/393/393
f 393/393/393 346/346/346 394/394/394
f 346/346/346 347/347/347 394/394/394
f 394/394/394 347/347/347 395/395/395
f 347/347/347 348/348/348 395/395/395
f 395/395/395 348/348/348 396/396/396
f 348/348/348 349/349/349 396/396/396
f 396/396/396 349/349/349 397/397/397
f 349/349/349 350/350/350 397/397/397
f 397/397/397 350/350/350 398/398/398
f 350/350/350 351/351/351 398/398/398
f 398/398/398 351/351/351 399/399/399
f 399/399/399 351/351/351 400/400/400
f 351/351/351 352/352/352 400/400/400
f 400/400/400 352/352/352 401/401/401
f 352/352/352 353/353/353 401/401/401
f 401/401/401 353/353/353 402/402/402
f 353/353/353 354/354/354 402/402/402
f 402/402/402 354/354/354 403/403/403
f 403/403/403 354/354/354 404/404/404
f 354/354/354 355/355/355 404/404/404
f 404/404/404 355/355/355 405/405/405
f 355/355/355 356/356/356 405/405/405
f 405/405/405 356/356/356 406/406/406
f 356/356/356 357/357/357 406/406/406
f 406/406/406 357/357/357 407/407/407
f 357/357/357 358/358/358 407/407/407
f 358/358/358 359/359/359 407/407/407
f 407/407/407 359/359/359 408/408/408
f 359/359/359 360/360/360 408/408/408
f 408/408/408 360/360/360 409/409/409
f 360/360/360 361/361/361 409/409/409
f 409/409/409 361/361/361 410/410/410
f 361/361/361 362/362/362 410/410/410
f 410/410/410 362/362/362 411/411/411
f 362/362/362 363/363/363 411/411/411
f 363/363/363 364/364/364 411/411/411
f 411/411/411 364/364/364 412/412/412
f 412/412/412 364/364/364 413/413/413
f 364/364/364 365/365/365 413/413/413
f 365/365/365 366/366/366 413/413/413
f 413/413/413 366/366/366 414/414/414
f 366/366/366 368/368/368 414/414/414
f 414/414/414 368/368/368 415/415/415
f 415/415/415 368/368/368 416/416/416
f 368/368/368 369/369/369 416/416/416
f 416/416/416 369/369/369 417/417/417
f 369/369/369 370/370/370 417/417/417
f 417/417/417 370/370/370 418/418/418
f 418/418/418 370/370/370 419/419/419
f 370/370/370 371/371/371 419/419/419
f 419/419/419 371/371/371 420/420/420
f 420/420/420 371/371/371 421/421/421
f 371/371/371 372/372/372 421/421/421
f 421/421/421 372/372/372 422/422/422
f 372/372/372 373/373/373 422/422/422
f 373/373/373 374/374/374 422/422/422
f 422/422/422 374/374/374 423/423/423
f 374/374/374 375/375/375 423/423/423
f 423/423/423 375/375/375 424/424/424
f 375/375/375 376/376/376 424/424/424
f 424/424/424 376/376/376 425/425/425
f 376/376/376 377/377/377 425/425/425
f 425/425/425 377/377/377 426/426/426
f 377/377/377 378/378/378 426/426/426
f 426/426/426 378/378/378 427/427/427
f 378/378/378 379/379/379 427/427/427
f 427/427/427 379/379/379 428/428/428
f 379/379/379 380/380/380 428/428/428
f 428/428/428 380/380/380 429/429/429
f 380/380/380 381/381/381 429/429/429
f 429/429/429 381/381/381 430/430/430
f 381/381/381 382/382/382 430/430/430
f 430/430/430 382/382/382 431/431/431
f 431/431/431 382/382/382 432/432/432
f 382/382/382 383/383/383 432/432/432
f 432/432/432 383/383/383 433/433/433
f 383/383/383 384/384/384 433/433/433
f 384/384/384 385/385/385 433/433/433
f 433/433/433 385/385/385 434/434/434
f 434/434/434 385/385/385 435/435/435
f 385/385/385 386/386/386 435/435/435
f 435/435/435 386/386/386 436/436/436
f 386/386/386 387/387/387 436/436/436
f 387/387/387 388/388/388 436/436/436
f 436/436/436 388/388/388 437/437/437
f 388/388/388 389/389/389 437/437/437
f 437/437/437 389/389/389 438/438/438
f 389/389/389 390/390/390 438/438/438
f 438/438/438 390/390/390 439/439/439
f 439/439/439 390/390/390 440/440/440
f 390/390/390 391/391/391 440/440/440
f 440/440/440 391/391/391 441/441/441
f 391/391/391 392/392/392 441/441/441
f 392/392/392 393/393/393 441/441/441
f 441/441/441 393/393/393 442/442/442
f 393/393/393 394/394/394 442/442/442
f 442/442/442 394/394/394 443/443/443
f 443/443/443 394/394/394 444/444/444
f 394/394/394 395/395/395 444/444/444
f 444/444/444 395/395/395 445/445/445
f 395/395/395 396/396/396 445/445/445
f 445/445/445 396/396/396 446/446/446
f 396/396/396 397/397/397 446/446/446
f 397/397/397 398/398/398 446/446/446
f 446/446/446 398/398/398 447/447/447
f 398/398/398 399/399/399 447/447/447
f 447/447/447 399/399/399 448/448/448
f 448/448/448 399/399/399 449/449/449
f 399/399/399 400/400/400 449/449/449
f 400/400/400 401/401/401 449/449/449
f 449/449/449 401/401/401 450/450/450
f 401/401/401 402/402/402 450/450/450
f 450/450/450 402/402/402 451/451/451
f 451/451/451 402/402/402 452/452/452
f 402/402/402 403/403/403 452/452/452
f 452/452/452 403/403/403 453/453/453
f 454/454/454 453/453/453 455/455/455
f 453/453/453 403/403/403 455/455/455
f 403/403/403 404/404/404 455/455/455
f 455/455/455 404/404/404 456/456/456
f 404/404/404 405/405/405 456/456/456
f 456/456/456 405/405/405 457/457/457
f 405/405/405 406/406/406 457/457/457
f 457/457/457 406/406/406 458/458/458
f 406/406/406 407/407/407 458/458/458
f 407/407/407 408/408/408 458/458/458
f 458/458/458 408/408/408 459/459/459
f 408/408/408 409/409/409 459/459/459
f 459/459/459 409/409/409 460/460/460
f 409/409/409 410/410/410 460/460/460
f 460/460/460 410/410/410 461/461/461
f 410/410/410 411/411/411 461/461/461
f 461/461/461 411/411/411 462/462/462
f 462/462/462 411/411/411 463/463/463
f 411/411/411 412/412/412 463/463/463
f 412/412/412 413/413/413 463/463/463
f 413/413/413 414/414/414 463/463/463
f 464/464/464 463/463/463 465/465/465
f 463/463/463 414/414/414 465/465/465
f 414/414/414 415/415/415 465/465/465
f 465/465/465 415/415/415 466/466/466
f 415/415/415 416/416/416 466/466/466
f 466/466/466 416/416/416 467/467/467
f 416/416/416 417/417/417 467/467/467
f 417/417/417 418/418/418 467/467/467
f 467/467/467 418/418/418 468/468/468
f 469/469/469 468/468/468 470/470/470
f 468/468/468 418/418/418 470/470/470
f 470/470/470 418/418/418 471/471/471
f 418/418/418 419/419/419 471/471/471
f 419/419/419 420/420/420 471/471/471
f 471/471/471 420/420/420 472/472/472
f 472/472/472 420/420/420 473/473/473
f 420/420/420 421/421/421 473/473/473
f 421/421/421 422/422/422 473/473/473
f 473/473/473 422/422/422 474/474/474
f 422/422/422 423/423/423 474/474/474
f 474/474/474 423/423/423 475/475/475
f 423/423/423 424/424/424 475/475/475
f 475/475/475 424/424/424 476/476/476
f 424/424/424 425/425/425 476/476/476
f 476/476/476 425/425/425 477/477/477
f 425/425/425 426/426/426 477/477/477
f 477/477/477 426/426/426 478/478/478
f 426/426/426 427/427/427 478/478/478
f 478/478/478 427/427/427 479/479/479
f 427/427/427 428/428/428 479/479/479
f 479/479/479 428/428/428 480/480/480
f 428/428/428 429/429/429 480/480/480
f 480/480/480 429/429/429 481/481/481
f 429/429/429 430/430/430 481/481/481
f 481/481/481 430/430/430 482/482/482
f 430/430/430 431/431/431 482/482/482
f 482/482/482 431/431/431 483/483/483
f 483/483/483 431/431/431 484/484/484
f 431/431/431 432/432/432 484/484/484
f 484/484/484 432/432/432 485/485/485
f 432/432/432 433/433/433 485/485/485
f 433/433/433 434/434/434 485/485/485
f 485/485/485 434/434/434 486/486/486
f 434/434/434 435/435/435 486/486/486
f 486/486/486 435/435/435 487/487/487
f 435/435/435 436/436/436 487/487/487
f 487/487/487 436/436/436 488/488/488
f 436/436/436 437/437/437 488/488/488
f 488/488/488 437/437/437 489/489/489
f 437/437/437 438/438/438 489/489/489
f 489/489/489 438/438/438 490/490/490
f 438/438/438 439/439/439 490/490/490
f 490/490/490 439/439/439 491/491/491
f 491/491/491 439/439/439 492/492/492
f 439/439/439 440/440/440 492/492/492
f 492/492/492 440/440/440 493/493/493
f 440/440/440 441/441/441 493/493/493
f 441/441/441 442/442/442 493/493/493
f 493/493/493 442/442/442 494/494/494
f 442/442/442 443/443/443 494/494/494
f 494/494/494 443/443/443 495/495/495
f 495/495/495 443/443/443 496/496/496
f 443/443/443 444/444/444 496/496/496
f 496/496/496 444/444/444 497/497/497
f 444/444/444 445/445/445 497/497/497
f 497/497/497 445/445/445 498/498/498
f 445/445/445 446/446/446 498/498/498
f 498/498/498 446/446/446 499/499/499
f 446/446/446 447/447/447 499/499/499
f 499/499/499 447/447/447 500/500/500
f 447/447/447 448/448/448 500/500/500
f 500/500/500 448/448/448 501/501/501
f 448/448/448 449/449/449 501/501/501
f 449/449/449 450/450/450 501/501/501
f 501/501/501 450/450/450 502/502/502
f 450/450/450 451/451/451 502/502/502
f 502/502/502 451/451/451 503/503/503
f 503/503/503 451/451/451 504/504/504
f 451/451/451 452/452/452 504/504/504
f 504/504/504 452/452/452 505/505/505
f 452/452/452 453/453/453 505/505/505
f 505/505/505 453/453/453 506/506/506
f 453/453/453 454/454/454 506/506/506
f 506/506/506 454/454/454 507/507/507
f 508/508/508 507/507/507 509/509/509
f 507/507/507 454/454/454 509/509/509
f 509/509/509 454/454/454 510/510/510
f 454/454/454 455/455/455 510/510/510
f 455/455/455 456/456/456 510/510/510
f 510/510/510 456/456/456 511/511/511
f 456/456/456 457/457/457 511/511/511
f 511/511/511 457/457/457 512/512/512
f 457/457/457 458/458/458 512/512/512
f 458/458/458 459/459/459 512/512/512
f 512/512/512 459/459/459 513/513/513
f 459/459/459 460/460/460 513/513/513
f 460/460/460 461/461/461 513/513/513
f 513/513/513 461/461/461 514/514/514
f 461/461/461 462/462/462 514/514/514
f 514/514/514 462/462/462 515/515/515
f 462/462/462 463/463/463 515/515/515
f 463/463/463 464/464/464 515/515/515
f 515/515/515 464/464/464 516/516/516
f 464/464/464 465/465/465 516/516/516
f 465/465/465 466/466/466 516/516/516
f 516/516/516 466/466/466 517/517/517
f 466/466/466 467/467/467 517/517/517
f 467/467/467 468/468/468 517/517/517
f 517/517/517 468/468/468 518/518/518
f 468/468/468 469/469/469 518/518/518
f 469/469/469 519/519/519 518/518/518
f 518/518/518 519/519/519 520/520/520
f 519/519/519 521/521/521 520/520/520
f 520/520/520 521/521/521 522/522/522
f 521/521/521 508/508/508 522/522/522
f 508/508/508 509/509/509 522/522/522
f 522/522/522 509/509/509 523/523/523
f 509/509/509 510/510/510 523/523/523
f 510/510/510 511/511/511 523/523/523
f 523/523/523 511/511/511 524/524/524
f 511/511/511 512/512/512 524/524/524
f 512/512/512 513/513/513 524/524/524
f 513/513/513 514/514/514 524/524/524
f 524/524/524 514/514/514 525/525/525
f 514/514/514 515/515/515 525/525/525
f 525/525/525 515/515/515 526/526/526
f 515/515/515 516/516/516 526/526/526
f 526/526/526 516/516/516 527/527/527
f 516/516/516 517/517/517 527/527/527
f 517/517/517 518/518/518 527/527/527
f 518/518/518 520/520/520 527/527/527
f 527/527/527 520/520/520 528/528/528
f 520/520/520 522/522/522 528/528/528
f 522/522/522 523/523/523 528/528/528
f 523/523/523 524/524/524 528/528/528
f 524/524/524 525/525/525 528/528/528
f 525/525/525 526/526/526 528/528/528
f 527/527/527 528/528/528 526/526/526

