mtllib material.mtl
usemtl Rubber_Black.003
v 0.01178100 0.05050600 0.58893000
v 0.01178100 0.05050600 0.58893000
v -0.00000200 0.05050600 0.64788200
v 0.02311000 0.05050600 0.59236700
v 0.02311000 0.05050600 0.59236700
v 0.03353400 0.05050600 0.59791900
v 0.03353400 0.05050600 0.59791900
v 0.04271100 0.05050600 0.60539600
v 0.04271100 0.05050600 0.60539600
v 0.05022600 0.05050600 0.61449800
v 0.05022600 0.05050600 0.61449800
v 0.05577700 0.05050600 0.62488300
v 0.05577700 0.05050600 0.62488300
v 0.05921400 0.05050600 0.63613700
v 0.05921400 0.05050600 0.63613700
v 0.06038500 0.05050600 0.64788200
v 0.06038500 0.05050600 0.64788200
v 0.05921400 0.05050600 0.65959000
v 0.05921400 0.05050600 0.65959000
v 0.05577700 0.05050600 0.67088200
v 0.05577700 0.05050600 0.67088200
v 0.05022600 0.05050600 0.68126700
v 0.05022600 0.05050600 0.68126700
v 0.04271100 0.05050600 0.69036800
v 0.04271100 0.05050600 0.69036800
v 0.03353400 0.05050600 0.69784600
v 0.03353400 0.05050600 0.69784600
v 0.03353400 0.05050600 0.69784600
v 0.02311000 0.05050600 0.70339800
v 0.02311000 0.05050600 0.70339800
v 0.01178100 0.05050600 0.70679600
v 0.01178100 0.05050600 0.70679600
v -0.00000200 0.05050600 0.70796700
v -0.00000200 0.05050600 0.70796700
v -0.01178500 0.05050600 0.70679600
v -0.01178500 0.05050600 0.70679600
v -0.02311500 0.05050600 0.70339800
v -0.02311500 0.05050600 0.70339800
v -0.03353800 0.05050600 0.69784600
v -0.03353800 0.05050600 0.69784600
v -0.04271500 0.05050600 0.69036800
v -0.04271500 0.05050600 0.69036800
v -0.05023000 0.05050600 0.68126700
v -0.05023000 0.05050600 0.68126700
v -0.05578200 0.05050600 0.67088200
v -0.05578200 0.05050600 0.67088200
v -0.05921900 0.05050600 0.65959000
v -0.05921900 0.05050600 0.65959000
v -0.06038900 0.05050600 0.64788200
v -0.06038900 0.05050600 0.64788200
v -0.05921900 0.05050600 0.63613700
v -0.05921900 0.05050600 0.63613700
v -0.05578200 0.05050600 0.62488300
v -0.05578200 0.05050600 0.62488300
v -0.05023000 0.05050600 0.61449800
v -0.05023000 0.05050600 0.61449800
v -0.04271500 0.05050600 0.60539600
v -0.04271500 0.05050600 0.60539600
v -0.03353800 0.05050600 0.59791900
v -0.03353800 0.05050600 0.59791900
v -0.02311500 0.05050600 0.59236700
v -0.02311500 0.05050600 0.59236700
v -0.01178500 0.05050600 0.58893000
v -0.01178500 0.05050600 0.58893000
v -0.00000200 0.05050600 0.58779700
v -0.00000200 0.05050600 0.58779700
v 0.01174300 0.03434200 0.58877900
v 0.01174300 0.03434200 0.58877900
v 0.02303500 0.03434200 0.59221600
v 0.02303500 0.03434200 0.59221600
v 0.03345800 0.03434200 0.59780500
v 0.03345800 0.03434200 0.59780500
v 0.04259700 0.03434200 0.60528300
v 0.04259700 0.03434200 0.60528300
v 0.05007500 0.03434200 0.61442200
v 0.05007500 0.03434200 0.61442200
v 0.05566400 0.03434200 0.62480800
v 0.05566400 0.03434200 0.62480800
v 0.05910100 0.03434200 0.63613700
v 0.05910100 0.03434200 0.63613700
v 0.06023400 0.03434200 0.64788200
v 0.06023400 0.03434200 0.64788200
v 0.05910100 0.03434200 0.65962700
v 0.05910100 0.03434200 0.65962700
v 0.05566400 0.03434200 0.67091900
v 0.05566400 0.03434200 0.67091900
v 0.05007500 0.03434200 0.68134300
v 0.05007500 0.03434200 0.68134300
v 0.04259700 0.03434200 0.69048200
v 0.04259700 0.03434200 0.69048200
v 0.03345800 0.03434200 0.69795900
v 0.03345800 0.03434200 0.69795900
v 0.03345800 0.03434200 0.69795900
v 0.02303500 0.03434200 0.70354900
v 0.02303500 0.03434200 0.70354900
v 0.01174300 0.03434200 0.70694800
v 0.01174300 0.03434200 0.70694800
v -0.00000200 0.03434200 0.70811800
v -0.00000200 0.03434200 0.70811800
v -0.01174700 0.03434200 0.70694800
v -0.01174700 0.03434200 0.70694800
v -0.02303900 0.03434200 0.70354900
v -0.02303900 0.03434200 0.70354900
v -0.03346200 0.03434200 0.69795900
v -0.03346200 0.03434200 0.69795900
v -0.04260200 0.03434200 0.69048200
v -0.04260200 0.03434200 0.69048200
v -0.05007900 0.03434200 0.68134300
v -0.05007900 0.03434200 0.68134300
v -0.05566900 0.03434200 0.67091900
v -0.05566900 0.03434200 0.67091900
v -0.05906700 0.03434200 0.65962700
v -0.05906700 0.03434200 0.65962700
v -0.06023800 0.03434200 0.64788200
v -0.06023800 0.03434200 0.64788200
v -0.05906700 0.03434200 0.63613700
v -0.05906700 0.03434200 0.63613700
v -0.05566900 0.03434200 0.62480800
v -0.05566900 0.03434200 0.62480800
v -0.05007900 0.03434200 0.61442200
v -0.05007900 0.03434200 0.61442200
v -0.04260200 0.03434200 0.60528300
v -0.04260200 0.03434200 0.60528300
v -0.03346200 0.03434200 0.59780500
v -0.03346200 0.03434200 0.59780500
v -0.02303900 0.03434200 0.59221600
v -0.02303900 0.03434200 0.59221600
v -0.01174700 0.03434200 0.58877900
v -0.01174700 0.03434200 0.58877900
v -0.00000200 0.03434200 0.58764600
v -0.00000200 0.03434200 0.58764600
v -0.00000200 0.03434200 0.64788200
v 0.02311000 0.06549900 0.56506300
v 0.02311000 0.06549900 0.56506300
v 0.03357100 0.07108800 0.56506300
v 0.03357100 0.07108800 0.56506300
v 0.02311000 0.06549900 0.58073500
v 0.02311000 0.06549900 0.58073500
v 0.03353400 0.07108800 0.58073500
v 0.03353400 0.07108800 0.58073500
v 0.04271100 0.07860300 0.56506300
v 0.04271100 0.07860300 0.56506300
v 0.04271100 0.07860300 0.58073500
v 0.04271100 0.07860300 0.58073500
v 0.05022600 0.08774300 0.56506300
v 0.05022600 0.08774300 0.56506300
v 0.05022600 0.08774300 0.58073500
v 0.05022600 0.08774300 0.58073500
v 0.05581500 0.09816600 0.56506300
v 0.05581500 0.09816600 0.56506300
v 0.05577700 0.09816600 0.58073500
v 0.05577700 0.09816600 0.58073500
v 0.05925200 0.10949500 0.56506300
v 0.05925200 0.10949500 0.56506300
v 0.05921400 0.10949500 0.58073500
v 0.05921400 0.10949500 0.58073500
v 0.06038500 0.12127800 0.56506300
v 0.06038500 0.12127800 0.56506300
v 0.06038500 0.12127800 0.58073500
v 0.06038500 0.12127800 0.58073500
v 0.05925200 0.13306100 0.56506300
v 0.05925200 0.13306100 0.56506300
v 0.05921400 0.13306100 0.58073500
v 0.05921400 0.13306100 0.58073500
v 0.05581500 0.14439100 0.56506300
v 0.05581500 0.14439100 0.56506300
v 0.05577700 0.14439100 0.58073500
v 0.05577700 0.14439100 0.58073500
v 0.05022600 0.15485200 0.56506300
v 0.05022600 0.15485200 0.56506300
v 0.05022600 0.15485200 0.58073500
v 0.05022600 0.15485200 0.58073500
v 0.04271100 0.16399100 0.56506300
v 0.04271100 0.16399100 0.56506300
v 0.04271100 0.16399100 0.58073500
v 0.04271100 0.16399100 0.58073500
v 0.03357100 0.17150600 0.56506300
v 0.03357100 0.17150600 0.56506300
v 0.03353300 0.17150600 0.58073500
v 0.03353300 0.17150600 0.58073500
v 0.02311000 0.17709600 0.56506300
v 0.02311000 0.17709600 0.56506300
v 0.02311000 0.17709600 0.58073500
v 0.02311000 0.17709600 0.58073500
v 0.01178100 0.18053200 0.56506300
v 0.01178100 0.18053200 0.56506300
v 0.01178100 0.18053200 0.58073500
v 0.01178100 0.18053200 0.58073500
v -0.00000200 0.18170300 0.56506300
v -0.00000200 0.18170300 0.56506300
v -0.00000200 0.18170300 0.58073500
v -0.00000200 0.18170300 0.58073500
v -0.01178500 0.18053200 0.56506300
v -0.01178500 0.18053200 0.56506300
v -0.01178500 0.18053200 0.58073500
v -0.01178500 0.18053200 0.58073500
v -0.02311500 0.17709600 0.56506300
v -0.02311500 0.17709600 0.56506300
v -0.02311500 0.17709600 0.58073500
v -0.02311500 0.17709600 0.58073500
v -0.03353800 0.17150600 0.56506300
v -0.03353800 0.17150600 0.56506300
v -0.03353800 0.17150600 0.58073500
v -0.03353800 0.17150600 0.58073500
v -0.04271500 0.16399100 0.56506300
v -0.04271500 0.16399100 0.56506300
v -0.04271500 0.16399100 0.58073500
v -0.04271500 0.16399100 0.58073500
v -0.05023000 0.15485200 0.56506300
v -0.05023000 0.15485200 0.56506300
v -0.05023000 0.15485200 0.58073500
v -0.05023000 0.15485200 0.58073500
v -0.05578200 0.14439100 0.56506300
v -0.05578200 0.14439100 0.56506300
v -0.05578200 0.14439100 0.58073500
v -0.05578200 0.14439100 0.58073500
v -0.05921900 0.13306100 0.56506300
v -0.05921900 0.13306100 0.56506300
v -0.05921900 0.13306100 0.58073500
v -0.05921900 0.13306100 0.58073500
v -0.06038900 0.12127800 0.56506300
v -0.06038900 0.12127800 0.56506300
v -0.06038900 0.12127800 0.58073500
v -0.06038900 0.12127800 0.58073500
v -0.05921900 0.10949500 0.56506300
v -0.05921900 0.10949500 0.56506300
v -0.05921900 0.10949500 0.58073500
v -0.05921900 0.10949500 0.58073500
v -0.05578200 0.09816600 0.56506300
v -0.05578200 0.09816600 0.56506300
v -0.05578200 0.09816600 0.58073500
v -0.05578200 0.09816600 0.58073500
v -0.05023000 0.08774300 0.56506300
v -0.05023000 0.08774300 0.56506300
v -0.05023000 0.08774300 0.58073500
v -0.05023000 0.08774300 0.58073500
v -0.04271500 0.07860300 0.56506300
v -0.04271500 0.07860300 0.56506300
v -0.04271500 0.07860300 0.58073500
v -0.04271500 0.07860300 0.58073500
v -0.03353800 0.07108800 0.56506300
v -0.03353800 0.07108800 0.56506300
v -0.03353800 0.07108800 0.58073500
v -0.03353800 0.07108800 0.58073500
v -0.02311500 0.06549900 0.56506300
v -0.02311500 0.06549900 0.56506300
v -0.00000200 0.12127800 0.56506300
v 0.01178100 0.06206200 0.56506300
v 0.01178100 0.06206200 0.56506300
v 0.01178100 0.06206200 0.58073500
v 0.01178100 0.06206200 0.58073500
v -0.00000200 0.12127800 0.58073500
v -0.02311500 0.06549900 0.58073500
v -0.02311500 0.06549900 0.58073500
v -0.01178500 0.06206200 0.56506300
v -0.01178500 0.06206200 0.56506300
v -0.00000200 0.06089100 0.56506300
v -0.00000200 0.06089100 0.56506300
v -0.00000200 0.06089100 0.56506300
v -0.00000200 0.06089100 0.58073500
v -0.00000200 0.06089100 0.58073500
v -0.00000200 0.06089100 0.58073500
v -0.01178500 0.06206200 0.58073500
v -0.01178500 0.06206200 0.58073500
v 0.02869900 0.05201600 0.10523000
v 0.02869900 0.05201600 0.10523000
v 0.02869900 0.05201600 0.08940600
v 0.02869900 0.05201600 0.08940600
v 0.04165300 0.05892700 0.10523000
v 0.04165300 0.05892700 0.10523000
v 0.04165300 0.05892700 0.08940600
v 0.04165300 0.05892700 0.08940600
v 0.05302000 0.06825500 0.10523000
v 0.05302000 0.06825500 0.10523000
v 0.05302000 0.06825500 0.08940600
v 0.05302000 0.06825500 0.08940600
v 0.06234900 0.07962300 0.10523000
v 0.06234900 0.07962300 0.10523000
v 0.06234900 0.07962300 0.08940600
v 0.06234900 0.07962300 0.08940600
v 0.06929700 0.09257600 0.10523000
v 0.06929700 0.09257600 0.10523000
v 0.06929700 0.09257600 0.08940600
v 0.06929700 0.09257600 0.08940600
v 0.07356500 0.10666300 0.10523000
v 0.07356500 0.10666300 0.10523000
v 0.07356500 0.10666300 0.08940600
v 0.07356500 0.10666300 0.08940600
v 0.07500000 0.12127800 0.10523000
v 0.07500000 0.12127800 0.10523000
v 0.07500000 0.12127800 0.08940600
v 0.07500000 0.12127800 0.08940600
v 0.07356500 0.13593100 0.10523000
v 0.07356500 0.13593100 0.10523000
v 0.07356500 0.13593100 0.08940600
v 0.07356500 0.13593100 0.08940600
v 0.06929700 0.14998000 0.10523000
v 0.06929700 0.14998000 0.10523000
v 0.06929700 0.14998000 0.08940600
v 0.06929700 0.14998000 0.08940600
v 0.06234900 0.16297100 0.10523000
v 0.06234900 0.16297100 0.10523000
v 0.06234900 0.16297100 0.08940600
v 0.06234900 0.16297100 0.08940600
v 0.05302000 0.17433900 0.10523000
v 0.05302000 0.17433900 0.10523000
v 0.05302000 0.17433900 0.08940600
v 0.05302000 0.17433900 0.08940600
v 0.04165300 0.18366700 0.10523000
v 0.04165300 0.18366700 0.10523000
v 0.04165300 0.18366700 0.08940600
v 0.04165300 0.18366700 0.08940600
v 0.02869900 0.19057800 0.10523000
v 0.02869900 0.19057800 0.10523000
v 0.02869900 0.19057800 0.08940600
v 0.02869900 0.19057800 0.08940600
v 0.01461300 0.19484500 0.10523000
v 0.01461300 0.19484500 0.10523000
v 0.01461300 0.19484500 0.08940600
v 0.01461300 0.19484500 0.08940600
v -0.00000200 0.19628100 0.10523000
v -0.00000200 0.19628100 0.10523000
v -0.00000200 0.19628100 0.08940600
v -0.00000200 0.19628100 0.08940600
v -0.01461800 0.19484500 0.10523000
v -0.01461800 0.19484500 0.10523000
v -0.01461800 0.19484500 0.08940600
v -0.01461800 0.19484500 0.08940600
v -0.02870400 0.19057800 0.10523000
v -0.02870400 0.19057800 0.10523000
v -0.02870400 0.19057800 0.08940600
v -0.02870400 0.19057800 0.08940600
v -0.04165800 0.18366700 0.10523000
v -0.04165800 0.18366700 0.10523000
v -0.04165800 0.18366700 0.08940600
v -0.04165800 0.18366700 0.08940600
v -0.05302500 0.17433900 0.10523000
v -0.05302500 0.17433900 0.10523000
v -0.05302500 0.17433900 0.08940600
v -0.05302500 0.17433900 0.08940600
v -0.06235300 0.16297100 0.10523000
v -0.06235300 0.16297100 0.10523000
v -0.06235300 0.16297100 0.08940600
v -0.06235300 0.16297100 0.08940600
v -0.06930200 0.14998000 0.10523000
v -0.06930200 0.14998000 0.10523000
v -0.06930200 0.14998000 0.08940600
v -0.06930200 0.14998000 0.08940600
v -0.07356900 0.13593100 0.10523000
v -0.07356900 0.13593100 0.10523000
v -0.07356900 0.13593100 0.08940600
v -0.07356900 0.13593100 0.08940600
v -0.07500500 0.12127800 0.10523000
v -0.07500500 0.12127800 0.10523000
v -0.07500500 0.12127800 0.08940600
v -0.07500500 0.12127800 0.08940600
v -0.07356900 0.10666300 0.10523000
v -0.07356900 0.10666300 0.10523000
v -0.07356900 0.10666300 0.08940600
v -0.07356900 0.10666300 0.08940600
v -0.06930200 0.09257600 0.10523000
v -0.06930200 0.09257600 0.10523000
v -0.06930200 0.09257600 0.08940600
v -0.06930200 0.09257600 0.08940600
v -0.06235300 0.07962300 0.10523000
v -0.06235300 0.07962300 0.10523000
v -0.06235300 0.07962300 0.08940600
v -0.06235300 0.07962300 0.08940600
v -0.05302500 0.06825500 0.10523000
v -0.05302500 0.06825500 0.10523000
v -0.05302500 0.06825500 0.08940600
v -0.05302500 0.06825500 0.08940600
v -0.04165800 0.05892700 0.10523000
v -0.04165800 0.05892700 0.10523000
v -0.04165800 0.05892700 0.08940600
v -0.04165800 0.05892700 0.08940600
v -0.02870400 0.05201600 0.10523000
v -0.02870400 0.05201600 0.10523000
v -0.02870400 0.05201600 0.08940600
v -0.02870400 0.05201600 0.08940600
v -0.00000200 0.12127800 0.08940600
v 0.01461300 0.04774900 0.08940600
v 0.01461300 0.04774900 0.08940600
v 0.01461300 0.04774900 0.10523000
v 0.01461300 0.04774900 0.10523000
v -0.00000200 0.12127800 0.10523000
v -0.01461700 0.04774900 0.10523000
v -0.01461700 0.04774900 0.10523000
v -0.01461700 0.04774900 0.08940600
v -0.01461700 0.04774900 0.08940600
v -0.00000200 0.04627600 0.08940600
v -0.00000200 0.04627600 0.08940600
v -0.00000200 0.04627600 0.08940600
v -0.00000200 0.04627600 0.10523000
v -0.00000200 0.04627600 0.10523000
v -0.00000200 0.04627600 0.10523000
vn 0.19440000 0.00850000 -0.98090000
vn -0.00000000 1.00000000 -0.00000000
vn -0.00000000 1.00000000 -0.00000000
vn 0.38300000 0.00620000 -0.92370000
vn -0.00000000 1.00000000 -0.00000000
vn 0.55420000 0.00280000 -0.83240000
vn -0.00000000 1.00000000 -0.00000000
vn 0.70590000 -0.00100000 -0.70830000
vn -0.00000000 1.00000000 -0.00000000
vn 0.83060000 -0.00450000 -0.55680000
vn -0.00000000 1.00000000 -0.00000000
vn 0.92380000 -0.00510000 -0.38280000
vn -0.00000000 1.00000000 -0.00000000
vn 0.98060000 -0.00760000 -0.19590000
vn -0.00000000 1.00000000 -0.00000000
vn 1.00000000 -0.00860000 -0.00050000
vn -0.00000000 1.00000000 -0.00000000
vn 0.98060000 -0.00640000 0.19600000
vn -0.00000000 1.00000000 -0.00000000
vn 0.92370000 -0.00590000 0.38310000
vn -0.00000000 1.00000000 -0.00000000
vn 0.83140000 -0.00420000 0.55560000
vn -0.00000000 1.00000000 -0.00000000
vn 0.70550000 0.00050000 0.70870000
vn -0.00000000 1.00000000 -0.00000000
vn 0.63170000 0.00250000 0.77520000
vn 0.47110000 0.00520000 0.88210000
vn -0.00000000 1.00000000 -0.00000000
vn 0.38120000 0.00710000 0.92450000
vn -0.00000000 1.00000000 -0.00000000
vn 0.19430000 0.00880000 0.98090000
vn -0.00000000 1.00000000 -0.00000000
vn -0.00010000 0.00930000 1.00000000
vn -0.00000000 1.00000000 -0.00000000
vn -0.19440000 0.00850000 0.98090000
vn -0.00000000 1.00000000 -0.00000000
vn -0.38160000 0.00620000 0.92430000
vn -0.00000000 1.00000000 -0.00000000
vn -0.55420000 0.00280000 0.83240000
vn -0.00000000 1.00000000 -0.00000000
vn -0.70590000 -0.00100000 0.70830000
vn -0.00000000 1.00000000 -0.00000000
vn -0.83080000 -0.00490000 0.55660000
vn -0.00000000 1.00000000 -0.00000000
vn -0.92400000 -0.00630000 0.38230000
vn -0.00000000 1.00000000 -0.00000000
vn -0.98060000 -0.00880000 0.19590000
vn -0.00000000 1.00000000 -0.00000000
vn -1.00000000 -0.00930000 0.00020000
vn -0.00000000 1.00000000 -0.00000000
vn -0.98070000 -0.00810000 -0.19550000
vn -0.00000000 1.00000000 -0.00000000
vn -0.92350000 -0.00530000 -0.38370000
vn -0.00000000 1.00000000 -0.00000000
vn -0.83140000 -0.00420000 -0.55560000
vn -0.00000000 1.00000000 -0.00000000
vn -0.70550000 0.00050000 -0.70870000
vn -0.00000000 1.00000000 -0.00000000
vn -0.55440000 0.00390000 -0.83230000
vn -0.00000000 1.00000000 -0.00000000
vn -0.38260000 0.00710000 -0.92390000
vn -0.00000000 1.00000000 -0.00000000
vn -0.19430000 0.00880000 -0.98090000
vn -0.00000000 1.00000000 -0.00000000
vn -0.00000000 1.00000000 -0.00000000
vn 0.00010000 0.00930000 -1.00000000
vn -0.00000000 -1.00000000 -0.00000000
vn 0.19420000 0.00880000 -0.98090000
vn -0.00000000 -1.00000000 -0.00000000
vn 0.38310000 0.00710000 -0.92370000
vn -0.00000000 -1.00000000 -0.00000000
vn 0.55460000 0.00390000 -0.83210000
vn -0.00000000 -1.00000000 -0.00000000
vn 0.70640000 0.00050000 -0.70780000
vn -0.00000000 -1.00000000 -0.00000000
vn 0.83030000 -0.00420000 -0.55730000
vn -0.00000000 -1.00000000 -0.00000000
vn 0.92340000 -0.00530000 -0.38390000
vn -0.00000000 -1.00000000 -0.00000000
vn 0.98090000 -0.00650000 -0.19450000
vn -0.00000000 -1.00000000 -0.00000000
vn 1.00000000 -0.00860000 -0.00060000
vn -0.00000000 -1.00000000 -0.00000000
vn 0.98070000 -0.00720000 0.19550000
vn -0.00000000 -1.00000000 -0.00000000
vn 0.92330000 -0.00560000 0.38400000
vn -0.00000000 -1.00000000 -0.00000000
vn 0.83130000 -0.00490000 0.55570000
vn -0.00000000 -1.00000000 -0.00000000
vn 0.70600000 -0.00100000 0.70820000
vn -0.00000000 -1.00000000 -0.00000000
vn 0.47260000 0.00400000 0.88130000
vn 0.63260000 0.00160000 0.77450000
vn -0.00000000 -1.00000000 -0.00000000
vn 0.38130000 0.00620000 0.92440000
vn -0.00000000 -1.00000000 -0.00000000
vn 0.19420000 0.00850000 0.98090000
vn -0.00000000 -1.00000000 -0.00000000
vn -0.00010000 0.00930000 1.00000000
vn -0.00000000 -1.00000000 -0.00000000
vn -0.19430000 0.00880000 0.98090000
vn -0.00000000 -1.00000000 -0.00000000
vn -0.38170000 0.00710000 0.92430000
vn -0.00000000 -1.00000000 -0.00000000
vn -0.55460000 0.00390000 0.83210000
vn -0.00000000 -1.00000000 -0.00000000
vn -0.70640000 0.00050000 0.70780000
vn -0.00000000 -1.00000000 -0.00000000
vn -0.83070000 -0.00420000 0.55670000
vn -0.00000000 -1.00000000 -0.00000000
vn -0.92400000 -0.00590000 0.38230000
vn -0.00000000 -1.00000000 -0.00000000
vn -0.98070000 -0.00800000 0.19550000
vn -0.00000000 -1.00000000 -0.00000000
vn -1.00000000 -0.00930000 0.00010000
vn -0.00000000 -1.00000000 -0.00000000
vn -0.98090000 -0.00920000 -0.19430000
vn -0.00000000 -1.00000000 -0.00000000
vn -0.92340000 -0.00580000 -0.38390000
vn -0.00000000 -1.00000000 -0.00000000
vn -0.83110000 -0.00460000 -0.55610000
vn -0.00000000 -1.00000000 -0.00000000
vn -0.70600000 -0.00100000 -0.70820000
vn -0.00000000 -1.00000000 -0.00000000
vn -0.55480000 0.00280000 -0.83200000
vn -0.00000000 -1.00000000 -0.00000000
vn -0.38270000 0.00620000 -0.92380000
vn -0.00000000 -1.00000000 -0.00000000
vn -0.19410000 0.00850000 -0.98090000
vn 0.00010000 0.00930000 -1.00000000
vn -0.00000000 -1.00000000 -0.00000000
vn -0.00000000 -1.00000000 -0.00000000
vn -0.00000000 -0.00000000 -1.00000000
vn 0.38260000 -0.92390000 -0.00000000
vn -0.00000000 -0.00000000 -1.00000000
vn 0.55630000 -0.83100000 0.00100000
vn -0.00000000 -0.00000000 1.00000000
vn 0.38300000 -0.92370000 0.00030000
vn -0.00000000 -0.00000000 1.00000000
vn 0.55590000 -0.83120000 0.00090000
vn -0.00000000 -0.00000000 -1.00000000
vn 0.70680000 -0.70740000 0.00050000
vn -0.00000000 -0.00000000 1.00000000
vn 0.70640000 -0.70780000 -0.00000000
vn -0.00000000 -0.00000000 -1.00000000
vn 0.83080000 -0.55650000 -0.00000000
vn -0.00000000 -0.00000000 1.00000000
vn 0.83130000 -0.55580000 0.00060000
vn -0.00000000 -0.00000000 -1.00000000
vn 0.92390000 -0.38270000 0.00160000
vn -0.00000000 -0.00000000 1.00000000
vn 0.92410000 -0.38200000 0.00220000
vn -0.00000000 -0.00000000 -1.00000000
vn 0.98100000 -0.19390000 0.00240000
vn -0.00000000 -0.00000000 1.00000000
vn 0.98080000 -0.19490000 0.00170000
vn -0.00000000 -0.00000000 -1.00000000
vn 1.00000000 -0.00070000 0.00070000
vn -0.00000000 -0.00000000 1.00000000
vn 1.00000000 -0.00070000 0.00070000
vn -0.00000000 -0.00000000 -1.00000000
vn 0.98090000 0.19460000 0.00170000
vn -0.00000000 -0.00000000 1.00000000
vn 0.98070000 0.19550000 0.00240000
vn -0.00000000 -0.00000000 -1.00000000
vn 0.92390000 0.38250000 0.00220000
vn -0.00000000 -0.00000000 1.00000000
vn 0.92420000 0.38190000 0.00160000
vn -0.00000000 -0.00000000 -1.00000000
vn 0.83160000 0.55540000 0.00060000
vn -0.00000000 -0.00000000 1.00000000
vn 0.83200000 0.55470000 -0.00000000
vn -0.00000000 -0.00000000 -1.00000000
vn 0.70710000 0.70710000 -0.00000000
vn -0.00000000 -0.00000000 1.00000000
vn 0.70670000 0.70750000 0.00050000
vn -0.00000000 -0.00000000 -1.00000000
vn 0.55570000 0.83140000 0.00090000
vn -0.00000000 -0.00000000 1.00000000
vn 0.55530000 0.83160000 0.00100000
vn -0.00000000 -0.00000000 -1.00000000
vn 0.38290000 0.92380000 0.00030000
vn -0.00000000 -0.00000000 1.00000000
vn 0.38330000 0.92360000 -0.00000000
vn -0.00000000 -0.00000000 -1.00000000
vn 0.19550000 0.98070000 -0.00000000
vn -0.00000000 -0.00000000 1.00000000
vn 0.19550000 0.98070000 -0.00000000
vn -0.00000000 -0.00000000 -1.00000000
vn -0.00000000 1.00000000 -0.00000000
vn -0.00000000 -0.00000000 1.00000000
vn -0.00000000 1.00000000 -0.00000000
vn -0.00000000 -0.00000000 -1.00000000
vn -0.19550000 0.98070000 -0.00000000
vn -0.00000000 -0.00000000 1.00000000
vn -0.19550000 0.98070000 -0.00000000
vn -0.00000000 -0.00000000 -1.00000000
vn -0.38330000 0.92360000 -0.00000000
vn -0.00000000 -0.00000000 1.00000000
vn -0.38330000 0.92360000 -0.00000000
vn -0.00000000 -0.00000000 -1.00000000
vn -0.55570000 0.83140000 -0.00000000
vn -0.00000000 -0.00000000 1.00000000
vn -0.55570000 0.83140000 -0.00000000
vn -0.00000000 -0.00000000 -1.00000000
vn -0.70640000 0.70780000 -0.00000000
vn -0.00000000 -0.00000000 1.00000000
vn -0.70640000 0.70780000 -0.00000000
vn -0.00000000 -0.00000000 -1.00000000
vn -0.83200000 0.55470000 -0.00000000
vn -0.00000000 -0.00000000 1.00000000
vn -0.83200000 0.55470000 -0.00000000
vn -0.00000000 -0.00000000 -1.00000000
vn -0.92450000 0.38130000 -0.00000000
vn -0.00000000 -0.00000000 1.00000000
vn -0.92450000 0.38130000 -0.00000000
vn -0.00000000 -0.00000000 -1.00000000
vn -0.98070000 0.19550000 -0.00000000
vn -0.00000000 -0.00000000 1.00000000
vn -0.98070000 0.19550000 -0.00000000
vn -0.00000000 -0.00000000 -1.00000000
vn -1.00000000 -0.00000000 -0.00000000
vn -0.00000000 -0.00000000 1.00000000
vn -1.00000000 -0.00000000 -0.00000000
vn -0.00000000 -0.00000000 -1.00000000
vn -0.98070000 -0.19550000 -0.00000000
vn -0.00000000 -0.00000000 1.00000000
vn -0.98070000 -0.19550000 -0.00000000
vn -0.00000000 -0.00000000 -1.00000000
vn -0.92420000 -0.38200000 -0.00000000
vn -0.00000000 -0.00000000 1.00000000
vn -0.92420000 -0.38200000 -0.00000000
vn -0.00000000 -0.00000000 -1.00000000
vn -0.83160000 -0.55540000 -0.00000000
vn -0.00000000 -0.00000000 1.00000000
vn -0.83160000 -0.55540000 -0.00000000
vn -0.00000000 -0.00000000 -1.00000000
vn -0.70640000 -0.70780000 -0.00000000
vn -0.00000000 -0.00000000 1.00000000
vn -0.70640000 -0.70780000 -0.00000000
vn -0.00000000 -0.00000000 -1.00000000
vn -0.55570000 -0.83140000 -0.00000000
vn -0.00000000 -0.00000000 1.00000000
vn -0.55570000 -0.83140000 -0.00000000
vn -0.38330000 -0.92360000 -0.00000000
vn -0.00000000 -0.00000000 -1.00000000
vn -0.00000000 -0.00000000 -1.00000000
vn -0.00000000 -0.00000000 -1.00000000
vn 0.19550000 -0.98070000 -0.00000000
vn 0.19550000 -0.98070000 -0.00000000
vn -0.00000000 -0.00000000 1.00000000
vn -0.00000000 -0.00000000 1.00000000
vn -0.00000000 -0.00000000 1.00000000
vn -0.38330000 -0.92360000 -0.00000000
vn -0.19550000 -0.98070000 -0.00000000
vn -0.00000000 -0.00000000 -1.00000000
vn -0.00000000 -0.00000000 -1.00000000
vn -0.09890000 -0.99510000 -0.00000000
vn 0.09890000 -0.99510000 -0.00000000
vn 0.09890000 -0.99510000 -0.00000000
vn -0.09890000 -0.99510000 -0.00000000
vn -0.00000000 -0.00000000 1.00000000
vn -0.00000000 -0.00000000 1.00000000
vn -0.19550000 -0.98070000 -0.00000000
vn -0.00000000 -0.00000000 1.00000000
vn 0.38220000 -0.92410000 -0.00000000
vn -0.00000000 -0.00000000 -1.00000000
vn 0.38220000 -0.92410000 -0.00000000
vn -0.00000000 -0.00000000 1.00000000
vn 0.55520000 -0.83170000 -0.00000000
vn -0.00000000 -0.00000000 -1.00000000
vn 0.55520000 -0.83170000 -0.00000000
vn -0.00000000 -0.00000000 1.00000000
vn 0.70710000 -0.70710000 -0.00000000
vn -0.00000000 -0.00000000 -1.00000000
vn 0.70710000 -0.70710000 -0.00000000
vn -0.00000000 -0.00000000 1.00000000
vn 0.83110000 -0.55620000 -0.00000000
vn -0.00000000 -0.00000000 -1.00000000
vn 0.83110000 -0.55620000 -0.00000000
vn -0.00000000 -0.00000000 1.00000000
vn 0.92370000 -0.38320000 -0.00000000
vn -0.00000000 -0.00000000 -1.00000000
vn 0.92370000 -0.38320000 -0.00000000
vn -0.00000000 -0.00000000 1.00000000
vn 0.98080000 -0.19480000 -0.00000000
vn -0.00000000 -0.00000000 -1.00000000
vn 0.98080000 -0.19480000 -0.00000000
vn -0.00000000 -0.00000000 1.00000000
vn 1.00000000 -0.00010000 -0.00000000
vn -0.00000000 -0.00000000 -1.00000000
vn 1.00000000 -0.00010000 -0.00000000
vn -0.00000000 -0.00000000 1.00000000
vn 0.98080000 0.19500000 -0.00000000
vn -0.00000000 -0.00000000 -1.00000000
vn 0.98080000 0.19500000 -0.00000000
vn -0.00000000 -0.00000000 1.00000000
vn 0.92380000 0.38300000 -0.00000000
vn -0.00000000 -0.00000000 -1.00000000
vn 0.92380000 0.38300000 -0.00000000
vn -0.00000000 -0.00000000 1.00000000
vn 0.83140000 0.55570000 -0.00000000
vn -0.00000000 -0.00000000 -1.00000000
vn 0.83140000 0.55570000 -0.00000000
vn -0.00000000 -0.00000000 1.00000000
vn 0.70710000 0.70710000 -0.00000000
vn -0.00000000 -0.00000000 -1.00000000
vn 0.70710000 0.70710000 -0.00000000
vn -0.00000000 -0.00000000 1.00000000
vn 0.55520000 0.83170000 -0.00000000
vn -0.00000000 -0.00000000 -1.00000000
vn 0.55520000 0.83170000 -0.00000000
vn -0.00000000 -0.00000000 1.00000000
vn 0.38220000 0.92410000 -0.00000000
vn -0.00000000 -0.00000000 -1.00000000
vn 0.38220000 0.92410000 -0.00000000
vn -0.00000000 -0.00000000 1.00000000
vn 0.19480000 0.98080000 -0.00000000
vn -0.00000000 -0.00000000 -1.00000000
vn 0.19480000 0.98080000 -0.00000000
vn -0.00000000 -0.00000000 1.00000000
vn -0.00000000 1.00000000 -0.00000000
vn -0.00000000 -0.00000000 -1.00000000
vn -0.00000000 1.00000000 -0.00000000
vn -0.00000000 -0.00000000 1.00000000
vn -0.19480000 0.98080000 -0.00000000
vn -0.00000000 -0.00000000 -1.00000000
vn -0.19480000 0.98080000 -0.00000000
vn -0.00000000 -0.00000000 1.00000000
vn -0.38220000 0.92410000 -0.00000000
vn -0.00000000 -0.00000000 -1.00000000
vn -0.38220000 0.92410000 -0.00000000
vn -0.00000000 -0.00000000 1.00000000
vn -0.55520000 0.83170000 -0.00000000
vn -0.00000000 -0.00000000 -1.00000000
vn -0.55520000 0.83170000 -0.00000000
vn -0.00000000 -0.00000000 1.00000000
vn -0.70710000 0.70710000 -0.00000000
vn -0.00000000 -0.00000000 -1.00000000
vn -0.70710000 0.70710000 -0.00000000
vn -0.00000000 -0.00000000 1.00000000
vn -0.83140000 0.55570000 -0.00000000
vn -0.00000000 -0.00000000 -1.00000000
vn -0.83140000 0.55570000 -0.00000000
vn -0.00000000 -0.00000000 1.00000000
vn -0.92380000 0.38300000 -0.00000000
vn -0.00000000 -0.00000000 -1.00000000
vn -0.92380000 0.38300000 -0.00000000
vn -0.00000000 -0.00000000 1.00000000
vn -0.98080000 0.19500000 -0.00000000
vn -0.00000000 -0.00000000 -1.00000000
vn -0.98080000 0.19500000 -0.00000000
vn -0.00000000 -0.00000000 1.00000000
vn -1.00000000 -0.00010000 -0.00000000
vn -0.00000000 -0.00000000 -1.00000000
vn -1.00000000 -0.00010000 -0.00000000
vn -0.00000000 -0.00000000 1.00000000
vn -0.98080000 -0.19480000 -0.00000000
vn -0.00000000 -0.00000000 -1.00000000
vn -0.98080000 -0.19480000 -0.00000000
vn -0.00000000 -0.00000000 1.00000000
vn -0.92370000 -0.38320000 -0.00000000
vn -0.00000000 -0.00000000 -1.00000000
vn -0.92370000 -0.38320000 -0.00000000
vn -0.00000000 -0.00000000 1.00000000
vn -0.83110000 -0.55620000 -0.00000000
vn -0.00000000 -0.00000000 -1.00000000
vn -0.83110000 -0.55620000 -0.00000000
vn -0.00000000 -0.00000000 1.00000000
vn -0.70710000 -0.70710000 -0.00000000
vn -0.00000000 -0.00000000 -1.00000000
vn -0.70710000 -0.70710000 -0.00000000
vn -0.00000000 -0.00000000 1.00000000
vn -0.55520000 -0.83170000 -0.00000000
vn -0.00000000 -0.00000000 -1.00000000
vn -0.55520000 -0.83170000 -0.00000000
vn -0.00000000 -0.00000000 1.00000000
vn -0.38220000 -0.92410000 -0.00000000
vn -0.38220000 -0.92410000 -0.00000000
vn -0.00000000 -0.00000000 -1.00000000
vn -0.00000000 -0.00000000 -1.00000000
vn -0.00000000 -0.00000000 -1.00000000
vn 0.19600000 -0.98060000 -0.00000000
vn 0.19600000 -0.98060000 -0.00000000
vn -0.00000000 -0.00000000 1.00000000
vn -0.00000000 -0.00000000 1.00000000
vn -0.00000000 -0.00000000 1.00000000
vn -0.19600000 -0.98060000 -0.00000000
vn -0.19600000 -0.98060000 -0.00000000
vn -0.00000000 -0.00000000 -1.00000000
vn -0.00000000 -0.00000000 -1.00000000
vn -0.10030000 -0.99500000 -0.00000000
vn 0.10030000 -0.99500000 -0.00000000
vn -0.00000000 -0.00000000 1.00000000
vn 0.10030000 -0.99500000 -0.00000000
vn -0.10030000 -0.99500000 -0.00000000
vt 0.59407600 0.60555800
vt 0.81680900 0.39633400
vt 0.85722300 0.38407300
vt 0.59407600 0.61384500
vt 0.81987400 0.40405400
vt 0.59407600 0.62213200
vt 0.82452800 0.41097800
vt 0.59407600 0.63053300
vt 0.83043200 0.41688200
vt 0.59407600 0.63882000
vt 0.83735700 0.42153600
vt 0.59407600 0.64710700
vt 0.84496300 0.42482800
vt 0.59407600 0.65539500
vt 0.85313600 0.42641800
vt 0.59407600 0.66379600
vt 0.86142400 0.42641800
vt 0.59407600 0.67208300
vt 0.86959700 0.42482800
vt 0.59407600 0.68037000
vt 0.87720300 0.42165000
vt 0.59407600 0.68865700
vt 0.88412800 0.41699500
vt 0.59407600 0.69705800
vt 0.89003200 0.41109200
vt 0.59407600 0.70534500
vt 0.59407600 0.43913200
vt 0.89457200 0.40416700
vt 0.59407600 0.44742000
vt 0.89775100 0.39644800
vt 0.59407600 0.45570700
vt 0.89945400 0.38827400
vt 0.59407600 0.46410800
vt 0.89945400 0.37998700
vt 0.59407600 0.47239500
vt 0.89775100 0.37181300
vt 0.59407600 0.48079600
vt 0.89457200 0.36409300
vt 0.59407600 0.48908300
vt 0.89003200 0.35716800
vt 0.59407600 0.49737000
vt 0.88412800 0.35126500
vt 0.59407600 0.50577100
vt 0.87720300 0.34661100
vt 0.59407600 0.51405800
vt 0.86959700 0.34331800
vt 0.59407600 0.52234500
vt 0.86142400 0.34172900
vt 0.59407600 0.53063200
vt 0.85313600 0.34172900
vt 0.59407600 0.53892000
vt 0.84496300 0.34331800
vt 0.59407600 0.54732000
vt 0.83735700 0.34649700
vt 0.59407600 0.55560800
vt 0.83043200 0.35115200
vt 0.59407600 0.56389500
vt 0.82452800 0.35705500
vt 0.59407600 0.57218200
vt 0.81987400 0.36398000
vt 0.59407600 0.58058300
vt 0.81680900 0.37169900
vt 0.59407600 0.58887000
vt 0.81510600 0.37987300
vt 0.81510600 0.38816000
vt 0.59407600 0.59715700
vt 0.85256900 0.77618400
vt 0.58272300 0.60555800
vt 0.85256900 0.76789700
vt 0.58272300 0.61384500
vt 0.85415800 0.75972300
vt 0.58272300 0.62213200
vt 0.85733700 0.75200300
vt 0.58272300 0.63053300
vt 0.86199100 0.74507800
vt 0.58272300 0.63882000
vt 0.86778100 0.73917500
vt 0.58272300 0.64710700
vt 0.87470600 0.73463400
vt 0.58272300 0.65539500
vt 0.88242500 0.73145600
vt 0.58272300 0.66379600
vt 0.89059900 0.72975300
vt 0.58272300 0.67208300
vt 0.89888600 0.72975300
vt 0.58272300 0.68037000
vt 0.90706000 0.73145600
vt 0.58272300 0.68865700
vt 0.91478000 0.73463400
vt 0.58272300 0.69705800
vt 0.92170500 0.73917500
vt 0.58272300 0.43913200
vt 0.58272300 0.70534500
vt 0.92760800 0.74507800
vt 0.58272300 0.44742000
vt 0.93214900 0.75200300
vt 0.58272300 0.45570700
vt 0.93532700 0.75972300
vt 0.58272300 0.46410800
vt 0.93703000 0.76789700
vt 0.58272300 0.47239500
vt 0.93703000 0.77618400
vt 0.58272300 0.48079600
vt 0.93532700 0.78435800
vt 0.58272300 0.48908300
vt 0.93214900 0.79207700
vt 0.58272300 0.49737000
vt 0.92760800 0.79900200
vt 0.58272300 0.50577100
vt 0.92170500 0.80479200
vt 0.58272300 0.51405800
vt 0.91478000 0.80944600
vt 0.58272300 0.52234500
vt 0.90706000 0.81262500
vt 0.58272300 0.53063200
vt 0.89888600 0.81421400
vt 0.58272300 0.53892000
vt 0.89059900 0.81421400
vt 0.58272300 0.54732000
vt 0.88242500 0.81262500
vt 0.58272300 0.55560800
vt 0.87470600 0.80944600
vt 0.58272300 0.56389500
vt 0.86778100 0.80479200
vt 0.58272300 0.57218200
vt 0.86199100 0.79900200
vt 0.58272300 0.58058300
vt 0.85733700 0.79207700
vt 0.58272300 0.58887000
vt 0.58272300 0.59715700
vt 0.85415800 0.78435800
vt 0.89480000 0.77198400
vt 0.87039200 0.08505200
vt 0.60520100 0.66107100
vt 0.87856600 0.08664200
vt 0.60520100 0.65267000
vt 0.80386700 0.88528000
vt 0.61621300 0.66107100
vt 0.80386700 0.89368100
vt 0.61621300 0.65267000
vt 0.88685300 0.08664200
vt 0.60520100 0.64438300
vt 0.80227800 0.90185400
vt 0.61621300 0.64438300
vt 0.89502700 0.08505200
vt 0.60520100 0.63598200
vt 0.79909900 0.90957400
vt 0.61621300 0.63598200
vt 0.90274600 0.08187400
vt 0.60520100 0.62769500
vt 0.79444500 0.91649900
vt 0.61621300 0.62769500
vt 0.90967100 0.07721900
vt 0.60520100 0.61929400
vt 0.78854100 0.92240200
vt 0.61621300 0.61929400
vt 0.91557400 0.07131600
vt 0.60520100 0.61100700
vt 0.78161700 0.92705700
vt 0.61621300 0.61100700
vt 0.92022900 0.06439100
vt 0.60520100 0.60260600
vt 0.77389700 0.93023500
vt 0.61621300 0.60260600
vt 0.92340700 0.05667100
vt 0.60520100 0.59431900
vt 0.76572300 0.93182500
vt 0.61621300 0.59431900
vt 0.92499700 0.04849800
vt 0.60520100 0.58591800
vt 0.75743600 0.93182500
vt 0.61621300 0.58591800
vt 0.92499700 0.04009700
vt 0.60520100 0.57763100
vt 0.74926200 0.93023500
vt 0.61621300 0.57763100
vt 0.92340700 0.03192300
vt 0.60520100 0.56934400
vt 0.74154300 0.92705700
vt 0.61621300 0.56934400
vt 0.92022900 0.02420400
vt 0.60520100 0.56094300
vt 0.73461800 0.92240200
vt 0.61621300 0.56094300
vt 0.91557400 0.01727900
vt 0.60520100 0.55265600
vt 0.72871500 0.91649900
vt 0.61621300 0.55265600
vt 0.90967100 0.01137600
vt 0.60520100 0.54425500
vt 0.72406000 0.90957400
vt 0.61621300 0.54425500
vt 0.90274600 0.00672100
vt 0.60520100 0.53596800
vt 0.72088100 0.90185400
vt 0.61621300 0.53596800
vt 0.89502700 0.00354200
vt 0.60520100 0.52756700
vt 0.71917900 0.89368100
vt 0.61621300 0.52756700
vt 0.88685300 0.00195300
vt 0.60520100 0.51928000
vt 0.71917900 0.88528000
vt 0.61621300 0.51928000
vt 0.87856600 0.00195300
vt 0.60520100 0.51087900
vt 0.72088100 0.87710600
vt 0.61621300 0.51087900
vt 0.87039200 0.00354200
vt 0.60520100 0.50259200
vt 0.72406000 0.86938700
vt 0.61621300 0.50259200
vt 0.86267200 0.00672100
vt 0.60520100 0.49419100
vt 0.72871500 0.86246200
vt 0.61621300 0.49419100
vt 0.85574700 0.01137600
vt 0.60520100 0.48590400
vt 0.73461800 0.85655900
vt 0.61621300 0.48590400
vt 0.84984400 0.01727900
vt 0.60520100 0.47750300
vt 0.74154300 0.85190400
vt 0.61621300 0.47750300
vt 0.84519000 0.02420400
vt 0.60520100 0.46921600
vt 0.74926200 0.84872500
vt 0.61621300 0.46921600
vt 0.84201100 0.03192300
vt 0.60520100 0.46081500
vt 0.75743600 0.84713600
vt 0.61621300 0.46081500
vt 0.84030800 0.04009700
vt 0.60520100 0.45252800
vt 0.76572300 0.84713600
vt 0.61621300 0.45252800
vt 0.84030800 0.04849800
vt 0.60520100 0.44412700
vt 0.77389700 0.84872500
vt 0.61621300 0.44412700
vt 0.84201100 0.05667100
vt 0.60520100 0.43584000
vt 0.78161700 0.85190400
vt 0.61621300 0.43584000
vt 0.60520100 0.42755300
vt 0.84519000 0.06439100
vt 0.88265300 0.04429700
vt 0.86267200 0.08187400
vt 0.60520100 0.66935800
vt 0.61621300 0.66935800
vt 0.80227800 0.87710600
vt 0.76152300 0.88948000
vt 0.78854100 0.85655900
vt 0.61621300 0.42755300
vt 0.60520100 0.41915200
vt 0.84984400 0.07131600
vt 0.85574700 0.07721900
vt 0.60520100 0.41086500
vt 0.60520100 0.67775900
vt 0.61621300 0.67775900
vt 0.61621300 0.41086500
vt 0.79909900 0.86938700
vt 0.79444500 0.86246200
vt 0.61621300 0.41915200
vt 0.75130600 0.47546000
vt 0.16314000 0.36432000
vt 0.53072900 0.76017700
vt 0.16314000 0.35319500
vt 0.75130600 0.46501600
vt 0.17358400 0.36432000
vt 0.52505300 0.76880500
vt 0.17358400 0.35319500
vt 0.75334900 0.45491200
vt 0.18391500 0.36432000
vt 0.52108000 0.77834100
vt 0.18391500 0.35319500
vt 0.75732200 0.44537600
vt 0.19424600 0.36432000
vt 0.51903700 0.78844400
vt 0.19424600 0.35319500
vt 0.76311200 0.43674800
vt 0.20457600 0.36432000
vt 0.51903700 0.79888900
vt 0.20457600 0.35319500
vt 0.77037800 0.42936900
vt 0.21502000 0.36432000
vt 0.52108000 0.80899200
vt 0.21502000 0.35319500
vt 0.77900600 0.42369300
vt 0.22535100 0.36432000
vt 0.52505300 0.81852800
vt 0.22535100 0.35319500
vt 0.78854100 0.41972000
vt 0.23568200 0.36432000
vt 0.53072900 0.82715600
vt 0.23568200 0.35319500
vt 0.79875900 0.41767600
vt 0.24601200 0.36432000
vt 0.53810900 0.83453500
vt 0.24601200 0.35319500
vt 0.80908900 0.41767600
vt 0.25645600 0.36432000
vt 0.54673600 0.84021100
vt 0.25645600 0.35319500
vt 0.81930600 0.41972000
vt 0.26678700 0.36432000
vt 0.55627200 0.84418400
vt 0.26678700 0.35319500
vt 0.82884200 0.42369300
vt 0.27711800 0.36432000
vt 0.56648900 0.84622800
vt 0.27711800 0.35319500
vt 0.83747000 0.42936900
vt 0.28744800 0.36432000
vt 0.57682000 0.84622800
vt 0.28744800 0.35319500
vt 0.84473600 0.43674800
vt 0.29789300 0.36432000
vt 0.58692400 0.84418400
vt 0.29789300 0.35319500
vt 0.85052500 0.44537600
vt 0.30822300 0.36432000
vt 0.59657300 0.84021100
vt 0.30822300 0.35319500
vt 0.85449900 0.45491200
vt 0.31855400 0.36432000
vt 0.60508700 0.83453500
vt 0.31855400 0.35319500
vt 0.85654200 0.46501600
vt 0.32888500 0.36432000
vt 0.61246600 0.82715600
vt 0.32888500 0.35319500
vt 0.85654200 0.47546000
vt 0.33932900 0.36432000
vt 0.61825600 0.81852800
vt 0.33932900 0.35319500
vt 0.85449900 0.48556400
vt 0.34965900 0.36432000
vt 0.62222900 0.80899200
vt 0.34965900 0.35319500
vt 0.85052500 0.49521300
vt 0.35999000 0.36432000
vt 0.62415900 0.79888900
vt 0.35999000 0.35319500
vt 0.84473600 0.50372700
vt 0.37032100 0.36432000
vt 0.62415900 0.78844400
vt 0.37032100 0.35319500
vt 0.83747000 0.51110600
vt 0.38076500 0.36432000
vt 0.62222900 0.77834100
vt 0.38076500 0.35319500
vt 0.82884200 0.51689600
vt 0.39109600 0.36432000
vt 0.61825600 0.76880500
vt 0.39109600 0.35319500
vt 0.81930600 0.52086900
vt 0.40142600 0.36432000
vt 0.61246600 0.76017700
vt 0.40142600 0.35319500
vt 0.80908900 0.52279900
vt 0.41175700 0.36432000
vt 0.60508700 0.75279800
vt 0.41175700 0.35319500
vt 0.79875900 0.52279900
vt 0.42220100 0.36432000
vt 0.59657300 0.74700800
vt 0.42220100 0.35319500
vt 0.78854100 0.52086900
vt 0.43253200 0.36432000
vt 0.58692400 0.74314900
vt 0.43253200 0.35319500
vt 0.77900600 0.51689600
vt 0.44286200 0.36432000
vt 0.57682000 0.74110500
vt 0.44286200 0.35319500
vt 0.77037800 0.51110600
vt 0.45319300 0.36432000
vt 0.45319300 0.35319500
vt 0.56648900 0.74110500
vt 0.57159800 0.79366600
vt 0.53810900 0.75279800
vt 0.15281000 0.35319500
vt 0.15281000 0.36432000
vt 0.75334900 0.48556400
vt 0.80398100 0.47023800
vt 0.76311200 0.50372700
vt 0.46363700 0.36432000
vt 0.46363700 0.35319500
vt 0.55627200 0.74314900
vt 0.54673600 0.74700800
vt 0.47396800 0.35319500
vt 0.14247900 0.35319500
vt 0.75732200 0.49521300
vt 0.14247900 0.36432000
vt 0.47396800 0.36432000
f 2/2/2 3/3/3 5/5/5
f 5/5/5 3/3/3 7/7/7
f 7/7/7 3/3/3 9/9/9
f 9/9/9 3/3/3 11/11/11
f 11/11/11 3/3/3 13/13/13
f 13/13/13 3/3/3 15/15/15
f 15/15/15 3/3/3 17/17/17
f 17/17/17 3/3/3 19/19/19
f 19/19/19 3/3/3 21/21/21
f 21/21/21 3/3/3 23/23/23
f 23/23/23 3/3/3 25/25/25
f 25/25/25 3/3/3 28/28/28
f 28/28/28 3/3/3 30/30/30
f 30/30/30 3/3/3 32/32/32
f 32/32/32 3/3/3 34/34/34
f 34/34/34 3/3/3 36/36/36
f 36/36/36 3/3/3 38/38/38
f 38/38/38 3/3/3 40/40/40
f 40/40/40 3/3/3 42/42/42
f 42/42/42 3/3/3 44/44/44
f 44/44/44 3/3/3 46/46/46
f 46/46/46 3/3/3 48/48/48
f 48/48/48 3/3/3 50/50/50
f 50/50/50 3/3/3 52/52/52
f 52/52/52 3/3/3 54/54/54
f 54/54/54 3/3/3 56/56/56
f 56/56/56 3/3/3 58/58/58
f 58/58/58 3/3/3 60/60/60
f 60/60/60 3/3/3 62/62/62
f 62/62/62 3/3/3 64/64/64
f 64/64/64 3/3/3 65/65/65
f 3/3/3 2/2/2 65/65/65
f 66/66/66 1/1/1 68/68/68
f 68/68/68 1/1/1 70/70/70
f 1/1/1 4/4/4 70/70/70
f 70/70/70 4/4/4 72/72/72
f 4/4/4 6/6/6 72/72/72
f 72/72/72 6/6/6 74/74/74
f 6/6/6 8/8/8 74/74/74
f 74/74/74 8/8/8 76/76/76
f 8/8/8 10/10/10 76/76/76
f 76/76/76 10/10/10 78/78/78
f 10/10/10 12/12/12 78/78/78
f 78/78/78 12/12/12 80/80/80
f 12/12/12 14/14/14 80/80/80
f 80/80/80 14/14/14 82/82/82
f 14/14/14 16/16/16 82/82/82
f 82/82/82 16/16/16 84/84/84
f 16/16/16 18/18/18 84/84/84
f 84/84/84 18/18/18 86/86/86
f 18/18/18 20/20/20 86/86/86
f 86/86/86 20/20/20 88/88/88
f 20/20/20 22/22/22 88/88/88
f 88/88/88 22/22/22 90/90/90
f 22/22/22 24/24/24 90/90/90
f 90/90/90 24/24/24 93/93/93
f 24/24/24 26/26/26 93/93/93
f 92/92/92 27/27/27 95/95/95
f 27/27/27 29/29/29 95/95/95
f 95/95/95 29/29/29 97/97/97
f 29/29/29 31/31/31 97/97/97
f 97/97/97 31/31/31 99/99/99
f 31/31/31 33/33/33 99/99/99
f 99/99/99 33/33/33 101/101/101
f 33/33/33 35/35/35 101/101/101
f 101/101/101 35/35/35 103/103/103
f 35/35/35 37/37/37 103/103/103
f 103/103/103 37/37/37 105/105/105
f 37/37/37 39/39/39 105/105/105
f 105/105/105 39/39/39 107/107/107
f 39/39/39 41/41/41 107/107/107
f 107/107/107 41/41/41 109/109/109
f 41/41/41 43/43/43 109/109/109
f 109/109/109 43/43/43 111/111/111
f 43/43/43 45/45/45 111/111/111
f 111/111/111 45/45/45 113/113/113
f 45/45/45 47/47/47 113/113/113
f 113/113/113 47/47/47 115/115/115
f 47/47/47 49/49/49 115/115/115
f 115/115/115 49/49/49 117/117/117
f 49/49/49 51/51/51 117/117/117
f 117/117/117 51/51/51 119/119/119
f 51/51/51 53/53/53 119/119/119
f 119/119/119 53/53/53 121/121/121
f 53/53/53 55/55/55 121/121/121
f 121/121/121 55/55/55 123/123/123
f 55/55/55 57/57/57 123/123/123
f 123/123/123 57/57/57 125/125/125
f 57/57/57 59/59/59 125/125/125
f 125/125/125 59/59/59 127/127/127
f 59/59/59 61/61/61 127/127/127
f 127/127/127 61/61/61 129/129/129
f 61/61/61 63/63/63 129/129/129
f 129/129/129 63/63/63 130/130/130
f 63/63/63 66/66/66 130/130/130
f 66/66/66 68/68/68 130/130/130
f 131/131/131 67/67/67 132/132/132
f 67/67/67 69/69/69 132/132/132
f 69/69/69 71/71/71 132/132/132
f 71/71/71 73/73/73 132/132/132
f 73/73/73 75/75/75 132/132/132
f 75/75/75 77/77/77 132/132/132
f 77/77/77 79/79/79 132/132/132
f 79/79/79 81/81/81 132/132/132
f 81/81/81 83/83/83 132/132/132
f 83/83/83 85/85/85 132/132/132
f 85/85/85 87/87/87 132/132/132
f 87/87/87 89/89/89 132/132/132
f 89/89/89 91/91/91 132/132/132
f 91/91/91 94/94/94 132/132/132
f 94/94/94 96/96/96 132/132/132
f 96/96/96 98/98/98 132/132/132
f 98/98/98 100/100/100 132/132/132
f 100/100/100 102/102/102 132/132/132
f 102/102/102 104/104/104 132/132/132
f 104/104/104 106/106/106 132/132/132
f 106/106/106 108/108/108 132/132/132
f 108/108/108 110/110/110 132/132/132
f 110/110/110 112/112/112 132/132/132
f 112/112/112 114/114/114 132/132/132
f 114/114/114 116/116/116 132/132/132
f 116/116/116 118/118/118 132/132/132
f 118/118/118 120/120/120 132/132/132
f 120/120/120 122/122/122 132/132/132
f 122/122/122 124/124/124 132/132/132
f 124/124/124 126/126/126 132/132/132
f 126/126/126 128/128/128 132/132/132
f 134/134/134 136/136/136 138/138/138
f 138/138/138 136/136/136 140/140/140
f 136/136/136 142/142/142 140/140/140
f 140/140/140 142/142/142 144/144/144
f 142/142/142 146/146/146 144/144/144
f 144/144/144 146/146/146 148/148/148
f 146/146/146 150/150/150 148/148/148
f 148/148/148 150/150/150 152/152/152
f 150/150/150 154/154/154 152/152/152
f 152/152/152 154/154/154 156/156/156
f 154/154/154 158/158/158 156/156/156
f 156/156/156 158/158/158 160/160/160
f 158/158/158 162/162/162 160/160/160
f 160/160/160 162/162/162 164/164/164
f 162/162/162 166/166/166 164/164/164
f 164/164/164 166/166/166 168/168/168
f 166/166/166 170/170/170 168/168/168
f 168/168/168 170/170/170 172/172/172
f 170/170/170 174/174/174 172/172/172
f 172/172/172 174/174/174 176/176/176
f 174/174/174 178/178/178 176/176/176
f 176/176/176 178/178/178 180/180/180
f 178/178/178 182/182/182 180/180/180
f 180/180/180 182/182/182 184/184/184
f 182/182/182 186/186/186 184/184/184
f 184/184/184 186/186/186 188/188/188
f 186/186/186 190/190/190 188/188/188
f 188/188/188 190/190/190 192/192/192
f 190/190/190 194/194/194 192/192/192
f 192/192/192 194/194/194 196/196/196
f 194/194/194 198/198/198 196/196/196
f 196/196/196 198/198/198 200/200/200
f 198/198/198 202/202/202 200/200/200
f 200/200/200 202/202/202 204/204/204
f 202/202/202 206/206/206 204/204/204
f 204/204/204 206/206/206 208/208/208
f 206/206/206 210/210/210 208/208/208
f 208/208/208 210/210/210 212/212/212
f 210/210/210 214/214/214 212/212/212
f 212/212/212 214/214/214 216/216/216
f 214/214/214 218/218/218 216/216/216
f 216/216/216 218/218/218 220/220/220
f 218/218/218 222/222/222 220/220/220
f 220/220/220 222/222/222 224/224/224
f 222/222/222 226/226/226 224/224/224
f 224/224/224 226/226/226 228/228/228
f 226/226/226 230/230/230 228/228/228
f 228/228/228 230/230/230 232/232/232
f 230/230/230 234/234/234 232/232/232
f 232/232/232 234/234/234 236/236/236
f 234/234/234 238/238/238 236/236/236
f 236/236/236 238/238/238 240/240/240
f 238/238/238 242/242/242 240/240/240
f 240/240/240 242/242/242 244/244/244
f 244/244/244 242/242/242 245/245/245
f 246/246/246 241/241/241 247/247/247
f 241/241/241 237/237/237 247/247/247
f 237/237/237 233/233/233 247/247/247
f 233/233/233 229/229/229 247/247/247
f 229/229/229 225/225/225 247/247/247
f 225/225/225 221/221/221 247/247/247
f 221/221/221 217/217/217 247/247/247
f 217/217/217 213/213/213 247/247/247
f 213/213/213 209/209/209 247/247/247
f 209/209/209 205/205/205 247/247/247
f 205/205/205 201/201/201 247/247/247
f 201/201/201 197/197/197 247/247/247
f 197/197/197 193/193/193 247/247/247
f 193/193/193 189/189/189 247/247/247
f 189/189/189 185/185/185 247/247/247
f 185/185/185 181/181/181 247/247/247
f 181/181/181 177/177/177 247/247/247
f 177/177/177 173/173/173 247/247/247
f 173/173/173 169/169/169 247/247/247
f 169/169/169 165/165/165 247/247/247
f 165/165/165 161/161/161 247/247/247
f 161/161/161 157/157/157 247/247/247
f 157/157/157 153/153/153 247/247/247
f 153/153/153 149/149/149 247/247/247
f 149/149/149 145/145/145 247/247/247
f 145/145/145 141/141/141 247/247/247
f 141/141/141 135/135/135 247/247/247
f 135/135/135 133/133/133 247/247/247
f 247/247/247 133/133/133 248/248/248
f 249/249/249 134/134/134 250/250/250
f 134/134/134 138/138/138 250/250/250
f 251/251/251 137/137/137 252/252/252
f 137/137/137 139/139/139 252/252/252
f 139/139/139 143/143/143 252/252/252
f 143/143/143 147/147/147 252/252/252
f 147/147/147 151/151/151 252/252/252
f 151/151/151 155/155/155 252/252/252
f 155/155/155 159/159/159 252/252/252
f 159/159/159 163/163/163 252/252/252
f 163/163/163 167/167/167 252/252/252
f 167/167/167 171/171/171 252/252/252
f 171/171/171 175/175/175 252/252/252
f 175/175/175 179/179/179 252/252/252
f 179/179/179 183/183/183 252/252/252
f 183/183/183 187/187/187 252/252/252
f 187/187/187 191/191/191 252/252/252
f 191/191/191 195/195/195 252/252/252
f 195/195/195 199/199/199 252/252/252
f 199/199/199 203/203/203 252/252/252
f 203/203/203 207/207/207 252/252/252
f 207/207/207 211/211/211 252/252/252
f 211/211/211 215/215/215 252/252/252
f 215/215/215 219/219/219 252/252/252
f 219/219/219 223/223/223 252/252/252
f 223/223/223 227/227/227 252/252/252
f 227/227/227 231/231/231 252/252/252
f 231/231/231 235/235/235 252/252/252
f 235/235/235 239/239/239 252/252/252
f 239/239/239 243/243/243 252/252/252
f 252/252/252 243/243/243 253/253/253
f 244/244/244 245/245/245 254/254/254
f 254/254/254 245/245/245 255/255/255
f 246/246/246 247/247/247 256/256/256
f 256/256/256 247/247/247 257/257/257
f 247/247/247 248/248/248 257/257/257
f 259/259/259 249/249/249 260/260/260
f 249/249/249 250/250/250 260/260/260
f 251/251/251 252/252/252 262/262/262
f 262/262/262 252/252/252 263/263/263
f 252/252/252 253/253/253 263/263/263
f 254/254/254 255/255/255 264/264/264
f 255/255/255 258/258/258 264/264/264
f 266/266/266 268/268/268 270/270/270
f 268/268/268 272/272/272 270/270/270
f 270/270/270 272/272/272 274/274/274
f 272/272/272 276/276/276 274/274/274
f 274/274/274 276/276/276 278/278/278
f 276/276/276 280/280/280 278/278/278
f 278/278/278 280/280/280 282/282/282
f 280/280/280 284/284/284 282/282/282
f 282/282/282 284/284/284 286/286/286
f 284/284/284 288/288/288 286/286/286
f 286/286/286 288/288/288 290/290/290
f 288/288/288 292/292/292 290/290/290
f 290/290/290 292/292/292 294/294/294
f 292/292/292 296/296/296 294/294/294
f 294/294/294 296/296/296 298/298/298
f 296/296/296 300/300/300 298/298/298
f 298/298/298 300/300/300 302/302/302
f 300/300/300 304/304/304 302/302/302
f 302/302/302 304/304/304 306/306/306
f 304/304/304 308/308/308 306/306/306
f 306/306/306 308/308/308 310/310/310
f 308/308/308 312/312/312 310/310/310
f 310/310/310 312/312/312 314/314/314
f 312/312/312 316/316/316 314/314/314
f 314/314/314 316/316/316 318/318/318
f 316/316/316 320/320/320 318/318/318
f 318/318/318 320/320/320 322/322/322
f 320/320/320 324/324/324 322/322/322
f 322/322/322 324/324/324 326/326/326
f 324/324/324 328/328/328 326/326/326
f 326/326/326 328/328/328 330/330/330
f 328/328/328 332/332/332 330/330/330
f 330/330/330 332/332/332 334/334/334
f 332/332/332 336/336/336 334/334/334
f 334/334/334 336/336/336 338/338/338
f 336/336/336 340/340/340 338/338/338
f 338/338/338 340/340/340 342/342/342
f 340/340/340 344/344/344 342/342/342
f 342/342/342 344/344/344 346/346/346
f 344/344/344 348/348/348 346/346/346
f 346/346/346 348/348/348 350/350/350
f 348/348/348 352/352/352 350/350/350
f 350/350/350 352/352/352 354/354/354
f 352/352/352 356/356/356 354/354/354
f 354/354/354 356/356/356 358/358/358
f 356/356/356 360/360/360 358/358/358
f 358/358/358 360/360/360 362/362/362
f 360/360/360 364/364/364 362/362/362
f 362/362/362 364/364/364 366/366/366
f 364/364/364 368/368/368 366/366/366
f 366/366/366 368/368/368 370/370/370
f 368/368/368 372/372/372 370/370/370
f 370/370/370 372/372/372 374/374/374
f 372/372/372 376/376/376 374/374/374
f 374/374/374 376/376/376 378/378/378
f 378/378/378 376/376/376 379/379/379
f 380/380/380 375/375/375 381/381/381
f 375/375/375 371/371/371 381/381/381
f 371/371/371 367/367/367 381/381/381
f 367/367/367 363/363/363 381/381/381
f 363/363/363 359/359/359 381/381/381
f 359/359/359 355/355/355 381/381/381
f 355/355/355 351/351/351 381/381/381
f 351/351/351 347/347/347 381/381/381
f 347/347/347 343/343/343 381/381/381
f 343/343/343 339/339/339 381/381/381
f 339/339/339 335/335/335 381/381/381
f 335/335/335 331/331/331 381/381/381
f 331/331/331 327/327/327 381/381/381
f 327/327/327 323/323/323 381/381/381
f 323/323/323 319/319/319 381/381/381
f 319/319/319 315/315/315 381/381/381
f 315/315/315 311/311/311 381/381/381
f 311/311/311 307/307/307 381/381/381
f 307/307/307 303/303/303 381/381/381
f 303/303/303 299/299/299 381/381/381
f 299/299/299 295/295/295 381/381/381
f 295/295/295 291/291/291 381/381/381
f 291/291/291 287/287/287 381/381/381
f 287/287/287 283/283/283 381/381/381
f 283/283/283 279/279/279 381/381/381
f 279/279/279 275/275/275 381/381/381
f 275/275/275 271/271/271 381/381/381
f 271/271/271 267/267/267 381/381/381
f 381/381/381 267/267/267 382/382/382
f 268/268/268 266/266/266 383/383/383
f 383/383/383 266/266/266 384/384/384
f 385/385/385 265/265/265 386/386/386
f 265/265/265 269/269/269 386/386/386
f 269/269/269 273/273/273 386/386/386
f 273/273/273 277/277/277 386/386/386
f 277/277/277 281/281/281 386/386/386
f 281/281/281 285/285/285 386/386/386
f 285/285/285 289/289/289 386/386/386
f 289/289/289 293/293/293 386/386/386
f 293/293/293 297/297/297 386/386/386
f 297/297/297 301/301/301 386/386/386
f 301/301/301 305/305/305 386/386/386
f 305/305/305 309/309/309 386/386/386
f 309/309/309 313/313/313 386/386/386
f 313/313/313 317/317/317 386/386/386
f 317/317/317 321/321/321 386/386/386
f 321/321/321 325/325/325 386/386/386
f 325/325/325 329/329/329 386/386/386
f 329/329/329 333/333/333 386/386/386
f 333/333/333 337/337/337 386/386/386
f 337/337/337 341/341/341 386/386/386
f 341/341/341 345/345/345 386/386/386
f 345/345/345 349/349/349 386/386/386
f 349/349/349 353/353/353 386/386/386
f 353/353/353 357/357/357 386/386/386
f 357/357/357 361/361/361 386/386/386
f 361/361/361 365/365/365 386/386/386
f 365/365/365 369/369/369 386/386/386
f 369/369/369 373/373/373 386/386/386
f 373/373/373 377/377/377 386/386/386
f 386/386/386 377/377/377 387/387/387
f 378/378/378 379/379/379 388/388/388
f 388/388/388 379/379/379 389/389/389
f 380/380/380 381/381/381 390/390/390
f 390/390/390 381/381/381 391/391/391
f 381/381/381 382/382/382 391/391/391
f 383/383/383 384/384/384 393/393/393
f 393/393/393 384/384/384 395/395/395
f 385/385/385 386/386/386 394/394/394
f 386/386/386 387/387/387 394/394/394
f 388/388/388 389/389/389 396/396/396
f 392/392/392 396/396/396 389/389/389
f 261/261/261 264/264/264 258/258/258
f 131/131/131 132/132/132 128/128/128

