mtllib material.mtl
usemtl Metal_Alu_Brushed.003
v 0.05585700 0.09816400 0.21984700
v 0.05653000 0.09788300 0.19138500
v 0.05930900 0.10950400 0.21984700
v 0.06001100 0.10936400 0.19138500
v 0.06046000 0.12129300 0.21984700
v 0.06119000 0.12129300 0.19138500
v 0.05930900 0.13308200 0.21984700
v 0.06001100 0.13322300 0.19138500
v 0.05585700 0.14442200 0.21984700
v 0.05653000 0.14470300 0.19138500
v 0.05027100 0.15489200 0.21984700
v 0.05088800 0.15528500 0.19138500
v 0.04274800 0.16404300 0.21984700
v 0.04328200 0.16457600 0.19138500
v 0.03359800 0.17156500 0.21984700
v 0.03399100 0.17218300 0.19138500
v 0.02312800 0.17715100 0.21984700
v 0.02340900 0.17782500 0.19138500
v 0.01178800 0.18060400 0.21984700
v 0.01192800 0.18130500 0.19138500
v -0.00000100 0.18175500 0.21984700
v -0.00000100 0.18248400 0.19138500
v -0.01179000 0.18060400 0.21984700
v -0.01193100 0.18130500 0.19138500
v -0.02313000 0.17715100 0.21984700
v -0.02341100 0.17782500 0.19138500
v -0.03360000 0.17156500 0.21984700
v -0.03399300 0.17218300 0.19138500
v -0.04275100 0.16404300 0.21984700
v -0.04328400 0.16457600 0.19138500
v -0.05027300 0.15489200 0.21984700
v -0.05089100 0.15528500 0.19138500
v -0.05585900 0.14442200 0.21984700
v -0.05653300 0.14470300 0.19138500
v -0.05931200 0.13308200 0.21984700
v -0.06001300 0.13322300 0.19138500
v -0.06046200 0.12129300 0.21984700
v -0.06119200 0.12129300 0.19138500
v -0.05931200 0.10950400 0.21984700
v -0.05585900 0.09816400 0.21984700
v -0.06001300 0.10936400 0.19138500
v -0.06262400 0.12129300 0.17170800
v -0.06141700 0.13350300 0.17170800
v -0.05785200 0.14526400 0.17170800
v -0.05207000 0.15609900 0.17170800
v -0.04429500 0.16558700 0.17170800
v -0.03480700 0.17336200 0.17170800
v -0.02397200 0.17914400 0.17170800
v -0.01221100 0.18270900 0.17170800
v -0.00000100 0.18391600 0.17170800
v 0.01220900 0.18270900 0.17170800
v 0.02397000 0.17914400 0.17170800
v 0.03480500 0.17336200 0.17170800
v 0.04429200 0.16558700 0.17170800
v 0.05206700 0.15609900 0.17170800
v 0.05785000 0.14526400 0.17170800
v 0.06141400 0.13350300 0.17170800
v 0.06262100 0.12129300 0.17170800
v 0.06141400 0.10908300 0.17170800
v 0.05785000 0.09732200 0.17170800
v 0.05206700 0.08648700 0.17170800
v 0.05088800 0.08730100 0.19138500
v 0.05027100 0.08769400 0.21984700
v 0.05021500 0.08775000 0.56507200
v 0.05021500 0.08775000 0.56507200
v 0.05580100 0.09819200 0.56507200
v 0.05580100 0.09819200 0.56507200
v 0.05922500 0.10950400 0.56507200
v 0.05922500 0.10950400 0.56507200
v 0.06040400 0.12129300 0.56507200
v 0.06040400 0.12129300 0.56507200
v 0.05922500 0.13308200 0.56507200
v 0.05922500 0.13308200 0.56507200
v 0.05580100 0.14439400 0.56507200
v 0.05580100 0.14439400 0.56507200
v 0.05021500 0.15483600 0.56507200
v 0.05021500 0.15483600 0.56507200
v 0.04269200 0.16398700 0.56507200
v 0.04269200 0.16398700 0.56507200
v 0.03354200 0.17150900 0.56507200
v 0.03354200 0.17150900 0.56507200
v 0.02310000 0.17709500 0.56507200
v 0.02310000 0.17709500 0.56507200
v 0.01178800 0.18051900 0.56507200
v 0.01178800 0.18051900 0.56507200
v -0.00000100 0.18169800 0.56507200
v -0.00000100 0.18169800 0.56507200
v -0.01179000 0.18051900 0.56507200
v -0.01179000 0.18051900 0.56507200
v -0.02310200 0.17709500 0.56507200
v -0.02310200 0.17709500 0.56507200
v -0.03354400 0.17150900 0.56507200
v -0.03354400 0.17150900 0.56507200
v -0.04269500 0.16398700 0.56507200
v -0.04269500 0.16398700 0.56507200
v -0.05021700 0.15483600 0.56507200
v -0.05021700 0.15483600 0.56507200
v -0.05580300 0.14439400 0.56507200
v -0.05580300 0.14439400 0.56507200
v -0.05922700 0.13308200 0.56507200
v -0.05922700 0.13308200 0.56507200
v -0.06040600 0.12129300 0.56507200
v -0.06040600 0.12129300 0.56507200
v -0.05922700 0.10950400 0.56507200
v -0.05922700 0.10950400 0.56507200
v -0.05580300 0.09819200 0.56507200
v -0.05580300 0.09819200 0.56507200
v -0.05021700 0.08775000 0.56507200
v -0.05021700 0.08775000 0.56507200
v -0.04269500 0.07860000 0.56507200
v -0.04269500 0.07860000 0.56507200
v -0.05027300 0.08769400 0.21984700
v -0.05653300 0.09788300 0.19138500
v -0.06141700 0.10908300 0.17170800
v -0.06503800 0.10835300 0.15250900
v -0.06630100 0.12129300 0.15250900
v -0.06503800 0.13423300 0.15250900
v -0.06124800 0.14666800 0.15250900
v -0.05512900 0.15812000 0.15250900
v -0.04687700 0.16816900 0.15250900
v -0.03682800 0.17642100 0.15250900
v -0.02537600 0.18254000 0.15250900
v -0.01294100 0.18633000 0.15250900
v -0.00000100 0.18759300 0.15250900
v 0.01293900 0.18633000 0.15250900
v 0.02537300 0.18254000 0.15250900
v 0.03682600 0.17642100 0.15250900
v 0.04687500 0.16816900 0.15250900
v 0.05512700 0.15812000 0.15250900
v 0.06124600 0.14666800 0.15250900
v 0.06503500 0.13423300 0.15250900
v 0.06629800 0.12129300 0.15250900
v 0.06503500 0.10835300 0.15250900
v 0.06124600 0.09591900 0.15250900
v 0.05512700 0.08446600 0.15250900
v 0.04429200 0.07700000 0.17170800
v 0.04328200 0.07801000 0.19138500
v 0.04274800 0.07854400 0.21984700
v 0.04269200 0.07860000 0.56507200
v 0.04269200 0.07860000 0.56507200
v -0.00000100 0.12129300 0.56507200
v -0.03354400 0.07107700 0.56507200
v -0.03354400 0.07107700 0.56507200
v -0.04275100 0.07854400 0.21984700
v -0.05089100 0.08730100 0.19138500
v -0.05785200 0.09732200 0.17170800
v -0.06124800 0.09591900 0.15250900
v -0.06237100 0.07961000 0.12935200
v -0.06237100 0.07961000 0.12935200
v -0.06930400 0.09257800 0.12935200
v -0.06930400 0.09257800 0.12935200
v -0.07357100 0.10666900 0.12935200
v -0.07357100 0.10666900 0.12935200
v -0.07500200 0.12129300 0.12935200
v -0.07500200 0.12129300 0.12935200
v -0.07357100 0.13591700 0.12935200
v -0.07357100 0.13591700 0.12935200
v -0.06930400 0.14998000 0.12935200
v -0.06930400 0.14998000 0.12935200
v -0.06237100 0.16294800 0.12935200
v -0.06237100 0.16294800 0.12935200
v -0.05302400 0.17431600 0.12935200
v -0.05302400 0.17431600 0.12935200
v -0.04165600 0.18366300 0.12935200
v -0.04165600 0.18366300 0.12935200
v -0.02868800 0.19059600 0.12935200
v -0.02868800 0.19059600 0.12935200
v -0.01462500 0.19486300 0.12935200
v -0.01462500 0.19486300 0.12935200
v -0.00000100 0.19629400 0.12935200
v -0.00000100 0.19629400 0.12935200
v 0.01462300 0.19486300 0.12935200
v 0.01462300 0.19486300 0.12935200
v 0.02871400 0.19059600 0.12935200
v 0.02871400 0.19059600 0.12935200
v 0.04168200 0.18366300 0.12935200
v 0.04168200 0.18366300 0.12935200
v 0.05302200 0.17431600 0.12935200
v 0.05302200 0.17431600 0.12935200
v 0.06236900 0.16294800 0.12935200
v 0.06236900 0.16294800 0.12935200
v 0.06930200 0.14998000 0.12935200
v 0.06930200 0.14998000 0.12935200
v 0.07356800 0.13591700 0.12935200
v 0.07356800 0.13591700 0.12935200
v 0.07500000 0.12129300 0.12935200
v 0.07500000 0.12129300 0.12935200
v 0.07356800 0.10666900 0.12935200
v 0.07356800 0.10666900 0.12935200
v 0.06930200 0.09257800 0.12935200
v 0.06930200 0.09257800 0.12935200
v 0.06236900 0.07961000 0.12935200
v 0.06236900 0.07961000 0.12935200
v 0.05302200 0.06827000 0.12935200
v 0.05302200 0.06827000 0.12935200
v 0.04687500 0.07441700 0.15250900
v 0.03480500 0.06922500 0.17170800
v 0.03399100 0.07040400 0.19138500
v 0.03359800 0.07102100 0.21984700
v 0.03354200 0.07107700 0.56507200
v 0.03354200 0.07107700 0.56507200
v 0.02310000 0.06549100 0.56507200
v 0.02310000 0.06549100 0.56507200
v 0.01178800 0.06206700 0.56507200
v 0.01178800 0.06206700 0.56507200
v -0.00000100 0.06088800 0.56507200
v -0.00000100 0.06088800 0.56507200
v -0.00000100 0.06088800 0.56507200
v -0.01179000 0.06206700 0.56507200
v -0.01179000 0.06206700 0.56507200
v -0.02310200 0.06549100 0.56507200
v -0.02310200 0.06549100 0.56507200
v -0.03360000 0.07102100 0.21984700
v -0.04328400 0.07801000 0.19138500
v -0.05207000 0.08648700 0.17170800
v -0.05512900 0.08446600 0.15250900
v -0.05302400 0.06827000 0.12935200
v -0.05302400 0.06827000 0.12935200
v -0.05302400 0.06827000 0.10521200
v -0.05302400 0.06827000 0.10521200
v -0.06237100 0.07961000 0.10521200
v -0.06237100 0.07961000 0.10521200
v -0.06930400 0.09257800 0.10521200
v -0.06930400 0.09257800 0.10521200
v -0.07357100 0.10666900 0.10521200
v -0.07357100 0.10666900 0.10521200
v -0.07500200 0.12129300 0.10521200
v -0.07500200 0.12129300 0.10521200
v -0.07357100 0.13591700 0.10521200
v -0.07357100 0.13591700 0.10521200
v -0.06930400 0.14998000 0.10521200
v -0.06930400 0.14998000 0.10521200
v -0.06237100 0.16294800 0.10521200
v -0.06237100 0.16294800 0.10521200
v -0.05302400 0.17431600 0.10521200
v -0.05302400 0.17431600 0.10521200
v -0.04165600 0.18366300 0.10521200
v -0.04165600 0.18366300 0.10521200
v -0.02868800 0.19059600 0.10521200
v -0.02868800 0.19059600 0.10521200
v -0.01462500 0.19486300 0.10521200
v -0.01462500 0.19486300 0.10521200
v -0.00000100 0.19629400 0.10521200
v -0.00000100 0.19629400 0.10521200
v 0.01462300 0.19486300 0.10521200
v 0.01462300 0.19486300 0.10521200
v 0.02871400 0.19059600 0.10521200
v 0.02871400 0.19059600 0.10521200
v 0.04168200 0.18366300 0.10521200
v 0.04168200 0.18366300 0.10521200
v 0.05302200 0.17431600 0.10521200
v 0.05302200 0.17431600 0.10521200
v 0.06236900 0.16294800 0.10521200
v 0.06236900 0.16294800 0.10521200
v 0.06930200 0.14998000 0.10521200
v 0.06930200 0.14998000 0.10521200
v 0.07356800 0.13591700 0.10521200
v 0.07356800 0.13591700 0.10521200
v 0.07500000 0.12129300 0.10521200
v 0.07500000 0.12129300 0.10521200
v 0.07356800 0.10666900 0.10521200
v 0.07356800 0.10666900 0.10521200
v 0.06930200 0.09257800 0.10521200
v 0.06930200 0.09257800 0.10521200
v 0.06236900 0.07961000 0.10521200
v 0.06236900 0.07961000 0.10521200
v 0.05302200 0.06827000 0.10521200
v 0.05302200 0.06827000 0.10521200
v 0.04168200 0.05892300 0.10521200
v 0.04168200 0.05892300 0.10521200
v 0.02871400 0.05199000 0.10521200
v 0.02871400 0.05199000 0.10521200
v 0.04168200 0.05892300 0.12935200
v 0.04168200 0.05892300 0.12935200
v 0.03682600 0.06616500 0.15250900
v 0.02397000 0.06344200 0.17170800
v 0.02340900 0.06476200 0.19138500
v 0.02312800 0.06543500 0.21984700
v 0.01178800 0.06198300 0.21984700
v -0.00000100 0.06083200 0.21984700
v -0.00000100 0.06083200 0.21984700
v -0.01179000 0.06198300 0.21984700
v -0.02313000 0.06543500 0.21984700
v -0.03399300 0.07040400 0.19138500
v -0.04429500 0.07700000 0.17170800
v -0.04687700 0.07441700 0.15250900
v -0.04165600 0.05892300 0.12935200
v -0.04165600 0.05892300 0.12935200
v -0.04165600 0.05892300 0.10521200
v -0.04165600 0.05892300 0.10521200
v -0.00000100 0.12129300 0.10521200
v 0.01462300 0.04772400 0.10521200
v 0.01462300 0.04772400 0.10521200
v 0.02871400 0.05199000 0.12935200
v 0.02871400 0.05199000 0.12935200
v 0.02537300 0.06004600 0.15250900
v 0.01220900 0.05987800 0.17170800
v 0.01192800 0.06128100 0.19138500
v -0.00000100 0.06010200 0.19138500
v -0.00000100 0.06010200 0.19138500
v -0.01193100 0.06128100 0.19138500
v -0.02341100 0.06476200 0.19138500
v -0.03480700 0.06922500 0.17170800
v -0.03682800 0.06616500 0.15250900
v -0.02868800 0.05199000 0.12935200
v -0.02868800 0.05199000 0.12935200
v -0.02868800 0.05199000 0.10521200
v -0.02868800 0.05199000 0.10521200
v -0.01462500 0.04772400 0.10521200
v -0.01462500 0.04772400 0.10521200
v -0.00000100 0.04629200 0.10521200
v -0.00000100 0.04629200 0.10521200
v -0.00000100 0.04629200 0.10521200
v 0.01462300 0.04772400 0.12935200
v 0.01462300 0.04772400 0.12935200
v 0.01293900 0.05625700 0.15250900
v -0.00000100 0.05867100 0.17170800
v -0.00000100 0.05867100 0.17170800
v -0.01221100 0.05987800 0.17170800
v -0.02397200 0.06344200 0.17170800
v -0.02537600 0.06004600 0.15250900
v -0.01462500 0.04772400 0.12935200
v -0.01462500 0.04772400 0.12935200
v -0.00000100 0.04629200 0.12935200
v -0.00000100 0.04629200 0.12935200
v -0.00000100 0.04629200 0.12935200
v -0.00000100 0.04629200 0.12935200
v -0.00000100 0.05499400 0.15250900
v -0.00000100 0.05499400 0.15250900
v -0.01294100 0.05625700 0.15250900
vn 0.92380000 -0.38270000 0.01300000
vn 0.92300000 -0.38170000 0.04910000
vn 0.98070000 -0.19510000 0.01280000
vn 0.97960000 -0.19490000 0.04900000
vn 0.99990000 -0.00010000 0.01280000
vn 0.99880000 -0.00010000 0.04910000
vn 0.98070000 0.19520000 0.01280000
vn 0.97960000 0.19500000 0.04900000
vn 0.92380000 0.38270000 0.01280000
vn 0.92300000 0.38170000 0.04930000
vn 0.83140000 0.55560000 0.01300000
vn 0.83100000 0.55410000 0.04940000
vn 0.70710000 0.70700000 0.01320000
vn 0.70630000 0.70620000 0.04940000
vn 0.55550000 0.83140000 0.01310000
vn 0.55400000 0.83110000 0.04920000
vn 0.38270000 0.92380000 0.01300000
vn 0.38170000 0.92300000 0.04910000
vn 0.19510000 0.98070000 0.01280000
vn 0.19490000 0.97960000 0.04900000
vn 0.00010000 0.99990000 0.01280000
vn 0.00010000 0.99880000 0.04910000
vn -0.19520000 0.98070000 0.01280000
vn -0.19500000 0.97960000 0.04900000
vn -0.38270000 0.92380000 0.01280000
vn -0.38170000 0.92300000 0.04930000
vn -0.55560000 0.83140000 0.01300000
vn -0.55410000 0.83100000 0.04940000
vn -0.70700000 0.70710000 0.01320000
vn -0.70620000 0.70630000 0.04940000
vn -0.83140000 0.55550000 0.01310000
vn -0.83110000 0.55400000 0.04920000
vn -0.92380000 0.38270000 0.01300000
vn -0.92300000 0.38170000 0.04910000
vn -0.98070000 0.19510000 0.01280000
vn -0.97960000 0.19490000 0.04900000
vn -0.99990000 0.00010000 0.01280000
vn -0.99880000 0.00010000 0.04910000
vn -0.98070000 -0.19520000 0.01280000
vn -0.92380000 -0.38270000 0.01280000
vn -0.97960000 -0.19500000 0.04900000
vn -0.99140000 0.00010000 0.13120000
vn -0.97230000 0.19330000 0.13130000
vn -0.91600000 0.37910000 0.13120000
vn -0.82460000 0.55030000 0.13090000
vn -0.70100000 0.70110000 0.13050000
vn -0.55040000 0.82460000 0.13060000
vn -0.37900000 0.91610000 0.13090000
vn -0.19360000 0.97230000 0.13130000
vn 0.00010000 0.99140000 0.13120000
vn 0.19330000 0.97230000 0.13130000
vn 0.37910000 0.91600000 0.13120000
vn 0.55030000 0.82460000 0.13090000
vn 0.70110000 0.70100000 0.13050000
vn 0.82460000 0.55040000 0.13060000
vn 0.91610000 0.37900000 0.13090000
vn 0.97230000 0.19360000 0.13130000
vn 0.99140000 -0.00010000 0.13120000
vn 0.97230000 -0.19330000 0.13130000
vn 0.91600000 -0.37910000 0.13120000
vn 0.82460000 -0.55030000 0.13090000
vn 0.83110000 -0.55400000 0.04920000
vn 0.83140000 -0.55550000 0.01310000
vn -0.00000000 -0.00000000 1.00000000
vn 0.83110000 -0.55610000 0.00020000
vn -0.00000000 -0.00000000 1.00000000
vn 0.92390000 -0.38260000 0.00020000
vn -0.00000000 -0.00000000 1.00000000
vn 0.98070000 -0.19560000 0.00020000
vn -0.00000000 -0.00000000 1.00000000
vn 1.00000000 -0.00000000 0.00020000
vn -0.00000000 -0.00000000 1.00000000
vn 0.98070000 0.19550000 0.00020000
vn -0.00000000 -0.00000000 1.00000000
vn 0.92390000 0.38260000 0.00020000
vn -0.00000000 -0.00000000 1.00000000
vn 0.83120000 0.55600000 0.00020000
vn -0.00000000 -0.00000000 1.00000000
vn 0.70710000 0.70710000 0.00020000
vn -0.00000000 -0.00000000 1.00000000
vn 0.55610000 0.83110000 0.00020000
vn -0.00000000 -0.00000000 1.00000000
vn 0.38260000 0.92390000 0.00020000
vn -0.00000000 -0.00000000 1.00000000
vn 0.19560000 0.98070000 0.00020000
vn -0.00000000 -0.00000000 1.00000000
vn -0.00000000 1.00000000 0.00020000
vn -0.00000000 -0.00000000 1.00000000
vn -0.19550000 0.98070000 0.00020000
vn -0.00000000 -0.00000000 1.00000000
vn -0.38260000 0.92390000 0.00020000
vn -0.00000000 -0.00000000 1.00000000
vn -0.55600000 0.83120000 0.00020000
vn -0.00000000 -0.00000000 1.00000000
vn -0.70710000 0.70710000 0.00020000
vn -0.00000000 -0.00000000 1.00000000
vn -0.83110000 0.55610000 0.00020000
vn -0.00000000 -0.00000000 1.00000000
vn -0.92390000 0.38260000 0.00020000
vn -0.00000000 -0.00000000 1.00000000
vn -0.98070000 0.19560000 0.00020000
vn -0.00000000 -0.00000000 1.00000000
vn -1.00000000 -0.00000000 0.00020000
vn -0.00000000 -0.00000000 1.00000000
vn -0.98070000 -0.19550000 0.00020000
vn -0.00000000 -0.00000000 1.00000000
vn -0.92390000 -0.38260000 0.00020000
vn -0.00000000 -0.00000000 1.00000000
vn -0.83110000 -0.55600000 0.00020000
vn -0.00000000 -0.00000000 1.00000000
vn -0.70710000 -0.70710000 0.00020000
vn -0.83140000 -0.55560000 0.01300000
vn -0.92300000 -0.38170000 0.04920000
vn -0.97230000 -0.19360000 0.13130000
vn -0.94360000 -0.18790000 0.27270000
vn -0.96220000 0.00010000 0.27240000
vn -0.94360000 0.18780000 0.27250000
vn -0.88880000 0.36860000 0.27220000
vn -0.80010000 0.53460000 0.27200000
vn -0.68040000 0.68060000 0.27170000
vn -0.53470000 0.80010000 0.27210000
vn -0.36860000 0.88870000 0.27250000
vn -0.18790000 0.94360000 0.27260000
vn 0.00010000 0.96220000 0.27240000
vn 0.18780000 0.94360000 0.27250000
vn 0.36850000 0.88880000 0.27240000
vn 0.53460000 0.80010000 0.27230000
vn 0.68070000 0.68030000 0.27180000
vn 0.80010000 0.53470000 0.27210000
vn 0.88870000 0.36860000 0.27250000
vn 0.94360000 0.18790000 0.27260000
vn 0.96220000 -0.00010000 0.27240000
vn 0.94360000 -0.18780000 0.27250000
vn 0.88880000 -0.36850000 0.27240000
vn 0.80010000 -0.53460000 0.27230000
vn 0.70100000 -0.70110000 0.13050000
vn 0.70620000 -0.70630000 0.04940000
vn 0.70700000 -0.70710000 0.01320000
vn 0.70710000 -0.70710000 0.00020000
vn -0.00000000 -0.00000000 1.00000000
vn -0.00000000 -0.00000000 1.00000000
vn -0.00000000 -0.00000000 1.00000000
vn -0.55610000 -0.83110000 0.00020000
vn -0.70710000 -0.70700000 0.01320000
vn -0.83100000 -0.55410000 0.04940000
vn -0.91610000 -0.37900000 0.13090000
vn -0.88870000 -0.36860000 0.27270000
vn -0.83080000 -0.55650000 -0.00000000
vn -0.77760000 -0.52080000 0.35240000
vn -0.92400000 -0.38250000 -0.00000000
vn -0.86470000 -0.35820000 0.35210000
vn -0.98090000 -0.19450000 -0.00000000
vn -0.91830000 -0.18210000 0.35170000
vn -1.00000000 -0.00000000 -0.00000000
vn -0.93610000 -0.00000000 0.35170000
vn -0.98080000 0.19480000 -0.00000000
vn -0.91810000 0.18250000 0.35180000
vn -0.92390000 0.38270000 -0.00000000
vn -0.86480000 0.35820000 0.35200000
vn -0.83120000 0.55600000 -0.00000000
vn -0.77810000 0.52040000 0.35170000
vn -0.70710000 0.70710000 -0.00000000
vn -0.66190000 0.66200000 0.35160000
vn -0.55600000 0.83120000 -0.00000000
vn -0.52040000 0.77810000 0.35190000
vn -0.38270000 0.92390000 -0.00000000
vn -0.35840000 0.86470000 0.35190000
vn -0.19480000 0.98080000 -0.00000000
vn -0.18230000 0.91820000 0.35170000
vn -0.00000000 1.00000000 -0.00000000
vn -0.00000000 0.93610000 0.35170000
vn 0.19450000 0.98090000 -0.00000000
vn 0.18230000 0.91810000 0.35190000
vn 0.38250000 0.92400000 -0.00000000
vn 0.35790000 0.86470000 0.35240000
vn 0.55650000 0.83080000 -0.00000000
vn 0.52070000 0.77780000 0.35210000
vn 0.70750000 0.70670000 -0.00000000
vn 0.66240000 0.66150000 0.35160000
vn 0.83120000 0.55600000 -0.00000000
vn 0.77810000 0.52040000 0.35190000
vn 0.92390000 0.38270000 -0.00000000
vn 0.86470000 0.35840000 0.35190000
vn 0.98080000 0.19480000 -0.00000000
vn 0.91820000 0.18230000 0.35170000
vn 1.00000000 -0.00000000 -0.00000000
vn 0.93610000 -0.00000000 0.35170000
vn 0.98090000 -0.19450000 -0.00000000
vn 0.91810000 -0.18230000 0.35190000
vn 0.92400000 -0.38250000 -0.00000000
vn 0.86470000 -0.35790000 0.35240000
vn 0.83090000 -0.55650000 -0.00000000
vn 0.77780000 -0.52070000 0.35210000
vn 0.70710000 -0.70710000 -0.00000000
vn 0.66170000 -0.66210000 0.35170000
vn 0.68030000 -0.68070000 0.27180000
vn 0.55040000 -0.82460000 0.13060000
vn 0.55410000 -0.83100000 0.04940000
vn 0.55560000 -0.83140000 0.01300000
vn 0.55600000 -0.83110000 0.00020000
vn -0.00000000 -0.00000000 1.00000000
vn 0.38260000 -0.92390000 0.00020000
vn -0.00000000 -0.00000000 1.00000000
vn 0.19550000 -0.98070000 0.00020000
vn -0.00000000 -0.00000000 1.00000000
vn 0.09950000 -0.99500000 0.00020000
vn -0.09950000 -0.99500000 0.00020000
vn -0.00000000 -0.00000000 1.00000000
vn -0.19560000 -0.98070000 0.00020000
vn -0.00000000 -0.00000000 1.00000000
vn -0.00000000 -0.00000000 1.00000000
vn -0.38260000 -0.92390000 0.00020000
vn -0.55550000 -0.83140000 0.01310000
vn -0.70630000 -0.70620000 0.04940000
vn -0.82460000 -0.55040000 0.13060000
vn -0.80000000 -0.53470000 0.27230000
vn -0.66170000 -0.66210000 0.35170000
vn -0.70670000 -0.70750000 -0.00000000
vn -0.00000000 -0.00000000 -1.00000000
vn -0.70670000 -0.70750000 -0.00000000
vn -0.00000000 -0.00000000 -1.00000000
vn -0.83080000 -0.55650000 -0.00000000
vn -0.00000000 -0.00000000 -1.00000000
vn -0.92400000 -0.38250000 -0.00000000
vn -0.00000000 -0.00000000 -1.00000000
vn -0.98090000 -0.19450000 -0.00000000
vn -0.00000000 -0.00000000 -1.00000000
vn -1.00000000 -0.00000000 -0.00000000
vn -0.00000000 -0.00000000 -1.00000000
vn -0.98080000 0.19480000 -0.00000000
vn -0.00000000 -0.00000000 -1.00000000
vn -0.92390000 0.38270000 -0.00000000
vn -0.00000000 -0.00000000 -1.00000000
vn -0.83120000 0.55600000 -0.00000000
vn -0.00000000 -0.00000000 -1.00000000
vn -0.70710000 0.70710000 -0.00000000
vn -0.00000000 -0.00000000 -1.00000000
vn -0.55600000 0.83120000 -0.00000000
vn -0.00000000 -0.00000000 -1.00000000
vn -0.38270000 0.92390000 -0.00000000
vn -0.00000000 -0.00000000 -1.00000000
vn -0.19480000 0.98080000 -0.00000000
vn -0.00000000 -0.00000000 -1.00000000
vn -0.00000000 1.00000000 -0.00000000
vn -0.00000000 -0.00000000 -1.00000000
vn 0.19450000 0.98090000 -0.00000000
vn -0.00000000 -0.00000000 -1.00000000
vn 0.38250000 0.92400000 -0.00000000
vn -0.00000000 -0.00000000 -1.00000000
vn 0.55650000 0.83090000 -0.00000000
vn -0.00000000 -0.00000000 -1.00000000
vn 0.70750000 0.70670000 -0.00000000
vn -0.00000000 -0.00000000 -1.00000000
vn 0.83120000 0.55600000 -0.00000000
vn -0.00000000 -0.00000000 -1.00000000
vn 0.92390000 0.38270000 -0.00000000
vn -0.00000000 -0.00000000 -1.00000000
vn 0.98080000 0.19480000 -0.00000000
vn -0.00000000 -0.00000000 -1.00000000
vn 1.00000000 -0.00000000 -0.00000000
vn -0.00000000 -0.00000000 -1.00000000
vn 0.98090000 -0.19450000 -0.00000000
vn -0.00000000 -0.00000000 -1.00000000
vn 0.92400000 -0.38250000 -0.00000000
vn -0.00000000 -0.00000000 -1.00000000
vn 0.83090000 -0.55650000 -0.00000000
vn -0.00000000 -0.00000000 -1.00000000
vn 0.70710000 -0.70710000 -0.00000000
vn -0.00000000 -0.00000000 -1.00000000
vn 0.55650000 -0.83090000 -0.00000000
vn -0.00000000 -0.00000000 -1.00000000
vn 0.38250000 -0.92400000 -0.00000000
vn 0.55650000 -0.83090000 -0.00000000
vn 0.52080000 -0.77760000 0.35240000
vn 0.53470000 -0.80000000 0.27230000
vn 0.37900000 -0.91610000 0.13090000
vn 0.38170000 -0.92300000 0.04930000
vn 0.38270000 -0.92380000 0.01280000
vn 0.19520000 -0.98070000 0.01280000
vn 0.09720000 -0.99520000 0.01290000
vn -0.09730000 -0.99520000 0.01270000
vn -0.19510000 -0.98070000 0.01280000
vn -0.38270000 -0.92380000 0.01300000
vn -0.55400000 -0.83110000 0.04920000
vn -0.70110000 -0.70100000 0.13050000
vn -0.68060000 -0.68040000 0.27170000
vn -0.52040000 -0.77810000 0.35170000
vn -0.55600000 -0.83120000 -0.00000000
vn -0.55600000 -0.83120000 -0.00000000
vn -0.00000000 -0.00000000 -1.00000000
vn -0.00000000 -0.00000000 -1.00000000
vn -0.00000000 -0.00000000 -1.00000000
vn 0.19450000 -0.98090000 -0.00000000
vn 0.38250000 -0.92400000 -0.00000000
vn 0.35820000 -0.86470000 0.35210000
vn 0.36860000 -0.88870000 0.27270000
vn 0.19360000 -0.97230000 0.13130000
vn 0.19500000 -0.97960000 0.04900000
vn 0.09810000 -0.99400000 0.04880000
vn -0.09820000 -0.99400000 0.04890000
vn -0.19490000 -0.97960000 0.04900000
vn -0.38170000 -0.92300000 0.04910000
vn -0.55030000 -0.82460000 0.13090000
vn -0.53460000 -0.80010000 0.27200000
vn -0.35820000 -0.86480000 0.35200000
vn -0.38270000 -0.92390000 -0.00000000
vn -0.38270000 -0.92390000 -0.00000000
vn -0.00000000 -0.00000000 -1.00000000
vn -0.19480000 -0.98080000 -0.00000000
vn -0.00000000 -0.00000000 -1.00000000
vn -0.00000000 -0.00000000 -1.00000000
vn -0.09740000 -0.99520000 -0.00000000
vn 0.09740000 -0.99520000 -0.00000000
vn 0.19450000 -0.98090000 -0.00000000
vn 0.18210000 -0.91830000 0.35170000
vn 0.18790000 -0.94360000 0.27270000
vn 0.09730000 -0.98660000 0.13070000
vn -0.09750000 -0.98670000 0.13040000
vn -0.19330000 -0.97230000 0.13130000
vn -0.37910000 -0.91600000 0.13120000
vn -0.36860000 -0.88880000 0.27220000
vn -0.18250000 -0.91810000 0.35180000
vn -0.19480000 -0.98080000 -0.00000000
vn 0.09740000 -0.99520000 -0.00000000
vn -0.09740000 -0.99520000 -0.00000000
vn -0.09120000 -0.93220000 0.35020000
vn 0.09130000 -0.93220000 0.35030000
vn 0.09360000 -0.95800000 0.27100000
vn -0.09370000 -0.95790000 0.27130000
vn -0.18780000 -0.94360000 0.27250000
vt 0.08151700 0.65373500
vt 0.06202000 0.65373500
vt 0.08151700 0.64494500
vt 0.06202000 0.64494500
vt 0.08151700 0.63615400
vt 0.06202000 0.63615400
vt 0.08151700 0.62736400
vt 0.06202000 0.62736400
vt 0.08151700 0.61846100
vt 0.06202000 0.61846100
vt 0.08151700 0.60967100
vt 0.06202000 0.60967100
vt 0.08151700 0.60088000
vt 0.06202000 0.60088000
vt 0.08151700 0.59197700
vt 0.06202000 0.59197700
vt 0.08151700 0.58318700
vt 0.06202000 0.58318700
vt 0.08151700 0.57439700
vt 0.06202000 0.57439700
vt 0.08151700 0.56560600
vt 0.06202000 0.56560600
vt 0.08151700 0.55670300
vt 0.06202000 0.55670300
vt 0.08151700 0.54791300
vt 0.06202000 0.54791300
vt 0.08151700 0.53912300
vt 0.06202000 0.53912300
vt 0.08151700 0.53033200
vt 0.06202000 0.53033200
vt 0.08151700 0.52142900
vt 0.06202000 0.52142900
vt 0.08151700 0.51263900
vt 0.06202000 0.51263900
vt 0.08151700 0.50384800
vt 0.06202000 0.50384800
vt 0.08151700 0.49505800
vt 0.06202000 0.49505800
vt 0.08151700 0.48615500
vt 0.08151700 0.47736500
vt 0.06202000 0.48615500
vt 0.04861000 0.49505800
vt 0.04861000 0.50384800
vt 0.04861000 0.51263900
vt 0.04861000 0.52142900
vt 0.04861000 0.53033200
vt 0.04861000 0.53912300
vt 0.04861000 0.54791300
vt 0.04861000 0.55670300
vt 0.04861000 0.56560600
vt 0.04861000 0.57439700
vt 0.04861000 0.58318700
vt 0.04861000 0.59197700
vt 0.04861000 0.60088000
vt 0.04861000 0.60967100
vt 0.04861000 0.61846100
vt 0.04861000 0.62736400
vt 0.04861000 0.63615400
vt 0.04861000 0.64494500
vt 0.04861000 0.65373500
vt 0.04861000 0.66252500
vt 0.06202000 0.66252500
vt 0.08151700 0.66252500
vt 0.84199500 0.12304600
vt 0.31874400 0.66252500
vt 0.84515000 0.11538300
vt 0.31874400 0.65373500
vt 0.84977100 0.10839600
vt 0.31874400 0.64494500
vt 0.85574400 0.10253500
vt 0.31874400 0.63615400
vt 0.86261800 0.09791500
vt 0.31874400 0.62736400
vt 0.87039400 0.09464700
vt 0.31874400 0.61846100
vt 0.87850800 0.09306900
vt 0.31874400 0.60967100
vt 0.88684800 0.09306900
vt 0.31874400 0.60088000
vt 0.89507500 0.09464700
vt 0.31874400 0.59197700
vt 0.90273800 0.09791500
vt 0.31874400 0.58318700
vt 0.90972500 0.10253500
vt 0.31874400 0.57439700
vt 0.91558500 0.10839600
vt 0.31874400 0.56560600
vt 0.92020600 0.11538300
vt 0.31874400 0.55670300
vt 0.92347400 0.12304600
vt 0.31874400 0.54791300
vt 0.92505200 0.13127300
vt 0.31874400 0.53912300
vt 0.92505200 0.13961300
vt 0.31874400 0.53033200
vt 0.92347400 0.14772700
vt 0.31874400 0.52142900
vt 0.92020600 0.15550300
vt 0.31874400 0.51263900
vt 0.91558500 0.16237700
vt 0.31874400 0.50384800
vt 0.90972500 0.16835000
vt 0.31874400 0.49505800
vt 0.90273800 0.17297100
vt 0.31874400 0.48615500
vt 0.89507500 0.17612600
vt 0.31874400 0.47736500
vt 0.88684800 0.17770400
vt 0.31874400 0.46857400
vt 0.87850800 0.17770400
vt 0.31874400 0.45978400
vt 0.08151700 0.46857400
vt 0.06202000 0.47736500
vt 0.04861000 0.48615500
vt 0.03519900 0.48615500
vt 0.03519900 0.49505800
vt 0.03519900 0.50384800
vt 0.03519900 0.51263900
vt 0.03519900 0.52142900
vt 0.03519900 0.53033200
vt 0.03519900 0.53912300
vt 0.03519900 0.54791300
vt 0.03519900 0.55670300
vt 0.03519900 0.56560600
vt 0.03519900 0.57439700
vt 0.03519900 0.58318700
vt 0.03519900 0.59197700
vt 0.03519900 0.60088000
vt 0.03519900 0.60967100
vt 0.03519900 0.61846100
vt 0.03519900 0.62736400
vt 0.03519900 0.63615400
vt 0.03519900 0.64494500
vt 0.03519900 0.65373500
vt 0.03519900 0.66252500
vt 0.04861000 0.67131600
vt 0.06202000 0.67131600
vt 0.08151700 0.67131600
vt 0.31874400 0.67131600
vt 0.84041700 0.13127300
vt 0.88267800 0.13544300
vt 0.87039400 0.17612600
vt 0.31874400 0.45099400
vt 0.08151700 0.45978400
vt 0.06202000 0.46857400
vt 0.04861000 0.47736500
vt 0.03519900 0.47736500
vt 0.01840700 0.46857400
vt 0.01840700 0.46857400
vt 0.01840700 0.47736500
vt 0.01840700 0.47736500
vt 0.01840700 0.48615500
vt 0.01840700 0.48615500
vt 0.01840700 0.49505800
vt 0.01840700 0.49505800
vt 0.01840700 0.50384800
vt 0.01840700 0.50384800
vt 0.01840700 0.51263900
vt 0.01840700 0.51263900
vt 0.01840700 0.52142900
vt 0.01840700 0.52142900
vt 0.01840700 0.53033200
vt 0.01840700 0.53033200
vt 0.01840700 0.53912300
vt 0.01840700 0.53912300
vt 0.01840700 0.54791300
vt 0.01840700 0.54791300
vt 0.01840700 0.55670300
vt 0.01840700 0.55670300
vt 0.01840700 0.56560600
vt 0.01840700 0.56560600
vt 0.01840700 0.57439700
vt 0.01840700 0.57439700
vt 0.01840700 0.58318700
vt 0.01840700 0.58318700
vt 0.01840700 0.59197700
vt 0.01840700 0.59197700
vt 0.01840700 0.60088000
vt 0.01840700 0.60088000
vt 0.01840700 0.60967100
vt 0.01840700 0.60967100
vt 0.01840700 0.61846100
vt 0.01840700 0.61846100
vt 0.01840700 0.62736400
vt 0.01840700 0.62736400
vt 0.01840700 0.63615400
vt 0.01840700 0.63615400
vt 0.01840700 0.64494500
vt 0.01840700 0.64494500
vt 0.01840700 0.65373500
vt 0.01840700 0.65373500
vt 0.01840700 0.66252500
vt 0.01840700 0.66252500
vt 0.01840700 0.67131600
vt 0.01840700 0.67131600
vt 0.03519900 0.67131600
vt 0.04861000 0.68010600
vt 0.06202000 0.68010600
vt 0.08151700 0.68010600
vt 0.31874400 0.68010600
vt 0.84041700 0.13961300
vt 0.31874400 0.68889600
vt 0.84199500 0.14772700
vt 0.31874400 0.69757400
vt 0.84515000 0.15550300
vt 0.31874400 0.70625200
vt 0.31874400 0.42484800
vt 0.84977100 0.16237700
vt 0.31874400 0.43352600
vt 0.85574400 0.16835000
vt 0.86261800 0.17297100
vt 0.31874400 0.44231600
vt 0.08151700 0.45099400
vt 0.06202000 0.45978400
vt 0.04861000 0.46857400
vt 0.03519900 0.46857400
vt 0.01840700 0.45978400
vt 0.01840700 0.45978400
vt 0.81832800 0.63243500
vt 0.00195300 0.45978400
vt 0.80807300 0.63446400
vt 0.00195300 0.46857400
vt 0.79781700 0.63446400
vt 0.00195300 0.47736500
vt 0.78756200 0.63243500
vt 0.00195300 0.48615500
vt 0.77798300 0.62849100
vt 0.00195300 0.49505800
vt 0.76941800 0.62274300
vt 0.00195300 0.50384800
vt 0.76209300 0.61541800
vt 0.00195300 0.51263900
vt 0.75634500 0.60674100
vt 0.00195300 0.52142900
vt 0.75240100 0.59716100
vt 0.00195300 0.53033200
vt 0.75037200 0.58701900
vt 0.00195300 0.53912300
vt 0.75037200 0.57665100
vt 0.00195300 0.54791300
vt 0.75240100 0.56650800
vt 0.00195300 0.55670300
vt 0.75634500 0.55692900
vt 0.00195300 0.56560600
vt 0.76209300 0.54836400
vt 0.00195300 0.57439700
vt 0.76941800 0.54103800
vt 0.00195300 0.58318700
vt 0.77798300 0.53529100
vt 0.00195300 0.59197700
vt 0.78756200 0.53123400
vt 0.00195300 0.60088000
vt 0.79781700 0.52931800
vt 0.00195300 0.60967100
vt 0.80807300 0.52931800
vt 0.00195300 0.61846100
vt 0.81832800 0.53123400
vt 0.00195300 0.62736400
vt 0.82779500 0.53529100
vt 0.00195300 0.63615400
vt 0.83647200 0.54103800
vt 0.00195300 0.64494500
vt 0.84379800 0.54836400
vt 0.00195300 0.65373500
vt 0.84954500 0.55692900
vt 0.00195300 0.66252500
vt 0.85349000 0.56650800
vt 0.00195300 0.67131600
vt 0.85551800 0.57665100
vt 0.00195300 0.68010600
vt 0.85551800 0.58701900
vt 0.00195300 0.68889600
vt 0.01840700 0.68010600
vt 0.01840700 0.68010600
vt 0.03519900 0.68010600
vt 0.04861000 0.68889600
vt 0.06202000 0.68889600
vt 0.08151700 0.68889600
vt 0.08151700 0.69757400
vt 0.08151700 0.70625200
vt 0.08151700 0.42484800
vt 0.08151700 0.43352600
vt 0.08151700 0.44231600
vt 0.06202000 0.45099400
vt 0.04861000 0.45978400
vt 0.03519900 0.45978400
vt 0.01840700 0.45099400
vt 0.01840700 0.45099400
vt 0.00195300 0.45099400
vt 0.82779500 0.62849100
vt 0.80288900 0.58183500
vt 0.85349000 0.59716100
vt 0.00195300 0.69757400
vt 0.01840700 0.68889600
vt 0.01840700 0.68889600
vt 0.03519900 0.68889600
vt 0.04861000 0.69757400
vt 0.06202000 0.69757400
vt 0.06202000 0.70625200
vt 0.06202000 0.42484800
vt 0.06202000 0.43352600
vt 0.06202000 0.44231600
vt 0.04861000 0.45099400
vt 0.03519900 0.45099400
vt 0.01840700 0.44231600
vt 0.01840700 0.44231600
vt 0.00195300 0.44231600
vt 0.83647200 0.62274300
vt 0.00195300 0.43352600
vt 0.84379800 0.61541800
vt 0.84954500 0.60674100
vt 0.00195300 0.42484800
vt 0.00195300 0.70625200
vt 0.01840700 0.69757400
vt 0.01840700 0.69757400
vt 0.03519900 0.69757400
vt 0.04861000 0.70625200
vt 0.04861000 0.42484800
vt 0.04861000 0.43352600
vt 0.04861000 0.44231600
vt 0.03519900 0.44231600
vt 0.01840700 0.43352600
vt 0.01840700 0.43352600
vt 0.01840700 0.70625200
vt 0.01840700 0.42484800
vt 0.01840700 0.42484800
vt 0.01840700 0.70625200
vt 0.03519900 0.70625200
vt 0.03519900 0.42484800
vt 0.03519900 0.43352600
f 1/1/1 2/2/2 3/3/3
f 2/2/2 4/4/4 3/3/3
f 3/3/3 4/4/4 5/5/5
f 4/4/4 6/6/6 5/5/5
f 5/5/5 6/6/6 7/7/7
f 6/6/6 8/8/8 7/7/7
f 7/7/7 8/8/8 9/9/9
f 8/8/8 10/10/10 9/9/9
f 9/9/9 10/10/10 11/11/11
f 10/10/10 12/12/12 11/11/11
f 11/11/11 12/12/12 13/13/13
f 12/12/12 14/14/14 13/13/13
f 13/13/13 14/14/14 15/15/15
f 14/14/14 16/16/16 15/15/15
f 15/15/15 16/16/16 17/17/17
f 16/16/16 18/18/18 17/17/17
f 17/17/17 18/18/18 19/19/19
f 18/18/18 20/20/20 19/19/19
f 19/19/19 20/20/20 21/21/21
f 20/20/20 22/22/22 21/21/21
f 21/21/21 22/22/22 23/23/23
f 22/22/22 24/24/24 23/23/23
f 23/23/23 24/24/24 25/25/25
f 24/24/24 26/26/26 25/25/25
f 25/25/25 26/26/26 27/27/27
f 26/26/26 28/28/28 27/27/27
f 27/27/27 28/28/28 29/29/29
f 28/28/28 30/30/30 29/29/29
f 29/29/29 30/30/30 31/31/31
f 30/30/30 32/32/32 31/31/31
f 31/31/31 32/32/32 33/33/33
f 32/32/32 34/34/34 33/33/33
f 33/33/33 34/34/34 35/35/35
f 34/34/34 36/36/36 35/35/35
f 35/35/35 36/36/36 37/37/37
f 36/36/36 38/38/38 37/37/37
f 37/37/37 38/38/38 39/39/39
f 40/40/40 39/39/39 41/41/41
f 39/39/39 38/38/38 41/41/41
f 41/41/41 38/38/38 42/42/42
f 42/42/42 38/38/38 43/43/43
f 38/38/38 36/36/36 43/43/43
f 43/43/43 36/36/36 44/44/44
f 36/36/36 34/34/34 44/44/44
f 44/44/44 34/34/34 45/45/45
f 34/34/34 32/32/32 45/45/45
f 45/45/45 32/32/32 46/46/46
f 32/32/32 30/30/30 46/46/46
f 46/46/46 30/30/30 47/47/47
f 30/30/30 28/28/28 47/47/47
f 47/47/47 28/28/28 48/48/48
f 28/28/28 26/26/26 48/48/48
f 48/48/48 26/26/26 49/49/49
f 26/26/26 24/24/24 49/49/49
f 49/49/49 24/24/24 50/50/50
f 24/24/24 22/22/22 50/50/50
f 50/50/50 22/22/22 51/51/51
f 22/22/22 20/20/20 51/51/51
f 51/51/51 20/20/20 52/52/52
f 20/20/20 18/18/18 52/52/52
f 52/52/52 18/18/18 53/53/53
f 18/18/18 16/16/16 53/53/53
f 53/53/53 16/16/16 54/54/54
f 16/16/16 14/14/14 54/54/54
f 54/54/54 14/14/14 55/55/55
f 14/14/14 12/12/12 55/55/55
f 55/55/55 12/12/12 56/56/56
f 12/12/12 10/10/10 56/56/56
f 56/56/56 10/10/10 57/57/57
f 10/10/10 8/8/8 57/57/57
f 57/57/57 8/8/8 58/58/58
f 8/8/8 6/6/6 58/58/58
f 58/58/58 6/6/6 59/59/59
f 6/6/6 4/4/4 59/59/59
f 59/59/59 4/4/4 60/60/60
f 4/4/4 2/2/2 60/60/60
f 60/60/60 2/2/2 61/61/61
f 61/61/61 2/2/2 62/62/62
f 2/2/2 1/1/1 62/62/62
f 62/62/62 1/1/1 63/63/63
f 65/65/65 63/63/63 67/67/67
f 63/63/63 1/1/1 67/67/67
f 67/67/67 1/1/1 69/69/69
f 1/1/1 3/3/3 69/69/69
f 69/69/69 3/3/3 71/71/71
f 3/3/3 5/5/5 71/71/71
f 71/71/71 5/5/5 73/73/73
f 5/5/5 7/7/7 73/73/73
f 73/73/73 7/7/7 75/75/75
f 7/7/7 9/9/9 75/75/75
f 75/75/75 9/9/9 77/77/77
f 9/9/9 11/11/11 77/77/77
f 77/77/77 11/11/11 79/79/79
f 11/11/11 13/13/13 79/79/79
f 79/79/79 13/13/13 81/81/81
f 13/13/13 15/15/15 81/81/81
f 81/81/81 15/15/15 83/83/83
f 15/15/15 17/17/17 83/83/83
f 83/83/83 17/17/17 85/85/85
f 17/17/17 19/19/19 85/85/85
f 85/85/85 19/19/19 87/87/87
f 19/19/19 21/21/21 87/87/87
f 87/87/87 21/21/21 89/89/89
f 21/21/21 23/23/23 89/89/89
f 89/89/89 23/23/23 91/91/91
f 23/23/23 25/25/25 91/91/91
f 91/91/91 25/25/25 93/93/93
f 25/25/25 27/27/27 93/93/93
f 93/93/93 27/27/27 95/95/95
f 27/27/27 29/29/29 95/95/95
f 95/95/95 29/29/29 97/97/97
f 29/29/29 31/31/31 97/97/97
f 97/97/97 31/31/31 99/99/99
f 31/31/31 33/33/33 99/99/99
f 99/99/99 33/33/33 101/101/101
f 33/33/33 35/35/35 101/101/101
f 101/101/101 35/35/35 103/103/103
f 35/35/35 37/37/37 103/103/103
f 103/103/103 37/37/37 105/105/105
f 37/37/37 39/39/39 105/105/105
f 105/105/105 39/39/39 107/107/107
f 39/39/39 40/40/40 107/107/107
f 107/107/107 40/40/40 109/109/109
f 111/111/111 109/109/109 112/112/112
f 109/109/109 40/40/40 112/112/112
f 112/112/112 40/40/40 113/113/113
f 40/40/40 41/41/41 113/113/113
f 113/113/113 41/41/41 114/114/114
f 41/41/41 42/42/42 114/114/114
f 114/114/114 42/42/42 115/115/115
f 115/115/115 42/42/42 116/116/116
f 42/42/42 43/43/43 116/116/116
f 116/116/116 43/43/43 117/117/117
f 43/43/43 44/44/44 117/117/117
f 117/117/117 44/44/44 118/118/118
f 44/44/44 45/45/45 118/118/118
f 118/118/118 45/45/45 119/119/119
f 45/45/45 46/46/46 119/119/119
f 119/119/119 46/46/46 120/120/120
f 46/46/46 47/47/47 120/120/120
f 120/120/120 47/47/47 121/121/121
f 47/47/47 48/48/48 121/121/121
f 121/121/121 48/48/48 122/122/122
f 48/48/48 49/49/49 122/122/122
f 122/122/122 49/49/49 123/123/123
f 49/49/49 50/50/50 123/123/123
f 123/123/123 50/50/50 124/124/124
f 50/50/50 51/51/51 124/124/124
f 124/124/124 51/51/51 125/125/125
f 51/51/51 52/52/52 125/125/125
f 125/125/125 52/52/52 126/126/126
f 52/52/52 53/53/53 126/126/126
f 126/126/126 53/53/53 127/127/127
f 53/53/53 54/54/54 127/127/127
f 127/127/127 54/54/54 128/128/128
f 54/54/54 55/55/55 128/128/128
f 128/128/128 55/55/55 129/129/129
f 55/55/55 56/56/56 129/129/129
f 129/129/129 56/56/56 130/130/130
f 56/56/56 57/57/57 130/130/130
f 130/130/130 57/57/57 131/131/131
f 57/57/57 58/58/58 131/131/131
f 131/131/131 58/58/58 132/132/132
f 58/58/58 59/59/59 132/132/132
f 132/132/132 59/59/59 133/133/133
f 59/59/59 60/60/60 133/133/133
f 133/133/133 60/60/60 134/134/134
f 60/60/60 61/61/61 134/134/134
f 134/134/134 61/61/61 135/135/135
f 135/135/135 61/61/61 136/136/136
f 61/61/61 62/62/62 136/136/136
f 136/136/136 62/62/62 137/137/137
f 62/62/62 63/63/63 137/137/137
f 137/137/137 63/63/63 138/138/138
f 63/63/63 65/65/65 138/138/138
f 138/138/138 65/65/65 139/139/139
f 140/140/140 64/64/64 141/141/141
f 64/64/64 66/66/66 141/141/141
f 66/66/66 68/68/68 141/141/141
f 68/68/68 70/70/70 141/141/141
f 70/70/70 72/72/72 141/141/141
f 72/72/72 74/74/74 141/141/141
f 74/74/74 76/76/76 141/141/141
f 76/76/76 78/78/78 141/141/141
f 78/78/78 80/80/80 141/141/141
f 80/80/80 82/82/82 141/141/141
f 82/82/82 84/84/84 141/141/141
f 84/84/84 86/86/86 141/141/141
f 86/86/86 88/88/88 141/141/141
f 88/88/88 90/90/90 141/141/141
f 90/90/90 92/92/92 141/141/141
f 92/92/92 94/94/94 141/141/141
f 94/94/94 96/96/96 141/141/141
f 96/96/96 98/98/98 141/141/141
f 98/98/98 100/100/100 141/141/141
f 100/100/100 102/102/102 141/141/141
f 102/102/102 104/104/104 141/141/141
f 104/104/104 106/106/106 141/141/141
f 106/106/106 108/108/108 141/141/141
f 108/108/108 110/110/110 141/141/141
f 141/141/141 110/110/110 142/142/142
f 143/143/143 111/111/111 144/144/144
f 111/111/111 112/112/112 144/144/144
f 144/144/144 112/112/112 145/145/145
f 112/112/112 113/113/113 145/145/145
f 145/145/145 113/113/113 146/146/146
f 113/113/113 114/114/114 146/146/146
f 146/146/146 114/114/114 147/147/147
f 114/114/114 115/115/115 147/147/147
f 149/149/149 147/147/147 151/151/151
f 147/147/147 115/115/115 151/151/151
f 151/151/151 115/115/115 153/153/153
f 115/115/115 116/116/116 153/153/153
f 153/153/153 116/116/116 155/155/155
f 116/116/116 117/117/117 155/155/155
f 155/155/155 117/117/117 157/157/157
f 117/117/117 118/118/118 157/157/157
f 157/157/157 118/118/118 159/159/159
f 118/118/118 119/119/119 159/159/159
f 159/159/159 119/119/119 161/161/161
f 119/119/119 120/120/120 161/161/161
f 161/161/161 120/120/120 163/163/163
f 120/120/120 121/121/121 163/163/163
f 163/163/163 121/121/121 165/165/165
f 121/121/121 122/122/122 165/165/165
f 165/165/165 122/122/122 167/167/167
f 122/122/122 123/123/123 167/167/167
f 167/167/167 123/123/123 169/169/169
f 123/123/123 124/124/124 169/169/169
f 169/169/169 124/124/124 171/171/171
f 124/124/124 125/125/125 171/171/171
f 171/171/171 125/125/125 173/173/173
f 125/125/125 126/126/126 173/173/173
f 173/173/173 126/126/126 175/175/175
f 126/126/126 127/127/127 175/175/175
f 175/175/175 127/127/127 177/177/177
f 127/127/127 128/128/128 177/177/177
f 177/177/177 128/128/128 179/179/179
f 128/128/128 129/129/129 179/179/179
f 179/179/179 129/129/129 181/181/181
f 129/129/129 130/130/130 181/181/181
f 181/181/181 130/130/130 183/183/183
f 130/130/130 131/131/131 183/183/183
f 183/183/183 131/131/131 185/185/185
f 131/131/131 132/132/132 185/185/185
f 185/185/185 132/132/132 187/187/187
f 132/132/132 133/133/133 187/187/187
f 187/187/187 133/133/133 189/189/189
f 133/133/133 134/134/134 189/189/189
f 189/189/189 134/134/134 191/191/191
f 134/134/134 135/135/135 191/191/191
f 191/191/191 135/135/135 193/193/193
f 195/195/195 193/193/193 196/196/196
f 193/193/193 135/135/135 196/196/196
f 135/135/135 136/136/136 196/196/196
f 196/196/196 136/136/136 197/197/197
f 136/136/136 137/137/137 197/197/197
f 197/197/197 137/137/137 198/198/198
f 137/137/137 138/138/138 198/198/198
f 198/198/198 138/138/138 199/199/199
f 138/138/138 139/139/139 199/199/199
f 199/199/199 139/139/139 200/200/200
f 140/140/140 141/141/141 201/201/201
f 201/201/201 141/141/141 203/203/203
f 203/203/203 141/141/141 205/205/205
f 205/205/205 141/141/141 208/208/208
f 208/208/208 141/141/141 210/210/210
f 210/210/210 141/141/141 211/211/211
f 141/141/141 142/142/142 211/211/211
f 212/212/212 143/143/143 213/213/213
f 143/143/143 144/144/144 213/213/213
f 213/213/213 144/144/144 214/214/214
f 144/144/144 145/145/145 214/214/214
f 214/214/214 145/145/145 215/215/215
f 145/145/145 146/146/146 215/215/215
f 215/215/215 146/146/146 216/216/216
f 146/146/146 147/147/147 216/216/216
f 147/147/147 149/149/149 216/216/216
f 216/216/216 149/149/149 217/217/217
f 220/220/220 218/218/218 222/222/222
f 218/218/218 148/148/148 222/222/222
f 222/222/222 148/148/148 224/224/224
f 148/148/148 150/150/150 224/224/224
f 224/224/224 150/150/150 226/226/226
f 150/150/150 152/152/152 226/226/226
f 226/226/226 152/152/152 228/228/228
f 152/152/152 154/154/154 228/228/228
f 228/228/228 154/154/154 230/230/230
f 154/154/154 156/156/156 230/230/230
f 230/230/230 156/156/156 232/232/232
f 156/156/156 158/158/158 232/232/232
f 232/232/232 158/158/158 234/234/234
f 158/158/158 160/160/160 234/234/234
f 234/234/234 160/160/160 236/236/236
f 160/160/160 162/162/162 236/236/236
f 236/236/236 162/162/162 238/238/238
f 162/162/162 164/164/164 238/238/238
f 238/238/238 164/164/164 240/240/240
f 164/164/164 166/166/166 240/240/240
f 240/240/240 166/166/166 242/242/242
f 166/166/166 168/168/168 242/242/242
f 242/242/242 168/168/168 244/244/244
f 168/168/168 170/170/170 244/244/244
f 244/244/244 170/170/170 246/246/246
f 170/170/170 172/172/172 246/246/246
f 246/246/246 172/172/172 248/248/248
f 172/172/172 174/174/174 248/248/248
f 248/248/248 174/174/174 250/250/250
f 174/174/174 176/176/176 250/250/250
f 250/250/250 176/176/176 252/252/252
f 176/176/176 178/178/178 252/252/252
f 252/252/252 178/178/178 254/254/254
f 178/178/178 180/180/180 254/254/254
f 254/254/254 180/180/180 256/256/256
f 180/180/180 182/182/182 256/256/256
f 256/256/256 182/182/182 258/258/258
f 182/182/182 184/184/184 258/258/258
f 258/258/258 184/184/184 260/260/260
f 184/184/184 186/186/186 260/260/260
f 260/260/260 186/186/186 262/262/262
f 186/186/186 188/188/188 262/262/262
f 262/262/262 188/188/188 264/264/264
f 188/188/188 190/190/190 264/264/264
f 264/264/264 190/190/190 266/266/266
f 190/190/190 192/192/192 266/266/266
f 266/266/266 192/192/192 268/268/268
f 192/192/192 194/194/194 268/268/268
f 268/268/268 194/194/194 270/270/270
f 272/272/272 270/270/270 273/273/273
f 270/270/270 194/194/194 273/273/273
f 274/274/274 195/195/195 275/275/275
f 195/195/195 196/196/196 275/275/275
f 196/196/196 197/197/197 275/275/275
f 275/275/275 197/197/197 276/276/276
f 197/197/197 198/198/198 276/276/276
f 276/276/276 198/198/198 277/277/277
f 198/198/198 199/199/199 277/277/277
f 277/277/277 199/199/199 278/278/278
f 199/199/199 200/200/200 278/278/278
f 200/200/200 202/202/202 278/278/278
f 278/278/278 202/202/202 279/279/279
f 202/202/202 204/204/204 279/279/279
f 279/279/279 204/204/204 280/280/280
f 204/204/204 206/206/206 280/280/280
f 281/281/281 207/207/207 282/282/282
f 207/207/207 209/209/209 282/282/282
f 282/282/282 209/209/209 283/283/283
f 209/209/209 212/212/212 283/283/283
f 212/212/212 213/213/213 283/283/283
f 283/283/283 213/213/213 284/284/284
f 213/213/213 214/214/214 284/284/284
f 284/284/284 214/214/214 285/285/285
f 214/214/214 215/215/215 285/285/285
f 285/285/285 215/215/215 286/286/286
f 215/215/215 216/216/216 286/286/286
f 216/216/216 217/217/217 286/286/286
f 286/286/286 217/217/217 287/287/287
f 218/218/218 220/220/220 288/288/288
f 288/288/288 220/220/220 289/289/289
f 290/290/290 219/219/219 291/291/291
f 219/219/219 221/221/221 291/291/291
f 221/221/221 223/223/223 291/291/291
f 223/223/223 225/225/225 291/291/291
f 225/225/225 227/227/227 291/291/291
f 227/227/227 229/229/229 291/291/291
f 229/229/229 231/231/231 291/291/291
f 231/231/231 233/233/233 291/291/291
f 233/233/233 235/235/235 291/291/291
f 235/235/235 237/237/237 291/291/291
f 237/237/237 239/239/239 291/291/291
f 239/239/239 241/241/241 291/291/291
f 241/241/241 243/243/243 291/291/291
f 243/243/243 245/245/245 291/291/291
f 245/245/245 247/247/247 291/291/291
f 247/247/247 249/249/249 291/291/291
f 249/249/249 251/251/251 291/291/291
f 251/251/251 253/253/253 291/291/291
f 253/253/253 255/255/255 291/291/291
f 255/255/255 257/257/257 291/291/291
f 257/257/257 259/259/259 291/291/291
f 259/259/259 261/261/261 291/291/291
f 261/261/261 263/263/263 291/291/291
f 263/263/263 265/265/265 291/291/291
f 265/265/265 267/267/267 291/291/291
f 267/267/267 269/269/269 291/291/291
f 269/269/269 271/271/271 291/291/291
f 291/291/291 271/271/271 292/292/292
f 293/293/293 272/272/272 294/294/294
f 272/272/272 273/273/273 294/294/294
f 295/295/295 274/274/274 296/296/296
f 274/274/274 275/275/275 296/296/296
f 275/275/275 276/276/276 296/296/296
f 296/296/296 276/276/276 297/297/297
f 276/276/276 277/277/277 297/297/297
f 297/297/297 277/277/277 298/298/298
f 277/277/277 278/278/278 298/298/298
f 278/278/278 279/279/279 298/298/298
f 298/298/298 279/279/279 299/299/299
f 279/279/279 280/280/280 299/299/299
f 300/300/300 281/281/281 301/301/301
f 281/281/281 282/282/282 301/301/301
f 301/301/301 282/282/282 302/302/302
f 282/282/282 283/283/283 302/302/302
f 283/283/283 284/284/284 302/302/302
f 302/302/302 284/284/284 303/303/303
f 284/284/284 285/285/285 303/303/303
f 303/303/303 285/285/285 304/304/304
f 285/285/285 286/286/286 304/304/304
f 286/286/286 287/287/287 304/304/304
f 304/304/304 287/287/287 305/305/305
f 288/288/288 289/289/289 306/306/306
f 306/306/306 289/289/289 307/307/307
f 290/290/290 291/291/291 308/308/308
f 308/308/308 291/291/291 310/310/310
f 310/310/310 291/291/291 311/311/311
f 291/291/291 292/292/292 311/311/311
f 313/313/313 293/293/293 314/314/314
f 293/293/293 294/294/294 314/314/314
f 315/315/315 295/295/295 316/316/316
f 295/295/295 296/296/296 316/316/316
f 296/296/296 297/297/297 316/316/316
f 316/316/316 297/297/297 317/317/317
f 297/297/297 298/298/298 317/317/317
f 298/298/298 299/299/299 317/317/317
f 318/318/318 300/300/300 319/319/319
f 300/300/300 301/301/301 319/319/319
f 319/319/319 301/301/301 320/320/320
f 301/301/301 302/302/302 320/320/320
f 302/302/302 303/303/303 320/320/320
f 320/320/320 303/303/303 321/321/321
f 303/303/303 304/304/304 321/321/321
f 304/304/304 305/305/305 321/321/321
f 321/321/321 305/305/305 322/322/322
f 306/306/306 307/307/307 323/323/323
f 307/307/307 309/309/309 323/323/323
f 323/323/323 309/309/309 325/325/325
f 309/309/309 312/312/312 325/325/325
f 313/313/313 314/314/314 324/324/324
f 327/327/327 315/315/315 328/328/328
f 315/315/315 316/316/316 328/328/328
f 316/316/316 317/317/317 328/328/328
f 318/318/318 319/319/319 329/329/329
f 329/329/329 319/319/319 330/330/330
f 319/319/319 320/320/320 330/330/330
f 320/320/320 321/321/321 330/330/330
f 321/321/321 322/322/322 330/330/330
f 322/322/322 326/326/326 330/330/330
f 329/329/329 330/330/330 326/326/326

