mtllib material.mtl
usemtl Material-Metal.016
v 0.01529200 -0.03001600 -0.00003100
v 0.00876700 -0.03018700 -0.00803600
v 0.01606000 -0.02804500 -0.00792200
v -0.00760300 -0.03033700 -0.00803100
v -0.01523000 -0.03000000 -0.00017700
v -0.01760000 -0.02766500 -0.00795100
v -0.02996800 -0.02680000 -0.00002500
v -0.02991800 -0.02738700 -0.00799500
v -0.01617000 -0.02759900 -0.00008400
v 0.01620600 -0.02745100 -0.00006700
v 0.02990800 -0.02745500 -0.00800400
v 0.03000400 -0.02618300 -0.00004000
v -0.02462800 0.02529700 0.00199200
v -0.02457500 -0.02529900 0.00197300
v 0.02536800 -0.02520400 0.00199000
v 0.02456400 0.02515700 0.00198000
v -0.03161300 -0.00116100 0.00197800
v -0.02972800 -0.01331900 0.00117800
v 0.03162000 -0.00039200 0.00195700
v 0.02979400 0.01321900 0.00123500
v -0.02982800 0.01302400 0.00111300
v -0.02998500 -0.01046000 -0.00784000
v 0.02994700 -0.01064900 -0.00793200
v 0.02981900 -0.01197600 0.00081000
v 0.02992200 0.02741400 -0.00800100
v 0.02999700 0.02660500 -0.00020200
v 0.02999200 0.01002900 -0.00789800
v -0.02998900 0.02643400 -0.00002300
v -0.02959600 0.01362300 -0.00803400
v -0.02990000 0.02744300 -0.00796800
v -0.02740400 -0.01564400 -0.01299800
v 0.01644600 -0.02695800 -0.01299700
v 0.00230600 -0.03175400 -0.01300500
v -0.01589900 -0.02791200 -0.01287100
v 0.02805600 -0.01521200 -0.01300500
v 0.02947300 0.01176100 -0.01299400
v -0.01010700 0.03002500 -0.01300600
v 0.00266300 0.03150100 -0.01300400
v -0.03180700 -0.00072600 -0.01296000
v -0.02737800 0.01601900 -0.01298800
v 0.02288100 0.02166200 -0.01299500
v 0.02410100 -0.02070900 -0.00801700
v 0.03173700 0.00034500 -0.01264800
v 0.02427200 0.02046800 -0.00802300
v -0.01867800 0.02548400 -0.01260200
v 0.01129100 0.03008000 -0.01171200
v -0.01609000 0.02802600 -0.00790500
v 0.01609500 0.02781800 -0.00790900
v -0.00692900 0.03077200 -0.00812400
v 0.01613900 0.02746800 -0.00005100
v 0.01560900 0.03000900 -0.00027500
v -0.01534900 0.03002500 -0.00007900
v -0.01622900 0.02752000 -0.00013400
vn 0.47100000 -0.66820000 0.57600000
vn 0.17030000 -0.98430000 -0.04690000
vn 0.35220000 -0.91080000 -0.21540000
vn -0.12530000 -0.99130000 -0.03980000
vn -0.41970000 -0.69990000 0.57790000
vn -0.38500000 -0.89440000 -0.22750000
vn -0.65630000 -0.58810000 0.47260000
vn -0.57990000 -0.58880000 -0.56300000
vn -0.29010000 -0.42370000 0.85810000
vn 0.29260000 -0.41700000 0.86050000
vn 0.58370000 -0.60130000 -0.54570000
vn 0.67890000 -0.55040000 0.48590000
vn -0.10000000 0.47420000 0.87470000
vn -0.09220000 -0.42750000 0.89930000
vn 0.12680000 -0.49250000 0.86100000
vn 0.10280000 0.44250000 0.89090000
vn -0.73560000 -0.01290000 0.67730000
vn -0.82700000 -0.10940000 0.55150000
vn 0.73600000 -0.01240000 0.67680000
vn 0.80440000 0.09800000 0.58590000
vn -0.82890000 0.09880000 0.55060000
vn -0.96660000 -0.21790000 -0.13460000
vn 0.97580000 -0.18530000 -0.11610000
vn 0.91000000 -0.12650000 0.39490000
vn 0.58460000 0.59040000 -0.55650000
vn 0.66760000 0.57680000 0.47070000
vn 0.97250000 0.21600000 -0.08760000
vn -0.67270000 0.55960000 0.48410000
vn -0.95150000 0.21790000 -0.21700000
vn -0.58990000 0.59010000 -0.55120000
vn -0.65450000 -0.40970000 -0.63540000
vn 0.36840000 -0.59770000 -0.71210000
vn 0.03460000 -0.80550000 -0.59150000
vn -0.33400000 -0.64890000 -0.68360000
vn 0.66490000 -0.36420000 -0.65220000
vn 0.69270000 0.28600000 -0.66210000
vn -0.27780000 0.72090000 -0.63490000
vn 0.07460000 0.81620000 -0.57300000
vn -0.74660000 -0.01350000 -0.66510000
vn -0.59860000 0.40100000 -0.69340000
vn 0.50810000 0.53170000 -0.67760000
vn 0.46460000 -0.42000000 -0.77960000
vn 0.78060000 -0.00410000 -0.62500000
vn 0.49380000 0.41830000 -0.76230000
vn -0.50480000 0.61850000 -0.60220000
vn 0.27170000 0.83380000 -0.48060000
vn -0.33250000 0.90350000 -0.27060000
vn 0.48580000 0.81460000 -0.31690000
vn -0.09910000 0.99450000 0.03470000
vn 0.29670000 0.31960000 0.89990000
vn 0.52170000 0.66230000 0.53780000
vn -0.47590000 0.66310000 0.57780000
vn -0.29040000 0.46790000 0.83470000
f 1//1 2//2 3//3
f 1//1 4//4 2//2
f 5//5 6//6 4//4
f 1//1 5//5 4//4
f 6//6 9//9 7//7
f 10//10 1//1 3//3
f 10//10 3//3 11//11
f 12//12 10//10 11//11
f 15//15 16//16 14//14
f 13//13 17//17 14//14
f 17//17 18//18 14//14
f 19//19 16//16 15//15
f 20//20 16//16 19//19
f 13//13 21//21 17//17
f 7//7 18//18 8//8
f 23//23 24//24 12//12
f 26//26 20//20 25//25
f 28//28 30//30 29//29
f 31//31 32//32 33//33
f 34//34 31//31 33//33
f 31//31 35//35 32//32
f 31//31 41//41 35//35
f 37//37 38//38 31//31
f 39//39 40//40 31//31
f 40//40 37//37 31//31
f 38//38 41//41 31//31
f 2//2 4//4 33//33
f 4//4 34//34 33//33
f 32//32 2//2 33//33
f 4//4 6//6 34//34
f 3//3 2//2 32//32
f 35//35 42//42 32//32
f 42//42 3//3 32//32
f 6//6 31//31 34//34
f 6//6 22//22 31//31
f 23//23 42//42 35//35
f 22//22 39//39 31//31
f 43//43 23//23 35//35
f 24//24 23//23 19//19
f 22//22 17//17 39//39
f 21//21 29//29 17//17
f 36//36 27//27 43//43
f 27//27 20//20 43//43
f 20//20 19//19 43//43
f 29//29 40//40 39//39
f 44//44 27//27 36//36
f 41//41 44//44 36//36
f 29//29 45//45 40//40
f 46//46 44//44 41//41
f 29//29 47//47 45//45
f 48//48 44//44 46//46
f 47//47 49//49 45//45
f 49//49 37//37 45//45
f 49//49 38//38 37//37
f 49//49 46//46 38//38
f 18//18 17//17 22//22
f 30//30 47//47 29//29
f 22//22 6//6 8//8
f 3//3 42//42 11//11
f 42//42 23//23 11//11
f 44//44 25//25 27//27
f 48//48 25//25 44//44
f 48//48 50//50 25//25
f 46//46 51//51 48//48
f 52//52 51//51 46//46
f 49//49 52//52 46//46
f 47//47 52//52 49//49
f 53//53 52//52 47//47
f 30//30 28//28 53//53
f 13//13 28//28 21//21
f 26//26 16//16 20//20
f 24//24 15//15 12//12
f 14//14 18//18 7//7
f 9//9 5//5 1//1
f 10//10 9//9 1//1
f 7//7 9//9 10//10
f 12//12 7//7 10//10
f 14//14 7//7 12//12
f 15//15 14//14 12//12
f 50//50 28//28 26//26
f 50//50 53//53 28//28
f 52//52 53//53 50//50
f 51//51 52//52 50//50
f 28//28 13//13 26//26
f 13//13 16//16 26//26
f 19//19 15//15 24//24
f 51//51 50//50 48//48
f 36//36 43//43 35//35
f 40//40 45//45 37//37
f 46//46 41//41 38//38
f 5//5 9//9 6//6
f 6//6 7//7 8//8
f 16//16 13//13 14//14
f 18//18 22//22 8//8
f 23//23 12//12 11//11
f 20//20 27//27 25//25
f 28//28 29//29 21//21
f 41//41 36//36 35//35
f 23//23 43//43 19//19
f 29//29 39//39 17//17
f 50//50 26//26 25//25
f 30//30 53//53 47//47

