mtllib material.mtl
usemtl orange.001
v -0.06210500 -0.04731700 -0.00105500
v -0.06205600 -0.04701100 -0.00219900
v -0.06202800 -0.04683100 -0.00287000
v -0.06190900 -0.04607800 -0.00567700
v -0.06185700 -0.04907600 0.00550700
v -0.06179100 -0.04954800 0.00727100
v -0.06175100 -0.04983200 0.00833000
v -0.06174400 -0.04503700 -0.00955800
v -0.06168600 -0.04999600 0.00894200
v -0.06160300 -0.04475300 -0.01061400
v -0.06132900 -0.05089700 0.01230400
v -0.06112200 -0.04378100 -0.01423600
v -0.06098100 -0.04349700 -0.01529700
v -0.06096000 -0.05188900 -0.00151100
v -0.06085100 -0.04323600 -0.01626900
v -0.06071700 -0.04296400 -0.01728200
v -0.06068900 -0.05251600 0.01834400
v -0.06065900 -0.05259100 0.01862400
v -0.06052600 -0.04612500 -0.01490600
v -0.06050600 -0.05297800 0.02006900
v -0.06042200 -0.05499800 0.01368400
v -0.05963700 -0.05455100 0.02593900
v -0.05950400 -0.05876100 0.00564700
v -0.05926700 -0.05493300 -0.00937100
v -0.05923500 -0.05527900 0.02865700
v -0.05914400 -0.04115500 -0.02404300
v -0.05904900 -0.04104600 -0.02445000
v -0.05893100 -0.05953600 0.02205200
v -0.05871200 -0.04078300 -0.02543200
v -0.05856300 -0.05649300 0.03319000
v -0.05810500 -0.06397500 0.01412800
v -0.05806700 -0.05739100 0.03654000
v -0.05800700 -0.04848400 -0.02240700
v -0.05795200 -0.06248600 -0.00225700
v -0.05787400 -0.05776600 0.03794000
v -0.05766400 -0.05817300 0.03945800
v -0.05693700 -0.03939800 -0.03061000
v -0.05691900 -0.05792400 -0.01702500
v -0.05691100 -0.05963600 0.04491900
v -0.05688900 -0.03936000 -0.03075000
v -0.05686000 -0.05973500 0.04528700
v -0.05685600 -0.06734300 0.02357300
v -0.05672300 -0.03923200 -0.03123100
v -0.05667400 -0.06836600 0.00633200
v -0.05627500 -0.06087000 0.04952400
v -0.05618000 -0.06107200 0.05028100
v -0.05606200 -0.03885200 -0.03264900
v -0.05605300 -0.06134600 0.05130100
v -0.05594100 -0.06158900 0.05221000
v -0.05581800 -0.06893700 0.03355300
v -0.05577100 -0.06614800 -0.00996100
v -0.05562800 -0.03860300 -0.03357800
v -0.05561000 -0.04000100 -0.03326500
v -0.05550900 -0.07231800 0.01604500
v -0.05518900 -0.06322900 0.05832900
v -0.05505200 -0.06352900 0.05944800
v -0.05502800 -0.06900800 0.04372000
v -0.05482800 -0.05078800 -0.02961100
v -0.05463900 -0.07268400 -0.00127100
v -0.05454800 -0.06462700 0.06354600
v -0.05453500 -0.06465500 0.06365200
v -0.05450900 -0.06784900 0.05386200
v -0.05439100 -0.06489800 0.06455900
v -0.05426600 -0.06572200 0.06386900
v -0.05424900 -0.06514000 0.06546200
v -0.05393300 -0.06084900 -0.02439100
v -0.05377200 -0.06594800 0.06847800
v -0.05376200 -0.03753200 -0.03757600
v -0.05358700 -0.07720400 0.00870000
v -0.05344800 -0.06649600 0.07052100
v -0.05297600 -0.06973400 -0.01738700
v -0.05273900 -0.06769700 0.07500500
v -0.05266700 -0.07970200 0.01943800
v -0.05231900 -0.06816700 0.07675900
v -0.05209400 -0.06841900 0.07769700
v -0.05207900 -0.03679700 -0.04031900
v -0.05201600 -0.07691000 -0.00860300
v -0.05192300 -0.08043600 0.03050000
v -0.05173600 -0.03664700 -0.04087800
v -0.05162100 -0.06894900 0.07967300
v -0.05160500 -0.04169100 -0.03987000
v -0.05139000 -0.07974200 0.04160700
v -0.05134900 -0.06925300 0.08080600
v -0.05116500 -0.07182900 0.07407300
v -0.05110600 -0.08198000 0.00161500
v -0.05108800 -0.07792300 0.05261000
v -0.05102200 -0.05302900 -0.03642900
v -0.05101600 -0.07522200 0.06344000
v -0.05088800 -0.06977000 0.08273100
v -0.05034200 -0.06370100 -0.03137900
v -0.05029500 -0.08490100 0.01271400
v -0.04982800 -0.03581500 -0.04398600
v -0.04960100 -0.07323400 -0.02444200
v -0.04930100 -0.07101400 0.08735800
v -0.04922000 -0.07738800 -0.02023700
v -0.04883900 -0.08103600 -0.01557500
v -0.04846500 -0.08412700 -0.01051100
v -0.04845700 -0.07167600 0.08982100
v -0.04843200 -0.07169000 0.08987400
v -0.04810300 -0.08663700 -0.00512000
v -0.04743300 -0.08995800 0.00632400
v -0.04732800 -0.03496900 -0.04714000
v -0.04713200 -0.03490300 -0.04738800
v -0.04707900 -0.07247100 0.09278700
v -0.04700500 -0.04333000 -0.04599300
v -0.04687000 -0.09126300 0.01821300
v -0.04686900 -0.07259200 0.09324000
v -0.04667800 -0.07497000 0.08788500
v -0.04664200 -0.05520700 -0.04277100
v -0.04644700 -0.09093800 0.03020100
v -0.04621100 -0.03459100 -0.04855000
v -0.04620300 -0.06648000 -0.03789600
v -0.04618100 -0.08933300 0.04210400
v -0.04613200 -0.08335400 0.06537600
v -0.04607800 -0.08673200 0.05383900
v -0.04570200 -0.07664900 -0.03103200
v -0.04526000 -0.03427000 -0.04975000
v -0.04512100 -0.07360000 0.09700300
v -0.04463400 -0.09117500 -0.01141000
v -0.04449300 -0.07388200 0.09805900
v -0.04414100 -0.09487400 0.00036300
v -0.04224500 -0.04744800 -0.05065000
v -0.04224000 -0.04480100 -0.05112600
v -0.04224000 -0.04467800 -0.05114800
v -0.04223000 -0.05562000 -0.04852700
v -0.04222900 -0.03835400 -0.05228800
v -0.04222100 -0.05711900 -0.04799700
v -0.04222100 -0.05714500 -0.04798800
v -0.04221000 -0.03341900 -0.05292500
v -0.04218700 -0.06291900 -0.04595000
v -0.04218300 -0.06321200 -0.04581500
v -0.04212200 -0.06888000 -0.04319300
v -0.04211900 -0.06909200 -0.04309500
v -0.04211500 -0.06946800 -0.04292100
v -0.04202800 -0.07473400 -0.03977400
v -0.04201200 -0.07566900 -0.03921500
v -0.04192400 -0.07953100 -0.03629200
v -0.04191300 -0.08003100 -0.03591300
v -0.04189900 -0.08065400 -0.03544100
v -0.04179500 -0.08423000 -0.03201900
v -0.04177700 -0.08482200 -0.03145300
v -0.04176000 -0.08543300 -0.03086800
v -0.04172700 -0.05730000 -0.04852600
v -0.04165000 -0.08838900 -0.02722300
v -0.04164400 -0.03329200 -0.05339800
v -0.04163600 -0.06341600 -0.04637500
v -0.04162500 -0.08905800 -0.02639800
v -0.04159800 -0.08979000 -0.02549500
v -0.04152800 -0.06937700 -0.04370700
v -0.04151400 -0.04130700 -0.05236800
v -0.04149700 -0.09197800 -0.02198900
v -0.04147600 -0.04362400 -0.05207000
v -0.04146700 -0.09263400 -0.02093800
v -0.04145100 -0.04478600 -0.05183400
v -0.04144700 -0.09306300 -0.02025000
v -0.04140400 -0.07513000 -0.04043900
v -0.04134300 -0.09490500 -0.01635300
v -0.04130800 -0.09550700 -0.01507900
v -0.04128600 -0.09590400 -0.01424100
v -0.04128400 -0.05264200 -0.05023600
v -0.04126400 -0.08052200 -0.03655900
v -0.04120300 -0.05588800 -0.04928900
v -0.04116600 -0.05738700 -0.04885200
v -0.04115300 -0.09773300 -0.00895300
v -0.04113700 -0.09794400 -0.00834200
v -0.04111500 -0.08542000 -0.03206400
v -0.04108600 -0.06059100 -0.04791700
v -0.04104500 -0.09888800 -0.00431200
v -0.04102000 -0.06297200 -0.04697700
v -0.04100700 -0.09927000 -0.00268100
v -0.04100400 -0.06354500 -0.04675100
v -0.04097500 -0.09959300 -0.00130400
v -0.04095800 -0.08975600 -0.02694800
v -0.04089500 -0.06750800 -0.04518600
v -0.04087400 -0.10026100 0.00367600
v -0.04083400 -0.10052300 0.00563300
v -0.04083400 -0.06956100 -0.04412500
v -0.04082600 -0.06980100 -0.04400100
v -0.04080400 -0.09337700 -0.02138200
v -0.04078800 -0.10063700 0.00826000
v -0.04075600 -0.10071600 0.01009000
v -0.04073000 -0.07557100 0.10438900
v -0.04070700 -0.07377600 -0.04194800
v -0.04068500 -0.10088900 0.01408500
v -0.04065600 -0.07537800 -0.04087800
v -0.04065500 -0.09629100 -0.01542800
v -0.04065400 -0.07560200 0.10450300
v -0.04062700 -0.07625600 -0.04029200
v -0.04058500 -0.10061200 0.02096300
v -0.04056600 -0.10055900 0.02226300
v -0.04055900 -0.10049400 0.02284700
v -0.04053700 -0.07564400 0.10466200
v -0.04051700 -0.07971000 -0.03798500
v -0.04051300 -0.09851200 -0.00920100
v -0.04047800 -0.08084400 -0.03700400
v -0.04047300 -0.09961400 0.03071300
v -0.04046400 -0.08435400 0.08306000
v -0.04045200 -0.08476000 0.08207400
v -0.04045100 -0.09909700 0.03356900
v -0.04044200 -0.08508900 0.08127500
v -0.04043600 -0.09875700 0.03544400
v -0.04043100 -0.08220700 -0.03582500
v -0.04042300 -0.07568600 0.10481800
v -0.04039000 -0.09767800 0.04140000
v -0.04038700 -0.08869100 0.07146800
v -0.04038300 -0.10007100 -0.00285100
v -0.04037400 -0.09651700 0.04598500
v -0.04036800 -0.09607500 0.04773100
v -0.04035400 -0.09088300 0.06550000
v -0.04035000 -0.09269700 0.05972600
v -0.04034900 -0.09317500 0.05820500
v -0.04034600 -0.09444500 0.05416400
v -0.04034000 -0.07571300 0.10492000
v -0.04033500 -0.08500100 -0.03340800
v -0.04031400 -0.07617700 0.10382900
v -0.04030400 -0.08582100 -0.03249000
v -0.04026800 -0.10104500 0.00357900
v -0.04024200 -0.08750800 -0.03060300
v -0.04016800 -0.08950400 -0.02836800
v -0.04016600 -0.10150800 0.01005500
v -0.04014800 -0.08465100 0.08318700
v -0.04013800 -0.09025900 -0.02735300
v -0.04010300 -0.09113200 -0.02617700
v -0.04006500 -0.09204700 -0.02470500
v -0.04000900 -0.08911700 0.07163200
v -0.04000700 -0.10114500 0.02290200
v -0.03998700 -0.09391100 -0.02170700
v -0.03997000 -0.09433400 -0.02102500
v -0.03992100 -0.09317400 0.05988400
v -0.03991800 -0.09940900 0.03556400
v -0.03990800 -0.09566800 -0.01818900
v -0.03988900 -0.09666900 0.04788800
v -0.03985300 -0.09684700 -0.01568000
v -0.03983600 -0.09722100 -0.01488600
v -0.03982800 -0.08476400 0.08360500
v -0.03982200 -0.08488700 0.08328700
v -0.03976900 -0.09843300 -0.01126200
v -0.03973400 -0.09906200 -0.00938100
v -0.03971000 -0.09948000 -0.00813200
v -0.03969600 -0.08764100 0.07617400
v -0.03964700 -0.10037300 -0.00405300
v -0.03963000 -0.10061000 -0.00297000
v -0.03961700 -0.08936200 0.07172700
v -0.03960300 -0.10099900 -0.00119500
v -0.03956100 -0.09057900 0.06858400
v -0.03954500 -0.10153600 0.00332800
v -0.03954300 -0.10155700 0.00351300
v -0.03950700 -0.10189100 0.00632700
v -0.03948500 -0.09275900 0.06209600
v -0.03946900 -0.10199400 0.01002900
v -0.03946000 -0.09346900 0.05998300
v -0.03942300 -0.10212100 0.01458500
v -0.03941700 -0.09468600 0.05636200
v -0.03939800 -0.10190700 0.01826000
v -0.03936600 -0.10163400 0.02294200
v -0.03936400 -0.09703100 0.04798400
v -0.03936200 -0.09709400 0.04776000
v -0.03935900 -0.10157400 0.02396800
v -0.03934800 -0.09772800 0.04549500
v -0.03933300 -0.10029300 0.03313700
v -0.03933200 -0.09984000 0.03564100
v -0.03933000 -0.10013600 0.03425800
v -0.03692200 -0.03245800 -0.05650700
v -0.03587600 -0.10371400 0.00113700
v -0.03568400 -0.10448500 0.01618300
v -0.03556600 -0.10312000 0.03120700
v -0.03552400 -0.10017000 0.04600900
v -0.03482300 -0.07734700 0.11101400
v -0.03236100 -0.03180500 -0.05894600
v -0.03235900 -0.04237800 -0.05760600
v -0.03231900 -0.04987400 -0.05612900
v -0.03226600 -0.05726100 -0.05418600
v -0.03219900 -0.06448500 -0.05170300
v -0.03211800 -0.07146900 -0.04860800
v -0.03202100 -0.07811000 -0.04483800
v -0.03191000 -0.08428600 -0.04035100
v -0.03178800 -0.08986400 -0.03514600
v -0.03166100 -0.09472400 -0.02927100
v -0.03153600 -0.07813300 0.11394800
v -0.03153200 -0.09877900 -0.02281900
v -0.03140800 -0.10199200 -0.01591100
v -0.03134700 -0.08318700 0.10188400
v -0.03129200 -0.10437500 -0.00867400
v -0.03118900 -0.10597400 -0.00122100
v -0.03110000 -0.10686000 0.00635200
v -0.03102600 -0.10711100 0.01397600
v -0.03100600 -0.09438900 0.07344700
v -0.03092500 -0.10601300 0.02919700
v -0.03091700 -0.09925300 0.05896100
v -0.03089000 -0.10324500 0.04421500
v -0.03032600 -0.03151300 -0.06003400
v -0.02894500 -0.07875200 0.11626000
v -0.02643800 -0.08605500 0.10108400
v -0.02616700 -0.10934800 0.01209200
v -0.02615300 -0.09718400 0.07228800
v -0.02608400 -0.10847700 0.02748100
v -0.02605500 -0.10586400 0.04268300
v -0.02329400 -0.03074800 -0.06289200
v -0.02303700 -0.07986100 0.12040100
v -0.02203700 -0.03065100 -0.06325300
v -0.02202400 -0.04319000 -0.06158300
v -0.02199800 -0.05081100 -0.06000900
v -0.02196300 -0.05831900 -0.05797200
v -0.02191900 -0.06566400 -0.05540900
v -0.02186400 -0.07277700 -0.05225800
v -0.02180000 -0.07956600 -0.04846300
v -0.02172700 -0.08592400 -0.04398600
v -0.02164600 -0.09173000 -0.03881800
v -0.02156100 -0.09686900 -0.03299200
v -0.02147600 -0.10124900 -0.02657800
v -0.02139300 -0.10481200 -0.01968000
v -0.02135900 -0.08841800 0.10042500
v -0.02131700 -0.10754900 -0.01241400
v -0.02125300 -0.08011300 0.12134100
v -0.02124800 -0.10948400 -0.00489200
v -0.02118900 -0.11067300 0.00278500
v -0.02114000 -0.11118800 0.01054000
v -0.02113000 -0.09948500 0.07133200
v -0.02107400 -0.11050400 0.02606800
v -0.02107000 -0.10421800 0.05650800
v -0.02105100 -0.10801900 0.04142000
v -0.01718200 -0.08068700 0.12348500
v -0.01606700 -0.03019100 -0.06497000
v -0.01597600 -0.11262400 0.00932700
v -0.01592600 -0.11208600 0.02496300
v -0.01590900 -0.10970000 0.04043400
v -0.01132200 -0.08126100 0.12562800
v -0.01114900 -0.02995900 -0.06583800
v -0.01114800 -0.04368400 -0.06400200
v -0.01111800 -0.05896100 -0.06027600
v -0.01109600 -0.06638000 -0.05766400
v -0.01106900 -0.07357100 -0.05447800
v -0.01103700 -0.08045100 -0.05066800
v -0.01100000 -0.08691900 -0.04619500
v -0.01096400 -0.08128100 0.12570500
v -0.01096000 -0.09286200 -0.04104900
v -0.01091800 -0.09817000 -0.03525100
v -0.01087500 -0.10274500 -0.02886000
v -0.01083400 -0.10652000 -0.02196700
v -0.01081800 -0.09158700 0.09953900
v -0.01079600 -0.10946900 -0.01468200
v -0.01076200 -0.11160600 -0.00711800
v -0.01073200 -0.11297900 0.00062300
v -0.01070800 -0.11365300 0.00845700
v -0.01070400 -0.10256900 0.07005000
v -0.01067500 -0.11321900 0.02417000
v -0.01067400 -0.10722200 0.05502000
v -0.01066400 -0.11090600 0.03972600
v -0.00866300 -0.02984100 -0.06627600
v -0.00556900 -0.08159100 0.12685900
v -0.00537100 -0.11427200 0.00793300
v -0.00535500 -0.11390100 0.02369300
v -0.00117000 -0.02970200 -0.06679700
v -0.00000200 -0.02971300 -0.06675400
v -0.00000000 -0.05917700 -0.06105200
v -0.00000000 -0.04385000 -0.06481700
v -0.00000000 -0.06662100 -0.05842400
v -0.00000000 -0.09860700 -0.03601000
v -0.00000000 -0.09324300 -0.04179900
v -0.00000000 -0.08725300 -0.04693900
v -0.00000000 -0.08074800 -0.05141000
v -0.00000000 -0.07383900 -0.05522600
v -0.00000000 -0.11375200 -0.00010300
v -0.00000000 -0.11231800 -0.00786600
v -0.00000000 -0.11011300 -0.01544400
v -0.00000000 -0.10709200 -0.02273500
v -0.00000000 -0.10324700 -0.02962700
v 0.00000000 -0.11447900 0.00775700
v 0.00000000 -0.11412900 0.02353300
v 0.00000000 -0.11187400 0.03915700
v 0.00000000 -0.10823000 0.05452000
v 0.00000000 -0.10360400 0.06961900
v 0.00000000 -0.09265000 0.09924100
v 0.00012100 -0.08169600 0.12724900
v 0.00535500 -0.11390100 0.02369300
v 0.00537100 -0.11427200 0.00793300
v 0.00573000 -0.08158600 0.12683400
v 0.00639800 -0.02977600 -0.06651800
v 0.01066300 -0.11090600 0.03972600
v 0.01067300 -0.10722200 0.05502000
v 0.01067500 -0.11321900 0.02417000
v 0.01070400 -0.10256900 0.07005000
v 0.01070800 -0.11365300 0.00845700
v 0.01073200 -0.11297900 0.00062300
v 0.01076200 -0.11160600 -0.00711800
v 0.01079600 -0.10946900 -0.01468200
v 0.01081800 -0.09158700 0.09953900
v 0.01083400 -0.10652000 -0.02196700
v 0.01087500 -0.10274500 -0.02886000
v 0.01091800 -0.09817000 -0.03525100
v 0.01096000 -0.09286200 -0.04104900
v 0.01096400 -0.08128300 0.12570100
v 0.01096400 -0.08128300 0.12570100
v 0.01100000 -0.08691900 -0.04619500
v 0.01103700 -0.08045100 -0.05066800
v 0.01106900 -0.07357100 -0.05447800
v 0.01109600 -0.06638000 -0.05766400
v 0.01111800 -0.05896100 -0.06027600
v 0.01114800 -0.04368400 -0.06400200
v 0.01115000 -0.02995900 -0.06583200
v 0.01132300 -0.08126200 0.12562300
v 0.01389900 -0.03006600 -0.06543600
v 0.01592600 -0.11208600 0.02496300
v 0.01597500 -0.11262400 0.00932700
v 0.01687400 -0.08072500 0.12361900
v 0.02105100 -0.10801900 0.04142000
v 0.02107000 -0.10421800 0.05650800
v 0.02107400 -0.11050400 0.02606800
v 0.02113000 -0.09948500 0.07133200
v 0.02114000 -0.11118800 0.01054000
v 0.02114400 -0.03055900 -0.06359700
v 0.02118900 -0.11067300 0.00278500
v 0.02124800 -0.10948400 -0.00489200
v 0.02131600 -0.08011400 0.12134200
v 0.02131700 -0.10754900 -0.01241400
v 0.02135800 -0.08841800 0.10042500
v 0.02139300 -0.10481200 -0.01968000
v 0.02147600 -0.10124900 -0.02657800
v 0.02156100 -0.09686900 -0.03299200
v 0.02158800 -0.08007600 0.12120200
v 0.02164600 -0.09173000 -0.03881800
v 0.02172700 -0.08592400 -0.04398600
v 0.02180000 -0.07956600 -0.04846300
v 0.02186400 -0.07277700 -0.05225800
v 0.02191800 -0.06566400 -0.05540900
v 0.02196300 -0.05831900 -0.05797200
v 0.02199700 -0.05081100 -0.06000900
v 0.02202400 -0.04319000 -0.06158300
v 0.02203700 -0.03064800 -0.06326600
v 0.02203700 -0.03064800 -0.06326600
v 0.02238000 -0.07996700 0.12079600
v 0.02605500 -0.10586400 0.04268300
v 0.02608400 -0.10847700 0.02748100
v 0.02616700 -0.10934800 0.01209200
v 0.02725600 -0.07909800 0.11755700
v 0.02831900 -0.03127100 -0.06093900
v 0.03088900 -0.10324500 0.04421500
v 0.03091700 -0.09925300 0.05896100
v 0.03092500 -0.10601300 0.02919700
v 0.03100600 -0.09438900 0.07344700
v 0.03102600 -0.10711100 0.01397600
v 0.03110000 -0.10686000 0.00635200
v 0.03118900 -0.10597400 -0.00122100
v 0.03129200 -0.10437500 -0.00867400
v 0.03134700 -0.08318700 0.10188400
v 0.03140800 -0.10199200 -0.01591100
v 0.03153200 -0.09877900 -0.02281900
v 0.03154200 -0.07814800 0.11401500
v 0.03154200 -0.07814800 0.11401500
v 0.03166000 -0.09472400 -0.02927100
v 0.03178800 -0.08986400 -0.03514600
v 0.03191000 -0.08428600 -0.04035100
v 0.03202100 -0.07811000 -0.04483800
v 0.03211700 -0.07146900 -0.04860800
v 0.03219900 -0.06448500 -0.05170300
v 0.03226600 -0.05726100 -0.05418600
v 0.03231900 -0.04987400 -0.05612900
v 0.03235900 -0.04237800 -0.05760600
v 0.03262900 -0.07790700 0.11311700
v 0.03522300 -0.03219300 -0.05750100
v 0.03552400 -0.10017000 0.04600900
v 0.03556600 -0.10312000 0.03120700
v 0.03568400 -0.10448500 0.01618300
v 0.03587600 -0.10371400 0.00113700
v 0.03792900 -0.07646700 0.10773700
v 0.03933200 -0.10048600 0.03220300
v 0.03933300 -0.10030400 0.03313700
v 0.03933300 -0.09981600 0.03563700
v 0.03933500 -0.09864100 0.04165500
v 0.03936500 -0.09705800 0.04775200
v 0.03936500 -0.10165300 0.02294100
v 0.03936600 -0.09700000 0.04797600
v 0.03936700 -0.10171800 0.02242600
v 0.03937900 -0.10187300 0.02043600
v 0.03938800 -0.10195900 0.01907200
v 0.03939000 -0.09571000 0.05294600
v 0.03939500 -0.10198600 0.01826500
v 0.03942900 -0.10212900 0.01391800
v 0.03946100 -0.09345800 0.05998000
v 0.03946900 -0.10199100 0.01002900
v 0.03948200 -0.09277800 0.06210300
v 0.03951100 -0.09185400 0.06499000
v 0.03951600 -0.10183300 0.00556300
v 0.03954200 -0.10156200 0.00351300
v 0.03954500 -0.10153800 0.00332900
v 0.03962000 -0.10077200 -0.00248200
v 0.03962200 -0.08932100 0.07171200
v 0.03962800 -0.10065300 -0.00297900
v 0.03964600 -0.10039600 -0.00405700
v 0.03969600 -0.08763900 0.07617500
v 0.03973200 -0.09912600 -0.00938100
v 0.03976800 -0.09845700 -0.01126900
v 0.03977500 -0.08582000 0.08100100
v 0.03982900 -0.08485900 0.08327500
v 0.03985200 -0.09688600 -0.01569900
v 0.03985300 -0.09687700 -0.01572600
v 0.03989000 -0.09666900 0.04788700
v 0.03990000 -0.09588400 -0.01796600
v 0.03990600 -0.09574500 -0.01822500
v 0.03991900 -0.09940900 0.03556300
v 0.03992100 -0.09317400 0.05988400
v 0.03998800 -0.09388400 -0.02169500
v 0.04000700 -0.10114500 0.02290100
v 0.04000900 -0.08911700 0.07163200
v 0.04002500 -0.09304200 -0.02326400
v 0.04006500 -0.09205300 -0.02470500
v 0.04013800 -0.09024300 -0.02734300
v 0.04014900 -0.08465100 0.08318700
v 0.04015600 -0.08979800 -0.02799000
v 0.04016600 -0.10150800 0.01005400
v 0.04024100 -0.08752300 -0.03061900
v 0.04026800 -0.10104500 0.00357900
v 0.04030400 -0.08583700 -0.03256600
v 0.04031400 -0.07617500 0.10382800
v 0.04034000 -0.07571300 0.10492000
v 0.04034400 -0.09390200 0.05601800
v 0.04034700 -0.09319100 0.05821100
v 0.04035000 -0.09270000 0.05972600
v 0.04036300 -0.08994000 0.06823700
v 0.04036500 -0.09612600 0.04774200
v 0.04036900 -0.09659300 0.04600500
v 0.04037100 -0.09684200 0.04507800
v 0.04038300 -0.10007000 -0.00285200
v 0.04038400 -0.08872100 0.07147900
v 0.04042100 -0.07568600 0.10482000
v 0.04043000 -0.08222500 -0.03584900
v 0.04043300 -0.09881600 0.03545300
v 0.04044000 -0.09903900 0.03437000
v 0.04044800 -0.09914700 0.03358100
v 0.04045300 -0.08473900 0.08206600
v 0.04046000 -0.08436400 0.08306400
v 0.04046600 -0.08399600 0.08404200
v 0.04047700 -0.08089200 -0.03706000
v 0.04047800 -0.08087200 -0.03707800
v 0.04051300 -0.09851100 -0.00920200
v 0.04053100 -0.10029800 0.02517300
v 0.04053700 -0.07564400 0.10466200
v 0.04056200 -0.10044100 0.02284400
v 0.04058800 -0.10055700 0.02095800
v 0.04062800 -0.07627900 -0.04033000
v 0.04065200 -0.07560200 0.10450500
v 0.04065500 -0.09629100 -0.01542800
v 0.04065700 -0.10087200 0.01583100
v 0.04066000 -0.07528500 -0.04103300
v 0.04073000 -0.07557100 0.10438900
v 0.04075500 -0.10074500 0.01008700
v 0.04078600 -0.10070400 0.00825700
v 0.04079300 -0.10069600 0.00785900
v 0.04080400 -0.09337700 -0.02138200
v 0.04082700 -0.06982500 -0.04405000
v 0.04083400 -0.06958900 -0.04418100
v 0.04084400 -0.06924500 -0.04437100
v 0.04087300 -0.10031800 0.00366700
v 0.04087600 -0.10030400 0.00351100
v 0.04095900 -0.08975600 -0.02694800
v 0.04100500 -0.06356000 -0.04679300
v 0.04100700 -0.09928200 -0.00268700
v 0.04102100 -0.06299400 -0.04703400
v 0.04103000 -0.09910500 -0.00375800
v 0.04103200 -0.06262000 -0.04719400
v 0.04104300 -0.09895000 -0.00432500
v 0.04111500 -0.08541900 -0.03206400
v 0.04115300 -0.09768800 -0.00894400
v 0.04116600 -0.05738900 -0.04886800
v 0.04119500 -0.09720900 -0.01069800
v 0.04120400 -0.05590300 -0.04934400
v 0.04122400 -0.05515300 -0.04958500
v 0.04126400 -0.08052100 -0.03655900
v 0.04130800 -0.09550000 -0.01508000
v 0.04134000 -0.09501600 -0.01632200
v 0.04134200 -0.09498100 -0.01638900
v 0.04137100 -0.04865000 -0.05108000
v 0.04140400 -0.07512900 -0.04043900
v 0.04141400 -0.04674800 -0.05151700
v 0.04145000 -0.04478600 -0.05182000
v 0.04146700 -0.09263300 -0.02094200
v 0.04148700 -0.09225800 -0.02166900
v 0.04149700 -0.09202600 -0.02201800
v 0.04151300 -0.04130400 -0.05235700
v 0.04152800 -0.06937600 -0.04370700
v 0.04158100 -0.03762200 -0.05292500
v 0.04162500 -0.08909200 -0.02642800
v 0.04163300 -0.08890600 -0.02670700
v 0.04163600 -0.06341600 -0.04637500
v 0.04164400 -0.03329200 -0.05339800
v 0.04165000 -0.08843600 -0.02726100
v 0.04172700 -0.05729900 -0.04852600
v 0.04176800 -0.03331700 -0.05330700
v 0.04177800 -0.08485100 -0.03148500
v 0.04177900 -0.08482200 -0.03151900
v 0.04179500 -0.08425600 -0.03204500
v 0.04186300 -0.04474600 -0.05156600
v 0.04191400 -0.08007300 -0.03592700
v 0.04191500 -0.08003000 -0.03596300
v 0.04192600 -0.07955900 -0.03632800
v 0.04193100 -0.03335300 -0.05317000
v 0.04197300 -0.07754800 -0.03789100
v 0.04202600 -0.07471100 -0.03974300
v 0.04208000 -0.07188400 -0.04158800
v 0.04209800 -0.03339000 -0.05303200
v 0.04211600 -0.06905400 -0.04302000
v 0.04211800 -0.06884500 -0.04312600
v 0.04216700 -0.06500800 -0.04506800
v 0.04218100 -0.06319400 -0.04576500
v 0.04221000 -0.03341900 -0.05292500
v 0.04222000 -0.05789700 -0.04780000
v 0.04222300 -0.05715800 -0.04802200
v 0.04222300 -0.05713100 -0.04803000
v 0.04224000 -0.05258400 -0.04939800
v 0.04224100 -0.04480000 -0.05113800
v 0.04224100 -0.04467900 -0.05116500
v 0.04224200 -0.04317800 -0.05150100
v 0.04414200 -0.09487400 0.00036300
v 0.04448600 -0.07387500 0.09805700
v 0.04463400 -0.09117500 -0.01141000
v 0.04509400 -0.07360000 0.09703200
v 0.04522100 -0.03425700 -0.04979600
v 0.04570200 -0.07664900 -0.03103200
v 0.04607800 -0.08673200 0.05383900
v 0.04613200 -0.08335400 0.06537600
v 0.04618100 -0.08933300 0.04210400
v 0.04620300 -0.06648000 -0.03789600
v 0.04621000 -0.03459100 -0.04854900
v 0.04644700 -0.09093800 0.03020100
v 0.04664200 -0.05520700 -0.04277100
v 0.04667800 -0.07497000 0.08788500
v 0.04685200 -0.07258100 0.09323700
v 0.04687000 -0.09126300 0.01821300
v 0.04700500 -0.04333000 -0.04599300
v 0.04706200 -0.07245900 0.09278400
v 0.04713200 -0.03490100 -0.04738800
v 0.04732900 -0.03496800 -0.04714000
v 0.04743300 -0.08995800 0.00632400
v 0.04810300 -0.08663700 -0.00512000
v 0.04840800 -0.07167800 0.08987800
v 0.04841000 -0.07167700 0.08987100
v 0.04846500 -0.08412700 -0.01051100
v 0.04883900 -0.08103600 -0.01557500
v 0.04922000 -0.07738800 -0.02023700
v 0.04927200 -0.07099800 0.08735200
v 0.04960100 -0.07323400 -0.02444200
v 0.04981000 -0.03580400 -0.04401500
v 0.05029500 -0.08490100 0.01271400
v 0.05034200 -0.06370100 -0.03137900
v 0.05083800 -0.06976700 0.08278000
v 0.05101600 -0.07522200 0.06344000
v 0.05102200 -0.05302900 -0.03642900
v 0.05108800 -0.07792300 0.05261000
v 0.05110600 -0.08198000 0.00161500
v 0.05116500 -0.07182900 0.07407300
v 0.05131300 -0.06923600 0.08079800
v 0.05139000 -0.07974200 0.04160700
v 0.05158500 -0.06893300 0.07966700
v 0.05160500 -0.04169100 -0.03987000
v 0.05173900 -0.03664500 -0.04088000
v 0.05192300 -0.08043600 0.03050000
v 0.05201600 -0.07691000 -0.00860300
v 0.05205900 -0.06840400 0.07769300
v 0.05208200 -0.03679500 -0.04032200
v 0.05228400 -0.06815300 0.07675500
v 0.05266700 -0.07970200 0.01943800
v 0.05269500 -0.06769400 0.07504500
v 0.05297600 -0.06973400 -0.01738700
v 0.05341800 -0.06648500 0.07051700
v 0.05358700 -0.07720400 0.00870000
v 0.05373700 -0.03751600 -0.03763200
v 0.05374400 -0.06593900 0.06847400
v 0.05393300 -0.06084900 -0.02439100
v 0.05422600 -0.06513200 0.06545300
v 0.05426600 -0.06572200 0.06386900
v 0.05436900 -0.06489200 0.06455500
v 0.05450900 -0.06784900 0.05386200
v 0.05452000 -0.06464000 0.06361100
v 0.05452700 -0.06462500 0.06355400
v 0.05463900 -0.07268400 -0.00127100
v 0.05482800 -0.05078800 -0.02961100
v 0.05502800 -0.06900800 0.04372000
v 0.05503800 -0.06352700 0.05945100
v 0.05517700 -0.06322700 0.05833200
v 0.05550900 -0.07231800 0.01604500
v 0.05561000 -0.04000100 -0.03326500
v 0.05563300 -0.03860300 -0.03358100
v 0.05577100 -0.06614800 -0.00996100
v 0.05581800 -0.06893700 0.03355300
v 0.05593900 -0.06159000 0.05221400
v 0.05604700 -0.06135900 0.05135100
v 0.05606800 -0.03885200 -0.03265200
v 0.05618000 -0.06107200 0.05028000
v 0.05627500 -0.06087000 0.04952400
v 0.05667400 -0.06836600 0.00633200
v 0.05671500 -0.03922300 -0.03127000
v 0.05685600 -0.06734300 0.02357300
v 0.05686500 -0.05973100 0.04527200
v 0.05689200 -0.03936100 -0.03075400
v 0.05691600 -0.05963200 0.04490300
v 0.05691900 -0.05792400 -0.01702500
v 0.05694000 -0.03939900 -0.03061300
v 0.05767800 -0.05816300 0.03942000
v 0.05788900 -0.05775500 0.03789600
v 0.05795200 -0.06248600 -0.00225700
v 0.05800700 -0.04848400 -0.02240700
v 0.05810500 -0.06397400 0.01412800
v 0.05813800 -0.05727600 0.03610700
v 0.05856100 -0.05651000 0.03325000
v 0.05872200 -0.04078500 -0.02543700
v 0.05893100 -0.05953600 0.02205200
v 0.05904600 -0.04103700 -0.02449400
v 0.05915100 -0.04115700 -0.02404400
v 0.05923600 -0.05529000 0.02869300
v 0.05926700 -0.05493300 -0.00937100
v 0.05950400 -0.05876100 0.00564700
v 0.05964100 -0.05455800 0.02596100
v 0.06042200 -0.05499800 0.01368500
v 0.06052500 -0.05296000 0.01999400
v 0.06052600 -0.04612500 -0.01490600
v 0.06066900 -0.05259500 0.01863200
v 0.06069900 -0.05252000 0.01835200
v 0.06071900 -0.04295400 -0.01733200
v 0.06086100 -0.04323900 -0.01627000
v 0.06096000 -0.05188900 -0.00151100
v 0.06099100 -0.04349900 -0.01530100
v 0.06113300 -0.04378400 -0.01423800
v 0.06133800 -0.05090100 0.01231100
v 0.06161800 -0.04475700 -0.01061400
v 0.06169600 -0.04999600 0.00893300
v 0.06175200 -0.04502500 -0.00961600
v 0.06177000 -0.04981100 0.00824000
v 0.06180600 -0.04954900 0.00726400
v 0.06187100 -0.04908000 0.00551100
v 0.06192200 -0.04608100 -0.00567800
v 0.06204300 -0.04683300 -0.00287400
v 0.06207200 -0.04701500 -0.00219600
v 0.06211800 -0.04730100 -0.00112700
v 0.03235600 -0.03181000 -0.05892900
v 0.03235600 -0.03181000 -0.05892900
v 0.03235600 -0.03181000 -0.05892900
v 0.03235600 -0.03181000 -0.05892900
v 0.01081800 -0.09158700 0.09953900
v 0.01096400 -0.08128300 0.12570100
v 0.01096400 -0.08128300 0.12570100
v 0.03235900 -0.04237800 -0.05760600
v 0.02135800 -0.08841800 0.10042500
v 0.02135800 -0.08841800 0.10042500
v 0.03154200 -0.07814800 0.11401500
v 0.03154200 -0.07814800 0.11401500
v 0.02203700 -0.03064800 -0.06326600
v 0.02203700 -0.03064800 -0.06326600
v 0.02202400 -0.04319000 -0.06158300
vn -0.97930000 -0.19100000 -0.06680000
vn -0.97380000 -0.20900000 -0.08960000
vn -0.97090000 -0.22040000 -0.09420000
vn -0.96580000 -0.23660000 -0.10600000
vn -0.97160000 -0.23510000 -0.02650000
vn -0.97100000 -0.23820000 -0.02260000
vn -0.96790000 -0.25100000 -0.01090000
vn -0.96490000 -0.21740000 -0.14700000
vn -0.96950000 -0.24230000 0.03790000
vn -0.96620000 -0.18590000 -0.17870000
vn -0.97570000 -0.21210000 0.05570000
vn -0.94880000 -0.26870000 -0.16620000
vn -0.92820000 -0.30920000 -0.20700000
vn -0.96380000 -0.25600000 -0.07490000
vn -0.95020000 -0.22580000 -0.21470000
vn -0.94840000 -0.22630000 -0.22200000
vn -0.97940000 -0.19350000 0.05770000
vn -0.98270000 -0.17630000 0.05760000
vn -0.95010000 -0.23360000 -0.20690000
vn -0.98000000 -0.18670000 0.06910000
vn -0.97320000 -0.22770000 0.03100000
vn -0.97590000 -0.19720000 0.09340000
vn -0.96480000 -0.26120000 -0.03180000
vn -0.95070000 -0.27120000 -0.15010000
vn -0.97690000 -0.19150000 0.09490000
vn -0.94110000 -0.19750000 -0.27450000
vn -0.92460000 -0.20460000 -0.32130000
vn -0.97040000 -0.23160000 0.06870000
vn -0.90910000 -0.20560000 -0.36230000
vn -0.97720000 -0.18940000 0.09590000
vn -0.96220000 -0.27190000 0.01230000
vn -0.97860000 -0.18560000 0.08880000
vn -0.92700000 -0.24300000 -0.28570000
vn -0.95460000 -0.28210000 -0.09580000
vn -0.97960000 -0.17930000 0.09110000
vn -0.98180000 -0.16750000 0.09000000
vn -0.90470000 -0.20300000 -0.37460000
vn -0.93400000 -0.27670000 -0.22620000
vn -0.98200000 -0.16560000 0.09100000
vn -0.90010000 -0.22530000 -0.37300000
vn -0.98170000 -0.16740000 0.09070000
vn -0.95830000 -0.28060000 0.05350000
vn -0.89430000 -0.19640000 -0.40210000
vn -0.94940000 -0.31150000 -0.04010000
vn -0.98290000 -0.16330000 0.08480000
vn -0.98380000 -0.16060000 0.07960000
vn -0.88770000 -0.12910000 -0.44190000
vn -0.98370000 -0.16140000 0.07870000
vn -0.98340000 -0.16360000 0.07850000
vn -0.95610000 -0.28520000 0.06740000
vn -0.93810000 -0.30500000 -0.16380000
vn -0.88290000 -0.13700000 -0.44910000
vn -0.88030000 -0.17220000 -0.44200000
vn -0.94470000 -0.32780000 0.01370000
vn -0.98320000 -0.16650000 0.07540000
vn -0.98280000 -0.16960000 0.07260000
vn -0.95650000 -0.28100000 0.07800000
vn -0.89530000 -0.23680000 -0.37720000
vn -0.93310000 -0.34660000 -0.09560000
vn -0.97980000 -0.18830000 0.06740000
vn -0.97210000 -0.22450000 0.06850000
vn -0.95740000 -0.27720000 0.08110000
vn -0.96540000 -0.24570000 0.08700000
vn -0.95500000 -0.28000000 0.09790000
vn -0.95520000 -0.28320000 0.08620000
vn -0.90870000 -0.28460000 -0.30540000
vn -0.95390000 -0.29110000 0.07300000
vn -0.85280000 -0.14020000 -0.50300000
vn -0.92740000 -0.37230000 -0.03650000
vn -0.95370000 -0.29230000 0.07110000
vn -0.91760000 -0.32230000 -0.23250000
vn -0.93960000 -0.32750000 0.09900000
vn -0.91980000 -0.39160000 0.02570000
vn -0.92650000 -0.35410000 0.12700000
vn -0.92660000 -0.35410000 0.12700000
vn -0.83280000 -0.13530000 -0.53680000
vn -0.91430000 -0.37510000 -0.15260000
vn -0.91450000 -0.40060000 0.05610000
vn -0.82550000 -0.14480000 -0.54550000
vn -0.92620000 -0.35810000 0.11810000
vn -0.83510000 -0.17860000 -0.52020000
vn -0.91050000 -0.40530000 0.08230000
vn -0.91570000 -0.38450000 0.11630000
vn -0.89410000 -0.42960000 0.12660000
vn -0.90680000 -0.41380000 -0.08100000
vn -0.90790000 -0.40670000 0.10120000
vn -0.85830000 -0.22580000 -0.46070000
vn -0.90450000 -0.41120000 0.11330000
vn -0.88400000 -0.44620000 0.13950000
vn -0.87650000 -0.28850000 -0.38530000
vn -0.89740000 -0.44100000 -0.01080000
vn -0.79360000 -0.10160000 -0.60000000
vn -0.88780000 -0.33820000 -0.31220000
vn -0.85190000 -0.49710000 0.16480000
vn -0.88400000 -0.38870000 -0.25990000
vn -0.88480000 -0.41050000 -0.22040000
vn -0.88670000 -0.42930000 -0.17190000
vn -0.83380000 -0.51310000 0.20390000
vn -0.81830000 -0.52140000 0.24210000
vn -0.88520000 -0.45000000 -0.11810000
vn -0.87180000 -0.48770000 -0.04600000
vn -0.76350000 -0.17430000 -0.62190000
vn -0.74330000 -0.19300000 -0.64050000
vn -0.81500000 -0.53830000 0.21450000
vn -0.78160000 -0.15380000 -0.60460000
vn -0.86260000 -0.50530000 0.02310000
vn -0.79130000 -0.57290000 0.21380000
vn -0.79430000 -0.57340000 0.20070000
vn -0.81330000 -0.22250000 -0.53760000
vn -0.86050000 -0.50540000 0.06460000
vn -0.73680000 -0.20060000 -0.64570000
vn -0.84080000 -0.28650000 -0.45940000
vn -0.84890000 -0.51790000 0.10540000
vn -0.82270000 -0.54270000 0.16920000
vn -0.83700000 -0.52960000 0.13800000
vn -0.86250000 -0.35250000 -0.36320000
vn -0.73390000 -0.10710000 -0.67080000
vn -0.75270000 -0.61270000 0.24090000
vn -0.86320000 -0.47510000 -0.17060000
vn -0.72930000 -0.63500000 0.25490000
vn -0.84990000 -0.52350000 -0.06020000
vn -0.68370000 -0.15900000 -0.71220000
vn -0.70570000 -0.12660000 -0.69710000
vn -0.86300000 -0.08680000 -0.49770000
vn -0.71480000 -0.20260000 -0.66930000
vn -0.65670000 -0.11620000 -0.74520000
vn -0.77320000 -0.22320000 -0.59370000
vn -0.80280000 -0.19790000 -0.56240000
vn -0.67980000 -0.07640000 -0.72940000
vn -0.78480000 -0.23130000 -0.57500000
vn -0.77840000 -0.27050000 -0.56640000
vn -0.78600000 -0.26660000 -0.55770000
vn -0.78650000 -0.26720000 -0.55680000
vn -0.78340000 -0.31140000 -0.53790000
vn -0.82380000 -0.29900000 -0.48160000
vn -0.79930000 -0.35160000 -0.48730000
vn -0.81000000 -0.36220000 -0.46120000
vn -0.81270000 -0.36330000 -0.45560000
vn -0.79830000 -0.40950000 -0.44170000
vn -0.82430000 -0.40650000 -0.39410000
vn -0.83250000 -0.39540000 -0.38800000
vn -0.81640000 -0.44380000 -0.36940000
vn -0.63980000 -0.23470000 -0.73180000
vn -0.83440000 -0.43740000 -0.33550000
vn -0.56570000 -0.09240000 -0.81940000
vn -0.63920000 -0.30570000 -0.70570000
vn -0.83810000 -0.43580000 -0.32820000
vn -0.81630000 -0.48790000 -0.30920000
vn -0.65820000 -0.35560000 -0.66360000
vn -0.57730000 -0.12770000 -0.80650000
vn -0.83160000 -0.47930000 -0.28060000
vn -0.60060000 -0.13630000 -0.78780000
vn -0.83570000 -0.47650000 -0.27320000
vn -0.57600000 -0.16790000 -0.80000000
vn -0.81940000 -0.51420000 -0.25340000
vn -0.67730000 -0.40890000 -0.61160000
vn -0.82120000 -0.52270000 -0.22880000
vn -0.82510000 -0.51890000 -0.22330000
vn -0.80950000 -0.55310000 -0.19680000
vn -0.58720000 -0.20630000 -0.78270000
vn -0.68490000 -0.47380000 -0.55360000
vn -0.55090000 -0.23660000 -0.80030000
vn -0.50070000 -0.25740000 -0.82650000
vn -0.81800000 -0.54930000 -0.17060000
vn -0.81180000 -0.56740000 -0.13810000
vn -0.69540000 -0.53030000 -0.48500000
vn -0.56080000 -0.27790000 -0.77990000
vn -0.81550000 -0.56670000 -0.11730000
vn -0.51060000 -0.32780000 -0.79490000
vn -0.81960000 -0.56170000 -0.11260000
vn -0.51170000 -0.33730000 -0.79020000
vn -0.79830000 -0.59690000 -0.08030000
vn -0.71480000 -0.56710000 -0.40920000
vn -0.58680000 -0.33330000 -0.73790000
vn -0.82080000 -0.56780000 -0.06220000
vn -0.78870000 -0.61400000 -0.02890000
vn -0.51790000 -0.40550000 -0.75320000
vn -0.52360000 -0.41080000 -0.74630000
vn -0.70680000 -0.61890000 -0.34260000
vn -0.81290000 -0.58210000 -0.01840000
vn -0.82310000 -0.56780000 -0.01000000
vn -0.69800000 -0.66640000 0.26210000
vn -0.58200000 -0.41390000 -0.70000000
vn -0.76350000 -0.64560000 0.01870000
vn -0.52240000 -0.48510000 -0.70120000
vn -0.70680000 -0.65360000 -0.27060000
vn -0.66430000 -0.69350000 0.27870000
vn -0.53500000 -0.48840000 -0.68940000
vn -0.79400000 -0.60690000 0.03610000
vn -0.79390000 -0.60610000 0.04830000
vn -0.79450000 -0.60250000 0.07610000
vn -0.64400000 -0.71030000 0.28420000
vn -0.57580000 -0.49590000 -0.65000000
vn -0.70040000 -0.68470000 -0.20150000
vn -0.53000000 -0.56510000 -0.63220000
vn -0.74900000 -0.65550000 0.09700000
vn -0.72960000 -0.63610000 0.25130000
vn -0.72990000 -0.63530000 0.25240000
vn -0.80000000 -0.58920000 0.11290000
vn -0.71410000 -0.65590000 0.24470000
vn -0.80020000 -0.58900000 0.11310000
vn -0.54650000 -0.56470000 -0.61840000
vn -0.62750000 -0.72230000 0.29070000
vn -0.74130000 -0.65550000 0.14420000
vn -0.77150000 -0.59940000 0.21310000
vn -0.70090000 -0.70030000 -0.13560000
vn -0.79250000 -0.59050000 0.15230000
vn -0.79250000 -0.59050000 0.15230000
vn -0.71990000 -0.65800000 0.22100000
vn -0.77070000 -0.60810000 0.19050000
vn -0.77070000 -0.60800000 0.19050000
vn -0.73040000 -0.65720000 0.18600000
vn -0.58750000 -0.74960000 0.30470000
vn -0.57250000 -0.57580000 -0.58370000
vn -0.59200000 -0.74940000 0.29650000
vn -0.53760000 -0.63760000 -0.55180000
vn -0.69610000 -0.71390000 -0.07590000
vn -0.55830000 -0.63290000 -0.53650000
vn -0.57820000 -0.63560000 -0.51160000
vn -0.69650000 -0.71750000 -0.01410000
vn -0.66710000 -0.69450000 0.26960000
vn -0.55480000 -0.67560000 -0.48550000
vn -0.57880000 -0.68640000 -0.44020000
vn -0.56880000 -0.70190000 -0.42870000
vn -0.67040000 -0.69650000 0.25570000
vn -0.69040000 -0.72050000 0.06480000
vn -0.54890000 -0.71590000 -0.43160000
vn -0.56520000 -0.73230000 -0.37980000
vn -0.66600000 -0.71040000 0.22750000
vn -0.69890000 -0.70170000 0.13820000
vn -0.55120000 -0.75960000 -0.34510000
vn -0.69180000 -0.69790000 0.18520000
vn -0.55050000 -0.76000000 -0.34540000
vn -0.56810000 -0.76900000 -0.29320000
vn -0.56690000 -0.76520000 0.30490000
vn -0.57260000 -0.76810000 0.28660000
vn -0.54880000 -0.79580000 -0.25600000
vn -0.54810000 -0.79640000 -0.25570000
vn -0.57330000 -0.79330000 -0.20480000
vn -0.55240000 -0.78020000 0.29360000
vn -0.54800000 -0.81890000 -0.17070000
vn -0.54740000 -0.81930000 -0.17060000
vn -0.54100000 -0.78750000 0.29520000
vn -0.58440000 -0.80080000 -0.13120000
vn -0.59520000 -0.75970000 0.26170000
vn -0.56400000 -0.82100000 -0.08870000
vn -0.56400000 -0.82090000 -0.08900000
vn -0.57380000 -0.81800000 -0.04090000
vn -0.53900000 -0.80030000 0.26260000
vn -0.53930000 -0.84170000 -0.02420000
vn -0.53900000 -0.80030000 0.26260000
vn -0.65660000 -0.75380000 0.02390000
vn -0.59950000 -0.76750000 0.22700000
vn -0.62070000 -0.78290000 0.04170000
vn -0.57890000 -0.81380000 0.05140000
vn -0.54790000 -0.80660000 0.22200000
vn -0.55730000 -0.79920000 0.22510000
vn -0.58840000 -0.80370000 0.08880000
vn -0.61090000 -0.77080000 0.18080000
vn -0.61590000 -0.77990000 0.11120000
vn -0.55900000 -0.81100000 0.17280000
vn -0.59730000 -0.79010000 0.13800000
vn -0.49480000 -0.08080000 -0.86530000
vn -0.50860000 -0.85360000 -0.11230000
vn -0.50850000 -0.86050000 0.02930000
vn -0.51280000 -0.84860000 0.13030000
vn -0.51690000 -0.83080000 0.20650000
vn -0.52860000 -0.78200000 0.33020000
vn -0.46640000 -0.08120000 -0.88090000
vn -0.43230000 -0.15250000 -0.88880000
vn -0.42820000 -0.20400000 -0.88040000
vn -0.42370000 -0.26710000 -0.86550000
vn -0.42070000 -0.33560000 -0.84290000
vn -0.41590000 -0.41240000 -0.81050000
vn -0.41320000 -0.49830000 -0.76220000
vn -0.41370000 -0.58460000 -0.69790000
vn -0.41570000 -0.66720000 -0.61810000
vn -0.41940000 -0.74090000 -0.52460000
vn -0.50220000 -0.79980000 0.32870000
vn -0.42520000 -0.79890000 -0.42530000
vn -0.42980000 -0.84260000 -0.32460000
vn -0.49050000 -0.81210000 0.31610000
vn -0.43410000 -0.87140000 -0.22840000
vn -0.43040000 -0.89070000 -0.14640000
vn -0.44710000 -0.89210000 -0.06470000
vn -0.45100000 -0.89240000 0.01730000
vn -0.47000000 -0.82970000 0.30110000
vn -0.45220000 -0.88430000 0.11620000
vn -0.45020000 -0.85440000 0.25950000
vn -0.44980000 -0.87020000 0.20090000
vn -0.40750000 -0.09330000 -0.90840000
vn -0.43600000 -0.83520000 0.33510000
vn -0.39830000 -0.85450000 0.33340000
vn -0.37610000 -0.92650000 -0.00920000
vn -0.38100000 -0.87370000 0.30250000
vn -0.38300000 -0.91760000 0.10660000
vn -0.38240000 -0.90250000 0.19810000
vn -0.32160000 -0.09650000 -0.94190000
vn -0.36350000 -0.85480000 0.37020000
vn -0.26780000 -0.09930000 -0.95840000
vn -0.29430000 -0.16610000 -0.94120000
vn -0.27660000 -0.22940000 -0.93320000
vn -0.28240000 -0.28100000 -0.91720000
vn -0.28370000 -0.35430000 -0.89100000
vn -0.28250000 -0.43110000 -0.85690000
vn -0.28310000 -0.51340000 -0.81010000
vn -0.28560000 -0.59820000 -0.74870000
vn -0.28970000 -0.68100000 -0.67260000
vn -0.29490000 -0.75660000 -0.58370000
vn -0.30030000 -0.82090000 -0.48580000
vn -0.30530000 -0.87130000 -0.38420000
vn -0.30100000 -0.88900000 0.34510000
vn -0.30910000 -0.90760000 -0.28410000
vn -0.25500000 -0.91410000 0.31530000
vn -0.31140000 -0.93120000 -0.18930000
vn -0.31550000 -0.94240000 -0.11100000
vn -0.31430000 -0.94920000 -0.01460000
vn -0.29420000 -0.90470000 0.30820000
vn -0.31030000 -0.94550000 0.09830000
vn -0.30520000 -0.91440000 0.26580000
vn -0.30740000 -0.93160000 0.19400000
vn -0.25950000 -0.90590000 0.33450000
vn -0.21200000 -0.08800000 -0.97330000
vn -0.22840000 -0.97290000 -0.03660000
vn -0.23500000 -0.96770000 0.09150000
vn -0.23390000 -0.95300000 0.19250000
vn -0.17140000 -0.92270000 0.34530000
vn -0.17550000 -0.09610000 -0.97980000
vn -0.14400000 -0.18830000 -0.97150000
vn -0.14380000 -0.28220000 -0.94850000
vn -0.14250000 -0.36550000 -0.91980000
vn -0.14210000 -0.44130000 -0.88600000
vn -0.14260000 -0.52270000 -0.84050000
vn -0.14430000 -0.60710000 -0.78140000
vn -0.12730000 -0.92880000 0.34810000
vn -0.14700000 -0.69060000 -0.70810000
vn -0.15030000 -0.76870000 -0.62170000
vn -0.15370000 -0.83720000 -0.52490000
vn -0.15660000 -0.89270000 -0.42250000
vn -0.16380000 -0.92180000 0.35130000
vn -0.15880000 -0.93420000 -0.31940000
vn -0.16010000 -0.96220000 -0.22040000
vn -0.16160000 -0.97770000 -0.13420000
vn -0.16310000 -0.98600000 -0.03420000
vn -0.15660000 -0.93570000 0.31630000
vn -0.15720000 -0.98370000 0.08700000
vn -0.15340000 -0.95200000 0.26490000
vn -0.13810000 -0.97190000 0.19080000
vn -0.11140000 -0.10340000 -0.98840000
vn -0.08430000 -0.93300000 0.34980000
vn -0.07160000 -0.99610000 -0.05240000
vn -0.07960000 -0.99320000 0.08510000
vn -0.02080000 -0.10430000 -0.99430000
vn 0.03560000 -0.10550000 -0.99380000
vn 0.00030000 -0.28580000 -0.95830000
vn -0.00100000 -0.19250000 -0.98130000
vn -0.00000000 -0.36910000 -0.92940000
vn -0.00150000 -0.77280000 -0.63470000
vn -0.00120000 -0.69370000 -0.72030000
vn -0.00090000 -0.60990000 -0.79250000
vn -0.00050000 -0.52560000 -0.85070000
vn -0.00020000 -0.44460000 -0.89570000
vn -0.00410000 -0.98990000 -0.14160000
vn -0.00170000 -0.97300000 -0.23090000
vn -0.00180000 -0.94340000 -0.33150000
vn -0.00180000 -0.90020000 -0.43560000
vn -0.00170000 -0.84270000 -0.53830000
vn -0.00560000 -0.99910000 -0.04100000
vn 0.00020000 -0.99670000 0.08170000
vn -0.00040000 -0.98150000 0.19160000
vn -0.00090000 -0.96520000 0.26160000
vn -0.00040000 -0.94770000 0.31930000
vn -0.00000000 -0.93560000 0.35310000
vn 0.00580000 -0.93530000 0.35380000
vn 0.08010000 -0.99320000 0.08390000
vn 0.07870000 -0.99620000 -0.03840000
vn 0.08250000 -0.93090000 0.35580000
vn 0.08580000 -0.10380000 -0.99090000
vn 0.15540000 -0.96890000 0.19240000
vn 0.15530000 -0.95260000 0.26170000
vn 0.15800000 -0.98380000 0.08470000
vn 0.15540000 -0.93530000 0.31800000
vn 0.15800000 -0.98700000 -0.02810000
vn 0.15940000 -0.97800000 -0.13490000
vn 0.15670000 -0.96280000 -0.22000000
vn 0.15530000 -0.93490000 -0.31920000
vn 0.16380000 -0.92190000 0.35120000
vn 0.15310000 -0.89330000 -0.42250000
vn 0.15030000 -0.83760000 -0.52520000
vn 0.14740000 -0.76890000 -0.62220000
vn 0.14470000 -0.69050000 -0.70870000
vn 0.12940000 -0.92790000 0.34960000
vn 0.12950000 -0.92910000 0.34630000
vn 0.14270000 -0.60680000 -0.78200000
vn 0.14170000 -0.52230000 -0.84090000
vn 0.14170000 -0.44090000 -0.88630000
vn 0.14270000 -0.36520000 -0.91990000
vn 0.14110000 -0.28470000 -0.94820000
vn 0.14470000 -0.18790000 -0.97150000
vn 0.13800000 -0.10410000 -0.98490000
vn 0.17600000 -0.92050000 0.34900000
vn 0.19350000 -0.09940000 -0.97610000
vn 0.23690000 -0.96730000 0.09070000
vn 0.23200000 -0.97240000 -0.02400000
vn 0.25150000 -0.90650000 0.33920000
vn 0.29320000 -0.93660000 0.19180000
vn 0.30590000 -0.91500000 0.26310000
vn 0.31140000 -0.94530000 0.09700000
vn 0.30810000 -0.89860000 0.31250000
vn 0.30930000 -0.95090000 -0.00770000
vn 0.28460000 -0.09730000 -0.95370000
vn 0.31250000 -0.94380000 -0.10780000
vn 0.30820000 -0.93240000 -0.18860000
vn 0.25340000 -0.93430000 0.25080000
vn 0.30570000 -0.90890000 -0.28370000
vn 0.41050000 -0.85290000 0.32260000
vn 0.30210000 -0.87240000 -0.38430000
vn 0.29750000 -0.82160000 -0.48630000
vn 0.29240000 -0.75680000 -0.58460000
vn 0.32710000 -0.90090000 0.28550000
vn 0.28770000 -0.68060000 -0.67370000
vn 0.28420000 -0.59750000 -0.74980000
vn 0.28230000 -0.51250000 -0.81090000
vn 0.28220000 -0.43020000 -0.85750000
vn 0.28370000 -0.35370000 -0.89130000
vn 0.28660000 -0.28440000 -0.91490000
vn 0.28680000 -0.22360000 -0.93150000
vn 0.29360000 -0.16740000 -0.94120000
vn 0.33710000 -0.09940000 -0.93620000
vn 0.33750000 -0.09480000 -0.93650000
vn 0.35070000 -0.84480000 0.40420000
vn 0.38440000 -0.90260000 0.19390000
vn 0.38420000 -0.91730000 0.10510000
vn 0.37650000 -0.92640000 0.00220000
vn 0.41370000 -0.84540000 0.33780000
vn 0.38450000 -0.09440000 -0.91830000
vn 0.45230000 -0.87010000 0.19590000
vn 0.44910000 -0.85420000 0.26210000
vn 0.45350000 -0.88390000 0.11450000
vn 0.45330000 -0.83850000 0.30240000
vn 0.45220000 -0.89170000 0.01990000
vn 0.45690000 -0.88760000 -0.05780000
vn 0.43710000 -0.88750000 -0.14600000
vn 0.44170000 -0.86760000 -0.22840000
vn 0.46660000 -0.82200000 0.32640000
vn 0.43680000 -0.83950000 -0.32330000
vn 0.43150000 -0.79550000 -0.42550000
vn 0.44440000 -0.83950000 0.31260000
vn 0.44400000 -0.83360000 0.32870000
vn 0.42740000 -0.73650000 -0.52430000
vn 0.42330000 -0.66390000 -0.61650000
vn 0.41980000 -0.58200000 -0.69640000
vn 0.41760000 -0.49650000 -0.76100000
vn 0.41740000 -0.41280000 -0.80950000
vn 0.41960000 -0.33490000 -0.84370000
vn 0.42390000 -0.26480000 -0.86610000
vn 0.42880000 -0.20570000 -0.87970000
vn 0.43330000 -0.15430000 -0.88800000
vn 0.50190000 -0.80220000 0.32340000
vn 0.48210000 -0.08760000 -0.87170000
vn 0.51470000 -0.83280000 0.20380000
vn 0.50720000 -0.85180000 0.13130000
vn 0.50060000 -0.86510000 0.03140000
vn 0.50890000 -0.85400000 -0.10820000
vn 0.55790000 -0.77400000 0.29950000
vn 0.62180000 -0.77360000 0.12250000
vn 0.55780000 -0.81470000 0.15850000
vn 0.55430000 -0.81660000 0.16090000
vn 0.61840000 -0.76790000 0.16690000
vn 0.55250000 -0.80730000 0.20720000
vn 0.56650000 -0.81850000 0.09590000
vn 0.55250000 -0.80730000 0.20710000
vn 0.55770000 -0.82510000 0.09030000
vn 0.59440000 -0.80190000 0.05970000
vn 0.63220000 -0.77380000 0.04040000
vn 0.60730000 -0.76270000 0.22240000
vn 0.64090000 -0.76700000 0.03060000
vn 0.62680000 -0.77920000 0.00960000
vn 0.53380000 -0.80690000 0.25310000
vn 0.54960000 -0.83490000 -0.02980000
vn 0.52990000 -0.80840000 0.25640000
vn 0.59570000 -0.76200000 0.25390000
vn 0.60170000 -0.79760000 -0.04140000
vn 0.56750000 -0.81740000 -0.09940000
vn 0.56740000 -0.81750000 -0.09890000
vn 0.57280000 -0.80620000 -0.14840000
vn 0.51020000 -0.80750000 0.29590000
vn 0.56130000 -0.80750000 -0.18150000
vn 0.56600000 -0.80370000 -0.18330000
vn 0.55250000 -0.78140000 0.29010000
vn 0.56630000 -0.79210000 -0.22760000
vn 0.56640000 -0.78090000 -0.26340000
vn 0.60060000 -0.74700000 0.28510000
vn 0.54790000 -0.77700000 0.31010000
vn 0.56790000 -0.78280000 -0.25440000
vn 0.56550000 -0.77280000 -0.28820000
vn 0.66260000 -0.72460000 0.18960000
vn 0.60680000 -0.71570000 -0.34580000
vn 0.58960000 -0.72260000 -0.36090000
vn 0.67460000 -0.72440000 0.14200000
vn 0.65880000 -0.71720000 0.22710000
vn 0.54430000 -0.74450000 -0.38660000
vn 0.70750000 -0.70330000 0.07000000
vn 0.62990000 -0.72910000 0.26780000
vn 0.56970000 -0.70250000 -0.42660000
vn 0.54580000 -0.70000000 -0.46060000
vn 0.55000000 -0.69540000 -0.46250000
vn 0.64480000 -0.71240000 0.27690000
vn 0.56110000 -0.65730000 -0.50320000
vn 0.68620000 -0.72720000 -0.01870000
vn 0.55390000 -0.63950000 -0.53320000
vn 0.68740000 -0.72240000 -0.07440000
vn 0.55390000 -0.60380000 -0.57330000
vn 0.58530000 -0.75160000 0.30430000
vn 0.58490000 -0.75580000 0.29450000
vn 0.73460000 -0.65110000 0.19090000
vn 0.77460000 -0.60300000 0.19080000
vn 0.76850000 -0.60910000 0.19600000
vn 0.72350000 -0.65310000 0.22350000
vn 0.77920000 -0.60490000 0.16450000
vn 0.78490000 -0.59880000 0.15910000
vn 0.75160000 -0.64210000 0.15100000
vn 0.70910000 -0.69410000 -0.12410000
vn 0.76420000 -0.60510000 0.22310000
vn 0.62580000 -0.72470000 0.28830000
vn 0.55150000 -0.57200000 -0.60710000
vn 0.78490000 -0.60590000 0.12970000
vn 0.77630000 -0.62200000 0.10180000
vn 0.77360000 -0.62650000 0.09480000
vn 0.73730000 -0.63540000 0.22960000
vn 0.73190000 -0.63950000 0.23540000
vn 0.71540000 -0.65200000 0.25120000
vn 0.55180000 -0.57450000 -0.60460000
vn 0.55160000 -0.53560000 -0.63940000
vn 0.71700000 -0.67360000 -0.17960000
vn 0.77280000 -0.62990000 0.07780000
vn 0.64270000 -0.71230000 0.28210000
vn 0.81040000 -0.58400000 0.04690000
vn 0.81050000 -0.58390000 0.04670000
vn 0.54600000 -0.49620000 -0.67510000
vn 0.66070000 -0.69760000 0.27720000
vn 0.71580000 -0.65360000 -0.24580000
vn 0.75270000 -0.65790000 0.02510000
vn 0.54910000 -0.45370000 -0.70190000
vn 0.70290000 -0.66170000 0.26100000
vn 0.81630000 -0.57760000 0.00090000
vn 0.82160000 -0.57010000 -0.00020000
vn 0.79400000 -0.60730000 -0.02690000
vn 0.70080000 -0.63300000 -0.32880000
vn 0.54070000 -0.42160000 -0.72800000
vn 0.54020000 -0.42000000 -0.72920000
vn 0.54750000 -0.37640000 -0.74730000
vn 0.81020000 -0.58520000 -0.03500000
vn 0.80730000 -0.58740000 -0.05660000
vn 0.70350000 -0.58390000 -0.40520000
vn 0.52800000 -0.34590000 -0.77560000
vn 0.81280000 -0.57750000 -0.07680000
vn 0.52810000 -0.34630000 -0.77530000
vn 0.80210000 -0.58430000 -0.12370000
vn 0.55180000 -0.29960000 -0.77830000
vn 0.80230000 -0.58010000 -0.14080000
vn 0.70090000 -0.52510000 -0.48270000
vn 0.82930000 -0.54440000 -0.12580000
vn 0.51010000 -0.27520000 -0.81490000
vn 0.79810000 -0.57490000 -0.18040000
vn 0.51000000 -0.27520000 -0.81500000
vn 0.59280000 -0.21390000 -0.77640000
vn 0.69200000 -0.47050000 -0.54750000
vn 0.82100000 -0.54000000 -0.18540000
vn 0.80630000 -0.54090000 -0.23910000
vn 0.80750000 -0.53210000 -0.25450000
vn 0.60400000 -0.19350000 -0.77310000
vn 0.70050000 -0.39830000 -0.59220000
vn 0.59440000 -0.17200000 -0.78550000
vn 0.51240000 -0.14330000 -0.84670000
vn 0.82970000 -0.50620000 -0.23540000
vn 0.82320000 -0.49400000 -0.27970000
vn 0.81870000 -0.49050000 -0.29840000
vn 0.51550000 -0.13990000 -0.84540000
vn 0.69640000 -0.33810000 -0.63300000
vn 0.62420000 -0.11420000 -0.77290000
vn 0.82650000 -0.48000000 -0.29420000
vn 0.82560000 -0.45850000 -0.32880000
vn 0.67440000 -0.28510000 -0.68110000
vn 0.55170000 -0.08430000 -0.82980000
vn 0.82300000 -0.44730000 -0.35020000
vn 0.63500000 -0.23870000 -0.73470000
vn 0.60390000 -0.08480000 -0.79250000
vn 0.82080000 -0.44800000 -0.35430000
vn 0.82240000 -0.42240000 -0.38110000
vn 0.81880000 -0.40880000 -0.40290000
vn 0.63590000 -0.14530000 -0.75800000
vn 0.80420000 -0.40500000 -0.43500000
vn 0.80530000 -0.38370000 -0.45190000
vn 0.80610000 -0.37450000 -0.45820000
vn 0.62810000 -0.08870000 -0.77310000
vn 0.78710000 -0.37350000 -0.49100000
vn 0.81130000 -0.33020000 -0.48250000
vn 0.77290000 -0.32900000 -0.54260000
vn 0.65260000 -0.08530000 -0.75290000
vn 0.80240000 -0.27690000 -0.52870000
vn 0.80240000 -0.27690000 -0.52860000
vn 0.77120000 -0.26210000 -0.58010000
vn 0.79000000 -0.23490000 -0.56630000
vn 0.69030000 -0.07810000 -0.71930000
vn 0.74670000 -0.22160000 -0.62720000
vn 0.75570000 -0.18670000 -0.62770000
vn 0.75590000 -0.18660000 -0.62760000
vn 0.65130000 -0.19500000 -0.73340000
vn 0.74110000 -0.14310000 -0.65600000
vn 0.75010000 -0.14390000 -0.64550000
vn 0.69480000 -0.12640000 -0.70800000
vn 0.85910000 -0.50530000 -0.08160000
vn 0.73060000 -0.62940000 0.26470000
vn 0.86380000 -0.47260000 -0.17450000
vn 0.75340000 -0.61220000 0.24010000
vn 0.73940000 -0.09320000 -0.66670000
vn 0.85970000 -0.35940000 -0.36280000
vn 0.83360000 -0.53400000 0.14110000
vn 0.82130000 -0.54400000 0.17160000
vn 0.84450000 -0.52450000 0.10830000
vn 0.83960000 -0.28400000 -0.46300000
vn 0.75160000 -0.11060000 -0.65020000
vn 0.85500000 -0.51410000 0.06750000
vn 0.81210000 -0.21480000 -0.54250000
vn 0.79830000 -0.56920000 0.19660000
vn 0.79250000 -0.57130000 0.21360000
vn 0.86280000 -0.50500000 0.02140000
vn 0.77880000 -0.15090000 -0.60880000
vn 0.79260000 -0.57120000 0.21350000
vn 0.74230000 -0.19330000 -0.64160000
vn 0.74220000 -0.19310000 -0.64170000
vn 0.87620000 -0.47920000 -0.05110000
vn 0.88140000 -0.45870000 -0.11290000
vn 0.83670000 -0.51770000 0.17870000
vn 0.85210000 -0.50150000 0.14940000
vn 0.88690000 -0.42950000 -0.17000000
vn 0.88730000 -0.40670000 -0.21750000
vn 0.88630000 -0.38440000 -0.25830000
vn 0.85100000 -0.50140000 0.15640000
vn 0.88680000 -0.34600000 -0.30640000
vn 0.79620000 -0.11780000 -0.59350000
vn 0.90110000 -0.43330000 -0.01640000
vn 0.87720000 -0.28780000 -0.38440000
vn 0.88050000 -0.45430000 0.13520000
vn 0.90560000 -0.40890000 0.11290000
vn 0.85890000 -0.22470000 -0.46020000
vn 0.90830000 -0.40590000 0.10130000
vn 0.90690000 -0.41420000 -0.07750000
vn 0.88930000 -0.43540000 0.13990000
vn 0.90310000 -0.41420000 0.11310000
vn 0.91110000 -0.40400000 0.08190000
vn 0.91600000 -0.38350000 0.11730000
vn 0.83540000 -0.16900000 -0.52290000
vn 0.82500000 -0.14470000 -0.54630000
vn 0.91520000 -0.39930000 0.05370000
vn 0.91830000 -0.36660000 -0.14970000
vn 0.92720000 -0.35440000 0.12080000
vn 0.82500000 -0.14470000 -0.54630000
vn 0.92720000 -0.35190000 0.12830000
vn 0.91980000 -0.39190000 0.02170000
vn 0.94060000 -0.32460000 0.09930000
vn 0.91620000 -0.33240000 -0.22370000
vn 0.95310000 -0.29370000 0.07370000
vn 0.92690000 -0.37340000 -0.03820000
vn 0.85370000 -0.15170000 -0.49820000
vn 0.95310000 -0.29210000 0.07930000
vn 0.90930000 -0.28350000 -0.30450000
vn 0.96690000 -0.23860000 0.09040000
vn 0.96090000 -0.26260000 0.08780000
vn 0.96680000 -0.23890000 0.09060000
vn 0.95840000 -0.27370000 0.08130000
vn 0.97330000 -0.21790000 0.07150000
vn 0.97470000 -0.21430000 0.06390000
vn 0.93260000 -0.34780000 -0.09590000
vn 0.89920000 -0.22820000 -0.37340000
vn 0.95890000 -0.27310000 0.07660000
vn 0.98280000 -0.17110000 0.06980000
vn 0.98310000 -0.16530000 0.07820000
vn 0.94770000 -0.31910000 0.00820000
vn 0.88180000 -0.16790000 -0.44080000
vn 0.88200000 -0.13880000 -0.45030000
vn 0.93280000 -0.32460000 -0.15630000
vn 0.95930000 -0.27480000 0.06510000
vn 0.98370000 -0.16140000 0.07970000
vn 0.98370000 -0.16130000 0.07960000
vn 0.88200000 -0.13890000 -0.45030000
vn 0.98380000 -0.16030000 0.07960000
vn 0.98310000 -0.16200000 0.08540000
vn 0.94890000 -0.31300000 -0.04030000
vn 0.89360000 -0.20730000 -0.39820000
vn 0.95960000 -0.27670000 0.05080000
vn 0.98210000 -0.16480000 0.09120000
vn 0.90760000 -0.19430000 -0.37210000
vn 0.98200000 -0.16540000 0.09160000
vn 0.93460000 -0.27530000 -0.22520000
vn 0.91220000 -0.19110000 -0.36240000
vn 0.98090000 -0.17110000 0.09280000
vn 0.98050000 -0.17550000 0.08790000
vn 0.94930000 -0.30140000 -0.08940000
vn 0.92790000 -0.23200000 -0.29200000
vn 0.96170000 -0.27400000 0.01040000
vn 0.97870000 -0.18350000 0.09190000
vn 0.97620000 -0.19430000 0.09580000
vn 0.90530000 -0.21190000 -0.36820000
vn 0.97000000 -0.23280000 0.06920000
vn 0.92480000 -0.20380000 -0.32120000
vn 0.94260000 -0.19400000 -0.27180000
vn 0.97540000 -0.19940000 0.09370000
vn 0.95330000 -0.26350000 -0.14760000
vn 0.96170000 -0.27300000 -0.02560000
vn 0.97590000 -0.19690000 0.09370000
vn 0.97050000 -0.23910000 0.03100000
vn 0.97980000 -0.18910000 0.06540000
vn 0.95210000 -0.23040000 -0.20080000
vn 0.98160000 -0.18190000 0.05810000
vn 0.97950000 -0.19340000 0.05730000
vn 0.95050000 -0.20810000 -0.23090000
vn 0.96310000 -0.19810000 -0.18210000
vn 0.96590000 -0.24850000 -0.07320000
vn 0.95210000 -0.22120000 -0.21100000
vn 0.93170000 -0.29970000 -0.20500000
vn 0.97610000 -0.21030000 0.05520000
vn 0.96120000 -0.21490000 -0.17320000
vn 0.97660000 -0.21200000 0.03660000
vn 0.96340000 -0.21930000 -0.15420000
vn 0.97070000 -0.24040000 0.00190000
vn 0.97110000 -0.23760000 -0.02250000
vn 0.97210000 -0.23310000 -0.02690000
vn 0.96680000 -0.23320000 -0.10430000
vn 0.96690000 -0.23310000 -0.10400000
vn 0.97250000 -0.21630000 -0.08660000
vn 0.97940000 -0.19040000 -0.06740000
vn 0.43090000 -0.11200000 -0.89540000
vn -0.00000000 -0.00000000 1.00000000
vn 0.43570000 -0.08080000 -0.89650000
vn -0.00000000 -0.00000000 1.00000000
vn -0.00000000 -0.00000000 1.00000000
vn -0.00000000 -0.00000000 1.00000000
vn -0.00000000 -0.00000000 1.00000000
vn 0.41220000 -0.53990000 -0.73390000
vn 0.31160000 -0.88520000 0.34550000
vn -0.00000000 -0.00000000 1.00000000
vn -0.00000000 -0.00000000 1.00000000
vn -0.00000000 -0.00000000 1.00000000
vn -0.00000000 -0.00000000 1.00000000
vn -0.00000000 -0.00000000 1.00000000
vn -0.00000000 -0.00000000 1.00000000
f 414//414 387//387 742//742
f 299//299 293//293 312//312
f 387//387 409//409 742//742
f 62//62 57//57 78//78
f 54//54 42//42 31//31
f 6//6 5//5 14//14
f 3//3 4//4 14//14
f 8//8 10//10 19//19
f 37//37 40//40 53//53
f 136//136 137//137 116//116
f 104//104 99//99 108//108
f 57//57 62//62 49//49
f 49//49 48//48 57//57
f 57//57 48//48 46//46
f 57//57 46//46 45//45
f 60//60 56//56 62//62
f 62//62 56//56 55//55
f 62//62 55//55 49//49
f 65//65 63//63 64//64
f 64//64 63//63 61//61
f 67//67 65//65 88//88
f 88//88 65//65 64//64
f 88//88 64//64 86//86
f 86//86 64//64 82//82
f 84//84 72//72 88//88
f 88//88 72//72 70//70
f 88//88 70//70 67//67
f 89//89 83//83 84//84
f 84//84 83//83 80//80
f 80//80 75//75 84//84
f 84//84 75//75 74//74
f 84//84 74//74 72//72
f 99//99 98//98 108//108
f 108//108 98//98 94//94
f 108//108 94//94 114//114
f 108//108 198//198 197//197
f 182//182 120//120 197//197
f 197//197 120//120 118//118
f 197//197 118//118 108//108
f 108//108 118//118 107//107
f 108//108 107//107 104//104
f 210//210 209//209 114//114
f 114//114 209//209 205//205
f 114//114 205//205 108//108
f 108//108 205//205 200//200
f 108//108 200//200 198//198
f 207//207 208//208 115//115
f 115//115 208//208 212//212
f 115//115 212//212 114//114
f 114//114 212//212 211//211
f 114//114 211//211 210//210
f 207//207 115//115 204//204
f 204//204 115//115 113//113
f 204//204 113//113 201//201
f 190//190 191//191 110//110
f 110//110 191//191 196//196
f 110//110 196//196 113//113
f 113//113 196//196 199//199
f 113//113 199//199 201//201
f 180//180 181//181 106//106
f 106//106 181//181 184//184
f 106//106 184//184 110//110
f 110//110 184//184 189//189
f 110//110 189//189 190//190
f 121//121 170//170 172//172
f 180//180 106//106 176//176
f 176//176 106//106 101//101
f 176//176 101//101 175//175
f 159//159 164//164 119//119
f 119//119 164//164 165//165
f 119//119 165//165 121//121
f 121//121 165//165 168//168
f 121//121 168//168 170//170
f 155//155 157//157 119//119
f 119//119 157//157 158//158
f 119//119 158//158 159//159
f 97//97 151//151 153//153
f 96//96 147//147 148//148
f 95//95 142//142 96//96
f 96//96 142//142 144//144
f 96//96 144//144 147//147
f 137//137 138//138 116//116
f 116//116 138//138 139//139
f 116//116 139//139 140//140
f 112//112 116//116 93//93
f 93//93 116//116 140//140
f 93//93 140//140 95//95
f 95//95 140//140 141//141
f 95//95 141//141 142//142
f 132//132 133//133 112//112
f 112//112 133//133 134//134
f 112//112 134//134 116//116
f 116//116 134//134 135//135
f 116//116 135//135 136//136
f 127//127 128//128 112//112
f 128//128 130//130 112//112
f 112//112 130//130 131//131
f 112//112 131//131 132//132
f 105//105 123//123 122//122
f 68//68 76//76 81//81
f 81//81 76//76 79//79
f 81//81 79//79 92//92
f 53//53 52//52 68//68
f 40//40 43//43 53//53
f 53//53 43//43 47//47
f 53//53 47//47 52//52
f 15//15 16//16 33//33
f 16//16 26//26 33//33
f 33//33 26//26 27//27
f 33//33 27//27 29//29
f 10//10 12//12 19//19
f 19//19 12//12 13//13
f 19//19 13//13 15//15
f 15//15 33//33 19//19
f 19//19 33//33 24//24
f 19//19 24//24 8//8
f 5//5 1//1 14//14
f 14//14 1//1 2//2
f 14//14 2//2 3//3
f 11//11 9//9 21//21
f 11//11 21//21 17//17
f 28//28 20//20 21//21
f 21//21 20//20 18//18
f 21//21 18//18 17//17
f 30//30 25//25 28//28
f 28//28 25//25 22//22
f 28//28 22//22 20//20
f 36//36 35//35 42//42
f 42//42 35//35 32//32
f 45//45 41//41 50//50
f 50//50 41//41 39//39
f 94//94 89//89 114//114
f 114//114 89//89 84//84
f 114//114 84//84 115//115
f 115//115 84//84 88//88
f 115//115 88//88 113//113
f 113//113 88//88 86//86
f 113//113 86//86 110//110
f 110//110 86//86 82//82
f 110//110 82//82 106//106
f 85//85 77//77 97//97
f 106//106 91//91 101//101
f 101//101 91//91 85//85
f 101//101 85//85 100//100
f 100//100 85//85 97//97
f 68//68 81//81 53//53
f 53//53 81//81 58//58
f 53//53 58//58 37//37
f 153//153 155//155 97//97
f 97//97 155//155 119//119
f 97//97 119//119 100//100
f 100//100 119//119 121//121
f 100//100 121//121 101//101
f 101//101 121//121 172//172
f 101//101 172//172 175//175
f 125//125 127//127 109//109
f 109//109 127//127 112//112
f 109//109 112//112 90//90
f 90//90 112//112 93//93
f 90//90 93//93 71//71
f 71//71 93//93 95//95
f 71//71 95//95 77//77
f 77//77 95//95 96//96
f 77//77 96//96 97//97
f 97//97 96//96 148//148
f 97//97 148//148 151//151
f 45//45 50//50 57//57
f 57//57 50//50 73//73
f 57//57 73//73 78//78
f 32//32 30//30 42//42
f 42//42 30//30 28//28
f 42//42 28//28 31//31
f 31//31 28//28 21//21
f 31//31 21//21 23//23
f 9//9 7//7 21//21
f 21//21 7//7 6//6
f 21//21 6//6 23//23
f 23//23 6//6 14//14
f 23//23 14//14 24//24
f 24//24 14//14 4//4
f 24//24 4//4 8//8
f 54//54 31//31 44//44
f 44//44 31//31 23//23
f 44//44 23//23 34//34
f 34//34 23//23 24//24
f 34//34 24//24 38//38
f 38//38 24//24 33//33
f 38//38 33//33 58//58
f 58//58 33//33 29//29
f 58//58 29//29 37//37
f 39//39 36//36 50//50
f 50//50 36//36 42//42
f 50//50 42//42 73//73
f 73//73 42//42 54//54
f 73//73 54//54 69//69
f 69//69 54//54 44//44
f 69//69 44//44 59//59
f 59//59 44//44 34//34
f 59//59 34//34 51//51
f 51//51 34//34 38//38
f 51//51 38//38 66//66
f 66//66 38//38 58//58
f 66//66 58//58 87//87
f 87//87 58//58 81//81
f 87//87 81//81 105//105
f 105//105 81//81 92//92
f 105//105 92//92 102//102
f 61//61 60//60 64//64
f 64//64 60//60 62//62
f 64//64 62//62 82//82
f 82//82 62//62 78//78
f 82//82 78//78 106//106
f 106//106 78//78 73//73
f 106//106 73//73 91//91
f 91//91 73//73 69//69
f 91//91 69//69 85//85
f 85//85 69//69 59//59
f 85//85 59//59 77//77
f 77//77 59//59 51//51
f 77//77 51//51 71//71
f 71//71 51//51 66//66
f 71//71 66//66 90//90
f 90//90 66//66 87//87
f 90//90 87//87 109//109
f 109//109 87//87 105//105
f 109//109 105//105 125//125
f 125//125 105//105 122//122
f 643//643 661//661 656//656
f 640//640 636//636 626//626
f 614//614 545//545 532//532
f 520//520 521//521 619//619
f 538//538 539//539 624//624
f 577//577 578//578 637//637
f 583//583 586//586 638//638
f 623//623 610//610 611//611
f 623//623 611//611 617//617
f 617//617 611//611 612//612
f 617//617 612//612 605//605
f 610//610 629//629 609//609
f 609//609 629//629 625//625
f 609//609 625//625 608//608
f 608//608 625//625 607//607
f 603//603 604//604 622//622
f 622//622 604//604 625//625
f 625//625 604//604 606//606
f 625//625 606//606 607//607
f 599//599 601//601 622//622
f 622//622 601//601 602//602
f 622//622 602//602 603//603
f 594//594 595//595 618//618
f 618//618 595//595 597//597
f 618//618 597//597 622//622
f 622//622 597//597 598//598
f 622//622 598//598 599//599
f 586//586 589//589 639//639
f 589//589 590//590 639//639
f 639//639 590//590 591//591
f 639//639 591//591 618//618
f 618//618 591//591 593//593
f 618//618 593//593 594//594
f 637//637 578//578 638//638
f 638//638 578//578 582//582
f 638//638 582//582 583//583
f 637//637 634//634 615//615
f 561//561 563//563 615//615
f 615//615 563//563 565//565
f 615//615 565//565 569//569
f 569//569 570//570 615//615
f 615//615 570//570 571//571
f 615//615 571//571 637//637
f 637//637 571//571 576//576
f 637//637 576//576 577//577
f 548//548 633//633 547//547
f 547//547 633//633 628//628
f 547//547 628//628 546//546
f 548//548 553//553 633//633
f 633//633 553//553 554//554
f 633//633 554//554 613//613
f 613//613 554//554 557//557
f 613//613 557//557 559//559
f 624//624 539//539 628//628
f 628//628 539//539 543//543
f 628//628 543//543 546//546
f 619//619 521//521 621//621
f 621//621 521//521 522//522
f 621//621 522//522 527//527
f 527//527 528//528 621//621
f 621//621 528//528 529//529
f 621//621 529//529 624//624
f 624//624 529//529 536//536
f 624//624 536//536 538//538
f 519//519 518//518 620//620
f 620//620 518//518 517//517
f 620//620 517//517 619//619
f 619//619 517//517 516//516
f 619//619 516//516 520//520
f 532//532 531//531 626//626
f 626//626 531//531 530//530
f 626//626 530//530 620//620
f 620//620 530//530 524//524
f 620//620 524//524 519//519
f 614//614 532//532 616//616
f 616//616 532//532 626//626
f 616//616 626//626 627//627
f 636//636 635//635 626//626
f 626//626 635//635 630//630
f 626//626 630//630 627//627
f 640//640 626//626 645//645
f 645//645 626//626 620//620
f 645//645 620//620 651//651
f 653//653 650//650 658//658
f 658//658 650//650 660//660
f 660//660 650//650 662//662
f 662//662 650//650 646//646
f 662//662 646//646 664//664
f 673//673 671//671 670//670
f 670//670 671//671 669//669
f 670//670 669//669 667//667
f 677//677 679//679 672//672
f 672//672 679//679 678//678
f 672//672 678//678 670//670
f 670//670 678//678 674//674
f 670//670 674//674 673//673
f 688//688 686//686 677//677
f 677//677 686//686 685//685
f 677//677 685//685 679//679
f 698//698 695//695 684//684
f 684//684 695//695 693//693
f 684//684 693//693 677//677
f 677//677 693//693 689//689
f 677//677 689//689 688//688
f 709//709 704//704 692//692
f 692//692 704//704 703//703
f 692//692 703//703 699//699
f 714//714 712//712 706//706
f 725//725 713//713 727//727
f 727//727 713//713 728//728
f 725//725 723//723 713//713
f 713//713 723//723 717//717
f 713//713 717//717 716//716
f 726//726 730//730 720//720
f 720//720 730//730 731//731
f 720//720 731//731 732//732
f 732//732 733//733 720//720
f 720//720 733//733 729//729
f 720//720 729//729 711//711
f 718//718 719//719 715//715
f 715//715 719//719 721//721
f 721//721 722//722 715//715
f 715//715 722//722 724//724
f 715//715 724//724 710//710
f 697//697 705//705 701//701
f 701//701 705//705 707//707
f 701//701 707//707 708//708
f 666//666 682//682 681//681
f 681//681 682//682 687//687
f 687//687 691//691 681//681
f 681//681 691//691 694//694
f 681//681 694//694 676//676
f 642//642 655//655 654//654
f 654//654 655//655 659//659
f 610//610 623//623 629//629
f 629//629 623//623 631//631
f 629//629 631//631 632//632
f 633//633 643//643 628//628
f 628//628 643//643 656//656
f 628//628 656//656 624//624
f 624//624 656//656 652//652
f 624//624 652//652 621//621
f 621//621 652//652 648//648
f 621//621 648//648 619//619
f 619//619 648//648 646//646
f 619//619 646//646 620//620
f 620//620 646//646 650//650
f 620//620 650//650 651//651
f 651//651 650//650 653//653
f 665//665 649//649 657//657
f 659//659 666//666 654//654
f 654//654 666//666 681//681
f 654//654 681//681 647//647
f 647//647 681//681 676//676
f 647//647 676//676 644//644
f 644//644 676//676 668//668
f 644//644 668//668 641//641
f 641//641 668//668 663//663
f 586//586 639//639 638//638
f 638//638 639//639 657//657
f 638//638 657//657 637//637
f 637//637 657//657 649//649
f 637//637 649//649 634//634
f 665//665 661//661 649//649
f 649//649 661//661 643//643
f 649//649 643//643 634//634
f 634//634 643//643 633//633
f 634//634 633//633 615//615
f 615//615 633//633 613//613
f 615//615 613//613 561//561
f 561//561 613//613 559//559
f 694//694 697//697 676//676
f 676//676 697//697 701//701
f 676//676 701//701 668//668
f 668//668 701//701 696//696
f 668//668 696//696 663//663
f 663//663 696//696 683//683
f 663//663 683//683 675//675
f 675//675 683//683 690//690
f 675//675 690//690 680//680
f 680//680 690//690 692//692
f 680//680 692//692 684//684
f 684//684 692//692 699//699
f 684//684 699//699 698//698
f 729//729 728//728 711//711
f 711//711 728//728 713//713
f 711//711 713//713 706//706
f 706//706 713//713 716//716
f 706//706 716//716 714//714
f 706//706 702//702 711//711
f 711//711 702//702 700//700
f 711//711 700//700 720//720
f 720//720 700//700 710//710
f 720//720 710//710 726//726
f 726//726 710//710 724//724
f 712//712 709//709 706//706
f 706//706 709//709 692//692
f 706//706 692//692 702//702
f 702//702 692//692 690//690
f 702//702 690//690 700//700
f 700//700 690//690 683//683
f 700//700 683//683 710//710
f 710//710 683//683 696//696
f 710//710 696//696 715//715
f 715//715 696//696 701//701
f 715//715 701//701 718//718
f 718//718 701//701 708//708
f 632//632 642//642 629//629
f 629//629 642//642 654//654
f 629//629 654//654 625//625
f 625//625 654//654 647//647
f 625//625 647//647 622//622
f 622//622 647//647 644//644
f 622//622 644//644 618//618
f 618//618 644//644 641//641
f 618//618 641//641 639//639
f 639//639 641//641 663//663
f 639//639 663//663 657//657
f 657//657 663//663 675//675
f 657//657 675//675 665//665
f 665//665 675//675 680//680
f 665//665 680//680 661//661
f 661//661 680//680 684//684
f 661//661 684//684 656//656
f 656//656 684//684 677//677
f 656//656 677//677 652//652
f 652//652 677//677 672//672
f 652//652 672//672 648//648
f 648//648 672//672 670//670
f 648//648 670//670 646//646
f 646//646 670//670 667//667
f 646//646 667//667 664//664
f 204//204 201//201 230//230
f 176//176 175//175 217//217
f 165//165 164//164 194//194
f 136//136 135//135 156//156
f 169//169 171//171 146//146
f 248//248 250//250 220//220
f 221//221 235//235 215//215
f 245//245 243//243 225//225
f 225//225 243//243 240//240
f 225//225 240//240 221//221
f 221//221 240//240 236//236
f 221//221 236//236 235//235
f 229//229 249//249 245//245
f 232//232 253//253 229//229
f 229//229 253//253 251//251
f 229//229 251//251 249//249
f 259//259 257//257 232//232
f 232//232 257//257 256//256
f 232//232 256//256 253//253
f 226//226 258//258 260//260
f 226//226 260//260 230//230
f 230//230 260//260 262//262
f 230//230 262//262 261//261
f 250//250 252//252 220//220
f 220//220 252//252 254//254
f 220//220 254//254 226//226
f 226//226 254//254 255//255
f 226//226 255//255 258//258
f 246//246 247//247 217//217
f 217//217 247//247 248//248
f 246//246 217//217 244//244
f 244//244 217//217 206//206
f 244//244 206//206 242//242
f 237//237 238//238 194//194
f 194//194 238//238 239//239
f 194//194 239//239 206//206
f 206//206 239//239 241//241
f 206//206 241//241 242//242
f 237//237 194//194 234//234
f 234//234 194//194 186//186
f 234//234 186//186 233//233
f 179//179 228//228 186//186
f 186//186 228//228 231//231
f 186//186 231//231 233//233
f 222//222 223//223 173//173
f 173//173 223//223 224//224
f 173//173 224//224 179//179
f 179//179 224//224 227//227
f 179//179 227//227 228//228
f 166//166 216//216 218//218
f 166//166 218//218 173//173
f 173//173 218//218 219//219
f 173//173 219//219 222//222
f 161//161 195//195 202//202
f 161//161 202//202 166//166
f 166//166 202//202 214//214
f 166//166 214//214 216//216
f 156//156 185//185 188//188
f 156//156 188//188 161//161
f 161//161 188//188 193//193
f 161//161 193//193 195//195
f 149//149 177//177 178//178
f 149//149 178//178 156//156
f 156//156 178//178 183//183
f 156//156 183//183 185//185
f 146//146 171//171 149//149
f 149//149 171//171 174//174
f 149//149 174//174 177//177
f 169//169 146//146 167//167
f 167//167 146//146 143//143
f 167//167 143//143 163//163
f 143//143 128//128 127//127
f 122//122 154//154 160//160
f 128//128 143//143 130//130
f 130//130 143//143 146//146
f 130//130 146//146 131//131
f 131//131 146//146 132//132
f 132//132 146//146 149//149
f 132//132 149//149 133//133
f 156//156 135//135 149//149
f 149//149 135//135 134//134
f 149//149 134//134 133//133
f 136//136 156//156 137//137
f 137//137 156//156 161//161
f 137//137 161//161 138//138
f 142//142 141//141 166//166
f 166//166 141//141 140//140
f 166//166 140//140 161//161
f 161//161 140//140 139//139
f 161//161 139//139 138//138
f 142//142 166//166 144//144
f 144//144 166//166 173//173
f 144//144 173//173 147//147
f 155//155 153//153 179//179
f 179//179 153//153 151//151
f 179//179 151//151 173//173
f 173//173 151//151 148//148
f 173//173 148//148 147//147
f 155//155 179//179 157//157
f 157//157 179//179 186//186
f 157//157 186//186 158//158
f 194//194 164//164 186//186
f 186//186 164//164 159//159
f 186//186 159//159 158//158
f 165//165 194//194 168//168
f 168//168 194//194 206//206
f 168//168 206//206 170//170
f 217//217 175//175 206//206
f 206//206 175//175 172//172
f 206//206 172//172 170//170
f 248//248 220//220 217//217
f 217//217 220//220 180//180
f 217//217 180//180 176//176
f 190//190 189//189 226//226
f 226//226 189//189 184//184
f 226//226 184//184 220//220
f 220//220 184//184 181//181
f 220//220 181//181 180//180
f 201//201 199//199 230//230
f 230//230 199//199 196//196
f 230//230 196//196 226//226
f 226//226 196//196 191//191
f 226//226 191//191 190//190
f 261//261 259//259 230//230
f 230//230 259//259 232//232
f 230//230 232//232 204//204
f 204//204 232//232 207//207
f 210//210 211//211 229//229
f 229//229 211//211 212//212
f 229//229 212//212 232//232
f 232//232 212//212 208//208
f 232//232 208//208 207//207
f 245//245 225//225 229//229
f 229//229 225//225 209//209
f 229//229 209//209 210//210
f 197//197 198//198 221//221
f 221//221 198//198 200//200
f 221//221 200//200 225//225
f 225//225 200//200 205//205
f 225//225 205//205 209//209
f 182//182 197//197 187//187
f 187//187 197//197 221//221
f 187//187 221//221 192//192
f 192//192 221//221 215//215
f 192//192 215//215 203//203
f 203//203 215//215 213//213
f 514//514 494//494 508//508
f 469//469 468//468 500//500
f 483//483 484//484 512//512
f 612//612 611//611 592//592
f 594//594 593//593 568//568
f 583//583 582//582 555//555
f 570//570 569//569 542//542
f 528//528 527//527 500//500
f 519//519 524//524 504//504
f 531//531 532//532 508//508
f 508//508 532//532 545//545
f 504//504 524//524 508//508
f 508//508 524//524 530//530
f 508//508 530//530 531//531
f 516//516 501//501 497//497
f 516//516 517//517 501//501
f 501//501 517//517 518//518
f 501//501 518//518 519//519
f 522//522 521//521 497//497
f 497//497 521//521 520//520
f 497//497 520//520 516//516
f 528//528 500//500 529//529
f 529//529 500//500 536//536
f 536//536 500//500 503//503
f 536//536 503//503 538//538
f 510//510 543//543 503//503
f 503//503 543//543 539//539
f 503//503 539//539 538//538
f 553//553 548//548 510//510
f 548//548 547//547 510//510
f 510//510 547//547 546//546
f 510//510 546//546 543//543
f 523//523 557//557 512//512
f 512//512 557//557 554//554
f 512//512 554//554 553//553
f 563//563 561//561 523//523
f 523//523 561//561 559//559
f 523//523 559//559 557//557
f 542//542 569//569 535//535
f 535//535 569//569 565//565
f 535//535 565//565 563//563
f 549//549 576//576 542//542
f 542//542 576//576 571//571
f 542//542 571//571 570//570
f 582//582 578//578 549//549
f 549//549 578//578 577//577
f 549//549 577//577 576//576
f 562//562 589//589 555//555
f 555//555 589//589 586//586
f 555//555 586//586 583//583
f 593//593 591//591 562//562
f 562//562 591//591 590//590
f 562//562 590//590 589//589
f 599//599 598//598 573//573
f 573//573 598//598 597//597
f 573//573 597//597 568//568
f 568//568 597//597 595//595
f 568//568 595//595 594//594
f 584//584 604//604 603//603
f 584//584 603//603 580//580
f 580//580 603//603 602//602
f 580//580 602//602 601//601
f 604//604 584//584 606//606
f 606//606 584//584 587//587
f 606//606 587//587 607//607
f 611//611 610//610 592//592
f 592//592 610//610 609//609
f 592//592 609//609 587//587
f 587//587 609//609 608//608
f 587//587 608//608 607//607
f 575//575 579//579 592//592
f 592//592 579//579 581//581
f 605//605 612//612 600//600
f 600//600 612//612 592//592
f 600//600 592//592 596//596
f 596//596 592//592 581//581
f 596//596 581//581 588//588
f 588//588 581//581 585//585
f 587//587 564//564 566//566
f 566//566 567//567 587//587
f 587//587 567//567 572//572
f 587//587 572//572 592//592
f 592//592 572//572 574//574
f 592//592 574//574 575//575
f 564//564 587//587 560//560
f 560//560 587//587 584//584
f 560//560 584//584 558//558
f 550//550 551//551 580//580
f 580//580 551//551 552//552
f 580//580 552//552 584//584
f 584//584 552//552 556//556
f 584//584 556//556 558//558
f 544//544 550//550 573//573
f 573//573 550//550 580//580
f 573//573 580//580 599//599
f 599//599 580//580 601//601
f 526//526 533//533 568//568
f 568//568 533//533 534//534
f 568//568 534//534 573//573
f 573//573 534//534 540//540
f 573//573 540//540 544//544
f 593//593 562//562 568//568
f 568//568 562//562 513//513
f 568//568 513//513 526//526
f 506//506 507//507 555//555
f 555//555 507//507 509//509
f 555//555 509//509 562//562
f 562//562 509//509 511//511
f 562//562 511//511 513//513
f 582//582 549//549 555//555
f 555//555 549//549 505//505
f 555//555 505//505 506//506
f 542//542 495//495 496//496
f 496//496 498//498 542//542
f 542//542 498//498 499//499
f 542//542 499//499 549//549
f 549//549 499//499 502//502
f 549//549 502//502 505//505
f 495//495 542//542 492//492
f 492//492 542//542 535//535
f 492//492 535//535 491//491
f 563//563 523//523 535//535
f 535//535 523//523 489//489
f 535//535 489//489 491//491
f 484//484 485//485 512//512
f 512//512 485//485 486//486
f 512//512 486//486 523//523
f 523//523 486//486 488//488
f 523//523 488//488 489//489
f 553//553 510//510 512//512
f 512//512 510//510 480//480
f 512//512 480//480 483//483
f 473//473 474//474 503//503
f 474//474 475//475 503//503
f 503//503 475//475 477//477
f 503//503 477//477 510//510
f 510//510 477//477 478//478
f 510//510 478//478 480//480
f 468//468 467//467 500//500
f 500//500 467//467 466//466
f 500//500 466//466 503//503
f 503//503 466//466 471//471
f 503//503 471//471 473//473
f 527//527 522//522 500//500
f 500//500 522//522 497//497
f 500//500 497//497 469//469
f 469//469 497//497 470//470
f 481//481 479//479 501//501
f 501//501 479//479 476//476
f 501//501 476//476 497//497
f 497//497 476//476 472//472
f 497//497 472//472 470//470
f 519//519 504//504 501//501
f 501//501 504//504 482//482
f 501//501 482//482 481//481
f 494//494 493//493 508//508
f 508//508 493//493 490//490
f 508//508 490//490 504//504
f 504//504 490//490 487//487
f 504//504 487//487 482//482
f 545//545 541//541 508//508
f 508//508 541//541 537//537
f 508//508 537//537 514//514
f 514//514 537//537 525//525
f 514//514 525//525 515//515
f 297//297 321//321 320//320
f 245//245 249//249 289//289
f 353//353 354//354 356//356
f 436//436 734//734 458//458
f 491//491 489//489 444//444
f 469//469 470//470 461//461
f 494//494 514//514 445//445
f 445//445 514//514 515//515
f 515//515 465//465 445//445
f 445//445 465//465 459//459
f 445//445 459//459 449//449
f 481//481 482//482 440//440
f 482//482 487//487 440//440
f 440//440 487//487 490//490
f 440//440 490//490 493//493
f 470//470 472//472 461//461
f 461//461 472//472 476//476
f 461//461 476//476 438//438
f 438//438 476//476 479//479
f 469//469 461//461 468//468
f 468//468 461//461 462//462
f 468//468 462//462 467//467
f 477//477 475//475 463//463
f 463//463 475//475 474//474
f 474//474 473//473 463//463
f 463//463 473//473 471//471
f 463//463 471//471 462//462
f 462//462 471//471 466//466
f 462//462 466//466 467//467
f 464//464 485//485 484//484
f 483//483 480//480 463//463
f 463//463 480//480 478//478
f 463//463 478//478 477//477
f 488//488 486//486 443//443
f 485//485 464//464 486//486
f 491//491 444//444 492//492
f 502//502 499//499 447//447
f 447//447 499//499 498//498
f 447//447 498//498 446//446
f 446//446 498//498 496//496
f 446//446 496//496 495//495
f 451//451 511//511 450//450
f 450//450 511//511 509//509
f 509//509 507//507 450//450
f 450//450 507//507 506//506
f 450//450 506//506 447//447
f 447//447 506//506 505//505
f 447//447 505//505 502//502
f 453//453 540//540 452//452
f 452//452 540//540 534//534
f 534//534 533//533 452//452
f 452//452 533//533 526//526
f 452//452 526//526 451//451
f 451//451 526//526 513//513
f 451//451 513//513 511//511
f 552//552 454//454 556//556
f 556//556 454//454 455//455
f 556//556 455//455 558//558
f 558//558 455//455 560//560
f 552//552 551//551 454//454
f 454//454 551//551 550//550
f 454//454 550//550 453//453
f 453//453 550//550 544//544
f 453//453 544//544 540//540
f 560//560 455//455 564//564
f 564//564 455//455 456//456
f 564//564 456//456 566//566
f 457//457 572//572 456//456
f 456//456 572//572 567//567
f 456//456 567//567 566//566
f 581//581 579//579 458//458
f 458//458 579//579 575//575
f 458//458 575//575 457//457
f 457//457 575//575 574//574
f 457//457 574//574 572//572
f 585//585 581//581 460//460
f 460//460 581//581 458//458
f 460//460 458//458 736//736
f 737//737 741//741 735//735
f 411//411 429//429 428//428
f 748//748 746//746 747//747
f 378//378 400//400 399//399
f 399//399 400//400 402//402
f 298//298 300//300 301//301
f 301//301 300//300 323//323
f 301//301 323//323 329//329
f 329//329 323//323 328//328
f 329//329 328//328 349//349
f 270//270 269//269 291//291
f 269//269 270//270 263//263
f 263//263 270//270 150//150
f 263//263 150//150 145//145
f 272//272 162//162 160//160
f 272//272 160//160 271//271
f 271//271 160//160 154//154
f 271//271 154//154 270//270
f 270//270 154//154 152//152
f 270//270 152//152 150//150
f 162//162 272//272 163//163
f 163//163 272//272 273//273
f 163//163 273//273 167//167
f 274//274 178//178 177//177
f 177//177 174//174 274//274
f 274//274 174//174 171//171
f 274//274 171//171 273//273
f 273//273 171//171 169//169
f 273//273 169//169 167//167
f 178//178 274//274 183//183
f 183//183 274//274 275//275
f 183//183 275//275 185//185
f 202//202 195//195 276//276
f 276//276 195//195 193//193
f 276//276 193//193 275//275
f 275//275 193//193 188//188
f 275//275 188//188 185//185
f 202//202 276//276 214//214
f 214//214 276//276 277//277
f 214//214 277//277 216//216
f 223//223 222//222 278//278
f 278//278 222//222 219//219
f 278//278 219//219 277//277
f 277//277 219//219 218//218
f 277//277 218//218 216//216
f 231//231 228//228 280//280
f 280//280 228//228 227//227
f 280//280 227//227 278//278
f 278//278 227//227 224//224
f 278//278 224//224 223//223
f 231//231 280//280 233//233
f 233//233 280//280 281//281
f 233//233 281//281 234//234
f 241//241 239//239 283//283
f 283//283 239//239 238//238
f 283//283 238//238 281//281
f 281//281 238//238 237//237
f 281//281 237//237 234//234
f 247//247 246//246 264//264
f 264//264 246//246 244//244
f 241//241 283//283 242//242
f 242//242 283//283 284//284
f 242//242 284//284 244//244
f 254//254 252//252 265//265
f 265//265 252//252 250//250
f 265//265 250//250 264//264
f 264//264 250//250 248//248
f 264//264 248//248 247//247
f 262//262 260//260 266//266
f 266//266 260//260 258//258
f 266//266 258//258 265//265
f 265//265 258//258 255//255
f 265//265 255//255 254//254
f 267//267 257//257 259//259
f 267//267 259//259 266//266
f 266//266 259//259 261//261
f 266//266 261//261 262//262
f 249//249 251//251 289//289
f 289//289 251//251 253//253
f 289//289 253//253 256//256
f 215//215 235//235 287//287
f 235//235 236//236 287//287
f 287//287 236//236 240//240
f 287//287 240//240 243//243
f 282//282 279//279 268//268
f 293//293 292//292 282//282
f 282//282 292//292 279//279
f 327//327 322//322 340//340
f 340//340 322//322 314//314
f 340//340 314//314 312//312
f 314//314 299//299 312//312
f 293//293 299//299 292//292
f 377//377 374//374 373//373
f 373//373 374//374 350//350
f 373//373 350//350 340//340
f 340//340 350//350 335//335
f 340//340 335//335 327//327
f 387//387 392//392 377//377
f 387//387 414//414 405//405
f 405//405 401//401 387//387
f 387//387 401//401 393//393
f 738//738 739//739 740//740
f 416//416 448//448 435//435
f 435//435 431//431 416//416
f 243//243 245//245 287//287
f 287//287 245//245 289//289
f 287//287 289//289 295//295
f 295//295 289//289 318//318
f 321//321 297//297 296//296
f 296//296 297//297 288//288
f 296//296 288//288 286//286
f 347//347 320//320 326//326
f 326//326 320//320 321//321
f 326//326 321//321 319//319
f 319//319 321//321 296//296
f 319//319 296//296 294//294
f 294//294 296//296 286//286
f 369//369 351//351 368//368
f 368//368 351//351 343//343
f 352//352 346//346 344//344
f 344//344 346//346 324//324
f 344//344 324//324 316//316
f 349//349 353//353 329//329
f 329//329 353//353 356//356
f 329//329 356//356 330//330
f 330//330 356//356 355//355
f 330//330 355//355 331//331
f 331//331 355//355 357//357
f 331//331 357//357 332//332
f 332//332 357//357 362//362
f 332//332 362//362 333//333
f 333//333 362//362 361//361
f 333//333 361//361 334//334
f 334//334 361//361 360//360
f 334//334 360//360 336//336
f 336//336 360//360 359//359
f 336//336 359//359 337//337
f 337//337 359//359 358//358
f 337//337 358//358 338//338
f 338//338 358//358 367//367
f 338//338 367//367 339//339
f 339//339 367//367 366//366
f 339//339 366//366 341//341
f 341//341 366//366 365//365
f 341//341 365//365 342//342
f 342//342 365//365 364//364
f 342//342 364//364 343//343
f 343//343 364//364 363//363
f 343//343 363//363 368//368
f 369//369 352//352 351//351
f 351//351 352//352 344//344
f 351//351 344//344 343//343
f 343//343 344//344 316//316
f 343//343 316//316 342//342
f 342//342 316//316 315//315
f 342//342 315//315 341//341
f 341//341 315//315 313//313
f 341//341 313//313 339//339
f 339//339 313//313 311//311
f 339//339 311//311 338//338
f 338//338 311//311 310//310
f 338//338 310//310 337//337
f 337//337 310//310 309//309
f 337//337 309//309 336//336
f 336//336 309//309 308//308
f 336//336 308//308 334//334
f 334//334 308//308 307//307
f 334//334 307//307 333//333
f 333//333 307//307 306//306
f 333//333 306//306 332//332
f 332//332 306//306 305//305
f 332//332 305//305 331//331
f 331//331 305//305 304//304
f 331//331 304//304 330//330
f 330//330 304//304 303//303
f 330//330 303//303 329//329
f 329//329 303//303 302//302
f 329//329 302//302 301//301
f 244//244 284//284 264//264
f 264//264 284//284 285//285
f 264//264 285//285 265//265
f 385//385 386//386 415//415
f 430//430 436//436 428//428
f 428//428 436//436 458//458
f 428//428 458//458 427//427
f 427//427 458//458 457//457
f 427//427 457//457 426//426
f 426//426 457//457 456//456
f 426//426 456//456 425//425
f 425//425 456//456 455//455
f 425//425 455//455 424//424
f 424//424 455//455 454//454
f 424//424 454//454 423//423
f 423//423 454//454 453//453
f 423//423 453//453 422//422
f 422//422 453//453 452//452
f 422//422 452//452 421//421
f 421//421 452//452 451//451
f 421//421 451//451 419//419
f 419//419 451//451 450//450
f 419//419 450//450 418//418
f 418//418 450//450 447//447
f 418//418 447//447 417//417
f 417//417 447//447 446//446
f 417//417 446//446 415//415
f 415//415 386//386 417//417
f 417//417 386//386 388//388
f 417//417 388//388 418//418
f 418//418 388//388 389//389
f 418//418 389//389 419//419
f 419//419 389//389 390//390
f 419//419 390//390 421//421
f 421//421 390//390 391//391
f 421//421 391//391 422//422
f 422//422 391//391 394//394
f 422//422 394//394 423//423
f 423//423 394//394 395//395
f 423//423 395//395 424//424
f 424//424 395//395 396//396
f 424//424 396//396 425//425
f 425//425 396//396 397//397
f 425//425 397//397 426//426
f 426//426 397//397 398//398
f 426//426 398//398 427//427
f 427//427 398//398 399//399
f 427//427 399//399 428//428
f 428//428 399//399 402//402
f 428//428 402//402 411//411
f 354//354 378//378 356//356
f 356//356 378//378 399//399
f 356//356 399//399 355//355
f 355//355 399//399 398//398
f 355//355 398//398 357//357
f 357//357 398//398 397//397
f 357//357 397//397 362//362
f 362//362 397//397 396//396
f 362//362 396//396 361//361
f 361//361 396//396 395//395
f 361//361 395//395 360//360
f 360//360 395//395 394//394
f 360//360 394//394 359//359
f 359//359 394//394 391//391
f 359//359 391//391 358//358
f 358//358 391//391 390//390
f 358//358 390//390 367//367
f 367//367 390//390 389//389
f 367//367 389//389 366//366
f 366//366 389//389 388//388
f 366//366 388//388 365//365
f 365//365 388//388 386//386
f 365//365 386//386 364//364
f 364//364 386//386 385//385
f 364//364 385//385 363//363
f 484//484 483//483 464//464
f 464//464 483//483 463//463
f 464//464 463//463 441//441
f 441//441 463//463 462//462
f 441//441 462//462 439//439
f 439//439 462//462 461//461
f 439//439 461//461 437//437
f 437//437 461//461 438//438
f 493//493 494//494 440//440
f 440//440 494//494 445//445
f 440//440 445//445 742//742
f 742//742 445//445 449//449
f 743//743 745//745 744//744
f 479//479 481//481 438//438
f 438//438 481//481 440//440
f 438//438 440//440 409//409
f 409//409 440//440 742//742
f 412//412 410//410 404//404
f 404//404 410//410 408//408
f 404//404 408//408 403//403
f 403//403 408//408 406//406
f 403//403 406//406 379//379
f 380//380 372//372 371//371
f 371//371 372//372 345//345
f 371//371 345//345 347//347
f 347//347 345//345 318//318
f 347//347 318//318 320//320
f 320//320 318//318 289//289
f 320//320 289//289 297//297
f 297//297 289//289 290//290
f 297//297 290//290 288//288
f 384//384 383//383 376//376
f 376//376 383//383 381//381
f 376//376 381//381 375//375
f 406//406 380//380 379//379
f 379//379 380//380 371//371
f 379//379 371//371 370//370
f 370//370 371//371 347//347
f 370//370 347//347 348//348
f 348//348 347//347 326//326
f 348//348 326//326 325//325
f 325//325 326//326 319//319
f 325//325 319//319 317//317
f 317//317 319//319 294//294
f 317//317 294//294 285//285
f 285//285 294//294 286//286
f 285//285 286//286 265//265
f 265//265 286//286 288//288
f 265//265 288//288 266//266
f 266//266 288//288 290//290
f 266//266 290//290 267//267
f 267//267 290//290 289//289
f 267//267 289//289 257//257
f 257//257 289//289 256//256
f 489//489 488//488 444//444
f 444//444 488//488 443//443
f 444//444 443//443 413//413
f 413//413 443//443 412//412
f 413//413 412//412 384//384
f 384//384 412//412 404//404
f 384//384 404//404 383//383
f 383//383 404//404 403//403
f 383//383 403//403 381//381
f 381//381 403//403 379//379
f 381//381 379//379 375//375
f 375//375 379//379 370//370
f 377//377 373//373 387//387
f 387//387 373//373 382//382
f 387//387 382//382 409//409
f 409//409 382//382 407//407
f 409//409 407//407 438//438
f 438//438 407//407 432//432
f 438//438 432//432 437//437
f 437//437 432//432 433//433
f 437//437 433//433 439//439
f 439//439 433//433 434//434
f 439//439 434//434 441//441
f 441//441 434//434 442//442
f 441//441 442//442 464//464
f 486//486 464//464 443//443
f 443//443 464//464 442//442
f 443//443 442//442 412//412
f 412//412 442//442 434//434
f 412//412 434//434 410//410
f 410//410 434//434 433//433
f 410//410 433//433 408//408
f 408//408 433//433 432//432
f 408//408 432//432 406//406
f 406//406 432//432 407//407
f 406//406 407//407 380//380
f 380//380 407//407 382//382
f 380//380 382//382 372//372
f 372//372 382//382 373//373
f 372//372 373//373 345//345
f 345//345 373//373 340//340
f 345//345 340//340 318//318
f 318//318 340//340 312//312
f 318//318 312//312 295//295
f 295//295 312//312 293//293
f 295//295 293//293 287//287
f 287//287 293//293 282//282
f 287//287 282//282 215//215
f 215//215 282//282 268//268
f 215//215 268//268 213//213
f 495//495 492//492 446//446
f 446//446 492//492 444//444
f 446//446 444//444 415//415
f 415//415 444//444 413//413
f 415//415 413//413 385//385
f 385//385 413//413 384//384
f 385//385 384//384 363//363
f 363//363 384//384 376//376
f 363//363 376//376 368//368
f 368//368 376//376 375//375
f 368//368 375//375 369//369
f 369//369 375//375 370//370
f 369//369 370//370 352//352
f 352//352 370//370 348//348
f 352//352 348//348 346//346
f 346//346 348//348 325//325
f 346//346 325//325 324//324
f 324//324 325//325 317//317
f 324//324 317//317 316//316
f 316//316 317//317 285//285
f 316//316 285//285 315//315
f 315//315 285//285 284//284
f 315//315 284//284 313//313
f 313//313 284//284 283//283
f 313//313 283//283 311//311
f 311//311 283//283 281//281
f 311//311 281//281 310//310
f 310//310 281//281 280//280
f 310//310 280//280 309//309
f 309//309 280//280 278//278
f 309//309 278//278 308//308
f 308//308 278//278 277//277
f 308//308 277//277 307//307
f 307//307 277//277 276//276
f 307//307 276//276 306//306
f 306//306 276//276 275//275
f 306//306 275//275 305//305
f 305//305 275//275 274//274
f 305//305 274//274 304//304
f 304//304 274//274 273//273
f 304//304 273//273 303//303
f 303//303 273//273 272//272
f 303//303 272//272 302//302
f 302//302 272//272 271//271
f 302//302 271//271 301//301
f 301//301 271//271 270//270
f 301//301 270//270 298//298
f 298//298 270//270 291//291
f 414//414 742//742 420//420
f 420//420 742//742 431//431
f 143//143 127//127 125//125
f 123//123 124//124 126//126
f 160//160 125//125 122//122
f 150//150 123//123 126//126
f 126//126 129//129 145//145
f 123//123 152//152 154//154
f 126//126 145//145 150//150
f 154//154 122//122 123//123
f 162//162 163//163 143//143
f 125//125 160//160 162//162
f 123//123 150//150 152//152
f 162//162 143//143 125//125
f 105//105 103//103 111//111
f 126//126 123//123 105//105
f 117//117 129//129 126//126
f 126//126 111//111 117//117
f 105//105 102//102 103//103
f 111//111 126//126 105//105

